<?xml version="1.0" encoding="utf-8" standalone="no"?>
<!DOCTYPE svg PUBLIC "-//W3C//DTD SVG 1.1//EN"
  "http://www.w3.org/Graphics/SVG/1.1/DTD/svg11.dtd">
<svg xmlns:xlink="http://www.w3.org/1999/xlink" width="288pt" height="216pt" viewBox="0 0 288 216" xmlns="http://www.w3.org/2000/svg" version="1.1">
 <metadata>
  <rdf:RDF xmlns:dc="http://purl.org/dc/elements/1.1/" xmlns:cc="http://creativecommons.org/ns#" xmlns:rdf="http://www.w3.org/1999/02/22-rdf-syntax-ns#">
   <cc:Work>
    <dc:type rdf:resource="http://purl.org/dc/dcmitype/StillImage"/>
    <dc:date>2025-09-18T00:07:15.703261</dc:date>
    <dc:format>image/svg+xml</dc:format>
    <dc:creator>
     <cc:Agent>
      <dc:title>Matplotlib v3.10.0, https://matplotlib.org/</dc:title>
     </cc:Agent>
    </dc:creator>
   </cc:Work>
  </rdf:RDF>
 </metadata>
 <defs>
  <style type="text/css">*{stroke-linejoin: round; stroke-linecap: butt}</style>
 </defs>
 <g id="figure_1">
  <g id="patch_1">
   <path d="M 0 216 
L 288 216 
L 288 0 
L 0 0 
z
" style="fill: #ffffff"/>
  </g>
  <g id="axes_1">
   <g id="patch_2">
    <path d="M 33.7 188.6 
L 269.25 188.6 
L 269.25 14.52 
L 33.7 14.52 
z
" style="fill: #ffffff"/>
   </g>
   <g id="matplotlib.axis_1">
    <g id="xtick_1">
     <g id="line2d_1">
      <defs>
       <path id="mce7bd62999" d="M 0 0 
L 0 3.5 
" style="stroke: #000000; stroke-width: 0.8"/>
      </defs>
      <g>
       <use xlink:href="#mce7bd62999" x="44.138477" y="188.6" style="stroke: #000000; stroke-width: 0.8"/>
      </g>
     </g>
     <g id="text_1">
      <!-- 0 -->
      <g transform="translate(40.957227 203.198437) scale(0.1 -0.1)">
       <defs>
        <path id="DejaVuSans-30" d="M 2034 4250 
Q 1547 4250 1301 3770 
Q 1056 3291 1056 2328 
Q 1056 1369 1301 889 
Q 1547 409 2034 409 
Q 2525 409 2770 889 
Q 3016 1369 3016 2328 
Q 3016 3291 2770 3770 
Q 2525 4250 2034 4250 
z
M 2034 4750 
Q 2819 4750 3233 4129 
Q 3647 3509 3647 2328 
Q 3647 1150 3233 529 
Q 2819 -91 2034 -91 
Q 1250 -91 836 529 
Q 422 1150 422 2328 
Q 422 3509 836 4129 
Q 1250 4750 2034 4750 
z
" transform="scale(0.015625)"/>
       </defs>
       <use xlink:href="#DejaVuSans-30"/>
      </g>
     </g>
    </g>
    <g id="xtick_2">
     <g id="line2d_2">
      <g>
       <use xlink:href="#mce7bd62999" x="87.073086" y="188.6" style="stroke: #000000; stroke-width: 0.8"/>
      </g>
     </g>
     <g id="text_2">
      <!-- 200 -->
      <g transform="translate(77.529336 203.198437) scale(0.1 -0.1)">
       <defs>
        <path id="DejaVuSans-32" d="M 1228 531 
L 3431 531 
L 3431 0 
L 469 0 
L 469 531 
Q 828 903 1448 1529 
Q 2069 2156 2228 2338 
Q 2531 2678 2651 2914 
Q 2772 3150 2772 3378 
Q 2772 3750 2511 3984 
Q 2250 4219 1831 4219 
Q 1534 4219 1204 4116 
Q 875 4013 500 3803 
L 500 4441 
Q 881 4594 1212 4672 
Q 1544 4750 1819 4750 
Q 2544 4750 2975 4387 
Q 3406 4025 3406 3419 
Q 3406 3131 3298 2873 
Q 3191 2616 2906 2266 
Q 2828 2175 2409 1742 
Q 1991 1309 1228 531 
z
" transform="scale(0.015625)"/>
       </defs>
       <use xlink:href="#DejaVuSans-32"/>
       <use xlink:href="#DejaVuSans-30" transform="translate(63.623047 0)"/>
       <use xlink:href="#DejaVuSans-30" transform="translate(127.246094 0)"/>
      </g>
     </g>
    </g>
    <g id="xtick_3">
     <g id="line2d_3">
      <g>
       <use xlink:href="#mce7bd62999" x="130.007695" y="188.6" style="stroke: #000000; stroke-width: 0.8"/>
      </g>
     </g>
     <g id="text_3">
      <!-- 400 -->
      <g transform="translate(120.463945 203.198437) scale(0.1 -0.1)">
       <defs>
        <path id="DejaVuSans-34" d="M 2419 4116 
L 825 1625 
L 2419 1625 
L 2419 4116 
z
M 2253 4666 
L 3047 4666 
L 3047 1625 
L 3713 1625 
L 3713 1100 
L 3047 1100 
L 3047 0 
L 2419 0 
L 2419 1100 
L 313 1100 
L 313 1709 
L 2253 4666 
z
" transform="scale(0.015625)"/>
       </defs>
       <use xlink:href="#DejaVuSans-34"/>
       <use xlink:href="#DejaVuSans-30" transform="translate(63.623047 0)"/>
       <use xlink:href="#DejaVuSans-30" transform="translate(127.246094 0)"/>
      </g>
     </g>
    </g>
    <g id="xtick_4">
     <g id="line2d_4">
      <g>
       <use xlink:href="#mce7bd62999" x="172.942305" y="188.6" style="stroke: #000000; stroke-width: 0.8"/>
      </g>
     </g>
     <g id="text_4">
      <!-- 600 -->
      <g transform="translate(163.398555 203.198437) scale(0.1 -0.1)">
       <defs>
        <path id="DejaVuSans-36" d="M 2113 2584 
Q 1688 2584 1439 2293 
Q 1191 2003 1191 1497 
Q 1191 994 1439 701 
Q 1688 409 2113 409 
Q 2538 409 2786 701 
Q 3034 994 3034 1497 
Q 3034 2003 2786 2293 
Q 2538 2584 2113 2584 
z
M 3366 4563 
L 3366 3988 
Q 3128 4100 2886 4159 
Q 2644 4219 2406 4219 
Q 1781 4219 1451 3797 
Q 1122 3375 1075 2522 
Q 1259 2794 1537 2939 
Q 1816 3084 2150 3084 
Q 2853 3084 3261 2657 
Q 3669 2231 3669 1497 
Q 3669 778 3244 343 
Q 2819 -91 2113 -91 
Q 1303 -91 875 529 
Q 447 1150 447 2328 
Q 447 3434 972 4092 
Q 1497 4750 2381 4750 
Q 2619 4750 2861 4703 
Q 3103 4656 3366 4563 
z
" transform="scale(0.015625)"/>
       </defs>
       <use xlink:href="#DejaVuSans-36"/>
       <use xlink:href="#DejaVuSans-30" transform="translate(63.623047 0)"/>
       <use xlink:href="#DejaVuSans-30" transform="translate(127.246094 0)"/>
      </g>
     </g>
    </g>
    <g id="xtick_5">
     <g id="line2d_5">
      <g>
       <use xlink:href="#mce7bd62999" x="215.876914" y="188.6" style="stroke: #000000; stroke-width: 0.8"/>
      </g>
     </g>
     <g id="text_5">
      <!-- 800 -->
      <g transform="translate(206.333164 203.198437) scale(0.1 -0.1)">
       <defs>
        <path id="DejaVuSans-38" d="M 2034 2216 
Q 1584 2216 1326 1975 
Q 1069 1734 1069 1313 
Q 1069 891 1326 650 
Q 1584 409 2034 409 
Q 2484 409 2743 651 
Q 3003 894 3003 1313 
Q 3003 1734 2745 1975 
Q 2488 2216 2034 2216 
z
M 1403 2484 
Q 997 2584 770 2862 
Q 544 3141 544 3541 
Q 544 4100 942 4425 
Q 1341 4750 2034 4750 
Q 2731 4750 3128 4425 
Q 3525 4100 3525 3541 
Q 3525 3141 3298 2862 
Q 3072 2584 2669 2484 
Q 3125 2378 3379 2068 
Q 3634 1759 3634 1313 
Q 3634 634 3220 271 
Q 2806 -91 2034 -91 
Q 1263 -91 848 271 
Q 434 634 434 1313 
Q 434 1759 690 2068 
Q 947 2378 1403 2484 
z
M 1172 3481 
Q 1172 3119 1398 2916 
Q 1625 2713 2034 2713 
Q 2441 2713 2670 2916 
Q 2900 3119 2900 3481 
Q 2900 3844 2670 4047 
Q 2441 4250 2034 4250 
Q 1625 4250 1398 4047 
Q 1172 3844 1172 3481 
z
" transform="scale(0.015625)"/>
       </defs>
       <use xlink:href="#DejaVuSans-38"/>
       <use xlink:href="#DejaVuSans-30" transform="translate(63.623047 0)"/>
       <use xlink:href="#DejaVuSans-30" transform="translate(127.246094 0)"/>
      </g>
     </g>
    </g>
    <g id="xtick_6">
     <g id="line2d_6">
      <g>
       <use xlink:href="#mce7bd62999" x="258.811523" y="188.6" style="stroke: #000000; stroke-width: 0.8"/>
      </g>
     </g>
     <g id="text_6">
      <!-- 1000 -->
      <g transform="translate(246.086523 203.198437) scale(0.1 -0.1)">
       <defs>
        <path id="DejaVuSans-31" d="M 794 531 
L 1825 531 
L 1825 4091 
L 703 3866 
L 703 4441 
L 1819 4666 
L 2450 4666 
L 2450 531 
L 3481 531 
L 3481 0 
L 794 0 
L 794 531 
z
" transform="scale(0.015625)"/>
       </defs>
       <use xlink:href="#DejaVuSans-31"/>
       <use xlink:href="#DejaVuSans-30" transform="translate(63.623047 0)"/>
       <use xlink:href="#DejaVuSans-30" transform="translate(127.246094 0)"/>
       <use xlink:href="#DejaVuSans-30" transform="translate(190.869141 0)"/>
      </g>
     </g>
    </g>
    <g id="text_7">
     <!-- q (nm) -->
     <g transform="translate(134.771094 216.876563) scale(0.1 -0.1)">
      <defs>
       <path id="DejaVuSans-71" d="M 947 1747 
Q 947 1113 1208 752 
Q 1469 391 1925 391 
Q 2381 391 2643 752 
Q 2906 1113 2906 1747 
Q 2906 2381 2643 2742 
Q 2381 3103 1925 3103 
Q 1469 3103 1208 2742 
Q 947 2381 947 1747 
z
M 2906 525 
Q 2725 213 2448 61 
Q 2172 -91 1784 -91 
Q 1150 -91 751 415 
Q 353 922 353 1747 
Q 353 2572 751 3078 
Q 1150 3584 1784 3584 
Q 2172 3584 2448 3432 
Q 2725 3281 2906 2969 
L 2906 3500 
L 3481 3500 
L 3481 -1331 
L 2906 -1331 
L 2906 525 
z
" transform="scale(0.015625)"/>
       <path id="DejaVuSans-20" transform="scale(0.015625)"/>
       <path id="DejaVuSans-28" d="M 1984 4856 
Q 1566 4138 1362 3434 
Q 1159 2731 1159 2009 
Q 1159 1288 1364 580 
Q 1569 -128 1984 -844 
L 1484 -844 
Q 1016 -109 783 600 
Q 550 1309 550 2009 
Q 550 2706 781 3412 
Q 1013 4119 1484 4856 
L 1984 4856 
z
" transform="scale(0.015625)"/>
       <path id="DejaVuSans-6e" d="M 3513 2113 
L 3513 0 
L 2938 0 
L 2938 2094 
Q 2938 2591 2744 2837 
Q 2550 3084 2163 3084 
Q 1697 3084 1428 2787 
Q 1159 2491 1159 1978 
L 1159 0 
L 581 0 
L 581 3500 
L 1159 3500 
L 1159 2956 
Q 1366 3272 1645 3428 
Q 1925 3584 2291 3584 
Q 2894 3584 3203 3211 
Q 3513 2838 3513 2113 
z
" transform="scale(0.015625)"/>
       <path id="DejaVuSans-6d" d="M 3328 2828 
Q 3544 3216 3844 3400 
Q 4144 3584 4550 3584 
Q 5097 3584 5394 3201 
Q 5691 2819 5691 2113 
L 5691 0 
L 5113 0 
L 5113 2094 
Q 5113 2597 4934 2840 
Q 4756 3084 4391 3084 
Q 3944 3084 3684 2787 
Q 3425 2491 3425 1978 
L 3425 0 
L 2847 0 
L 2847 2094 
Q 2847 2600 2669 2842 
Q 2491 3084 2119 3084 
Q 1678 3084 1418 2786 
Q 1159 2488 1159 1978 
L 1159 0 
L 581 0 
L 581 3500 
L 1159 3500 
L 1159 2956 
Q 1356 3278 1631 3431 
Q 1906 3584 2284 3584 
Q 2666 3584 2933 3390 
Q 3200 3197 3328 2828 
z
" transform="scale(0.015625)"/>
       <path id="DejaVuSans-29" d="M 513 4856 
L 1013 4856 
Q 1481 4119 1714 3412 
Q 1947 2706 1947 2009 
Q 1947 1309 1714 600 
Q 1481 -109 1013 -844 
L 513 -844 
Q 928 -128 1133 580 
Q 1338 1288 1338 2009 
Q 1338 2731 1133 3434 
Q 928 4138 513 4856 
z
" transform="scale(0.015625)"/>
      </defs>
      <use xlink:href="#DejaVuSans-71"/>
      <use xlink:href="#DejaVuSans-20" transform="translate(63.476562 0)"/>
      <use xlink:href="#DejaVuSans-28" transform="translate(95.263672 0)"/>
      <use xlink:href="#DejaVuSans-6e" transform="translate(134.277344 0)"/>
      <use xlink:href="#DejaVuSans-6d" transform="translate(197.65625 0)"/>
      <use xlink:href="#DejaVuSans-29" transform="translate(295.068359 0)"/>
     </g>
    </g>
   </g>
   <g id="matplotlib.axis_2">
    <g id="ytick_1">
     <g id="line2d_7">
      <defs>
       <path id="mef1c59f902" d="M 0 0 
L -3.5 0 
" style="stroke: #000000; stroke-width: 0.8"/>
      </defs>
      <g>
       <use xlink:href="#mef1c59f902" x="33.7" y="180.687273" style="stroke: #000000; stroke-width: 0.8"/>
      </g>
     </g>
     <g id="text_8">
      <!-- 0 -->
      <g transform="translate(20.3375 184.486491) scale(0.1 -0.1)">
       <use xlink:href="#DejaVuSans-30"/>
      </g>
     </g>
    </g>
    <g id="ytick_2">
     <g id="line2d_8">
      <g>
       <use xlink:href="#mef1c59f902" x="33.7" y="158.3649" style="stroke: #000000; stroke-width: 0.8"/>
      </g>
     </g>
     <g id="text_9">
      <!-- 10000 -->
      <g transform="translate(-5.1125 162.164119) scale(0.1 -0.1)">
       <use xlink:href="#DejaVuSans-31"/>
       <use xlink:href="#DejaVuSans-30" transform="translate(63.623047 0)"/>
       <use xlink:href="#DejaVuSans-30" transform="translate(127.246094 0)"/>
       <use xlink:href="#DejaVuSans-30" transform="translate(190.869141 0)"/>
       <use xlink:href="#DejaVuSans-30" transform="translate(254.492188 0)"/>
      </g>
     </g>
    </g>
    <g id="ytick_3">
     <g id="line2d_9">
      <g>
       <use xlink:href="#mef1c59f902" x="33.7" y="136.042528" style="stroke: #000000; stroke-width: 0.8"/>
      </g>
     </g>
     <g id="text_10">
      <!-- 20000 -->
      <g transform="translate(-5.1125 139.841747) scale(0.1 -0.1)">
       <use xlink:href="#DejaVuSans-32"/>
       <use xlink:href="#DejaVuSans-30" transform="translate(63.623047 0)"/>
       <use xlink:href="#DejaVuSans-30" transform="translate(127.246094 0)"/>
       <use xlink:href="#DejaVuSans-30" transform="translate(190.869141 0)"/>
       <use xlink:href="#DejaVuSans-30" transform="translate(254.492188 0)"/>
      </g>
     </g>
    </g>
    <g id="ytick_4">
     <g id="line2d_10">
      <g>
       <use xlink:href="#mef1c59f902" x="33.7" y="113.720156" style="stroke: #000000; stroke-width: 0.8"/>
      </g>
     </g>
     <g id="text_11">
      <!-- 30000 -->
      <g transform="translate(-5.1125 117.519375) scale(0.1 -0.1)">
       <defs>
        <path id="DejaVuSans-33" d="M 2597 2516 
Q 3050 2419 3304 2112 
Q 3559 1806 3559 1356 
Q 3559 666 3084 287 
Q 2609 -91 1734 -91 
Q 1441 -91 1130 -33 
Q 819 25 488 141 
L 488 750 
Q 750 597 1062 519 
Q 1375 441 1716 441 
Q 2309 441 2620 675 
Q 2931 909 2931 1356 
Q 2931 1769 2642 2001 
Q 2353 2234 1838 2234 
L 1294 2234 
L 1294 2753 
L 1863 2753 
Q 2328 2753 2575 2939 
Q 2822 3125 2822 3475 
Q 2822 3834 2567 4026 
Q 2313 4219 1838 4219 
Q 1578 4219 1281 4162 
Q 984 4106 628 3988 
L 628 4550 
Q 988 4650 1302 4700 
Q 1616 4750 1894 4750 
Q 2613 4750 3031 4423 
Q 3450 4097 3450 3541 
Q 3450 3153 3228 2886 
Q 3006 2619 2597 2516 
z
" transform="scale(0.015625)"/>
       </defs>
       <use xlink:href="#DejaVuSans-33"/>
       <use xlink:href="#DejaVuSans-30" transform="translate(63.623047 0)"/>
       <use xlink:href="#DejaVuSans-30" transform="translate(127.246094 0)"/>
       <use xlink:href="#DejaVuSans-30" transform="translate(190.869141 0)"/>
       <use xlink:href="#DejaVuSans-30" transform="translate(254.492188 0)"/>
      </g>
     </g>
    </g>
    <g id="ytick_5">
     <g id="line2d_11">
      <g>
       <use xlink:href="#mef1c59f902" x="33.7" y="91.397784" style="stroke: #000000; stroke-width: 0.8"/>
      </g>
     </g>
     <g id="text_12">
      <!-- 40000 -->
      <g transform="translate(-5.1125 95.197002) scale(0.1 -0.1)">
       <use xlink:href="#DejaVuSans-34"/>
       <use xlink:href="#DejaVuSans-30" transform="translate(63.623047 0)"/>
       <use xlink:href="#DejaVuSans-30" transform="translate(127.246094 0)"/>
       <use xlink:href="#DejaVuSans-30" transform="translate(190.869141 0)"/>
       <use xlink:href="#DejaVuSans-30" transform="translate(254.492188 0)"/>
      </g>
     </g>
    </g>
    <g id="ytick_6">
     <g id="line2d_12">
      <g>
       <use xlink:href="#mef1c59f902" x="33.7" y="69.075411" style="stroke: #000000; stroke-width: 0.8"/>
      </g>
     </g>
     <g id="text_13">
      <!-- 50000 -->
      <g transform="translate(-5.1125 72.87463) scale(0.1 -0.1)">
       <defs>
        <path id="DejaVuSans-35" d="M 691 4666 
L 3169 4666 
L 3169 4134 
L 1269 4134 
L 1269 2991 
Q 1406 3038 1543 3061 
Q 1681 3084 1819 3084 
Q 2600 3084 3056 2656 
Q 3513 2228 3513 1497 
Q 3513 744 3044 326 
Q 2575 -91 1722 -91 
Q 1428 -91 1123 -41 
Q 819 9 494 109 
L 494 744 
Q 775 591 1075 516 
Q 1375 441 1709 441 
Q 2250 441 2565 725 
Q 2881 1009 2881 1497 
Q 2881 1984 2565 2268 
Q 2250 2553 1709 2553 
Q 1456 2553 1204 2497 
Q 953 2441 691 2322 
L 691 4666 
z
" transform="scale(0.015625)"/>
       </defs>
       <use xlink:href="#DejaVuSans-35"/>
       <use xlink:href="#DejaVuSans-30" transform="translate(63.623047 0)"/>
       <use xlink:href="#DejaVuSans-30" transform="translate(127.246094 0)"/>
       <use xlink:href="#DejaVuSans-30" transform="translate(190.869141 0)"/>
       <use xlink:href="#DejaVuSans-30" transform="translate(254.492188 0)"/>
      </g>
     </g>
    </g>
    <g id="ytick_7">
     <g id="line2d_13">
      <g>
       <use xlink:href="#mef1c59f902" x="33.7" y="46.753039" style="stroke: #000000; stroke-width: 0.8"/>
      </g>
     </g>
     <g id="text_14">
      <!-- 60000 -->
      <g transform="translate(-5.1125 50.552258) scale(0.1 -0.1)">
       <use xlink:href="#DejaVuSans-36"/>
       <use xlink:href="#DejaVuSans-30" transform="translate(63.623047 0)"/>
       <use xlink:href="#DejaVuSans-30" transform="translate(127.246094 0)"/>
       <use xlink:href="#DejaVuSans-30" transform="translate(190.869141 0)"/>
       <use xlink:href="#DejaVuSans-30" transform="translate(254.492188 0)"/>
      </g>
     </g>
    </g>
    <g id="ytick_8">
     <g id="line2d_14">
      <g>
       <use xlink:href="#mef1c59f902" x="33.7" y="24.430667" style="stroke: #000000; stroke-width: 0.8"/>
      </g>
     </g>
     <g id="text_15">
      <!-- 70000 -->
      <g transform="translate(-5.1125 28.229886) scale(0.1 -0.1)">
       <defs>
        <path id="DejaVuSans-37" d="M 525 4666 
L 3525 4666 
L 3525 4397 
L 1831 0 
L 1172 0 
L 2766 4134 
L 525 4134 
L 525 4666 
z
" transform="scale(0.015625)"/>
       </defs>
       <use xlink:href="#DejaVuSans-37"/>
       <use xlink:href="#DejaVuSans-30" transform="translate(63.623047 0)"/>
       <use xlink:href="#DejaVuSans-30" transform="translate(127.246094 0)"/>
       <use xlink:href="#DejaVuSans-30" transform="translate(190.869141 0)"/>
       <use xlink:href="#DejaVuSans-30" transform="translate(254.492188 0)"/>
      </g>
     </g>
    </g>
    <g id="text_16">
     <!-- rdf -->
     <g transform="translate(-11.192187 108.462344) rotate(-90) scale(0.1 -0.1)">
      <defs>
       <path id="DejaVuSans-72" d="M 2631 2963 
Q 2534 3019 2420 3045 
Q 2306 3072 2169 3072 
Q 1681 3072 1420 2755 
Q 1159 2438 1159 1844 
L 1159 0 
L 581 0 
L 581 3500 
L 1159 3500 
L 1159 2956 
Q 1341 3275 1631 3429 
Q 1922 3584 2338 3584 
Q 2397 3584 2469 3576 
Q 2541 3569 2628 3553 
L 2631 2963 
z
" transform="scale(0.015625)"/>
       <path id="DejaVuSans-64" d="M 2906 2969 
L 2906 4863 
L 3481 4863 
L 3481 0 
L 2906 0 
L 2906 525 
Q 2725 213 2448 61 
Q 2172 -91 1784 -91 
Q 1150 -91 751 415 
Q 353 922 353 1747 
Q 353 2572 751 3078 
Q 1150 3584 1784 3584 
Q 2172 3584 2448 3432 
Q 2725 3281 2906 2969 
z
M 947 1747 
Q 947 1113 1208 752 
Q 1469 391 1925 391 
Q 2381 391 2643 752 
Q 2906 1113 2906 1747 
Q 2906 2381 2643 2742 
Q 2381 3103 1925 3103 
Q 1469 3103 1208 2742 
Q 947 2381 947 1747 
z
" transform="scale(0.015625)"/>
       <path id="DejaVuSans-66" d="M 2375 4863 
L 2375 4384 
L 1825 4384 
Q 1516 4384 1395 4259 
Q 1275 4134 1275 3809 
L 1275 3500 
L 2222 3500 
L 2222 3053 
L 1275 3053 
L 1275 0 
L 697 0 
L 697 3053 
L 147 3053 
L 147 3500 
L 697 3500 
L 697 3744 
Q 697 4328 969 4595 
Q 1241 4863 1831 4863 
L 2375 4863 
z
" transform="scale(0.015625)"/>
      </defs>
      <use xlink:href="#DejaVuSans-72"/>
      <use xlink:href="#DejaVuSans-64" transform="translate(39.363281 0)"/>
      <use xlink:href="#DejaVuSans-66" transform="translate(102.839844 0)"/>
     </g>
    </g>
   </g>
   <g id="line2d_15">
    <path d="M 44.406818 180.687273 
L 94.318301 180.687273 
L 94.854984 180.566993 
L 95.391667 87.056928 
L 95.928349 22.432727 
L 96.465032 179.105384 
L 97.001715 180.576563 
L 97.538397 178.951348 
L 98.07508 178.453988 
L 98.611762 175.161402 
L 99.148445 169.850118 
L 99.685128 168.053078 
L 100.22181 170.359327 
L 100.758493 175.572483 
L 101.295175 178.319733 
L 101.831858 179.943689 
L 102.368541 179.957331 
L 103.978589 180.428076 
L 105.051954 180.103607 
L 105.588636 180.523412 
L 106.125319 180.3652 
L 106.662002 180.054138 
L 107.198684 179.520264 
L 107.735367 177.780537 
L 108.272049 175.121129 
L 108.808732 173.585688 
L 109.345415 175.73945 
L 109.882097 179.040957 
L 110.41878 179.983028 
L 111.492145 179.937096 
L 112.028828 179.881785 
L 112.56551 176.524542 
L 113.638876 163.649974 
L 114.175558 164.730046 
L 115.248923 177.628151 
L 115.785606 178.999735 
L 116.322289 177.421566 
L 116.858971 171.385248 
L 117.395654 164.084301 
L 117.932337 166.427006 
L 118.469019 173.967727 
L 119.005702 177.761869 
L 119.542384 179.871071 
L 121.152432 180.478624 
L 122.76248 180.186797 
L 123.299163 180.489787 
L 124.372528 180.591154 
L 124.909211 180.355314 
L 125.445893 179.798099 
L 125.982576 179.809721 
L 126.519258 178.590266 
L 127.055941 174.567425 
L 127.592624 173.624165 
L 128.129306 174.722837 
L 128.665989 174.062208 
L 129.202671 170.554009 
L 129.739354 170.765129 
L 130.276037 175.058122 
L 130.812719 178.422227 
L 131.349402 179.792372 
L 131.886085 180.365823 
L 132.422767 180.488802 
L 134.569498 180.498113 
L 135.10618 180.350791 
L 135.642863 179.763532 
L 136.179545 177.144832 
L 136.716228 170.291095 
L 137.252911 168.697778 
L 137.789593 175.29019 
L 138.326276 176.746486 
L 138.862959 169.894965 
L 139.399641 160.231611 
L 139.936324 162.921074 
L 140.473006 173.886461 
L 141.009689 178.181633 
L 141.546372 179.383009 
L 142.083054 179.913265 
L 142.619737 179.570782 
L 143.156419 178.47843 
L 143.693102 176.004934 
L 144.229785 172.59626 
L 144.766467 173.629474 
L 145.30315 175.790027 
L 146.376515 157.659684 
L 146.913198 174.653497 
L 147.44988 178.36834 
L 147.986563 175.351335 
L 148.523246 169.045878 
L 149.059928 166.12945 
L 149.596611 171.11769 
L 150.133293 177.272617 
L 150.669976 179.705883 
L 151.206659 180.28245 
L 151.743341 179.618486 
L 152.280024 178.226946 
L 152.816707 175.657937 
L 153.353389 174.202846 
L 153.890072 175.807196 
L 154.426754 179.084852 
L 154.963437 179.931586 
L 155.50012 180.113487 
L 156.036802 179.575387 
L 157.110167 175.790546 
L 157.64685 174.828189 
L 158.183533 177.476023 
L 158.720215 179.320518 
L 159.256898 180.197017 
L 161.403628 180.597278 
L 161.940311 180.50892 
L 162.476994 180.554718 
L 163.013676 180.402659 
L 163.550359 179.754303 
L 164.087041 178.665968 
L 165.160407 170.822592 
L 165.697089 171.516666 
L 166.233772 175.395047 
L 166.770455 177.436825 
L 167.307137 176.037535 
L 167.84382 175.936262 
L 168.380502 177.740988 
L 168.917185 178.46175 
L 169.453868 177.633636 
L 170.527233 171.933074 
L 171.600598 174.65067 
L 172.137281 173.228265 
L 172.673963 168.234381 
L 173.210646 168.616276 
L 174.284011 177.271592 
L 174.820694 179.18365 
L 175.357376 178.58501 
L 175.894059 176.30306 
L 176.430742 175.631459 
L 176.967424 176.882146 
L 177.504107 177.382354 
L 178.040789 176.597801 
L 178.577472 176.579034 
L 179.114155 176.356909 
L 179.650837 175.750922 
L 180.18752 177.260709 
L 180.724203 179.294234 
L 181.260885 180.127828 
L 181.797568 180.605642 
L 182.33425 180.509077 
L 182.870933 180.526527 
L 183.407616 180.352304 
L 183.944298 180.434015 
L 184.480981 180.20033 
L 185.017663 179.50256 
L 185.554346 177.14459 
L 186.091029 173.440398 
L 186.627711 173.784407 
L 187.164394 177.481001 
L 187.701077 179.276228 
L 188.237759 179.703904 
L 188.774442 177.448446 
L 189.311124 172.18755 
L 189.847807 169.947671 
L 190.38449 172.962809 
L 190.921172 173.536136 
L 191.457855 175.897488 
L 191.994537 177.460627 
L 193.067903 174.898555 
L 193.604585 176.117203 
L 194.141268 178.391054 
L 194.677951 179.431294 
L 195.214633 178.694677 
L 195.751316 174.845928 
L 196.287998 176.611083 
L 196.824681 177.356307 
L 197.361364 176.984259 
L 197.898046 175.321946 
L 198.971411 173.086043 
L 200.044777 178.663491 
L 200.581459 179.979374 
L 201.118142 180.260412 
L 201.654825 180.038866 
L 202.191507 179.238249 
L 202.72819 177.19376 
L 203.264872 176.924036 
L 203.801555 177.204151 
L 204.338238 177.251558 
L 204.87492 177.813327 
L 205.411603 178.153593 
L 205.948285 177.922225 
L 207.021651 175.089895 
L 207.558333 174.952835 
L 208.095016 175.18596 
L 208.631699 175.839251 
L 209.168381 176.995344 
L 209.705064 175.236021 
L 210.241746 174.093762 
L 210.778429 174.804639 
L 211.315112 177.953001 
L 211.851794 178.45444 
L 212.388477 176.905805 
L 212.925159 174.269153 
L 213.461842 174.557976 
L 213.998525 176.612559 
L 214.535207 177.330789 
L 215.07189 177.235369 
L 215.608573 177.488442 
L 216.681938 179.263574 
L 217.21862 179.56156 
L 218.291986 176.913012 
L 218.828668 176.023722 
L 219.365351 177.029648 
L 219.902033 177.472561 
L 220.975399 176.502346 
L 221.512081 177.206124 
L 222.048764 179.02562 
L 222.585447 179.424221 
L 223.122129 178.900614 
L 223.658812 177.567312 
L 224.195494 174.942539 
L 224.732177 173.278587 
L 225.26886 175.142409 
L 225.805542 178.531172 
L 226.342225 180.109479 
L 226.878907 180.325954 
L 227.41559 180.309648 
L 229.025638 178.587512 
L 229.562321 179.508486 
L 230.099003 179.533166 
L 231.172368 177.264612 
L 231.709051 178.040396 
L 232.245734 179.349525 
L 232.782416 179.270177 
L 233.319099 177.843218 
L 233.855781 177.764735 
L 234.392464 178.490627 
L 234.929147 179.616365 
L 235.465829 180.095655 
L 236.002512 180.283859 
L 236.539195 180.06881 
L 237.075877 178.817249 
L 237.61256 176.670419 
L 238.149242 176.010385 
L 238.685925 174.695622 
L 239.222608 172.988876 
L 239.75929 172.81274 
L 240.295973 173.909071 
L 240.832656 173.68215 
L 241.369338 175.684656 
L 241.906021 178.235123 
L 242.442703 179.035122 
L 242.979386 178.543227 
L 243.516069 177.613014 
L 244.052751 175.996117 
L 244.589434 175.505326 
L 245.126116 176.291156 
L 245.662799 177.891477 
L 246.199482 179.005051 
L 246.736164 179.383282 
L 247.80953 178.218587 
L 248.882895 178.598654 
L 249.419577 177.618438 
L 249.95626 175.845068 
L 250.492943 176.50959 
L 251.029625 178.36713 
L 251.566308 179.105354 
L 252.639673 177.015046 
L 253.176356 176.000171 
L 253.713038 175.71421 
L 254.249721 174.975716 
L 254.786404 174.042595 
L 255.859769 177.346775 
L 256.396451 177.864938 
L 256.933134 177.312058 
L 257.469817 176.995905 
L 258.006499 176.858845 
L 258.543182 176.373234 
L 258.543182 176.373234 
" clip-path="url(#p598523e393)" style="fill: none; stroke: #000000; stroke-opacity: 0.5; stroke-width: 0.5; stroke-linecap: square"/>
   </g>
   <g id="line2d_16">
    <path d="M 44.406818 180.687273 
L 94.318301 180.687273 
L 94.854984 180.318916 
L 95.391667 180.687273 
L 95.928349 180.334026 
L 96.465032 180.687273 
L 97.001715 180.348225 
L 97.538397 175.371002 
L 98.07508 173.847836 
L 98.611762 163.76429 
L 99.148445 147.498481 
L 99.685128 141.995046 
L 100.22181 149.057932 
L 100.758493 165.023228 
L 101.295175 173.43668 
L 101.831858 178.410048 
L 102.368541 178.451827 
L 102.905223 179.041171 
L 103.441906 179.87905 
L 103.978589 179.893484 
L 105.051954 178.899796 
L 105.588636 180.185448 
L 106.125319 179.700925 
L 106.662002 178.99067 
L 107.198684 177.113308 
L 107.735367 172.019653 
L 108.272049 163.871312 
L 108.808732 158.938668 
L 109.345415 165.757399 
L 109.882097 175.645429 
L 110.41878 179.393222 
L 110.955463 179.62615 
L 111.492145 179.642993 
L 112.028828 180.481705 
L 112.56551 180.484918 
L 113.102193 179.691183 
L 113.638876 179.90266 
L 114.175558 180.300956 
L 114.712241 179.545885 
L 115.248923 179.000932 
L 115.785606 177.734081 
L 116.322289 172.140768 
L 117.395654 131.07652 
L 117.932337 137.885162 
L 118.469019 160.623127 
L 119.005702 172.23534 
L 119.542384 178.187655 
L 120.079067 179.044332 
L 120.61575 179.391301 
L 121.152432 180.208033 
L 121.689115 180.52973 
L 122.225797 180.376503 
L 122.76248 179.920919 
L 123.299163 180.536073 
L 123.835845 180.538102 
L 124.372528 180.687273 
L 124.909211 180.396809 
L 125.445893 180.25731 
L 125.982576 180.687273 
L 126.519258 180.547662 
L 127.055941 180.687273 
L 127.592624 180.687273 
L 128.665989 180.422054 
L 129.202671 180.687273 
L 129.739354 180.687273 
L 130.276037 180.559574 
L 130.812719 180.687273 
L 131.349402 180.31355 
L 131.886085 180.564218 
L 132.422767 180.444145 
L 132.95945 180.687273 
L 133.496132 180.33129 
L 134.032815 180.452777 
L 134.569498 180.455552 
L 135.10618 180.000289 
L 135.642863 178.310949 
L 136.179545 170.621446 
L 136.716228 149.180626 
L 137.252911 145.28079 
L 137.789593 165.671123 
L 138.326276 172.783903 
L 138.862959 161.574454 
L 139.399641 141.533854 
L 139.936324 153.121428 
L 140.473006 174.255254 
L 141.009689 179.273729 
L 141.546372 179.988269 
L 142.083054 180.094673 
L 142.619737 180.394194 
L 143.156419 180.204088 
L 144.766467 180.500134 
L 145.30315 180.131798 
L 145.839833 178.488765 
L 146.376515 153.765635 
L 146.913198 169.833431 
L 147.44988 179.888328 
L 147.986563 180.599416 
L 149.059928 180.687273 
L 149.596611 180.516884 
L 150.133293 180.687273 
L 150.669976 180.687273 
L 151.206659 180.52197 
L 151.743341 180.687273 
L 154.426754 180.687273 
L 154.963437 180.532987 
L 156.573485 180.687273 
L 157.110167 180.687273 
L 157.64685 180.540195 
L 158.183533 180.614425 
L 158.720215 180.398605 
L 159.256898 180.615777 
L 160.330263 180.476729 
L 161.403628 180.687273 
L 161.940311 180.482446 
L 163.550359 180.620826 
L 164.087041 180.358004 
L 164.623724 180.491467 
L 165.160407 180.42851 
L 165.697089 179.661337 
L 166.233772 179.161866 
L 166.770455 174.071942 
L 167.307137 167.696557 
L 167.84382 166.942191 
L 168.380502 172.523608 
L 168.917185 175.636378 
L 169.453868 176.584563 
L 170.527233 168.112794 
L 171.063915 167.336666 
L 171.600598 167.682153 
L 172.137281 162.817518 
L 172.673963 153.274523 
L 173.210646 156.231891 
L 174.284011 174.310269 
L 174.820694 178.41259 
L 175.357376 179.311593 
L 175.894059 179.650255 
L 176.430742 179.008998 
L 176.967424 177.841099 
L 177.504107 175.520075 
L 178.040789 173.870408 
L 178.577472 176.912828 
L 179.114155 178.659006 
L 179.650837 179.964931 
L 180.18752 180.277757 
L 180.724203 180.382545 
L 181.260885 180.636882 
L 181.797568 180.537276 
L 182.33425 180.24077 
L 182.870933 180.490359 
L 183.407616 180.198777 
L 183.944298 180.299471 
L 184.480981 179.773273 
L 185.017663 178.395789 
L 186.091029 170.342818 
L 186.627711 171.44726 
L 187.164394 176.240839 
L 187.701077 178.802439 
L 188.237759 179.911566 
L 188.774442 180.143771 
L 189.311124 180.597358 
L 190.38449 180.155673 
L 190.921172 180.20353 
L 191.457855 179.59585 
L 191.994537 178.04351 
L 192.53122 173.415643 
L 193.067903 170.862144 
L 193.604585 173.138002 
L 194.141268 176.560609 
L 194.677951 178.847673 
L 195.214633 179.524925 
L 195.751316 179.368259 
L 196.287998 177.085524 
L 196.824681 172.111858 
L 197.898046 171.269323 
L 198.434729 171.772563 
L 198.971411 171.71566 
L 199.508094 176.644539 
L 200.044777 178.85521 
L 200.581459 179.990435 
L 201.118142 179.918295 
L 201.654825 179.083401 
L 202.191507 176.66685 
L 202.72819 170.591143 
L 203.264872 170.284915 
L 203.801555 172.993607 
L 204.338238 177.438412 
L 204.87492 179.293708 
L 205.411603 177.955092 
L 206.484968 173.53346 
L 207.021651 174.866145 
L 207.558333 178.594058 
L 208.095016 179.629881 
L 208.631699 179.706806 
L 209.168381 178.495545 
L 209.705064 175.710042 
L 210.241746 174.128103 
L 210.778429 175.466852 
L 211.315112 178.551468 
L 211.851794 179.878833 
L 212.388477 180.45298 
L 213.998525 180.523078 
L 215.07189 180.589989 
L 217.21862 180.592388 
L 217.755303 180.404374 
L 218.291986 179.812562 
L 219.365351 176.027705 
L 219.902033 173.602513 
L 220.438716 173.157834 
L 220.975399 174.021564 
L 221.512081 175.989197 
L 222.048764 178.711616 
L 223.122129 180.066167 
L 223.658812 179.30549 
L 224.195494 176.069776 
L 224.732177 171.971868 
L 225.26886 172.860927 
L 225.805542 177.156072 
L 226.342225 179.831066 
L 226.878907 180.261681 
L 227.41559 180.489825 
L 227.952273 180.434891 
L 228.488955 180.241202 
L 229.025638 180.216071 
L 229.562321 179.860547 
L 230.099003 178.358371 
L 231.172368 170.557477 
L 231.709051 173.17368 
L 232.245734 177.795376 
L 232.782416 179.675527 
L 233.319099 180.343112 
L 234.929147 180.374925 
L 235.465829 180.221374 
L 236.002512 180.249716 
L 236.539195 179.58668 
L 237.61256 172.865875 
L 238.149242 175.476632 
L 238.685925 176.98234 
L 239.222608 176.280712 
L 239.75929 174.943067 
L 240.295973 171.625547 
L 240.832656 169.495369 
L 241.906021 178.143661 
L 242.442703 179.410298 
L 242.979386 178.913935 
L 243.516069 176.516107 
L 244.052751 173.243158 
L 244.589434 173.117915 
L 245.126116 176.535757 
L 245.662799 178.564239 
L 246.199482 180.060702 
L 246.736164 180.317934 
L 247.272847 180.365809 
L 247.80953 180.184772 
L 248.346212 179.778436 
L 248.882895 178.607879 
L 249.95626 173.149629 
L 250.492943 175.2581 
L 251.029625 178.031034 
L 251.566308 179.277927 
L 252.10299 180.008139 
L 252.639673 180.316759 
L 253.176356 179.733214 
L 253.713038 178.637909 
L 254.786404 173.512693 
L 255.859769 177.115131 
L 256.396451 178.352924 
L 256.933134 177.130144 
L 257.469817 173.796124 
L 258.006499 171.945639 
L 258.543182 171.041257 
L 258.543182 171.041257 
" clip-path="url(#p598523e393)" style="fill: none; stroke: #0000ff; stroke-opacity: 0.5; stroke-linecap: square"/>
   </g>
   <g id="line2d_17">
    <path d="M 44.406818 180.687273 
L 106.125319 180.687273 
L 106.662002 180.256389 
L 107.198684 180.687273 
L 107.735367 180.270811 
L 108.272049 180.277752 
L 108.808732 180.687273 
L 109.345415 180.291124 
L 109.882097 180.687273 
L 110.41878 179.153584 
L 111.492145 178.459476 
L 112.028828 176.667291 
L 112.56551 158.383258 
L 113.638876 89.323512 
L 114.175558 94.495824 
L 115.248923 167.363097 
L 115.785606 177.077817 
L 116.322289 178.424369 
L 116.858971 178.776165 
L 117.395654 178.490197 
L 118.469019 179.772668 
L 119.005702 179.785733 
L 119.542384 180.687273 
L 120.079067 180.687273 
L 120.61575 180.399279 
L 121.152432 180.403279 
L 121.689115 179.28689 
L 122.225797 179.858554 
L 122.76248 179.869829 
L 123.299163 180.149674 
L 123.835845 180.15689 
L 124.372528 180.425617 
L 124.909211 179.654511 
L 125.445893 177.629762 
L 125.982576 176.412413 
L 126.519258 169.518431 
L 127.055941 148.103084 
L 127.592624 145.134816 
L 128.665989 175.265015 
L 129.202671 179.523349 
L 129.739354 180.227523 
L 130.276037 180.460253 
L 130.812719 180.463056 
L 131.349402 180.687273 
L 136.179545 180.687273 
L 137.252911 180.298724 
L 137.789593 180.687273 
L 139.936324 180.687273 
L 140.473006 180.324266 
L 141.009689 180.687273 
L 141.546372 180.332223 
L 142.619737 180.687273 
L 143.693102 180.687273 
L 144.229785 180.351005 
L 144.766467 179.855546 
L 145.30315 177.724741 
L 145.839833 121.246144 
L 146.376515 108.976822 
L 146.913198 172.23543 
L 147.44988 179.898191 
L 147.986563 180.531083 
L 148.523246 180.687273 
L 155.50012 180.687273 
L 156.036802 180.552748 
L 156.573485 180.687273 
L 157.64685 180.687273 
L 158.183533 180.557766 
L 158.720215 180.687273 
L 161.403628 180.687273 
L 161.940311 180.565894 
L 163.013676 180.568075 
L 163.550359 180.332889 
L 164.087041 180.5702 
L 164.623724 180.455207 
L 165.160407 180.687273 
L 165.697089 180.345294 
L 166.233772 180.57428 
L 166.770455 180.575267 
L 167.307137 179.910051 
L 167.84382 179.806707 
L 168.380502 179.923421 
L 168.917185 177.658089 
L 169.453868 171.891922 
L 169.99055 162.182735 
L 170.527233 155.69649 
L 171.063915 165.317413 
L 171.600598 171.148889 
L 172.137281 172.154 
L 172.673963 161.927828 
L 173.210646 159.050267 
L 173.747329 163.841602 
L 174.284011 174.3227 
L 174.820694 179.010542 
L 175.357376 179.806838 
L 175.894059 180.299149 
L 176.430742 179.532332 
L 176.967424 178.968828 
L 178.577472 169.13095 
L 179.114155 174.862509 
L 179.650837 177.84377 
L 180.18752 179.413223 
L 180.724203 179.874667 
L 181.260885 180.060183 
L 181.797568 180.598386 
L 184.480981 180.25967 
L 185.017663 180.602403 
L 185.554346 180.266139 
L 186.091029 180.185724 
L 186.627711 180.438384 
L 187.164394 180.440249 
L 187.701077 180.278637 
L 188.237759 179.876076 
L 188.774442 178.593785 
L 189.311124 176.371352 
L 189.847807 167.041358 
L 190.38449 154.934235 
L 190.921172 145.740518 
L 191.994537 168.513447 
L 192.53122 170.207714 
L 193.067903 167.01753 
L 193.604585 169.6037 
L 194.141268 175.746506 
L 194.677951 178.383128 
L 195.214633 179.654075 
L 195.751316 180.247602 
L 196.824681 180.326013 
L 197.898046 180.687273 
L 198.971411 180.61701 
L 201.118142 180.687273 
L 201.654825 180.415718 
L 202.72819 180.6203 
L 203.801555 180.687273 
L 204.87492 180.491685 
L 205.411603 180.492984 
L 205.948285 180.687273 
L 206.484968 180.23991 
L 207.021651 179.100054 
L 207.558333 177.533654 
L 208.631699 166.929612 
L 209.705064 175.955832 
L 210.241746 179.95466 
L 210.778429 180.323322 
L 211.315112 180.506464 
L 211.851794 180.387851 
L 212.388477 180.62777 
L 212.925159 180.273395 
L 213.461842 179.042242 
L 213.998525 175.491416 
L 214.535207 170.941037 
L 215.07189 169.676242 
L 216.145255 178.409986 
L 216.681938 180.121488 
L 217.21862 180.574816 
L 217.755303 180.519629 
L 219.365351 180.632414 
L 221.512081 180.526655 
L 222.048764 180.474407 
L 222.585447 180.264097 
L 223.122129 179.372764 
L 223.658812 176.244662 
L 224.195494 166.347706 
L 224.732177 160.286772 
L 225.26886 165.952311 
L 225.805542 175.787612 
L 226.342225 179.571033 
L 226.878907 180.38463 
L 228.488955 180.637709 
L 229.025638 180.539445 
L 231.172368 180.639122 
L 232.245734 180.63967 
L 233.855781 180.593675 
L 234.392464 180.454597 
L 236.539195 180.368755 
L 237.075877 180.099023 
L 237.61256 179.652295 
L 238.149242 177.688987 
L 238.685925 170.228905 
L 239.222608 158.38062 
L 239.75929 156.918149 
L 240.295973 170.574913 
L 240.832656 177.683174 
L 241.369338 179.604742 
L 241.906021 180.170476 
L 242.979386 180.048232 
L 243.516069 178.526212 
L 244.052751 174.618186 
L 244.589434 169.452451 
L 245.126116 171.26362 
L 245.662799 176.456759 
L 246.199482 179.243323 
L 246.736164 180.441047 
L 247.272847 180.52399 
L 247.80953 180.362424 
L 248.346212 180.364131 
L 248.882895 180.566728 
L 250.492943 180.173034 
L 251.029625 180.057646 
L 251.566308 178.886442 
L 252.10299 174.533688 
L 253.176356 161.606098 
L 253.713038 164.119788 
L 254.249721 167.829069 
L 254.786404 169.564778 
L 255.323086 172.491625 
L 255.859769 176.553829 
L 256.396451 179.341342 
L 256.933134 180.278087 
L 257.469817 180.502213 
L 258.543182 180.467421 
L 258.543182 180.467421 
" clip-path="url(#p598523e393)" style="fill: none; stroke: #ff0000; stroke-opacity: 0.5; stroke-linecap: square"/>
   </g>
   <g id="patch_3">
    <path d="M 33.7 188.6 
L 33.7 14.52 
" style="fill: none; stroke: #000000; stroke-width: 0.8; stroke-linejoin: miter; stroke-linecap: square"/>
   </g>
   <g id="patch_4">
    <path d="M 269.25 188.6 
L 269.25 14.52 
" style="fill: none; stroke: #000000; stroke-width: 0.8; stroke-linejoin: miter; stroke-linecap: square"/>
   </g>
   <g id="patch_5">
    <path d="M 33.7 188.6 
L 269.25 188.6 
" style="fill: none; stroke: #000000; stroke-width: 0.8; stroke-linejoin: miter; stroke-linecap: square"/>
   </g>
   <g id="patch_6">
    <path d="M 33.7 14.52 
L 269.25 14.52 
" style="fill: none; stroke: #000000; stroke-width: 0.8; stroke-linejoin: miter; stroke-linecap: square"/>
   </g>
   <g id="legend_1">
    <g id="patch_7">
     <path d="M 213.917188 66.554375 
L 262.25 66.554375 
Q 264.25 66.554375 264.25 64.554375 
L 264.25 21.52 
Q 264.25 19.52 262.25 19.52 
L 213.917188 19.52 
Q 211.917188 19.52 211.917188 21.52 
L 211.917188 64.554375 
Q 211.917188 66.554375 213.917188 66.554375 
z
" style="fill: #ffffff; opacity: 0.8; stroke: #cccccc; stroke-linejoin: miter"/>
    </g>
    <g id="line2d_18">
     <path d="M 215.917188 27.618438 
L 225.917188 27.618438 
L 235.917188 27.618438 
" style="fill: none; stroke: #000000; stroke-opacity: 0.5; stroke-width: 0.5; stroke-linecap: square"/>
    </g>
    <g id="text_17">
     <!-- all -->
     <g transform="translate(243.917188 31.118438) scale(0.1 -0.1)">
      <defs>
       <path id="DejaVuSans-61" d="M 2194 1759 
Q 1497 1759 1228 1600 
Q 959 1441 959 1056 
Q 959 750 1161 570 
Q 1363 391 1709 391 
Q 2188 391 2477 730 
Q 2766 1069 2766 1631 
L 2766 1759 
L 2194 1759 
z
M 3341 1997 
L 3341 0 
L 2766 0 
L 2766 531 
Q 2569 213 2275 61 
Q 1981 -91 1556 -91 
Q 1019 -91 701 211 
Q 384 513 384 1019 
Q 384 1609 779 1909 
Q 1175 2209 1959 2209 
L 2766 2209 
L 2766 2266 
Q 2766 2663 2505 2880 
Q 2244 3097 1772 3097 
Q 1472 3097 1187 3025 
Q 903 2953 641 2809 
L 641 3341 
Q 956 3463 1253 3523 
Q 1550 3584 1831 3584 
Q 2591 3584 2966 3190 
Q 3341 2797 3341 1997 
z
" transform="scale(0.015625)"/>
       <path id="DejaVuSans-6c" d="M 603 4863 
L 1178 4863 
L 1178 0 
L 603 0 
L 603 4863 
z
" transform="scale(0.015625)"/>
      </defs>
      <use xlink:href="#DejaVuSans-61"/>
      <use xlink:href="#DejaVuSans-6c" transform="translate(61.279297 0)"/>
      <use xlink:href="#DejaVuSans-6c" transform="translate(89.0625 0)"/>
     </g>
    </g>
    <g id="line2d_19">
     <path d="M 215.917188 42.296563 
L 225.917188 42.296563 
L 235.917188 42.296563 
" style="fill: none; stroke: #0000ff; stroke-opacity: 0.5; stroke-linecap: square"/>
    </g>
    <g id="text_18">
     <!-- 1-1 -->
     <g transform="translate(243.917188 45.796563) scale(0.1 -0.1)">
      <defs>
       <path id="DejaVuSans-2d" d="M 313 2009 
L 1997 2009 
L 1997 1497 
L 313 1497 
L 313 2009 
z
" transform="scale(0.015625)"/>
      </defs>
      <use xlink:href="#DejaVuSans-31"/>
      <use xlink:href="#DejaVuSans-2d" transform="translate(63.623047 0)"/>
      <use xlink:href="#DejaVuSans-31" transform="translate(99.707031 0)"/>
     </g>
    </g>
    <g id="line2d_20">
     <path d="M 215.917188 56.974688 
L 225.917188 56.974688 
L 235.917188 56.974688 
" style="fill: none; stroke: #ff0000; stroke-opacity: 0.5; stroke-linecap: square"/>
    </g>
    <g id="text_19">
     <!-- 2-2 -->
     <g transform="translate(243.917188 60.474688) scale(0.1 -0.1)">
      <use xlink:href="#DejaVuSans-32"/>
      <use xlink:href="#DejaVuSans-2d" transform="translate(63.623047 0)"/>
      <use xlink:href="#DejaVuSans-32" transform="translate(99.707031 0)"/>
     </g>
    </g>
   </g>
  </g>
 </g>
 <defs>
  <clipPath id="p598523e393">
   <rect x="33.7" y="14.52" width="235.55" height="174.08"/>
  </clipPath>
 </defs>
</svg>
