<?xml version="1.0" encoding="utf-8" standalone="no"?>
<!DOCTYPE svg PUBLIC "-//W3C//DTD SVG 1.1//EN"
  "http://www.w3.org/Graphics/SVG/1.1/DTD/svg11.dtd">
<svg xmlns:xlink="http://www.w3.org/1999/xlink" width="288pt" height="216pt" viewBox="0 0 288 216" xmlns="http://www.w3.org/2000/svg" version="1.1">
 <metadata>
  <rdf:RDF xmlns:dc="http://purl.org/dc/elements/1.1/" xmlns:cc="http://creativecommons.org/ns#" xmlns:rdf="http://www.w3.org/1999/02/22-rdf-syntax-ns#">
   <cc:Work>
    <dc:type rdf:resource="http://purl.org/dc/dcmitype/StillImage"/>
    <dc:date>2025-09-17T22:50:46.669877</dc:date>
    <dc:format>image/svg+xml</dc:format>
    <dc:creator>
     <cc:Agent>
      <dc:title>Matplotlib v3.10.0, https://matplotlib.org/</dc:title>
     </cc:Agent>
    </dc:creator>
   </cc:Work>
  </rdf:RDF>
 </metadata>
 <defs>
  <style type="text/css">*{stroke-linejoin: round; stroke-linecap: butt}</style>
 </defs>
 <g id="figure_1">
  <g id="patch_1">
   <path d="M 0 216 
L 288 216 
L 288 0 
L 0 0 
z
" style="fill: #ffffff"/>
  </g>
  <g id="axes_1">
   <g id="patch_2">
    <path d="M 33.7 188.6 
L 269.25 188.6 
L 269.25 14.52 
L 33.7 14.52 
z
" style="fill: #ffffff"/>
   </g>
   <g id="matplotlib.axis_1">
    <g id="xtick_1">
     <g id="line2d_1">
      <defs>
       <path id="me261aac4b2" d="M 0 0 
L 0 3.5 
" style="stroke: #000000; stroke-width: 0.8"/>
      </defs>
      <g>
       <use xlink:href="#me261aac4b2" x="44.138477" y="188.6" style="stroke: #000000; stroke-width: 0.8"/>
      </g>
     </g>
     <g id="text_1">
      <!-- 0 -->
      <g transform="translate(40.957227 203.198437) scale(0.1 -0.1)">
       <defs>
        <path id="DejaVuSans-30" d="M 2034 4250 
Q 1547 4250 1301 3770 
Q 1056 3291 1056 2328 
Q 1056 1369 1301 889 
Q 1547 409 2034 409 
Q 2525 409 2770 889 
Q 3016 1369 3016 2328 
Q 3016 3291 2770 3770 
Q 2525 4250 2034 4250 
z
M 2034 4750 
Q 2819 4750 3233 4129 
Q 3647 3509 3647 2328 
Q 3647 1150 3233 529 
Q 2819 -91 2034 -91 
Q 1250 -91 836 529 
Q 422 1150 422 2328 
Q 422 3509 836 4129 
Q 1250 4750 2034 4750 
z
" transform="scale(0.015625)"/>
       </defs>
       <use xlink:href="#DejaVuSans-30"/>
      </g>
     </g>
    </g>
    <g id="xtick_2">
     <g id="line2d_2">
      <g>
       <use xlink:href="#me261aac4b2" x="87.073086" y="188.6" style="stroke: #000000; stroke-width: 0.8"/>
      </g>
     </g>
     <g id="text_2">
      <!-- 200 -->
      <g transform="translate(77.529336 203.198437) scale(0.1 -0.1)">
       <defs>
        <path id="DejaVuSans-32" d="M 1228 531 
L 3431 531 
L 3431 0 
L 469 0 
L 469 531 
Q 828 903 1448 1529 
Q 2069 2156 2228 2338 
Q 2531 2678 2651 2914 
Q 2772 3150 2772 3378 
Q 2772 3750 2511 3984 
Q 2250 4219 1831 4219 
Q 1534 4219 1204 4116 
Q 875 4013 500 3803 
L 500 4441 
Q 881 4594 1212 4672 
Q 1544 4750 1819 4750 
Q 2544 4750 2975 4387 
Q 3406 4025 3406 3419 
Q 3406 3131 3298 2873 
Q 3191 2616 2906 2266 
Q 2828 2175 2409 1742 
Q 1991 1309 1228 531 
z
" transform="scale(0.015625)"/>
       </defs>
       <use xlink:href="#DejaVuSans-32"/>
       <use xlink:href="#DejaVuSans-30" transform="translate(63.623047 0)"/>
       <use xlink:href="#DejaVuSans-30" transform="translate(127.246094 0)"/>
      </g>
     </g>
    </g>
    <g id="xtick_3">
     <g id="line2d_3">
      <g>
       <use xlink:href="#me261aac4b2" x="130.007695" y="188.6" style="stroke: #000000; stroke-width: 0.8"/>
      </g>
     </g>
     <g id="text_3">
      <!-- 400 -->
      <g transform="translate(120.463945 203.198437) scale(0.1 -0.1)">
       <defs>
        <path id="DejaVuSans-34" d="M 2419 4116 
L 825 1625 
L 2419 1625 
L 2419 4116 
z
M 2253 4666 
L 3047 4666 
L 3047 1625 
L 3713 1625 
L 3713 1100 
L 3047 1100 
L 3047 0 
L 2419 0 
L 2419 1100 
L 313 1100 
L 313 1709 
L 2253 4666 
z
" transform="scale(0.015625)"/>
       </defs>
       <use xlink:href="#DejaVuSans-34"/>
       <use xlink:href="#DejaVuSans-30" transform="translate(63.623047 0)"/>
       <use xlink:href="#DejaVuSans-30" transform="translate(127.246094 0)"/>
      </g>
     </g>
    </g>
    <g id="xtick_4">
     <g id="line2d_4">
      <g>
       <use xlink:href="#me261aac4b2" x="172.942305" y="188.6" style="stroke: #000000; stroke-width: 0.8"/>
      </g>
     </g>
     <g id="text_4">
      <!-- 600 -->
      <g transform="translate(163.398555 203.198437) scale(0.1 -0.1)">
       <defs>
        <path id="DejaVuSans-36" d="M 2113 2584 
Q 1688 2584 1439 2293 
Q 1191 2003 1191 1497 
Q 1191 994 1439 701 
Q 1688 409 2113 409 
Q 2538 409 2786 701 
Q 3034 994 3034 1497 
Q 3034 2003 2786 2293 
Q 2538 2584 2113 2584 
z
M 3366 4563 
L 3366 3988 
Q 3128 4100 2886 4159 
Q 2644 4219 2406 4219 
Q 1781 4219 1451 3797 
Q 1122 3375 1075 2522 
Q 1259 2794 1537 2939 
Q 1816 3084 2150 3084 
Q 2853 3084 3261 2657 
Q 3669 2231 3669 1497 
Q 3669 778 3244 343 
Q 2819 -91 2113 -91 
Q 1303 -91 875 529 
Q 447 1150 447 2328 
Q 447 3434 972 4092 
Q 1497 4750 2381 4750 
Q 2619 4750 2861 4703 
Q 3103 4656 3366 4563 
z
" transform="scale(0.015625)"/>
       </defs>
       <use xlink:href="#DejaVuSans-36"/>
       <use xlink:href="#DejaVuSans-30" transform="translate(63.623047 0)"/>
       <use xlink:href="#DejaVuSans-30" transform="translate(127.246094 0)"/>
      </g>
     </g>
    </g>
    <g id="xtick_5">
     <g id="line2d_5">
      <g>
       <use xlink:href="#me261aac4b2" x="215.876914" y="188.6" style="stroke: #000000; stroke-width: 0.8"/>
      </g>
     </g>
     <g id="text_5">
      <!-- 800 -->
      <g transform="translate(206.333164 203.198437) scale(0.1 -0.1)">
       <defs>
        <path id="DejaVuSans-38" d="M 2034 2216 
Q 1584 2216 1326 1975 
Q 1069 1734 1069 1313 
Q 1069 891 1326 650 
Q 1584 409 2034 409 
Q 2484 409 2743 651 
Q 3003 894 3003 1313 
Q 3003 1734 2745 1975 
Q 2488 2216 2034 2216 
z
M 1403 2484 
Q 997 2584 770 2862 
Q 544 3141 544 3541 
Q 544 4100 942 4425 
Q 1341 4750 2034 4750 
Q 2731 4750 3128 4425 
Q 3525 4100 3525 3541 
Q 3525 3141 3298 2862 
Q 3072 2584 2669 2484 
Q 3125 2378 3379 2068 
Q 3634 1759 3634 1313 
Q 3634 634 3220 271 
Q 2806 -91 2034 -91 
Q 1263 -91 848 271 
Q 434 634 434 1313 
Q 434 1759 690 2068 
Q 947 2378 1403 2484 
z
M 1172 3481 
Q 1172 3119 1398 2916 
Q 1625 2713 2034 2713 
Q 2441 2713 2670 2916 
Q 2900 3119 2900 3481 
Q 2900 3844 2670 4047 
Q 2441 4250 2034 4250 
Q 1625 4250 1398 4047 
Q 1172 3844 1172 3481 
z
" transform="scale(0.015625)"/>
       </defs>
       <use xlink:href="#DejaVuSans-38"/>
       <use xlink:href="#DejaVuSans-30" transform="translate(63.623047 0)"/>
       <use xlink:href="#DejaVuSans-30" transform="translate(127.246094 0)"/>
      </g>
     </g>
    </g>
    <g id="xtick_6">
     <g id="line2d_6">
      <g>
       <use xlink:href="#me261aac4b2" x="258.811523" y="188.6" style="stroke: #000000; stroke-width: 0.8"/>
      </g>
     </g>
     <g id="text_6">
      <!-- 1000 -->
      <g transform="translate(246.086523 203.198437) scale(0.1 -0.1)">
       <defs>
        <path id="DejaVuSans-31" d="M 794 531 
L 1825 531 
L 1825 4091 
L 703 3866 
L 703 4441 
L 1819 4666 
L 2450 4666 
L 2450 531 
L 3481 531 
L 3481 0 
L 794 0 
L 794 531 
z
" transform="scale(0.015625)"/>
       </defs>
       <use xlink:href="#DejaVuSans-31"/>
       <use xlink:href="#DejaVuSans-30" transform="translate(63.623047 0)"/>
       <use xlink:href="#DejaVuSans-30" transform="translate(127.246094 0)"/>
       <use xlink:href="#DejaVuSans-30" transform="translate(190.869141 0)"/>
      </g>
     </g>
    </g>
    <g id="text_7">
     <!-- q (nm) -->
     <g transform="translate(134.771094 216.876563) scale(0.1 -0.1)">
      <defs>
       <path id="DejaVuSans-71" d="M 947 1747 
Q 947 1113 1208 752 
Q 1469 391 1925 391 
Q 2381 391 2643 752 
Q 2906 1113 2906 1747 
Q 2906 2381 2643 2742 
Q 2381 3103 1925 3103 
Q 1469 3103 1208 2742 
Q 947 2381 947 1747 
z
M 2906 525 
Q 2725 213 2448 61 
Q 2172 -91 1784 -91 
Q 1150 -91 751 415 
Q 353 922 353 1747 
Q 353 2572 751 3078 
Q 1150 3584 1784 3584 
Q 2172 3584 2448 3432 
Q 2725 3281 2906 2969 
L 2906 3500 
L 3481 3500 
L 3481 -1331 
L 2906 -1331 
L 2906 525 
z
" transform="scale(0.015625)"/>
       <path id="DejaVuSans-20" transform="scale(0.015625)"/>
       <path id="DejaVuSans-28" d="M 1984 4856 
Q 1566 4138 1362 3434 
Q 1159 2731 1159 2009 
Q 1159 1288 1364 580 
Q 1569 -128 1984 -844 
L 1484 -844 
Q 1016 -109 783 600 
Q 550 1309 550 2009 
Q 550 2706 781 3412 
Q 1013 4119 1484 4856 
L 1984 4856 
z
" transform="scale(0.015625)"/>
       <path id="DejaVuSans-6e" d="M 3513 2113 
L 3513 0 
L 2938 0 
L 2938 2094 
Q 2938 2591 2744 2837 
Q 2550 3084 2163 3084 
Q 1697 3084 1428 2787 
Q 1159 2491 1159 1978 
L 1159 0 
L 581 0 
L 581 3500 
L 1159 3500 
L 1159 2956 
Q 1366 3272 1645 3428 
Q 1925 3584 2291 3584 
Q 2894 3584 3203 3211 
Q 3513 2838 3513 2113 
z
" transform="scale(0.015625)"/>
       <path id="DejaVuSans-6d" d="M 3328 2828 
Q 3544 3216 3844 3400 
Q 4144 3584 4550 3584 
Q 5097 3584 5394 3201 
Q 5691 2819 5691 2113 
L 5691 0 
L 5113 0 
L 5113 2094 
Q 5113 2597 4934 2840 
Q 4756 3084 4391 3084 
Q 3944 3084 3684 2787 
Q 3425 2491 3425 1978 
L 3425 0 
L 2847 0 
L 2847 2094 
Q 2847 2600 2669 2842 
Q 2491 3084 2119 3084 
Q 1678 3084 1418 2786 
Q 1159 2488 1159 1978 
L 1159 0 
L 581 0 
L 581 3500 
L 1159 3500 
L 1159 2956 
Q 1356 3278 1631 3431 
Q 1906 3584 2284 3584 
Q 2666 3584 2933 3390 
Q 3200 3197 3328 2828 
z
" transform="scale(0.015625)"/>
       <path id="DejaVuSans-29" d="M 513 4856 
L 1013 4856 
Q 1481 4119 1714 3412 
Q 1947 2706 1947 2009 
Q 1947 1309 1714 600 
Q 1481 -109 1013 -844 
L 513 -844 
Q 928 -128 1133 580 
Q 1338 1288 1338 2009 
Q 1338 2731 1133 3434 
Q 928 4138 513 4856 
z
" transform="scale(0.015625)"/>
      </defs>
      <use xlink:href="#DejaVuSans-71"/>
      <use xlink:href="#DejaVuSans-20" transform="translate(63.476562 0)"/>
      <use xlink:href="#DejaVuSans-28" transform="translate(95.263672 0)"/>
      <use xlink:href="#DejaVuSans-6e" transform="translate(134.277344 0)"/>
      <use xlink:href="#DejaVuSans-6d" transform="translate(197.65625 0)"/>
      <use xlink:href="#DejaVuSans-29" transform="translate(295.068359 0)"/>
     </g>
    </g>
   </g>
   <g id="matplotlib.axis_2">
    <g id="ytick_1">
     <g id="line2d_7">
      <defs>
       <path id="mdc82c9fd53" d="M 0 0 
L -3.5 0 
" style="stroke: #000000; stroke-width: 0.8"/>
      </defs>
      <g>
       <use xlink:href="#mdc82c9fd53" x="33.7" y="180.687273" style="stroke: #000000; stroke-width: 0.8"/>
      </g>
     </g>
     <g id="text_8">
      <!-- 0 -->
      <g transform="translate(20.3375 184.486491) scale(0.1 -0.1)">
       <use xlink:href="#DejaVuSans-30"/>
      </g>
     </g>
    </g>
    <g id="ytick_2">
     <g id="line2d_8">
      <g>
       <use xlink:href="#mdc82c9fd53" x="33.7" y="143.898929" style="stroke: #000000; stroke-width: 0.8"/>
      </g>
     </g>
     <g id="text_9">
      <!-- 20000 -->
      <g transform="translate(-5.1125 147.698148) scale(0.1 -0.1)">
       <use xlink:href="#DejaVuSans-32"/>
       <use xlink:href="#DejaVuSans-30" transform="translate(63.623047 0)"/>
       <use xlink:href="#DejaVuSans-30" transform="translate(127.246094 0)"/>
       <use xlink:href="#DejaVuSans-30" transform="translate(190.869141 0)"/>
       <use xlink:href="#DejaVuSans-30" transform="translate(254.492188 0)"/>
      </g>
     </g>
    </g>
    <g id="ytick_3">
     <g id="line2d_9">
      <g>
       <use xlink:href="#mdc82c9fd53" x="33.7" y="107.110585" style="stroke: #000000; stroke-width: 0.8"/>
      </g>
     </g>
     <g id="text_10">
      <!-- 40000 -->
      <g transform="translate(-5.1125 110.909804) scale(0.1 -0.1)">
       <use xlink:href="#DejaVuSans-34"/>
       <use xlink:href="#DejaVuSans-30" transform="translate(63.623047 0)"/>
       <use xlink:href="#DejaVuSans-30" transform="translate(127.246094 0)"/>
       <use xlink:href="#DejaVuSans-30" transform="translate(190.869141 0)"/>
       <use xlink:href="#DejaVuSans-30" transform="translate(254.492188 0)"/>
      </g>
     </g>
    </g>
    <g id="ytick_4">
     <g id="line2d_10">
      <g>
       <use xlink:href="#mdc82c9fd53" x="33.7" y="70.322241" style="stroke: #000000; stroke-width: 0.8"/>
      </g>
     </g>
     <g id="text_11">
      <!-- 60000 -->
      <g transform="translate(-5.1125 74.12146) scale(0.1 -0.1)">
       <use xlink:href="#DejaVuSans-36"/>
       <use xlink:href="#DejaVuSans-30" transform="translate(63.623047 0)"/>
       <use xlink:href="#DejaVuSans-30" transform="translate(127.246094 0)"/>
       <use xlink:href="#DejaVuSans-30" transform="translate(190.869141 0)"/>
       <use xlink:href="#DejaVuSans-30" transform="translate(254.492188 0)"/>
      </g>
     </g>
    </g>
    <g id="ytick_5">
     <g id="line2d_11">
      <g>
       <use xlink:href="#mdc82c9fd53" x="33.7" y="33.533897" style="stroke: #000000; stroke-width: 0.8"/>
      </g>
     </g>
     <g id="text_12">
      <!-- 80000 -->
      <g transform="translate(-5.1125 37.333116) scale(0.1 -0.1)">
       <use xlink:href="#DejaVuSans-38"/>
       <use xlink:href="#DejaVuSans-30" transform="translate(63.623047 0)"/>
       <use xlink:href="#DejaVuSans-30" transform="translate(127.246094 0)"/>
       <use xlink:href="#DejaVuSans-30" transform="translate(190.869141 0)"/>
       <use xlink:href="#DejaVuSans-30" transform="translate(254.492188 0)"/>
      </g>
     </g>
    </g>
    <g id="text_13">
     <!-- rdf -->
     <g transform="translate(-11.192187 108.462344) rotate(-90) scale(0.1 -0.1)">
      <defs>
       <path id="DejaVuSans-72" d="M 2631 2963 
Q 2534 3019 2420 3045 
Q 2306 3072 2169 3072 
Q 1681 3072 1420 2755 
Q 1159 2438 1159 1844 
L 1159 0 
L 581 0 
L 581 3500 
L 1159 3500 
L 1159 2956 
Q 1341 3275 1631 3429 
Q 1922 3584 2338 3584 
Q 2397 3584 2469 3576 
Q 2541 3569 2628 3553 
L 2631 2963 
z
" transform="scale(0.015625)"/>
       <path id="DejaVuSans-64" d="M 2906 2969 
L 2906 4863 
L 3481 4863 
L 3481 0 
L 2906 0 
L 2906 525 
Q 2725 213 2448 61 
Q 2172 -91 1784 -91 
Q 1150 -91 751 415 
Q 353 922 353 1747 
Q 353 2572 751 3078 
Q 1150 3584 1784 3584 
Q 2172 3584 2448 3432 
Q 2725 3281 2906 2969 
z
M 947 1747 
Q 947 1113 1208 752 
Q 1469 391 1925 391 
Q 2381 391 2643 752 
Q 2906 1113 2906 1747 
Q 2906 2381 2643 2742 
Q 2381 3103 1925 3103 
Q 1469 3103 1208 2742 
Q 947 2381 947 1747 
z
" transform="scale(0.015625)"/>
       <path id="DejaVuSans-66" d="M 2375 4863 
L 2375 4384 
L 1825 4384 
Q 1516 4384 1395 4259 
Q 1275 4134 1275 3809 
L 1275 3500 
L 2222 3500 
L 2222 3053 
L 1275 3053 
L 1275 0 
L 697 0 
L 697 3053 
L 147 3053 
L 147 3500 
L 697 3500 
L 697 3744 
Q 697 4328 969 4595 
Q 1241 4863 1831 4863 
L 2375 4863 
z
" transform="scale(0.015625)"/>
      </defs>
      <use xlink:href="#DejaVuSans-72"/>
      <use xlink:href="#DejaVuSans-64" transform="translate(39.363281 0)"/>
      <use xlink:href="#DejaVuSans-66" transform="translate(102.839844 0)"/>
     </g>
    </g>
   </g>
   <g id="line2d_12">
    <path d="M 44.406818 180.687273 
L 94.854984 180.687273 
L 95.391667 164.67425 
L 95.928349 22.432727 
L 96.465032 152.754819 
L 97.001715 177.22064 
L 97.538397 179.167426 
L 98.07508 178.584095 
L 98.611762 175.876079 
L 99.148445 175.295528 
L 99.685128 172.672547 
L 100.22181 172.744161 
L 100.758493 174.564015 
L 101.295175 177.48778 
L 102.905223 180.244358 
L 103.441906 180.397316 
L 103.978589 180.331299 
L 104.515271 180.127795 
L 105.588636 180.484734 
L 106.125319 180.289179 
L 107.198684 179.725629 
L 107.735367 178.165988 
L 108.808732 176.725065 
L 109.345415 176.55019 
L 110.41878 178.830265 
L 110.955463 179.602314 
L 111.492145 180.012913 
L 112.028828 179.304478 
L 112.56551 177.474872 
L 113.638876 170.76487 
L 114.175558 170.968344 
L 114.712241 171.525091 
L 115.248923 173.931555 
L 115.785606 177.409497 
L 116.322289 177.164481 
L 116.858971 175.046922 
L 117.395654 172.374014 
L 117.932337 170.762291 
L 118.469019 172.612383 
L 119.542384 178.669564 
L 120.079067 178.919014 
L 120.61575 179.859096 
L 121.689115 180.432933 
L 122.76248 180.43983 
L 123.299163 180.443174 
L 123.835845 180.326039 
L 124.372528 180.608069 
L 124.909211 180.374653 
L 125.445893 180.340204 
L 126.519258 179.071983 
L 127.055941 178.165822 
L 127.592624 176.148271 
L 128.129306 175.338772 
L 128.665989 175.442147 
L 129.202671 174.169299 
L 129.739354 173.937653 
L 130.276037 173.987137 
L 131.349402 178.676128 
L 131.886085 179.727074 
L 132.95945 180.590328 
L 133.496132 180.527633 
L 134.032815 180.3087 
L 134.569498 180.5314 
L 135.10618 180.286773 
L 135.642863 180.200114 
L 136.179545 179.182605 
L 137.252911 173.6892 
L 137.789593 172.83905 
L 138.326276 175.715739 
L 138.862959 174.777466 
L 139.399641 170.573699 
L 139.936324 168.158736 
L 140.473006 170.028623 
L 141.009689 174.737654 
L 141.546372 177.597382 
L 142.083054 178.853595 
L 142.619737 179.530682 
L 143.693102 178.397979 
L 144.229785 176.335786 
L 145.839833 174.697825 
L 146.376515 167.565544 
L 146.913198 166.664368 
L 147.44988 174.691961 
L 147.986563 176.83404 
L 148.523246 174.954996 
L 149.059928 172.651345 
L 149.596611 171.95355 
L 151.206659 179.063831 
L 151.743341 179.454285 
L 152.280024 179.161296 
L 153.353389 177.053813 
L 153.890072 176.602477 
L 154.426754 177.480506 
L 155.50012 179.618303 
L 156.036802 179.68961 
L 156.573485 179.174786 
L 157.64685 177.28391 
L 158.183533 177.315886 
L 158.720215 178.143526 
L 159.793581 180.134557 
L 160.866946 180.313067 
L 161.940311 180.503564 
L 163.550359 180.097271 
L 164.087041 179.588683 
L 165.697089 174.33818 
L 166.233772 174.462271 
L 166.770455 176.161036 
L 167.84382 177.355402 
L 168.380502 177.433678 
L 169.453868 178.024896 
L 169.99055 177.210558 
L 171.063915 174.784613 
L 171.600598 174.661615 
L 172.137281 175.225533 
L 172.673963 173.974874 
L 173.210646 172.255453 
L 173.747329 172.249261 
L 174.284011 174.516217 
L 175.357376 178.392326 
L 175.894059 178.293494 
L 177.504107 177.53394 
L 178.040789 177.658698 
L 178.577472 177.203248 
L 179.650837 177.591399 
L 180.18752 176.99597 
L 181.797568 179.906988 
L 182.870933 180.435602 
L 184.480981 180.311907 
L 185.017663 180.134931 
L 185.554346 179.425236 
L 186.627711 176.568717 
L 187.164394 176.300481 
L 187.701077 177.310394 
L 188.237759 178.673751 
L 188.774442 178.932399 
L 189.311124 177.92923 
L 190.38449 173.046715 
L 191.457855 174.919633 
L 191.994537 176.314191 
L 192.53122 177.283535 
L 193.067903 177.204567 
L 193.604585 177.286599 
L 194.141268 177.061616 
L 195.214633 178.799592 
L 195.751316 178.591111 
L 196.287998 176.854847 
L 196.824681 177.231672 
L 197.361364 178.091977 
L 198.434729 176.693054 
L 198.971411 176.231506 
L 199.508094 175.533545 
L 200.044777 176.208756 
L 200.581459 178.228974 
L 201.654825 179.854993 
L 202.191507 179.993306 
L 202.72819 179.491177 
L 203.264872 178.492411 
L 204.338238 177.955498 
L 204.87492 177.8553 
L 205.411603 178.2956 
L 205.948285 178.39907 
L 206.484968 178.211059 
L 207.558333 176.782922 
L 208.095016 176.210961 
L 208.631699 176.202447 
L 209.168381 176.924258 
L 209.705064 177.023022 
L 210.241746 176.455281 
L 210.778429 176.298878 
L 211.315112 176.482083 
L 212.388477 177.787392 
L 212.925159 177.608918 
L 213.461842 176.641387 
L 213.998525 176.392999 
L 214.535207 177.05219 
L 215.07189 177.354204 
L 216.145255 178.110861 
L 217.755303 179.443992 
L 218.291986 178.922091 
L 218.828668 178.089153 
L 219.365351 177.997117 
L 219.902033 177.642161 
L 220.438716 177.48022 
L 222.048764 177.989061 
L 222.585447 178.685764 
L 223.122129 178.785285 
L 223.658812 179.00233 
L 224.195494 178.343964 
L 225.26886 176.017154 
L 225.805542 176.508215 
L 226.342225 177.285348 
L 226.878907 179.007742 
L 227.41559 179.829652 
L 227.952273 180.128918 
L 229.025638 179.755024 
L 229.562321 179.434159 
L 230.635686 179.558485 
L 231.172368 179.280739 
L 231.709051 178.426475 
L 232.245734 178.583468 
L 232.782416 178.953601 
L 233.855781 179.029836 
L 234.392464 178.609544 
L 234.929147 178.866336 
L 236.539195 180.14321 
L 237.075877 180.166776 
L 237.61256 179.515838 
L 240.295973 174.565196 
L 240.832656 175.211411 
L 241.369338 175.404992 
L 241.906021 175.811686 
L 242.442703 177.549543 
L 242.979386 178.340209 
L 243.516069 178.660663 
L 244.052751 178.690671 
L 244.589434 177.616391 
L 245.126116 177.392938 
L 245.662799 176.927115 
L 247.272847 179.173595 
L 247.80953 179.286032 
L 248.346212 178.883792 
L 248.882895 178.929712 
L 250.492943 178.142808 
L 251.029625 177.578278 
L 251.566308 177.813561 
L 252.10299 178.51215 
L 252.639673 178.810682 
L 254.249721 176.812384 
L 254.786404 176.64825 
L 255.323086 176.348652 
L 255.859769 176.313744 
L 256.396451 177.314766 
L 256.933134 177.686442 
L 257.469817 177.875171 
L 258.006499 177.83911 
L 258.543182 177.59825 
L 258.543182 177.59825 
" clip-path="url(#pa6a08bb7a3)" style="fill: none; stroke: #000000; stroke-opacity: 0.5; stroke-width: 0.5; stroke-linecap: square"/>
   </g>
   <g id="line2d_13">
    <path d="M 44.406818 180.687273 
L 95.928349 180.687273 
L 97.001715 180.128506 
L 97.538397 178.496905 
L 98.07508 175.319786 
L 98.611762 166.216104 
L 99.148445 164.433056 
L 99.685128 156.142172 
L 100.22181 156.361491 
L 100.758493 162.178333 
L 101.295175 170.888825 
L 101.831858 173.650441 
L 102.368541 177.00315 
L 102.905223 179.330845 
L 103.441906 179.799279 
L 103.978589 180.033171 
L 104.515271 179.188048 
L 105.588636 180.066999 
L 106.125319 179.671305 
L 107.198684 178.134911 
L 107.735367 172.965838 
L 108.272049 171.386163 
L 108.808732 168.926371 
L 109.345415 168.751939 
L 110.955463 178.413857 
L 111.492145 180.343068 
L 112.028828 179.332134 
L 113.102193 180.523112 
L 114.175558 179.891438 
L 114.712241 180.060252 
L 115.785606 177.189115 
L 116.322289 173.345065 
L 117.395654 155.955326 
L 117.932337 151.008883 
L 118.469019 156.523162 
L 119.542384 175.057304 
L 120.079067 175.948892 
L 120.61575 178.417959 
L 121.689115 180.297815 
L 122.225797 180.431191 
L 122.76248 180.182077 
L 123.299163 180.438088 
L 123.835845 180.441433 
L 124.372528 180.565992 
L 124.909211 180.447923 
L 125.445893 180.569173 
L 127.055941 180.573715 
L 127.592624 180.687273 
L 128.129306 180.35525 
L 129.202671 180.687273 
L 130.276037 180.582046 
L 133.496132 180.589493 
L 134.032815 180.107583 
L 134.569498 180.496329 
L 135.642863 179.848066 
L 136.179545 176.171387 
L 137.252911 159.976062 
L 137.789593 158.521493 
L 138.326276 167.926161 
L 138.862959 170.07164 
L 139.399641 161.415295 
L 139.936324 157.376831 
L 140.473006 163.440791 
L 141.009689 172.700113 
L 141.546372 177.313582 
L 142.083054 179.547868 
L 142.619737 179.962761 
L 143.156419 179.970593 
L 143.693102 180.608498 
L 144.229785 180.141746 
L 144.766467 180.301756 
L 145.30315 180.229548 
L 145.839833 179.93243 
L 146.376515 173.66605 
L 146.913198 163.612696 
L 147.44988 173.811175 
L 147.986563 179.311751 
L 148.523246 180.257352 
L 149.059928 180.687273 
L 149.596611 180.546868 
L 150.669976 180.618478 
L 151.206659 180.687273 
L 152.280024 180.620511 
L 152.816707 180.687273 
L 153.890072 180.622456 
L 160.330263 180.687273 
L 160.866946 180.515372 
L 163.013676 180.521524 
L 163.550359 180.358749 
L 164.087041 180.633008 
L 164.623724 180.418359 
L 165.160407 180.367432 
L 165.697089 179.841877 
L 166.233772 179.063684 
L 166.770455 177.831887 
L 167.307137 175.746659 
L 167.84382 172.677247 
L 168.380502 172.746312 
L 168.917185 173.015045 
L 169.453868 175.367592 
L 169.99055 175.264965 
L 170.527233 174.382292 
L 171.063915 170.994567 
L 171.600598 169.442122 
L 172.137281 168.7261 
L 172.673963 166.462967 
L 173.210646 162.597497 
L 173.747329 164.234284 
L 175.357376 177.286494 
L 175.894059 178.618416 
L 176.430742 179.572 
L 176.967424 179.403987 
L 177.504107 178.404689 
L 178.040789 177.682692 
L 178.577472 176.583493 
L 179.114155 177.258882 
L 179.650837 178.603979 
L 180.18752 179.253105 
L 180.724203 180.101367 
L 181.260885 180.18899 
L 181.797568 180.39887 
L 182.33425 180.401106 
L 182.870933 180.565577 
L 183.944298 180.32777 
L 184.480981 180.013394 
L 185.017663 179.546462 
L 185.554346 178.383897 
L 186.627711 174.649915 
L 187.164394 175.076821 
L 187.701077 176.217237 
L 188.774442 179.045125 
L 189.311124 180.057489 
L 189.847807 180.466631 
L 190.38449 179.993692 
L 190.921172 180.179944 
L 191.457855 180.039735 
L 191.994537 179.365873 
L 193.067903 176.639201 
L 194.141268 175.031389 
L 194.677951 175.864037 
L 195.214633 178.087523 
L 195.751316 178.717269 
L 196.287998 178.832318 
L 196.824681 177.80715 
L 197.898046 174.14854 
L 198.971411 173.457285 
L 199.508094 174.283396 
L 200.044777 175.869196 
L 200.581459 178.007622 
L 201.118142 179.07145 
L 201.654825 179.52298 
L 202.191507 179.249588 
L 202.72819 177.551956 
L 203.264872 174.736352 
L 203.801555 174.378134 
L 204.338238 174.998352 
L 204.87492 176.154389 
L 205.411603 177.805503 
L 205.948285 177.973683 
L 206.484968 177.428778 
L 207.021651 176.125947 
L 208.095016 177.376272 
L 208.631699 178.667452 
L 209.168381 179.282577 
L 209.705064 178.864447 
L 210.778429 176.807262 
L 211.315112 176.888007 
L 211.851794 178.244636 
L 212.925159 179.728083 
L 213.998525 180.524912 
L 214.535207 180.579713 
L 215.07189 180.42006 
L 217.755303 180.557764 
L 218.291986 180.42985 
L 219.365351 179.56845 
L 220.975399 175.094701 
L 222.048764 176.469302 
L 222.585447 177.720536 
L 223.658812 179.282164 
L 224.195494 178.881136 
L 224.732177 177.86247 
L 225.26886 176.141969 
L 226.342225 175.889637 
L 226.878907 178.20901 
L 227.41559 179.385662 
L 227.952273 180.086475 
L 229.025638 180.436032 
L 229.562321 180.323944 
L 230.635686 179.340423 
L 231.172368 177.451061 
L 231.709051 174.784379 
L 232.245734 174.884246 
L 232.782416 176.38712 
L 233.319099 178.222161 
L 233.855781 179.515911 
L 234.929147 180.408442 
L 235.465829 180.473988 
L 237.075877 180.100002 
L 238.685925 175.406487 
L 239.222608 176.522777 
L 239.75929 177.116848 
L 240.295973 176.101511 
L 240.832656 175.500935 
L 241.369338 174.144223 
L 241.906021 173.820387 
L 242.442703 176.259848 
L 242.979386 178.179413 
L 243.516069 178.507143 
L 244.052751 178.499303 
L 244.589434 176.431896 
L 245.662799 176.150287 
L 246.199482 177.685028 
L 247.272847 179.646619 
L 247.80953 180.235557 
L 248.346212 180.331544 
L 248.882895 180.016784 
L 249.419577 179.316249 
L 249.95626 178.217537 
L 251.029625 176.528545 
L 251.566308 176.912934 
L 252.639673 179.088871 
L 253.176356 179.86537 
L 253.713038 179.869574 
L 254.249721 179.325503 
L 255.859769 176.367772 
L 256.396451 177.134753 
L 256.933134 177.56645 
L 257.469817 177.650748 
L 258.006499 176.693017 
L 258.543182 175.456176 
L 258.543182 175.456176 
" clip-path="url(#pa6a08bb7a3)" style="fill: none; stroke: #0000ff; stroke-opacity: 0.5; stroke-linecap: square"/>
   </g>
   <g id="line2d_14">
    <path d="M 44.406818 180.687273 
L 100.22181 180.687273 
L 100.758493 180.254315 
L 101.295175 180.687273 
L 101.831858 180.687273 
L 102.368541 180.277926 
L 102.905223 180.687273 
L 103.441906 180.687273 
L 103.978589 179.912042 
L 104.515271 180.306517 
L 105.051954 180.313197 
L 105.588636 180.687273 
L 106.662002 179.977156 
L 107.198684 179.989191 
L 107.735367 180.687273 
L 108.272049 179.674907 
L 108.808732 180.023518 
L 109.345415 179.381527 
L 110.41878 180.055374 
L 111.492145 177.627675 
L 112.028828 175.567859 
L 112.56551 164.976153 
L 113.638876 127.527354 
L 114.175558 129.187924 
L 114.712241 131.918988 
L 115.248923 148.023438 
L 115.785606 169.060548 
L 116.322289 174.560442 
L 116.858971 177.537675 
L 117.395654 179.652734 
L 118.469019 179.682398 
L 119.005702 179.944383 
L 119.542384 179.710801 
L 120.079067 179.724554 
L 120.61575 180.449959 
L 121.689115 179.994903 
L 122.225797 180.232017 
L 122.76248 180.687273 
L 123.299163 180.244278 
L 123.835845 179.376128 
L 124.372528 180.687273 
L 124.909211 179.623497 
L 125.445893 179.217586 
L 125.982576 176.335842 
L 127.055941 167.565017 
L 127.592624 158.36645 
L 128.129306 159.437826 
L 128.665989 168.642909 
L 129.202671 175.508126 
L 130.276037 179.751926 
L 130.812719 180.317753 
L 131.349402 180.322287 
L 131.886085 180.507006 
L 132.422767 180.331108 
L 132.95945 180.687273 
L 133.496132 180.513443 
L 134.032815 180.687273 
L 136.179545 180.687273 
L 136.716228 180.363377 
L 137.252911 180.367099 
L 138.326276 180.687273 
L 140.473006 180.687273 
L 141.009689 180.539362 
L 142.083054 180.542586 
L 142.619737 180.687273 
L 143.156419 180.687273 
L 143.693102 180.547229 
L 144.229785 180.133087 
L 144.766467 180.5502 
L 145.30315 179.19543 
L 145.839833 167.804621 
L 146.376515 131.688105 
L 146.913198 140.739827 
L 147.44988 169.893588 
L 147.986563 177.598382 
L 148.523246 180.559889 
L 149.059928 180.561189 
L 149.596611 180.312861 
L 150.133293 180.687273 
L 161.403628 180.586336 
L 162.476994 180.389929 
L 163.013676 180.589051 
L 164.623724 180.496045 
L 165.160407 180.308203 
L 165.697089 180.311541 
L 166.233772 180.501055 
L 167.84382 180.143067 
L 168.380502 179.698165 
L 168.917185 179.082624 
L 169.453868 176.091246 
L 170.527233 167.566834 
L 171.063915 166.040519 
L 171.600598 168.299455 
L 172.137281 172.723749 
L 173.747329 164.244616 
L 174.820694 173.535117 
L 175.357376 177.946497 
L 175.894059 179.328024 
L 176.430742 179.814882 
L 177.504107 179.126532 
L 178.040789 176.274748 
L 178.577472 174.082828 
L 179.114155 174.211426 
L 179.650837 176.530133 
L 180.18752 177.312761 
L 180.724203 179.199257 
L 181.797568 180.028066 
L 182.870933 180.182459 
L 183.944298 180.545247 
L 186.091029 180.273984 
L 186.627711 180.413818 
L 187.164394 180.212314 
L 187.701077 180.552582 
L 188.237759 180.486739 
L 188.774442 179.82473 
L 189.311124 178.843202 
L 189.847807 175.849496 
L 191.457855 158.431153 
L 191.994537 162.655922 
L 192.53122 167.765675 
L 193.067903 169.986285 
L 193.604585 171.243491 
L 194.141268 171.8661 
L 194.677951 175.419994 
L 195.214633 176.795251 
L 195.751316 179.298458 
L 196.287998 180.207608 
L 196.824681 180.210973 
L 197.361364 180.509909 
L 197.898046 180.628564 
L 200.044777 180.45886 
L 201.654825 180.575389 
L 202.72819 180.466524 
L 203.801555 180.687273 
L 204.338238 180.687273 
L 204.87492 180.526104 
L 206.484968 180.476623 
L 207.021651 180.373375 
L 207.558333 179.024132 
L 208.095016 178.157229 
L 208.631699 174.326441 
L 209.168381 173.093638 
L 209.705064 173.801044 
L 210.241746 175.455292 
L 210.778429 178.537959 
L 211.315112 179.942319 
L 211.851794 179.799041 
L 212.388477 180.245987 
L 213.461842 180.251562 
L 214.535207 177.054141 
L 215.07189 174.844223 
L 215.608573 174.219842 
L 216.145255 175.292223 
L 217.21862 178.926602 
L 217.755303 179.996561 
L 218.291986 180.366925 
L 219.365351 180.551658 
L 220.438716 180.553304 
L 221.512081 180.599037 
L 222.585447 180.425742 
L 223.122129 180.340653 
L 223.658812 178.921466 
L 224.195494 176.834181 
L 225.26886 168.629923 
L 225.805542 170.257223 
L 226.342225 172.743476 
L 226.878907 176.946499 
L 227.41559 179.075755 
L 227.952273 179.94783 
L 228.488955 180.442224 
L 229.025638 180.403041 
L 229.562321 180.566163 
L 230.099003 180.606998 
L 231.172368 180.528562 
L 231.709051 180.60837 
L 232.782416 180.414247 
L 233.319099 180.609708 
L 233.855781 180.455893 
L 234.392464 180.457197 
L 234.929147 180.611011 
L 236.002512 180.461041 
L 236.539195 180.574787 
L 237.075877 180.500837 
L 237.61256 180.242309 
L 238.149242 179.839136 
L 238.685925 178.303585 
L 240.295973 165.067731 
L 240.832656 168.740536 
L 241.369338 173.622385 
L 241.906021 177.138495 
L 242.442703 179.451918 
L 243.516069 180.02385 
L 244.052751 179.367545 
L 245.662799 173.441768 
L 246.199482 174.432066 
L 246.736164 177.339491 
L 247.272847 179.409056 
L 247.80953 180.151906 
L 251.029625 180.265725 
L 251.566308 180.267902 
L 252.10299 179.724481 
L 252.639673 177.973383 
L 253.713038 169.373803 
L 254.249721 167.953844 
L 255.323086 170.07477 
L 256.933134 177.683314 
L 257.469817 179.253835 
L 258.006499 179.92863 
L 258.543182 180.053201 
L 258.543182 180.053201 
" clip-path="url(#pa6a08bb7a3)" style="fill: none; stroke: #ff0000; stroke-opacity: 0.5; stroke-linecap: square"/>
   </g>
   <g id="patch_3">
    <path d="M 33.7 188.6 
L 33.7 14.52 
" style="fill: none; stroke: #000000; stroke-width: 0.8; stroke-linejoin: miter; stroke-linecap: square"/>
   </g>
   <g id="patch_4">
    <path d="M 269.25 188.6 
L 269.25 14.52 
" style="fill: none; stroke: #000000; stroke-width: 0.8; stroke-linejoin: miter; stroke-linecap: square"/>
   </g>
   <g id="patch_5">
    <path d="M 33.7 188.6 
L 269.25 188.6 
" style="fill: none; stroke: #000000; stroke-width: 0.8; stroke-linejoin: miter; stroke-linecap: square"/>
   </g>
   <g id="patch_6">
    <path d="M 33.7 14.52 
L 269.25 14.52 
" style="fill: none; stroke: #000000; stroke-width: 0.8; stroke-linejoin: miter; stroke-linecap: square"/>
   </g>
   <g id="legend_1">
    <g id="patch_7">
     <path d="M 213.917188 66.554375 
L 262.25 66.554375 
Q 264.25 66.554375 264.25 64.554375 
L 264.25 21.52 
Q 264.25 19.52 262.25 19.52 
L 213.917188 19.52 
Q 211.917188 19.52 211.917188 21.52 
L 211.917188 64.554375 
Q 211.917188 66.554375 213.917188 66.554375 
z
" style="fill: #ffffff; opacity: 0.8; stroke: #cccccc; stroke-linejoin: miter"/>
    </g>
    <g id="line2d_15">
     <path d="M 215.917188 27.618438 
L 225.917188 27.618438 
L 235.917188 27.618438 
" style="fill: none; stroke: #000000; stroke-opacity: 0.5; stroke-width: 0.5; stroke-linecap: square"/>
    </g>
    <g id="text_14">
     <!-- all -->
     <g transform="translate(243.917188 31.118438) scale(0.1 -0.1)">
      <defs>
       <path id="DejaVuSans-61" d="M 2194 1759 
Q 1497 1759 1228 1600 
Q 959 1441 959 1056 
Q 959 750 1161 570 
Q 1363 391 1709 391 
Q 2188 391 2477 730 
Q 2766 1069 2766 1631 
L 2766 1759 
L 2194 1759 
z
M 3341 1997 
L 3341 0 
L 2766 0 
L 2766 531 
Q 2569 213 2275 61 
Q 1981 -91 1556 -91 
Q 1019 -91 701 211 
Q 384 513 384 1019 
Q 384 1609 779 1909 
Q 1175 2209 1959 2209 
L 2766 2209 
L 2766 2266 
Q 2766 2663 2505 2880 
Q 2244 3097 1772 3097 
Q 1472 3097 1187 3025 
Q 903 2953 641 2809 
L 641 3341 
Q 956 3463 1253 3523 
Q 1550 3584 1831 3584 
Q 2591 3584 2966 3190 
Q 3341 2797 3341 1997 
z
" transform="scale(0.015625)"/>
       <path id="DejaVuSans-6c" d="M 603 4863 
L 1178 4863 
L 1178 0 
L 603 0 
L 603 4863 
z
" transform="scale(0.015625)"/>
      </defs>
      <use xlink:href="#DejaVuSans-61"/>
      <use xlink:href="#DejaVuSans-6c" transform="translate(61.279297 0)"/>
      <use xlink:href="#DejaVuSans-6c" transform="translate(89.0625 0)"/>
     </g>
    </g>
    <g id="line2d_16">
     <path d="M 215.917188 42.296563 
L 225.917188 42.296563 
L 235.917188 42.296563 
" style="fill: none; stroke: #0000ff; stroke-opacity: 0.5; stroke-linecap: square"/>
    </g>
    <g id="text_15">
     <!-- 1-1 -->
     <g transform="translate(243.917188 45.796563) scale(0.1 -0.1)">
      <defs>
       <path id="DejaVuSans-2d" d="M 313 2009 
L 1997 2009 
L 1997 1497 
L 313 1497 
L 313 2009 
z
" transform="scale(0.015625)"/>
      </defs>
      <use xlink:href="#DejaVuSans-31"/>
      <use xlink:href="#DejaVuSans-2d" transform="translate(63.623047 0)"/>
      <use xlink:href="#DejaVuSans-31" transform="translate(99.707031 0)"/>
     </g>
    </g>
    <g id="line2d_17">
     <path d="M 215.917188 56.974688 
L 225.917188 56.974688 
L 235.917188 56.974688 
" style="fill: none; stroke: #ff0000; stroke-opacity: 0.5; stroke-linecap: square"/>
    </g>
    <g id="text_16">
     <!-- 2-2 -->
     <g transform="translate(243.917188 60.474688) scale(0.1 -0.1)">
      <use xlink:href="#DejaVuSans-32"/>
      <use xlink:href="#DejaVuSans-2d" transform="translate(63.623047 0)"/>
      <use xlink:href="#DejaVuSans-32" transform="translate(99.707031 0)"/>
     </g>
    </g>
   </g>
  </g>
 </g>
 <defs>
  <clipPath id="pa6a08bb7a3">
   <rect x="33.7" y="14.52" width="235.55" height="174.08"/>
  </clipPath>
 </defs>
</svg>
