<?xml version="1.0" encoding="utf-8" standalone="no"?>
<!DOCTYPE svg PUBLIC "-//W3C//DTD SVG 1.1//EN"
  "http://www.w3.org/Graphics/SVG/1.1/DTD/svg11.dtd">
<svg xmlns:xlink="http://www.w3.org/1999/xlink" width="288pt" height="216pt" viewBox="0 0 288 216" xmlns="http://www.w3.org/2000/svg" version="1.1">
 <metadata>
  <rdf:RDF xmlns:dc="http://purl.org/dc/elements/1.1/" xmlns:cc="http://creativecommons.org/ns#" xmlns:rdf="http://www.w3.org/1999/02/22-rdf-syntax-ns#">
   <cc:Work>
    <dc:type rdf:resource="http://purl.org/dc/dcmitype/StillImage"/>
    <dc:date>2025-09-17T23:17:00.135335</dc:date>
    <dc:format>image/svg+xml</dc:format>
    <dc:creator>
     <cc:Agent>
      <dc:title>Matplotlib v3.10.0, https://matplotlib.org/</dc:title>
     </cc:Agent>
    </dc:creator>
   </cc:Work>
  </rdf:RDF>
 </metadata>
 <defs>
  <style type="text/css">*{stroke-linejoin: round; stroke-linecap: butt}</style>
 </defs>
 <g id="figure_1">
  <g id="patch_1">
   <path d="M 0 216 
L 288 216 
L 288 0 
L 0 0 
z
" style="fill: #ffffff"/>
  </g>
  <g id="axes_1">
   <g id="patch_2">
    <path d="M 33.7 188.6 
L 269.25 188.6 
L 269.25 14.52 
L 33.7 14.52 
z
" style="fill: #ffffff"/>
   </g>
   <g id="matplotlib.axis_1">
    <g id="xtick_1">
     <g id="line2d_1">
      <defs>
       <path id="m38e7f45577" d="M 0 0 
L 0 3.5 
" style="stroke: #000000; stroke-width: 0.8"/>
      </defs>
      <g>
       <use xlink:href="#m38e7f45577" x="44.138477" y="188.6" style="stroke: #000000; stroke-width: 0.8"/>
      </g>
     </g>
     <g id="text_1">
      <!-- 0 -->
      <g transform="translate(40.957227 203.198437) scale(0.1 -0.1)">
       <defs>
        <path id="DejaVuSans-30" d="M 2034 4250 
Q 1547 4250 1301 3770 
Q 1056 3291 1056 2328 
Q 1056 1369 1301 889 
Q 1547 409 2034 409 
Q 2525 409 2770 889 
Q 3016 1369 3016 2328 
Q 3016 3291 2770 3770 
Q 2525 4250 2034 4250 
z
M 2034 4750 
Q 2819 4750 3233 4129 
Q 3647 3509 3647 2328 
Q 3647 1150 3233 529 
Q 2819 -91 2034 -91 
Q 1250 -91 836 529 
Q 422 1150 422 2328 
Q 422 3509 836 4129 
Q 1250 4750 2034 4750 
z
" transform="scale(0.015625)"/>
       </defs>
       <use xlink:href="#DejaVuSans-30"/>
      </g>
     </g>
    </g>
    <g id="xtick_2">
     <g id="line2d_2">
      <g>
       <use xlink:href="#m38e7f45577" x="87.073086" y="188.6" style="stroke: #000000; stroke-width: 0.8"/>
      </g>
     </g>
     <g id="text_2">
      <!-- 200 -->
      <g transform="translate(77.529336 203.198437) scale(0.1 -0.1)">
       <defs>
        <path id="DejaVuSans-32" d="M 1228 531 
L 3431 531 
L 3431 0 
L 469 0 
L 469 531 
Q 828 903 1448 1529 
Q 2069 2156 2228 2338 
Q 2531 2678 2651 2914 
Q 2772 3150 2772 3378 
Q 2772 3750 2511 3984 
Q 2250 4219 1831 4219 
Q 1534 4219 1204 4116 
Q 875 4013 500 3803 
L 500 4441 
Q 881 4594 1212 4672 
Q 1544 4750 1819 4750 
Q 2544 4750 2975 4387 
Q 3406 4025 3406 3419 
Q 3406 3131 3298 2873 
Q 3191 2616 2906 2266 
Q 2828 2175 2409 1742 
Q 1991 1309 1228 531 
z
" transform="scale(0.015625)"/>
       </defs>
       <use xlink:href="#DejaVuSans-32"/>
       <use xlink:href="#DejaVuSans-30" transform="translate(63.623047 0)"/>
       <use xlink:href="#DejaVuSans-30" transform="translate(127.246094 0)"/>
      </g>
     </g>
    </g>
    <g id="xtick_3">
     <g id="line2d_3">
      <g>
       <use xlink:href="#m38e7f45577" x="130.007695" y="188.6" style="stroke: #000000; stroke-width: 0.8"/>
      </g>
     </g>
     <g id="text_3">
      <!-- 400 -->
      <g transform="translate(120.463945 203.198437) scale(0.1 -0.1)">
       <defs>
        <path id="DejaVuSans-34" d="M 2419 4116 
L 825 1625 
L 2419 1625 
L 2419 4116 
z
M 2253 4666 
L 3047 4666 
L 3047 1625 
L 3713 1625 
L 3713 1100 
L 3047 1100 
L 3047 0 
L 2419 0 
L 2419 1100 
L 313 1100 
L 313 1709 
L 2253 4666 
z
" transform="scale(0.015625)"/>
       </defs>
       <use xlink:href="#DejaVuSans-34"/>
       <use xlink:href="#DejaVuSans-30" transform="translate(63.623047 0)"/>
       <use xlink:href="#DejaVuSans-30" transform="translate(127.246094 0)"/>
      </g>
     </g>
    </g>
    <g id="xtick_4">
     <g id="line2d_4">
      <g>
       <use xlink:href="#m38e7f45577" x="172.942305" y="188.6" style="stroke: #000000; stroke-width: 0.8"/>
      </g>
     </g>
     <g id="text_4">
      <!-- 600 -->
      <g transform="translate(163.398555 203.198437) scale(0.1 -0.1)">
       <defs>
        <path id="DejaVuSans-36" d="M 2113 2584 
Q 1688 2584 1439 2293 
Q 1191 2003 1191 1497 
Q 1191 994 1439 701 
Q 1688 409 2113 409 
Q 2538 409 2786 701 
Q 3034 994 3034 1497 
Q 3034 2003 2786 2293 
Q 2538 2584 2113 2584 
z
M 3366 4563 
L 3366 3988 
Q 3128 4100 2886 4159 
Q 2644 4219 2406 4219 
Q 1781 4219 1451 3797 
Q 1122 3375 1075 2522 
Q 1259 2794 1537 2939 
Q 1816 3084 2150 3084 
Q 2853 3084 3261 2657 
Q 3669 2231 3669 1497 
Q 3669 778 3244 343 
Q 2819 -91 2113 -91 
Q 1303 -91 875 529 
Q 447 1150 447 2328 
Q 447 3434 972 4092 
Q 1497 4750 2381 4750 
Q 2619 4750 2861 4703 
Q 3103 4656 3366 4563 
z
" transform="scale(0.015625)"/>
       </defs>
       <use xlink:href="#DejaVuSans-36"/>
       <use xlink:href="#DejaVuSans-30" transform="translate(63.623047 0)"/>
       <use xlink:href="#DejaVuSans-30" transform="translate(127.246094 0)"/>
      </g>
     </g>
    </g>
    <g id="xtick_5">
     <g id="line2d_5">
      <g>
       <use xlink:href="#m38e7f45577" x="215.876914" y="188.6" style="stroke: #000000; stroke-width: 0.8"/>
      </g>
     </g>
     <g id="text_5">
      <!-- 800 -->
      <g transform="translate(206.333164 203.198437) scale(0.1 -0.1)">
       <defs>
        <path id="DejaVuSans-38" d="M 2034 2216 
Q 1584 2216 1326 1975 
Q 1069 1734 1069 1313 
Q 1069 891 1326 650 
Q 1584 409 2034 409 
Q 2484 409 2743 651 
Q 3003 894 3003 1313 
Q 3003 1734 2745 1975 
Q 2488 2216 2034 2216 
z
M 1403 2484 
Q 997 2584 770 2862 
Q 544 3141 544 3541 
Q 544 4100 942 4425 
Q 1341 4750 2034 4750 
Q 2731 4750 3128 4425 
Q 3525 4100 3525 3541 
Q 3525 3141 3298 2862 
Q 3072 2584 2669 2484 
Q 3125 2378 3379 2068 
Q 3634 1759 3634 1313 
Q 3634 634 3220 271 
Q 2806 -91 2034 -91 
Q 1263 -91 848 271 
Q 434 634 434 1313 
Q 434 1759 690 2068 
Q 947 2378 1403 2484 
z
M 1172 3481 
Q 1172 3119 1398 2916 
Q 1625 2713 2034 2713 
Q 2441 2713 2670 2916 
Q 2900 3119 2900 3481 
Q 2900 3844 2670 4047 
Q 2441 4250 2034 4250 
Q 1625 4250 1398 4047 
Q 1172 3844 1172 3481 
z
" transform="scale(0.015625)"/>
       </defs>
       <use xlink:href="#DejaVuSans-38"/>
       <use xlink:href="#DejaVuSans-30" transform="translate(63.623047 0)"/>
       <use xlink:href="#DejaVuSans-30" transform="translate(127.246094 0)"/>
      </g>
     </g>
    </g>
    <g id="xtick_6">
     <g id="line2d_6">
      <g>
       <use xlink:href="#m38e7f45577" x="258.811523" y="188.6" style="stroke: #000000; stroke-width: 0.8"/>
      </g>
     </g>
     <g id="text_6">
      <!-- 1000 -->
      <g transform="translate(246.086523 203.198437) scale(0.1 -0.1)">
       <defs>
        <path id="DejaVuSans-31" d="M 794 531 
L 1825 531 
L 1825 4091 
L 703 3866 
L 703 4441 
L 1819 4666 
L 2450 4666 
L 2450 531 
L 3481 531 
L 3481 0 
L 794 0 
L 794 531 
z
" transform="scale(0.015625)"/>
       </defs>
       <use xlink:href="#DejaVuSans-31"/>
       <use xlink:href="#DejaVuSans-30" transform="translate(63.623047 0)"/>
       <use xlink:href="#DejaVuSans-30" transform="translate(127.246094 0)"/>
       <use xlink:href="#DejaVuSans-30" transform="translate(190.869141 0)"/>
      </g>
     </g>
    </g>
    <g id="text_7">
     <!-- q (nm) -->
     <g transform="translate(134.771094 216.876563) scale(0.1 -0.1)">
      <defs>
       <path id="DejaVuSans-71" d="M 947 1747 
Q 947 1113 1208 752 
Q 1469 391 1925 391 
Q 2381 391 2643 752 
Q 2906 1113 2906 1747 
Q 2906 2381 2643 2742 
Q 2381 3103 1925 3103 
Q 1469 3103 1208 2742 
Q 947 2381 947 1747 
z
M 2906 525 
Q 2725 213 2448 61 
Q 2172 -91 1784 -91 
Q 1150 -91 751 415 
Q 353 922 353 1747 
Q 353 2572 751 3078 
Q 1150 3584 1784 3584 
Q 2172 3584 2448 3432 
Q 2725 3281 2906 2969 
L 2906 3500 
L 3481 3500 
L 3481 -1331 
L 2906 -1331 
L 2906 525 
z
" transform="scale(0.015625)"/>
       <path id="DejaVuSans-20" transform="scale(0.015625)"/>
       <path id="DejaVuSans-28" d="M 1984 4856 
Q 1566 4138 1362 3434 
Q 1159 2731 1159 2009 
Q 1159 1288 1364 580 
Q 1569 -128 1984 -844 
L 1484 -844 
Q 1016 -109 783 600 
Q 550 1309 550 2009 
Q 550 2706 781 3412 
Q 1013 4119 1484 4856 
L 1984 4856 
z
" transform="scale(0.015625)"/>
       <path id="DejaVuSans-6e" d="M 3513 2113 
L 3513 0 
L 2938 0 
L 2938 2094 
Q 2938 2591 2744 2837 
Q 2550 3084 2163 3084 
Q 1697 3084 1428 2787 
Q 1159 2491 1159 1978 
L 1159 0 
L 581 0 
L 581 3500 
L 1159 3500 
L 1159 2956 
Q 1366 3272 1645 3428 
Q 1925 3584 2291 3584 
Q 2894 3584 3203 3211 
Q 3513 2838 3513 2113 
z
" transform="scale(0.015625)"/>
       <path id="DejaVuSans-6d" d="M 3328 2828 
Q 3544 3216 3844 3400 
Q 4144 3584 4550 3584 
Q 5097 3584 5394 3201 
Q 5691 2819 5691 2113 
L 5691 0 
L 5113 0 
L 5113 2094 
Q 5113 2597 4934 2840 
Q 4756 3084 4391 3084 
Q 3944 3084 3684 2787 
Q 3425 2491 3425 1978 
L 3425 0 
L 2847 0 
L 2847 2094 
Q 2847 2600 2669 2842 
Q 2491 3084 2119 3084 
Q 1678 3084 1418 2786 
Q 1159 2488 1159 1978 
L 1159 0 
L 581 0 
L 581 3500 
L 1159 3500 
L 1159 2956 
Q 1356 3278 1631 3431 
Q 1906 3584 2284 3584 
Q 2666 3584 2933 3390 
Q 3200 3197 3328 2828 
z
" transform="scale(0.015625)"/>
       <path id="DejaVuSans-29" d="M 513 4856 
L 1013 4856 
Q 1481 4119 1714 3412 
Q 1947 2706 1947 2009 
Q 1947 1309 1714 600 
Q 1481 -109 1013 -844 
L 513 -844 
Q 928 -128 1133 580 
Q 1338 1288 1338 2009 
Q 1338 2731 1133 3434 
Q 928 4138 513 4856 
z
" transform="scale(0.015625)"/>
      </defs>
      <use xlink:href="#DejaVuSans-71"/>
      <use xlink:href="#DejaVuSans-20" transform="translate(63.476562 0)"/>
      <use xlink:href="#DejaVuSans-28" transform="translate(95.263672 0)"/>
      <use xlink:href="#DejaVuSans-6e" transform="translate(134.277344 0)"/>
      <use xlink:href="#DejaVuSans-6d" transform="translate(197.65625 0)"/>
      <use xlink:href="#DejaVuSans-29" transform="translate(295.068359 0)"/>
     </g>
    </g>
   </g>
   <g id="matplotlib.axis_2">
    <g id="ytick_1">
     <g id="line2d_7">
      <defs>
       <path id="m9f0b903876" d="M 0 0 
L -3.5 0 
" style="stroke: #000000; stroke-width: 0.8"/>
      </defs>
      <g>
       <use xlink:href="#m9f0b903876" x="33.7" y="180.687273" style="stroke: #000000; stroke-width: 0.8"/>
      </g>
     </g>
     <g id="text_8">
      <!-- 0 -->
      <g transform="translate(20.3375 184.486491) scale(0.1 -0.1)">
       <use xlink:href="#DejaVuSans-30"/>
      </g>
     </g>
    </g>
    <g id="ytick_2">
     <g id="line2d_8">
      <g>
       <use xlink:href="#m9f0b903876" x="33.7" y="145.943887" style="stroke: #000000; stroke-width: 0.8"/>
      </g>
     </g>
     <g id="text_9">
      <!-- 20000 -->
      <g transform="translate(-5.1125 149.743106) scale(0.1 -0.1)">
       <use xlink:href="#DejaVuSans-32"/>
       <use xlink:href="#DejaVuSans-30" transform="translate(63.623047 0)"/>
       <use xlink:href="#DejaVuSans-30" transform="translate(127.246094 0)"/>
       <use xlink:href="#DejaVuSans-30" transform="translate(190.869141 0)"/>
       <use xlink:href="#DejaVuSans-30" transform="translate(254.492188 0)"/>
      </g>
     </g>
    </g>
    <g id="ytick_3">
     <g id="line2d_9">
      <g>
       <use xlink:href="#m9f0b903876" x="33.7" y="111.200502" style="stroke: #000000; stroke-width: 0.8"/>
      </g>
     </g>
     <g id="text_10">
      <!-- 40000 -->
      <g transform="translate(-5.1125 114.999721) scale(0.1 -0.1)">
       <use xlink:href="#DejaVuSans-34"/>
       <use xlink:href="#DejaVuSans-30" transform="translate(63.623047 0)"/>
       <use xlink:href="#DejaVuSans-30" transform="translate(127.246094 0)"/>
       <use xlink:href="#DejaVuSans-30" transform="translate(190.869141 0)"/>
       <use xlink:href="#DejaVuSans-30" transform="translate(254.492188 0)"/>
      </g>
     </g>
    </g>
    <g id="ytick_4">
     <g id="line2d_10">
      <g>
       <use xlink:href="#m9f0b903876" x="33.7" y="76.457117" style="stroke: #000000; stroke-width: 0.8"/>
      </g>
     </g>
     <g id="text_11">
      <!-- 60000 -->
      <g transform="translate(-5.1125 80.256336) scale(0.1 -0.1)">
       <use xlink:href="#DejaVuSans-36"/>
       <use xlink:href="#DejaVuSans-30" transform="translate(63.623047 0)"/>
       <use xlink:href="#DejaVuSans-30" transform="translate(127.246094 0)"/>
       <use xlink:href="#DejaVuSans-30" transform="translate(190.869141 0)"/>
       <use xlink:href="#DejaVuSans-30" transform="translate(254.492188 0)"/>
      </g>
     </g>
    </g>
    <g id="ytick_5">
     <g id="line2d_11">
      <g>
       <use xlink:href="#m9f0b903876" x="33.7" y="41.713732" style="stroke: #000000; stroke-width: 0.8"/>
      </g>
     </g>
     <g id="text_12">
      <!-- 80000 -->
      <g transform="translate(-5.1125 45.512951) scale(0.1 -0.1)">
       <use xlink:href="#DejaVuSans-38"/>
       <use xlink:href="#DejaVuSans-30" transform="translate(63.623047 0)"/>
       <use xlink:href="#DejaVuSans-30" transform="translate(127.246094 0)"/>
       <use xlink:href="#DejaVuSans-30" transform="translate(190.869141 0)"/>
       <use xlink:href="#DejaVuSans-30" transform="translate(254.492188 0)"/>
      </g>
     </g>
    </g>
    <g id="text_13">
     <!-- rdf -->
     <g transform="translate(-11.192187 108.462344) rotate(-90) scale(0.1 -0.1)">
      <defs>
       <path id="DejaVuSans-72" d="M 2631 2963 
Q 2534 3019 2420 3045 
Q 2306 3072 2169 3072 
Q 1681 3072 1420 2755 
Q 1159 2438 1159 1844 
L 1159 0 
L 581 0 
L 581 3500 
L 1159 3500 
L 1159 2956 
Q 1341 3275 1631 3429 
Q 1922 3584 2338 3584 
Q 2397 3584 2469 3576 
Q 2541 3569 2628 3553 
L 2631 2963 
z
" transform="scale(0.015625)"/>
       <path id="DejaVuSans-64" d="M 2906 2969 
L 2906 4863 
L 3481 4863 
L 3481 0 
L 2906 0 
L 2906 525 
Q 2725 213 2448 61 
Q 2172 -91 1784 -91 
Q 1150 -91 751 415 
Q 353 922 353 1747 
Q 353 2572 751 3078 
Q 1150 3584 1784 3584 
Q 2172 3584 2448 3432 
Q 2725 3281 2906 2969 
z
M 947 1747 
Q 947 1113 1208 752 
Q 1469 391 1925 391 
Q 2381 391 2643 752 
Q 2906 1113 2906 1747 
Q 2906 2381 2643 2742 
Q 2381 3103 1925 3103 
Q 1469 3103 1208 2742 
Q 947 2381 947 1747 
z
" transform="scale(0.015625)"/>
       <path id="DejaVuSans-66" d="M 2375 4863 
L 2375 4384 
L 1825 4384 
Q 1516 4384 1395 4259 
Q 1275 4134 1275 3809 
L 1275 3500 
L 2222 3500 
L 2222 3053 
L 1275 3053 
L 1275 0 
L 697 0 
L 697 3053 
L 147 3053 
L 147 3500 
L 697 3500 
L 697 3744 
Q 697 4328 969 4595 
Q 1241 4863 1831 4863 
L 2375 4863 
z
" transform="scale(0.015625)"/>
      </defs>
      <use xlink:href="#DejaVuSans-72"/>
      <use xlink:href="#DejaVuSans-64" transform="translate(39.363281 0)"/>
      <use xlink:href="#DejaVuSans-66" transform="translate(102.839844 0)"/>
     </g>
    </g>
   </g>
   <g id="line2d_12">
    <path d="M 44.406818 180.687273 
L 91.634888 180.687273 
L 92.171571 180.478563 
L 92.708254 180.687273 
L 93.244936 180.387745 
L 93.781619 180.687273 
L 94.318301 180.496039 
L 94.854984 180.687273 
L 95.391667 152.45785 
L 95.928349 22.432727 
L 96.465032 170.31123 
L 97.001715 179.567243 
L 97.538397 180.096241 
L 98.07508 177.956154 
L 98.611762 176.873766 
L 99.148445 172.730972 
L 99.685128 173.586261 
L 100.22181 172.802962 
L 100.758493 176.556642 
L 101.295175 177.444535 
L 101.831858 179.746933 
L 102.368541 179.693178 
L 102.905223 180.199262 
L 103.978589 180.552798 
L 104.515271 180.489131 
L 105.051954 180.297941 
L 105.588636 180.559753 
L 106.125319 180.624612 
L 106.662002 179.825017 
L 107.735367 178.841894 
L 108.272049 176.414131 
L 108.808732 176.081783 
L 109.345415 177.119908 
L 109.882097 179.238966 
L 110.955463 180.147984 
L 111.492145 180.103471 
L 112.028828 179.799241 
L 113.102193 174.156815 
L 113.638876 169.92077 
L 114.175558 169.447069 
L 115.248923 176.06878 
L 115.785606 177.96692 
L 116.858971 174.814113 
L 117.395654 171.355622 
L 117.932337 170.916071 
L 118.469019 173.235552 
L 119.005702 176.735431 
L 119.542384 179.205178 
L 120.079067 179.810541 
L 120.61575 180.193289 
L 121.689115 180.607205 
L 123.299163 180.379899 
L 124.372528 180.612471 
L 124.909211 180.576557 
L 125.445893 180.177399 
L 125.982576 180.076232 
L 126.519258 179.339156 
L 127.592624 175.328909 
L 128.129306 175.909117 
L 128.665989 176.306569 
L 129.202671 173.333757 
L 129.739354 173.294251 
L 130.276037 175.041022 
L 130.812719 177.963098 
L 131.349402 179.547662 
L 131.886085 179.874258 
L 132.422767 180.440146 
L 132.95945 180.565198 
L 133.496132 180.446047 
L 134.569498 180.422298 
L 135.10618 180.16356 
L 135.642863 180.054665 
L 136.179545 178.584151 
L 137.252911 171.884436 
L 137.789593 175.004768 
L 138.326276 175.802113 
L 138.862959 174.864477 
L 139.399641 169.199074 
L 139.936324 166.441516 
L 141.009689 176.35123 
L 141.546372 179.139394 
L 142.083054 179.959436 
L 142.619737 179.694274 
L 143.156419 179.262989 
L 143.693102 177.456362 
L 144.229785 176.217182 
L 144.766467 175.575194 
L 145.30315 176.546787 
L 145.839833 174.122926 
L 146.376515 164.770731 
L 146.913198 169.746072 
L 147.44988 177.010324 
L 147.986563 177.070555 
L 148.523246 173.771077 
L 149.059928 171.58894 
L 149.596611 172.633872 
L 150.669976 178.714288 
L 151.206659 179.595131 
L 151.743341 179.772348 
L 152.280024 178.896127 
L 153.353389 176.751156 
L 153.890072 176.909492 
L 154.426754 178.054645 
L 154.963437 179.589505 
L 155.50012 179.871868 
L 156.036802 179.783525 
L 156.573485 179.125542 
L 157.110167 177.631146 
L 157.64685 176.949855 
L 158.183533 177.947568 
L 158.720215 178.431634 
L 159.256898 179.887884 
L 160.330263 180.4911 
L 161.940311 180.548475 
L 162.476994 180.618502 
L 163.550359 180.214493 
L 164.087041 178.89671 
L 164.623724 177.254071 
L 165.160407 175.246057 
L 165.697089 173.74606 
L 166.233772 175.018264 
L 166.770455 176.812884 
L 167.307137 177.751198 
L 167.84382 177.273145 
L 168.380502 177.567743 
L 168.917185 178.599662 
L 169.453868 178.525517 
L 171.063915 174.514918 
L 171.600598 175.026203 
L 172.137281 175.323398 
L 172.673963 173.969099 
L 173.210646 171.06216 
L 173.747329 173.06229 
L 174.284011 176.209645 
L 174.820694 178.191898 
L 175.357376 179.009303 
L 175.894059 178.440427 
L 176.430742 177.413083 
L 176.967424 176.975511 
L 177.504107 177.682152 
L 178.040789 178.001615 
L 178.577472 177.743269 
L 179.114155 177.145499 
L 179.650837 177.199711 
L 180.18752 177.721474 
L 181.260885 179.752507 
L 181.797568 180.217174 
L 182.33425 180.460349 
L 183.407616 180.550727 
L 183.944298 180.502501 
L 184.480981 180.210531 
L 185.017663 180.080716 
L 185.554346 179.110134 
L 186.627711 175.256039 
L 187.701077 178.420978 
L 188.237759 179.307456 
L 188.774442 179.075984 
L 189.311124 177.362814 
L 189.847807 173.531578 
L 190.38449 172.762231 
L 190.921172 175.077423 
L 191.994537 177.163011 
L 192.53122 177.319666 
L 193.067903 176.855403 
L 193.604585 177.152313 
L 194.677951 178.944904 
L 195.214633 179.242085 
L 196.287998 176.527052 
L 196.824681 177.84719 
L 197.361364 177.918326 
L 197.898046 177.550631 
L 198.434729 176.197051 
L 198.971411 175.675736 
L 199.508094 176.238929 
L 200.044777 177.577004 
L 200.581459 179.231323 
L 201.118142 179.974038 
L 201.654825 180.085631 
L 202.191507 179.829482 
L 202.72819 178.810974 
L 203.264872 178.519332 
L 203.801555 177.825526 
L 204.338238 178.341888 
L 204.87492 178.180463 
L 205.411603 178.474831 
L 205.948285 178.53546 
L 206.484968 178.111194 
L 207.558333 176.459026 
L 208.095016 176.307525 
L 208.631699 177.047923 
L 209.168381 177.204156 
L 210.241746 176.603261 
L 210.778429 175.866525 
L 211.851794 178.264858 
L 212.388477 178.033641 
L 212.925159 177.399728 
L 213.461842 176.547171 
L 213.998525 176.514878 
L 214.535207 177.337177 
L 215.07189 177.704285 
L 215.608573 178.27977 
L 216.145255 178.327316 
L 216.681938 179.053654 
L 217.21862 179.50581 
L 217.755303 179.337377 
L 218.291986 178.726493 
L 218.828668 177.499833 
L 219.365351 177.558549 
L 219.902033 177.920541 
L 220.438716 178.03031 
L 220.975399 177.753853 
L 221.512081 177.802162 
L 222.048764 178.329212 
L 222.585447 179.137267 
L 223.122129 179.372018 
L 223.658812 179.013812 
L 224.195494 177.939525 
L 224.732177 176.316948 
L 225.26886 175.770387 
L 226.878907 179.858138 
L 227.41559 180.242876 
L 228.488955 180.000076 
L 229.025638 179.574412 
L 229.562321 179.314743 
L 230.635686 179.545085 
L 231.172368 178.890905 
L 231.709051 178.449496 
L 232.245734 178.782064 
L 232.782416 179.367959 
L 233.319099 179.213984 
L 233.855781 178.90122 
L 234.392464 178.731691 
L 234.929147 178.960943 
L 235.465829 179.746725 
L 236.002512 180.098628 
L 236.539195 180.238493 
L 237.075877 179.936991 
L 237.61256 179.143573 
L 238.149242 177.367458 
L 238.685925 176.915036 
L 239.222608 176.296797 
L 239.75929 175.012165 
L 240.295973 174.617667 
L 240.832656 175.447343 
L 241.369338 175.525315 
L 241.906021 177.381588 
L 242.442703 178.538259 
L 242.979386 178.927392 
L 243.516069 178.852055 
L 244.052751 178.193198 
L 244.589434 177.301732 
L 245.126116 176.84892 
L 246.736164 179.203215 
L 247.272847 179.345259 
L 247.80953 179.294273 
L 248.346212 179.001364 
L 249.419577 178.847539 
L 249.95626 177.970463 
L 250.492943 177.481354 
L 251.029625 177.852345 
L 251.566308 178.751121 
L 252.10299 179.106252 
L 252.639673 178.754383 
L 253.713038 176.97063 
L 254.249721 176.58602 
L 255.323086 176.373884 
L 256.396451 177.876316 
L 256.933134 178.193545 
L 257.469817 177.968002 
L 258.006499 177.550002 
L 258.543182 177.654734 
L 258.543182 177.654734 
" clip-path="url(#pd60acc674e)" style="fill: none; stroke: #000000; stroke-opacity: 0.5; stroke-width: 0.5; stroke-linecap: square"/>
   </g>
   <g id="line2d_13">
    <path d="M 44.406818 180.687273 
L 91.634888 180.687273 
L 92.171571 180.0481 
L 92.708254 180.687273 
L 93.244936 179.769968 
L 93.781619 180.687273 
L 94.318301 180.101619 
L 94.854984 180.687273 
L 95.391667 180.687273 
L 96.465032 179.610099 
L 97.001715 178.576447 
L 97.538397 178.877238 
L 98.07508 172.32322 
L 98.611762 169.008407 
L 99.148445 156.321099 
L 99.685128 158.940421 
L 100.22181 156.541568 
L 100.758493 168.037215 
L 101.295175 170.756388 
L 101.831858 177.807481 
L 102.368541 177.642857 
L 102.905223 179.192741 
L 103.441906 179.638982 
L 103.978589 180.275445 
L 104.515271 180.080464 
L 105.051954 179.494945 
L 105.588636 180.296743 
L 106.125319 180.495374 
L 106.662002 178.046616 
L 107.735367 175.0358 
L 108.272049 167.600774 
L 108.808732 166.582959 
L 109.345415 170.109043 
L 109.882097 176.251833 
L 110.41878 178.001794 
L 110.955463 179.366015 
L 111.492145 180.362201 
L 112.028828 180.36732 
L 113.102193 180.067132 
L 113.638876 180.381973 
L 114.175558 180.536953 
L 114.712241 180.095106 
L 115.248923 180.249825 
L 115.785606 176.95265 
L 116.322289 169.507845 
L 116.858971 163.816163 
L 117.395654 152.658669 
L 117.932337 151.03377 
L 118.469019 158.266742 
L 119.005702 168.847855 
L 119.542384 176.537407 
L 120.079067 178.641564 
L 120.61575 179.678723 
L 121.152432 180.438637 
L 121.689115 180.442067 
L 122.225797 180.203579 
L 122.76248 180.567995 
L 123.299163 180.45194 
L 123.835845 180.687273 
L 124.372528 180.572733 
L 124.909211 180.687273 
L 125.445893 180.575738 
L 126.519258 180.687273 
L 127.055941 180.580027 
L 128.129306 180.687273 
L 132.95945 180.593809 
L 133.496132 180.502585 
L 134.032815 180.596028 
L 135.10618 179.796233 
L 135.642863 179.366344 
L 136.179545 174.594614 
L 137.252911 154.749101 
L 137.789593 164.713806 
L 138.326276 168.71863 
L 138.862959 170.661732 
L 139.399641 159.15519 
L 139.936324 154.976694 
L 140.473006 167.577582 
L 141.009689 176.365661 
L 141.546372 180.221006 
L 142.083054 180.533549 
L 142.619737 180.30714 
L 143.156419 180.536863 
L 143.693102 180.240897 
L 144.229785 180.172071 
L 144.766467 180.541638 
L 145.30315 180.327039 
L 145.839833 179.332794 
L 146.913198 163.933556 
L 147.44988 176.749497 
L 147.986563 180.413786 
L 148.523246 180.687273 
L 149.059928 180.553313 
L 149.596611 180.687273 
L 150.133293 180.621643 
L 151.206659 180.687273 
L 151.743341 180.623592 
L 152.816707 180.687273 
L 154.426754 180.626653 
L 154.963437 180.567204 
L 155.50012 180.687273 
L 156.036802 180.569497 
L 157.64685 180.687273 
L 163.013676 180.635094 
L 163.550359 180.428721 
L 164.087041 180.636024 
L 165.160407 180.234181 
L 165.697089 179.988671 
L 166.233772 179.005548 
L 167.307137 174.320156 
L 167.84382 171.77337 
L 168.380502 171.993532 
L 168.917185 175.288478 
L 169.453868 176.93103 
L 169.99055 175.566376 
L 170.527233 173.255682 
L 171.063915 169.794112 
L 171.600598 169.477204 
L 172.137281 169.886044 
L 173.210646 160.681921 
L 173.747329 165.412223 
L 174.284011 171.893708 
L 174.820694 176.715114 
L 175.357376 178.717406 
L 176.430742 179.676126 
L 176.967424 177.929038 
L 177.504107 177.702456 
L 178.040789 177.109473 
L 179.114155 177.651821 
L 179.650837 179.442534 
L 180.18752 180.328743 
L 180.724203 180.5687 
L 181.797568 180.375991 
L 182.33425 180.49423 
L 183.944298 180.347754 
L 185.017663 179.312664 
L 185.554346 177.811402 
L 186.091029 174.759361 
L 186.627711 173.714422 
L 188.237759 179.124833 
L 188.774442 179.91184 
L 189.311124 180.442365 
L 189.847807 180.409437 
L 190.38449 180.239097 
L 190.921172 180.310815 
L 191.457855 179.735983 
L 191.994537 178.96713 
L 192.53122 177.238345 
L 193.067903 174.769856 
L 193.604585 174.845293 
L 194.677951 177.92166 
L 195.751316 179.468326 
L 196.287998 178.585061 
L 197.361364 174.24883 
L 197.898046 173.763493 
L 198.434729 173.687733 
L 198.971411 173.920694 
L 200.581459 179.36167 
L 201.118142 179.90931 
L 201.654825 179.468827 
L 202.191507 178.325938 
L 202.72819 175.468818 
L 203.801555 173.803259 
L 204.338238 176.43509 
L 205.411603 178.816186 
L 206.484968 176.518843 
L 207.021651 176.212745 
L 207.558333 177.318875 
L 208.095016 178.822074 
L 208.631699 179.678999 
L 209.168381 179.306513 
L 209.705064 177.916734 
L 210.241746 177.373376 
L 210.778429 176.51843 
L 211.315112 177.283877 
L 211.851794 178.904701 
L 212.388477 180.088185 
L 212.925159 180.480217 
L 213.461842 180.481527 
L 213.998525 180.610605 
L 216.681938 180.53867 
L 217.21862 180.687273 
L 218.291986 180.298292 
L 219.365351 178.309854 
L 219.902033 176.343308 
L 220.975399 175.287681 
L 221.512081 176.163982 
L 223.122129 179.697544 
L 223.658812 179.840737 
L 224.732177 177.092551 
L 225.26886 174.933781 
L 225.805542 175.772066 
L 226.342225 178.221903 
L 226.878907 179.4287 
L 227.41559 180.116546 
L 227.952273 180.381749 
L 229.025638 180.449997 
L 229.562321 180.19402 
L 230.099003 179.578513 
L 230.635686 178.143309 
L 231.172368 175.69177 
L 231.709051 174.378982 
L 232.245734 175.394364 
L 232.782416 178.263033 
L 233.319099 179.554135 
L 233.855781 180.400467 
L 234.392464 180.483566 
L 234.929147 180.32266 
L 236.002512 180.406849 
L 236.539195 179.950283 
L 237.075877 179.16205 
L 237.61256 177.712836 
L 238.149242 175.163043 
L 238.685925 176.615658 
L 239.222608 177.742364 
L 240.295973 175.992323 
L 240.832656 174.207371 
L 241.369338 172.820934 
L 242.442703 178.324735 
L 242.979386 178.878295 
L 243.516069 178.795272 
L 244.589434 175.549039 
L 245.126116 176.069253 
L 246.199482 178.827133 
L 246.736164 179.771102 
L 247.272847 180.240542 
L 247.80953 180.47397 
L 248.346212 180.404363 
L 248.882895 179.842982 
L 249.419577 178.745054 
L 249.95626 177.031941 
L 250.492943 176.098554 
L 251.029625 176.639134 
L 252.10299 179.544999 
L 252.639673 180.297164 
L 253.176356 180.214794 
L 253.713038 179.579269 
L 255.323086 176.62019 
L 255.859769 176.969762 
L 256.396451 177.855942 
L 256.933134 177.902764 
L 257.469817 177.463098 
L 258.006499 175.302984 
L 258.543182 174.0788 
L 258.543182 174.0788 
" clip-path="url(#pd60acc674e)" style="fill: none; stroke: #0000ff; stroke-opacity: 0.5; stroke-linecap: square"/>
   </g>
   <g id="line2d_14">
    <path d="M 44.406818 180.687273 
L 108.808732 180.687273 
L 109.345415 180.070691 
L 109.882097 180.687273 
L 110.41878 180.0905 
L 110.955463 180.100047 
L 112.028828 176.421237 
L 113.102193 146.23503 
L 113.638876 122.612401 
L 114.175558 119.757846 
L 115.785606 172.515791 
L 116.322289 177.668356 
L 117.395654 179.710241 
L 117.932337 180.205836 
L 118.469019 179.97551 
L 119.005702 180.219543 
L 120.079067 179.778069 
L 121.152432 179.803234 
L 121.689115 180.687273 
L 122.225797 180.687273 
L 123.299163 179.432163 
L 124.372528 180.687273 
L 124.909211 180.285416 
L 125.445893 178.506144 
L 125.982576 177.751882 
L 126.519258 173.926981 
L 127.592624 154.148967 
L 129.202671 177.426437 
L 129.739354 179.25613 
L 130.276037 179.627249 
L 130.812719 180.687273 
L 131.349402 180.514924 
L 131.886085 180.687273 
L 132.95945 180.687273 
L 133.496132 180.523105 
L 134.032815 180.52506 
L 134.569498 180.687273 
L 137.252911 180.687273 
L 137.789593 180.537813 
L 138.326276 180.687273 
L 140.473006 180.687273 
L 141.009689 180.547584 
L 141.546372 180.687273 
L 142.619737 180.687273 
L 144.229785 180.294738 
L 144.766467 180.298913 
L 145.30315 179.918773 
L 145.839833 160.789904 
L 146.376515 118.48505 
L 146.913198 156.611566 
L 147.44988 176.388727 
L 147.986563 180.079525 
L 148.523246 180.687273 
L 160.330263 180.590177 
L 161.403628 180.49662 
L 161.940311 180.687273 
L 162.476994 180.593668 
L 163.013676 180.687273 
L 164.087041 180.596164 
L 166.233772 180.599339 
L 166.770455 180.425778 
L 167.307137 180.687273 
L 167.84382 180.002 
L 168.380502 180.26267 
L 168.917185 179.08763 
L 169.453868 175.67895 
L 169.99055 170.42479 
L 170.527233 166.654954 
L 171.063915 166.447849 
L 171.600598 169.956268 
L 172.137281 171.166192 
L 172.673963 171.562927 
L 173.210646 163.92763 
L 173.747329 166.485185 
L 174.284011 172.561206 
L 175.357376 179.01241 
L 175.894059 180.007671 
L 176.430742 180.088075 
L 176.967424 179.870018 
L 177.504107 177.739306 
L 178.577472 174.740058 
L 179.114155 173.564079 
L 179.650837 175.761857 
L 180.18752 178.916755 
L 180.724203 179.914357 
L 181.260885 180.338692 
L 181.797568 180.548925 
L 182.33425 180.48136 
L 182.870933 180.551058 
L 183.407616 180.416939 
L 183.944298 180.486076 
L 184.480981 180.08829 
L 185.017663 180.423084 
L 185.554346 180.228444 
L 186.091029 180.231905 
L 186.627711 180.364456 
L 187.164394 180.046477 
L 187.701077 180.623671 
L 188.237759 180.3085 
L 188.774442 179.622032 
L 189.311124 178.510317 
L 189.847807 174.389657 
L 190.38449 166.22307 
L 190.921172 160.183632 
L 191.457855 160.876292 
L 191.994537 165.457076 
L 192.53122 169.019705 
L 194.141268 174.220685 
L 194.677951 176.869644 
L 195.214633 178.677138 
L 195.751316 179.831872 
L 196.287998 180.234271 
L 197.361364 180.631438 
L 200.581459 180.580153 
L 201.118142 180.474497 
L 201.654825 180.687273 
L 202.191507 180.582325 
L 203.264872 180.687273 
L 203.801555 180.533009 
L 204.87492 180.687273 
L 205.948285 180.537075 
L 206.484968 180.587802 
L 207.021651 179.94615 
L 207.558333 178.674824 
L 208.631699 174.195566 
L 209.168381 172.31247 
L 210.241746 177.88412 
L 211.315112 180.265146 
L 211.851794 180.547463 
L 212.925159 180.549235 
L 213.461842 179.81857 
L 214.535207 176.172567 
L 215.07189 173.464195 
L 215.608573 174.623931 
L 216.145255 176.301009 
L 216.681938 178.529782 
L 217.21862 179.943389 
L 217.755303 180.339371 
L 218.828668 180.644318 
L 219.365351 180.601888 
L 220.438716 180.687273 
L 221.512081 180.562277 
L 222.048764 180.645859 
L 222.585447 180.481445 
L 223.122129 179.95073 
L 223.658812 178.978948 
L 224.195494 176.11842 
L 224.732177 168.790279 
L 225.26886 168.061557 
L 226.878907 178.960109 
L 227.41559 180.062888 
L 227.952273 180.415696 
L 229.025638 180.610578 
L 234.929147 180.507217 
L 237.61256 180.267043 
L 238.149242 179.259419 
L 238.685925 176.600506 
L 239.222608 172.351977 
L 239.75929 165.135603 
L 240.295973 164.505134 
L 240.832656 173.029977 
L 241.369338 177.283792 
L 241.906021 179.715334 
L 242.442703 179.88726 
L 242.979386 180.289422 
L 243.516069 180.192632 
L 244.052751 178.653725 
L 244.589434 175.141244 
L 245.126116 172.931759 
L 245.662799 174.328682 
L 246.199482 177.44457 
L 246.736164 179.218205 
L 247.272847 180.242528 
L 247.80953 180.592471 
L 248.882895 180.499653 
L 249.419577 180.656166 
L 250.492943 180.34865 
L 251.029625 180.411655 
L 251.566308 180.017018 
L 252.10299 178.474709 
L 252.639673 175.380288 
L 253.176356 170.127748 
L 253.713038 167.794142 
L 254.249721 168.186573 
L 254.786404 171.204367 
L 255.323086 172.428192 
L 256.933134 179.181938 
L 258.006499 180.171413 
L 258.543182 180.402118 
L 258.543182 180.402118 
" clip-path="url(#pd60acc674e)" style="fill: none; stroke: #ff0000; stroke-opacity: 0.5; stroke-linecap: square"/>
   </g>
   <g id="patch_3">
    <path d="M 33.7 188.6 
L 33.7 14.52 
" style="fill: none; stroke: #000000; stroke-width: 0.8; stroke-linejoin: miter; stroke-linecap: square"/>
   </g>
   <g id="patch_4">
    <path d="M 269.25 188.6 
L 269.25 14.52 
" style="fill: none; stroke: #000000; stroke-width: 0.8; stroke-linejoin: miter; stroke-linecap: square"/>
   </g>
   <g id="patch_5">
    <path d="M 33.7 188.6 
L 269.25 188.6 
" style="fill: none; stroke: #000000; stroke-width: 0.8; stroke-linejoin: miter; stroke-linecap: square"/>
   </g>
   <g id="patch_6">
    <path d="M 33.7 14.52 
L 269.25 14.52 
" style="fill: none; stroke: #000000; stroke-width: 0.8; stroke-linejoin: miter; stroke-linecap: square"/>
   </g>
   <g id="legend_1">
    <g id="patch_7">
     <path d="M 213.917188 66.554375 
L 262.25 66.554375 
Q 264.25 66.554375 264.25 64.554375 
L 264.25 21.52 
Q 264.25 19.52 262.25 19.52 
L 213.917188 19.52 
Q 211.917188 19.52 211.917188 21.52 
L 211.917188 64.554375 
Q 211.917188 66.554375 213.917188 66.554375 
z
" style="fill: #ffffff; opacity: 0.8; stroke: #cccccc; stroke-linejoin: miter"/>
    </g>
    <g id="line2d_15">
     <path d="M 215.917188 27.618438 
L 225.917188 27.618438 
L 235.917188 27.618438 
" style="fill: none; stroke: #000000; stroke-opacity: 0.5; stroke-width: 0.5; stroke-linecap: square"/>
    </g>
    <g id="text_14">
     <!-- all -->
     <g transform="translate(243.917188 31.118438) scale(0.1 -0.1)">
      <defs>
       <path id="DejaVuSans-61" d="M 2194 1759 
Q 1497 1759 1228 1600 
Q 959 1441 959 1056 
Q 959 750 1161 570 
Q 1363 391 1709 391 
Q 2188 391 2477 730 
Q 2766 1069 2766 1631 
L 2766 1759 
L 2194 1759 
z
M 3341 1997 
L 3341 0 
L 2766 0 
L 2766 531 
Q 2569 213 2275 61 
Q 1981 -91 1556 -91 
Q 1019 -91 701 211 
Q 384 513 384 1019 
Q 384 1609 779 1909 
Q 1175 2209 1959 2209 
L 2766 2209 
L 2766 2266 
Q 2766 2663 2505 2880 
Q 2244 3097 1772 3097 
Q 1472 3097 1187 3025 
Q 903 2953 641 2809 
L 641 3341 
Q 956 3463 1253 3523 
Q 1550 3584 1831 3584 
Q 2591 3584 2966 3190 
Q 3341 2797 3341 1997 
z
" transform="scale(0.015625)"/>
       <path id="DejaVuSans-6c" d="M 603 4863 
L 1178 4863 
L 1178 0 
L 603 0 
L 603 4863 
z
" transform="scale(0.015625)"/>
      </defs>
      <use xlink:href="#DejaVuSans-61"/>
      <use xlink:href="#DejaVuSans-6c" transform="translate(61.279297 0)"/>
      <use xlink:href="#DejaVuSans-6c" transform="translate(89.0625 0)"/>
     </g>
    </g>
    <g id="line2d_16">
     <path d="M 215.917188 42.296563 
L 225.917188 42.296563 
L 235.917188 42.296563 
" style="fill: none; stroke: #0000ff; stroke-opacity: 0.5; stroke-linecap: square"/>
    </g>
    <g id="text_15">
     <!-- 1-1 -->
     <g transform="translate(243.917188 45.796563) scale(0.1 -0.1)">
      <defs>
       <path id="DejaVuSans-2d" d="M 313 2009 
L 1997 2009 
L 1997 1497 
L 313 1497 
L 313 2009 
z
" transform="scale(0.015625)"/>
      </defs>
      <use xlink:href="#DejaVuSans-31"/>
      <use xlink:href="#DejaVuSans-2d" transform="translate(63.623047 0)"/>
      <use xlink:href="#DejaVuSans-31" transform="translate(99.707031 0)"/>
     </g>
    </g>
    <g id="line2d_17">
     <path d="M 215.917188 56.974688 
L 225.917188 56.974688 
L 235.917188 56.974688 
" style="fill: none; stroke: #ff0000; stroke-opacity: 0.5; stroke-linecap: square"/>
    </g>
    <g id="text_16">
     <!-- 2-2 -->
     <g transform="translate(243.917188 60.474688) scale(0.1 -0.1)">
      <use xlink:href="#DejaVuSans-32"/>
      <use xlink:href="#DejaVuSans-2d" transform="translate(63.623047 0)"/>
      <use xlink:href="#DejaVuSans-32" transform="translate(99.707031 0)"/>
     </g>
    </g>
   </g>
  </g>
 </g>
 <defs>
  <clipPath id="pd60acc674e">
   <rect x="33.7" y="14.52" width="235.55" height="174.08"/>
  </clipPath>
 </defs>
</svg>
