<?xml version="1.0" encoding="utf-8" standalone="no"?>
<!DOCTYPE svg PUBLIC "-//W3C//DTD SVG 1.1//EN"
  "http://www.w3.org/Graphics/SVG/1.1/DTD/svg11.dtd">
<svg xmlns:xlink="http://www.w3.org/1999/xlink" width="288pt" height="216pt" viewBox="0 0 288 216" xmlns="http://www.w3.org/2000/svg" version="1.1">
 <metadata>
  <rdf:RDF xmlns:dc="http://purl.org/dc/elements/1.1/" xmlns:cc="http://creativecommons.org/ns#" xmlns:rdf="http://www.w3.org/1999/02/22-rdf-syntax-ns#">
   <cc:Work>
    <dc:type rdf:resource="http://purl.org/dc/dcmitype/StillImage"/>
    <dc:date>2025-09-18T00:12:59.918254</dc:date>
    <dc:format>image/svg+xml</dc:format>
    <dc:creator>
     <cc:Agent>
      <dc:title>Matplotlib v3.10.0, https://matplotlib.org/</dc:title>
     </cc:Agent>
    </dc:creator>
   </cc:Work>
  </rdf:RDF>
 </metadata>
 <defs>
  <style type="text/css">*{stroke-linejoin: round; stroke-linecap: butt}</style>
 </defs>
 <g id="figure_1">
  <g id="patch_1">
   <path d="M 0 216 
L 288 216 
L 288 0 
L 0 0 
z
" style="fill: #ffffff"/>
  </g>
  <g id="axes_1">
   <g id="patch_2">
    <path d="M 33.7 188.6 
L 269.25 188.6 
L 269.25 14.52 
L 33.7 14.52 
z
" style="fill: #ffffff"/>
   </g>
   <g id="matplotlib.axis_1">
    <g id="xtick_1">
     <g id="line2d_1">
      <defs>
       <path id="m6083d1b916" d="M 0 0 
L 0 3.5 
" style="stroke: #000000; stroke-width: 0.8"/>
      </defs>
      <g>
       <use xlink:href="#m6083d1b916" x="44.138477" y="188.6" style="stroke: #000000; stroke-width: 0.8"/>
      </g>
     </g>
     <g id="text_1">
      <!-- 0 -->
      <g transform="translate(40.957227 203.198437) scale(0.1 -0.1)">
       <defs>
        <path id="DejaVuSans-30" d="M 2034 4250 
Q 1547 4250 1301 3770 
Q 1056 3291 1056 2328 
Q 1056 1369 1301 889 
Q 1547 409 2034 409 
Q 2525 409 2770 889 
Q 3016 1369 3016 2328 
Q 3016 3291 2770 3770 
Q 2525 4250 2034 4250 
z
M 2034 4750 
Q 2819 4750 3233 4129 
Q 3647 3509 3647 2328 
Q 3647 1150 3233 529 
Q 2819 -91 2034 -91 
Q 1250 -91 836 529 
Q 422 1150 422 2328 
Q 422 3509 836 4129 
Q 1250 4750 2034 4750 
z
" transform="scale(0.015625)"/>
       </defs>
       <use xlink:href="#DejaVuSans-30"/>
      </g>
     </g>
    </g>
    <g id="xtick_2">
     <g id="line2d_2">
      <g>
       <use xlink:href="#m6083d1b916" x="87.073086" y="188.6" style="stroke: #000000; stroke-width: 0.8"/>
      </g>
     </g>
     <g id="text_2">
      <!-- 200 -->
      <g transform="translate(77.529336 203.198437) scale(0.1 -0.1)">
       <defs>
        <path id="DejaVuSans-32" d="M 1228 531 
L 3431 531 
L 3431 0 
L 469 0 
L 469 531 
Q 828 903 1448 1529 
Q 2069 2156 2228 2338 
Q 2531 2678 2651 2914 
Q 2772 3150 2772 3378 
Q 2772 3750 2511 3984 
Q 2250 4219 1831 4219 
Q 1534 4219 1204 4116 
Q 875 4013 500 3803 
L 500 4441 
Q 881 4594 1212 4672 
Q 1544 4750 1819 4750 
Q 2544 4750 2975 4387 
Q 3406 4025 3406 3419 
Q 3406 3131 3298 2873 
Q 3191 2616 2906 2266 
Q 2828 2175 2409 1742 
Q 1991 1309 1228 531 
z
" transform="scale(0.015625)"/>
       </defs>
       <use xlink:href="#DejaVuSans-32"/>
       <use xlink:href="#DejaVuSans-30" transform="translate(63.623047 0)"/>
       <use xlink:href="#DejaVuSans-30" transform="translate(127.246094 0)"/>
      </g>
     </g>
    </g>
    <g id="xtick_3">
     <g id="line2d_3">
      <g>
       <use xlink:href="#m6083d1b916" x="130.007695" y="188.6" style="stroke: #000000; stroke-width: 0.8"/>
      </g>
     </g>
     <g id="text_3">
      <!-- 400 -->
      <g transform="translate(120.463945 203.198437) scale(0.1 -0.1)">
       <defs>
        <path id="DejaVuSans-34" d="M 2419 4116 
L 825 1625 
L 2419 1625 
L 2419 4116 
z
M 2253 4666 
L 3047 4666 
L 3047 1625 
L 3713 1625 
L 3713 1100 
L 3047 1100 
L 3047 0 
L 2419 0 
L 2419 1100 
L 313 1100 
L 313 1709 
L 2253 4666 
z
" transform="scale(0.015625)"/>
       </defs>
       <use xlink:href="#DejaVuSans-34"/>
       <use xlink:href="#DejaVuSans-30" transform="translate(63.623047 0)"/>
       <use xlink:href="#DejaVuSans-30" transform="translate(127.246094 0)"/>
      </g>
     </g>
    </g>
    <g id="xtick_4">
     <g id="line2d_4">
      <g>
       <use xlink:href="#m6083d1b916" x="172.942305" y="188.6" style="stroke: #000000; stroke-width: 0.8"/>
      </g>
     </g>
     <g id="text_4">
      <!-- 600 -->
      <g transform="translate(163.398555 203.198437) scale(0.1 -0.1)">
       <defs>
        <path id="DejaVuSans-36" d="M 2113 2584 
Q 1688 2584 1439 2293 
Q 1191 2003 1191 1497 
Q 1191 994 1439 701 
Q 1688 409 2113 409 
Q 2538 409 2786 701 
Q 3034 994 3034 1497 
Q 3034 2003 2786 2293 
Q 2538 2584 2113 2584 
z
M 3366 4563 
L 3366 3988 
Q 3128 4100 2886 4159 
Q 2644 4219 2406 4219 
Q 1781 4219 1451 3797 
Q 1122 3375 1075 2522 
Q 1259 2794 1537 2939 
Q 1816 3084 2150 3084 
Q 2853 3084 3261 2657 
Q 3669 2231 3669 1497 
Q 3669 778 3244 343 
Q 2819 -91 2113 -91 
Q 1303 -91 875 529 
Q 447 1150 447 2328 
Q 447 3434 972 4092 
Q 1497 4750 2381 4750 
Q 2619 4750 2861 4703 
Q 3103 4656 3366 4563 
z
" transform="scale(0.015625)"/>
       </defs>
       <use xlink:href="#DejaVuSans-36"/>
       <use xlink:href="#DejaVuSans-30" transform="translate(63.623047 0)"/>
       <use xlink:href="#DejaVuSans-30" transform="translate(127.246094 0)"/>
      </g>
     </g>
    </g>
    <g id="xtick_5">
     <g id="line2d_5">
      <g>
       <use xlink:href="#m6083d1b916" x="215.876914" y="188.6" style="stroke: #000000; stroke-width: 0.8"/>
      </g>
     </g>
     <g id="text_5">
      <!-- 800 -->
      <g transform="translate(206.333164 203.198437) scale(0.1 -0.1)">
       <defs>
        <path id="DejaVuSans-38" d="M 2034 2216 
Q 1584 2216 1326 1975 
Q 1069 1734 1069 1313 
Q 1069 891 1326 650 
Q 1584 409 2034 409 
Q 2484 409 2743 651 
Q 3003 894 3003 1313 
Q 3003 1734 2745 1975 
Q 2488 2216 2034 2216 
z
M 1403 2484 
Q 997 2584 770 2862 
Q 544 3141 544 3541 
Q 544 4100 942 4425 
Q 1341 4750 2034 4750 
Q 2731 4750 3128 4425 
Q 3525 4100 3525 3541 
Q 3525 3141 3298 2862 
Q 3072 2584 2669 2484 
Q 3125 2378 3379 2068 
Q 3634 1759 3634 1313 
Q 3634 634 3220 271 
Q 2806 -91 2034 -91 
Q 1263 -91 848 271 
Q 434 634 434 1313 
Q 434 1759 690 2068 
Q 947 2378 1403 2484 
z
M 1172 3481 
Q 1172 3119 1398 2916 
Q 1625 2713 2034 2713 
Q 2441 2713 2670 2916 
Q 2900 3119 2900 3481 
Q 2900 3844 2670 4047 
Q 2441 4250 2034 4250 
Q 1625 4250 1398 4047 
Q 1172 3844 1172 3481 
z
" transform="scale(0.015625)"/>
       </defs>
       <use xlink:href="#DejaVuSans-38"/>
       <use xlink:href="#DejaVuSans-30" transform="translate(63.623047 0)"/>
       <use xlink:href="#DejaVuSans-30" transform="translate(127.246094 0)"/>
      </g>
     </g>
    </g>
    <g id="xtick_6">
     <g id="line2d_6">
      <g>
       <use xlink:href="#m6083d1b916" x="258.811523" y="188.6" style="stroke: #000000; stroke-width: 0.8"/>
      </g>
     </g>
     <g id="text_6">
      <!-- 1000 -->
      <g transform="translate(246.086523 203.198437) scale(0.1 -0.1)">
       <defs>
        <path id="DejaVuSans-31" d="M 794 531 
L 1825 531 
L 1825 4091 
L 703 3866 
L 703 4441 
L 1819 4666 
L 2450 4666 
L 2450 531 
L 3481 531 
L 3481 0 
L 794 0 
L 794 531 
z
" transform="scale(0.015625)"/>
       </defs>
       <use xlink:href="#DejaVuSans-31"/>
       <use xlink:href="#DejaVuSans-30" transform="translate(63.623047 0)"/>
       <use xlink:href="#DejaVuSans-30" transform="translate(127.246094 0)"/>
       <use xlink:href="#DejaVuSans-30" transform="translate(190.869141 0)"/>
      </g>
     </g>
    </g>
    <g id="text_7">
     <!-- q (nm) -->
     <g transform="translate(134.771094 216.876563) scale(0.1 -0.1)">
      <defs>
       <path id="DejaVuSans-71" d="M 947 1747 
Q 947 1113 1208 752 
Q 1469 391 1925 391 
Q 2381 391 2643 752 
Q 2906 1113 2906 1747 
Q 2906 2381 2643 2742 
Q 2381 3103 1925 3103 
Q 1469 3103 1208 2742 
Q 947 2381 947 1747 
z
M 2906 525 
Q 2725 213 2448 61 
Q 2172 -91 1784 -91 
Q 1150 -91 751 415 
Q 353 922 353 1747 
Q 353 2572 751 3078 
Q 1150 3584 1784 3584 
Q 2172 3584 2448 3432 
Q 2725 3281 2906 2969 
L 2906 3500 
L 3481 3500 
L 3481 -1331 
L 2906 -1331 
L 2906 525 
z
" transform="scale(0.015625)"/>
       <path id="DejaVuSans-20" transform="scale(0.015625)"/>
       <path id="DejaVuSans-28" d="M 1984 4856 
Q 1566 4138 1362 3434 
Q 1159 2731 1159 2009 
Q 1159 1288 1364 580 
Q 1569 -128 1984 -844 
L 1484 -844 
Q 1016 -109 783 600 
Q 550 1309 550 2009 
Q 550 2706 781 3412 
Q 1013 4119 1484 4856 
L 1984 4856 
z
" transform="scale(0.015625)"/>
       <path id="DejaVuSans-6e" d="M 3513 2113 
L 3513 0 
L 2938 0 
L 2938 2094 
Q 2938 2591 2744 2837 
Q 2550 3084 2163 3084 
Q 1697 3084 1428 2787 
Q 1159 2491 1159 1978 
L 1159 0 
L 581 0 
L 581 3500 
L 1159 3500 
L 1159 2956 
Q 1366 3272 1645 3428 
Q 1925 3584 2291 3584 
Q 2894 3584 3203 3211 
Q 3513 2838 3513 2113 
z
" transform="scale(0.015625)"/>
       <path id="DejaVuSans-6d" d="M 3328 2828 
Q 3544 3216 3844 3400 
Q 4144 3584 4550 3584 
Q 5097 3584 5394 3201 
Q 5691 2819 5691 2113 
L 5691 0 
L 5113 0 
L 5113 2094 
Q 5113 2597 4934 2840 
Q 4756 3084 4391 3084 
Q 3944 3084 3684 2787 
Q 3425 2491 3425 1978 
L 3425 0 
L 2847 0 
L 2847 2094 
Q 2847 2600 2669 2842 
Q 2491 3084 2119 3084 
Q 1678 3084 1418 2786 
Q 1159 2488 1159 1978 
L 1159 0 
L 581 0 
L 581 3500 
L 1159 3500 
L 1159 2956 
Q 1356 3278 1631 3431 
Q 1906 3584 2284 3584 
Q 2666 3584 2933 3390 
Q 3200 3197 3328 2828 
z
" transform="scale(0.015625)"/>
       <path id="DejaVuSans-29" d="M 513 4856 
L 1013 4856 
Q 1481 4119 1714 3412 
Q 1947 2706 1947 2009 
Q 1947 1309 1714 600 
Q 1481 -109 1013 -844 
L 513 -844 
Q 928 -128 1133 580 
Q 1338 1288 1338 2009 
Q 1338 2731 1133 3434 
Q 928 4138 513 4856 
z
" transform="scale(0.015625)"/>
      </defs>
      <use xlink:href="#DejaVuSans-71"/>
      <use xlink:href="#DejaVuSans-20" transform="translate(63.476562 0)"/>
      <use xlink:href="#DejaVuSans-28" transform="translate(95.263672 0)"/>
      <use xlink:href="#DejaVuSans-6e" transform="translate(134.277344 0)"/>
      <use xlink:href="#DejaVuSans-6d" transform="translate(197.65625 0)"/>
      <use xlink:href="#DejaVuSans-29" transform="translate(295.068359 0)"/>
     </g>
    </g>
   </g>
   <g id="matplotlib.axis_2">
    <g id="ytick_1">
     <g id="line2d_7">
      <defs>
       <path id="m6f58f0dfd7" d="M 0 0 
L -3.5 0 
" style="stroke: #000000; stroke-width: 0.8"/>
      </defs>
      <g>
       <use xlink:href="#m6f58f0dfd7" x="33.7" y="180.687273" style="stroke: #000000; stroke-width: 0.8"/>
      </g>
     </g>
     <g id="text_8">
      <!-- 0 -->
      <g transform="translate(20.3375 184.486491) scale(0.1 -0.1)">
       <use xlink:href="#DejaVuSans-30"/>
      </g>
     </g>
    </g>
    <g id="ytick_2">
     <g id="line2d_8">
      <g>
       <use xlink:href="#m6f58f0dfd7" x="33.7" y="137.490805" style="stroke: #000000; stroke-width: 0.8"/>
      </g>
     </g>
     <g id="text_9">
      <!-- 20000 -->
      <g transform="translate(-5.1125 141.290024) scale(0.1 -0.1)">
       <use xlink:href="#DejaVuSans-32"/>
       <use xlink:href="#DejaVuSans-30" transform="translate(63.623047 0)"/>
       <use xlink:href="#DejaVuSans-30" transform="translate(127.246094 0)"/>
       <use xlink:href="#DejaVuSans-30" transform="translate(190.869141 0)"/>
       <use xlink:href="#DejaVuSans-30" transform="translate(254.492188 0)"/>
      </g>
     </g>
    </g>
    <g id="ytick_3">
     <g id="line2d_9">
      <g>
       <use xlink:href="#m6f58f0dfd7" x="33.7" y="94.294337" style="stroke: #000000; stroke-width: 0.8"/>
      </g>
     </g>
     <g id="text_10">
      <!-- 40000 -->
      <g transform="translate(-5.1125 98.093556) scale(0.1 -0.1)">
       <use xlink:href="#DejaVuSans-34"/>
       <use xlink:href="#DejaVuSans-30" transform="translate(63.623047 0)"/>
       <use xlink:href="#DejaVuSans-30" transform="translate(127.246094 0)"/>
       <use xlink:href="#DejaVuSans-30" transform="translate(190.869141 0)"/>
       <use xlink:href="#DejaVuSans-30" transform="translate(254.492188 0)"/>
      </g>
     </g>
    </g>
    <g id="ytick_4">
     <g id="line2d_10">
      <g>
       <use xlink:href="#m6f58f0dfd7" x="33.7" y="51.09787" style="stroke: #000000; stroke-width: 0.8"/>
      </g>
     </g>
     <g id="text_11">
      <!-- 60000 -->
      <g transform="translate(-5.1125 54.897088) scale(0.1 -0.1)">
       <use xlink:href="#DejaVuSans-36"/>
       <use xlink:href="#DejaVuSans-30" transform="translate(63.623047 0)"/>
       <use xlink:href="#DejaVuSans-30" transform="translate(127.246094 0)"/>
       <use xlink:href="#DejaVuSans-30" transform="translate(190.869141 0)"/>
       <use xlink:href="#DejaVuSans-30" transform="translate(254.492188 0)"/>
      </g>
     </g>
    </g>
    <g id="text_12">
     <!-- rdf -->
     <g transform="translate(-11.192187 108.462344) rotate(-90) scale(0.1 -0.1)">
      <defs>
       <path id="DejaVuSans-72" d="M 2631 2963 
Q 2534 3019 2420 3045 
Q 2306 3072 2169 3072 
Q 1681 3072 1420 2755 
Q 1159 2438 1159 1844 
L 1159 0 
L 581 0 
L 581 3500 
L 1159 3500 
L 1159 2956 
Q 1341 3275 1631 3429 
Q 1922 3584 2338 3584 
Q 2397 3584 2469 3576 
Q 2541 3569 2628 3553 
L 2631 2963 
z
" transform="scale(0.015625)"/>
       <path id="DejaVuSans-64" d="M 2906 2969 
L 2906 4863 
L 3481 4863 
L 3481 0 
L 2906 0 
L 2906 525 
Q 2725 213 2448 61 
Q 2172 -91 1784 -91 
Q 1150 -91 751 415 
Q 353 922 353 1747 
Q 353 2572 751 3078 
Q 1150 3584 1784 3584 
Q 2172 3584 2448 3432 
Q 2725 3281 2906 2969 
z
M 947 1747 
Q 947 1113 1208 752 
Q 1469 391 1925 391 
Q 2381 391 2643 752 
Q 2906 1113 2906 1747 
Q 2906 2381 2643 2742 
Q 2381 3103 1925 3103 
Q 1469 3103 1208 2742 
Q 947 2381 947 1747 
z
" transform="scale(0.015625)"/>
       <path id="DejaVuSans-66" d="M 2375 4863 
L 2375 4384 
L 1825 4384 
Q 1516 4384 1395 4259 
Q 1275 4134 1275 3809 
L 1275 3500 
L 2222 3500 
L 2222 3053 
L 1275 3053 
L 1275 0 
L 697 0 
L 697 3053 
L 147 3053 
L 147 3500 
L 697 3500 
L 697 3744 
Q 697 4328 969 4595 
Q 1241 4863 1831 4863 
L 2375 4863 
z
" transform="scale(0.015625)"/>
      </defs>
      <use xlink:href="#DejaVuSans-72"/>
      <use xlink:href="#DejaVuSans-64" transform="translate(39.363281 0)"/>
      <use xlink:href="#DejaVuSans-66" transform="translate(102.839844 0)"/>
     </g>
    </g>
   </g>
   <g id="line2d_11">
    <path d="M 44.406818 180.687273 
L 92.171571 180.687273 
L 92.708254 180.179702 
L 93.781619 180.687273 
L 94.854984 180.687273 
L 95.928349 22.432727 
L 96.465032 178.938047 
L 97.001715 180.258801 
L 97.538397 179.322589 
L 98.07508 178.01195 
L 99.685128 169.045042 
L 100.22181 172.121923 
L 100.758493 174.337785 
L 101.295175 178.304906 
L 101.831858 178.708753 
L 102.368541 180.069293 
L 103.441906 180.517041 
L 103.978589 180.603677 
L 104.515271 180.194574 
L 105.051954 180.445245 
L 106.125319 180.53146 
L 106.662002 179.232358 
L 107.198684 178.504248 
L 107.735367 177.430762 
L 108.272049 175.592807 
L 108.808732 175.891741 
L 109.882097 178.124766 
L 110.41878 180.074013 
L 110.955463 180.352024 
L 111.492145 179.763475 
L 112.028828 178.868771 
L 112.56551 176.403854 
L 113.102193 170.553856 
L 113.638876 166.929442 
L 114.175558 166.407193 
L 114.712241 171.071064 
L 115.248923 176.721028 
L 115.785606 177.596627 
L 116.322289 176.723201 
L 117.395654 166.352052 
L 117.932337 167.934053 
L 119.005702 178.123798 
L 120.079067 180.064392 
L 121.689115 180.488177 
L 122.76248 180.396728 
L 123.299163 180.543964 
L 123.835845 180.404502 
L 124.909211 180.457851 
L 125.982576 179.704122 
L 126.519258 177.95256 
L 127.055941 175.549657 
L 127.592624 173.76733 
L 128.129306 174.74659 
L 128.665989 173.816265 
L 129.202671 171.544643 
L 129.739354 172.761944 
L 130.812719 177.579231 
L 131.349402 179.34911 
L 131.886085 180.142984 
L 132.95945 180.459609 
L 133.496132 180.499825 
L 134.032815 180.279799 
L 135.10618 180.361706 
L 135.642863 179.50749 
L 136.179545 177.012402 
L 136.716228 171.361811 
L 137.252911 169.29387 
L 137.789593 174.509611 
L 138.326276 176.199468 
L 138.862959 170.445237 
L 139.399641 163.039336 
L 139.936324 164.899999 
L 140.473006 172.558799 
L 141.009689 177.369732 
L 141.546372 179.393771 
L 142.083054 179.969578 
L 142.619737 179.823055 
L 143.156419 178.031054 
L 143.693102 175.55277 
L 144.229785 173.84477 
L 144.766467 173.474122 
L 145.30315 176.47538 
L 145.839833 168.271442 
L 146.376515 157.833933 
L 146.913198 173.743973 
L 147.44988 177.57413 
L 147.986563 174.247602 
L 148.523246 170.110339 
L 149.059928 170.109502 
L 149.596611 172.370192 
L 150.133293 176.157755 
L 150.669976 178.972802 
L 151.206659 179.721103 
L 151.743341 179.627305 
L 152.280024 178.025192 
L 152.816707 175.440918 
L 153.353389 175.969171 
L 153.890072 176.238871 
L 154.426754 178.423141 
L 154.963437 179.785493 
L 155.50012 179.914859 
L 156.036802 179.396293 
L 156.573485 177.656325 
L 157.64685 175.994072 
L 159.256898 180.099979 
L 160.866946 180.533487 
L 163.013676 180.305976 
L 163.550359 179.826555 
L 164.087041 177.961729 
L 164.623724 174.501039 
L 165.160407 172.368899 
L 165.697089 172.361133 
L 166.233772 175.004471 
L 166.770455 176.467395 
L 167.307137 176.839529 
L 167.84382 176.696782 
L 168.380502 177.254789 
L 168.917185 178.51472 
L 169.453868 177.218027 
L 169.99055 174.903986 
L 170.527233 173.247728 
L 171.063915 173.55204 
L 171.600598 174.367443 
L 172.137281 172.465331 
L 172.673963 170.124085 
L 173.210646 170.409388 
L 173.747329 172.97129 
L 174.284011 176.622452 
L 174.820694 178.776693 
L 175.357376 178.218579 
L 176.430742 175.88099 
L 176.967424 176.683225 
L 177.504107 176.782704 
L 178.040789 177.047676 
L 178.577472 177.09324 
L 179.114155 176.908159 
L 179.650837 175.748046 
L 180.18752 177.291003 
L 180.724203 179.211057 
L 181.260885 180.066374 
L 181.797568 180.5609 
L 182.33425 180.326768 
L 182.870933 180.485082 
L 184.480981 180.18573 
L 185.017663 178.982935 
L 185.554346 177.184673 
L 186.091029 174.730226 
L 186.627711 174.494882 
L 187.701077 178.770084 
L 188.237759 179.476313 
L 188.774442 177.41042 
L 189.311124 173.159267 
L 189.847807 171.02923 
L 191.457855 176.218383 
L 191.994537 176.839577 
L 193.067903 175.288785 
L 193.604585 176.305655 
L 194.141268 178.465543 
L 194.677951 179.287111 
L 195.214633 178.142896 
L 195.751316 175.517261 
L 196.824681 177.567085 
L 197.361364 177.066133 
L 197.898046 175.533982 
L 198.434729 174.488469 
L 198.971411 174.581294 
L 199.508094 176.061882 
L 200.044777 178.630621 
L 200.581459 179.659872 
L 201.118142 180.0799 
L 201.654825 179.939252 
L 202.191507 178.973696 
L 202.72819 177.30709 
L 203.264872 177.625391 
L 203.801555 177.21146 
L 204.338238 177.52631 
L 204.87492 178.045594 
L 205.411603 178.178239 
L 205.948285 177.806127 
L 206.484968 176.757547 
L 207.021651 175.993581 
L 207.558333 174.9371 
L 208.095016 175.408966 
L 208.631699 176.273098 
L 209.168381 176.290765 
L 210.241746 174.676545 
L 210.778429 175.782407 
L 211.315112 177.516871 
L 211.851794 177.867046 
L 212.925159 175.391507 
L 213.461842 175.466795 
L 214.535207 177.150997 
L 215.07189 177.173181 
L 215.608573 177.887464 
L 216.145255 178.3602 
L 216.681938 179.138826 
L 217.21862 179.198374 
L 218.291986 177.203236 
L 218.828668 176.989177 
L 219.365351 176.933818 
L 219.902033 177.334601 
L 220.438716 176.74823 
L 220.975399 176.829555 
L 221.512081 177.547407 
L 222.048764 178.672858 
L 222.585447 179.314785 
L 223.122129 178.818408 
L 224.195494 175.765988 
L 224.732177 173.959489 
L 225.26886 175.568636 
L 225.805542 178.283657 
L 226.342225 179.677376 
L 226.878907 180.149431 
L 227.41559 180.152578 
L 227.952273 179.579817 
L 229.025638 179.146025 
L 229.562321 179.259413 
L 230.099003 179.155101 
L 230.635686 178.587272 
L 231.172368 177.726488 
L 231.709051 178.17731 
L 232.245734 179.156047 
L 232.782416 179.156323 
L 233.319099 178.387141 
L 233.855781 177.975978 
L 234.392464 178.470917 
L 234.929147 179.535975 
L 235.465829 180.024895 
L 236.002512 180.052992 
L 236.539195 179.902883 
L 237.61256 177.360516 
L 239.222608 173.828527 
L 239.75929 173.615763 
L 240.295973 173.685511 
L 240.832656 174.040931 
L 241.369338 175.693035 
L 241.906021 178.000875 
L 242.442703 178.829905 
L 242.979386 178.423501 
L 244.052751 176.545271 
L 244.589434 176.105529 
L 245.126116 176.330023 
L 245.662799 178.004286 
L 246.199482 178.920318 
L 246.736164 179.243258 
L 247.272847 178.902674 
L 247.80953 178.298671 
L 248.346212 178.526576 
L 248.882895 178.230817 
L 249.419577 177.348607 
L 249.95626 176.772404 
L 250.492943 177.087994 
L 251.029625 178.085733 
L 251.566308 178.80185 
L 252.10299 178.264774 
L 253.176356 176.563253 
L 253.713038 175.534761 
L 254.249721 175.235587 
L 254.786404 175.074438 
L 255.323086 176.230546 
L 255.859769 177.107887 
L 256.396451 177.411669 
L 257.469817 177.135386 
L 258.006499 176.577276 
L 258.543182 177.138319 
L 258.543182 177.138319 
" clip-path="url(#pf24a136938)" style="fill: none; stroke: #000000; stroke-opacity: 0.5; stroke-width: 0.5; stroke-linecap: square"/>
   </g>
   <g id="line2d_12">
    <path d="M 44.406818 180.687273 
L 92.171571 180.687273 
L 92.708254 179.132836 
L 93.781619 180.687273 
L 95.391667 180.687273 
L 96.465032 180.017647 
L 97.001715 179.375078 
L 97.538397 176.507927 
L 98.07508 172.494097 
L 99.685128 145.032938 
L 100.22181 154.455887 
L 100.758493 161.241963 
L 101.295175 173.391274 
L 101.831858 174.628055 
L 102.368541 178.794711 
L 102.905223 179.625471 
L 103.441906 180.165937 
L 103.978589 180.43126 
L 104.515271 179.178381 
L 105.051954 179.946062 
L 105.588636 179.958954 
L 106.125319 180.210097 
L 106.662002 176.231596 
L 107.198684 174.001757 
L 107.735367 170.714207 
L 108.272049 165.308355 
L 108.808732 166.220156 
L 109.882097 172.839595 
L 110.41878 179.017844 
L 110.955463 179.865913 
L 112.028828 180.687273 
L 112.56551 180.295692 
L 113.102193 180.494518 
L 113.638876 180.117903 
L 114.175558 180.126596 
L 114.712241 179.03073 
L 115.248923 179.055636 
L 115.785606 176.044014 
L 116.322289 170.130775 
L 117.395654 137.981422 
L 117.932337 142.135577 
L 119.005702 173.490851 
L 119.542384 177.140096 
L 120.079067 179.256593 
L 120.61575 179.746825 
L 121.152432 180.069015 
L 121.689115 180.687273 
L 122.225797 180.236241 
L 123.299163 180.540978 
L 123.835845 180.542942 
L 124.372528 180.402459 
L 124.909211 180.406231 
L 125.445893 180.548601 
L 125.982576 180.413555 
L 126.519258 180.687273 
L 127.055941 180.553934 
L 127.592624 180.687273 
L 130.812719 180.687273 
L 131.349402 180.56674 
L 131.886085 180.687273 
L 133.496132 180.228027 
L 134.032815 180.460384 
L 134.569498 180.238865 
L 135.10618 180.354924 
L 135.642863 177.840599 
L 136.179545 170.082266 
L 136.716228 153.090714 
L 137.252911 146.640848 
L 137.789593 163.858689 
L 138.326276 171.283548 
L 138.862959 162.603156 
L 139.399641 146.541811 
L 139.936324 153.216515 
L 140.473006 171.796753 
L 141.009689 179.61266 
L 141.546372 179.527853 
L 142.083054 180.400585 
L 142.619737 180.403701 
L 143.156419 180.219763 
L 143.693102 179.854804 
L 144.229785 180.229736 
L 145.30315 180.239393 
L 145.839833 178.648717 
L 146.376515 155.69143 
L 146.913198 169.577991 
L 147.44988 180.000138 
L 147.986563 180.432253 
L 148.523246 180.687273 
L 149.596611 180.604842 
L 163.013676 180.687273 
L 164.087041 180.368686 
L 165.160407 180.499496 
L 165.697089 179.508496 
L 166.233772 178.042912 
L 166.770455 172.82352 
L 167.84382 169.245176 
L 168.380502 171.422474 
L 168.917185 175.741349 
L 169.453868 175.19986 
L 170.527233 168.692879 
L 171.600598 167.765478 
L 172.137281 162.22216 
L 172.673963 158.880312 
L 173.210646 159.336402 
L 173.747329 164.861042 
L 174.284011 173.001667 
L 174.820694 178.217979 
L 175.357376 178.930284 
L 175.894059 179.842324 
L 176.430742 178.906297 
L 177.504107 174.914569 
L 178.040789 174.807362 
L 179.114155 179.479599 
L 179.650837 179.539065 
L 180.18752 180.34057 
L 180.724203 180.29415 
L 181.260885 180.394734 
L 181.797568 180.638896 
L 182.33425 180.255254 
L 182.870933 180.401484 
L 183.407616 180.072829 
L 183.944298 180.077538 
L 184.480981 179.802923 
L 185.554346 174.682147 
L 186.091029 172.680169 
L 186.627711 172.650064 
L 187.164394 175.17509 
L 187.701077 178.285341 
L 188.237759 179.89258 
L 188.774442 180.380515 
L 189.311124 180.165284 
L 189.847807 180.471377 
L 190.38449 180.04433 
L 190.921172 180.091572 
L 191.457855 179.293331 
L 191.994537 177.626061 
L 192.53122 173.360114 
L 193.067903 172.379505 
L 193.604585 173.423936 
L 194.141268 177.142649 
L 194.677951 178.341011 
L 195.214633 179.000311 
L 195.751316 178.892582 
L 196.824681 173.412452 
L 197.898046 170.838092 
L 198.434729 172.754877 
L 199.508094 175.826271 
L 200.044777 178.801495 
L 200.581459 179.638467 
L 201.118142 179.980442 
L 201.654825 178.950687 
L 202.191507 175.843122 
L 202.72819 170.882211 
L 203.264872 172.649832 
L 203.801555 173.45896 
L 204.87492 178.948602 
L 205.411603 177.902735 
L 205.948285 176.240504 
L 206.484968 175.017705 
L 207.021651 175.953385 
L 207.558333 177.391852 
L 208.095016 179.391359 
L 208.631699 179.399805 
L 209.168381 178.566644 
L 210.241746 174.174747 
L 211.851794 179.709505 
L 212.388477 180.428196 
L 212.925159 180.526377 
L 213.461842 180.463445 
L 213.998525 180.655499 
L 215.07189 180.467642 
L 216.681938 180.594894 
L 217.21862 180.595466 
L 217.755303 180.413552 
L 218.291986 179.538676 
L 218.828668 178.404165 
L 219.365351 175.760863 
L 220.438716 173.579057 
L 220.975399 174.003273 
L 222.048764 178.167481 
L 222.585447 179.650857 
L 223.122129 179.943231 
L 223.658812 178.866735 
L 224.195494 176.728546 
L 224.732177 172.563794 
L 225.26886 174.148693 
L 226.342225 179.334169 
L 226.878907 180.083321 
L 228.488955 180.255672 
L 229.025638 180.17772 
L 229.562321 179.620731 
L 230.099003 177.8507 
L 231.172368 172.091581 
L 231.709051 173.83433 
L 232.245734 177.500567 
L 232.782416 179.399214 
L 233.319099 180.226201 
L 234.392464 180.30737 
L 234.929147 180.435426 
L 236.002512 179.965067 
L 236.539195 179.176615 
L 237.075877 176.008066 
L 237.61256 174.687015 
L 238.685925 176.836094 
L 239.222608 176.881337 
L 239.75929 175.033584 
L 240.295973 172.22924 
L 240.832656 170.735168 
L 241.369338 173.640799 
L 241.906021 177.335493 
L 242.442703 179.195288 
L 242.979386 178.22949 
L 243.516069 176.582234 
L 244.052751 174.516869 
L 245.126116 175.876142 
L 245.662799 178.317085 
L 246.199482 179.542143 
L 246.736164 180.195907 
L 247.272847 180.420671 
L 247.80953 180.201073 
L 248.346212 179.741968 
L 248.882895 178.106744 
L 249.419577 175.923013 
L 249.95626 175.233662 
L 250.492943 175.649512 
L 251.566308 179.153193 
L 252.10299 180.242139 
L 252.639673 180.265514 
L 253.176356 179.806123 
L 254.249721 176.305666 
L 254.786404 175.232973 
L 255.323086 175.938996 
L 255.859769 177.190109 
L 256.396451 177.350209 
L 256.933134 176.597682 
L 258.006499 171.788277 
L 258.543182 172.869806 
L 258.543182 172.869806 
" clip-path="url(#pf24a136938)" style="fill: none; stroke: #0000ff; stroke-opacity: 0.5; stroke-linecap: square"/>
   </g>
   <g id="line2d_13">
    <path d="M 44.406818 180.687273 
L 107.735367 180.687273 
L 108.272049 180.291037 
L 108.808732 180.297586 
L 109.345415 180.687273 
L 109.882097 180.687273 
L 110.41878 180.316289 
L 110.955463 180.322224 
L 111.492145 176.376219 
L 112.028828 170.78654 
L 112.56551 158.062585 
L 113.102193 125.859123 
L 113.638876 106.795741 
L 114.175558 103.936928 
L 115.248923 161.993961 
L 115.785606 172.115105 
L 116.322289 177.872207 
L 116.858971 179.454532 
L 117.395654 178.561471 
L 117.932337 179.789417 
L 118.469019 179.507359 
L 119.005702 179.524215 
L 119.542384 178.394149 
L 120.079067 180.122066 
L 120.61575 179.851319 
L 121.152432 180.687273 
L 121.689115 179.603309 
L 122.225797 180.687273 
L 122.76248 179.896347 
L 123.299163 180.167113 
L 123.835845 179.660918 
L 124.372528 179.927769 
L 124.909211 180.437458 
L 125.982576 176.307785 
L 126.519258 168.199734 
L 127.055941 153.663995 
L 127.592624 146.990162 
L 128.129306 163.129254 
L 129.202671 179.561107 
L 129.739354 179.352767 
L 130.276037 180.247963 
L 130.812719 180.47033 
L 131.349402 180.472992 
L 131.886085 180.687273 
L 134.032815 180.687273 
L 134.569498 180.48798 
L 135.10618 180.687273 
L 136.179545 180.687273 
L 136.716228 180.497116 
L 137.252911 180.687273 
L 142.619737 180.687273 
L 143.156419 180.521047 
L 143.693102 179.865081 
L 144.229785 180.361914 
L 144.766467 180.043476 
L 145.30315 177.820846 
L 145.839833 128.216637 
L 146.376515 108.964322 
L 146.913198 170.195174 
L 147.44988 179.160306 
L 147.986563 180.687273 
L 159.793581 180.687273 
L 160.330263 180.566554 
L 161.403628 180.568754 
L 162.476994 180.338135 
L 163.550359 180.687273 
L 164.087041 180.120896 
L 165.160407 180.687273 
L 166.233772 180.687273 
L 167.307137 179.935264 
L 167.84382 180.154773 
L 168.917185 177.861032 
L 169.99055 164.635188 
L 170.527233 161.710499 
L 171.063915 164.19737 
L 171.600598 169.752964 
L 172.137281 169.148134 
L 172.673963 162.141802 
L 173.210646 162.882655 
L 173.747329 167.395666 
L 174.284011 173.182082 
L 174.820694 177.347166 
L 175.357376 178.794221 
L 175.894059 179.654557 
L 176.967424 178.839831 
L 178.040789 173.233706 
L 178.577472 172.481542 
L 180.18752 179.190398 
L 180.724203 180.25047 
L 181.260885 180.513916 
L 181.797568 180.171251 
L 182.33425 180.260588 
L 182.870933 180.179204 
L 183.944298 180.437125 
L 185.017663 179.866107 
L 185.554346 179.953822 
L 186.091029 180.444633 
L 186.627711 180.446458 
L 187.164394 179.890571 
L 187.701077 180.133741 
L 188.237759 179.745415 
L 188.774442 178.661698 
L 189.311124 174.964726 
L 189.847807 168.098136 
L 190.38449 157.903285 
L 190.921172 151.185927 
L 191.457855 160.637037 
L 191.994537 166.075464 
L 192.53122 169.215459 
L 193.067903 166.358786 
L 193.604585 170.036204 
L 194.141268 175.472195 
L 194.677951 178.529791 
L 195.214633 179.616186 
L 195.751316 180.190963 
L 196.287998 180.476066 
L 196.824681 180.337732 
L 197.361364 180.548434 
L 197.898046 180.549401 
L 198.434729 180.413447 
L 198.971411 180.61929 
L 199.508094 180.552245 
L 200.044777 180.620223 
L 200.581459 180.420909 
L 201.654825 180.687273 
L 203.801555 180.623341 
L 204.338238 180.560264 
L 204.87492 180.624192 
L 205.411603 180.561949 
L 206.484968 180.192587 
L 207.021651 179.765835 
L 207.558333 175.500037 
L 208.095016 172.623811 
L 208.631699 171.351249 
L 209.168381 171.411862 
L 210.241746 179.033298 
L 210.778429 180.217747 
L 211.315112 180.512329 
L 212.388477 180.456982 
L 213.461842 179.095607 
L 214.535207 172.043044 
L 215.07189 171.818376 
L 216.145255 177.492326 
L 216.681938 179.428182 
L 217.21862 180.252039 
L 219.365351 180.634194 
L 219.902033 180.634517 
L 220.438716 180.477533 
L 220.975399 180.530922 
L 222.585447 180.329005 
L 223.122129 179.161033 
L 223.658812 175.832505 
L 224.732177 162.647593 
L 225.26886 166.678692 
L 225.805542 175.156438 
L 226.342225 178.085386 
L 226.878907 179.95521 
L 227.41559 180.44468 
L 230.635686 180.640415 
L 232.782416 180.687273 
L 233.319099 180.459583 
L 234.392464 180.552196 
L 234.929147 180.373864 
L 235.465829 180.509185 
L 236.002512 180.244541 
L 236.539195 180.467141 
L 237.61256 179.598791 
L 238.149242 176.920275 
L 238.685925 170.309815 
L 239.222608 161.759302 
L 239.75929 160.925983 
L 240.295973 169.505199 
L 240.832656 175.758612 
L 241.369338 178.801929 
L 241.906021 179.937224 
L 242.442703 180.148501 
L 242.979386 179.90408 
L 243.516069 179.129306 
L 244.589434 170.344202 
L 245.126116 171.609668 
L 245.662799 176.393347 
L 246.199482 178.970826 
L 246.736164 180.012265 
L 247.272847 180.410797 
L 248.346212 180.570026 
L 248.882895 180.531761 
L 249.419577 180.300524 
L 249.95626 180.379485 
L 250.492943 180.113169 
L 251.029625 179.659245 
L 251.566308 178.111534 
L 252.10299 174.281111 
L 252.639673 169.065485 
L 253.176356 165.395366 
L 253.713038 165.399368 
L 254.786404 169.962321 
L 256.396451 178.770044 
L 256.933134 179.859457 
L 258.006499 180.259693 
L 258.543182 180.474553 
L 258.543182 180.474553 
" clip-path="url(#pf24a136938)" style="fill: none; stroke: #ff0000; stroke-opacity: 0.5; stroke-linecap: square"/>
   </g>
   <g id="patch_3">
    <path d="M 33.7 188.6 
L 33.7 14.52 
" style="fill: none; stroke: #000000; stroke-width: 0.8; stroke-linejoin: miter; stroke-linecap: square"/>
   </g>
   <g id="patch_4">
    <path d="M 269.25 188.6 
L 269.25 14.52 
" style="fill: none; stroke: #000000; stroke-width: 0.8; stroke-linejoin: miter; stroke-linecap: square"/>
   </g>
   <g id="patch_5">
    <path d="M 33.7 188.6 
L 269.25 188.6 
" style="fill: none; stroke: #000000; stroke-width: 0.8; stroke-linejoin: miter; stroke-linecap: square"/>
   </g>
   <g id="patch_6">
    <path d="M 33.7 14.52 
L 269.25 14.52 
" style="fill: none; stroke: #000000; stroke-width: 0.8; stroke-linejoin: miter; stroke-linecap: square"/>
   </g>
   <g id="legend_1">
    <g id="patch_7">
     <path d="M 213.917188 66.554375 
L 262.25 66.554375 
Q 264.25 66.554375 264.25 64.554375 
L 264.25 21.52 
Q 264.25 19.52 262.25 19.52 
L 213.917188 19.52 
Q 211.917188 19.52 211.917188 21.52 
L 211.917188 64.554375 
Q 211.917188 66.554375 213.917188 66.554375 
z
" style="fill: #ffffff; opacity: 0.8; stroke: #cccccc; stroke-linejoin: miter"/>
    </g>
    <g id="line2d_14">
     <path d="M 215.917188 27.618438 
L 225.917188 27.618438 
L 235.917188 27.618438 
" style="fill: none; stroke: #000000; stroke-opacity: 0.5; stroke-width: 0.5; stroke-linecap: square"/>
    </g>
    <g id="text_13">
     <!-- all -->
     <g transform="translate(243.917188 31.118438) scale(0.1 -0.1)">
      <defs>
       <path id="DejaVuSans-61" d="M 2194 1759 
Q 1497 1759 1228 1600 
Q 959 1441 959 1056 
Q 959 750 1161 570 
Q 1363 391 1709 391 
Q 2188 391 2477 730 
Q 2766 1069 2766 1631 
L 2766 1759 
L 2194 1759 
z
M 3341 1997 
L 3341 0 
L 2766 0 
L 2766 531 
Q 2569 213 2275 61 
Q 1981 -91 1556 -91 
Q 1019 -91 701 211 
Q 384 513 384 1019 
Q 384 1609 779 1909 
Q 1175 2209 1959 2209 
L 2766 2209 
L 2766 2266 
Q 2766 2663 2505 2880 
Q 2244 3097 1772 3097 
Q 1472 3097 1187 3025 
Q 903 2953 641 2809 
L 641 3341 
Q 956 3463 1253 3523 
Q 1550 3584 1831 3584 
Q 2591 3584 2966 3190 
Q 3341 2797 3341 1997 
z
" transform="scale(0.015625)"/>
       <path id="DejaVuSans-6c" d="M 603 4863 
L 1178 4863 
L 1178 0 
L 603 0 
L 603 4863 
z
" transform="scale(0.015625)"/>
      </defs>
      <use xlink:href="#DejaVuSans-61"/>
      <use xlink:href="#DejaVuSans-6c" transform="translate(61.279297 0)"/>
      <use xlink:href="#DejaVuSans-6c" transform="translate(89.0625 0)"/>
     </g>
    </g>
    <g id="line2d_15">
     <path d="M 215.917188 42.296563 
L 225.917188 42.296563 
L 235.917188 42.296563 
" style="fill: none; stroke: #0000ff; stroke-opacity: 0.5; stroke-linecap: square"/>
    </g>
    <g id="text_14">
     <!-- 1-1 -->
     <g transform="translate(243.917188 45.796563) scale(0.1 -0.1)">
      <defs>
       <path id="DejaVuSans-2d" d="M 313 2009 
L 1997 2009 
L 1997 1497 
L 313 1497 
L 313 2009 
z
" transform="scale(0.015625)"/>
      </defs>
      <use xlink:href="#DejaVuSans-31"/>
      <use xlink:href="#DejaVuSans-2d" transform="translate(63.623047 0)"/>
      <use xlink:href="#DejaVuSans-31" transform="translate(99.707031 0)"/>
     </g>
    </g>
    <g id="line2d_16">
     <path d="M 215.917188 56.974688 
L 225.917188 56.974688 
L 235.917188 56.974688 
" style="fill: none; stroke: #ff0000; stroke-opacity: 0.5; stroke-linecap: square"/>
    </g>
    <g id="text_15">
     <!-- 2-2 -->
     <g transform="translate(243.917188 60.474688) scale(0.1 -0.1)">
      <use xlink:href="#DejaVuSans-32"/>
      <use xlink:href="#DejaVuSans-2d" transform="translate(63.623047 0)"/>
      <use xlink:href="#DejaVuSans-32" transform="translate(99.707031 0)"/>
     </g>
    </g>
   </g>
  </g>
 </g>
 <defs>
  <clipPath id="pf24a136938">
   <rect x="33.7" y="14.52" width="235.55" height="174.08"/>
  </clipPath>
 </defs>
</svg>
