<?xml version="1.0" encoding="utf-8" standalone="no"?>
<!DOCTYPE svg PUBLIC "-//W3C//DTD SVG 1.1//EN"
  "http://www.w3.org/Graphics/SVG/1.1/DTD/svg11.dtd">
<svg xmlns:xlink="http://www.w3.org/1999/xlink" width="288pt" height="216pt" viewBox="0 0 288 216" xmlns="http://www.w3.org/2000/svg" version="1.1">
 <metadata>
  <rdf:RDF xmlns:dc="http://purl.org/dc/elements/1.1/" xmlns:cc="http://creativecommons.org/ns#" xmlns:rdf="http://www.w3.org/1999/02/22-rdf-syntax-ns#">
   <cc:Work>
    <dc:type rdf:resource="http://purl.org/dc/dcmitype/StillImage"/>
    <dc:date>2025-09-17T23:55:04.398470</dc:date>
    <dc:format>image/svg+xml</dc:format>
    <dc:creator>
     <cc:Agent>
      <dc:title>Matplotlib v3.10.0, https://matplotlib.org/</dc:title>
     </cc:Agent>
    </dc:creator>
   </cc:Work>
  </rdf:RDF>
 </metadata>
 <defs>
  <style type="text/css">*{stroke-linejoin: round; stroke-linecap: butt}</style>
 </defs>
 <g id="figure_1">
  <g id="patch_1">
   <path d="M 0 216 
L 288 216 
L 288 0 
L 0 0 
z
" style="fill: #ffffff"/>
  </g>
  <g id="axes_1">
   <g id="patch_2">
    <path d="M 33.7 188.6 
L 269.25 188.6 
L 269.25 14.52 
L 33.7 14.52 
z
" style="fill: #ffffff"/>
   </g>
   <g id="matplotlib.axis_1">
    <g id="xtick_1">
     <g id="line2d_1">
      <defs>
       <path id="m712b880377" d="M 0 0 
L 0 3.5 
" style="stroke: #000000; stroke-width: 0.8"/>
      </defs>
      <g>
       <use xlink:href="#m712b880377" x="44.138477" y="188.6" style="stroke: #000000; stroke-width: 0.8"/>
      </g>
     </g>
     <g id="text_1">
      <!-- 0 -->
      <g transform="translate(40.957227 203.198437) scale(0.1 -0.1)">
       <defs>
        <path id="DejaVuSans-30" d="M 2034 4250 
Q 1547 4250 1301 3770 
Q 1056 3291 1056 2328 
Q 1056 1369 1301 889 
Q 1547 409 2034 409 
Q 2525 409 2770 889 
Q 3016 1369 3016 2328 
Q 3016 3291 2770 3770 
Q 2525 4250 2034 4250 
z
M 2034 4750 
Q 2819 4750 3233 4129 
Q 3647 3509 3647 2328 
Q 3647 1150 3233 529 
Q 2819 -91 2034 -91 
Q 1250 -91 836 529 
Q 422 1150 422 2328 
Q 422 3509 836 4129 
Q 1250 4750 2034 4750 
z
" transform="scale(0.015625)"/>
       </defs>
       <use xlink:href="#DejaVuSans-30"/>
      </g>
     </g>
    </g>
    <g id="xtick_2">
     <g id="line2d_2">
      <g>
       <use xlink:href="#m712b880377" x="87.073086" y="188.6" style="stroke: #000000; stroke-width: 0.8"/>
      </g>
     </g>
     <g id="text_2">
      <!-- 200 -->
      <g transform="translate(77.529336 203.198437) scale(0.1 -0.1)">
       <defs>
        <path id="DejaVuSans-32" d="M 1228 531 
L 3431 531 
L 3431 0 
L 469 0 
L 469 531 
Q 828 903 1448 1529 
Q 2069 2156 2228 2338 
Q 2531 2678 2651 2914 
Q 2772 3150 2772 3378 
Q 2772 3750 2511 3984 
Q 2250 4219 1831 4219 
Q 1534 4219 1204 4116 
Q 875 4013 500 3803 
L 500 4441 
Q 881 4594 1212 4672 
Q 1544 4750 1819 4750 
Q 2544 4750 2975 4387 
Q 3406 4025 3406 3419 
Q 3406 3131 3298 2873 
Q 3191 2616 2906 2266 
Q 2828 2175 2409 1742 
Q 1991 1309 1228 531 
z
" transform="scale(0.015625)"/>
       </defs>
       <use xlink:href="#DejaVuSans-32"/>
       <use xlink:href="#DejaVuSans-30" transform="translate(63.623047 0)"/>
       <use xlink:href="#DejaVuSans-30" transform="translate(127.246094 0)"/>
      </g>
     </g>
    </g>
    <g id="xtick_3">
     <g id="line2d_3">
      <g>
       <use xlink:href="#m712b880377" x="130.007695" y="188.6" style="stroke: #000000; stroke-width: 0.8"/>
      </g>
     </g>
     <g id="text_3">
      <!-- 400 -->
      <g transform="translate(120.463945 203.198437) scale(0.1 -0.1)">
       <defs>
        <path id="DejaVuSans-34" d="M 2419 4116 
L 825 1625 
L 2419 1625 
L 2419 4116 
z
M 2253 4666 
L 3047 4666 
L 3047 1625 
L 3713 1625 
L 3713 1100 
L 3047 1100 
L 3047 0 
L 2419 0 
L 2419 1100 
L 313 1100 
L 313 1709 
L 2253 4666 
z
" transform="scale(0.015625)"/>
       </defs>
       <use xlink:href="#DejaVuSans-34"/>
       <use xlink:href="#DejaVuSans-30" transform="translate(63.623047 0)"/>
       <use xlink:href="#DejaVuSans-30" transform="translate(127.246094 0)"/>
      </g>
     </g>
    </g>
    <g id="xtick_4">
     <g id="line2d_4">
      <g>
       <use xlink:href="#m712b880377" x="172.942305" y="188.6" style="stroke: #000000; stroke-width: 0.8"/>
      </g>
     </g>
     <g id="text_4">
      <!-- 600 -->
      <g transform="translate(163.398555 203.198437) scale(0.1 -0.1)">
       <defs>
        <path id="DejaVuSans-36" d="M 2113 2584 
Q 1688 2584 1439 2293 
Q 1191 2003 1191 1497 
Q 1191 994 1439 701 
Q 1688 409 2113 409 
Q 2538 409 2786 701 
Q 3034 994 3034 1497 
Q 3034 2003 2786 2293 
Q 2538 2584 2113 2584 
z
M 3366 4563 
L 3366 3988 
Q 3128 4100 2886 4159 
Q 2644 4219 2406 4219 
Q 1781 4219 1451 3797 
Q 1122 3375 1075 2522 
Q 1259 2794 1537 2939 
Q 1816 3084 2150 3084 
Q 2853 3084 3261 2657 
Q 3669 2231 3669 1497 
Q 3669 778 3244 343 
Q 2819 -91 2113 -91 
Q 1303 -91 875 529 
Q 447 1150 447 2328 
Q 447 3434 972 4092 
Q 1497 4750 2381 4750 
Q 2619 4750 2861 4703 
Q 3103 4656 3366 4563 
z
" transform="scale(0.015625)"/>
       </defs>
       <use xlink:href="#DejaVuSans-36"/>
       <use xlink:href="#DejaVuSans-30" transform="translate(63.623047 0)"/>
       <use xlink:href="#DejaVuSans-30" transform="translate(127.246094 0)"/>
      </g>
     </g>
    </g>
    <g id="xtick_5">
     <g id="line2d_5">
      <g>
       <use xlink:href="#m712b880377" x="215.876914" y="188.6" style="stroke: #000000; stroke-width: 0.8"/>
      </g>
     </g>
     <g id="text_5">
      <!-- 800 -->
      <g transform="translate(206.333164 203.198437) scale(0.1 -0.1)">
       <defs>
        <path id="DejaVuSans-38" d="M 2034 2216 
Q 1584 2216 1326 1975 
Q 1069 1734 1069 1313 
Q 1069 891 1326 650 
Q 1584 409 2034 409 
Q 2484 409 2743 651 
Q 3003 894 3003 1313 
Q 3003 1734 2745 1975 
Q 2488 2216 2034 2216 
z
M 1403 2484 
Q 997 2584 770 2862 
Q 544 3141 544 3541 
Q 544 4100 942 4425 
Q 1341 4750 2034 4750 
Q 2731 4750 3128 4425 
Q 3525 4100 3525 3541 
Q 3525 3141 3298 2862 
Q 3072 2584 2669 2484 
Q 3125 2378 3379 2068 
Q 3634 1759 3634 1313 
Q 3634 634 3220 271 
Q 2806 -91 2034 -91 
Q 1263 -91 848 271 
Q 434 634 434 1313 
Q 434 1759 690 2068 
Q 947 2378 1403 2484 
z
M 1172 3481 
Q 1172 3119 1398 2916 
Q 1625 2713 2034 2713 
Q 2441 2713 2670 2916 
Q 2900 3119 2900 3481 
Q 2900 3844 2670 4047 
Q 2441 4250 2034 4250 
Q 1625 4250 1398 4047 
Q 1172 3844 1172 3481 
z
" transform="scale(0.015625)"/>
       </defs>
       <use xlink:href="#DejaVuSans-38"/>
       <use xlink:href="#DejaVuSans-30" transform="translate(63.623047 0)"/>
       <use xlink:href="#DejaVuSans-30" transform="translate(127.246094 0)"/>
      </g>
     </g>
    </g>
    <g id="xtick_6">
     <g id="line2d_6">
      <g>
       <use xlink:href="#m712b880377" x="258.811523" y="188.6" style="stroke: #000000; stroke-width: 0.8"/>
      </g>
     </g>
     <g id="text_6">
      <!-- 1000 -->
      <g transform="translate(246.086523 203.198437) scale(0.1 -0.1)">
       <defs>
        <path id="DejaVuSans-31" d="M 794 531 
L 1825 531 
L 1825 4091 
L 703 3866 
L 703 4441 
L 1819 4666 
L 2450 4666 
L 2450 531 
L 3481 531 
L 3481 0 
L 794 0 
L 794 531 
z
" transform="scale(0.015625)"/>
       </defs>
       <use xlink:href="#DejaVuSans-31"/>
       <use xlink:href="#DejaVuSans-30" transform="translate(63.623047 0)"/>
       <use xlink:href="#DejaVuSans-30" transform="translate(127.246094 0)"/>
       <use xlink:href="#DejaVuSans-30" transform="translate(190.869141 0)"/>
      </g>
     </g>
    </g>
    <g id="text_7">
     <!-- q (nm) -->
     <g transform="translate(134.771094 216.876563) scale(0.1 -0.1)">
      <defs>
       <path id="DejaVuSans-71" d="M 947 1747 
Q 947 1113 1208 752 
Q 1469 391 1925 391 
Q 2381 391 2643 752 
Q 2906 1113 2906 1747 
Q 2906 2381 2643 2742 
Q 2381 3103 1925 3103 
Q 1469 3103 1208 2742 
Q 947 2381 947 1747 
z
M 2906 525 
Q 2725 213 2448 61 
Q 2172 -91 1784 -91 
Q 1150 -91 751 415 
Q 353 922 353 1747 
Q 353 2572 751 3078 
Q 1150 3584 1784 3584 
Q 2172 3584 2448 3432 
Q 2725 3281 2906 2969 
L 2906 3500 
L 3481 3500 
L 3481 -1331 
L 2906 -1331 
L 2906 525 
z
" transform="scale(0.015625)"/>
       <path id="DejaVuSans-20" transform="scale(0.015625)"/>
       <path id="DejaVuSans-28" d="M 1984 4856 
Q 1566 4138 1362 3434 
Q 1159 2731 1159 2009 
Q 1159 1288 1364 580 
Q 1569 -128 1984 -844 
L 1484 -844 
Q 1016 -109 783 600 
Q 550 1309 550 2009 
Q 550 2706 781 3412 
Q 1013 4119 1484 4856 
L 1984 4856 
z
" transform="scale(0.015625)"/>
       <path id="DejaVuSans-6e" d="M 3513 2113 
L 3513 0 
L 2938 0 
L 2938 2094 
Q 2938 2591 2744 2837 
Q 2550 3084 2163 3084 
Q 1697 3084 1428 2787 
Q 1159 2491 1159 1978 
L 1159 0 
L 581 0 
L 581 3500 
L 1159 3500 
L 1159 2956 
Q 1366 3272 1645 3428 
Q 1925 3584 2291 3584 
Q 2894 3584 3203 3211 
Q 3513 2838 3513 2113 
z
" transform="scale(0.015625)"/>
       <path id="DejaVuSans-6d" d="M 3328 2828 
Q 3544 3216 3844 3400 
Q 4144 3584 4550 3584 
Q 5097 3584 5394 3201 
Q 5691 2819 5691 2113 
L 5691 0 
L 5113 0 
L 5113 2094 
Q 5113 2597 4934 2840 
Q 4756 3084 4391 3084 
Q 3944 3084 3684 2787 
Q 3425 2491 3425 1978 
L 3425 0 
L 2847 0 
L 2847 2094 
Q 2847 2600 2669 2842 
Q 2491 3084 2119 3084 
Q 1678 3084 1418 2786 
Q 1159 2488 1159 1978 
L 1159 0 
L 581 0 
L 581 3500 
L 1159 3500 
L 1159 2956 
Q 1356 3278 1631 3431 
Q 1906 3584 2284 3584 
Q 2666 3584 2933 3390 
Q 3200 3197 3328 2828 
z
" transform="scale(0.015625)"/>
       <path id="DejaVuSans-29" d="M 513 4856 
L 1013 4856 
Q 1481 4119 1714 3412 
Q 1947 2706 1947 2009 
Q 1947 1309 1714 600 
Q 1481 -109 1013 -844 
L 513 -844 
Q 928 -128 1133 580 
Q 1338 1288 1338 2009 
Q 1338 2731 1133 3434 
Q 928 4138 513 4856 
z
" transform="scale(0.015625)"/>
      </defs>
      <use xlink:href="#DejaVuSans-71"/>
      <use xlink:href="#DejaVuSans-20" transform="translate(63.476562 0)"/>
      <use xlink:href="#DejaVuSans-28" transform="translate(95.263672 0)"/>
      <use xlink:href="#DejaVuSans-6e" transform="translate(134.277344 0)"/>
      <use xlink:href="#DejaVuSans-6d" transform="translate(197.65625 0)"/>
      <use xlink:href="#DejaVuSans-29" transform="translate(295.068359 0)"/>
     </g>
    </g>
   </g>
   <g id="matplotlib.axis_2">
    <g id="ytick_1">
     <g id="line2d_7">
      <defs>
       <path id="md0bdf30142" d="M 0 0 
L -3.5 0 
" style="stroke: #000000; stroke-width: 0.8"/>
      </defs>
      <g>
       <use xlink:href="#md0bdf30142" x="33.7" y="180.687273" style="stroke: #000000; stroke-width: 0.8"/>
      </g>
     </g>
     <g id="text_8">
      <!-- 0 -->
      <g transform="translate(20.3375 184.486491) scale(0.1 -0.1)">
       <use xlink:href="#DejaVuSans-30"/>
      </g>
     </g>
    </g>
    <g id="ytick_2">
     <g id="line2d_8">
      <g>
       <use xlink:href="#md0bdf30142" x="33.7" y="146.582269" style="stroke: #000000; stroke-width: 0.8"/>
      </g>
     </g>
     <g id="text_9">
      <!-- 20000 -->
      <g transform="translate(-5.1125 150.381488) scale(0.1 -0.1)">
       <use xlink:href="#DejaVuSans-32"/>
       <use xlink:href="#DejaVuSans-30" transform="translate(63.623047 0)"/>
       <use xlink:href="#DejaVuSans-30" transform="translate(127.246094 0)"/>
       <use xlink:href="#DejaVuSans-30" transform="translate(190.869141 0)"/>
       <use xlink:href="#DejaVuSans-30" transform="translate(254.492188 0)"/>
      </g>
     </g>
    </g>
    <g id="ytick_3">
     <g id="line2d_9">
      <g>
       <use xlink:href="#md0bdf30142" x="33.7" y="112.477265" style="stroke: #000000; stroke-width: 0.8"/>
      </g>
     </g>
     <g id="text_10">
      <!-- 40000 -->
      <g transform="translate(-5.1125 116.276484) scale(0.1 -0.1)">
       <use xlink:href="#DejaVuSans-34"/>
       <use xlink:href="#DejaVuSans-30" transform="translate(63.623047 0)"/>
       <use xlink:href="#DejaVuSans-30" transform="translate(127.246094 0)"/>
       <use xlink:href="#DejaVuSans-30" transform="translate(190.869141 0)"/>
       <use xlink:href="#DejaVuSans-30" transform="translate(254.492188 0)"/>
      </g>
     </g>
    </g>
    <g id="ytick_4">
     <g id="line2d_10">
      <g>
       <use xlink:href="#md0bdf30142" x="33.7" y="78.372261" style="stroke: #000000; stroke-width: 0.8"/>
      </g>
     </g>
     <g id="text_11">
      <!-- 60000 -->
      <g transform="translate(-5.1125 82.17148) scale(0.1 -0.1)">
       <use xlink:href="#DejaVuSans-36"/>
       <use xlink:href="#DejaVuSans-30" transform="translate(63.623047 0)"/>
       <use xlink:href="#DejaVuSans-30" transform="translate(127.246094 0)"/>
       <use xlink:href="#DejaVuSans-30" transform="translate(190.869141 0)"/>
       <use xlink:href="#DejaVuSans-30" transform="translate(254.492188 0)"/>
      </g>
     </g>
    </g>
    <g id="ytick_5">
     <g id="line2d_11">
      <g>
       <use xlink:href="#md0bdf30142" x="33.7" y="44.267257" style="stroke: #000000; stroke-width: 0.8"/>
      </g>
     </g>
     <g id="text_12">
      <!-- 80000 -->
      <g transform="translate(-5.1125 48.066476) scale(0.1 -0.1)">
       <use xlink:href="#DejaVuSans-38"/>
       <use xlink:href="#DejaVuSans-30" transform="translate(63.623047 0)"/>
       <use xlink:href="#DejaVuSans-30" transform="translate(127.246094 0)"/>
       <use xlink:href="#DejaVuSans-30" transform="translate(190.869141 0)"/>
       <use xlink:href="#DejaVuSans-30" transform="translate(254.492188 0)"/>
      </g>
     </g>
    </g>
    <g id="text_13">
     <!-- rdf -->
     <g transform="translate(-11.192187 108.462344) rotate(-90) scale(0.1 -0.1)">
      <defs>
       <path id="DejaVuSans-72" d="M 2631 2963 
Q 2534 3019 2420 3045 
Q 2306 3072 2169 3072 
Q 1681 3072 1420 2755 
Q 1159 2438 1159 1844 
L 1159 0 
L 581 0 
L 581 3500 
L 1159 3500 
L 1159 2956 
Q 1341 3275 1631 3429 
Q 1922 3584 2338 3584 
Q 2397 3584 2469 3576 
Q 2541 3569 2628 3553 
L 2631 2963 
z
" transform="scale(0.015625)"/>
       <path id="DejaVuSans-64" d="M 2906 2969 
L 2906 4863 
L 3481 4863 
L 3481 0 
L 2906 0 
L 2906 525 
Q 2725 213 2448 61 
Q 2172 -91 1784 -91 
Q 1150 -91 751 415 
Q 353 922 353 1747 
Q 353 2572 751 3078 
Q 1150 3584 1784 3584 
Q 2172 3584 2448 3432 
Q 2725 3281 2906 2969 
z
M 947 1747 
Q 947 1113 1208 752 
Q 1469 391 1925 391 
Q 2381 391 2643 752 
Q 2906 1113 2906 1747 
Q 2906 2381 2643 2742 
Q 2381 3103 1925 3103 
Q 1469 3103 1208 2742 
Q 947 2381 947 1747 
z
" transform="scale(0.015625)"/>
       <path id="DejaVuSans-66" d="M 2375 4863 
L 2375 4384 
L 1825 4384 
Q 1516 4384 1395 4259 
Q 1275 4134 1275 3809 
L 1275 3500 
L 2222 3500 
L 2222 3053 
L 1275 3053 
L 1275 0 
L 697 0 
L 697 3053 
L 147 3053 
L 147 3500 
L 697 3500 
L 697 3744 
Q 697 4328 969 4595 
Q 1241 4863 1831 4863 
L 2375 4863 
z
" transform="scale(0.015625)"/>
      </defs>
      <use xlink:href="#DejaVuSans-72"/>
      <use xlink:href="#DejaVuSans-64" transform="translate(39.363281 0)"/>
      <use xlink:href="#DejaVuSans-66" transform="translate(102.839844 0)"/>
     </g>
    </g>
   </g>
   <g id="line2d_12">
    <path d="M 44.406818 180.687273 
L 92.171571 180.584835 
L 93.244936 180.491257 
L 93.781619 180.687273 
L 94.318301 180.593413 
L 94.854984 180.687273 
L 95.391667 157.654978 
L 95.928349 22.432727 
L 96.465032 169.638714 
L 97.001715 179.756969 
L 97.538397 179.692692 
L 98.07508 178.575019 
L 99.685128 172.491148 
L 100.22181 172.046147 
L 101.295175 178.51694 
L 101.831858 179.551196 
L 102.368541 179.711443 
L 102.905223 180.345099 
L 103.978589 180.621271 
L 105.051954 180.55988 
L 105.588636 180.687273 
L 106.125319 180.256707 
L 106.662002 180.082693 
L 107.735367 178.46676 
L 108.272049 177.239634 
L 108.808732 176.335938 
L 109.345415 177.24104 
L 109.882097 178.718772 
L 110.41878 179.826494 
L 110.955463 180.369645 
L 111.492145 180.478882 
L 112.028828 180.379609 
L 112.56551 178.163469 
L 113.102193 174.724048 
L 113.638876 170.069666 
L 114.175558 168.352686 
L 115.785606 178.569394 
L 116.322289 177.421433 
L 116.858971 174.966719 
L 117.395654 171.527083 
L 117.932337 169.576566 
L 119.542384 179.56495 
L 120.079067 180.072542 
L 120.61575 180.283183 
L 121.152432 180.328643 
L 121.689115 180.608677 
L 122.225797 180.454715 
L 123.299163 180.611841 
L 125.982576 180.158026 
L 127.055941 177.62785 
L 127.592624 175.834583 
L 128.129306 175.829399 
L 128.665989 176.519376 
L 129.202671 174.25277 
L 129.739354 173.236568 
L 130.276037 174.475845 
L 130.812719 177.76147 
L 131.349402 179.351082 
L 131.886085 180.25754 
L 133.496132 180.45048 
L 134.569498 180.340465 
L 135.10618 180.230304 
L 135.642863 180.348554 
L 136.179545 178.845981 
L 137.252911 172.264253 
L 137.789593 174.381603 
L 138.326276 177.0108 
L 138.862959 175.445588 
L 139.399641 168.863234 
L 139.936324 166.574504 
L 141.009689 176.430901 
L 141.546372 179.26747 
L 142.083054 179.923536 
L 142.619737 179.834363 
L 143.156419 179.626635 
L 143.693102 177.754189 
L 144.229785 176.535228 
L 144.766467 174.875556 
L 145.30315 175.976254 
L 145.839833 175.408897 
L 146.376515 164.92752 
L 146.913198 169.096845 
L 147.44988 177.675759 
L 147.986563 177.22467 
L 148.523246 174.201823 
L 149.059928 172.314313 
L 149.596611 171.71929 
L 150.669976 178.813016 
L 151.206659 179.800749 
L 151.743341 180.095334 
L 152.280024 179.535326 
L 152.816707 177.745734 
L 153.353389 176.50645 
L 153.890072 176.841559 
L 155.50012 180.268004 
L 156.036802 180.04551 
L 157.110167 178.113222 
L 157.64685 176.633308 
L 158.720215 178.527084 
L 159.256898 179.920406 
L 160.330263 180.494705 
L 163.013676 180.486575 
L 163.550359 180.322628 
L 164.087041 179.652387 
L 164.623724 177.724173 
L 165.160407 175.216942 
L 165.697089 173.393763 
L 166.233772 174.963885 
L 166.770455 177.339828 
L 167.307137 177.711672 
L 167.84382 176.949772 
L 168.380502 177.59444 
L 168.917185 178.486223 
L 169.453868 178.956535 
L 169.99055 177.956571 
L 170.527233 175.508895 
L 171.063915 174.525637 
L 171.600598 175.013842 
L 172.137281 175.854721 
L 173.210646 171.919969 
L 173.747329 172.794382 
L 174.284011 175.161683 
L 174.820694 178.3623 
L 175.357376 179.314658 
L 175.894059 178.536169 
L 176.430742 177.392218 
L 176.967424 177.204457 
L 178.040789 177.879602 
L 179.114155 177.768405 
L 179.650837 177.405365 
L 180.18752 177.482285 
L 180.724203 178.381571 
L 181.260885 179.631415 
L 181.797568 180.238284 
L 183.407616 180.480125 
L 184.480981 180.519279 
L 185.017663 180.044228 
L 185.554346 179.316383 
L 186.627711 175.344193 
L 187.164394 176.216082 
L 187.701077 178.359413 
L 188.237759 179.537686 
L 188.774442 179.568797 
L 189.311124 177.278112 
L 189.847807 174.186257 
L 190.38449 173.261458 
L 190.921172 174.412622 
L 191.457855 175.993719 
L 191.994537 177.227766 
L 192.53122 177.682064 
L 193.067903 177.064335 
L 193.604585 176.857569 
L 194.141268 177.504635 
L 194.677951 178.935203 
L 195.214633 179.558579 
L 195.751316 178.27104 
L 196.287998 176.491189 
L 196.824681 177.879098 
L 197.361364 178.220876 
L 197.898046 177.698236 
L 198.434729 176.339118 
L 198.971411 175.826971 
L 199.508094 175.733227 
L 200.581459 179.412583 
L 201.118142 180.083052 
L 201.654825 180.23957 
L 202.191507 180.025002 
L 203.264872 178.213815 
L 203.801555 177.924464 
L 205.411603 178.397353 
L 205.948285 178.845803 
L 206.484968 178.49928 
L 207.558333 176.598666 
L 208.095016 176.704511 
L 208.631699 176.39855 
L 209.168381 177.29419 
L 209.705064 177.28167 
L 210.778429 175.810413 
L 211.315112 176.856461 
L 211.851794 178.284161 
L 212.388477 178.63343 
L 213.461842 176.606755 
L 213.998525 176.165587 
L 214.535207 177.447572 
L 215.07189 178.098828 
L 215.608573 178.018549 
L 216.145255 178.626303 
L 216.681938 178.575598 
L 217.21862 179.527518 
L 217.755303 179.66797 
L 218.291986 178.848238 
L 218.828668 177.581634 
L 219.365351 177.508274 
L 219.902033 177.83367 
L 220.438716 178.018298 
L 221.512081 177.734979 
L 222.048764 178.350139 
L 222.585447 179.173169 
L 223.122129 179.528983 
L 223.658812 179.220565 
L 224.195494 178.18684 
L 224.732177 176.390003 
L 225.26886 175.565375 
L 226.878907 179.993688 
L 227.41559 180.321402 
L 227.952273 180.183634 
L 228.488955 179.838844 
L 229.025638 179.657086 
L 229.562321 179.333088 
L 230.099003 179.53225 
L 230.635686 179.606843 
L 231.172368 178.822569 
L 231.709051 178.557789 
L 232.245734 178.743598 
L 232.782416 179.471897 
L 233.319099 179.425959 
L 233.855781 178.920905 
L 234.392464 178.604388 
L 234.929147 178.862807 
L 235.465829 179.789832 
L 236.002512 180.192908 
L 236.539195 180.310585 
L 237.075877 180.153948 
L 237.61256 179.020404 
L 238.685925 177.190412 
L 239.75929 175.122616 
L 240.832656 174.871649 
L 241.369338 176.009005 
L 241.906021 176.825969 
L 242.442703 178.409464 
L 242.979386 179.300455 
L 243.516069 179.099815 
L 244.589434 177.440404 
L 245.126116 176.907745 
L 245.662799 177.230478 
L 246.199482 178.591777 
L 246.736164 179.242 
L 247.272847 179.473014 
L 247.80953 179.319869 
L 248.346212 178.947327 
L 249.419577 178.741131 
L 249.95626 178.472303 
L 250.492943 177.690118 
L 251.029625 177.639403 
L 252.10299 179.364818 
L 252.639673 179.050855 
L 253.713038 177.076588 
L 254.249721 176.9933 
L 254.786404 176.490117 
L 255.323086 176.272964 
L 255.859769 176.76456 
L 256.396451 177.922719 
L 256.933134 178.10366 
L 257.469817 178.127024 
L 258.006499 177.876339 
L 258.543182 177.838987 
L 258.543182 177.838987 
" clip-path="url(#p091f251b07)" style="fill: none; stroke: #000000; stroke-opacity: 0.5; stroke-width: 0.5; stroke-linecap: square"/>
   </g>
   <g id="line2d_13">
    <path d="M 44.406818 180.687273 
L 91.098206 180.687273 
L 91.634888 180.366429 
L 92.171571 180.373558 
L 92.708254 180.073634 
L 93.244936 180.086973 
L 93.781619 180.687273 
L 94.318301 180.399826 
L 94.854984 180.687273 
L 95.391667 180.687273 
L 95.928349 180.147568 
L 96.465032 180.158582 
L 97.001715 179.910257 
L 97.538397 177.895195 
L 98.07508 174.218496 
L 99.685128 155.586636 
L 100.22181 154.223823 
L 101.295175 174.040627 
L 101.831858 177.208038 
L 102.368541 177.698795 
L 102.905223 179.639365 
L 103.978589 180.485142 
L 104.515271 180.290167 
L 105.051954 180.297133 
L 105.588636 180.687273 
L 106.125319 179.368664 
L 106.662002 178.835746 
L 107.735367 173.886951 
L 108.272049 170.128879 
L 108.808732 167.361309 
L 109.345415 170.133182 
L 109.882097 174.658737 
L 110.41878 178.051138 
L 110.955463 179.714537 
L 111.492145 180.527723 
L 112.028828 180.530236 
L 112.56551 180.223524 
L 113.102193 180.535086 
L 113.638876 180.237737 
L 114.175558 180.097043 
L 114.712241 180.105987 
L 115.248923 177.967677 
L 115.785606 178.854272 
L 116.322289 174.019517 
L 117.395654 152.903931 
L 117.932337 147.325308 
L 118.469019 157.89268 
L 119.005702 170.74411 
L 119.542384 177.632061 
L 120.079067 179.181182 
L 120.61575 179.573502 
L 121.152432 179.711003 
L 121.689115 180.566922 
L 122.225797 180.44987 
L 123.299163 180.687273 
L 124.372528 180.462403 
L 125.445893 180.577787 
L 128.129306 180.687273 
L 128.665989 180.383364 
L 129.202671 180.687273 
L 130.276037 180.589721 
L 130.812719 180.687273 
L 131.349402 180.401779 
L 131.886085 180.687273 
L 132.422767 180.687273 
L 132.95945 180.50378 
L 133.496132 180.596625 
L 134.569498 180.067715 
L 135.642863 179.909278 
L 136.179545 175.475511 
L 137.252911 155.058731 
L 137.789593 162.283943 
L 138.326276 171.957315 
L 138.862959 170.765277 
L 139.399641 158.434181 
L 139.936324 155.291368 
L 140.473006 167.350504 
L 141.009689 176.907853 
L 141.546372 179.771874 
L 142.083054 180.611823 
L 142.619737 180.239495 
L 143.156419 180.465804 
L 144.229785 180.109289 
L 145.30315 180.61655 
L 145.839833 180.057466 
L 146.913198 163.007951 
L 147.44988 177.296552 
L 147.986563 180.485927 
L 148.523246 180.687273 
L 154.426754 180.687273 
L 155.50012 180.51218 
L 156.036802 180.629467 
L 163.550359 180.636513 
L 164.087041 180.486045 
L 164.623724 180.587553 
L 165.160407 180.242506 
L 165.697089 180.295406 
L 166.233772 179.570538 
L 166.770455 177.847641 
L 167.307137 174.723412 
L 167.84382 170.754707 
L 168.380502 171.731261 
L 169.453868 177.507041 
L 169.99055 176.665829 
L 170.527233 173.029745 
L 171.063915 170.533408 
L 171.600598 170.306894 
L 172.137281 169.510192 
L 173.210646 162.613572 
L 173.747329 164.141746 
L 174.820694 176.660952 
L 175.357376 179.216001 
L 175.894059 179.76999 
L 176.430742 179.653348 
L 176.967424 178.677119 
L 177.504107 177.268971 
L 178.040789 176.610053 
L 178.577472 176.442307 
L 179.650837 179.898971 
L 180.18752 180.257121 
L 180.724203 180.1829 
L 181.260885 180.610283 
L 181.797568 180.343516 
L 182.33425 180.308281 
L 182.870933 180.61206 
L 183.407616 180.351418 
L 184.480981 180.393284 
L 185.554346 178.045207 
L 186.091029 175.263398 
L 186.627711 173.735593 
L 187.164394 174.778397 
L 188.237759 179.188399 
L 188.774442 180.099084 
L 189.847807 180.38045 
L 190.38449 180.281173 
L 190.921172 180.351327 
L 191.457855 180.253718 
L 191.994537 179.36293 
L 192.53122 177.597542 
L 193.067903 174.617518 
L 193.604585 174.628643 
L 194.141268 175.443929 
L 194.677951 177.908599 
L 195.214633 179.165089 
L 195.751316 179.742628 
L 196.287998 178.873819 
L 197.361364 174.644601 
L 198.434729 173.177895 
L 198.971411 174.830017 
L 199.508094 174.930397 
L 200.044777 177.590398 
L 200.581459 179.563469 
L 201.118142 180.246695 
L 201.654825 179.899625 
L 202.191507 178.919838 
L 203.264872 173.855513 
L 203.801555 173.589032 
L 204.338238 175.441505 
L 204.87492 178.193935 
L 205.411603 178.683592 
L 205.948285 178.503347 
L 206.484968 176.760206 
L 207.021651 176.131273 
L 207.558333 176.621896 
L 208.095016 178.829419 
L 208.631699 179.670775 
L 209.168381 179.757103 
L 209.705064 178.627745 
L 210.241746 176.752184 
L 210.778429 176.15192 
L 211.851794 178.757326 
L 212.388477 180.073625 
L 212.925159 180.56024 
L 217.755303 180.615235 
L 218.291986 180.353168 
L 218.828668 179.691106 
L 219.902033 176.938571 
L 220.438716 175.191542 
L 221.512081 176.017032 
L 223.122129 179.760917 
L 223.658812 180.013504 
L 224.195494 179.191478 
L 224.732177 176.603779 
L 225.26886 174.730634 
L 226.342225 177.547722 
L 226.878907 179.646896 
L 227.41559 180.277866 
L 229.025638 180.496705 
L 229.562321 180.266238 
L 230.099003 179.724469 
L 230.635686 178.418964 
L 231.172368 175.680104 
L 231.709051 174.453746 
L 232.245734 175.307518 
L 232.782416 178.104184 
L 233.319099 179.777195 
L 233.855781 180.345408 
L 236.002512 180.392339 
L 236.539195 180.296219 
L 237.075877 179.462293 
L 237.61256 177.052046 
L 238.149242 176.129875 
L 238.685925 176.575729 
L 239.222608 177.739419 
L 239.75929 177.49076 
L 240.295973 176.022156 
L 240.832656 173.858724 
L 241.369338 173.560888 
L 241.906021 175.191032 
L 242.442703 178.036841 
L 242.979386 179.552264 
L 243.516069 179.121367 
L 244.052751 177.246272 
L 244.589434 175.931669 
L 245.126116 176.0466 
L 245.662799 176.748549 
L 246.199482 179.003134 
L 246.736164 179.876106 
L 247.80953 180.390646 
L 248.346212 180.461632 
L 248.882895 179.92756 
L 249.419577 179.12426 
L 250.492943 175.927901 
L 251.029625 176.240046 
L 252.10299 179.666401 
L 252.639673 180.221084 
L 253.176356 180.289732 
L 253.713038 179.813861 
L 254.249721 179.096923 
L 254.786404 177.539073 
L 255.323086 176.419024 
L 255.859769 176.295311 
L 256.396451 178.052553 
L 256.933134 178.449446 
L 257.469817 177.570053 
L 258.543182 174.609602 
L 258.543182 174.609602 
" clip-path="url(#p091f251b07)" style="fill: none; stroke: #0000ff; stroke-opacity: 0.5; stroke-linecap: square"/>
   </g>
   <g id="line2d_14">
    <path d="M 44.406818 180.687273 
L 110.955463 180.687273 
L 111.492145 179.836344 
L 112.028828 179.291389 
L 112.56551 167.771007 
L 113.102193 148.491383 
L 113.638876 123.67948 
L 114.175558 114.58159 
L 114.712241 134.184397 
L 115.248923 158.803281 
L 115.785606 172.415269 
L 116.322289 174.76038 
L 116.858971 178.497373 
L 117.395654 180.207733 
L 117.932337 179.505796 
L 118.469019 179.755693 
L 119.005702 179.769001 
L 119.542384 180.008337 
L 120.079067 180.017899 
L 120.61575 180.467269 
L 121.689115 180.473317 
L 122.225797 180.054198 
L 122.76248 180.687273 
L 123.299163 180.481931 
L 123.835845 180.079518 
L 124.372528 180.287504 
L 124.909211 179.701089 
L 125.445893 179.519426 
L 125.982576 178.190011 
L 127.055941 165.153351 
L 127.592624 156.114639 
L 128.129306 160.98776 
L 128.665989 171.502462 
L 129.202671 177.486353 
L 129.739354 179.984849 
L 130.276037 180.340424 
L 130.812719 180.515989 
L 131.349402 180.348909 
L 131.886085 180.520154 
L 132.422767 180.52218 
L 132.95945 180.687273 
L 133.496132 180.526122 
L 134.032815 180.687273 
L 134.569498 180.529925 
L 135.10618 180.687273 
L 138.862959 180.687273 
L 139.399641 180.545477 
L 139.936324 180.687273 
L 142.619737 180.687273 
L 143.693102 180.427614 
L 144.229785 180.045069 
L 144.766467 180.560198 
L 145.30315 180.058624 
L 145.839833 165.758532 
L 146.376515 117.535203 
L 146.913198 153.642939 
L 147.44988 177.432181 
L 147.986563 180.210008 
L 148.523246 180.56918 
L 149.059928 180.687273 
L 161.940311 180.687273 
L 162.476994 180.503502 
L 164.623724 180.598633 
L 165.697089 180.687273 
L 166.233772 180.600955 
L 166.770455 180.687273 
L 167.84382 180.350932 
L 168.380502 180.353832 
L 168.917185 179.530246 
L 169.453868 177.081987 
L 169.99055 172.969351 
L 170.527233 166.429471 
L 171.063915 165.351645 
L 171.600598 168.490205 
L 172.137281 174.404153 
L 173.210646 165.16243 
L 174.284011 169.291907 
L 174.820694 176.317185 
L 175.357376 179.416841 
L 175.894059 180.168406 
L 176.430742 180.246132 
L 176.967424 180.176757 
L 177.504107 178.299887 
L 178.040789 175.878935 
L 178.577472 174.350973 
L 179.114155 174.401256 
L 179.650837 176.55307 
L 180.724203 179.514715 
L 181.260885 180.276662 
L 181.797568 180.551467 
L 182.33425 180.215639 
L 182.870933 180.419849 
L 184.480981 180.42595 
L 185.017663 180.298271 
L 186.627711 180.433764 
L 187.701077 180.250242 
L 188.774442 180.379723 
L 189.311124 178.79454 
L 189.847807 175.899329 
L 190.38449 169.075842 
L 190.921172 158.947827 
L 191.457855 158.275827 
L 191.994537 165.266041 
L 192.53122 170.578083 
L 193.067903 172.391217 
L 193.604585 170.837951 
L 194.141268 172.852639 
L 194.677951 176.48555 
L 195.214633 179.052335 
L 195.751316 180.015526 
L 196.287998 180.409349 
L 196.824681 180.356104 
L 197.898046 180.578419 
L 198.971411 180.472574 
L 199.508094 180.633968 
L 205.411603 180.637799 
L 205.948285 180.490689 
L 206.484968 180.540809 
L 207.021651 180.29927 
L 208.095016 177.480158 
L 208.631699 173.886847 
L 209.168381 172.513596 
L 209.705064 173.41145 
L 210.241746 178.262092 
L 211.315112 180.364985 
L 211.851794 180.595779 
L 212.925159 180.506605 
L 213.461842 180.283343 
L 213.998525 178.724963 
L 214.535207 176.654379 
L 215.07189 174.125387 
L 215.608573 173.597471 
L 216.145255 176.381603 
L 216.681938 178.353317 
L 217.21862 179.527518 
L 218.291986 180.644847 
L 220.438716 180.563075 
L 222.048764 180.64662 
L 222.585447 180.364 
L 223.122129 180.406103 
L 223.658812 179.449535 
L 224.195494 176.440505 
L 224.732177 170.665946 
L 225.26886 167.587573 
L 225.805542 170.004276 
L 226.342225 175.881048 
L 226.878907 179.184507 
L 227.41559 180.036053 
L 228.488955 180.573685 
L 229.025638 180.499058 
L 231.709051 180.614125 
L 232.782416 180.651114 
L 234.929147 180.651923 
L 235.465829 180.511515 
L 236.002512 180.547452 
L 236.539195 180.37443 
L 237.075877 180.618138 
L 237.61256 180.446643 
L 238.149242 180.071928 
L 238.685925 178.103481 
L 239.222608 172.336078 
L 239.75929 165.118723 
L 240.295973 165.705394 
L 240.832656 170.543191 
L 241.369338 177.313249 
L 241.906021 179.634495 
L 242.442703 179.967402 
L 242.979386 180.459457 
L 243.516069 180.10461 
L 244.052751 179.367217 
L 245.126116 172.723871 
L 245.662799 173.019733 
L 246.199482 177.315056 
L 246.736164 179.057102 
L 247.272847 180.063597 
L 247.80953 180.594213 
L 248.346212 180.656416 
L 249.419577 180.504062 
L 250.492943 180.596618 
L 251.029625 180.476842 
L 251.566308 180.148959 
L 252.10299 179.407929 
L 252.639673 176.809767 
L 253.176356 171.293536 
L 253.713038 167.210732 
L 254.249721 168.328821 
L 256.933134 178.527593 
L 257.469817 180.093517 
L 258.006499 180.377817 
L 258.543182 180.435349 
L 258.543182 180.435349 
" clip-path="url(#p091f251b07)" style="fill: none; stroke: #ff0000; stroke-opacity: 0.5; stroke-linecap: square"/>
   </g>
   <g id="patch_3">
    <path d="M 33.7 188.6 
L 33.7 14.52 
" style="fill: none; stroke: #000000; stroke-width: 0.8; stroke-linejoin: miter; stroke-linecap: square"/>
   </g>
   <g id="patch_4">
    <path d="M 269.25 188.6 
L 269.25 14.52 
" style="fill: none; stroke: #000000; stroke-width: 0.8; stroke-linejoin: miter; stroke-linecap: square"/>
   </g>
   <g id="patch_5">
    <path d="M 33.7 188.6 
L 269.25 188.6 
" style="fill: none; stroke: #000000; stroke-width: 0.8; stroke-linejoin: miter; stroke-linecap: square"/>
   </g>
   <g id="patch_6">
    <path d="M 33.7 14.52 
L 269.25 14.52 
" style="fill: none; stroke: #000000; stroke-width: 0.8; stroke-linejoin: miter; stroke-linecap: square"/>
   </g>
   <g id="legend_1">
    <g id="patch_7">
     <path d="M 213.917188 66.554375 
L 262.25 66.554375 
Q 264.25 66.554375 264.25 64.554375 
L 264.25 21.52 
Q 264.25 19.52 262.25 19.52 
L 213.917188 19.52 
Q 211.917188 19.52 211.917188 21.52 
L 211.917188 64.554375 
Q 211.917188 66.554375 213.917188 66.554375 
z
" style="fill: #ffffff; opacity: 0.8; stroke: #cccccc; stroke-linejoin: miter"/>
    </g>
    <g id="line2d_15">
     <path d="M 215.917188 27.618438 
L 225.917188 27.618438 
L 235.917188 27.618438 
" style="fill: none; stroke: #000000; stroke-opacity: 0.5; stroke-width: 0.5; stroke-linecap: square"/>
    </g>
    <g id="text_14">
     <!-- all -->
     <g transform="translate(243.917188 31.118438) scale(0.1 -0.1)">
      <defs>
       <path id="DejaVuSans-61" d="M 2194 1759 
Q 1497 1759 1228 1600 
Q 959 1441 959 1056 
Q 959 750 1161 570 
Q 1363 391 1709 391 
Q 2188 391 2477 730 
Q 2766 1069 2766 1631 
L 2766 1759 
L 2194 1759 
z
M 3341 1997 
L 3341 0 
L 2766 0 
L 2766 531 
Q 2569 213 2275 61 
Q 1981 -91 1556 -91 
Q 1019 -91 701 211 
Q 384 513 384 1019 
Q 384 1609 779 1909 
Q 1175 2209 1959 2209 
L 2766 2209 
L 2766 2266 
Q 2766 2663 2505 2880 
Q 2244 3097 1772 3097 
Q 1472 3097 1187 3025 
Q 903 2953 641 2809 
L 641 3341 
Q 956 3463 1253 3523 
Q 1550 3584 1831 3584 
Q 2591 3584 2966 3190 
Q 3341 2797 3341 1997 
z
" transform="scale(0.015625)"/>
       <path id="DejaVuSans-6c" d="M 603 4863 
L 1178 4863 
L 1178 0 
L 603 0 
L 603 4863 
z
" transform="scale(0.015625)"/>
      </defs>
      <use xlink:href="#DejaVuSans-61"/>
      <use xlink:href="#DejaVuSans-6c" transform="translate(61.279297 0)"/>
      <use xlink:href="#DejaVuSans-6c" transform="translate(89.0625 0)"/>
     </g>
    </g>
    <g id="line2d_16">
     <path d="M 215.917188 42.296563 
L 225.917188 42.296563 
L 235.917188 42.296563 
" style="fill: none; stroke: #0000ff; stroke-opacity: 0.5; stroke-linecap: square"/>
    </g>
    <g id="text_15">
     <!-- 1-1 -->
     <g transform="translate(243.917188 45.796563) scale(0.1 -0.1)">
      <defs>
       <path id="DejaVuSans-2d" d="M 313 2009 
L 1997 2009 
L 1997 1497 
L 313 1497 
L 313 2009 
z
" transform="scale(0.015625)"/>
      </defs>
      <use xlink:href="#DejaVuSans-31"/>
      <use xlink:href="#DejaVuSans-2d" transform="translate(63.623047 0)"/>
      <use xlink:href="#DejaVuSans-31" transform="translate(99.707031 0)"/>
     </g>
    </g>
    <g id="line2d_17">
     <path d="M 215.917188 56.974688 
L 225.917188 56.974688 
L 235.917188 56.974688 
" style="fill: none; stroke: #ff0000; stroke-opacity: 0.5; stroke-linecap: square"/>
    </g>
    <g id="text_16">
     <!-- 2-2 -->
     <g transform="translate(243.917188 60.474688) scale(0.1 -0.1)">
      <use xlink:href="#DejaVuSans-32"/>
      <use xlink:href="#DejaVuSans-2d" transform="translate(63.623047 0)"/>
      <use xlink:href="#DejaVuSans-32" transform="translate(99.707031 0)"/>
     </g>
    </g>
   </g>
  </g>
 </g>
 <defs>
  <clipPath id="p091f251b07">
   <rect x="33.7" y="14.52" width="235.55" height="174.08"/>
  </clipPath>
 </defs>
</svg>
