<?xml version="1.0" encoding="utf-8" standalone="no"?>
<!DOCTYPE svg PUBLIC "-//W3C//DTD SVG 1.1//EN"
  "http://www.w3.org/Graphics/SVG/1.1/DTD/svg11.dtd">
<svg xmlns:xlink="http://www.w3.org/1999/xlink" width="288pt" height="216pt" viewBox="0 0 288 216" xmlns="http://www.w3.org/2000/svg" version="1.1">
 <metadata>
  <rdf:RDF xmlns:dc="http://purl.org/dc/elements/1.1/" xmlns:cc="http://creativecommons.org/ns#" xmlns:rdf="http://www.w3.org/1999/02/22-rdf-syntax-ns#">
   <cc:Work>
    <dc:type rdf:resource="http://purl.org/dc/dcmitype/StillImage"/>
    <dc:date>2025-09-18T00:31:23.075090</dc:date>
    <dc:format>image/svg+xml</dc:format>
    <dc:creator>
     <cc:Agent>
      <dc:title>Matplotlib v3.10.0, https://matplotlib.org/</dc:title>
     </cc:Agent>
    </dc:creator>
   </cc:Work>
  </rdf:RDF>
 </metadata>
 <defs>
  <style type="text/css">*{stroke-linejoin: round; stroke-linecap: butt}</style>
 </defs>
 <g id="figure_1">
  <g id="patch_1">
   <path d="M 0 216 
L 288 216 
L 288 0 
L 0 0 
z
" style="fill: #ffffff"/>
  </g>
  <g id="axes_1">
   <g id="patch_2">
    <path d="M 33.7 188.6 
L 269.25 188.6 
L 269.25 14.52 
L 33.7 14.52 
z
" style="fill: #ffffff"/>
   </g>
   <g id="matplotlib.axis_1">
    <g id="xtick_1">
     <g id="line2d_1">
      <defs>
       <path id="mfdd14eabda" d="M 0 0 
L 0 3.5 
" style="stroke: #000000; stroke-width: 0.8"/>
      </defs>
      <g>
       <use xlink:href="#mfdd14eabda" x="44.138477" y="188.6" style="stroke: #000000; stroke-width: 0.8"/>
      </g>
     </g>
     <g id="text_1">
      <!-- 0 -->
      <g transform="translate(40.957227 203.198437) scale(0.1 -0.1)">
       <defs>
        <path id="DejaVuSans-30" d="M 2034 4250 
Q 1547 4250 1301 3770 
Q 1056 3291 1056 2328 
Q 1056 1369 1301 889 
Q 1547 409 2034 409 
Q 2525 409 2770 889 
Q 3016 1369 3016 2328 
Q 3016 3291 2770 3770 
Q 2525 4250 2034 4250 
z
M 2034 4750 
Q 2819 4750 3233 4129 
Q 3647 3509 3647 2328 
Q 3647 1150 3233 529 
Q 2819 -91 2034 -91 
Q 1250 -91 836 529 
Q 422 1150 422 2328 
Q 422 3509 836 4129 
Q 1250 4750 2034 4750 
z
" transform="scale(0.015625)"/>
       </defs>
       <use xlink:href="#DejaVuSans-30"/>
      </g>
     </g>
    </g>
    <g id="xtick_2">
     <g id="line2d_2">
      <g>
       <use xlink:href="#mfdd14eabda" x="87.073086" y="188.6" style="stroke: #000000; stroke-width: 0.8"/>
      </g>
     </g>
     <g id="text_2">
      <!-- 200 -->
      <g transform="translate(77.529336 203.198437) scale(0.1 -0.1)">
       <defs>
        <path id="DejaVuSans-32" d="M 1228 531 
L 3431 531 
L 3431 0 
L 469 0 
L 469 531 
Q 828 903 1448 1529 
Q 2069 2156 2228 2338 
Q 2531 2678 2651 2914 
Q 2772 3150 2772 3378 
Q 2772 3750 2511 3984 
Q 2250 4219 1831 4219 
Q 1534 4219 1204 4116 
Q 875 4013 500 3803 
L 500 4441 
Q 881 4594 1212 4672 
Q 1544 4750 1819 4750 
Q 2544 4750 2975 4387 
Q 3406 4025 3406 3419 
Q 3406 3131 3298 2873 
Q 3191 2616 2906 2266 
Q 2828 2175 2409 1742 
Q 1991 1309 1228 531 
z
" transform="scale(0.015625)"/>
       </defs>
       <use xlink:href="#DejaVuSans-32"/>
       <use xlink:href="#DejaVuSans-30" transform="translate(63.623047 0)"/>
       <use xlink:href="#DejaVuSans-30" transform="translate(127.246094 0)"/>
      </g>
     </g>
    </g>
    <g id="xtick_3">
     <g id="line2d_3">
      <g>
       <use xlink:href="#mfdd14eabda" x="130.007695" y="188.6" style="stroke: #000000; stroke-width: 0.8"/>
      </g>
     </g>
     <g id="text_3">
      <!-- 400 -->
      <g transform="translate(120.463945 203.198437) scale(0.1 -0.1)">
       <defs>
        <path id="DejaVuSans-34" d="M 2419 4116 
L 825 1625 
L 2419 1625 
L 2419 4116 
z
M 2253 4666 
L 3047 4666 
L 3047 1625 
L 3713 1625 
L 3713 1100 
L 3047 1100 
L 3047 0 
L 2419 0 
L 2419 1100 
L 313 1100 
L 313 1709 
L 2253 4666 
z
" transform="scale(0.015625)"/>
       </defs>
       <use xlink:href="#DejaVuSans-34"/>
       <use xlink:href="#DejaVuSans-30" transform="translate(63.623047 0)"/>
       <use xlink:href="#DejaVuSans-30" transform="translate(127.246094 0)"/>
      </g>
     </g>
    </g>
    <g id="xtick_4">
     <g id="line2d_4">
      <g>
       <use xlink:href="#mfdd14eabda" x="172.942305" y="188.6" style="stroke: #000000; stroke-width: 0.8"/>
      </g>
     </g>
     <g id="text_4">
      <!-- 600 -->
      <g transform="translate(163.398555 203.198437) scale(0.1 -0.1)">
       <defs>
        <path id="DejaVuSans-36" d="M 2113 2584 
Q 1688 2584 1439 2293 
Q 1191 2003 1191 1497 
Q 1191 994 1439 701 
Q 1688 409 2113 409 
Q 2538 409 2786 701 
Q 3034 994 3034 1497 
Q 3034 2003 2786 2293 
Q 2538 2584 2113 2584 
z
M 3366 4563 
L 3366 3988 
Q 3128 4100 2886 4159 
Q 2644 4219 2406 4219 
Q 1781 4219 1451 3797 
Q 1122 3375 1075 2522 
Q 1259 2794 1537 2939 
Q 1816 3084 2150 3084 
Q 2853 3084 3261 2657 
Q 3669 2231 3669 1497 
Q 3669 778 3244 343 
Q 2819 -91 2113 -91 
Q 1303 -91 875 529 
Q 447 1150 447 2328 
Q 447 3434 972 4092 
Q 1497 4750 2381 4750 
Q 2619 4750 2861 4703 
Q 3103 4656 3366 4563 
z
" transform="scale(0.015625)"/>
       </defs>
       <use xlink:href="#DejaVuSans-36"/>
       <use xlink:href="#DejaVuSans-30" transform="translate(63.623047 0)"/>
       <use xlink:href="#DejaVuSans-30" transform="translate(127.246094 0)"/>
      </g>
     </g>
    </g>
    <g id="xtick_5">
     <g id="line2d_5">
      <g>
       <use xlink:href="#mfdd14eabda" x="215.876914" y="188.6" style="stroke: #000000; stroke-width: 0.8"/>
      </g>
     </g>
     <g id="text_5">
      <!-- 800 -->
      <g transform="translate(206.333164 203.198437) scale(0.1 -0.1)">
       <defs>
        <path id="DejaVuSans-38" d="M 2034 2216 
Q 1584 2216 1326 1975 
Q 1069 1734 1069 1313 
Q 1069 891 1326 650 
Q 1584 409 2034 409 
Q 2484 409 2743 651 
Q 3003 894 3003 1313 
Q 3003 1734 2745 1975 
Q 2488 2216 2034 2216 
z
M 1403 2484 
Q 997 2584 770 2862 
Q 544 3141 544 3541 
Q 544 4100 942 4425 
Q 1341 4750 2034 4750 
Q 2731 4750 3128 4425 
Q 3525 4100 3525 3541 
Q 3525 3141 3298 2862 
Q 3072 2584 2669 2484 
Q 3125 2378 3379 2068 
Q 3634 1759 3634 1313 
Q 3634 634 3220 271 
Q 2806 -91 2034 -91 
Q 1263 -91 848 271 
Q 434 634 434 1313 
Q 434 1759 690 2068 
Q 947 2378 1403 2484 
z
M 1172 3481 
Q 1172 3119 1398 2916 
Q 1625 2713 2034 2713 
Q 2441 2713 2670 2916 
Q 2900 3119 2900 3481 
Q 2900 3844 2670 4047 
Q 2441 4250 2034 4250 
Q 1625 4250 1398 4047 
Q 1172 3844 1172 3481 
z
" transform="scale(0.015625)"/>
       </defs>
       <use xlink:href="#DejaVuSans-38"/>
       <use xlink:href="#DejaVuSans-30" transform="translate(63.623047 0)"/>
       <use xlink:href="#DejaVuSans-30" transform="translate(127.246094 0)"/>
      </g>
     </g>
    </g>
    <g id="xtick_6">
     <g id="line2d_6">
      <g>
       <use xlink:href="#mfdd14eabda" x="258.811523" y="188.6" style="stroke: #000000; stroke-width: 0.8"/>
      </g>
     </g>
     <g id="text_6">
      <!-- 1000 -->
      <g transform="translate(246.086523 203.198437) scale(0.1 -0.1)">
       <defs>
        <path id="DejaVuSans-31" d="M 794 531 
L 1825 531 
L 1825 4091 
L 703 3866 
L 703 4441 
L 1819 4666 
L 2450 4666 
L 2450 531 
L 3481 531 
L 3481 0 
L 794 0 
L 794 531 
z
" transform="scale(0.015625)"/>
       </defs>
       <use xlink:href="#DejaVuSans-31"/>
       <use xlink:href="#DejaVuSans-30" transform="translate(63.623047 0)"/>
       <use xlink:href="#DejaVuSans-30" transform="translate(127.246094 0)"/>
       <use xlink:href="#DejaVuSans-30" transform="translate(190.869141 0)"/>
      </g>
     </g>
    </g>
    <g id="text_7">
     <!-- q (nm) -->
     <g transform="translate(134.771094 216.876563) scale(0.1 -0.1)">
      <defs>
       <path id="DejaVuSans-71" d="M 947 1747 
Q 947 1113 1208 752 
Q 1469 391 1925 391 
Q 2381 391 2643 752 
Q 2906 1113 2906 1747 
Q 2906 2381 2643 2742 
Q 2381 3103 1925 3103 
Q 1469 3103 1208 2742 
Q 947 2381 947 1747 
z
M 2906 525 
Q 2725 213 2448 61 
Q 2172 -91 1784 -91 
Q 1150 -91 751 415 
Q 353 922 353 1747 
Q 353 2572 751 3078 
Q 1150 3584 1784 3584 
Q 2172 3584 2448 3432 
Q 2725 3281 2906 2969 
L 2906 3500 
L 3481 3500 
L 3481 -1331 
L 2906 -1331 
L 2906 525 
z
" transform="scale(0.015625)"/>
       <path id="DejaVuSans-20" transform="scale(0.015625)"/>
       <path id="DejaVuSans-28" d="M 1984 4856 
Q 1566 4138 1362 3434 
Q 1159 2731 1159 2009 
Q 1159 1288 1364 580 
Q 1569 -128 1984 -844 
L 1484 -844 
Q 1016 -109 783 600 
Q 550 1309 550 2009 
Q 550 2706 781 3412 
Q 1013 4119 1484 4856 
L 1984 4856 
z
" transform="scale(0.015625)"/>
       <path id="DejaVuSans-6e" d="M 3513 2113 
L 3513 0 
L 2938 0 
L 2938 2094 
Q 2938 2591 2744 2837 
Q 2550 3084 2163 3084 
Q 1697 3084 1428 2787 
Q 1159 2491 1159 1978 
L 1159 0 
L 581 0 
L 581 3500 
L 1159 3500 
L 1159 2956 
Q 1366 3272 1645 3428 
Q 1925 3584 2291 3584 
Q 2894 3584 3203 3211 
Q 3513 2838 3513 2113 
z
" transform="scale(0.015625)"/>
       <path id="DejaVuSans-6d" d="M 3328 2828 
Q 3544 3216 3844 3400 
Q 4144 3584 4550 3584 
Q 5097 3584 5394 3201 
Q 5691 2819 5691 2113 
L 5691 0 
L 5113 0 
L 5113 2094 
Q 5113 2597 4934 2840 
Q 4756 3084 4391 3084 
Q 3944 3084 3684 2787 
Q 3425 2491 3425 1978 
L 3425 0 
L 2847 0 
L 2847 2094 
Q 2847 2600 2669 2842 
Q 2491 3084 2119 3084 
Q 1678 3084 1418 2786 
Q 1159 2488 1159 1978 
L 1159 0 
L 581 0 
L 581 3500 
L 1159 3500 
L 1159 2956 
Q 1356 3278 1631 3431 
Q 1906 3584 2284 3584 
Q 2666 3584 2933 3390 
Q 3200 3197 3328 2828 
z
" transform="scale(0.015625)"/>
       <path id="DejaVuSans-29" d="M 513 4856 
L 1013 4856 
Q 1481 4119 1714 3412 
Q 1947 2706 1947 2009 
Q 1947 1309 1714 600 
Q 1481 -109 1013 -844 
L 513 -844 
Q 928 -128 1133 580 
Q 1338 1288 1338 2009 
Q 1338 2731 1133 3434 
Q 928 4138 513 4856 
z
" transform="scale(0.015625)"/>
      </defs>
      <use xlink:href="#DejaVuSans-71"/>
      <use xlink:href="#DejaVuSans-20" transform="translate(63.476562 0)"/>
      <use xlink:href="#DejaVuSans-28" transform="translate(95.263672 0)"/>
      <use xlink:href="#DejaVuSans-6e" transform="translate(134.277344 0)"/>
      <use xlink:href="#DejaVuSans-6d" transform="translate(197.65625 0)"/>
      <use xlink:href="#DejaVuSans-29" transform="translate(295.068359 0)"/>
     </g>
    </g>
   </g>
   <g id="matplotlib.axis_2">
    <g id="ytick_1">
     <g id="line2d_7">
      <defs>
       <path id="m620db5e131" d="M 0 0 
L -3.5 0 
" style="stroke: #000000; stroke-width: 0.8"/>
      </defs>
      <g>
       <use xlink:href="#m620db5e131" x="33.7" y="180.687273" style="stroke: #000000; stroke-width: 0.8"/>
      </g>
     </g>
     <g id="text_8">
      <!-- 0 -->
      <g transform="translate(20.3375 184.486491) scale(0.1 -0.1)">
       <use xlink:href="#DejaVuSans-30"/>
      </g>
     </g>
    </g>
    <g id="ytick_2">
     <g id="line2d_8">
      <g>
       <use xlink:href="#m620db5e131" x="33.7" y="158.266854" style="stroke: #000000; stroke-width: 0.8"/>
      </g>
     </g>
     <g id="text_9">
      <!-- 10000 -->
      <g transform="translate(-5.1125 162.066072) scale(0.1 -0.1)">
       <use xlink:href="#DejaVuSans-31"/>
       <use xlink:href="#DejaVuSans-30" transform="translate(63.623047 0)"/>
       <use xlink:href="#DejaVuSans-30" transform="translate(127.246094 0)"/>
       <use xlink:href="#DejaVuSans-30" transform="translate(190.869141 0)"/>
       <use xlink:href="#DejaVuSans-30" transform="translate(254.492188 0)"/>
      </g>
     </g>
    </g>
    <g id="ytick_3">
     <g id="line2d_9">
      <g>
       <use xlink:href="#m620db5e131" x="33.7" y="135.846435" style="stroke: #000000; stroke-width: 0.8"/>
      </g>
     </g>
     <g id="text_10">
      <!-- 20000 -->
      <g transform="translate(-5.1125 139.645653) scale(0.1 -0.1)">
       <use xlink:href="#DejaVuSans-32"/>
       <use xlink:href="#DejaVuSans-30" transform="translate(63.623047 0)"/>
       <use xlink:href="#DejaVuSans-30" transform="translate(127.246094 0)"/>
       <use xlink:href="#DejaVuSans-30" transform="translate(190.869141 0)"/>
       <use xlink:href="#DejaVuSans-30" transform="translate(254.492188 0)"/>
      </g>
     </g>
    </g>
    <g id="ytick_4">
     <g id="line2d_10">
      <g>
       <use xlink:href="#m620db5e131" x="33.7" y="113.426016" style="stroke: #000000; stroke-width: 0.8"/>
      </g>
     </g>
     <g id="text_11">
      <!-- 30000 -->
      <g transform="translate(-5.1125 117.225234) scale(0.1 -0.1)">
       <defs>
        <path id="DejaVuSans-33" d="M 2597 2516 
Q 3050 2419 3304 2112 
Q 3559 1806 3559 1356 
Q 3559 666 3084 287 
Q 2609 -91 1734 -91 
Q 1441 -91 1130 -33 
Q 819 25 488 141 
L 488 750 
Q 750 597 1062 519 
Q 1375 441 1716 441 
Q 2309 441 2620 675 
Q 2931 909 2931 1356 
Q 2931 1769 2642 2001 
Q 2353 2234 1838 2234 
L 1294 2234 
L 1294 2753 
L 1863 2753 
Q 2328 2753 2575 2939 
Q 2822 3125 2822 3475 
Q 2822 3834 2567 4026 
Q 2313 4219 1838 4219 
Q 1578 4219 1281 4162 
Q 984 4106 628 3988 
L 628 4550 
Q 988 4650 1302 4700 
Q 1616 4750 1894 4750 
Q 2613 4750 3031 4423 
Q 3450 4097 3450 3541 
Q 3450 3153 3228 2886 
Q 3006 2619 2597 2516 
z
" transform="scale(0.015625)"/>
       </defs>
       <use xlink:href="#DejaVuSans-33"/>
       <use xlink:href="#DejaVuSans-30" transform="translate(63.623047 0)"/>
       <use xlink:href="#DejaVuSans-30" transform="translate(127.246094 0)"/>
       <use xlink:href="#DejaVuSans-30" transform="translate(190.869141 0)"/>
       <use xlink:href="#DejaVuSans-30" transform="translate(254.492188 0)"/>
      </g>
     </g>
    </g>
    <g id="ytick_5">
     <g id="line2d_11">
      <g>
       <use xlink:href="#m620db5e131" x="33.7" y="91.005596" style="stroke: #000000; stroke-width: 0.8"/>
      </g>
     </g>
     <g id="text_12">
      <!-- 40000 -->
      <g transform="translate(-5.1125 94.804815) scale(0.1 -0.1)">
       <use xlink:href="#DejaVuSans-34"/>
       <use xlink:href="#DejaVuSans-30" transform="translate(63.623047 0)"/>
       <use xlink:href="#DejaVuSans-30" transform="translate(127.246094 0)"/>
       <use xlink:href="#DejaVuSans-30" transform="translate(190.869141 0)"/>
       <use xlink:href="#DejaVuSans-30" transform="translate(254.492188 0)"/>
      </g>
     </g>
    </g>
    <g id="ytick_6">
     <g id="line2d_12">
      <g>
       <use xlink:href="#m620db5e131" x="33.7" y="68.585177" style="stroke: #000000; stroke-width: 0.8"/>
      </g>
     </g>
     <g id="text_13">
      <!-- 50000 -->
      <g transform="translate(-5.1125 72.384396) scale(0.1 -0.1)">
       <defs>
        <path id="DejaVuSans-35" d="M 691 4666 
L 3169 4666 
L 3169 4134 
L 1269 4134 
L 1269 2991 
Q 1406 3038 1543 3061 
Q 1681 3084 1819 3084 
Q 2600 3084 3056 2656 
Q 3513 2228 3513 1497 
Q 3513 744 3044 326 
Q 2575 -91 1722 -91 
Q 1428 -91 1123 -41 
Q 819 9 494 109 
L 494 744 
Q 775 591 1075 516 
Q 1375 441 1709 441 
Q 2250 441 2565 725 
Q 2881 1009 2881 1497 
Q 2881 1984 2565 2268 
Q 2250 2553 1709 2553 
Q 1456 2553 1204 2497 
Q 953 2441 691 2322 
L 691 4666 
z
" transform="scale(0.015625)"/>
       </defs>
       <use xlink:href="#DejaVuSans-35"/>
       <use xlink:href="#DejaVuSans-30" transform="translate(63.623047 0)"/>
       <use xlink:href="#DejaVuSans-30" transform="translate(127.246094 0)"/>
       <use xlink:href="#DejaVuSans-30" transform="translate(190.869141 0)"/>
       <use xlink:href="#DejaVuSans-30" transform="translate(254.492188 0)"/>
      </g>
     </g>
    </g>
    <g id="ytick_7">
     <g id="line2d_13">
      <g>
       <use xlink:href="#m620db5e131" x="33.7" y="46.164758" style="stroke: #000000; stroke-width: 0.8"/>
      </g>
     </g>
     <g id="text_14">
      <!-- 60000 -->
      <g transform="translate(-5.1125 49.963977) scale(0.1 -0.1)">
       <use xlink:href="#DejaVuSans-36"/>
       <use xlink:href="#DejaVuSans-30" transform="translate(63.623047 0)"/>
       <use xlink:href="#DejaVuSans-30" transform="translate(127.246094 0)"/>
       <use xlink:href="#DejaVuSans-30" transform="translate(190.869141 0)"/>
       <use xlink:href="#DejaVuSans-30" transform="translate(254.492188 0)"/>
      </g>
     </g>
    </g>
    <g id="ytick_8">
     <g id="line2d_14">
      <g>
       <use xlink:href="#m620db5e131" x="33.7" y="23.744339" style="stroke: #000000; stroke-width: 0.8"/>
      </g>
     </g>
     <g id="text_15">
      <!-- 70000 -->
      <g transform="translate(-5.1125 27.543558) scale(0.1 -0.1)">
       <defs>
        <path id="DejaVuSans-37" d="M 525 4666 
L 3525 4666 
L 3525 4397 
L 1831 0 
L 1172 0 
L 2766 4134 
L 525 4134 
L 525 4666 
z
" transform="scale(0.015625)"/>
       </defs>
       <use xlink:href="#DejaVuSans-37"/>
       <use xlink:href="#DejaVuSans-30" transform="translate(63.623047 0)"/>
       <use xlink:href="#DejaVuSans-30" transform="translate(127.246094 0)"/>
       <use xlink:href="#DejaVuSans-30" transform="translate(190.869141 0)"/>
       <use xlink:href="#DejaVuSans-30" transform="translate(254.492188 0)"/>
      </g>
     </g>
    </g>
    <g id="text_16">
     <!-- rdf -->
     <g transform="translate(-11.192187 108.462344) rotate(-90) scale(0.1 -0.1)">
      <defs>
       <path id="DejaVuSans-72" d="M 2631 2963 
Q 2534 3019 2420 3045 
Q 2306 3072 2169 3072 
Q 1681 3072 1420 2755 
Q 1159 2438 1159 1844 
L 1159 0 
L 581 0 
L 581 3500 
L 1159 3500 
L 1159 2956 
Q 1341 3275 1631 3429 
Q 1922 3584 2338 3584 
Q 2397 3584 2469 3576 
Q 2541 3569 2628 3553 
L 2631 2963 
z
" transform="scale(0.015625)"/>
       <path id="DejaVuSans-64" d="M 2906 2969 
L 2906 4863 
L 3481 4863 
L 3481 0 
L 2906 0 
L 2906 525 
Q 2725 213 2448 61 
Q 2172 -91 1784 -91 
Q 1150 -91 751 415 
Q 353 922 353 1747 
Q 353 2572 751 3078 
Q 1150 3584 1784 3584 
Q 2172 3584 2448 3432 
Q 2725 3281 2906 2969 
z
M 947 1747 
Q 947 1113 1208 752 
Q 1469 391 1925 391 
Q 2381 391 2643 752 
Q 2906 1113 2906 1747 
Q 2906 2381 2643 2742 
Q 2381 3103 1925 3103 
Q 1469 3103 1208 2742 
Q 947 2381 947 1747 
z
" transform="scale(0.015625)"/>
       <path id="DejaVuSans-66" d="M 2375 4863 
L 2375 4384 
L 1825 4384 
Q 1516 4384 1395 4259 
Q 1275 4134 1275 3809 
L 1275 3500 
L 2222 3500 
L 2222 3053 
L 1275 3053 
L 1275 0 
L 697 0 
L 697 3053 
L 147 3053 
L 147 3500 
L 697 3500 
L 697 3744 
Q 697 4328 969 4595 
Q 1241 4863 1831 4863 
L 2375 4863 
z
" transform="scale(0.015625)"/>
      </defs>
      <use xlink:href="#DejaVuSans-72"/>
      <use xlink:href="#DejaVuSans-64" transform="translate(39.363281 0)"/>
      <use xlink:href="#DejaVuSans-66" transform="translate(102.839844 0)"/>
     </g>
    </g>
   </g>
   <g id="line2d_15">
    <path d="M 44.406818 180.687273 
L 92.171571 180.687273 
L 92.708254 180.555549 
L 93.244936 180.687273 
L 93.781619 180.561184 
L 94.318301 180.317055 
L 94.854984 180.566465 
L 95.391667 86.409095 
L 95.928349 22.432727 
L 96.465032 177.623087 
L 97.001715 179.908903 
L 98.07508 176.201084 
L 98.611762 175.24185 
L 99.685128 171.220362 
L 100.22181 173.376559 
L 100.758493 173.999148 
L 101.831858 179.006861 
L 102.368541 179.679195 
L 102.905223 179.877478 
L 103.978589 180.513716 
L 105.051954 180.436031 
L 105.588636 180.27582 
L 106.125319 179.959426 
L 107.198684 178.57743 
L 108.272049 175.776618 
L 108.808732 175.932088 
L 109.345415 177.690924 
L 109.882097 178.530472 
L 110.41878 178.42379 
L 110.955463 178.877616 
L 111.492145 179.111832 
L 112.028828 177.518587 
L 113.102193 170.42945 
L 113.638876 168.785978 
L 114.175558 169.854581 
L 114.712241 172.701456 
L 115.248923 174.603606 
L 115.785606 175.178686 
L 116.322289 173.769347 
L 116.858971 173.048438 
L 117.395654 170.554349 
L 117.932337 168.646904 
L 118.469019 172.757128 
L 119.542384 179.102352 
L 120.079067 179.178558 
L 120.61575 180.049723 
L 122.225797 180.432469 
L 122.76248 180.486203 
L 123.835845 180.198047 
L 124.372528 180.397651 
L 124.909211 180.115701 
L 125.445893 179.653181 
L 125.982576 178.87807 
L 126.519258 177.894245 
L 127.055941 175.037706 
L 128.129306 174.300201 
L 128.665989 172.597896 
L 129.739354 173.774876 
L 130.812719 177.171372 
L 131.349402 178.930466 
L 131.886085 179.960834 
L 132.422767 180.168981 
L 133.496132 180.25919 
L 134.032815 180.072022 
L 134.569498 180.383287 
L 135.10618 179.786047 
L 135.642863 178.349221 
L 136.716228 172.892149 
L 137.252911 171.118059 
L 137.789593 173.211545 
L 138.326276 173.121356 
L 139.399641 166.134205 
L 139.936324 166.973964 
L 141.009689 176.846077 
L 141.546372 178.591285 
L 142.083054 178.711362 
L 142.619737 178.188165 
L 143.156419 177.391149 
L 144.229785 174.980076 
L 144.766467 175.378345 
L 145.30315 174.645097 
L 146.376515 158.747678 
L 146.913198 171.832206 
L 147.44988 176.174606 
L 147.986563 174.578739 
L 148.523246 171.646953 
L 149.059928 170.864157 
L 149.596611 174.17708 
L 150.133293 175.625768 
L 150.669976 177.511128 
L 151.206659 178.166345 
L 151.743341 178.513474 
L 152.280024 177.870712 
L 152.816707 176.635608 
L 153.353389 175.841669 
L 154.426754 178.183669 
L 154.963437 178.992159 
L 155.50012 179.309149 
L 156.573485 177.983398 
L 157.110167 176.59686 
L 157.64685 176.731903 
L 158.183533 177.939749 
L 159.793581 180.106498 
L 160.330263 180.295985 
L 161.403628 180.325713 
L 161.940311 180.329 
L 162.476994 180.088156 
L 163.013676 179.675754 
L 163.550359 178.813137 
L 164.623724 174.715066 
L 165.160407 173.643463 
L 165.697089 174.020945 
L 166.233772 174.663073 
L 166.770455 175.666209 
L 167.307137 176.099045 
L 167.84382 177.032216 
L 168.380502 176.882554 
L 168.917185 177.074871 
L 169.453868 176.452766 
L 169.99055 175.095833 
L 170.527233 174.170597 
L 171.600598 172.768879 
L 172.137281 172.512708 
L 172.673963 170.323842 
L 173.210646 171.752804 
L 174.820694 177.357495 
L 175.357376 177.583193 
L 175.894059 176.928214 
L 176.967424 176.178558 
L 177.504107 176.773833 
L 178.040789 177.065105 
L 179.114155 176.610791 
L 179.650837 176.25381 
L 181.260885 179.860946 
L 182.33425 180.345586 
L 183.407616 180.350833 
L 183.944298 180.067244 
L 185.017663 178.714517 
L 186.091029 175.367033 
L 186.627711 175.544778 
L 187.701077 178.425716 
L 188.237759 177.993578 
L 189.847807 171.876368 
L 190.38449 172.478487 
L 190.921172 174.759508 
L 191.457855 175.504183 
L 191.994537 176.479895 
L 192.53122 176.157491 
L 193.604585 176.486596 
L 194.141268 178.090954 
L 194.677951 178.72647 
L 195.214633 177.487839 
L 195.751316 174.928419 
L 196.824681 177.408321 
L 197.898046 176.034423 
L 198.434729 174.617962 
L 199.508094 176.503689 
L 200.044777 177.644659 
L 200.581459 179.138292 
L 201.654825 179.459908 
L 202.191507 178.572606 
L 202.72819 177.981499 
L 203.801555 177.310748 
L 204.338238 177.611818 
L 204.87492 177.752595 
L 205.411603 177.700409 
L 206.484968 176.277834 
L 207.021651 176.154565 
L 207.558333 175.753776 
L 208.095016 175.762895 
L 208.631699 175.31265 
L 209.168381 175.781111 
L 210.778429 175.729976 
L 211.315112 176.773543 
L 211.851794 176.975316 
L 212.388477 176.318386 
L 212.925159 175.877082 
L 213.461842 175.864179 
L 213.998525 176.19617 
L 215.07189 177.496722 
L 215.608573 177.675196 
L 216.145255 178.313626 
L 216.681938 178.599751 
L 217.21862 178.612673 
L 218.828668 176.726209 
L 219.365351 177.266591 
L 219.902033 177.156681 
L 220.438716 176.68826 
L 220.975399 177.278916 
L 221.512081 177.576035 
L 222.048764 178.301654 
L 222.585447 178.716065 
L 223.122129 178.077963 
L 223.658812 177.071506 
L 224.195494 175.588233 
L 224.732177 175.4565 
L 225.26886 176.292515 
L 225.805542 177.401254 
L 226.342225 179.105401 
L 226.878907 179.877715 
L 227.41559 179.863949 
L 229.025638 179.123716 
L 229.562321 179.087566 
L 231.172368 178.111223 
L 231.709051 178.249576 
L 232.245734 178.676228 
L 232.782416 178.69637 
L 233.319099 178.473232 
L 233.855781 178.408041 
L 234.929147 179.406783 
L 235.465829 179.719549 
L 236.002512 179.767165 
L 236.539195 179.025198 
L 238.149242 175.799964 
L 239.222608 173.836877 
L 239.75929 173.890627 
L 240.295973 173.822768 
L 241.369338 175.918306 
L 241.906021 177.350413 
L 242.442703 178.024319 
L 242.979386 178.030811 
L 244.589434 176.147655 
L 245.126116 176.933392 
L 245.662799 178.05518 
L 246.199482 178.44968 
L 247.272847 178.84227 
L 247.80953 178.387528 
L 248.346212 178.086644 
L 248.882895 177.989052 
L 249.419577 177.398488 
L 249.95626 177.217555 
L 250.492943 177.264769 
L 251.566308 177.986198 
L 252.10299 177.683983 
L 252.639673 177.063248 
L 253.176356 176.633825 
L 253.713038 175.671141 
L 254.249721 175.513735 
L 254.786404 175.589085 
L 255.323086 176.332621 
L 255.859769 176.534903 
L 256.396451 177.231798 
L 256.933134 176.974699 
L 257.469817 176.84996 
L 258.006499 177.059429 
L 258.543182 176.942382 
L 258.543182 176.942382 
" clip-path="url(#p9948c8ccdf)" style="fill: none; stroke: #000000; stroke-opacity: 0.5; stroke-width: 0.5; stroke-linecap: square"/>
   </g>
   <g id="line2d_16">
    <path d="M 44.406818 180.687273 
L 92.171571 180.687273 
L 92.708254 180.28387 
L 93.244936 180.687273 
L 93.781619 180.301126 
L 94.318301 179.553479 
L 94.854984 180.317298 
L 95.391667 180.325006 
L 95.928349 179.977676 
L 96.465032 175.821459 
L 97.001715 178.644052 
L 98.07508 166.948318 
L 98.611762 164.010663 
L 99.685128 151.694855 
L 100.22181 158.298207 
L 100.758493 160.204889 
L 101.831858 175.541011 
L 102.368541 177.600034 
L 102.905223 178.207275 
L 103.441906 179.334318 
L 103.978589 180.155756 
L 105.051954 180.174322 
L 106.125319 178.705912 
L 106.662002 176.79229 
L 107.198684 174.22588 
L 108.272049 165.879758 
L 108.808732 166.579604 
L 109.345415 171.958578 
L 109.882097 174.302243 
L 110.41878 174.405224 
L 110.955463 178.768862 
L 111.492145 179.428633 
L 112.028828 180.480803 
L 112.56551 180.077541 
L 113.102193 180.287087 
L 113.638876 179.111155 
L 114.175558 178.747207 
L 114.712241 179.731938 
L 115.785606 172.159555 
L 116.322289 163.153906 
L 116.858971 158.912921 
L 117.932337 145.036934 
L 118.469019 157.262408 
L 119.542384 176.168199 
L 120.079067 177.386958 
L 120.61575 179.060192 
L 121.689115 180.529038 
L 122.225797 180.219071 
L 122.76248 180.379385 
L 123.299163 180.231681 
L 123.835845 180.387622 
L 124.372528 180.391617 
L 124.909211 180.687273 
L 125.445893 180.399372 
L 125.982576 180.545204 
L 126.519258 180.547049 
L 127.055941 180.410444 
L 127.592624 180.413992 
L 128.129306 180.687273 
L 129.202671 180.687273 
L 129.739354 180.427528 
L 130.276037 180.687273 
L 131.886085 180.687273 
L 132.95945 180.446019 
L 133.496132 179.852999 
L 134.032815 179.627408 
L 134.569498 179.989056 
L 135.10618 178.502269 
L 135.642863 174.663541 
L 136.716228 158.813336 
L 137.252911 153.027942 
L 137.789593 162.892558 
L 138.326276 165.99109 
L 138.862959 160.64203 
L 139.399641 153.316802 
L 139.936324 155.696456 
L 140.473006 168.381997 
L 141.009689 176.93507 
L 141.546372 179.784606 
L 143.156419 180.201966 
L 143.693102 179.727096 
L 144.229785 180.212319 
L 144.766467 180.217371 
L 145.30315 179.850401 
L 145.839833 176.270944 
L 146.376515 157.653296 
L 147.44988 180.063142 
L 147.986563 180.510788 
L 149.059928 180.600826 
L 149.596611 180.516136 
L 150.669976 180.60342 
L 151.206659 180.521244 
L 151.743341 180.687273 
L 152.816707 180.6067 
L 153.890072 180.687273 
L 154.426754 180.609035 
L 154.963437 180.377345 
L 155.50012 180.610536 
L 160.866946 180.547588 
L 161.403628 180.479658 
L 161.940311 180.618697 
L 162.476994 180.619317 
L 163.013676 180.417901 
L 163.550359 180.687273 
L 164.087041 180.158129 
L 164.623724 179.900611 
L 165.160407 179.777624 
L 165.697089 179.206013 
L 166.233772 175.771764 
L 167.307137 170.901442 
L 167.84382 171.732383 
L 168.380502 171.562993 
L 168.917185 173.597186 
L 169.453868 173.536594 
L 169.99055 171.975171 
L 170.527233 168.772453 
L 171.063915 168.341315 
L 171.600598 164.637701 
L 172.137281 162.797113 
L 172.673963 159.5478 
L 173.210646 162.465106 
L 173.747329 167.770922 
L 175.357376 178.587056 
L 176.430742 178.45787 
L 176.967424 176.695915 
L 177.504107 175.925411 
L 178.040789 176.228887 
L 179.114155 178.650098 
L 179.650837 178.769842 
L 180.18752 179.761814 
L 180.724203 180.177163 
L 181.797568 180.285524 
L 182.33425 180.338467 
L 182.870933 180.143382 
L 183.407616 180.29476 
L 184.480981 178.223128 
L 185.017663 177.714439 
L 185.554346 175.024577 
L 186.091029 173.319896 
L 186.627711 174.453336 
L 187.164394 175.849145 
L 187.701077 177.963038 
L 188.237759 178.854063 
L 188.774442 179.277059 
L 189.311124 180.100258 
L 190.38449 179.97536 
L 190.921172 179.318009 
L 191.457855 177.53017 
L 191.994537 177.074222 
L 192.53122 174.939493 
L 193.067903 174.294341 
L 193.604585 174.084595 
L 194.141268 176.796246 
L 194.677951 177.999739 
L 195.214633 177.726945 
L 195.751316 177.251054 
L 196.287998 176.124203 
L 197.361364 172.580303 
L 197.898046 173.401587 
L 198.434729 171.853324 
L 199.508094 176.114293 
L 200.044777 177.085355 
L 200.581459 178.820878 
L 201.654825 177.887346 
L 202.191507 175.163482 
L 202.72819 173.80083 
L 203.264872 173.546521 
L 203.801555 174.415712 
L 204.87492 177.409063 
L 205.411603 177.17472 
L 205.948285 176.180268 
L 206.484968 175.560121 
L 207.021651 176.024264 
L 208.095016 178.811009 
L 208.631699 178.471533 
L 209.168381 176.913522 
L 209.705064 177.111533 
L 210.241746 176.065339 
L 211.851794 178.792628 
L 212.388477 180.08216 
L 213.461842 180.587695 
L 214.535207 180.425066 
L 215.07189 180.524422 
L 215.608573 180.266507 
L 216.681938 180.559412 
L 217.21862 180.178996 
L 217.755303 179.645422 
L 218.291986 178.898791 
L 218.828668 177.818301 
L 219.365351 175.976245 
L 220.438716 173.920816 
L 220.975399 175.422578 
L 221.512081 176.240795 
L 222.048764 177.831034 
L 222.585447 178.924042 
L 223.122129 179.231661 
L 223.658812 177.88204 
L 224.195494 175.638552 
L 224.732177 174.705588 
L 225.26886 174.915009 
L 225.805542 176.44852 
L 226.342225 178.824011 
L 226.878907 179.661367 
L 227.952273 180.236624 
L 228.488955 180.099233 
L 229.025638 179.824248 
L 229.562321 178.915845 
L 230.635686 175.078277 
L 231.172368 174.131114 
L 231.709051 174.466066 
L 232.245734 177.244786 
L 232.782416 178.788602 
L 233.319099 179.304582 
L 233.855781 180.290673 
L 234.392464 180.135163 
L 234.929147 180.373553 
L 235.465829 180.167334 
L 236.002512 179.756613 
L 236.539195 178.270758 
L 237.075877 176.417934 
L 237.61256 175.348412 
L 238.149242 174.846959 
L 238.685925 175.935192 
L 239.222608 176.186342 
L 239.75929 174.196658 
L 240.295973 172.946028 
L 240.832656 172.742278 
L 241.369338 173.837374 
L 241.906021 176.137324 
L 242.442703 177.80751 
L 242.979386 178.159999 
L 243.516069 176.473846 
L 244.052751 175.663046 
L 244.589434 175.287292 
L 245.126116 176.54108 
L 245.662799 178.320589 
L 246.736164 179.783056 
L 247.272847 179.972334 
L 247.80953 179.609033 
L 248.346212 179.044182 
L 248.882895 177.872302 
L 249.419577 176.125558 
L 249.95626 176.26164 
L 250.492943 176.083494 
L 251.029625 177.619182 
L 251.566308 178.696675 
L 252.10299 179.521073 
L 252.639673 179.264378 
L 253.176356 179.271677 
L 254.249721 176.936458 
L 254.786404 175.733084 
L 255.859769 176.526238 
L 256.396451 176.610622 
L 256.933134 175.538306 
L 257.469817 174.079515 
L 258.006499 173.34284 
L 258.543182 173.048355 
L 258.543182 173.048355 
" clip-path="url(#p9948c8ccdf)" style="fill: none; stroke: #0000ff; stroke-opacity: 0.5; stroke-linecap: square"/>
   </g>
   <g id="line2d_17">
    <path d="M 44.406818 180.687273 
L 104.515271 180.687273 
L 105.051954 180.231316 
L 105.588636 180.687273 
L 106.662002 179.821721 
L 107.198684 180.687273 
L 107.735367 180.268981 
L 108.272049 180.275953 
L 108.808732 179.878231 
L 109.345415 179.891494 
L 109.882097 180.295853 
L 110.41878 179.531954 
L 110.955463 174.245203 
L 111.492145 174.347457 
L 112.028828 163.8026 
L 113.102193 125.550571 
L 113.638876 118.693321 
L 114.175558 125.158292 
L 114.712241 138.907312 
L 115.248923 155.92928 
L 116.322289 174.518126 
L 116.858971 177.80802 
L 117.395654 176.904315 
L 117.932337 178.512525 
L 118.469019 179.156236 
L 119.005702 180.38544 
L 119.542384 180.092168 
L 120.079067 178.340383 
L 120.61575 180.108755 
L 121.152432 179.831548 
L 121.689115 179.843353 
L 122.76248 180.413595 
L 123.299163 180.147312 
L 123.835845 179.089135 
L 124.372528 179.898857 
L 124.909211 178.353353 
L 125.445893 176.336774 
L 125.982576 172.352568 
L 126.519258 167.475081 
L 127.055941 155.588135 
L 127.592624 157.853193 
L 128.129306 161.981227 
L 129.202671 176.946357 
L 129.739354 179.071082 
L 130.276037 180.23124 
L 130.812719 179.786467 
L 131.349402 180.687273 
L 131.886085 180.467547 
L 132.422767 180.687273 
L 132.95945 180.472825 
L 133.496132 180.687273 
L 135.10618 180.687273 
L 135.642863 180.283165 
L 136.179545 180.687273 
L 137.252911 180.687273 
L 137.789593 180.494376 
L 138.326276 180.687273 
L 138.862959 180.498723 
L 139.399641 180.500841 
L 139.936324 180.687273 
L 140.473006 180.504972 
L 141.009689 180.687273 
L 142.619737 180.163955 
L 143.693102 180.516575 
L 144.229785 180.180656 
L 144.766467 179.350664 
L 145.30315 172.917798 
L 145.839833 127.200631 
L 146.376515 112.870077 
L 146.913198 169.155093 
L 147.44988 179.419197 
L 147.986563 180.530397 
L 148.523246 180.687273 
L 149.059928 180.687273 
L 149.596611 180.535151 
L 150.133293 180.687273 
L 150.669976 180.687273 
L 151.206659 180.539692 
L 151.743341 180.687273 
L 156.036802 180.687273 
L 156.573485 180.553445 
L 157.110167 180.687273 
L 159.256898 180.687273 
L 159.793581 180.560793 
L 160.330263 180.687273 
L 160.866946 180.314779 
L 162.476994 180.324844 
L 163.013676 180.567552 
L 163.550359 180.568626 
L 164.087041 180.687273 
L 164.623724 180.221103 
L 165.160407 180.687273 
L 166.233772 180.346805 
L 167.84382 179.250068 
L 168.380502 177.618446 
L 169.453868 170.883707 
L 169.99055 166.37406 
L 170.527233 166.813129 
L 171.063915 164.51479 
L 172.137281 168.502345 
L 172.673963 162.152636 
L 173.210646 165.251429 
L 173.747329 167.493965 
L 174.820694 176.922824 
L 175.357376 178.525646 
L 175.894059 177.76356 
L 176.430742 178.850584 
L 176.967424 176.947623 
L 178.577472 173.573255 
L 179.650837 175.988704 
L 180.18752 178.767803 
L 180.724203 179.508353 
L 181.260885 180.057429 
L 181.797568 180.330163 
L 183.407616 180.163922 
L 183.944298 180.341046 
L 184.480981 179.828312 
L 185.554346 180.264289 
L 186.627711 180.10398 
L 187.701077 179.702239 
L 188.774442 176.562779 
L 189.311124 172.900547 
L 190.38449 158.538887 
L 190.921172 157.75825 
L 191.457855 160.185593 
L 191.994537 166.060949 
L 192.53122 167.242178 
L 193.604585 170.463773 
L 194.141268 174.596972 
L 194.677951 177.701124 
L 195.214633 179.056545 
L 195.751316 179.951269 
L 196.287998 179.883369 
L 196.824681 180.614703 
L 197.361364 180.543149 
L 197.898046 180.329474 
L 198.434729 180.331961 
L 198.971411 180.616702 
L 200.044777 180.339261 
L 200.581459 180.549021 
L 202.191507 180.551823 
L 202.72819 180.687273 
L 203.264872 180.687273 
L 203.801555 180.488176 
L 204.338238 180.555429 
L 204.87492 180.490826 
L 205.411603 180.296989 
L 206.484968 179.403479 
L 207.021651 178.136567 
L 208.631699 171.43353 
L 209.705064 176.367071 
L 210.778429 179.286 
L 211.315112 180.021395 
L 211.851794 180.206093 
L 212.388477 179.850574 
L 212.925159 179.024491 
L 213.461842 177.677807 
L 213.998525 175.116773 
L 214.535207 173.63683 
L 215.07189 174.028475 
L 215.608573 175.278452 
L 216.145255 177.370703 
L 217.21862 180.00957 
L 217.755303 180.182133 
L 218.291986 180.519929 
L 218.828668 180.022004 
L 219.365351 180.521974 
L 220.438716 180.360687 
L 220.975399 180.579071 
L 221.512081 180.095753 
L 222.048764 180.152772 
L 222.585447 179.624685 
L 223.658812 173.600369 
L 224.195494 168.946063 
L 224.732177 167.666978 
L 225.26886 169.445702 
L 225.805542 172.485303 
L 226.342225 177.374807 
L 226.878907 179.927343 
L 227.41559 179.831058 
L 227.952273 180.436912 
L 229.562321 180.539654 
L 230.099003 180.63835 
L 230.635686 180.395423 
L 231.172368 180.542185 
L 234.392464 180.500315 
L 234.929147 180.361933 
L 235.465829 180.363755 
L 236.002512 180.181729 
L 236.539195 180.138844 
L 237.075877 178.960222 
L 237.61256 178.156258 
L 238.149242 174.889097 
L 238.685925 168.663195 
L 239.222608 164.194974 
L 239.75929 165.788426 
L 240.295973 168.771748 
L 240.832656 175.483534 
L 241.369338 178.208262 
L 241.906021 179.346349 
L 242.442703 179.439644 
L 242.979386 178.590571 
L 243.516069 177.325044 
L 244.052751 174.930181 
L 244.589434 171.508359 
L 245.126116 173.525668 
L 245.662799 176.77144 
L 246.199482 178.035311 
L 246.736164 179.615608 
L 247.272847 180.113272 
L 247.80953 180.279428 
L 248.346212 180.200431 
L 248.882895 180.364409 
L 249.419577 180.285802 
L 249.95626 180.048264 
L 250.492943 179.654278 
L 251.566308 176.204742 
L 252.10299 172.941947 
L 252.639673 168.778743 
L 253.713038 166.935951 
L 254.249721 167.92588 
L 254.786404 171.155405 
L 255.323086 173.593642 
L 255.859769 175.327935 
L 256.396451 178.171344 
L 256.933134 179.192788 
L 257.469817 179.869435 
L 258.006499 180.280405 
L 258.543182 180.429652 
L 258.543182 180.429652 
" clip-path="url(#p9948c8ccdf)" style="fill: none; stroke: #ff0000; stroke-opacity: 0.5; stroke-linecap: square"/>
   </g>
   <g id="patch_3">
    <path d="M 33.7 188.6 
L 33.7 14.52 
" style="fill: none; stroke: #000000; stroke-width: 0.8; stroke-linejoin: miter; stroke-linecap: square"/>
   </g>
   <g id="patch_4">
    <path d="M 269.25 188.6 
L 269.25 14.52 
" style="fill: none; stroke: #000000; stroke-width: 0.8; stroke-linejoin: miter; stroke-linecap: square"/>
   </g>
   <g id="patch_5">
    <path d="M 33.7 188.6 
L 269.25 188.6 
" style="fill: none; stroke: #000000; stroke-width: 0.8; stroke-linejoin: miter; stroke-linecap: square"/>
   </g>
   <g id="patch_6">
    <path d="M 33.7 14.52 
L 269.25 14.52 
" style="fill: none; stroke: #000000; stroke-width: 0.8; stroke-linejoin: miter; stroke-linecap: square"/>
   </g>
   <g id="legend_1">
    <g id="patch_7">
     <path d="M 213.917188 66.554375 
L 262.25 66.554375 
Q 264.25 66.554375 264.25 64.554375 
L 264.25 21.52 
Q 264.25 19.52 262.25 19.52 
L 213.917188 19.52 
Q 211.917188 19.52 211.917188 21.52 
L 211.917188 64.554375 
Q 211.917188 66.554375 213.917188 66.554375 
z
" style="fill: #ffffff; opacity: 0.8; stroke: #cccccc; stroke-linejoin: miter"/>
    </g>
    <g id="line2d_18">
     <path d="M 215.917188 27.618438 
L 225.917188 27.618438 
L 235.917188 27.618438 
" style="fill: none; stroke: #000000; stroke-opacity: 0.5; stroke-width: 0.5; stroke-linecap: square"/>
    </g>
    <g id="text_17">
     <!-- all -->
     <g transform="translate(243.917188 31.118438) scale(0.1 -0.1)">
      <defs>
       <path id="DejaVuSans-61" d="M 2194 1759 
Q 1497 1759 1228 1600 
Q 959 1441 959 1056 
Q 959 750 1161 570 
Q 1363 391 1709 391 
Q 2188 391 2477 730 
Q 2766 1069 2766 1631 
L 2766 1759 
L 2194 1759 
z
M 3341 1997 
L 3341 0 
L 2766 0 
L 2766 531 
Q 2569 213 2275 61 
Q 1981 -91 1556 -91 
Q 1019 -91 701 211 
Q 384 513 384 1019 
Q 384 1609 779 1909 
Q 1175 2209 1959 2209 
L 2766 2209 
L 2766 2266 
Q 2766 2663 2505 2880 
Q 2244 3097 1772 3097 
Q 1472 3097 1187 3025 
Q 903 2953 641 2809 
L 641 3341 
Q 956 3463 1253 3523 
Q 1550 3584 1831 3584 
Q 2591 3584 2966 3190 
Q 3341 2797 3341 1997 
z
" transform="scale(0.015625)"/>
       <path id="DejaVuSans-6c" d="M 603 4863 
L 1178 4863 
L 1178 0 
L 603 0 
L 603 4863 
z
" transform="scale(0.015625)"/>
      </defs>
      <use xlink:href="#DejaVuSans-61"/>
      <use xlink:href="#DejaVuSans-6c" transform="translate(61.279297 0)"/>
      <use xlink:href="#DejaVuSans-6c" transform="translate(89.0625 0)"/>
     </g>
    </g>
    <g id="line2d_19">
     <path d="M 215.917188 42.296563 
L 225.917188 42.296563 
L 235.917188 42.296563 
" style="fill: none; stroke: #0000ff; stroke-opacity: 0.5; stroke-linecap: square"/>
    </g>
    <g id="text_18">
     <!-- 1-1 -->
     <g transform="translate(243.917188 45.796563) scale(0.1 -0.1)">
      <defs>
       <path id="DejaVuSans-2d" d="M 313 2009 
L 1997 2009 
L 1997 1497 
L 313 1497 
L 313 2009 
z
" transform="scale(0.015625)"/>
      </defs>
      <use xlink:href="#DejaVuSans-31"/>
      <use xlink:href="#DejaVuSans-2d" transform="translate(63.623047 0)"/>
      <use xlink:href="#DejaVuSans-31" transform="translate(99.707031 0)"/>
     </g>
    </g>
    <g id="line2d_20">
     <path d="M 215.917188 56.974688 
L 225.917188 56.974688 
L 235.917188 56.974688 
" style="fill: none; stroke: #ff0000; stroke-opacity: 0.5; stroke-linecap: square"/>
    </g>
    <g id="text_19">
     <!-- 2-2 -->
     <g transform="translate(243.917188 60.474688) scale(0.1 -0.1)">
      <use xlink:href="#DejaVuSans-32"/>
      <use xlink:href="#DejaVuSans-2d" transform="translate(63.623047 0)"/>
      <use xlink:href="#DejaVuSans-32" transform="translate(99.707031 0)"/>
     </g>
    </g>
   </g>
  </g>
 </g>
 <defs>
  <clipPath id="p9948c8ccdf">
   <rect x="33.7" y="14.52" width="235.55" height="174.08"/>
  </clipPath>
 </defs>
</svg>
