<?xml version="1.0" encoding="utf-8" standalone="no"?>
<!DOCTYPE svg PUBLIC "-//W3C//DTD SVG 1.1//EN"
  "http://www.w3.org/Graphics/SVG/1.1/DTD/svg11.dtd">
<svg xmlns:xlink="http://www.w3.org/1999/xlink" width="288pt" height="216pt" viewBox="0 0 288 216" xmlns="http://www.w3.org/2000/svg" version="1.1">
 <metadata>
  <rdf:RDF xmlns:dc="http://purl.org/dc/elements/1.1/" xmlns:cc="http://creativecommons.org/ns#" xmlns:rdf="http://www.w3.org/1999/02/22-rdf-syntax-ns#">
   <cc:Work>
    <dc:type rdf:resource="http://purl.org/dc/dcmitype/StillImage"/>
    <dc:date>2025-09-17T22:48:01.813439</dc:date>
    <dc:format>image/svg+xml</dc:format>
    <dc:creator>
     <cc:Agent>
      <dc:title>Matplotlib v3.10.0, https://matplotlib.org/</dc:title>
     </cc:Agent>
    </dc:creator>
   </cc:Work>
  </rdf:RDF>
 </metadata>
 <defs>
  <style type="text/css">*{stroke-linejoin: round; stroke-linecap: butt}</style>
 </defs>
 <g id="figure_1">
  <g id="patch_1">
   <path d="M 0 216 
L 288 216 
L 288 0 
L 0 0 
z
" style="fill: #ffffff"/>
  </g>
  <g id="axes_1">
   <g id="patch_2">
    <path d="M 33.7 188.6 
L 269.25 188.6 
L 269.25 14.52 
L 33.7 14.52 
z
" style="fill: #ffffff"/>
   </g>
   <g id="matplotlib.axis_1">
    <g id="xtick_1">
     <g id="line2d_1">
      <defs>
       <path id="mdbd0079941" d="M 0 0 
L 0 3.5 
" style="stroke: #000000; stroke-width: 0.8"/>
      </defs>
      <g>
       <use xlink:href="#mdbd0079941" x="44.138477" y="188.6" style="stroke: #000000; stroke-width: 0.8"/>
      </g>
     </g>
     <g id="text_1">
      <!-- 0 -->
      <g transform="translate(40.957227 203.198437) scale(0.1 -0.1)">
       <defs>
        <path id="DejaVuSans-30" d="M 2034 4250 
Q 1547 4250 1301 3770 
Q 1056 3291 1056 2328 
Q 1056 1369 1301 889 
Q 1547 409 2034 409 
Q 2525 409 2770 889 
Q 3016 1369 3016 2328 
Q 3016 3291 2770 3770 
Q 2525 4250 2034 4250 
z
M 2034 4750 
Q 2819 4750 3233 4129 
Q 3647 3509 3647 2328 
Q 3647 1150 3233 529 
Q 2819 -91 2034 -91 
Q 1250 -91 836 529 
Q 422 1150 422 2328 
Q 422 3509 836 4129 
Q 1250 4750 2034 4750 
z
" transform="scale(0.015625)"/>
       </defs>
       <use xlink:href="#DejaVuSans-30"/>
      </g>
     </g>
    </g>
    <g id="xtick_2">
     <g id="line2d_2">
      <g>
       <use xlink:href="#mdbd0079941" x="87.073086" y="188.6" style="stroke: #000000; stroke-width: 0.8"/>
      </g>
     </g>
     <g id="text_2">
      <!-- 200 -->
      <g transform="translate(77.529336 203.198437) scale(0.1 -0.1)">
       <defs>
        <path id="DejaVuSans-32" d="M 1228 531 
L 3431 531 
L 3431 0 
L 469 0 
L 469 531 
Q 828 903 1448 1529 
Q 2069 2156 2228 2338 
Q 2531 2678 2651 2914 
Q 2772 3150 2772 3378 
Q 2772 3750 2511 3984 
Q 2250 4219 1831 4219 
Q 1534 4219 1204 4116 
Q 875 4013 500 3803 
L 500 4441 
Q 881 4594 1212 4672 
Q 1544 4750 1819 4750 
Q 2544 4750 2975 4387 
Q 3406 4025 3406 3419 
Q 3406 3131 3298 2873 
Q 3191 2616 2906 2266 
Q 2828 2175 2409 1742 
Q 1991 1309 1228 531 
z
" transform="scale(0.015625)"/>
       </defs>
       <use xlink:href="#DejaVuSans-32"/>
       <use xlink:href="#DejaVuSans-30" transform="translate(63.623047 0)"/>
       <use xlink:href="#DejaVuSans-30" transform="translate(127.246094 0)"/>
      </g>
     </g>
    </g>
    <g id="xtick_3">
     <g id="line2d_3">
      <g>
       <use xlink:href="#mdbd0079941" x="130.007695" y="188.6" style="stroke: #000000; stroke-width: 0.8"/>
      </g>
     </g>
     <g id="text_3">
      <!-- 400 -->
      <g transform="translate(120.463945 203.198437) scale(0.1 -0.1)">
       <defs>
        <path id="DejaVuSans-34" d="M 2419 4116 
L 825 1625 
L 2419 1625 
L 2419 4116 
z
M 2253 4666 
L 3047 4666 
L 3047 1625 
L 3713 1625 
L 3713 1100 
L 3047 1100 
L 3047 0 
L 2419 0 
L 2419 1100 
L 313 1100 
L 313 1709 
L 2253 4666 
z
" transform="scale(0.015625)"/>
       </defs>
       <use xlink:href="#DejaVuSans-34"/>
       <use xlink:href="#DejaVuSans-30" transform="translate(63.623047 0)"/>
       <use xlink:href="#DejaVuSans-30" transform="translate(127.246094 0)"/>
      </g>
     </g>
    </g>
    <g id="xtick_4">
     <g id="line2d_4">
      <g>
       <use xlink:href="#mdbd0079941" x="172.942305" y="188.6" style="stroke: #000000; stroke-width: 0.8"/>
      </g>
     </g>
     <g id="text_4">
      <!-- 600 -->
      <g transform="translate(163.398555 203.198437) scale(0.1 -0.1)">
       <defs>
        <path id="DejaVuSans-36" d="M 2113 2584 
Q 1688 2584 1439 2293 
Q 1191 2003 1191 1497 
Q 1191 994 1439 701 
Q 1688 409 2113 409 
Q 2538 409 2786 701 
Q 3034 994 3034 1497 
Q 3034 2003 2786 2293 
Q 2538 2584 2113 2584 
z
M 3366 4563 
L 3366 3988 
Q 3128 4100 2886 4159 
Q 2644 4219 2406 4219 
Q 1781 4219 1451 3797 
Q 1122 3375 1075 2522 
Q 1259 2794 1537 2939 
Q 1816 3084 2150 3084 
Q 2853 3084 3261 2657 
Q 3669 2231 3669 1497 
Q 3669 778 3244 343 
Q 2819 -91 2113 -91 
Q 1303 -91 875 529 
Q 447 1150 447 2328 
Q 447 3434 972 4092 
Q 1497 4750 2381 4750 
Q 2619 4750 2861 4703 
Q 3103 4656 3366 4563 
z
" transform="scale(0.015625)"/>
       </defs>
       <use xlink:href="#DejaVuSans-36"/>
       <use xlink:href="#DejaVuSans-30" transform="translate(63.623047 0)"/>
       <use xlink:href="#DejaVuSans-30" transform="translate(127.246094 0)"/>
      </g>
     </g>
    </g>
    <g id="xtick_5">
     <g id="line2d_5">
      <g>
       <use xlink:href="#mdbd0079941" x="215.876914" y="188.6" style="stroke: #000000; stroke-width: 0.8"/>
      </g>
     </g>
     <g id="text_5">
      <!-- 800 -->
      <g transform="translate(206.333164 203.198437) scale(0.1 -0.1)">
       <defs>
        <path id="DejaVuSans-38" d="M 2034 2216 
Q 1584 2216 1326 1975 
Q 1069 1734 1069 1313 
Q 1069 891 1326 650 
Q 1584 409 2034 409 
Q 2484 409 2743 651 
Q 3003 894 3003 1313 
Q 3003 1734 2745 1975 
Q 2488 2216 2034 2216 
z
M 1403 2484 
Q 997 2584 770 2862 
Q 544 3141 544 3541 
Q 544 4100 942 4425 
Q 1341 4750 2034 4750 
Q 2731 4750 3128 4425 
Q 3525 4100 3525 3541 
Q 3525 3141 3298 2862 
Q 3072 2584 2669 2484 
Q 3125 2378 3379 2068 
Q 3634 1759 3634 1313 
Q 3634 634 3220 271 
Q 2806 -91 2034 -91 
Q 1263 -91 848 271 
Q 434 634 434 1313 
Q 434 1759 690 2068 
Q 947 2378 1403 2484 
z
M 1172 3481 
Q 1172 3119 1398 2916 
Q 1625 2713 2034 2713 
Q 2441 2713 2670 2916 
Q 2900 3119 2900 3481 
Q 2900 3844 2670 4047 
Q 2441 4250 2034 4250 
Q 1625 4250 1398 4047 
Q 1172 3844 1172 3481 
z
" transform="scale(0.015625)"/>
       </defs>
       <use xlink:href="#DejaVuSans-38"/>
       <use xlink:href="#DejaVuSans-30" transform="translate(63.623047 0)"/>
       <use xlink:href="#DejaVuSans-30" transform="translate(127.246094 0)"/>
      </g>
     </g>
    </g>
    <g id="xtick_6">
     <g id="line2d_6">
      <g>
       <use xlink:href="#mdbd0079941" x="258.811523" y="188.6" style="stroke: #000000; stroke-width: 0.8"/>
      </g>
     </g>
     <g id="text_6">
      <!-- 1000 -->
      <g transform="translate(246.086523 203.198437) scale(0.1 -0.1)">
       <defs>
        <path id="DejaVuSans-31" d="M 794 531 
L 1825 531 
L 1825 4091 
L 703 3866 
L 703 4441 
L 1819 4666 
L 2450 4666 
L 2450 531 
L 3481 531 
L 3481 0 
L 794 0 
L 794 531 
z
" transform="scale(0.015625)"/>
       </defs>
       <use xlink:href="#DejaVuSans-31"/>
       <use xlink:href="#DejaVuSans-30" transform="translate(63.623047 0)"/>
       <use xlink:href="#DejaVuSans-30" transform="translate(127.246094 0)"/>
       <use xlink:href="#DejaVuSans-30" transform="translate(190.869141 0)"/>
      </g>
     </g>
    </g>
    <g id="text_7">
     <!-- q (nm) -->
     <g transform="translate(134.771094 216.876563) scale(0.1 -0.1)">
      <defs>
       <path id="DejaVuSans-71" d="M 947 1747 
Q 947 1113 1208 752 
Q 1469 391 1925 391 
Q 2381 391 2643 752 
Q 2906 1113 2906 1747 
Q 2906 2381 2643 2742 
Q 2381 3103 1925 3103 
Q 1469 3103 1208 2742 
Q 947 2381 947 1747 
z
M 2906 525 
Q 2725 213 2448 61 
Q 2172 -91 1784 -91 
Q 1150 -91 751 415 
Q 353 922 353 1747 
Q 353 2572 751 3078 
Q 1150 3584 1784 3584 
Q 2172 3584 2448 3432 
Q 2725 3281 2906 2969 
L 2906 3500 
L 3481 3500 
L 3481 -1331 
L 2906 -1331 
L 2906 525 
z
" transform="scale(0.015625)"/>
       <path id="DejaVuSans-20" transform="scale(0.015625)"/>
       <path id="DejaVuSans-28" d="M 1984 4856 
Q 1566 4138 1362 3434 
Q 1159 2731 1159 2009 
Q 1159 1288 1364 580 
Q 1569 -128 1984 -844 
L 1484 -844 
Q 1016 -109 783 600 
Q 550 1309 550 2009 
Q 550 2706 781 3412 
Q 1013 4119 1484 4856 
L 1984 4856 
z
" transform="scale(0.015625)"/>
       <path id="DejaVuSans-6e" d="M 3513 2113 
L 3513 0 
L 2938 0 
L 2938 2094 
Q 2938 2591 2744 2837 
Q 2550 3084 2163 3084 
Q 1697 3084 1428 2787 
Q 1159 2491 1159 1978 
L 1159 0 
L 581 0 
L 581 3500 
L 1159 3500 
L 1159 2956 
Q 1366 3272 1645 3428 
Q 1925 3584 2291 3584 
Q 2894 3584 3203 3211 
Q 3513 2838 3513 2113 
z
" transform="scale(0.015625)"/>
       <path id="DejaVuSans-6d" d="M 3328 2828 
Q 3544 3216 3844 3400 
Q 4144 3584 4550 3584 
Q 5097 3584 5394 3201 
Q 5691 2819 5691 2113 
L 5691 0 
L 5113 0 
L 5113 2094 
Q 5113 2597 4934 2840 
Q 4756 3084 4391 3084 
Q 3944 3084 3684 2787 
Q 3425 2491 3425 1978 
L 3425 0 
L 2847 0 
L 2847 2094 
Q 2847 2600 2669 2842 
Q 2491 3084 2119 3084 
Q 1678 3084 1418 2786 
Q 1159 2488 1159 1978 
L 1159 0 
L 581 0 
L 581 3500 
L 1159 3500 
L 1159 2956 
Q 1356 3278 1631 3431 
Q 1906 3584 2284 3584 
Q 2666 3584 2933 3390 
Q 3200 3197 3328 2828 
z
" transform="scale(0.015625)"/>
       <path id="DejaVuSans-29" d="M 513 4856 
L 1013 4856 
Q 1481 4119 1714 3412 
Q 1947 2706 1947 2009 
Q 1947 1309 1714 600 
Q 1481 -109 1013 -844 
L 513 -844 
Q 928 -128 1133 580 
Q 1338 1288 1338 2009 
Q 1338 2731 1133 3434 
Q 928 4138 513 4856 
z
" transform="scale(0.015625)"/>
      </defs>
      <use xlink:href="#DejaVuSans-71"/>
      <use xlink:href="#DejaVuSans-20" transform="translate(63.476562 0)"/>
      <use xlink:href="#DejaVuSans-28" transform="translate(95.263672 0)"/>
      <use xlink:href="#DejaVuSans-6e" transform="translate(134.277344 0)"/>
      <use xlink:href="#DejaVuSans-6d" transform="translate(197.65625 0)"/>
      <use xlink:href="#DejaVuSans-29" transform="translate(295.068359 0)"/>
     </g>
    </g>
   </g>
   <g id="matplotlib.axis_2">
    <g id="ytick_1">
     <g id="line2d_7">
      <defs>
       <path id="m60addaaee4" d="M 0 0 
L -3.5 0 
" style="stroke: #000000; stroke-width: 0.8"/>
      </defs>
      <g>
       <use xlink:href="#m60addaaee4" x="33.7" y="180.687273" style="stroke: #000000; stroke-width: 0.8"/>
      </g>
     </g>
     <g id="text_8">
      <!-- 0 -->
      <g transform="translate(20.3375 184.486491) scale(0.1 -0.1)">
       <use xlink:href="#DejaVuSans-30"/>
      </g>
     </g>
    </g>
    <g id="ytick_2">
     <g id="line2d_8">
      <g>
       <use xlink:href="#m60addaaee4" x="33.7" y="158.397392" style="stroke: #000000; stroke-width: 0.8"/>
      </g>
     </g>
     <g id="text_9">
      <!-- 10000 -->
      <g transform="translate(-5.1125 162.196611) scale(0.1 -0.1)">
       <use xlink:href="#DejaVuSans-31"/>
       <use xlink:href="#DejaVuSans-30" transform="translate(63.623047 0)"/>
       <use xlink:href="#DejaVuSans-30" transform="translate(127.246094 0)"/>
       <use xlink:href="#DejaVuSans-30" transform="translate(190.869141 0)"/>
       <use xlink:href="#DejaVuSans-30" transform="translate(254.492188 0)"/>
      </g>
     </g>
    </g>
    <g id="ytick_3">
     <g id="line2d_9">
      <g>
       <use xlink:href="#m60addaaee4" x="33.7" y="136.107512" style="stroke: #000000; stroke-width: 0.8"/>
      </g>
     </g>
     <g id="text_10">
      <!-- 20000 -->
      <g transform="translate(-5.1125 139.906731) scale(0.1 -0.1)">
       <use xlink:href="#DejaVuSans-32"/>
       <use xlink:href="#DejaVuSans-30" transform="translate(63.623047 0)"/>
       <use xlink:href="#DejaVuSans-30" transform="translate(127.246094 0)"/>
       <use xlink:href="#DejaVuSans-30" transform="translate(190.869141 0)"/>
       <use xlink:href="#DejaVuSans-30" transform="translate(254.492188 0)"/>
      </g>
     </g>
    </g>
    <g id="ytick_4">
     <g id="line2d_10">
      <g>
       <use xlink:href="#m60addaaee4" x="33.7" y="113.817632" style="stroke: #000000; stroke-width: 0.8"/>
      </g>
     </g>
     <g id="text_11">
      <!-- 30000 -->
      <g transform="translate(-5.1125 117.616851) scale(0.1 -0.1)">
       <defs>
        <path id="DejaVuSans-33" d="M 2597 2516 
Q 3050 2419 3304 2112 
Q 3559 1806 3559 1356 
Q 3559 666 3084 287 
Q 2609 -91 1734 -91 
Q 1441 -91 1130 -33 
Q 819 25 488 141 
L 488 750 
Q 750 597 1062 519 
Q 1375 441 1716 441 
Q 2309 441 2620 675 
Q 2931 909 2931 1356 
Q 2931 1769 2642 2001 
Q 2353 2234 1838 2234 
L 1294 2234 
L 1294 2753 
L 1863 2753 
Q 2328 2753 2575 2939 
Q 2822 3125 2822 3475 
Q 2822 3834 2567 4026 
Q 2313 4219 1838 4219 
Q 1578 4219 1281 4162 
Q 984 4106 628 3988 
L 628 4550 
Q 988 4650 1302 4700 
Q 1616 4750 1894 4750 
Q 2613 4750 3031 4423 
Q 3450 4097 3450 3541 
Q 3450 3153 3228 2886 
Q 3006 2619 2597 2516 
z
" transform="scale(0.015625)"/>
       </defs>
       <use xlink:href="#DejaVuSans-33"/>
       <use xlink:href="#DejaVuSans-30" transform="translate(63.623047 0)"/>
       <use xlink:href="#DejaVuSans-30" transform="translate(127.246094 0)"/>
       <use xlink:href="#DejaVuSans-30" transform="translate(190.869141 0)"/>
       <use xlink:href="#DejaVuSans-30" transform="translate(254.492188 0)"/>
      </g>
     </g>
    </g>
    <g id="ytick_5">
     <g id="line2d_11">
      <g>
       <use xlink:href="#m60addaaee4" x="33.7" y="91.527752" style="stroke: #000000; stroke-width: 0.8"/>
      </g>
     </g>
     <g id="text_12">
      <!-- 40000 -->
      <g transform="translate(-5.1125 95.32697) scale(0.1 -0.1)">
       <use xlink:href="#DejaVuSans-34"/>
       <use xlink:href="#DejaVuSans-30" transform="translate(63.623047 0)"/>
       <use xlink:href="#DejaVuSans-30" transform="translate(127.246094 0)"/>
       <use xlink:href="#DejaVuSans-30" transform="translate(190.869141 0)"/>
       <use xlink:href="#DejaVuSans-30" transform="translate(254.492188 0)"/>
      </g>
     </g>
    </g>
    <g id="ytick_6">
     <g id="line2d_12">
      <g>
       <use xlink:href="#m60addaaee4" x="33.7" y="69.237871" style="stroke: #000000; stroke-width: 0.8"/>
      </g>
     </g>
     <g id="text_13">
      <!-- 50000 -->
      <g transform="translate(-5.1125 73.03709) scale(0.1 -0.1)">
       <defs>
        <path id="DejaVuSans-35" d="M 691 4666 
L 3169 4666 
L 3169 4134 
L 1269 4134 
L 1269 2991 
Q 1406 3038 1543 3061 
Q 1681 3084 1819 3084 
Q 2600 3084 3056 2656 
Q 3513 2228 3513 1497 
Q 3513 744 3044 326 
Q 2575 -91 1722 -91 
Q 1428 -91 1123 -41 
Q 819 9 494 109 
L 494 744 
Q 775 591 1075 516 
Q 1375 441 1709 441 
Q 2250 441 2565 725 
Q 2881 1009 2881 1497 
Q 2881 1984 2565 2268 
Q 2250 2553 1709 2553 
Q 1456 2553 1204 2497 
Q 953 2441 691 2322 
L 691 4666 
z
" transform="scale(0.015625)"/>
       </defs>
       <use xlink:href="#DejaVuSans-35"/>
       <use xlink:href="#DejaVuSans-30" transform="translate(63.623047 0)"/>
       <use xlink:href="#DejaVuSans-30" transform="translate(127.246094 0)"/>
       <use xlink:href="#DejaVuSans-30" transform="translate(190.869141 0)"/>
       <use xlink:href="#DejaVuSans-30" transform="translate(254.492188 0)"/>
      </g>
     </g>
    </g>
    <g id="ytick_7">
     <g id="line2d_13">
      <g>
       <use xlink:href="#m60addaaee4" x="33.7" y="46.947991" style="stroke: #000000; stroke-width: 0.8"/>
      </g>
     </g>
     <g id="text_14">
      <!-- 60000 -->
      <g transform="translate(-5.1125 50.74721) scale(0.1 -0.1)">
       <use xlink:href="#DejaVuSans-36"/>
       <use xlink:href="#DejaVuSans-30" transform="translate(63.623047 0)"/>
       <use xlink:href="#DejaVuSans-30" transform="translate(127.246094 0)"/>
       <use xlink:href="#DejaVuSans-30" transform="translate(190.869141 0)"/>
       <use xlink:href="#DejaVuSans-30" transform="translate(254.492188 0)"/>
      </g>
     </g>
    </g>
    <g id="ytick_8">
     <g id="line2d_14">
      <g>
       <use xlink:href="#m60addaaee4" x="33.7" y="24.658111" style="stroke: #000000; stroke-width: 0.8"/>
      </g>
     </g>
     <g id="text_15">
      <!-- 70000 -->
      <g transform="translate(-5.1125 28.457329) scale(0.1 -0.1)">
       <defs>
        <path id="DejaVuSans-37" d="M 525 4666 
L 3525 4666 
L 3525 4397 
L 1831 0 
L 1172 0 
L 2766 4134 
L 525 4134 
L 525 4666 
z
" transform="scale(0.015625)"/>
       </defs>
       <use xlink:href="#DejaVuSans-37"/>
       <use xlink:href="#DejaVuSans-30" transform="translate(63.623047 0)"/>
       <use xlink:href="#DejaVuSans-30" transform="translate(127.246094 0)"/>
       <use xlink:href="#DejaVuSans-30" transform="translate(190.869141 0)"/>
       <use xlink:href="#DejaVuSans-30" transform="translate(254.492188 0)"/>
      </g>
     </g>
    </g>
    <g id="text_16">
     <!-- rdf -->
     <g transform="translate(-11.192187 108.462344) rotate(-90) scale(0.1 -0.1)">
      <defs>
       <path id="DejaVuSans-72" d="M 2631 2963 
Q 2534 3019 2420 3045 
Q 2306 3072 2169 3072 
Q 1681 3072 1420 2755 
Q 1159 2438 1159 1844 
L 1159 0 
L 581 0 
L 581 3500 
L 1159 3500 
L 1159 2956 
Q 1341 3275 1631 3429 
Q 1922 3584 2338 3584 
Q 2397 3584 2469 3576 
Q 2541 3569 2628 3553 
L 2631 2963 
z
" transform="scale(0.015625)"/>
       <path id="DejaVuSans-64" d="M 2906 2969 
L 2906 4863 
L 3481 4863 
L 3481 0 
L 2906 0 
L 2906 525 
Q 2725 213 2448 61 
Q 2172 -91 1784 -91 
Q 1150 -91 751 415 
Q 353 922 353 1747 
Q 353 2572 751 3078 
Q 1150 3584 1784 3584 
Q 2172 3584 2448 3432 
Q 2725 3281 2906 2969 
z
M 947 1747 
Q 947 1113 1208 752 
Q 1469 391 1925 391 
Q 2381 391 2643 752 
Q 2906 1113 2906 1747 
Q 2906 2381 2643 2742 
Q 2381 3103 1925 3103 
Q 1469 3103 1208 2742 
Q 947 2381 947 1747 
z
" transform="scale(0.015625)"/>
       <path id="DejaVuSans-66" d="M 2375 4863 
L 2375 4384 
L 1825 4384 
Q 1516 4384 1395 4259 
Q 1275 4134 1275 3809 
L 1275 3500 
L 2222 3500 
L 2222 3053 
L 1275 3053 
L 1275 0 
L 697 0 
L 697 3053 
L 147 3053 
L 147 3500 
L 697 3500 
L 697 3744 
Q 697 4328 969 4595 
Q 1241 4863 1831 4863 
L 2375 4863 
z
" transform="scale(0.015625)"/>
      </defs>
      <use xlink:href="#DejaVuSans-72"/>
      <use xlink:href="#DejaVuSans-64" transform="translate(39.363281 0)"/>
      <use xlink:href="#DejaVuSans-66" transform="translate(102.839844 0)"/>
     </g>
    </g>
   </g>
   <g id="line2d_15">
    <path d="M 44.406818 180.687273 
L 93.244936 180.687273 
L 93.781619 180.561918 
L 94.318301 180.687273 
L 94.854984 180.687273 
L 95.391667 168.339001 
L 95.928349 22.432727 
L 96.465032 136.684511 
L 97.001715 170.185192 
L 97.538397 175.487079 
L 98.07508 176.54578 
L 99.685128 173.978868 
L 100.22181 175.87458 
L 100.758493 174.712643 
L 101.295175 176.431903 
L 101.831858 177.253204 
L 102.368541 178.865075 
L 102.905223 178.898206 
L 103.978589 179.910815 
L 104.515271 179.331334 
L 105.051954 179.688159 
L 105.588636 179.132857 
L 106.662002 179.5809 
L 107.198684 178.512027 
L 107.735367 177.784768 
L 108.272049 177.382491 
L 108.808732 177.363251 
L 109.345415 177.563057 
L 109.882097 178.257131 
L 110.41878 177.311817 
L 111.492145 178.167625 
L 112.028828 177.872168 
L 112.56551 175.870812 
L 113.102193 175.16601 
L 114.175558 172.436862 
L 114.712241 171.631486 
L 115.248923 173.78372 
L 115.785606 174.06731 
L 116.322289 174.639686 
L 116.858971 174.962295 
L 117.395654 173.434046 
L 117.932337 174.049732 
L 118.469019 173.64202 
L 119.005702 175.175678 
L 119.542384 175.851527 
L 120.079067 178.062393 
L 120.61575 178.838579 
L 121.152432 179.228858 
L 121.689115 179.916756 
L 122.225797 179.825985 
L 123.835845 179.909069 
L 124.372528 179.919444 
L 124.909211 179.503431 
L 125.445893 179.612471 
L 125.982576 179.39592 
L 126.519258 178.138111 
L 127.592624 176.517677 
L 128.129306 175.651157 
L 128.665989 175.19604 
L 129.202671 174.539315 
L 129.739354 175.248577 
L 130.276037 175.232863 
L 131.349402 177.803388 
L 131.886085 177.838559 
L 132.422767 179.062178 
L 132.95945 179.747457 
L 133.496132 179.526573 
L 134.032815 179.76977 
L 134.569498 179.780626 
L 135.642863 179.063855 
L 136.179545 177.806392 
L 136.716228 176.181611 
L 137.252911 175.378242 
L 137.789593 173.748203 
L 138.326276 173.827052 
L 138.862959 173.215956 
L 139.936324 170.925037 
L 140.473006 171.666011 
L 141.009689 173.938477 
L 142.083054 176.1788 
L 142.619737 176.801171 
L 143.156419 177.221286 
L 143.693102 177.196216 
L 144.229785 176.12343 
L 144.766467 176.568589 
L 145.30315 176.189572 
L 145.839833 173.907208 
L 146.376515 168.126245 
L 146.913198 166.677701 
L 147.44988 171.367154 
L 147.986563 174.585658 
L 148.523246 174.563172 
L 149.059928 174.794044 
L 149.596611 173.881648 
L 150.133293 174.252867 
L 150.669976 175.188603 
L 151.743341 177.699027 
L 152.280024 178.098444 
L 152.816707 177.574669 
L 153.353389 177.397979 
L 153.890072 177.045366 
L 154.426754 177.71568 
L 154.963437 177.618619 
L 155.50012 178.345647 
L 156.036802 178.590101 
L 156.573485 178.341267 
L 157.110167 178.363503 
L 157.64685 177.546196 
L 158.183533 177.765726 
L 158.720215 178.334229 
L 159.256898 178.426052 
L 159.793581 178.701041 
L 160.330263 179.451595 
L 160.866946 179.712336 
L 161.940311 179.885853 
L 163.550359 179.344018 
L 164.623724 177.729196 
L 165.160407 176.257792 
L 165.697089 176.06683 
L 166.770455 175.448933 
L 167.307137 175.901756 
L 167.84382 176.912184 
L 168.380502 176.504435 
L 168.917185 177.095904 
L 169.453868 176.634798 
L 169.99055 176.357194 
L 170.527233 175.659001 
L 171.063915 175.4713 
L 172.137281 174.144214 
L 172.673963 174.086563 
L 173.210646 173.807547 
L 173.747329 173.993142 
L 174.820694 174.844342 
L 175.357376 176.470926 
L 175.894059 176.434014 
L 176.430742 177.262796 
L 176.967424 177.255387 
L 177.504107 176.709773 
L 178.040789 177.327416 
L 178.577472 176.602107 
L 179.114155 177.414552 
L 179.650837 177.322654 
L 180.18752 177.415912 
L 180.724203 177.358781 
L 181.797568 178.910306 
L 182.33425 179.182898 
L 182.870933 179.676049 
L 183.407616 179.715686 
L 183.944298 179.533464 
L 184.480981 179.714804 
L 185.017663 179.146275 
L 185.554346 179.173397 
L 186.091029 178.310937 
L 186.627711 177.157176 
L 187.164394 177.017509 
L 187.701077 177.044882 
L 188.237759 177.473659 
L 188.774442 177.216878 
L 189.311124 176.685465 
L 189.847807 175.405318 
L 190.38449 174.534029 
L 190.921172 174.865715 
L 191.994537 175.13365 
L 192.53122 176.296099 
L 193.067903 176.104825 
L 193.604585 176.580197 
L 194.141268 177.309742 
L 194.677951 177.44284 
L 195.214633 177.926063 
L 195.751316 177.623015 
L 196.287998 176.603671 
L 196.824681 176.619073 
L 197.361364 177.542318 
L 197.898046 176.910876 
L 198.434729 176.807363 
L 198.971411 176.344513 
L 200.044777 176.70915 
L 200.581459 177.317028 
L 201.118142 177.57823 
L 201.654825 178.632823 
L 202.72819 178.807944 
L 203.264872 178.161766 
L 203.801555 178.178712 
L 204.338238 177.906589 
L 205.948285 177.654867 
L 207.021651 176.937831 
L 207.558333 177.170643 
L 209.168381 176.195347 
L 209.705064 176.630142 
L 210.241746 175.872506 
L 210.778429 176.392971 
L 211.315112 176.641577 
L 211.851794 176.535635 
L 212.388477 176.736698 
L 212.925159 176.317159 
L 213.998525 176.929002 
L 214.535207 176.750474 
L 215.07189 177.124088 
L 215.608573 176.89419 
L 216.145255 177.742711 
L 216.681938 177.792135 
L 217.755303 178.401758 
L 218.291986 178.313968 
L 218.828668 177.984326 
L 219.365351 177.860009 
L 220.438716 177.268145 
L 220.975399 177.555616 
L 223.122129 177.987076 
L 223.658812 177.706056 
L 224.195494 177.819087 
L 224.732177 177.305645 
L 225.26886 177.457477 
L 225.805542 176.699612 
L 226.342225 177.374448 
L 226.878907 177.865691 
L 227.952273 179.078041 
L 228.488955 179.260106 
L 230.099003 179.204305 
L 230.635686 178.777606 
L 231.172368 178.912199 
L 231.709051 178.597439 
L 232.245734 178.687937 
L 232.782416 178.464889 
L 233.319099 178.382539 
L 233.855781 178.558642 
L 234.392464 178.877891 
L 234.929147 178.684365 
L 235.465829 178.847488 
L 236.002512 178.857771 
L 236.539195 179.118329 
L 237.075877 179.044047 
L 237.61256 178.772553 
L 238.685925 177.699889 
L 239.75929 176.053389 
L 240.295973 175.356104 
L 240.832656 175.496975 
L 241.369338 175.294852 
L 242.979386 177.132087 
L 243.516069 177.28331 
L 244.052751 177.626227 
L 244.589434 177.48883 
L 245.662799 177.636913 
L 246.199482 177.547155 
L 246.736164 177.736866 
L 247.80953 178.467945 
L 248.346212 178.449975 
L 248.882895 178.550108 
L 249.419577 178.348676 
L 249.95626 177.821185 
L 250.492943 177.937643 
L 251.029625 177.699295 
L 251.566308 178.073726 
L 252.639673 177.695495 
L 253.176356 177.611863 
L 253.713038 177.268872 
L 254.249721 177.069387 
L 254.786404 176.725763 
L 255.323086 176.607343 
L 255.859769 176.972588 
L 256.396451 176.586788 
L 256.933134 176.989492 
L 257.469817 177.177771 
L 258.543182 177.286764 
L 258.543182 177.286764 
" clip-path="url(#pd40a8bba6d)" style="fill: none; stroke: #000000; stroke-opacity: 0.5; stroke-width: 0.5; stroke-linecap: square"/>
   </g>
   <g id="line2d_16">
    <path d="M 44.406818 180.687273 
L 93.244936 180.687273 
L 93.781619 180.303374 
L 94.318301 180.687273 
L 94.854984 180.687273 
L 95.391667 180.327115 
L 95.928349 178.923609 
L 96.465032 177.922996 
L 97.001715 175.947517 
L 97.538397 176.042308 
L 98.07508 173.532578 
L 98.611762 170.165659 
L 99.148445 164.429677 
L 99.685128 160.756051 
L 100.22181 166.249192 
L 100.758493 163.275322 
L 101.295175 168.234405 
L 101.831858 170.454675 
L 102.368541 175.385816 
L 102.905223 175.482205 
L 103.441906 177.459086 
L 103.978589 178.837794 
L 104.515271 178.351456 
L 105.051954 178.392433 
L 105.588636 177.430158 
L 106.125319 177.732536 
L 106.662002 178.267082 
L 107.198684 175.21517 
L 107.735367 173.669702 
L 108.272049 171.48646 
L 108.808732 171.638544 
L 109.345415 172.454418 
L 109.882097 174.339419 
L 110.41878 172.718912 
L 110.955463 175.389381 
L 111.492145 176.307681 
L 112.028828 178.634592 
L 112.56551 178.060487 
L 113.102193 179.692633 
L 113.638876 179.120332 
L 114.175558 178.758503 
L 114.712241 176.508274 
L 115.248923 177.880795 
L 115.785606 173.315041 
L 116.322289 170.155874 
L 116.858971 168.163882 
L 117.395654 162.705311 
L 117.932337 162.792148 
L 118.469019 160.652332 
L 120.079067 173.796964 
L 120.61575 175.834451 
L 121.152432 177.177961 
L 121.689115 178.956821 
L 122.225797 178.82537 
L 122.76248 180.075082 
L 123.299163 179.781395 
L 123.835845 179.644601 
L 124.372528 179.658502 
L 124.909211 179.527107 
L 125.445893 179.971712 
L 125.982576 180.122306 
L 126.519258 179.850829 
L 127.055941 179.724013 
L 127.592624 180.143894 
L 128.129306 180.419045 
L 128.665989 180.42244 
L 129.202671 180.033518 
L 129.739354 180.42904 
L 130.276037 180.04971 
L 131.349402 180.065308 
L 131.886085 180.441521 
L 132.422767 179.837566 
L 132.95945 180.567348 
L 133.496132 179.739368 
L 134.032815 179.633578 
L 134.569498 179.877429 
L 135.642863 177.523453 
L 137.789593 162.888293 
L 138.326276 165.010188 
L 138.862959 165.714511 
L 139.399641 162.963559 
L 139.936324 161.924422 
L 140.473006 165.599128 
L 141.009689 170.605228 
L 142.083054 176.051999 
L 142.619737 177.565649 
L 143.693102 178.491725 
L 144.229785 179.459583 
L 144.766467 179.379209 
L 145.30315 179.57794 
L 145.839833 178.674907 
L 146.913198 167.789105 
L 147.44988 172.000314 
L 147.986563 178.055414 
L 148.523246 179.818983 
L 149.059928 179.913786 
L 149.596611 180.261921 
L 151.206659 180.274617 
L 151.743341 180.605563 
L 153.353389 180.211361 
L 153.890072 180.294549 
L 154.426754 180.22058 
L 154.963437 180.302119 
L 156.036802 180.687273 
L 156.573485 180.313072 
L 157.110167 180.094227 
L 157.64685 180.099819 
L 158.183533 180.323564 
L 158.720215 180.254901 
L 159.256898 180.473098 
L 159.793581 180.262889 
L 160.330263 180.336878 
L 160.866946 180.270657 
L 161.403628 179.999254 
L 161.940311 180.210038 
L 162.476994 180.281914 
L 163.013676 179.683009 
L 163.550359 180.222821 
L 164.087041 180.16121 
L 164.623724 179.383804 
L 165.160407 179.266148 
L 165.697089 179.022554 
L 166.233772 178.212096 
L 166.770455 176.346384 
L 167.307137 176.633583 
L 168.380502 172.964532 
L 168.917185 174.246123 
L 169.453868 174.240935 
L 169.99055 172.563499 
L 170.527233 172.632368 
L 171.063915 171.878127 
L 171.600598 170.379849 
L 172.137281 168.50271 
L 172.673963 168.432483 
L 173.210646 166.148983 
L 174.820694 170.604598 
L 175.357376 173.763941 
L 175.894059 175.618731 
L 176.967424 177.737995 
L 177.504107 177.28295 
L 178.040789 177.310185 
L 178.577472 176.708936 
L 179.114155 178.24651 
L 179.650837 177.750591 
L 180.18752 178.796017 
L 180.724203 178.86157 
L 181.797568 179.7886 
L 182.33425 179.300175 
L 182.870933 179.900765 
L 183.944298 179.235133 
L 184.480981 179.534427 
L 185.017663 178.542134 
L 185.554346 177.896064 
L 186.091029 177.49455 
L 186.627711 175.794399 
L 187.164394 176.524809 
L 187.701077 176.234524 
L 188.237759 177.634525 
L 188.774442 177.476235 
L 189.847807 178.860233 
L 190.38449 179.360209 
L 190.921172 179.150331 
L 191.994537 178.3503 
L 192.53122 178.453105 
L 193.067903 176.720286 
L 193.604585 176.071134 
L 194.141268 176.818901 
L 194.677951 176.846436 
L 195.214633 177.039498 
L 195.751316 177.394539 
L 196.287998 177.376852 
L 197.361364 176.899182 
L 197.898046 174.924674 
L 198.434729 174.72629 
L 198.971411 173.701968 
L 199.508094 174.57321 
L 200.044777 175.74401 
L 200.581459 176.473677 
L 201.118142 176.31048 
L 201.654825 177.827384 
L 202.191507 177.846775 
L 202.72819 177.264099 
L 203.264872 175.792578 
L 203.801555 175.751195 
L 204.87492 176.183091 
L 205.411603 175.994762 
L 205.948285 176.784672 
L 206.484968 176.487385 
L 207.558333 176.932056 
L 208.631699 177.750154 
L 209.168381 177.734483 
L 209.705064 178.064225 
L 210.241746 177.875393 
L 210.778429 177.314271 
L 211.315112 178.351463 
L 211.851794 177.861853 
L 212.388477 177.980119 
L 212.925159 178.229761 
L 213.461842 179.169301 
L 213.998525 179.801911 
L 214.535207 179.937818 
L 215.07189 180.363467 
L 215.608573 179.85064 
L 216.145255 180.367495 
L 217.21862 180.150373 
L 217.755303 179.808425 
L 218.291986 179.84503 
L 218.828668 179.416154 
L 219.902033 177.869744 
L 220.438716 176.851935 
L 220.975399 176.542396 
L 221.512081 176.50726 
L 222.048764 176.801492 
L 223.122129 177.733933 
L 223.658812 177.45802 
L 224.195494 177.62315 
L 225.26886 177.197939 
L 225.805542 176.272529 
L 226.878907 177.542481 
L 227.41559 178.293188 
L 228.488955 179.462364 
L 229.025638 179.165016 
L 229.562321 179.476507 
L 230.099003 179.018376 
L 230.635686 178.103116 
L 231.172368 177.658167 
L 231.709051 176.841825 
L 232.782416 176.593008 
L 233.319099 177.118496 
L 234.392464 178.779207 
L 234.929147 179.335734 
L 236.002512 179.299411 
L 236.539195 179.256029 
L 237.075877 178.857317 
L 237.61256 178.286136 
L 238.149242 177.26884 
L 238.685925 177.312692 
L 239.222608 176.486003 
L 240.295973 175.745002 
L 240.832656 176.065411 
L 241.369338 174.92308 
L 241.906021 175.002714 
L 242.442703 175.899574 
L 242.979386 176.356098 
L 243.516069 176.617381 
L 244.052751 177.11267 
L 244.589434 177.061153 
L 245.126116 177.197581 
L 245.662799 177.472414 
L 246.199482 177.118699 
L 247.272847 178.807156 
L 247.80953 178.817042 
L 248.346212 179.212564 
L 248.882895 179.107429 
L 249.419577 178.68911 
L 249.95626 177.917814 
L 250.492943 178.087729 
L 251.029625 177.371808 
L 252.639673 178.075685 
L 253.176356 178.695326 
L 253.713038 178.511647 
L 254.249721 178.865646 
L 254.786404 177.766181 
L 255.323086 177.590093 
L 255.859769 177.56356 
L 256.396451 176.886353 
L 256.933134 177.511411 
L 257.469817 176.675019 
L 258.543182 175.830123 
L 258.543182 175.830123 
" clip-path="url(#pd40a8bba6d)" style="fill: none; stroke: #0000ff; stroke-opacity: 0.5; stroke-linecap: square"/>
   </g>
   <g id="line2d_17">
    <path d="M 44.406818 180.687273 
L 100.22181 180.687273 
L 100.758493 179.637965 
L 101.295175 180.687273 
L 101.831858 180.181959 
L 102.368541 180.19123 
L 102.905223 180.687273 
L 103.441906 179.252523 
L 103.978589 179.747855 
L 104.515271 177.918898 
L 105.051954 180.233971 
L 105.588636 178.460186 
L 106.662002 179.396504 
L 107.198684 178.572451 
L 107.735367 178.192137 
L 108.272049 179.460498 
L 109.345415 178.70941 
L 109.882097 178.741571 
L 110.955463 174.65945 
L 111.492145 174.755128 
L 112.028828 169.009803 
L 112.56551 159.13416 
L 113.102193 152.395309 
L 113.638876 147.259205 
L 114.175558 139.197294 
L 114.712241 140.163656 
L 115.248923 148.423178 
L 115.785606 158.734407 
L 116.322289 166.484008 
L 116.858971 171.781752 
L 117.395654 173.478818 
L 117.932337 176.67197 
L 118.469019 178.251877 
L 119.005702 178.886818 
L 119.542384 176.545797 
L 120.079067 178.6457 
L 120.61575 179.824549 
L 121.152432 180.120111 
L 121.689115 180.127935 
L 122.225797 179.583923 
L 122.76248 178.510595 
L 123.299163 179.345231 
L 123.835845 179.363245 
L 124.372528 180.425998 
L 124.909211 177.07787 
L 125.445893 176.870947 
L 125.982576 175.916443 
L 126.519258 170.030359 
L 127.055941 168.700045 
L 127.592624 166.197189 
L 128.129306 165.189662 
L 128.665989 167.975287 
L 129.202671 172.086774 
L 129.739354 173.571529 
L 130.276037 177.51363 
L 130.812719 178.44837 
L 131.349402 179.802701 
L 132.422767 179.824079 
L 132.95945 179.408079 
L 133.496132 180.476627 
L 134.032815 179.854724 
L 134.569498 180.687273 
L 135.10618 180.484018 
L 135.642863 179.883763 
L 136.179545 180.290189 
L 136.716228 180.098533 
L 137.252911 180.493281 
L 137.789593 179.920179 
L 138.326276 180.308084 
L 138.862959 180.312368 
L 139.399641 179.945889 
L 139.936324 180.503997 
L 140.473006 180.687273 
L 141.009689 180.3288 
L 141.546372 180.33274 
L 142.083054 180.161284 
L 142.619737 180.167002 
L 143.156419 180.344175 
L 143.693102 179.838752 
L 144.229785 178.504714 
L 144.766467 178.195723 
L 145.30315 177.400363 
L 145.839833 166.864967 
L 146.376515 143.194654 
L 146.913198 143.107431 
L 147.44988 161.934474 
L 147.986563 173.668983 
L 148.523246 177.136932 
L 149.059928 179.159398 
L 149.596611 179.326148 
L 150.669976 180.242661 
L 151.206659 180.247107 
L 151.743341 180.542011 
L 152.816707 180.544866 
L 153.353389 180.405251 
L 153.890072 180.547638 
L 154.426754 180.548993 
L 155.50012 180.280395 
L 156.036802 180.552944 
L 156.573485 180.421175 
L 157.110167 180.687273 
L 157.64685 180.556728 
L 158.183533 180.299317 
L 158.720215 180.687273 
L 159.256898 180.306517 
L 159.793581 180.561529 
L 160.330263 180.562688 
L 160.866946 180.316948 
L 161.403628 180.442644 
L 161.940311 180.444868 
L 162.476994 180.206848 
L 163.013676 180.330201 
L 163.550359 180.097492 
L 164.087041 180.102759 
L 164.623724 179.876225 
L 165.160407 180.227919 
L 165.697089 180.345792 
L 166.233772 179.220501 
L 166.770455 180.351745 
L 167.307137 179.578571 
L 167.84382 179.698078 
L 168.917185 177.770526 
L 169.453868 173.832601 
L 169.99055 173.890914 
L 170.527233 170.052694 
L 171.063915 169.829186 
L 171.600598 168.678122 
L 172.137281 167.854664 
L 172.673963 167.65622 
L 173.210646 170.187398 
L 173.747329 168.972543 
L 174.284011 168.870371 
L 174.820694 170.543045 
L 175.357376 174.826252 
L 175.894059 174.680114 
L 176.430742 177.708017 
L 176.967424 177.732038 
L 177.504107 176.526434 
L 178.040789 177.779225 
L 178.577472 175.568945 
L 179.114155 175.147953 
L 179.650837 176.565615 
L 180.18752 175.961974 
L 180.724203 176.810473 
L 181.260885 178.182564 
L 181.797568 179.089633 
L 182.33425 179.542366 
L 182.870933 179.289037 
L 183.407616 179.906818 
L 183.944298 179.568588 
L 184.480981 179.918709 
L 185.017663 179.83981 
L 185.554346 180.182648 
L 186.627711 179.444638 
L 187.164394 179.371729 
L 187.701077 178.9735 
L 188.237759 178.986239 
L 188.774442 178.355627 
L 189.311124 177.175715 
L 189.847807 173.715804 
L 191.457855 165.652411 
L 191.994537 164.761235 
L 192.53122 166.251114 
L 193.067903 167.340757 
L 193.604585 170.146854 
L 194.677951 173.191149 
L 195.214633 175.602496 
L 196.287998 178.725542 
L 196.824681 178.66716 
L 197.361364 179.899207 
L 197.898046 179.477839 
L 198.434729 180.122083 
L 198.971411 180.125993 
L 199.508094 179.920838 
L 200.581459 180.274933 
L 201.654825 180.077163 
L 202.72819 180.352897 
L 203.264872 180.089447 
L 203.801555 180.357376 
L 204.338238 180.294045 
L 204.87492 180.036262 
L 205.411603 180.428599 
L 205.948285 179.852148 
L 207.021651 179.292553 
L 208.095016 178.059374 
L 208.631699 176.771114 
L 209.168381 175.129082 
L 209.705064 176.20815 
L 210.241746 175.139716 
L 211.315112 177.798543 
L 211.851794 178.235586 
L 212.388477 179.023618 
L 212.925159 179.506486 
L 213.461842 178.927306 
L 213.998525 178.122274 
L 214.535207 177.559114 
L 215.07189 176.312297 
L 215.608573 175.424356 
L 216.145255 175.911931 
L 216.681938 176.22408 
L 217.21862 177.992245 
L 218.291986 179.300865 
L 218.828668 178.868436 
L 219.365351 179.920368 
L 219.902033 179.870598 
L 220.438716 179.983789 
L 220.975399 180.256986 
L 221.512081 179.83189 
L 222.585447 179.842152 
L 223.122129 179.374677 
L 224.195494 176.329409 
L 224.732177 175.065962 
L 225.26886 174.637814 
L 225.805542 171.870527 
L 226.342225 172.884971 
L 226.878907 174.743962 
L 227.41559 176.030545 
L 227.952273 178.098685 
L 228.488955 178.509657 
L 229.025638 179.358757 
L 229.562321 179.562117 
L 230.099003 179.909062 
L 230.635686 179.961896 
L 231.172368 180.398786 
L 231.709051 180.01798 
L 232.245734 180.164399 
L 232.782416 180.120102 
L 233.319099 180.264307 
L 233.855781 179.79939 
L 234.392464 180.315534 
L 234.929147 179.994176 
L 235.465829 180.1359 
L 236.002512 179.636381 
L 237.075877 179.512486 
L 237.61256 178.934864 
L 238.149242 179.123284 
L 239.222608 175.295506 
L 239.75929 172.512048 
L 240.295973 170.589633 
L 240.832656 170.296916 
L 241.369338 171.607252 
L 241.906021 174.580741 
L 242.442703 175.383647 
L 242.979386 177.922128 
L 243.516069 178.021613 
L 244.052751 177.404636 
L 244.589434 177.338476 
L 245.126116 176.190489 
L 245.662799 175.344706 
L 246.199482 175.867382 
L 246.736164 175.974817 
L 247.80953 178.659922 
L 249.419577 179.729352 
L 249.95626 179.65493 
L 250.492943 179.383798 
L 251.566308 179.279978 
L 252.639673 176.818255 
L 254.249721 171.238628 
L 254.786404 171.021375 
L 255.323086 171.673868 
L 255.859769 173.070293 
L 256.396451 173.818085 
L 256.933134 175.004153 
L 257.469817 176.732767 
L 258.006499 177.561598 
L 258.543182 178.857838 
L 258.543182 178.857838 
" clip-path="url(#pd40a8bba6d)" style="fill: none; stroke: #ff0000; stroke-opacity: 0.5; stroke-linecap: square"/>
   </g>
   <g id="patch_3">
    <path d="M 33.7 188.6 
L 33.7 14.52 
" style="fill: none; stroke: #000000; stroke-width: 0.8; stroke-linejoin: miter; stroke-linecap: square"/>
   </g>
   <g id="patch_4">
    <path d="M 269.25 188.6 
L 269.25 14.52 
" style="fill: none; stroke: #000000; stroke-width: 0.8; stroke-linejoin: miter; stroke-linecap: square"/>
   </g>
   <g id="patch_5">
    <path d="M 33.7 188.6 
L 269.25 188.6 
" style="fill: none; stroke: #000000; stroke-width: 0.8; stroke-linejoin: miter; stroke-linecap: square"/>
   </g>
   <g id="patch_6">
    <path d="M 33.7 14.52 
L 269.25 14.52 
" style="fill: none; stroke: #000000; stroke-width: 0.8; stroke-linejoin: miter; stroke-linecap: square"/>
   </g>
   <g id="legend_1">
    <g id="patch_7">
     <path d="M 213.917188 66.554375 
L 262.25 66.554375 
Q 264.25 66.554375 264.25 64.554375 
L 264.25 21.52 
Q 264.25 19.52 262.25 19.52 
L 213.917188 19.52 
Q 211.917188 19.52 211.917188 21.52 
L 211.917188 64.554375 
Q 211.917188 66.554375 213.917188 66.554375 
z
" style="fill: #ffffff; opacity: 0.8; stroke: #cccccc; stroke-linejoin: miter"/>
    </g>
    <g id="line2d_18">
     <path d="M 215.917188 27.618438 
L 225.917188 27.618438 
L 235.917188 27.618438 
" style="fill: none; stroke: #000000; stroke-opacity: 0.5; stroke-width: 0.5; stroke-linecap: square"/>
    </g>
    <g id="text_17">
     <!-- all -->
     <g transform="translate(243.917188 31.118438) scale(0.1 -0.1)">
      <defs>
       <path id="DejaVuSans-61" d="M 2194 1759 
Q 1497 1759 1228 1600 
Q 959 1441 959 1056 
Q 959 750 1161 570 
Q 1363 391 1709 391 
Q 2188 391 2477 730 
Q 2766 1069 2766 1631 
L 2766 1759 
L 2194 1759 
z
M 3341 1997 
L 3341 0 
L 2766 0 
L 2766 531 
Q 2569 213 2275 61 
Q 1981 -91 1556 -91 
Q 1019 -91 701 211 
Q 384 513 384 1019 
Q 384 1609 779 1909 
Q 1175 2209 1959 2209 
L 2766 2209 
L 2766 2266 
Q 2766 2663 2505 2880 
Q 2244 3097 1772 3097 
Q 1472 3097 1187 3025 
Q 903 2953 641 2809 
L 641 3341 
Q 956 3463 1253 3523 
Q 1550 3584 1831 3584 
Q 2591 3584 2966 3190 
Q 3341 2797 3341 1997 
z
" transform="scale(0.015625)"/>
       <path id="DejaVuSans-6c" d="M 603 4863 
L 1178 4863 
L 1178 0 
L 603 0 
L 603 4863 
z
" transform="scale(0.015625)"/>
      </defs>
      <use xlink:href="#DejaVuSans-61"/>
      <use xlink:href="#DejaVuSans-6c" transform="translate(61.279297 0)"/>
      <use xlink:href="#DejaVuSans-6c" transform="translate(89.0625 0)"/>
     </g>
    </g>
    <g id="line2d_19">
     <path d="M 215.917188 42.296563 
L 225.917188 42.296563 
L 235.917188 42.296563 
" style="fill: none; stroke: #0000ff; stroke-opacity: 0.5; stroke-linecap: square"/>
    </g>
    <g id="text_18">
     <!-- 1-1 -->
     <g transform="translate(243.917188 45.796563) scale(0.1 -0.1)">
      <defs>
       <path id="DejaVuSans-2d" d="M 313 2009 
L 1997 2009 
L 1997 1497 
L 313 1497 
L 313 2009 
z
" transform="scale(0.015625)"/>
      </defs>
      <use xlink:href="#DejaVuSans-31"/>
      <use xlink:href="#DejaVuSans-2d" transform="translate(63.623047 0)"/>
      <use xlink:href="#DejaVuSans-31" transform="translate(99.707031 0)"/>
     </g>
    </g>
    <g id="line2d_20">
     <path d="M 215.917188 56.974688 
L 225.917188 56.974688 
L 235.917188 56.974688 
" style="fill: none; stroke: #ff0000; stroke-opacity: 0.5; stroke-linecap: square"/>
    </g>
    <g id="text_19">
     <!-- 2-2 -->
     <g transform="translate(243.917188 60.474688) scale(0.1 -0.1)">
      <use xlink:href="#DejaVuSans-32"/>
      <use xlink:href="#DejaVuSans-2d" transform="translate(63.623047 0)"/>
      <use xlink:href="#DejaVuSans-32" transform="translate(99.707031 0)"/>
     </g>
    </g>
   </g>
  </g>
 </g>
 <defs>
  <clipPath id="pd40a8bba6d">
   <rect x="33.7" y="14.52" width="235.55" height="174.08"/>
  </clipPath>
 </defs>
</svg>
