<?xml version="1.0" encoding="utf-8" standalone="no"?>
<!DOCTYPE svg PUBLIC "-//W3C//DTD SVG 1.1//EN"
  "http://www.w3.org/Graphics/SVG/1.1/DTD/svg11.dtd">
<svg xmlns:xlink="http://www.w3.org/1999/xlink" width="288pt" height="216pt" viewBox="0 0 288 216" xmlns="http://www.w3.org/2000/svg" version="1.1">
 <metadata>
  <rdf:RDF xmlns:dc="http://purl.org/dc/elements/1.1/" xmlns:cc="http://creativecommons.org/ns#" xmlns:rdf="http://www.w3.org/1999/02/22-rdf-syntax-ns#">
   <cc:Work>
    <dc:type rdf:resource="http://purl.org/dc/dcmitype/StillImage"/>
    <dc:date>2025-09-17T23:58:30.809741</dc:date>
    <dc:format>image/svg+xml</dc:format>
    <dc:creator>
     <cc:Agent>
      <dc:title>Matplotlib v3.10.0, https://matplotlib.org/</dc:title>
     </cc:Agent>
    </dc:creator>
   </cc:Work>
  </rdf:RDF>
 </metadata>
 <defs>
  <style type="text/css">*{stroke-linejoin: round; stroke-linecap: butt}</style>
 </defs>
 <g id="figure_1">
  <g id="patch_1">
   <path d="M 0 216 
L 288 216 
L 288 0 
L 0 0 
z
" style="fill: #ffffff"/>
  </g>
  <g id="axes_1">
   <g id="patch_2">
    <path d="M 33.7 188.6 
L 269.25 188.6 
L 269.25 14.52 
L 33.7 14.52 
z
" style="fill: #ffffff"/>
   </g>
   <g id="matplotlib.axis_1">
    <g id="xtick_1">
     <g id="line2d_1">
      <defs>
       <path id="m7ae3a84b96" d="M 0 0 
L 0 3.5 
" style="stroke: #000000; stroke-width: 0.8"/>
      </defs>
      <g>
       <use xlink:href="#m7ae3a84b96" x="44.138477" y="188.6" style="stroke: #000000; stroke-width: 0.8"/>
      </g>
     </g>
     <g id="text_1">
      <!-- 0 -->
      <g transform="translate(40.957227 203.198437) scale(0.1 -0.1)">
       <defs>
        <path id="DejaVuSans-30" d="M 2034 4250 
Q 1547 4250 1301 3770 
Q 1056 3291 1056 2328 
Q 1056 1369 1301 889 
Q 1547 409 2034 409 
Q 2525 409 2770 889 
Q 3016 1369 3016 2328 
Q 3016 3291 2770 3770 
Q 2525 4250 2034 4250 
z
M 2034 4750 
Q 2819 4750 3233 4129 
Q 3647 3509 3647 2328 
Q 3647 1150 3233 529 
Q 2819 -91 2034 -91 
Q 1250 -91 836 529 
Q 422 1150 422 2328 
Q 422 3509 836 4129 
Q 1250 4750 2034 4750 
z
" transform="scale(0.015625)"/>
       </defs>
       <use xlink:href="#DejaVuSans-30"/>
      </g>
     </g>
    </g>
    <g id="xtick_2">
     <g id="line2d_2">
      <g>
       <use xlink:href="#m7ae3a84b96" x="87.073086" y="188.6" style="stroke: #000000; stroke-width: 0.8"/>
      </g>
     </g>
     <g id="text_2">
      <!-- 200 -->
      <g transform="translate(77.529336 203.198437) scale(0.1 -0.1)">
       <defs>
        <path id="DejaVuSans-32" d="M 1228 531 
L 3431 531 
L 3431 0 
L 469 0 
L 469 531 
Q 828 903 1448 1529 
Q 2069 2156 2228 2338 
Q 2531 2678 2651 2914 
Q 2772 3150 2772 3378 
Q 2772 3750 2511 3984 
Q 2250 4219 1831 4219 
Q 1534 4219 1204 4116 
Q 875 4013 500 3803 
L 500 4441 
Q 881 4594 1212 4672 
Q 1544 4750 1819 4750 
Q 2544 4750 2975 4387 
Q 3406 4025 3406 3419 
Q 3406 3131 3298 2873 
Q 3191 2616 2906 2266 
Q 2828 2175 2409 1742 
Q 1991 1309 1228 531 
z
" transform="scale(0.015625)"/>
       </defs>
       <use xlink:href="#DejaVuSans-32"/>
       <use xlink:href="#DejaVuSans-30" transform="translate(63.623047 0)"/>
       <use xlink:href="#DejaVuSans-30" transform="translate(127.246094 0)"/>
      </g>
     </g>
    </g>
    <g id="xtick_3">
     <g id="line2d_3">
      <g>
       <use xlink:href="#m7ae3a84b96" x="130.007695" y="188.6" style="stroke: #000000; stroke-width: 0.8"/>
      </g>
     </g>
     <g id="text_3">
      <!-- 400 -->
      <g transform="translate(120.463945 203.198437) scale(0.1 -0.1)">
       <defs>
        <path id="DejaVuSans-34" d="M 2419 4116 
L 825 1625 
L 2419 1625 
L 2419 4116 
z
M 2253 4666 
L 3047 4666 
L 3047 1625 
L 3713 1625 
L 3713 1100 
L 3047 1100 
L 3047 0 
L 2419 0 
L 2419 1100 
L 313 1100 
L 313 1709 
L 2253 4666 
z
" transform="scale(0.015625)"/>
       </defs>
       <use xlink:href="#DejaVuSans-34"/>
       <use xlink:href="#DejaVuSans-30" transform="translate(63.623047 0)"/>
       <use xlink:href="#DejaVuSans-30" transform="translate(127.246094 0)"/>
      </g>
     </g>
    </g>
    <g id="xtick_4">
     <g id="line2d_4">
      <g>
       <use xlink:href="#m7ae3a84b96" x="172.942305" y="188.6" style="stroke: #000000; stroke-width: 0.8"/>
      </g>
     </g>
     <g id="text_4">
      <!-- 600 -->
      <g transform="translate(163.398555 203.198437) scale(0.1 -0.1)">
       <defs>
        <path id="DejaVuSans-36" d="M 2113 2584 
Q 1688 2584 1439 2293 
Q 1191 2003 1191 1497 
Q 1191 994 1439 701 
Q 1688 409 2113 409 
Q 2538 409 2786 701 
Q 3034 994 3034 1497 
Q 3034 2003 2786 2293 
Q 2538 2584 2113 2584 
z
M 3366 4563 
L 3366 3988 
Q 3128 4100 2886 4159 
Q 2644 4219 2406 4219 
Q 1781 4219 1451 3797 
Q 1122 3375 1075 2522 
Q 1259 2794 1537 2939 
Q 1816 3084 2150 3084 
Q 2853 3084 3261 2657 
Q 3669 2231 3669 1497 
Q 3669 778 3244 343 
Q 2819 -91 2113 -91 
Q 1303 -91 875 529 
Q 447 1150 447 2328 
Q 447 3434 972 4092 
Q 1497 4750 2381 4750 
Q 2619 4750 2861 4703 
Q 3103 4656 3366 4563 
z
" transform="scale(0.015625)"/>
       </defs>
       <use xlink:href="#DejaVuSans-36"/>
       <use xlink:href="#DejaVuSans-30" transform="translate(63.623047 0)"/>
       <use xlink:href="#DejaVuSans-30" transform="translate(127.246094 0)"/>
      </g>
     </g>
    </g>
    <g id="xtick_5">
     <g id="line2d_5">
      <g>
       <use xlink:href="#m7ae3a84b96" x="215.876914" y="188.6" style="stroke: #000000; stroke-width: 0.8"/>
      </g>
     </g>
     <g id="text_5">
      <!-- 800 -->
      <g transform="translate(206.333164 203.198437) scale(0.1 -0.1)">
       <defs>
        <path id="DejaVuSans-38" d="M 2034 2216 
Q 1584 2216 1326 1975 
Q 1069 1734 1069 1313 
Q 1069 891 1326 650 
Q 1584 409 2034 409 
Q 2484 409 2743 651 
Q 3003 894 3003 1313 
Q 3003 1734 2745 1975 
Q 2488 2216 2034 2216 
z
M 1403 2484 
Q 997 2584 770 2862 
Q 544 3141 544 3541 
Q 544 4100 942 4425 
Q 1341 4750 2034 4750 
Q 2731 4750 3128 4425 
Q 3525 4100 3525 3541 
Q 3525 3141 3298 2862 
Q 3072 2584 2669 2484 
Q 3125 2378 3379 2068 
Q 3634 1759 3634 1313 
Q 3634 634 3220 271 
Q 2806 -91 2034 -91 
Q 1263 -91 848 271 
Q 434 634 434 1313 
Q 434 1759 690 2068 
Q 947 2378 1403 2484 
z
M 1172 3481 
Q 1172 3119 1398 2916 
Q 1625 2713 2034 2713 
Q 2441 2713 2670 2916 
Q 2900 3119 2900 3481 
Q 2900 3844 2670 4047 
Q 2441 4250 2034 4250 
Q 1625 4250 1398 4047 
Q 1172 3844 1172 3481 
z
" transform="scale(0.015625)"/>
       </defs>
       <use xlink:href="#DejaVuSans-38"/>
       <use xlink:href="#DejaVuSans-30" transform="translate(63.623047 0)"/>
       <use xlink:href="#DejaVuSans-30" transform="translate(127.246094 0)"/>
      </g>
     </g>
    </g>
    <g id="xtick_6">
     <g id="line2d_6">
      <g>
       <use xlink:href="#m7ae3a84b96" x="258.811523" y="188.6" style="stroke: #000000; stroke-width: 0.8"/>
      </g>
     </g>
     <g id="text_6">
      <!-- 1000 -->
      <g transform="translate(246.086523 203.198437) scale(0.1 -0.1)">
       <defs>
        <path id="DejaVuSans-31" d="M 794 531 
L 1825 531 
L 1825 4091 
L 703 3866 
L 703 4441 
L 1819 4666 
L 2450 4666 
L 2450 531 
L 3481 531 
L 3481 0 
L 794 0 
L 794 531 
z
" transform="scale(0.015625)"/>
       </defs>
       <use xlink:href="#DejaVuSans-31"/>
       <use xlink:href="#DejaVuSans-30" transform="translate(63.623047 0)"/>
       <use xlink:href="#DejaVuSans-30" transform="translate(127.246094 0)"/>
       <use xlink:href="#DejaVuSans-30" transform="translate(190.869141 0)"/>
      </g>
     </g>
    </g>
    <g id="text_7">
     <!-- q (nm) -->
     <g transform="translate(134.771094 216.876563) scale(0.1 -0.1)">
      <defs>
       <path id="DejaVuSans-71" d="M 947 1747 
Q 947 1113 1208 752 
Q 1469 391 1925 391 
Q 2381 391 2643 752 
Q 2906 1113 2906 1747 
Q 2906 2381 2643 2742 
Q 2381 3103 1925 3103 
Q 1469 3103 1208 2742 
Q 947 2381 947 1747 
z
M 2906 525 
Q 2725 213 2448 61 
Q 2172 -91 1784 -91 
Q 1150 -91 751 415 
Q 353 922 353 1747 
Q 353 2572 751 3078 
Q 1150 3584 1784 3584 
Q 2172 3584 2448 3432 
Q 2725 3281 2906 2969 
L 2906 3500 
L 3481 3500 
L 3481 -1331 
L 2906 -1331 
L 2906 525 
z
" transform="scale(0.015625)"/>
       <path id="DejaVuSans-20" transform="scale(0.015625)"/>
       <path id="DejaVuSans-28" d="M 1984 4856 
Q 1566 4138 1362 3434 
Q 1159 2731 1159 2009 
Q 1159 1288 1364 580 
Q 1569 -128 1984 -844 
L 1484 -844 
Q 1016 -109 783 600 
Q 550 1309 550 2009 
Q 550 2706 781 3412 
Q 1013 4119 1484 4856 
L 1984 4856 
z
" transform="scale(0.015625)"/>
       <path id="DejaVuSans-6e" d="M 3513 2113 
L 3513 0 
L 2938 0 
L 2938 2094 
Q 2938 2591 2744 2837 
Q 2550 3084 2163 3084 
Q 1697 3084 1428 2787 
Q 1159 2491 1159 1978 
L 1159 0 
L 581 0 
L 581 3500 
L 1159 3500 
L 1159 2956 
Q 1366 3272 1645 3428 
Q 1925 3584 2291 3584 
Q 2894 3584 3203 3211 
Q 3513 2838 3513 2113 
z
" transform="scale(0.015625)"/>
       <path id="DejaVuSans-6d" d="M 3328 2828 
Q 3544 3216 3844 3400 
Q 4144 3584 4550 3584 
Q 5097 3584 5394 3201 
Q 5691 2819 5691 2113 
L 5691 0 
L 5113 0 
L 5113 2094 
Q 5113 2597 4934 2840 
Q 4756 3084 4391 3084 
Q 3944 3084 3684 2787 
Q 3425 2491 3425 1978 
L 3425 0 
L 2847 0 
L 2847 2094 
Q 2847 2600 2669 2842 
Q 2491 3084 2119 3084 
Q 1678 3084 1418 2786 
Q 1159 2488 1159 1978 
L 1159 0 
L 581 0 
L 581 3500 
L 1159 3500 
L 1159 2956 
Q 1356 3278 1631 3431 
Q 1906 3584 2284 3584 
Q 2666 3584 2933 3390 
Q 3200 3197 3328 2828 
z
" transform="scale(0.015625)"/>
       <path id="DejaVuSans-29" d="M 513 4856 
L 1013 4856 
Q 1481 4119 1714 3412 
Q 1947 2706 1947 2009 
Q 1947 1309 1714 600 
Q 1481 -109 1013 -844 
L 513 -844 
Q 928 -128 1133 580 
Q 1338 1288 1338 2009 
Q 1338 2731 1133 3434 
Q 928 4138 513 4856 
z
" transform="scale(0.015625)"/>
      </defs>
      <use xlink:href="#DejaVuSans-71"/>
      <use xlink:href="#DejaVuSans-20" transform="translate(63.476562 0)"/>
      <use xlink:href="#DejaVuSans-28" transform="translate(95.263672 0)"/>
      <use xlink:href="#DejaVuSans-6e" transform="translate(134.277344 0)"/>
      <use xlink:href="#DejaVuSans-6d" transform="translate(197.65625 0)"/>
      <use xlink:href="#DejaVuSans-29" transform="translate(295.068359 0)"/>
     </g>
    </g>
   </g>
   <g id="matplotlib.axis_2">
    <g id="ytick_1">
     <g id="line2d_7">
      <defs>
       <path id="mc11decfd55" d="M 0 0 
L -3.5 0 
" style="stroke: #000000; stroke-width: 0.8"/>
      </defs>
      <g>
       <use xlink:href="#mc11decfd55" x="33.7" y="180.687273" style="stroke: #000000; stroke-width: 0.8"/>
      </g>
     </g>
     <g id="text_8">
      <!-- 0 -->
      <g transform="translate(20.3375 184.486491) scale(0.1 -0.1)">
       <use xlink:href="#DejaVuSans-30"/>
      </g>
     </g>
    </g>
    <g id="ytick_2">
     <g id="line2d_8">
      <g>
       <use xlink:href="#mc11decfd55" x="33.7" y="155.203188" style="stroke: #000000; stroke-width: 0.8"/>
      </g>
     </g>
     <g id="text_9">
      <!-- 100 -->
      <g transform="translate(7.6125 159.002407) scale(0.1 -0.1)">
       <use xlink:href="#DejaVuSans-31"/>
       <use xlink:href="#DejaVuSans-30" transform="translate(63.623047 0)"/>
       <use xlink:href="#DejaVuSans-30" transform="translate(127.246094 0)"/>
      </g>
     </g>
    </g>
    <g id="ytick_3">
     <g id="line2d_9">
      <g>
       <use xlink:href="#mc11decfd55" x="33.7" y="129.719104" style="stroke: #000000; stroke-width: 0.8"/>
      </g>
     </g>
     <g id="text_10">
      <!-- 200 -->
      <g transform="translate(7.6125 133.518323) scale(0.1 -0.1)">
       <use xlink:href="#DejaVuSans-32"/>
       <use xlink:href="#DejaVuSans-30" transform="translate(63.623047 0)"/>
       <use xlink:href="#DejaVuSans-30" transform="translate(127.246094 0)"/>
      </g>
     </g>
    </g>
    <g id="ytick_4">
     <g id="line2d_10">
      <g>
       <use xlink:href="#mc11decfd55" x="33.7" y="104.23502" style="stroke: #000000; stroke-width: 0.8"/>
      </g>
     </g>
     <g id="text_11">
      <!-- 300 -->
      <g transform="translate(7.6125 108.034239) scale(0.1 -0.1)">
       <defs>
        <path id="DejaVuSans-33" d="M 2597 2516 
Q 3050 2419 3304 2112 
Q 3559 1806 3559 1356 
Q 3559 666 3084 287 
Q 2609 -91 1734 -91 
Q 1441 -91 1130 -33 
Q 819 25 488 141 
L 488 750 
Q 750 597 1062 519 
Q 1375 441 1716 441 
Q 2309 441 2620 675 
Q 2931 909 2931 1356 
Q 2931 1769 2642 2001 
Q 2353 2234 1838 2234 
L 1294 2234 
L 1294 2753 
L 1863 2753 
Q 2328 2753 2575 2939 
Q 2822 3125 2822 3475 
Q 2822 3834 2567 4026 
Q 2313 4219 1838 4219 
Q 1578 4219 1281 4162 
Q 984 4106 628 3988 
L 628 4550 
Q 988 4650 1302 4700 
Q 1616 4750 1894 4750 
Q 2613 4750 3031 4423 
Q 3450 4097 3450 3541 
Q 3450 3153 3228 2886 
Q 3006 2619 2597 2516 
z
" transform="scale(0.015625)"/>
       </defs>
       <use xlink:href="#DejaVuSans-33"/>
       <use xlink:href="#DejaVuSans-30" transform="translate(63.623047 0)"/>
       <use xlink:href="#DejaVuSans-30" transform="translate(127.246094 0)"/>
      </g>
     </g>
    </g>
    <g id="ytick_5">
     <g id="line2d_11">
      <g>
       <use xlink:href="#mc11decfd55" x="33.7" y="78.750936" style="stroke: #000000; stroke-width: 0.8"/>
      </g>
     </g>
     <g id="text_12">
      <!-- 400 -->
      <g transform="translate(7.6125 82.550155) scale(0.1 -0.1)">
       <use xlink:href="#DejaVuSans-34"/>
       <use xlink:href="#DejaVuSans-30" transform="translate(63.623047 0)"/>
       <use xlink:href="#DejaVuSans-30" transform="translate(127.246094 0)"/>
      </g>
     </g>
    </g>
    <g id="ytick_6">
     <g id="line2d_12">
      <g>
       <use xlink:href="#mc11decfd55" x="33.7" y="53.266852" style="stroke: #000000; stroke-width: 0.8"/>
      </g>
     </g>
     <g id="text_13">
      <!-- 500 -->
      <g transform="translate(7.6125 57.06607) scale(0.1 -0.1)">
       <defs>
        <path id="DejaVuSans-35" d="M 691 4666 
L 3169 4666 
L 3169 4134 
L 1269 4134 
L 1269 2991 
Q 1406 3038 1543 3061 
Q 1681 3084 1819 3084 
Q 2600 3084 3056 2656 
Q 3513 2228 3513 1497 
Q 3513 744 3044 326 
Q 2575 -91 1722 -91 
Q 1428 -91 1123 -41 
Q 819 9 494 109 
L 494 744 
Q 775 591 1075 516 
Q 1375 441 1709 441 
Q 2250 441 2565 725 
Q 2881 1009 2881 1497 
Q 2881 1984 2565 2268 
Q 2250 2553 1709 2553 
Q 1456 2553 1204 2497 
Q 953 2441 691 2322 
L 691 4666 
z
" transform="scale(0.015625)"/>
       </defs>
       <use xlink:href="#DejaVuSans-35"/>
       <use xlink:href="#DejaVuSans-30" transform="translate(63.623047 0)"/>
       <use xlink:href="#DejaVuSans-30" transform="translate(127.246094 0)"/>
      </g>
     </g>
    </g>
    <g id="ytick_7">
     <g id="line2d_13">
      <g>
       <use xlink:href="#mc11decfd55" x="33.7" y="27.782767" style="stroke: #000000; stroke-width: 0.8"/>
      </g>
     </g>
     <g id="text_14">
      <!-- 600 -->
      <g transform="translate(7.6125 31.581986) scale(0.1 -0.1)">
       <use xlink:href="#DejaVuSans-36"/>
       <use xlink:href="#DejaVuSans-30" transform="translate(63.623047 0)"/>
       <use xlink:href="#DejaVuSans-30" transform="translate(127.246094 0)"/>
      </g>
     </g>
    </g>
    <g id="text_15">
     <!-- rdf -->
     <g transform="translate(1.532813 108.462344) rotate(-90) scale(0.1 -0.1)">
      <defs>
       <path id="DejaVuSans-72" d="M 2631 2963 
Q 2534 3019 2420 3045 
Q 2306 3072 2169 3072 
Q 1681 3072 1420 2755 
Q 1159 2438 1159 1844 
L 1159 0 
L 581 0 
L 581 3500 
L 1159 3500 
L 1159 2956 
Q 1341 3275 1631 3429 
Q 1922 3584 2338 3584 
Q 2397 3584 2469 3576 
Q 2541 3569 2628 3553 
L 2631 2963 
z
" transform="scale(0.015625)"/>
       <path id="DejaVuSans-64" d="M 2906 2969 
L 2906 4863 
L 3481 4863 
L 3481 0 
L 2906 0 
L 2906 525 
Q 2725 213 2448 61 
Q 2172 -91 1784 -91 
Q 1150 -91 751 415 
Q 353 922 353 1747 
Q 353 2572 751 3078 
Q 1150 3584 1784 3584 
Q 2172 3584 2448 3432 
Q 2725 3281 2906 2969 
z
M 947 1747 
Q 947 1113 1208 752 
Q 1469 391 1925 391 
Q 2381 391 2643 752 
Q 2906 1113 2906 1747 
Q 2906 2381 2643 2742 
Q 2381 3103 1925 3103 
Q 1469 3103 1208 2742 
Q 947 2381 947 1747 
z
" transform="scale(0.015625)"/>
       <path id="DejaVuSans-66" d="M 2375 4863 
L 2375 4384 
L 1825 4384 
Q 1516 4384 1395 4259 
Q 1275 4134 1275 3809 
L 1275 3500 
L 2222 3500 
L 2222 3053 
L 1275 3053 
L 1275 0 
L 697 0 
L 697 3053 
L 147 3053 
L 147 3500 
L 697 3500 
L 697 3744 
Q 697 4328 969 4595 
Q 1241 4863 1831 4863 
L 2375 4863 
z
" transform="scale(0.015625)"/>
      </defs>
      <use xlink:href="#DejaVuSans-72"/>
      <use xlink:href="#DejaVuSans-64" transform="translate(39.363281 0)"/>
      <use xlink:href="#DejaVuSans-66" transform="translate(102.839844 0)"/>
     </g>
    </g>
   </g>
   <g id="line2d_14">
    <path d="M 44.406818 180.687273 
L 92.708254 180.687273 
L 93.244936 166.040468 
L 94.318301 166.660371 
L 94.854984 180.687273 
L 95.391667 180.687273 
L 95.928349 154.350608 
L 96.465032 141.988441 
L 97.538397 143.528545 
L 98.07508 180.687273 
L 98.611762 144.978509 
L 99.148445 169.015465 
L 99.685128 134.897791 
L 100.758493 158.652398 
L 101.295175 115.818263 
L 101.831858 138.242079 
L 102.368541 170.270655 
L 102.905223 129.551134 
L 103.441906 150.558339 
L 103.978589 131.369169 
L 104.515271 141.931058 
L 105.588636 143.273214 
L 106.125319 171.495004 
L 106.662002 126.476451 
L 107.735367 145.756303 
L 108.272049 146.338491 
L 108.808732 155.351512 
L 109.345415 97.619245 
L 109.882097 164.343811 
L 110.41878 156.567473 
L 110.955463 125.308125 
L 111.492145 110.615685 
L 112.028828 142.371593 
L 112.56551 158.057108 
L 113.102193 128.702175 
L 113.638876 151.43849 
L 114.175558 166.286176 
L 114.712241 138.138612 
L 115.248923 124.808682 
L 115.785606 166.926141 
L 116.322289 160.351323 
L 116.858971 147.292456 
L 117.395654 154.361447 
L 117.932337 154.742932 
L 118.469019 123.15257 
L 119.005702 142.878739 
L 119.542384 155.839081 
L 120.079067 162.313608 
L 120.61575 150.492747 
L 121.152432 162.822162 
L 121.689115 127.831265 
L 122.225797 151.725118 
L 122.76248 140.691881 
L 123.299163 158.141577 
L 123.835845 152.883435 
L 124.372528 153.254124 
L 124.909211 131.961627 
L 125.982576 133.231336 
L 126.519258 144.256469 
L 127.055941 134.452057 
L 127.592624 155.3303 
L 128.129306 140.632978 
L 128.665989 141.139922 
L 129.202671 151.399867 
L 129.739354 146.945775 
L 130.276037 137.844233 
L 130.812719 143.074707 
L 131.349402 171.399517 
L 131.886085 166.925544 
L 132.422767 126.307501 
L 132.95945 144.870791 
L 133.496132 149.723216 
L 134.032815 150.091933 
L 134.569498 146.134878 
L 135.642863 146.940759 
L 136.179545 151.502416 
L 137.789593 140.41591 
L 138.326276 148.836268 
L 138.862959 149.196112 
L 139.399641 165.118624 
L 139.936324 165.292525 
L 140.473006 142.628106 
L 141.009689 161.867959 
L 141.546372 154.629814 
L 142.083054 154.914523 
L 142.619737 151.552899 
L 143.156419 159.072697 
L 143.693102 169.996196 
L 144.229785 134.85476 
L 144.766467 145.806508 
L 145.30315 142.724472 
L 145.839833 163.613115 
L 146.376515 167.170982 
L 147.44988 154.213438 
L 147.986563 164.311701 
L 148.523246 157.996572 
L 149.059928 145.394316 
L 149.596611 155.280283 
L 150.133293 149.249346 
L 150.669976 162.01407 
L 151.206659 146.795412 
L 151.743341 165.435173 
L 152.280024 150.485071 
L 152.816707 144.801742 
L 153.353389 136.270037 
L 153.890072 171.890507 
L 154.426754 145.841832 
L 154.963437 157.681366 
L 155.50012 143.662343 
L 156.036802 152.479011 
L 156.573485 155.54169 
L 157.110167 150.245083 
L 157.64685 156.014891 
L 158.183533 137.237356 
L 159.256898 167.361191 
L 159.793581 154.281866 
L 160.330263 149.292744 
L 160.866946 162.541847 
L 161.403628 144.72779 
L 161.940311 147.599901 
L 162.476994 137.810527 
L 163.013676 148.194647 
L 163.550359 155.917162 
L 164.087041 146.31876 
L 164.623724 146.624191 
L 165.160407 154.160311 
L 165.697089 154.393957 
L 166.233772 138.039205 
L 166.770455 157.200963 
L 167.307137 148.092324 
L 167.84382 152.990567 
L 168.380502 137.212267 
L 168.917185 137.585383 
L 169.453868 155.946851 
L 169.99055 158.387313 
L 170.527233 149.731996 
L 171.063915 147.800672 
L 171.600598 154.599124 
L 172.137281 137.570855 
L 172.673963 155.033074 
L 173.210646 146.765505 
L 173.747329 149.148453 
L 174.284011 130.640554 
L 174.820694 141.391749 
L 175.357376 156.071643 
L 175.894059 148.133212 
L 176.430742 142.342394 
L 176.967424 140.649671 
L 177.504107 150.900243 
L 178.040789 145.2288 
L 178.577472 153.328217 
L 179.114155 153.545331 
L 179.650837 144.142884 
L 180.18752 155.880115 
L 180.724203 157.968027 
L 181.260885 146.874611 
L 181.797568 149.001602 
L 182.33425 164.042541 
L 182.870933 151.325111 
L 183.407616 158.83511 
L 183.944298 153.581395 
L 184.480981 144.821912 
L 185.017663 157.552168 
L 185.554346 164.792001 
L 186.091029 142.125221 
L 186.627711 151.11336 
L 187.164394 147.881768 
L 187.701077 142.985282 
L 188.237759 134.760599 
L 188.774442 158.738228 
L 189.847807 155.733248 
L 190.921172 162.654308 
L 191.457855 151.393323 
L 191.994537 149.990076 
L 193.604585 150.647881 
L 194.141268 149.292634 
L 194.677951 157.308894 
L 195.214633 143.547284 
L 195.751316 148.419344 
L 196.287998 160.852527 
L 196.824681 144.326222 
L 197.361364 149.093827 
L 197.898046 143.338099 
L 198.434729 145.081287 
L 198.971411 140.907619 
L 200.044777 157.437693 
L 200.581459 153.267419 
L 201.118142 154.887921 
L 201.654825 153.639809 
L 202.191507 156.650992 
L 202.72819 154.004788 
L 203.264872 152.789503 
L 203.801555 154.36223 
L 204.338238 142.151955 
L 204.87492 156.079717 
L 205.411603 139.947179 
L 205.948285 157.754088 
L 206.484968 139.144195 
L 207.021651 144.742496 
L 207.558333 142.333127 
L 208.095016 146.525495 
L 208.631699 153.274895 
L 209.168381 148.265357 
L 209.705064 151.052226 
L 210.241746 155.083849 
L 211.315112 152.883986 
L 211.851794 153.061683 
L 212.388477 156.98082 
L 212.925159 154.651629 
L 213.461842 154.816446 
L 213.998525 152.53133 
L 214.535207 151.491905 
L 215.07189 155.301579 
L 215.608573 153.057693 
L 216.145255 149.648379 
L 216.681938 159.332311 
L 217.21862 150.032147 
L 217.755303 157.251971 
L 218.291986 150.408923 
L 218.828668 137.863073 
L 219.365351 150.778776 
L 219.902033 156.677671 
L 220.438716 159.096322 
L 221.512081 144.762176 
L 222.048764 155.021878 
L 222.585447 152.957501 
L 223.122129 154.226055 
L 223.658812 141.232734 
L 224.195494 151.272478 
L 224.732177 156.8618 
L 225.26886 143.007326 
L 225.805542 146.440484 
L 226.342225 154.089226 
L 226.878907 143.668487 
L 227.41559 158.605955 
L 227.952273 149.326373 
L 228.488955 145.351449 
L 229.025638 143.489835 
L 229.562321 150.895902 
L 230.099003 144.939176 
L 230.635686 150.222241 
L 231.172368 140.300272 
L 232.245734 162.719924 
L 232.782416 154.881684 
L 233.319099 153.054225 
L 233.855781 152.229043 
L 234.392464 154.340993 
L 234.929147 159.340466 
L 235.465829 149.811228 
L 236.002512 154.781208 
L 236.539195 151.109026 
L 237.075877 163.608142 
L 237.61256 150.492731 
L 238.149242 141.275804 
L 238.685925 152.6915 
L 239.222608 154.701418 
L 239.75929 159.458625 
L 240.295973 144.887501 
L 240.832656 147.821581 
L 241.369338 153.447936 
L 241.906021 146.371197 
L 242.442703 159.131173 
L 242.979386 149.420699 
L 243.516069 149.588736 
L 244.052751 156.825664 
L 244.589434 137.61452 
L 245.126116 149.210626 
L 245.662799 157.205452 
L 246.199482 156.464877 
L 246.736164 150.569336 
L 247.272847 153.296383 
L 247.80953 145.777227 
L 248.346212 143.41972 
L 248.882895 155.410443 
L 249.419577 149.675424 
L 249.95626 147.335549 
L 250.492943 152.485575 
L 251.029625 154.282145 
L 251.566308 156.881177 
L 252.10299 148.837168 
L 252.639673 153.875693 
L 253.176356 150.780005 
L 253.713038 154.953827 
L 254.249721 147.884587 
L 254.786404 150.439505 
L 255.323086 149.801156 
L 255.859769 153.109287 
L 256.396451 146.976884 
L 257.469817 158.180451 
L 258.006499 156.748914 
L 258.543182 156.868668 
L 258.543182 156.868668 
" clip-path="url(#p2464153d84)" style="fill: none; stroke: #000000; stroke-opacity: 0.5; stroke-width: 0.5; stroke-linecap: square"/>
   </g>
   <g id="line2d_15">
    <path d="M 44.406818 180.687273 
L 92.708254 180.687273 
L 93.244936 135.831427 
L 94.318301 137.729878 
L 94.854984 180.687273 
L 95.391667 180.687273 
L 95.928349 140.35925 
L 96.465032 62.17208 
L 97.001715 103.273324 
L 97.538397 104.821524 
L 98.07508 180.687273 
L 98.611762 144.234572 
L 100.22181 146.297482 
L 100.758493 180.687273 
L 101.295175 114.466816 
L 101.831858 115.693067 
L 102.368541 148.786376 
L 102.905223 118.045495 
L 103.441906 180.687273 
L 103.978589 59.857903 
L 104.515271 180.687273 
L 105.051954 151.535084 
L 105.588636 180.687273 
L 107.198684 99.083748 
L 107.735367 100.455189 
L 108.272049 128.090695 
L 108.808732 128.960088 
L 109.345415 28.049756 
L 109.882097 155.661343 
L 110.41878 180.687273 
L 110.955463 132.230513 
L 111.492145 180.687273 
L 112.028828 180.687273 
L 112.56551 157.585643 
L 113.102193 89.713346 
L 113.638876 135.900072 
L 114.175558 158.63559 
L 114.712241 115.534627 
L 115.248923 180.687273 
L 115.785606 180.687273 
L 116.322289 139.168035 
L 116.858971 160.232947 
L 117.395654 160.53156 
L 117.932337 140.959998 
L 118.469019 141.53171 
L 119.542384 180.687273 
L 120.079067 124.417916 
L 120.61575 143.698973 
L 121.152432 180.687273 
L 121.689115 90.758631 
L 122.225797 145.20863 
L 122.76248 128.193314 
L 123.299163 180.687273 
L 123.835845 180.687273 
L 124.909211 114.36625 
L 125.445893 115.239022 
L 126.519258 148.810314 
L 127.055941 149.221636 
L 127.592624 165.156125 
L 128.129306 104.02083 
L 128.665989 150.40883 
L 129.202671 120.892141 
L 129.739354 121.639643 
L 130.276037 151.5302 
L 130.812719 166.28871 
L 131.349402 152.243516 
L 131.886085 166.638839 
L 132.422767 152.930926 
L 133.496132 153.59372 
L 134.032815 140.530883 
L 134.569498 154.233091 
L 135.10618 141.472911 
L 135.642863 154.850093 
L 136.716228 130.204175 
L 137.252911 155.735785 
L 137.789593 143.687953 
L 138.326276 144.10838 
L 138.862959 156.576849 
L 139.399641 144.928027 
L 139.936324 157.114063 
L 140.473006 122.409166 
L 141.009689 157.633612 
L 142.083054 135.584954 
L 142.619737 136.075259 
L 143.156419 180.687273 
L 143.693102 180.687273 
L 144.229785 137.49894 
L 144.766467 127.276095 
L 145.30315 138.410512 
L 145.839833 159.771427 
L 146.913198 160.206007 
L 147.44988 180.687273 
L 149.059928 151.209631 
L 149.596611 170.961158 
L 150.133293 161.43154 
L 150.669976 161.625043 
L 151.206659 142.944063 
L 151.743341 152.661536 
L 152.280024 125.190721 
L 152.816707 116.579262 
L 153.353389 117.207634 
L 153.890072 171.70724 
L 154.963437 154.266422 
L 155.50012 128.353954 
L 156.036802 146.132148 
L 156.573485 155.017821 
L 157.110167 155.261122 
L 157.64685 147.105416 
L 158.183533 164.0541 
L 158.720215 147.731809 
L 159.256898 180.687273 
L 160.330263 132.614396 
L 160.866946 164.810023 
L 161.403628 157.088858 
L 161.940311 141.714161 
L 162.476994 134.342547 
L 163.013676 142.414705 
L 164.087041 128.060485 
L 165.160407 158.531228 
L 165.697089 158.726376 
L 166.233772 137.150696 
L 166.770455 166.301907 
L 167.307137 137.906395 
L 167.84382 159.481978 
L 168.380502 152.657331 
L 168.917185 111.213823 
L 169.453868 153.135436 
L 169.99055 139.711089 
L 170.527233 160.372869 
L 171.063915 147.11553 
L 171.600598 160.713531 
L 172.137281 127.869657 
L 172.673963 167.592939 
L 173.210646 154.715917 
L 173.747329 135.613041 
L 174.820694 149.018177 
L 175.357376 161.840928 
L 175.894059 130.838863 
L 176.430742 112.700786 
L 176.967424 156.164239 
L 177.504107 156.361197 
L 178.040789 144.490078 
L 178.577472 144.778508 
L 179.114155 133.188865 
L 179.650837 127.673856 
L 180.18752 163.155289 
L 180.724203 151.696562 
L 181.260885 134.664477 
L 181.797568 163.563029 
L 182.870933 152.586763 
L 183.407616 169.533563 
L 183.944298 147.482568 
L 184.480981 153.227851 
L 185.017663 147.986689 
L 185.554346 164.460847 
L 186.091029 132.375152 
L 186.627711 154.048999 
L 187.164394 111.946779 
L 187.701077 138.700957 
L 188.237759 139.013065 
L 188.774442 170.345895 
L 189.311124 160.157175 
L 189.847807 155.213369 
L 190.38449 175.629819 
L 190.921172 145.543482 
L 191.994537 165.843561 
L 192.53122 136.477706 
L 193.067903 151.426195 
L 193.604585 146.794137 
L 194.141268 156.650749 
L 194.677951 161.59493 
L 195.214633 147.512747 
L 195.751316 166.570052 
L 196.287998 166.669446 
L 196.824681 157.48816 
L 197.361364 143.828248 
L 197.898046 139.509797 
L 198.434729 153.426436 
L 198.971411 140.078869 
L 199.508094 162.763618 
L 200.044777 158.436696 
L 200.581459 163.008681 
L 201.118142 145.571487 
L 201.654825 158.889147 
L 202.72819 150.581704 
L 203.264872 155.056193 
L 203.801555 150.985002 
L 204.338238 142.754064 
L 204.87492 168.127165 
L 205.411603 159.892848 
L 205.948285 139.373806 
L 206.484968 151.958891 
L 207.021651 152.147781 
L 207.558333 119.932311 
L 208.095016 148.496365 
L 208.631699 144.708522 
L 209.168381 136.998735 
L 209.705064 160.957415 
L 210.778429 153.420061 
L 211.315112 138.113484 
L 211.851794 149.922408 
L 212.388477 153.939528 
L 212.925159 150.312351 
L 213.461842 150.504638 
L 213.998525 158.19312 
L 214.535207 158.334566 
L 215.07189 147.368544 
L 215.608573 147.576819 
L 216.145255 144.127034 
L 216.681938 166.154034 
L 217.21862 140.968249 
L 217.755303 155.567558 
L 218.291986 152.155749 
L 218.828668 145.241562 
L 219.365351 166.595768 
L 219.902033 152.676066 
L 220.438716 163.286666 
L 220.975399 142.638119 
L 221.512081 149.743971 
L 222.048764 149.930642 
L 222.585447 156.908988 
L 223.122129 150.298212 
L 223.658812 133.69801 
L 224.195494 143.986863 
L 224.732177 164.1042 
L 225.26886 147.717313 
L 225.805542 141.35697 
L 226.342225 157.879445 
L 226.878907 128.860968 
L 227.41559 161.366117 
L 228.488955 129.762104 
L 229.025638 145.879251 
L 229.562321 149.226551 
L 230.099003 155.663602 
L 230.635686 146.477577 
L 231.172368 128.121064 
L 232.245734 165.402547 
L 233.855781 156.644972 
L 234.929147 156.914691 
L 235.465829 139.318192 
L 236.002512 160.118336 
L 236.539195 151.466822 
L 237.075877 163.252325 
L 237.61256 148.900437 
L 238.149242 128.959711 
L 238.685925 152.10825 
L 239.222608 157.949645 
L 239.75929 166.554067 
L 240.295973 146.952872 
L 240.832656 147.136875 
L 241.369338 161.222495 
L 241.906021 144.734404 
L 242.442703 155.931437 
L 242.979386 161.536496 
L 243.516069 158.918294 
L 244.052751 159.035071 
L 244.589434 148.382706 
L 245.662799 159.379691 
L 246.199482 154.194023 
L 246.736164 154.334075 
L 247.272847 143.987757 
L 247.80953 146.788335 
L 248.346212 136.590863 
L 248.882895 152.303497 
L 249.419577 144.751241 
L 249.95626 155.152357 
L 250.492943 152.744779 
L 251.029625 155.416737 
L 251.566308 160.575222 
L 252.10299 155.676771 
L 252.639673 145.852525 
L 253.176356 163.359243 
L 253.713038 163.447873 
L 254.249721 136.583654 
L 254.786404 148.996761 
L 255.323086 149.157693 
L 255.859769 144.491163 
L 256.396451 144.673987 
L 256.933134 137.68892 
L 258.006499 161.768245 
L 258.543182 164.215938 
L 258.543182 164.215938 
" clip-path="url(#p2464153d84)" style="fill: none; stroke: #0000ff; stroke-opacity: 0.5; stroke-linecap: square"/>
   </g>
   <g id="line2d_16">
    <path d="M 44.406818 180.687273 
L 100.22181 180.687273 
L 100.758493 120.703448 
L 101.295175 121.824649 
L 101.831858 180.687273 
L 102.368541 180.687273 
L 102.905223 125.0057 
L 103.441906 126.008836 
L 103.978589 180.687273 
L 104.515271 22.432727 
L 105.051954 180.687273 
L 105.588636 27.913205 
L 106.125319 180.687273 
L 106.662002 180.687273 
L 107.198684 132.329632 
L 108.808732 134.707559 
L 109.345415 90.235425 
L 109.882097 180.687273 
L 110.955463 94.54193 
L 112.028828 97.24424 
L 112.56551 139.617713 
L 113.102193 99.821564 
L 114.175558 180.687273 
L 114.712241 142.078302 
L 115.248923 142.658786 
L 115.785606 180.687273 
L 117.395654 180.687273 
L 117.932337 145.374143 
L 118.469019 76.272451 
L 119.005702 180.687273 
L 120.079067 180.687273 
L 120.61575 147.808787 
L 121.152432 180.687273 
L 121.689115 148.712651 
L 122.225797 149.150705 
L 122.76248 118.472218 
L 123.835845 120.136694 
L 124.372528 150.815622 
L 124.909211 121.735259 
L 125.445893 180.687273 
L 126.519258 124.01713 
L 127.055941 152.717821 
L 128.129306 153.428099 
L 128.665989 126.858934 
L 129.202671 180.687273 
L 129.739354 128.200496 
L 130.812719 129.492389 
L 131.349402 180.687273 
L 131.886085 180.687273 
L 132.422767 81.998057 
L 132.95945 107.561958 
L 133.496132 108.43781 
L 134.032815 156.890897 
L 134.569498 157.172448 
L 135.10618 180.687273 
L 135.642863 157.720895 
L 136.716228 158.250342 
L 137.252911 91.970882 
L 137.789593 114.910719 
L 138.326276 159.010894 
L 138.862959 137.824304 
L 139.399641 180.687273 
L 139.936324 138.77935 
L 140.473006 180.687273 
L 141.009689 160.195133 
L 141.546372 160.42036 
L 142.083054 140.596328 
L 142.619737 141.032154 
L 143.156419 180.687273 
L 143.693102 180.687273 
L 144.229785 142.297648 
L 144.766467 161.696635 
L 147.44988 162.670358 
L 147.986563 145.024915 
L 148.523246 110.093987 
L 149.059928 163.219042 
L 149.596611 180.687273 
L 150.133293 112.222454 
L 150.669976 129.854667 
L 151.206659 180.687273 
L 151.743341 180.687273 
L 152.280024 147.800431 
L 152.816707 164.405874 
L 153.353389 148.443649 
L 153.890072 180.687273 
L 154.426754 164.877767 
L 154.963437 165.030474 
L 155.50012 180.687273 
L 156.573485 150.264222 
L 157.64685 150.836735 
L 158.183533 121.547107 
L 158.720215 136.746662 
L 159.256898 166.176651 
L 159.793581 151.934717 
L 160.330263 152.199645 
L 160.866946 138.347949 
L 162.476994 139.491968 
L 163.013676 126.255184 
L 163.550359 153.715376 
L 164.087041 153.956208 
L 164.623724 140.947014 
L 165.160407 154.42826 
L 165.697089 180.687273 
L 166.233772 116.188648 
L 166.770455 155.113291 
L 167.307137 142.659832 
L 167.84382 155.555076 
L 168.380502 155.771772 
L 168.917185 131.283936 
L 169.453868 156.196755 
L 169.99055 168.546184 
L 170.527233 168.64911 
L 171.063915 132.940806 
L 171.600598 157.014693 
L 172.137281 122.001038 
L 172.673963 157.40846 
L 173.210646 180.687273 
L 173.747329 169.23985 
L 174.284011 78.508554 
L 174.820694 135.646786 
L 175.357376 180.687273 
L 175.894059 158.532426 
L 177.504107 126.62933 
L 178.040789 127.061804 
L 178.577472 148.768376 
L 179.114155 159.576873 
L 179.650837 149.271921 
L 180.18752 159.908629 
L 180.724203 160.071659 
L 181.260885 170.459985 
L 181.797568 170.539574 
L 182.33425 160.549202 
L 182.870933 160.704692 
L 183.407616 150.944052 
L 184.480981 151.397231 
L 185.017663 141.93103 
L 185.554346 161.455956 
L 186.091029 152.057874 
L 186.627711 171.215888 
L 187.164394 133.685228 
L 187.701077 134.035817 
L 188.237759 143.643534 
L 188.774442 171.494938 
L 189.311124 153.313814 
L 189.847807 171.629886 
L 190.38449 135.732133 
L 190.921172 180.687273 
L 191.457855 154.105725 
L 191.994537 136.705906 
L 192.53122 171.954521 
L 193.067903 119.997635 
L 193.604585 137.648373 
L 194.141268 172.140955 
L 194.677951 146.745331 
L 195.214633 130.13562 
L 196.287998 147.459835 
L 196.824681 139.444411 
L 197.361364 156.114594 
L 197.898046 148.15199 
L 198.434729 156.455422 
L 198.971411 132.558805 
L 199.508094 156.789071 
L 200.044777 156.953327 
L 200.581459 141.401517 
L 201.654825 141.935059 
L 202.72819 173.041415 
L 203.264872 142.715307 
L 203.801555 158.056974 
L 204.338238 135.729403 
L 204.87492 165.801221 
L 205.411603 151.112984 
L 205.948285 165.998043 
L 206.484968 129.614599 
L 207.021651 144.44665 
L 207.558333 137.483755 
L 208.095016 152.073137 
L 208.631699 159.366534 
L 209.168381 152.444181 
L 209.705064 124.566798 
L 210.241746 173.717451 
L 210.778429 166.837262 
L 211.851794 167.014001 
L 212.388477 146.721883 
L 212.925159 167.18731 
L 213.461842 160.56552 
L 213.998525 140.697675 
L 214.535207 147.572153 
L 215.07189 160.942845 
L 215.608573 141.445263 
L 216.145255 148.189285 
L 216.681938 174.228056 
L 217.755303 148.789224 
L 218.291986 155.325921 
L 218.828668 149.179978 
L 219.902033 149.563713 
L 220.438716 162.12663 
L 220.975399 149.940484 
L 221.512081 150.125991 
L 222.048764 174.611889 
L 222.585447 138.414774 
L 223.122129 150.67339 
L 223.658812 138.919043 
L 224.195494 156.96176 
L 224.732177 139.413855 
L 225.26886 133.796671 
L 225.805542 151.553718 
L 226.342225 157.517418 
L 226.878907 140.377931 
L 227.41559 163.512915 
L 227.952273 135.155894 
L 228.488955 146.737165 
L 229.025638 163.810658 
L 229.562321 158.315207 
L 230.099003 130.639939 
L 230.635686 153.043076 
L 231.172368 158.698794 
L 231.709051 136.961296 
L 232.245734 126.341588 
L 232.782416 148.264869 
L 233.855781 137.945409 
L 234.392464 154.124151 
L 234.929147 175.404478 
L 236.002512 154.567988 
L 236.539195 139.129305 
L 237.075877 170.355452 
L 237.61256 134.451882 
L 238.149242 165.360591 
L 238.685925 155.283701 
L 239.222608 140.264832 
L 240.295973 150.701143 
L 240.832656 165.775987 
L 241.369338 151.026664 
L 241.906021 146.270857 
L 242.442703 151.347027 
L 242.979386 146.641448 
L 243.516069 127.474221 
L 244.052751 147.006075 
L 244.589434 132.828659 
L 245.126116 147.364776 
L 245.662799 142.807135 
L 246.199482 166.557543 
L 246.736164 147.892189 
L 247.272847 162.046252 
L 247.80953 143.601261 
L 248.346212 148.40755 
L 249.419577 148.744138 
L 249.95626 139.831413 
L 250.492943 153.591525 
L 251.029625 144.74696 
L 251.566308 158.340553 
L 252.10299 154.009409 
L 252.639673 158.569976 
L 253.176356 149.881889 
L 253.713038 167.552494 
L 254.249721 167.619536 
L 254.786404 150.351061 
L 255.323086 146.193377 
L 255.859769 154.947821 
L 256.396451 146.541349 
L 256.933134 167.947022 
L 257.469817 168.011017 
L 258.006499 163.870361 
L 258.543182 138.855313 
L 258.543182 138.855313 
" clip-path="url(#p2464153d84)" style="fill: none; stroke: #ff0000; stroke-opacity: 0.5; stroke-linecap: square"/>
   </g>
   <g id="patch_3">
    <path d="M 33.7 188.6 
L 33.7 14.52 
" style="fill: none; stroke: #000000; stroke-width: 0.8; stroke-linejoin: miter; stroke-linecap: square"/>
   </g>
   <g id="patch_4">
    <path d="M 269.25 188.6 
L 269.25 14.52 
" style="fill: none; stroke: #000000; stroke-width: 0.8; stroke-linejoin: miter; stroke-linecap: square"/>
   </g>
   <g id="patch_5">
    <path d="M 33.7 188.6 
L 269.25 188.6 
" style="fill: none; stroke: #000000; stroke-width: 0.8; stroke-linejoin: miter; stroke-linecap: square"/>
   </g>
   <g id="patch_6">
    <path d="M 33.7 14.52 
L 269.25 14.52 
" style="fill: none; stroke: #000000; stroke-width: 0.8; stroke-linejoin: miter; stroke-linecap: square"/>
   </g>
   <g id="legend_1">
    <g id="patch_7">
     <path d="M 213.917188 66.554375 
L 262.25 66.554375 
Q 264.25 66.554375 264.25 64.554375 
L 264.25 21.52 
Q 264.25 19.52 262.25 19.52 
L 213.917188 19.52 
Q 211.917188 19.52 211.917188 21.52 
L 211.917188 64.554375 
Q 211.917188 66.554375 213.917188 66.554375 
z
" style="fill: #ffffff; opacity: 0.8; stroke: #cccccc; stroke-linejoin: miter"/>
    </g>
    <g id="line2d_17">
     <path d="M 215.917188 27.618438 
L 225.917188 27.618438 
L 235.917188 27.618438 
" style="fill: none; stroke: #000000; stroke-opacity: 0.5; stroke-width: 0.5; stroke-linecap: square"/>
    </g>
    <g id="text_16">
     <!-- all -->
     <g transform="translate(243.917188 31.118438) scale(0.1 -0.1)">
      <defs>
       <path id="DejaVuSans-61" d="M 2194 1759 
Q 1497 1759 1228 1600 
Q 959 1441 959 1056 
Q 959 750 1161 570 
Q 1363 391 1709 391 
Q 2188 391 2477 730 
Q 2766 1069 2766 1631 
L 2766 1759 
L 2194 1759 
z
M 3341 1997 
L 3341 0 
L 2766 0 
L 2766 531 
Q 2569 213 2275 61 
Q 1981 -91 1556 -91 
Q 1019 -91 701 211 
Q 384 513 384 1019 
Q 384 1609 779 1909 
Q 1175 2209 1959 2209 
L 2766 2209 
L 2766 2266 
Q 2766 2663 2505 2880 
Q 2244 3097 1772 3097 
Q 1472 3097 1187 3025 
Q 903 2953 641 2809 
L 641 3341 
Q 956 3463 1253 3523 
Q 1550 3584 1831 3584 
Q 2591 3584 2966 3190 
Q 3341 2797 3341 1997 
z
" transform="scale(0.015625)"/>
       <path id="DejaVuSans-6c" d="M 603 4863 
L 1178 4863 
L 1178 0 
L 603 0 
L 603 4863 
z
" transform="scale(0.015625)"/>
      </defs>
      <use xlink:href="#DejaVuSans-61"/>
      <use xlink:href="#DejaVuSans-6c" transform="translate(61.279297 0)"/>
      <use xlink:href="#DejaVuSans-6c" transform="translate(89.0625 0)"/>
     </g>
    </g>
    <g id="line2d_18">
     <path d="M 215.917188 42.296563 
L 225.917188 42.296563 
L 235.917188 42.296563 
" style="fill: none; stroke: #0000ff; stroke-opacity: 0.5; stroke-linecap: square"/>
    </g>
    <g id="text_17">
     <!-- 1-1 -->
     <g transform="translate(243.917188 45.796563) scale(0.1 -0.1)">
      <defs>
       <path id="DejaVuSans-2d" d="M 313 2009 
L 1997 2009 
L 1997 1497 
L 313 1497 
L 313 2009 
z
" transform="scale(0.015625)"/>
      </defs>
      <use xlink:href="#DejaVuSans-31"/>
      <use xlink:href="#DejaVuSans-2d" transform="translate(63.623047 0)"/>
      <use xlink:href="#DejaVuSans-31" transform="translate(99.707031 0)"/>
     </g>
    </g>
    <g id="line2d_19">
     <path d="M 215.917188 56.974688 
L 225.917188 56.974688 
L 235.917188 56.974688 
" style="fill: none; stroke: #ff0000; stroke-opacity: 0.5; stroke-linecap: square"/>
    </g>
    <g id="text_18">
     <!-- 2-2 -->
     <g transform="translate(243.917188 60.474688) scale(0.1 -0.1)">
      <use xlink:href="#DejaVuSans-32"/>
      <use xlink:href="#DejaVuSans-2d" transform="translate(63.623047 0)"/>
      <use xlink:href="#DejaVuSans-32" transform="translate(99.707031 0)"/>
     </g>
    </g>
   </g>
  </g>
 </g>
 <defs>
  <clipPath id="p2464153d84">
   <rect x="33.7" y="14.52" width="235.55" height="174.08"/>
  </clipPath>
 </defs>
</svg>
