<?xml version="1.0" encoding="utf-8" standalone="no"?>
<!DOCTYPE svg PUBLIC "-//W3C//DTD SVG 1.1//EN"
  "http://www.w3.org/Graphics/SVG/1.1/DTD/svg11.dtd">
<svg xmlns:xlink="http://www.w3.org/1999/xlink" width="288pt" height="216pt" viewBox="0 0 288 216" xmlns="http://www.w3.org/2000/svg" version="1.1">
 <metadata>
  <rdf:RDF xmlns:dc="http://purl.org/dc/elements/1.1/" xmlns:cc="http://creativecommons.org/ns#" xmlns:rdf="http://www.w3.org/1999/02/22-rdf-syntax-ns#">
   <cc:Work>
    <dc:type rdf:resource="http://purl.org/dc/dcmitype/StillImage"/>
    <dc:date>2025-09-17T23:09:32.259030</dc:date>
    <dc:format>image/svg+xml</dc:format>
    <dc:creator>
     <cc:Agent>
      <dc:title>Matplotlib v3.10.0, https://matplotlib.org/</dc:title>
     </cc:Agent>
    </dc:creator>
   </cc:Work>
  </rdf:RDF>
 </metadata>
 <defs>
  <style type="text/css">*{stroke-linejoin: round; stroke-linecap: butt}</style>
 </defs>
 <g id="figure_1">
  <g id="patch_1">
   <path d="M 0 216 
L 288 216 
L 288 0 
L 0 0 
z
" style="fill: #ffffff"/>
  </g>
  <g id="axes_1">
   <g id="patch_2">
    <path d="M 33.7 188.6 
L 269.25 188.6 
L 269.25 14.52 
L 33.7 14.52 
z
" style="fill: #ffffff"/>
   </g>
   <g id="matplotlib.axis_1">
    <g id="xtick_1">
     <g id="line2d_1">
      <defs>
       <path id="ma3b62e2d27" d="M 0 0 
L 0 3.5 
" style="stroke: #000000; stroke-width: 0.8"/>
      </defs>
      <g>
       <use xlink:href="#ma3b62e2d27" x="44.138477" y="188.6" style="stroke: #000000; stroke-width: 0.8"/>
      </g>
     </g>
     <g id="text_1">
      <!-- 0 -->
      <g transform="translate(40.957227 203.198437) scale(0.1 -0.1)">
       <defs>
        <path id="DejaVuSans-30" d="M 2034 4250 
Q 1547 4250 1301 3770 
Q 1056 3291 1056 2328 
Q 1056 1369 1301 889 
Q 1547 409 2034 409 
Q 2525 409 2770 889 
Q 3016 1369 3016 2328 
Q 3016 3291 2770 3770 
Q 2525 4250 2034 4250 
z
M 2034 4750 
Q 2819 4750 3233 4129 
Q 3647 3509 3647 2328 
Q 3647 1150 3233 529 
Q 2819 -91 2034 -91 
Q 1250 -91 836 529 
Q 422 1150 422 2328 
Q 422 3509 836 4129 
Q 1250 4750 2034 4750 
z
" transform="scale(0.015625)"/>
       </defs>
       <use xlink:href="#DejaVuSans-30"/>
      </g>
     </g>
    </g>
    <g id="xtick_2">
     <g id="line2d_2">
      <g>
       <use xlink:href="#ma3b62e2d27" x="87.073086" y="188.6" style="stroke: #000000; stroke-width: 0.8"/>
      </g>
     </g>
     <g id="text_2">
      <!-- 200 -->
      <g transform="translate(77.529336 203.198437) scale(0.1 -0.1)">
       <defs>
        <path id="DejaVuSans-32" d="M 1228 531 
L 3431 531 
L 3431 0 
L 469 0 
L 469 531 
Q 828 903 1448 1529 
Q 2069 2156 2228 2338 
Q 2531 2678 2651 2914 
Q 2772 3150 2772 3378 
Q 2772 3750 2511 3984 
Q 2250 4219 1831 4219 
Q 1534 4219 1204 4116 
Q 875 4013 500 3803 
L 500 4441 
Q 881 4594 1212 4672 
Q 1544 4750 1819 4750 
Q 2544 4750 2975 4387 
Q 3406 4025 3406 3419 
Q 3406 3131 3298 2873 
Q 3191 2616 2906 2266 
Q 2828 2175 2409 1742 
Q 1991 1309 1228 531 
z
" transform="scale(0.015625)"/>
       </defs>
       <use xlink:href="#DejaVuSans-32"/>
       <use xlink:href="#DejaVuSans-30" transform="translate(63.623047 0)"/>
       <use xlink:href="#DejaVuSans-30" transform="translate(127.246094 0)"/>
      </g>
     </g>
    </g>
    <g id="xtick_3">
     <g id="line2d_3">
      <g>
       <use xlink:href="#ma3b62e2d27" x="130.007695" y="188.6" style="stroke: #000000; stroke-width: 0.8"/>
      </g>
     </g>
     <g id="text_3">
      <!-- 400 -->
      <g transform="translate(120.463945 203.198437) scale(0.1 -0.1)">
       <defs>
        <path id="DejaVuSans-34" d="M 2419 4116 
L 825 1625 
L 2419 1625 
L 2419 4116 
z
M 2253 4666 
L 3047 4666 
L 3047 1625 
L 3713 1625 
L 3713 1100 
L 3047 1100 
L 3047 0 
L 2419 0 
L 2419 1100 
L 313 1100 
L 313 1709 
L 2253 4666 
z
" transform="scale(0.015625)"/>
       </defs>
       <use xlink:href="#DejaVuSans-34"/>
       <use xlink:href="#DejaVuSans-30" transform="translate(63.623047 0)"/>
       <use xlink:href="#DejaVuSans-30" transform="translate(127.246094 0)"/>
      </g>
     </g>
    </g>
    <g id="xtick_4">
     <g id="line2d_4">
      <g>
       <use xlink:href="#ma3b62e2d27" x="172.942305" y="188.6" style="stroke: #000000; stroke-width: 0.8"/>
      </g>
     </g>
     <g id="text_4">
      <!-- 600 -->
      <g transform="translate(163.398555 203.198437) scale(0.1 -0.1)">
       <defs>
        <path id="DejaVuSans-36" d="M 2113 2584 
Q 1688 2584 1439 2293 
Q 1191 2003 1191 1497 
Q 1191 994 1439 701 
Q 1688 409 2113 409 
Q 2538 409 2786 701 
Q 3034 994 3034 1497 
Q 3034 2003 2786 2293 
Q 2538 2584 2113 2584 
z
M 3366 4563 
L 3366 3988 
Q 3128 4100 2886 4159 
Q 2644 4219 2406 4219 
Q 1781 4219 1451 3797 
Q 1122 3375 1075 2522 
Q 1259 2794 1537 2939 
Q 1816 3084 2150 3084 
Q 2853 3084 3261 2657 
Q 3669 2231 3669 1497 
Q 3669 778 3244 343 
Q 2819 -91 2113 -91 
Q 1303 -91 875 529 
Q 447 1150 447 2328 
Q 447 3434 972 4092 
Q 1497 4750 2381 4750 
Q 2619 4750 2861 4703 
Q 3103 4656 3366 4563 
z
" transform="scale(0.015625)"/>
       </defs>
       <use xlink:href="#DejaVuSans-36"/>
       <use xlink:href="#DejaVuSans-30" transform="translate(63.623047 0)"/>
       <use xlink:href="#DejaVuSans-30" transform="translate(127.246094 0)"/>
      </g>
     </g>
    </g>
    <g id="xtick_5">
     <g id="line2d_5">
      <g>
       <use xlink:href="#ma3b62e2d27" x="215.876914" y="188.6" style="stroke: #000000; stroke-width: 0.8"/>
      </g>
     </g>
     <g id="text_5">
      <!-- 800 -->
      <g transform="translate(206.333164 203.198437) scale(0.1 -0.1)">
       <defs>
        <path id="DejaVuSans-38" d="M 2034 2216 
Q 1584 2216 1326 1975 
Q 1069 1734 1069 1313 
Q 1069 891 1326 650 
Q 1584 409 2034 409 
Q 2484 409 2743 651 
Q 3003 894 3003 1313 
Q 3003 1734 2745 1975 
Q 2488 2216 2034 2216 
z
M 1403 2484 
Q 997 2584 770 2862 
Q 544 3141 544 3541 
Q 544 4100 942 4425 
Q 1341 4750 2034 4750 
Q 2731 4750 3128 4425 
Q 3525 4100 3525 3541 
Q 3525 3141 3298 2862 
Q 3072 2584 2669 2484 
Q 3125 2378 3379 2068 
Q 3634 1759 3634 1313 
Q 3634 634 3220 271 
Q 2806 -91 2034 -91 
Q 1263 -91 848 271 
Q 434 634 434 1313 
Q 434 1759 690 2068 
Q 947 2378 1403 2484 
z
M 1172 3481 
Q 1172 3119 1398 2916 
Q 1625 2713 2034 2713 
Q 2441 2713 2670 2916 
Q 2900 3119 2900 3481 
Q 2900 3844 2670 4047 
Q 2441 4250 2034 4250 
Q 1625 4250 1398 4047 
Q 1172 3844 1172 3481 
z
" transform="scale(0.015625)"/>
       </defs>
       <use xlink:href="#DejaVuSans-38"/>
       <use xlink:href="#DejaVuSans-30" transform="translate(63.623047 0)"/>
       <use xlink:href="#DejaVuSans-30" transform="translate(127.246094 0)"/>
      </g>
     </g>
    </g>
    <g id="xtick_6">
     <g id="line2d_6">
      <g>
       <use xlink:href="#ma3b62e2d27" x="258.811523" y="188.6" style="stroke: #000000; stroke-width: 0.8"/>
      </g>
     </g>
     <g id="text_6">
      <!-- 1000 -->
      <g transform="translate(246.086523 203.198437) scale(0.1 -0.1)">
       <defs>
        <path id="DejaVuSans-31" d="M 794 531 
L 1825 531 
L 1825 4091 
L 703 3866 
L 703 4441 
L 1819 4666 
L 2450 4666 
L 2450 531 
L 3481 531 
L 3481 0 
L 794 0 
L 794 531 
z
" transform="scale(0.015625)"/>
       </defs>
       <use xlink:href="#DejaVuSans-31"/>
       <use xlink:href="#DejaVuSans-30" transform="translate(63.623047 0)"/>
       <use xlink:href="#DejaVuSans-30" transform="translate(127.246094 0)"/>
       <use xlink:href="#DejaVuSans-30" transform="translate(190.869141 0)"/>
      </g>
     </g>
    </g>
    <g id="text_7">
     <!-- q (nm) -->
     <g transform="translate(134.771094 216.876563) scale(0.1 -0.1)">
      <defs>
       <path id="DejaVuSans-71" d="M 947 1747 
Q 947 1113 1208 752 
Q 1469 391 1925 391 
Q 2381 391 2643 752 
Q 2906 1113 2906 1747 
Q 2906 2381 2643 2742 
Q 2381 3103 1925 3103 
Q 1469 3103 1208 2742 
Q 947 2381 947 1747 
z
M 2906 525 
Q 2725 213 2448 61 
Q 2172 -91 1784 -91 
Q 1150 -91 751 415 
Q 353 922 353 1747 
Q 353 2572 751 3078 
Q 1150 3584 1784 3584 
Q 2172 3584 2448 3432 
Q 2725 3281 2906 2969 
L 2906 3500 
L 3481 3500 
L 3481 -1331 
L 2906 -1331 
L 2906 525 
z
" transform="scale(0.015625)"/>
       <path id="DejaVuSans-20" transform="scale(0.015625)"/>
       <path id="DejaVuSans-28" d="M 1984 4856 
Q 1566 4138 1362 3434 
Q 1159 2731 1159 2009 
Q 1159 1288 1364 580 
Q 1569 -128 1984 -844 
L 1484 -844 
Q 1016 -109 783 600 
Q 550 1309 550 2009 
Q 550 2706 781 3412 
Q 1013 4119 1484 4856 
L 1984 4856 
z
" transform="scale(0.015625)"/>
       <path id="DejaVuSans-6e" d="M 3513 2113 
L 3513 0 
L 2938 0 
L 2938 2094 
Q 2938 2591 2744 2837 
Q 2550 3084 2163 3084 
Q 1697 3084 1428 2787 
Q 1159 2491 1159 1978 
L 1159 0 
L 581 0 
L 581 3500 
L 1159 3500 
L 1159 2956 
Q 1366 3272 1645 3428 
Q 1925 3584 2291 3584 
Q 2894 3584 3203 3211 
Q 3513 2838 3513 2113 
z
" transform="scale(0.015625)"/>
       <path id="DejaVuSans-6d" d="M 3328 2828 
Q 3544 3216 3844 3400 
Q 4144 3584 4550 3584 
Q 5097 3584 5394 3201 
Q 5691 2819 5691 2113 
L 5691 0 
L 5113 0 
L 5113 2094 
Q 5113 2597 4934 2840 
Q 4756 3084 4391 3084 
Q 3944 3084 3684 2787 
Q 3425 2491 3425 1978 
L 3425 0 
L 2847 0 
L 2847 2094 
Q 2847 2600 2669 2842 
Q 2491 3084 2119 3084 
Q 1678 3084 1418 2786 
Q 1159 2488 1159 1978 
L 1159 0 
L 581 0 
L 581 3500 
L 1159 3500 
L 1159 2956 
Q 1356 3278 1631 3431 
Q 1906 3584 2284 3584 
Q 2666 3584 2933 3390 
Q 3200 3197 3328 2828 
z
" transform="scale(0.015625)"/>
       <path id="DejaVuSans-29" d="M 513 4856 
L 1013 4856 
Q 1481 4119 1714 3412 
Q 1947 2706 1947 2009 
Q 1947 1309 1714 600 
Q 1481 -109 1013 -844 
L 513 -844 
Q 928 -128 1133 580 
Q 1338 1288 1338 2009 
Q 1338 2731 1133 3434 
Q 928 4138 513 4856 
z
" transform="scale(0.015625)"/>
      </defs>
      <use xlink:href="#DejaVuSans-71"/>
      <use xlink:href="#DejaVuSans-20" transform="translate(63.476562 0)"/>
      <use xlink:href="#DejaVuSans-28" transform="translate(95.263672 0)"/>
      <use xlink:href="#DejaVuSans-6e" transform="translate(134.277344 0)"/>
      <use xlink:href="#DejaVuSans-6d" transform="translate(197.65625 0)"/>
      <use xlink:href="#DejaVuSans-29" transform="translate(295.068359 0)"/>
     </g>
    </g>
   </g>
   <g id="matplotlib.axis_2">
    <g id="ytick_1">
     <g id="line2d_7">
      <defs>
       <path id="m271da714be" d="M 0 0 
L -3.5 0 
" style="stroke: #000000; stroke-width: 0.8"/>
      </defs>
      <g>
       <use xlink:href="#m271da714be" x="33.7" y="180.687273" style="stroke: #000000; stroke-width: 0.8"/>
      </g>
     </g>
     <g id="text_8">
      <!-- 0 -->
      <g transform="translate(20.3375 184.486491) scale(0.1 -0.1)">
       <use xlink:href="#DejaVuSans-30"/>
      </g>
     </g>
    </g>
    <g id="ytick_2">
     <g id="line2d_8">
      <g>
       <use xlink:href="#m271da714be" x="33.7" y="144.183942" style="stroke: #000000; stroke-width: 0.8"/>
      </g>
     </g>
     <g id="text_9">
      <!-- 20000 -->
      <g transform="translate(-5.1125 147.98316) scale(0.1 -0.1)">
       <use xlink:href="#DejaVuSans-32"/>
       <use xlink:href="#DejaVuSans-30" transform="translate(63.623047 0)"/>
       <use xlink:href="#DejaVuSans-30" transform="translate(127.246094 0)"/>
       <use xlink:href="#DejaVuSans-30" transform="translate(190.869141 0)"/>
       <use xlink:href="#DejaVuSans-30" transform="translate(254.492188 0)"/>
      </g>
     </g>
    </g>
    <g id="ytick_3">
     <g id="line2d_9">
      <g>
       <use xlink:href="#m271da714be" x="33.7" y="107.68061" style="stroke: #000000; stroke-width: 0.8"/>
      </g>
     </g>
     <g id="text_10">
      <!-- 40000 -->
      <g transform="translate(-5.1125 111.479829) scale(0.1 -0.1)">
       <use xlink:href="#DejaVuSans-34"/>
       <use xlink:href="#DejaVuSans-30" transform="translate(63.623047 0)"/>
       <use xlink:href="#DejaVuSans-30" transform="translate(127.246094 0)"/>
       <use xlink:href="#DejaVuSans-30" transform="translate(190.869141 0)"/>
       <use xlink:href="#DejaVuSans-30" transform="translate(254.492188 0)"/>
      </g>
     </g>
    </g>
    <g id="ytick_4">
     <g id="line2d_10">
      <g>
       <use xlink:href="#m271da714be" x="33.7" y="71.177279" style="stroke: #000000; stroke-width: 0.8"/>
      </g>
     </g>
     <g id="text_11">
      <!-- 60000 -->
      <g transform="translate(-5.1125 74.976498) scale(0.1 -0.1)">
       <use xlink:href="#DejaVuSans-36"/>
       <use xlink:href="#DejaVuSans-30" transform="translate(63.623047 0)"/>
       <use xlink:href="#DejaVuSans-30" transform="translate(127.246094 0)"/>
       <use xlink:href="#DejaVuSans-30" transform="translate(190.869141 0)"/>
       <use xlink:href="#DejaVuSans-30" transform="translate(254.492188 0)"/>
      </g>
     </g>
    </g>
    <g id="ytick_5">
     <g id="line2d_11">
      <g>
       <use xlink:href="#m271da714be" x="33.7" y="34.673948" style="stroke: #000000; stroke-width: 0.8"/>
      </g>
     </g>
     <g id="text_12">
      <!-- 80000 -->
      <g transform="translate(-5.1125 38.473167) scale(0.1 -0.1)">
       <use xlink:href="#DejaVuSans-38"/>
       <use xlink:href="#DejaVuSans-30" transform="translate(63.623047 0)"/>
       <use xlink:href="#DejaVuSans-30" transform="translate(127.246094 0)"/>
       <use xlink:href="#DejaVuSans-30" transform="translate(190.869141 0)"/>
       <use xlink:href="#DejaVuSans-30" transform="translate(254.492188 0)"/>
      </g>
     </g>
    </g>
    <g id="text_13">
     <!-- rdf -->
     <g transform="translate(-11.192187 108.462344) rotate(-90) scale(0.1 -0.1)">
      <defs>
       <path id="DejaVuSans-72" d="M 2631 2963 
Q 2534 3019 2420 3045 
Q 2306 3072 2169 3072 
Q 1681 3072 1420 2755 
Q 1159 2438 1159 1844 
L 1159 0 
L 581 0 
L 581 3500 
L 1159 3500 
L 1159 2956 
Q 1341 3275 1631 3429 
Q 1922 3584 2338 3584 
Q 2397 3584 2469 3576 
Q 2541 3569 2628 3553 
L 2631 2963 
z
" transform="scale(0.015625)"/>
       <path id="DejaVuSans-64" d="M 2906 2969 
L 2906 4863 
L 3481 4863 
L 3481 0 
L 2906 0 
L 2906 525 
Q 2725 213 2448 61 
Q 2172 -91 1784 -91 
Q 1150 -91 751 415 
Q 353 922 353 1747 
Q 353 2572 751 3078 
Q 1150 3584 1784 3584 
Q 2172 3584 2448 3432 
Q 2725 3281 2906 2969 
z
M 947 1747 
Q 947 1113 1208 752 
Q 1469 391 1925 391 
Q 2381 391 2643 752 
Q 2906 1113 2906 1747 
Q 2906 2381 2643 2742 
Q 2381 3103 1925 3103 
Q 1469 3103 1208 2742 
Q 947 2381 947 1747 
z
" transform="scale(0.015625)"/>
       <path id="DejaVuSans-66" d="M 2375 4863 
L 2375 4384 
L 1825 4384 
Q 1516 4384 1395 4259 
Q 1275 4134 1275 3809 
L 1275 3500 
L 2222 3500 
L 2222 3053 
L 1275 3053 
L 1275 0 
L 697 0 
L 697 3053 
L 147 3053 
L 147 3500 
L 697 3500 
L 697 3744 
Q 697 4328 969 4595 
Q 1241 4863 1831 4863 
L 2375 4863 
z
" transform="scale(0.015625)"/>
      </defs>
      <use xlink:href="#DejaVuSans-72"/>
      <use xlink:href="#DejaVuSans-64" transform="translate(39.363281 0)"/>
      <use xlink:href="#DejaVuSans-66" transform="translate(102.839844 0)"/>
     </g>
    </g>
   </g>
   <g id="line2d_12">
    <path d="M 44.406818 180.687273 
L 94.854984 180.687273 
L 95.391667 149.968607 
L 95.928349 22.432727 
L 96.465032 166.644474 
L 97.001715 179.238946 
L 97.538397 178.913071 
L 98.07508 177.730854 
L 99.148445 174.83574 
L 99.685128 173.964429 
L 100.22181 175.057577 
L 100.758493 175.558335 
L 101.295175 177.744863 
L 101.831858 178.635328 
L 102.368541 179.792029 
L 102.905223 179.442069 
L 103.978589 180.263414 
L 104.515271 180.340308 
L 105.051954 180.141869 
L 106.125319 179.963089 
L 107.198684 179.033338 
L 107.735367 177.935346 
L 108.272049 177.612204 
L 108.808732 177.602549 
L 109.345415 177.47464 
L 109.882097 178.580343 
L 110.955463 179.100774 
L 111.492145 179.181718 
L 112.56551 175.770939 
L 113.638876 172.831796 
L 114.175558 171.559343 
L 114.712241 173.526049 
L 115.248923 174.484147 
L 115.785606 176.449321 
L 117.395654 173.33401 
L 119.005702 175.722895 
L 120.079067 179.371353 
L 120.61575 180.038514 
L 121.152432 180.090174 
L 121.689115 180.014288 
L 122.225797 180.27242 
L 123.835845 180.289011 
L 124.372528 180.490797 
L 124.909211 180.221976 
L 125.445893 180.151571 
L 126.519258 178.674485 
L 127.592624 175.965509 
L 128.665989 175.270354 
L 129.202671 174.464511 
L 129.739354 174.542302 
L 130.276037 176.084654 
L 130.812719 177.016961 
L 131.349402 178.625191 
L 131.886085 179.734513 
L 132.422767 180.038161 
L 133.496132 180.402147 
L 134.032815 180.249026 
L 134.569498 180.439809 
L 135.10618 179.892479 
L 135.642863 179.599658 
L 136.716228 175.817292 
L 137.252911 173.480834 
L 138.326276 174.328527 
L 138.862959 173.836518 
L 139.399641 170.429048 
L 139.936324 169.441063 
L 141.546372 178.127869 
L 142.083054 178.709586 
L 142.619737 179.09624 
L 143.156419 178.081417 
L 144.766467 176.415427 
L 145.30315 176.386483 
L 145.839833 173.032239 
L 146.376515 165.295518 
L 146.913198 168.9763 
L 147.44988 175.828639 
L 148.523246 175.161917 
L 149.059928 173.793609 
L 149.596611 173.795367 
L 150.133293 175.441092 
L 150.669976 177.477579 
L 151.743341 179.157978 
L 152.280024 178.978442 
L 152.816707 177.731639 
L 153.353389 177.145586 
L 153.890072 177.369151 
L 154.426754 178.004475 
L 154.963437 179.142573 
L 155.50012 179.239026 
L 156.573485 178.786298 
L 157.110167 178.110595 
L 157.64685 177.918922 
L 158.720215 178.471513 
L 159.793581 179.930812 
L 161.403628 180.411336 
L 162.476994 180.235681 
L 163.013676 179.935435 
L 164.087041 178.647771 
L 164.623724 177.393822 
L 165.160407 175.471301 
L 165.697089 175.277572 
L 167.307137 176.768739 
L 167.84382 177.08367 
L 168.380502 177.688313 
L 168.917185 177.746545 
L 169.453868 177.675033 
L 170.527233 175.889024 
L 171.063915 175.458433 
L 171.600598 174.770579 
L 172.137281 174.434089 
L 172.673963 173.644096 
L 173.210646 173.383671 
L 173.747329 173.775327 
L 174.284011 175.803611 
L 174.820694 177.058255 
L 175.357376 177.939981 
L 175.894059 178.035172 
L 176.430742 177.507399 
L 176.967424 177.404 
L 178.577472 177.832071 
L 179.114155 177.271559 
L 179.650837 177.133249 
L 180.18752 177.721575 
L 181.260885 179.328453 
L 181.797568 179.926382 
L 182.33425 180.091226 
L 182.870933 180.450695 
L 183.407616 180.269926 
L 183.944298 180.234298 
L 184.480981 180.045105 
L 185.017663 179.552911 
L 185.554346 178.676069 
L 186.627711 176.189468 
L 187.164394 177.014593 
L 187.701077 178.220262 
L 188.237759 178.640621 
L 188.774442 178.341384 
L 189.847807 174.205681 
L 190.38449 173.720935 
L 190.921172 175.145485 
L 191.457855 175.861807 
L 191.994537 176.82249 
L 192.53122 177.229491 
L 193.604585 177.290298 
L 194.141268 178.135248 
L 195.214633 178.736635 
L 196.287998 176.316314 
L 196.824681 177.475459 
L 197.361364 177.734964 
L 197.898046 177.306145 
L 198.434729 176.713374 
L 198.971411 176.50872 
L 199.508094 176.65282 
L 201.118142 179.229607 
L 201.654825 179.637141 
L 202.191507 179.502493 
L 202.72819 178.846682 
L 203.264872 178.819111 
L 203.801555 178.097334 
L 204.338238 177.828811 
L 204.87492 178.229718 
L 205.411603 178.294677 
L 205.948285 178.01101 
L 206.484968 177.94231 
L 207.021651 177.102238 
L 207.558333 177.068918 
L 208.095016 176.546768 
L 209.168381 176.758359 
L 210.778429 176.48774 
L 211.315112 177.039633 
L 211.851794 177.431674 
L 212.388477 177.452416 
L 213.998525 176.698061 
L 215.07189 177.700362 
L 216.145255 178.549771 
L 217.21862 178.939304 
L 217.755303 178.924918 
L 218.828668 177.844022 
L 219.365351 177.606027 
L 219.902033 177.821332 
L 220.438716 177.863166 
L 220.975399 177.70233 
L 221.512081 177.945472 
L 222.048764 178.393579 
L 223.122129 178.82371 
L 223.658812 178.403142 
L 225.26886 176.469696 
L 226.878907 179.407083 
L 227.41559 179.783581 
L 227.952273 179.938585 
L 229.562321 179.355578 
L 230.099003 179.429081 
L 230.635686 179.167215 
L 231.172368 179.060235 
L 231.709051 178.70283 
L 233.319099 179.019195 
L 233.855781 178.789662 
L 235.465829 179.443395 
L 236.002512 179.848912 
L 236.539195 179.853584 
L 237.075877 179.382521 
L 237.61256 178.740997 
L 238.149242 177.683173 
L 238.685925 176.957873 
L 239.75929 175.147754 
L 240.832656 175.449987 
L 241.369338 176.076699 
L 241.906021 176.95543 
L 242.442703 178.178525 
L 243.516069 178.485455 
L 244.052751 178.073189 
L 244.589434 177.514269 
L 245.126116 177.318267 
L 246.736164 178.863031 
L 247.272847 179.013671 
L 247.80953 179.034667 
L 248.346212 178.782508 
L 248.882895 178.665745 
L 250.492943 177.823907 
L 251.029625 178.075147 
L 251.566308 178.500183 
L 252.639673 178.196777 
L 253.176356 177.815896 
L 254.249721 176.659042 
L 254.786404 176.66814 
L 255.323086 176.836021 
L 255.859769 177.374695 
L 258.543182 177.919337 
L 258.543182 177.919337 
" clip-path="url(#p469fb12a23)" style="fill: none; stroke: #000000; stroke-opacity: 0.5; stroke-width: 0.5; stroke-linecap: square"/>
   </g>
   <g id="line2d_13">
    <path d="M 44.406818 180.687273 
L 93.781619 180.687273 
L 94.318301 180.379612 
L 94.854984 180.687273 
L 95.391667 179.802546 
L 96.465032 179.838469 
L 97.001715 177.915084 
L 97.538397 175.525454 
L 98.611762 167.111438 
L 99.148445 162.766952 
L 99.685128 160.09856 
L 100.22181 163.446329 
L 100.758493 164.9799 
L 101.295175 171.676143 
L 101.831858 174.40319 
L 102.368541 178.174061 
L 102.905223 176.873837 
L 103.978589 179.389205 
L 104.515271 179.83721 
L 105.051954 179.22576 
L 105.588636 180.071804 
L 107.198684 176.011726 
L 107.735367 173.217199 
L 108.272049 171.458222 
L 108.808732 171.796008 
L 109.345415 171.030781 
L 109.882097 174.772506 
L 110.41878 176.278659 
L 110.955463 177.043283 
L 111.492145 179.150351 
L 112.028828 180.014953 
L 112.56551 179.032737 
L 113.102193 180.035719 
L 113.638876 180.206125 
L 114.175558 179.73967 
L 114.712241 178.820783 
L 115.248923 176.857217 
L 115.785606 175.857978 
L 116.858971 163.254535 
L 117.395654 159.034031 
L 119.005702 165.760292 
L 120.079067 177.06027 
L 120.61575 179.627634 
L 121.152432 179.903581 
L 121.689115 179.656765 
L 123.299163 180.192765 
L 123.835845 180.077435 
L 124.372528 180.566931 
L 124.909211 180.449778 
L 125.445893 180.687273 
L 125.982576 180.57162 
L 126.519258 180.687273 
L 127.055941 180.687273 
L 128.129306 180.577456 
L 128.665989 180.687273 
L 130.276037 180.47845 
L 130.812719 180.58415 
L 131.349402 180.279845 
L 131.886085 180.586658 
L 132.422767 180.488482 
L 132.95945 180.196283 
L 133.496132 180.493229 
L 134.032815 179.920341 
L 134.569498 180.308344 
L 135.642863 177.819067 
L 136.716228 166.586463 
L 137.252911 160.047168 
L 137.789593 162.933036 
L 138.326276 167.151768 
L 138.862959 167.736384 
L 139.399641 162.58903 
L 139.936324 159.076905 
L 140.473006 167.748276 
L 141.009689 174.000317 
L 141.546372 178.564434 
L 142.083054 179.960473 
L 142.619737 179.968374 
L 143.156419 179.660088 
L 143.693102 180.374615 
L 144.229785 179.75933 
L 144.766467 180.381249 
L 145.30315 180.157398 
L 145.839833 178.964584 
L 146.376515 170.162917 
L 146.913198 165.358529 
L 147.44988 177.711359 
L 147.986563 180.040758 
L 148.523246 180.545076 
L 149.059928 180.687273 
L 149.596611 180.617614 
L 150.133293 180.411454 
L 150.669976 180.687273 
L 151.743341 180.620366 
L 152.280024 180.687273 
L 152.816707 180.55609 
L 153.353389 180.622324 
L 153.890072 180.494328 
L 154.426754 180.623582 
L 155.50012 180.624804 
L 156.036802 180.50166 
L 156.573485 180.625991 
L 158.183533 180.627709 
L 159.256898 180.453442 
L 160.330263 180.515124 
L 160.866946 180.402991 
L 161.403628 180.574598 
L 161.940311 180.352323 
L 162.476994 180.410672 
L 163.013676 180.303522 
L 164.087041 180.41805 
L 164.623724 180.153612 
L 165.160407 180.211229 
L 166.233772 178.712487 
L 166.770455 175.947994 
L 167.84382 173.194919 
L 168.380502 173.309709 
L 168.917185 174.616944 
L 169.453868 175.21148 
L 169.99055 174.964591 
L 172.673963 166.010478 
L 173.210646 165.388238 
L 173.747329 167.589962 
L 174.284011 171.997116 
L 174.820694 174.200404 
L 175.357376 177.132872 
L 175.894059 178.634444 
L 176.430742 178.651069 
L 176.967424 178.228402 
L 177.504107 178.117483 
L 178.040789 177.101067 
L 178.577472 177.986903 
L 179.114155 177.795718 
L 179.650837 178.915426 
L 180.18752 179.431634 
L 180.724203 180.105906 
L 181.797568 180.196698 
L 182.33425 180.038244 
L 182.870933 180.566519 
L 183.944298 179.894567 
L 184.480981 179.546622 
L 185.017663 178.852697 
L 185.554346 177.123394 
L 186.091029 176.57359 
L 186.627711 174.467749 
L 187.701077 177.45469 
L 188.237759 178.374129 
L 188.774442 179.539268 
L 189.311124 179.510983 
L 189.847807 180.030475 
L 190.921172 179.788347 
L 191.457855 179.437926 
L 191.994537 178.135822 
L 193.067903 176.426068 
L 193.604585 175.936462 
L 194.677951 176.961132 
L 195.214633 178.582855 
L 195.751316 178.530316 
L 196.287998 177.173431 
L 196.824681 176.965474 
L 197.361364 175.044618 
L 197.898046 174.887327 
L 198.434729 174.146675 
L 198.971411 174.676645 
L 200.044777 177.277005 
L 200.581459 178.249957 
L 201.118142 178.70672 
L 201.654825 178.688964 
L 202.191507 177.865192 
L 202.72819 176.190146 
L 203.264872 175.883872 
L 203.801555 175.034805 
L 204.338238 175.736712 
L 204.87492 177.418896 
L 205.411603 177.52997 
L 205.948285 177.284579 
L 206.484968 177.218877 
L 207.021651 176.891283 
L 208.095016 178.324127 
L 208.631699 178.597207 
L 209.705064 178.511176 
L 210.778429 177.00471 
L 212.388477 179.401037 
L 212.925159 180.007445 
L 213.461842 180.281958 
L 213.998525 180.418768 
L 215.07189 180.528187 
L 215.608573 180.55553 
L 216.145255 180.346876 
L 217.21862 180.428666 
L 217.755303 180.224655 
L 218.291986 179.818818 
L 218.828668 179.189489 
L 219.902033 176.750186 
L 220.438716 176.42517 
L 220.975399 175.782138 
L 222.585447 178.497705 
L 223.122129 178.99447 
L 223.658812 178.956514 
L 225.26886 175.822987 
L 225.805542 176.297712 
L 226.878907 178.94737 
L 227.41559 179.695565 
L 227.952273 180.205773 
L 229.025638 180.075368 
L 229.562321 179.515602 
L 230.099003 179.16391 
L 230.635686 177.836255 
L 231.172368 176.856051 
L 231.709051 175.468674 
L 232.245734 176.155257 
L 233.319099 179.193689 
L 234.929147 180.30419 
L 236.002512 180.013835 
L 236.539195 179.55718 
L 237.075877 178.668559 
L 238.149242 176.632662 
L 239.222608 176.595753 
L 239.75929 176.901577 
L 240.295973 175.633694 
L 241.369338 174.25466 
L 241.906021 175.695852 
L 242.442703 177.476156 
L 242.979386 178.159654 
L 243.516069 178.29017 
L 244.052751 177.198136 
L 244.589434 176.638388 
L 245.662799 177.425349 
L 246.199482 178.732907 
L 247.272847 179.898748 
L 248.346212 179.758397 
L 250.492943 177.012273 
L 251.029625 177.103726 
L 251.566308 178.292571 
L 252.10299 179.110974 
L 252.639673 179.618047 
L 253.176356 179.499429 
L 253.713038 179.188014 
L 254.249721 178.634121 
L 254.786404 177.579571 
L 255.323086 177.300057 
L 255.859769 177.507311 
L 256.396451 177.213861 
L 256.933134 177.316892 
L 257.469817 176.346511 
L 258.543182 175.429294 
L 258.543182 175.429294 
" clip-path="url(#p469fb12a23)" style="fill: none; stroke: #0000ff; stroke-opacity: 0.5; stroke-linecap: square"/>
   </g>
   <g id="line2d_14">
    <path d="M 44.406818 180.687273 
L 101.831858 180.687273 
L 102.368541 180.281097 
L 102.905223 180.687273 
L 103.978589 180.687273 
L 104.515271 180.309467 
L 105.051954 180.316095 
L 105.588636 178.498941 
L 106.125319 180.328838 
L 106.662002 180.334965 
L 107.198684 179.994599 
L 107.735367 178.984692 
L 108.272049 180.352432 
L 108.808732 179.699355 
L 109.345415 180.363365 
L 109.882097 179.731351 
L 110.41878 178.492763 
L 110.955463 178.527872 
L 111.492145 175.222665 
L 112.028828 163.356356 
L 112.56551 156.861966 
L 113.638876 138.773941 
L 114.175558 132.67539 
L 114.712241 145.016592 
L 115.248923 153.723683 
L 115.785606 166.19939 
L 116.858971 177.04121 
L 117.395654 179.147487 
L 117.932337 179.928536 
L 118.469019 179.690183 
L 119.005702 180.19585 
L 119.542384 179.47614 
L 120.079067 180.209643 
L 121.152432 179.294043 
L 121.689115 179.771266 
L 122.225797 180.461408 
L 122.76248 179.796106 
L 123.299163 179.808148 
L 124.372528 180.259392 
L 124.909211 178.998419 
L 125.445893 178.395658 
L 125.982576 175.13592 
L 126.519258 170.946375 
L 127.055941 164.661927 
L 127.592624 160.121371 
L 128.129306 165.849806 
L 128.665989 169.892774 
L 129.202671 175.357916 
L 129.739354 178.055906 
L 130.276037 179.573553 
L 130.812719 180.137287 
L 131.349402 180.325115 
L 131.886085 180.329532 
L 132.95945 180.687273 
L 133.496132 180.687273 
L 134.032815 180.516843 
L 134.569498 180.51886 
L 135.10618 180.687273 
L 137.252911 180.687273 
L 137.789593 180.373212 
L 138.326276 180.532027 
L 138.862959 180.533781 
L 139.399641 180.687273 
L 139.936324 180.537201 
L 140.473006 180.687273 
L 142.083054 180.687273 
L 142.619737 179.977249 
L 143.156419 180.406333 
L 143.693102 180.409354 
L 144.229785 179.587489 
L 144.766467 179.735198 
L 145.30315 177.861274 
L 145.839833 158.184137 
L 146.376515 125.347945 
L 146.913198 154.218504 
L 147.44988 175.009649 
L 147.986563 179.665619 
L 148.523246 180.434479 
L 149.059928 180.687273 
L 149.596611 180.563436 
L 150.133293 180.687273 
L 154.426754 180.687273 
L 154.963437 180.463005 
L 155.50012 180.687273 
L 160.330263 180.585259 
L 160.866946 180.485117 
L 161.403628 180.687273 
L 161.940311 180.488784 
L 162.476994 180.588926 
L 163.013676 180.492352 
L 164.087041 180.591549 
L 164.623724 180.497527 
L 165.160407 180.217106 
L 166.233772 180.502497 
L 166.770455 180.046211 
L 167.307137 179.870217 
L 167.84382 179.967287 
L 168.380502 179.79505 
L 169.99055 170.687527 
L 170.527233 168.616871 
L 171.063915 169.402607 
L 171.600598 168.904056 
L 172.137281 169.591089 
L 172.673963 168.766612 
L 173.210646 168.700189 
L 173.747329 167.405496 
L 175.357376 178.127704 
L 175.894059 179.021209 
L 176.430742 179.585559 
L 176.967424 178.891907 
L 177.504107 177.357678 
L 178.040789 177.00025 
L 178.577472 174.819803 
L 179.114155 174.941962 
L 179.650837 175.887351 
L 180.18752 178.529435 
L 180.724203 178.915488 
L 181.260885 179.881548 
L 181.797568 180.251207 
L 182.33425 179.96613 
L 182.870933 180.18637 
L 183.407616 180.048211 
L 183.944298 180.405422 
L 185.017663 180.132129 
L 185.554346 180.342937 
L 187.164394 180.081342 
L 187.701077 179.952215 
L 188.237759 180.024006 
L 188.774442 178.646376 
L 189.847807 172.18945 
L 190.38449 166.971432 
L 190.921172 163.939281 
L 191.457855 162.157276 
L 191.994537 166.071555 
L 192.53122 168.991572 
L 193.067903 170.503849 
L 193.604585 171.378305 
L 194.141268 174.994872 
L 194.677951 176.858578 
L 195.214633 178.213263 
L 195.751316 179.249302 
L 196.287998 179.616388 
L 196.824681 179.80113 
L 197.361364 180.45262 
L 197.898046 180.396001 
L 198.434729 180.571574 
L 200.044777 180.517291 
L 200.581459 180.349636 
L 201.654825 180.520747 
L 203.264872 180.632882 
L 204.338238 180.472614 
L 204.87492 180.633966 
L 205.411603 180.528415 
L 206.484968 180.060218 
L 207.021651 179.181855 
L 207.558333 177.541472 
L 208.095016 176.895993 
L 208.631699 174.324821 
L 209.168381 174.467266 
L 209.705064 175.612855 
L 210.241746 177.043276 
L 210.778429 178.852192 
L 211.851794 180.197634 
L 212.925159 179.720407 
L 213.461842 179.34223 
L 213.998525 177.107211 
L 214.535207 176.465647 
L 215.07189 175.643674 
L 215.608573 175.862568 
L 216.145255 176.637421 
L 217.755303 180.138985 
L 218.291986 180.505635 
L 218.828668 180.371356 
L 219.365351 180.552709 
L 219.902033 180.59811 
L 220.438716 180.421411 
L 221.512081 180.555945 
L 222.585447 179.865509 
L 223.122129 179.225551 
L 223.658812 177.183021 
L 224.732177 171.312541 
L 225.26886 170.570399 
L 225.805542 172.299378 
L 226.342225 174.796325 
L 226.878907 178.089018 
L 227.41559 179.826255 
L 227.952273 180.035083 
L 228.488955 180.403597 
L 230.099003 180.567793 
L 230.635686 180.489285 
L 231.709051 180.608982 
L 232.245734 180.414817 
L 232.782416 180.377661 
L 233.319099 180.610309 
L 233.855781 180.419421 
L 234.392464 180.42093 
L 234.929147 180.30892 
L 236.002512 180.53762 
L 236.539195 180.315226 
L 237.075877 180.354289 
L 237.61256 179.546689 
L 238.149242 178.491883 
L 238.685925 175.774892 
L 239.222608 170.518411 
L 239.75929 167.622912 
L 240.295973 168.589112 
L 240.832656 171.894532 
L 241.369338 176.367886 
L 241.906021 178.468864 
L 242.442703 179.706645 
L 242.979386 179.677096 
L 243.516069 178.954949 
L 244.052751 177.827042 
L 245.126116 173.766269 
L 246.199482 176.70686 
L 246.736164 178.741141 
L 247.272847 179.886232 
L 247.80953 180.156054 
L 248.346212 180.224899 
L 248.882895 180.457295 
L 249.419577 180.22972 
L 251.029625 180.011587 
L 251.566308 179.086804 
L 253.713038 169.963166 
L 254.249721 169.206783 
L 256.396451 176.927276 
L 256.933134 177.949908 
L 257.469817 179.50704 
L 258.006499 179.783954 
L 258.543182 180.267833 
L 258.543182 180.267833 
" clip-path="url(#p469fb12a23)" style="fill: none; stroke: #ff0000; stroke-opacity: 0.5; stroke-linecap: square"/>
   </g>
   <g id="patch_3">
    <path d="M 33.7 188.6 
L 33.7 14.52 
" style="fill: none; stroke: #000000; stroke-width: 0.8; stroke-linejoin: miter; stroke-linecap: square"/>
   </g>
   <g id="patch_4">
    <path d="M 269.25 188.6 
L 269.25 14.52 
" style="fill: none; stroke: #000000; stroke-width: 0.8; stroke-linejoin: miter; stroke-linecap: square"/>
   </g>
   <g id="patch_5">
    <path d="M 33.7 188.6 
L 269.25 188.6 
" style="fill: none; stroke: #000000; stroke-width: 0.8; stroke-linejoin: miter; stroke-linecap: square"/>
   </g>
   <g id="patch_6">
    <path d="M 33.7 14.52 
L 269.25 14.52 
" style="fill: none; stroke: #000000; stroke-width: 0.8; stroke-linejoin: miter; stroke-linecap: square"/>
   </g>
   <g id="legend_1">
    <g id="patch_7">
     <path d="M 213.917188 66.554375 
L 262.25 66.554375 
Q 264.25 66.554375 264.25 64.554375 
L 264.25 21.52 
Q 264.25 19.52 262.25 19.52 
L 213.917188 19.52 
Q 211.917188 19.52 211.917188 21.52 
L 211.917188 64.554375 
Q 211.917188 66.554375 213.917188 66.554375 
z
" style="fill: #ffffff; opacity: 0.8; stroke: #cccccc; stroke-linejoin: miter"/>
    </g>
    <g id="line2d_15">
     <path d="M 215.917188 27.618438 
L 225.917188 27.618438 
L 235.917188 27.618438 
" style="fill: none; stroke: #000000; stroke-opacity: 0.5; stroke-width: 0.5; stroke-linecap: square"/>
    </g>
    <g id="text_14">
     <!-- all -->
     <g transform="translate(243.917188 31.118438) scale(0.1 -0.1)">
      <defs>
       <path id="DejaVuSans-61" d="M 2194 1759 
Q 1497 1759 1228 1600 
Q 959 1441 959 1056 
Q 959 750 1161 570 
Q 1363 391 1709 391 
Q 2188 391 2477 730 
Q 2766 1069 2766 1631 
L 2766 1759 
L 2194 1759 
z
M 3341 1997 
L 3341 0 
L 2766 0 
L 2766 531 
Q 2569 213 2275 61 
Q 1981 -91 1556 -91 
Q 1019 -91 701 211 
Q 384 513 384 1019 
Q 384 1609 779 1909 
Q 1175 2209 1959 2209 
L 2766 2209 
L 2766 2266 
Q 2766 2663 2505 2880 
Q 2244 3097 1772 3097 
Q 1472 3097 1187 3025 
Q 903 2953 641 2809 
L 641 3341 
Q 956 3463 1253 3523 
Q 1550 3584 1831 3584 
Q 2591 3584 2966 3190 
Q 3341 2797 3341 1997 
z
" transform="scale(0.015625)"/>
       <path id="DejaVuSans-6c" d="M 603 4863 
L 1178 4863 
L 1178 0 
L 603 0 
L 603 4863 
z
" transform="scale(0.015625)"/>
      </defs>
      <use xlink:href="#DejaVuSans-61"/>
      <use xlink:href="#DejaVuSans-6c" transform="translate(61.279297 0)"/>
      <use xlink:href="#DejaVuSans-6c" transform="translate(89.0625 0)"/>
     </g>
    </g>
    <g id="line2d_16">
     <path d="M 215.917188 42.296563 
L 225.917188 42.296563 
L 235.917188 42.296563 
" style="fill: none; stroke: #0000ff; stroke-opacity: 0.5; stroke-linecap: square"/>
    </g>
    <g id="text_15">
     <!-- 1-1 -->
     <g transform="translate(243.917188 45.796563) scale(0.1 -0.1)">
      <defs>
       <path id="DejaVuSans-2d" d="M 313 2009 
L 1997 2009 
L 1997 1497 
L 313 1497 
L 313 2009 
z
" transform="scale(0.015625)"/>
      </defs>
      <use xlink:href="#DejaVuSans-31"/>
      <use xlink:href="#DejaVuSans-2d" transform="translate(63.623047 0)"/>
      <use xlink:href="#DejaVuSans-31" transform="translate(99.707031 0)"/>
     </g>
    </g>
    <g id="line2d_17">
     <path d="M 215.917188 56.974688 
L 225.917188 56.974688 
L 235.917188 56.974688 
" style="fill: none; stroke: #ff0000; stroke-opacity: 0.5; stroke-linecap: square"/>
    </g>
    <g id="text_16">
     <!-- 2-2 -->
     <g transform="translate(243.917188 60.474688) scale(0.1 -0.1)">
      <use xlink:href="#DejaVuSans-32"/>
      <use xlink:href="#DejaVuSans-2d" transform="translate(63.623047 0)"/>
      <use xlink:href="#DejaVuSans-32" transform="translate(99.707031 0)"/>
     </g>
    </g>
   </g>
  </g>
 </g>
 <defs>
  <clipPath id="p469fb12a23">
   <rect x="33.7" y="14.52" width="235.55" height="174.08"/>
  </clipPath>
 </defs>
</svg>
