<?xml version="1.0" encoding="utf-8" standalone="no"?>
<!DOCTYPE svg PUBLIC "-//W3C//DTD SVG 1.1//EN"
  "http://www.w3.org/Graphics/SVG/1.1/DTD/svg11.dtd">
<svg xmlns:xlink="http://www.w3.org/1999/xlink" width="288pt" height="216pt" viewBox="0 0 288 216" xmlns="http://www.w3.org/2000/svg" version="1.1">
 <metadata>
  <rdf:RDF xmlns:dc="http://purl.org/dc/elements/1.1/" xmlns:cc="http://creativecommons.org/ns#" xmlns:rdf="http://www.w3.org/1999/02/22-rdf-syntax-ns#">
   <cc:Work>
    <dc:type rdf:resource="http://purl.org/dc/dcmitype/StillImage"/>
    <dc:date>2025-09-18T00:23:14.594938</dc:date>
    <dc:format>image/svg+xml</dc:format>
    <dc:creator>
     <cc:Agent>
      <dc:title>Matplotlib v3.10.0, https://matplotlib.org/</dc:title>
     </cc:Agent>
    </dc:creator>
   </cc:Work>
  </rdf:RDF>
 </metadata>
 <defs>
  <style type="text/css">*{stroke-linejoin: round; stroke-linecap: butt}</style>
 </defs>
 <g id="figure_1">
  <g id="patch_1">
   <path d="M 0 216 
L 288 216 
L 288 0 
L 0 0 
z
" style="fill: #ffffff"/>
  </g>
  <g id="axes_1">
   <g id="patch_2">
    <path d="M 33.7 188.6 
L 269.25 188.6 
L 269.25 14.52 
L 33.7 14.52 
z
" style="fill: #ffffff"/>
   </g>
   <g id="matplotlib.axis_1">
    <g id="xtick_1">
     <g id="line2d_1">
      <defs>
       <path id="m47f1a1cdd8" d="M 0 0 
L 0 3.5 
" style="stroke: #000000; stroke-width: 0.8"/>
      </defs>
      <g>
       <use xlink:href="#m47f1a1cdd8" x="44.138477" y="188.6" style="stroke: #000000; stroke-width: 0.8"/>
      </g>
     </g>
     <g id="text_1">
      <!-- 0 -->
      <g transform="translate(40.957227 203.198437) scale(0.1 -0.1)">
       <defs>
        <path id="DejaVuSans-30" d="M 2034 4250 
Q 1547 4250 1301 3770 
Q 1056 3291 1056 2328 
Q 1056 1369 1301 889 
Q 1547 409 2034 409 
Q 2525 409 2770 889 
Q 3016 1369 3016 2328 
Q 3016 3291 2770 3770 
Q 2525 4250 2034 4250 
z
M 2034 4750 
Q 2819 4750 3233 4129 
Q 3647 3509 3647 2328 
Q 3647 1150 3233 529 
Q 2819 -91 2034 -91 
Q 1250 -91 836 529 
Q 422 1150 422 2328 
Q 422 3509 836 4129 
Q 1250 4750 2034 4750 
z
" transform="scale(0.015625)"/>
       </defs>
       <use xlink:href="#DejaVuSans-30"/>
      </g>
     </g>
    </g>
    <g id="xtick_2">
     <g id="line2d_2">
      <g>
       <use xlink:href="#m47f1a1cdd8" x="87.073086" y="188.6" style="stroke: #000000; stroke-width: 0.8"/>
      </g>
     </g>
     <g id="text_2">
      <!-- 200 -->
      <g transform="translate(77.529336 203.198437) scale(0.1 -0.1)">
       <defs>
        <path id="DejaVuSans-32" d="M 1228 531 
L 3431 531 
L 3431 0 
L 469 0 
L 469 531 
Q 828 903 1448 1529 
Q 2069 2156 2228 2338 
Q 2531 2678 2651 2914 
Q 2772 3150 2772 3378 
Q 2772 3750 2511 3984 
Q 2250 4219 1831 4219 
Q 1534 4219 1204 4116 
Q 875 4013 500 3803 
L 500 4441 
Q 881 4594 1212 4672 
Q 1544 4750 1819 4750 
Q 2544 4750 2975 4387 
Q 3406 4025 3406 3419 
Q 3406 3131 3298 2873 
Q 3191 2616 2906 2266 
Q 2828 2175 2409 1742 
Q 1991 1309 1228 531 
z
" transform="scale(0.015625)"/>
       </defs>
       <use xlink:href="#DejaVuSans-32"/>
       <use xlink:href="#DejaVuSans-30" transform="translate(63.623047 0)"/>
       <use xlink:href="#DejaVuSans-30" transform="translate(127.246094 0)"/>
      </g>
     </g>
    </g>
    <g id="xtick_3">
     <g id="line2d_3">
      <g>
       <use xlink:href="#m47f1a1cdd8" x="130.007695" y="188.6" style="stroke: #000000; stroke-width: 0.8"/>
      </g>
     </g>
     <g id="text_3">
      <!-- 400 -->
      <g transform="translate(120.463945 203.198437) scale(0.1 -0.1)">
       <defs>
        <path id="DejaVuSans-34" d="M 2419 4116 
L 825 1625 
L 2419 1625 
L 2419 4116 
z
M 2253 4666 
L 3047 4666 
L 3047 1625 
L 3713 1625 
L 3713 1100 
L 3047 1100 
L 3047 0 
L 2419 0 
L 2419 1100 
L 313 1100 
L 313 1709 
L 2253 4666 
z
" transform="scale(0.015625)"/>
       </defs>
       <use xlink:href="#DejaVuSans-34"/>
       <use xlink:href="#DejaVuSans-30" transform="translate(63.623047 0)"/>
       <use xlink:href="#DejaVuSans-30" transform="translate(127.246094 0)"/>
      </g>
     </g>
    </g>
    <g id="xtick_4">
     <g id="line2d_4">
      <g>
       <use xlink:href="#m47f1a1cdd8" x="172.942305" y="188.6" style="stroke: #000000; stroke-width: 0.8"/>
      </g>
     </g>
     <g id="text_4">
      <!-- 600 -->
      <g transform="translate(163.398555 203.198437) scale(0.1 -0.1)">
       <defs>
        <path id="DejaVuSans-36" d="M 2113 2584 
Q 1688 2584 1439 2293 
Q 1191 2003 1191 1497 
Q 1191 994 1439 701 
Q 1688 409 2113 409 
Q 2538 409 2786 701 
Q 3034 994 3034 1497 
Q 3034 2003 2786 2293 
Q 2538 2584 2113 2584 
z
M 3366 4563 
L 3366 3988 
Q 3128 4100 2886 4159 
Q 2644 4219 2406 4219 
Q 1781 4219 1451 3797 
Q 1122 3375 1075 2522 
Q 1259 2794 1537 2939 
Q 1816 3084 2150 3084 
Q 2853 3084 3261 2657 
Q 3669 2231 3669 1497 
Q 3669 778 3244 343 
Q 2819 -91 2113 -91 
Q 1303 -91 875 529 
Q 447 1150 447 2328 
Q 447 3434 972 4092 
Q 1497 4750 2381 4750 
Q 2619 4750 2861 4703 
Q 3103 4656 3366 4563 
z
" transform="scale(0.015625)"/>
       </defs>
       <use xlink:href="#DejaVuSans-36"/>
       <use xlink:href="#DejaVuSans-30" transform="translate(63.623047 0)"/>
       <use xlink:href="#DejaVuSans-30" transform="translate(127.246094 0)"/>
      </g>
     </g>
    </g>
    <g id="xtick_5">
     <g id="line2d_5">
      <g>
       <use xlink:href="#m47f1a1cdd8" x="215.876914" y="188.6" style="stroke: #000000; stroke-width: 0.8"/>
      </g>
     </g>
     <g id="text_5">
      <!-- 800 -->
      <g transform="translate(206.333164 203.198437) scale(0.1 -0.1)">
       <defs>
        <path id="DejaVuSans-38" d="M 2034 2216 
Q 1584 2216 1326 1975 
Q 1069 1734 1069 1313 
Q 1069 891 1326 650 
Q 1584 409 2034 409 
Q 2484 409 2743 651 
Q 3003 894 3003 1313 
Q 3003 1734 2745 1975 
Q 2488 2216 2034 2216 
z
M 1403 2484 
Q 997 2584 770 2862 
Q 544 3141 544 3541 
Q 544 4100 942 4425 
Q 1341 4750 2034 4750 
Q 2731 4750 3128 4425 
Q 3525 4100 3525 3541 
Q 3525 3141 3298 2862 
Q 3072 2584 2669 2484 
Q 3125 2378 3379 2068 
Q 3634 1759 3634 1313 
Q 3634 634 3220 271 
Q 2806 -91 2034 -91 
Q 1263 -91 848 271 
Q 434 634 434 1313 
Q 434 1759 690 2068 
Q 947 2378 1403 2484 
z
M 1172 3481 
Q 1172 3119 1398 2916 
Q 1625 2713 2034 2713 
Q 2441 2713 2670 2916 
Q 2900 3119 2900 3481 
Q 2900 3844 2670 4047 
Q 2441 4250 2034 4250 
Q 1625 4250 1398 4047 
Q 1172 3844 1172 3481 
z
" transform="scale(0.015625)"/>
       </defs>
       <use xlink:href="#DejaVuSans-38"/>
       <use xlink:href="#DejaVuSans-30" transform="translate(63.623047 0)"/>
       <use xlink:href="#DejaVuSans-30" transform="translate(127.246094 0)"/>
      </g>
     </g>
    </g>
    <g id="xtick_6">
     <g id="line2d_6">
      <g>
       <use xlink:href="#m47f1a1cdd8" x="258.811523" y="188.6" style="stroke: #000000; stroke-width: 0.8"/>
      </g>
     </g>
     <g id="text_6">
      <!-- 1000 -->
      <g transform="translate(246.086523 203.198437) scale(0.1 -0.1)">
       <defs>
        <path id="DejaVuSans-31" d="M 794 531 
L 1825 531 
L 1825 4091 
L 703 3866 
L 703 4441 
L 1819 4666 
L 2450 4666 
L 2450 531 
L 3481 531 
L 3481 0 
L 794 0 
L 794 531 
z
" transform="scale(0.015625)"/>
       </defs>
       <use xlink:href="#DejaVuSans-31"/>
       <use xlink:href="#DejaVuSans-30" transform="translate(63.623047 0)"/>
       <use xlink:href="#DejaVuSans-30" transform="translate(127.246094 0)"/>
       <use xlink:href="#DejaVuSans-30" transform="translate(190.869141 0)"/>
      </g>
     </g>
    </g>
    <g id="text_7">
     <!-- q (nm) -->
     <g transform="translate(134.771094 216.876563) scale(0.1 -0.1)">
      <defs>
       <path id="DejaVuSans-71" d="M 947 1747 
Q 947 1113 1208 752 
Q 1469 391 1925 391 
Q 2381 391 2643 752 
Q 2906 1113 2906 1747 
Q 2906 2381 2643 2742 
Q 2381 3103 1925 3103 
Q 1469 3103 1208 2742 
Q 947 2381 947 1747 
z
M 2906 525 
Q 2725 213 2448 61 
Q 2172 -91 1784 -91 
Q 1150 -91 751 415 
Q 353 922 353 1747 
Q 353 2572 751 3078 
Q 1150 3584 1784 3584 
Q 2172 3584 2448 3432 
Q 2725 3281 2906 2969 
L 2906 3500 
L 3481 3500 
L 3481 -1331 
L 2906 -1331 
L 2906 525 
z
" transform="scale(0.015625)"/>
       <path id="DejaVuSans-20" transform="scale(0.015625)"/>
       <path id="DejaVuSans-28" d="M 1984 4856 
Q 1566 4138 1362 3434 
Q 1159 2731 1159 2009 
Q 1159 1288 1364 580 
Q 1569 -128 1984 -844 
L 1484 -844 
Q 1016 -109 783 600 
Q 550 1309 550 2009 
Q 550 2706 781 3412 
Q 1013 4119 1484 4856 
L 1984 4856 
z
" transform="scale(0.015625)"/>
       <path id="DejaVuSans-6e" d="M 3513 2113 
L 3513 0 
L 2938 0 
L 2938 2094 
Q 2938 2591 2744 2837 
Q 2550 3084 2163 3084 
Q 1697 3084 1428 2787 
Q 1159 2491 1159 1978 
L 1159 0 
L 581 0 
L 581 3500 
L 1159 3500 
L 1159 2956 
Q 1366 3272 1645 3428 
Q 1925 3584 2291 3584 
Q 2894 3584 3203 3211 
Q 3513 2838 3513 2113 
z
" transform="scale(0.015625)"/>
       <path id="DejaVuSans-6d" d="M 3328 2828 
Q 3544 3216 3844 3400 
Q 4144 3584 4550 3584 
Q 5097 3584 5394 3201 
Q 5691 2819 5691 2113 
L 5691 0 
L 5113 0 
L 5113 2094 
Q 5113 2597 4934 2840 
Q 4756 3084 4391 3084 
Q 3944 3084 3684 2787 
Q 3425 2491 3425 1978 
L 3425 0 
L 2847 0 
L 2847 2094 
Q 2847 2600 2669 2842 
Q 2491 3084 2119 3084 
Q 1678 3084 1418 2786 
Q 1159 2488 1159 1978 
L 1159 0 
L 581 0 
L 581 3500 
L 1159 3500 
L 1159 2956 
Q 1356 3278 1631 3431 
Q 1906 3584 2284 3584 
Q 2666 3584 2933 3390 
Q 3200 3197 3328 2828 
z
" transform="scale(0.015625)"/>
       <path id="DejaVuSans-29" d="M 513 4856 
L 1013 4856 
Q 1481 4119 1714 3412 
Q 1947 2706 1947 2009 
Q 1947 1309 1714 600 
Q 1481 -109 1013 -844 
L 513 -844 
Q 928 -128 1133 580 
Q 1338 1288 1338 2009 
Q 1338 2731 1133 3434 
Q 928 4138 513 4856 
z
" transform="scale(0.015625)"/>
      </defs>
      <use xlink:href="#DejaVuSans-71"/>
      <use xlink:href="#DejaVuSans-20" transform="translate(63.476562 0)"/>
      <use xlink:href="#DejaVuSans-28" transform="translate(95.263672 0)"/>
      <use xlink:href="#DejaVuSans-6e" transform="translate(134.277344 0)"/>
      <use xlink:href="#DejaVuSans-6d" transform="translate(197.65625 0)"/>
      <use xlink:href="#DejaVuSans-29" transform="translate(295.068359 0)"/>
     </g>
    </g>
   </g>
   <g id="matplotlib.axis_2">
    <g id="ytick_1">
     <g id="line2d_7">
      <defs>
       <path id="m1386307cfe" d="M 0 0 
L -3.5 0 
" style="stroke: #000000; stroke-width: 0.8"/>
      </defs>
      <g>
       <use xlink:href="#m1386307cfe" x="33.7" y="180.687273" style="stroke: #000000; stroke-width: 0.8"/>
      </g>
     </g>
     <g id="text_8">
      <!-- 0 -->
      <g transform="translate(20.3375 184.486491) scale(0.1 -0.1)">
       <use xlink:href="#DejaVuSans-30"/>
      </g>
     </g>
    </g>
    <g id="ytick_2">
     <g id="line2d_8">
      <g>
       <use xlink:href="#m1386307cfe" x="33.7" y="158.121981" style="stroke: #000000; stroke-width: 0.8"/>
      </g>
     </g>
     <g id="text_9">
      <!-- 100 -->
      <g transform="translate(7.6125 161.9212) scale(0.1 -0.1)">
       <use xlink:href="#DejaVuSans-31"/>
       <use xlink:href="#DejaVuSans-30" transform="translate(63.623047 0)"/>
       <use xlink:href="#DejaVuSans-30" transform="translate(127.246094 0)"/>
      </g>
     </g>
    </g>
    <g id="ytick_3">
     <g id="line2d_9">
      <g>
       <use xlink:href="#m1386307cfe" x="33.7" y="135.55669" style="stroke: #000000; stroke-width: 0.8"/>
      </g>
     </g>
     <g id="text_10">
      <!-- 200 -->
      <g transform="translate(7.6125 139.355909) scale(0.1 -0.1)">
       <use xlink:href="#DejaVuSans-32"/>
       <use xlink:href="#DejaVuSans-30" transform="translate(63.623047 0)"/>
       <use xlink:href="#DejaVuSans-30" transform="translate(127.246094 0)"/>
      </g>
     </g>
    </g>
    <g id="ytick_4">
     <g id="line2d_10">
      <g>
       <use xlink:href="#m1386307cfe" x="33.7" y="112.991398" style="stroke: #000000; stroke-width: 0.8"/>
      </g>
     </g>
     <g id="text_11">
      <!-- 300 -->
      <g transform="translate(7.6125 116.790617) scale(0.1 -0.1)">
       <defs>
        <path id="DejaVuSans-33" d="M 2597 2516 
Q 3050 2419 3304 2112 
Q 3559 1806 3559 1356 
Q 3559 666 3084 287 
Q 2609 -91 1734 -91 
Q 1441 -91 1130 -33 
Q 819 25 488 141 
L 488 750 
Q 750 597 1062 519 
Q 1375 441 1716 441 
Q 2309 441 2620 675 
Q 2931 909 2931 1356 
Q 2931 1769 2642 2001 
Q 2353 2234 1838 2234 
L 1294 2234 
L 1294 2753 
L 1863 2753 
Q 2328 2753 2575 2939 
Q 2822 3125 2822 3475 
Q 2822 3834 2567 4026 
Q 2313 4219 1838 4219 
Q 1578 4219 1281 4162 
Q 984 4106 628 3988 
L 628 4550 
Q 988 4650 1302 4700 
Q 1616 4750 1894 4750 
Q 2613 4750 3031 4423 
Q 3450 4097 3450 3541 
Q 3450 3153 3228 2886 
Q 3006 2619 2597 2516 
z
" transform="scale(0.015625)"/>
       </defs>
       <use xlink:href="#DejaVuSans-33"/>
       <use xlink:href="#DejaVuSans-30" transform="translate(63.623047 0)"/>
       <use xlink:href="#DejaVuSans-30" transform="translate(127.246094 0)"/>
      </g>
     </g>
    </g>
    <g id="ytick_5">
     <g id="line2d_11">
      <g>
       <use xlink:href="#m1386307cfe" x="33.7" y="90.426107" style="stroke: #000000; stroke-width: 0.8"/>
      </g>
     </g>
     <g id="text_12">
      <!-- 400 -->
      <g transform="translate(7.6125 94.225326) scale(0.1 -0.1)">
       <use xlink:href="#DejaVuSans-34"/>
       <use xlink:href="#DejaVuSans-30" transform="translate(63.623047 0)"/>
       <use xlink:href="#DejaVuSans-30" transform="translate(127.246094 0)"/>
      </g>
     </g>
    </g>
    <g id="ytick_6">
     <g id="line2d_12">
      <g>
       <use xlink:href="#m1386307cfe" x="33.7" y="67.860816" style="stroke: #000000; stroke-width: 0.8"/>
      </g>
     </g>
     <g id="text_13">
      <!-- 500 -->
      <g transform="translate(7.6125 71.660034) scale(0.1 -0.1)">
       <defs>
        <path id="DejaVuSans-35" d="M 691 4666 
L 3169 4666 
L 3169 4134 
L 1269 4134 
L 1269 2991 
Q 1406 3038 1543 3061 
Q 1681 3084 1819 3084 
Q 2600 3084 3056 2656 
Q 3513 2228 3513 1497 
Q 3513 744 3044 326 
Q 2575 -91 1722 -91 
Q 1428 -91 1123 -41 
Q 819 9 494 109 
L 494 744 
Q 775 591 1075 516 
Q 1375 441 1709 441 
Q 2250 441 2565 725 
Q 2881 1009 2881 1497 
Q 2881 1984 2565 2268 
Q 2250 2553 1709 2553 
Q 1456 2553 1204 2497 
Q 953 2441 691 2322 
L 691 4666 
z
" transform="scale(0.015625)"/>
       </defs>
       <use xlink:href="#DejaVuSans-35"/>
       <use xlink:href="#DejaVuSans-30" transform="translate(63.623047 0)"/>
       <use xlink:href="#DejaVuSans-30" transform="translate(127.246094 0)"/>
      </g>
     </g>
    </g>
    <g id="ytick_7">
     <g id="line2d_13">
      <g>
       <use xlink:href="#m1386307cfe" x="33.7" y="45.295524" style="stroke: #000000; stroke-width: 0.8"/>
      </g>
     </g>
     <g id="text_14">
      <!-- 600 -->
      <g transform="translate(7.6125 49.094743) scale(0.1 -0.1)">
       <use xlink:href="#DejaVuSans-36"/>
       <use xlink:href="#DejaVuSans-30" transform="translate(63.623047 0)"/>
       <use xlink:href="#DejaVuSans-30" transform="translate(127.246094 0)"/>
      </g>
     </g>
    </g>
    <g id="ytick_8">
     <g id="line2d_14">
      <g>
       <use xlink:href="#m1386307cfe" x="33.7" y="22.730233" style="stroke: #000000; stroke-width: 0.8"/>
      </g>
     </g>
     <g id="text_15">
      <!-- 700 -->
      <g transform="translate(7.6125 26.529451) scale(0.1 -0.1)">
       <defs>
        <path id="DejaVuSans-37" d="M 525 4666 
L 3525 4666 
L 3525 4397 
L 1831 0 
L 1172 0 
L 2766 4134 
L 525 4134 
L 525 4666 
z
" transform="scale(0.015625)"/>
       </defs>
       <use xlink:href="#DejaVuSans-37"/>
       <use xlink:href="#DejaVuSans-30" transform="translate(63.623047 0)"/>
       <use xlink:href="#DejaVuSans-30" transform="translate(127.246094 0)"/>
      </g>
     </g>
    </g>
    <g id="text_16">
     <!-- rdf -->
     <g transform="translate(1.532813 108.462344) rotate(-90) scale(0.1 -0.1)">
      <defs>
       <path id="DejaVuSans-72" d="M 2631 2963 
Q 2534 3019 2420 3045 
Q 2306 3072 2169 3072 
Q 1681 3072 1420 2755 
Q 1159 2438 1159 1844 
L 1159 0 
L 581 0 
L 581 3500 
L 1159 3500 
L 1159 2956 
Q 1341 3275 1631 3429 
Q 1922 3584 2338 3584 
Q 2397 3584 2469 3576 
Q 2541 3569 2628 3553 
L 2631 2963 
z
" transform="scale(0.015625)"/>
       <path id="DejaVuSans-64" d="M 2906 2969 
L 2906 4863 
L 3481 4863 
L 3481 0 
L 2906 0 
L 2906 525 
Q 2725 213 2448 61 
Q 2172 -91 1784 -91 
Q 1150 -91 751 415 
Q 353 922 353 1747 
Q 353 2572 751 3078 
Q 1150 3584 1784 3584 
Q 2172 3584 2448 3432 
Q 2725 3281 2906 2969 
z
M 947 1747 
Q 947 1113 1208 752 
Q 1469 391 1925 391 
Q 2381 391 2643 752 
Q 2906 1113 2906 1747 
Q 2906 2381 2643 2742 
Q 2381 3103 1925 3103 
Q 1469 3103 1208 2742 
Q 947 2381 947 1747 
z
" transform="scale(0.015625)"/>
       <path id="DejaVuSans-66" d="M 2375 4863 
L 2375 4384 
L 1825 4384 
Q 1516 4384 1395 4259 
Q 1275 4134 1275 3809 
L 1275 3500 
L 2222 3500 
L 2222 3053 
L 1275 3053 
L 1275 0 
L 697 0 
L 697 3053 
L 147 3053 
L 147 3500 
L 697 3500 
L 697 3744 
Q 697 4328 969 4595 
Q 1241 4863 1831 4863 
L 2375 4863 
z
" transform="scale(0.015625)"/>
      </defs>
      <use xlink:href="#DejaVuSans-72"/>
      <use xlink:href="#DejaVuSans-64" transform="translate(39.363281 0)"/>
      <use xlink:href="#DejaVuSans-66" transform="translate(102.839844 0)"/>
     </g>
    </g>
   </g>
   <g id="line2d_15">
    <path d="M 44.406818 180.687273 
L 91.634888 180.687273 
L 92.708254 154.172396 
L 93.244936 180.687273 
L 93.781619 180.687273 
L 94.318301 155.846582 
L 94.854984 168.528394 
L 95.391667 168.781706 
L 95.928349 145.706939 
L 96.465032 157.842938 
L 97.001715 158.304443 
L 97.538397 169.719675 
L 98.07508 148.436008 
L 98.611762 149.068374 
L 99.148445 87.672367 
L 99.685128 150.278501 
L 100.22181 150.857735 
L 100.758493 141.665006 
L 101.295175 151.96762 
L 101.831858 124.311609 
L 102.368541 116.122339 
L 102.905223 144.46382 
L 103.441906 136.223691 
L 103.978589 163.219469 
L 105.051954 146.971981 
L 105.588636 172.405053 
L 106.125319 148.129506 
L 106.662002 148.686042 
L 107.198684 180.687273 
L 107.735367 118.826897 
L 108.272049 157.876263 
L 108.808732 150.775329 
L 109.345415 151.265705 
L 109.882097 130.036743 
L 110.41878 152.210921 
L 110.955463 159.671692 
L 111.492145 132.429261 
L 112.028828 146.760039 
L 112.56551 167.328444 
L 113.102193 147.80796 
L 113.638876 148.313768 
L 114.175558 161.55975 
L 114.712241 149.291107 
L 115.248923 168.317624 
L 116.322289 144.673686 
L 116.858971 157.031294 
L 117.395654 163.204304 
L 117.932337 140.484818 
L 118.469019 135.402807 
L 119.005702 141.629403 
L 119.542384 164.185601 
L 120.079067 153.571845 
L 120.61575 153.951045 
L 121.152432 143.776394 
L 121.689115 149.485806 
L 122.225797 149.913268 
L 122.76248 125.035816 
L 123.299163 150.742102 
L 123.835845 146.220178 
L 124.372528 161.254375 
L 124.909211 166.305639 
L 125.445893 166.494899 
L 125.982576 143.335611 
L 127.055941 135.198701 
L 127.592624 162.725082 
L 128.129306 167.387253 
L 128.665989 167.555585 
L 129.202671 150.432101 
L 129.739354 150.810322 
L 130.276037 146.966331 
L 130.812719 159.871866 
L 131.349402 160.12729 
L 132.422767 152.598932 
L 132.95945 152.937281 
L 133.496132 157.186454 
L 134.032815 169.076787 
L 134.569498 134.794815 
L 135.10618 154.231667 
L 135.642863 128.394837 
L 136.179545 158.536817 
L 136.716228 151.494742 
L 137.789593 159.291919 
L 138.326276 156.009663 
L 138.862959 159.774007 
L 139.399641 142.777118 
L 139.936324 160.239984 
L 140.473006 170.577243 
L 141.009689 154.025093 
L 141.546372 154.318136 
L 142.083054 161.126506 
L 142.619737 148.440398 
L 143.156419 145.599154 
L 143.693102 145.976455 
L 144.229785 158.834816 
L 144.766467 131.270101 
L 145.30315 174.575496 
L 145.839833 147.426379 
L 146.376515 162.734947 
L 147.44988 145.524753 
L 148.523246 151.984638 
L 149.059928 152.277533 
L 149.596611 138.505345 
L 150.133293 155.633779 
L 150.669976 147.618299 
L 151.206659 161.589944 
L 151.743341 140.171622 
L 152.280024 148.595645 
L 152.816707 154.207757 
L 153.353389 141.357319 
L 153.890072 144.337496 
L 154.426754 165.260045 
L 154.963437 152.677215 
L 155.50012 150.424826 
L 156.036802 155.709815 
L 156.573485 158.421713 
L 157.64685 158.840716 
L 158.183533 137.404667 
L 158.720215 142.573392 
L 159.256898 150.007811 
L 159.793581 145.615633 
L 160.330263 150.571916 
L 160.866946 153.143574 
L 161.403628 169.315522 
L 161.940311 169.418909 
L 162.476994 153.887813 
L 163.013676 145.276668 
L 163.550359 143.401017 
L 164.087041 150.255121 
L 165.160407 155.063211 
L 165.697089 151.055842 
L 166.233772 136.629953 
L 166.770455 149.492778 
L 167.307137 155.948655 
L 167.84382 147.987946 
L 168.380502 138.139458 
L 168.917185 154.574199 
L 169.453868 154.797414 
L 169.99055 160.941415 
L 170.527233 149.361734 
L 171.063915 149.625975 
L 171.600598 147.962033 
L 172.137281 153.962587 
L 172.673963 156.078355 
L 173.210646 154.405271 
L 173.747329 149.037182 
L 174.284011 156.683492 
L 174.820694 155.04896 
L 175.357376 142.543739 
L 175.894059 159.068137 
L 176.430742 134.22515 
L 176.967424 155.870916 
L 177.504107 154.311869 
L 178.040789 161.50005 
L 178.577472 154.731362 
L 179.114155 146.354032 
L 179.650837 155.140836 
L 180.18752 146.893586 
L 180.724203 145.482309 
L 181.260885 159.063964 
L 181.797568 154.281073 
L 182.33425 144.660206 
L 182.870933 153.063127 
L 183.407616 169.400153 
L 183.944298 140.685053 
L 184.480981 161.632737 
L 185.017663 160.201923 
L 185.554346 138.4631 
L 186.091029 152.750138 
L 186.627711 156.040969 
L 187.164394 151.639112 
L 187.701077 159.443015 
L 188.774442 153.777088 
L 189.311124 153.975711 
L 189.847807 152.699081 
L 190.38449 163.140028 
L 190.921172 148.752117 
L 191.457855 164.835784 
L 191.994537 150.644756 
L 193.067903 169.406864 
L 193.604585 148.488651 
L 194.141268 151.49844 
L 194.677951 162.746614 
L 195.214633 151.911847 
L 195.751316 157.557434 
L 196.824681 143.124715 
L 197.361364 151.380208 
L 197.898046 156.875844 
L 198.434729 155.727694 
L 199.508094 156.071362 
L 200.044777 154.953881 
L 200.581459 147.462901 
L 201.118142 152.76628 
L 201.654825 159.258673 
L 202.191507 150.640246 
L 203.264872 155.984745 
L 203.801555 152.469986 
L 204.338238 152.658721 
L 204.87492 158.898118 
L 205.411603 147.018237 
L 205.948285 162.769722 
L 206.484968 135.596001 
L 207.021651 161.826307 
L 207.558333 158.43677 
L 208.095016 153.92846 
L 208.631699 148.323633 
L 209.168381 149.682085 
L 209.705064 152.164636 
L 210.241746 161.416954 
L 210.778429 164.919641 
L 211.315112 145.997052 
L 211.851794 150.666314 
L 212.388477 159.696013 
L 212.925159 147.753444 
L 213.461842 159.961223 
L 213.998525 151.420294 
L 214.535207 158.067204 
L 215.07189 152.857156 
L 215.608573 162.604407 
L 216.145255 153.203386 
L 216.681938 157.576158 
L 217.21862 143.103171 
L 217.755303 157.860993 
L 218.291986 158.001508 
L 218.828668 159.165466 
L 219.365351 150.130013 
L 219.902033 157.402852 
L 220.438716 155.53194 
L 220.975399 157.684725 
L 221.512081 157.82351 
L 222.048764 161.913757 
L 222.585447 163.990708 
L 223.122129 160.185576 
L 223.658812 155.455967 
L 224.195494 155.606128 
L 224.732177 164.385318 
L 225.26886 158.762153 
L 225.805542 156.048721 
L 226.342225 156.193537 
L 226.878907 146.035316 
L 227.41559 160.203954 
L 227.952273 149.215729 
L 228.488955 153.999875 
L 229.025638 155.069554 
L 229.562321 154.308025 
L 230.099003 158.981861 
L 230.635686 152.812331 
L 231.172368 148.502087 
L 231.709051 151.352563 
L 232.245734 155.939198 
L 232.782416 152.56423 
L 233.319099 155.345286 
L 233.855781 158.964174 
L 234.392464 149.582291 
L 234.929147 154.911991 
L 235.465829 154.201947 
L 236.002512 159.447513 
L 236.539195 151.962173 
L 237.075877 156.322455 
L 237.61256 148.937988 
L 238.149242 159.91494 
L 238.685925 150.113796 
L 239.222608 145.351113 
L 239.75929 154.53458 
L 240.295973 157.115866 
L 240.832656 155.627686 
L 241.369338 153.351832 
L 241.906021 149.501927 
L 242.442703 153.647082 
L 242.979386 150.628742 
L 243.516069 156.297626 
L 244.052751 159.558628 
L 244.589434 159.671653 
L 245.126116 159.009438 
L 245.662799 150.65387 
L 246.199482 155.409145 
L 246.736164 151.733001 
L 247.272847 148.85429 
L 247.80953 155.053214 
L 248.346212 158.18785 
L 248.882895 159.051558 
L 249.419577 162.13326 
L 249.95626 147.463978 
L 250.492943 158.653465 
L 251.029625 155.114473 
L 251.566308 154.519628 
L 252.10299 152.485086 
L 252.639673 156.227113 
L 253.176356 158.499758 
L 253.713038 150.780525 
L 254.249721 154.475331 
L 254.786404 150.379775 
L 255.323086 156.143652 
L 255.859769 155.570207 
L 256.396451 147.367008 
L 256.933134 157.204252 
L 257.469817 153.886167 
L 258.543182 151.432617 
L 258.543182 151.432617 
" clip-path="url(#pb2ef58384b)" style="fill: none; stroke: #000000; stroke-opacity: 0.5; stroke-width: 0.5; stroke-linecap: square"/>
   </g>
   <g id="line2d_16">
    <path d="M 44.406818 180.687273 
L 91.634888 180.687273 
L 92.708254 99.485457 
L 93.244936 180.687273 
L 93.781619 180.687273 
L 94.318301 104.612643 
L 94.854984 143.450703 
L 95.928349 144.978178 
L 96.465032 180.687273 
L 97.538397 180.687273 
L 98.07508 147.764104 
L 98.611762 180.687273 
L 99.148445 22.432727 
L 99.685128 149.644981 
L 100.22181 180.687273 
L 100.758493 120.934418 
L 101.295175 180.687273 
L 102.368541 124.19295 
L 102.905223 180.687273 
L 103.441906 153.453327 
L 103.978589 153.939697 
L 104.515271 128.138881 
L 105.588636 180.687273 
L 106.125319 130.833187 
L 106.662002 180.687273 
L 107.198684 180.687273 
L 107.735367 109.644487 
L 108.272049 180.687273 
L 109.345415 135.635494 
L 109.882097 136.36805 
L 110.41878 158.885063 
L 111.492145 117.348625 
L 112.028828 118.345972 
L 112.56551 180.687273 
L 113.102193 120.271528 
L 113.638876 141.029727 
L 114.175558 141.635239 
L 114.712241 180.687273 
L 115.248923 180.687273 
L 115.785606 162.028968 
L 116.858971 162.575662 
L 117.395654 180.687273 
L 117.932337 145.51012 
L 118.469019 128.680887 
L 119.542384 163.841814 
L 120.079067 164.079071 
L 121.152432 99.94471 
L 121.689115 148.835773 
L 122.225797 117.857005 
L 122.76248 118.711784 
L 123.835845 180.687273 
L 124.372528 165.808959 
L 124.909211 180.687273 
L 125.445893 180.687273 
L 126.519258 152.461308 
L 127.055941 83.17114 
L 127.592624 180.687273 
L 128.129306 167.110168 
L 128.665989 180.687273 
L 129.202671 140.977352 
L 129.739354 167.616105 
L 130.276037 129.052077 
L 130.812719 167.937834 
L 131.349402 155.501292 
L 131.886085 155.80845 
L 132.422767 143.821321 
L 133.496132 168.692062 
L 134.032815 168.8349 
L 134.569498 133.838714 
L 135.10618 157.538615 
L 135.642863 100.614472 
L 136.179545 169.381309 
L 137.252911 125.453034 
L 137.789593 158.846179 
L 138.326276 169.890817 
L 138.862959 170.012792 
L 139.399641 149.023675 
L 139.936324 159.813996 
L 140.473006 180.687273 
L 141.009689 160.274039 
L 141.546372 160.498399 
L 142.619737 141.184849 
L 143.156419 112.305308 
L 143.693102 151.695849 
L 144.229785 132.885019 
L 145.30315 171.328614 
L 145.839833 152.906865 
L 146.376515 171.524105 
L 146.913198 162.551807 
L 147.44988 126.844654 
L 147.986563 154.043497 
L 148.523246 163.106906 
L 149.059928 137.184851 
L 149.596611 120.402266 
L 150.133293 129.536382 
L 150.669976 163.808315 
L 151.206659 163.977107 
L 151.743341 131.055597 
L 152.280024 139.737012 
L 152.816707 132.031156 
L 153.353389 156.597672 
L 153.890072 140.929699 
L 154.426754 172.812958 
L 154.963437 157.292506 
L 155.50012 126.624669 
L 156.036802 157.739231 
L 156.573485 165.534321 
L 157.110167 165.677943 
L 157.64685 143.517776 
L 158.720215 115.030146 
L 159.256898 151.777776 
L 159.793581 130.564054 
L 160.330263 152.309339 
L 161.403628 166.756876 
L 161.940311 166.883527 
L 162.476994 153.329486 
L 163.013676 146.798214 
L 163.550359 113.517167 
L 164.087041 154.059137 
L 164.623724 167.491527 
L 165.160407 161.068848 
L 165.697089 161.241644 
L 166.233772 129.287061 
L 166.770455 155.211766 
L 167.307137 149.11976 
L 167.84382 136.875284 
L 168.380502 137.253043 
L 168.917185 131.474168 
L 169.453868 168.489165 
L 169.99055 162.545763 
L 170.527233 150.707749 
L 171.063915 156.905964 
L 172.137281 157.30317 
L 172.673963 151.700803 
L 173.210646 157.690519 
L 173.747329 146.477243 
L 174.284011 152.413585 
L 174.820694 163.862127 
L 175.357376 147.311676 
L 175.894059 164.135119 
L 176.430742 164.269166 
L 176.967424 137.258645 
L 177.504107 159.147358 
L 178.040789 170.003477 
L 178.577472 148.891281 
L 179.114155 143.886325 
L 179.650837 154.608615 
L 180.18752 154.813978 
L 180.724203 144.748868 
L 181.260885 160.311461 
L 181.797568 155.41571 
L 182.33425 125.52082 
L 182.870933 170.734454 
L 183.407616 165.872926 
L 183.944298 151.285634 
L 184.480981 146.647137 
L 185.017663 151.732016 
L 185.554346 132.794108 
L 186.091029 152.168111 
L 186.627711 161.817444 
L 187.164394 147.912533 
L 188.237759 166.849361 
L 188.774442 153.216456 
L 189.311124 176.142596 
L 189.847807 162.642251 
L 190.38449 167.252662 
L 190.921172 167.350715 
L 191.457855 163.034477 
L 191.994537 145.637662 
L 193.067903 172.050708 
L 193.604585 146.388736 
L 194.141268 150.890338 
L 194.677951 163.781651 
L 195.214633 142.919522 
L 195.751316 168.186953 
L 196.287998 147.587782 
L 196.824681 135.494816 
L 197.898046 160.431019 
L 198.434729 164.59491 
L 198.971411 148.725174 
L 199.508094 152.913395 
L 200.044777 168.865994 
L 200.581459 145.46624 
L 201.118142 153.480167 
L 201.654825 153.665176 
L 202.191507 146.180133 
L 202.72819 150.221602 
L 203.801555 143.115336 
L 204.338238 158.294895 
L 204.87492 162.151357 
L 205.411603 147.544312 
L 205.948285 166.054604 
L 206.484968 140.713263 
L 207.021651 166.246844 
L 207.558333 151.995831 
L 208.095016 145.057326 
L 208.631699 152.369084 
L 209.168381 156.069726 
L 209.705064 145.747035 
L 210.241746 170.272797 
L 210.778429 163.441421 
L 211.315112 142.989629 
L 211.851794 153.446029 
L 212.388477 170.536893 
L 212.925159 150.429316 
L 213.461842 174.005848 
L 213.998525 147.490925 
L 214.535207 154.297189 
L 215.07189 141.35047 
L 215.608573 164.399394 
L 216.145255 158.026278 
L 216.681938 158.167066 
L 217.21862 142.320166 
L 217.755303 145.734529 
L 218.291986 161.7395 
L 218.828668 152.439896 
L 219.365351 155.732175 
L 219.902033 168.285786 
L 220.438716 146.790456 
L 220.975399 137.807521 
L 221.512081 150.243669 
L 222.048764 156.479314 
L 222.585447 168.655923 
L 223.658812 156.911617 
L 224.195494 160.007386 
L 224.732177 171.877024 
L 225.26886 169.009761 
L 225.805542 157.470173 
L 226.342225 154.721554 
L 226.878907 160.610208 
L 227.41559 140.768075 
L 227.952273 149.504985 
L 228.488955 146.867893 
L 229.025638 147.064014 
L 229.562321 150.044133 
L 230.099003 164.069065 
L 230.635686 161.410849 
L 231.172368 142.355606 
L 231.709051 161.630819 
L 232.245734 156.325882 
L 232.782416 159.155565 
L 233.319099 153.925256 
L 233.855781 170.042952 
L 234.392464 159.518601 
L 234.929147 157.006231 
L 236.002512 162.474177 
L 236.539195 154.813556 
L 237.075877 154.95718 
L 237.61256 149.982366 
L 238.149242 167.964217 
L 238.685925 152.850946 
L 239.222608 142.937151 
L 239.75929 143.143852 
L 240.295973 155.795048 
L 240.832656 146.028247 
L 241.369338 158.527472 
L 241.906021 143.954528 
L 242.442703 149.024398 
L 242.979386 141.927583 
L 243.516069 154.183197 
L 244.052751 159.118446 
L 244.589434 147.315243 
L 245.126116 156.977136 
L 245.662799 142.952993 
L 246.199482 159.574288 
L 247.272847 155.154564 
L 247.80953 146.053014 
L 248.346212 160.015925 
L 248.882895 153.269597 
L 249.419577 164.777205 
L 249.95626 137.727704 
L 250.492943 153.695857 
L 251.029625 165.023932 
L 251.566308 158.4266 
L 252.10299 156.326729 
L 252.639673 165.26478 
L 253.176356 160.960065 
L 253.713038 141.43466 
L 254.249721 161.161144 
L 254.786404 159.101986 
L 255.323086 159.211601 
L 255.859769 157.183628 
L 256.396451 142.421024 
L 256.933134 157.420085 
L 257.469817 149.118659 
L 258.006499 149.276977 
L 258.543182 147.350567 
L 258.543182 147.350567 
" clip-path="url(#pb2ef58384b)" style="fill: none; stroke: #0000ff; stroke-opacity: 0.5; stroke-linecap: square"/>
   </g>
   <g id="line2d_17">
    <path d="M 44.406818 180.687273 
L 99.148445 180.687273 
L 99.685128 125.50098 
L 100.22181 180.687273 
L 101.295175 76.445563 
L 102.368541 180.687273 
L 102.905223 82.078988 
L 103.441906 83.855474 
L 103.978589 180.687273 
L 104.515271 180.687273 
L 105.051954 134.797015 
L 105.588636 180.687273 
L 106.125319 136.372533 
L 106.662002 137.130045 
L 107.198684 180.687273 
L 107.735367 138.587847 
L 109.345415 140.641252 
L 109.882097 62.502702 
L 110.41878 141.927793 
L 111.492145 143.153263 
L 112.028828 106.8013 
L 112.56551 180.687273 
L 113.102193 180.687273 
L 113.638876 145.436125 
L 114.175558 145.974361 
L 114.712241 180.687273 
L 115.248923 147.014339 
L 115.785606 147.516955 
L 116.322289 115.329283 
L 117.395654 180.687273 
L 117.932337 149.418695 
L 119.005702 150.308932 
L 119.542384 180.687273 
L 120.079067 151.161586 
L 120.61575 151.57449 
L 121.152432 180.687273 
L 122.225797 180.687273 
L 122.76248 42.963975 
L 123.299163 180.687273 
L 123.835845 127.071791 
L 124.372528 127.786608 
L 124.909211 180.687273 
L 125.445893 180.687273 
L 126.519258 130.507785 
L 127.055941 131.155274 
L 127.592624 156.238735 
L 128.129306 156.550199 
L 128.665989 180.687273 
L 129.202671 133.623673 
L 129.739354 157.449643 
L 130.276037 157.7383 
L 130.812719 135.355942 
L 131.886085 180.687273 
L 132.422767 158.840785 
L 132.95945 159.103945 
L 133.496132 138.037639 
L 134.032815 159.61639 
L 134.569498 139.044115 
L 135.10618 180.687273 
L 135.642863 160.351325 
L 137.252911 161.048435 
L 137.789593 180.687273 
L 138.326276 123.106186 
L 138.862959 142.733569 
L 139.399641 124.396443 
L 139.936324 162.133251 
L 140.473006 162.33944 
L 141.009689 108.106896 
L 141.546372 162.74161 
L 142.083054 180.687273 
L 142.619737 163.130642 
L 143.156419 128.586736 
L 143.693102 163.507172 
L 144.766467 130.24058 
L 145.30315 164.049659 
L 146.376515 131.817055 
L 147.44988 164.733907 
L 147.986563 164.898369 
L 148.523246 133.806303 
L 149.596611 165.376795 
L 150.133293 150.375637 
L 150.669976 165.683756 
L 151.206659 136.126837 
L 152.280024 137.007003 
L 152.816707 151.854022 
L 153.353389 123.586005 
L 154.426754 180.687273 
L 154.963437 139.096582 
L 155.50012 153.226904 
L 156.036802 126.291919 
L 156.573485 126.810116 
L 157.110167 167.345649 
L 157.64685 154.255635 
L 158.720215 154.748659 
L 159.256898 142.141285 
L 159.793581 180.687273 
L 160.330263 130.237619 
L 161.940311 168.417278 
L 162.476994 132.051212 
L 163.550359 156.804574 
L 164.087041 157.017822 
L 165.160407 134.184344 
L 165.697089 157.640604 
L 166.233772 123.57593 
L 166.770455 112.752599 
L 167.307137 158.239267 
L 167.84382 169.560419 
L 168.380502 147.59453 
L 168.917185 158.814784 
L 169.453868 159.001751 
L 169.99055 180.687273 
L 170.527233 159.368504 
L 171.063915 127.839926 
L 171.600598 138.764741 
L 172.137281 159.901407 
L 173.747329 160.414664 
L 174.284011 130.422945 
L 174.820694 160.746362 
L 175.357376 111.46382 
L 175.894059 161.069908 
L 176.430742 141.770285 
L 176.967424 151.734857 
L 177.504107 171.113978 
L 178.040789 161.693861 
L 178.577472 124.161073 
L 179.114155 133.955916 
L 179.650837 152.870045 
L 180.18752 107.092139 
L 180.724203 144.178421 
L 181.260885 162.575441 
L 181.797568 135.760055 
L 182.33425 136.108327 
L 183.407616 171.908401 
L 183.944298 128.417703 
L 184.480981 172.04216 
L 185.017663 172.107938 
L 185.554346 121.086903 
L 186.091029 155.336912 
L 186.627711 155.527505 
L 187.164394 164.039787 
L 187.701077 147.640649 
L 188.237759 147.8863 
L 188.774442 164.408272 
L 189.311124 156.449004 
L 189.847807 124.547217 
L 190.38449 156.803524 
L 190.921172 149.074696 
L 191.457855 180.687273 
L 191.994537 141.743266 
L 192.53122 165.222161 
L 193.067903 165.333383 
L 193.604585 157.821585 
L 194.141268 165.552324 
L 194.677951 150.632836 
L 195.214633 158.306387 
L 195.751316 151.056889 
L 196.287998 158.620948 
L 196.824681 144.168119 
L 197.361364 144.42348 
L 197.898046 159.080607 
L 198.971411 145.173833 
L 199.508094 159.526226 
L 200.044777 145.661265 
L 200.581459 138.943832 
L 201.118142 146.138567 
L 201.654825 173.824519 
L 202.191507 139.78993 
L 202.72819 153.606681 
L 203.264872 147.064386 
L 203.801555 160.648911 
L 204.338238 154.148161 
L 204.87492 160.915634 
L 205.411603 147.953487 
L 205.948285 154.673644 
L 206.484968 116.082819 
L 207.021651 167.851338 
L 207.558333 148.807897 
L 208.095016 174.353061 
L 208.631699 174.394342 
L 209.168381 130.670676 
L 209.705064 155.840885 
L 210.241746 137.486495 
L 210.778429 168.423559 
L 211.315112 156.317082 
L 211.851794 132.258399 
L 212.388477 150.612074 
L 212.925159 138.849117 
L 213.461842 145.053015 
L 213.998525 139.376269 
L 214.535207 163.093886 
L 215.07189 151.548904 
L 215.608573 145.939806 
L 216.145255 151.911408 
L 216.681938 163.529023 
L 217.21862 123.84712 
L 217.755303 158.091562 
L 218.291986 163.844811 
L 219.902033 147.61665 
L 220.438716 158.77418 
L 220.975399 175.242225 
L 221.512081 169.862882 
L 222.048764 159.16909 
L 222.585447 169.99274 
L 223.122129 159.426253 
L 223.658812 143.702923 
L 224.195494 159.679137 
L 224.732177 144.141062 
L 225.26886 159.927255 
L 225.805542 170.368564 
L 226.342225 144.784064 
L 226.878907 165.390465 
L 227.41559 170.549065 
L 227.952273 155.489466 
L 228.488955 145.615326 
L 229.025638 160.76238 
L 229.562321 146.02029 
L 230.099003 156.067709 
L 230.635686 156.209275 
L 231.172368 146.614685 
L 231.709051 156.488604 
L 232.245734 147.002395 
L 232.782416 156.763156 
L 233.855781 147.571613 
L 234.392464 128.941636 
L 234.929147 166.654065 
L 235.465829 148.126462 
L 236.002512 166.81063 
L 236.539195 162.288188 
L 237.075877 139.51913 
L 237.61256 153.394027 
L 238.149242 162.592263 
L 238.685925 149.195672 
L 239.75929 167.338504 
L 240.295973 154.135573 
L 240.832656 163.082689 
L 241.369338 154.423811 
L 241.906021 150.212705 
L 242.442703 150.377517 
L 243.516069 167.836814 
L 244.052751 167.905749 
L 244.589434 163.736403 
L 245.126116 142.75106 
L 245.662799 159.723786 
L 246.199482 138.982616 
L 246.736164 139.20308 
L 247.272847 135.295792 
L 247.80953 156.058472 
L 248.346212 156.187903 
L 249.419577 148.362059 
L 249.95626 148.530407 
L 250.492943 156.694908 
L 251.566308 149.027655 
L 252.10299 161.001986 
L 252.639673 157.186336 
L 253.176356 141.719952 
L 253.713038 165.18007 
L 254.249721 153.688187 
L 254.786404 149.988202 
L 255.323086 157.779893 
L 255.859769 150.298726 
L 256.396451 161.790363 
L 256.933134 161.885507 
L 257.469817 147.014088 
L 258.006499 143.460261 
L 258.543182 158.462805 
L 258.543182 158.462805 
" clip-path="url(#pb2ef58384b)" style="fill: none; stroke: #ff0000; stroke-opacity: 0.5; stroke-linecap: square"/>
   </g>
   <g id="patch_3">
    <path d="M 33.7 188.6 
L 33.7 14.52 
" style="fill: none; stroke: #000000; stroke-width: 0.8; stroke-linejoin: miter; stroke-linecap: square"/>
   </g>
   <g id="patch_4">
    <path d="M 269.25 188.6 
L 269.25 14.52 
" style="fill: none; stroke: #000000; stroke-width: 0.8; stroke-linejoin: miter; stroke-linecap: square"/>
   </g>
   <g id="patch_5">
    <path d="M 33.7 188.6 
L 269.25 188.6 
" style="fill: none; stroke: #000000; stroke-width: 0.8; stroke-linejoin: miter; stroke-linecap: square"/>
   </g>
   <g id="patch_6">
    <path d="M 33.7 14.52 
L 269.25 14.52 
" style="fill: none; stroke: #000000; stroke-width: 0.8; stroke-linejoin: miter; stroke-linecap: square"/>
   </g>
   <g id="legend_1">
    <g id="patch_7">
     <path d="M 213.917188 66.554375 
L 262.25 66.554375 
Q 264.25 66.554375 264.25 64.554375 
L 264.25 21.52 
Q 264.25 19.52 262.25 19.52 
L 213.917188 19.52 
Q 211.917188 19.52 211.917188 21.52 
L 211.917188 64.554375 
Q 211.917188 66.554375 213.917188 66.554375 
z
" style="fill: #ffffff; opacity: 0.8; stroke: #cccccc; stroke-linejoin: miter"/>
    </g>
    <g id="line2d_18">
     <path d="M 215.917188 27.618438 
L 225.917188 27.618438 
L 235.917188 27.618438 
" style="fill: none; stroke: #000000; stroke-opacity: 0.5; stroke-width: 0.5; stroke-linecap: square"/>
    </g>
    <g id="text_17">
     <!-- all -->
     <g transform="translate(243.917188 31.118438) scale(0.1 -0.1)">
      <defs>
       <path id="DejaVuSans-61" d="M 2194 1759 
Q 1497 1759 1228 1600 
Q 959 1441 959 1056 
Q 959 750 1161 570 
Q 1363 391 1709 391 
Q 2188 391 2477 730 
Q 2766 1069 2766 1631 
L 2766 1759 
L 2194 1759 
z
M 3341 1997 
L 3341 0 
L 2766 0 
L 2766 531 
Q 2569 213 2275 61 
Q 1981 -91 1556 -91 
Q 1019 -91 701 211 
Q 384 513 384 1019 
Q 384 1609 779 1909 
Q 1175 2209 1959 2209 
L 2766 2209 
L 2766 2266 
Q 2766 2663 2505 2880 
Q 2244 3097 1772 3097 
Q 1472 3097 1187 3025 
Q 903 2953 641 2809 
L 641 3341 
Q 956 3463 1253 3523 
Q 1550 3584 1831 3584 
Q 2591 3584 2966 3190 
Q 3341 2797 3341 1997 
z
" transform="scale(0.015625)"/>
       <path id="DejaVuSans-6c" d="M 603 4863 
L 1178 4863 
L 1178 0 
L 603 0 
L 603 4863 
z
" transform="scale(0.015625)"/>
      </defs>
      <use xlink:href="#DejaVuSans-61"/>
      <use xlink:href="#DejaVuSans-6c" transform="translate(61.279297 0)"/>
      <use xlink:href="#DejaVuSans-6c" transform="translate(89.0625 0)"/>
     </g>
    </g>
    <g id="line2d_19">
     <path d="M 215.917188 42.296563 
L 225.917188 42.296563 
L 235.917188 42.296563 
" style="fill: none; stroke: #0000ff; stroke-opacity: 0.5; stroke-linecap: square"/>
    </g>
    <g id="text_18">
     <!-- 1-1 -->
     <g transform="translate(243.917188 45.796563) scale(0.1 -0.1)">
      <defs>
       <path id="DejaVuSans-2d" d="M 313 2009 
L 1997 2009 
L 1997 1497 
L 313 1497 
L 313 2009 
z
" transform="scale(0.015625)"/>
      </defs>
      <use xlink:href="#DejaVuSans-31"/>
      <use xlink:href="#DejaVuSans-2d" transform="translate(63.623047 0)"/>
      <use xlink:href="#DejaVuSans-31" transform="translate(99.707031 0)"/>
     </g>
    </g>
    <g id="line2d_20">
     <path d="M 215.917188 56.974688 
L 225.917188 56.974688 
L 235.917188 56.974688 
" style="fill: none; stroke: #ff0000; stroke-opacity: 0.5; stroke-linecap: square"/>
    </g>
    <g id="text_19">
     <!-- 2-2 -->
     <g transform="translate(243.917188 60.474688) scale(0.1 -0.1)">
      <use xlink:href="#DejaVuSans-32"/>
      <use xlink:href="#DejaVuSans-2d" transform="translate(63.623047 0)"/>
      <use xlink:href="#DejaVuSans-32" transform="translate(99.707031 0)"/>
     </g>
    </g>
   </g>
  </g>
 </g>
 <defs>
  <clipPath id="pb2ef58384b">
   <rect x="33.7" y="14.52" width="235.55" height="174.08"/>
  </clipPath>
 </defs>
</svg>
