<?xml version="1.0" encoding="utf-8" standalone="no"?>
<!DOCTYPE svg PUBLIC "-//W3C//DTD SVG 1.1//EN"
  "http://www.w3.org/Graphics/SVG/1.1/DTD/svg11.dtd">
<svg xmlns:xlink="http://www.w3.org/1999/xlink" width="288pt" height="216pt" viewBox="0 0 288 216" xmlns="http://www.w3.org/2000/svg" version="1.1">
 <metadata>
  <rdf:RDF xmlns:dc="http://purl.org/dc/elements/1.1/" xmlns:cc="http://creativecommons.org/ns#" xmlns:rdf="http://www.w3.org/1999/02/22-rdf-syntax-ns#">
   <cc:Work>
    <dc:type rdf:resource="http://purl.org/dc/dcmitype/StillImage"/>
    <dc:date>2025-09-17T22:52:53.768248</dc:date>
    <dc:format>image/svg+xml</dc:format>
    <dc:creator>
     <cc:Agent>
      <dc:title>Matplotlib v3.10.0, https://matplotlib.org/</dc:title>
     </cc:Agent>
    </dc:creator>
   </cc:Work>
  </rdf:RDF>
 </metadata>
 <defs>
  <style type="text/css">*{stroke-linejoin: round; stroke-linecap: butt}</style>
 </defs>
 <g id="figure_1">
  <g id="patch_1">
   <path d="M 0 216 
L 288 216 
L 288 0 
L 0 0 
z
" style="fill: #ffffff"/>
  </g>
  <g id="axes_1">
   <g id="patch_2">
    <path d="M 33.7 188.6 
L 269.25 188.6 
L 269.25 14.52 
L 33.7 14.52 
z
" style="fill: #ffffff"/>
   </g>
   <g id="matplotlib.axis_1">
    <g id="xtick_1">
     <g id="line2d_1">
      <defs>
       <path id="m8c003a00ac" d="M 0 0 
L 0 3.5 
" style="stroke: #000000; stroke-width: 0.8"/>
      </defs>
      <g>
       <use xlink:href="#m8c003a00ac" x="44.138477" y="188.6" style="stroke: #000000; stroke-width: 0.8"/>
      </g>
     </g>
     <g id="text_1">
      <!-- 0 -->
      <g transform="translate(40.957227 203.198437) scale(0.1 -0.1)">
       <defs>
        <path id="DejaVuSans-30" d="M 2034 4250 
Q 1547 4250 1301 3770 
Q 1056 3291 1056 2328 
Q 1056 1369 1301 889 
Q 1547 409 2034 409 
Q 2525 409 2770 889 
Q 3016 1369 3016 2328 
Q 3016 3291 2770 3770 
Q 2525 4250 2034 4250 
z
M 2034 4750 
Q 2819 4750 3233 4129 
Q 3647 3509 3647 2328 
Q 3647 1150 3233 529 
Q 2819 -91 2034 -91 
Q 1250 -91 836 529 
Q 422 1150 422 2328 
Q 422 3509 836 4129 
Q 1250 4750 2034 4750 
z
" transform="scale(0.015625)"/>
       </defs>
       <use xlink:href="#DejaVuSans-30"/>
      </g>
     </g>
    </g>
    <g id="xtick_2">
     <g id="line2d_2">
      <g>
       <use xlink:href="#m8c003a00ac" x="87.073086" y="188.6" style="stroke: #000000; stroke-width: 0.8"/>
      </g>
     </g>
     <g id="text_2">
      <!-- 200 -->
      <g transform="translate(77.529336 203.198437) scale(0.1 -0.1)">
       <defs>
        <path id="DejaVuSans-32" d="M 1228 531 
L 3431 531 
L 3431 0 
L 469 0 
L 469 531 
Q 828 903 1448 1529 
Q 2069 2156 2228 2338 
Q 2531 2678 2651 2914 
Q 2772 3150 2772 3378 
Q 2772 3750 2511 3984 
Q 2250 4219 1831 4219 
Q 1534 4219 1204 4116 
Q 875 4013 500 3803 
L 500 4441 
Q 881 4594 1212 4672 
Q 1544 4750 1819 4750 
Q 2544 4750 2975 4387 
Q 3406 4025 3406 3419 
Q 3406 3131 3298 2873 
Q 3191 2616 2906 2266 
Q 2828 2175 2409 1742 
Q 1991 1309 1228 531 
z
" transform="scale(0.015625)"/>
       </defs>
       <use xlink:href="#DejaVuSans-32"/>
       <use xlink:href="#DejaVuSans-30" transform="translate(63.623047 0)"/>
       <use xlink:href="#DejaVuSans-30" transform="translate(127.246094 0)"/>
      </g>
     </g>
    </g>
    <g id="xtick_3">
     <g id="line2d_3">
      <g>
       <use xlink:href="#m8c003a00ac" x="130.007695" y="188.6" style="stroke: #000000; stroke-width: 0.8"/>
      </g>
     </g>
     <g id="text_3">
      <!-- 400 -->
      <g transform="translate(120.463945 203.198437) scale(0.1 -0.1)">
       <defs>
        <path id="DejaVuSans-34" d="M 2419 4116 
L 825 1625 
L 2419 1625 
L 2419 4116 
z
M 2253 4666 
L 3047 4666 
L 3047 1625 
L 3713 1625 
L 3713 1100 
L 3047 1100 
L 3047 0 
L 2419 0 
L 2419 1100 
L 313 1100 
L 313 1709 
L 2253 4666 
z
" transform="scale(0.015625)"/>
       </defs>
       <use xlink:href="#DejaVuSans-34"/>
       <use xlink:href="#DejaVuSans-30" transform="translate(63.623047 0)"/>
       <use xlink:href="#DejaVuSans-30" transform="translate(127.246094 0)"/>
      </g>
     </g>
    </g>
    <g id="xtick_4">
     <g id="line2d_4">
      <g>
       <use xlink:href="#m8c003a00ac" x="172.942305" y="188.6" style="stroke: #000000; stroke-width: 0.8"/>
      </g>
     </g>
     <g id="text_4">
      <!-- 600 -->
      <g transform="translate(163.398555 203.198437) scale(0.1 -0.1)">
       <defs>
        <path id="DejaVuSans-36" d="M 2113 2584 
Q 1688 2584 1439 2293 
Q 1191 2003 1191 1497 
Q 1191 994 1439 701 
Q 1688 409 2113 409 
Q 2538 409 2786 701 
Q 3034 994 3034 1497 
Q 3034 2003 2786 2293 
Q 2538 2584 2113 2584 
z
M 3366 4563 
L 3366 3988 
Q 3128 4100 2886 4159 
Q 2644 4219 2406 4219 
Q 1781 4219 1451 3797 
Q 1122 3375 1075 2522 
Q 1259 2794 1537 2939 
Q 1816 3084 2150 3084 
Q 2853 3084 3261 2657 
Q 3669 2231 3669 1497 
Q 3669 778 3244 343 
Q 2819 -91 2113 -91 
Q 1303 -91 875 529 
Q 447 1150 447 2328 
Q 447 3434 972 4092 
Q 1497 4750 2381 4750 
Q 2619 4750 2861 4703 
Q 3103 4656 3366 4563 
z
" transform="scale(0.015625)"/>
       </defs>
       <use xlink:href="#DejaVuSans-36"/>
       <use xlink:href="#DejaVuSans-30" transform="translate(63.623047 0)"/>
       <use xlink:href="#DejaVuSans-30" transform="translate(127.246094 0)"/>
      </g>
     </g>
    </g>
    <g id="xtick_5">
     <g id="line2d_5">
      <g>
       <use xlink:href="#m8c003a00ac" x="215.876914" y="188.6" style="stroke: #000000; stroke-width: 0.8"/>
      </g>
     </g>
     <g id="text_5">
      <!-- 800 -->
      <g transform="translate(206.333164 203.198437) scale(0.1 -0.1)">
       <defs>
        <path id="DejaVuSans-38" d="M 2034 2216 
Q 1584 2216 1326 1975 
Q 1069 1734 1069 1313 
Q 1069 891 1326 650 
Q 1584 409 2034 409 
Q 2484 409 2743 651 
Q 3003 894 3003 1313 
Q 3003 1734 2745 1975 
Q 2488 2216 2034 2216 
z
M 1403 2484 
Q 997 2584 770 2862 
Q 544 3141 544 3541 
Q 544 4100 942 4425 
Q 1341 4750 2034 4750 
Q 2731 4750 3128 4425 
Q 3525 4100 3525 3541 
Q 3525 3141 3298 2862 
Q 3072 2584 2669 2484 
Q 3125 2378 3379 2068 
Q 3634 1759 3634 1313 
Q 3634 634 3220 271 
Q 2806 -91 2034 -91 
Q 1263 -91 848 271 
Q 434 634 434 1313 
Q 434 1759 690 2068 
Q 947 2378 1403 2484 
z
M 1172 3481 
Q 1172 3119 1398 2916 
Q 1625 2713 2034 2713 
Q 2441 2713 2670 2916 
Q 2900 3119 2900 3481 
Q 2900 3844 2670 4047 
Q 2441 4250 2034 4250 
Q 1625 4250 1398 4047 
Q 1172 3844 1172 3481 
z
" transform="scale(0.015625)"/>
       </defs>
       <use xlink:href="#DejaVuSans-38"/>
       <use xlink:href="#DejaVuSans-30" transform="translate(63.623047 0)"/>
       <use xlink:href="#DejaVuSans-30" transform="translate(127.246094 0)"/>
      </g>
     </g>
    </g>
    <g id="xtick_6">
     <g id="line2d_6">
      <g>
       <use xlink:href="#m8c003a00ac" x="258.811523" y="188.6" style="stroke: #000000; stroke-width: 0.8"/>
      </g>
     </g>
     <g id="text_6">
      <!-- 1000 -->
      <g transform="translate(246.086523 203.198437) scale(0.1 -0.1)">
       <defs>
        <path id="DejaVuSans-31" d="M 794 531 
L 1825 531 
L 1825 4091 
L 703 3866 
L 703 4441 
L 1819 4666 
L 2450 4666 
L 2450 531 
L 3481 531 
L 3481 0 
L 794 0 
L 794 531 
z
" transform="scale(0.015625)"/>
       </defs>
       <use xlink:href="#DejaVuSans-31"/>
       <use xlink:href="#DejaVuSans-30" transform="translate(63.623047 0)"/>
       <use xlink:href="#DejaVuSans-30" transform="translate(127.246094 0)"/>
       <use xlink:href="#DejaVuSans-30" transform="translate(190.869141 0)"/>
      </g>
     </g>
    </g>
    <g id="text_7">
     <!-- q (nm) -->
     <g transform="translate(134.771094 216.876563) scale(0.1 -0.1)">
      <defs>
       <path id="DejaVuSans-71" d="M 947 1747 
Q 947 1113 1208 752 
Q 1469 391 1925 391 
Q 2381 391 2643 752 
Q 2906 1113 2906 1747 
Q 2906 2381 2643 2742 
Q 2381 3103 1925 3103 
Q 1469 3103 1208 2742 
Q 947 2381 947 1747 
z
M 2906 525 
Q 2725 213 2448 61 
Q 2172 -91 1784 -91 
Q 1150 -91 751 415 
Q 353 922 353 1747 
Q 353 2572 751 3078 
Q 1150 3584 1784 3584 
Q 2172 3584 2448 3432 
Q 2725 3281 2906 2969 
L 2906 3500 
L 3481 3500 
L 3481 -1331 
L 2906 -1331 
L 2906 525 
z
" transform="scale(0.015625)"/>
       <path id="DejaVuSans-20" transform="scale(0.015625)"/>
       <path id="DejaVuSans-28" d="M 1984 4856 
Q 1566 4138 1362 3434 
Q 1159 2731 1159 2009 
Q 1159 1288 1364 580 
Q 1569 -128 1984 -844 
L 1484 -844 
Q 1016 -109 783 600 
Q 550 1309 550 2009 
Q 550 2706 781 3412 
Q 1013 4119 1484 4856 
L 1984 4856 
z
" transform="scale(0.015625)"/>
       <path id="DejaVuSans-6e" d="M 3513 2113 
L 3513 0 
L 2938 0 
L 2938 2094 
Q 2938 2591 2744 2837 
Q 2550 3084 2163 3084 
Q 1697 3084 1428 2787 
Q 1159 2491 1159 1978 
L 1159 0 
L 581 0 
L 581 3500 
L 1159 3500 
L 1159 2956 
Q 1366 3272 1645 3428 
Q 1925 3584 2291 3584 
Q 2894 3584 3203 3211 
Q 3513 2838 3513 2113 
z
" transform="scale(0.015625)"/>
       <path id="DejaVuSans-6d" d="M 3328 2828 
Q 3544 3216 3844 3400 
Q 4144 3584 4550 3584 
Q 5097 3584 5394 3201 
Q 5691 2819 5691 2113 
L 5691 0 
L 5113 0 
L 5113 2094 
Q 5113 2597 4934 2840 
Q 4756 3084 4391 3084 
Q 3944 3084 3684 2787 
Q 3425 2491 3425 1978 
L 3425 0 
L 2847 0 
L 2847 2094 
Q 2847 2600 2669 2842 
Q 2491 3084 2119 3084 
Q 1678 3084 1418 2786 
Q 1159 2488 1159 1978 
L 1159 0 
L 581 0 
L 581 3500 
L 1159 3500 
L 1159 2956 
Q 1356 3278 1631 3431 
Q 1906 3584 2284 3584 
Q 2666 3584 2933 3390 
Q 3200 3197 3328 2828 
z
" transform="scale(0.015625)"/>
       <path id="DejaVuSans-29" d="M 513 4856 
L 1013 4856 
Q 1481 4119 1714 3412 
Q 1947 2706 1947 2009 
Q 1947 1309 1714 600 
Q 1481 -109 1013 -844 
L 513 -844 
Q 928 -128 1133 580 
Q 1338 1288 1338 2009 
Q 1338 2731 1133 3434 
Q 928 4138 513 4856 
z
" transform="scale(0.015625)"/>
      </defs>
      <use xlink:href="#DejaVuSans-71"/>
      <use xlink:href="#DejaVuSans-20" transform="translate(63.476562 0)"/>
      <use xlink:href="#DejaVuSans-28" transform="translate(95.263672 0)"/>
      <use xlink:href="#DejaVuSans-6e" transform="translate(134.277344 0)"/>
      <use xlink:href="#DejaVuSans-6d" transform="translate(197.65625 0)"/>
      <use xlink:href="#DejaVuSans-29" transform="translate(295.068359 0)"/>
     </g>
    </g>
   </g>
   <g id="matplotlib.axis_2">
    <g id="ytick_1">
     <g id="line2d_7">
      <defs>
       <path id="mb8f5309741" d="M 0 0 
L -3.5 0 
" style="stroke: #000000; stroke-width: 0.8"/>
      </defs>
      <g>
       <use xlink:href="#mb8f5309741" x="33.7" y="180.687273" style="stroke: #000000; stroke-width: 0.8"/>
      </g>
     </g>
     <g id="text_8">
      <!-- 0 -->
      <g transform="translate(20.3375 184.486491) scale(0.1 -0.1)">
       <use xlink:href="#DejaVuSans-30"/>
      </g>
     </g>
    </g>
    <g id="ytick_2">
     <g id="line2d_8">
      <g>
       <use xlink:href="#mb8f5309741" x="33.7" y="140.495283" style="stroke: #000000; stroke-width: 0.8"/>
      </g>
     </g>
     <g id="text_9">
      <!-- 10000 -->
      <g transform="translate(-5.1125 144.294502) scale(0.1 -0.1)">
       <use xlink:href="#DejaVuSans-31"/>
       <use xlink:href="#DejaVuSans-30" transform="translate(63.623047 0)"/>
       <use xlink:href="#DejaVuSans-30" transform="translate(127.246094 0)"/>
       <use xlink:href="#DejaVuSans-30" transform="translate(190.869141 0)"/>
       <use xlink:href="#DejaVuSans-30" transform="translate(254.492188 0)"/>
      </g>
     </g>
    </g>
    <g id="ytick_3">
     <g id="line2d_9">
      <g>
       <use xlink:href="#mb8f5309741" x="33.7" y="100.303294" style="stroke: #000000; stroke-width: 0.8"/>
      </g>
     </g>
     <g id="text_10">
      <!-- 20000 -->
      <g transform="translate(-5.1125 104.102513) scale(0.1 -0.1)">
       <use xlink:href="#DejaVuSans-32"/>
       <use xlink:href="#DejaVuSans-30" transform="translate(63.623047 0)"/>
       <use xlink:href="#DejaVuSans-30" transform="translate(127.246094 0)"/>
       <use xlink:href="#DejaVuSans-30" transform="translate(190.869141 0)"/>
       <use xlink:href="#DejaVuSans-30" transform="translate(254.492188 0)"/>
      </g>
     </g>
    </g>
    <g id="ytick_4">
     <g id="line2d_10">
      <g>
       <use xlink:href="#mb8f5309741" x="33.7" y="60.111304" style="stroke: #000000; stroke-width: 0.8"/>
      </g>
     </g>
     <g id="text_11">
      <!-- 30000 -->
      <g transform="translate(-5.1125 63.910523) scale(0.1 -0.1)">
       <defs>
        <path id="DejaVuSans-33" d="M 2597 2516 
Q 3050 2419 3304 2112 
Q 3559 1806 3559 1356 
Q 3559 666 3084 287 
Q 2609 -91 1734 -91 
Q 1441 -91 1130 -33 
Q 819 25 488 141 
L 488 750 
Q 750 597 1062 519 
Q 1375 441 1716 441 
Q 2309 441 2620 675 
Q 2931 909 2931 1356 
Q 2931 1769 2642 2001 
Q 2353 2234 1838 2234 
L 1294 2234 
L 1294 2753 
L 1863 2753 
Q 2328 2753 2575 2939 
Q 2822 3125 2822 3475 
Q 2822 3834 2567 4026 
Q 2313 4219 1838 4219 
Q 1578 4219 1281 4162 
Q 984 4106 628 3988 
L 628 4550 
Q 988 4650 1302 4700 
Q 1616 4750 1894 4750 
Q 2613 4750 3031 4423 
Q 3450 4097 3450 3541 
Q 3450 3153 3228 2886 
Q 3006 2619 2597 2516 
z
" transform="scale(0.015625)"/>
       </defs>
       <use xlink:href="#DejaVuSans-33"/>
       <use xlink:href="#DejaVuSans-30" transform="translate(63.623047 0)"/>
       <use xlink:href="#DejaVuSans-30" transform="translate(127.246094 0)"/>
       <use xlink:href="#DejaVuSans-30" transform="translate(190.869141 0)"/>
       <use xlink:href="#DejaVuSans-30" transform="translate(254.492188 0)"/>
      </g>
     </g>
    </g>
    <g id="ytick_5">
     <g id="line2d_11">
      <g>
       <use xlink:href="#mb8f5309741" x="33.7" y="19.919315" style="stroke: #000000; stroke-width: 0.8"/>
      </g>
     </g>
     <g id="text_12">
      <!-- 40000 -->
      <g transform="translate(-5.1125 23.718534) scale(0.1 -0.1)">
       <use xlink:href="#DejaVuSans-34"/>
       <use xlink:href="#DejaVuSans-30" transform="translate(63.623047 0)"/>
       <use xlink:href="#DejaVuSans-30" transform="translate(127.246094 0)"/>
       <use xlink:href="#DejaVuSans-30" transform="translate(190.869141 0)"/>
       <use xlink:href="#DejaVuSans-30" transform="translate(254.492188 0)"/>
      </g>
     </g>
    </g>
    <g id="text_13">
     <!-- rdf -->
     <g transform="translate(-11.192187 108.462344) rotate(-90) scale(0.1 -0.1)">
      <defs>
       <path id="DejaVuSans-72" d="M 2631 2963 
Q 2534 3019 2420 3045 
Q 2306 3072 2169 3072 
Q 1681 3072 1420 2755 
Q 1159 2438 1159 1844 
L 1159 0 
L 581 0 
L 581 3500 
L 1159 3500 
L 1159 2956 
Q 1341 3275 1631 3429 
Q 1922 3584 2338 3584 
Q 2397 3584 2469 3576 
Q 2541 3569 2628 3553 
L 2631 2963 
z
" transform="scale(0.015625)"/>
       <path id="DejaVuSans-64" d="M 2906 2969 
L 2906 4863 
L 3481 4863 
L 3481 0 
L 2906 0 
L 2906 525 
Q 2725 213 2448 61 
Q 2172 -91 1784 -91 
Q 1150 -91 751 415 
Q 353 922 353 1747 
Q 353 2572 751 3078 
Q 1150 3584 1784 3584 
Q 2172 3584 2448 3432 
Q 2725 3281 2906 2969 
z
M 947 1747 
Q 947 1113 1208 752 
Q 1469 391 1925 391 
Q 2381 391 2643 752 
Q 2906 1113 2906 1747 
Q 2906 2381 2643 2742 
Q 2381 3103 1925 3103 
Q 1469 3103 1208 2742 
Q 947 2381 947 1747 
z
" transform="scale(0.015625)"/>
       <path id="DejaVuSans-66" d="M 2375 4863 
L 2375 4384 
L 1825 4384 
Q 1516 4384 1395 4259 
Q 1275 4134 1275 3809 
L 1275 3500 
L 2222 3500 
L 2222 3053 
L 1275 3053 
L 1275 0 
L 697 0 
L 697 3053 
L 147 3053 
L 147 3500 
L 697 3500 
L 697 3744 
Q 697 4328 969 4595 
Q 1241 4863 1831 4863 
L 2375 4863 
z
" transform="scale(0.015625)"/>
      </defs>
      <use xlink:href="#DejaVuSans-72"/>
      <use xlink:href="#DejaVuSans-64" transform="translate(39.363281 0)"/>
      <use xlink:href="#DejaVuSans-66" transform="translate(102.839844 0)"/>
     </g>
    </g>
   </g>
   <g id="line2d_12">
    <path d="M 44.406818 180.687273 
L 91.634888 180.687273 
L 92.171571 180.445833 
L 92.708254 180.451139 
L 93.244936 179.532269 
L 93.781619 179.331074 
L 94.318301 180.023601 
L 94.854984 179.171304 
L 95.391667 173.689456 
L 95.928349 22.432727 
L 96.465032 91.781791 
L 97.001715 146.002983 
L 97.538397 160.566378 
L 98.611762 172.23961 
L 99.148445 171.483232 
L 99.685128 172.201839 
L 100.22181 172.18637 
L 100.758493 175.821979 
L 101.295175 174.548819 
L 101.831858 176.838105 
L 102.368541 175.594446 
L 102.905223 176.49353 
L 103.441906 176.569083 
L 103.978589 177.420446 
L 104.515271 177.936692 
L 105.051954 177.234299 
L 105.588636 178.031947 
L 106.125319 178.512647 
L 107.735367 177.381809 
L 108.808732 177.22424 
L 109.345415 177.412023 
L 109.882097 175.660964 
L 110.41878 175.995633 
L 110.955463 176.944099 
L 111.492145 176.021179 
L 112.028828 173.194049 
L 113.102193 173.776871 
L 113.638876 171.922678 
L 114.175558 171.715812 
L 114.712241 171.180699 
L 115.248923 173.086198 
L 115.785606 170.920815 
L 116.322289 171.920746 
L 116.858971 171.101638 
L 117.395654 170.618786 
L 117.932337 172.196813 
L 118.469019 172.722289 
L 119.542384 172.947426 
L 120.61575 175.829929 
L 121.152432 175.897387 
L 121.689115 177.167571 
L 123.299163 178.109337 
L 123.835845 178.93325 
L 124.372528 179.043167 
L 124.909211 178.808786 
L 125.445893 178.075147 
L 125.982576 177.693485 
L 126.519258 177.650286 
L 127.055941 176.150063 
L 127.592624 175.328409 
L 128.129306 176.344248 
L 128.665989 173.904346 
L 129.202671 174.220622 
L 129.739354 175.21372 
L 130.276037 174.906326 
L 130.812719 175.125993 
L 131.349402 175.92664 
L 131.886085 176.418783 
L 132.422767 175.469929 
L 132.95945 177.086186 
L 133.496132 176.571207 
L 134.032815 177.654217 
L 134.569498 177.826338 
L 135.10618 177.186841 
L 135.642863 177.360835 
L 136.716228 175.162693 
L 137.252911 174.069711 
L 137.789593 173.383207 
L 138.326276 171.456864 
L 138.862959 171.374899 
L 139.399641 170.804307 
L 139.936324 171.218195 
L 140.473006 170.062908 
L 141.009689 171.723699 
L 141.546372 171.176419 
L 142.083054 172.15135 
L 142.619737 172.646196 
L 143.156419 174.494396 
L 143.693102 174.898214 
L 144.229785 174.682114 
L 144.766467 175.241097 
L 145.30315 173.66584 
L 145.839833 171.477776 
L 146.376515 170.082018 
L 146.913198 166.026195 
L 147.44988 164.925529 
L 148.523246 170.206961 
L 149.059928 172.742793 
L 150.133293 171.514596 
L 150.669976 172.293945 
L 151.206659 174.03004 
L 151.743341 174.962252 
L 152.816707 174.650309 
L 153.353389 176.017124 
L 153.890072 175.369006 
L 154.426754 174.962672 
L 154.963437 175.879701 
L 155.50012 175.56661 
L 156.036802 176.371898 
L 156.573485 175.884233 
L 157.110167 177.064578 
L 157.64685 176.70962 
L 158.720215 177.250532 
L 159.256898 176.862159 
L 159.793581 177.85541 
L 160.330263 177.840241 
L 160.866946 178.316076 
L 161.403628 178.418746 
L 161.940311 177.475984 
L 162.476994 178.539259 
L 163.013676 177.927903 
L 164.087041 177.280165 
L 164.623724 177.272071 
L 165.160407 176.693765 
L 165.697089 176.314256 
L 166.770455 174.390266 
L 167.307137 174.66533 
L 167.84382 175.117868 
L 168.380502 173.505865 
L 168.917185 175.070164 
L 169.453868 174.160437 
L 169.99055 175.060044 
L 170.527233 173.956972 
L 171.063915 173.218454 
L 171.600598 174.275559 
L 172.137281 173.377202 
L 173.210646 172.261116 
L 173.747329 172.164955 
L 174.284011 171.774678 
L 174.820694 172.597959 
L 175.894059 173.3389 
L 176.430742 173.016462 
L 176.967424 174.37278 
L 177.504107 174.486132 
L 178.040789 175.560997 
L 178.577472 175.077892 
L 179.114155 174.877797 
L 180.18752 175.871964 
L 180.724203 175.461852 
L 181.260885 175.502671 
L 181.797568 177.218575 
L 182.33425 177.128792 
L 182.870933 177.416752 
L 183.407616 177.384479 
L 183.944298 178.008286 
L 184.480981 178.028731 
L 185.017663 178.329631 
L 185.554346 177.818255 
L 186.091029 177.56345 
L 186.627711 176.516909 
L 187.164394 177.092781 
L 187.701077 176.687146 
L 188.237759 176.448611 
L 188.774442 175.814302 
L 189.311124 175.40093 
L 189.847807 175.623466 
L 190.38449 173.889498 
L 190.921172 173.628852 
L 191.457855 174.039507 
L 191.994537 173.272316 
L 192.53122 174.135364 
L 193.067903 174.408519 
L 193.604585 174.254063 
L 194.141268 174.943676 
L 194.677951 175.058301 
L 195.214633 174.707742 
L 195.751316 175.089256 
L 196.287998 174.382709 
L 196.824681 174.785362 
L 197.361364 174.707995 
L 197.898046 174.231295 
L 198.971411 175.528806 
L 199.508094 175.979765 
L 200.581459 175.179229 
L 201.118142 175.759358 
L 201.654825 176.848083 
L 202.191507 176.361233 
L 202.72819 176.678405 
L 203.264872 176.507396 
L 203.801555 176.469888 
L 204.338238 176.888796 
L 204.87492 176.331976 
L 205.411603 176.874936 
L 205.948285 176.708698 
L 206.484968 176.270005 
L 207.021651 176.23606 
L 207.558333 175.681213 
L 208.095016 175.75537 
L 208.631699 175.128721 
L 209.705064 175.241205 
L 210.241746 174.872523 
L 210.778429 175.030274 
L 211.315112 174.508452 
L 211.851794 174.884615 
L 212.388477 174.705126 
L 212.925159 175.212356 
L 213.461842 174.702989 
L 213.998525 175.184804 
L 215.07189 175.463422 
L 215.608573 175.003481 
L 216.145255 175.509583 
L 217.755303 175.789971 
L 218.291986 175.728284 
L 219.365351 176.079136 
L 219.902033 175.764625 
L 220.438716 176.762335 
L 221.512081 176.367029 
L 222.048764 175.935514 
L 222.585447 176.243923 
L 223.122129 176.305301 
L 223.658812 176.746333 
L 224.195494 176.254329 
L 225.805542 176.298797 
L 226.342225 176.207134 
L 226.878907 176.283464 
L 227.41559 176.508231 
L 227.952273 176.20285 
L 228.488955 177.294325 
L 229.025638 177.346593 
L 229.562321 177.268695 
L 230.099003 177.948826 
L 230.635686 177.596208 
L 231.172368 177.820953 
L 232.245734 177.869312 
L 232.782416 177.666151 
L 233.319099 177.309729 
L 233.855781 177.978838 
L 234.392464 177.655531 
L 234.929147 177.825584 
L 235.465829 177.872043 
L 236.002512 177.66079 
L 236.539195 177.888329 
L 237.075877 177.963724 
L 237.61256 177.383563 
L 238.149242 177.535003 
L 238.685925 177.302188 
L 239.75929 176.072777 
L 240.295973 175.634712 
L 240.832656 175.489492 
L 241.369338 174.930597 
L 241.906021 175.161204 
L 242.979386 174.840303 
L 243.516069 175.137981 
L 244.052751 175.223502 
L 244.589434 175.59932 
L 245.126116 175.750542 
L 246.199482 175.448124 
L 246.736164 175.706535 
L 247.272847 175.800353 
L 247.80953 176.363201 
L 248.882895 176.714049 
L 249.419577 176.734812 
L 249.95626 176.558144 
L 250.492943 177.089784 
L 251.029625 176.54884 
L 251.566308 177.010396 
L 252.10299 177.029346 
L 252.639673 176.189618 
L 253.176356 176.824598 
L 254.249721 176.132117 
L 254.786404 175.879112 
L 255.323086 176.390647 
L 255.859769 175.641926 
L 256.396451 175.951787 
L 256.933134 175.163702 
L 257.469817 176.219619 
L 258.006499 175.730517 
L 258.543182 175.924963 
L 258.543182 175.924963 
" clip-path="url(#p10d3f953c3)" style="fill: none; stroke: #000000; stroke-opacity: 0.5; stroke-width: 0.5; stroke-linecap: square"/>
   </g>
   <g id="line2d_13">
    <path d="M 44.406818 180.687273 
L 91.634888 180.687273 
L 92.171571 179.947862 
L 92.708254 179.964113 
L 93.244936 177.150073 
L 93.781619 176.533914 
L 94.318301 178.654777 
L 94.854984 176.04462 
L 95.391667 176.79076 
L 95.928349 175.599035 
L 96.465032 176.325919 
L 97.001715 174.582637 
L 97.538397 169.918686 
L 98.07508 167.199879 
L 98.611762 170.338884 
L 99.148445 164.338591 
L 99.685128 165.205868 
L 100.22181 163.331259 
L 100.758493 173.237291 
L 101.295175 166.065815 
L 101.831858 171.974346 
L 102.368541 167.606099 
L 102.905223 169.819834 
L 103.441906 169.045467 
L 103.978589 172.588264 
L 104.515271 174.135542 
L 105.051954 172.411394 
L 105.588636 173.458885 
L 106.125319 175.803426 
L 106.662002 172.832134 
L 107.198684 172.536257 
L 107.735367 171.829662 
L 108.272049 171.562529 
L 108.808732 171.713356 
L 109.345415 174.267783 
L 109.882097 169.635837 
L 110.41878 173.309035 
L 110.955463 175.719769 
L 111.492145 175.046516 
L 112.028828 169.953531 
L 112.56551 174.857749 
L 113.102193 174.948125 
L 113.638876 171.504629 
L 114.175558 175.470482 
L 114.712241 174.179463 
L 115.248923 173.265208 
L 116.322289 169.882795 
L 116.858971 166.815751 
L 117.395654 161.932118 
L 117.932337 163.14373 
L 118.469019 167.101428 
L 119.005702 163.947564 
L 119.542384 163.884947 
L 120.079067 166.783936 
L 120.61575 168.145086 
L 121.152432 167.744016 
L 121.689115 172.744786 
L 122.225797 173.413146 
L 122.76248 173.512108 
L 123.835845 177.73284 
L 124.372528 179.097249 
L 124.909211 178.856815 
L 125.445893 177.59064 
L 125.982576 179.413873 
L 126.519258 179.681784 
L 127.592624 179.217584 
L 128.129306 179.96179 
L 128.665989 179.732205 
L 129.202671 179.979983 
L 129.739354 179.988824 
L 130.276037 179.537652 
L 130.812719 179.77893 
L 131.349402 179.790077 
L 131.886085 179.136328 
L 132.422767 178.279611 
L 132.95945 179.389822 
L 133.496132 178.550755 
L 134.032815 179.20952 
L 134.569498 177.766735 
L 135.10618 175.121081 
L 135.642863 175.797408 
L 136.179545 172.028136 
L 137.252911 165.733509 
L 137.789593 164.931926 
L 138.326276 161.457252 
L 138.862959 161.864634 
L 139.399641 162.076142 
L 139.936324 161.168681 
L 140.473006 160.650286 
L 141.009689 166.143724 
L 141.546372 164.685406 
L 142.619737 168.72617 
L 143.156419 174.249379 
L 143.693102 174.318605 
L 144.229785 176.430143 
L 144.766467 177.317795 
L 145.30315 176.686689 
L 145.839833 175.739187 
L 146.376515 176.11742 
L 147.44988 167.900426 
L 147.986563 170.405064 
L 148.523246 175.364041 
L 149.059928 176.038233 
L 150.133293 179.320668 
L 150.669976 177.229933 
L 151.206659 178.901482 
L 151.743341 179.213922 
L 152.280024 179.812014 
L 152.816707 179.965077 
L 153.353389 179.686109 
L 153.890072 180.262389 
L 154.426754 179.845756 
L 154.963437 179.992783 
L 155.50012 179.724341 
L 156.036802 179.733553 
L 156.573485 179.337795 
L 157.110167 180.152598 
L 157.64685 179.892823 
L 158.183533 180.162616 
L 158.720215 180.167519 
L 159.256898 179.657434 
L 159.793581 179.794507 
L 160.330263 180.055459 
L 160.866946 179.685646 
L 161.403628 180.066972 
L 161.940311 178.84329 
L 162.476994 179.46907 
L 163.013676 179.238603 
L 163.550359 179.131959 
L 164.623724 179.159545 
L 165.160407 178.707158 
L 166.233772 176.453035 
L 166.770455 175.582529 
L 167.307137 175.402007 
L 167.84382 175.893671 
L 168.380502 172.066876 
L 168.917185 173.236553 
L 169.453868 170.14989 
L 169.99055 173.363083 
L 170.527233 170.755284 
L 171.063915 169.144749 
L 171.600598 169.136758 
L 172.673963 165.508342 
L 173.210646 166.96551 
L 173.747329 166.571145 
L 174.284011 165.881594 
L 174.820694 166.202753 
L 175.357376 168.302548 
L 175.894059 169.189395 
L 176.430742 168.600174 
L 176.967424 172.565254 
L 177.504107 172.055002 
L 178.040789 174.026997 
L 178.577472 172.758628 
L 179.114155 176.098933 
L 179.650837 174.927499 
L 180.18752 177.277056 
L 180.724203 176.11503 
L 181.260885 174.517596 
L 181.797568 177.626441 
L 182.33425 178.275454 
L 182.870933 177.850891 
L 183.407616 176.641349 
L 183.944298 177.981567 
L 184.480981 177.655757 
L 185.017663 177.93669 
L 185.554346 177.61631 
L 186.091029 176.877522 
L 186.627711 175.89787 
L 187.164394 176.350735 
L 187.701077 177.128038 
L 188.237759 175.922131 
L 188.774442 176.365173 
L 189.311124 175.830444 
L 189.847807 176.589328 
L 190.38449 176.938404 
L 190.921172 176.332317 
L 191.457855 176.914216 
L 191.994537 177.253715 
L 192.53122 175.341712 
L 193.067903 176.533877 
L 194.141268 176.138195 
L 195.214633 174.931974 
L 195.751316 175.417926 
L 196.287998 174.93917 
L 196.824681 174.61362 
L 197.361364 174.728755 
L 197.898046 174.048688 
L 198.434729 174.023175 
L 198.971411 173.357659 
L 199.508094 174.468285 
L 200.044777 173.247707 
L 200.581459 173.647162 
L 201.118142 174.249052 
L 201.654825 175.186679 
L 202.191507 175.0191 
L 202.72819 174.446949 
L 203.264872 174.556326 
L 203.801555 173.861335 
L 204.338238 173.906992 
L 205.411603 175.63673 
L 205.948285 174.627658 
L 206.484968 174.214601 
L 207.021651 174.835869 
L 207.558333 174.299331 
L 208.095016 175.927623 
L 208.631699 175.139014 
L 209.168381 175.989342 
L 209.705064 175.210723 
L 210.241746 175.926194 
L 210.778429 175.711068 
L 211.851794 176.563028 
L 212.388477 176.589305 
L 212.925159 177.15424 
L 213.461842 177.236108 
L 214.535207 178.102026 
L 215.07189 177.826308 
L 215.608573 178.540457 
L 216.145255 178.726811 
L 216.681938 178.624386 
L 217.21862 178.694102 
L 217.755303 178.64981 
L 218.291986 178.21237 
L 218.828668 178.059837 
L 219.365351 178.075919 
L 219.902033 177.04262 
L 220.438716 177.448975 
L 220.975399 177.304954 
L 221.512081 176.837342 
L 222.048764 176.159902 
L 222.585447 176.187068 
L 223.122129 176.427021 
L 223.658812 177.034773 
L 224.195494 176.109356 
L 224.732177 175.718043 
L 225.26886 176.059427 
L 225.805542 175.879992 
L 226.342225 176.576283 
L 226.878907 175.272171 
L 227.41559 176.319593 
L 227.952273 176.193575 
L 228.488955 175.818105 
L 229.025638 176.944285 
L 229.562321 176.965924 
L 230.099003 177.678002 
L 231.709051 176.662692 
L 232.245734 177.408834 
L 233.319099 175.825244 
L 233.855781 177.085054 
L 234.392464 175.785699 
L 234.929147 176.235013 
L 236.002512 177.443261 
L 236.539195 177.36917 
L 237.075877 178.166681 
L 237.61256 176.813412 
L 238.685925 176.991275 
L 239.222608 175.532335 
L 239.75929 176.140102 
L 240.295973 174.613161 
L 240.832656 174.954955 
L 241.369338 174.240547 
L 241.906021 175.322322 
L 242.442703 174.136651 
L 243.516069 175.02237 
L 244.052751 174.753958 
L 244.589434 174.997984 
L 245.126116 175.957387 
L 245.662799 174.470337 
L 246.199482 174.58687 
L 246.736164 175.491935 
L 247.80953 176.369075 
L 248.346212 176.473588 
L 248.882895 177.472317 
L 249.95626 176.418424 
L 250.492943 176.881292 
L 251.029625 176.502478 
L 251.566308 177.47567 
L 252.639673 176.252886 
L 253.713038 176.803135 
L 254.786404 176.727287 
L 255.323086 176.900402 
L 255.859769 176.462882 
L 256.396451 176.938604 
L 256.933134 175.751887 
L 257.469817 176.488902 
L 258.006499 176.286172 
L 258.543182 175.714415 
L 258.543182 175.714415 
" clip-path="url(#p10d3f953c3)" style="fill: none; stroke: #0000ff; stroke-opacity: 0.5; stroke-linecap: square"/>
   </g>
   <g id="line2d_14">
    <path d="M 44.406818 180.687273 
L 107.735367 180.687273 
L 108.272049 179.94992 
L 108.808732 177.786613 
L 109.345415 177.834167 
L 110.41878 168.951129 
L 110.955463 171.176839 
L 111.492145 166.648058 
L 112.56551 151.539657 
L 113.102193 155.179951 
L 113.638876 149.293622 
L 114.175558 141.735234 
L 114.712241 141.107615 
L 115.248923 156.096999 
L 115.785606 146.420265 
L 116.322289 152.748426 
L 116.858971 154.879794 
L 117.932337 166.763829 
L 118.469019 162.023893 
L 119.005702 169.324563 
L 119.542384 169.485722 
L 120.079067 171.747067 
L 120.61575 176.538953 
L 121.152432 178.13058 
L 121.689115 177.157279 
L 122.225797 177.703016 
L 122.76248 179.215444 
L 123.299163 177.783391 
L 123.835845 178.777337 
L 124.372528 175.976093 
L 124.909211 174.643857 
L 125.445893 174.723388 
L 125.982576 172.537517 
L 126.519258 173.984013 
L 127.055941 167.453743 
L 127.592624 166.316988 
L 128.129306 170.3693 
L 128.665989 166.255145 
L 129.202671 166.855825 
L 129.739354 171.581578 
L 130.276037 170.059674 
L 130.812719 172.20941 
L 131.349402 176.300981 
L 132.422767 175.628752 
L 132.95945 178.380694 
L 133.496132 177.268845 
L 134.032815 177.684854 
L 134.569498 179.574687 
L 135.10618 179.954276 
L 135.642863 177.789576 
L 136.179545 179.971272 
L 136.716228 179.625687 
L 137.252911 179.987682 
L 137.789593 179.99568 
L 138.326276 179.661672 
L 138.862959 179.673259 
L 139.399641 180.01886 
L 139.936324 180.026326 
L 140.473006 179.053268 
L 141.009689 180.040893 
L 141.546372 179.089084 
L 142.083054 180.054982 
L 142.619737 180.061856 
L 143.156419 180.377945 
L 143.693102 179.157263 
L 144.229785 178.568168 
L 144.766467 179.189727 
L 145.30315 177.427538 
L 145.839833 168.958479 
L 146.913198 143.07358 
L 147.44988 150.282996 
L 147.986563 161.564122 
L 148.523246 164.265277 
L 149.059928 174.350805 
L 149.596611 173.051635 
L 150.133293 175.018393 
L 150.669976 176.144296 
L 151.206659 176.189726 
L 151.743341 178.067982 
L 152.280024 178.35325 
L 152.816707 179.40337 
L 153.353389 180.178745 
L 153.890072 179.176577 
L 154.426754 179.68992 
L 154.963437 179.946483 
L 155.50012 179.953611 
L 156.036802 179.718414 
L 156.573485 180.447366 
L 157.110167 180.449639 
L 157.64685 180.216488 
L 158.183533 179.521368 
L 158.720215 179.301262 
L 159.256898 180.229567 
L 159.793581 180.687273 
L 160.330263 180.462628 
L 160.866946 180.019522 
L 161.403628 180.466722 
L 161.940311 180.031635 
L 162.476994 180.470703 
L 163.013676 180.04342 
L 163.550359 180.049196 
L 164.087041 180.687273 
L 164.623724 179.642673 
L 165.160407 179.85899 
L 165.697089 180.276779 
L 166.233772 179.466592 
L 166.770455 178.872253 
L 167.307137 178.888034 
L 167.84382 176.921756 
L 168.380502 176.757747 
L 168.917185 177.181052 
L 169.453868 175.472898 
L 169.99055 174.176882 
L 170.527233 173.852357 
L 171.063915 170.897896 
L 171.600598 170.793499 
L 172.137281 169.950725 
L 172.673963 167.653816 
L 173.210646 164.84922 
L 173.747329 163.716327 
L 174.284011 164.93036 
L 174.820694 167.368175 
L 175.357376 167.829177 
L 175.894059 168.457814 
L 176.430742 168.903436 
L 176.967424 172.092545 
L 177.504107 173.6962 
L 178.040789 174.428729 
L 178.577472 174.142995 
L 179.114155 173.029636 
L 180.18752 174.952374 
L 180.724203 173.696822 
L 181.260885 176.00961 
L 181.797568 175.885968 
L 182.33425 176.399596 
L 182.870933 177.378161 
L 183.407616 177.559989 
L 183.944298 178.670116 
L 184.480981 178.839492 
L 185.017663 179.770412 
L 185.554346 178.564138 
L 186.091029 178.881169 
L 186.627711 177.849108 
L 187.164394 179.056438 
L 187.701077 178.332843 
L 188.237759 178.204287 
L 189.311124 175.218844 
L 189.847807 175.687602 
L 190.38449 169.626782 
L 190.921172 171.115169 
L 191.457855 169.507847 
L 191.994537 167.36923 
L 192.53122 167.603132 
L 193.067903 167.287018 
L 193.604585 165.346754 
L 194.141268 167.208526 
L 194.677951 167.839781 
L 195.751316 168.54881 
L 196.287998 169.551349 
L 196.824681 171.190586 
L 197.361364 173.969813 
L 198.434729 176.738178 
L 200.044777 178.566139 
L 200.581459 177.961069 
L 201.654825 179.95386 
L 202.191507 179.473206 
L 202.72819 180.204929 
L 203.264872 179.48953 
L 203.801555 180.330361 
L 204.87492 179.63079 
L 205.411603 179.871023 
L 205.948285 179.528923 
L 206.484968 178.270809 
L 207.021651 178.172384 
L 207.558333 177.053244 
L 208.095016 177.979561 
L 208.631699 177.773036 
L 209.168381 176.121581 
L 209.705064 178.142613 
L 210.241746 175.850621 
L 210.778429 176.318589 
L 211.315112 174.610325 
L 212.388477 176.080408 
L 212.925159 177.812942 
L 213.461842 176.244395 
L 213.998525 177.008235 
L 215.07189 176.22391 
L 215.608573 175.426607 
L 216.145255 176.279438 
L 216.681938 177.631145 
L 217.755303 177.065117 
L 218.291986 175.887462 
L 218.828668 176.016278 
L 219.365351 177.032613 
L 219.902033 177.054892 
L 220.438716 179.223635 
L 221.512081 178.084503 
L 222.048764 178.387657 
L 222.585447 178.115728 
L 223.122129 178.03645 
L 223.658812 177.48766 
L 224.195494 177.132517 
L 224.732177 176.59565 
L 225.26886 174.586143 
L 225.805542 174.162697 
L 226.342225 174.840533 
L 226.878907 174.239102 
L 227.41559 173.193374 
L 227.952273 172.429192 
L 228.488955 176.136024 
L 229.025638 175.807527 
L 229.562321 175.923947 
L 230.099003 177.442303 
L 230.635686 177.460963 
L 231.172368 177.999656 
L 231.709051 178.87702 
L 232.245734 178.630214 
L 232.782416 179.49413 
L 233.319099 179.246672 
L 233.855781 179.170549 
L 234.392464 179.346672 
L 234.929147 180.18737 
L 235.465829 178.864559 
L 236.002512 179.616234 
L 236.539195 179.130632 
L 237.075877 178.40601 
L 237.61256 178.90479 
L 238.149242 178.511762 
L 238.685925 177.722462 
L 239.222608 177.499679 
L 239.75929 174.346991 
L 240.295973 173.278138 
L 240.832656 173.867285 
L 241.369338 172.656884 
L 241.906021 173.398307 
L 242.442703 172.820744 
L 242.979386 172.939843 
L 243.516069 172.905185 
L 244.052751 173.098702 
L 244.589434 175.328209 
L 245.126116 174.530915 
L 245.662799 175.011753 
L 246.199482 174.0019 
L 246.736164 173.889463 
L 247.272847 174.733871 
L 247.80953 176.008084 
L 248.346212 175.523578 
L 249.419577 177.232725 
L 249.95626 176.821146 
L 250.492943 177.126122 
L 251.029625 176.790321 
L 251.566308 176.739953 
L 252.10299 177.251168 
L 252.639673 176.64095 
L 253.176356 176.453487 
L 253.713038 174.610756 
L 254.249721 174.435676 
L 254.786404 173.032156 
L 255.323086 173.411041 
L 255.859769 171.75643 
L 256.396451 171.801539 
L 256.933134 172.04721 
L 257.469817 173.223503 
L 258.006499 173.459854 
L 258.543182 174.155758 
L 258.543182 174.155758 
" clip-path="url(#p10d3f953c3)" style="fill: none; stroke: #ff0000; stroke-opacity: 0.5; stroke-linecap: square"/>
   </g>
   <g id="patch_3">
    <path d="M 33.7 188.6 
L 33.7 14.52 
" style="fill: none; stroke: #000000; stroke-width: 0.8; stroke-linejoin: miter; stroke-linecap: square"/>
   </g>
   <g id="patch_4">
    <path d="M 269.25 188.6 
L 269.25 14.52 
" style="fill: none; stroke: #000000; stroke-width: 0.8; stroke-linejoin: miter; stroke-linecap: square"/>
   </g>
   <g id="patch_5">
    <path d="M 33.7 188.6 
L 269.25 188.6 
" style="fill: none; stroke: #000000; stroke-width: 0.8; stroke-linejoin: miter; stroke-linecap: square"/>
   </g>
   <g id="patch_6">
    <path d="M 33.7 14.52 
L 269.25 14.52 
" style="fill: none; stroke: #000000; stroke-width: 0.8; stroke-linejoin: miter; stroke-linecap: square"/>
   </g>
   <g id="legend_1">
    <g id="patch_7">
     <path d="M 213.917188 66.554375 
L 262.25 66.554375 
Q 264.25 66.554375 264.25 64.554375 
L 264.25 21.52 
Q 264.25 19.52 262.25 19.52 
L 213.917188 19.52 
Q 211.917188 19.52 211.917188 21.52 
L 211.917188 64.554375 
Q 211.917188 66.554375 213.917188 66.554375 
z
" style="fill: #ffffff; opacity: 0.8; stroke: #cccccc; stroke-linejoin: miter"/>
    </g>
    <g id="line2d_15">
     <path d="M 215.917188 27.618438 
L 225.917188 27.618438 
L 235.917188 27.618438 
" style="fill: none; stroke: #000000; stroke-opacity: 0.5; stroke-width: 0.5; stroke-linecap: square"/>
    </g>
    <g id="text_14">
     <!-- all -->
     <g transform="translate(243.917188 31.118438) scale(0.1 -0.1)">
      <defs>
       <path id="DejaVuSans-61" d="M 2194 1759 
Q 1497 1759 1228 1600 
Q 959 1441 959 1056 
Q 959 750 1161 570 
Q 1363 391 1709 391 
Q 2188 391 2477 730 
Q 2766 1069 2766 1631 
L 2766 1759 
L 2194 1759 
z
M 3341 1997 
L 3341 0 
L 2766 0 
L 2766 531 
Q 2569 213 2275 61 
Q 1981 -91 1556 -91 
Q 1019 -91 701 211 
Q 384 513 384 1019 
Q 384 1609 779 1909 
Q 1175 2209 1959 2209 
L 2766 2209 
L 2766 2266 
Q 2766 2663 2505 2880 
Q 2244 3097 1772 3097 
Q 1472 3097 1187 3025 
Q 903 2953 641 2809 
L 641 3341 
Q 956 3463 1253 3523 
Q 1550 3584 1831 3584 
Q 2591 3584 2966 3190 
Q 3341 2797 3341 1997 
z
" transform="scale(0.015625)"/>
       <path id="DejaVuSans-6c" d="M 603 4863 
L 1178 4863 
L 1178 0 
L 603 0 
L 603 4863 
z
" transform="scale(0.015625)"/>
      </defs>
      <use xlink:href="#DejaVuSans-61"/>
      <use xlink:href="#DejaVuSans-6c" transform="translate(61.279297 0)"/>
      <use xlink:href="#DejaVuSans-6c" transform="translate(89.0625 0)"/>
     </g>
    </g>
    <g id="line2d_16">
     <path d="M 215.917188 42.296563 
L 225.917188 42.296563 
L 235.917188 42.296563 
" style="fill: none; stroke: #0000ff; stroke-opacity: 0.5; stroke-linecap: square"/>
    </g>
    <g id="text_15">
     <!-- 1-1 -->
     <g transform="translate(243.917188 45.796563) scale(0.1 -0.1)">
      <defs>
       <path id="DejaVuSans-2d" d="M 313 2009 
L 1997 2009 
L 1997 1497 
L 313 1497 
L 313 2009 
z
" transform="scale(0.015625)"/>
      </defs>
      <use xlink:href="#DejaVuSans-31"/>
      <use xlink:href="#DejaVuSans-2d" transform="translate(63.623047 0)"/>
      <use xlink:href="#DejaVuSans-31" transform="translate(99.707031 0)"/>
     </g>
    </g>
    <g id="line2d_17">
     <path d="M 215.917188 56.974688 
L 225.917188 56.974688 
L 235.917188 56.974688 
" style="fill: none; stroke: #ff0000; stroke-opacity: 0.5; stroke-linecap: square"/>
    </g>
    <g id="text_16">
     <!-- 2-2 -->
     <g transform="translate(243.917188 60.474688) scale(0.1 -0.1)">
      <use xlink:href="#DejaVuSans-32"/>
      <use xlink:href="#DejaVuSans-2d" transform="translate(63.623047 0)"/>
      <use xlink:href="#DejaVuSans-32" transform="translate(99.707031 0)"/>
     </g>
    </g>
   </g>
  </g>
 </g>
 <defs>
  <clipPath id="p10d3f953c3">
   <rect x="33.7" y="14.52" width="235.55" height="174.08"/>
  </clipPath>
 </defs>
</svg>
