<?xml version="1.0" encoding="utf-8" standalone="no"?>
<!DOCTYPE svg PUBLIC "-//W3C//DTD SVG 1.1//EN"
  "http://www.w3.org/Graphics/SVG/1.1/DTD/svg11.dtd">
<svg xmlns:xlink="http://www.w3.org/1999/xlink" width="288pt" height="216pt" viewBox="0 0 288 216" xmlns="http://www.w3.org/2000/svg" version="1.1">
 <metadata>
  <rdf:RDF xmlns:dc="http://purl.org/dc/elements/1.1/" xmlns:cc="http://creativecommons.org/ns#" xmlns:rdf="http://www.w3.org/1999/02/22-rdf-syntax-ns#">
   <cc:Work>
    <dc:type rdf:resource="http://purl.org/dc/dcmitype/StillImage"/>
    <dc:date>2025-09-17T22:41:07.458106</dc:date>
    <dc:format>image/svg+xml</dc:format>
    <dc:creator>
     <cc:Agent>
      <dc:title>Matplotlib v3.10.0, https://matplotlib.org/</dc:title>
     </cc:Agent>
    </dc:creator>
   </cc:Work>
  </rdf:RDF>
 </metadata>
 <defs>
  <style type="text/css">*{stroke-linejoin: round; stroke-linecap: butt}</style>
 </defs>
 <g id="figure_1">
  <g id="patch_1">
   <path d="M 0 216 
L 288 216 
L 288 0 
L 0 0 
z
" style="fill: #ffffff"/>
  </g>
  <g id="axes_1">
   <g id="patch_2">
    <path d="M 33.7 188.6 
L 269.25 188.6 
L 269.25 14.52 
L 33.7 14.52 
z
" style="fill: #ffffff"/>
   </g>
   <g id="matplotlib.axis_1">
    <g id="xtick_1">
     <g id="line2d_1">
      <defs>
       <path id="m6631979ea5" d="M 0 0 
L 0 3.5 
" style="stroke: #000000; stroke-width: 0.8"/>
      </defs>
      <g>
       <use xlink:href="#m6631979ea5" x="44.138477" y="188.6" style="stroke: #000000; stroke-width: 0.8"/>
      </g>
     </g>
     <g id="text_1">
      <!-- 0 -->
      <g transform="translate(40.957227 203.198437) scale(0.1 -0.1)">
       <defs>
        <path id="DejaVuSans-30" d="M 2034 4250 
Q 1547 4250 1301 3770 
Q 1056 3291 1056 2328 
Q 1056 1369 1301 889 
Q 1547 409 2034 409 
Q 2525 409 2770 889 
Q 3016 1369 3016 2328 
Q 3016 3291 2770 3770 
Q 2525 4250 2034 4250 
z
M 2034 4750 
Q 2819 4750 3233 4129 
Q 3647 3509 3647 2328 
Q 3647 1150 3233 529 
Q 2819 -91 2034 -91 
Q 1250 -91 836 529 
Q 422 1150 422 2328 
Q 422 3509 836 4129 
Q 1250 4750 2034 4750 
z
" transform="scale(0.015625)"/>
       </defs>
       <use xlink:href="#DejaVuSans-30"/>
      </g>
     </g>
    </g>
    <g id="xtick_2">
     <g id="line2d_2">
      <g>
       <use xlink:href="#m6631979ea5" x="87.073086" y="188.6" style="stroke: #000000; stroke-width: 0.8"/>
      </g>
     </g>
     <g id="text_2">
      <!-- 200 -->
      <g transform="translate(77.529336 203.198437) scale(0.1 -0.1)">
       <defs>
        <path id="DejaVuSans-32" d="M 1228 531 
L 3431 531 
L 3431 0 
L 469 0 
L 469 531 
Q 828 903 1448 1529 
Q 2069 2156 2228 2338 
Q 2531 2678 2651 2914 
Q 2772 3150 2772 3378 
Q 2772 3750 2511 3984 
Q 2250 4219 1831 4219 
Q 1534 4219 1204 4116 
Q 875 4013 500 3803 
L 500 4441 
Q 881 4594 1212 4672 
Q 1544 4750 1819 4750 
Q 2544 4750 2975 4387 
Q 3406 4025 3406 3419 
Q 3406 3131 3298 2873 
Q 3191 2616 2906 2266 
Q 2828 2175 2409 1742 
Q 1991 1309 1228 531 
z
" transform="scale(0.015625)"/>
       </defs>
       <use xlink:href="#DejaVuSans-32"/>
       <use xlink:href="#DejaVuSans-30" transform="translate(63.623047 0)"/>
       <use xlink:href="#DejaVuSans-30" transform="translate(127.246094 0)"/>
      </g>
     </g>
    </g>
    <g id="xtick_3">
     <g id="line2d_3">
      <g>
       <use xlink:href="#m6631979ea5" x="130.007695" y="188.6" style="stroke: #000000; stroke-width: 0.8"/>
      </g>
     </g>
     <g id="text_3">
      <!-- 400 -->
      <g transform="translate(120.463945 203.198437) scale(0.1 -0.1)">
       <defs>
        <path id="DejaVuSans-34" d="M 2419 4116 
L 825 1625 
L 2419 1625 
L 2419 4116 
z
M 2253 4666 
L 3047 4666 
L 3047 1625 
L 3713 1625 
L 3713 1100 
L 3047 1100 
L 3047 0 
L 2419 0 
L 2419 1100 
L 313 1100 
L 313 1709 
L 2253 4666 
z
" transform="scale(0.015625)"/>
       </defs>
       <use xlink:href="#DejaVuSans-34"/>
       <use xlink:href="#DejaVuSans-30" transform="translate(63.623047 0)"/>
       <use xlink:href="#DejaVuSans-30" transform="translate(127.246094 0)"/>
      </g>
     </g>
    </g>
    <g id="xtick_4">
     <g id="line2d_4">
      <g>
       <use xlink:href="#m6631979ea5" x="172.942305" y="188.6" style="stroke: #000000; stroke-width: 0.8"/>
      </g>
     </g>
     <g id="text_4">
      <!-- 600 -->
      <g transform="translate(163.398555 203.198437) scale(0.1 -0.1)">
       <defs>
        <path id="DejaVuSans-36" d="M 2113 2584 
Q 1688 2584 1439 2293 
Q 1191 2003 1191 1497 
Q 1191 994 1439 701 
Q 1688 409 2113 409 
Q 2538 409 2786 701 
Q 3034 994 3034 1497 
Q 3034 2003 2786 2293 
Q 2538 2584 2113 2584 
z
M 3366 4563 
L 3366 3988 
Q 3128 4100 2886 4159 
Q 2644 4219 2406 4219 
Q 1781 4219 1451 3797 
Q 1122 3375 1075 2522 
Q 1259 2794 1537 2939 
Q 1816 3084 2150 3084 
Q 2853 3084 3261 2657 
Q 3669 2231 3669 1497 
Q 3669 778 3244 343 
Q 2819 -91 2113 -91 
Q 1303 -91 875 529 
Q 447 1150 447 2328 
Q 447 3434 972 4092 
Q 1497 4750 2381 4750 
Q 2619 4750 2861 4703 
Q 3103 4656 3366 4563 
z
" transform="scale(0.015625)"/>
       </defs>
       <use xlink:href="#DejaVuSans-36"/>
       <use xlink:href="#DejaVuSans-30" transform="translate(63.623047 0)"/>
       <use xlink:href="#DejaVuSans-30" transform="translate(127.246094 0)"/>
      </g>
     </g>
    </g>
    <g id="xtick_5">
     <g id="line2d_5">
      <g>
       <use xlink:href="#m6631979ea5" x="215.876914" y="188.6" style="stroke: #000000; stroke-width: 0.8"/>
      </g>
     </g>
     <g id="text_5">
      <!-- 800 -->
      <g transform="translate(206.333164 203.198437) scale(0.1 -0.1)">
       <defs>
        <path id="DejaVuSans-38" d="M 2034 2216 
Q 1584 2216 1326 1975 
Q 1069 1734 1069 1313 
Q 1069 891 1326 650 
Q 1584 409 2034 409 
Q 2484 409 2743 651 
Q 3003 894 3003 1313 
Q 3003 1734 2745 1975 
Q 2488 2216 2034 2216 
z
M 1403 2484 
Q 997 2584 770 2862 
Q 544 3141 544 3541 
Q 544 4100 942 4425 
Q 1341 4750 2034 4750 
Q 2731 4750 3128 4425 
Q 3525 4100 3525 3541 
Q 3525 3141 3298 2862 
Q 3072 2584 2669 2484 
Q 3125 2378 3379 2068 
Q 3634 1759 3634 1313 
Q 3634 634 3220 271 
Q 2806 -91 2034 -91 
Q 1263 -91 848 271 
Q 434 634 434 1313 
Q 434 1759 690 2068 
Q 947 2378 1403 2484 
z
M 1172 3481 
Q 1172 3119 1398 2916 
Q 1625 2713 2034 2713 
Q 2441 2713 2670 2916 
Q 2900 3119 2900 3481 
Q 2900 3844 2670 4047 
Q 2441 4250 2034 4250 
Q 1625 4250 1398 4047 
Q 1172 3844 1172 3481 
z
" transform="scale(0.015625)"/>
       </defs>
       <use xlink:href="#DejaVuSans-38"/>
       <use xlink:href="#DejaVuSans-30" transform="translate(63.623047 0)"/>
       <use xlink:href="#DejaVuSans-30" transform="translate(127.246094 0)"/>
      </g>
     </g>
    </g>
    <g id="xtick_6">
     <g id="line2d_6">
      <g>
       <use xlink:href="#m6631979ea5" x="258.811523" y="188.6" style="stroke: #000000; stroke-width: 0.8"/>
      </g>
     </g>
     <g id="text_6">
      <!-- 1000 -->
      <g transform="translate(246.086523 203.198437) scale(0.1 -0.1)">
       <defs>
        <path id="DejaVuSans-31" d="M 794 531 
L 1825 531 
L 1825 4091 
L 703 3866 
L 703 4441 
L 1819 4666 
L 2450 4666 
L 2450 531 
L 3481 531 
L 3481 0 
L 794 0 
L 794 531 
z
" transform="scale(0.015625)"/>
       </defs>
       <use xlink:href="#DejaVuSans-31"/>
       <use xlink:href="#DejaVuSans-30" transform="translate(63.623047 0)"/>
       <use xlink:href="#DejaVuSans-30" transform="translate(127.246094 0)"/>
       <use xlink:href="#DejaVuSans-30" transform="translate(190.869141 0)"/>
      </g>
     </g>
    </g>
    <g id="text_7">
     <!-- q (nm) -->
     <g transform="translate(134.771094 216.876563) scale(0.1 -0.1)">
      <defs>
       <path id="DejaVuSans-71" d="M 947 1747 
Q 947 1113 1208 752 
Q 1469 391 1925 391 
Q 2381 391 2643 752 
Q 2906 1113 2906 1747 
Q 2906 2381 2643 2742 
Q 2381 3103 1925 3103 
Q 1469 3103 1208 2742 
Q 947 2381 947 1747 
z
M 2906 525 
Q 2725 213 2448 61 
Q 2172 -91 1784 -91 
Q 1150 -91 751 415 
Q 353 922 353 1747 
Q 353 2572 751 3078 
Q 1150 3584 1784 3584 
Q 2172 3584 2448 3432 
Q 2725 3281 2906 2969 
L 2906 3500 
L 3481 3500 
L 3481 -1331 
L 2906 -1331 
L 2906 525 
z
" transform="scale(0.015625)"/>
       <path id="DejaVuSans-20" transform="scale(0.015625)"/>
       <path id="DejaVuSans-28" d="M 1984 4856 
Q 1566 4138 1362 3434 
Q 1159 2731 1159 2009 
Q 1159 1288 1364 580 
Q 1569 -128 1984 -844 
L 1484 -844 
Q 1016 -109 783 600 
Q 550 1309 550 2009 
Q 550 2706 781 3412 
Q 1013 4119 1484 4856 
L 1984 4856 
z
" transform="scale(0.015625)"/>
       <path id="DejaVuSans-6e" d="M 3513 2113 
L 3513 0 
L 2938 0 
L 2938 2094 
Q 2938 2591 2744 2837 
Q 2550 3084 2163 3084 
Q 1697 3084 1428 2787 
Q 1159 2491 1159 1978 
L 1159 0 
L 581 0 
L 581 3500 
L 1159 3500 
L 1159 2956 
Q 1366 3272 1645 3428 
Q 1925 3584 2291 3584 
Q 2894 3584 3203 3211 
Q 3513 2838 3513 2113 
z
" transform="scale(0.015625)"/>
       <path id="DejaVuSans-6d" d="M 3328 2828 
Q 3544 3216 3844 3400 
Q 4144 3584 4550 3584 
Q 5097 3584 5394 3201 
Q 5691 2819 5691 2113 
L 5691 0 
L 5113 0 
L 5113 2094 
Q 5113 2597 4934 2840 
Q 4756 3084 4391 3084 
Q 3944 3084 3684 2787 
Q 3425 2491 3425 1978 
L 3425 0 
L 2847 0 
L 2847 2094 
Q 2847 2600 2669 2842 
Q 2491 3084 2119 3084 
Q 1678 3084 1418 2786 
Q 1159 2488 1159 1978 
L 1159 0 
L 581 0 
L 581 3500 
L 1159 3500 
L 1159 2956 
Q 1356 3278 1631 3431 
Q 1906 3584 2284 3584 
Q 2666 3584 2933 3390 
Q 3200 3197 3328 2828 
z
" transform="scale(0.015625)"/>
       <path id="DejaVuSans-29" d="M 513 4856 
L 1013 4856 
Q 1481 4119 1714 3412 
Q 1947 2706 1947 2009 
Q 1947 1309 1714 600 
Q 1481 -109 1013 -844 
L 513 -844 
Q 928 -128 1133 580 
Q 1338 1288 1338 2009 
Q 1338 2731 1133 3434 
Q 928 4138 513 4856 
z
" transform="scale(0.015625)"/>
      </defs>
      <use xlink:href="#DejaVuSans-71"/>
      <use xlink:href="#DejaVuSans-20" transform="translate(63.476562 0)"/>
      <use xlink:href="#DejaVuSans-28" transform="translate(95.263672 0)"/>
      <use xlink:href="#DejaVuSans-6e" transform="translate(134.277344 0)"/>
      <use xlink:href="#DejaVuSans-6d" transform="translate(197.65625 0)"/>
      <use xlink:href="#DejaVuSans-29" transform="translate(295.068359 0)"/>
     </g>
    </g>
   </g>
   <g id="matplotlib.axis_2">
    <g id="ytick_1">
     <g id="line2d_7">
      <defs>
       <path id="md5797a1889" d="M 0 0 
L -3.5 0 
" style="stroke: #000000; stroke-width: 0.8"/>
      </defs>
      <g>
       <use xlink:href="#md5797a1889" x="33.7" y="180.687273" style="stroke: #000000; stroke-width: 0.8"/>
      </g>
     </g>
     <g id="text_8">
      <!-- 0 -->
      <g transform="translate(20.3375 184.486491) scale(0.1 -0.1)">
       <use xlink:href="#DejaVuSans-30"/>
      </g>
     </g>
    </g>
    <g id="ytick_2">
     <g id="line2d_8">
      <g>
       <use xlink:href="#md5797a1889" x="33.7" y="158.59038" style="stroke: #000000; stroke-width: 0.8"/>
      </g>
     </g>
     <g id="text_9">
      <!-- 5000 -->
      <g transform="translate(1.25 162.389599) scale(0.1 -0.1)">
       <defs>
        <path id="DejaVuSans-35" d="M 691 4666 
L 3169 4666 
L 3169 4134 
L 1269 4134 
L 1269 2991 
Q 1406 3038 1543 3061 
Q 1681 3084 1819 3084 
Q 2600 3084 3056 2656 
Q 3513 2228 3513 1497 
Q 3513 744 3044 326 
Q 2575 -91 1722 -91 
Q 1428 -91 1123 -41 
Q 819 9 494 109 
L 494 744 
Q 775 591 1075 516 
Q 1375 441 1709 441 
Q 2250 441 2565 725 
Q 2881 1009 2881 1497 
Q 2881 1984 2565 2268 
Q 2250 2553 1709 2553 
Q 1456 2553 1204 2497 
Q 953 2441 691 2322 
L 691 4666 
z
" transform="scale(0.015625)"/>
       </defs>
       <use xlink:href="#DejaVuSans-35"/>
       <use xlink:href="#DejaVuSans-30" transform="translate(63.623047 0)"/>
       <use xlink:href="#DejaVuSans-30" transform="translate(127.246094 0)"/>
       <use xlink:href="#DejaVuSans-30" transform="translate(190.869141 0)"/>
      </g>
     </g>
    </g>
    <g id="ytick_3">
     <g id="line2d_9">
      <g>
       <use xlink:href="#md5797a1889" x="33.7" y="136.493487" style="stroke: #000000; stroke-width: 0.8"/>
      </g>
     </g>
     <g id="text_10">
      <!-- 10000 -->
      <g transform="translate(-5.1125 140.292706) scale(0.1 -0.1)">
       <use xlink:href="#DejaVuSans-31"/>
       <use xlink:href="#DejaVuSans-30" transform="translate(63.623047 0)"/>
       <use xlink:href="#DejaVuSans-30" transform="translate(127.246094 0)"/>
       <use xlink:href="#DejaVuSans-30" transform="translate(190.869141 0)"/>
       <use xlink:href="#DejaVuSans-30" transform="translate(254.492188 0)"/>
      </g>
     </g>
    </g>
    <g id="ytick_4">
     <g id="line2d_10">
      <g>
       <use xlink:href="#md5797a1889" x="33.7" y="114.396594" style="stroke: #000000; stroke-width: 0.8"/>
      </g>
     </g>
     <g id="text_11">
      <!-- 15000 -->
      <g transform="translate(-5.1125 118.195813) scale(0.1 -0.1)">
       <use xlink:href="#DejaVuSans-31"/>
       <use xlink:href="#DejaVuSans-35" transform="translate(63.623047 0)"/>
       <use xlink:href="#DejaVuSans-30" transform="translate(127.246094 0)"/>
       <use xlink:href="#DejaVuSans-30" transform="translate(190.869141 0)"/>
       <use xlink:href="#DejaVuSans-30" transform="translate(254.492188 0)"/>
      </g>
     </g>
    </g>
    <g id="ytick_5">
     <g id="line2d_11">
      <g>
       <use xlink:href="#md5797a1889" x="33.7" y="92.299701" style="stroke: #000000; stroke-width: 0.8"/>
      </g>
     </g>
     <g id="text_12">
      <!-- 20000 -->
      <g transform="translate(-5.1125 96.09892) scale(0.1 -0.1)">
       <use xlink:href="#DejaVuSans-32"/>
       <use xlink:href="#DejaVuSans-30" transform="translate(63.623047 0)"/>
       <use xlink:href="#DejaVuSans-30" transform="translate(127.246094 0)"/>
       <use xlink:href="#DejaVuSans-30" transform="translate(190.869141 0)"/>
       <use xlink:href="#DejaVuSans-30" transform="translate(254.492188 0)"/>
      </g>
     </g>
    </g>
    <g id="ytick_6">
     <g id="line2d_12">
      <g>
       <use xlink:href="#md5797a1889" x="33.7" y="70.202809" style="stroke: #000000; stroke-width: 0.8"/>
      </g>
     </g>
     <g id="text_13">
      <!-- 25000 -->
      <g transform="translate(-5.1125 74.002027) scale(0.1 -0.1)">
       <use xlink:href="#DejaVuSans-32"/>
       <use xlink:href="#DejaVuSans-35" transform="translate(63.623047 0)"/>
       <use xlink:href="#DejaVuSans-30" transform="translate(127.246094 0)"/>
       <use xlink:href="#DejaVuSans-30" transform="translate(190.869141 0)"/>
       <use xlink:href="#DejaVuSans-30" transform="translate(254.492188 0)"/>
      </g>
     </g>
    </g>
    <g id="ytick_7">
     <g id="line2d_13">
      <g>
       <use xlink:href="#md5797a1889" x="33.7" y="48.105916" style="stroke: #000000; stroke-width: 0.8"/>
      </g>
     </g>
     <g id="text_14">
      <!-- 30000 -->
      <g transform="translate(-5.1125 51.905135) scale(0.1 -0.1)">
       <defs>
        <path id="DejaVuSans-33" d="M 2597 2516 
Q 3050 2419 3304 2112 
Q 3559 1806 3559 1356 
Q 3559 666 3084 287 
Q 2609 -91 1734 -91 
Q 1441 -91 1130 -33 
Q 819 25 488 141 
L 488 750 
Q 750 597 1062 519 
Q 1375 441 1716 441 
Q 2309 441 2620 675 
Q 2931 909 2931 1356 
Q 2931 1769 2642 2001 
Q 2353 2234 1838 2234 
L 1294 2234 
L 1294 2753 
L 1863 2753 
Q 2328 2753 2575 2939 
Q 2822 3125 2822 3475 
Q 2822 3834 2567 4026 
Q 2313 4219 1838 4219 
Q 1578 4219 1281 4162 
Q 984 4106 628 3988 
L 628 4550 
Q 988 4650 1302 4700 
Q 1616 4750 1894 4750 
Q 2613 4750 3031 4423 
Q 3450 4097 3450 3541 
Q 3450 3153 3228 2886 
Q 3006 2619 2597 2516 
z
" transform="scale(0.015625)"/>
       </defs>
       <use xlink:href="#DejaVuSans-33"/>
       <use xlink:href="#DejaVuSans-30" transform="translate(63.623047 0)"/>
       <use xlink:href="#DejaVuSans-30" transform="translate(127.246094 0)"/>
       <use xlink:href="#DejaVuSans-30" transform="translate(190.869141 0)"/>
       <use xlink:href="#DejaVuSans-30" transform="translate(254.492188 0)"/>
      </g>
     </g>
    </g>
    <g id="ytick_8">
     <g id="line2d_14">
      <g>
       <use xlink:href="#md5797a1889" x="33.7" y="26.009023" style="stroke: #000000; stroke-width: 0.8"/>
      </g>
     </g>
     <g id="text_15">
      <!-- 35000 -->
      <g transform="translate(-5.1125 29.808242) scale(0.1 -0.1)">
       <use xlink:href="#DejaVuSans-33"/>
       <use xlink:href="#DejaVuSans-35" transform="translate(63.623047 0)"/>
       <use xlink:href="#DejaVuSans-30" transform="translate(127.246094 0)"/>
       <use xlink:href="#DejaVuSans-30" transform="translate(190.869141 0)"/>
       <use xlink:href="#DejaVuSans-30" transform="translate(254.492188 0)"/>
      </g>
     </g>
    </g>
    <g id="text_16">
     <!-- rdf -->
     <g transform="translate(-11.192187 108.462344) rotate(-90) scale(0.1 -0.1)">
      <defs>
       <path id="DejaVuSans-72" d="M 2631 2963 
Q 2534 3019 2420 3045 
Q 2306 3072 2169 3072 
Q 1681 3072 1420 2755 
Q 1159 2438 1159 1844 
L 1159 0 
L 581 0 
L 581 3500 
L 1159 3500 
L 1159 2956 
Q 1341 3275 1631 3429 
Q 1922 3584 2338 3584 
Q 2397 3584 2469 3576 
Q 2541 3569 2628 3553 
L 2631 2963 
z
" transform="scale(0.015625)"/>
       <path id="DejaVuSans-64" d="M 2906 2969 
L 2906 4863 
L 3481 4863 
L 3481 0 
L 2906 0 
L 2906 525 
Q 2725 213 2448 61 
Q 2172 -91 1784 -91 
Q 1150 -91 751 415 
Q 353 922 353 1747 
Q 353 2572 751 3078 
Q 1150 3584 1784 3584 
Q 2172 3584 2448 3432 
Q 2725 3281 2906 2969 
z
M 947 1747 
Q 947 1113 1208 752 
Q 1469 391 1925 391 
Q 2381 391 2643 752 
Q 2906 1113 2906 1747 
Q 2906 2381 2643 2742 
Q 2381 3103 1925 3103 
Q 1469 3103 1208 2742 
Q 947 2381 947 1747 
z
" transform="scale(0.015625)"/>
       <path id="DejaVuSans-66" d="M 2375 4863 
L 2375 4384 
L 1825 4384 
Q 1516 4384 1395 4259 
Q 1275 4134 1275 3809 
L 1275 3500 
L 2222 3500 
L 2222 3053 
L 1275 3053 
L 1275 0 
L 697 0 
L 697 3053 
L 147 3053 
L 147 3500 
L 697 3500 
L 697 3744 
Q 697 4328 969 4595 
Q 1241 4863 1831 4863 
L 2375 4863 
z
" transform="scale(0.015625)"/>
      </defs>
      <use xlink:href="#DejaVuSans-72"/>
      <use xlink:href="#DejaVuSans-64" transform="translate(39.363281 0)"/>
      <use xlink:href="#DejaVuSans-66" transform="translate(102.839844 0)"/>
     </g>
    </g>
   </g>
   <g id="line2d_15">
    <path d="M 44.406818 180.687273 
L 94.854984 180.687273 
L 95.391667 174.158548 
L 95.928349 22.432727 
L 97.001715 129.837005 
L 97.538397 156.844611 
L 98.07508 166.370187 
L 99.148445 176.639088 
L 99.685128 176.915448 
L 100.22181 176.013616 
L 100.758493 175.719679 
L 101.295175 176.937472 
L 101.831858 176.638873 
L 102.368541 176.893789 
L 102.905223 175.189183 
L 103.978589 178.292543 
L 105.051954 176.230187 
L 105.588636 174.361237 
L 106.125319 176.06439 
L 106.662002 176.926837 
L 107.198684 174.680125 
L 107.735367 175.841168 
L 108.272049 175.32627 
L 108.808732 173.364512 
L 109.345415 175.357266 
L 109.882097 174.026814 
L 110.41878 171.903418 
L 110.955463 174.513468 
L 111.492145 171.911103 
L 112.56551 172.838353 
L 113.102193 174.63427 
L 114.175558 171.32203 
L 114.712241 171.463935 
L 115.248923 173.177283 
L 115.785606 173.766664 
L 116.322289 173.281405 
L 116.858971 172.347894 
L 117.395654 172.241373 
L 117.932337 172.926162 
L 118.469019 172.705267 
L 119.005702 171.945072 
L 119.542384 173.577252 
L 120.079067 174.208443 
L 120.61575 172.413998 
L 121.689115 173.761745 
L 122.225797 173.957075 
L 122.76248 175.237645 
L 123.299163 174.236084 
L 123.835845 174.804843 
L 124.372528 175.073565 
L 124.909211 175.805128 
L 125.445893 175.128162 
L 125.982576 176.663876 
L 126.519258 173.918278 
L 127.055941 176.411016 
L 127.592624 175.762257 
L 128.665989 175.972266 
L 129.202671 176.454823 
L 129.739354 175.671824 
L 130.276037 176.394545 
L 130.812719 177.344406 
L 131.349402 176.660631 
L 131.886085 175.516478 
L 132.422767 175.579145 
L 132.95945 176.494717 
L 133.496132 175.854543 
L 134.032815 176.442666 
L 134.569498 174.770193 
L 135.10618 176.246166 
L 135.642863 176.371256 
L 136.179545 175.843023 
L 136.716228 174.684093 
L 137.252911 174.611789 
L 137.789593 173.703526 
L 138.326276 174.335234 
L 138.862959 172.836928 
L 139.399641 173.060136 
L 139.936324 173.545788 
L 140.473006 172.371129 
L 141.009689 172.85465 
L 141.546372 171.520541 
L 142.083054 170.72681 
L 142.619737 171.656105 
L 143.156419 171.628786 
L 143.693102 172.158796 
L 144.229785 170.966079 
L 144.766467 170.404101 
L 145.30315 171.350811 
L 145.839833 170.738472 
L 146.376515 169.670673 
L 146.913198 169.495468 
L 147.44988 167.315933 
L 147.986563 167.624166 
L 149.059928 172.118705 
L 149.596611 173.362283 
L 150.133293 173.70887 
L 150.669976 173.886938 
L 151.206659 174.809841 
L 151.743341 175.34442 
L 152.280024 175.711571 
L 152.816707 174.723403 
L 153.353389 175.244023 
L 153.890072 174.686931 
L 154.426754 175.097684 
L 154.963437 175.999469 
L 155.50012 175.797617 
L 156.036802 176.235737 
L 156.573485 175.454461 
L 157.110167 175.744022 
L 157.64685 175.743095 
L 158.183533 175.506985 
L 158.720215 174.668982 
L 159.256898 175.14094 
L 159.793581 175.421248 
L 160.330263 175.106813 
L 160.866946 174.618581 
L 161.403628 175.520307 
L 161.940311 175.743835 
L 162.476994 175.351161 
L 163.013676 174.749082 
L 163.550359 175.40373 
L 164.087041 175.11033 
L 164.623724 174.442599 
L 165.160407 174.45605 
L 165.697089 174.759646 
L 166.770455 175.881215 
L 167.307137 175.438499 
L 167.84382 175.443904 
L 168.380502 174.735183 
L 168.917185 174.235505 
L 169.453868 174.992723 
L 169.99055 174.92515 
L 170.527233 173.900363 
L 171.063915 174.033654 
L 171.600598 173.863371 
L 172.137281 175.266355 
L 172.673963 174.532989 
L 173.210646 174.436991 
L 173.747329 175.144974 
L 174.284011 174.648162 
L 174.820694 174.661802 
L 175.357376 175.529171 
L 175.894059 175.041839 
L 176.430742 174.807572 
L 176.967424 175.618731 
L 177.504107 175.246192 
L 178.577472 174.790498 
L 179.114155 174.332985 
L 179.650837 175.050299 
L 180.18752 175.392518 
L 180.724203 175.269899 
L 181.260885 175.572826 
L 181.797568 174.513658 
L 182.33425 174.786019 
L 182.870933 174.417866 
L 183.407616 175.255598 
L 183.944298 173.730348 
L 184.480981 174.467603 
L 185.017663 174.730959 
L 185.554346 174.041012 
L 186.091029 174.39511 
L 186.627711 174.563091 
L 187.164394 173.620887 
L 187.701077 174.386851 
L 188.237759 174.463183 
L 188.774442 173.865138 
L 189.311124 173.973618 
L 189.847807 174.282637 
L 190.38449 174.816412 
L 190.921172 174.603397 
L 191.457855 173.744503 
L 191.994537 174.159076 
L 192.53122 173.816798 
L 193.067903 174.087135 
L 193.604585 173.942539 
L 194.141268 174.371803 
L 194.677951 175.308683 
L 195.214633 175.158994 
L 195.751316 175.144752 
L 196.287998 175.448366 
L 196.824681 174.98593 
L 197.361364 175.521503 
L 197.898046 175.117061 
L 198.434729 175.87616 
L 198.971411 176.113838 
L 199.508094 175.790163 
L 200.044777 176.151411 
L 200.581459 175.907172 
L 201.118142 176.16351 
L 201.654825 175.996777 
L 202.191507 175.587229 
L 202.72819 176.060071 
L 203.801555 176.266222 
L 204.338238 175.102456 
L 204.87492 176.064285 
L 205.411603 175.294298 
L 205.948285 176.242381 
L 206.484968 176.248504 
L 207.021651 175.769779 
L 207.558333 175.664418 
L 208.095016 175.69724 
L 208.631699 175.842947 
L 209.705064 175.145846 
L 210.241746 175.11498 
L 210.778429 176.055172 
L 211.315112 175.273967 
L 211.851794 175.722311 
L 212.388477 175.53757 
L 212.925159 175.591741 
L 213.461842 175.175353 
L 213.998525 175.082754 
L 214.535207 175.856347 
L 215.07189 175.19486 
L 215.608573 175.687504 
L 216.145255 175.987781 
L 216.681938 175.111722 
L 217.21862 175.391593 
L 218.291986 174.911408 
L 218.828668 175.769757 
L 219.365351 175.600368 
L 220.438716 175.721225 
L 220.975399 175.535887 
L 221.512081 175.800593 
L 222.048764 175.539802 
L 222.585447 175.974629 
L 223.122129 175.6778 
L 224.732177 176.273816 
L 225.26886 175.777175 
L 225.805542 176.362951 
L 226.878907 176.010067 
L 227.41559 175.36275 
L 227.952273 175.556936 
L 228.488955 175.622793 
L 229.025638 176.082207 
L 230.099003 175.993491 
L 230.635686 175.509775 
L 231.172368 175.819632 
L 231.709051 175.49922 
L 232.782416 175.678566 
L 233.319099 175.450251 
L 234.392464 175.813781 
L 234.929147 175.437301 
L 236.002512 176.011685 
L 236.539195 175.342793 
L 237.075877 176.014187 
L 237.61256 176.121914 
L 238.149242 175.740305 
L 238.685925 175.767592 
L 239.75929 176.013479 
L 240.295973 175.975335 
L 240.832656 176.396834 
L 241.369338 175.758807 
L 242.442703 175.858766 
L 242.979386 176.194625 
L 243.516069 175.402112 
L 244.052751 176.074154 
L 244.589434 176.449443 
L 245.126116 176.365887 
L 245.662799 175.981675 
L 246.199482 176.156647 
L 246.736164 176.658126 
L 247.272847 176.15988 
L 247.80953 176.464237 
L 248.346212 176.324859 
L 248.882895 176.479173 
L 249.419577 176.428488 
L 249.95626 176.682018 
L 250.492943 176.760361 
L 251.566308 176.27417 
L 252.639673 176.249028 
L 253.713038 176.629076 
L 254.249721 176.552668 
L 254.786404 176.711749 
L 255.859769 176.506004 
L 256.396451 176.731052 
L 256.933134 176.33164 
L 257.469817 176.420813 
L 258.006499 176.388645 
L 258.543182 176.490095 
L 258.543182 176.490095 
" clip-path="url(#p12d237b78d)" style="fill: none; stroke: #000000; stroke-opacity: 0.5; stroke-width: 0.5; stroke-linecap: square"/>
   </g>
   <g id="line2d_16">
    <path d="M 44.406818 180.687273 
L 102.905223 180.687273 
L 103.441906 180.1539 
L 104.515271 180.172697 
L 105.588636 178.203492 
L 106.125319 178.734503 
L 106.662002 176.368647 
L 107.198684 176.913551 
L 108.272049 172.022179 
L 108.808732 172.613927 
L 109.345415 172.305115 
L 109.882097 170.271449 
L 110.41878 164.034546 
L 110.955463 170.60339 
L 111.492145 162.493598 
L 112.028828 166.035932 
L 112.56551 163.059905 
L 113.102193 168.460528 
L 113.638876 165.541874 
L 114.175558 160.801739 
L 115.248923 164.736114 
L 115.785606 165.339628 
L 116.322289 162.686898 
L 116.858971 160.823334 
L 117.395654 162.861 
L 117.932337 162.430382 
L 118.469019 164.390676 
L 119.005702 162.615504 
L 119.542384 164.851314 
L 120.079067 167.676507 
L 120.61575 164.009813 
L 121.152432 163.608898 
L 121.689115 166.651618 
L 122.76248 171.583917 
L 123.299163 168.414129 
L 123.835845 169.760176 
L 124.372528 170.488639 
L 124.909211 172.348898 
L 125.445893 172.174883 
L 125.982576 174.246408 
L 126.519258 170.460449 
L 127.055941 175.23059 
L 127.592624 172.607168 
L 128.129306 172.444199 
L 128.665989 172.548528 
L 129.202671 174.46557 
L 129.739354 175.055342 
L 130.812719 176.692139 
L 131.349402 176.2479 
L 132.422767 177.317873 
L 132.95945 178.071777 
L 133.496132 178.338029 
L 134.569498 177.934707 
L 135.10618 178.647139 
L 135.642863 178.222937 
L 136.179545 178.030165 
L 136.716228 179.811809 
L 137.252911 176.143904 
L 137.789593 178.5485 
L 138.326276 178.995697 
L 138.862959 178.387634 
L 139.399641 179.860437 
L 139.936324 178.847673 
L 140.473006 179.878759 
L 141.009689 178.688322 
L 141.546372 178.117198 
L 142.083054 178.536355 
L 142.619737 177.979501 
L 143.156419 178.200093 
L 143.693102 177.848309 
L 144.229785 175.819033 
L 144.766467 177.352803 
L 145.30315 175.188635 
L 145.839833 173.614296 
L 146.913198 166.835239 
L 147.44988 159.94878 
L 147.986563 161.380141 
L 148.523246 167.259228 
L 149.596611 174.783908 
L 150.133293 173.674795 
L 150.669976 177.381554 
L 151.206659 178.232777 
L 151.743341 179.553239 
L 152.280024 179.083263 
L 152.816707 178.940248 
L 153.890072 178.974251 
L 154.426754 178.682448 
L 154.963437 177.785447 
L 155.50012 178.569657 
L 156.036802 178.440103 
L 156.573485 178.46151 
L 157.110167 177.894696 
L 157.64685 178.648988 
L 158.183533 178.235466 
L 158.720215 177.543998 
L 159.256898 177.856332 
L 159.793581 178.443488 
L 160.866946 177.520876 
L 161.403628 177.959025 
L 161.940311 177.307969 
L 162.476994 176.936686 
L 163.013676 176.970485 
L 163.550359 178.187792 
L 164.623724 176.681504 
L 165.160407 175.308138 
L 165.697089 177.259715 
L 166.233772 176.786444 
L 166.770455 177.693669 
L 167.307137 175.864962 
L 167.84382 176.642174 
L 168.380502 175.21879 
L 169.453868 174.71482 
L 169.99055 175.831523 
L 170.527233 174.111255 
L 171.063915 174.516041 
L 171.600598 172.489635 
L 172.137281 175.420569 
L 172.673963 172.966612 
L 173.210646 173.593661 
L 173.747329 174.768954 
L 174.284011 173.045717 
L 174.820694 173.877235 
L 175.357376 173.170228 
L 175.894059 172.799101 
L 176.430742 174.041985 
L 176.967424 174.520834 
L 177.504107 173.304792 
L 178.040789 173.363854 
L 178.577472 172.072982 
L 179.114155 172.450232 
L 179.650837 173.843269 
L 180.18752 173.897164 
L 180.724203 172.844392 
L 181.260885 174.102829 
L 181.797568 172.669248 
L 182.870933 172.890294 
L 183.407616 174.014128 
L 183.944298 172.337786 
L 184.480981 172.591982 
L 185.017663 173.787746 
L 185.554346 171.964054 
L 186.091029 174.450204 
L 186.627711 173.66558 
L 187.164394 173.351405 
L 187.701077 173.406123 
L 188.237759 173.911937 
L 188.774442 173.962125 
L 189.311124 173.655736 
L 189.847807 173.707445 
L 190.38449 175.161861 
L 191.457855 174.982772 
L 191.994537 174.5093 
L 193.067903 175.359179 
L 193.604585 174.389788 
L 194.141268 175.101689 
L 194.677951 176.63137 
L 195.214633 176.00266 
L 195.751316 176.280569 
L 196.287998 176.71675 
L 196.824681 175.698598 
L 197.361364 176.772179 
L 197.898046 176.482086 
L 198.434729 176.668899 
L 198.971411 178.183381 
L 199.508094 176.102575 
L 200.044777 176.288431 
L 200.581459 176.165259 
L 201.118142 176.805101 
L 201.654825 176.8315 
L 202.191507 177.158005 
L 202.72819 176.585197 
L 203.801555 177.155237 
L 204.338238 176.447943 
L 204.87492 177.129646 
L 205.411603 176.504184 
L 205.948285 178.036421 
L 206.484968 177.128704 
L 207.021651 177.505619 
L 208.095016 176.709772 
L 208.631699 177.359628 
L 209.168381 176.348094 
L 209.705064 176.444617 
L 210.241746 176.403988 
L 210.778429 177.579904 
L 211.315112 176.995759 
L 211.851794 176.952663 
L 212.388477 177.30778 
L 213.461842 176.238213 
L 213.998525 175.421094 
L 214.535207 176.94014 
L 215.07189 176.835246 
L 215.608573 177.305919 
L 216.145255 177.073373 
L 216.681938 176.528755 
L 217.21862 176.867584 
L 217.755303 176.019926 
L 218.291986 175.863112 
L 218.828668 176.999135 
L 219.365351 176.044225 
L 219.902033 176.37613 
L 220.438716 176.885142 
L 220.975399 175.828467 
L 221.512081 176.334769 
L 222.048764 175.827653 
L 222.585447 176.151353 
L 223.122129 176.881172 
L 223.658812 176.438283 
L 224.195494 177.736467 
L 224.732177 176.258556 
L 225.26886 176.570631 
L 225.805542 177.049645 
L 226.342225 177.071026 
L 226.878907 176.755209 
L 227.41559 176.163935 
L 227.952273 177.02307 
L 228.488955 176.326819 
L 229.025638 176.681358 
L 229.562321 176.213492 
L 230.099003 175.968029 
L 230.635686 176.642353 
L 231.172368 176.50469 
L 231.709051 175.515541 
L 232.245734 175.810105 
L 233.855781 175.319236 
L 234.392464 176.54142 
L 234.929147 175.843248 
L 235.465829 175.665396 
L 236.539195 175.974657 
L 237.075877 176.655913 
L 237.61256 176.878717 
L 238.149242 175.952869 
L 238.685925 175.384253 
L 239.222608 175.709115 
L 239.75929 176.373617 
L 240.295973 175.080902 
L 240.832656 174.772086 
L 241.369338 176.1062 
L 241.906021 175.699396 
L 242.442703 175.010857 
L 242.979386 175.56333 
L 243.516069 174.694278 
L 244.052751 176.181435 
L 244.589434 176.438962 
L 245.126116 175.440011 
L 245.662799 175.652698 
L 246.199482 176.690158 
L 246.736164 175.88867 
L 247.272847 175.823108 
L 247.80953 176.120007 
L 248.346212 176.188992 
L 249.419577 175.479163 
L 249.95626 177.056154 
L 250.492943 176.193979 
L 251.029625 176.392574 
L 251.566308 176.022373 
L 252.10299 176.783747 
L 254.249721 177.075563 
L 254.786404 176.037083 
L 255.323086 176.943952 
L 255.859769 176.502588 
L 256.396451 176.856808 
L 256.933134 176.461835 
L 257.469817 176.895238 
L 258.006499 177.160322 
L 258.543182 176.93313 
L 258.543182 176.93313 
" clip-path="url(#p12d237b78d)" style="fill: none; stroke: #0000ff; stroke-opacity: 0.5; stroke-linecap: square"/>
   </g>
   <g id="line2d_17">
    <path d="M 44.406818 180.687273 
L 99.148445 180.687273 
L 99.685128 176.364012 
L 100.22181 166.904314 
L 100.758493 163.003487 
L 101.295175 163.334027 
L 101.831858 167.662876 
L 102.368541 166.918333 
L 102.905223 154.615688 
L 103.978589 169.511866 
L 105.051954 160.015934 
L 105.588636 155.076743 
L 106.125319 159.857734 
L 106.662002 168.744407 
L 107.198684 156.367739 
L 107.735367 166.670587 
L 108.272049 167.71497 
L 108.808732 156.766253 
L 109.345415 167.354253 
L 109.882097 164.484881 
L 110.41878 165.5053 
L 110.955463 165.748188 
L 111.492145 166.720412 
L 112.028828 162.599201 
L 112.56551 170.716238 
L 113.102193 170.169645 
L 114.175558 166.410481 
L 114.712241 165.957261 
L 115.248923 170.135603 
L 115.785606 170.942737 
L 116.322289 174.28714 
L 116.858971 174.381261 
L 117.395654 168.259372 
L 117.932337 173.338588 
L 118.469019 171.030032 
L 119.005702 167.598256 
L 119.542384 173.64907 
L 120.079067 170.278661 
L 121.689115 169.042878 
L 122.76248 170.43757 
L 123.299163 172.172572 
L 123.835845 172.811889 
L 124.372528 173.952938 
L 124.909211 174.042132 
L 125.445893 173.120706 
L 125.982576 175.708827 
L 126.519258 175.282105 
L 127.055941 174.381774 
L 127.592624 174.462601 
L 128.129306 178.323668 
L 128.665989 176.486631 
L 129.202671 175.617738 
L 129.739354 176.591323 
L 130.276037 175.293846 
L 130.812719 176.69214 
L 131.349402 177.179621 
L 131.886085 174.623743 
L 132.422767 170.846487 
L 132.95945 176.882916 
L 133.496132 175.675553 
L 134.032815 173.671881 
L 134.569498 172.93931 
L 135.10618 172.627487 
L 135.642863 174.314849 
L 136.179545 174.388945 
L 136.716228 167.847139 
L 137.252911 172.610175 
L 137.789593 167.379355 
L 138.326276 169.786008 
L 138.862959 165.077603 
L 139.399641 167.457902 
L 139.936324 165.788786 
L 140.473006 160.564258 
L 141.009689 167.183252 
L 141.546372 160.653874 
L 142.083054 159.13465 
L 142.619737 162.119698 
L 143.156419 159.93952 
L 143.693102 162.854378 
L 144.229785 163.710848 
L 144.766467 162.903436 
L 145.30315 168.956846 
L 145.839833 167.468264 
L 146.913198 172.794377 
L 147.44988 174.125942 
L 147.986563 174.81203 
L 148.523246 174.87228 
L 149.059928 177.355052 
L 149.596611 178.588299 
L 150.133293 177.719029 
L 150.669976 178.33654 
L 151.206659 178.650951 
L 151.743341 178.671213 
L 152.280024 177.835701 
L 152.816707 177.863798 
L 153.890072 179.579865 
L 154.426754 177.945632 
L 154.963437 178.515146 
L 155.50012 178.804948 
L 156.036802 178.556623 
L 156.573485 179.104509 
L 157.110167 179.119511 
L 157.64685 179.910783 
L 158.183533 178.123292 
L 158.720215 178.655257 
L 159.256898 177.164325 
L 159.793581 177.69556 
L 160.330263 177.229101 
L 160.866946 177.260835 
L 161.403628 176.322077 
L 161.940311 178.043906 
L 162.476994 177.115285 
L 163.013676 176.439515 
L 163.550359 177.179229 
L 164.087041 176.051646 
L 164.623724 174.025349 
L 165.160407 176.361197 
L 165.697089 172.788376 
L 166.233772 176.660611 
L 166.770455 176.252304 
L 167.307137 175.631403 
L 167.84382 176.328917 
L 168.380502 174.638186 
L 168.917185 174.261732 
L 169.453868 175.166073 
L 169.99055 174.581399 
L 170.527233 173.171824 
L 171.063915 171.372207 
L 171.600598 171.655761 
L 172.137281 174.173863 
L 172.673963 173.218922 
L 173.210646 170.478479 
L 173.747329 172.746553 
L 174.284011 170.84308 
L 174.820694 172.681208 
L 175.357376 173.32759 
L 175.894059 172.811108 
L 176.430742 171.541072 
L 176.967424 174.260947 
L 177.504107 173.562594 
L 178.040789 172.317652 
L 178.577472 171.830815 
L 179.114155 170.619779 
L 180.18752 172.759849 
L 181.260885 174.124999 
L 181.797568 173.472152 
L 182.33425 171.43271 
L 182.870933 171.850698 
L 183.407616 172.606428 
L 183.944298 171.474048 
L 184.480981 173.068177 
L 185.017663 172.286024 
L 185.554346 170.682149 
L 186.091029 170.592117 
L 186.627711 171.489267 
L 187.164394 171.558195 
L 188.237759 174.584452 
L 188.774442 172.079085 
L 189.311124 173.56673 
L 189.847807 174.247376 
L 190.38449 173.203118 
L 190.921172 173.567305 
L 191.457855 170.084968 
L 191.994537 171.99235 
L 192.53122 171.600816 
L 193.067903 171.36546 
L 193.604585 174.11923 
L 194.141268 172.53584 
L 194.677951 174.065392 
L 195.214633 173.674052 
L 195.751316 173.43344 
L 196.287998 173.916677 
L 196.824681 174.107229 
L 197.361364 173.585064 
L 197.898046 172.788224 
L 198.434729 173.683574 
L 198.971411 173.592914 
L 199.508094 174.608879 
L 200.044777 174.650657 
L 200.581459 174.55573 
L 201.118142 174.191614 
L 201.654825 174.907814 
L 202.191507 173.345063 
L 202.72819 174.85321 
L 203.264872 175.682679 
L 203.801555 175.323813 
L 204.338238 172.890805 
L 204.87492 176.427802 
L 205.411603 174.532845 
L 205.948285 175.847279 
L 206.484968 176.005779 
L 207.021651 175.659475 
L 207.558333 175.942191 
L 208.095016 175.104816 
L 208.631699 176.620152 
L 209.168381 175.299651 
L 209.705064 175.212879 
L 210.241746 176.215131 
L 210.778429 175.763521 
L 211.315112 174.363226 
L 211.851794 176.18203 
L 212.388477 175.386108 
L 212.925159 175.536796 
L 213.461842 174.871509 
L 213.998525 175.486109 
L 214.535207 176.552506 
L 215.07189 174.980567 
L 215.608573 174.902819 
L 216.145255 176.516848 
L 216.681938 176.766785 
L 217.21862 175.009923 
L 217.755303 175.930037 
L 218.291986 175.629464 
L 218.828668 177.846041 
L 219.365351 176.234292 
L 219.902033 175.397859 
L 220.438716 176.932082 
L 220.975399 175.24861 
L 221.512081 176.871379 
L 222.048764 175.840823 
L 222.585447 176.288805 
L 223.122129 174.441365 
L 223.658812 176.444751 
L 224.195494 176.058559 
L 224.732177 176.699511 
L 225.26886 174.995127 
L 225.805542 177.453827 
L 226.342225 175.664709 
L 226.878907 175.095006 
L 227.41559 174.333504 
L 228.488955 174.701615 
L 229.025638 176.199673 
L 229.562321 176.128624 
L 230.099003 176.347739 
L 230.635686 174.167462 
L 231.172368 174.872173 
L 231.709051 173.86272 
L 232.245734 175.221077 
L 232.782416 176.001771 
L 233.319099 173.698873 
L 233.855781 175.220794 
L 234.392464 174.97521 
L 234.929147 175.465345 
L 235.465829 175.403484 
L 236.002512 175.795377 
L 236.539195 172.849805 
L 237.075877 175.132955 
L 237.61256 174.718308 
L 238.149242 173.776706 
L 238.685925 175.04834 
L 239.222608 175.16694 
L 239.75929 173.54142 
L 240.295973 175.747167 
L 240.832656 176.549875 
L 241.369338 174.000515 
L 241.906021 175.315714 
L 242.442703 175.005557 
L 242.979386 176.217002 
L 243.516069 174.395415 
L 244.052751 174.178842 
L 244.589434 176.122544 
L 245.126116 176.14687 
L 245.662799 176.006812 
L 246.199482 174.234715 
L 246.736164 176.381226 
L 247.272847 175.595811 
L 247.80953 176.426502 
L 248.346212 175.249353 
L 248.882895 176.232402 
L 249.419577 175.306055 
L 249.95626 176.121314 
L 250.492943 175.988404 
L 251.029625 175.311596 
L 251.566308 175.726882 
L 252.10299 175.983765 
L 252.639673 175.701097 
L 253.176356 176.184575 
L 253.713038 176.055753 
L 254.249721 176.154932 
L 254.786404 175.877379 
L 255.323086 175.303622 
L 255.859769 176.000426 
L 256.396451 176.912323 
L 256.933134 175.532056 
L 257.469817 175.631226 
L 258.006499 174.490047 
L 258.543182 175.536662 
L 258.543182 175.536662 
" clip-path="url(#p12d237b78d)" style="fill: none; stroke: #ff0000; stroke-opacity: 0.5; stroke-linecap: square"/>
   </g>
   <g id="patch_3">
    <path d="M 33.7 188.6 
L 33.7 14.52 
" style="fill: none; stroke: #000000; stroke-width: 0.8; stroke-linejoin: miter; stroke-linecap: square"/>
   </g>
   <g id="patch_4">
    <path d="M 269.25 188.6 
L 269.25 14.52 
" style="fill: none; stroke: #000000; stroke-width: 0.8; stroke-linejoin: miter; stroke-linecap: square"/>
   </g>
   <g id="patch_5">
    <path d="M 33.7 188.6 
L 269.25 188.6 
" style="fill: none; stroke: #000000; stroke-width: 0.8; stroke-linejoin: miter; stroke-linecap: square"/>
   </g>
   <g id="patch_6">
    <path d="M 33.7 14.52 
L 269.25 14.52 
" style="fill: none; stroke: #000000; stroke-width: 0.8; stroke-linejoin: miter; stroke-linecap: square"/>
   </g>
   <g id="legend_1">
    <g id="patch_7">
     <path d="M 213.917188 66.554375 
L 262.25 66.554375 
Q 264.25 66.554375 264.25 64.554375 
L 264.25 21.52 
Q 264.25 19.52 262.25 19.52 
L 213.917188 19.52 
Q 211.917188 19.52 211.917188 21.52 
L 211.917188 64.554375 
Q 211.917188 66.554375 213.917188 66.554375 
z
" style="fill: #ffffff; opacity: 0.8; stroke: #cccccc; stroke-linejoin: miter"/>
    </g>
    <g id="line2d_18">
     <path d="M 215.917188 27.618438 
L 225.917188 27.618438 
L 235.917188 27.618438 
" style="fill: none; stroke: #000000; stroke-opacity: 0.5; stroke-width: 0.5; stroke-linecap: square"/>
    </g>
    <g id="text_17">
     <!-- all -->
     <g transform="translate(243.917188 31.118438) scale(0.1 -0.1)">
      <defs>
       <path id="DejaVuSans-61" d="M 2194 1759 
Q 1497 1759 1228 1600 
Q 959 1441 959 1056 
Q 959 750 1161 570 
Q 1363 391 1709 391 
Q 2188 391 2477 730 
Q 2766 1069 2766 1631 
L 2766 1759 
L 2194 1759 
z
M 3341 1997 
L 3341 0 
L 2766 0 
L 2766 531 
Q 2569 213 2275 61 
Q 1981 -91 1556 -91 
Q 1019 -91 701 211 
Q 384 513 384 1019 
Q 384 1609 779 1909 
Q 1175 2209 1959 2209 
L 2766 2209 
L 2766 2266 
Q 2766 2663 2505 2880 
Q 2244 3097 1772 3097 
Q 1472 3097 1187 3025 
Q 903 2953 641 2809 
L 641 3341 
Q 956 3463 1253 3523 
Q 1550 3584 1831 3584 
Q 2591 3584 2966 3190 
Q 3341 2797 3341 1997 
z
" transform="scale(0.015625)"/>
       <path id="DejaVuSans-6c" d="M 603 4863 
L 1178 4863 
L 1178 0 
L 603 0 
L 603 4863 
z
" transform="scale(0.015625)"/>
      </defs>
      <use xlink:href="#DejaVuSans-61"/>
      <use xlink:href="#DejaVuSans-6c" transform="translate(61.279297 0)"/>
      <use xlink:href="#DejaVuSans-6c" transform="translate(89.0625 0)"/>
     </g>
    </g>
    <g id="line2d_19">
     <path d="M 215.917188 42.296563 
L 225.917188 42.296563 
L 235.917188 42.296563 
" style="fill: none; stroke: #0000ff; stroke-opacity: 0.5; stroke-linecap: square"/>
    </g>
    <g id="text_18">
     <!-- 1-1 -->
     <g transform="translate(243.917188 45.796563) scale(0.1 -0.1)">
      <defs>
       <path id="DejaVuSans-2d" d="M 313 2009 
L 1997 2009 
L 1997 1497 
L 313 1497 
L 313 2009 
z
" transform="scale(0.015625)"/>
      </defs>
      <use xlink:href="#DejaVuSans-31"/>
      <use xlink:href="#DejaVuSans-2d" transform="translate(63.623047 0)"/>
      <use xlink:href="#DejaVuSans-31" transform="translate(99.707031 0)"/>
     </g>
    </g>
    <g id="line2d_20">
     <path d="M 215.917188 56.974688 
L 225.917188 56.974688 
L 235.917188 56.974688 
" style="fill: none; stroke: #ff0000; stroke-opacity: 0.5; stroke-linecap: square"/>
    </g>
    <g id="text_19">
     <!-- 2-2 -->
     <g transform="translate(243.917188 60.474688) scale(0.1 -0.1)">
      <use xlink:href="#DejaVuSans-32"/>
      <use xlink:href="#DejaVuSans-2d" transform="translate(63.623047 0)"/>
      <use xlink:href="#DejaVuSans-32" transform="translate(99.707031 0)"/>
     </g>
    </g>
   </g>
  </g>
 </g>
 <defs>
  <clipPath id="p12d237b78d">
   <rect x="33.7" y="14.52" width="235.55" height="174.08"/>
  </clipPath>
 </defs>
</svg>
