<?xml version="1.0" encoding="utf-8" standalone="no"?>
<!DOCTYPE svg PUBLIC "-//W3C//DTD SVG 1.1//EN"
  "http://www.w3.org/Graphics/SVG/1.1/DTD/svg11.dtd">
<svg xmlns:xlink="http://www.w3.org/1999/xlink" width="288pt" height="216pt" viewBox="0 0 288 216" xmlns="http://www.w3.org/2000/svg" version="1.1">
 <metadata>
  <rdf:RDF xmlns:dc="http://purl.org/dc/elements/1.1/" xmlns:cc="http://creativecommons.org/ns#" xmlns:rdf="http://www.w3.org/1999/02/22-rdf-syntax-ns#">
   <cc:Work>
    <dc:type rdf:resource="http://purl.org/dc/dcmitype/StillImage"/>
    <dc:date>2025-09-17T22:27:58.309493</dc:date>
    <dc:format>image/svg+xml</dc:format>
    <dc:creator>
     <cc:Agent>
      <dc:title>Matplotlib v3.10.0, https://matplotlib.org/</dc:title>
     </cc:Agent>
    </dc:creator>
   </cc:Work>
  </rdf:RDF>
 </metadata>
 <defs>
  <style type="text/css">*{stroke-linejoin: round; stroke-linecap: butt}</style>
 </defs>
 <g id="figure_1">
  <g id="patch_1">
   <path d="M 0 216 
L 288 216 
L 288 0 
L 0 0 
z
" style="fill: #ffffff"/>
  </g>
  <g id="axes_1">
   <g id="patch_2">
    <path d="M 33.7 188.6 
L 269.25 188.6 
L 269.25 14.52 
L 33.7 14.52 
z
" style="fill: #ffffff"/>
   </g>
   <g id="matplotlib.axis_1">
    <g id="xtick_1">
     <g id="line2d_1">
      <defs>
       <path id="m37fb7274f5" d="M 0 0 
L 0 3.5 
" style="stroke: #000000; stroke-width: 0.8"/>
      </defs>
      <g>
       <use xlink:href="#m37fb7274f5" x="44.138477" y="188.6" style="stroke: #000000; stroke-width: 0.8"/>
      </g>
     </g>
     <g id="text_1">
      <!-- 0 -->
      <g transform="translate(40.957227 203.198437) scale(0.1 -0.1)">
       <defs>
        <path id="DejaVuSans-30" d="M 2034 4250 
Q 1547 4250 1301 3770 
Q 1056 3291 1056 2328 
Q 1056 1369 1301 889 
Q 1547 409 2034 409 
Q 2525 409 2770 889 
Q 3016 1369 3016 2328 
Q 3016 3291 2770 3770 
Q 2525 4250 2034 4250 
z
M 2034 4750 
Q 2819 4750 3233 4129 
Q 3647 3509 3647 2328 
Q 3647 1150 3233 529 
Q 2819 -91 2034 -91 
Q 1250 -91 836 529 
Q 422 1150 422 2328 
Q 422 3509 836 4129 
Q 1250 4750 2034 4750 
z
" transform="scale(0.015625)"/>
       </defs>
       <use xlink:href="#DejaVuSans-30"/>
      </g>
     </g>
    </g>
    <g id="xtick_2">
     <g id="line2d_2">
      <g>
       <use xlink:href="#m37fb7274f5" x="87.073086" y="188.6" style="stroke: #000000; stroke-width: 0.8"/>
      </g>
     </g>
     <g id="text_2">
      <!-- 200 -->
      <g transform="translate(77.529336 203.198437) scale(0.1 -0.1)">
       <defs>
        <path id="DejaVuSans-32" d="M 1228 531 
L 3431 531 
L 3431 0 
L 469 0 
L 469 531 
Q 828 903 1448 1529 
Q 2069 2156 2228 2338 
Q 2531 2678 2651 2914 
Q 2772 3150 2772 3378 
Q 2772 3750 2511 3984 
Q 2250 4219 1831 4219 
Q 1534 4219 1204 4116 
Q 875 4013 500 3803 
L 500 4441 
Q 881 4594 1212 4672 
Q 1544 4750 1819 4750 
Q 2544 4750 2975 4387 
Q 3406 4025 3406 3419 
Q 3406 3131 3298 2873 
Q 3191 2616 2906 2266 
Q 2828 2175 2409 1742 
Q 1991 1309 1228 531 
z
" transform="scale(0.015625)"/>
       </defs>
       <use xlink:href="#DejaVuSans-32"/>
       <use xlink:href="#DejaVuSans-30" transform="translate(63.623047 0)"/>
       <use xlink:href="#DejaVuSans-30" transform="translate(127.246094 0)"/>
      </g>
     </g>
    </g>
    <g id="xtick_3">
     <g id="line2d_3">
      <g>
       <use xlink:href="#m37fb7274f5" x="130.007695" y="188.6" style="stroke: #000000; stroke-width: 0.8"/>
      </g>
     </g>
     <g id="text_3">
      <!-- 400 -->
      <g transform="translate(120.463945 203.198437) scale(0.1 -0.1)">
       <defs>
        <path id="DejaVuSans-34" d="M 2419 4116 
L 825 1625 
L 2419 1625 
L 2419 4116 
z
M 2253 4666 
L 3047 4666 
L 3047 1625 
L 3713 1625 
L 3713 1100 
L 3047 1100 
L 3047 0 
L 2419 0 
L 2419 1100 
L 313 1100 
L 313 1709 
L 2253 4666 
z
" transform="scale(0.015625)"/>
       </defs>
       <use xlink:href="#DejaVuSans-34"/>
       <use xlink:href="#DejaVuSans-30" transform="translate(63.623047 0)"/>
       <use xlink:href="#DejaVuSans-30" transform="translate(127.246094 0)"/>
      </g>
     </g>
    </g>
    <g id="xtick_4">
     <g id="line2d_4">
      <g>
       <use xlink:href="#m37fb7274f5" x="172.942305" y="188.6" style="stroke: #000000; stroke-width: 0.8"/>
      </g>
     </g>
     <g id="text_4">
      <!-- 600 -->
      <g transform="translate(163.398555 203.198437) scale(0.1 -0.1)">
       <defs>
        <path id="DejaVuSans-36" d="M 2113 2584 
Q 1688 2584 1439 2293 
Q 1191 2003 1191 1497 
Q 1191 994 1439 701 
Q 1688 409 2113 409 
Q 2538 409 2786 701 
Q 3034 994 3034 1497 
Q 3034 2003 2786 2293 
Q 2538 2584 2113 2584 
z
M 3366 4563 
L 3366 3988 
Q 3128 4100 2886 4159 
Q 2644 4219 2406 4219 
Q 1781 4219 1451 3797 
Q 1122 3375 1075 2522 
Q 1259 2794 1537 2939 
Q 1816 3084 2150 3084 
Q 2853 3084 3261 2657 
Q 3669 2231 3669 1497 
Q 3669 778 3244 343 
Q 2819 -91 2113 -91 
Q 1303 -91 875 529 
Q 447 1150 447 2328 
Q 447 3434 972 4092 
Q 1497 4750 2381 4750 
Q 2619 4750 2861 4703 
Q 3103 4656 3366 4563 
z
" transform="scale(0.015625)"/>
       </defs>
       <use xlink:href="#DejaVuSans-36"/>
       <use xlink:href="#DejaVuSans-30" transform="translate(63.623047 0)"/>
       <use xlink:href="#DejaVuSans-30" transform="translate(127.246094 0)"/>
      </g>
     </g>
    </g>
    <g id="xtick_5">
     <g id="line2d_5">
      <g>
       <use xlink:href="#m37fb7274f5" x="215.876914" y="188.6" style="stroke: #000000; stroke-width: 0.8"/>
      </g>
     </g>
     <g id="text_5">
      <!-- 800 -->
      <g transform="translate(206.333164 203.198437) scale(0.1 -0.1)">
       <defs>
        <path id="DejaVuSans-38" d="M 2034 2216 
Q 1584 2216 1326 1975 
Q 1069 1734 1069 1313 
Q 1069 891 1326 650 
Q 1584 409 2034 409 
Q 2484 409 2743 651 
Q 3003 894 3003 1313 
Q 3003 1734 2745 1975 
Q 2488 2216 2034 2216 
z
M 1403 2484 
Q 997 2584 770 2862 
Q 544 3141 544 3541 
Q 544 4100 942 4425 
Q 1341 4750 2034 4750 
Q 2731 4750 3128 4425 
Q 3525 4100 3525 3541 
Q 3525 3141 3298 2862 
Q 3072 2584 2669 2484 
Q 3125 2378 3379 2068 
Q 3634 1759 3634 1313 
Q 3634 634 3220 271 
Q 2806 -91 2034 -91 
Q 1263 -91 848 271 
Q 434 634 434 1313 
Q 434 1759 690 2068 
Q 947 2378 1403 2484 
z
M 1172 3481 
Q 1172 3119 1398 2916 
Q 1625 2713 2034 2713 
Q 2441 2713 2670 2916 
Q 2900 3119 2900 3481 
Q 2900 3844 2670 4047 
Q 2441 4250 2034 4250 
Q 1625 4250 1398 4047 
Q 1172 3844 1172 3481 
z
" transform="scale(0.015625)"/>
       </defs>
       <use xlink:href="#DejaVuSans-38"/>
       <use xlink:href="#DejaVuSans-30" transform="translate(63.623047 0)"/>
       <use xlink:href="#DejaVuSans-30" transform="translate(127.246094 0)"/>
      </g>
     </g>
    </g>
    <g id="xtick_6">
     <g id="line2d_6">
      <g>
       <use xlink:href="#m37fb7274f5" x="258.811523" y="188.6" style="stroke: #000000; stroke-width: 0.8"/>
      </g>
     </g>
     <g id="text_6">
      <!-- 1000 -->
      <g transform="translate(246.086523 203.198437) scale(0.1 -0.1)">
       <defs>
        <path id="DejaVuSans-31" d="M 794 531 
L 1825 531 
L 1825 4091 
L 703 3866 
L 703 4441 
L 1819 4666 
L 2450 4666 
L 2450 531 
L 3481 531 
L 3481 0 
L 794 0 
L 794 531 
z
" transform="scale(0.015625)"/>
       </defs>
       <use xlink:href="#DejaVuSans-31"/>
       <use xlink:href="#DejaVuSans-30" transform="translate(63.623047 0)"/>
       <use xlink:href="#DejaVuSans-30" transform="translate(127.246094 0)"/>
       <use xlink:href="#DejaVuSans-30" transform="translate(190.869141 0)"/>
      </g>
     </g>
    </g>
    <g id="text_7">
     <!-- q (nm) -->
     <g transform="translate(134.771094 216.876563) scale(0.1 -0.1)">
      <defs>
       <path id="DejaVuSans-71" d="M 947 1747 
Q 947 1113 1208 752 
Q 1469 391 1925 391 
Q 2381 391 2643 752 
Q 2906 1113 2906 1747 
Q 2906 2381 2643 2742 
Q 2381 3103 1925 3103 
Q 1469 3103 1208 2742 
Q 947 2381 947 1747 
z
M 2906 525 
Q 2725 213 2448 61 
Q 2172 -91 1784 -91 
Q 1150 -91 751 415 
Q 353 922 353 1747 
Q 353 2572 751 3078 
Q 1150 3584 1784 3584 
Q 2172 3584 2448 3432 
Q 2725 3281 2906 2969 
L 2906 3500 
L 3481 3500 
L 3481 -1331 
L 2906 -1331 
L 2906 525 
z
" transform="scale(0.015625)"/>
       <path id="DejaVuSans-20" transform="scale(0.015625)"/>
       <path id="DejaVuSans-28" d="M 1984 4856 
Q 1566 4138 1362 3434 
Q 1159 2731 1159 2009 
Q 1159 1288 1364 580 
Q 1569 -128 1984 -844 
L 1484 -844 
Q 1016 -109 783 600 
Q 550 1309 550 2009 
Q 550 2706 781 3412 
Q 1013 4119 1484 4856 
L 1984 4856 
z
" transform="scale(0.015625)"/>
       <path id="DejaVuSans-6e" d="M 3513 2113 
L 3513 0 
L 2938 0 
L 2938 2094 
Q 2938 2591 2744 2837 
Q 2550 3084 2163 3084 
Q 1697 3084 1428 2787 
Q 1159 2491 1159 1978 
L 1159 0 
L 581 0 
L 581 3500 
L 1159 3500 
L 1159 2956 
Q 1366 3272 1645 3428 
Q 1925 3584 2291 3584 
Q 2894 3584 3203 3211 
Q 3513 2838 3513 2113 
z
" transform="scale(0.015625)"/>
       <path id="DejaVuSans-6d" d="M 3328 2828 
Q 3544 3216 3844 3400 
Q 4144 3584 4550 3584 
Q 5097 3584 5394 3201 
Q 5691 2819 5691 2113 
L 5691 0 
L 5113 0 
L 5113 2094 
Q 5113 2597 4934 2840 
Q 4756 3084 4391 3084 
Q 3944 3084 3684 2787 
Q 3425 2491 3425 1978 
L 3425 0 
L 2847 0 
L 2847 2094 
Q 2847 2600 2669 2842 
Q 2491 3084 2119 3084 
Q 1678 3084 1418 2786 
Q 1159 2488 1159 1978 
L 1159 0 
L 581 0 
L 581 3500 
L 1159 3500 
L 1159 2956 
Q 1356 3278 1631 3431 
Q 1906 3584 2284 3584 
Q 2666 3584 2933 3390 
Q 3200 3197 3328 2828 
z
" transform="scale(0.015625)"/>
       <path id="DejaVuSans-29" d="M 513 4856 
L 1013 4856 
Q 1481 4119 1714 3412 
Q 1947 2706 1947 2009 
Q 1947 1309 1714 600 
Q 1481 -109 1013 -844 
L 513 -844 
Q 928 -128 1133 580 
Q 1338 1288 1338 2009 
Q 1338 2731 1133 3434 
Q 928 4138 513 4856 
z
" transform="scale(0.015625)"/>
      </defs>
      <use xlink:href="#DejaVuSans-71"/>
      <use xlink:href="#DejaVuSans-20" transform="translate(63.476562 0)"/>
      <use xlink:href="#DejaVuSans-28" transform="translate(95.263672 0)"/>
      <use xlink:href="#DejaVuSans-6e" transform="translate(134.277344 0)"/>
      <use xlink:href="#DejaVuSans-6d" transform="translate(197.65625 0)"/>
      <use xlink:href="#DejaVuSans-29" transform="translate(295.068359 0)"/>
     </g>
    </g>
   </g>
   <g id="matplotlib.axis_2">
    <g id="ytick_1">
     <g id="line2d_7">
      <defs>
       <path id="m44c45b6ad8" d="M 0 0 
L -3.5 0 
" style="stroke: #000000; stroke-width: 0.8"/>
      </defs>
      <g>
       <use xlink:href="#m44c45b6ad8" x="33.7" y="180.687273" style="stroke: #000000; stroke-width: 0.8"/>
      </g>
     </g>
     <g id="text_8">
      <!-- 0 -->
      <g transform="translate(20.3375 184.486491) scale(0.1 -0.1)">
       <use xlink:href="#DejaVuSans-30"/>
      </g>
     </g>
    </g>
    <g id="ytick_2">
     <g id="line2d_8">
      <g>
       <use xlink:href="#m44c45b6ad8" x="33.7" y="158.355635" style="stroke: #000000; stroke-width: 0.8"/>
      </g>
     </g>
     <g id="text_9">
      <!-- 100 -->
      <g transform="translate(7.6125 162.154854) scale(0.1 -0.1)">
       <use xlink:href="#DejaVuSans-31"/>
       <use xlink:href="#DejaVuSans-30" transform="translate(63.623047 0)"/>
       <use xlink:href="#DejaVuSans-30" transform="translate(127.246094 0)"/>
      </g>
     </g>
    </g>
    <g id="ytick_3">
     <g id="line2d_9">
      <g>
       <use xlink:href="#m44c45b6ad8" x="33.7" y="136.023998" style="stroke: #000000; stroke-width: 0.8"/>
      </g>
     </g>
     <g id="text_10">
      <!-- 200 -->
      <g transform="translate(7.6125 139.823216) scale(0.1 -0.1)">
       <use xlink:href="#DejaVuSans-32"/>
       <use xlink:href="#DejaVuSans-30" transform="translate(63.623047 0)"/>
       <use xlink:href="#DejaVuSans-30" transform="translate(127.246094 0)"/>
      </g>
     </g>
    </g>
    <g id="ytick_4">
     <g id="line2d_10">
      <g>
       <use xlink:href="#m44c45b6ad8" x="33.7" y="113.69236" style="stroke: #000000; stroke-width: 0.8"/>
      </g>
     </g>
     <g id="text_11">
      <!-- 300 -->
      <g transform="translate(7.6125 117.491579) scale(0.1 -0.1)">
       <defs>
        <path id="DejaVuSans-33" d="M 2597 2516 
Q 3050 2419 3304 2112 
Q 3559 1806 3559 1356 
Q 3559 666 3084 287 
Q 2609 -91 1734 -91 
Q 1441 -91 1130 -33 
Q 819 25 488 141 
L 488 750 
Q 750 597 1062 519 
Q 1375 441 1716 441 
Q 2309 441 2620 675 
Q 2931 909 2931 1356 
Q 2931 1769 2642 2001 
Q 2353 2234 1838 2234 
L 1294 2234 
L 1294 2753 
L 1863 2753 
Q 2328 2753 2575 2939 
Q 2822 3125 2822 3475 
Q 2822 3834 2567 4026 
Q 2313 4219 1838 4219 
Q 1578 4219 1281 4162 
Q 984 4106 628 3988 
L 628 4550 
Q 988 4650 1302 4700 
Q 1616 4750 1894 4750 
Q 2613 4750 3031 4423 
Q 3450 4097 3450 3541 
Q 3450 3153 3228 2886 
Q 3006 2619 2597 2516 
z
" transform="scale(0.015625)"/>
       </defs>
       <use xlink:href="#DejaVuSans-33"/>
       <use xlink:href="#DejaVuSans-30" transform="translate(63.623047 0)"/>
       <use xlink:href="#DejaVuSans-30" transform="translate(127.246094 0)"/>
      </g>
     </g>
    </g>
    <g id="ytick_5">
     <g id="line2d_11">
      <g>
       <use xlink:href="#m44c45b6ad8" x="33.7" y="91.360722" style="stroke: #000000; stroke-width: 0.8"/>
      </g>
     </g>
     <g id="text_12">
      <!-- 400 -->
      <g transform="translate(7.6125 95.159941) scale(0.1 -0.1)">
       <use xlink:href="#DejaVuSans-34"/>
       <use xlink:href="#DejaVuSans-30" transform="translate(63.623047 0)"/>
       <use xlink:href="#DejaVuSans-30" transform="translate(127.246094 0)"/>
      </g>
     </g>
    </g>
    <g id="ytick_6">
     <g id="line2d_12">
      <g>
       <use xlink:href="#m44c45b6ad8" x="33.7" y="69.029085" style="stroke: #000000; stroke-width: 0.8"/>
      </g>
     </g>
     <g id="text_13">
      <!-- 500 -->
      <g transform="translate(7.6125 72.828304) scale(0.1 -0.1)">
       <defs>
        <path id="DejaVuSans-35" d="M 691 4666 
L 3169 4666 
L 3169 4134 
L 1269 4134 
L 1269 2991 
Q 1406 3038 1543 3061 
Q 1681 3084 1819 3084 
Q 2600 3084 3056 2656 
Q 3513 2228 3513 1497 
Q 3513 744 3044 326 
Q 2575 -91 1722 -91 
Q 1428 -91 1123 -41 
Q 819 9 494 109 
L 494 744 
Q 775 591 1075 516 
Q 1375 441 1709 441 
Q 2250 441 2565 725 
Q 2881 1009 2881 1497 
Q 2881 1984 2565 2268 
Q 2250 2553 1709 2553 
Q 1456 2553 1204 2497 
Q 953 2441 691 2322 
L 691 4666 
z
" transform="scale(0.015625)"/>
       </defs>
       <use xlink:href="#DejaVuSans-35"/>
       <use xlink:href="#DejaVuSans-30" transform="translate(63.623047 0)"/>
       <use xlink:href="#DejaVuSans-30" transform="translate(127.246094 0)"/>
      </g>
     </g>
    </g>
    <g id="ytick_7">
     <g id="line2d_13">
      <g>
       <use xlink:href="#m44c45b6ad8" x="33.7" y="46.697447" style="stroke: #000000; stroke-width: 0.8"/>
      </g>
     </g>
     <g id="text_14">
      <!-- 600 -->
      <g transform="translate(7.6125 50.496666) scale(0.1 -0.1)">
       <use xlink:href="#DejaVuSans-36"/>
       <use xlink:href="#DejaVuSans-30" transform="translate(63.623047 0)"/>
       <use xlink:href="#DejaVuSans-30" transform="translate(127.246094 0)"/>
      </g>
     </g>
    </g>
    <g id="ytick_8">
     <g id="line2d_14">
      <g>
       <use xlink:href="#m44c45b6ad8" x="33.7" y="24.36581" style="stroke: #000000; stroke-width: 0.8"/>
      </g>
     </g>
     <g id="text_15">
      <!-- 700 -->
      <g transform="translate(7.6125 28.165028) scale(0.1 -0.1)">
       <defs>
        <path id="DejaVuSans-37" d="M 525 4666 
L 3525 4666 
L 3525 4397 
L 1831 0 
L 1172 0 
L 2766 4134 
L 525 4134 
L 525 4666 
z
" transform="scale(0.015625)"/>
       </defs>
       <use xlink:href="#DejaVuSans-37"/>
       <use xlink:href="#DejaVuSans-30" transform="translate(63.623047 0)"/>
       <use xlink:href="#DejaVuSans-30" transform="translate(127.246094 0)"/>
      </g>
     </g>
    </g>
    <g id="text_16">
     <!-- rdf -->
     <g transform="translate(1.532813 108.462344) rotate(-90) scale(0.1 -0.1)">
      <defs>
       <path id="DejaVuSans-72" d="M 2631 2963 
Q 2534 3019 2420 3045 
Q 2306 3072 2169 3072 
Q 1681 3072 1420 2755 
Q 1159 2438 1159 1844 
L 1159 0 
L 581 0 
L 581 3500 
L 1159 3500 
L 1159 2956 
Q 1341 3275 1631 3429 
Q 1922 3584 2338 3584 
Q 2397 3584 2469 3576 
Q 2541 3569 2628 3553 
L 2631 2963 
z
" transform="scale(0.015625)"/>
       <path id="DejaVuSans-64" d="M 2906 2969 
L 2906 4863 
L 3481 4863 
L 3481 0 
L 2906 0 
L 2906 525 
Q 2725 213 2448 61 
Q 2172 -91 1784 -91 
Q 1150 -91 751 415 
Q 353 922 353 1747 
Q 353 2572 751 3078 
Q 1150 3584 1784 3584 
Q 2172 3584 2448 3432 
Q 2725 3281 2906 2969 
z
M 947 1747 
Q 947 1113 1208 752 
Q 1469 391 1925 391 
Q 2381 391 2643 752 
Q 2906 1113 2906 1747 
Q 2906 2381 2643 2742 
Q 2381 3103 1925 3103 
Q 1469 3103 1208 2742 
Q 947 2381 947 1747 
z
" transform="scale(0.015625)"/>
       <path id="DejaVuSans-66" d="M 2375 4863 
L 2375 4384 
L 1825 4384 
Q 1516 4384 1395 4259 
Q 1275 4134 1275 3809 
L 1275 3500 
L 2222 3500 
L 2222 3053 
L 1275 3053 
L 1275 0 
L 697 0 
L 697 3053 
L 147 3053 
L 147 3500 
L 697 3500 
L 697 3744 
Q 697 4328 969 4595 
Q 1241 4863 1831 4863 
L 2375 4863 
z
" transform="scale(0.015625)"/>
      </defs>
      <use xlink:href="#DejaVuSans-72"/>
      <use xlink:href="#DejaVuSans-64" transform="translate(39.363281 0)"/>
      <use xlink:href="#DejaVuSans-66" transform="translate(102.839844 0)"/>
     </g>
    </g>
   </g>
   <g id="line2d_15">
    <path d="M 44.406818 180.687273 
L 95.391667 180.687273 
L 95.928349 65.293511 
L 96.465032 22.432727 
L 97.001715 92.083011 
L 97.538397 126.417107 
L 98.07508 148.769956 
L 98.611762 159.826274 
L 99.148445 129.547397 
L 99.685128 150.59337 
L 100.22181 161.006827 
L 100.758493 151.723617 
L 101.295175 171.213181 
L 101.831858 124.895355 
L 102.368541 144.175052 
L 102.905223 135.876806 
L 103.441906 163.086001 
L 103.978589 128.826481 
L 104.515271 138.234804 
L 105.051954 130.638 
L 105.588636 172.490812 
L 106.125319 132.356305 
L 106.662002 109.430062 
L 107.198684 157.337412 
L 107.735367 165.382313 
L 108.272049 120.487773 
L 108.808732 128.883394 
L 109.345415 151.570352 
L 109.882097 159.204673 
L 110.41878 145.460409 
L 111.492145 173.864656 
L 112.56551 121.195008 
L 113.102193 154.656182 
L 113.638876 135.833666 
L 114.175558 168.067629 
L 114.712241 168.258845 
L 115.248923 137.841789 
L 115.785606 168.628429 
L 116.322289 150.986702 
L 116.858971 151.423481 
L 117.395654 157.618019 
L 117.932337 135.217355 
L 118.469019 175.085327 
L 119.005702 153.077671 
L 119.542384 164.356469 
L 120.079067 159.219545 
L 120.61575 175.395396 
L 121.152432 149.376972 
L 121.689115 149.808884 
L 122.225797 145.156028 
L 122.76248 130.6189 
L 123.299163 151.052171 
L 123.835845 161.195727 
L 124.372528 175.879353 
L 124.909211 137.989114 
L 125.445893 147.91463 
L 125.982576 166.825435 
L 126.519258 144.202449 
L 127.055941 149.174983 
L 128.129306 176.299838 
L 128.665989 128.704413 
L 129.202671 146.467967 
L 129.739354 146.895742 
L 130.276037 138.972553 
L 130.812719 127.127602 
L 131.349402 160.34018 
L 131.886085 160.588325 
L 132.422767 148.918702 
L 132.95945 149.301382 
L 133.496132 145.801057 
L 134.032815 165.36692 
L 134.569498 150.409098 
L 135.10618 150.765366 
L 135.642863 125.239799 
L 136.179545 158.766175 
L 136.716228 144.574453 
L 137.252911 141.419659 
L 137.789593 148.92655 
L 138.326276 135.331974 
L 138.862959 149.642194 
L 139.399641 160.223122 
L 139.936324 146.961327 
L 140.473006 154.006353 
L 141.009689 144.406376 
L 141.546372 128.495081 
L 142.083054 151.649939 
L 142.619737 158.348193 
L 143.156419 158.589677 
L 143.693102 161.950146 
L 144.229785 143.613817 
L 144.766467 153.177942 
L 145.30315 144.396324 
L 145.839833 165.725232 
L 146.376515 133.310109 
L 146.913198 168.96634 
L 147.44988 151.688584 
L 147.986563 157.727478 
L 148.523246 146.600755 
L 149.059928 152.571703 
L 149.596611 130.593092 
L 150.133293 153.138298 
L 150.669976 147.960714 
L 151.206659 156.387806 
L 151.743341 143.264221 
L 152.280024 146.281326 
L 152.816707 146.620342 
L 153.353389 159.928495 
L 153.890072 152.422467 
L 154.426754 160.330625 
L 154.963437 140.367238 
L 155.50012 150.738181 
L 156.036802 138.665268 
L 156.573485 158.652263 
L 157.110167 158.861116 
L 157.64685 147.055624 
L 158.183533 130.71377 
L 158.720215 150.040399 
L 159.256898 157.33205 
L 159.793581 159.862181 
L 160.330263 144.006014 
L 160.866946 144.342611 
L 161.403628 142.42367 
L 161.940311 169.535588 
L 162.476994 145.324653 
L 163.013676 156.594562 
L 163.550359 154.640092 
L 164.087041 144.116582 
L 164.623724 144.441586 
L 165.160407 161.668222 
L 165.697089 159.741123 
L 166.770455 147.757686 
L 167.307137 154.164606 
L 167.84382 156.416721 
L 168.917185 152.856691 
L 169.453868 149.152773 
L 169.99055 157.237597 
L 170.527233 159.373964 
L 171.063915 167.238667 
L 171.600598 159.731376 
L 172.137281 131.569624 
L 172.673963 160.079955 
L 173.210646 150.961715 
L 173.747329 156.734872 
L 174.284011 153.277389 
L 174.820694 139.003323 
L 175.357376 142.938699 
L 175.894059 162.857873 
L 177.504107 152.844822 
L 178.040789 168.603652 
L 178.577472 149.862696 
L 179.114155 156.902859 
L 179.650837 153.7199 
L 180.18752 152.260072 
L 180.724203 147.50591 
L 181.260885 155.995646 
L 181.797568 159.454392 
L 182.33425 149.895163 
L 182.870933 156.56541 
L 183.407616 155.155279 
L 183.944298 149.01686 
L 184.480981 146.115675 
L 185.017663 155.735603 
L 185.554346 141.995649 
L 186.627711 165.442834 
L 187.164394 153.452911 
L 187.701077 159.66299 
L 188.237759 150.875845 
L 188.774442 162.932914 
L 189.311124 163.063956 
L 189.847807 144.242031 
L 190.38449 156.086075 
L 190.921172 149.082792 
L 191.457855 159.295427 
L 191.994537 156.618965 
L 192.53122 146.953855 
L 193.604585 155.749274 
L 194.141268 150.425127 
L 194.677951 143.81173 
L 195.214633 154.921945 
L 195.751316 163.182894 
L 196.287998 151.273041 
L 196.824681 148.824177 
L 197.361364 158.2754 
L 197.898046 159.740721 
L 198.434729 139.085363 
L 198.971411 161.321268 
L 199.508094 155.044088 
L 200.044777 159.04038 
L 200.581459 152.865438 
L 201.118142 149.287408 
L 202.191507 149.712375 
L 202.72819 152.382997 
L 203.264872 151.351179 
L 203.801555 156.404569 
L 204.338238 151.74293 
L 204.87492 159.123735 
L 205.411603 155.696967 
L 205.948285 145.223228 
L 206.484968 158.375087 
L 207.021651 149.188957 
L 207.558333 149.395539 
L 208.095016 157.659675 
L 208.631699 160.097504 
L 209.168381 160.231178 
L 209.705064 144.556328 
L 210.241746 161.61649 
L 210.778429 161.739115 
L 211.315112 150.786063 
L 211.851794 150.977168 
L 212.388477 152.259823 
L 212.925159 156.785878 
L 213.461842 156.937183 
L 213.998525 159.232507 
L 214.535207 165.763375 
L 215.07189 151.026714 
L 215.608573 153.31749 
L 216.145255 159.764732 
L 216.681938 155.73621 
L 217.21862 155.890652 
L 217.755303 150.909648 
L 218.291986 149.051964 
L 218.828668 144.174773 
L 219.365351 159.518677 
L 219.902033 160.649603 
L 220.438716 164.754561 
L 220.975399 164.851192 
L 221.512081 163.962954 
L 222.048764 161.130299 
L 222.585447 147.639915 
L 223.122129 146.871586 
L 223.658812 156.677614 
L 224.195494 158.729846 
L 224.732177 157.911055 
L 225.26886 156.15899 
L 225.805542 160.055139 
L 226.342225 150.853287 
L 226.878907 157.516226 
L 227.41559 154.887537 
L 227.952273 156.869995 
L 228.488955 157.919118 
L 229.025638 146.280365 
L 229.562321 154.581171 
L 230.099003 153.836445 
L 230.635686 147.76168 
L 231.172368 154.144004 
L 231.709051 157.814392 
L 232.245734 153.57133 
L 232.782416 163.292372 
L 233.319099 162.526197 
L 233.855781 146.290206 
L 234.392464 153.324692 
L 234.929147 158.580003 
L 235.465829 156.167229 
L 236.002512 148.737128 
L 236.539195 158.112363 
L 237.075877 149.091543 
L 237.61256 159.18901 
L 238.149242 147.79568 
L 238.685925 161.061176 
L 239.222608 155.476147 
L 239.75929 155.614189 
L 240.295973 148.511634 
L 241.369338 160.000147 
L 241.906021 164.06904 
L 242.442703 163.371847 
L 242.979386 156.419748 
L 243.516069 156.55017 
L 244.052751 151.258573 
L 244.589434 147.564513 
L 245.126116 160.766286 
L 245.662799 156.299648 
L 246.199482 158.703178 
L 246.736164 146.000289 
L 247.272847 160.435109 
L 247.80953 159.795459 
L 248.346212 160.647468 
L 248.882895 157.060585 
L 249.419577 161.590901 
L 249.95626 158.0371 
L 250.492943 161.789038 
L 251.029625 158.271612 
L 251.566308 161.984107 
L 252.10299 157.070982 
L 252.639673 159.328255 
L 253.176356 155.187925 
L 253.713038 152.499581 
L 254.249721 146.333601 
L 254.786404 159.063922 
L 255.323086 153.621848 
L 255.859769 156.520755 
L 256.396451 167.634571 
L 256.933134 156.080356 
L 257.469817 161.644694 
L 258.006499 151.589976 
L 258.543182 149.715647 
L 258.543182 149.715647 
" clip-path="url(#p217efbb5d4)" style="fill: none; stroke: #000000; stroke-opacity: 0.5; stroke-width: 0.5; stroke-linecap: square"/>
   </g>
   <g id="line2d_16">
    <path d="M 44.406818 180.687273 
L 96.465032 180.687273 
L 97.001715 146.76845 
L 97.538397 147.446792 
L 98.07508 180.687273 
L 98.611762 148.743865 
L 99.148445 180.687273 
L 99.685128 180.687273 
L 100.758493 121.553133 
L 101.295175 180.687273 
L 101.831858 123.733017 
L 102.368541 152.732599 
L 104.515271 154.685135 
L 105.051954 129.595296 
L 105.588636 180.687273 
L 106.125319 106.680472 
L 106.662002 83.698281 
L 107.198684 156.850952 
L 107.735367 157.251549 
L 108.272049 88.50678 
L 108.808732 158.023073 
L 109.345415 158.394629 
L 109.882097 136.826957 
L 110.955463 180.687273 
L 111.492145 180.687273 
L 112.028828 139.556752 
L 112.56551 119.955577 
L 113.638876 161.063818 
L 114.175558 161.36344 
L 114.712241 180.687273 
L 115.248923 124.452569 
L 115.785606 162.222166 
L 116.322289 162.495672 
L 116.858971 126.91505 
L 117.395654 145.362473 
L 117.932337 145.874364 
L 118.469019 180.687273 
L 119.005702 129.954625 
L 119.542384 164.016242 
L 120.079067 180.687273 
L 120.61575 180.687273 
L 121.152432 148.72467 
L 121.689115 133.404733 
L 122.225797 149.597429 
L 122.76248 134.686951 
L 123.299163 150.43477 
L 123.835845 135.917624 
L 124.372528 180.687273 
L 124.909211 122.570331 
L 125.445893 152.011206 
L 125.982576 166.536644 
L 126.519258 152.753575 
L 127.055941 125.54076 
L 127.592624 139.857559 
L 128.129306 180.687273 
L 128.665989 101.088506 
L 129.739354 180.687273 
L 130.276037 116.811599 
L 130.812719 104.982735 
L 131.349402 168.224677 
L 131.886085 156.06606 
L 132.422767 168.525865 
L 132.95945 156.657448 
L 133.496132 133.203252 
L 134.032815 180.687273 
L 134.569498 157.505541 
L 135.642863 135.405165 
L 136.179545 180.687273 
L 136.716228 147.508615 
L 137.789593 126.649923 
L 138.326276 159.317946 
L 138.862959 148.995419 
L 139.399641 159.796783 
L 139.936324 160.03013 
L 140.473006 150.045902 
L 141.009689 160.485409 
L 141.546372 110.757884 
L 142.083054 141.164227 
L 142.619737 141.59388 
L 143.693102 180.687273 
L 144.229785 123.918533 
L 144.766467 152.604826 
L 145.30315 125.11675 
L 145.839833 162.358771 
L 146.376515 108.140977 
L 146.913198 180.687273 
L 147.44988 154.044722 
L 147.986563 163.108678 
L 148.523246 154.58978 
L 149.059928 154.856091 
L 149.596611 138.072425 
L 150.133293 155.37665 
L 150.669976 147.278906 
L 151.206659 147.612995 
L 151.743341 123.383219 
L 152.280024 164.476777 
L 152.816707 132.534969 
L 153.353389 164.793831 
L 153.890072 157.079734 
L 154.426754 157.308933 
L 154.963437 142.099732 
L 155.50012 142.470977 
L 156.036802 150.406706 
L 156.573485 173.189248 
L 157.110167 150.979444 
L 157.64685 121.831883 
L 158.183533 144.248253 
L 159.256898 159.22966 
L 159.793581 159.428323 
L 160.330263 173.66625 
L 160.866946 159.817484 
L 161.403628 153.114965 
L 161.940311 167.026458 
L 162.476994 146.844135 
L 163.013676 153.856752 
L 163.550359 167.392356 
L 164.623724 141.509942 
L 165.160407 154.800228 
L 165.697089 148.613475 
L 166.233772 167.970276 
L 166.770455 155.475554 
L 167.307137 168.191015 
L 167.84382 155.91108 
L 168.380502 149.984065 
L 168.917185 138.071689 
L 169.453868 138.435968 
L 169.99055 144.779948 
L 170.527233 168.819633 
L 171.063915 174.803507 
L 172.137281 128.617838 
L 172.673963 157.738212 
L 173.210646 157.92864 
L 173.747329 146.831473 
L 174.284011 158.302532 
L 174.820694 130.734487 
L 175.357376 136.647263 
L 175.894059 164.306509 
L 176.430742 153.607097 
L 176.967424 159.197801 
L 177.504107 143.382738 
L 178.040789 180.687273 
L 178.577472 159.709433 
L 179.114155 154.673065 
L 179.650837 160.040374 
L 180.18752 160.202963 
L 180.724203 145.120995 
L 181.260885 155.481234 
L 181.797568 160.679364 
L 182.33425 140.981651 
L 182.870933 160.98775 
L 183.407616 146.478387 
L 183.944298 117.643345 
L 184.480981 156.624652 
L 185.017663 156.807741 
L 185.554346 171.207823 
L 186.091029 143.055461 
L 186.627711 157.344222 
L 187.164394 148.251901 
L 187.701077 153.092898 
L 188.237759 153.29802 
L 188.774442 162.563027 
L 189.311124 167.194419 
L 189.847807 158.364556 
L 191.457855 158.84976 
L 191.994537 128.657246 
L 192.53122 154.86012 
L 193.067903 155.045865 
L 193.604585 172.201425 
L 194.141268 151.198873 
L 194.677951 155.591415 
L 195.214633 151.616521 
L 195.751316 151.821876 
L 196.287998 143.835914 
L 197.898046 156.631464 
L 198.434729 144.854372 
L 199.508094 176.76066 
L 200.044777 153.389901 
L 200.581459 161.322641 
L 201.654825 146.30432 
L 202.191507 142.743014 
L 202.72819 142.99951 
L 203.264872 165.71364 
L 203.801555 158.377537 
L 204.338238 147.446499 
L 204.87492 158.674492 
L 205.411603 151.531912 
L 205.948285 137.243814 
L 206.484968 166.301783 
L 207.021651 155.67819 
L 207.558333 155.842213 
L 208.095016 166.582868 
L 208.631699 152.662306 
L 209.168381 159.805007 
L 209.705064 149.566669 
L 210.241746 156.638453 
L 210.778429 156.793085 
L 211.315112 150.163118 
L 211.851794 150.358203 
L 212.388477 163.945143 
L 212.925159 154.069807 
L 213.461842 157.544428 
L 213.998525 157.690443 
L 214.535207 164.364255 
L 215.07189 138.51366 
L 215.608573 148.448823 
L 216.145255 167.872215 
L 216.681938 155.216394 
L 217.21862 155.37405 
L 217.755303 161.81955 
L 218.291986 155.685172 
L 218.828668 137.201895 
L 219.365351 174.513098 
L 219.902033 153.072855 
L 220.438716 168.488789 
L 220.975399 171.593897 
L 221.512081 162.610251 
L 222.048764 162.719302 
L 222.585447 147.943652 
L 223.122129 157.016291 
L 223.658812 154.216619 
L 224.195494 160.221517 
L 224.732177 157.436547 
L 225.26886 157.574081 
L 225.805542 143.350142 
L 226.342225 146.4248 
L 226.878907 163.65655 
L 227.41559 166.578039 
L 227.952273 161.049467 
L 228.488955 144.428978 
L 229.025638 141.866316 
L 229.562321 153.118323 
L 230.099003 156.018073 
L 230.635686 147.984144 
L 232.245734 164.614515 
L 232.782416 159.378517 
L 233.319099 164.796329 
L 233.855781 138.55086 
L 234.392464 157.11911 
L 234.929147 149.439493 
L 235.465829 152.203858 
L 236.002512 149.788115 
L 236.539195 152.520888 
L 237.075877 137.399038 
L 237.61256 160.429292 
L 238.149242 145.431595 
L 238.685925 160.652295 
L 239.222608 165.74358 
L 239.75929 150.963535 
L 240.295973 151.125904 
L 240.832656 146.387127 
L 241.369338 156.320221 
L 241.906021 163.722824 
L 242.442703 166.224956 
L 242.979386 159.110701 
L 243.516069 154.457635 
L 244.052751 145.111454 
L 244.589434 140.583695 
L 245.126116 168.954958 
L 245.662799 152.679606 
L 246.199482 155.149711 
L 246.736164 146.047412 
L 247.272847 153.121823 
L 247.80953 166.977019 
L 248.346212 148.864802 
L 248.882895 158.075791 
L 249.419577 164.941947 
L 249.95626 162.786328 
L 250.492943 162.879318 
L 251.566308 158.6571 
L 252.639673 158.883272 
L 253.176356 152.487469 
L 253.713038 156.947949 
L 254.249721 150.627807 
L 254.786404 150.780782 
L 255.323086 146.681994 
L 255.859769 146.854143 
L 256.396451 174.375604 
L 256.933134 163.940897 
L 257.469817 157.776669 
L 258.006499 145.457547 
L 258.543182 151.819695 
L 258.543182 151.819695 
" clip-path="url(#p217efbb5d4)" style="fill: none; stroke: #0000ff; stroke-opacity: 0.5; stroke-linecap: square"/>
   </g>
   <g id="line2d_17">
    <path d="M 44.406818 180.687273 
L 99.148445 180.687273 
L 99.685128 126.07241 
L 100.22181 127.112728 
L 100.758493 180.687273 
L 101.295175 180.687273 
L 101.831858 130.061274 
L 102.368541 180.687273 
L 102.905223 34.306414 
L 103.441906 180.687273 
L 104.515271 88.235234 
L 105.051954 89.857106 
L 105.588636 180.687273 
L 106.662002 94.47485 
L 107.198684 180.687273 
L 107.735367 180.687273 
L 108.272049 98.749068 
L 108.808732 100.103462 
L 109.882097 180.687273 
L 110.41878 142.329131 
L 110.955463 142.942801 
L 111.492145 180.687273 
L 112.028828 180.687273 
L 112.56551 144.698123 
L 113.102193 180.687273 
L 113.638876 145.801136 
L 114.175558 180.687273 
L 114.712241 146.854331 
L 115.248923 180.687273 
L 115.785606 147.86042 
L 116.322289 148.346655 
L 116.858971 180.687273 
L 117.395654 149.287456 
L 117.932337 87.85286 
L 118.469019 180.687273 
L 119.542384 180.687273 
L 120.079067 151.467312 
L 120.61575 151.87594 
L 121.152432 180.687273 
L 121.689115 124.648714 
L 122.225797 153.051859 
L 122.76248 71.649488 
L 123.299163 180.687273 
L 124.372528 180.687273 
L 124.909211 129.027775 
L 125.982576 180.687273 
L 128.129306 180.687273 
L 129.202671 134.110996 
L 129.739354 134.693245 
L 130.276037 157.975926 
L 130.812719 158.2563 
L 131.349402 92.064386 
L 131.886085 158.801753 
L 132.422767 159.066996 
L 133.496132 117.375254 
L 134.032815 159.834569 
L 134.569498 118.869336 
L 135.10618 139.960232 
L 136.179545 140.904539 
L 136.716228 161.025848 
L 137.252911 141.8163 
L 137.789593 142.260718 
L 138.862959 180.687273 
L 139.399641 162.11795 
L 139.936324 125.601567 
L 140.473006 180.687273 
L 141.546372 145.167586 
L 142.083054 163.121477 
L 142.619737 163.312433 
L 143.156419 146.313234 
L 144.766467 147.404379 
L 145.30315 131.291259 
L 145.839833 164.395272 
L 146.376515 132.323085 
L 146.913198 148.780288 
L 147.44988 133.322747 
L 147.986563 149.43644 
L 149.059928 150.072542 
L 149.596611 104.927553 
L 150.133293 150.6895 
L 150.669976 150.990948 
L 151.206659 165.987596 
L 151.743341 137.027047 
L 152.280024 151.868617 
L 152.816707 152.152578 
L 153.353389 166.559771 
L 154.426754 166.833444 
L 154.963437 98.367199 
L 155.50012 167.099259 
L 156.036802 126.855159 
L 156.573485 140.697813 
L 157.110167 167.483796 
L 157.64685 167.608298 
L 158.183533 128.862897 
L 158.720215 142.182229 
L 159.256898 104.393551 
L 159.793581 155.491482 
L 160.330263 130.760003 
L 160.866946 118.850867 
L 161.403628 119.415483 
L 161.940311 156.401383 
L 162.476994 144.587933 
L 163.013676 168.762598 
L 163.550359 145.234166 
L 164.087041 157.262909 
L 164.623724 122.646789 
L 165.160407 169.18192 
L 166.233772 146.775286 
L 166.770455 147.071653 
L 167.307137 180.687273 
L 167.84382 147.652355 
L 168.380502 158.853884 
L 168.917185 148.218262 
L 169.453868 148.495806 
L 169.99055 159.408862 
L 170.527233 149.040239 
L 171.063915 180.687273 
L 171.600598 149.570942 
L 172.137281 108.69004 
L 172.673963 139.888946 
L 173.210646 160.457379 
L 173.747329 170.655925 
L 174.284011 140.892183 
L 174.820694 170.820057 
L 175.357376 151.327272 
L 175.894059 141.858802 
L 176.430742 161.430263 
L 176.967424 142.483772 
L 177.504107 152.264773 
L 178.040789 152.492159 
L 178.577472 162.040306 
L 179.114155 162.188283 
L 179.650837 153.158081 
L 180.18752 153.374865 
L 180.724203 162.621864 
L 181.260885 144.83869 
L 181.797568 171.79487 
L 182.33425 145.393393 
L 182.870933 145.665904 
L 183.407616 163.311333 
L 183.944298 172.065883 
L 185.017663 155.215778 
L 185.554346 138.556387 
L 186.091029 138.874154 
L 186.627711 164.087773 
L 187.164394 164.212165 
L 187.701077 156.158944 
L 188.237759 115.764606 
L 188.774442 172.632053 
L 189.311124 156.699981 
L 189.847807 117.191553 
L 190.38449 157.050829 
L 190.921172 149.402031 
L 191.457855 149.629484 
L 191.994537 165.27097 
L 192.53122 157.729809 
L 193.067903 127.505099 
L 193.604585 127.886451 
L 194.141268 165.70904 
L 195.214633 165.921178 
L 195.751316 158.694593 
L 196.287998 158.849435 
L 196.824681 151.774464 
L 197.361364 130.443661 
L 197.898046 166.43198 
L 198.434729 138.218656 
L 198.971411 159.599846 
L 199.508094 152.764694 
L 200.044777 180.687273 
L 200.581459 160.03167 
L 201.118142 146.496304 
L 201.654825 160.312194 
L 202.191507 126.722115 
L 202.72819 147.187043 
L 203.264872 154.067484 
L 203.801555 167.46669 
L 204.338238 167.555117 
L 204.87492 161.120361 
L 205.411603 135.334496 
L 205.948285 154.943003 
L 206.484968 155.11307 
L 207.021651 129.875175 
L 207.558333 142.828141 
L 208.631699 155.776194 
L 209.168381 149.750584 
L 209.705064 131.509044 
L 210.241746 144.041456 
L 210.778429 168.550544 
L 211.315112 156.569424 
L 211.851794 150.73264 
L 212.925159 162.942298 
L 213.461842 145.421993 
L 213.998525 157.325417 
L 215.07189 157.617949 
L 215.608573 146.299601 
L 216.145255 140.818212 
L 216.681938 152.386297 
L 217.21862 152.561474 
L 217.755303 135.96379 
L 218.291986 147.351143 
L 218.828668 142.033609 
L 219.365351 158.734654 
L 219.902033 164.323177 
L 221.512081 164.61881 
L 222.048764 159.391901 
L 222.585447 133.060193 
L 223.122129 117.564665 
L 223.658812 159.772191 
L 224.195494 154.699013 
L 224.732177 160.019963 
L 225.26886 160.142216 
L 225.805542 170.475409 
L 226.342225 145.155827 
L 226.878907 155.456576 
L 227.41559 150.587581 
L 227.952273 160.737758 
L 228.488955 165.812077 
L 229.025638 141.250114 
L 229.562321 156.181543 
L 230.099003 156.322634 
L 230.635686 141.928013 
L 231.172368 142.150379 
L 231.709051 171.108032 
L 232.245734 142.588888 
L 232.782416 166.481438 
L 233.319099 143.019856 
L 233.855781 147.914511 
L 234.392464 134.132882 
L 234.929147 171.428673 
L 235.465829 171.480513 
L 236.002512 157.79901 
L 236.539195 157.92656 
L 237.075877 148.999157 
L 237.61256 158.178407 
L 238.149242 149.348897 
L 238.685925 167.330623 
L 239.222608 158.548471 
L 239.75929 167.476724 
L 240.295973 141.272116 
L 240.832656 163.264977 
L 241.369338 150.363835 
L 241.906021 167.76198 
L 242.442703 172.117012 
L 242.979386 155.115045 
L 243.516069 134.056813 
L 244.052751 159.605309 
L 245.126116 151.486854 
L 245.662799 155.791572 
L 246.199482 168.305426 
L 246.736164 135.527165 
L 247.272847 172.519733 
L 247.80953 152.251195 
L 248.346212 172.605376 
L 248.882895 136.469267 
L 249.419577 152.695586 
L 249.95626 152.841364 
L 250.492943 156.943339 
L 251.029625 153.12967 
L 251.566308 161.104899 
L 252.10299 137.828074 
L 252.639673 153.553411 
L 253.176356 153.692594 
L 253.713038 142.320691 
L 254.249721 153.967751 
L 254.786404 161.699026 
L 255.323086 142.903632 
L 255.859769 161.891092 
L 256.396451 169.466529 
L 256.933134 147.194526 
L 257.469817 158.470933 
L 258.006499 154.898194 
L 258.543182 140.364308 
L 258.543182 140.364308 
" clip-path="url(#p217efbb5d4)" style="fill: none; stroke: #ff0000; stroke-opacity: 0.5; stroke-linecap: square"/>
   </g>
   <g id="patch_3">
    <path d="M 33.7 188.6 
L 33.7 14.52 
" style="fill: none; stroke: #000000; stroke-width: 0.8; stroke-linejoin: miter; stroke-linecap: square"/>
   </g>
   <g id="patch_4">
    <path d="M 269.25 188.6 
L 269.25 14.52 
" style="fill: none; stroke: #000000; stroke-width: 0.8; stroke-linejoin: miter; stroke-linecap: square"/>
   </g>
   <g id="patch_5">
    <path d="M 33.7 188.6 
L 269.25 188.6 
" style="fill: none; stroke: #000000; stroke-width: 0.8; stroke-linejoin: miter; stroke-linecap: square"/>
   </g>
   <g id="patch_6">
    <path d="M 33.7 14.52 
L 269.25 14.52 
" style="fill: none; stroke: #000000; stroke-width: 0.8; stroke-linejoin: miter; stroke-linecap: square"/>
   </g>
   <g id="legend_1">
    <g id="patch_7">
     <path d="M 213.917188 66.554375 
L 262.25 66.554375 
Q 264.25 66.554375 264.25 64.554375 
L 264.25 21.52 
Q 264.25 19.52 262.25 19.52 
L 213.917188 19.52 
Q 211.917188 19.52 211.917188 21.52 
L 211.917188 64.554375 
Q 211.917188 66.554375 213.917188 66.554375 
z
" style="fill: #ffffff; opacity: 0.8; stroke: #cccccc; stroke-linejoin: miter"/>
    </g>
    <g id="line2d_18">
     <path d="M 215.917188 27.618438 
L 225.917188 27.618438 
L 235.917188 27.618438 
" style="fill: none; stroke: #000000; stroke-opacity: 0.5; stroke-width: 0.5; stroke-linecap: square"/>
    </g>
    <g id="text_17">
     <!-- all -->
     <g transform="translate(243.917188 31.118438) scale(0.1 -0.1)">
      <defs>
       <path id="DejaVuSans-61" d="M 2194 1759 
Q 1497 1759 1228 1600 
Q 959 1441 959 1056 
Q 959 750 1161 570 
Q 1363 391 1709 391 
Q 2188 391 2477 730 
Q 2766 1069 2766 1631 
L 2766 1759 
L 2194 1759 
z
M 3341 1997 
L 3341 0 
L 2766 0 
L 2766 531 
Q 2569 213 2275 61 
Q 1981 -91 1556 -91 
Q 1019 -91 701 211 
Q 384 513 384 1019 
Q 384 1609 779 1909 
Q 1175 2209 1959 2209 
L 2766 2209 
L 2766 2266 
Q 2766 2663 2505 2880 
Q 2244 3097 1772 3097 
Q 1472 3097 1187 3025 
Q 903 2953 641 2809 
L 641 3341 
Q 956 3463 1253 3523 
Q 1550 3584 1831 3584 
Q 2591 3584 2966 3190 
Q 3341 2797 3341 1997 
z
" transform="scale(0.015625)"/>
       <path id="DejaVuSans-6c" d="M 603 4863 
L 1178 4863 
L 1178 0 
L 603 0 
L 603 4863 
z
" transform="scale(0.015625)"/>
      </defs>
      <use xlink:href="#DejaVuSans-61"/>
      <use xlink:href="#DejaVuSans-6c" transform="translate(61.279297 0)"/>
      <use xlink:href="#DejaVuSans-6c" transform="translate(89.0625 0)"/>
     </g>
    </g>
    <g id="line2d_19">
     <path d="M 215.917188 42.296563 
L 225.917188 42.296563 
L 235.917188 42.296563 
" style="fill: none; stroke: #0000ff; stroke-opacity: 0.5; stroke-linecap: square"/>
    </g>
    <g id="text_18">
     <!-- 1-1 -->
     <g transform="translate(243.917188 45.796563) scale(0.1 -0.1)">
      <defs>
       <path id="DejaVuSans-2d" d="M 313 2009 
L 1997 2009 
L 1997 1497 
L 313 1497 
L 313 2009 
z
" transform="scale(0.015625)"/>
      </defs>
      <use xlink:href="#DejaVuSans-31"/>
      <use xlink:href="#DejaVuSans-2d" transform="translate(63.623047 0)"/>
      <use xlink:href="#DejaVuSans-31" transform="translate(99.707031 0)"/>
     </g>
    </g>
    <g id="line2d_20">
     <path d="M 215.917188 56.974688 
L 225.917188 56.974688 
L 235.917188 56.974688 
" style="fill: none; stroke: #ff0000; stroke-opacity: 0.5; stroke-linecap: square"/>
    </g>
    <g id="text_19">
     <!-- 2-2 -->
     <g transform="translate(243.917188 60.474688) scale(0.1 -0.1)">
      <use xlink:href="#DejaVuSans-32"/>
      <use xlink:href="#DejaVuSans-2d" transform="translate(63.623047 0)"/>
      <use xlink:href="#DejaVuSans-32" transform="translate(99.707031 0)"/>
     </g>
    </g>
   </g>
  </g>
 </g>
 <defs>
  <clipPath id="p217efbb5d4">
   <rect x="33.7" y="14.52" width="235.55" height="174.08"/>
  </clipPath>
 </defs>
</svg>
