<?xml version="1.0" encoding="utf-8" standalone="no"?>
<!DOCTYPE svg PUBLIC "-//W3C//DTD SVG 1.1//EN"
  "http://www.w3.org/Graphics/SVG/1.1/DTD/svg11.dtd">
<svg xmlns:xlink="http://www.w3.org/1999/xlink" width="288pt" height="216pt" viewBox="0 0 288 216" xmlns="http://www.w3.org/2000/svg" version="1.1">
 <metadata>
  <rdf:RDF xmlns:dc="http://purl.org/dc/elements/1.1/" xmlns:cc="http://creativecommons.org/ns#" xmlns:rdf="http://www.w3.org/1999/02/22-rdf-syntax-ns#">
   <cc:Work>
    <dc:type rdf:resource="http://purl.org/dc/dcmitype/StillImage"/>
    <dc:date>2025-09-17T22:45:29.326451</dc:date>
    <dc:format>image/svg+xml</dc:format>
    <dc:creator>
     <cc:Agent>
      <dc:title>Matplotlib v3.10.0, https://matplotlib.org/</dc:title>
     </cc:Agent>
    </dc:creator>
   </cc:Work>
  </rdf:RDF>
 </metadata>
 <defs>
  <style type="text/css">*{stroke-linejoin: round; stroke-linecap: butt}</style>
 </defs>
 <g id="figure_1">
  <g id="patch_1">
   <path d="M 0 216 
L 288 216 
L 288 0 
L 0 0 
z
" style="fill: #ffffff"/>
  </g>
  <g id="axes_1">
   <g id="patch_2">
    <path d="M 33.7 188.6 
L 269.25 188.6 
L 269.25 14.52 
L 33.7 14.52 
z
" style="fill: #ffffff"/>
   </g>
   <g id="matplotlib.axis_1">
    <g id="xtick_1">
     <g id="line2d_1">
      <defs>
       <path id="m97c71aeabe" d="M 0 0 
L 0 3.5 
" style="stroke: #000000; stroke-width: 0.8"/>
      </defs>
      <g>
       <use xlink:href="#m97c71aeabe" x="44.138477" y="188.6" style="stroke: #000000; stroke-width: 0.8"/>
      </g>
     </g>
     <g id="text_1">
      <!-- 0 -->
      <g transform="translate(40.957227 203.198437) scale(0.1 -0.1)">
       <defs>
        <path id="DejaVuSans-30" d="M 2034 4250 
Q 1547 4250 1301 3770 
Q 1056 3291 1056 2328 
Q 1056 1369 1301 889 
Q 1547 409 2034 409 
Q 2525 409 2770 889 
Q 3016 1369 3016 2328 
Q 3016 3291 2770 3770 
Q 2525 4250 2034 4250 
z
M 2034 4750 
Q 2819 4750 3233 4129 
Q 3647 3509 3647 2328 
Q 3647 1150 3233 529 
Q 2819 -91 2034 -91 
Q 1250 -91 836 529 
Q 422 1150 422 2328 
Q 422 3509 836 4129 
Q 1250 4750 2034 4750 
z
" transform="scale(0.015625)"/>
       </defs>
       <use xlink:href="#DejaVuSans-30"/>
      </g>
     </g>
    </g>
    <g id="xtick_2">
     <g id="line2d_2">
      <g>
       <use xlink:href="#m97c71aeabe" x="87.073086" y="188.6" style="stroke: #000000; stroke-width: 0.8"/>
      </g>
     </g>
     <g id="text_2">
      <!-- 200 -->
      <g transform="translate(77.529336 203.198437) scale(0.1 -0.1)">
       <defs>
        <path id="DejaVuSans-32" d="M 1228 531 
L 3431 531 
L 3431 0 
L 469 0 
L 469 531 
Q 828 903 1448 1529 
Q 2069 2156 2228 2338 
Q 2531 2678 2651 2914 
Q 2772 3150 2772 3378 
Q 2772 3750 2511 3984 
Q 2250 4219 1831 4219 
Q 1534 4219 1204 4116 
Q 875 4013 500 3803 
L 500 4441 
Q 881 4594 1212 4672 
Q 1544 4750 1819 4750 
Q 2544 4750 2975 4387 
Q 3406 4025 3406 3419 
Q 3406 3131 3298 2873 
Q 3191 2616 2906 2266 
Q 2828 2175 2409 1742 
Q 1991 1309 1228 531 
z
" transform="scale(0.015625)"/>
       </defs>
       <use xlink:href="#DejaVuSans-32"/>
       <use xlink:href="#DejaVuSans-30" transform="translate(63.623047 0)"/>
       <use xlink:href="#DejaVuSans-30" transform="translate(127.246094 0)"/>
      </g>
     </g>
    </g>
    <g id="xtick_3">
     <g id="line2d_3">
      <g>
       <use xlink:href="#m97c71aeabe" x="130.007695" y="188.6" style="stroke: #000000; stroke-width: 0.8"/>
      </g>
     </g>
     <g id="text_3">
      <!-- 400 -->
      <g transform="translate(120.463945 203.198437) scale(0.1 -0.1)">
       <defs>
        <path id="DejaVuSans-34" d="M 2419 4116 
L 825 1625 
L 2419 1625 
L 2419 4116 
z
M 2253 4666 
L 3047 4666 
L 3047 1625 
L 3713 1625 
L 3713 1100 
L 3047 1100 
L 3047 0 
L 2419 0 
L 2419 1100 
L 313 1100 
L 313 1709 
L 2253 4666 
z
" transform="scale(0.015625)"/>
       </defs>
       <use xlink:href="#DejaVuSans-34"/>
       <use xlink:href="#DejaVuSans-30" transform="translate(63.623047 0)"/>
       <use xlink:href="#DejaVuSans-30" transform="translate(127.246094 0)"/>
      </g>
     </g>
    </g>
    <g id="xtick_4">
     <g id="line2d_4">
      <g>
       <use xlink:href="#m97c71aeabe" x="172.942305" y="188.6" style="stroke: #000000; stroke-width: 0.8"/>
      </g>
     </g>
     <g id="text_4">
      <!-- 600 -->
      <g transform="translate(163.398555 203.198437) scale(0.1 -0.1)">
       <defs>
        <path id="DejaVuSans-36" d="M 2113 2584 
Q 1688 2584 1439 2293 
Q 1191 2003 1191 1497 
Q 1191 994 1439 701 
Q 1688 409 2113 409 
Q 2538 409 2786 701 
Q 3034 994 3034 1497 
Q 3034 2003 2786 2293 
Q 2538 2584 2113 2584 
z
M 3366 4563 
L 3366 3988 
Q 3128 4100 2886 4159 
Q 2644 4219 2406 4219 
Q 1781 4219 1451 3797 
Q 1122 3375 1075 2522 
Q 1259 2794 1537 2939 
Q 1816 3084 2150 3084 
Q 2853 3084 3261 2657 
Q 3669 2231 3669 1497 
Q 3669 778 3244 343 
Q 2819 -91 2113 -91 
Q 1303 -91 875 529 
Q 447 1150 447 2328 
Q 447 3434 972 4092 
Q 1497 4750 2381 4750 
Q 2619 4750 2861 4703 
Q 3103 4656 3366 4563 
z
" transform="scale(0.015625)"/>
       </defs>
       <use xlink:href="#DejaVuSans-36"/>
       <use xlink:href="#DejaVuSans-30" transform="translate(63.623047 0)"/>
       <use xlink:href="#DejaVuSans-30" transform="translate(127.246094 0)"/>
      </g>
     </g>
    </g>
    <g id="xtick_5">
     <g id="line2d_5">
      <g>
       <use xlink:href="#m97c71aeabe" x="215.876914" y="188.6" style="stroke: #000000; stroke-width: 0.8"/>
      </g>
     </g>
     <g id="text_5">
      <!-- 800 -->
      <g transform="translate(206.333164 203.198437) scale(0.1 -0.1)">
       <defs>
        <path id="DejaVuSans-38" d="M 2034 2216 
Q 1584 2216 1326 1975 
Q 1069 1734 1069 1313 
Q 1069 891 1326 650 
Q 1584 409 2034 409 
Q 2484 409 2743 651 
Q 3003 894 3003 1313 
Q 3003 1734 2745 1975 
Q 2488 2216 2034 2216 
z
M 1403 2484 
Q 997 2584 770 2862 
Q 544 3141 544 3541 
Q 544 4100 942 4425 
Q 1341 4750 2034 4750 
Q 2731 4750 3128 4425 
Q 3525 4100 3525 3541 
Q 3525 3141 3298 2862 
Q 3072 2584 2669 2484 
Q 3125 2378 3379 2068 
Q 3634 1759 3634 1313 
Q 3634 634 3220 271 
Q 2806 -91 2034 -91 
Q 1263 -91 848 271 
Q 434 634 434 1313 
Q 434 1759 690 2068 
Q 947 2378 1403 2484 
z
M 1172 3481 
Q 1172 3119 1398 2916 
Q 1625 2713 2034 2713 
Q 2441 2713 2670 2916 
Q 2900 3119 2900 3481 
Q 2900 3844 2670 4047 
Q 2441 4250 2034 4250 
Q 1625 4250 1398 4047 
Q 1172 3844 1172 3481 
z
" transform="scale(0.015625)"/>
       </defs>
       <use xlink:href="#DejaVuSans-38"/>
       <use xlink:href="#DejaVuSans-30" transform="translate(63.623047 0)"/>
       <use xlink:href="#DejaVuSans-30" transform="translate(127.246094 0)"/>
      </g>
     </g>
    </g>
    <g id="xtick_6">
     <g id="line2d_6">
      <g>
       <use xlink:href="#m97c71aeabe" x="258.811523" y="188.6" style="stroke: #000000; stroke-width: 0.8"/>
      </g>
     </g>
     <g id="text_6">
      <!-- 1000 -->
      <g transform="translate(246.086523 203.198437) scale(0.1 -0.1)">
       <defs>
        <path id="DejaVuSans-31" d="M 794 531 
L 1825 531 
L 1825 4091 
L 703 3866 
L 703 4441 
L 1819 4666 
L 2450 4666 
L 2450 531 
L 3481 531 
L 3481 0 
L 794 0 
L 794 531 
z
" transform="scale(0.015625)"/>
       </defs>
       <use xlink:href="#DejaVuSans-31"/>
       <use xlink:href="#DejaVuSans-30" transform="translate(63.623047 0)"/>
       <use xlink:href="#DejaVuSans-30" transform="translate(127.246094 0)"/>
       <use xlink:href="#DejaVuSans-30" transform="translate(190.869141 0)"/>
      </g>
     </g>
    </g>
    <g id="text_7">
     <!-- q (nm) -->
     <g transform="translate(134.771094 216.876563) scale(0.1 -0.1)">
      <defs>
       <path id="DejaVuSans-71" d="M 947 1747 
Q 947 1113 1208 752 
Q 1469 391 1925 391 
Q 2381 391 2643 752 
Q 2906 1113 2906 1747 
Q 2906 2381 2643 2742 
Q 2381 3103 1925 3103 
Q 1469 3103 1208 2742 
Q 947 2381 947 1747 
z
M 2906 525 
Q 2725 213 2448 61 
Q 2172 -91 1784 -91 
Q 1150 -91 751 415 
Q 353 922 353 1747 
Q 353 2572 751 3078 
Q 1150 3584 1784 3584 
Q 2172 3584 2448 3432 
Q 2725 3281 2906 2969 
L 2906 3500 
L 3481 3500 
L 3481 -1331 
L 2906 -1331 
L 2906 525 
z
" transform="scale(0.015625)"/>
       <path id="DejaVuSans-20" transform="scale(0.015625)"/>
       <path id="DejaVuSans-28" d="M 1984 4856 
Q 1566 4138 1362 3434 
Q 1159 2731 1159 2009 
Q 1159 1288 1364 580 
Q 1569 -128 1984 -844 
L 1484 -844 
Q 1016 -109 783 600 
Q 550 1309 550 2009 
Q 550 2706 781 3412 
Q 1013 4119 1484 4856 
L 1984 4856 
z
" transform="scale(0.015625)"/>
       <path id="DejaVuSans-6e" d="M 3513 2113 
L 3513 0 
L 2938 0 
L 2938 2094 
Q 2938 2591 2744 2837 
Q 2550 3084 2163 3084 
Q 1697 3084 1428 2787 
Q 1159 2491 1159 1978 
L 1159 0 
L 581 0 
L 581 3500 
L 1159 3500 
L 1159 2956 
Q 1366 3272 1645 3428 
Q 1925 3584 2291 3584 
Q 2894 3584 3203 3211 
Q 3513 2838 3513 2113 
z
" transform="scale(0.015625)"/>
       <path id="DejaVuSans-6d" d="M 3328 2828 
Q 3544 3216 3844 3400 
Q 4144 3584 4550 3584 
Q 5097 3584 5394 3201 
Q 5691 2819 5691 2113 
L 5691 0 
L 5113 0 
L 5113 2094 
Q 5113 2597 4934 2840 
Q 4756 3084 4391 3084 
Q 3944 3084 3684 2787 
Q 3425 2491 3425 1978 
L 3425 0 
L 2847 0 
L 2847 2094 
Q 2847 2600 2669 2842 
Q 2491 3084 2119 3084 
Q 1678 3084 1418 2786 
Q 1159 2488 1159 1978 
L 1159 0 
L 581 0 
L 581 3500 
L 1159 3500 
L 1159 2956 
Q 1356 3278 1631 3431 
Q 1906 3584 2284 3584 
Q 2666 3584 2933 3390 
Q 3200 3197 3328 2828 
z
" transform="scale(0.015625)"/>
       <path id="DejaVuSans-29" d="M 513 4856 
L 1013 4856 
Q 1481 4119 1714 3412 
Q 1947 2706 1947 2009 
Q 1947 1309 1714 600 
Q 1481 -109 1013 -844 
L 513 -844 
Q 928 -128 1133 580 
Q 1338 1288 1338 2009 
Q 1338 2731 1133 3434 
Q 928 4138 513 4856 
z
" transform="scale(0.015625)"/>
      </defs>
      <use xlink:href="#DejaVuSans-71"/>
      <use xlink:href="#DejaVuSans-20" transform="translate(63.476562 0)"/>
      <use xlink:href="#DejaVuSans-28" transform="translate(95.263672 0)"/>
      <use xlink:href="#DejaVuSans-6e" transform="translate(134.277344 0)"/>
      <use xlink:href="#DejaVuSans-6d" transform="translate(197.65625 0)"/>
      <use xlink:href="#DejaVuSans-29" transform="translate(295.068359 0)"/>
     </g>
    </g>
   </g>
   <g id="matplotlib.axis_2">
    <g id="ytick_1">
     <g id="line2d_7">
      <defs>
       <path id="md9f1de60c1" d="M 0 0 
L -3.5 0 
" style="stroke: #000000; stroke-width: 0.8"/>
      </defs>
      <g>
       <use xlink:href="#md9f1de60c1" x="33.7" y="180.687273" style="stroke: #000000; stroke-width: 0.8"/>
      </g>
     </g>
     <g id="text_8">
      <!-- 0 -->
      <g transform="translate(20.3375 184.486491) scale(0.1 -0.1)">
       <use xlink:href="#DejaVuSans-30"/>
      </g>
     </g>
    </g>
    <g id="ytick_2">
     <g id="line2d_8">
      <g>
       <use xlink:href="#md9f1de60c1" x="33.7" y="150.06098" style="stroke: #000000; stroke-width: 0.8"/>
      </g>
     </g>
     <g id="text_9">
      <!-- 200 -->
      <g transform="translate(7.6125 153.860199) scale(0.1 -0.1)">
       <use xlink:href="#DejaVuSans-32"/>
       <use xlink:href="#DejaVuSans-30" transform="translate(63.623047 0)"/>
       <use xlink:href="#DejaVuSans-30" transform="translate(127.246094 0)"/>
      </g>
     </g>
    </g>
    <g id="ytick_3">
     <g id="line2d_9">
      <g>
       <use xlink:href="#md9f1de60c1" x="33.7" y="119.434687" style="stroke: #000000; stroke-width: 0.8"/>
      </g>
     </g>
     <g id="text_10">
      <!-- 400 -->
      <g transform="translate(7.6125 123.233906) scale(0.1 -0.1)">
       <use xlink:href="#DejaVuSans-34"/>
       <use xlink:href="#DejaVuSans-30" transform="translate(63.623047 0)"/>
       <use xlink:href="#DejaVuSans-30" transform="translate(127.246094 0)"/>
      </g>
     </g>
    </g>
    <g id="ytick_4">
     <g id="line2d_10">
      <g>
       <use xlink:href="#md9f1de60c1" x="33.7" y="88.808394" style="stroke: #000000; stroke-width: 0.8"/>
      </g>
     </g>
     <g id="text_11">
      <!-- 600 -->
      <g transform="translate(7.6125 92.607613) scale(0.1 -0.1)">
       <use xlink:href="#DejaVuSans-36"/>
       <use xlink:href="#DejaVuSans-30" transform="translate(63.623047 0)"/>
       <use xlink:href="#DejaVuSans-30" transform="translate(127.246094 0)"/>
      </g>
     </g>
    </g>
    <g id="ytick_5">
     <g id="line2d_11">
      <g>
       <use xlink:href="#md9f1de60c1" x="33.7" y="58.182101" style="stroke: #000000; stroke-width: 0.8"/>
      </g>
     </g>
     <g id="text_12">
      <!-- 800 -->
      <g transform="translate(7.6125 61.98132) scale(0.1 -0.1)">
       <use xlink:href="#DejaVuSans-38"/>
       <use xlink:href="#DejaVuSans-30" transform="translate(63.623047 0)"/>
       <use xlink:href="#DejaVuSans-30" transform="translate(127.246094 0)"/>
      </g>
     </g>
    </g>
    <g id="ytick_6">
     <g id="line2d_12">
      <g>
       <use xlink:href="#md9f1de60c1" x="33.7" y="27.555808" style="stroke: #000000; stroke-width: 0.8"/>
      </g>
     </g>
     <g id="text_13">
      <!-- 1000 -->
      <g transform="translate(1.25 31.355027) scale(0.1 -0.1)">
       <use xlink:href="#DejaVuSans-31"/>
       <use xlink:href="#DejaVuSans-30" transform="translate(63.623047 0)"/>
       <use xlink:href="#DejaVuSans-30" transform="translate(127.246094 0)"/>
       <use xlink:href="#DejaVuSans-30" transform="translate(190.869141 0)"/>
      </g>
     </g>
    </g>
    <g id="text_14">
     <!-- rdf -->
     <g transform="translate(-4.829688 108.462344) rotate(-90) scale(0.1 -0.1)">
      <defs>
       <path id="DejaVuSans-72" d="M 2631 2963 
Q 2534 3019 2420 3045 
Q 2306 3072 2169 3072 
Q 1681 3072 1420 2755 
Q 1159 2438 1159 1844 
L 1159 0 
L 581 0 
L 581 3500 
L 1159 3500 
L 1159 2956 
Q 1341 3275 1631 3429 
Q 1922 3584 2338 3584 
Q 2397 3584 2469 3576 
Q 2541 3569 2628 3553 
L 2631 2963 
z
" transform="scale(0.015625)"/>
       <path id="DejaVuSans-64" d="M 2906 2969 
L 2906 4863 
L 3481 4863 
L 3481 0 
L 2906 0 
L 2906 525 
Q 2725 213 2448 61 
Q 2172 -91 1784 -91 
Q 1150 -91 751 415 
Q 353 922 353 1747 
Q 353 2572 751 3078 
Q 1150 3584 1784 3584 
Q 2172 3584 2448 3432 
Q 2725 3281 2906 2969 
z
M 947 1747 
Q 947 1113 1208 752 
Q 1469 391 1925 391 
Q 2381 391 2643 752 
Q 2906 1113 2906 1747 
Q 2906 2381 2643 2742 
Q 2381 3103 1925 3103 
Q 1469 3103 1208 2742 
Q 947 2381 947 1747 
z
" transform="scale(0.015625)"/>
       <path id="DejaVuSans-66" d="M 2375 4863 
L 2375 4384 
L 1825 4384 
Q 1516 4384 1395 4259 
Q 1275 4134 1275 3809 
L 1275 3500 
L 2222 3500 
L 2222 3053 
L 1275 3053 
L 1275 0 
L 697 0 
L 697 3053 
L 147 3053 
L 147 3500 
L 697 3500 
L 697 3744 
Q 697 4328 969 4595 
Q 1241 4863 1831 4863 
L 2375 4863 
z
" transform="scale(0.015625)"/>
      </defs>
      <use xlink:href="#DejaVuSans-72"/>
      <use xlink:href="#DejaVuSans-64" transform="translate(39.363281 0)"/>
      <use xlink:href="#DejaVuSans-66" transform="translate(102.839844 0)"/>
     </g>
    </g>
   </g>
   <g id="line2d_13">
    <path d="M 44.406818 180.687273 
L 95.391667 180.687273 
L 95.928349 22.432727 
L 96.465032 126.428488 
L 97.001715 127.524634 
L 97.538397 113.702281 
L 98.07508 158.801079 
L 98.611762 166.382566 
L 99.148445 152.633355 
L 99.685128 166.930038 
L 100.22181 173.939681 
L 100.758493 160.826449 
L 101.295175 141.708095 
L 101.831858 180.687273 
L 102.368541 149.391034 
L 102.905223 174.541828 
L 103.441906 144.478888 
L 103.978589 151.052488 
L 104.515271 151.576964 
L 105.051954 163.527496 
L 105.588636 152.585079 
L 106.125319 164.11663 
L 106.662002 169.829014 
L 107.198684 164.675915 
L 107.735367 154.450158 
L 108.272049 170.367343 
L 108.808732 155.313904 
L 109.345415 165.712835 
L 109.882097 165.956324 
L 110.41878 151.700552 
L 110.955463 175.933443 
L 111.492145 157.295406 
L 112.028828 143.849622 
L 112.56551 158.023517 
L 113.102193 167.299835 
L 114.175558 159.053563 
L 114.712241 159.381362 
L 115.248923 163.898813 
L 115.785606 164.149404 
L 116.322289 160.321136 
L 116.858971 148.580666 
L 117.395654 164.868332 
L 117.932337 165.097563 
L 118.469019 169.163253 
L 119.005702 165.541412 
L 119.542384 165.756228 
L 120.079067 151.245772 
L 120.61575 144.40006 
L 121.152432 169.952296 
L 121.689115 145.39763 
L 122.225797 152.842336 
L 122.76248 153.221153 
L 123.299163 160.366029 
L 123.835845 147.273144 
L 124.372528 160.906088 
L 124.909211 167.67448 
L 125.445893 155.004183 
L 125.982576 161.676723 
L 126.519258 149.414517 
L 127.055941 149.818043 
L 127.592624 165.450506 
L 128.129306 147.593429 
L 128.665989 168.805457 
L 129.202671 168.954921 
L 129.739354 154.61948 
L 130.812719 155.261106 
L 131.349402 166.734959 
L 131.886085 155.879391 
L 132.422767 156.180051 
L 132.95945 164.545933 
L 133.496132 151.449255 
L 134.032815 164.929172 
L 134.569498 167.710892 
L 135.642863 168.013546 
L 136.179545 145.613461 
L 136.716228 170.782027 
L 137.252911 143.969445 
L 138.326276 173.510159 
L 138.862959 157.033845 
L 139.936324 162.186155 
L 140.473006 166.965636 
L 141.009689 167.117255 
L 141.546372 156.082344 
L 142.083054 151.926438 
L 142.619737 171.933987 
L 143.156419 165.534612 
L 143.693102 157.131989 
L 144.229785 165.857867 
L 144.766467 163.919654 
L 145.30315 164.097099 
L 145.839833 156.063992 
L 146.376515 162.413195 
L 146.913198 148.538378 
L 147.44988 166.767881 
L 147.986563 166.911375 
L 148.523246 165.10484 
L 149.059928 151.768357 
L 149.596611 157.787041 
L 150.133293 150.462067 
L 150.669976 161.986352 
L 151.206659 154.767803 
L 151.743341 171.52243 
L 152.280024 151.650123 
L 152.816707 162.717875 
L 153.353389 152.218048 
L 153.890072 161.305662 
L 154.426754 163.238691 
L 154.963437 154.767209 
L 155.50012 161.8621 
L 156.036802 163.737194 
L 156.573485 160.540947 
L 157.110167 172.372534 
L 157.64685 159.272802 
L 158.183533 156.210415 
L 158.720215 159.672241 
L 159.256898 158.266227 
L 159.793581 158.473808 
L 160.330263 166.538765 
L 160.866946 172.899119 
L 161.403628 166.796599 
L 161.940311 165.393511 
L 162.476994 156.438582 
L 163.013676 159.660876 
L 163.550359 149.430609 
L 164.087041 158.560433 
L 164.623724 161.681101 
L 165.160407 166.196544 
L 165.697089 167.760486 
L 166.233772 149.365598 
L 166.770455 165.163299 
L 167.307137 163.899274 
L 168.380502 164.188081 
L 168.917185 158.87715 
L 169.99055 169.967403 
L 170.527233 158.100667 
L 171.063915 158.291193 
L 171.600598 161.092117 
L 172.137281 158.665262 
L 172.673963 157.564221 
L 173.210646 166.673774 
L 173.747329 164.262744 
L 174.284011 169.410047 
L 174.820694 159.56047 
L 175.357376 158.500321 
L 175.894059 159.903256 
L 176.430742 167.347702 
L 176.967424 162.643607 
L 177.504107 160.402029 
L 178.040789 164.115424 
L 178.577472 164.247474 
L 179.114155 151.563456 
L 179.650837 156.416599 
L 180.18752 166.927531 
L 180.724203 164.760194 
L 181.260885 159.240799 
L 181.797568 162.767628 
L 182.33425 151.793579 
L 182.870933 155.324818 
L 183.407616 167.556514 
L 183.944298 164.399606 
L 184.480981 162.368789 
L 185.017663 152.883939 
L 185.554346 160.523376 
L 186.627711 171.279262 
L 187.164394 169.274761 
L 187.701077 159.062262 
L 188.237759 165.355658 
L 188.774442 161.411081 
L 189.311124 154.504017 
L 189.847807 163.69335 
L 190.38449 159.84858 
L 190.921172 162.955901 
L 191.457855 161.128984 
L 191.994537 165.154087 
L 192.53122 156.591938 
L 193.067903 169.20469 
L 193.604585 158.836804 
L 194.141268 162.765767 
L 194.677951 161.95681 
L 195.214633 165.809226 
L 195.751316 165.914325 
L 196.287998 162.3511 
L 196.824681 161.569386 
L 197.361364 155.374999 
L 197.898046 154.653662 
L 198.434729 158.400502 
L 198.971411 164.751793 
L 199.508094 169.257721 
L 200.044777 164.970512 
L 200.581459 172.015519 
L 201.118142 161.739667 
L 201.654825 166.145502 
L 202.191507 161.146506 
L 203.264872 168.114642 
L 203.801555 160.706047 
L 204.338238 162.493657 
L 204.87492 156.864663 
L 205.411603 160.286994 
L 205.948285 153.126602 
L 206.484968 162.166453 
L 207.021651 157.488477 
L 207.558333 171.945441 
L 208.095016 157.791228 
L 208.631699 162.646686 
L 209.168381 158.867406 
L 209.705064 161.331382 
L 210.241746 166.071659 
L 210.778429 151.644001 
L 211.315112 163.980539 
L 211.851794 158.805512 
L 212.388477 158.195189 
L 212.925159 165.787679 
L 213.461842 166.622264 
L 213.998525 165.975411 
L 214.535207 162.413083 
L 215.07189 168.338777 
L 215.608573 158.310185 
L 216.145255 164.188331 
L 216.681938 165.003723 
L 217.21862 163.683849 
L 218.291986 163.892835 
L 218.828668 166.082251 
L 219.365351 162.715539 
L 219.902033 157.329039 
L 220.438716 169.079136 
L 221.512081 163.822389 
L 222.048764 159.900971 
L 222.585447 162.025205 
L 223.122129 163.46195 
L 223.658812 167.516239 
L 224.195494 163.012199 
L 224.732177 167.67227 
L 225.26886 165.161656 
L 226.342225 161.508252 
L 226.878907 155.265284 
L 227.41559 164.25966 
L 227.952273 161.842803 
L 228.488955 168.821792 
L 229.025638 161.44007 
L 230.099003 167.185122 
L 230.635686 164.821942 
L 231.172368 166.126373 
L 231.709051 163.193264 
L 232.245734 156.09545 
L 232.782416 165.777336 
L 233.319099 162.303787 
L 233.855781 163.58699 
L 234.392464 167.787751 
L 234.929147 166.111029 
L 235.465829 162.713932 
L 236.539195 159.47399 
L 237.075877 160.732044 
L 237.61256 160.842691 
L 238.149242 155.313719 
L 238.685925 163.304129 
L 239.222608 157.265288 
L 240.295973 163.588193 
L 240.832656 163.68146 
L 241.369338 165.410603 
L 241.906021 162.237614 
L 242.442703 166.115308 
L 243.516069 163.068273 
L 244.052751 165.286968 
L 244.589434 164.312939 
L 245.126116 167.027146 
L 245.662799 161.873932 
L 246.199482 163.533155 
L 246.736164 163.623837 
L 247.272847 163.199663 
L 247.80953 158.175244 
L 248.346212 166.436724 
L 248.882895 164.992377 
L 249.419577 167.088958 
L 249.95626 168.161814 
L 250.492943 158.756981 
L 251.029625 165.812342 
L 251.566308 167.368955 
L 252.10299 159.095201 
L 252.639673 165.064653 
L 253.176356 166.116194 
L 253.713038 155.55992 
L 254.249721 165.783965 
L 254.786404 162.511674 
L 255.323086 165.459231 
L 255.859769 169.797528 
L 256.396451 168.439304 
L 256.933134 168.032268 
L 257.469817 165.764086 
L 258.006499 163.982884 
L 258.543182 164.528138 
L 258.543182 164.528138 
" clip-path="url(#pde6dea740e)" style="fill: none; stroke: #000000; stroke-opacity: 0.5; stroke-width: 0.5; stroke-linecap: square"/>
   </g>
   <g id="line2d_14">
    <path d="M 44.406818 180.687273 
L 95.391667 180.687273 
L 95.928349 132.221814 
L 96.465032 156.949052 
L 97.001715 157.428616 
L 97.538397 112.306751 
L 98.07508 158.345115 
L 100.758493 160.412679 
L 101.295175 180.687273 
L 101.831858 180.687273 
L 102.368541 161.518324 
L 102.905223 180.687273 
L 103.441906 125.243177 
L 103.978589 144.384657 
L 104.515271 145.027143 
L 105.051954 180.687273 
L 105.588636 180.687273 
L 106.125319 129.939675 
L 106.662002 164.060563 
L 107.198684 147.997411 
L 107.735367 148.546802 
L 108.272049 164.884878 
L 111.492145 166.359752 
L 112.028828 138.381528 
L 112.56551 166.805721 
L 113.102193 180.687273 
L 113.638876 180.687273 
L 114.175558 154.185975 
L 114.712241 167.637402 
L 115.785606 142.701851 
L 116.322289 168.213013 
L 116.858971 119.233207 
L 117.395654 156.464516 
L 117.932337 132.943781 
L 118.469019 168.923168 
L 119.005702 157.495169 
L 119.542384 169.255691 
L 120.079067 146.875546 
L 120.61575 147.348392 
L 121.152432 180.687273 
L 121.689115 148.26491 
L 122.76248 149.144147 
L 123.299163 159.942668 
L 123.835845 129.521881 
L 124.372528 170.590625 
L 124.909211 180.687273 
L 125.445893 151.191846 
L 126.519258 171.10999 
L 127.592624 171.354752 
L 128.129306 153.046389 
L 128.665989 180.687273 
L 129.739354 162.94669 
L 130.276037 145.646851 
L 130.812719 137.427466 
L 131.349402 180.687273 
L 131.886085 138.479413 
L 132.422767 172.348009 
L 132.95945 164.209653 
L 133.496132 115.56623 
L 134.032815 164.600875 
L 135.10618 164.978245 
L 135.642863 157.399296 
L 136.179545 157.67008 
L 136.716228 180.687273 
L 137.252911 150.701045 
L 137.789593 158.45473 
L 138.326276 173.360635 
L 138.862959 158.955683 
L 140.473006 159.676015 
L 141.009689 173.760909 
L 141.546372 160.136563 
L 142.083054 167.136493 
L 142.619737 180.687273 
L 143.156419 154.170112 
L 143.693102 161.013256 
L 144.229785 161.223675 
L 144.766467 167.849563 
L 145.30315 161.634493 
L 145.839833 168.119138 
L 147.986563 168.633361 
L 149.059928 145.261597 
L 149.596611 139.77696 
L 150.133293 151.760801 
L 150.669976 146.324328 
L 151.206659 135.328194 
L 151.743341 169.460339 
L 152.280024 147.339917 
L 152.816707 158.674758 
L 153.353389 153.441331 
L 153.890072 169.895238 
L 154.426754 164.656387 
L 154.963437 143.643179 
L 155.50012 170.205073 
L 156.036802 170.305348 
L 157.110167 160.316159 
L 157.64685 160.508251 
L 158.183533 155.700478 
L 158.720215 141.082017 
L 159.256898 161.068853 
L 159.793581 170.968881 
L 160.330263 175.872849 
L 160.866946 175.917028 
L 161.403628 166.507207 
L 161.940311 161.952413 
L 162.476994 166.763218 
L 163.013676 148.4906 
L 163.550359 153.337689 
L 164.087041 149.064331 
L 164.623724 153.822776 
L 165.160407 171.811701 
L 165.697089 163.092478 
L 166.233772 158.886674 
L 166.770455 163.39921 
L 167.307137 163.549522 
L 167.84382 159.450502 
L 168.380502 168.055077 
L 168.917185 155.639708 
L 169.453868 176.548363 
L 169.99055 176.583572 
L 170.527233 148.135983 
L 171.063915 148.410564 
L 171.600598 168.685239 
L 172.137281 168.78567 
L 172.673963 153.148358 
L 173.210646 172.884301 
L 173.747329 169.079552 
L 174.284011 169.175103 
L 174.820694 157.851679 
L 175.357376 154.263228 
L 175.894059 165.710552 
L 176.430742 165.83184 
L 176.967424 154.899867 
L 177.504107 155.106981 
L 178.040789 158.936719 
L 178.577472 166.302446 
L 179.114155 152.145926 
L 179.650837 162.989903 
L 180.18752 170.152469 
L 180.724203 156.29893 
L 181.260885 163.403105 
L 181.797568 163.53761 
L 182.33425 146.65383 
L 183.407616 173.985113 
L 183.944298 164.060277 
L 184.480981 157.587124 
L 185.017663 167.587624 
L 185.554346 154.686456 
L 186.091029 167.784918 
L 186.627711 171.08326 
L 187.164394 177.509925 
L 187.701077 142.843501 
L 188.237759 165.036247 
L 188.774442 149.617089 
L 189.311124 159.098673 
L 189.847807 156.196026 
L 190.921172 162.586495 
L 191.457855 156.728367 
L 191.994537 171.767826 
L 192.53122 160.025521 
L 193.067903 166.035016 
L 193.604585 157.411769 
L 194.141268 160.466625 
L 195.214633 160.753012 
L 195.751316 172.204368 
L 196.287998 163.840912 
L 196.824681 166.747144 
L 197.361364 158.539032 
L 197.898046 144.947159 
L 198.434729 153.385972 
L 198.971411 158.997312 
L 199.508094 167.224579 
L 200.044777 167.31711 
L 200.581459 178.031548 
L 201.118142 164.861713 
L 201.654825 159.730014 
L 202.191507 167.677793 
L 202.72819 167.765734 
L 203.264872 170.419623 
L 204.338238 155.36093 
L 204.87492 153.014023 
L 205.411603 153.197892 
L 205.948285 155.8624 
L 206.484968 163.424658 
L 207.021651 153.738668 
L 207.558333 170.952051 
L 208.095016 142.000845 
L 208.631699 171.078698 
L 209.168381 156.821789 
L 209.705064 164.089594 
L 210.241746 161.84082 
L 211.315112 162.082045 
L 211.851794 159.890164 
L 212.388477 153.13447 
L 212.925159 169.27977 
L 213.461842 171.619042 
L 213.998525 167.170748 
L 214.535207 158.301385 
L 215.07189 162.890909 
L 215.608573 149.738316 
L 216.145255 165.30918 
L 216.681938 158.855055 
L 217.21862 161.1599 
L 218.291986 157.113827 
L 218.828668 161.518178 
L 219.365351 163.752368 
L 219.902033 159.647683 
L 220.438716 172.322585 
L 220.975399 161.980872 
L 221.512081 162.093734 
L 222.048764 149.884987 
L 222.585447 158.23447 
L 223.658812 170.603198 
L 224.195494 168.658402 
L 224.732177 160.758048 
L 225.26886 170.781603 
L 225.805542 160.99293 
L 226.342225 165.024405 
L 226.878907 155.384446 
L 227.41559 165.207405 
L 227.952273 151.831675 
L 228.488955 171.12463 
L 229.025638 163.574334 
L 229.562321 161.782821 
L 230.099003 169.409907 
L 230.635686 161.999741 
L 231.172368 167.68105 
L 231.709051 165.907849 
L 232.245734 151.297039 
L 232.782416 171.554935 
L 233.319099 164.342276 
L 233.855781 169.852178 
L 234.392464 171.708911 
L 234.929147 169.973732 
L 235.465829 161.155758 
L 236.002512 163.030584 
L 236.539195 166.640639 
L 237.075877 154.49603 
L 237.61256 159.850461 
L 238.149242 149.604667 
L 238.685925 161.797122 
L 239.222608 158.48518 
L 239.75929 162.003752 
L 240.295973 155.348915 
L 240.832656 170.607213 
L 241.369338 162.307527 
L 241.906021 162.407185 
L 242.442703 169.117402 
L 242.979386 164.247955 
L 243.516069 172.511788 
L 244.052751 164.424017 
L 244.589434 170.981518 
L 245.662799 167.883748 
L 246.199482 161.58382 
L 246.736164 168.018962 
L 247.80953 150.916391 
L 248.346212 166.659385 
L 248.882895 165.182233 
L 249.419577 169.890461 
L 249.95626 165.343582 
L 250.492943 153.212101 
L 251.029625 159.428515 
L 251.566308 171.623416 
L 252.10299 161.150126 
L 252.639673 168.726203 
L 253.176356 165.812628 
L 253.713038 155.529717 
L 254.249721 173.325759 
L 254.786404 164.574363 
L 255.323086 167.570931 
L 255.859769 171.987312 
L 256.396451 167.703246 
L 256.933134 167.76862 
L 257.469817 162.120728 
L 258.006499 160.792809 
L 258.543182 163.72018 
L 258.543182 163.72018 
" clip-path="url(#pde6dea740e)" style="fill: none; stroke: #0000ff; stroke-opacity: 0.5; stroke-linecap: square"/>
   </g>
   <g id="line2d_15">
    <path d="M 44.406818 180.687273 
L 100.22181 180.687273 
L 100.758493 144.643557 
L 101.295175 180.687273 
L 101.831858 180.687273 
L 102.368541 112.531018 
L 102.905223 180.687273 
L 103.441906 147.831515 
L 105.051954 149.545453 
L 105.588636 180.687273 
L 106.662002 180.687273 
L 107.198684 151.629622 
L 107.735367 180.687273 
L 108.272049 180.687273 
L 108.808732 125.429717 
L 109.345415 126.335608 
L 109.882097 180.687273 
L 110.955463 180.687273 
L 111.492145 155.216129 
L 114.175558 157.130569 
L 114.712241 180.687273 
L 115.248923 157.836313 
L 115.785606 158.177396 
L 116.322289 180.687273 
L 118.469019 180.687273 
L 119.005702 160.072073 
L 119.542384 119.718846 
L 120.079067 160.650697 
L 120.61575 101.661782 
L 121.152432 180.687273 
L 121.689115 142.260773 
L 122.225797 161.737246 
L 122.76248 124.610613 
L 123.299163 180.687273 
L 124.372528 144.788085 
L 125.445893 145.729733 
L 125.982576 163.436958 
L 127.055941 130.267532 
L 127.592624 164.096127 
L 128.129306 147.92771 
L 129.202671 148.749205 
L 129.739354 133.379057 
L 130.812719 165.306011 
L 131.349402 165.494754 
L 131.886085 180.687273 
L 132.422767 136.211209 
L 132.95945 180.687273 
L 133.496132 137.27325 
L 134.032815 166.388254 
L 134.569498 180.687273 
L 135.10618 180.687273 
L 135.642863 153.086712 
L 136.179545 112.488193 
L 136.716228 153.722992 
L 137.252911 154.032851 
L 137.789593 167.512434 
L 138.326276 154.637009 
L 138.862959 180.687273 
L 139.399641 167.954003 
L 139.936324 180.687273 
L 140.473006 180.687273 
L 141.546372 156.330879 
L 142.083054 156.597001 
L 143.156419 180.687273 
L 143.693102 145.711248 
L 144.229785 180.687273 
L 144.766467 169.275977 
L 145.30315 146.815668 
L 145.839833 136.000574 
L 146.376515 147.523207 
L 146.913198 125.989502 
L 147.44988 169.861078 
L 148.523246 170.082562 
L 149.059928 138.701292 
L 149.596611 180.687273 
L 150.133293 149.832376 
L 150.669976 170.50566 
L 151.206659 150.447891 
L 151.743341 170.707777 
L 152.816707 151.337257 
L 153.353389 161.312383 
L 153.890072 151.908518 
L 154.426754 161.687706 
L 154.963437 133.647159 
L 155.50012 134.099726 
L 156.036802 143.773767 
L 157.110167 180.687273 
L 157.64685 144.813458 
L 158.183533 171.80308 
L 158.720215 171.886106 
L 159.256898 180.687273 
L 159.793581 154.771565 
L 160.330263 163.569325 
L 160.866946 180.687273 
L 161.403628 163.881271 
L 161.940311 172.360669 
L 162.476994 139.430821 
L 163.013676 180.687273 
L 163.550359 156.376534 
L 164.087041 148.562382 
L 164.623724 164.767574 
L 165.160407 157.019085 
L 165.697089 172.867365 
L 166.233772 126.428011 
L 166.770455 157.636527 
L 167.307137 165.453718 
L 167.84382 165.585572 
L 168.380502 150.744293 
L 168.917185 158.422774 
L 169.453868 151.25503 
L 169.99055 173.391807 
L 170.527233 166.220035 
L 171.063915 137.651667 
L 171.600598 152.238012 
L 172.137281 138.370466 
L 172.673963 166.699253 
L 173.210646 159.87935 
L 173.747329 160.051329 
L 174.284011 173.865247 
L 174.820694 153.622868 
L 175.357376 167.265537 
L 175.894059 160.718314 
L 176.967424 161.039727 
L 177.504107 180.687273 
L 178.040789 174.242665 
L 178.577472 161.507508 
L 179.114155 142.632153 
L 179.650837 180.687273 
L 180.18752 161.958736 
L 182.33425 162.536107 
L 182.870933 150.66891 
L 183.407616 180.687273 
L 183.944298 151.128173 
L 184.480981 151.353751 
L 185.017663 145.754884 
L 185.554346 157.575439 
L 186.091029 180.687273 
L 186.627711 180.687273 
L 187.164394 163.741423 
L 188.237759 163.992848 
L 188.774442 175.163685 
L 189.311124 153.273182 
L 189.847807 175.244774 
L 190.38449 148.271529 
L 191.457855 170.038872 
L 191.994537 159.544882 
L 192.53122 154.450128 
L 193.067903 159.848512 
L 193.604585 154.825603 
L 194.141268 175.551871 
L 195.214633 155.373929 
L 195.751316 165.606555 
L 196.287998 165.712732 
L 196.824681 155.904825 
L 197.361364 165.921781 
L 197.898046 170.9122 
L 198.971411 171.047291 
L 199.508094 156.753598 
L 200.044777 137.902758 
L 200.581459 171.244697 
L 201.118142 157.242001 
L 202.191507 176.061681 
L 202.72819 176.092949 
L 203.264872 166.997075 
L 203.801555 171.621716 
L 204.338238 171.682352 
L 204.87492 158.325051 
L 205.411603 162.916361 
L 205.948285 140.967481 
L 206.484968 163.15065 
L 207.021651 163.265955 
L 207.558333 172.033743 
L 208.095016 163.493308 
L 208.631699 163.605364 
L 209.168381 159.473511 
L 209.705064 159.610856 
L 210.241746 172.311073 
L 210.778429 143.236737 
L 211.851794 168.363063 
L 212.388477 176.605376 
L 212.925159 164.463271 
L 213.461842 172.626624 
L 213.998525 164.66769 
L 214.535207 160.788709 
L 215.07189 172.777778 
L 215.608573 157.107118 
L 216.145255 157.253993 
L 216.681938 169.043426 
L 217.21862 157.543724 
L 217.755303 173.020378 
L 218.291986 161.638026 
L 218.828668 169.327811 
L 219.365351 173.160649 
L 219.902033 158.24505 
L 220.438716 162.09908 
L 220.975399 173.297091 
L 221.512081 173.341678 
L 222.048764 162.434069 
L 222.585447 166.172331 
L 223.122129 155.43819 
L 223.658812 169.930929 
L 224.195494 152.174398 
L 224.732177 170.058355 
L 225.26886 170.121227 
L 225.805542 163.181194 
L 226.342225 149.361539 
L 226.878907 146.085121 
L 227.41559 156.607483 
L 227.952273 163.587662 
L 228.488955 177.287223 
L 229.025638 146.883941 
L 229.562321 160.522528 
L 230.099003 170.66295 
L 230.635686 154.109454 
L 231.172368 167.474603 
L 231.709051 174.118641 
L 232.245734 167.624949 
L 232.782416 174.193167 
L 233.319099 151.629505 
L 233.855781 164.635283 
L 234.392464 164.725743 
L 234.929147 171.164127 
L 235.465829 161.747625 
L 236.002512 164.99244 
L 236.539195 165.079903 
L 237.075877 158.958246 
L 237.61256 155.991796 
L 238.149242 162.267954 
L 238.685925 165.422506 
L 239.222608 159.433992 
L 239.75929 168.609038 
L 240.295973 174.681145 
L 240.832656 159.780486 
L 241.369338 165.834954 
L 241.906021 162.961129 
L 242.442703 174.810513 
L 242.979386 160.229457 
L 243.516069 154.525726 
L 244.052751 166.231047 
L 244.589434 160.55682 
L 245.126116 169.245458 
L 245.662799 163.615909 
L 246.199482 175.026991 
L 246.736164 163.796195 
L 247.272847 172.286363 
L 247.80953 155.617059 
L 248.346212 169.603511 
L 248.882895 161.392115 
L 249.419577 164.23499 
L 249.95626 172.503972 
L 250.492943 153.551303 
L 251.029625 169.889175 
L 252.10299 159.313302 
L 252.639673 164.739183 
L 253.176356 164.820989 
L 253.713038 149.117012 
L 254.249721 167.600139 
L 254.786404 159.854421 
L 255.323086 170.323744 
L 255.859769 167.798443 
L 256.396451 167.863545 
L 256.933134 178.13544 
L 257.469817 162.914173 
L 258.543182 163.091771 
L 258.543182 163.091771 
" clip-path="url(#pde6dea740e)" style="fill: none; stroke: #ff0000; stroke-opacity: 0.5; stroke-linecap: square"/>
   </g>
   <g id="patch_3">
    <path d="M 33.7 188.6 
L 33.7 14.52 
" style="fill: none; stroke: #000000; stroke-width: 0.8; stroke-linejoin: miter; stroke-linecap: square"/>
   </g>
   <g id="patch_4">
    <path d="M 269.25 188.6 
L 269.25 14.52 
" style="fill: none; stroke: #000000; stroke-width: 0.8; stroke-linejoin: miter; stroke-linecap: square"/>
   </g>
   <g id="patch_5">
    <path d="M 33.7 188.6 
L 269.25 188.6 
" style="fill: none; stroke: #000000; stroke-width: 0.8; stroke-linejoin: miter; stroke-linecap: square"/>
   </g>
   <g id="patch_6">
    <path d="M 33.7 14.52 
L 269.25 14.52 
" style="fill: none; stroke: #000000; stroke-width: 0.8; stroke-linejoin: miter; stroke-linecap: square"/>
   </g>
   <g id="legend_1">
    <g id="patch_7">
     <path d="M 213.917188 66.554375 
L 262.25 66.554375 
Q 264.25 66.554375 264.25 64.554375 
L 264.25 21.52 
Q 264.25 19.52 262.25 19.52 
L 213.917188 19.52 
Q 211.917188 19.52 211.917188 21.52 
L 211.917188 64.554375 
Q 211.917188 66.554375 213.917188 66.554375 
z
" style="fill: #ffffff; opacity: 0.8; stroke: #cccccc; stroke-linejoin: miter"/>
    </g>
    <g id="line2d_16">
     <path d="M 215.917188 27.618438 
L 225.917188 27.618438 
L 235.917188 27.618438 
" style="fill: none; stroke: #000000; stroke-opacity: 0.5; stroke-width: 0.5; stroke-linecap: square"/>
    </g>
    <g id="text_15">
     <!-- all -->
     <g transform="translate(243.917188 31.118438) scale(0.1 -0.1)">
      <defs>
       <path id="DejaVuSans-61" d="M 2194 1759 
Q 1497 1759 1228 1600 
Q 959 1441 959 1056 
Q 959 750 1161 570 
Q 1363 391 1709 391 
Q 2188 391 2477 730 
Q 2766 1069 2766 1631 
L 2766 1759 
L 2194 1759 
z
M 3341 1997 
L 3341 0 
L 2766 0 
L 2766 531 
Q 2569 213 2275 61 
Q 1981 -91 1556 -91 
Q 1019 -91 701 211 
Q 384 513 384 1019 
Q 384 1609 779 1909 
Q 1175 2209 1959 2209 
L 2766 2209 
L 2766 2266 
Q 2766 2663 2505 2880 
Q 2244 3097 1772 3097 
Q 1472 3097 1187 3025 
Q 903 2953 641 2809 
L 641 3341 
Q 956 3463 1253 3523 
Q 1550 3584 1831 3584 
Q 2591 3584 2966 3190 
Q 3341 2797 3341 1997 
z
" transform="scale(0.015625)"/>
       <path id="DejaVuSans-6c" d="M 603 4863 
L 1178 4863 
L 1178 0 
L 603 0 
L 603 4863 
z
" transform="scale(0.015625)"/>
      </defs>
      <use xlink:href="#DejaVuSans-61"/>
      <use xlink:href="#DejaVuSans-6c" transform="translate(61.279297 0)"/>
      <use xlink:href="#DejaVuSans-6c" transform="translate(89.0625 0)"/>
     </g>
    </g>
    <g id="line2d_17">
     <path d="M 215.917188 42.296563 
L 225.917188 42.296563 
L 235.917188 42.296563 
" style="fill: none; stroke: #0000ff; stroke-opacity: 0.5; stroke-linecap: square"/>
    </g>
    <g id="text_16">
     <!-- 1-1 -->
     <g transform="translate(243.917188 45.796563) scale(0.1 -0.1)">
      <defs>
       <path id="DejaVuSans-2d" d="M 313 2009 
L 1997 2009 
L 1997 1497 
L 313 1497 
L 313 2009 
z
" transform="scale(0.015625)"/>
      </defs>
      <use xlink:href="#DejaVuSans-31"/>
      <use xlink:href="#DejaVuSans-2d" transform="translate(63.623047 0)"/>
      <use xlink:href="#DejaVuSans-31" transform="translate(99.707031 0)"/>
     </g>
    </g>
    <g id="line2d_18">
     <path d="M 215.917188 56.974688 
L 225.917188 56.974688 
L 235.917188 56.974688 
" style="fill: none; stroke: #ff0000; stroke-opacity: 0.5; stroke-linecap: square"/>
    </g>
    <g id="text_17">
     <!-- 2-2 -->
     <g transform="translate(243.917188 60.474688) scale(0.1 -0.1)">
      <use xlink:href="#DejaVuSans-32"/>
      <use xlink:href="#DejaVuSans-2d" transform="translate(63.623047 0)"/>
      <use xlink:href="#DejaVuSans-32" transform="translate(99.707031 0)"/>
     </g>
    </g>
   </g>
  </g>
 </g>
 <defs>
  <clipPath id="pde6dea740e">
   <rect x="33.7" y="14.52" width="235.55" height="174.08"/>
  </clipPath>
 </defs>
</svg>
