<?xml version="1.0" encoding="utf-8" standalone="no"?>
<!DOCTYPE svg PUBLIC "-//W3C//DTD SVG 1.1//EN"
  "http://www.w3.org/Graphics/SVG/1.1/DTD/svg11.dtd">
<svg xmlns:xlink="http://www.w3.org/1999/xlink" width="288pt" height="216pt" viewBox="0 0 288 216" xmlns="http://www.w3.org/2000/svg" version="1.1">
 <metadata>
  <rdf:RDF xmlns:dc="http://purl.org/dc/elements/1.1/" xmlns:cc="http://creativecommons.org/ns#" xmlns:rdf="http://www.w3.org/1999/02/22-rdf-syntax-ns#">
   <cc:Work>
    <dc:type rdf:resource="http://purl.org/dc/dcmitype/StillImage"/>
    <dc:date>2025-09-17T23:06:44.336708</dc:date>
    <dc:format>image/svg+xml</dc:format>
    <dc:creator>
     <cc:Agent>
      <dc:title>Matplotlib v3.10.0, https://matplotlib.org/</dc:title>
     </cc:Agent>
    </dc:creator>
   </cc:Work>
  </rdf:RDF>
 </metadata>
 <defs>
  <style type="text/css">*{stroke-linejoin: round; stroke-linecap: butt}</style>
 </defs>
 <g id="figure_1">
  <g id="patch_1">
   <path d="M 0 216 
L 288 216 
L 288 0 
L 0 0 
z
" style="fill: #ffffff"/>
  </g>
  <g id="axes_1">
   <g id="patch_2">
    <path d="M 33.7 188.6 
L 269.25 188.6 
L 269.25 14.52 
L 33.7 14.52 
z
" style="fill: #ffffff"/>
   </g>
   <g id="matplotlib.axis_1">
    <g id="xtick_1">
     <g id="line2d_1">
      <defs>
       <path id="m8cc916751d" d="M 0 0 
L 0 3.5 
" style="stroke: #000000; stroke-width: 0.8"/>
      </defs>
      <g>
       <use xlink:href="#m8cc916751d" x="44.138477" y="188.6" style="stroke: #000000; stroke-width: 0.8"/>
      </g>
     </g>
     <g id="text_1">
      <!-- 0 -->
      <g transform="translate(40.957227 203.198437) scale(0.1 -0.1)">
       <defs>
        <path id="DejaVuSans-30" d="M 2034 4250 
Q 1547 4250 1301 3770 
Q 1056 3291 1056 2328 
Q 1056 1369 1301 889 
Q 1547 409 2034 409 
Q 2525 409 2770 889 
Q 3016 1369 3016 2328 
Q 3016 3291 2770 3770 
Q 2525 4250 2034 4250 
z
M 2034 4750 
Q 2819 4750 3233 4129 
Q 3647 3509 3647 2328 
Q 3647 1150 3233 529 
Q 2819 -91 2034 -91 
Q 1250 -91 836 529 
Q 422 1150 422 2328 
Q 422 3509 836 4129 
Q 1250 4750 2034 4750 
z
" transform="scale(0.015625)"/>
       </defs>
       <use xlink:href="#DejaVuSans-30"/>
      </g>
     </g>
    </g>
    <g id="xtick_2">
     <g id="line2d_2">
      <g>
       <use xlink:href="#m8cc916751d" x="87.073086" y="188.6" style="stroke: #000000; stroke-width: 0.8"/>
      </g>
     </g>
     <g id="text_2">
      <!-- 200 -->
      <g transform="translate(77.529336 203.198437) scale(0.1 -0.1)">
       <defs>
        <path id="DejaVuSans-32" d="M 1228 531 
L 3431 531 
L 3431 0 
L 469 0 
L 469 531 
Q 828 903 1448 1529 
Q 2069 2156 2228 2338 
Q 2531 2678 2651 2914 
Q 2772 3150 2772 3378 
Q 2772 3750 2511 3984 
Q 2250 4219 1831 4219 
Q 1534 4219 1204 4116 
Q 875 4013 500 3803 
L 500 4441 
Q 881 4594 1212 4672 
Q 1544 4750 1819 4750 
Q 2544 4750 2975 4387 
Q 3406 4025 3406 3419 
Q 3406 3131 3298 2873 
Q 3191 2616 2906 2266 
Q 2828 2175 2409 1742 
Q 1991 1309 1228 531 
z
" transform="scale(0.015625)"/>
       </defs>
       <use xlink:href="#DejaVuSans-32"/>
       <use xlink:href="#DejaVuSans-30" transform="translate(63.623047 0)"/>
       <use xlink:href="#DejaVuSans-30" transform="translate(127.246094 0)"/>
      </g>
     </g>
    </g>
    <g id="xtick_3">
     <g id="line2d_3">
      <g>
       <use xlink:href="#m8cc916751d" x="130.007695" y="188.6" style="stroke: #000000; stroke-width: 0.8"/>
      </g>
     </g>
     <g id="text_3">
      <!-- 400 -->
      <g transform="translate(120.463945 203.198437) scale(0.1 -0.1)">
       <defs>
        <path id="DejaVuSans-34" d="M 2419 4116 
L 825 1625 
L 2419 1625 
L 2419 4116 
z
M 2253 4666 
L 3047 4666 
L 3047 1625 
L 3713 1625 
L 3713 1100 
L 3047 1100 
L 3047 0 
L 2419 0 
L 2419 1100 
L 313 1100 
L 313 1709 
L 2253 4666 
z
" transform="scale(0.015625)"/>
       </defs>
       <use xlink:href="#DejaVuSans-34"/>
       <use xlink:href="#DejaVuSans-30" transform="translate(63.623047 0)"/>
       <use xlink:href="#DejaVuSans-30" transform="translate(127.246094 0)"/>
      </g>
     </g>
    </g>
    <g id="xtick_4">
     <g id="line2d_4">
      <g>
       <use xlink:href="#m8cc916751d" x="172.942305" y="188.6" style="stroke: #000000; stroke-width: 0.8"/>
      </g>
     </g>
     <g id="text_4">
      <!-- 600 -->
      <g transform="translate(163.398555 203.198437) scale(0.1 -0.1)">
       <defs>
        <path id="DejaVuSans-36" d="M 2113 2584 
Q 1688 2584 1439 2293 
Q 1191 2003 1191 1497 
Q 1191 994 1439 701 
Q 1688 409 2113 409 
Q 2538 409 2786 701 
Q 3034 994 3034 1497 
Q 3034 2003 2786 2293 
Q 2538 2584 2113 2584 
z
M 3366 4563 
L 3366 3988 
Q 3128 4100 2886 4159 
Q 2644 4219 2406 4219 
Q 1781 4219 1451 3797 
Q 1122 3375 1075 2522 
Q 1259 2794 1537 2939 
Q 1816 3084 2150 3084 
Q 2853 3084 3261 2657 
Q 3669 2231 3669 1497 
Q 3669 778 3244 343 
Q 2819 -91 2113 -91 
Q 1303 -91 875 529 
Q 447 1150 447 2328 
Q 447 3434 972 4092 
Q 1497 4750 2381 4750 
Q 2619 4750 2861 4703 
Q 3103 4656 3366 4563 
z
" transform="scale(0.015625)"/>
       </defs>
       <use xlink:href="#DejaVuSans-36"/>
       <use xlink:href="#DejaVuSans-30" transform="translate(63.623047 0)"/>
       <use xlink:href="#DejaVuSans-30" transform="translate(127.246094 0)"/>
      </g>
     </g>
    </g>
    <g id="xtick_5">
     <g id="line2d_5">
      <g>
       <use xlink:href="#m8cc916751d" x="215.876914" y="188.6" style="stroke: #000000; stroke-width: 0.8"/>
      </g>
     </g>
     <g id="text_5">
      <!-- 800 -->
      <g transform="translate(206.333164 203.198437) scale(0.1 -0.1)">
       <defs>
        <path id="DejaVuSans-38" d="M 2034 2216 
Q 1584 2216 1326 1975 
Q 1069 1734 1069 1313 
Q 1069 891 1326 650 
Q 1584 409 2034 409 
Q 2484 409 2743 651 
Q 3003 894 3003 1313 
Q 3003 1734 2745 1975 
Q 2488 2216 2034 2216 
z
M 1403 2484 
Q 997 2584 770 2862 
Q 544 3141 544 3541 
Q 544 4100 942 4425 
Q 1341 4750 2034 4750 
Q 2731 4750 3128 4425 
Q 3525 4100 3525 3541 
Q 3525 3141 3298 2862 
Q 3072 2584 2669 2484 
Q 3125 2378 3379 2068 
Q 3634 1759 3634 1313 
Q 3634 634 3220 271 
Q 2806 -91 2034 -91 
Q 1263 -91 848 271 
Q 434 634 434 1313 
Q 434 1759 690 2068 
Q 947 2378 1403 2484 
z
M 1172 3481 
Q 1172 3119 1398 2916 
Q 1625 2713 2034 2713 
Q 2441 2713 2670 2916 
Q 2900 3119 2900 3481 
Q 2900 3844 2670 4047 
Q 2441 4250 2034 4250 
Q 1625 4250 1398 4047 
Q 1172 3844 1172 3481 
z
" transform="scale(0.015625)"/>
       </defs>
       <use xlink:href="#DejaVuSans-38"/>
       <use xlink:href="#DejaVuSans-30" transform="translate(63.623047 0)"/>
       <use xlink:href="#DejaVuSans-30" transform="translate(127.246094 0)"/>
      </g>
     </g>
    </g>
    <g id="xtick_6">
     <g id="line2d_6">
      <g>
       <use xlink:href="#m8cc916751d" x="258.811523" y="188.6" style="stroke: #000000; stroke-width: 0.8"/>
      </g>
     </g>
     <g id="text_6">
      <!-- 1000 -->
      <g transform="translate(246.086523 203.198437) scale(0.1 -0.1)">
       <defs>
        <path id="DejaVuSans-31" d="M 794 531 
L 1825 531 
L 1825 4091 
L 703 3866 
L 703 4441 
L 1819 4666 
L 2450 4666 
L 2450 531 
L 3481 531 
L 3481 0 
L 794 0 
L 794 531 
z
" transform="scale(0.015625)"/>
       </defs>
       <use xlink:href="#DejaVuSans-31"/>
       <use xlink:href="#DejaVuSans-30" transform="translate(63.623047 0)"/>
       <use xlink:href="#DejaVuSans-30" transform="translate(127.246094 0)"/>
       <use xlink:href="#DejaVuSans-30" transform="translate(190.869141 0)"/>
      </g>
     </g>
    </g>
    <g id="text_7">
     <!-- q (nm) -->
     <g transform="translate(134.771094 216.876563) scale(0.1 -0.1)">
      <defs>
       <path id="DejaVuSans-71" d="M 947 1747 
Q 947 1113 1208 752 
Q 1469 391 1925 391 
Q 2381 391 2643 752 
Q 2906 1113 2906 1747 
Q 2906 2381 2643 2742 
Q 2381 3103 1925 3103 
Q 1469 3103 1208 2742 
Q 947 2381 947 1747 
z
M 2906 525 
Q 2725 213 2448 61 
Q 2172 -91 1784 -91 
Q 1150 -91 751 415 
Q 353 922 353 1747 
Q 353 2572 751 3078 
Q 1150 3584 1784 3584 
Q 2172 3584 2448 3432 
Q 2725 3281 2906 2969 
L 2906 3500 
L 3481 3500 
L 3481 -1331 
L 2906 -1331 
L 2906 525 
z
" transform="scale(0.015625)"/>
       <path id="DejaVuSans-20" transform="scale(0.015625)"/>
       <path id="DejaVuSans-28" d="M 1984 4856 
Q 1566 4138 1362 3434 
Q 1159 2731 1159 2009 
Q 1159 1288 1364 580 
Q 1569 -128 1984 -844 
L 1484 -844 
Q 1016 -109 783 600 
Q 550 1309 550 2009 
Q 550 2706 781 3412 
Q 1013 4119 1484 4856 
L 1984 4856 
z
" transform="scale(0.015625)"/>
       <path id="DejaVuSans-6e" d="M 3513 2113 
L 3513 0 
L 2938 0 
L 2938 2094 
Q 2938 2591 2744 2837 
Q 2550 3084 2163 3084 
Q 1697 3084 1428 2787 
Q 1159 2491 1159 1978 
L 1159 0 
L 581 0 
L 581 3500 
L 1159 3500 
L 1159 2956 
Q 1366 3272 1645 3428 
Q 1925 3584 2291 3584 
Q 2894 3584 3203 3211 
Q 3513 2838 3513 2113 
z
" transform="scale(0.015625)"/>
       <path id="DejaVuSans-6d" d="M 3328 2828 
Q 3544 3216 3844 3400 
Q 4144 3584 4550 3584 
Q 5097 3584 5394 3201 
Q 5691 2819 5691 2113 
L 5691 0 
L 5113 0 
L 5113 2094 
Q 5113 2597 4934 2840 
Q 4756 3084 4391 3084 
Q 3944 3084 3684 2787 
Q 3425 2491 3425 1978 
L 3425 0 
L 2847 0 
L 2847 2094 
Q 2847 2600 2669 2842 
Q 2491 3084 2119 3084 
Q 1678 3084 1418 2786 
Q 1159 2488 1159 1978 
L 1159 0 
L 581 0 
L 581 3500 
L 1159 3500 
L 1159 2956 
Q 1356 3278 1631 3431 
Q 1906 3584 2284 3584 
Q 2666 3584 2933 3390 
Q 3200 3197 3328 2828 
z
" transform="scale(0.015625)"/>
       <path id="DejaVuSans-29" d="M 513 4856 
L 1013 4856 
Q 1481 4119 1714 3412 
Q 1947 2706 1947 2009 
Q 1947 1309 1714 600 
Q 1481 -109 1013 -844 
L 513 -844 
Q 928 -128 1133 580 
Q 1338 1288 1338 2009 
Q 1338 2731 1133 3434 
Q 928 4138 513 4856 
z
" transform="scale(0.015625)"/>
      </defs>
      <use xlink:href="#DejaVuSans-71"/>
      <use xlink:href="#DejaVuSans-20" transform="translate(63.476562 0)"/>
      <use xlink:href="#DejaVuSans-28" transform="translate(95.263672 0)"/>
      <use xlink:href="#DejaVuSans-6e" transform="translate(134.277344 0)"/>
      <use xlink:href="#DejaVuSans-6d" transform="translate(197.65625 0)"/>
      <use xlink:href="#DejaVuSans-29" transform="translate(295.068359 0)"/>
     </g>
    </g>
   </g>
   <g id="matplotlib.axis_2">
    <g id="ytick_1">
     <g id="line2d_7">
      <defs>
       <path id="m3cd15b3cbd" d="M 0 0 
L -3.5 0 
" style="stroke: #000000; stroke-width: 0.8"/>
      </defs>
      <g>
       <use xlink:href="#m3cd15b3cbd" x="33.7" y="180.687273" style="stroke: #000000; stroke-width: 0.8"/>
      </g>
     </g>
     <g id="text_8">
      <!-- 0 -->
      <g transform="translate(20.3375 184.486491) scale(0.1 -0.1)">
       <use xlink:href="#DejaVuSans-30"/>
      </g>
     </g>
    </g>
    <g id="ytick_2">
     <g id="line2d_8">
      <g>
       <use xlink:href="#m3cd15b3cbd" x="33.7" y="148.275727" style="stroke: #000000; stroke-width: 0.8"/>
      </g>
     </g>
     <g id="text_9">
      <!-- 100 -->
      <g transform="translate(7.6125 152.074946) scale(0.1 -0.1)">
       <use xlink:href="#DejaVuSans-31"/>
       <use xlink:href="#DejaVuSans-30" transform="translate(63.623047 0)"/>
       <use xlink:href="#DejaVuSans-30" transform="translate(127.246094 0)"/>
      </g>
     </g>
    </g>
    <g id="ytick_3">
     <g id="line2d_9">
      <g>
       <use xlink:href="#m3cd15b3cbd" x="33.7" y="115.864181" style="stroke: #000000; stroke-width: 0.8"/>
      </g>
     </g>
     <g id="text_10">
      <!-- 200 -->
      <g transform="translate(7.6125 119.6634) scale(0.1 -0.1)">
       <use xlink:href="#DejaVuSans-32"/>
       <use xlink:href="#DejaVuSans-30" transform="translate(63.623047 0)"/>
       <use xlink:href="#DejaVuSans-30" transform="translate(127.246094 0)"/>
      </g>
     </g>
    </g>
    <g id="ytick_4">
     <g id="line2d_10">
      <g>
       <use xlink:href="#m3cd15b3cbd" x="33.7" y="83.452635" style="stroke: #000000; stroke-width: 0.8"/>
      </g>
     </g>
     <g id="text_11">
      <!-- 300 -->
      <g transform="translate(7.6125 87.251854) scale(0.1 -0.1)">
       <defs>
        <path id="DejaVuSans-33" d="M 2597 2516 
Q 3050 2419 3304 2112 
Q 3559 1806 3559 1356 
Q 3559 666 3084 287 
Q 2609 -91 1734 -91 
Q 1441 -91 1130 -33 
Q 819 25 488 141 
L 488 750 
Q 750 597 1062 519 
Q 1375 441 1716 441 
Q 2309 441 2620 675 
Q 2931 909 2931 1356 
Q 2931 1769 2642 2001 
Q 2353 2234 1838 2234 
L 1294 2234 
L 1294 2753 
L 1863 2753 
Q 2328 2753 2575 2939 
Q 2822 3125 2822 3475 
Q 2822 3834 2567 4026 
Q 2313 4219 1838 4219 
Q 1578 4219 1281 4162 
Q 984 4106 628 3988 
L 628 4550 
Q 988 4650 1302 4700 
Q 1616 4750 1894 4750 
Q 2613 4750 3031 4423 
Q 3450 4097 3450 3541 
Q 3450 3153 3228 2886 
Q 3006 2619 2597 2516 
z
" transform="scale(0.015625)"/>
       </defs>
       <use xlink:href="#DejaVuSans-33"/>
       <use xlink:href="#DejaVuSans-30" transform="translate(63.623047 0)"/>
       <use xlink:href="#DejaVuSans-30" transform="translate(127.246094 0)"/>
      </g>
     </g>
    </g>
    <g id="ytick_5">
     <g id="line2d_11">
      <g>
       <use xlink:href="#m3cd15b3cbd" x="33.7" y="51.04109" style="stroke: #000000; stroke-width: 0.8"/>
      </g>
     </g>
     <g id="text_12">
      <!-- 400 -->
      <g transform="translate(7.6125 54.840308) scale(0.1 -0.1)">
       <use xlink:href="#DejaVuSans-34"/>
       <use xlink:href="#DejaVuSans-30" transform="translate(63.623047 0)"/>
       <use xlink:href="#DejaVuSans-30" transform="translate(127.246094 0)"/>
      </g>
     </g>
    </g>
    <g id="ytick_6">
     <g id="line2d_12">
      <g>
       <use xlink:href="#m3cd15b3cbd" x="33.7" y="18.629544" style="stroke: #000000; stroke-width: 0.8"/>
      </g>
     </g>
     <g id="text_13">
      <!-- 500 -->
      <g transform="translate(7.6125 22.428762) scale(0.1 -0.1)">
       <defs>
        <path id="DejaVuSans-35" d="M 691 4666 
L 3169 4666 
L 3169 4134 
L 1269 4134 
L 1269 2991 
Q 1406 3038 1543 3061 
Q 1681 3084 1819 3084 
Q 2600 3084 3056 2656 
Q 3513 2228 3513 1497 
Q 3513 744 3044 326 
Q 2575 -91 1722 -91 
Q 1428 -91 1123 -41 
Q 819 9 494 109 
L 494 744 
Q 775 591 1075 516 
Q 1375 441 1709 441 
Q 2250 441 2565 725 
Q 2881 1009 2881 1497 
Q 2881 1984 2565 2268 
Q 2250 2553 1709 2553 
Q 1456 2553 1204 2497 
Q 953 2441 691 2322 
L 691 4666 
z
" transform="scale(0.015625)"/>
       </defs>
       <use xlink:href="#DejaVuSans-35"/>
       <use xlink:href="#DejaVuSans-30" transform="translate(63.623047 0)"/>
       <use xlink:href="#DejaVuSans-30" transform="translate(127.246094 0)"/>
      </g>
     </g>
    </g>
    <g id="text_14">
     <!-- rdf -->
     <g transform="translate(1.532813 108.462344) rotate(-90) scale(0.1 -0.1)">
      <defs>
       <path id="DejaVuSans-72" d="M 2631 2963 
Q 2534 3019 2420 3045 
Q 2306 3072 2169 3072 
Q 1681 3072 1420 2755 
Q 1159 2438 1159 1844 
L 1159 0 
L 581 0 
L 581 3500 
L 1159 3500 
L 1159 2956 
Q 1341 3275 1631 3429 
Q 1922 3584 2338 3584 
Q 2397 3584 2469 3576 
Q 2541 3569 2628 3553 
L 2631 2963 
z
" transform="scale(0.015625)"/>
       <path id="DejaVuSans-64" d="M 2906 2969 
L 2906 4863 
L 3481 4863 
L 3481 0 
L 2906 0 
L 2906 525 
Q 2725 213 2448 61 
Q 2172 -91 1784 -91 
Q 1150 -91 751 415 
Q 353 922 353 1747 
Q 353 2572 751 3078 
Q 1150 3584 1784 3584 
Q 2172 3584 2448 3432 
Q 2725 3281 2906 2969 
z
M 947 1747 
Q 947 1113 1208 752 
Q 1469 391 1925 391 
Q 2381 391 2643 752 
Q 2906 1113 2906 1747 
Q 2906 2381 2643 2742 
Q 2381 3103 1925 3103 
Q 1469 3103 1208 2742 
Q 947 2381 947 1747 
z
" transform="scale(0.015625)"/>
       <path id="DejaVuSans-66" d="M 2375 4863 
L 2375 4384 
L 1825 4384 
Q 1516 4384 1395 4259 
Q 1275 4134 1275 3809 
L 1275 3500 
L 2222 3500 
L 2222 3053 
L 1275 3053 
L 1275 0 
L 697 0 
L 697 3053 
L 147 3053 
L 147 3500 
L 697 3500 
L 697 3744 
Q 697 4328 969 4595 
Q 1241 4863 1831 4863 
L 2375 4863 
z
" transform="scale(0.015625)"/>
      </defs>
      <use xlink:href="#DejaVuSans-72"/>
      <use xlink:href="#DejaVuSans-64" transform="translate(39.363281 0)"/>
      <use xlink:href="#DejaVuSans-66" transform="translate(102.839844 0)"/>
     </g>
    </g>
   </g>
   <g id="line2d_13">
    <path d="M 44.406818 180.687273 
L 91.634888 180.687273 
L 92.171571 161.217098 
L 93.244936 162.058956 
L 93.781619 180.687273 
L 94.318301 145.007468 
L 94.854984 180.687273 
L 95.391667 163.58677 
L 95.928349 96.947552 
L 96.465032 180.687273 
L 97.001715 116.388337 
L 97.538397 149.180764 
L 98.07508 134.363327 
L 98.611762 150.410173 
L 99.685128 122.450615 
L 100.22181 152.123597 
L 100.758493 138.650191 
L 101.295175 139.43594 
L 101.831858 126.703998 
L 102.368541 127.694405 
L 102.905223 154.672583 
L 103.978589 155.597479 
L 104.515271 119.072888 
L 105.051954 144.36718 
L 105.588636 156.895022 
L 106.125319 133.923084 
L 106.662002 146.213667 
L 107.198684 146.797905 
L 107.735367 114.047634 
L 108.272049 147.922791 
L 108.808732 159.205336 
L 109.345415 117.297992 
L 109.882097 139.114905 
L 110.41878 109.109003 
L 110.955463 130.377893 
L 111.492145 141.078612 
L 112.028828 112.46357 
L 112.56551 180.687273 
L 113.102193 114.570815 
L 113.638876 106.288032 
L 114.175558 134.89773 
L 114.712241 126.572405 
L 115.248923 154.036647 
L 115.785606 128.181617 
L 116.322289 146.201979 
L 116.858971 104.236435 
L 117.395654 113.723069 
L 117.932337 139.441128 
L 118.469019 131.904182 
L 119.005702 164.658537 
L 119.542384 101.680282 
L 120.079067 165.108428 
L 120.61575 165.326293 
L 121.152432 142.818155 
L 121.689115 113.463162 
L 122.225797 121.751153 
L 122.76248 100.752575 
L 123.299163 166.350072 
L 123.835845 124.10825 
L 124.372528 152.774926 
L 124.909211 139.373294 
L 125.982576 140.449866 
L 126.519258 160.829858 
L 127.055941 89.215071 
L 127.592624 135.537439 
L 128.129306 104.273601 
L 129.202671 143.43853 
L 129.739354 174.556757 
L 130.276037 120.143637 
L 130.812719 138.829925 
L 131.349402 145.2498 
L 131.886085 145.681982 
L 132.422767 140.342722 
L 132.95945 123.746464 
L 133.496132 141.306107 
L 134.032815 152.892829 
L 134.569498 147.728569 
L 135.10618 131.830928 
L 135.642863 132.402279 
L 136.179545 122.358488 
L 136.716228 149.239362 
L 137.252911 154.781829 
L 137.789593 139.712456 
L 138.326276 155.369012 
L 138.862959 135.62927 
L 140.473006 151.64429 
L 141.009689 113.669112 
L 141.546372 147.546489 
L 142.083054 124.495249 
L 142.619737 139.001399 
L 143.693102 139.895419 
L 144.229785 131.363795 
L 144.766467 149.633475 
L 145.839833 124.226949 
L 146.376515 150.603915 
L 146.913198 146.664371 
L 147.44988 134.390548 
L 147.986563 159.860251 
L 148.523246 127.092317 
L 149.059928 131.719844 
L 149.596611 144.334591 
L 150.669976 137.147018 
L 151.206659 129.745181 
L 151.743341 153.529861 
L 152.280024 138.433841 
L 152.816707 150.260296 
L 153.353389 150.558534 
L 153.890072 132.205795 
L 154.426754 121.597077 
L 154.963437 129.482772 
L 155.50012 140.842231 
L 156.036802 141.223397 
L 156.573485 123.832112 
L 157.110167 141.969835 
L 157.64685 135.361766 
L 158.183533 121.97234 
L 158.720215 146.471843 
L 159.256898 140.010696 
L 159.793581 153.820621 
L 160.330263 137.431227 
L 160.866946 151.01558 
L 161.403628 131.685992 
L 161.940311 141.842656 
L 162.476994 142.194 
L 163.013676 129.825424 
L 163.550359 133.432039 
L 164.087041 127.609544 
L 164.623724 155.931493 
L 165.160407 150.016443 
L 166.233772 150.553217 
L 166.770455 141.855354 
L 167.307137 130.348585 
L 167.84382 133.719755 
L 168.380502 142.855201 
L 168.917185 122.983603 
L 169.453868 154.942584 
L 169.99055 146.653035 
L 170.527233 146.94156 
L 171.063915 141.649374 
L 171.600598 130.917548 
L 172.137281 131.334008 
L 172.673963 137.183398 
L 173.210646 156.4194 
L 173.747329 129.87853 
L 174.284011 146.20956 
L 174.820694 143.861808 
L 175.357376 128.508908 
L 175.894059 134.10846 
L 176.430742 144.752697 
L 176.967424 129.766057 
L 177.504107 157.956765 
L 178.040789 153.1278 
L 178.577472 150.861959 
L 179.114155 146.167206 
L 179.650837 151.332477 
L 180.18752 146.709697 
L 180.724203 134.936652 
L 181.260885 149.628739 
L 181.797568 119.053595 
L 182.33425 143.052872 
L 182.870933 141.009467 
L 183.407616 152.894931 
L 183.944298 139.318234 
L 184.480981 135.072458 
L 185.017663 151.263241 
L 185.554346 138.008711 
L 186.091029 136.101313 
L 186.627711 143.07414 
L 187.164394 167.51153 
L 187.701077 145.814033 
L 188.237759 133.093008 
L 188.774442 133.44556 
L 189.311124 165.766765 
L 189.847807 163.760661 
L 190.38449 140.781099 
L 190.921172 145.24235 
L 191.457855 133.08102 
L 191.994537 151.919657 
L 192.53122 141.927441 
L 193.067903 148.282154 
L 193.604585 146.503723 
L 194.141268 138.762036 
L 194.677951 139.060464 
L 195.214633 151.164813 
L 195.751316 149.419102 
L 196.287998 141.877241 
L 196.824681 146.003333 
L 197.361364 138.592214 
L 197.898046 119.884734 
L 198.434729 148.610448 
L 198.971411 137.589407 
L 199.508094 150.913003 
L 200.044777 127.092327 
L 200.581459 142.142852 
L 201.118142 140.583091 
L 201.654825 146.287367 
L 202.191507 132.134633 
L 203.264872 152.30219 
L 203.801555 150.730495 
L 204.338238 143.929355 
L 204.87492 135.480862 
L 205.411603 146.144162 
L 205.948285 118.921389 
L 206.484968 153.417113 
L 207.021651 148.516882 
L 207.558333 148.727872 
L 208.095016 155.62104 
L 208.631699 137.522296 
L 209.168381 124.607237 
L 209.705064 126.609047 
L 210.778429 143.480237 
L 211.315112 142.111433 
L 211.851794 147.149139 
L 212.388477 141.01531 
L 212.925159 144.420612 
L 213.461842 157.184829 
L 213.998525 138.649791 
L 214.535207 146.649892 
L 215.07189 146.863414 
L 215.608573 130.268639 
L 216.145255 150.320853 
L 216.681938 159.562842 
L 217.21862 138.699919 
L 217.755303 144.920277 
L 218.291986 137.734863 
L 218.828668 154.190636 
L 219.365351 144.111633 
L 219.902033 148.696917 
L 220.438716 140.219722 
L 220.975399 137.592147 
L 221.512081 144.991345 
L 222.048764 132.433674 
L 222.585447 151.062412 
L 223.122129 138.619395 
L 223.658812 156.991325 
L 224.195494 150.204431 
L 224.732177 151.762574 
L 225.26886 136.872259 
L 225.805542 156.186877 
L 226.342225 145.505815 
L 226.878907 143.02185 
L 227.41559 139.230249 
L 227.952273 143.460449 
L 228.488955 144.998566 
L 229.025638 153.090359 
L 229.562321 144.10411 
L 230.635686 134.191487 
L 231.172368 143.44722 
L 231.709051 133.445259 
L 232.245734 136.253801 
L 232.782416 149.129154 
L 233.319099 141.7771 
L 233.855781 143.245028 
L 234.392464 145.938115 
L 234.929147 141.19693 
L 235.465829 145.099533 
L 236.002512 136.75629 
L 236.539195 145.495639 
L 237.075877 138.450374 
L 237.61256 136.284419 
L 238.149242 132.949288 
L 238.685925 143.894407 
L 239.222608 139.375126 
L 239.75929 154.861822 
L 240.295973 138.658292 
L 241.906021 146.23118 
L 242.979386 144.329865 
L 243.516069 152.435702 
L 244.052751 135.727237 
L 244.589434 150.50159 
L 245.126116 148.43839 
L 245.662799 153.034499 
L 246.199482 147.679892 
L 246.736164 139.098946 
L 247.272847 140.407354 
L 247.80953 140.61915 
L 248.346212 147.293106 
L 248.882895 143.181329 
L 249.419577 145.509319 
L 249.95626 149.934311 
L 250.492943 143.764431 
L 251.029625 149.203246 
L 251.566308 156.674143 
L 252.10299 139.140534 
L 252.639673 155.887346 
L 253.176356 145.734257 
L 253.713038 147.95858 
L 254.249721 146.090534 
L 254.786404 147.278972 
L 255.323086 142.41247 
L 255.859769 149.621163 
L 256.396451 147.783936 
L 256.933134 143.981397 
L 257.469817 144.165772 
L 258.006499 147.295285 
L 258.543182 137.690283 
L 258.543182 137.690283 
" clip-path="url(#pe52d7756d7)" style="fill: none; stroke: #000000; stroke-opacity: 0.5; stroke-width: 0.5; stroke-linecap: square"/>
   </g>
   <g id="line2d_14">
    <path d="M 44.406818 180.687273 
L 91.634888 180.687273 
L 92.171571 121.059855 
L 93.244936 123.638046 
L 93.781619 180.687273 
L 94.318301 71.417851 
L 94.854984 180.687273 
L 95.928349 78.106105 
L 96.465032 180.687273 
L 97.001715 180.687273 
L 97.538397 84.198572 
L 98.611762 180.687273 
L 99.148445 89.764024 
L 99.685128 136.099829 
L 101.295175 138.576531 
L 101.831858 56.694426 
L 102.368541 140.114601 
L 102.905223 140.852276 
L 103.441906 180.687273 
L 103.978589 142.268523 
L 105.051954 143.610504 
L 105.588636 180.687273 
L 106.125319 144.883437 
L 106.662002 180.687273 
L 107.735367 112.659298 
L 108.272049 147.240193 
L 108.808732 147.793055 
L 109.345415 180.687273 
L 110.41878 118.056278 
L 110.955463 119.058278 
L 111.492145 180.687273 
L 112.028828 91.143651 
L 112.56551 180.687273 
L 113.102193 64.983465 
L 113.638876 123.725351 
L 114.175558 124.595076 
L 114.712241 153.066138 
L 115.248923 99.069718 
L 115.785606 100.287974 
L 116.322289 154.284467 
L 116.858971 24.600121 
L 117.395654 180.687273 
L 117.932337 130.160741 
L 118.469019 180.687273 
L 119.005702 180.687273 
L 119.542384 59.707805 
L 120.079067 180.687273 
L 120.61575 157.165769 
L 121.152432 111.102766 
L 121.689115 112.062649 
L 122.225797 135.564299 
L 122.76248 113.923628 
L 123.299163 158.733433 
L 123.835845 94.050631 
L 124.372528 137.946485 
L 124.909211 159.599926 
L 125.445893 139.067591 
L 125.982576 160.149427 
L 126.519258 160.416159 
L 127.055941 80.639533 
L 127.592624 81.921999 
L 128.129306 102.681639 
L 128.665989 161.432684 
L 129.202671 66.612974 
L 129.739354 180.687273 
L 130.276037 125.062802 
L 130.812719 162.374679 
L 131.349402 90.247873 
L 131.886085 144.952698 
L 132.422767 145.385785 
L 132.95945 163.249148 
L 133.496132 146.228749 
L 134.032815 180.687273 
L 134.569498 147.041923 
L 135.10618 147.437812 
L 135.642863 131.396337 
L 136.179545 99.49094 
L 136.716228 116.481111 
L 137.252911 148.953102 
L 137.789593 133.630249 
L 138.326276 165.179836 
L 139.399641 165.527322 
L 140.473006 136.215201 
L 141.009689 136.706596 
L 141.546372 151.689083 
L 142.083054 123.324574 
L 142.619737 123.948161 
L 143.156419 152.624386 
L 143.693102 152.926145 
L 144.229785 139.490952 
L 144.766467 153.515195 
L 145.30315 126.918217 
L 145.839833 127.484271 
L 146.376515 180.687273 
L 146.913198 128.589699 
L 147.44988 167.797843 
L 147.986563 142.417615 
L 148.523246 155.4358 
L 150.669976 107.955247 
L 151.743341 156.924534 
L 152.280024 133.632307 
L 153.353389 134.552635 
L 153.890072 123.581676 
L 154.963437 124.682341 
L 156.036802 147.725966 
L 157.110167 126.790833 
L 157.64685 137.976698 
L 158.183533 127.800647 
L 158.720215 159.73032 
L 159.793581 139.547706 
L 160.330263 139.926767 
L 160.866946 160.494034 
L 161.403628 160.678415 
L 161.940311 141.033386 
L 162.476994 131.568242 
L 163.013676 161.21672 
L 163.550359 113.151663 
L 164.087041 152.00188 
L 164.623724 171.21045 
L 165.160407 152.508444 
L 165.697089 143.446428 
L 166.233772 125.315938 
L 166.770455 144.095653 
L 167.84382 144.727764 
L 168.380502 153.950181 
L 168.917185 118.836146 
L 169.453868 136.885538 
L 169.99055 137.25816 
L 170.527233 154.850707 
L 171.063915 137.989562 
L 171.600598 138.348435 
L 172.137281 130.305811 
L 172.673963 130.725787 
L 173.210646 155.913815 
L 173.747329 123.360296 
L 174.284011 172.565118 
L 174.820694 148.464986 
L 175.357376 100.789143 
L 175.894059 141.062929 
L 176.430742 141.383825 
L 176.967424 110.511459 
L 177.504107 134.279148 
L 178.040789 149.996037 
L 178.577472 135.017255 
L 179.114155 150.482208 
L 179.650837 143.229321 
L 180.18752 113.793909 
L 180.724203 121.693042 
L 181.260885 166.053924 
L 181.797568 79.050964 
L 182.33425 166.280352 
L 182.870933 152.095909 
L 183.407616 152.315919 
L 183.944298 159.571823 
L 184.480981 138.778658 
L 185.017663 152.960779 
L 185.554346 146.291717 
L 186.091029 146.551141 
L 186.627711 133.256 
L 187.164394 167.237034 
L 187.701077 140.63753 
L 188.237759 121.059222 
L 188.774442 141.2297 
L 189.311124 174.159549 
L 189.847807 167.727834 
L 190.38449 167.822781 
L 190.921172 155.146074 
L 191.457855 155.331766 
L 191.994537 161.808523 
L 192.53122 124.460006 
L 193.067903 137.269471 
L 193.604585 168.371139 
L 194.141268 137.888592 
L 194.677951 132.122659 
L 195.214633 132.46725 
L 195.751316 144.777727 
L 196.287998 162.858912 
L 196.824681 121.676395 
L 197.361364 139.668505 
L 197.898046 116.678342 
L 198.434729 140.237447 
L 198.971411 146.255821 
L 199.508094 146.493381 
L 200.044777 129.748965 
L 200.581459 152.581961 
L 201.118142 130.443106 
L 201.654825 141.874217 
L 202.191507 131.123112 
L 203.264872 153.521856 
L 203.801555 153.704139 
L 204.87492 122.114541 
L 205.411603 138.371956 
L 205.948285 117.634591 
L 206.484968 175.467593 
L 207.021651 159.945833 
L 208.095016 160.216514 
L 208.631699 134.928244 
L 209.168381 120.071342 
L 209.705064 125.482412 
L 210.241746 135.810932 
L 210.778429 131.145283 
L 211.315112 136.385325 
L 211.851794 166.014337 
L 212.388477 146.66856 
L 212.925159 146.884376 
L 213.461842 156.695192 
L 213.998525 123.469579 
L 214.535207 142.782006 
L 215.07189 147.728226 
L 215.608573 105.823229 
L 216.145255 143.488404 
L 216.681938 162.203394 
L 217.755303 112.226992 
L 218.291986 144.399887 
L 218.828668 162.654838 
L 219.365351 153.804174 
L 219.902033 131.702035 
L 220.438716 140.852021 
L 220.975399 127.895736 
L 221.512081 145.705259 
L 222.048764 141.569918 
L 222.585447 159.085808 
L 223.122129 146.331838 
L 223.658812 146.537227 
L 224.195494 150.983819 
L 224.732177 151.159974 
L 225.26886 147.141399 
L 225.805542 164.013389 
L 226.342225 151.679483 
L 226.878907 147.730023 
L 227.41559 123.349529 
L 227.952273 131.82706 
L 228.488955 148.303071 
L 229.025638 140.441765 
L 229.562321 148.677001 
L 230.099003 152.839545 
L 230.635686 129.26745 
L 231.172368 129.562451 
L 231.709051 133.764453 
L 232.245734 153.47177 
L 232.782416 149.76031 
L 233.319099 149.935681 
L 233.855781 134.820519 
L 234.392464 146.481067 
L 235.465829 146.863575 
L 236.002512 135.841055 
L 236.539195 150.956405 
L 237.075877 132.642794 
L 237.61256 132.909194 
L 238.685925 140.704701 
L 239.222608 130.07989 
L 239.75929 166.307191 
L 240.295973 123.481157 
L 240.832656 134.460825 
L 241.369338 148.858152 
L 241.906021 149.030734 
L 242.442703 152.700309 
L 242.979386 142.412576 
L 243.516069 159.922365 
L 244.052751 125.611226 
L 244.589434 156.720397 
L 245.126116 153.442524 
L 245.662799 160.362481 
L 246.199482 136.883723 
L 246.736164 127.06021 
L 247.272847 164.017372 
L 247.80953 120.991176 
L 248.346212 147.697063 
L 248.882895 147.869569 
L 249.419577 151.305682 
L 249.95626 144.963459 
L 250.492943 148.379783 
L 251.029625 142.119336 
L 251.566308 161.502868 
L 252.10299 136.15436 
L 252.639673 158.53525 
L 253.176356 136.610488 
L 253.713038 146.232649 
L 254.249721 146.408515 
L 254.786404 149.683351 
L 255.323086 149.840797 
L 255.859769 146.927927 
L 256.396451 140.991386 
L 256.933134 150.305717 
L 257.469817 138.366748 
L 258.006499 129.555784 
L 258.543182 129.811571 
L 258.543182 129.811571 
" clip-path="url(#pe52d7756d7)" style="fill: none; stroke: #0000ff; stroke-opacity: 0.5; stroke-linecap: square"/>
   </g>
   <g id="line2d_15">
    <path d="M 44.406818 180.687273 
L 99.685128 180.687273 
L 100.22181 102.930601 
L 100.758493 180.687273 
L 101.831858 180.687273 
L 102.368541 36.428901 
L 102.905223 180.687273 
L 103.441906 111.145333 
L 103.978589 180.687273 
L 105.051954 180.687273 
L 105.588636 115.919478 
L 106.125319 180.687273 
L 106.662002 118.124063 
L 107.198684 180.687273 
L 107.735367 120.217969 
L 108.272049 180.687273 
L 109.345415 65.647462 
L 110.41878 69.343296 
L 110.955463 125.905949 
L 111.492145 72.86369 
L 112.028828 74.561518 
L 112.56551 180.687273 
L 113.102193 77.839448 
L 113.638876 130.05446 
L 114.712241 131.583039 
L 115.248923 180.687273 
L 115.785606 133.04325 
L 116.322289 133.748959 
L 117.395654 43.96869 
L 117.932337 135.774804 
L 119.005702 137.053491 
L 119.542384 94.657438 
L 120.079067 180.687273 
L 120.61575 138.87127 
L 121.152432 139.452013 
L 121.689115 58.687961 
L 122.225797 100.468662 
L 122.76248 22.432727 
L 123.299163 180.687273 
L 123.835845 142.182106 
L 124.372528 180.687273 
L 124.909211 105.710049 
L 125.445893 180.687273 
L 125.982576 144.17555 
L 126.519258 144.649742 
L 127.055941 109.542228 
L 127.592624 145.570736 
L 128.129306 76.679782 
L 128.665989 77.996144 
L 129.202671 180.687273 
L 129.739354 180.687273 
L 130.276037 81.799338 
L 130.812719 83.020122 
L 131.349402 180.687273 
L 131.886085 148.923211 
L 132.422767 149.308177 
L 132.95945 87.68395 
L 133.496132 150.057477 
L 134.032815 120.157153 
L 134.569498 120.873327 
L 135.10618 151.1322 
L 135.642863 122.268394 
L 136.716228 180.687273 
L 137.789593 124.915992 
L 138.326276 125.549727 
L 138.862959 98.91535 
L 139.399641 99.834215 
L 139.936324 127.387318 
L 140.473006 180.687273 
L 141.009689 76.436804 
L 141.546372 154.911108 
L 142.083054 53.214626 
L 142.619737 130.252512 
L 143.156419 80.908139 
L 143.693102 131.334166 
L 144.229785 107.449385 
L 144.766467 156.534318 
L 145.30315 156.789917 
L 145.839833 86.104164 
L 146.376515 157.289105 
L 146.913198 180.687273 
L 147.44988 134.858195 
L 147.986563 135.330644 
L 148.523246 68.458517 
L 149.059928 136.253865 
L 149.596611 180.687273 
L 150.133293 180.687273 
L 151.206659 138.017831 
L 151.743341 159.564842 
L 152.280024 117.947331 
L 152.816707 139.272774 
L 153.353389 180.687273 
L 153.890072 79.166226 
L 154.426754 160.580193 
L 154.963437 140.861549 
L 155.50012 160.96599 
L 156.036802 83.024148 
L 156.573485 103.301082 
L 157.110167 180.687273 
L 157.64685 142.722319 
L 158.183533 124.274882 
L 158.720215 143.430471 
L 159.256898 143.777045 
L 159.793581 125.834525 
L 160.330263 162.571494 
L 160.866946 180.687273 
L 161.403628 127.330329 
L 161.940311 110.191483 
L 162.476994 128.29365 
L 164.087041 129.691027 
L 164.623724 146.991909 
L 165.160407 180.687273 
L 165.697089 131.03282 
L 166.233772 131.468316 
L 166.770455 164.424332 
L 167.307137 116.201106 
L 167.84382 148.72327 
L 168.380502 133.154675 
L 168.917185 86.437954 
L 169.453868 180.687273 
L 169.99055 149.804353 
L 170.527233 180.687273 
L 171.063915 150.324463 
L 171.600598 90.364441 
L 172.137281 120.975919 
L 172.673963 121.473664 
L 173.210646 151.326142 
L 174.284011 151.808504 
L 174.820694 166.366258 
L 175.357376 138.074948 
L 176.430742 138.763604 
L 176.967424 152.963499 
L 177.504107 180.687273 
L 178.040789 139.765634 
L 178.577472 167.155417 
L 179.114155 126.989389 
L 179.650837 140.732135 
L 180.18752 141.046769 
L 180.724203 115.138136 
L 181.260885 154.672433 
L 181.797568 129.062484 
L 182.870933 129.858188 
L 183.944298 105.610133 
L 184.480981 155.852541 
L 185.017663 168.364388 
L 185.554346 143.998687 
L 187.164394 180.687273 
L 187.701077 133.220916 
L 188.237759 110.017002 
L 188.774442 133.922747 
L 189.311124 169.082432 
L 190.38449 169.252171 
L 190.921172 146.632345 
L 191.457855 101.803487 
L 191.994537 147.125054 
L 192.53122 147.367419 
L 193.067903 114.526824 
L 193.604585 115.001237 
L 194.141268 158.948263 
L 195.214633 137.825036 
L 195.751316 159.407544 
L 196.287998 96.167649 
L 196.824681 170.196452 
L 197.361364 159.852345 
L 197.898046 97.928261 
L 198.434729 160.141332 
L 198.971411 150.081542 
L 199.508094 170.55575 
L 200.044777 130.377839 
L 200.581459 130.72228 
L 201.118142 160.837728 
L 201.654825 160.972706 
L 202.191507 112.154128 
L 202.72819 141.790198 
L 203.264872 161.369646 
L 203.801555 151.90527 
L 204.338238 171.157442 
L 204.87492 161.754674 
L 205.411603 161.880468 
L 205.948285 152.663862 
L 206.484968 152.848986 
L 207.021651 134.595187 
L 207.558333 162.371358 
L 208.095016 171.589159 
L 208.631699 135.493176 
L 209.168381 135.786584 
L 209.705064 127.155294 
L 210.241746 136.364964 
L 210.778429 136.649954 
L 211.315112 145.683268 
L 211.851794 119.821772 
L 212.388477 146.128583 
L 212.925159 146.347827 
L 213.461842 180.687273 
L 213.998525 138.303801 
L 214.535207 138.57031 
L 215.07189 147.205069 
L 216.145255 147.621616 
L 216.681938 156.042104 
L 217.21862 131.70203 
L 217.755303 164.459654 
L 218.291986 140.36796 
L 219.365351 124.92974 
L 219.902033 164.853662 
L 220.438716 117.737746 
L 220.975399 141.582436 
L 222.048764 126.599086 
L 222.585447 142.284673 
L 223.122129 150.149111 
L 223.658812 165.509476 
L 224.195494 142.968603 
L 224.732177 165.689281 
L 225.26886 113.595536 
L 225.805542 143.634203 
L 226.342225 143.851986 
L 226.878907 122.096613 
L 227.952273 166.210175 
L 228.488955 144.704831 
L 229.025638 137.75874 
L 229.562321 116.666735 
L 230.099003 131.180209 
L 230.635686 159.591964 
L 231.172368 124.755848 
L 231.709051 125.075052 
L 232.245734 139.216036 
L 232.782416 166.941958 
L 233.319099 132.851469 
L 233.855781 167.097125 
L 234.392464 146.90337 
L 234.929147 147.093056 
L 235.465829 133.918712 
L 236.002512 127.53621 
L 236.539195 154.259838 
L 237.075877 121.555613 
L 237.61256 148.018503 
L 238.149242 148.198922 
L 239.222608 135.702939 
L 239.75929 155.122686 
L 240.295973 123.481161 
L 240.832656 155.401015 
L 241.369338 149.251107 
L 241.906021 124.408987 
L 242.442703 155.809975 
L 242.979386 162.129846 
L 243.516069 131.466753 
L 244.052751 113.372108 
L 244.589434 150.253147 
L 245.126116 132.25217 
L 245.662799 144.554314 
L 246.199482 138.755676 
L 246.736164 144.935905 
L 247.272847 133.270674 
L 247.80953 168.895453 
L 248.346212 145.497724 
L 248.882895 128.178951 
L 249.419577 140.060882 
L 249.95626 128.725367 
L 250.492943 146.225957 
L 251.566308 157.950204 
L 252.10299 146.757437 
L 252.639673 169.435454 
L 253.176356 147.104965 
L 253.713038 147.276734 
L 254.249721 141.907268 
L 254.786404 142.104623 
L 255.323086 158.752004 
L 255.859769 137.038833 
L 256.396451 153.544789 
L 256.933134 142.87912 
L 258.006499 153.951855 
L 258.543182 164.72627 
L 258.543182 164.72627 
" clip-path="url(#pe52d7756d7)" style="fill: none; stroke: #ff0000; stroke-opacity: 0.5; stroke-linecap: square"/>
   </g>
   <g id="patch_3">
    <path d="M 33.7 188.6 
L 33.7 14.52 
" style="fill: none; stroke: #000000; stroke-width: 0.8; stroke-linejoin: miter; stroke-linecap: square"/>
   </g>
   <g id="patch_4">
    <path d="M 269.25 188.6 
L 269.25 14.52 
" style="fill: none; stroke: #000000; stroke-width: 0.8; stroke-linejoin: miter; stroke-linecap: square"/>
   </g>
   <g id="patch_5">
    <path d="M 33.7 188.6 
L 269.25 188.6 
" style="fill: none; stroke: #000000; stroke-width: 0.8; stroke-linejoin: miter; stroke-linecap: square"/>
   </g>
   <g id="patch_6">
    <path d="M 33.7 14.52 
L 269.25 14.52 
" style="fill: none; stroke: #000000; stroke-width: 0.8; stroke-linejoin: miter; stroke-linecap: square"/>
   </g>
   <g id="legend_1">
    <g id="patch_7">
     <path d="M 213.917188 66.554375 
L 262.25 66.554375 
Q 264.25 66.554375 264.25 64.554375 
L 264.25 21.52 
Q 264.25 19.52 262.25 19.52 
L 213.917188 19.52 
Q 211.917188 19.52 211.917188 21.52 
L 211.917188 64.554375 
Q 211.917188 66.554375 213.917188 66.554375 
z
" style="fill: #ffffff; opacity: 0.8; stroke: #cccccc; stroke-linejoin: miter"/>
    </g>
    <g id="line2d_16">
     <path d="M 215.917188 27.618438 
L 225.917188 27.618438 
L 235.917188 27.618438 
" style="fill: none; stroke: #000000; stroke-opacity: 0.5; stroke-width: 0.5; stroke-linecap: square"/>
    </g>
    <g id="text_15">
     <!-- all -->
     <g transform="translate(243.917188 31.118438) scale(0.1 -0.1)">
      <defs>
       <path id="DejaVuSans-61" d="M 2194 1759 
Q 1497 1759 1228 1600 
Q 959 1441 959 1056 
Q 959 750 1161 570 
Q 1363 391 1709 391 
Q 2188 391 2477 730 
Q 2766 1069 2766 1631 
L 2766 1759 
L 2194 1759 
z
M 3341 1997 
L 3341 0 
L 2766 0 
L 2766 531 
Q 2569 213 2275 61 
Q 1981 -91 1556 -91 
Q 1019 -91 701 211 
Q 384 513 384 1019 
Q 384 1609 779 1909 
Q 1175 2209 1959 2209 
L 2766 2209 
L 2766 2266 
Q 2766 2663 2505 2880 
Q 2244 3097 1772 3097 
Q 1472 3097 1187 3025 
Q 903 2953 641 2809 
L 641 3341 
Q 956 3463 1253 3523 
Q 1550 3584 1831 3584 
Q 2591 3584 2966 3190 
Q 3341 2797 3341 1997 
z
" transform="scale(0.015625)"/>
       <path id="DejaVuSans-6c" d="M 603 4863 
L 1178 4863 
L 1178 0 
L 603 0 
L 603 4863 
z
" transform="scale(0.015625)"/>
      </defs>
      <use xlink:href="#DejaVuSans-61"/>
      <use xlink:href="#DejaVuSans-6c" transform="translate(61.279297 0)"/>
      <use xlink:href="#DejaVuSans-6c" transform="translate(89.0625 0)"/>
     </g>
    </g>
    <g id="line2d_17">
     <path d="M 215.917188 42.296563 
L 225.917188 42.296563 
L 235.917188 42.296563 
" style="fill: none; stroke: #0000ff; stroke-opacity: 0.5; stroke-linecap: square"/>
    </g>
    <g id="text_16">
     <!-- 1-1 -->
     <g transform="translate(243.917188 45.796563) scale(0.1 -0.1)">
      <defs>
       <path id="DejaVuSans-2d" d="M 313 2009 
L 1997 2009 
L 1997 1497 
L 313 1497 
L 313 2009 
z
" transform="scale(0.015625)"/>
      </defs>
      <use xlink:href="#DejaVuSans-31"/>
      <use xlink:href="#DejaVuSans-2d" transform="translate(63.623047 0)"/>
      <use xlink:href="#DejaVuSans-31" transform="translate(99.707031 0)"/>
     </g>
    </g>
    <g id="line2d_18">
     <path d="M 215.917188 56.974688 
L 225.917188 56.974688 
L 235.917188 56.974688 
" style="fill: none; stroke: #ff0000; stroke-opacity: 0.5; stroke-linecap: square"/>
    </g>
    <g id="text_17">
     <!-- 2-2 -->
     <g transform="translate(243.917188 60.474688) scale(0.1 -0.1)">
      <use xlink:href="#DejaVuSans-32"/>
      <use xlink:href="#DejaVuSans-2d" transform="translate(63.623047 0)"/>
      <use xlink:href="#DejaVuSans-32" transform="translate(99.707031 0)"/>
     </g>
    </g>
   </g>
  </g>
 </g>
 <defs>
  <clipPath id="pe52d7756d7">
   <rect x="33.7" y="14.52" width="235.55" height="174.08"/>
  </clipPath>
 </defs>
</svg>
