<?xml version="1.0" encoding="utf-8" standalone="no"?>
<!DOCTYPE svg PUBLIC "-//W3C//DTD SVG 1.1//EN"
  "http://www.w3.org/Graphics/SVG/1.1/DTD/svg11.dtd">
<svg xmlns:xlink="http://www.w3.org/1999/xlink" width="288pt" height="216pt" viewBox="0 0 288 216" xmlns="http://www.w3.org/2000/svg" version="1.1">
 <metadata>
  <rdf:RDF xmlns:dc="http://purl.org/dc/elements/1.1/" xmlns:cc="http://creativecommons.org/ns#" xmlns:rdf="http://www.w3.org/1999/02/22-rdf-syntax-ns#">
   <cc:Work>
    <dc:type rdf:resource="http://purl.org/dc/dcmitype/StillImage"/>
    <dc:date>2025-09-18T00:41:57.563345</dc:date>
    <dc:format>image/svg+xml</dc:format>
    <dc:creator>
     <cc:Agent>
      <dc:title>Matplotlib v3.10.0, https://matplotlib.org/</dc:title>
     </cc:Agent>
    </dc:creator>
   </cc:Work>
  </rdf:RDF>
 </metadata>
 <defs>
  <style type="text/css">*{stroke-linejoin: round; stroke-linecap: butt}</style>
 </defs>
 <g id="figure_1">
  <g id="patch_1">
   <path d="M 0 216 
L 288 216 
L 288 0 
L 0 0 
z
" style="fill: #ffffff"/>
  </g>
  <g id="axes_1">
   <g id="patch_2">
    <path d="M 33.7 188.6 
L 269.25 188.6 
L 269.25 14.52 
L 33.7 14.52 
z
" style="fill: #ffffff"/>
   </g>
   <g id="matplotlib.axis_1">
    <g id="xtick_1">
     <g id="line2d_1">
      <defs>
       <path id="m2cc3d8c9ec" d="M 0 0 
L 0 3.5 
" style="stroke: #000000; stroke-width: 0.8"/>
      </defs>
      <g>
       <use xlink:href="#m2cc3d8c9ec" x="44.138477" y="188.6" style="stroke: #000000; stroke-width: 0.8"/>
      </g>
     </g>
     <g id="text_1">
      <!-- 0 -->
      <g transform="translate(40.957227 203.198437) scale(0.1 -0.1)">
       <defs>
        <path id="DejaVuSans-30" d="M 2034 4250 
Q 1547 4250 1301 3770 
Q 1056 3291 1056 2328 
Q 1056 1369 1301 889 
Q 1547 409 2034 409 
Q 2525 409 2770 889 
Q 3016 1369 3016 2328 
Q 3016 3291 2770 3770 
Q 2525 4250 2034 4250 
z
M 2034 4750 
Q 2819 4750 3233 4129 
Q 3647 3509 3647 2328 
Q 3647 1150 3233 529 
Q 2819 -91 2034 -91 
Q 1250 -91 836 529 
Q 422 1150 422 2328 
Q 422 3509 836 4129 
Q 1250 4750 2034 4750 
z
" transform="scale(0.015625)"/>
       </defs>
       <use xlink:href="#DejaVuSans-30"/>
      </g>
     </g>
    </g>
    <g id="xtick_2">
     <g id="line2d_2">
      <g>
       <use xlink:href="#m2cc3d8c9ec" x="87.073086" y="188.6" style="stroke: #000000; stroke-width: 0.8"/>
      </g>
     </g>
     <g id="text_2">
      <!-- 200 -->
      <g transform="translate(77.529336 203.198437) scale(0.1 -0.1)">
       <defs>
        <path id="DejaVuSans-32" d="M 1228 531 
L 3431 531 
L 3431 0 
L 469 0 
L 469 531 
Q 828 903 1448 1529 
Q 2069 2156 2228 2338 
Q 2531 2678 2651 2914 
Q 2772 3150 2772 3378 
Q 2772 3750 2511 3984 
Q 2250 4219 1831 4219 
Q 1534 4219 1204 4116 
Q 875 4013 500 3803 
L 500 4441 
Q 881 4594 1212 4672 
Q 1544 4750 1819 4750 
Q 2544 4750 2975 4387 
Q 3406 4025 3406 3419 
Q 3406 3131 3298 2873 
Q 3191 2616 2906 2266 
Q 2828 2175 2409 1742 
Q 1991 1309 1228 531 
z
" transform="scale(0.015625)"/>
       </defs>
       <use xlink:href="#DejaVuSans-32"/>
       <use xlink:href="#DejaVuSans-30" transform="translate(63.623047 0)"/>
       <use xlink:href="#DejaVuSans-30" transform="translate(127.246094 0)"/>
      </g>
     </g>
    </g>
    <g id="xtick_3">
     <g id="line2d_3">
      <g>
       <use xlink:href="#m2cc3d8c9ec" x="130.007695" y="188.6" style="stroke: #000000; stroke-width: 0.8"/>
      </g>
     </g>
     <g id="text_3">
      <!-- 400 -->
      <g transform="translate(120.463945 203.198437) scale(0.1 -0.1)">
       <defs>
        <path id="DejaVuSans-34" d="M 2419 4116 
L 825 1625 
L 2419 1625 
L 2419 4116 
z
M 2253 4666 
L 3047 4666 
L 3047 1625 
L 3713 1625 
L 3713 1100 
L 3047 1100 
L 3047 0 
L 2419 0 
L 2419 1100 
L 313 1100 
L 313 1709 
L 2253 4666 
z
" transform="scale(0.015625)"/>
       </defs>
       <use xlink:href="#DejaVuSans-34"/>
       <use xlink:href="#DejaVuSans-30" transform="translate(63.623047 0)"/>
       <use xlink:href="#DejaVuSans-30" transform="translate(127.246094 0)"/>
      </g>
     </g>
    </g>
    <g id="xtick_4">
     <g id="line2d_4">
      <g>
       <use xlink:href="#m2cc3d8c9ec" x="172.942305" y="188.6" style="stroke: #000000; stroke-width: 0.8"/>
      </g>
     </g>
     <g id="text_4">
      <!-- 600 -->
      <g transform="translate(163.398555 203.198437) scale(0.1 -0.1)">
       <defs>
        <path id="DejaVuSans-36" d="M 2113 2584 
Q 1688 2584 1439 2293 
Q 1191 2003 1191 1497 
Q 1191 994 1439 701 
Q 1688 409 2113 409 
Q 2538 409 2786 701 
Q 3034 994 3034 1497 
Q 3034 2003 2786 2293 
Q 2538 2584 2113 2584 
z
M 3366 4563 
L 3366 3988 
Q 3128 4100 2886 4159 
Q 2644 4219 2406 4219 
Q 1781 4219 1451 3797 
Q 1122 3375 1075 2522 
Q 1259 2794 1537 2939 
Q 1816 3084 2150 3084 
Q 2853 3084 3261 2657 
Q 3669 2231 3669 1497 
Q 3669 778 3244 343 
Q 2819 -91 2113 -91 
Q 1303 -91 875 529 
Q 447 1150 447 2328 
Q 447 3434 972 4092 
Q 1497 4750 2381 4750 
Q 2619 4750 2861 4703 
Q 3103 4656 3366 4563 
z
" transform="scale(0.015625)"/>
       </defs>
       <use xlink:href="#DejaVuSans-36"/>
       <use xlink:href="#DejaVuSans-30" transform="translate(63.623047 0)"/>
       <use xlink:href="#DejaVuSans-30" transform="translate(127.246094 0)"/>
      </g>
     </g>
    </g>
    <g id="xtick_5">
     <g id="line2d_5">
      <g>
       <use xlink:href="#m2cc3d8c9ec" x="215.876914" y="188.6" style="stroke: #000000; stroke-width: 0.8"/>
      </g>
     </g>
     <g id="text_5">
      <!-- 800 -->
      <g transform="translate(206.333164 203.198437) scale(0.1 -0.1)">
       <defs>
        <path id="DejaVuSans-38" d="M 2034 2216 
Q 1584 2216 1326 1975 
Q 1069 1734 1069 1313 
Q 1069 891 1326 650 
Q 1584 409 2034 409 
Q 2484 409 2743 651 
Q 3003 894 3003 1313 
Q 3003 1734 2745 1975 
Q 2488 2216 2034 2216 
z
M 1403 2484 
Q 997 2584 770 2862 
Q 544 3141 544 3541 
Q 544 4100 942 4425 
Q 1341 4750 2034 4750 
Q 2731 4750 3128 4425 
Q 3525 4100 3525 3541 
Q 3525 3141 3298 2862 
Q 3072 2584 2669 2484 
Q 3125 2378 3379 2068 
Q 3634 1759 3634 1313 
Q 3634 634 3220 271 
Q 2806 -91 2034 -91 
Q 1263 -91 848 271 
Q 434 634 434 1313 
Q 434 1759 690 2068 
Q 947 2378 1403 2484 
z
M 1172 3481 
Q 1172 3119 1398 2916 
Q 1625 2713 2034 2713 
Q 2441 2713 2670 2916 
Q 2900 3119 2900 3481 
Q 2900 3844 2670 4047 
Q 2441 4250 2034 4250 
Q 1625 4250 1398 4047 
Q 1172 3844 1172 3481 
z
" transform="scale(0.015625)"/>
       </defs>
       <use xlink:href="#DejaVuSans-38"/>
       <use xlink:href="#DejaVuSans-30" transform="translate(63.623047 0)"/>
       <use xlink:href="#DejaVuSans-30" transform="translate(127.246094 0)"/>
      </g>
     </g>
    </g>
    <g id="xtick_6">
     <g id="line2d_6">
      <g>
       <use xlink:href="#m2cc3d8c9ec" x="258.811523" y="188.6" style="stroke: #000000; stroke-width: 0.8"/>
      </g>
     </g>
     <g id="text_6">
      <!-- 1000 -->
      <g transform="translate(246.086523 203.198437) scale(0.1 -0.1)">
       <defs>
        <path id="DejaVuSans-31" d="M 794 531 
L 1825 531 
L 1825 4091 
L 703 3866 
L 703 4441 
L 1819 4666 
L 2450 4666 
L 2450 531 
L 3481 531 
L 3481 0 
L 794 0 
L 794 531 
z
" transform="scale(0.015625)"/>
       </defs>
       <use xlink:href="#DejaVuSans-31"/>
       <use xlink:href="#DejaVuSans-30" transform="translate(63.623047 0)"/>
       <use xlink:href="#DejaVuSans-30" transform="translate(127.246094 0)"/>
       <use xlink:href="#DejaVuSans-30" transform="translate(190.869141 0)"/>
      </g>
     </g>
    </g>
    <g id="text_7">
     <!-- q (nm) -->
     <g transform="translate(134.771094 216.876563) scale(0.1 -0.1)">
      <defs>
       <path id="DejaVuSans-71" d="M 947 1747 
Q 947 1113 1208 752 
Q 1469 391 1925 391 
Q 2381 391 2643 752 
Q 2906 1113 2906 1747 
Q 2906 2381 2643 2742 
Q 2381 3103 1925 3103 
Q 1469 3103 1208 2742 
Q 947 2381 947 1747 
z
M 2906 525 
Q 2725 213 2448 61 
Q 2172 -91 1784 -91 
Q 1150 -91 751 415 
Q 353 922 353 1747 
Q 353 2572 751 3078 
Q 1150 3584 1784 3584 
Q 2172 3584 2448 3432 
Q 2725 3281 2906 2969 
L 2906 3500 
L 3481 3500 
L 3481 -1331 
L 2906 -1331 
L 2906 525 
z
" transform="scale(0.015625)"/>
       <path id="DejaVuSans-20" transform="scale(0.015625)"/>
       <path id="DejaVuSans-28" d="M 1984 4856 
Q 1566 4138 1362 3434 
Q 1159 2731 1159 2009 
Q 1159 1288 1364 580 
Q 1569 -128 1984 -844 
L 1484 -844 
Q 1016 -109 783 600 
Q 550 1309 550 2009 
Q 550 2706 781 3412 
Q 1013 4119 1484 4856 
L 1984 4856 
z
" transform="scale(0.015625)"/>
       <path id="DejaVuSans-6e" d="M 3513 2113 
L 3513 0 
L 2938 0 
L 2938 2094 
Q 2938 2591 2744 2837 
Q 2550 3084 2163 3084 
Q 1697 3084 1428 2787 
Q 1159 2491 1159 1978 
L 1159 0 
L 581 0 
L 581 3500 
L 1159 3500 
L 1159 2956 
Q 1366 3272 1645 3428 
Q 1925 3584 2291 3584 
Q 2894 3584 3203 3211 
Q 3513 2838 3513 2113 
z
" transform="scale(0.015625)"/>
       <path id="DejaVuSans-6d" d="M 3328 2828 
Q 3544 3216 3844 3400 
Q 4144 3584 4550 3584 
Q 5097 3584 5394 3201 
Q 5691 2819 5691 2113 
L 5691 0 
L 5113 0 
L 5113 2094 
Q 5113 2597 4934 2840 
Q 4756 3084 4391 3084 
Q 3944 3084 3684 2787 
Q 3425 2491 3425 1978 
L 3425 0 
L 2847 0 
L 2847 2094 
Q 2847 2600 2669 2842 
Q 2491 3084 2119 3084 
Q 1678 3084 1418 2786 
Q 1159 2488 1159 1978 
L 1159 0 
L 581 0 
L 581 3500 
L 1159 3500 
L 1159 2956 
Q 1356 3278 1631 3431 
Q 1906 3584 2284 3584 
Q 2666 3584 2933 3390 
Q 3200 3197 3328 2828 
z
" transform="scale(0.015625)"/>
       <path id="DejaVuSans-29" d="M 513 4856 
L 1013 4856 
Q 1481 4119 1714 3412 
Q 1947 2706 1947 2009 
Q 1947 1309 1714 600 
Q 1481 -109 1013 -844 
L 513 -844 
Q 928 -128 1133 580 
Q 1338 1288 1338 2009 
Q 1338 2731 1133 3434 
Q 928 4138 513 4856 
z
" transform="scale(0.015625)"/>
      </defs>
      <use xlink:href="#DejaVuSans-71"/>
      <use xlink:href="#DejaVuSans-20" transform="translate(63.476562 0)"/>
      <use xlink:href="#DejaVuSans-28" transform="translate(95.263672 0)"/>
      <use xlink:href="#DejaVuSans-6e" transform="translate(134.277344 0)"/>
      <use xlink:href="#DejaVuSans-6d" transform="translate(197.65625 0)"/>
      <use xlink:href="#DejaVuSans-29" transform="translate(295.068359 0)"/>
     </g>
    </g>
   </g>
   <g id="matplotlib.axis_2">
    <g id="ytick_1">
     <g id="line2d_7">
      <defs>
       <path id="m7b92a5f904" d="M 0 0 
L -3.5 0 
" style="stroke: #000000; stroke-width: 0.8"/>
      </defs>
      <g>
       <use xlink:href="#m7b92a5f904" x="33.7" y="180.687273" style="stroke: #000000; stroke-width: 0.8"/>
      </g>
     </g>
     <g id="text_8">
      <!-- 0 -->
      <g transform="translate(20.3375 184.486491) scale(0.1 -0.1)">
       <use xlink:href="#DejaVuSans-30"/>
      </g>
     </g>
    </g>
    <g id="ytick_2">
     <g id="line2d_8">
      <g>
       <use xlink:href="#m7b92a5f904" x="33.7" y="156.53681" style="stroke: #000000; stroke-width: 0.8"/>
      </g>
     </g>
     <g id="text_9">
      <!-- 10000 -->
      <g transform="translate(-5.1125 160.336029) scale(0.1 -0.1)">
       <use xlink:href="#DejaVuSans-31"/>
       <use xlink:href="#DejaVuSans-30" transform="translate(63.623047 0)"/>
       <use xlink:href="#DejaVuSans-30" transform="translate(127.246094 0)"/>
       <use xlink:href="#DejaVuSans-30" transform="translate(190.869141 0)"/>
       <use xlink:href="#DejaVuSans-30" transform="translate(254.492188 0)"/>
      </g>
     </g>
    </g>
    <g id="ytick_3">
     <g id="line2d_9">
      <g>
       <use xlink:href="#m7b92a5f904" x="33.7" y="132.386348" style="stroke: #000000; stroke-width: 0.8"/>
      </g>
     </g>
     <g id="text_10">
      <!-- 20000 -->
      <g transform="translate(-5.1125 136.185567) scale(0.1 -0.1)">
       <use xlink:href="#DejaVuSans-32"/>
       <use xlink:href="#DejaVuSans-30" transform="translate(63.623047 0)"/>
       <use xlink:href="#DejaVuSans-30" transform="translate(127.246094 0)"/>
       <use xlink:href="#DejaVuSans-30" transform="translate(190.869141 0)"/>
       <use xlink:href="#DejaVuSans-30" transform="translate(254.492188 0)"/>
      </g>
     </g>
    </g>
    <g id="ytick_4">
     <g id="line2d_10">
      <g>
       <use xlink:href="#m7b92a5f904" x="33.7" y="108.235886" style="stroke: #000000; stroke-width: 0.8"/>
      </g>
     </g>
     <g id="text_11">
      <!-- 30000 -->
      <g transform="translate(-5.1125 112.035105) scale(0.1 -0.1)">
       <defs>
        <path id="DejaVuSans-33" d="M 2597 2516 
Q 3050 2419 3304 2112 
Q 3559 1806 3559 1356 
Q 3559 666 3084 287 
Q 2609 -91 1734 -91 
Q 1441 -91 1130 -33 
Q 819 25 488 141 
L 488 750 
Q 750 597 1062 519 
Q 1375 441 1716 441 
Q 2309 441 2620 675 
Q 2931 909 2931 1356 
Q 2931 1769 2642 2001 
Q 2353 2234 1838 2234 
L 1294 2234 
L 1294 2753 
L 1863 2753 
Q 2328 2753 2575 2939 
Q 2822 3125 2822 3475 
Q 2822 3834 2567 4026 
Q 2313 4219 1838 4219 
Q 1578 4219 1281 4162 
Q 984 4106 628 3988 
L 628 4550 
Q 988 4650 1302 4700 
Q 1616 4750 1894 4750 
Q 2613 4750 3031 4423 
Q 3450 4097 3450 3541 
Q 3450 3153 3228 2886 
Q 3006 2619 2597 2516 
z
" transform="scale(0.015625)"/>
       </defs>
       <use xlink:href="#DejaVuSans-33"/>
       <use xlink:href="#DejaVuSans-30" transform="translate(63.623047 0)"/>
       <use xlink:href="#DejaVuSans-30" transform="translate(127.246094 0)"/>
       <use xlink:href="#DejaVuSans-30" transform="translate(190.869141 0)"/>
       <use xlink:href="#DejaVuSans-30" transform="translate(254.492188 0)"/>
      </g>
     </g>
    </g>
    <g id="ytick_5">
     <g id="line2d_11">
      <g>
       <use xlink:href="#m7b92a5f904" x="33.7" y="84.085424" style="stroke: #000000; stroke-width: 0.8"/>
      </g>
     </g>
     <g id="text_12">
      <!-- 40000 -->
      <g transform="translate(-5.1125 87.884642) scale(0.1 -0.1)">
       <use xlink:href="#DejaVuSans-34"/>
       <use xlink:href="#DejaVuSans-30" transform="translate(63.623047 0)"/>
       <use xlink:href="#DejaVuSans-30" transform="translate(127.246094 0)"/>
       <use xlink:href="#DejaVuSans-30" transform="translate(190.869141 0)"/>
       <use xlink:href="#DejaVuSans-30" transform="translate(254.492188 0)"/>
      </g>
     </g>
    </g>
    <g id="ytick_6">
     <g id="line2d_12">
      <g>
       <use xlink:href="#m7b92a5f904" x="33.7" y="59.934961" style="stroke: #000000; stroke-width: 0.8"/>
      </g>
     </g>
     <g id="text_13">
      <!-- 50000 -->
      <g transform="translate(-5.1125 63.73418) scale(0.1 -0.1)">
       <defs>
        <path id="DejaVuSans-35" d="M 691 4666 
L 3169 4666 
L 3169 4134 
L 1269 4134 
L 1269 2991 
Q 1406 3038 1543 3061 
Q 1681 3084 1819 3084 
Q 2600 3084 3056 2656 
Q 3513 2228 3513 1497 
Q 3513 744 3044 326 
Q 2575 -91 1722 -91 
Q 1428 -91 1123 -41 
Q 819 9 494 109 
L 494 744 
Q 775 591 1075 516 
Q 1375 441 1709 441 
Q 2250 441 2565 725 
Q 2881 1009 2881 1497 
Q 2881 1984 2565 2268 
Q 2250 2553 1709 2553 
Q 1456 2553 1204 2497 
Q 953 2441 691 2322 
L 691 4666 
z
" transform="scale(0.015625)"/>
       </defs>
       <use xlink:href="#DejaVuSans-35"/>
       <use xlink:href="#DejaVuSans-30" transform="translate(63.623047 0)"/>
       <use xlink:href="#DejaVuSans-30" transform="translate(127.246094 0)"/>
       <use xlink:href="#DejaVuSans-30" transform="translate(190.869141 0)"/>
       <use xlink:href="#DejaVuSans-30" transform="translate(254.492188 0)"/>
      </g>
     </g>
    </g>
    <g id="ytick_7">
     <g id="line2d_13">
      <g>
       <use xlink:href="#m7b92a5f904" x="33.7" y="35.784499" style="stroke: #000000; stroke-width: 0.8"/>
      </g>
     </g>
     <g id="text_14">
      <!-- 60000 -->
      <g transform="translate(-5.1125 39.583718) scale(0.1 -0.1)">
       <use xlink:href="#DejaVuSans-36"/>
       <use xlink:href="#DejaVuSans-30" transform="translate(63.623047 0)"/>
       <use xlink:href="#DejaVuSans-30" transform="translate(127.246094 0)"/>
       <use xlink:href="#DejaVuSans-30" transform="translate(190.869141 0)"/>
       <use xlink:href="#DejaVuSans-30" transform="translate(254.492188 0)"/>
      </g>
     </g>
    </g>
    <g id="text_15">
     <!-- rdf -->
     <g transform="translate(-11.192187 108.462344) rotate(-90) scale(0.1 -0.1)">
      <defs>
       <path id="DejaVuSans-72" d="M 2631 2963 
Q 2534 3019 2420 3045 
Q 2306 3072 2169 3072 
Q 1681 3072 1420 2755 
Q 1159 2438 1159 1844 
L 1159 0 
L 581 0 
L 581 3500 
L 1159 3500 
L 1159 2956 
Q 1341 3275 1631 3429 
Q 1922 3584 2338 3584 
Q 2397 3584 2469 3576 
Q 2541 3569 2628 3553 
L 2631 2963 
z
" transform="scale(0.015625)"/>
       <path id="DejaVuSans-64" d="M 2906 2969 
L 2906 4863 
L 3481 4863 
L 3481 0 
L 2906 0 
L 2906 525 
Q 2725 213 2448 61 
Q 2172 -91 1784 -91 
Q 1150 -91 751 415 
Q 353 922 353 1747 
Q 353 2572 751 3078 
Q 1150 3584 1784 3584 
Q 2172 3584 2448 3432 
Q 2725 3281 2906 2969 
z
M 947 1747 
Q 947 1113 1208 752 
Q 1469 391 1925 391 
Q 2381 391 2643 752 
Q 2906 1113 2906 1747 
Q 2906 2381 2643 2742 
Q 2381 3103 1925 3103 
Q 1469 3103 1208 2742 
Q 947 2381 947 1747 
z
" transform="scale(0.015625)"/>
       <path id="DejaVuSans-66" d="M 2375 4863 
L 2375 4384 
L 1825 4384 
Q 1516 4384 1395 4259 
Q 1275 4134 1275 3809 
L 1275 3500 
L 2222 3500 
L 2222 3053 
L 1275 3053 
L 1275 0 
L 697 0 
L 697 3053 
L 147 3053 
L 147 3500 
L 697 3500 
L 697 3744 
Q 697 4328 969 4595 
Q 1241 4863 1831 4863 
L 2375 4863 
z
" transform="scale(0.015625)"/>
      </defs>
      <use xlink:href="#DejaVuSans-72"/>
      <use xlink:href="#DejaVuSans-64" transform="translate(39.363281 0)"/>
      <use xlink:href="#DejaVuSans-66" transform="translate(102.839844 0)"/>
     </g>
    </g>
   </g>
   <g id="line2d_14">
    <path d="M 44.406818 180.687273 
L 92.708254 180.687273 
L 93.244936 180.54847 
L 93.781619 180.551455 
L 94.318301 180.421416 
L 94.854984 180.687273 
L 95.391667 22.432727 
L 95.928349 62.883506 
L 96.465032 180.320536 
L 97.001715 180.447721 
L 97.538397 180.335131 
L 98.07508 178.731318 
L 99.685128 163.763907 
L 100.22181 171.74827 
L 100.758493 176.093286 
L 101.295175 178.638129 
L 101.831858 178.676074 
L 102.368541 179.996268 
L 102.905223 180.590353 
L 103.441906 180.021054 
L 103.978589 180.593798 
L 104.515271 180.687273 
L 105.051954 180.506854 
L 105.588636 180.598632 
L 106.125319 179.903263 
L 106.662002 180.002288 
L 107.198684 178.835487 
L 107.735367 177.376975 
L 108.272049 171.817055 
L 108.808732 174.204599 
L 109.345415 177.302272 
L 109.882097 178.983573 
L 110.41878 180.077737 
L 110.955463 180.537327 
L 111.492145 179.949443 
L 112.028828 178.944366 
L 112.56551 177.112957 
L 113.638876 161.42316 
L 114.175558 160.693737 
L 114.712241 174.034139 
L 115.248923 177.907168 
L 115.785606 178.209485 
L 116.322289 177.475316 
L 116.858971 168.78792 
L 117.395654 161.913786 
L 117.932337 164.521563 
L 118.469019 175.356055 
L 119.005702 178.298609 
L 119.542384 179.56875 
L 120.079067 180.280989 
L 120.61575 180.401129 
L 121.152432 180.235801 
L 121.689115 180.520306 
L 122.225797 180.467701 
L 122.76248 180.254103 
L 123.299163 180.31337 
L 123.835845 180.581877 
L 124.372528 180.323307 
L 124.909211 180.430741 
L 125.445893 180.130329 
L 125.982576 179.388067 
L 126.519258 177.629404 
L 127.055941 173.628084 
L 127.592624 173.045732 
L 128.129306 174.993544 
L 128.665989 173.285413 
L 129.202671 168.567698 
L 129.739354 169.632798 
L 130.276037 175.634704 
L 130.812719 179.127837 
L 131.349402 180.027144 
L 132.422767 180.429603 
L 132.95945 180.55999 
L 133.496132 180.393836 
L 134.032815 180.39733 
L 134.569498 180.523552 
L 135.10618 180.444581 
L 135.642863 179.967711 
L 136.179545 176.617659 
L 136.716228 166.74497 
L 137.252911 168.372188 
L 137.789593 175.916785 
L 138.326276 176.574677 
L 138.862959 167.854705 
L 139.399641 155.753152 
L 139.936324 163.727425 
L 140.473006 174.411533 
L 141.009689 178.547136 
L 141.546372 179.628966 
L 142.083054 180.094118 
L 142.619737 179.755444 
L 143.156419 178.16098 
L 143.693102 174.067963 
L 144.229785 171.298841 
L 144.766467 173.249808 
L 145.30315 176.402841 
L 145.839833 160.590916 
L 146.376515 157.951365 
L 146.913198 177.32825 
L 147.44988 177.958908 
L 147.986563 173.734934 
L 148.523246 165.419958 
L 149.059928 165.150076 
L 149.596611 173.433956 
L 150.133293 178.333647 
L 150.669976 179.713992 
L 151.206659 180.36609 
L 151.743341 179.848945 
L 152.280024 177.39578 
L 152.816707 173.942435 
L 153.353389 173.082504 
L 154.426754 179.311359 
L 154.963437 180.087718 
L 155.50012 180.039506 
L 156.036802 179.698186 
L 156.573485 177.404073 
L 157.110167 173.815941 
L 157.64685 174.63413 
L 158.183533 177.83068 
L 158.720215 179.845952 
L 159.256898 180.434699 
L 161.403628 180.41952 
L 161.940311 180.518434 
L 162.476994 180.37655 
L 163.550359 179.771793 
L 164.087041 177.686184 
L 165.160407 168.506399 
L 165.697089 171.082769 
L 166.233772 176.982452 
L 166.770455 176.658713 
L 167.307137 175.480235 
L 167.84382 175.809651 
L 168.380502 177.933385 
L 168.917185 178.73095 
L 169.453868 176.552301 
L 169.99055 173.016005 
L 170.527233 171.467594 
L 171.600598 174.362327 
L 172.137281 171.064727 
L 172.673963 166.809357 
L 173.210646 167.105339 
L 173.747329 173.793029 
L 174.284011 178.276365 
L 174.820694 179.472101 
L 175.357376 178.179571 
L 175.894059 175.153472 
L 176.430742 175.542544 
L 176.967424 176.551554 
L 177.504107 177.111697 
L 178.040789 176.356236 
L 179.114155 175.983901 
L 179.650837 175.036794 
L 180.724203 179.628699 
L 181.260885 180.384643 
L 181.797568 180.528304 
L 183.944298 180.430399 
L 184.480981 180.245423 
L 185.017663 179.186294 
L 185.554346 175.716335 
L 186.091029 171.434987 
L 186.627711 174.076371 
L 187.164394 178.134723 
L 187.701077 179.306835 
L 188.237759 179.236497 
L 188.774442 175.839176 
L 189.311124 170.09383 
L 189.847807 169.730301 
L 190.38449 172.455414 
L 190.921172 173.2146 
L 191.457855 176.739048 
L 191.994537 177.410734 
L 192.53122 174.971936 
L 193.067903 173.911393 
L 193.604585 176.671873 
L 194.141268 178.827791 
L 194.677951 179.328436 
L 195.214633 177.094307 
L 195.751316 174.221936 
L 196.287998 177.83884 
L 196.824681 176.695862 
L 197.361364 176.210513 
L 197.898046 174.89671 
L 198.434729 171.928238 
L 198.971411 173.09184 
L 199.508094 177.165344 
L 200.044777 179.323987 
L 200.581459 180.345366 
L 201.118142 180.266203 
L 201.654825 179.823878 
L 202.72819 176.681414 
L 203.264872 176.073871 
L 203.801555 177.220895 
L 204.338238 177.231038 
L 204.87492 177.99254 
L 205.411603 178.319309 
L 205.948285 177.325041 
L 206.484968 175.569294 
L 207.021651 174.366558 
L 207.558333 173.881608 
L 208.095016 175.108977 
L 208.631699 175.924668 
L 209.168381 176.27513 
L 210.241746 172.874407 
L 211.315112 178.483597 
L 211.851794 178.093083 
L 212.388477 175.330939 
L 212.925159 173.22658 
L 213.998525 176.510882 
L 214.535207 176.975213 
L 215.07189 176.929764 
L 215.608573 177.363084 
L 216.681938 179.731617 
L 217.21862 179.391156 
L 218.291986 175.798285 
L 218.828668 176.190222 
L 219.902033 177.144283 
L 220.438716 176.271991 
L 220.975399 175.89203 
L 222.048764 179.291385 
L 222.585447 179.247204 
L 223.122129 178.08559 
L 223.658812 176.491304 
L 224.195494 173.253813 
L 224.732177 172.671853 
L 225.805542 179.59193 
L 226.342225 180.273892 
L 226.878907 180.356504 
L 227.41559 180.159146 
L 227.952273 179.656989 
L 228.488955 178.333358 
L 229.562321 179.499567 
L 230.099003 179.022443 
L 230.635686 177.424878 
L 231.172368 176.831219 
L 231.709051 178.70841 
L 232.245734 179.495377 
L 232.782416 178.82492 
L 233.319099 177.236205 
L 233.855781 177.237105 
L 234.392464 179.004276 
L 234.929147 179.997624 
L 235.465829 180.339807 
L 236.002512 180.132616 
L 236.539195 179.674563 
L 237.61256 176.010605 
L 238.149242 174.94264 
L 239.222608 171.725177 
L 239.75929 173.26121 
L 240.295973 172.814629 
L 240.832656 173.471834 
L 241.369338 176.849612 
L 241.906021 178.701825 
L 242.442703 178.874285 
L 243.516069 177.032856 
L 244.052751 174.975424 
L 244.589434 174.522818 
L 245.126116 176.933737 
L 245.662799 178.470217 
L 246.199482 179.408362 
L 246.736164 179.276492 
L 247.80953 177.53227 
L 248.346212 178.287303 
L 248.882895 178.467531 
L 249.419577 176.024756 
L 249.95626 175.116649 
L 251.029625 179.099857 
L 251.566308 178.734641 
L 252.10299 177.537371 
L 252.639673 175.952055 
L 253.713038 175.185007 
L 254.249721 173.886247 
L 254.786404 173.61158 
L 255.323086 176.619522 
L 255.859769 177.670572 
L 256.396451 177.247477 
L 256.933134 176.518208 
L 258.006499 176.435547 
L 258.543182 176.107313 
L 258.543182 176.107313 
" clip-path="url(#p5964ddaee3)" style="fill: none; stroke: #000000; stroke-opacity: 0.5; stroke-width: 0.5; stroke-linecap: square"/>
   </g>
   <g id="line2d_15">
    <path d="M 44.406818 180.687273 
L 92.708254 180.687273 
L 93.244936 180.262188 
L 93.781619 180.271329 
L 94.318301 179.873085 
L 94.854984 180.687273 
L 95.391667 180.687273 
L 96.465032 179.938519 
L 97.001715 179.953645 
L 97.538397 179.608839 
L 98.07508 174.697159 
L 99.685128 128.859461 
L 100.22181 153.311573 
L 100.758493 166.618189 
L 101.295175 174.411769 
L 101.831858 174.527977 
L 102.368541 178.57107 
L 102.905223 180.390455 
L 103.441906 178.646977 
L 103.978589 180.401007 
L 104.515271 180.687273 
L 105.051954 180.134741 
L 105.588636 180.415812 
L 106.125319 178.286242 
L 106.662002 178.589505 
L 107.198684 175.01618 
L 107.735367 170.549484 
L 108.272049 153.522229 
L 108.808732 161.079183 
L 109.345415 170.320707 
L 109.882097 176.181179 
L 110.41878 179.287246 
L 110.955463 180.457668 
L 111.492145 180.461312 
L 112.028828 180.020066 
L 112.56551 180.468346 
L 113.102193 180.47174 
L 113.638876 180.262839 
L 114.175558 179.642389 
L 114.712241 179.452411 
L 115.248923 179.065545 
L 115.785606 176.094398 
L 116.322289 171.834317 
L 117.395654 124.339518 
L 117.932337 131.556261 
L 118.469019 164.917014 
L 119.005702 173.737754 
L 119.542384 177.802661 
L 120.079067 179.798528 
L 120.61575 180.161483 
L 121.152432 179.995956 
L 121.689115 180.687273 
L 122.225797 180.351053 
L 122.76248 179.526513 
L 123.299163 180.196526 
L 123.835845 180.687273 
L 124.372528 180.368803 
L 124.909211 180.687273 
L 125.445893 180.687273 
L 125.982576 180.38121 
L 126.519258 180.687273 
L 129.202671 180.687273 
L 130.276037 180.41096 
L 130.812719 180.414371 
L 131.886085 180.687273 
L 133.496132 180.302137 
L 134.032815 180.306723 
L 134.569498 180.687273 
L 135.10618 180.563399 
L 135.642863 179.340593 
L 136.179545 168.22408 
L 136.716228 138.467378 
L 137.252911 143.918151 
L 137.789593 167.830808 
L 138.326276 172.82995 
L 138.862959 156.239177 
L 139.399641 134.486759 
L 140.473006 176.379464 
L 141.009689 179.92262 
L 142.619737 180.581579 
L 143.156419 180.269069 
L 143.693102 179.756432 
L 144.229785 180.380311 
L 144.766467 180.586041 
L 145.30315 179.585503 
L 145.839833 176.227483 
L 146.376515 145.67677 
L 146.913198 176.417194 
L 147.44988 180.49519 
L 149.059928 180.687273 
L 151.743341 180.687273 
L 152.280024 180.511965 
L 152.816707 180.687273 
L 154.426754 180.518723 
L 156.036802 180.605406 
L 157.110167 180.687273 
L 162.476994 180.614074 
L 163.013676 180.397115 
L 163.550359 180.543495 
L 164.087041 180.473532 
L 164.623724 180.616659 
L 165.160407 180.407318 
L 165.697089 179.854807 
L 166.233772 178.486833 
L 167.307137 165.21371 
L 167.84382 166.35242 
L 168.380502 172.983976 
L 168.917185 177.263707 
L 169.453868 175.399997 
L 170.527233 165.35039 
L 171.063915 165.925169 
L 171.600598 167.626618 
L 172.137281 157.349787 
L 172.673963 150.719327 
L 173.210646 154.167589 
L 173.747329 167.506513 
L 174.284011 176.571932 
L 174.820694 179.426777 
L 175.357376 179.556134 
L 175.894059 179.565328 
L 176.430742 179.164414 
L 177.504107 173.367928 
L 178.040789 174.512744 
L 179.114155 179.393156 
L 179.650837 180.017417 
L 180.18752 180.354983 
L 180.724203 180.522431 
L 181.260885 180.305647 
L 183.407616 180.423022 
L 183.944298 180.267712 
L 184.480981 179.80251 
L 185.017663 177.485044 
L 185.554346 171.717198 
L 186.091029 167.715176 
L 187.164394 177.229672 
L 187.701077 179.394127 
L 188.237759 180.045506 
L 188.774442 180.295265 
L 189.311124 180.103601 
L 189.847807 180.445865 
L 190.38449 180.543489 
L 191.457855 179.270307 
L 191.994537 176.326528 
L 192.53122 171.190844 
L 193.067903 169.50292 
L 194.141268 177.953834 
L 195.214633 179.654295 
L 195.751316 178.635911 
L 196.287998 175.639257 
L 196.824681 169.87062 
L 197.361364 169.771606 
L 197.898046 171.495284 
L 198.434729 170.267465 
L 198.971411 172.477502 
L 199.508094 177.714778 
L 200.044777 179.717309 
L 200.581459 180.31032 
L 201.118142 179.980113 
L 201.654825 178.621533 
L 202.191507 174.24483 
L 202.72819 168.908418 
L 203.264872 168.420942 
L 203.801555 174.173043 
L 204.338238 178.330675 
L 204.87492 179.576343 
L 205.411603 177.613103 
L 205.948285 173.914069 
L 206.484968 171.975279 
L 207.021651 175.973546 
L 207.558333 178.921622 
L 208.095016 180.153412 
L 208.631699 179.815932 
L 209.168381 177.563285 
L 209.705064 174.217985 
L 210.241746 173.070789 
L 210.778429 176.368255 
L 211.315112 178.816693 
L 211.851794 180.432167 
L 212.925159 180.543346 
L 213.461842 180.401241 
L 213.998525 180.651744 
L 214.535207 180.510748 
L 217.21862 180.550398 
L 217.755303 180.313192 
L 218.291986 179.774726 
L 218.828668 177.596921 
L 219.365351 173.208991 
L 219.902033 172.823217 
L 220.438716 172.706111 
L 220.975399 173.803476 
L 222.048764 179.165147 
L 222.585447 179.850298 
L 223.122129 179.855309 
L 223.658812 178.619797 
L 224.195494 173.604837 
L 224.732177 169.843747 
L 225.805542 179.010029 
L 226.342225 180.069722 
L 226.878907 180.349613 
L 229.025638 180.177482 
L 229.562321 179.554328 
L 230.099003 176.655869 
L 230.635686 171.344577 
L 231.172368 169.288351 
L 231.709051 175.29713 
L 232.245734 178.717333 
L 232.782416 180.139971 
L 233.855781 180.430951 
L 234.392464 180.460715 
L 234.929147 180.293024 
L 235.465829 180.37924 
L 236.002512 179.740493 
L 236.539195 178.555043 
L 237.075877 173.857952 
L 237.61256 172.663499 
L 238.149242 175.866916 
L 238.685925 177.708095 
L 239.222608 174.89632 
L 239.75929 173.427946 
L 240.295973 168.645605 
L 240.832656 169.665126 
L 241.369338 176.049382 
L 241.906021 178.642989 
L 242.442703 179.566391 
L 242.979386 178.042764 
L 243.516069 175.143021 
L 244.052751 171.197185 
L 244.589434 172.931721 
L 245.126116 177.642185 
L 245.662799 179.627165 
L 246.199482 180.335777 
L 246.736164 180.437532 
L 247.80953 180.069485 
L 248.346212 179.630262 
L 248.882895 178.14415 
L 249.419577 173.146424 
L 249.95626 172.362943 
L 251.029625 179.034855 
L 251.566308 179.924891 
L 252.10299 180.402853 
L 252.639673 180.286415 
L 253.176356 179.443951 
L 253.713038 177.513181 
L 254.249721 174.255393 
L 254.786404 173.063741 
L 255.323086 175.354916 
L 255.859769 178.377611 
L 256.396451 177.979733 
L 256.933134 175.186269 
L 257.469817 171.227122 
L 258.543182 170.228998 
L 258.543182 170.228998 
" clip-path="url(#p5964ddaee3)" style="fill: none; stroke: #0000ff; stroke-opacity: 0.5; stroke-linecap: square"/>
   </g>
   <g id="line2d_16">
    <path d="M 44.406818 180.687273 
L 108.272049 180.687273 
L 108.808732 180.251537 
L 109.345415 180.687273 
L 109.882097 179.422404 
L 110.955463 180.279087 
L 111.492145 177.071909 
L 112.028828 172.384258 
L 112.56551 161.616314 
L 113.102193 114.015799 
L 113.638876 76.559432 
L 114.175558 73.69115 
L 114.712241 146.659965 
L 115.248923 168.434218 
L 115.785606 175.362202 
L 116.322289 178.938541 
L 116.858971 178.275052 
L 117.395654 178.64984 
L 117.932337 180.352621 
L 118.469019 179.697766 
L 119.005702 180.037025 
L 119.542384 179.725736 
L 120.079067 180.055276 
L 120.61575 180.064115 
L 121.152432 179.458266 
L 122.225797 180.687273 
L 122.76248 180.392477 
L 123.299163 179.524021 
L 123.835845 180.113454 
L 124.909211 179.569933 
L 125.445893 178.757661 
L 125.982576 174.429989 
L 126.519258 164.307399 
L 127.055941 143.579201 
L 127.592624 141.699927 
L 128.129306 163.379392 
L 128.665989 177.626588 
L 129.202671 180.435424 
L 129.739354 179.692471 
L 130.276037 180.687273 
L 130.812719 180.687273 
L 131.349402 180.447671 
L 131.886085 180.450593 
L 132.422767 180.687273 
L 136.716228 180.687273 
L 137.789593 180.27171 
L 138.326276 180.687273 
L 139.936324 180.687273 
L 140.473006 180.490905 
L 141.009689 180.493075 
L 141.546372 180.687273 
L 143.156419 180.687273 
L 143.693102 180.319533 
L 144.229785 179.777757 
L 144.766467 180.147368 
L 145.30315 177.304061 
L 145.839833 88.892705 
L 146.376515 124.548438 
L 146.913198 176.546591 
L 147.44988 180.175051 
L 147.986563 180.687273 
L 159.256898 180.687273 
L 159.793581 180.414794 
L 160.330263 180.687273 
L 161.403628 180.687273 
L 161.940311 180.293315 
L 162.476994 180.557141 
L 163.013676 180.687273 
L 163.550359 180.559471 
L 164.087041 180.687273 
L 164.623724 180.561737 
L 165.160407 180.189576 
L 165.697089 180.687273 
L 166.770455 180.081381 
L 167.307137 180.447023 
L 167.84382 180.210933 
L 168.380502 179.742807 
L 168.917185 176.35661 
L 169.453868 168.154472 
L 169.99055 157.445705 
L 170.527233 157.98498 
L 171.063915 164.737416 
L 171.600598 170.031237 
L 172.137281 170.009175 
L 172.673963 159.06789 
L 173.210646 154.434225 
L 173.747329 167.235305 
L 174.284011 176.168467 
L 174.820694 179.300061 
L 175.357376 180.158085 
L 175.894059 179.847455 
L 176.430742 179.750129 
L 176.967424 177.485358 
L 177.504107 176.69141 
L 178.040789 169.405418 
L 178.577472 168.789516 
L 179.114155 175.285745 
L 180.18752 179.604253 
L 180.724203 180.198854 
L 181.797568 180.687273 
L 182.33425 180.210167 
L 183.407616 180.405406 
L 184.480981 180.132128 
L 185.017663 180.595453 
L 185.554346 180.049401 
L 186.091029 180.144649 
L 186.627711 180.058971 
L 187.164394 180.152765 
L 187.701077 179.891491 
L 188.237759 179.809643 
L 188.774442 178.248113 
L 189.311124 175.23967 
L 189.847807 163.43464 
L 190.38449 144.986321 
L 190.921172 143.386056 
L 191.457855 162.550118 
L 191.994537 171.434367 
L 192.53122 166.701249 
L 193.067903 163.92615 
L 193.604585 171.306354 
L 194.141268 176.313772 
L 194.677951 179.481059 
L 195.214633 180.128367 
L 195.751316 180.449434 
L 196.287998 180.608551 
L 196.824681 180.530935 
L 197.898046 180.610191 
L 198.971411 180.53524 
L 199.508094 180.385305 
L 200.044777 180.387381 
L 200.581459 180.612813 
L 201.654825 180.466927 
L 203.264872 180.687273 
L 204.338238 180.616264 
L 204.87492 180.687273 
L 205.948285 180.060849 
L 206.484968 179.788416 
L 207.021651 179.313509 
L 207.558333 175.432971 
L 208.095016 168.688126 
L 208.631699 166.004979 
L 209.705064 178.626408 
L 210.241746 180.224917 
L 210.778429 180.687273 
L 211.315112 180.556862 
L 211.851794 180.622484 
L 212.388477 180.10789 
L 212.925159 180.047598 
L 213.461842 178.271897 
L 214.535207 168.197176 
L 215.07189 169.897163 
L 215.608573 175.790798 
L 216.145255 179.578569 
L 217.21862 180.62644 
L 217.755303 180.5059 
L 219.365351 180.627921 
L 220.438716 180.57001 
L 221.512081 180.281805 
L 222.048764 180.456975 
L 222.585447 180.057754 
L 223.122129 178.298043 
L 223.658812 173.33625 
L 224.195494 160.676584 
L 224.732177 158.951333 
L 225.805542 178.202467 
L 226.342225 179.973659 
L 226.878907 180.414416 
L 227.41559 180.578769 
L 233.319099 180.534515 
L 234.392464 180.435542 
L 235.465829 180.63749 
L 236.002512 180.241729 
L 236.539195 180.34267 
L 237.075877 180.246671 
L 237.61256 178.983324 
L 238.149242 175.313165 
L 239.222608 152.387924 
L 239.75929 161.590989 
L 240.295973 173.867214 
L 240.832656 178.708939 
L 241.369338 179.890867 
L 241.906021 180.034966 
L 242.442703 180.316542 
L 242.979386 179.76544 
L 243.516069 177.707417 
L 244.052751 171.11169 
L 244.589434 166.173962 
L 245.126116 173.785075 
L 245.662799 178.488532 
L 246.736164 180.554078 
L 247.80953 180.467615 
L 248.346212 180.599871 
L 248.882895 180.600328 
L 250.492943 180.130921 
L 251.029625 179.622913 
L 251.566308 177.510681 
L 252.639673 162.452191 
L 253.176356 159.042532 
L 253.713038 165.708881 
L 254.249721 168.798747 
L 254.786404 168.325344 
L 255.323086 174.63985 
L 255.859769 177.922793 
L 256.396451 179.999644 
L 258.006499 180.527904 
L 258.543182 180.607987 
L 258.543182 180.607987 
" clip-path="url(#p5964ddaee3)" style="fill: none; stroke: #ff0000; stroke-opacity: 0.5; stroke-linecap: square"/>
   </g>
   <g id="patch_3">
    <path d="M 33.7 188.6 
L 33.7 14.52 
" style="fill: none; stroke: #000000; stroke-width: 0.8; stroke-linejoin: miter; stroke-linecap: square"/>
   </g>
   <g id="patch_4">
    <path d="M 269.25 188.6 
L 269.25 14.52 
" style="fill: none; stroke: #000000; stroke-width: 0.8; stroke-linejoin: miter; stroke-linecap: square"/>
   </g>
   <g id="patch_5">
    <path d="M 33.7 188.6 
L 269.25 188.6 
" style="fill: none; stroke: #000000; stroke-width: 0.8; stroke-linejoin: miter; stroke-linecap: square"/>
   </g>
   <g id="patch_6">
    <path d="M 33.7 14.52 
L 269.25 14.52 
" style="fill: none; stroke: #000000; stroke-width: 0.8; stroke-linejoin: miter; stroke-linecap: square"/>
   </g>
   <g id="legend_1">
    <g id="patch_7">
     <path d="M 213.917188 66.554375 
L 262.25 66.554375 
Q 264.25 66.554375 264.25 64.554375 
L 264.25 21.52 
Q 264.25 19.52 262.25 19.52 
L 213.917188 19.52 
Q 211.917188 19.52 211.917188 21.52 
L 211.917188 64.554375 
Q 211.917188 66.554375 213.917188 66.554375 
z
" style="fill: #ffffff; opacity: 0.8; stroke: #cccccc; stroke-linejoin: miter"/>
    </g>
    <g id="line2d_17">
     <path d="M 215.917188 27.618438 
L 225.917188 27.618438 
L 235.917188 27.618438 
" style="fill: none; stroke: #000000; stroke-opacity: 0.5; stroke-width: 0.5; stroke-linecap: square"/>
    </g>
    <g id="text_16">
     <!-- all -->
     <g transform="translate(243.917188 31.118438) scale(0.1 -0.1)">
      <defs>
       <path id="DejaVuSans-61" d="M 2194 1759 
Q 1497 1759 1228 1600 
Q 959 1441 959 1056 
Q 959 750 1161 570 
Q 1363 391 1709 391 
Q 2188 391 2477 730 
Q 2766 1069 2766 1631 
L 2766 1759 
L 2194 1759 
z
M 3341 1997 
L 3341 0 
L 2766 0 
L 2766 531 
Q 2569 213 2275 61 
Q 1981 -91 1556 -91 
Q 1019 -91 701 211 
Q 384 513 384 1019 
Q 384 1609 779 1909 
Q 1175 2209 1959 2209 
L 2766 2209 
L 2766 2266 
Q 2766 2663 2505 2880 
Q 2244 3097 1772 3097 
Q 1472 3097 1187 3025 
Q 903 2953 641 2809 
L 641 3341 
Q 956 3463 1253 3523 
Q 1550 3584 1831 3584 
Q 2591 3584 2966 3190 
Q 3341 2797 3341 1997 
z
" transform="scale(0.015625)"/>
       <path id="DejaVuSans-6c" d="M 603 4863 
L 1178 4863 
L 1178 0 
L 603 0 
L 603 4863 
z
" transform="scale(0.015625)"/>
      </defs>
      <use xlink:href="#DejaVuSans-61"/>
      <use xlink:href="#DejaVuSans-6c" transform="translate(61.279297 0)"/>
      <use xlink:href="#DejaVuSans-6c" transform="translate(89.0625 0)"/>
     </g>
    </g>
    <g id="line2d_18">
     <path d="M 215.917188 42.296563 
L 225.917188 42.296563 
L 235.917188 42.296563 
" style="fill: none; stroke: #0000ff; stroke-opacity: 0.5; stroke-linecap: square"/>
    </g>
    <g id="text_17">
     <!-- 1-1 -->
     <g transform="translate(243.917188 45.796563) scale(0.1 -0.1)">
      <defs>
       <path id="DejaVuSans-2d" d="M 313 2009 
L 1997 2009 
L 1997 1497 
L 313 1497 
L 313 2009 
z
" transform="scale(0.015625)"/>
      </defs>
      <use xlink:href="#DejaVuSans-31"/>
      <use xlink:href="#DejaVuSans-2d" transform="translate(63.623047 0)"/>
      <use xlink:href="#DejaVuSans-31" transform="translate(99.707031 0)"/>
     </g>
    </g>
    <g id="line2d_19">
     <path d="M 215.917188 56.974688 
L 225.917188 56.974688 
L 235.917188 56.974688 
" style="fill: none; stroke: #ff0000; stroke-opacity: 0.5; stroke-linecap: square"/>
    </g>
    <g id="text_18">
     <!-- 2-2 -->
     <g transform="translate(243.917188 60.474688) scale(0.1 -0.1)">
      <use xlink:href="#DejaVuSans-32"/>
      <use xlink:href="#DejaVuSans-2d" transform="translate(63.623047 0)"/>
      <use xlink:href="#DejaVuSans-32" transform="translate(99.707031 0)"/>
     </g>
    </g>
   </g>
  </g>
 </g>
 <defs>
  <clipPath id="p5964ddaee3">
   <rect x="33.7" y="14.52" width="235.55" height="174.08"/>
  </clipPath>
 </defs>
</svg>
