<?xml version="1.0" encoding="utf-8" standalone="no"?>
<!DOCTYPE svg PUBLIC "-//W3C//DTD SVG 1.1//EN"
  "http://www.w3.org/Graphics/SVG/1.1/DTD/svg11.dtd">
<svg xmlns:xlink="http://www.w3.org/1999/xlink" width="288pt" height="216pt" viewBox="0 0 288 216" xmlns="http://www.w3.org/2000/svg" version="1.1">
 <metadata>
  <rdf:RDF xmlns:dc="http://purl.org/dc/elements/1.1/" xmlns:cc="http://creativecommons.org/ns#" xmlns:rdf="http://www.w3.org/1999/02/22-rdf-syntax-ns#">
   <cc:Work>
    <dc:type rdf:resource="http://purl.org/dc/dcmitype/StillImage"/>
    <dc:date>2025-09-17T22:45:04.372615</dc:date>
    <dc:format>image/svg+xml</dc:format>
    <dc:creator>
     <cc:Agent>
      <dc:title>Matplotlib v3.10.0, https://matplotlib.org/</dc:title>
     </cc:Agent>
    </dc:creator>
   </cc:Work>
  </rdf:RDF>
 </metadata>
 <defs>
  <style type="text/css">*{stroke-linejoin: round; stroke-linecap: butt}</style>
 </defs>
 <g id="figure_1">
  <g id="patch_1">
   <path d="M 0 216 
L 288 216 
L 288 0 
L 0 0 
z
" style="fill: #ffffff"/>
  </g>
  <g id="axes_1">
   <g id="patch_2">
    <path d="M 33.7 188.6 
L 269.25 188.6 
L 269.25 14.52 
L 33.7 14.52 
z
" style="fill: #ffffff"/>
   </g>
   <g id="matplotlib.axis_1">
    <g id="xtick_1">
     <g id="line2d_1">
      <defs>
       <path id="m0cb5893bd6" d="M 0 0 
L 0 3.5 
" style="stroke: #000000; stroke-width: 0.8"/>
      </defs>
      <g>
       <use xlink:href="#m0cb5893bd6" x="44.138477" y="188.6" style="stroke: #000000; stroke-width: 0.8"/>
      </g>
     </g>
     <g id="text_1">
      <!-- 0 -->
      <g transform="translate(40.957227 203.198437) scale(0.1 -0.1)">
       <defs>
        <path id="DejaVuSans-30" d="M 2034 4250 
Q 1547 4250 1301 3770 
Q 1056 3291 1056 2328 
Q 1056 1369 1301 889 
Q 1547 409 2034 409 
Q 2525 409 2770 889 
Q 3016 1369 3016 2328 
Q 3016 3291 2770 3770 
Q 2525 4250 2034 4250 
z
M 2034 4750 
Q 2819 4750 3233 4129 
Q 3647 3509 3647 2328 
Q 3647 1150 3233 529 
Q 2819 -91 2034 -91 
Q 1250 -91 836 529 
Q 422 1150 422 2328 
Q 422 3509 836 4129 
Q 1250 4750 2034 4750 
z
" transform="scale(0.015625)"/>
       </defs>
       <use xlink:href="#DejaVuSans-30"/>
      </g>
     </g>
    </g>
    <g id="xtick_2">
     <g id="line2d_2">
      <g>
       <use xlink:href="#m0cb5893bd6" x="87.073086" y="188.6" style="stroke: #000000; stroke-width: 0.8"/>
      </g>
     </g>
     <g id="text_2">
      <!-- 200 -->
      <g transform="translate(77.529336 203.198437) scale(0.1 -0.1)">
       <defs>
        <path id="DejaVuSans-32" d="M 1228 531 
L 3431 531 
L 3431 0 
L 469 0 
L 469 531 
Q 828 903 1448 1529 
Q 2069 2156 2228 2338 
Q 2531 2678 2651 2914 
Q 2772 3150 2772 3378 
Q 2772 3750 2511 3984 
Q 2250 4219 1831 4219 
Q 1534 4219 1204 4116 
Q 875 4013 500 3803 
L 500 4441 
Q 881 4594 1212 4672 
Q 1544 4750 1819 4750 
Q 2544 4750 2975 4387 
Q 3406 4025 3406 3419 
Q 3406 3131 3298 2873 
Q 3191 2616 2906 2266 
Q 2828 2175 2409 1742 
Q 1991 1309 1228 531 
z
" transform="scale(0.015625)"/>
       </defs>
       <use xlink:href="#DejaVuSans-32"/>
       <use xlink:href="#DejaVuSans-30" transform="translate(63.623047 0)"/>
       <use xlink:href="#DejaVuSans-30" transform="translate(127.246094 0)"/>
      </g>
     </g>
    </g>
    <g id="xtick_3">
     <g id="line2d_3">
      <g>
       <use xlink:href="#m0cb5893bd6" x="130.007695" y="188.6" style="stroke: #000000; stroke-width: 0.8"/>
      </g>
     </g>
     <g id="text_3">
      <!-- 400 -->
      <g transform="translate(120.463945 203.198437) scale(0.1 -0.1)">
       <defs>
        <path id="DejaVuSans-34" d="M 2419 4116 
L 825 1625 
L 2419 1625 
L 2419 4116 
z
M 2253 4666 
L 3047 4666 
L 3047 1625 
L 3713 1625 
L 3713 1100 
L 3047 1100 
L 3047 0 
L 2419 0 
L 2419 1100 
L 313 1100 
L 313 1709 
L 2253 4666 
z
" transform="scale(0.015625)"/>
       </defs>
       <use xlink:href="#DejaVuSans-34"/>
       <use xlink:href="#DejaVuSans-30" transform="translate(63.623047 0)"/>
       <use xlink:href="#DejaVuSans-30" transform="translate(127.246094 0)"/>
      </g>
     </g>
    </g>
    <g id="xtick_4">
     <g id="line2d_4">
      <g>
       <use xlink:href="#m0cb5893bd6" x="172.942305" y="188.6" style="stroke: #000000; stroke-width: 0.8"/>
      </g>
     </g>
     <g id="text_4">
      <!-- 600 -->
      <g transform="translate(163.398555 203.198437) scale(0.1 -0.1)">
       <defs>
        <path id="DejaVuSans-36" d="M 2113 2584 
Q 1688 2584 1439 2293 
Q 1191 2003 1191 1497 
Q 1191 994 1439 701 
Q 1688 409 2113 409 
Q 2538 409 2786 701 
Q 3034 994 3034 1497 
Q 3034 2003 2786 2293 
Q 2538 2584 2113 2584 
z
M 3366 4563 
L 3366 3988 
Q 3128 4100 2886 4159 
Q 2644 4219 2406 4219 
Q 1781 4219 1451 3797 
Q 1122 3375 1075 2522 
Q 1259 2794 1537 2939 
Q 1816 3084 2150 3084 
Q 2853 3084 3261 2657 
Q 3669 2231 3669 1497 
Q 3669 778 3244 343 
Q 2819 -91 2113 -91 
Q 1303 -91 875 529 
Q 447 1150 447 2328 
Q 447 3434 972 4092 
Q 1497 4750 2381 4750 
Q 2619 4750 2861 4703 
Q 3103 4656 3366 4563 
z
" transform="scale(0.015625)"/>
       </defs>
       <use xlink:href="#DejaVuSans-36"/>
       <use xlink:href="#DejaVuSans-30" transform="translate(63.623047 0)"/>
       <use xlink:href="#DejaVuSans-30" transform="translate(127.246094 0)"/>
      </g>
     </g>
    </g>
    <g id="xtick_5">
     <g id="line2d_5">
      <g>
       <use xlink:href="#m0cb5893bd6" x="215.876914" y="188.6" style="stroke: #000000; stroke-width: 0.8"/>
      </g>
     </g>
     <g id="text_5">
      <!-- 800 -->
      <g transform="translate(206.333164 203.198437) scale(0.1 -0.1)">
       <defs>
        <path id="DejaVuSans-38" d="M 2034 2216 
Q 1584 2216 1326 1975 
Q 1069 1734 1069 1313 
Q 1069 891 1326 650 
Q 1584 409 2034 409 
Q 2484 409 2743 651 
Q 3003 894 3003 1313 
Q 3003 1734 2745 1975 
Q 2488 2216 2034 2216 
z
M 1403 2484 
Q 997 2584 770 2862 
Q 544 3141 544 3541 
Q 544 4100 942 4425 
Q 1341 4750 2034 4750 
Q 2731 4750 3128 4425 
Q 3525 4100 3525 3541 
Q 3525 3141 3298 2862 
Q 3072 2584 2669 2484 
Q 3125 2378 3379 2068 
Q 3634 1759 3634 1313 
Q 3634 634 3220 271 
Q 2806 -91 2034 -91 
Q 1263 -91 848 271 
Q 434 634 434 1313 
Q 434 1759 690 2068 
Q 947 2378 1403 2484 
z
M 1172 3481 
Q 1172 3119 1398 2916 
Q 1625 2713 2034 2713 
Q 2441 2713 2670 2916 
Q 2900 3119 2900 3481 
Q 2900 3844 2670 4047 
Q 2441 4250 2034 4250 
Q 1625 4250 1398 4047 
Q 1172 3844 1172 3481 
z
" transform="scale(0.015625)"/>
       </defs>
       <use xlink:href="#DejaVuSans-38"/>
       <use xlink:href="#DejaVuSans-30" transform="translate(63.623047 0)"/>
       <use xlink:href="#DejaVuSans-30" transform="translate(127.246094 0)"/>
      </g>
     </g>
    </g>
    <g id="xtick_6">
     <g id="line2d_6">
      <g>
       <use xlink:href="#m0cb5893bd6" x="258.811523" y="188.6" style="stroke: #000000; stroke-width: 0.8"/>
      </g>
     </g>
     <g id="text_6">
      <!-- 1000 -->
      <g transform="translate(246.086523 203.198437) scale(0.1 -0.1)">
       <defs>
        <path id="DejaVuSans-31" d="M 794 531 
L 1825 531 
L 1825 4091 
L 703 3866 
L 703 4441 
L 1819 4666 
L 2450 4666 
L 2450 531 
L 3481 531 
L 3481 0 
L 794 0 
L 794 531 
z
" transform="scale(0.015625)"/>
       </defs>
       <use xlink:href="#DejaVuSans-31"/>
       <use xlink:href="#DejaVuSans-30" transform="translate(63.623047 0)"/>
       <use xlink:href="#DejaVuSans-30" transform="translate(127.246094 0)"/>
       <use xlink:href="#DejaVuSans-30" transform="translate(190.869141 0)"/>
      </g>
     </g>
    </g>
    <g id="text_7">
     <!-- q (nm) -->
     <g transform="translate(134.771094 216.876563) scale(0.1 -0.1)">
      <defs>
       <path id="DejaVuSans-71" d="M 947 1747 
Q 947 1113 1208 752 
Q 1469 391 1925 391 
Q 2381 391 2643 752 
Q 2906 1113 2906 1747 
Q 2906 2381 2643 2742 
Q 2381 3103 1925 3103 
Q 1469 3103 1208 2742 
Q 947 2381 947 1747 
z
M 2906 525 
Q 2725 213 2448 61 
Q 2172 -91 1784 -91 
Q 1150 -91 751 415 
Q 353 922 353 1747 
Q 353 2572 751 3078 
Q 1150 3584 1784 3584 
Q 2172 3584 2448 3432 
Q 2725 3281 2906 2969 
L 2906 3500 
L 3481 3500 
L 3481 -1331 
L 2906 -1331 
L 2906 525 
z
" transform="scale(0.015625)"/>
       <path id="DejaVuSans-20" transform="scale(0.015625)"/>
       <path id="DejaVuSans-28" d="M 1984 4856 
Q 1566 4138 1362 3434 
Q 1159 2731 1159 2009 
Q 1159 1288 1364 580 
Q 1569 -128 1984 -844 
L 1484 -844 
Q 1016 -109 783 600 
Q 550 1309 550 2009 
Q 550 2706 781 3412 
Q 1013 4119 1484 4856 
L 1984 4856 
z
" transform="scale(0.015625)"/>
       <path id="DejaVuSans-6e" d="M 3513 2113 
L 3513 0 
L 2938 0 
L 2938 2094 
Q 2938 2591 2744 2837 
Q 2550 3084 2163 3084 
Q 1697 3084 1428 2787 
Q 1159 2491 1159 1978 
L 1159 0 
L 581 0 
L 581 3500 
L 1159 3500 
L 1159 2956 
Q 1366 3272 1645 3428 
Q 1925 3584 2291 3584 
Q 2894 3584 3203 3211 
Q 3513 2838 3513 2113 
z
" transform="scale(0.015625)"/>
       <path id="DejaVuSans-6d" d="M 3328 2828 
Q 3544 3216 3844 3400 
Q 4144 3584 4550 3584 
Q 5097 3584 5394 3201 
Q 5691 2819 5691 2113 
L 5691 0 
L 5113 0 
L 5113 2094 
Q 5113 2597 4934 2840 
Q 4756 3084 4391 3084 
Q 3944 3084 3684 2787 
Q 3425 2491 3425 1978 
L 3425 0 
L 2847 0 
L 2847 2094 
Q 2847 2600 2669 2842 
Q 2491 3084 2119 3084 
Q 1678 3084 1418 2786 
Q 1159 2488 1159 1978 
L 1159 0 
L 581 0 
L 581 3500 
L 1159 3500 
L 1159 2956 
Q 1356 3278 1631 3431 
Q 1906 3584 2284 3584 
Q 2666 3584 2933 3390 
Q 3200 3197 3328 2828 
z
" transform="scale(0.015625)"/>
       <path id="DejaVuSans-29" d="M 513 4856 
L 1013 4856 
Q 1481 4119 1714 3412 
Q 1947 2706 1947 2009 
Q 1947 1309 1714 600 
Q 1481 -109 1013 -844 
L 513 -844 
Q 928 -128 1133 580 
Q 1338 1288 1338 2009 
Q 1338 2731 1133 3434 
Q 928 4138 513 4856 
z
" transform="scale(0.015625)"/>
      </defs>
      <use xlink:href="#DejaVuSans-71"/>
      <use xlink:href="#DejaVuSans-20" transform="translate(63.476562 0)"/>
      <use xlink:href="#DejaVuSans-28" transform="translate(95.263672 0)"/>
      <use xlink:href="#DejaVuSans-6e" transform="translate(134.277344 0)"/>
      <use xlink:href="#DejaVuSans-6d" transform="translate(197.65625 0)"/>
      <use xlink:href="#DejaVuSans-29" transform="translate(295.068359 0)"/>
     </g>
    </g>
   </g>
   <g id="matplotlib.axis_2">
    <g id="ytick_1">
     <g id="line2d_7">
      <defs>
       <path id="mdc5801eb7e" d="M 0 0 
L -3.5 0 
" style="stroke: #000000; stroke-width: 0.8"/>
      </defs>
      <g>
       <use xlink:href="#mdc5801eb7e" x="33.7" y="180.687273" style="stroke: #000000; stroke-width: 0.8"/>
      </g>
     </g>
     <g id="text_8">
      <!-- 0 -->
      <g transform="translate(20.3375 184.486491) scale(0.1 -0.1)">
       <use xlink:href="#DejaVuSans-30"/>
      </g>
     </g>
    </g>
    <g id="ytick_2">
     <g id="line2d_8">
      <g>
       <use xlink:href="#mdc5801eb7e" x="33.7" y="138.987842" style="stroke: #000000; stroke-width: 0.8"/>
      </g>
     </g>
     <g id="text_9">
      <!-- 200 -->
      <g transform="translate(7.6125 142.78706) scale(0.1 -0.1)">
       <use xlink:href="#DejaVuSans-32"/>
       <use xlink:href="#DejaVuSans-30" transform="translate(63.623047 0)"/>
       <use xlink:href="#DejaVuSans-30" transform="translate(127.246094 0)"/>
      </g>
     </g>
    </g>
    <g id="ytick_3">
     <g id="line2d_9">
      <g>
       <use xlink:href="#mdc5801eb7e" x="33.7" y="97.288411" style="stroke: #000000; stroke-width: 0.8"/>
      </g>
     </g>
     <g id="text_10">
      <!-- 400 -->
      <g transform="translate(7.6125 101.087629) scale(0.1 -0.1)">
       <use xlink:href="#DejaVuSans-34"/>
       <use xlink:href="#DejaVuSans-30" transform="translate(63.623047 0)"/>
       <use xlink:href="#DejaVuSans-30" transform="translate(127.246094 0)"/>
      </g>
     </g>
    </g>
    <g id="ytick_4">
     <g id="line2d_10">
      <g>
       <use xlink:href="#mdc5801eb7e" x="33.7" y="55.58898" style="stroke: #000000; stroke-width: 0.8"/>
      </g>
     </g>
     <g id="text_11">
      <!-- 600 -->
      <g transform="translate(7.6125 59.388198) scale(0.1 -0.1)">
       <use xlink:href="#DejaVuSans-36"/>
       <use xlink:href="#DejaVuSans-30" transform="translate(63.623047 0)"/>
       <use xlink:href="#DejaVuSans-30" transform="translate(127.246094 0)"/>
      </g>
     </g>
    </g>
    <g id="text_12">
     <!-- rdf -->
     <g transform="translate(1.532813 108.462344) rotate(-90) scale(0.1 -0.1)">
      <defs>
       <path id="DejaVuSans-72" d="M 2631 2963 
Q 2534 3019 2420 3045 
Q 2306 3072 2169 3072 
Q 1681 3072 1420 2755 
Q 1159 2438 1159 1844 
L 1159 0 
L 581 0 
L 581 3500 
L 1159 3500 
L 1159 2956 
Q 1341 3275 1631 3429 
Q 1922 3584 2338 3584 
Q 2397 3584 2469 3576 
Q 2541 3569 2628 3553 
L 2631 2963 
z
" transform="scale(0.015625)"/>
       <path id="DejaVuSans-64" d="M 2906 2969 
L 2906 4863 
L 3481 4863 
L 3481 0 
L 2906 0 
L 2906 525 
Q 2725 213 2448 61 
Q 2172 -91 1784 -91 
Q 1150 -91 751 415 
Q 353 922 353 1747 
Q 353 2572 751 3078 
Q 1150 3584 1784 3584 
Q 2172 3584 2448 3432 
Q 2725 3281 2906 2969 
z
M 947 1747 
Q 947 1113 1208 752 
Q 1469 391 1925 391 
Q 2381 391 2643 752 
Q 2906 1113 2906 1747 
Q 2906 2381 2643 2742 
Q 2381 3103 1925 3103 
Q 1469 3103 1208 2742 
Q 947 2381 947 1747 
z
" transform="scale(0.015625)"/>
       <path id="DejaVuSans-66" d="M 2375 4863 
L 2375 4384 
L 1825 4384 
Q 1516 4384 1395 4259 
Q 1275 4134 1275 3809 
L 1275 3500 
L 2222 3500 
L 2222 3053 
L 1275 3053 
L 1275 0 
L 697 0 
L 697 3053 
L 147 3053 
L 147 3500 
L 697 3500 
L 697 3744 
Q 697 4328 969 4595 
Q 1241 4863 1831 4863 
L 2375 4863 
z
" transform="scale(0.015625)"/>
      </defs>
      <use xlink:href="#DejaVuSans-72"/>
      <use xlink:href="#DejaVuSans-64" transform="translate(39.363281 0)"/>
      <use xlink:href="#DejaVuSans-66" transform="translate(102.839844 0)"/>
     </g>
    </g>
   </g>
   <g id="line2d_11">
    <path d="M 44.406818 180.687273 
L 92.708254 180.687273 
L 93.244936 168.70404 
L 93.781619 180.687273 
L 94.318301 180.687273 
L 95.391667 158.686433 
L 95.928349 169.913647 
L 97.001715 170.34671 
L 97.538397 130.018462 
L 98.611762 151.472271 
L 99.148445 142.490276 
L 99.685128 152.590395 
L 100.22181 153.125591 
L 100.758493 162.659516 
L 101.295175 145.305701 
L 101.831858 154.642483 
L 102.368541 146.597994 
L 102.905223 155.58516 
L 103.978589 156.477612 
L 104.515271 164.833141 
L 105.051954 149.53526 
L 105.588636 157.729637 
L 106.125319 158.125404 
L 106.662002 143.72694 
L 107.198684 122.552949 
L 107.735367 152.10862 
L 108.272049 138.533768 
L 108.808732 153.04945 
L 109.345415 173.891091 
L 110.41878 160.953742 
L 110.955463 161.269448 
L 111.492145 142.468054 
L 112.56551 156.000885 
L 113.102193 156.383599 
L 113.638876 174.704825 
L 114.175558 139.449548 
L 114.712241 145.876233 
L 115.248923 157.828835 
L 115.785606 135.652784 
L 116.322289 175.141343 
L 116.858971 175.222902 
L 117.395654 137.610506 
L 117.932337 159.461 
L 118.469019 138.845658 
L 119.005702 144.598864 
L 119.542384 145.110715 
L 120.079067 160.644138 
L 120.61575 170.805854 
L 121.152432 175.81518 
L 121.689115 147.053083 
L 122.225797 166.470101 
L 122.76248 152.639767 
L 123.299163 162.24159 
L 123.835845 139.741566 
L 124.372528 149.265203 
L 124.909211 131.963728 
L 125.445893 150.089415 
L 125.982576 137.547374 
L 126.519258 159.397459 
L 127.055941 155.469151 
L 127.592624 159.941553 
L 128.129306 168.398416 
L 128.665989 156.420628 
L 129.202671 164.713012 
L 129.739354 145.194498 
L 130.276037 169.003311 
L 130.812719 157.60783 
L 131.349402 135.094803 
L 131.886085 158.169052 
L 132.95945 166.035707 
L 133.496132 158.973156 
L 134.032815 162.807649 
L 134.569498 117.082196 
L 135.10618 152.750976 
L 135.642863 146.17528 
L 136.179545 146.576574 
L 136.716228 173.943997 
L 137.789593 141.149823 
L 138.326276 164.400529 
L 138.862959 129.158503 
L 139.399641 142.474964 
L 139.936324 164.943323 
L 140.473006 143.321704 
L 141.009689 156.052144 
L 141.546372 144.140724 
L 142.083054 153.576849 
L 142.619737 159.830609 
L 143.156419 160.056068 
L 143.693102 166.109158 
L 144.229785 166.265076 
L 144.766467 155.003454 
L 145.30315 135.510352 
L 145.839833 155.542779 
L 146.376515 147.512352 
L 146.913198 142.386301 
L 147.44988 145.490624 
L 147.986563 156.57156 
L 148.523246 156.818864 
L 149.059928 154.437446 
L 149.596611 144.31065 
L 150.133293 152.394359 
L 150.669976 127.216317 
L 151.206659 147.917219 
L 151.743341 148.243294 
L 152.280024 158.448429 
L 152.816707 156.220921 
L 153.353389 166.15135 
L 153.890072 151.899099 
L 154.426754 149.802871 
L 154.963437 154.806741 
L 155.50012 141.074897 
L 156.036802 155.300931 
L 156.573485 150.971045 
L 157.110167 151.252705 
L 157.64685 147.044563 
L 158.183533 147.360646 
L 158.720215 154.275131 
L 159.256898 154.520824 
L 159.793581 139.640636 
L 160.330263 152.861502 
L 160.866946 155.237644 
L 161.403628 153.368581 
L 161.940311 147.369958 
L 162.476994 151.798305 
L 163.013676 154.103543 
L 163.550359 152.31546 
L 164.087041 158.594181 
L 164.623724 148.837452 
L 165.160407 162.930321 
L 165.697089 151.353018 
L 166.233772 149.671832 
L 166.770455 157.628981 
L 167.307137 159.734279 
L 167.84382 158.027309 
L 168.380502 145.118347 
L 169.453868 156.765748 
L 169.99055 155.144784 
L 170.527233 157.170315 
L 171.063915 162.749902 
L 171.600598 157.564682 
L 172.673963 150.953007 
L 173.210646 158.137977 
L 173.747329 142.842322 
L 174.284011 153.39024 
L 174.820694 155.306089 
L 175.357376 152.156749 
L 175.894059 150.724031 
L 176.430742 159.222404 
L 176.967424 151.206308 
L 177.504107 161.19115 
L 178.040789 161.347122 
L 178.577472 159.902391 
L 179.650837 153.935834 
L 180.18752 155.707716 
L 180.724203 154.354737 
L 181.260885 160.707924 
L 181.797568 156.288663 
L 182.33425 164.043258 
L 182.870933 152.160493 
L 183.407616 144.93073 
L 183.944298 143.72631 
L 184.480981 158.679931 
L 185.017663 153.023414 
L 186.091029 159.176311 
L 186.627711 147.951785 
L 187.164394 149.609712 
L 187.701077 152.645678 
L 188.237759 159.812411 
L 188.774442 157.204345 
L 189.311124 160.119975 
L 189.847807 160.271224 
L 190.38449 149.612015 
L 190.921172 159.22748 
L 191.457855 158.052016 
L 191.994537 147.641476 
L 192.53122 159.690689 
L 193.067903 149.4189 
L 193.604585 154.817139 
L 194.141268 155.001857 
L 194.677951 156.459818 
L 195.751316 169.373032 
L 196.287998 154.473249 
L 196.824681 159.615299 
L 197.361364 154.839204 
L 197.898046 157.463877 
L 198.434729 152.770148 
L 198.971411 156.579431 
L 199.508094 150.760388 
L 200.044777 164.043406 
L 200.581459 162.976647 
L 201.118142 160.752271 
L 201.654825 162.052502 
L 202.191507 144.8272 
L 202.72819 149.665434 
L 203.264872 159.004033 
L 203.801555 144.41318 
L 204.338238 159.293588 
L 204.87492 152.72535 
L 205.411603 151.80009 
L 205.948285 155.302436 
L 206.484968 162.048514 
L 207.021651 157.81431 
L 207.558333 162.292503 
L 208.095016 167.787579 
L 208.631699 157.19196 
L 209.168381 153.100356 
L 209.705064 157.495628 
L 210.241746 153.455714 
L 210.778429 157.793343 
L 211.315112 164.143881 
L 211.851794 165.276967 
L 212.388477 161.29192 
L 212.925159 154.31464 
L 213.461842 158.513233 
L 213.998525 155.648483 
L 214.535207 151.824914 
L 215.07189 153.983994 
L 215.608573 157.0994 
L 216.145255 148.455966 
L 216.681938 161.274508 
L 217.21862 157.536149 
L 217.755303 156.720387 
L 218.291986 157.820695 
L 218.828668 160.801709 
L 219.365351 149.62979 
L 219.902033 157.302306 
L 220.438716 155.584999 
L 220.975399 163.129845 
L 221.512081 156.806277 
L 222.048764 152.385546 
L 222.585447 161.630177 
L 223.122129 162.64631 
L 223.658812 160.0642 
L 224.195494 156.62166 
L 224.732177 161.194545 
L 225.26886 156.025098 
L 225.805542 157.921921 
L 226.342225 158.926173 
L 226.878907 155.592504 
L 227.41559 160.90097 
L 227.952273 156.739983 
L 228.488955 158.579714 
L 229.025638 155.326476 
L 229.562321 155.473091 
L 230.099003 148.097557 
L 230.635686 155.762412 
L 231.172368 152.601164 
L 231.709051 162.617622 
L 232.245734 159.454049 
L 232.782416 162.010606 
L 233.319099 154.849693 
L 233.855781 156.601407 
L 234.392464 160.728832 
L 234.929147 157.665471 
L 235.465829 160.162604 
L 236.539195 155.707309 
L 237.075877 155.845971 
L 237.61256 158.299673 
L 238.149242 154.584697 
L 239.222608 157.908445 
L 239.75929 156.522896 
L 240.832656 152.30449 
L 241.369338 156.915786 
L 241.906021 154.089354 
L 242.442703 157.907376 
L 242.979386 152.914008 
L 243.516069 161.059693 
L 244.052751 158.27279 
L 244.589434 161.988591 
L 245.126116 154.934763 
L 245.662799 160.052624 
L 246.199482 157.33097 
L 246.736164 160.974564 
L 247.272847 159.678121 
L 247.80953 159.091967 
L 248.346212 152.968801 
L 248.882895 159.317784 
L 249.419577 160.115188 
L 249.95626 156.811501 
L 250.492943 154.899667 
L 251.566308 162.553629 
L 252.10299 155.965531 
L 252.639673 160.745635 
L 253.176356 162.170549 
L 253.713038 160.291472 
L 254.249721 149.922442 
L 254.786404 156.591406 
L 255.323086 155.417903 
L 255.859769 161.347701 
L 256.396451 161.445385 
L 256.933134 156.436933 
L 257.469817 154.653858 
L 258.543182 161.828779 
L 258.543182 161.828779 
" clip-path="url(#p667d7ffe2f)" style="fill: none; stroke: #000000; stroke-opacity: 0.5; stroke-width: 0.5; stroke-linecap: square"/>
   </g>
   <g id="line2d_12">
    <path d="M 44.406818 180.687273 
L 92.708254 180.687273 
L 93.244936 143.988617 
L 93.781619 180.687273 
L 94.318301 180.687273 
L 95.391667 113.309688 
L 95.928349 180.687273 
L 96.465032 180.687273 
L 97.538397 118.617973 
L 98.07508 119.847048 
L 98.611762 180.687273 
L 99.148445 151.442696 
L 99.685128 152.00504 
L 100.22181 180.687273 
L 100.758493 180.687273 
L 101.831858 127.512487 
L 102.905223 129.437119 
L 103.441906 155.523848 
L 103.978589 155.97324 
L 104.515271 180.687273 
L 105.051954 156.83651 
L 106.125319 157.655363 
L 106.662002 135.41086 
L 107.198684 91.669079 
L 107.735367 158.806738 
L 108.272049 116.139708 
L 108.808732 180.687273 
L 109.882097 180.687273 
L 110.41878 140.397975 
L 110.955463 180.687273 
L 111.492145 141.671813 
L 112.028828 142.286163 
L 112.56551 161.786754 
L 113.102193 143.472271 
L 113.638876 162.366026 
L 114.712241 162.919135 
L 115.248923 180.687273 
L 115.785606 163.447506 
L 116.322289 180.687273 
L 116.858971 180.687273 
L 117.395654 147.706618 
L 117.932337 164.435906 
L 119.005702 133.321231 
L 119.542384 149.557782 
L 120.079067 134.650693 
L 120.61575 150.425423 
L 121.152432 180.687273 
L 121.689115 180.687273 
L 122.225797 166.173908 
L 122.76248 180.687273 
L 123.299163 152.442319 
L 123.835845 152.821442 
L 124.372528 111.951485 
L 124.909211 99.296799 
L 125.445893 153.914143 
L 125.982576 141.052484 
L 126.519258 180.687273 
L 127.055941 142.072019 
L 127.592624 167.980518 
L 128.129306 168.142397 
L 128.665989 155.915069 
L 129.202671 168.456978 
L 129.739354 144.455061 
L 130.276037 180.687273 
L 130.812719 168.907138 
L 131.349402 122.50937 
L 131.886085 169.193595 
L 132.422767 157.978514 
L 133.496132 158.520776 
L 134.032815 180.687273 
L 134.569498 126.578781 
L 135.10618 137.909813 
L 135.642863 138.410075 
L 136.179545 149.348063 
L 136.716228 170.36163 
L 137.252911 160.2733 
L 137.789593 140.326119 
L 138.326276 150.760378 
L 138.862959 121.509693 
L 139.399641 161.183071 
L 140.473006 142.543247 
L 141.546372 143.379332 
L 142.083054 180.687273 
L 142.619737 153.3129 
L 143.156419 162.634965 
L 143.693102 162.829081 
L 144.229785 171.853676 
L 144.766467 163.208005 
L 145.30315 146.098687 
L 145.839833 155.018932 
L 146.376515 146.821202 
L 146.913198 147.173919 
L 147.44988 155.812715 
L 147.986563 147.863106 
L 148.523246 164.443492 
L 149.059928 140.492218 
L 149.596611 132.942951 
L 150.133293 157.056257 
L 150.669976 149.495878 
L 151.206659 134.368056 
L 151.743341 134.828954 
L 152.280024 165.552502 
L 152.816707 150.715988 
L 153.353389 158.429137 
L 153.890072 173.34029 
L 154.426754 144.309005 
L 154.963437 166.276521 
L 155.50012 137.870949 
L 156.036802 138.28054 
L 157.110167 166.819061 
L 157.64685 146.343669 
L 158.720215 160.465473 
L 159.256898 133.941995 
L 159.793581 134.374782 
L 160.330263 161.021944 
L 160.866946 167.697356 
L 161.403628 161.380311 
L 161.940311 136.047273 
L 162.476994 161.728884 
L 163.550359 149.655597 
L 164.087041 162.234519 
L 164.623724 144.10974 
L 165.160407 150.475788 
L 165.697089 174.698195 
L 166.233772 145.067973 
L 166.770455 168.917935 
L 167.307137 169.020264 
L 167.84382 163.338234 
L 168.380502 129.088923 
L 168.917185 157.951488 
L 169.453868 152.510471 
L 170.527233 130.826796 
L 171.063915 180.687273 
L 171.600598 169.792974 
L 172.137281 169.884135 
L 172.673963 148.548023 
L 173.747329 159.614515 
L 174.284011 144.11351 
L 174.820694 154.777311 
L 175.357376 149.849129 
L 175.894059 170.491447 
L 176.967424 150.59212 
L 177.504107 160.784978 
L 178.040789 156.008429 
L 178.577472 141.515762 
L 179.114155 161.256944 
L 179.650837 146.952919 
L 180.18752 147.218567 
L 180.724203 152.224895 
L 181.797568 171.347179 
L 182.33425 171.419581 
L 182.870933 153.09887 
L 183.407616 139.62311 
L 183.944298 139.937802 
L 184.480981 167.207775 
L 185.017663 153.933403 
L 185.554346 167.411679 
L 186.091029 158.728165 
L 186.627711 158.893261 
L 187.164394 141.752026 
L 187.701077 150.630185 
L 189.311124 163.890644 
L 189.847807 155.67761 
L 190.38449 131.034411 
L 190.921172 151.934501 
L 191.457855 152.143543 
L 191.994537 148.302386 
L 192.53122 172.649517 
L 193.067903 156.747423 
L 193.604585 152.957721 
L 194.141268 168.888034 
L 194.677951 145.541517 
L 195.751316 169.137317 
L 196.287998 161.572877 
L 196.824681 157.910945 
L 197.361364 150.531189 
L 197.898046 158.227801 
L 198.434729 150.949462 
L 198.971411 165.921218 
L 199.508094 166.023096 
L 200.044777 162.48304 
L 200.581459 162.607673 
L 201.118142 169.913575 
L 201.654825 169.986837 
L 202.191507 141.71836 
L 202.72819 138.463099 
L 203.264872 159.717293 
L 203.801555 125.142563 
L 204.338238 153.100674 
L 204.87492 143.008577 
L 205.411603 143.258925 
L 205.948285 150.266852 
L 206.484968 160.540963 
L 207.558333 160.804688 
L 208.095016 167.518833 
L 208.631699 161.063345 
L 209.168381 157.941329 
L 209.705064 151.631825 
L 210.241746 164.649452 
L 210.778429 152.004817 
L 211.315112 161.688219 
L 211.851794 164.955916 
L 212.925159 165.155312 
L 213.461842 152.906726 
L 213.998525 156.149255 
L 214.535207 162.399483 
L 215.07189 150.398826 
L 215.608573 156.607983 
L 216.145255 156.757966 
L 216.681938 162.851794 
L 217.21862 160.008011 
L 217.755303 154.263775 
L 218.291986 166.097917 
L 218.828668 163.287402 
L 219.365351 143.218295 
L 219.902033 157.770001 
L 220.438716 149.367536 
L 220.975399 160.87741 
L 222.048764 161.115716 
L 222.585447 152.89567 
L 223.122129 155.824568 
L 223.658812 153.227196 
L 224.195494 158.849954 
L 224.732177 161.692937 
L 225.26886 153.713014 
L 225.805542 164.598297 
L 226.342225 164.692861 
L 227.41559 159.610557 
L 227.952273 159.733391 
L 228.488955 165.063179 
L 229.025638 149.620296 
L 229.562321 165.243585 
L 230.099003 144.859472 
L 230.635686 152.698728 
L 231.172368 152.859304 
L 231.709051 175.656517 
L 232.245734 158.178011 
L 232.782416 160.79256 
L 233.319099 158.432635 
L 233.855781 148.723319 
L 234.392464 166.017815 
L 234.929147 158.806634 
L 235.465829 149.258869 
L 236.002512 159.050751 
L 236.539195 156.780662 
L 237.075877 161.668149 
L 237.61256 152.316774 
L 238.149242 152.473455 
L 238.685925 147.952717 
L 239.222608 157.433883 
L 239.75929 162.186421 
L 240.295973 153.087589 
L 240.832656 155.525559 
L 241.369338 151.112195 
L 241.906021 151.272557 
L 242.442703 153.682071 
L 242.979386 162.780823 
L 244.052751 167.401267 
L 244.589434 163.067359 
L 245.126116 154.398249 
L 245.662799 158.896368 
L 247.272847 165.674482 
L 247.80953 163.620014 
L 248.346212 159.465314 
L 248.882895 149.020787 
L 249.419577 151.286333 
L 249.95626 163.974231 
L 250.492943 157.826218 
L 251.029625 170.349772 
L 251.566308 160.119017 
L 252.10299 143.855214 
L 252.639673 158.294473 
L 253.176356 168.535671 
L 253.713038 156.508376 
L 254.249721 156.631791 
L 254.786404 160.743054 
L 255.323086 146.954284 
L 255.859769 155.022046 
L 256.396451 170.865891 
L 256.933134 161.14341 
L 257.469817 157.35244 
L 258.006499 161.3391 
L 258.543182 159.510754 
L 258.543182 159.510754 
" clip-path="url(#p667d7ffe2f)" style="fill: none; stroke: #0000ff; stroke-opacity: 0.5; stroke-linecap: square"/>
   </g>
   <g id="line2d_13">
    <path d="M 44.406818 180.687273 
L 100.758493 180.687273 
L 101.295175 84.370769 
L 101.831858 133.420803 
L 103.441906 135.952299 
L 103.978589 180.687273 
L 104.515271 180.687273 
L 105.051954 138.285923 
L 105.588636 180.687273 
L 106.125319 139.741659 
L 106.662002 180.687273 
L 107.198684 22.432727 
L 107.735367 180.687273 
L 108.272049 180.687273 
L 108.808732 143.069128 
L 109.345415 143.685839 
L 109.882097 180.687273 
L 110.955463 180.687273 
L 111.492145 146.006868 
L 112.028828 180.687273 
L 113.638876 180.687273 
L 114.712241 117.51168 
L 115.248923 149.574398 
L 115.785606 119.390331 
L 116.322289 180.687273 
L 116.858971 150.936813 
L 117.395654 180.687273 
L 117.932337 151.795957 
L 118.469019 95.260647 
L 119.005702 152.618512 
L 119.542384 125.345957 
L 120.079067 180.687273 
L 121.152432 180.687273 
L 121.689115 154.527346 
L 122.225797 180.687273 
L 122.76248 155.236757 
L 123.299163 180.687273 
L 123.835845 155.917649 
L 124.372528 180.687273 
L 124.909211 156.57158 
L 125.445893 156.888938 
L 125.982576 133.712714 
L 127.055941 134.921053 
L 127.592624 158.097489 
L 128.129306 158.385273 
L 128.665989 180.687273 
L 129.739354 137.745398 
L 130.276037 159.483046 
L 130.812719 138.802356 
L 131.349402 180.687273 
L 131.886085 139.82087 
L 132.422767 160.501712 
L 132.95945 140.802457 
L 133.496132 141.280171 
L 134.032815 161.21835 
L 134.569498 122.97156 
L 135.10618 161.67507 
L 135.642863 124.317686 
L 136.179545 180.687273 
L 136.716228 180.687273 
L 137.252911 162.541521 
L 137.789593 162.748984 
L 138.326276 145.218364 
L 138.862959 163.153178 
L 139.399641 111.339005 
L 139.936324 146.400451 
L 140.473006 146.781476 
L 141.009689 130.39055 
L 141.546372 164.105968 
L 142.083054 98.686604 
L 142.619737 148.243574 
L 143.156419 148.594287 
L 143.693102 164.813327 
L 144.229785 149.278934 
L 144.766467 118.538774 
L 145.30315 119.196462 
L 145.839833 165.476405 
L 146.376515 135.532521 
L 146.913198 165.79245 
L 147.44988 180.687273 
L 147.986563 180.687273 
L 148.523246 151.809446 
L 149.059928 152.104128 
L 149.596611 166.540808 
L 150.133293 152.680145 
L 150.669976 111.373065 
L 151.206659 166.963063 
L 151.743341 180.687273 
L 152.280024 113.421635 
L 152.816707 154.046133 
L 153.353389 180.687273 
L 153.890072 141.50337 
L 154.426754 154.818288 
L 154.963437 155.068161 
L 156.036802 180.687273 
L 157.110167 131.378084 
L 158.183533 132.30195 
L 158.720215 120.770835 
L 159.256898 156.943643 
L 159.793581 157.163469 
L 160.330263 134.073165 
L 160.866946 146.047501 
L 161.403628 169.246111 
L 161.940311 169.350131 
L 162.476994 158.218074 
L 163.013676 136.153848 
L 163.550359 158.620308 
L 164.087041 147.882382 
L 164.623724 180.687273 
L 165.160407 148.461695 
L 165.697089 127.451035 
L 166.233772 159.579543 
L 167.307137 159.945926 
L 167.84382 119.001817 
L 168.380502 150.110479 
L 168.917185 130.163312 
L 169.453868 150.632024 
L 169.99055 140.954512 
L 170.527233 160.98931 
L 171.063915 141.623666 
L 171.600598 132.268173 
L 172.673963 152.119055 
L 173.210646 152.356109 
L 173.747329 133.858925 
L 174.284011 152.821553 
L 175.357376 171.550046 
L 175.894059 126.309537 
L 176.430742 162.708154 
L 176.967424 145.018947 
L 177.504107 162.996345 
L 178.040789 154.36318 
L 178.577472 180.687273 
L 179.114155 154.780173 
L 179.650837 137.849999 
L 180.18752 172.187285 
L 180.724203 163.82068 
L 181.260885 172.319853 
L 181.797568 155.780359 
L 182.33425 131.259595 
L 182.870933 156.164254 
L 183.407616 140.130081 
L 183.944298 132.391612 
L 185.017663 148.978987 
L 185.554346 164.953238 
L 186.091029 172.879591 
L 186.627711 157.440331 
L 187.164394 157.614539 
L 188.237759 142.803264 
L 188.774442 158.125244 
L 189.311124 165.756938 
L 189.847807 165.866733 
L 190.38449 151.26336 
L 190.921172 151.478112 
L 191.457855 166.188872 
L 191.994537 159.097352 
L 192.53122 166.397931 
L 193.067903 152.314121 
L 193.604585 152.517572 
L 194.141268 138.734429 
L 195.214633 166.901052 
L 195.751316 166.998438 
L 196.287998 146.706131 
L 196.824681 146.944568 
L 197.898046 174.032615 
L 198.434729 147.645265 
L 198.971411 154.436512 
L 199.508094 128.547987 
L 200.044777 174.214657 
L 200.581459 180.687273 
L 201.118142 161.534037 
L 202.191507 136.601237 
L 202.72819 143.15468 
L 203.264872 155.833967 
L 203.801555 162.172372 
L 204.338238 150.035499 
L 204.87492 168.508301 
L 205.411603 150.442145 
L 207.021651 168.827218 
L 207.558333 151.231597 
L 208.095016 168.981994 
L 208.631699 151.614792 
L 209.168381 157.580285 
L 209.705064 174.947926 
L 210.241746 140.770929 
L 210.778429 146.693259 
L 211.315112 169.428576 
L 211.851794 169.500532 
L 212.388477 164.014075 
L 212.925159 147.552428 
L 213.461842 158.737214 
L 213.998525 147.969922 
L 215.07189 148.379602 
L 215.608573 175.33632 
L 216.145255 159.41678 
L 216.681938 159.54893 
L 217.21862 164.931647 
L 217.755303 180.687273 
L 218.291986 154.750645 
L 218.828668 144.598657 
L 219.365351 144.819539 
L 219.902033 160.316366 
L 220.975399 170.625122 
L 221.512081 170.68583 
L 222.048764 145.893397 
L 222.585447 160.924359 
L 223.122129 161.042669 
L 223.658812 166.041902 
L 224.195494 151.570853 
L 224.732177 171.039357 
L 225.26886 147.119313 
L 225.805542 142.550447 
L 226.342225 147.513685 
L 226.878907 142.997044 
L 227.41559 161.952417 
L 227.952273 152.748768 
L 229.562321 153.231831 
L 230.099003 157.939465 
L 230.635686 158.070269 
L 231.172368 140.21023 
L 231.709051 158.328361 
L 232.245734 167.348454 
L 232.782416 154.160995 
L 233.319099 176.291296 
L 233.855781 158.83158 
L 234.392464 163.301252 
L 234.929147 163.39887 
L 235.465829 159.197768 
L 237.075877 159.554914 
L 237.61256 168.078164 
L 238.149242 172.327624 
L 238.685925 155.746661 
L 239.222608 155.883662 
L 239.75929 160.130772 
L 240.295973 147.976539 
L 240.832656 176.620734 
L 241.369338 164.509456 
L 241.906021 148.507075 
L 242.442703 144.68034 
L 242.979386 148.853591 
L 243.516069 168.813799 
L 244.052751 145.257929 
L 244.589434 165.02513 
L 245.126116 165.108594 
L 245.662799 161.317581 
L 246.199482 161.420288 
L 246.736164 165.355166 
L 247.272847 146.372327 
L 247.80953 150.345481 
L 248.346212 150.504936 
L 248.882895 161.921951 
L 249.419577 162.02001 
L 250.492943 140.045398 
L 251.029625 151.28283 
L 251.566308 158.747804 
L 252.10299 158.860871 
L 252.639673 155.354008 
L 253.176356 155.483954 
L 253.713038 169.941099 
L 254.249721 155.740852 
L 254.786404 162.959081 
L 255.323086 166.576742 
L 255.859769 166.648177 
L 256.396451 156.242951 
L 256.933134 149.417096 
L 257.469817 153.031179 
L 258.006499 153.169876 
L 258.543182 149.885066 
L 258.543182 149.885066 
" clip-path="url(#p667d7ffe2f)" style="fill: none; stroke: #ff0000; stroke-opacity: 0.5; stroke-linecap: square"/>
   </g>
   <g id="patch_3">
    <path d="M 33.7 188.6 
L 33.7 14.52 
" style="fill: none; stroke: #000000; stroke-width: 0.8; stroke-linejoin: miter; stroke-linecap: square"/>
   </g>
   <g id="patch_4">
    <path d="M 269.25 188.6 
L 269.25 14.52 
" style="fill: none; stroke: #000000; stroke-width: 0.8; stroke-linejoin: miter; stroke-linecap: square"/>
   </g>
   <g id="patch_5">
    <path d="M 33.7 188.6 
L 269.25 188.6 
" style="fill: none; stroke: #000000; stroke-width: 0.8; stroke-linejoin: miter; stroke-linecap: square"/>
   </g>
   <g id="patch_6">
    <path d="M 33.7 14.52 
L 269.25 14.52 
" style="fill: none; stroke: #000000; stroke-width: 0.8; stroke-linejoin: miter; stroke-linecap: square"/>
   </g>
   <g id="legend_1">
    <g id="patch_7">
     <path d="M 213.917188 66.554375 
L 262.25 66.554375 
Q 264.25 66.554375 264.25 64.554375 
L 264.25 21.52 
Q 264.25 19.52 262.25 19.52 
L 213.917188 19.52 
Q 211.917188 19.52 211.917188 21.52 
L 211.917188 64.554375 
Q 211.917188 66.554375 213.917188 66.554375 
z
" style="fill: #ffffff; opacity: 0.8; stroke: #cccccc; stroke-linejoin: miter"/>
    </g>
    <g id="line2d_14">
     <path d="M 215.917188 27.618438 
L 225.917188 27.618438 
L 235.917188 27.618438 
" style="fill: none; stroke: #000000; stroke-opacity: 0.5; stroke-width: 0.5; stroke-linecap: square"/>
    </g>
    <g id="text_13">
     <!-- all -->
     <g transform="translate(243.917188 31.118438) scale(0.1 -0.1)">
      <defs>
       <path id="DejaVuSans-61" d="M 2194 1759 
Q 1497 1759 1228 1600 
Q 959 1441 959 1056 
Q 959 750 1161 570 
Q 1363 391 1709 391 
Q 2188 391 2477 730 
Q 2766 1069 2766 1631 
L 2766 1759 
L 2194 1759 
z
M 3341 1997 
L 3341 0 
L 2766 0 
L 2766 531 
Q 2569 213 2275 61 
Q 1981 -91 1556 -91 
Q 1019 -91 701 211 
Q 384 513 384 1019 
Q 384 1609 779 1909 
Q 1175 2209 1959 2209 
L 2766 2209 
L 2766 2266 
Q 2766 2663 2505 2880 
Q 2244 3097 1772 3097 
Q 1472 3097 1187 3025 
Q 903 2953 641 2809 
L 641 3341 
Q 956 3463 1253 3523 
Q 1550 3584 1831 3584 
Q 2591 3584 2966 3190 
Q 3341 2797 3341 1997 
z
" transform="scale(0.015625)"/>
       <path id="DejaVuSans-6c" d="M 603 4863 
L 1178 4863 
L 1178 0 
L 603 0 
L 603 4863 
z
" transform="scale(0.015625)"/>
      </defs>
      <use xlink:href="#DejaVuSans-61"/>
      <use xlink:href="#DejaVuSans-6c" transform="translate(61.279297 0)"/>
      <use xlink:href="#DejaVuSans-6c" transform="translate(89.0625 0)"/>
     </g>
    </g>
    <g id="line2d_15">
     <path d="M 215.917188 42.296563 
L 225.917188 42.296563 
L 235.917188 42.296563 
" style="fill: none; stroke: #0000ff; stroke-opacity: 0.5; stroke-linecap: square"/>
    </g>
    <g id="text_14">
     <!-- 1-1 -->
     <g transform="translate(243.917188 45.796563) scale(0.1 -0.1)">
      <defs>
       <path id="DejaVuSans-2d" d="M 313 2009 
L 1997 2009 
L 1997 1497 
L 313 1497 
L 313 2009 
z
" transform="scale(0.015625)"/>
      </defs>
      <use xlink:href="#DejaVuSans-31"/>
      <use xlink:href="#DejaVuSans-2d" transform="translate(63.623047 0)"/>
      <use xlink:href="#DejaVuSans-31" transform="translate(99.707031 0)"/>
     </g>
    </g>
    <g id="line2d_16">
     <path d="M 215.917188 56.974688 
L 225.917188 56.974688 
L 235.917188 56.974688 
" style="fill: none; stroke: #ff0000; stroke-opacity: 0.5; stroke-linecap: square"/>
    </g>
    <g id="text_15">
     <!-- 2-2 -->
     <g transform="translate(243.917188 60.474688) scale(0.1 -0.1)">
      <use xlink:href="#DejaVuSans-32"/>
      <use xlink:href="#DejaVuSans-2d" transform="translate(63.623047 0)"/>
      <use xlink:href="#DejaVuSans-32" transform="translate(99.707031 0)"/>
     </g>
    </g>
   </g>
  </g>
 </g>
 <defs>
  <clipPath id="p667d7ffe2f">
   <rect x="33.7" y="14.52" width="235.55" height="174.08"/>
  </clipPath>
 </defs>
</svg>
