<?xml version="1.0" encoding="utf-8" standalone="no"?>
<!DOCTYPE svg PUBLIC "-//W3C//DTD SVG 1.1//EN"
  "http://www.w3.org/Graphics/SVG/1.1/DTD/svg11.dtd">
<svg xmlns:xlink="http://www.w3.org/1999/xlink" width="288pt" height="216pt" viewBox="0 0 288 216" xmlns="http://www.w3.org/2000/svg" version="1.1">
 <metadata>
  <rdf:RDF xmlns:dc="http://purl.org/dc/elements/1.1/" xmlns:cc="http://creativecommons.org/ns#" xmlns:rdf="http://www.w3.org/1999/02/22-rdf-syntax-ns#">
   <cc:Work>
    <dc:type rdf:resource="http://purl.org/dc/dcmitype/StillImage"/>
    <dc:date>2025-09-18T07:37:55.405796</dc:date>
    <dc:format>image/svg+xml</dc:format>
    <dc:creator>
     <cc:Agent>
      <dc:title>Matplotlib v3.10.0, https://matplotlib.org/</dc:title>
     </cc:Agent>
    </dc:creator>
   </cc:Work>
  </rdf:RDF>
 </metadata>
 <defs>
  <style type="text/css">*{stroke-linejoin: round; stroke-linecap: butt}</style>
 </defs>
 <g id="figure_1">
  <g id="patch_1">
   <path d="M 0 216 
L 288 216 
L 288 0 
L 0 0 
z
" style="fill: #ffffff"/>
  </g>
  <g id="axes_1">
   <g id="patch_2">
    <path d="M 33.7 188.6 
L 269.25 188.6 
L 269.25 14.52 
L 33.7 14.52 
z
" style="fill: #ffffff"/>
   </g>
   <g id="matplotlib.axis_1">
    <g id="xtick_1">
     <g id="line2d_1">
      <defs>
       <path id="meb18b2cf4f" d="M 0 0 
L 0 3.5 
" style="stroke: #000000; stroke-width: 0.8"/>
      </defs>
      <g>
       <use xlink:href="#meb18b2cf4f" x="44.138477" y="188.6" style="stroke: #000000; stroke-width: 0.8"/>
      </g>
     </g>
     <g id="text_1">
      <!-- 0 -->
      <g transform="translate(40.957227 203.198437) scale(0.1 -0.1)">
       <defs>
        <path id="DejaVuSans-30" d="M 2034 4250 
Q 1547 4250 1301 3770 
Q 1056 3291 1056 2328 
Q 1056 1369 1301 889 
Q 1547 409 2034 409 
Q 2525 409 2770 889 
Q 3016 1369 3016 2328 
Q 3016 3291 2770 3770 
Q 2525 4250 2034 4250 
z
M 2034 4750 
Q 2819 4750 3233 4129 
Q 3647 3509 3647 2328 
Q 3647 1150 3233 529 
Q 2819 -91 2034 -91 
Q 1250 -91 836 529 
Q 422 1150 422 2328 
Q 422 3509 836 4129 
Q 1250 4750 2034 4750 
z
" transform="scale(0.015625)"/>
       </defs>
       <use xlink:href="#DejaVuSans-30"/>
      </g>
     </g>
    </g>
    <g id="xtick_2">
     <g id="line2d_2">
      <g>
       <use xlink:href="#meb18b2cf4f" x="87.073086" y="188.6" style="stroke: #000000; stroke-width: 0.8"/>
      </g>
     </g>
     <g id="text_2">
      <!-- 200 -->
      <g transform="translate(77.529336 203.198437) scale(0.1 -0.1)">
       <defs>
        <path id="DejaVuSans-32" d="M 1228 531 
L 3431 531 
L 3431 0 
L 469 0 
L 469 531 
Q 828 903 1448 1529 
Q 2069 2156 2228 2338 
Q 2531 2678 2651 2914 
Q 2772 3150 2772 3378 
Q 2772 3750 2511 3984 
Q 2250 4219 1831 4219 
Q 1534 4219 1204 4116 
Q 875 4013 500 3803 
L 500 4441 
Q 881 4594 1212 4672 
Q 1544 4750 1819 4750 
Q 2544 4750 2975 4387 
Q 3406 4025 3406 3419 
Q 3406 3131 3298 2873 
Q 3191 2616 2906 2266 
Q 2828 2175 2409 1742 
Q 1991 1309 1228 531 
z
" transform="scale(0.015625)"/>
       </defs>
       <use xlink:href="#DejaVuSans-32"/>
       <use xlink:href="#DejaVuSans-30" transform="translate(63.623047 0)"/>
       <use xlink:href="#DejaVuSans-30" transform="translate(127.246094 0)"/>
      </g>
     </g>
    </g>
    <g id="xtick_3">
     <g id="line2d_3">
      <g>
       <use xlink:href="#meb18b2cf4f" x="130.007695" y="188.6" style="stroke: #000000; stroke-width: 0.8"/>
      </g>
     </g>
     <g id="text_3">
      <!-- 400 -->
      <g transform="translate(120.463945 203.198437) scale(0.1 -0.1)">
       <defs>
        <path id="DejaVuSans-34" d="M 2419 4116 
L 825 1625 
L 2419 1625 
L 2419 4116 
z
M 2253 4666 
L 3047 4666 
L 3047 1625 
L 3713 1625 
L 3713 1100 
L 3047 1100 
L 3047 0 
L 2419 0 
L 2419 1100 
L 313 1100 
L 313 1709 
L 2253 4666 
z
" transform="scale(0.015625)"/>
       </defs>
       <use xlink:href="#DejaVuSans-34"/>
       <use xlink:href="#DejaVuSans-30" transform="translate(63.623047 0)"/>
       <use xlink:href="#DejaVuSans-30" transform="translate(127.246094 0)"/>
      </g>
     </g>
    </g>
    <g id="xtick_4">
     <g id="line2d_4">
      <g>
       <use xlink:href="#meb18b2cf4f" x="172.942305" y="188.6" style="stroke: #000000; stroke-width: 0.8"/>
      </g>
     </g>
     <g id="text_4">
      <!-- 600 -->
      <g transform="translate(163.398555 203.198437) scale(0.1 -0.1)">
       <defs>
        <path id="DejaVuSans-36" d="M 2113 2584 
Q 1688 2584 1439 2293 
Q 1191 2003 1191 1497 
Q 1191 994 1439 701 
Q 1688 409 2113 409 
Q 2538 409 2786 701 
Q 3034 994 3034 1497 
Q 3034 2003 2786 2293 
Q 2538 2584 2113 2584 
z
M 3366 4563 
L 3366 3988 
Q 3128 4100 2886 4159 
Q 2644 4219 2406 4219 
Q 1781 4219 1451 3797 
Q 1122 3375 1075 2522 
Q 1259 2794 1537 2939 
Q 1816 3084 2150 3084 
Q 2853 3084 3261 2657 
Q 3669 2231 3669 1497 
Q 3669 778 3244 343 
Q 2819 -91 2113 -91 
Q 1303 -91 875 529 
Q 447 1150 447 2328 
Q 447 3434 972 4092 
Q 1497 4750 2381 4750 
Q 2619 4750 2861 4703 
Q 3103 4656 3366 4563 
z
" transform="scale(0.015625)"/>
       </defs>
       <use xlink:href="#DejaVuSans-36"/>
       <use xlink:href="#DejaVuSans-30" transform="translate(63.623047 0)"/>
       <use xlink:href="#DejaVuSans-30" transform="translate(127.246094 0)"/>
      </g>
     </g>
    </g>
    <g id="xtick_5">
     <g id="line2d_5">
      <g>
       <use xlink:href="#meb18b2cf4f" x="215.876914" y="188.6" style="stroke: #000000; stroke-width: 0.8"/>
      </g>
     </g>
     <g id="text_5">
      <!-- 800 -->
      <g transform="translate(206.333164 203.198437) scale(0.1 -0.1)">
       <defs>
        <path id="DejaVuSans-38" d="M 2034 2216 
Q 1584 2216 1326 1975 
Q 1069 1734 1069 1313 
Q 1069 891 1326 650 
Q 1584 409 2034 409 
Q 2484 409 2743 651 
Q 3003 894 3003 1313 
Q 3003 1734 2745 1975 
Q 2488 2216 2034 2216 
z
M 1403 2484 
Q 997 2584 770 2862 
Q 544 3141 544 3541 
Q 544 4100 942 4425 
Q 1341 4750 2034 4750 
Q 2731 4750 3128 4425 
Q 3525 4100 3525 3541 
Q 3525 3141 3298 2862 
Q 3072 2584 2669 2484 
Q 3125 2378 3379 2068 
Q 3634 1759 3634 1313 
Q 3634 634 3220 271 
Q 2806 -91 2034 -91 
Q 1263 -91 848 271 
Q 434 634 434 1313 
Q 434 1759 690 2068 
Q 947 2378 1403 2484 
z
M 1172 3481 
Q 1172 3119 1398 2916 
Q 1625 2713 2034 2713 
Q 2441 2713 2670 2916 
Q 2900 3119 2900 3481 
Q 2900 3844 2670 4047 
Q 2441 4250 2034 4250 
Q 1625 4250 1398 4047 
Q 1172 3844 1172 3481 
z
" transform="scale(0.015625)"/>
       </defs>
       <use xlink:href="#DejaVuSans-38"/>
       <use xlink:href="#DejaVuSans-30" transform="translate(63.623047 0)"/>
       <use xlink:href="#DejaVuSans-30" transform="translate(127.246094 0)"/>
      </g>
     </g>
    </g>
    <g id="xtick_6">
     <g id="line2d_6">
      <g>
       <use xlink:href="#meb18b2cf4f" x="258.811523" y="188.6" style="stroke: #000000; stroke-width: 0.8"/>
      </g>
     </g>
     <g id="text_6">
      <!-- 1000 -->
      <g transform="translate(246.086523 203.198437) scale(0.1 -0.1)">
       <defs>
        <path id="DejaVuSans-31" d="M 794 531 
L 1825 531 
L 1825 4091 
L 703 3866 
L 703 4441 
L 1819 4666 
L 2450 4666 
L 2450 531 
L 3481 531 
L 3481 0 
L 794 0 
L 794 531 
z
" transform="scale(0.015625)"/>
       </defs>
       <use xlink:href="#DejaVuSans-31"/>
       <use xlink:href="#DejaVuSans-30" transform="translate(63.623047 0)"/>
       <use xlink:href="#DejaVuSans-30" transform="translate(127.246094 0)"/>
       <use xlink:href="#DejaVuSans-30" transform="translate(190.869141 0)"/>
      </g>
     </g>
    </g>
    <g id="text_7">
     <!-- q (nm) -->
     <g transform="translate(134.771094 216.876563) scale(0.1 -0.1)">
      <defs>
       <path id="DejaVuSans-71" d="M 947 1747 
Q 947 1113 1208 752 
Q 1469 391 1925 391 
Q 2381 391 2643 752 
Q 2906 1113 2906 1747 
Q 2906 2381 2643 2742 
Q 2381 3103 1925 3103 
Q 1469 3103 1208 2742 
Q 947 2381 947 1747 
z
M 2906 525 
Q 2725 213 2448 61 
Q 2172 -91 1784 -91 
Q 1150 -91 751 415 
Q 353 922 353 1747 
Q 353 2572 751 3078 
Q 1150 3584 1784 3584 
Q 2172 3584 2448 3432 
Q 2725 3281 2906 2969 
L 2906 3500 
L 3481 3500 
L 3481 -1331 
L 2906 -1331 
L 2906 525 
z
" transform="scale(0.015625)"/>
       <path id="DejaVuSans-20" transform="scale(0.015625)"/>
       <path id="DejaVuSans-28" d="M 1984 4856 
Q 1566 4138 1362 3434 
Q 1159 2731 1159 2009 
Q 1159 1288 1364 580 
Q 1569 -128 1984 -844 
L 1484 -844 
Q 1016 -109 783 600 
Q 550 1309 550 2009 
Q 550 2706 781 3412 
Q 1013 4119 1484 4856 
L 1984 4856 
z
" transform="scale(0.015625)"/>
       <path id="DejaVuSans-6e" d="M 3513 2113 
L 3513 0 
L 2938 0 
L 2938 2094 
Q 2938 2591 2744 2837 
Q 2550 3084 2163 3084 
Q 1697 3084 1428 2787 
Q 1159 2491 1159 1978 
L 1159 0 
L 581 0 
L 581 3500 
L 1159 3500 
L 1159 2956 
Q 1366 3272 1645 3428 
Q 1925 3584 2291 3584 
Q 2894 3584 3203 3211 
Q 3513 2838 3513 2113 
z
" transform="scale(0.015625)"/>
       <path id="DejaVuSans-6d" d="M 3328 2828 
Q 3544 3216 3844 3400 
Q 4144 3584 4550 3584 
Q 5097 3584 5394 3201 
Q 5691 2819 5691 2113 
L 5691 0 
L 5113 0 
L 5113 2094 
Q 5113 2597 4934 2840 
Q 4756 3084 4391 3084 
Q 3944 3084 3684 2787 
Q 3425 2491 3425 1978 
L 3425 0 
L 2847 0 
L 2847 2094 
Q 2847 2600 2669 2842 
Q 2491 3084 2119 3084 
Q 1678 3084 1418 2786 
Q 1159 2488 1159 1978 
L 1159 0 
L 581 0 
L 581 3500 
L 1159 3500 
L 1159 2956 
Q 1356 3278 1631 3431 
Q 1906 3584 2284 3584 
Q 2666 3584 2933 3390 
Q 3200 3197 3328 2828 
z
" transform="scale(0.015625)"/>
       <path id="DejaVuSans-29" d="M 513 4856 
L 1013 4856 
Q 1481 4119 1714 3412 
Q 1947 2706 1947 2009 
Q 1947 1309 1714 600 
Q 1481 -109 1013 -844 
L 513 -844 
Q 928 -128 1133 580 
Q 1338 1288 1338 2009 
Q 1338 2731 1133 3434 
Q 928 4138 513 4856 
z
" transform="scale(0.015625)"/>
      </defs>
      <use xlink:href="#DejaVuSans-71"/>
      <use xlink:href="#DejaVuSans-20" transform="translate(63.476562 0)"/>
      <use xlink:href="#DejaVuSans-28" transform="translate(95.263672 0)"/>
      <use xlink:href="#DejaVuSans-6e" transform="translate(134.277344 0)"/>
      <use xlink:href="#DejaVuSans-6d" transform="translate(197.65625 0)"/>
      <use xlink:href="#DejaVuSans-29" transform="translate(295.068359 0)"/>
     </g>
    </g>
   </g>
   <g id="matplotlib.axis_2">
    <g id="ytick_1">
     <g id="line2d_7">
      <defs>
       <path id="m31c21c25ee" d="M 0 0 
L -3.5 0 
" style="stroke: #000000; stroke-width: 0.8"/>
      </defs>
      <g>
       <use xlink:href="#m31c21c25ee" x="33.7" y="180.687273" style="stroke: #000000; stroke-width: 0.8"/>
      </g>
     </g>
     <g id="text_8">
      <!-- 0 -->
      <g transform="translate(20.3375 184.486491) scale(0.1 -0.1)">
       <use xlink:href="#DejaVuSans-30"/>
      </g>
     </g>
    </g>
    <g id="ytick_2">
     <g id="line2d_8">
      <g>
       <use xlink:href="#m31c21c25ee" x="33.7" y="152.426525" style="stroke: #000000; stroke-width: 0.8"/>
      </g>
     </g>
     <g id="text_9">
      <!-- 500 -->
      <g transform="translate(7.6125 156.225743) scale(0.1 -0.1)">
       <defs>
        <path id="DejaVuSans-35" d="M 691 4666 
L 3169 4666 
L 3169 4134 
L 1269 4134 
L 1269 2991 
Q 1406 3038 1543 3061 
Q 1681 3084 1819 3084 
Q 2600 3084 3056 2656 
Q 3513 2228 3513 1497 
Q 3513 744 3044 326 
Q 2575 -91 1722 -91 
Q 1428 -91 1123 -41 
Q 819 9 494 109 
L 494 744 
Q 775 591 1075 516 
Q 1375 441 1709 441 
Q 2250 441 2565 725 
Q 2881 1009 2881 1497 
Q 2881 1984 2565 2268 
Q 2250 2553 1709 2553 
Q 1456 2553 1204 2497 
Q 953 2441 691 2322 
L 691 4666 
z
" transform="scale(0.015625)"/>
       </defs>
       <use xlink:href="#DejaVuSans-35"/>
       <use xlink:href="#DejaVuSans-30" transform="translate(63.623047 0)"/>
       <use xlink:href="#DejaVuSans-30" transform="translate(127.246094 0)"/>
      </g>
     </g>
    </g>
    <g id="ytick_3">
     <g id="line2d_9">
      <g>
       <use xlink:href="#m31c21c25ee" x="33.7" y="124.165777" style="stroke: #000000; stroke-width: 0.8"/>
      </g>
     </g>
     <g id="text_10">
      <!-- 1000 -->
      <g transform="translate(1.25 127.964995) scale(0.1 -0.1)">
       <use xlink:href="#DejaVuSans-31"/>
       <use xlink:href="#DejaVuSans-30" transform="translate(63.623047 0)"/>
       <use xlink:href="#DejaVuSans-30" transform="translate(127.246094 0)"/>
       <use xlink:href="#DejaVuSans-30" transform="translate(190.869141 0)"/>
      </g>
     </g>
    </g>
    <g id="ytick_4">
     <g id="line2d_10">
      <g>
       <use xlink:href="#m31c21c25ee" x="33.7" y="95.905028" style="stroke: #000000; stroke-width: 0.8"/>
      </g>
     </g>
     <g id="text_11">
      <!-- 1500 -->
      <g transform="translate(1.25 99.704247) scale(0.1 -0.1)">
       <use xlink:href="#DejaVuSans-31"/>
       <use xlink:href="#DejaVuSans-35" transform="translate(63.623047 0)"/>
       <use xlink:href="#DejaVuSans-30" transform="translate(127.246094 0)"/>
       <use xlink:href="#DejaVuSans-30" transform="translate(190.869141 0)"/>
      </g>
     </g>
    </g>
    <g id="ytick_5">
     <g id="line2d_11">
      <g>
       <use xlink:href="#m31c21c25ee" x="33.7" y="67.64428" style="stroke: #000000; stroke-width: 0.8"/>
      </g>
     </g>
     <g id="text_12">
      <!-- 2000 -->
      <g transform="translate(1.25 71.443499) scale(0.1 -0.1)">
       <use xlink:href="#DejaVuSans-32"/>
       <use xlink:href="#DejaVuSans-30" transform="translate(63.623047 0)"/>
       <use xlink:href="#DejaVuSans-30" transform="translate(127.246094 0)"/>
       <use xlink:href="#DejaVuSans-30" transform="translate(190.869141 0)"/>
      </g>
     </g>
    </g>
    <g id="ytick_6">
     <g id="line2d_12">
      <g>
       <use xlink:href="#m31c21c25ee" x="33.7" y="39.383532" style="stroke: #000000; stroke-width: 0.8"/>
      </g>
     </g>
     <g id="text_13">
      <!-- 2500 -->
      <g transform="translate(1.25 43.182751) scale(0.1 -0.1)">
       <use xlink:href="#DejaVuSans-32"/>
       <use xlink:href="#DejaVuSans-35" transform="translate(63.623047 0)"/>
       <use xlink:href="#DejaVuSans-30" transform="translate(127.246094 0)"/>
       <use xlink:href="#DejaVuSans-30" transform="translate(190.869141 0)"/>
      </g>
     </g>
    </g>
    <g id="text_14">
     <!-- rdf -->
     <g transform="translate(-4.829688 108.462344) rotate(-90) scale(0.1 -0.1)">
      <defs>
       <path id="DejaVuSans-72" d="M 2631 2963 
Q 2534 3019 2420 3045 
Q 2306 3072 2169 3072 
Q 1681 3072 1420 2755 
Q 1159 2438 1159 1844 
L 1159 0 
L 581 0 
L 581 3500 
L 1159 3500 
L 1159 2956 
Q 1341 3275 1631 3429 
Q 1922 3584 2338 3584 
Q 2397 3584 2469 3576 
Q 2541 3569 2628 3553 
L 2631 2963 
z
" transform="scale(0.015625)"/>
       <path id="DejaVuSans-64" d="M 2906 2969 
L 2906 4863 
L 3481 4863 
L 3481 0 
L 2906 0 
L 2906 525 
Q 2725 213 2448 61 
Q 2172 -91 1784 -91 
Q 1150 -91 751 415 
Q 353 922 353 1747 
Q 353 2572 751 3078 
Q 1150 3584 1784 3584 
Q 2172 3584 2448 3432 
Q 2725 3281 2906 2969 
z
M 947 1747 
Q 947 1113 1208 752 
Q 1469 391 1925 391 
Q 2381 391 2643 752 
Q 2906 1113 2906 1747 
Q 2906 2381 2643 2742 
Q 2381 3103 1925 3103 
Q 1469 3103 1208 2742 
Q 947 2381 947 1747 
z
" transform="scale(0.015625)"/>
       <path id="DejaVuSans-66" d="M 2375 4863 
L 2375 4384 
L 1825 4384 
Q 1516 4384 1395 4259 
Q 1275 4134 1275 3809 
L 1275 3500 
L 2222 3500 
L 2222 3053 
L 1275 3053 
L 1275 0 
L 697 0 
L 697 3053 
L 147 3053 
L 147 3500 
L 697 3500 
L 697 3744 
Q 697 4328 969 4595 
Q 1241 4863 1831 4863 
L 2375 4863 
z
" transform="scale(0.015625)"/>
      </defs>
      <use xlink:href="#DejaVuSans-72"/>
      <use xlink:href="#DejaVuSans-64" transform="translate(39.363281 0)"/>
      <use xlink:href="#DejaVuSans-66" transform="translate(102.839844 0)"/>
     </g>
    </g>
   </g>
   <g id="line2d_13">
    <path d="M 44.406818 180.687273 
L 92.708254 180.687273 
L 93.244936 173.604697 
L 93.781619 173.757007 
L 94.318301 180.687273 
L 94.854984 180.687273 
L 95.391667 167.683886 
L 95.928349 167.951976 
L 96.465032 180.687273 
L 97.001715 168.463891 
L 97.538397 180.687273 
L 98.07508 180.687273 
L 99.148445 158.111304 
L 99.685128 180.687273 
L 100.22181 175.25725 
L 100.758493 159.377006 
L 101.831858 180.687273 
L 102.368541 180.687273 
L 102.905223 165.85091 
L 103.441906 166.118195 
L 103.978589 180.687273 
L 105.051954 171.481224 
L 105.588636 158.072453 
L 106.125319 180.687273 
L 106.662002 167.580243 
L 107.198684 167.802372 
L 108.272049 176.534868 
L 108.808732 176.603505 
L 109.345415 168.636818 
L 110.41878 176.799501 
L 111.492145 176.922422 
L 112.028828 173.276136 
L 112.56551 180.687273 
L 113.102193 162.731705 
L 113.638876 170.079668 
L 114.175558 180.687273 
L 115.785606 170.705822 
L 116.322289 177.409404 
L 117.395654 164.774702 
L 117.932337 177.550876 
L 118.469019 177.596012 
L 119.005702 174.59307 
L 119.542384 177.683389 
L 120.079067 174.764121 
L 120.61575 174.846955 
L 121.152432 172.048461 
L 121.689115 172.16763 
L 122.76248 177.924404 
L 123.299163 172.510664 
L 124.909211 180.687273 
L 125.445893 175.520252 
L 125.982576 167.93856 
L 126.519258 175.654017 
L 127.055941 178.203118 
L 127.592624 170.878026 
L 128.129306 180.687273 
L 128.665989 171.12556 
L 129.202671 175.966556 
L 129.739354 173.694718 
L 130.276037 178.385375 
L 130.812719 169.319869 
L 131.349402 178.44169 
L 131.886085 174.032683 
L 132.422767 171.92202 
L 132.95945 172.027605 
L 133.496132 176.409299 
L 134.032815 168.006177 
L 135.10618 172.431532 
L 135.642863 170.48828 
L 136.179545 170.606871 
L 136.716228 176.701724 
L 137.252911 176.747523 
L 137.789593 170.950509 
L 138.326276 176.836823 
L 138.862959 178.783799 
L 139.399641 171.276847 
L 139.936324 173.243024 
L 140.473006 177.006512 
L 141.009689 175.227138 
L 141.546372 175.287151 
L 142.083054 173.565781 
L 142.619737 170.12116 
L 143.156419 177.203308 
L 143.693102 170.347767 
L 144.229785 170.458352 
L 144.766467 173.940528 
L 145.30315 179.018436 
L 145.839833 175.733468 
L 146.376515 179.053296 
L 147.44988 172.686256 
L 147.986563 174.352446 
L 148.523246 177.55234 
L 149.059928 174.481389 
L 149.596611 166.865809 
L 150.133293 171.566042 
L 150.669976 165.637988 
L 151.206659 173.237877 
L 151.743341 174.787057 
L 152.280024 177.766371 
L 152.816707 172.010911 
L 153.353389 169.232182 
L 153.890072 173.5977 
L 154.426754 172.262382 
L 154.963437 173.734345 
L 155.50012 176.555652 
L 156.036802 176.595176 
L 156.573485 175.283122 
L 157.110167 168.643182 
L 157.64685 174.059206 
L 158.183533 175.434637 
L 158.720215 174.182837 
L 159.256898 170.376986 
L 159.793581 170.472442 
L 160.330263 164.241118 
L 160.866946 173.166393 
L 161.403628 178.203203 
L 161.940311 165.918363 
L 162.476994 175.80883 
L 163.013676 177.061413 
L 163.550359 175.896162 
L 164.087041 171.190611 
L 164.623724 167.745407 
L 165.160407 177.188914 
L 165.697089 176.063878 
L 166.233772 177.250139 
L 166.770455 176.144479 
L 167.307137 172.806503 
L 167.84382 173.990795 
L 168.380502 171.835621 
L 168.917185 173.008549 
L 169.453868 177.424522 
L 169.99055 169.903955 
L 170.527233 175.341322 
L 171.063915 177.506759 
L 171.600598 175.43097 
L 172.137281 168.177708 
L 172.673963 175.518403 
L 173.210646 173.510902 
L 173.747329 177.637105 
L 174.284011 171.612094 
L 174.820694 176.686925 
L 175.357376 171.759965 
L 175.894059 176.751831 
L 176.430742 172.880132 
L 176.967424 173.911101 
L 177.504107 175.886024 
L 178.040789 175.924435 
L 178.577472 174.072431 
L 179.114155 169.437534 
L 179.650837 175.106856 
L 180.18752 176.073545 
L 180.724203 172.447723 
L 181.260885 178.870564 
L 181.797568 175.279561 
L 182.33425 167.272792 
L 182.870933 176.250304 
L 183.407616 172.762186 
L 183.944298 177.192005 
L 184.480981 172.882936 
L 185.017663 171.221216 
L 185.554346 173.855023 
L 186.091029 174.754144 
L 186.627711 170.592665 
L 187.164394 171.503225 
L 187.701077 170.743043 
L 188.237759 174.107066 
L 188.774442 174.972241 
L 189.311124 171.772795 
L 189.847807 173.447246 
L 190.38449 174.298844 
L 190.921172 170.381844 
L 191.457855 173.604615 
L 191.994537 172.874712 
L 192.53122 176.8092 
L 193.067903 174.526982 
L 193.604585 173.042125 
L 194.141268 179.169161 
L 194.677951 173.150743 
L 195.214633 174.70083 
L 195.751316 174.000099 
L 196.287998 174.784969 
L 196.824681 177.756828 
L 197.361364 174.867366 
L 197.898046 175.630338 
L 198.434729 171.361101 
L 198.971411 174.275354 
L 199.508094 171.489513 
L 200.044777 179.281959 
L 200.581459 172.313117 
L 201.118142 171.677208 
L 201.654825 176.557059 
L 202.191507 178.636168 
L 202.72819 173.217392 
L 203.264872 173.942182 
L 203.801555 175.997391 
L 204.87492 170.771296 
L 205.948285 174.816352 
L 206.484968 174.207119 
L 207.021651 174.893482 
L 207.558333 176.210545 
L 208.095016 174.333738 
L 208.631699 171.850294 
L 209.168381 174.416126 
L 209.705064 170.095345 
L 210.241746 173.258833 
L 210.778429 174.53671 
L 211.315112 170.298346 
L 211.851794 173.400782 
L 212.388477 172.843867 
L 212.925159 175.291672 
L 213.461842 174.730112 
L 213.998525 172.399867 
L 214.535207 175.393156 
L 215.07189 176.010912 
L 215.608573 172.554797 
L 216.145255 173.182725 
L 216.681938 172.655663 
L 217.21862 171.565105 
L 217.755303 176.154345 
L 218.291986 170.550969 
L 218.828668 177.329223 
L 219.365351 175.124779 
L 219.902033 175.158688 
L 220.438716 172.444796 
L 221.512081 177.97292 
L 222.048764 172.593339 
L 222.585447 174.250979 
L 223.122129 173.756363 
L 223.658812 176.447596 
L 224.195494 175.419217 
L 224.732177 170.213644 
L 225.26886 176.522603 
L 225.805542 171.372105 
L 226.342225 176.057064 
L 226.878907 175.061333 
L 227.41559 170.009682 
L 227.952273 173.104871 
L 228.488955 175.159154 
L 229.025638 172.693003 
L 229.562321 174.229479 
L 230.099003 170.315513 
L 230.635686 169.884099 
L 231.172368 171.899023 
L 232.245734 172.964384 
L 232.782416 175.407911 
L 233.319099 173.051745 
L 233.855781 172.620364 
L 234.392464 174.081374 
L 234.929147 174.587665 
L 235.465829 172.755524 
L 236.002512 173.26382 
L 236.539195 171.921047 
L 237.075877 175.640261 
L 237.61256 173.843147 
L 238.149242 174.334699 
L 239.222608 177.097084 
L 239.75929 173.099894 
L 240.295973 173.58522 
L 240.832656 173.1825 
L 241.369338 175.418557 
L 241.906021 175.447124 
L 242.442703 172.435242 
L 242.979386 174.207619 
L 243.516069 174.242443 
L 244.052751 174.704365 
L 244.589434 176.011563 
L 245.126116 176.45928 
L 245.662799 174.379042 
L 246.199482 173.157535 
L 246.736164 176.526198 
L 247.272847 175.306461 
L 247.80953 175.746486 
L 248.346212 174.134178 
L 248.882895 175.390724 
L 249.419577 175.418401 
L 249.95626 175.849028 
L 250.492943 175.071976 
L 251.029625 174.702084 
L 251.566308 177.511653 
L 252.10299 173.184045 
L 253.176356 175.606068 
L 253.713038 175.243195 
L 254.249721 172.562838 
L 254.786404 173.374002 
L 255.323086 175.708867 
L 255.859769 171.923913 
L 256.396451 176.896362 
L 256.933134 174.652354 
L 257.469817 173.181516 
L 258.006499 175.459592 
L 258.543182 170.655754 
L 258.543182 170.655754 
" clip-path="url(#pbe7ada2ddc)" style="fill: none; stroke: #000000; stroke-opacity: 0.5; stroke-width: 0.5; stroke-linecap: square"/>
   </g>
   <g id="line2d_14">
    <path d="M 44.406818 180.687273 
L 92.708254 180.687273 
L 93.244936 168.096029 
L 93.781619 168.366801 
L 94.318301 180.687273 
L 94.854984 180.687273 
L 95.391667 157.570141 
L 96.465032 180.687273 
L 97.001715 169.822045 
L 97.538397 180.687273 
L 98.07508 180.687273 
L 98.611762 170.45483 
L 99.148445 150.585985 
L 99.685128 180.687273 
L 100.758493 161.744815 
L 101.295175 162.098883 
L 101.831858 180.687273 
L 102.905223 180.687273 
L 103.441906 163.420218 
L 103.978589 180.687273 
L 105.051954 180.687273 
L 105.588636 164.605624 
L 106.125319 180.687273 
L 106.662002 157.385887 
L 107.198684 180.687273 
L 107.735367 165.672928 
L 108.272049 173.305221 
L 108.808732 173.427242 
L 109.345415 159.264244 
L 109.882097 180.687273 
L 110.41878 173.775679 
L 110.955463 173.886254 
L 111.492145 180.687273 
L 112.028828 174.099596 
L 112.56551 180.687273 
L 113.102193 155.150468 
L 113.638876 174.401285 
L 114.175558 180.687273 
L 114.712241 180.687273 
L 115.248923 174.682712 
L 115.785606 162.942473 
L 116.322289 180.687273 
L 116.858971 169.204024 
L 117.395654 163.713866 
L 117.932337 180.687273 
L 118.469019 175.191698 
L 119.542384 175.347036 
L 120.079067 180.687273 
L 120.61575 175.495879 
L 121.152432 165.329386 
L 122.225797 175.707763 
L 122.76248 175.775507 
L 123.299163 170.996478 
L 124.372528 180.687273 
L 124.909211 180.687273 
L 125.445893 176.094366 
L 125.982576 167.088647 
L 127.055941 176.270997 
L 127.592624 176.327607 
L 128.129306 180.687273 
L 128.665989 167.938324 
L 129.202671 176.49108 
L 129.739354 172.399801 
L 130.276037 176.59501 
L 130.812719 172.603785 
L 131.349402 180.687273 
L 131.886085 176.743812 
L 132.422767 169.00027 
L 133.496132 176.884629 
L 134.032815 165.657826 
L 134.569498 173.261461 
L 135.10618 169.679619 
L 135.642863 177.060965 
L 136.179545 173.518988 
L 136.716228 173.601853 
L 137.252911 180.687273 
L 137.789593 166.839432 
L 138.326276 180.687273 
L 139.399641 173.995415 
L 139.936324 174.070163 
L 141.009689 180.687273 
L 141.546372 174.287128 
L 142.619737 168.164473 
L 143.156419 177.590415 
L 143.693102 171.496602 
L 144.229785 177.656481 
L 144.766467 174.690167 
L 145.30315 177.720452 
L 145.839833 177.751685 
L 146.376515 180.687273 
L 146.913198 180.687273 
L 147.44988 172.152856 
L 147.986563 175.056316 
L 148.523246 180.687273 
L 149.596611 164.30628 
L 150.133293 175.282099 
L 150.669976 161.959273 
L 151.206659 170.092578 
L 151.743341 172.820318 
L 152.280024 178.090916 
L 153.353389 167.959394 
L 154.426754 178.191009 
L 154.963437 175.742969 
L 155.50012 175.790538 
L 156.036802 178.262327 
L 156.573485 175.883583 
L 157.110167 164.033716 
L 157.64685 175.973981 
L 158.183533 171.349254 
L 158.720215 169.123832 
L 159.256898 169.231399 
L 159.793581 167.0675 
L 160.866946 167.31682 
L 161.403628 178.479211 
L 161.940311 163.183381 
L 162.476994 174.182683 
L 163.013676 178.538615 
L 164.087041 174.356165 
L 164.623724 163.954357 
L 165.160407 176.54107 
L 166.233772 176.613633 
L 166.770455 178.668253 
L 167.307137 168.678482 
L 167.84382 170.766565 
L 168.380502 170.852104 
L 168.917185 176.786969 
L 169.453868 176.820308 
L 169.99055 171.102102 
L 170.527233 174.984926 
L 171.063915 176.917776 
L 171.600598 180.687273 
L 172.137281 167.714391 
L 172.673963 177.011632 
L 173.210646 173.396992 
L 173.747329 178.879766 
L 174.284011 173.516762 
L 174.820694 177.131408 
L 175.357376 173.633597 
L 175.894059 178.938188 
L 176.430742 172.012671 
L 176.967424 175.524476 
L 177.504107 175.565941 
L 178.040789 177.300366 
L 178.577472 172.287474 
L 179.114155 164.020993 
L 179.650837 175.726902 
L 180.18752 175.765964 
L 180.724203 172.549446 
L 181.260885 179.072421 
L 181.797568 175.880418 
L 182.33425 163.198765 
L 182.870933 175.954507 
L 183.407616 174.425476 
L 183.944298 177.580368 
L 184.480981 172.979286 
L 185.017663 169.978199 
L 186.091029 176.166794 
L 186.627711 170.218791 
L 187.164394 171.78153 
L 187.701077 170.374738 
L 188.237759 176.300469 
L 188.774442 177.7844 
L 189.311124 172.042933 
L 189.847807 173.53663 
L 190.38449 180.687273 
L 190.921172 172.231537 
L 191.457855 173.692055 
L 191.994537 172.353875 
L 192.53122 179.308403 
L 193.067903 175.211459 
L 193.604585 175.250724 
L 194.141268 179.33784 
L 194.677951 171.30848 
L 195.214633 178.026632 
L 195.751316 175.40358 
L 196.287998 175.440781 
L 196.824681 178.082433 
L 197.361364 174.22071 
L 197.898046 175.550069 
L 198.434729 174.310403 
L 199.508094 174.398206 
L 200.044777 179.438105 
L 200.581459 172.002963 
L 201.118142 172.062253 
L 201.654825 178.239739 
L 202.191507 179.471803 
L 202.72819 172.236499 
L 203.264872 172.293382 
L 203.801555 175.922949 
L 204.338238 175.954816 
L 204.87492 167.759778 
L 205.411603 171.347926 
L 205.948285 173.729144 
L 206.484968 174.927137 
L 207.558333 175.002539 
L 208.095016 176.169204 
L 208.631699 172.832181 
L 209.168381 176.227791 
L 209.705064 171.826053 
L 210.241746 174.084216 
L 210.778429 174.126673 
L 211.315112 169.823036 
L 211.851794 170.971952 
L 212.388477 169.961249 
L 212.925159 175.358284 
L 213.461842 174.332968 
L 213.998525 168.058847 
L 214.535207 176.504267 
L 215.07189 177.569699 
L 215.608573 172.42571 
L 216.145255 170.424644 
L 216.681938 177.627612 
L 217.21862 169.537957 
L 217.755303 176.658004 
L 218.291986 169.674992 
L 218.828668 178.697318 
L 219.365351 173.765058 
L 219.902033 174.790116 
L 220.438716 170.918411 
L 220.975399 175.832466 
L 221.512081 177.791963 
L 222.048764 172.053744 
L 222.585447 172.105548 
L 223.122129 175.000373 
L 223.658812 176.918671 
L 224.195494 176.004557 
L 224.732177 170.446393 
L 225.26886 177.910827 
L 225.805542 170.567091 
L 226.342225 177.028837 
L 226.878907 174.322573 
L 227.41559 170.74412 
L 227.952273 169.903414 
L 228.488955 174.43324 
L 229.025638 172.693003 
L 229.562321 177.154804 
L 230.099003 173.663012 
L 230.635686 169.338485 
L 231.172368 169.403594 
L 231.709051 171.194034 
L 232.245734 173.822483 
L 233.319099 172.203354 
L 233.855781 173.938487 
L 234.392464 173.137675 
L 234.929147 175.682467 
L 235.465829 173.222099 
L 236.002512 175.738304 
L 236.539195 172.484956 
L 237.075877 175.793202 
L 238.149242 175.847217 
L 238.685925 174.269461 
L 239.222608 175.900355 
L 239.75929 174.339663 
L 240.832656 172.839145 
L 241.369338 174.442869 
L 241.906021 178.358318 
L 242.442703 172.193955 
L 242.979386 173.007684 
L 243.516069 176.104283 
L 244.052751 174.609399 
L 244.589434 178.420262 
L 245.126116 177.6807 
L 245.662799 173.958494 
L 246.199482 174.737851 
L 246.736164 176.248794 
L 247.272847 174.800573 
L 247.80953 176.295463 
L 249.419577 174.202509 
L 249.95626 177.103388 
L 250.492943 176.408952 
L 251.029625 175.012427 
L 251.566308 177.8645 
L 252.10299 174.368766 
L 252.639673 173.004342 
L 253.176356 175.128348 
L 254.249721 175.18501 
L 254.786404 174.52873 
L 255.323086 175.921619 
L 255.859769 171.204218 
L 256.396451 175.969695 
L 256.933134 173.311261 
L 257.469817 171.346776 
L 258.006499 176.040446 
L 258.543182 170.119089 
L 258.543182 170.119089 
" clip-path="url(#pbe7ada2ddc)" style="fill: none; stroke: #0000ff; stroke-opacity: 0.5; stroke-linecap: square"/>
   </g>
   <g id="line2d_15">
    <path d="M 44.406818 180.687273 
L 102.368541 180.687273 
L 102.905223 22.432727 
L 103.441906 180.687273 
L 105.051954 180.687273 
L 105.588636 108.319852 
L 106.125319 180.687273 
L 114.175558 180.687273 
L 114.712241 125.821318 
L 115.248923 180.687273 
L 116.322289 180.687273 
L 116.858971 129.01265 
L 117.395654 180.687273 
L 127.055941 180.687273 
L 127.592624 141.450284 
L 128.129306 180.687273 
L 128.665989 180.687273 
L 129.202671 142.921537 
L 129.739354 180.687273 
L 131.349402 180.687273 
L 131.886085 145.196127 
L 132.422767 180.687273 
L 138.862959 180.687273 
L 139.399641 150.573914 
L 139.936324 180.687273 
L 142.083054 180.687273 
L 142.619737 152.510972 
L 143.156419 180.687273 
L 143.693102 180.687273 
L 144.229785 126.133024 
L 145.30315 180.687273 
L 146.376515 180.687273 
L 146.913198 154.815933 
L 147.44988 180.687273 
L 147.986563 180.687273 
L 148.523246 155.607815 
L 149.059928 155.863738 
L 149.596611 180.687273 
L 152.816707 180.687273 
L 153.353389 157.777091 
L 153.890072 180.687273 
L 154.426754 158.220897 
L 154.963437 180.687273 
L 158.720215 180.687273 
L 159.256898 160.0667 
L 159.793581 180.687273 
L 160.330263 99.721589 
L 160.866946 180.687273 
L 161.403628 180.687273 
L 161.940311 141.303512 
L 162.476994 180.687273 
L 163.013676 161.349354 
L 163.550359 180.687273 
L 164.087041 180.687273 
L 164.623724 161.862741 
L 165.160407 180.687273 
L 165.697089 162.193694 
L 166.233772 180.687273 
L 168.380502 180.687273 
L 168.917185 163.135904 
L 169.453868 163.285933 
L 169.99055 146.180658 
L 170.527233 180.687273 
L 171.063915 180.687273 
L 171.600598 163.867105 
L 172.137281 180.687273 
L 172.673963 164.146892 
L 173.210646 180.687273 
L 173.747329 180.687273 
L 174.284011 164.553621 
L 174.820694 180.687273 
L 175.357376 148.94573 
L 175.894059 164.945506 
L 176.967424 165.19888 
L 177.504107 180.687273 
L 178.040789 165.446191 
L 178.577472 180.687273 
L 179.650837 180.687273 
L 180.18752 165.923345 
L 180.724203 180.687273 
L 181.260885 180.687273 
L 181.797568 166.266707 
L 182.33425 166.378493 
L 182.870933 180.687273 
L 183.407616 180.687273 
L 183.944298 166.706201 
L 185.017663 166.918463 
L 185.554346 180.687273 
L 186.091029 153.564399 
L 186.627711 180.687273 
L 187.164394 127.252811 
L 187.701077 154.169327 
L 188.774442 180.687273 
L 189.311124 167.720761 
L 189.847807 180.687273 
L 190.921172 180.687273 
L 191.457855 168.095881 
L 191.994537 180.687273 
L 192.53122 168.277442 
L 193.067903 180.687273 
L 193.604585 168.455037 
L 194.141268 180.687273 
L 196.287998 180.687273 
L 196.824681 168.965494 
L 197.361364 180.687273 
L 197.898046 180.687273 
L 198.434729 169.208907 
L 198.971411 169.288305 
L 199.508094 180.687273 
L 200.581459 180.687273 
L 201.118142 169.597962 
L 201.654825 180.687273 
L 203.801555 180.687273 
L 204.338238 170.039244 
L 204.87492 180.687273 
L 205.948285 180.687273 
L 206.484968 170.319027 
L 207.021651 170.387199 
L 207.558333 180.687273 
L 208.095016 180.687273 
L 208.631699 170.58787 
L 209.705064 170.7184 
L 210.241746 180.687273 
L 210.778429 161.005473 
L 211.851794 180.687273 
L 212.388477 171.033851 
L 212.925159 180.687273 
L 213.461842 180.687273 
L 213.998525 171.215952 
L 214.535207 180.687273 
L 215.608573 180.687273 
L 216.145255 171.450906 
L 216.681938 180.687273 
L 217.755303 180.687273 
L 218.291986 171.677225 
L 218.828668 180.687273 
L 219.365351 171.787283 
L 219.902033 180.687273 
L 221.512081 180.687273 
L 222.048764 163.420213 
L 222.585447 172.105547 
L 223.122129 172.156922 
L 223.658812 180.687273 
L 224.732177 163.929468 
L 225.26886 172.357934 
L 225.805542 147.566673 
L 226.342225 180.687273 
L 226.878907 180.687273 
L 227.41559 172.551965 
L 229.025638 172.693003 
L 229.562321 156.843112 
L 230.635686 172.830419 
L 231.172368 165.063717 
L 231.709051 172.920077 
L 232.245734 157.518608 
L 232.782416 180.687273 
L 233.319099 173.051745 
L 233.855781 157.910121 
L 234.392464 173.137675 
L 234.929147 150.658437 
L 235.465829 180.687273 
L 236.002512 165.840367 
L 236.539195 165.923103 
L 237.075877 180.687273 
L 237.61256 166.08647 
L 238.149242 166.167104 
L 238.685925 180.687273 
L 239.222608 180.687273 
L 239.75929 159.264089 
L 240.295973 173.58522 
L 241.906021 173.700408 
L 242.442703 166.789116 
L 243.516069 180.687273 
L 244.589434 167.085209 
L 245.126116 173.922484 
L 245.662799 173.958494 
L 246.199482 160.607972 
L 246.736164 180.687273 
L 247.272847 160.81966 
L 247.80953 180.687273 
L 248.346212 174.134178 
L 248.882895 180.687273 
L 249.419577 180.687273 
L 250.492943 155.017346 
L 251.029625 180.687273 
L 251.566308 174.336033 
L 252.10299 174.368765 
L 252.639673 180.687273 
L 253.713038 168.243666 
L 254.249721 149.737045 
L 254.786404 168.370186 
L 255.323086 180.687273 
L 255.859769 168.494773 
L 256.396451 180.687273 
L 256.933134 180.687273 
L 257.469817 168.678062 
L 258.006499 180.687273 
L 258.543182 180.687273 
L 258.543182 180.687273 
" clip-path="url(#pbe7ada2ddc)" style="fill: none; stroke: #ff0000; stroke-opacity: 0.5; stroke-linecap: square"/>
   </g>
   <g id="patch_3">
    <path d="M 33.7 188.6 
L 33.7 14.52 
" style="fill: none; stroke: #000000; stroke-width: 0.8; stroke-linejoin: miter; stroke-linecap: square"/>
   </g>
   <g id="patch_4">
    <path d="M 269.25 188.6 
L 269.25 14.52 
" style="fill: none; stroke: #000000; stroke-width: 0.8; stroke-linejoin: miter; stroke-linecap: square"/>
   </g>
   <g id="patch_5">
    <path d="M 33.7 188.6 
L 269.25 188.6 
" style="fill: none; stroke: #000000; stroke-width: 0.8; stroke-linejoin: miter; stroke-linecap: square"/>
   </g>
   <g id="patch_6">
    <path d="M 33.7 14.52 
L 269.25 14.52 
" style="fill: none; stroke: #000000; stroke-width: 0.8; stroke-linejoin: miter; stroke-linecap: square"/>
   </g>
   <g id="legend_1">
    <g id="patch_7">
     <path d="M 213.917188 66.554375 
L 262.25 66.554375 
Q 264.25 66.554375 264.25 64.554375 
L 264.25 21.52 
Q 264.25 19.52 262.25 19.52 
L 213.917188 19.52 
Q 211.917188 19.52 211.917188 21.52 
L 211.917188 64.554375 
Q 211.917188 66.554375 213.917188 66.554375 
z
" style="fill: #ffffff; opacity: 0.8; stroke: #cccccc; stroke-linejoin: miter"/>
    </g>
    <g id="line2d_16">
     <path d="M 215.917188 27.618438 
L 225.917188 27.618438 
L 235.917188 27.618438 
" style="fill: none; stroke: #000000; stroke-opacity: 0.5; stroke-width: 0.5; stroke-linecap: square"/>
    </g>
    <g id="text_15">
     <!-- all -->
     <g transform="translate(243.917188 31.118438) scale(0.1 -0.1)">
      <defs>
       <path id="DejaVuSans-61" d="M 2194 1759 
Q 1497 1759 1228 1600 
Q 959 1441 959 1056 
Q 959 750 1161 570 
Q 1363 391 1709 391 
Q 2188 391 2477 730 
Q 2766 1069 2766 1631 
L 2766 1759 
L 2194 1759 
z
M 3341 1997 
L 3341 0 
L 2766 0 
L 2766 531 
Q 2569 213 2275 61 
Q 1981 -91 1556 -91 
Q 1019 -91 701 211 
Q 384 513 384 1019 
Q 384 1609 779 1909 
Q 1175 2209 1959 2209 
L 2766 2209 
L 2766 2266 
Q 2766 2663 2505 2880 
Q 2244 3097 1772 3097 
Q 1472 3097 1187 3025 
Q 903 2953 641 2809 
L 641 3341 
Q 956 3463 1253 3523 
Q 1550 3584 1831 3584 
Q 2591 3584 2966 3190 
Q 3341 2797 3341 1997 
z
" transform="scale(0.015625)"/>
       <path id="DejaVuSans-6c" d="M 603 4863 
L 1178 4863 
L 1178 0 
L 603 0 
L 603 4863 
z
" transform="scale(0.015625)"/>
      </defs>
      <use xlink:href="#DejaVuSans-61"/>
      <use xlink:href="#DejaVuSans-6c" transform="translate(61.279297 0)"/>
      <use xlink:href="#DejaVuSans-6c" transform="translate(89.0625 0)"/>
     </g>
    </g>
    <g id="line2d_17">
     <path d="M 215.917188 42.296563 
L 225.917188 42.296563 
L 235.917188 42.296563 
" style="fill: none; stroke: #0000ff; stroke-opacity: 0.5; stroke-linecap: square"/>
    </g>
    <g id="text_16">
     <!-- 1-1 -->
     <g transform="translate(243.917188 45.796563) scale(0.1 -0.1)">
      <defs>
       <path id="DejaVuSans-2d" d="M 313 2009 
L 1997 2009 
L 1997 1497 
L 313 1497 
L 313 2009 
z
" transform="scale(0.015625)"/>
      </defs>
      <use xlink:href="#DejaVuSans-31"/>
      <use xlink:href="#DejaVuSans-2d" transform="translate(63.623047 0)"/>
      <use xlink:href="#DejaVuSans-31" transform="translate(99.707031 0)"/>
     </g>
    </g>
    <g id="line2d_18">
     <path d="M 215.917188 56.974688 
L 225.917188 56.974688 
L 235.917188 56.974688 
" style="fill: none; stroke: #ff0000; stroke-opacity: 0.5; stroke-linecap: square"/>
    </g>
    <g id="text_17">
     <!-- 2-2 -->
     <g transform="translate(243.917188 60.474688) scale(0.1 -0.1)">
      <use xlink:href="#DejaVuSans-32"/>
      <use xlink:href="#DejaVuSans-2d" transform="translate(63.623047 0)"/>
      <use xlink:href="#DejaVuSans-32" transform="translate(99.707031 0)"/>
     </g>
    </g>
   </g>
  </g>
 </g>
 <defs>
  <clipPath id="pbe7ada2ddc">
   <rect x="33.7" y="14.52" width="235.55" height="174.08"/>
  </clipPath>
 </defs>
</svg>
