<?xml version="1.0" encoding="utf-8" standalone="no"?>
<!DOCTYPE svg PUBLIC "-//W3C//DTD SVG 1.1//EN"
  "http://www.w3.org/Graphics/SVG/1.1/DTD/svg11.dtd">
<svg xmlns:xlink="http://www.w3.org/1999/xlink" width="288pt" height="216pt" viewBox="0 0 288 216" xmlns="http://www.w3.org/2000/svg" version="1.1">
 <metadata>
  <rdf:RDF xmlns:dc="http://purl.org/dc/elements/1.1/" xmlns:cc="http://creativecommons.org/ns#" xmlns:rdf="http://www.w3.org/1999/02/22-rdf-syntax-ns#">
   <cc:Work>
    <dc:type rdf:resource="http://purl.org/dc/dcmitype/StillImage"/>
    <dc:date>2025-09-17T23:02:45.410264</dc:date>
    <dc:format>image/svg+xml</dc:format>
    <dc:creator>
     <cc:Agent>
      <dc:title>Matplotlib v3.10.0, https://matplotlib.org/</dc:title>
     </cc:Agent>
    </dc:creator>
   </cc:Work>
  </rdf:RDF>
 </metadata>
 <defs>
  <style type="text/css">*{stroke-linejoin: round; stroke-linecap: butt}</style>
 </defs>
 <g id="figure_1">
  <g id="patch_1">
   <path d="M 0 216 
L 288 216 
L 288 0 
L 0 0 
z
" style="fill: #ffffff"/>
  </g>
  <g id="axes_1">
   <g id="patch_2">
    <path d="M 33.7 188.6 
L 269.25 188.6 
L 269.25 14.52 
L 33.7 14.52 
z
" style="fill: #ffffff"/>
   </g>
   <g id="matplotlib.axis_1">
    <g id="xtick_1">
     <g id="line2d_1">
      <defs>
       <path id="m4ee4ff83fa" d="M 0 0 
L 0 3.5 
" style="stroke: #000000; stroke-width: 0.8"/>
      </defs>
      <g>
       <use xlink:href="#m4ee4ff83fa" x="44.138477" y="188.6" style="stroke: #000000; stroke-width: 0.8"/>
      </g>
     </g>
     <g id="text_1">
      <!-- 0 -->
      <g transform="translate(40.957227 203.198437) scale(0.1 -0.1)">
       <defs>
        <path id="DejaVuSans-30" d="M 2034 4250 
Q 1547 4250 1301 3770 
Q 1056 3291 1056 2328 
Q 1056 1369 1301 889 
Q 1547 409 2034 409 
Q 2525 409 2770 889 
Q 3016 1369 3016 2328 
Q 3016 3291 2770 3770 
Q 2525 4250 2034 4250 
z
M 2034 4750 
Q 2819 4750 3233 4129 
Q 3647 3509 3647 2328 
Q 3647 1150 3233 529 
Q 2819 -91 2034 -91 
Q 1250 -91 836 529 
Q 422 1150 422 2328 
Q 422 3509 836 4129 
Q 1250 4750 2034 4750 
z
" transform="scale(0.015625)"/>
       </defs>
       <use xlink:href="#DejaVuSans-30"/>
      </g>
     </g>
    </g>
    <g id="xtick_2">
     <g id="line2d_2">
      <g>
       <use xlink:href="#m4ee4ff83fa" x="87.073086" y="188.6" style="stroke: #000000; stroke-width: 0.8"/>
      </g>
     </g>
     <g id="text_2">
      <!-- 200 -->
      <g transform="translate(77.529336 203.198437) scale(0.1 -0.1)">
       <defs>
        <path id="DejaVuSans-32" d="M 1228 531 
L 3431 531 
L 3431 0 
L 469 0 
L 469 531 
Q 828 903 1448 1529 
Q 2069 2156 2228 2338 
Q 2531 2678 2651 2914 
Q 2772 3150 2772 3378 
Q 2772 3750 2511 3984 
Q 2250 4219 1831 4219 
Q 1534 4219 1204 4116 
Q 875 4013 500 3803 
L 500 4441 
Q 881 4594 1212 4672 
Q 1544 4750 1819 4750 
Q 2544 4750 2975 4387 
Q 3406 4025 3406 3419 
Q 3406 3131 3298 2873 
Q 3191 2616 2906 2266 
Q 2828 2175 2409 1742 
Q 1991 1309 1228 531 
z
" transform="scale(0.015625)"/>
       </defs>
       <use xlink:href="#DejaVuSans-32"/>
       <use xlink:href="#DejaVuSans-30" transform="translate(63.623047 0)"/>
       <use xlink:href="#DejaVuSans-30" transform="translate(127.246094 0)"/>
      </g>
     </g>
    </g>
    <g id="xtick_3">
     <g id="line2d_3">
      <g>
       <use xlink:href="#m4ee4ff83fa" x="130.007695" y="188.6" style="stroke: #000000; stroke-width: 0.8"/>
      </g>
     </g>
     <g id="text_3">
      <!-- 400 -->
      <g transform="translate(120.463945 203.198437) scale(0.1 -0.1)">
       <defs>
        <path id="DejaVuSans-34" d="M 2419 4116 
L 825 1625 
L 2419 1625 
L 2419 4116 
z
M 2253 4666 
L 3047 4666 
L 3047 1625 
L 3713 1625 
L 3713 1100 
L 3047 1100 
L 3047 0 
L 2419 0 
L 2419 1100 
L 313 1100 
L 313 1709 
L 2253 4666 
z
" transform="scale(0.015625)"/>
       </defs>
       <use xlink:href="#DejaVuSans-34"/>
       <use xlink:href="#DejaVuSans-30" transform="translate(63.623047 0)"/>
       <use xlink:href="#DejaVuSans-30" transform="translate(127.246094 0)"/>
      </g>
     </g>
    </g>
    <g id="xtick_4">
     <g id="line2d_4">
      <g>
       <use xlink:href="#m4ee4ff83fa" x="172.942305" y="188.6" style="stroke: #000000; stroke-width: 0.8"/>
      </g>
     </g>
     <g id="text_4">
      <!-- 600 -->
      <g transform="translate(163.398555 203.198437) scale(0.1 -0.1)">
       <defs>
        <path id="DejaVuSans-36" d="M 2113 2584 
Q 1688 2584 1439 2293 
Q 1191 2003 1191 1497 
Q 1191 994 1439 701 
Q 1688 409 2113 409 
Q 2538 409 2786 701 
Q 3034 994 3034 1497 
Q 3034 2003 2786 2293 
Q 2538 2584 2113 2584 
z
M 3366 4563 
L 3366 3988 
Q 3128 4100 2886 4159 
Q 2644 4219 2406 4219 
Q 1781 4219 1451 3797 
Q 1122 3375 1075 2522 
Q 1259 2794 1537 2939 
Q 1816 3084 2150 3084 
Q 2853 3084 3261 2657 
Q 3669 2231 3669 1497 
Q 3669 778 3244 343 
Q 2819 -91 2113 -91 
Q 1303 -91 875 529 
Q 447 1150 447 2328 
Q 447 3434 972 4092 
Q 1497 4750 2381 4750 
Q 2619 4750 2861 4703 
Q 3103 4656 3366 4563 
z
" transform="scale(0.015625)"/>
       </defs>
       <use xlink:href="#DejaVuSans-36"/>
       <use xlink:href="#DejaVuSans-30" transform="translate(63.623047 0)"/>
       <use xlink:href="#DejaVuSans-30" transform="translate(127.246094 0)"/>
      </g>
     </g>
    </g>
    <g id="xtick_5">
     <g id="line2d_5">
      <g>
       <use xlink:href="#m4ee4ff83fa" x="215.876914" y="188.6" style="stroke: #000000; stroke-width: 0.8"/>
      </g>
     </g>
     <g id="text_5">
      <!-- 800 -->
      <g transform="translate(206.333164 203.198437) scale(0.1 -0.1)">
       <defs>
        <path id="DejaVuSans-38" d="M 2034 2216 
Q 1584 2216 1326 1975 
Q 1069 1734 1069 1313 
Q 1069 891 1326 650 
Q 1584 409 2034 409 
Q 2484 409 2743 651 
Q 3003 894 3003 1313 
Q 3003 1734 2745 1975 
Q 2488 2216 2034 2216 
z
M 1403 2484 
Q 997 2584 770 2862 
Q 544 3141 544 3541 
Q 544 4100 942 4425 
Q 1341 4750 2034 4750 
Q 2731 4750 3128 4425 
Q 3525 4100 3525 3541 
Q 3525 3141 3298 2862 
Q 3072 2584 2669 2484 
Q 3125 2378 3379 2068 
Q 3634 1759 3634 1313 
Q 3634 634 3220 271 
Q 2806 -91 2034 -91 
Q 1263 -91 848 271 
Q 434 634 434 1313 
Q 434 1759 690 2068 
Q 947 2378 1403 2484 
z
M 1172 3481 
Q 1172 3119 1398 2916 
Q 1625 2713 2034 2713 
Q 2441 2713 2670 2916 
Q 2900 3119 2900 3481 
Q 2900 3844 2670 4047 
Q 2441 4250 2034 4250 
Q 1625 4250 1398 4047 
Q 1172 3844 1172 3481 
z
" transform="scale(0.015625)"/>
       </defs>
       <use xlink:href="#DejaVuSans-38"/>
       <use xlink:href="#DejaVuSans-30" transform="translate(63.623047 0)"/>
       <use xlink:href="#DejaVuSans-30" transform="translate(127.246094 0)"/>
      </g>
     </g>
    </g>
    <g id="xtick_6">
     <g id="line2d_6">
      <g>
       <use xlink:href="#m4ee4ff83fa" x="258.811523" y="188.6" style="stroke: #000000; stroke-width: 0.8"/>
      </g>
     </g>
     <g id="text_6">
      <!-- 1000 -->
      <g transform="translate(246.086523 203.198437) scale(0.1 -0.1)">
       <defs>
        <path id="DejaVuSans-31" d="M 794 531 
L 1825 531 
L 1825 4091 
L 703 3866 
L 703 4441 
L 1819 4666 
L 2450 4666 
L 2450 531 
L 3481 531 
L 3481 0 
L 794 0 
L 794 531 
z
" transform="scale(0.015625)"/>
       </defs>
       <use xlink:href="#DejaVuSans-31"/>
       <use xlink:href="#DejaVuSans-30" transform="translate(63.623047 0)"/>
       <use xlink:href="#DejaVuSans-30" transform="translate(127.246094 0)"/>
       <use xlink:href="#DejaVuSans-30" transform="translate(190.869141 0)"/>
      </g>
     </g>
    </g>
    <g id="text_7">
     <!-- q (nm) -->
     <g transform="translate(134.771094 216.876563) scale(0.1 -0.1)">
      <defs>
       <path id="DejaVuSans-71" d="M 947 1747 
Q 947 1113 1208 752 
Q 1469 391 1925 391 
Q 2381 391 2643 752 
Q 2906 1113 2906 1747 
Q 2906 2381 2643 2742 
Q 2381 3103 1925 3103 
Q 1469 3103 1208 2742 
Q 947 2381 947 1747 
z
M 2906 525 
Q 2725 213 2448 61 
Q 2172 -91 1784 -91 
Q 1150 -91 751 415 
Q 353 922 353 1747 
Q 353 2572 751 3078 
Q 1150 3584 1784 3584 
Q 2172 3584 2448 3432 
Q 2725 3281 2906 2969 
L 2906 3500 
L 3481 3500 
L 3481 -1331 
L 2906 -1331 
L 2906 525 
z
" transform="scale(0.015625)"/>
       <path id="DejaVuSans-20" transform="scale(0.015625)"/>
       <path id="DejaVuSans-28" d="M 1984 4856 
Q 1566 4138 1362 3434 
Q 1159 2731 1159 2009 
Q 1159 1288 1364 580 
Q 1569 -128 1984 -844 
L 1484 -844 
Q 1016 -109 783 600 
Q 550 1309 550 2009 
Q 550 2706 781 3412 
Q 1013 4119 1484 4856 
L 1984 4856 
z
" transform="scale(0.015625)"/>
       <path id="DejaVuSans-6e" d="M 3513 2113 
L 3513 0 
L 2938 0 
L 2938 2094 
Q 2938 2591 2744 2837 
Q 2550 3084 2163 3084 
Q 1697 3084 1428 2787 
Q 1159 2491 1159 1978 
L 1159 0 
L 581 0 
L 581 3500 
L 1159 3500 
L 1159 2956 
Q 1366 3272 1645 3428 
Q 1925 3584 2291 3584 
Q 2894 3584 3203 3211 
Q 3513 2838 3513 2113 
z
" transform="scale(0.015625)"/>
       <path id="DejaVuSans-6d" d="M 3328 2828 
Q 3544 3216 3844 3400 
Q 4144 3584 4550 3584 
Q 5097 3584 5394 3201 
Q 5691 2819 5691 2113 
L 5691 0 
L 5113 0 
L 5113 2094 
Q 5113 2597 4934 2840 
Q 4756 3084 4391 3084 
Q 3944 3084 3684 2787 
Q 3425 2491 3425 1978 
L 3425 0 
L 2847 0 
L 2847 2094 
Q 2847 2600 2669 2842 
Q 2491 3084 2119 3084 
Q 1678 3084 1418 2786 
Q 1159 2488 1159 1978 
L 1159 0 
L 581 0 
L 581 3500 
L 1159 3500 
L 1159 2956 
Q 1356 3278 1631 3431 
Q 1906 3584 2284 3584 
Q 2666 3584 2933 3390 
Q 3200 3197 3328 2828 
z
" transform="scale(0.015625)"/>
       <path id="DejaVuSans-29" d="M 513 4856 
L 1013 4856 
Q 1481 4119 1714 3412 
Q 1947 2706 1947 2009 
Q 1947 1309 1714 600 
Q 1481 -109 1013 -844 
L 513 -844 
Q 928 -128 1133 580 
Q 1338 1288 1338 2009 
Q 1338 2731 1133 3434 
Q 928 4138 513 4856 
z
" transform="scale(0.015625)"/>
      </defs>
      <use xlink:href="#DejaVuSans-71"/>
      <use xlink:href="#DejaVuSans-20" transform="translate(63.476562 0)"/>
      <use xlink:href="#DejaVuSans-28" transform="translate(95.263672 0)"/>
      <use xlink:href="#DejaVuSans-6e" transform="translate(134.277344 0)"/>
      <use xlink:href="#DejaVuSans-6d" transform="translate(197.65625 0)"/>
      <use xlink:href="#DejaVuSans-29" transform="translate(295.068359 0)"/>
     </g>
    </g>
   </g>
   <g id="matplotlib.axis_2">
    <g id="ytick_1">
     <g id="line2d_7">
      <defs>
       <path id="m67ee44c1ff" d="M 0 0 
L -3.5 0 
" style="stroke: #000000; stroke-width: 0.8"/>
      </defs>
      <g>
       <use xlink:href="#m67ee44c1ff" x="33.7" y="180.687273" style="stroke: #000000; stroke-width: 0.8"/>
      </g>
     </g>
     <g id="text_8">
      <!-- 0 -->
      <g transform="translate(20.3375 184.486491) scale(0.1 -0.1)">
       <use xlink:href="#DejaVuSans-30"/>
      </g>
     </g>
    </g>
    <g id="ytick_2">
     <g id="line2d_8">
      <g>
       <use xlink:href="#m67ee44c1ff" x="33.7" y="144.031028" style="stroke: #000000; stroke-width: 0.8"/>
      </g>
     </g>
     <g id="text_9">
      <!-- 20000 -->
      <g transform="translate(-5.1125 147.830247) scale(0.1 -0.1)">
       <use xlink:href="#DejaVuSans-32"/>
       <use xlink:href="#DejaVuSans-30" transform="translate(63.623047 0)"/>
       <use xlink:href="#DejaVuSans-30" transform="translate(127.246094 0)"/>
       <use xlink:href="#DejaVuSans-30" transform="translate(190.869141 0)"/>
       <use xlink:href="#DejaVuSans-30" transform="translate(254.492188 0)"/>
      </g>
     </g>
    </g>
    <g id="ytick_3">
     <g id="line2d_9">
      <g>
       <use xlink:href="#m67ee44c1ff" x="33.7" y="107.374783" style="stroke: #000000; stroke-width: 0.8"/>
      </g>
     </g>
     <g id="text_10">
      <!-- 40000 -->
      <g transform="translate(-5.1125 111.174002) scale(0.1 -0.1)">
       <use xlink:href="#DejaVuSans-34"/>
       <use xlink:href="#DejaVuSans-30" transform="translate(63.623047 0)"/>
       <use xlink:href="#DejaVuSans-30" transform="translate(127.246094 0)"/>
       <use xlink:href="#DejaVuSans-30" transform="translate(190.869141 0)"/>
       <use xlink:href="#DejaVuSans-30" transform="translate(254.492188 0)"/>
      </g>
     </g>
    </g>
    <g id="ytick_4">
     <g id="line2d_10">
      <g>
       <use xlink:href="#m67ee44c1ff" x="33.7" y="70.718538" style="stroke: #000000; stroke-width: 0.8"/>
      </g>
     </g>
     <g id="text_11">
      <!-- 60000 -->
      <g transform="translate(-5.1125 74.517757) scale(0.1 -0.1)">
       <use xlink:href="#DejaVuSans-36"/>
       <use xlink:href="#DejaVuSans-30" transform="translate(63.623047 0)"/>
       <use xlink:href="#DejaVuSans-30" transform="translate(127.246094 0)"/>
       <use xlink:href="#DejaVuSans-30" transform="translate(190.869141 0)"/>
       <use xlink:href="#DejaVuSans-30" transform="translate(254.492188 0)"/>
      </g>
     </g>
    </g>
    <g id="ytick_5">
     <g id="line2d_11">
      <g>
       <use xlink:href="#m67ee44c1ff" x="33.7" y="34.062293" style="stroke: #000000; stroke-width: 0.8"/>
      </g>
     </g>
     <g id="text_12">
      <!-- 80000 -->
      <g transform="translate(-5.1125 37.861512) scale(0.1 -0.1)">
       <use xlink:href="#DejaVuSans-38"/>
       <use xlink:href="#DejaVuSans-30" transform="translate(63.623047 0)"/>
       <use xlink:href="#DejaVuSans-30" transform="translate(127.246094 0)"/>
       <use xlink:href="#DejaVuSans-30" transform="translate(190.869141 0)"/>
       <use xlink:href="#DejaVuSans-30" transform="translate(254.492188 0)"/>
      </g>
     </g>
    </g>
    <g id="text_13">
     <!-- rdf -->
     <g transform="translate(-11.192187 108.462344) rotate(-90) scale(0.1 -0.1)">
      <defs>
       <path id="DejaVuSans-72" d="M 2631 2963 
Q 2534 3019 2420 3045 
Q 2306 3072 2169 3072 
Q 1681 3072 1420 2755 
Q 1159 2438 1159 1844 
L 1159 0 
L 581 0 
L 581 3500 
L 1159 3500 
L 1159 2956 
Q 1341 3275 1631 3429 
Q 1922 3584 2338 3584 
Q 2397 3584 2469 3576 
Q 2541 3569 2628 3553 
L 2631 2963 
z
" transform="scale(0.015625)"/>
       <path id="DejaVuSans-64" d="M 2906 2969 
L 2906 4863 
L 3481 4863 
L 3481 0 
L 2906 0 
L 2906 525 
Q 2725 213 2448 61 
Q 2172 -91 1784 -91 
Q 1150 -91 751 415 
Q 353 922 353 1747 
Q 353 2572 751 3078 
Q 1150 3584 1784 3584 
Q 2172 3584 2448 3432 
Q 2725 3281 2906 2969 
z
M 947 1747 
Q 947 1113 1208 752 
Q 1469 391 1925 391 
Q 2381 391 2643 752 
Q 2906 1113 2906 1747 
Q 2906 2381 2643 2742 
Q 2381 3103 1925 3103 
Q 1469 3103 1208 2742 
Q 947 2381 947 1747 
z
" transform="scale(0.015625)"/>
       <path id="DejaVuSans-66" d="M 2375 4863 
L 2375 4384 
L 1825 4384 
Q 1516 4384 1395 4259 
Q 1275 4134 1275 3809 
L 1275 3500 
L 2222 3500 
L 2222 3053 
L 1275 3053 
L 1275 0 
L 697 0 
L 697 3053 
L 147 3053 
L 147 3500 
L 697 3500 
L 697 3744 
Q 697 4328 969 4595 
Q 1241 4863 1831 4863 
L 2375 4863 
z
" transform="scale(0.015625)"/>
      </defs>
      <use xlink:href="#DejaVuSans-72"/>
      <use xlink:href="#DejaVuSans-64" transform="translate(39.363281 0)"/>
      <use xlink:href="#DejaVuSans-66" transform="translate(102.839844 0)"/>
     </g>
    </g>
   </g>
   <g id="line2d_12">
    <path d="M 44.406818 180.687273 
L 94.854984 180.687273 
L 95.391667 165.892151 
L 95.928349 22.432727 
L 96.465032 153.318988 
L 97.001715 177.142188 
L 97.538397 180.063701 
L 98.07508 180.163366 
L 98.611762 178.204708 
L 99.148445 174.979115 
L 99.685128 171.054739 
L 100.22181 172.207356 
L 100.758493 174.427528 
L 101.295175 177.188244 
L 102.368541 180.162859 
L 102.905223 180.025286 
L 103.441906 180.18167 
L 104.515271 180.199488 
L 105.051954 180.481889 
L 105.588636 180.283651 
L 106.125319 180.42283 
L 106.662002 179.972486 
L 107.198684 179.281927 
L 107.735367 179.179934 
L 108.272049 176.919973 
L 108.808732 176.435601 
L 109.345415 176.744273 
L 109.882097 177.513639 
L 110.41878 178.894757 
L 110.955463 179.549312 
L 111.492145 179.73536 
L 112.028828 179.529896 
L 112.56551 177.974675 
L 113.638876 170.590143 
L 114.175558 169.035365 
L 115.785606 177.272812 
L 116.322289 177.762155 
L 117.932337 170.098212 
L 118.469019 171.951731 
L 119.005702 176.064658 
L 120.079067 179.674175 
L 120.61575 180.166092 
L 121.152432 180.301816 
L 121.689115 180.18042 
L 122.225797 180.270682 
L 122.76248 180.522903 
L 123.299163 180.565661 
L 123.835845 180.327336 
L 124.372528 180.450514 
L 124.909211 180.375776 
L 125.982576 180.04259 
L 126.519258 179.190073 
L 127.055941 177.805406 
L 127.592624 175.653943 
L 128.129306 175.970126 
L 128.665989 176.100935 
L 129.202671 174.508655 
L 129.739354 173.684555 
L 130.276037 173.086816 
L 130.812719 176.528195 
L 131.349402 178.983938 
L 131.886085 179.928471 
L 132.422767 180.068033 
L 132.95945 180.46188 
L 134.032815 180.372928 
L 134.569498 180.563023 
L 135.10618 180.410999 
L 135.642863 180.41423 
L 136.179545 179.907655 
L 136.716228 177.249186 
L 137.252911 173.186963 
L 137.789593 172.780343 
L 138.326276 176.1631 
L 138.862959 175.846176 
L 139.936324 166.625981 
L 140.473006 168.670918 
L 141.009689 174.569531 
L 141.546372 178.438414 
L 142.083054 179.230894 
L 142.619737 179.430068 
L 143.156419 179.365933 
L 143.693102 178.4062 
L 144.229785 176.275344 
L 144.766467 174.842187 
L 145.30315 175.375637 
L 145.839833 175.25964 
L 146.376515 166.203131 
L 146.913198 167.508343 
L 147.44988 175.094288 
L 147.986563 177.248304 
L 149.059928 172.564824 
L 149.596611 171.847865 
L 150.133293 173.565086 
L 150.669976 177.352219 
L 151.206659 179.224774 
L 151.743341 179.634221 
L 152.280024 179.470875 
L 152.816707 178.299956 
L 153.353389 176.662225 
L 153.890072 176.427346 
L 154.963437 178.515634 
L 155.50012 179.437792 
L 156.036802 179.794629 
L 156.573485 179.421346 
L 157.64685 176.96096 
L 158.183533 176.937378 
L 158.720215 177.862438 
L 159.256898 179.345498 
L 159.793581 180.136541 
L 160.866946 180.426269 
L 161.403628 180.354761 
L 161.940311 180.467614 
L 162.476994 180.270068 
L 163.013676 180.345731 
L 163.550359 180.224092 
L 164.087041 179.66325 
L 164.623724 178.132468 
L 165.697089 174.446933 
L 166.233772 174.382383 
L 166.770455 176.650246 
L 167.307137 177.271402 
L 167.84382 176.470992 
L 168.380502 177.149145 
L 168.917185 178.256312 
L 169.453868 178.519727 
L 169.99055 177.736262 
L 170.527233 176.345988 
L 171.063915 174.427376 
L 171.600598 174.198552 
L 172.137281 175.710284 
L 172.673963 175.244384 
L 173.210646 171.996022 
L 173.747329 171.17567 
L 174.284011 173.938484 
L 174.820694 177.355415 
L 175.357376 178.695625 
L 175.894059 178.784979 
L 176.430742 177.392476 
L 176.967424 176.555191 
L 177.504107 177.702363 
L 178.040789 178.080433 
L 178.577472 177.834166 
L 179.650837 177.02153 
L 180.18752 177.077845 
L 180.724203 177.855066 
L 181.260885 178.957991 
L 181.797568 179.789146 
L 182.33425 180.23504 
L 183.944298 180.466335 
L 185.017663 180.290503 
L 185.554346 179.671107 
L 186.091029 178.46857 
L 186.627711 176.433368 
L 187.164394 175.533916 
L 188.237759 178.913417 
L 188.774442 179.060129 
L 189.311124 177.987347 
L 190.38449 173.03852 
L 190.921172 173.271199 
L 191.457855 175.279775 
L 192.53122 177.526472 
L 193.067903 177.663732 
L 193.604585 176.502862 
L 194.141268 176.645634 
L 195.214633 179.040092 
L 195.751316 178.808606 
L 196.287998 177.033206 
L 196.824681 177.353042 
L 197.361364 178.047196 
L 197.898046 177.915168 
L 199.508094 174.857534 
L 201.118142 179.52244 
L 201.654825 179.878458 
L 202.191507 179.995798 
L 202.72819 179.586372 
L 203.264872 178.680869 
L 203.801555 178.106414 
L 204.338238 177.896021 
L 204.87492 178.121103 
L 205.411603 178.020952 
L 206.484968 178.470538 
L 207.021651 178.06383 
L 207.558333 176.815965 
L 208.095016 176.000243 
L 208.631699 175.974461 
L 209.168381 176.471414 
L 209.705064 177.323448 
L 210.241746 177.22545 
L 210.778429 175.811508 
L 211.315112 176.188152 
L 212.388477 178.434924 
L 212.925159 177.860719 
L 213.461842 176.558454 
L 213.998525 176.038642 
L 214.535207 176.234101 
L 215.07189 177.731319 
L 216.681938 178.323776 
L 217.21862 179.093096 
L 217.755303 179.600148 
L 218.291986 179.179693 
L 219.365351 177.493842 
L 219.902033 177.825772 
L 220.975399 177.933521 
L 221.512081 177.449538 
L 222.048764 177.685757 
L 222.585447 178.278132 
L 223.122129 179.21238 
L 223.658812 179.252726 
L 224.195494 178.485577 
L 224.732177 177.423786 
L 225.26886 175.491936 
L 225.805542 175.930556 
L 226.878907 178.983345 
L 227.41559 180.135224 
L 227.952273 180.326397 
L 229.562321 179.372165 
L 230.099003 179.526651 
L 230.635686 179.46029 
L 231.172368 179.220436 
L 232.245734 178.346938 
L 233.319099 179.289019 
L 233.855781 179.17694 
L 234.392464 178.427523 
L 234.929147 178.482082 
L 236.002512 179.879903 
L 236.539195 180.06968 
L 237.075877 180.073108 
L 237.61256 179.608265 
L 238.149242 178.851617 
L 240.295973 174.606984 
L 241.369338 175.254175 
L 241.906021 175.965583 
L 242.979386 178.644179 
L 243.516069 178.8916 
L 244.052751 178.653348 
L 245.126116 177.09664 
L 245.662799 176.734207 
L 246.736164 178.533572 
L 247.272847 179.277528 
L 247.80953 179.260445 
L 248.346212 178.878085 
L 248.882895 178.79059 
L 249.419577 178.830642 
L 249.95626 178.654415 
L 250.492943 177.889463 
L 251.029625 177.322387 
L 251.566308 177.747129 
L 252.10299 178.578695 
L 252.639673 179.033622 
L 254.249721 177.062214 
L 255.859769 176.182109 
L 256.933134 177.826244 
L 258.006499 177.982626 
L 258.543182 177.697757 
L 258.543182 177.697757 
" clip-path="url(#p23496b3102)" style="fill: none; stroke: #000000; stroke-opacity: 0.5; stroke-width: 0.5; stroke-linecap: square"/>
   </g>
   <g id="line2d_13">
    <path d="M 44.406818 180.687273 
L 97.538397 180.687273 
L 98.07508 179.082809 
L 98.611762 173.346586 
L 99.148445 163.463115 
L 99.685128 151.187635 
L 100.22181 154.964854 
L 100.758493 161.516803 
L 101.295175 169.971496 
L 101.831858 175.078022 
L 102.368541 179.081257 
L 102.905223 178.659938 
L 103.441906 179.138864 
L 103.978589 179.383768 
L 104.515271 179.193431 
L 105.051954 180.058286 
L 105.588636 179.657195 
L 106.125319 179.877417 
L 107.198684 176.970293 
L 107.735367 176.26339 
L 108.272049 169.149917 
L 108.808732 168.224559 
L 109.345415 168.794796 
L 109.882097 171.687964 
L 110.41878 176.083107 
L 110.955463 178.073519 
L 111.492145 179.486882 
L 112.028828 179.337 
L 112.56551 179.524246 
L 113.102193 180.032989 
L 113.638876 179.882 
L 114.175558 180.052891 
L 115.248923 179.764209 
L 115.785606 177.959415 
L 116.322289 174.117944 
L 117.932337 149.115424 
L 118.469019 154.638686 
L 119.005702 166.946889 
L 120.079067 178.259141 
L 120.61575 179.490185 
L 121.152432 179.637973 
L 121.689115 179.911154 
L 122.225797 180.049368 
L 122.76248 180.435582 
L 123.299163 180.438983 
L 123.835845 180.197359 
L 124.372528 180.566427 
L 124.909211 180.329538 
L 125.445893 180.21657 
L 125.982576 180.454997 
L 126.519258 180.228755 
L 127.055941 180.234672 
L 128.129306 180.687273 
L 129.202671 180.579761 
L 130.812719 180.273056 
L 132.95945 180.292835 
L 133.496132 180.492416 
L 134.032815 180.109664 
L 134.569498 180.592144 
L 135.642863 180.222721 
L 136.179545 178.299692 
L 136.716228 170.521206 
L 137.252911 158.255924 
L 137.789593 157.181892 
L 138.326276 168.761209 
L 138.862959 170.369862 
L 139.936324 155.934689 
L 140.473006 162.496796 
L 141.009689 172.562991 
L 141.546372 177.735645 
L 142.083054 179.227584 
L 143.693102 180.137829 
L 144.229785 179.833095 
L 144.766467 180.30314 
L 145.30315 180.307205 
L 145.839833 179.7095 
L 146.913198 165.073364 
L 147.44988 173.69009 
L 147.986563 179.244554 
L 148.523246 180.687273 
L 149.596611 180.547373 
L 151.206659 180.687273 
L 151.743341 180.687273 
L 152.280024 180.554229 
L 153.353389 180.687273 
L 153.890072 180.428936 
L 154.426754 180.623315 
L 154.963437 180.497254 
L 156.036802 180.625143 
L 156.573485 180.379582 
L 157.110167 180.626318 
L 157.64685 180.385372 
L 158.720215 180.628019 
L 159.256898 180.452462 
L 160.866946 180.573084 
L 161.403628 180.46098 
L 161.940311 180.687273 
L 162.476994 180.353962 
L 163.013676 180.301915 
L 163.550359 180.523601 
L 164.623724 180.365735 
L 165.160407 180.634157 
L 165.697089 180.371388 
L 166.233772 179.956672 
L 166.770455 178.928463 
L 167.307137 177.046398 
L 167.84382 170.977583 
L 168.380502 170.758916 
L 169.453868 176.674685 
L 169.99055 176.021186 
L 170.527233 174.551033 
L 171.063915 170.981081 
L 171.600598 169.195199 
L 172.137281 170.763335 
L 172.673963 168.774226 
L 173.210646 162.148794 
L 173.747329 161.88522 
L 174.284011 167.321856 
L 174.820694 174.17323 
L 175.357376 177.52461 
L 175.894059 179.253236 
L 176.430742 178.775891 
L 176.967424 179.452687 
L 177.504107 178.631577 
L 178.040789 177.216209 
L 178.577472 177.200825 
L 179.114155 176.972286 
L 179.650837 177.933643 
L 180.18752 179.342315 
L 181.260885 180.066656 
L 182.33425 180.320665 
L 182.870933 180.444754 
L 183.407616 180.326295 
L 183.944298 180.329061 
L 184.480981 180.134307 
L 185.017663 180.138514 
L 186.091029 177.096851 
L 186.627711 173.943582 
L 187.164394 174.146234 
L 187.701077 175.893577 
L 188.237759 178.326975 
L 189.311124 179.727533 
L 190.921172 180.073442 
L 191.457855 180.04206 
L 191.994537 179.833226 
L 192.53122 178.708888 
L 193.067903 177.249999 
L 193.604585 174.314716 
L 194.141268 173.945327 
L 195.214633 178.369534 
L 195.751316 179.26584 
L 196.287998 178.805373 
L 196.824681 178.518252 
L 197.361364 175.915658 
L 197.898046 174.435262 
L 198.434729 173.563774 
L 198.971411 173.580598 
L 199.508094 173.339591 
L 200.044777 175.502434 
L 200.581459 178.239747 
L 201.118142 179.582356 
L 201.654825 179.401744 
L 202.191507 179.379318 
L 202.72819 178.089046 
L 203.264872 175.218567 
L 203.801555 173.637866 
L 204.338238 174.079083 
L 204.87492 177.104098 
L 205.411603 177.875672 
L 205.948285 177.983427 
L 207.021651 176.699448 
L 207.558333 175.589535 
L 208.095016 177.503919 
L 208.631699 178.789709 
L 209.168381 179.601829 
L 209.705064 179.268304 
L 210.241746 178.036814 
L 210.778429 176.428983 
L 211.315112 176.65113 
L 212.388477 179.01091 
L 212.925159 179.840755 
L 215.07189 180.47427 
L 216.145255 180.529508 
L 216.681938 180.452096 
L 217.21862 180.609366 
L 218.828668 180.406855 
L 219.365351 179.547131 
L 220.975399 175.537695 
L 221.512081 175.370948 
L 222.048764 176.115779 
L 222.585447 177.609036 
L 223.122129 178.671685 
L 223.658812 179.359627 
L 224.195494 179.631477 
L 224.732177 178.588204 
L 225.26886 175.636627 
L 225.805542 174.487857 
L 226.878907 178.101429 
L 227.41559 179.899847 
L 227.952273 180.295854 
L 228.488955 180.160784 
L 229.025638 180.527966 
L 230.099003 180.192355 
L 230.635686 179.233425 
L 232.245734 174.201547 
L 232.782416 175.615573 
L 233.319099 178.231013 
L 233.855781 179.649801 
L 234.392464 180.042507 
L 235.465829 180.304739 
L 236.539195 180.372043 
L 237.075877 179.78863 
L 237.61256 178.338819 
L 238.149242 177.401061 
L 238.685925 175.959853 
L 239.75929 177.271973 
L 240.295973 176.704304 
L 241.369338 173.787744 
L 241.906021 173.884824 
L 242.979386 178.404854 
L 243.516069 179.023799 
L 244.052751 178.721278 
L 244.589434 176.989289 
L 245.126116 175.660936 
L 245.662799 175.764314 
L 246.199482 177.581485 
L 247.272847 179.61265 
L 247.80953 179.993378 
L 248.346212 180.164923 
L 248.882895 180.167654 
L 249.419577 179.764232 
L 249.95626 178.86917 
L 250.492943 176.521877 
L 251.029625 175.798322 
L 251.566308 176.872245 
L 252.639673 179.380932 
L 253.176356 179.992945 
L 253.713038 180.120482 
L 254.786404 178.723673 
L 255.859769 176.175025 
L 256.396451 176.577694 
L 256.933134 177.818179 
L 257.469817 178.174469 
L 258.006499 177.183588 
L 258.543182 175.238037 
L 258.543182 175.238037 
" clip-path="url(#p23496b3102)" style="fill: none; stroke: #0000ff; stroke-opacity: 0.5; stroke-linecap: square"/>
   </g>
   <g id="line2d_14">
    <path d="M 44.406818 180.687273 
L 103.441906 180.687273 
L 103.978589 180.301049 
L 104.515271 180.687273 
L 105.051954 180.687273 
L 105.588636 180.321023 
L 106.125319 180.687273 
L 106.662002 180.687273 
L 107.198684 179.64391 
L 107.735367 180.34533 
L 108.272049 180.687273 
L 108.808732 180.025902 
L 109.345415 180.362008 
L 109.882097 179.407371 
L 110.41878 179.113199 
L 110.955463 179.138382 
L 111.492145 177.638662 
L 112.028828 176.786484 
L 112.56551 168.281658 
L 113.638876 127.431924 
L 114.175558 118.658842 
L 115.785606 166.946953 
L 116.322289 176.705862 
L 117.395654 179.141037 
L 117.932337 179.163443 
L 118.469019 179.686006 
L 119.542384 180.20079 
L 120.079067 179.488196 
L 120.61575 180.214349 
L 121.152432 180.454095 
L 121.689115 180.227351 
L 122.225797 180.460462 
L 122.76248 180.239823 
L 123.299163 180.687273 
L 123.835845 179.816315 
L 124.372528 179.827927 
L 124.909211 180.0513 
L 125.982576 177.796735 
L 126.519258 173.554781 
L 127.055941 166.204043 
L 127.592624 155.070783 
L 128.129306 159.122032 
L 129.202671 177.438038 
L 129.739354 179.932304 
L 130.276037 180.500875 
L 131.886085 180.507653 
L 132.422767 180.154944 
L 132.95945 180.687273 
L 133.496132 180.514067 
L 134.032815 180.516129 
L 134.569498 180.687273 
L 135.642863 180.356925 
L 136.179545 180.687273 
L 137.252911 180.687273 
L 137.789593 180.371897 
L 138.326276 180.37548 
L 139.399641 180.687273 
L 140.473006 180.687273 
L 141.009689 180.245135 
L 141.546372 180.687273 
L 142.619737 180.687273 
L 143.156419 180.546215 
L 143.693102 180.687273 
L 144.229785 180.411175 
L 144.766467 180.414112 
L 145.30315 179.606192 
L 145.839833 170.792553 
L 146.376515 126.968494 
L 146.913198 142.71635 
L 147.44988 170.191502 
L 147.986563 177.609474 
L 148.523246 180.306493 
L 149.059928 180.687273 
L 151.206659 180.687273 
L 151.743341 180.567829 
L 152.280024 180.687273 
L 153.353389 180.687273 
L 153.890072 180.572456 
L 154.426754 180.687273 
L 162.476994 180.588514 
L 163.013676 180.491535 
L 163.550359 180.687273 
L 164.087041 180.495023 
L 165.697089 180.500082 
L 166.233772 180.03785 
L 166.770455 180.411381 
L 167.84382 180.054646 
L 168.380502 180.328889 
L 168.917185 180.15431 
L 169.99055 173.177876 
L 171.063915 163.946912 
L 171.600598 166.130648 
L 172.137281 171.908203 
L 172.673963 172.651068 
L 173.210646 166.989657 
L 173.747329 162.739393 
L 174.820694 175.099469 
L 175.357376 178.116982 
L 175.894059 179.332905 
L 176.430742 179.422897 
L 176.967424 179.197932 
L 177.504107 179.520921 
L 178.040789 178.064692 
L 178.577472 174.106543 
L 179.114155 172.564595 
L 180.18752 178.072077 
L 180.724203 178.833932 
L 181.260885 180.025282 
L 182.33425 180.397607 
L 182.870933 180.184272 
L 183.407616 180.544664 
L 184.480981 180.476619 
L 185.017663 180.269171 
L 185.554346 180.479806 
L 187.164394 180.078804 
L 187.701077 180.284653 
L 188.237759 180.087832 
L 188.774442 179.431161 
L 189.311124 179.440432 
L 189.847807 177.430242 
L 190.921172 161.750805 
L 191.457855 159.594391 
L 191.994537 161.265627 
L 192.53122 168.62855 
L 193.067903 171.20944 
L 193.604585 169.977353 
L 194.141268 171.59045 
L 195.214633 177.475765 
L 195.751316 179.243278 
L 196.287998 180.448301 
L 197.361364 180.392729 
L 197.898046 180.570276 
L 198.434729 180.396814 
L 198.971411 180.629583 
L 200.044777 180.516578 
L 201.118142 180.63115 
L 201.654825 180.464308 
L 202.191507 180.521183 
L 202.72819 180.412328 
L 203.264872 180.632654 
L 204.338238 180.687273 
L 204.87492 180.580212 
L 205.411603 180.634098 
L 206.484968 180.477379 
L 207.558333 179.806902 
L 208.095016 178.320659 
L 209.168381 172.054504 
L 209.705064 173.11944 
L 210.241746 175.975347 
L 211.315112 180.043964 
L 211.851794 180.244752 
L 212.388477 180.589561 
L 212.925159 180.298906 
L 213.461842 180.204888 
L 213.998525 179.297183 
L 215.07189 175.007205 
L 215.608573 173.772685 
L 216.145255 174.470184 
L 217.21862 179.302261 
L 218.291986 180.550474 
L 218.828668 180.505993 
L 219.365351 180.597187 
L 219.902033 180.552969 
L 220.438716 180.375801 
L 220.975399 180.554594 
L 221.512081 180.599354 
L 222.048764 180.512496 
L 222.585447 180.296386 
L 223.122129 180.385069 
L 223.658812 179.871911 
L 224.195494 177.530551 
L 224.732177 173.266325 
L 225.26886 167.49289 
L 225.805542 169.121317 
L 226.878907 176.794272 
L 227.41559 179.781476 
L 227.952273 180.318879 
L 228.488955 180.280325 
L 229.025638 180.363602 
L 229.562321 180.566598 
L 230.099003 180.647279 
L 230.635686 180.369166 
L 231.172368 180.647738 
L 233.319099 180.571343 
L 235.465829 180.498367 
L 237.61256 180.317801 
L 238.149242 180.099383 
L 238.685925 179.298736 
L 239.222608 175.636052 
L 240.295973 163.470425 
L 240.832656 167.174808 
L 241.369338 173.256669 
L 241.906021 177.893805 
L 242.442703 179.386015 
L 242.979386 180.162579 
L 243.516069 180.026232 
L 244.052751 179.579914 
L 244.589434 178.415562 
L 245.662799 171.628859 
L 246.736164 178.059098 
L 247.272847 179.480679 
L 248.346212 180.289292 
L 250.492943 180.4924 
L 251.029625 180.39648 
L 251.566308 179.851543 
L 252.10299 179.727938 
L 252.639673 178.55577 
L 253.176356 174.167315 
L 253.713038 168.753172 
L 254.249721 168.09355 
L 254.786404 168.562828 
L 255.323086 170.484996 
L 255.859769 172.850619 
L 256.396451 174.363663 
L 256.933134 177.327589 
L 257.469817 179.258982 
L 258.006499 180.173248 
L 258.543182 180.326247 
L 258.543182 180.326247 
" clip-path="url(#p23496b3102)" style="fill: none; stroke: #ff0000; stroke-opacity: 0.5; stroke-linecap: square"/>
   </g>
   <g id="patch_3">
    <path d="M 33.7 188.6 
L 33.7 14.52 
" style="fill: none; stroke: #000000; stroke-width: 0.8; stroke-linejoin: miter; stroke-linecap: square"/>
   </g>
   <g id="patch_4">
    <path d="M 269.25 188.6 
L 269.25 14.52 
" style="fill: none; stroke: #000000; stroke-width: 0.8; stroke-linejoin: miter; stroke-linecap: square"/>
   </g>
   <g id="patch_5">
    <path d="M 33.7 188.6 
L 269.25 188.6 
" style="fill: none; stroke: #000000; stroke-width: 0.8; stroke-linejoin: miter; stroke-linecap: square"/>
   </g>
   <g id="patch_6">
    <path d="M 33.7 14.52 
L 269.25 14.52 
" style="fill: none; stroke: #000000; stroke-width: 0.8; stroke-linejoin: miter; stroke-linecap: square"/>
   </g>
   <g id="legend_1">
    <g id="patch_7">
     <path d="M 213.917188 66.554375 
L 262.25 66.554375 
Q 264.25 66.554375 264.25 64.554375 
L 264.25 21.52 
Q 264.25 19.52 262.25 19.52 
L 213.917188 19.52 
Q 211.917188 19.52 211.917188 21.52 
L 211.917188 64.554375 
Q 211.917188 66.554375 213.917188 66.554375 
z
" style="fill: #ffffff; opacity: 0.8; stroke: #cccccc; stroke-linejoin: miter"/>
    </g>
    <g id="line2d_15">
     <path d="M 215.917188 27.618438 
L 225.917188 27.618438 
L 235.917188 27.618438 
" style="fill: none; stroke: #000000; stroke-opacity: 0.5; stroke-width: 0.5; stroke-linecap: square"/>
    </g>
    <g id="text_14">
     <!-- all -->
     <g transform="translate(243.917188 31.118438) scale(0.1 -0.1)">
      <defs>
       <path id="DejaVuSans-61" d="M 2194 1759 
Q 1497 1759 1228 1600 
Q 959 1441 959 1056 
Q 959 750 1161 570 
Q 1363 391 1709 391 
Q 2188 391 2477 730 
Q 2766 1069 2766 1631 
L 2766 1759 
L 2194 1759 
z
M 3341 1997 
L 3341 0 
L 2766 0 
L 2766 531 
Q 2569 213 2275 61 
Q 1981 -91 1556 -91 
Q 1019 -91 701 211 
Q 384 513 384 1019 
Q 384 1609 779 1909 
Q 1175 2209 1959 2209 
L 2766 2209 
L 2766 2266 
Q 2766 2663 2505 2880 
Q 2244 3097 1772 3097 
Q 1472 3097 1187 3025 
Q 903 2953 641 2809 
L 641 3341 
Q 956 3463 1253 3523 
Q 1550 3584 1831 3584 
Q 2591 3584 2966 3190 
Q 3341 2797 3341 1997 
z
" transform="scale(0.015625)"/>
       <path id="DejaVuSans-6c" d="M 603 4863 
L 1178 4863 
L 1178 0 
L 603 0 
L 603 4863 
z
" transform="scale(0.015625)"/>
      </defs>
      <use xlink:href="#DejaVuSans-61"/>
      <use xlink:href="#DejaVuSans-6c" transform="translate(61.279297 0)"/>
      <use xlink:href="#DejaVuSans-6c" transform="translate(89.0625 0)"/>
     </g>
    </g>
    <g id="line2d_16">
     <path d="M 215.917188 42.296563 
L 225.917188 42.296563 
L 235.917188 42.296563 
" style="fill: none; stroke: #0000ff; stroke-opacity: 0.5; stroke-linecap: square"/>
    </g>
    <g id="text_15">
     <!-- 1-1 -->
     <g transform="translate(243.917188 45.796563) scale(0.1 -0.1)">
      <defs>
       <path id="DejaVuSans-2d" d="M 313 2009 
L 1997 2009 
L 1997 1497 
L 313 1497 
L 313 2009 
z
" transform="scale(0.015625)"/>
      </defs>
      <use xlink:href="#DejaVuSans-31"/>
      <use xlink:href="#DejaVuSans-2d" transform="translate(63.623047 0)"/>
      <use xlink:href="#DejaVuSans-31" transform="translate(99.707031 0)"/>
     </g>
    </g>
    <g id="line2d_17">
     <path d="M 215.917188 56.974688 
L 225.917188 56.974688 
L 235.917188 56.974688 
" style="fill: none; stroke: #ff0000; stroke-opacity: 0.5; stroke-linecap: square"/>
    </g>
    <g id="text_16">
     <!-- 2-2 -->
     <g transform="translate(243.917188 60.474688) scale(0.1 -0.1)">
      <use xlink:href="#DejaVuSans-32"/>
      <use xlink:href="#DejaVuSans-2d" transform="translate(63.623047 0)"/>
      <use xlink:href="#DejaVuSans-32" transform="translate(99.707031 0)"/>
     </g>
    </g>
   </g>
  </g>
 </g>
 <defs>
  <clipPath id="p23496b3102">
   <rect x="33.7" y="14.52" width="235.55" height="174.08"/>
  </clipPath>
 </defs>
</svg>
