<?xml version="1.0" encoding="utf-8" standalone="no"?>
<!DOCTYPE svg PUBLIC "-//W3C//DTD SVG 1.1//EN"
  "http://www.w3.org/Graphics/SVG/1.1/DTD/svg11.dtd">
<svg xmlns:xlink="http://www.w3.org/1999/xlink" width="288pt" height="216pt" viewBox="0 0 288 216" xmlns="http://www.w3.org/2000/svg" version="1.1">
 <metadata>
  <rdf:RDF xmlns:dc="http://purl.org/dc/elements/1.1/" xmlns:cc="http://creativecommons.org/ns#" xmlns:rdf="http://www.w3.org/1999/02/22-rdf-syntax-ns#">
   <cc:Work>
    <dc:type rdf:resource="http://purl.org/dc/dcmitype/StillImage"/>
    <dc:date>2025-09-17T22:35:41.699261</dc:date>
    <dc:format>image/svg+xml</dc:format>
    <dc:creator>
     <cc:Agent>
      <dc:title>Matplotlib v3.10.0, https://matplotlib.org/</dc:title>
     </cc:Agent>
    </dc:creator>
   </cc:Work>
  </rdf:RDF>
 </metadata>
 <defs>
  <style type="text/css">*{stroke-linejoin: round; stroke-linecap: butt}</style>
 </defs>
 <g id="figure_1">
  <g id="patch_1">
   <path d="M 0 216 
L 288 216 
L 288 0 
L 0 0 
z
" style="fill: #ffffff"/>
  </g>
  <g id="axes_1">
   <g id="patch_2">
    <path d="M 33.7 188.6 
L 269.25 188.6 
L 269.25 14.52 
L 33.7 14.52 
z
" style="fill: #ffffff"/>
   </g>
   <g id="matplotlib.axis_1">
    <g id="xtick_1">
     <g id="line2d_1">
      <defs>
       <path id="m997ad66309" d="M 0 0 
L 0 3.5 
" style="stroke: #000000; stroke-width: 0.8"/>
      </defs>
      <g>
       <use xlink:href="#m997ad66309" x="44.138477" y="188.6" style="stroke: #000000; stroke-width: 0.8"/>
      </g>
     </g>
     <g id="text_1">
      <!-- 0 -->
      <g transform="translate(40.957227 203.198437) scale(0.1 -0.1)">
       <defs>
        <path id="DejaVuSans-30" d="M 2034 4250 
Q 1547 4250 1301 3770 
Q 1056 3291 1056 2328 
Q 1056 1369 1301 889 
Q 1547 409 2034 409 
Q 2525 409 2770 889 
Q 3016 1369 3016 2328 
Q 3016 3291 2770 3770 
Q 2525 4250 2034 4250 
z
M 2034 4750 
Q 2819 4750 3233 4129 
Q 3647 3509 3647 2328 
Q 3647 1150 3233 529 
Q 2819 -91 2034 -91 
Q 1250 -91 836 529 
Q 422 1150 422 2328 
Q 422 3509 836 4129 
Q 1250 4750 2034 4750 
z
" transform="scale(0.015625)"/>
       </defs>
       <use xlink:href="#DejaVuSans-30"/>
      </g>
     </g>
    </g>
    <g id="xtick_2">
     <g id="line2d_2">
      <g>
       <use xlink:href="#m997ad66309" x="87.073086" y="188.6" style="stroke: #000000; stroke-width: 0.8"/>
      </g>
     </g>
     <g id="text_2">
      <!-- 200 -->
      <g transform="translate(77.529336 203.198437) scale(0.1 -0.1)">
       <defs>
        <path id="DejaVuSans-32" d="M 1228 531 
L 3431 531 
L 3431 0 
L 469 0 
L 469 531 
Q 828 903 1448 1529 
Q 2069 2156 2228 2338 
Q 2531 2678 2651 2914 
Q 2772 3150 2772 3378 
Q 2772 3750 2511 3984 
Q 2250 4219 1831 4219 
Q 1534 4219 1204 4116 
Q 875 4013 500 3803 
L 500 4441 
Q 881 4594 1212 4672 
Q 1544 4750 1819 4750 
Q 2544 4750 2975 4387 
Q 3406 4025 3406 3419 
Q 3406 3131 3298 2873 
Q 3191 2616 2906 2266 
Q 2828 2175 2409 1742 
Q 1991 1309 1228 531 
z
" transform="scale(0.015625)"/>
       </defs>
       <use xlink:href="#DejaVuSans-32"/>
       <use xlink:href="#DejaVuSans-30" transform="translate(63.623047 0)"/>
       <use xlink:href="#DejaVuSans-30" transform="translate(127.246094 0)"/>
      </g>
     </g>
    </g>
    <g id="xtick_3">
     <g id="line2d_3">
      <g>
       <use xlink:href="#m997ad66309" x="130.007695" y="188.6" style="stroke: #000000; stroke-width: 0.8"/>
      </g>
     </g>
     <g id="text_3">
      <!-- 400 -->
      <g transform="translate(120.463945 203.198437) scale(0.1 -0.1)">
       <defs>
        <path id="DejaVuSans-34" d="M 2419 4116 
L 825 1625 
L 2419 1625 
L 2419 4116 
z
M 2253 4666 
L 3047 4666 
L 3047 1625 
L 3713 1625 
L 3713 1100 
L 3047 1100 
L 3047 0 
L 2419 0 
L 2419 1100 
L 313 1100 
L 313 1709 
L 2253 4666 
z
" transform="scale(0.015625)"/>
       </defs>
       <use xlink:href="#DejaVuSans-34"/>
       <use xlink:href="#DejaVuSans-30" transform="translate(63.623047 0)"/>
       <use xlink:href="#DejaVuSans-30" transform="translate(127.246094 0)"/>
      </g>
     </g>
    </g>
    <g id="xtick_4">
     <g id="line2d_4">
      <g>
       <use xlink:href="#m997ad66309" x="172.942305" y="188.6" style="stroke: #000000; stroke-width: 0.8"/>
      </g>
     </g>
     <g id="text_4">
      <!-- 600 -->
      <g transform="translate(163.398555 203.198437) scale(0.1 -0.1)">
       <defs>
        <path id="DejaVuSans-36" d="M 2113 2584 
Q 1688 2584 1439 2293 
Q 1191 2003 1191 1497 
Q 1191 994 1439 701 
Q 1688 409 2113 409 
Q 2538 409 2786 701 
Q 3034 994 3034 1497 
Q 3034 2003 2786 2293 
Q 2538 2584 2113 2584 
z
M 3366 4563 
L 3366 3988 
Q 3128 4100 2886 4159 
Q 2644 4219 2406 4219 
Q 1781 4219 1451 3797 
Q 1122 3375 1075 2522 
Q 1259 2794 1537 2939 
Q 1816 3084 2150 3084 
Q 2853 3084 3261 2657 
Q 3669 2231 3669 1497 
Q 3669 778 3244 343 
Q 2819 -91 2113 -91 
Q 1303 -91 875 529 
Q 447 1150 447 2328 
Q 447 3434 972 4092 
Q 1497 4750 2381 4750 
Q 2619 4750 2861 4703 
Q 3103 4656 3366 4563 
z
" transform="scale(0.015625)"/>
       </defs>
       <use xlink:href="#DejaVuSans-36"/>
       <use xlink:href="#DejaVuSans-30" transform="translate(63.623047 0)"/>
       <use xlink:href="#DejaVuSans-30" transform="translate(127.246094 0)"/>
      </g>
     </g>
    </g>
    <g id="xtick_5">
     <g id="line2d_5">
      <g>
       <use xlink:href="#m997ad66309" x="215.876914" y="188.6" style="stroke: #000000; stroke-width: 0.8"/>
      </g>
     </g>
     <g id="text_5">
      <!-- 800 -->
      <g transform="translate(206.333164 203.198437) scale(0.1 -0.1)">
       <defs>
        <path id="DejaVuSans-38" d="M 2034 2216 
Q 1584 2216 1326 1975 
Q 1069 1734 1069 1313 
Q 1069 891 1326 650 
Q 1584 409 2034 409 
Q 2484 409 2743 651 
Q 3003 894 3003 1313 
Q 3003 1734 2745 1975 
Q 2488 2216 2034 2216 
z
M 1403 2484 
Q 997 2584 770 2862 
Q 544 3141 544 3541 
Q 544 4100 942 4425 
Q 1341 4750 2034 4750 
Q 2731 4750 3128 4425 
Q 3525 4100 3525 3541 
Q 3525 3141 3298 2862 
Q 3072 2584 2669 2484 
Q 3125 2378 3379 2068 
Q 3634 1759 3634 1313 
Q 3634 634 3220 271 
Q 2806 -91 2034 -91 
Q 1263 -91 848 271 
Q 434 634 434 1313 
Q 434 1759 690 2068 
Q 947 2378 1403 2484 
z
M 1172 3481 
Q 1172 3119 1398 2916 
Q 1625 2713 2034 2713 
Q 2441 2713 2670 2916 
Q 2900 3119 2900 3481 
Q 2900 3844 2670 4047 
Q 2441 4250 2034 4250 
Q 1625 4250 1398 4047 
Q 1172 3844 1172 3481 
z
" transform="scale(0.015625)"/>
       </defs>
       <use xlink:href="#DejaVuSans-38"/>
       <use xlink:href="#DejaVuSans-30" transform="translate(63.623047 0)"/>
       <use xlink:href="#DejaVuSans-30" transform="translate(127.246094 0)"/>
      </g>
     </g>
    </g>
    <g id="xtick_6">
     <g id="line2d_6">
      <g>
       <use xlink:href="#m997ad66309" x="258.811523" y="188.6" style="stroke: #000000; stroke-width: 0.8"/>
      </g>
     </g>
     <g id="text_6">
      <!-- 1000 -->
      <g transform="translate(246.086523 203.198437) scale(0.1 -0.1)">
       <defs>
        <path id="DejaVuSans-31" d="M 794 531 
L 1825 531 
L 1825 4091 
L 703 3866 
L 703 4441 
L 1819 4666 
L 2450 4666 
L 2450 531 
L 3481 531 
L 3481 0 
L 794 0 
L 794 531 
z
" transform="scale(0.015625)"/>
       </defs>
       <use xlink:href="#DejaVuSans-31"/>
       <use xlink:href="#DejaVuSans-30" transform="translate(63.623047 0)"/>
       <use xlink:href="#DejaVuSans-30" transform="translate(127.246094 0)"/>
       <use xlink:href="#DejaVuSans-30" transform="translate(190.869141 0)"/>
      </g>
     </g>
    </g>
    <g id="text_7">
     <!-- q (nm) -->
     <g transform="translate(134.771094 216.876563) scale(0.1 -0.1)">
      <defs>
       <path id="DejaVuSans-71" d="M 947 1747 
Q 947 1113 1208 752 
Q 1469 391 1925 391 
Q 2381 391 2643 752 
Q 2906 1113 2906 1747 
Q 2906 2381 2643 2742 
Q 2381 3103 1925 3103 
Q 1469 3103 1208 2742 
Q 947 2381 947 1747 
z
M 2906 525 
Q 2725 213 2448 61 
Q 2172 -91 1784 -91 
Q 1150 -91 751 415 
Q 353 922 353 1747 
Q 353 2572 751 3078 
Q 1150 3584 1784 3584 
Q 2172 3584 2448 3432 
Q 2725 3281 2906 2969 
L 2906 3500 
L 3481 3500 
L 3481 -1331 
L 2906 -1331 
L 2906 525 
z
" transform="scale(0.015625)"/>
       <path id="DejaVuSans-20" transform="scale(0.015625)"/>
       <path id="DejaVuSans-28" d="M 1984 4856 
Q 1566 4138 1362 3434 
Q 1159 2731 1159 2009 
Q 1159 1288 1364 580 
Q 1569 -128 1984 -844 
L 1484 -844 
Q 1016 -109 783 600 
Q 550 1309 550 2009 
Q 550 2706 781 3412 
Q 1013 4119 1484 4856 
L 1984 4856 
z
" transform="scale(0.015625)"/>
       <path id="DejaVuSans-6e" d="M 3513 2113 
L 3513 0 
L 2938 0 
L 2938 2094 
Q 2938 2591 2744 2837 
Q 2550 3084 2163 3084 
Q 1697 3084 1428 2787 
Q 1159 2491 1159 1978 
L 1159 0 
L 581 0 
L 581 3500 
L 1159 3500 
L 1159 2956 
Q 1366 3272 1645 3428 
Q 1925 3584 2291 3584 
Q 2894 3584 3203 3211 
Q 3513 2838 3513 2113 
z
" transform="scale(0.015625)"/>
       <path id="DejaVuSans-6d" d="M 3328 2828 
Q 3544 3216 3844 3400 
Q 4144 3584 4550 3584 
Q 5097 3584 5394 3201 
Q 5691 2819 5691 2113 
L 5691 0 
L 5113 0 
L 5113 2094 
Q 5113 2597 4934 2840 
Q 4756 3084 4391 3084 
Q 3944 3084 3684 2787 
Q 3425 2491 3425 1978 
L 3425 0 
L 2847 0 
L 2847 2094 
Q 2847 2600 2669 2842 
Q 2491 3084 2119 3084 
Q 1678 3084 1418 2786 
Q 1159 2488 1159 1978 
L 1159 0 
L 581 0 
L 581 3500 
L 1159 3500 
L 1159 2956 
Q 1356 3278 1631 3431 
Q 1906 3584 2284 3584 
Q 2666 3584 2933 3390 
Q 3200 3197 3328 2828 
z
" transform="scale(0.015625)"/>
       <path id="DejaVuSans-29" d="M 513 4856 
L 1013 4856 
Q 1481 4119 1714 3412 
Q 1947 2706 1947 2009 
Q 1947 1309 1714 600 
Q 1481 -109 1013 -844 
L 513 -844 
Q 928 -128 1133 580 
Q 1338 1288 1338 2009 
Q 1338 2731 1133 3434 
Q 928 4138 513 4856 
z
" transform="scale(0.015625)"/>
      </defs>
      <use xlink:href="#DejaVuSans-71"/>
      <use xlink:href="#DejaVuSans-20" transform="translate(63.476562 0)"/>
      <use xlink:href="#DejaVuSans-28" transform="translate(95.263672 0)"/>
      <use xlink:href="#DejaVuSans-6e" transform="translate(134.277344 0)"/>
      <use xlink:href="#DejaVuSans-6d" transform="translate(197.65625 0)"/>
      <use xlink:href="#DejaVuSans-29" transform="translate(295.068359 0)"/>
     </g>
    </g>
   </g>
   <g id="matplotlib.axis_2">
    <g id="ytick_1">
     <g id="line2d_7">
      <defs>
       <path id="m2b05fb9ba4" d="M 0 0 
L -3.5 0 
" style="stroke: #000000; stroke-width: 0.8"/>
      </defs>
      <g>
       <use xlink:href="#m2b05fb9ba4" x="33.7" y="180.687273" style="stroke: #000000; stroke-width: 0.8"/>
      </g>
     </g>
     <g id="text_8">
      <!-- 0 -->
      <g transform="translate(20.3375 184.486491) scale(0.1 -0.1)">
       <use xlink:href="#DejaVuSans-30"/>
      </g>
     </g>
    </g>
    <g id="ytick_2">
     <g id="line2d_8">
      <g>
       <use xlink:href="#m2b05fb9ba4" x="33.7" y="138.032265" style="stroke: #000000; stroke-width: 0.8"/>
      </g>
     </g>
     <g id="text_9">
      <!-- 10000 -->
      <g transform="translate(-5.1125 141.831483) scale(0.1 -0.1)">
       <use xlink:href="#DejaVuSans-31"/>
       <use xlink:href="#DejaVuSans-30" transform="translate(63.623047 0)"/>
       <use xlink:href="#DejaVuSans-30" transform="translate(127.246094 0)"/>
       <use xlink:href="#DejaVuSans-30" transform="translate(190.869141 0)"/>
       <use xlink:href="#DejaVuSans-30" transform="translate(254.492188 0)"/>
      </g>
     </g>
    </g>
    <g id="ytick_3">
     <g id="line2d_9">
      <g>
       <use xlink:href="#m2b05fb9ba4" x="33.7" y="95.377257" style="stroke: #000000; stroke-width: 0.8"/>
      </g>
     </g>
     <g id="text_10">
      <!-- 20000 -->
      <g transform="translate(-5.1125 99.176475) scale(0.1 -0.1)">
       <use xlink:href="#DejaVuSans-32"/>
       <use xlink:href="#DejaVuSans-30" transform="translate(63.623047 0)"/>
       <use xlink:href="#DejaVuSans-30" transform="translate(127.246094 0)"/>
       <use xlink:href="#DejaVuSans-30" transform="translate(190.869141 0)"/>
       <use xlink:href="#DejaVuSans-30" transform="translate(254.492188 0)"/>
      </g>
     </g>
    </g>
    <g id="ytick_4">
     <g id="line2d_10">
      <g>
       <use xlink:href="#m2b05fb9ba4" x="33.7" y="52.722248" style="stroke: #000000; stroke-width: 0.8"/>
      </g>
     </g>
     <g id="text_11">
      <!-- 30000 -->
      <g transform="translate(-5.1125 56.521467) scale(0.1 -0.1)">
       <defs>
        <path id="DejaVuSans-33" d="M 2597 2516 
Q 3050 2419 3304 2112 
Q 3559 1806 3559 1356 
Q 3559 666 3084 287 
Q 2609 -91 1734 -91 
Q 1441 -91 1130 -33 
Q 819 25 488 141 
L 488 750 
Q 750 597 1062 519 
Q 1375 441 1716 441 
Q 2309 441 2620 675 
Q 2931 909 2931 1356 
Q 2931 1769 2642 2001 
Q 2353 2234 1838 2234 
L 1294 2234 
L 1294 2753 
L 1863 2753 
Q 2328 2753 2575 2939 
Q 2822 3125 2822 3475 
Q 2822 3834 2567 4026 
Q 2313 4219 1838 4219 
Q 1578 4219 1281 4162 
Q 984 4106 628 3988 
L 628 4550 
Q 988 4650 1302 4700 
Q 1616 4750 1894 4750 
Q 2613 4750 3031 4423 
Q 3450 4097 3450 3541 
Q 3450 3153 3228 2886 
Q 3006 2619 2597 2516 
z
" transform="scale(0.015625)"/>
       </defs>
       <use xlink:href="#DejaVuSans-33"/>
       <use xlink:href="#DejaVuSans-30" transform="translate(63.623047 0)"/>
       <use xlink:href="#DejaVuSans-30" transform="translate(127.246094 0)"/>
       <use xlink:href="#DejaVuSans-30" transform="translate(190.869141 0)"/>
       <use xlink:href="#DejaVuSans-30" transform="translate(254.492188 0)"/>
      </g>
     </g>
    </g>
    <g id="text_12">
     <!-- rdf -->
     <g transform="translate(-11.192187 108.462344) rotate(-90) scale(0.1 -0.1)">
      <defs>
       <path id="DejaVuSans-72" d="M 2631 2963 
Q 2534 3019 2420 3045 
Q 2306 3072 2169 3072 
Q 1681 3072 1420 2755 
Q 1159 2438 1159 1844 
L 1159 0 
L 581 0 
L 581 3500 
L 1159 3500 
L 1159 2956 
Q 1341 3275 1631 3429 
Q 1922 3584 2338 3584 
Q 2397 3584 2469 3576 
Q 2541 3569 2628 3553 
L 2631 2963 
z
" transform="scale(0.015625)"/>
       <path id="DejaVuSans-64" d="M 2906 2969 
L 2906 4863 
L 3481 4863 
L 3481 0 
L 2906 0 
L 2906 525 
Q 2725 213 2448 61 
Q 2172 -91 1784 -91 
Q 1150 -91 751 415 
Q 353 922 353 1747 
Q 353 2572 751 3078 
Q 1150 3584 1784 3584 
Q 2172 3584 2448 3432 
Q 2725 3281 2906 2969 
z
M 947 1747 
Q 947 1113 1208 752 
Q 1469 391 1925 391 
Q 2381 391 2643 752 
Q 2906 1113 2906 1747 
Q 2906 2381 2643 2742 
Q 2381 3103 1925 3103 
Q 1469 3103 1208 2742 
Q 947 2381 947 1747 
z
" transform="scale(0.015625)"/>
       <path id="DejaVuSans-66" d="M 2375 4863 
L 2375 4384 
L 1825 4384 
Q 1516 4384 1395 4259 
Q 1275 4134 1275 3809 
L 1275 3500 
L 2222 3500 
L 2222 3053 
L 1275 3053 
L 1275 0 
L 697 0 
L 697 3053 
L 147 3053 
L 147 3500 
L 697 3500 
L 697 3744 
Q 697 4328 969 4595 
Q 1241 4863 1831 4863 
L 2375 4863 
z
" transform="scale(0.015625)"/>
      </defs>
      <use xlink:href="#DejaVuSans-72"/>
      <use xlink:href="#DejaVuSans-64" transform="translate(39.363281 0)"/>
      <use xlink:href="#DejaVuSans-66" transform="translate(102.839844 0)"/>
     </g>
    </g>
   </g>
   <g id="line2d_11">
    <path d="M 44.406818 180.687273 
L 94.854984 180.687273 
L 95.391667 174.160821 
L 95.928349 22.432727 
L 96.465032 89.572235 
L 97.001715 140.915777 
L 97.538397 157.674785 
L 98.07508 168.291192 
L 98.611762 173.315766 
L 99.148445 174.04498 
L 100.22181 177.304079 
L 100.758493 176.999097 
L 101.295175 177.429959 
L 101.831858 176.247001 
L 102.368541 176.154112 
L 102.905223 175.380621 
L 103.441906 176.484814 
L 103.978589 175.073999 
L 104.515271 175.822039 
L 105.051954 175.270072 
L 105.588636 175.990527 
L 106.125319 174.379042 
L 106.662002 173.881957 
L 107.198684 172.956625 
L 107.735367 172.648044 
L 108.272049 173.35696 
L 108.808732 174.608973 
L 109.345415 174.291505 
L 109.882097 173.438059 
L 110.41878 172.88212 
L 110.955463 171.682804 
L 111.492145 171.043828 
L 112.028828 172.60659 
L 112.56551 171.849038 
L 113.102193 174.223513 
L 113.638876 172.60948 
L 114.175558 172.37125 
L 114.712241 173.328128 
L 115.248923 173.20495 
L 115.785606 172.85597 
L 116.322289 174.106571 
L 117.395654 174.408166 
L 117.932337 171.893634 
L 119.005702 173.19872 
L 119.542384 174.344697 
L 120.079067 173.921468 
L 120.61575 175.330107 
L 121.152432 175.504182 
L 121.689115 172.921585 
L 122.225797 175.063991 
L 122.76248 174.853591 
L 123.299163 175.215442 
L 123.835845 173.985831 
L 124.372528 174.718019 
L 125.445893 175.500576 
L 125.982576 174.774056 
L 126.519258 175.112185 
L 127.055941 174.926162 
L 127.592624 174.40582 
L 128.129306 175.826693 
L 128.665989 174.978044 
L 129.202671 176.765595 
L 129.739354 175.604416 
L 130.276037 175.42852 
L 130.812719 175.886913 
L 131.349402 175.79036 
L 131.886085 175.235835 
L 132.422767 176.667208 
L 133.496132 176.837242 
L 134.032815 175.858885 
L 134.569498 176.566639 
L 135.10618 174.971977 
L 135.642863 175.391843 
L 136.179545 175.244062 
L 136.716228 175.85881 
L 137.252911 174.755145 
L 138.326276 174.556405 
L 138.862959 175.284539 
L 139.399641 173.78173 
L 139.936324 174.374216 
L 141.009689 173.883364 
L 141.546372 173.210464 
L 142.619737 172.641077 
L 143.156419 172.064787 
L 143.693102 171.262773 
L 144.229785 171.835657 
L 144.766467 169.944786 
L 145.30315 170.520591 
L 145.839833 169.370164 
L 146.376515 170.054258 
L 146.913198 166.191165 
L 147.44988 166.119821 
L 148.523246 170.37856 
L 149.596611 173.82996 
L 151.206659 173.312651 
L 152.280024 175.328746 
L 152.816707 174.230302 
L 153.353389 174.838789 
L 154.426754 175.146497 
L 154.963437 174.333608 
L 155.50012 175.062126 
L 156.036802 174.171643 
L 156.573485 174.280479 
L 157.110167 173.877988 
L 157.64685 175.410511 
L 158.183533 174.596467 
L 158.720215 174.96859 
L 159.256898 174.352635 
L 160.330263 174.33774 
L 160.866946 175.437319 
L 161.403628 174.754393 
L 161.940311 176.34197 
L 162.476994 175.241449 
L 163.013676 174.45382 
L 163.550359 174.426818 
L 164.087041 175.551052 
L 164.623724 175.515248 
L 165.160407 175.197749 
L 165.697089 175.566168 
L 166.233772 174.97656 
L 166.770455 175.655445 
L 167.307137 174.491144 
L 167.84382 174.27435 
L 168.380502 174.904129 
L 168.917185 174.80188 
L 169.453868 175.98156 
L 169.99055 175.984266 
L 170.527233 174.876856 
L 171.063915 174.5589 
L 171.600598 174.537632 
L 172.137281 173.29007 
L 172.673963 174.067395 
L 173.210646 175.57726 
L 173.747329 174.704478 
L 174.284011 174.474502 
L 174.820694 174.42158 
L 175.357376 175.296756 
L 175.894059 175.51085 
L 176.430742 174.302924 
L 176.967424 175.158573 
L 177.504107 174.139356 
L 178.577472 174.407047 
L 179.114155 174.164835 
L 179.650837 175.182185 
L 180.18752 175.225536 
L 180.724203 174.72967 
L 181.260885 174.901975 
L 181.797568 174.79101 
L 182.33425 175.115315 
L 182.870933 174.421146 
L 183.407616 174.499844 
L 184.480981 174.143884 
L 185.017663 174.461756 
L 185.554346 175.070588 
L 186.091029 175.318321 
L 186.627711 174.863682 
L 187.164394 174.098128 
L 187.701077 174.893066 
L 188.237759 175.02155 
L 188.774442 174.300497 
L 189.311124 175.301388 
L 189.847807 174.839781 
L 190.38449 175.490728 
L 190.921172 173.964607 
L 191.457855 174.748961 
L 191.994537 174.061871 
L 192.53122 174.405034 
L 193.067903 173.970441 
L 193.604585 174.309698 
L 194.141268 174.828167 
L 194.677951 174.243784 
L 195.214633 174.833445 
L 195.751316 174.257542 
L 196.287998 175.426476 
L 196.824681 173.916512 
L 197.898046 174.710869 
L 198.434729 174.653082 
L 199.508094 175.568832 
L 200.044777 175.531047 
L 200.581459 174.672602 
L 201.118142 175.769243 
L 201.654825 175.254659 
L 202.191507 175.338825 
L 202.72819 175.680553 
L 203.264872 174.990481 
L 203.801555 175.167853 
L 204.338238 175.895842 
L 204.87492 175.67608 
L 205.411603 175.595726 
L 205.948285 175.087529 
L 206.484968 175.595561 
L 207.021651 175.740454 
L 207.558333 175.108793 
L 208.095016 175.541105 
L 208.631699 175.225062 
L 209.168381 174.674435 
L 209.705064 175.317225 
L 210.241746 175.630411 
L 210.778429 174.555867 
L 211.315112 175.758596 
L 211.851794 174.234769 
L 212.388477 175.445385 
L 212.925159 175.520143 
L 214.535207 174.802881 
L 215.07189 175.811002 
L 215.608573 175.419237 
L 216.145255 174.732706 
L 216.681938 175.325714 
L 217.21862 175.260227 
L 217.755303 175.666374 
L 218.291986 175.346423 
L 219.902033 175.692598 
L 220.438716 176.255524 
L 220.975399 175.469487 
L 221.512081 175.970742 
L 222.048764 175.588288 
L 222.585447 175.563187 
L 223.122129 175.704588 
L 223.658812 175.367495 
L 224.195494 175.417391 
L 224.732177 175.666164 
L 226.342225 175.861353 
L 226.878907 176.137515 
L 227.41559 175.829739 
L 227.952273 175.368128 
L 228.488955 176.007879 
L 229.025638 176.000425 
L 230.635686 175.588066 
L 231.172368 175.938418 
L 231.709051 175.864699 
L 232.245734 176.326605 
L 232.782416 176.002479 
L 233.319099 176.260303 
L 233.855781 175.661159 
L 234.392464 175.281167 
L 234.929147 175.506412 
L 236.002512 176.126305 
L 236.539195 175.976049 
L 237.075877 175.144594 
L 237.61256 175.838656 
L 239.222608 175.778566 
L 239.75929 176.330704 
L 240.295973 175.294356 
L 240.832656 175.76691 
L 241.906021 175.80505 
L 242.442703 176.147157 
L 242.979386 176.096861 
L 243.516069 175.660496 
L 244.052751 175.879762 
L 244.589434 175.817199 
L 245.126116 175.916326 
L 245.662799 175.62147 
L 246.199482 176.184081 
L 246.736164 175.991839 
L 247.272847 176.217229 
L 247.80953 175.570902 
L 248.346212 175.980564 
L 248.882895 176.202614 
L 249.419577 175.903381 
L 249.95626 176.067855 
L 250.492943 176.522238 
L 251.029625 176.046625 
L 251.566308 176.249207 
L 252.10299 176.709497 
L 253.176356 175.654365 
L 253.713038 176.366574 
L 254.249721 176.589499 
L 254.786404 176.024129 
L 255.323086 175.716419 
L 255.859769 176.770288 
L 256.396451 175.66159 
L 256.933134 176.026345 
L 257.469817 176.543386 
L 258.006499 176.241041 
L 258.543182 176.211842 
L 258.543182 176.211842 
" clip-path="url(#p44e2308969)" style="fill: none; stroke: #000000; stroke-opacity: 0.5; stroke-width: 0.5; stroke-linecap: square"/>
   </g>
   <g id="line2d_12">
    <path d="M 44.406818 180.687273 
L 100.22181 180.687273 
L 100.758493 180.122521 
L 101.295175 180.687273 
L 101.831858 179.599406 
L 102.368541 178.017502 
L 102.905223 175.969059 
L 103.441906 177.083664 
L 103.978589 172.597553 
L 104.515271 174.230703 
L 105.051954 172.88013 
L 105.588636 173.495379 
L 106.125319 171.26339 
L 106.662002 170.498202 
L 107.198684 167.939136 
L 107.735367 166.810467 
L 108.272049 167.922105 
L 108.808732 170.73052 
L 109.345415 167.061504 
L 109.882097 168.120826 
L 110.41878 166.675003 
L 110.955463 167.710242 
L 111.492145 163.127081 
L 112.028828 167.331698 
L 112.56551 164.833688 
L 113.102193 169.647606 
L 113.638876 167.193685 
L 114.175558 167.399713 
L 114.712241 169.055075 
L 115.248923 165.649556 
L 115.785606 168.695589 
L 116.322289 169.915626 
L 116.858971 167.335136 
L 117.395654 170.228978 
L 117.932337 164.395968 
L 119.542384 171.134417 
L 120.079067 170.955019 
L 120.61575 174.805761 
L 121.152432 173.361173 
L 121.689115 169.247627 
L 122.225797 170.295107 
L 122.76248 173.072404 
L 123.299163 171.441765 
L 123.835845 172.706041 
L 124.372528 171.687474 
L 124.909211 174.304343 
L 125.445893 174.936075 
L 125.982576 173.930098 
L 126.519258 174.017856 
L 127.055941 174.630582 
L 127.592624 173.148467 
L 128.129306 175.554331 
L 128.665989 175.1125 
L 129.202671 175.432836 
L 129.739354 174.510189 
L 130.276037 175.318962 
L 130.812719 175.144233 
L 131.886085 174.338458 
L 132.422767 176.970609 
L 132.95945 177.703859 
L 133.496132 177.286103 
L 134.032815 175.982337 
L 134.569498 176.702185 
L 135.642863 176.362671 
L 136.179545 176.412956 
L 136.716228 177.941084 
L 137.252911 176.719735 
L 137.789593 176.765097 
L 138.326276 176.60558 
L 138.862959 175.642799 
L 139.399641 178.093622 
L 139.936324 177.728027 
L 140.473006 176.200188 
L 141.009689 175.863899 
L 141.546372 173.817954 
L 142.083054 175.969035 
L 143.156419 173.116216 
L 143.693102 172.284256 
L 144.229785 173.819893 
L 144.766467 170.316977 
L 145.30315 172.195782 
L 145.839833 172.810307 
L 146.376515 170.12142 
L 146.913198 165.089263 
L 147.44988 164.911635 
L 147.986563 169.942838 
L 148.523246 171.548462 
L 149.596611 176.780199 
L 150.669976 177.815717 
L 151.206659 177.686498 
L 152.280024 178.829481 
L 152.816707 178.847787 
L 153.353389 177.651513 
L 153.890072 178.432669 
L 154.963437 178.476125 
L 155.50012 178.351406 
L 156.036802 178.373752 
L 156.573485 177.536486 
L 157.110167 177.70821 
L 157.64685 178.157868 
L 158.183533 177.764026 
L 158.720215 178.756654 
L 159.256898 177.408428 
L 159.793581 177.032724 
L 160.330263 177.73693 
L 161.403628 176.605731 
L 161.940311 178.99122 
L 162.476994 177.455133 
L 163.013676 176.587417 
L 163.550359 176.497224 
L 164.087041 177.289662 
L 164.623724 177.070418 
L 165.697089 176.153795 
L 166.233772 174.371778 
L 166.770455 177.557122 
L 167.307137 175.197463 
L 167.84382 175.599913 
L 168.380502 174.822743 
L 168.917185 175.221926 
L 169.453868 176.536833 
L 169.99055 174.971812 
L 170.527233 175.360285 
L 171.063915 174.281379 
L 171.600598 174.892418 
L 172.137281 173.504317 
L 172.673963 173.454608 
L 173.210646 175.144771 
L 173.747329 173.681684 
L 174.284011 174.060025 
L 174.820694 173.266234 
L 175.357376 175.74525 
L 175.894059 173.282347 
L 176.430742 172.825065 
L 176.967424 173.914615 
L 177.504107 174.274385 
L 178.040789 173.113959 
L 178.577472 173.574997 
L 179.114155 172.935792 
L 179.650837 174.47594 
L 180.724203 173.893862 
L 181.260885 174.332092 
L 181.797568 174.286006 
L 182.33425 175.473235 
L 183.407616 172.379582 
L 183.944298 174.017948 
L 184.480981 174.068845 
L 185.017663 173.389417 
L 185.554346 173.535237 
L 186.091029 175.116618 
L 186.627711 174.980152 
L 187.164394 174.049359 
L 187.701077 174.538098 
L 188.237759 174.758193 
L 188.774442 173.850101 
L 189.311124 175.532811 
L 189.847807 175.314889 
L 190.38449 176.200761 
L 190.921172 173.376373 
L 191.457855 175.34824 
L 191.994537 174.72441 
L 192.53122 175.014129 
L 193.067903 174.891672 
L 195.214633 175.451852 
L 195.751316 174.307371 
L 196.287998 176.854999 
L 196.824681 174.008436 
L 197.361364 174.594963 
L 197.898046 174.867155 
L 198.434729 175.820188 
L 199.508094 175.812202 
L 200.044777 176.069166 
L 200.581459 175.582954 
L 201.118142 176.132097 
L 201.654825 175.287421 
L 202.191507 175.251557 
L 202.72819 175.792205 
L 203.264872 174.824129 
L 203.801555 175.999824 
L 204.338238 176.101723 
L 204.87492 176.692906 
L 205.411603 176.023336 
L 205.948285 175.915919 
L 206.484968 177.183916 
L 207.021651 176.31981 
L 207.558333 176.823013 
L 208.095016 176.646211 
L 208.631699 176.873284 
L 209.168381 175.834402 
L 209.705064 175.997916 
L 210.241746 176.553127 
L 210.778429 175.145322 
L 211.315112 177.707326 
L 211.851794 175.666615 
L 212.388477 176.466091 
L 212.925159 176.874179 
L 213.461842 176.140527 
L 213.998525 176.169214 
L 214.535207 176.072912 
L 215.07189 176.969369 
L 215.608573 177.300498 
L 216.145255 175.669351 
L 216.681938 176.916806 
L 217.21862 177.54452 
L 217.755303 177.143469 
L 218.291986 177.165284 
L 218.828668 177.305538 
L 219.365351 176.972443 
L 220.438716 177.134028 
L 220.975399 176.923991 
L 221.512081 176.371223 
L 222.048764 176.797662 
L 222.585447 176.991572 
L 223.122129 176.335497 
L 223.658812 176.867122 
L 224.195494 176.834013 
L 224.732177 176.468272 
L 225.26886 176.879523 
L 225.805542 176.792291 
L 226.342225 177.469622 
L 226.878907 176.295738 
L 227.41559 177.129921 
L 227.952273 176.346876 
L 228.488955 177.064656 
L 229.025638 176.185262 
L 230.099003 176.237058 
L 230.635686 175.377723 
L 231.172368 176.495056 
L 231.709051 176.210218 
L 232.245734 176.338091 
L 232.782416 176.108384 
L 233.319099 176.235525 
L 233.855781 175.657052 
L 234.392464 175.635381 
L 234.929147 176.011911 
L 235.465829 175.345658 
L 236.002512 176.900183 
L 236.539195 176.089836 
L 237.075877 174.607597 
L 237.61256 175.415191 
L 238.149242 175.540509 
L 238.685925 176.669109 
L 239.222608 175.930021 
L 239.75929 176.523814 
L 240.295973 176.123074 
L 240.832656 175.258828 
L 241.369338 175.288309 
L 241.906021 175.734197 
L 242.442703 176.405545 
L 242.979386 175.879116 
L 243.516069 174.629671 
L 244.052751 175.840006 
L 244.589434 175.460403 
L 245.126116 176.115725 
L 245.662799 176.050898 
L 246.199482 176.518924 
L 246.736164 175.879313 
L 247.272847 176.431239 
L 247.80953 175.537054 
L 248.346212 176.215368 
L 248.882895 176.497888 
L 249.419577 176.047178 
L 249.95626 176.327784 
L 251.029625 176.119135 
L 252.10299 176.710351 
L 252.639673 175.523022 
L 253.176356 175.839547 
L 253.713038 175.946786 
L 254.249721 176.996263 
L 254.786404 176.403009 
L 255.323086 176.262384 
L 255.859769 177.617648 
L 256.396451 175.583679 
L 256.933134 176.528994 
L 258.006499 176.412298 
L 258.543182 176.394298 
L 258.543182 176.394298 
" clip-path="url(#p44e2308969)" style="fill: none; stroke: #0000ff; stroke-opacity: 0.5; stroke-linecap: square"/>
   </g>
   <g id="line2d_13">
    <path d="M 44.406818 180.687273 
L 99.148445 180.687273 
L 99.685128 174.428178 
L 100.22181 175.570714 
L 100.758493 172.655246 
L 101.295175 171.820142 
L 101.831858 169.083364 
L 102.368541 169.296255 
L 102.905223 167.639375 
L 103.441906 169.704846 
L 103.978589 169.002123 
L 104.515271 167.443028 
L 105.051954 168.54283 
L 105.588636 170.458804 
L 106.125319 166.446741 
L 106.662002 166.690167 
L 107.198684 163.689759 
L 108.272049 167.384112 
L 108.808732 166.064798 
L 109.345415 173.117402 
L 109.882097 165.793709 
L 110.41878 164.568585 
L 110.955463 161.942675 
L 111.492145 163.659209 
L 112.028828 164.625667 
L 112.56551 164.876654 
L 113.102193 169.182334 
L 113.638876 162.029474 
L 114.175558 162.97053 
L 114.712241 164.531445 
L 115.248923 169.866483 
L 115.785606 163.757838 
L 116.322289 170.185885 
L 116.858971 174.600829 
L 117.932337 166.501649 
L 118.469019 165.54067 
L 119.005702 165.182803 
L 119.542384 165.968802 
L 120.079067 166.176102 
L 120.61575 165.828719 
L 121.152432 167.663097 
L 121.689115 167.842759 
L 122.225797 173.297289 
L 122.76248 166.629056 
L 123.299163 171.955405 
L 123.835845 167.511908 
L 124.372528 170.187509 
L 124.909211 169.339843 
L 125.445893 170.949796 
L 125.982576 168.674519 
L 126.519258 170.25334 
L 127.055941 169.451675 
L 127.592624 170.057847 
L 128.129306 172.93083 
L 128.665989 172.128026 
L 129.202671 174.014974 
L 130.276037 175.047837 
L 130.812719 174.260561 
L 131.349402 172.646663 
L 131.886085 173.99881 
L 132.95945 174.159463 
L 133.496132 177.462461 
L 134.032815 174.314451 
L 134.569498 175.177029 
L 135.10618 174.46395 
L 135.642863 174.15232 
L 136.179545 172.32861 
L 136.716228 173.927425 
L 137.252911 173.633873 
L 137.789593 174.081503 
L 138.326276 173.793749 
L 138.862959 174.589066 
L 139.399641 172.174781 
L 139.936324 171.568414 
L 140.473006 173.057062 
L 141.009689 172.798377 
L 141.546372 172.206633 
L 142.083054 170.28618 
L 142.619737 166.74866 
L 143.156419 172.808451 
L 143.693102 171.594155 
L 144.766467 164.158375 
L 145.30315 165.905791 
L 145.839833 161.704759 
L 146.376515 167.138349 
L 146.913198 166.365292 
L 147.44988 165.910572 
L 147.986563 163.97371 
L 148.523246 170.939209 
L 149.596611 176.635493 
L 150.133293 176.676422 
L 150.669976 176.149506 
L 151.206659 177.87953 
L 151.743341 178.46343 
L 152.280024 178.210217 
L 152.816707 177.417076 
L 153.353389 179.068201 
L 153.890072 178.01515 
L 154.426754 177.511858 
L 154.963437 177.542529 
L 155.50012 178.091866 
L 156.036802 178.373752 
L 156.573485 178.395792 
L 157.110167 176.904336 
L 157.64685 177.189826 
L 158.183533 177.717626 
L 159.256898 177.28699 
L 159.793581 175.152813 
L 160.330263 175.442218 
L 160.866946 178.088811 
L 161.403628 176.942202 
L 161.940311 176.976251 
L 162.476994 177.69934 
L 163.013676 176.359648 
L 163.550359 177.075649 
L 164.087041 175.989342 
L 164.623724 176.696261 
L 165.160407 174.973503 
L 165.697089 175.677303 
L 166.233772 177.232644 
L 166.770455 175.122561 
L 167.307137 174.746611 
L 167.84382 173.746379 
L 168.380502 173.597709 
L 168.917185 174.485462 
L 169.453868 177.202954 
L 169.99055 174.387566 
L 170.527233 172.224542 
L 171.600598 172.366457 
L 172.137281 171.257343 
L 172.673963 170.751493 
L 173.210646 174.118383 
L 173.747329 173.214646 
L 174.820694 170.886792 
L 175.357376 171.340659 
L 175.894059 173.27076 
L 176.430742 170.756064 
L 176.967424 173.572562 
L 177.504107 170.191402 
L 178.577472 172.673442 
L 179.114155 171.146991 
L 179.650837 172.449315 
L 180.18752 171.470814 
L 180.724203 171.025534 
L 181.260885 171.956924 
L 181.797568 171.005755 
L 182.33425 170.91227 
L 182.870933 170.987745 
L 183.407616 171.726169 
L 183.944298 168.995373 
L 184.480981 169.248016 
L 185.017663 169.983753 
L 185.554346 173.605652 
L 186.091029 172.221475 
L 186.627711 172.126594 
L 187.164394 170.774657 
L 187.701077 173.659646 
L 188.237759 172.316808 
L 188.774442 173.609695 
L 189.311124 172.745586 
L 189.847807 172.197581 
L 190.38449 173.614199 
L 190.921172 172.769467 
L 191.457855 174.310096 
L 191.994537 173.325716 
L 192.53122 173.525043 
L 193.067903 172.270502 
L 193.604585 171.754551 
L 194.141268 172.247474 
L 194.677951 171.881462 
L 195.214633 174.341308 
L 195.751316 173.40596 
L 196.287998 173.318185 
L 196.824681 174.198275 
L 197.361364 173.283961 
L 197.898046 173.06326 
L 198.434729 172.710663 
L 198.971411 173.974194 
L 199.508094 172.687158 
L 200.044777 174.993264 
L 200.581459 173.454101 
L 201.118142 174.809628 
L 201.654825 173.811787 
L 202.191507 174.76033 
L 202.72819 175.056345 
L 203.264872 174.967134 
L 204.338238 174.165603 
L 205.948285 175.155268 
L 206.484968 174.09272 
L 207.021651 177.047721 
L 207.558333 173.817478 
L 208.095016 175.897867 
L 208.631699 176.285945 
L 209.168381 175.369059 
L 209.705064 175.990578 
L 210.241746 175.904206 
L 210.778429 175.00768 
L 211.315112 175.850259 
L 211.851794 174.851295 
L 212.388477 175.343285 
L 212.925159 174.812286 
L 213.461842 176.19666 
L 213.998525 176.001879 
L 214.535207 174.922786 
L 215.07189 176.391029 
L 215.608573 175.651585 
L 216.145255 174.486264 
L 216.681938 176.687065 
L 217.21862 176.282047 
L 217.755303 174.707522 
L 218.291986 175.593323 
L 218.828668 176.046452 
L 219.902033 176.311351 
L 220.438716 177.3735 
L 220.975399 175.952615 
L 221.512081 177.106551 
L 222.585447 174.723612 
L 223.122129 176.869265 
L 223.658812 175.993232 
L 224.195494 175.624052 
L 224.732177 176.34491 
L 225.26886 175.48764 
L 225.805542 176.396089 
L 226.342225 175.063959 
L 226.878907 175.964416 
L 227.41559 175.417123 
L 227.952273 175.066787 
L 228.488955 175.762409 
L 229.025638 175.696809 
L 229.562321 174.415044 
L 230.099003 176.40576 
L 230.635686 175.134803 
L 231.172368 175.166658 
L 231.709051 174.649254 
L 232.245734 175.411403 
L 232.782416 174.71776 
L 233.319099 175.561018 
L 233.855781 175.589983 
L 234.392464 173.217809 
L 234.929147 173.967132 
L 235.465829 175.763315 
L 236.002512 175.790834 
L 236.539195 174.86168 
L 237.075877 174.288752 
L 237.61256 174.66818 
L 238.149242 174.786933 
L 238.685925 174.054114 
L 239.222608 173.583111 
L 239.75929 175.051884 
L 240.295973 172.824096 
L 240.832656 174.863655 
L 241.369338 173.902369 
L 241.906021 174.844393 
L 242.442703 173.730106 
L 242.979386 174.581677 
L 243.516069 174.371579 
L 244.052751 174.647066 
L 244.589434 176.281483 
L 245.126116 174.073967 
L 245.662799 173.316627 
L 246.199482 173.907548 
L 246.736164 176.374323 
L 247.272847 174.291036 
L 248.346212 173.81781 
L 248.882895 175.312577 
L 249.419577 175.035142 
L 249.95626 174.608683 
L 250.492943 175.320549 
L 251.029625 175.34838 
L 251.566308 174.702678 
L 252.639673 176.392986 
L 253.176356 174.205224 
L 253.713038 175.337622 
L 254.249721 176.021107 
L 254.786404 174.739175 
L 255.323086 174.480702 
L 255.859769 175.158359 
L 256.396451 175.186286 
L 256.933134 175.427228 
L 257.469817 176.090171 
L 258.006499 175.409527 
L 258.543182 175.786019 
L 258.543182 175.786019 
" clip-path="url(#p44e2308969)" style="fill: none; stroke: #ff0000; stroke-opacity: 0.5; stroke-linecap: square"/>
   </g>
   <g id="patch_3">
    <path d="M 33.7 188.6 
L 33.7 14.52 
" style="fill: none; stroke: #000000; stroke-width: 0.8; stroke-linejoin: miter; stroke-linecap: square"/>
   </g>
   <g id="patch_4">
    <path d="M 269.25 188.6 
L 269.25 14.52 
" style="fill: none; stroke: #000000; stroke-width: 0.8; stroke-linejoin: miter; stroke-linecap: square"/>
   </g>
   <g id="patch_5">
    <path d="M 33.7 188.6 
L 269.25 188.6 
" style="fill: none; stroke: #000000; stroke-width: 0.8; stroke-linejoin: miter; stroke-linecap: square"/>
   </g>
   <g id="patch_6">
    <path d="M 33.7 14.52 
L 269.25 14.52 
" style="fill: none; stroke: #000000; stroke-width: 0.8; stroke-linejoin: miter; stroke-linecap: square"/>
   </g>
   <g id="legend_1">
    <g id="patch_7">
     <path d="M 213.917188 66.554375 
L 262.25 66.554375 
Q 264.25 66.554375 264.25 64.554375 
L 264.25 21.52 
Q 264.25 19.52 262.25 19.52 
L 213.917188 19.52 
Q 211.917188 19.52 211.917188 21.52 
L 211.917188 64.554375 
Q 211.917188 66.554375 213.917188 66.554375 
z
" style="fill: #ffffff; opacity: 0.8; stroke: #cccccc; stroke-linejoin: miter"/>
    </g>
    <g id="line2d_14">
     <path d="M 215.917188 27.618438 
L 225.917188 27.618438 
L 235.917188 27.618438 
" style="fill: none; stroke: #000000; stroke-opacity: 0.5; stroke-width: 0.5; stroke-linecap: square"/>
    </g>
    <g id="text_13">
     <!-- all -->
     <g transform="translate(243.917188 31.118438) scale(0.1 -0.1)">
      <defs>
       <path id="DejaVuSans-61" d="M 2194 1759 
Q 1497 1759 1228 1600 
Q 959 1441 959 1056 
Q 959 750 1161 570 
Q 1363 391 1709 391 
Q 2188 391 2477 730 
Q 2766 1069 2766 1631 
L 2766 1759 
L 2194 1759 
z
M 3341 1997 
L 3341 0 
L 2766 0 
L 2766 531 
Q 2569 213 2275 61 
Q 1981 -91 1556 -91 
Q 1019 -91 701 211 
Q 384 513 384 1019 
Q 384 1609 779 1909 
Q 1175 2209 1959 2209 
L 2766 2209 
L 2766 2266 
Q 2766 2663 2505 2880 
Q 2244 3097 1772 3097 
Q 1472 3097 1187 3025 
Q 903 2953 641 2809 
L 641 3341 
Q 956 3463 1253 3523 
Q 1550 3584 1831 3584 
Q 2591 3584 2966 3190 
Q 3341 2797 3341 1997 
z
" transform="scale(0.015625)"/>
       <path id="DejaVuSans-6c" d="M 603 4863 
L 1178 4863 
L 1178 0 
L 603 0 
L 603 4863 
z
" transform="scale(0.015625)"/>
      </defs>
      <use xlink:href="#DejaVuSans-61"/>
      <use xlink:href="#DejaVuSans-6c" transform="translate(61.279297 0)"/>
      <use xlink:href="#DejaVuSans-6c" transform="translate(89.0625 0)"/>
     </g>
    </g>
    <g id="line2d_15">
     <path d="M 215.917188 42.296563 
L 225.917188 42.296563 
L 235.917188 42.296563 
" style="fill: none; stroke: #0000ff; stroke-opacity: 0.5; stroke-linecap: square"/>
    </g>
    <g id="text_14">
     <!-- 1-1 -->
     <g transform="translate(243.917188 45.796563) scale(0.1 -0.1)">
      <defs>
       <path id="DejaVuSans-2d" d="M 313 2009 
L 1997 2009 
L 1997 1497 
L 313 1497 
L 313 2009 
z
" transform="scale(0.015625)"/>
      </defs>
      <use xlink:href="#DejaVuSans-31"/>
      <use xlink:href="#DejaVuSans-2d" transform="translate(63.623047 0)"/>
      <use xlink:href="#DejaVuSans-31" transform="translate(99.707031 0)"/>
     </g>
    </g>
    <g id="line2d_16">
     <path d="M 215.917188 56.974688 
L 225.917188 56.974688 
L 235.917188 56.974688 
" style="fill: none; stroke: #ff0000; stroke-opacity: 0.5; stroke-linecap: square"/>
    </g>
    <g id="text_15">
     <!-- 2-2 -->
     <g transform="translate(243.917188 60.474688) scale(0.1 -0.1)">
      <use xlink:href="#DejaVuSans-32"/>
      <use xlink:href="#DejaVuSans-2d" transform="translate(63.623047 0)"/>
      <use xlink:href="#DejaVuSans-32" transform="translate(99.707031 0)"/>
     </g>
    </g>
   </g>
  </g>
 </g>
 <defs>
  <clipPath id="p44e2308969">
   <rect x="33.7" y="14.52" width="235.55" height="174.08"/>
  </clipPath>
 </defs>
</svg>
