<?xml version="1.0" encoding="utf-8" standalone="no"?>
<!DOCTYPE svg PUBLIC "-//W3C//DTD SVG 1.1//EN"
  "http://www.w3.org/Graphics/SVG/1.1/DTD/svg11.dtd">
<svg xmlns:xlink="http://www.w3.org/1999/xlink" width="288pt" height="216pt" viewBox="0 0 288 216" xmlns="http://www.w3.org/2000/svg" version="1.1">
 <metadata>
  <rdf:RDF xmlns:dc="http://purl.org/dc/elements/1.1/" xmlns:cc="http://creativecommons.org/ns#" xmlns:rdf="http://www.w3.org/1999/02/22-rdf-syntax-ns#">
   <cc:Work>
    <dc:type rdf:resource="http://purl.org/dc/dcmitype/StillImage"/>
    <dc:date>2025-09-18T00:10:30.811846</dc:date>
    <dc:format>image/svg+xml</dc:format>
    <dc:creator>
     <cc:Agent>
      <dc:title>Matplotlib v3.10.0, https://matplotlib.org/</dc:title>
     </cc:Agent>
    </dc:creator>
   </cc:Work>
  </rdf:RDF>
 </metadata>
 <defs>
  <style type="text/css">*{stroke-linejoin: round; stroke-linecap: butt}</style>
 </defs>
 <g id="figure_1">
  <g id="patch_1">
   <path d="M 0 216 
L 288 216 
L 288 0 
L 0 0 
z
" style="fill: #ffffff"/>
  </g>
  <g id="axes_1">
   <g id="patch_2">
    <path d="M 33.7 188.6 
L 269.25 188.6 
L 269.25 14.52 
L 33.7 14.52 
z
" style="fill: #ffffff"/>
   </g>
   <g id="matplotlib.axis_1">
    <g id="xtick_1">
     <g id="line2d_1">
      <defs>
       <path id="m0d2f97c1ac" d="M 0 0 
L 0 3.5 
" style="stroke: #000000; stroke-width: 0.8"/>
      </defs>
      <g>
       <use xlink:href="#m0d2f97c1ac" x="44.138477" y="188.6" style="stroke: #000000; stroke-width: 0.8"/>
      </g>
     </g>
     <g id="text_1">
      <!-- 0 -->
      <g transform="translate(40.957227 203.198437) scale(0.1 -0.1)">
       <defs>
        <path id="DejaVuSans-30" d="M 2034 4250 
Q 1547 4250 1301 3770 
Q 1056 3291 1056 2328 
Q 1056 1369 1301 889 
Q 1547 409 2034 409 
Q 2525 409 2770 889 
Q 3016 1369 3016 2328 
Q 3016 3291 2770 3770 
Q 2525 4250 2034 4250 
z
M 2034 4750 
Q 2819 4750 3233 4129 
Q 3647 3509 3647 2328 
Q 3647 1150 3233 529 
Q 2819 -91 2034 -91 
Q 1250 -91 836 529 
Q 422 1150 422 2328 
Q 422 3509 836 4129 
Q 1250 4750 2034 4750 
z
" transform="scale(0.015625)"/>
       </defs>
       <use xlink:href="#DejaVuSans-30"/>
      </g>
     </g>
    </g>
    <g id="xtick_2">
     <g id="line2d_2">
      <g>
       <use xlink:href="#m0d2f97c1ac" x="87.073086" y="188.6" style="stroke: #000000; stroke-width: 0.8"/>
      </g>
     </g>
     <g id="text_2">
      <!-- 200 -->
      <g transform="translate(77.529336 203.198437) scale(0.1 -0.1)">
       <defs>
        <path id="DejaVuSans-32" d="M 1228 531 
L 3431 531 
L 3431 0 
L 469 0 
L 469 531 
Q 828 903 1448 1529 
Q 2069 2156 2228 2338 
Q 2531 2678 2651 2914 
Q 2772 3150 2772 3378 
Q 2772 3750 2511 3984 
Q 2250 4219 1831 4219 
Q 1534 4219 1204 4116 
Q 875 4013 500 3803 
L 500 4441 
Q 881 4594 1212 4672 
Q 1544 4750 1819 4750 
Q 2544 4750 2975 4387 
Q 3406 4025 3406 3419 
Q 3406 3131 3298 2873 
Q 3191 2616 2906 2266 
Q 2828 2175 2409 1742 
Q 1991 1309 1228 531 
z
" transform="scale(0.015625)"/>
       </defs>
       <use xlink:href="#DejaVuSans-32"/>
       <use xlink:href="#DejaVuSans-30" transform="translate(63.623047 0)"/>
       <use xlink:href="#DejaVuSans-30" transform="translate(127.246094 0)"/>
      </g>
     </g>
    </g>
    <g id="xtick_3">
     <g id="line2d_3">
      <g>
       <use xlink:href="#m0d2f97c1ac" x="130.007695" y="188.6" style="stroke: #000000; stroke-width: 0.8"/>
      </g>
     </g>
     <g id="text_3">
      <!-- 400 -->
      <g transform="translate(120.463945 203.198437) scale(0.1 -0.1)">
       <defs>
        <path id="DejaVuSans-34" d="M 2419 4116 
L 825 1625 
L 2419 1625 
L 2419 4116 
z
M 2253 4666 
L 3047 4666 
L 3047 1625 
L 3713 1625 
L 3713 1100 
L 3047 1100 
L 3047 0 
L 2419 0 
L 2419 1100 
L 313 1100 
L 313 1709 
L 2253 4666 
z
" transform="scale(0.015625)"/>
       </defs>
       <use xlink:href="#DejaVuSans-34"/>
       <use xlink:href="#DejaVuSans-30" transform="translate(63.623047 0)"/>
       <use xlink:href="#DejaVuSans-30" transform="translate(127.246094 0)"/>
      </g>
     </g>
    </g>
    <g id="xtick_4">
     <g id="line2d_4">
      <g>
       <use xlink:href="#m0d2f97c1ac" x="172.942305" y="188.6" style="stroke: #000000; stroke-width: 0.8"/>
      </g>
     </g>
     <g id="text_4">
      <!-- 600 -->
      <g transform="translate(163.398555 203.198437) scale(0.1 -0.1)">
       <defs>
        <path id="DejaVuSans-36" d="M 2113 2584 
Q 1688 2584 1439 2293 
Q 1191 2003 1191 1497 
Q 1191 994 1439 701 
Q 1688 409 2113 409 
Q 2538 409 2786 701 
Q 3034 994 3034 1497 
Q 3034 2003 2786 2293 
Q 2538 2584 2113 2584 
z
M 3366 4563 
L 3366 3988 
Q 3128 4100 2886 4159 
Q 2644 4219 2406 4219 
Q 1781 4219 1451 3797 
Q 1122 3375 1075 2522 
Q 1259 2794 1537 2939 
Q 1816 3084 2150 3084 
Q 2853 3084 3261 2657 
Q 3669 2231 3669 1497 
Q 3669 778 3244 343 
Q 2819 -91 2113 -91 
Q 1303 -91 875 529 
Q 447 1150 447 2328 
Q 447 3434 972 4092 
Q 1497 4750 2381 4750 
Q 2619 4750 2861 4703 
Q 3103 4656 3366 4563 
z
" transform="scale(0.015625)"/>
       </defs>
       <use xlink:href="#DejaVuSans-36"/>
       <use xlink:href="#DejaVuSans-30" transform="translate(63.623047 0)"/>
       <use xlink:href="#DejaVuSans-30" transform="translate(127.246094 0)"/>
      </g>
     </g>
    </g>
    <g id="xtick_5">
     <g id="line2d_5">
      <g>
       <use xlink:href="#m0d2f97c1ac" x="215.876914" y="188.6" style="stroke: #000000; stroke-width: 0.8"/>
      </g>
     </g>
     <g id="text_5">
      <!-- 800 -->
      <g transform="translate(206.333164 203.198437) scale(0.1 -0.1)">
       <defs>
        <path id="DejaVuSans-38" d="M 2034 2216 
Q 1584 2216 1326 1975 
Q 1069 1734 1069 1313 
Q 1069 891 1326 650 
Q 1584 409 2034 409 
Q 2484 409 2743 651 
Q 3003 894 3003 1313 
Q 3003 1734 2745 1975 
Q 2488 2216 2034 2216 
z
M 1403 2484 
Q 997 2584 770 2862 
Q 544 3141 544 3541 
Q 544 4100 942 4425 
Q 1341 4750 2034 4750 
Q 2731 4750 3128 4425 
Q 3525 4100 3525 3541 
Q 3525 3141 3298 2862 
Q 3072 2584 2669 2484 
Q 3125 2378 3379 2068 
Q 3634 1759 3634 1313 
Q 3634 634 3220 271 
Q 2806 -91 2034 -91 
Q 1263 -91 848 271 
Q 434 634 434 1313 
Q 434 1759 690 2068 
Q 947 2378 1403 2484 
z
M 1172 3481 
Q 1172 3119 1398 2916 
Q 1625 2713 2034 2713 
Q 2441 2713 2670 2916 
Q 2900 3119 2900 3481 
Q 2900 3844 2670 4047 
Q 2441 4250 2034 4250 
Q 1625 4250 1398 4047 
Q 1172 3844 1172 3481 
z
" transform="scale(0.015625)"/>
       </defs>
       <use xlink:href="#DejaVuSans-38"/>
       <use xlink:href="#DejaVuSans-30" transform="translate(63.623047 0)"/>
       <use xlink:href="#DejaVuSans-30" transform="translate(127.246094 0)"/>
      </g>
     </g>
    </g>
    <g id="xtick_6">
     <g id="line2d_6">
      <g>
       <use xlink:href="#m0d2f97c1ac" x="258.811523" y="188.6" style="stroke: #000000; stroke-width: 0.8"/>
      </g>
     </g>
     <g id="text_6">
      <!-- 1000 -->
      <g transform="translate(246.086523 203.198437) scale(0.1 -0.1)">
       <defs>
        <path id="DejaVuSans-31" d="M 794 531 
L 1825 531 
L 1825 4091 
L 703 3866 
L 703 4441 
L 1819 4666 
L 2450 4666 
L 2450 531 
L 3481 531 
L 3481 0 
L 794 0 
L 794 531 
z
" transform="scale(0.015625)"/>
       </defs>
       <use xlink:href="#DejaVuSans-31"/>
       <use xlink:href="#DejaVuSans-30" transform="translate(63.623047 0)"/>
       <use xlink:href="#DejaVuSans-30" transform="translate(127.246094 0)"/>
       <use xlink:href="#DejaVuSans-30" transform="translate(190.869141 0)"/>
      </g>
     </g>
    </g>
    <g id="text_7">
     <!-- q (nm) -->
     <g transform="translate(134.771094 216.876563) scale(0.1 -0.1)">
      <defs>
       <path id="DejaVuSans-71" d="M 947 1747 
Q 947 1113 1208 752 
Q 1469 391 1925 391 
Q 2381 391 2643 752 
Q 2906 1113 2906 1747 
Q 2906 2381 2643 2742 
Q 2381 3103 1925 3103 
Q 1469 3103 1208 2742 
Q 947 2381 947 1747 
z
M 2906 525 
Q 2725 213 2448 61 
Q 2172 -91 1784 -91 
Q 1150 -91 751 415 
Q 353 922 353 1747 
Q 353 2572 751 3078 
Q 1150 3584 1784 3584 
Q 2172 3584 2448 3432 
Q 2725 3281 2906 2969 
L 2906 3500 
L 3481 3500 
L 3481 -1331 
L 2906 -1331 
L 2906 525 
z
" transform="scale(0.015625)"/>
       <path id="DejaVuSans-20" transform="scale(0.015625)"/>
       <path id="DejaVuSans-28" d="M 1984 4856 
Q 1566 4138 1362 3434 
Q 1159 2731 1159 2009 
Q 1159 1288 1364 580 
Q 1569 -128 1984 -844 
L 1484 -844 
Q 1016 -109 783 600 
Q 550 1309 550 2009 
Q 550 2706 781 3412 
Q 1013 4119 1484 4856 
L 1984 4856 
z
" transform="scale(0.015625)"/>
       <path id="DejaVuSans-6e" d="M 3513 2113 
L 3513 0 
L 2938 0 
L 2938 2094 
Q 2938 2591 2744 2837 
Q 2550 3084 2163 3084 
Q 1697 3084 1428 2787 
Q 1159 2491 1159 1978 
L 1159 0 
L 581 0 
L 581 3500 
L 1159 3500 
L 1159 2956 
Q 1366 3272 1645 3428 
Q 1925 3584 2291 3584 
Q 2894 3584 3203 3211 
Q 3513 2838 3513 2113 
z
" transform="scale(0.015625)"/>
       <path id="DejaVuSans-6d" d="M 3328 2828 
Q 3544 3216 3844 3400 
Q 4144 3584 4550 3584 
Q 5097 3584 5394 3201 
Q 5691 2819 5691 2113 
L 5691 0 
L 5113 0 
L 5113 2094 
Q 5113 2597 4934 2840 
Q 4756 3084 4391 3084 
Q 3944 3084 3684 2787 
Q 3425 2491 3425 1978 
L 3425 0 
L 2847 0 
L 2847 2094 
Q 2847 2600 2669 2842 
Q 2491 3084 2119 3084 
Q 1678 3084 1418 2786 
Q 1159 2488 1159 1978 
L 1159 0 
L 581 0 
L 581 3500 
L 1159 3500 
L 1159 2956 
Q 1356 3278 1631 3431 
Q 1906 3584 2284 3584 
Q 2666 3584 2933 3390 
Q 3200 3197 3328 2828 
z
" transform="scale(0.015625)"/>
       <path id="DejaVuSans-29" d="M 513 4856 
L 1013 4856 
Q 1481 4119 1714 3412 
Q 1947 2706 1947 2009 
Q 1947 1309 1714 600 
Q 1481 -109 1013 -844 
L 513 -844 
Q 928 -128 1133 580 
Q 1338 1288 1338 2009 
Q 1338 2731 1133 3434 
Q 928 4138 513 4856 
z
" transform="scale(0.015625)"/>
      </defs>
      <use xlink:href="#DejaVuSans-71"/>
      <use xlink:href="#DejaVuSans-20" transform="translate(63.476562 0)"/>
      <use xlink:href="#DejaVuSans-28" transform="translate(95.263672 0)"/>
      <use xlink:href="#DejaVuSans-6e" transform="translate(134.277344 0)"/>
      <use xlink:href="#DejaVuSans-6d" transform="translate(197.65625 0)"/>
      <use xlink:href="#DejaVuSans-29" transform="translate(295.068359 0)"/>
     </g>
    </g>
   </g>
   <g id="matplotlib.axis_2">
    <g id="ytick_1">
     <g id="line2d_7">
      <defs>
       <path id="me3661b7cee" d="M 0 0 
L -3.5 0 
" style="stroke: #000000; stroke-width: 0.8"/>
      </defs>
      <g>
       <use xlink:href="#me3661b7cee" x="33.7" y="180.687273" style="stroke: #000000; stroke-width: 0.8"/>
      </g>
     </g>
     <g id="text_8">
      <!-- 0 -->
      <g transform="translate(20.3375 184.486491) scale(0.1 -0.1)">
       <use xlink:href="#DejaVuSans-30"/>
      </g>
     </g>
    </g>
    <g id="ytick_2">
     <g id="line2d_8">
      <g>
       <use xlink:href="#me3661b7cee" x="33.7" y="156.741772" style="stroke: #000000; stroke-width: 0.8"/>
      </g>
     </g>
     <g id="text_9">
      <!-- 10000 -->
      <g transform="translate(-5.1125 160.54099) scale(0.1 -0.1)">
       <use xlink:href="#DejaVuSans-31"/>
       <use xlink:href="#DejaVuSans-30" transform="translate(63.623047 0)"/>
       <use xlink:href="#DejaVuSans-30" transform="translate(127.246094 0)"/>
       <use xlink:href="#DejaVuSans-30" transform="translate(190.869141 0)"/>
       <use xlink:href="#DejaVuSans-30" transform="translate(254.492188 0)"/>
      </g>
     </g>
    </g>
    <g id="ytick_3">
     <g id="line2d_9">
      <g>
       <use xlink:href="#me3661b7cee" x="33.7" y="132.79627" style="stroke: #000000; stroke-width: 0.8"/>
      </g>
     </g>
     <g id="text_10">
      <!-- 20000 -->
      <g transform="translate(-5.1125 136.595489) scale(0.1 -0.1)">
       <use xlink:href="#DejaVuSans-32"/>
       <use xlink:href="#DejaVuSans-30" transform="translate(63.623047 0)"/>
       <use xlink:href="#DejaVuSans-30" transform="translate(127.246094 0)"/>
       <use xlink:href="#DejaVuSans-30" transform="translate(190.869141 0)"/>
       <use xlink:href="#DejaVuSans-30" transform="translate(254.492188 0)"/>
      </g>
     </g>
    </g>
    <g id="ytick_4">
     <g id="line2d_10">
      <g>
       <use xlink:href="#me3661b7cee" x="33.7" y="108.850769" style="stroke: #000000; stroke-width: 0.8"/>
      </g>
     </g>
     <g id="text_11">
      <!-- 30000 -->
      <g transform="translate(-5.1125 112.649988) scale(0.1 -0.1)">
       <defs>
        <path id="DejaVuSans-33" d="M 2597 2516 
Q 3050 2419 3304 2112 
Q 3559 1806 3559 1356 
Q 3559 666 3084 287 
Q 2609 -91 1734 -91 
Q 1441 -91 1130 -33 
Q 819 25 488 141 
L 488 750 
Q 750 597 1062 519 
Q 1375 441 1716 441 
Q 2309 441 2620 675 
Q 2931 909 2931 1356 
Q 2931 1769 2642 2001 
Q 2353 2234 1838 2234 
L 1294 2234 
L 1294 2753 
L 1863 2753 
Q 2328 2753 2575 2939 
Q 2822 3125 2822 3475 
Q 2822 3834 2567 4026 
Q 2313 4219 1838 4219 
Q 1578 4219 1281 4162 
Q 984 4106 628 3988 
L 628 4550 
Q 988 4650 1302 4700 
Q 1616 4750 1894 4750 
Q 2613 4750 3031 4423 
Q 3450 4097 3450 3541 
Q 3450 3153 3228 2886 
Q 3006 2619 2597 2516 
z
" transform="scale(0.015625)"/>
       </defs>
       <use xlink:href="#DejaVuSans-33"/>
       <use xlink:href="#DejaVuSans-30" transform="translate(63.623047 0)"/>
       <use xlink:href="#DejaVuSans-30" transform="translate(127.246094 0)"/>
       <use xlink:href="#DejaVuSans-30" transform="translate(190.869141 0)"/>
       <use xlink:href="#DejaVuSans-30" transform="translate(254.492188 0)"/>
      </g>
     </g>
    </g>
    <g id="ytick_5">
     <g id="line2d_11">
      <g>
       <use xlink:href="#me3661b7cee" x="33.7" y="84.905268" style="stroke: #000000; stroke-width: 0.8"/>
      </g>
     </g>
     <g id="text_12">
      <!-- 40000 -->
      <g transform="translate(-5.1125 88.704487) scale(0.1 -0.1)">
       <use xlink:href="#DejaVuSans-34"/>
       <use xlink:href="#DejaVuSans-30" transform="translate(63.623047 0)"/>
       <use xlink:href="#DejaVuSans-30" transform="translate(127.246094 0)"/>
       <use xlink:href="#DejaVuSans-30" transform="translate(190.869141 0)"/>
       <use xlink:href="#DejaVuSans-30" transform="translate(254.492188 0)"/>
      </g>
     </g>
    </g>
    <g id="ytick_6">
     <g id="line2d_12">
      <g>
       <use xlink:href="#me3661b7cee" x="33.7" y="60.959767" style="stroke: #000000; stroke-width: 0.8"/>
      </g>
     </g>
     <g id="text_13">
      <!-- 50000 -->
      <g transform="translate(-5.1125 64.758985) scale(0.1 -0.1)">
       <defs>
        <path id="DejaVuSans-35" d="M 691 4666 
L 3169 4666 
L 3169 4134 
L 1269 4134 
L 1269 2991 
Q 1406 3038 1543 3061 
Q 1681 3084 1819 3084 
Q 2600 3084 3056 2656 
Q 3513 2228 3513 1497 
Q 3513 744 3044 326 
Q 2575 -91 1722 -91 
Q 1428 -91 1123 -41 
Q 819 9 494 109 
L 494 744 
Q 775 591 1075 516 
Q 1375 441 1709 441 
Q 2250 441 2565 725 
Q 2881 1009 2881 1497 
Q 2881 1984 2565 2268 
Q 2250 2553 1709 2553 
Q 1456 2553 1204 2497 
Q 953 2441 691 2322 
L 691 4666 
z
" transform="scale(0.015625)"/>
       </defs>
       <use xlink:href="#DejaVuSans-35"/>
       <use xlink:href="#DejaVuSans-30" transform="translate(63.623047 0)"/>
       <use xlink:href="#DejaVuSans-30" transform="translate(127.246094 0)"/>
       <use xlink:href="#DejaVuSans-30" transform="translate(190.869141 0)"/>
       <use xlink:href="#DejaVuSans-30" transform="translate(254.492188 0)"/>
      </g>
     </g>
    </g>
    <g id="ytick_7">
     <g id="line2d_13">
      <g>
       <use xlink:href="#me3661b7cee" x="33.7" y="37.014265" style="stroke: #000000; stroke-width: 0.8"/>
      </g>
     </g>
     <g id="text_14">
      <!-- 60000 -->
      <g transform="translate(-5.1125 40.813484) scale(0.1 -0.1)">
       <use xlink:href="#DejaVuSans-36"/>
       <use xlink:href="#DejaVuSans-30" transform="translate(63.623047 0)"/>
       <use xlink:href="#DejaVuSans-30" transform="translate(127.246094 0)"/>
       <use xlink:href="#DejaVuSans-30" transform="translate(190.869141 0)"/>
       <use xlink:href="#DejaVuSans-30" transform="translate(254.492188 0)"/>
      </g>
     </g>
    </g>
    <g id="text_15">
     <!-- rdf -->
     <g transform="translate(-11.192187 108.462344) rotate(-90) scale(0.1 -0.1)">
      <defs>
       <path id="DejaVuSans-72" d="M 2631 2963 
Q 2534 3019 2420 3045 
Q 2306 3072 2169 3072 
Q 1681 3072 1420 2755 
Q 1159 2438 1159 1844 
L 1159 0 
L 581 0 
L 581 3500 
L 1159 3500 
L 1159 2956 
Q 1341 3275 1631 3429 
Q 1922 3584 2338 3584 
Q 2397 3584 2469 3576 
Q 2541 3569 2628 3553 
L 2631 2963 
z
" transform="scale(0.015625)"/>
       <path id="DejaVuSans-64" d="M 2906 2969 
L 2906 4863 
L 3481 4863 
L 3481 0 
L 2906 0 
L 2906 525 
Q 2725 213 2448 61 
Q 2172 -91 1784 -91 
Q 1150 -91 751 415 
Q 353 922 353 1747 
Q 353 2572 751 3078 
Q 1150 3584 1784 3584 
Q 2172 3584 2448 3432 
Q 2725 3281 2906 2969 
z
M 947 1747 
Q 947 1113 1208 752 
Q 1469 391 1925 391 
Q 2381 391 2643 752 
Q 2906 1113 2906 1747 
Q 2906 2381 2643 2742 
Q 2381 3103 1925 3103 
Q 1469 3103 1208 2742 
Q 947 2381 947 1747 
z
" transform="scale(0.015625)"/>
       <path id="DejaVuSans-66" d="M 2375 4863 
L 2375 4384 
L 1825 4384 
Q 1516 4384 1395 4259 
Q 1275 4134 1275 3809 
L 1275 3500 
L 2222 3500 
L 2222 3053 
L 1275 3053 
L 1275 0 
L 697 0 
L 697 3053 
L 147 3053 
L 147 3500 
L 697 3500 
L 697 3744 
Q 697 4328 969 4595 
Q 1241 4863 1831 4863 
L 2375 4863 
z
" transform="scale(0.015625)"/>
      </defs>
      <use xlink:href="#DejaVuSans-72"/>
      <use xlink:href="#DejaVuSans-64" transform="translate(39.363281 0)"/>
      <use xlink:href="#DejaVuSans-66" transform="translate(102.839844 0)"/>
     </g>
    </g>
   </g>
   <g id="line2d_14">
    <path d="M 44.406818 180.687273 
L 92.708254 180.687273 
L 93.244936 180.549648 
L 93.781619 180.687273 
L 94.318301 180.555472 
L 94.854984 180.687273 
L 95.391667 67.488667 
L 95.928349 22.432727 
L 96.465032 179.232776 
L 97.001715 180.568513 
L 97.538397 179.988967 
L 98.07508 178.861997 
L 98.611762 175.20697 
L 99.148445 167.965402 
L 99.685128 166.273906 
L 100.22181 169.080781 
L 100.758493 175.407617 
L 101.295175 178.553932 
L 102.905223 180.591175 
L 103.441906 180.215441 
L 103.978589 180.409229 
L 105.588636 180.511497 
L 106.125319 180.6009 
L 107.198684 179.185034 
L 107.735367 176.912738 
L 108.272049 174.070898 
L 108.808732 173.70414 
L 110.41878 180.234001 
L 111.492145 180.175176 
L 112.028828 179.679206 
L 112.56551 176.009218 
L 113.638876 161.792773 
L 114.175558 162.622532 
L 114.712241 171.625181 
L 115.248923 178.258918 
L 115.785606 178.94168 
L 116.322289 177.184106 
L 117.395654 162.815206 
L 117.932337 166.182381 
L 119.005702 178.082042 
L 119.542384 179.344763 
L 120.079067 180.169342 
L 120.61575 180.346814 
L 121.152432 180.183677 
L 121.689115 180.521723 
L 123.299163 180.369505 
L 123.835845 180.530522 
L 124.372528 180.326396 
L 124.909211 180.432918 
L 125.445893 180.235459 
L 125.982576 179.845002 
L 126.519258 177.606454 
L 127.055941 174.701683 
L 127.592624 172.681715 
L 128.129306 175.041865 
L 128.665989 173.580479 
L 129.202671 169.266804 
L 129.739354 168.322564 
L 130.276037 175.588126 
L 130.812719 178.787655 
L 131.349402 179.989112 
L 131.886085 180.256244 
L 132.422767 180.218887 
L 132.95945 180.56107 
L 133.496132 180.604145 
L 134.032815 180.44086 
L 134.569498 180.606107 
L 135.10618 180.566957 
L 135.642863 180.132364 
L 136.179545 177.279005 
L 136.716228 169.612602 
L 137.252911 166.754211 
L 137.789593 174.859911 
L 138.326276 177.20814 
L 138.862959 169.517083 
L 139.399641 157.171631 
L 139.936324 160.86981 
L 140.473006 173.856851 
L 141.009689 178.494567 
L 141.546372 179.74288 
L 142.083054 180.029961 
L 142.619737 179.694914 
L 143.156419 178.419366 
L 144.229785 171.544155 
L 144.766467 172.755756 
L 145.30315 175.531218 
L 146.376515 155.667769 
L 146.913198 176.06854 
L 147.44988 177.857685 
L 147.986563 174.286319 
L 148.523246 167.468397 
L 149.059928 165.402528 
L 150.133293 177.556045 
L 150.669976 179.926954 
L 151.743341 180.028035 
L 152.280024 177.679124 
L 152.816707 174.56166 
L 153.353389 173.508753 
L 154.426754 178.831911 
L 154.963437 179.984722 
L 155.50012 180.312616 
L 156.036802 179.282497 
L 156.573485 177.694464 
L 157.110167 175.044431 
L 157.64685 174.093052 
L 158.183533 177.370106 
L 158.720215 179.625588 
L 159.256898 180.236498 
L 160.330263 180.613525 
L 163.013676 180.288022 
L 163.550359 180.012308 
L 164.087041 178.449792 
L 165.160407 169.606793 
L 165.697089 170.423104 
L 166.233772 175.923012 
L 166.770455 177.39909 
L 167.307137 175.677562 
L 167.84382 175.026935 
L 168.380502 177.741756 
L 168.917185 178.747553 
L 169.453868 177.474997 
L 169.99055 173.814487 
L 170.527233 170.922562 
L 171.063915 172.467581 
L 171.600598 175.233109 
L 172.137281 172.361791 
L 172.673963 167.44942 
L 173.210646 166.124946 
L 173.747329 172.666152 
L 174.284011 177.493479 
L 174.820694 179.326948 
L 175.357376 178.701992 
L 175.894059 175.697501 
L 176.430742 175.567243 
L 176.967424 176.755945 
L 177.504107 177.142043 
L 178.040789 175.967266 
L 178.577472 176.298674 
L 179.650837 175.410057 
L 180.18752 176.473643 
L 180.724203 179.744421 
L 181.260885 180.457814 
L 183.407616 180.533276 
L 184.480981 180.232323 
L 185.017663 179.717408 
L 185.554346 177.135918 
L 186.091029 172.386417 
L 186.627711 172.579595 
L 187.164394 177.556112 
L 187.701077 179.447371 
L 188.237759 179.552485 
L 188.774442 177.24467 
L 189.311124 170.813633 
L 189.847807 169.072973 
L 190.38449 171.842523 
L 190.921172 173.47827 
L 191.457855 176.237341 
L 191.994537 177.256369 
L 192.53122 176.090508 
L 193.067903 174.133491 
L 193.604585 175.458075 
L 194.141268 178.091342 
L 194.677951 179.867174 
L 195.214633 178.389841 
L 195.751316 174.031361 
L 196.287998 177.303897 
L 196.824681 177.356109 
L 197.361364 176.559503 
L 197.898046 174.861628 
L 198.434729 172.462599 
L 198.971411 172.865583 
L 200.044777 178.980562 
L 200.581459 180.171985 
L 201.118142 180.296711 
L 201.654825 180.01847 
L 202.191507 178.774181 
L 202.72819 177.203647 
L 203.264872 176.217877 
L 203.801555 176.924844 
L 204.338238 177.363824 
L 204.87492 177.578663 
L 205.411603 178.301125 
L 205.948285 177.949331 
L 207.021651 174.507765 
L 207.558333 173.417429 
L 208.631699 175.928291 
L 209.168381 177.08028 
L 209.705064 175.093889 
L 210.241746 172.664051 
L 210.778429 174.854954 
L 211.315112 178.157928 
L 211.851794 178.634254 
L 212.925159 173.336496 
L 213.461842 174.031266 
L 213.998525 176.189744 
L 214.535207 177.441068 
L 215.07189 177.086598 
L 215.608573 177.176831 
L 216.681938 179.516775 
L 217.21862 179.568335 
L 217.755303 178.287048 
L 218.291986 176.102395 
L 218.828668 175.98913 
L 219.365351 177.023101 
L 219.902033 177.013209 
L 220.438716 176.854019 
L 220.975399 175.709857 
L 221.512081 177.005743 
L 222.048764 178.789459 
L 222.585447 179.718004 
L 223.122129 178.667102 
L 223.658812 177.113896 
L 224.195494 174.0437 
L 224.732177 172.465128 
L 225.26886 175.113507 
L 225.805542 178.836971 
L 226.342225 180.167435 
L 226.878907 180.47857 
L 227.41559 180.31183 
L 227.952273 179.744313 
L 228.488955 178.734188 
L 229.025638 178.784349 
L 229.562321 179.162151 
L 230.099003 179.343679 
L 231.172368 177.072663 
L 231.709051 177.753603 
L 232.245734 179.374183 
L 232.782416 179.129831 
L 233.319099 177.896065 
L 233.855781 176.962102 
L 234.929147 179.79378 
L 235.465829 180.33369 
L 236.002512 180.344682 
L 236.539195 179.853498 
L 237.075877 178.734767 
L 237.61256 176.351742 
L 238.149242 175.317628 
L 238.685925 173.961821 
L 239.222608 172.193653 
L 239.75929 172.240159 
L 240.295973 173.442083 
L 240.832656 173.009801 
L 241.369338 175.508596 
L 241.906021 178.58291 
L 242.442703 179.05846 
L 242.979386 178.370539 
L 243.516069 177.255894 
L 244.052751 175.613488 
L 244.589434 174.45124 
L 245.662799 178.055922 
L 246.199482 179.06156 
L 246.736164 179.345064 
L 247.272847 178.781112 
L 247.80953 177.799064 
L 248.346212 178.076873 
L 248.882895 178.502203 
L 249.419577 177.040894 
L 249.95626 175.242272 
L 250.492943 176.096704 
L 251.029625 178.547329 
L 251.566308 179.414564 
L 252.10299 178.1473 
L 252.639673 176.38922 
L 253.176356 175.401127 
L 253.713038 175.518839 
L 254.786404 173.372455 
L 255.859769 177.681367 
L 256.396451 177.696549 
L 256.933134 176.729491 
L 257.469817 176.676447 
L 258.006499 176.464375 
L 258.543182 176.102865 
L 258.543182 176.102865 
" clip-path="url(#pcaa9da57de)" style="fill: none; stroke: #000000; stroke-opacity: 0.5; stroke-width: 0.5; stroke-linecap: square"/>
   </g>
   <g id="line2d_15">
    <path d="M 44.406818 180.687273 
L 92.708254 180.687273 
L 93.244936 180.265796 
L 93.781619 180.687273 
L 94.318301 180.283634 
L 94.854984 180.687273 
L 95.391667 180.687273 
L 95.928349 180.30834 
L 97.001715 180.323572 
L 97.538397 178.54871 
L 98.07508 175.097366 
L 98.611762 163.903844 
L 99.148445 141.726537 
L 99.685128 136.546337 
L 100.22181 145.142388 
L 100.758493 164.518322 
L 101.295175 174.153916 
L 102.368541 178.58903 
L 102.905223 180.392974 
L 103.441906 179.242287 
L 103.978589 179.835765 
L 105.051954 179.865508 
L 106.125319 180.422756 
L 106.662002 178.607309 
L 107.198684 176.086666 
L 107.735367 169.379053 
L 108.272049 160.671726 
L 108.808732 159.787469 
L 109.345415 166.106022 
L 109.882097 174.338221 
L 110.41878 179.9932 
L 110.955463 179.548992 
L 111.492145 180.46323 
L 112.028828 180.025729 
L 112.56551 180.470204 
L 113.102193 180.473569 
L 113.638876 179.424776 
L 114.175558 179.85846 
L 114.712241 180.483209 
L 115.248923 179.88329 
L 115.785606 177.717341 
L 116.322289 170.544011 
L 117.395654 127.090394 
L 117.932337 137.199259 
L 119.005702 172.890083 
L 119.542384 177.648384 
L 120.079067 179.80607 
L 120.61575 179.99217 
L 121.152432 180.001823 
L 121.689115 180.518274 
L 122.76248 180.194026 
L 123.299163 180.200691 
L 123.835845 180.527256 
L 124.372528 180.529389 
L 124.909211 180.687273 
L 125.445893 180.072304 
L 125.982576 180.687273 
L 126.519258 180.537511 
L 127.055941 180.687273 
L 128.129306 180.399122 
L 128.665989 180.687273 
L 129.202671 180.687273 
L 129.739354 180.409859 
L 130.276037 180.687273 
L 131.349402 180.687273 
L 131.886085 180.291265 
L 132.422767 180.55687 
L 132.95945 180.687273 
L 133.496132 180.559984 
L 134.032815 180.309953 
L 134.569498 180.562988 
L 135.10618 180.687273 
L 135.642863 179.594795 
L 136.179545 170.729351 
L 136.716228 147.008267 
L 137.252911 138.720616 
L 137.789593 164.695138 
L 138.326276 173.69861 
L 138.862959 160.184702 
L 139.399641 136.558871 
L 139.936324 150.120282 
L 140.473006 174.225639 
L 141.009689 179.604182 
L 141.546372 180.580154 
L 142.619737 180.47768 
L 143.156419 180.168954 
L 144.229785 180.484368 
L 144.766467 180.085035 
L 145.30315 180.38934 
L 145.839833 176.560129 
L 146.376515 149.766117 
L 146.913198 172.123371 
L 147.44988 180.401593 
L 148.523246 180.687273 
L 149.059928 180.50262 
L 149.596611 180.504495 
L 150.133293 180.687273 
L 151.743341 180.687273 
L 152.280024 180.513453 
L 152.816707 180.687273 
L 154.963437 180.60452 
L 155.50012 180.52336 
L 157.110167 180.687273 
L 157.64685 180.687273 
L 158.183533 180.530983 
L 158.720215 180.687273 
L 160.866946 180.687273 
L 161.940311 180.467552 
L 162.476994 180.542117 
L 163.013676 180.471501 
L 163.550359 180.615994 
L 164.623724 180.407215 
L 165.160407 180.479089 
L 165.697089 180.137005 
L 166.233772 178.710049 
L 166.770455 174.334348 
L 167.307137 166.483974 
L 167.84382 163.817406 
L 168.380502 171.995847 
L 168.917185 176.77053 
L 169.453868 176.739289 
L 169.99055 173.30767 
L 170.527233 164.271647 
L 171.063915 165.861183 
L 171.600598 168.863533 
L 172.673963 151.588852 
L 173.210646 152.318373 
L 174.284011 174.806674 
L 174.820694 178.901847 
L 175.357376 180.037961 
L 175.894059 179.457753 
L 176.430742 179.235412 
L 176.967424 177.86457 
L 177.504107 173.944338 
L 178.040789 173.714851 
L 178.577472 175.569918 
L 179.114155 179.01362 
L 179.650837 180.133797 
L 180.18752 180.412714 
L 180.724203 180.414869 
L 181.260885 180.633217 
L 181.797568 180.580004 
L 182.33425 180.36796 
L 182.870933 180.423233 
L 183.407616 180.320462 
L 183.944298 180.427273 
L 184.480981 179.810019 
L 185.017663 178.587642 
L 186.091029 168.43054 
L 186.627711 170.17467 
L 187.164394 176.165949 
L 187.701077 179.010587 
L 188.237759 180.246743 
L 188.774442 180.152836 
L 189.311124 180.542593 
L 190.921172 180.309878 
L 191.457855 179.610152 
L 191.994537 176.921438 
L 193.067903 170.056081 
L 193.604585 171.770152 
L 194.677951 179.521195 
L 195.214633 179.440407 
L 195.751316 179.493431 
L 196.287998 177.17487 
L 196.824681 171.749895 
L 197.361364 169.907537 
L 197.898046 169.724705 
L 198.434729 170.313206 
L 199.508094 175.719023 
L 200.044777 179.265582 
L 200.581459 180.230463 
L 201.118142 180.151093 
L 201.654825 179.130635 
L 202.191507 175.398039 
L 202.72819 170.544015 
L 203.264872 167.963093 
L 204.338238 177.835831 
L 204.87492 179.310396 
L 205.411603 177.834582 
L 205.948285 175.757235 
L 206.484968 171.933528 
L 207.021651 174.672728 
L 207.558333 178.289622 
L 208.095016 179.855469 
L 208.631699 179.898453 
L 209.168381 178.672048 
L 209.705064 175.348132 
L 210.241746 172.730208 
L 211.315112 178.323434 
L 211.851794 179.820049 
L 212.388477 180.57956 
L 213.461842 180.545471 
L 213.998525 180.511139 
L 214.535207 180.617262 
L 216.145255 180.584214 
L 217.21862 180.653345 
L 218.291986 180.218116 
L 218.828668 178.389179 
L 219.365351 175.026856 
L 219.902033 172.396457 
L 220.438716 173.754849 
L 220.975399 172.854342 
L 221.512081 175.130694 
L 222.048764 178.503738 
L 222.585447 179.953156 
L 223.122129 179.957551 
L 223.658812 179.015792 
L 224.195494 175.702673 
L 224.732177 170.652541 
L 225.26886 172.384788 
L 225.805542 177.39205 
L 226.342225 179.952502 
L 226.878907 180.565529 
L 227.41559 180.445211 
L 227.952273 180.145807 
L 228.488955 180.44802 
L 229.025638 180.538607 
L 229.562321 179.859556 
L 230.099003 177.68938 
L 231.172368 169.966181 
L 231.709051 172.165125 
L 232.245734 177.728717 
L 232.782416 179.916129 
L 233.319099 180.346486 
L 233.855781 180.489604 
L 234.929147 180.296369 
L 235.465829 180.326323 
L 236.002512 180.2179 
L 236.539195 178.957527 
L 237.075877 176.291348 
L 237.61256 172.107089 
L 238.685925 177.250014 
L 239.222608 176.173946 
L 239.75929 174.047312 
L 240.295973 170.570419 
L 240.832656 169.101903 
L 241.369338 173.214662 
L 241.906021 178.478434 
L 242.442703 179.446674 
L 242.979386 179.170588 
L 243.516069 175.982693 
L 244.052751 172.116956 
L 244.589434 172.036324 
L 245.126116 176.586133 
L 245.662799 178.960449 
L 246.199482 180.214292 
L 246.736164 180.117743 
L 247.272847 180.44096 
L 247.80953 180.466757 
L 248.346212 179.687979 
L 248.882895 178.699136 
L 249.95626 172.169664 
L 250.492943 174.290482 
L 251.029625 177.719167 
L 251.566308 179.978605 
L 252.10299 180.428767 
L 253.176356 180.082518 
L 253.713038 178.419471 
L 254.249721 175.138797 
L 254.786404 172.968101 
L 255.323086 174.693704 
L 255.859769 177.671649 
L 256.396451 178.634373 
L 256.933134 176.5797 
L 257.469817 172.580391 
L 258.006499 170.887808 
L 258.543182 170.140877 
L 258.543182 170.140877 
" clip-path="url(#pcaa9da57de)" style="fill: none; stroke: #0000ff; stroke-opacity: 0.5; stroke-linecap: square"/>
   </g>
   <g id="line2d_16">
    <path d="M 44.406818 180.687273 
L 106.125319 180.687273 
L 106.662002 180.225059 
L 107.198684 180.687273 
L 107.735367 180.240528 
L 108.272049 180.247974 
L 108.808732 179.823198 
L 109.345415 180.687273 
L 109.882097 180.269228 
L 110.41878 179.453366 
L 110.955463 180.282551 
L 112.028828 176.374985 
L 112.56551 155.603764 
L 113.638876 80.061654 
L 114.175558 83.808237 
L 114.712241 131.711993 
L 115.248923 168.895533 
L 115.785606 176.463371 
L 116.322289 179.646938 
L 116.858971 180.687273 
L 117.395654 178.667132 
L 117.932337 179.028216 
L 118.469019 179.052092 
L 119.005702 180.364908 
L 119.542384 179.098312 
L 120.079067 179.747324 
L 120.61575 180.069403 
L 121.152432 179.77334 
L 122.225797 180.390947 
L 122.76248 179.81039 
L 123.299163 179.822238 
L 123.835845 180.402798 
L 124.372528 179.845228 
L 124.909211 180.133344 
L 125.445893 179.593995 
L 125.982576 176.910816 
L 126.519258 164.446412 
L 127.055941 148.361868 
L 127.592624 138.917535 
L 128.129306 161.733342 
L 128.665989 175.376531 
L 129.202671 178.939294 
L 129.739354 180.687273 
L 130.276037 179.956693 
L 130.812719 180.206232 
L 131.349402 180.687273 
L 137.252911 180.687273 
L 137.789593 180.481255 
L 138.326276 180.687273 
L 138.862959 180.284521 
L 139.936324 180.687273 
L 141.546372 180.687273 
L 142.083054 180.49892 
L 142.619737 180.687273 
L 143.156419 180.502982 
L 143.693102 180.504963 
L 144.229785 180.146195 
L 144.766467 179.616627 
L 145.30315 176.979669 
L 145.839833 112.906038 
L 146.376515 104.972589 
L 146.913198 174.357898 
L 147.44988 180.010106 
L 147.986563 180.687273 
L 160.330263 180.687273 
L 160.866946 180.554662 
L 161.403628 180.687273 
L 162.476994 180.429218 
L 163.013676 180.559408 
L 163.550359 180.560555 
L 164.087041 180.436101 
L 164.623724 180.189393 
L 165.160407 180.317168 
L 165.697089 180.198146 
L 166.233772 180.566064 
L 167.307137 180.568168 
L 167.84382 180.096901 
L 168.380502 180.219048 
L 168.917185 177.669931 
L 169.453868 171.022266 
L 169.99055 156.730304 
L 170.527233 156.933401 
L 171.063915 162.51743 
L 171.600598 172.679661 
L 172.137281 171.533519 
L 172.673963 160.56377 
L 173.210646 152.054007 
L 173.747329 165.736026 
L 174.284011 175.140042 
L 174.820694 178.782819 
L 175.357376 180.267516 
L 175.894059 180.166841 
L 176.430742 179.861326 
L 176.967424 179.253519 
L 177.504107 176.725323 
L 178.040789 169.299614 
L 178.577472 169.490327 
L 179.114155 172.852102 
L 179.650837 177.735405 
L 180.18752 179.515824 
L 180.724203 180.590418 
L 181.260885 180.591175 
L 181.797568 180.11517 
L 182.33425 180.49805 
L 182.870933 180.405631 
L 183.407616 180.594114 
L 184.480981 180.136839 
L 185.017663 180.323109 
L 186.091029 180.418264 
L 186.627711 180.153299 
L 187.164394 180.245629 
L 188.237759 179.817091 
L 188.774442 178.873428 
L 189.311124 176.400472 
L 189.847807 165.453382 
L 190.38449 147.063433 
L 190.921172 144.792873 
L 191.457855 159.457072 
L 191.994537 169.198639 
L 192.53122 168.871325 
L 193.067903 164.312794 
L 193.604585 168.716899 
L 194.141268 175.628158 
L 194.677951 179.331832 
L 195.214633 179.73728 
L 195.751316 180.372845 
L 197.898046 180.610845 
L 199.508094 180.687273 
L 200.044777 180.464262 
L 200.581459 180.687273 
L 201.118142 180.320654 
L 201.654825 180.687273 
L 202.191507 180.54261 
L 203.264872 180.615914 
L 204.87492 180.687273 
L 205.411603 180.478857 
L 205.948285 180.549249 
L 207.021651 179.461378 
L 207.558333 176.357124 
L 208.095016 170.13429 
L 208.631699 166.463478 
L 209.168381 170.934581 
L 209.705064 177.391508 
L 210.241746 179.77041 
L 210.778429 180.361927 
L 211.315112 180.687273 
L 211.851794 180.687273 
L 212.388477 180.431955 
L 212.925159 179.989602 
L 213.461842 178.607512 
L 214.535207 170.294591 
L 215.07189 168.566389 
L 215.608573 174.849079 
L 216.145255 178.610829 
L 216.681938 180.201733 
L 217.755303 180.567384 
L 218.291986 180.627697 
L 218.828668 180.450432 
L 219.902033 180.570295 
L 220.438716 180.396605 
L 222.048764 180.630187 
L 222.585447 180.403556 
L 223.122129 179.164375 
L 223.658812 175.417028 
L 224.195494 163.075721 
L 224.732177 158.415571 
L 225.26886 166.312823 
L 225.805542 177.073821 
L 226.342225 179.598723 
L 226.878907 180.254408 
L 227.41559 180.525898 
L 227.952273 180.419882 
L 229.562321 180.634719 
L 230.099003 180.53052 
L 232.245734 180.687273 
L 234.392464 180.38776 
L 234.929147 180.637634 
L 237.075877 180.15333 
L 237.61256 179.914936 
L 238.149242 176.894918 
L 238.685925 169.707143 
L 239.222608 153.909984 
L 239.75929 154.528779 
L 240.295973 171.29536 
L 240.832656 178.071881 
L 241.369338 180.083426 
L 241.906021 180.317689 
L 242.442703 180.181844 
L 242.979386 179.818964 
L 243.516069 179.187262 
L 244.052751 173.58914 
L 244.589434 166.47701 
L 245.126116 170.712585 
L 245.662799 177.884312 
L 246.199482 179.448118 
L 246.736164 180.3351 
L 248.882895 180.471757 
L 250.492943 180.008343 
L 251.029625 180.138503 
L 251.566308 179.259439 
L 252.10299 174.587585 
L 252.639673 164.602019 
L 253.176356 157.7376 
L 254.249721 168.367561 
L 254.786404 167.656559 
L 255.859769 177.543164 
L 256.396451 179.484108 
L 256.933134 180.248334 
L 257.469817 180.52846 
L 258.543182 180.530047 
L 258.543182 180.530047 
" clip-path="url(#pcaa9da57de)" style="fill: none; stroke: #ff0000; stroke-opacity: 0.5; stroke-linecap: square"/>
   </g>
   <g id="patch_3">
    <path d="M 33.7 188.6 
L 33.7 14.52 
" style="fill: none; stroke: #000000; stroke-width: 0.8; stroke-linejoin: miter; stroke-linecap: square"/>
   </g>
   <g id="patch_4">
    <path d="M 269.25 188.6 
L 269.25 14.52 
" style="fill: none; stroke: #000000; stroke-width: 0.8; stroke-linejoin: miter; stroke-linecap: square"/>
   </g>
   <g id="patch_5">
    <path d="M 33.7 188.6 
L 269.25 188.6 
" style="fill: none; stroke: #000000; stroke-width: 0.8; stroke-linejoin: miter; stroke-linecap: square"/>
   </g>
   <g id="patch_6">
    <path d="M 33.7 14.52 
L 269.25 14.52 
" style="fill: none; stroke: #000000; stroke-width: 0.8; stroke-linejoin: miter; stroke-linecap: square"/>
   </g>
   <g id="legend_1">
    <g id="patch_7">
     <path d="M 213.917188 66.554375 
L 262.25 66.554375 
Q 264.25 66.554375 264.25 64.554375 
L 264.25 21.52 
Q 264.25 19.52 262.25 19.52 
L 213.917188 19.52 
Q 211.917188 19.52 211.917188 21.52 
L 211.917188 64.554375 
Q 211.917188 66.554375 213.917188 66.554375 
z
" style="fill: #ffffff; opacity: 0.8; stroke: #cccccc; stroke-linejoin: miter"/>
    </g>
    <g id="line2d_17">
     <path d="M 215.917188 27.618438 
L 225.917188 27.618438 
L 235.917188 27.618438 
" style="fill: none; stroke: #000000; stroke-opacity: 0.5; stroke-width: 0.5; stroke-linecap: square"/>
    </g>
    <g id="text_16">
     <!-- all -->
     <g transform="translate(243.917188 31.118438) scale(0.1 -0.1)">
      <defs>
       <path id="DejaVuSans-61" d="M 2194 1759 
Q 1497 1759 1228 1600 
Q 959 1441 959 1056 
Q 959 750 1161 570 
Q 1363 391 1709 391 
Q 2188 391 2477 730 
Q 2766 1069 2766 1631 
L 2766 1759 
L 2194 1759 
z
M 3341 1997 
L 3341 0 
L 2766 0 
L 2766 531 
Q 2569 213 2275 61 
Q 1981 -91 1556 -91 
Q 1019 -91 701 211 
Q 384 513 384 1019 
Q 384 1609 779 1909 
Q 1175 2209 1959 2209 
L 2766 2209 
L 2766 2266 
Q 2766 2663 2505 2880 
Q 2244 3097 1772 3097 
Q 1472 3097 1187 3025 
Q 903 2953 641 2809 
L 641 3341 
Q 956 3463 1253 3523 
Q 1550 3584 1831 3584 
Q 2591 3584 2966 3190 
Q 3341 2797 3341 1997 
z
" transform="scale(0.015625)"/>
       <path id="DejaVuSans-6c" d="M 603 4863 
L 1178 4863 
L 1178 0 
L 603 0 
L 603 4863 
z
" transform="scale(0.015625)"/>
      </defs>
      <use xlink:href="#DejaVuSans-61"/>
      <use xlink:href="#DejaVuSans-6c" transform="translate(61.279297 0)"/>
      <use xlink:href="#DejaVuSans-6c" transform="translate(89.0625 0)"/>
     </g>
    </g>
    <g id="line2d_18">
     <path d="M 215.917188 42.296563 
L 225.917188 42.296563 
L 235.917188 42.296563 
" style="fill: none; stroke: #0000ff; stroke-opacity: 0.5; stroke-linecap: square"/>
    </g>
    <g id="text_17">
     <!-- 1-1 -->
     <g transform="translate(243.917188 45.796563) scale(0.1 -0.1)">
      <defs>
       <path id="DejaVuSans-2d" d="M 313 2009 
L 1997 2009 
L 1997 1497 
L 313 1497 
L 313 2009 
z
" transform="scale(0.015625)"/>
      </defs>
      <use xlink:href="#DejaVuSans-31"/>
      <use xlink:href="#DejaVuSans-2d" transform="translate(63.623047 0)"/>
      <use xlink:href="#DejaVuSans-31" transform="translate(99.707031 0)"/>
     </g>
    </g>
    <g id="line2d_19">
     <path d="M 215.917188 56.974688 
L 225.917188 56.974688 
L 235.917188 56.974688 
" style="fill: none; stroke: #ff0000; stroke-opacity: 0.5; stroke-linecap: square"/>
    </g>
    <g id="text_18">
     <!-- 2-2 -->
     <g transform="translate(243.917188 60.474688) scale(0.1 -0.1)">
      <use xlink:href="#DejaVuSans-32"/>
      <use xlink:href="#DejaVuSans-2d" transform="translate(63.623047 0)"/>
      <use xlink:href="#DejaVuSans-32" transform="translate(99.707031 0)"/>
     </g>
    </g>
   </g>
  </g>
 </g>
 <defs>
  <clipPath id="pcaa9da57de">
   <rect x="33.7" y="14.52" width="235.55" height="174.08"/>
  </clipPath>
 </defs>
</svg>
