<?xml version="1.0" encoding="utf-8" standalone="no"?>
<!DOCTYPE svg PUBLIC "-//W3C//DTD SVG 1.1//EN"
  "http://www.w3.org/Graphics/SVG/1.1/DTD/svg11.dtd">
<svg xmlns:xlink="http://www.w3.org/1999/xlink" width="288pt" height="216pt" viewBox="0 0 288 216" xmlns="http://www.w3.org/2000/svg" version="1.1">
 <metadata>
  <rdf:RDF xmlns:dc="http://purl.org/dc/elements/1.1/" xmlns:cc="http://creativecommons.org/ns#" xmlns:rdf="http://www.w3.org/1999/02/22-rdf-syntax-ns#">
   <cc:Work>
    <dc:type rdf:resource="http://purl.org/dc/dcmitype/StillImage"/>
    <dc:date>2025-09-17T22:50:03.333685</dc:date>
    <dc:format>image/svg+xml</dc:format>
    <dc:creator>
     <cc:Agent>
      <dc:title>Matplotlib v3.10.0, https://matplotlib.org/</dc:title>
     </cc:Agent>
    </dc:creator>
   </cc:Work>
  </rdf:RDF>
 </metadata>
 <defs>
  <style type="text/css">*{stroke-linejoin: round; stroke-linecap: butt}</style>
 </defs>
 <g id="figure_1">
  <g id="patch_1">
   <path d="M 0 216 
L 288 216 
L 288 0 
L 0 0 
z
" style="fill: #ffffff"/>
  </g>
  <g id="axes_1">
   <g id="patch_2">
    <path d="M 33.7 188.6 
L 269.25 188.6 
L 269.25 14.52 
L 33.7 14.52 
z
" style="fill: #ffffff"/>
   </g>
   <g id="matplotlib.axis_1">
    <g id="xtick_1">
     <g id="line2d_1">
      <defs>
       <path id="m3fd6b967d3" d="M 0 0 
L 0 3.5 
" style="stroke: #000000; stroke-width: 0.8"/>
      </defs>
      <g>
       <use xlink:href="#m3fd6b967d3" x="44.138477" y="188.6" style="stroke: #000000; stroke-width: 0.8"/>
      </g>
     </g>
     <g id="text_1">
      <!-- 0 -->
      <g transform="translate(40.957227 203.198437) scale(0.1 -0.1)">
       <defs>
        <path id="DejaVuSans-30" d="M 2034 4250 
Q 1547 4250 1301 3770 
Q 1056 3291 1056 2328 
Q 1056 1369 1301 889 
Q 1547 409 2034 409 
Q 2525 409 2770 889 
Q 3016 1369 3016 2328 
Q 3016 3291 2770 3770 
Q 2525 4250 2034 4250 
z
M 2034 4750 
Q 2819 4750 3233 4129 
Q 3647 3509 3647 2328 
Q 3647 1150 3233 529 
Q 2819 -91 2034 -91 
Q 1250 -91 836 529 
Q 422 1150 422 2328 
Q 422 3509 836 4129 
Q 1250 4750 2034 4750 
z
" transform="scale(0.015625)"/>
       </defs>
       <use xlink:href="#DejaVuSans-30"/>
      </g>
     </g>
    </g>
    <g id="xtick_2">
     <g id="line2d_2">
      <g>
       <use xlink:href="#m3fd6b967d3" x="87.073086" y="188.6" style="stroke: #000000; stroke-width: 0.8"/>
      </g>
     </g>
     <g id="text_2">
      <!-- 200 -->
      <g transform="translate(77.529336 203.198437) scale(0.1 -0.1)">
       <defs>
        <path id="DejaVuSans-32" d="M 1228 531 
L 3431 531 
L 3431 0 
L 469 0 
L 469 531 
Q 828 903 1448 1529 
Q 2069 2156 2228 2338 
Q 2531 2678 2651 2914 
Q 2772 3150 2772 3378 
Q 2772 3750 2511 3984 
Q 2250 4219 1831 4219 
Q 1534 4219 1204 4116 
Q 875 4013 500 3803 
L 500 4441 
Q 881 4594 1212 4672 
Q 1544 4750 1819 4750 
Q 2544 4750 2975 4387 
Q 3406 4025 3406 3419 
Q 3406 3131 3298 2873 
Q 3191 2616 2906 2266 
Q 2828 2175 2409 1742 
Q 1991 1309 1228 531 
z
" transform="scale(0.015625)"/>
       </defs>
       <use xlink:href="#DejaVuSans-32"/>
       <use xlink:href="#DejaVuSans-30" transform="translate(63.623047 0)"/>
       <use xlink:href="#DejaVuSans-30" transform="translate(127.246094 0)"/>
      </g>
     </g>
    </g>
    <g id="xtick_3">
     <g id="line2d_3">
      <g>
       <use xlink:href="#m3fd6b967d3" x="130.007695" y="188.6" style="stroke: #000000; stroke-width: 0.8"/>
      </g>
     </g>
     <g id="text_3">
      <!-- 400 -->
      <g transform="translate(120.463945 203.198437) scale(0.1 -0.1)">
       <defs>
        <path id="DejaVuSans-34" d="M 2419 4116 
L 825 1625 
L 2419 1625 
L 2419 4116 
z
M 2253 4666 
L 3047 4666 
L 3047 1625 
L 3713 1625 
L 3713 1100 
L 3047 1100 
L 3047 0 
L 2419 0 
L 2419 1100 
L 313 1100 
L 313 1709 
L 2253 4666 
z
" transform="scale(0.015625)"/>
       </defs>
       <use xlink:href="#DejaVuSans-34"/>
       <use xlink:href="#DejaVuSans-30" transform="translate(63.623047 0)"/>
       <use xlink:href="#DejaVuSans-30" transform="translate(127.246094 0)"/>
      </g>
     </g>
    </g>
    <g id="xtick_4">
     <g id="line2d_4">
      <g>
       <use xlink:href="#m3fd6b967d3" x="172.942305" y="188.6" style="stroke: #000000; stroke-width: 0.8"/>
      </g>
     </g>
     <g id="text_4">
      <!-- 600 -->
      <g transform="translate(163.398555 203.198437) scale(0.1 -0.1)">
       <defs>
        <path id="DejaVuSans-36" d="M 2113 2584 
Q 1688 2584 1439 2293 
Q 1191 2003 1191 1497 
Q 1191 994 1439 701 
Q 1688 409 2113 409 
Q 2538 409 2786 701 
Q 3034 994 3034 1497 
Q 3034 2003 2786 2293 
Q 2538 2584 2113 2584 
z
M 3366 4563 
L 3366 3988 
Q 3128 4100 2886 4159 
Q 2644 4219 2406 4219 
Q 1781 4219 1451 3797 
Q 1122 3375 1075 2522 
Q 1259 2794 1537 2939 
Q 1816 3084 2150 3084 
Q 2853 3084 3261 2657 
Q 3669 2231 3669 1497 
Q 3669 778 3244 343 
Q 2819 -91 2113 -91 
Q 1303 -91 875 529 
Q 447 1150 447 2328 
Q 447 3434 972 4092 
Q 1497 4750 2381 4750 
Q 2619 4750 2861 4703 
Q 3103 4656 3366 4563 
z
" transform="scale(0.015625)"/>
       </defs>
       <use xlink:href="#DejaVuSans-36"/>
       <use xlink:href="#DejaVuSans-30" transform="translate(63.623047 0)"/>
       <use xlink:href="#DejaVuSans-30" transform="translate(127.246094 0)"/>
      </g>
     </g>
    </g>
    <g id="xtick_5">
     <g id="line2d_5">
      <g>
       <use xlink:href="#m3fd6b967d3" x="215.876914" y="188.6" style="stroke: #000000; stroke-width: 0.8"/>
      </g>
     </g>
     <g id="text_5">
      <!-- 800 -->
      <g transform="translate(206.333164 203.198437) scale(0.1 -0.1)">
       <defs>
        <path id="DejaVuSans-38" d="M 2034 2216 
Q 1584 2216 1326 1975 
Q 1069 1734 1069 1313 
Q 1069 891 1326 650 
Q 1584 409 2034 409 
Q 2484 409 2743 651 
Q 3003 894 3003 1313 
Q 3003 1734 2745 1975 
Q 2488 2216 2034 2216 
z
M 1403 2484 
Q 997 2584 770 2862 
Q 544 3141 544 3541 
Q 544 4100 942 4425 
Q 1341 4750 2034 4750 
Q 2731 4750 3128 4425 
Q 3525 4100 3525 3541 
Q 3525 3141 3298 2862 
Q 3072 2584 2669 2484 
Q 3125 2378 3379 2068 
Q 3634 1759 3634 1313 
Q 3634 634 3220 271 
Q 2806 -91 2034 -91 
Q 1263 -91 848 271 
Q 434 634 434 1313 
Q 434 1759 690 2068 
Q 947 2378 1403 2484 
z
M 1172 3481 
Q 1172 3119 1398 2916 
Q 1625 2713 2034 2713 
Q 2441 2713 2670 2916 
Q 2900 3119 2900 3481 
Q 2900 3844 2670 4047 
Q 2441 4250 2034 4250 
Q 1625 4250 1398 4047 
Q 1172 3844 1172 3481 
z
" transform="scale(0.015625)"/>
       </defs>
       <use xlink:href="#DejaVuSans-38"/>
       <use xlink:href="#DejaVuSans-30" transform="translate(63.623047 0)"/>
       <use xlink:href="#DejaVuSans-30" transform="translate(127.246094 0)"/>
      </g>
     </g>
    </g>
    <g id="xtick_6">
     <g id="line2d_6">
      <g>
       <use xlink:href="#m3fd6b967d3" x="258.811523" y="188.6" style="stroke: #000000; stroke-width: 0.8"/>
      </g>
     </g>
     <g id="text_6">
      <!-- 1000 -->
      <g transform="translate(246.086523 203.198437) scale(0.1 -0.1)">
       <defs>
        <path id="DejaVuSans-31" d="M 794 531 
L 1825 531 
L 1825 4091 
L 703 3866 
L 703 4441 
L 1819 4666 
L 2450 4666 
L 2450 531 
L 3481 531 
L 3481 0 
L 794 0 
L 794 531 
z
" transform="scale(0.015625)"/>
       </defs>
       <use xlink:href="#DejaVuSans-31"/>
       <use xlink:href="#DejaVuSans-30" transform="translate(63.623047 0)"/>
       <use xlink:href="#DejaVuSans-30" transform="translate(127.246094 0)"/>
       <use xlink:href="#DejaVuSans-30" transform="translate(190.869141 0)"/>
      </g>
     </g>
    </g>
    <g id="text_7">
     <!-- q (nm) -->
     <g transform="translate(134.771094 216.876563) scale(0.1 -0.1)">
      <defs>
       <path id="DejaVuSans-71" d="M 947 1747 
Q 947 1113 1208 752 
Q 1469 391 1925 391 
Q 2381 391 2643 752 
Q 2906 1113 2906 1747 
Q 2906 2381 2643 2742 
Q 2381 3103 1925 3103 
Q 1469 3103 1208 2742 
Q 947 2381 947 1747 
z
M 2906 525 
Q 2725 213 2448 61 
Q 2172 -91 1784 -91 
Q 1150 -91 751 415 
Q 353 922 353 1747 
Q 353 2572 751 3078 
Q 1150 3584 1784 3584 
Q 2172 3584 2448 3432 
Q 2725 3281 2906 2969 
L 2906 3500 
L 3481 3500 
L 3481 -1331 
L 2906 -1331 
L 2906 525 
z
" transform="scale(0.015625)"/>
       <path id="DejaVuSans-20" transform="scale(0.015625)"/>
       <path id="DejaVuSans-28" d="M 1984 4856 
Q 1566 4138 1362 3434 
Q 1159 2731 1159 2009 
Q 1159 1288 1364 580 
Q 1569 -128 1984 -844 
L 1484 -844 
Q 1016 -109 783 600 
Q 550 1309 550 2009 
Q 550 2706 781 3412 
Q 1013 4119 1484 4856 
L 1984 4856 
z
" transform="scale(0.015625)"/>
       <path id="DejaVuSans-6e" d="M 3513 2113 
L 3513 0 
L 2938 0 
L 2938 2094 
Q 2938 2591 2744 2837 
Q 2550 3084 2163 3084 
Q 1697 3084 1428 2787 
Q 1159 2491 1159 1978 
L 1159 0 
L 581 0 
L 581 3500 
L 1159 3500 
L 1159 2956 
Q 1366 3272 1645 3428 
Q 1925 3584 2291 3584 
Q 2894 3584 3203 3211 
Q 3513 2838 3513 2113 
z
" transform="scale(0.015625)"/>
       <path id="DejaVuSans-6d" d="M 3328 2828 
Q 3544 3216 3844 3400 
Q 4144 3584 4550 3584 
Q 5097 3584 5394 3201 
Q 5691 2819 5691 2113 
L 5691 0 
L 5113 0 
L 5113 2094 
Q 5113 2597 4934 2840 
Q 4756 3084 4391 3084 
Q 3944 3084 3684 2787 
Q 3425 2491 3425 1978 
L 3425 0 
L 2847 0 
L 2847 2094 
Q 2847 2600 2669 2842 
Q 2491 3084 2119 3084 
Q 1678 3084 1418 2786 
Q 1159 2488 1159 1978 
L 1159 0 
L 581 0 
L 581 3500 
L 1159 3500 
L 1159 2956 
Q 1356 3278 1631 3431 
Q 1906 3584 2284 3584 
Q 2666 3584 2933 3390 
Q 3200 3197 3328 2828 
z
" transform="scale(0.015625)"/>
       <path id="DejaVuSans-29" d="M 513 4856 
L 1013 4856 
Q 1481 4119 1714 3412 
Q 1947 2706 1947 2009 
Q 1947 1309 1714 600 
Q 1481 -109 1013 -844 
L 513 -844 
Q 928 -128 1133 580 
Q 1338 1288 1338 2009 
Q 1338 2731 1133 3434 
Q 928 4138 513 4856 
z
" transform="scale(0.015625)"/>
      </defs>
      <use xlink:href="#DejaVuSans-71"/>
      <use xlink:href="#DejaVuSans-20" transform="translate(63.476562 0)"/>
      <use xlink:href="#DejaVuSans-28" transform="translate(95.263672 0)"/>
      <use xlink:href="#DejaVuSans-6e" transform="translate(134.277344 0)"/>
      <use xlink:href="#DejaVuSans-6d" transform="translate(197.65625 0)"/>
      <use xlink:href="#DejaVuSans-29" transform="translate(295.068359 0)"/>
     </g>
    </g>
   </g>
   <g id="matplotlib.axis_2">
    <g id="ytick_1">
     <g id="line2d_7">
      <defs>
       <path id="m4a29217606" d="M 0 0 
L -3.5 0 
" style="stroke: #000000; stroke-width: 0.8"/>
      </defs>
      <g>
       <use xlink:href="#m4a29217606" x="33.7" y="180.687273" style="stroke: #000000; stroke-width: 0.8"/>
      </g>
     </g>
     <g id="text_8">
      <!-- 0 -->
      <g transform="translate(20.3375 184.486491) scale(0.1 -0.1)">
       <use xlink:href="#DejaVuSans-30"/>
      </g>
     </g>
    </g>
    <g id="ytick_2">
     <g id="line2d_8">
      <g>
       <use xlink:href="#m4a29217606" x="33.7" y="158.001129" style="stroke: #000000; stroke-width: 0.8"/>
      </g>
     </g>
     <g id="text_9">
      <!-- 200 -->
      <g transform="translate(7.6125 161.800348) scale(0.1 -0.1)">
       <use xlink:href="#DejaVuSans-32"/>
       <use xlink:href="#DejaVuSans-30" transform="translate(63.623047 0)"/>
       <use xlink:href="#DejaVuSans-30" transform="translate(127.246094 0)"/>
      </g>
     </g>
    </g>
    <g id="ytick_3">
     <g id="line2d_9">
      <g>
       <use xlink:href="#m4a29217606" x="33.7" y="135.314985" style="stroke: #000000; stroke-width: 0.8"/>
      </g>
     </g>
     <g id="text_10">
      <!-- 400 -->
      <g transform="translate(7.6125 139.114204) scale(0.1 -0.1)">
       <use xlink:href="#DejaVuSans-34"/>
       <use xlink:href="#DejaVuSans-30" transform="translate(63.623047 0)"/>
       <use xlink:href="#DejaVuSans-30" transform="translate(127.246094 0)"/>
      </g>
     </g>
    </g>
    <g id="ytick_4">
     <g id="line2d_10">
      <g>
       <use xlink:href="#m4a29217606" x="33.7" y="112.628841" style="stroke: #000000; stroke-width: 0.8"/>
      </g>
     </g>
     <g id="text_11">
      <!-- 600 -->
      <g transform="translate(7.6125 116.42806) scale(0.1 -0.1)">
       <use xlink:href="#DejaVuSans-36"/>
       <use xlink:href="#DejaVuSans-30" transform="translate(63.623047 0)"/>
       <use xlink:href="#DejaVuSans-30" transform="translate(127.246094 0)"/>
      </g>
     </g>
    </g>
    <g id="ytick_5">
     <g id="line2d_11">
      <g>
       <use xlink:href="#m4a29217606" x="33.7" y="89.942698" style="stroke: #000000; stroke-width: 0.8"/>
      </g>
     </g>
     <g id="text_12">
      <!-- 800 -->
      <g transform="translate(7.6125 93.741916) scale(0.1 -0.1)">
       <use xlink:href="#DejaVuSans-38"/>
       <use xlink:href="#DejaVuSans-30" transform="translate(63.623047 0)"/>
       <use xlink:href="#DejaVuSans-30" transform="translate(127.246094 0)"/>
      </g>
     </g>
    </g>
    <g id="ytick_6">
     <g id="line2d_12">
      <g>
       <use xlink:href="#m4a29217606" x="33.7" y="67.256554" style="stroke: #000000; stroke-width: 0.8"/>
      </g>
     </g>
     <g id="text_13">
      <!-- 1000 -->
      <g transform="translate(1.25 71.055773) scale(0.1 -0.1)">
       <use xlink:href="#DejaVuSans-31"/>
       <use xlink:href="#DejaVuSans-30" transform="translate(63.623047 0)"/>
       <use xlink:href="#DejaVuSans-30" transform="translate(127.246094 0)"/>
       <use xlink:href="#DejaVuSans-30" transform="translate(190.869141 0)"/>
      </g>
     </g>
    </g>
    <g id="ytick_7">
     <g id="line2d_13">
      <g>
       <use xlink:href="#m4a29217606" x="33.7" y="44.57041" style="stroke: #000000; stroke-width: 0.8"/>
      </g>
     </g>
     <g id="text_14">
      <!-- 1200 -->
      <g transform="translate(1.25 48.369629) scale(0.1 -0.1)">
       <use xlink:href="#DejaVuSans-31"/>
       <use xlink:href="#DejaVuSans-32" transform="translate(63.623047 0)"/>
       <use xlink:href="#DejaVuSans-30" transform="translate(127.246094 0)"/>
       <use xlink:href="#DejaVuSans-30" transform="translate(190.869141 0)"/>
      </g>
     </g>
    </g>
    <g id="ytick_8">
     <g id="line2d_14">
      <g>
       <use xlink:href="#m4a29217606" x="33.7" y="21.884266" style="stroke: #000000; stroke-width: 0.8"/>
      </g>
     </g>
     <g id="text_15">
      <!-- 1400 -->
      <g transform="translate(1.25 25.683485) scale(0.1 -0.1)">
       <use xlink:href="#DejaVuSans-31"/>
       <use xlink:href="#DejaVuSans-34" transform="translate(63.623047 0)"/>
       <use xlink:href="#DejaVuSans-30" transform="translate(127.246094 0)"/>
       <use xlink:href="#DejaVuSans-30" transform="translate(190.869141 0)"/>
      </g>
     </g>
    </g>
    <g id="text_16">
     <!-- rdf -->
     <g transform="translate(-4.829688 108.462344) rotate(-90) scale(0.1 -0.1)">
      <defs>
       <path id="DejaVuSans-72" d="M 2631 2963 
Q 2534 3019 2420 3045 
Q 2306 3072 2169 3072 
Q 1681 3072 1420 2755 
Q 1159 2438 1159 1844 
L 1159 0 
L 581 0 
L 581 3500 
L 1159 3500 
L 1159 2956 
Q 1341 3275 1631 3429 
Q 1922 3584 2338 3584 
Q 2397 3584 2469 3576 
Q 2541 3569 2628 3553 
L 2631 2963 
z
" transform="scale(0.015625)"/>
       <path id="DejaVuSans-64" d="M 2906 2969 
L 2906 4863 
L 3481 4863 
L 3481 0 
L 2906 0 
L 2906 525 
Q 2725 213 2448 61 
Q 2172 -91 1784 -91 
Q 1150 -91 751 415 
Q 353 922 353 1747 
Q 353 2572 751 3078 
Q 1150 3584 1784 3584 
Q 2172 3584 2448 3432 
Q 2725 3281 2906 2969 
z
M 947 1747 
Q 947 1113 1208 752 
Q 1469 391 1925 391 
Q 2381 391 2643 752 
Q 2906 1113 2906 1747 
Q 2906 2381 2643 2742 
Q 2381 3103 1925 3103 
Q 1469 3103 1208 2742 
Q 947 2381 947 1747 
z
" transform="scale(0.015625)"/>
       <path id="DejaVuSans-66" d="M 2375 4863 
L 2375 4384 
L 1825 4384 
Q 1516 4384 1395 4259 
Q 1275 4134 1275 3809 
L 1275 3500 
L 2222 3500 
L 2222 3053 
L 1275 3053 
L 1275 0 
L 697 0 
L 697 3053 
L 147 3053 
L 147 3500 
L 697 3500 
L 697 3744 
Q 697 4328 969 4595 
Q 1241 4863 1831 4863 
L 2375 4863 
z
" transform="scale(0.015625)"/>
      </defs>
      <use xlink:href="#DejaVuSans-72"/>
      <use xlink:href="#DejaVuSans-64" transform="translate(39.363281 0)"/>
      <use xlink:href="#DejaVuSans-66" transform="translate(102.839844 0)"/>
     </g>
    </g>
   </g>
   <g id="line2d_15">
    <path d="M 44.406818 180.687273 
L 91.634888 180.687273 
L 92.171571 173.873294 
L 92.708254 180.687273 
L 93.244936 174.167919 
L 93.781619 180.687273 
L 94.318301 168.200408 
L 94.854984 174.575274 
L 95.391667 174.702608 
L 95.928349 22.432727 
L 96.465032 65.85386 
L 97.001715 135.681863 
L 97.538397 136.581928 
L 98.07508 142.859284 
L 99.148445 165.101763 
L 99.685128 170.496728 
L 100.22181 165.692625 
L 100.758493 175.783366 
L 101.295175 161.438295 
L 102.368541 162.141354 
L 102.905223 176.135091 
L 103.441906 162.806587 
L 104.515271 163.43672 
L 105.051954 180.687273 
L 105.588636 155.707544 
L 106.125319 156.138171 
L 106.662002 144.493077 
L 107.198684 160.920163 
L 107.735367 169.026332 
L 108.272049 165.398487 
L 108.808732 165.651202 
L 109.882097 173.41273 
L 110.41878 173.530057 
L 110.955463 170.123206 
L 111.492145 170.290888 
L 112.028828 167.043698 
L 112.56551 167.256899 
L 113.102193 164.159571 
L 113.638876 148.140386 
L 114.175558 164.662302 
L 114.712241 158.592256 
L 115.248923 162.033429 
L 115.785606 168.436999 
L 116.322289 165.601245 
L 116.858971 171.76877 
L 117.395654 160.181236 
L 119.005702 169.468116 
L 120.079067 164.330884 
L 120.61575 167.247564 
L 121.152432 172.735438 
L 121.689115 175.459177 
L 122.225797 167.796097 
L 122.76248 165.428318 
L 123.299163 153.09052 
L 123.835845 168.311669 
L 124.372528 170.918786 
L 124.909211 168.638391 
L 125.445893 168.796953 
L 125.982576 171.299346 
L 126.519258 176.054272 
L 127.055941 171.540834 
L 127.592624 162.628883 
L 128.129306 156.173313 
L 128.665989 165.284919 
L 129.202671 161.133353 
L 129.739354 169.959785 
L 130.276037 170.093042 
L 130.812719 163.945763 
L 131.349402 164.151197 
L 131.886085 150.060259 
L 132.422767 160.51672 
L 132.95945 156.774176 
L 133.496132 168.873932 
L 134.032815 165.123715 
L 134.569498 167.230285 
L 135.642863 152.523432 
L 136.179545 165.841214 
L 136.716228 166.012835 
L 137.252911 160.741787 
L 137.789593 164.554817 
L 138.326276 157.649625 
L 138.862959 157.909896 
L 139.399641 166.827932 
L 140.473006 170.523097 
L 141.009689 160.583542 
L 141.546372 169.08899 
L 142.083054 157.744157 
L 142.619737 157.993569 
L 143.156419 171.066535 
L 143.693102 171.169987 
L 144.229785 169.702527 
L 144.766467 169.819372 
L 145.30315 173.006637 
L 145.839833 156.36798 
L 146.376515 170.158997 
L 147.44988 155.647095 
L 147.986563 166.109603 
L 148.523246 161.930641 
L 149.059928 172.118705 
L 149.596611 172.205705 
L 150.133293 161.09686 
L 150.669976 161.293725 
L 151.206659 173.830269 
L 151.743341 161.678708 
L 152.280024 171.277086 
L 152.816707 166.04554 
L 153.353389 164.871037 
L 153.890072 165.025365 
L 154.963437 157.647215 
L 155.50012 168.010389 
L 156.036802 169.387219 
L 156.573485 169.494869 
L 157.110167 160.978261 
L 157.64685 169.705493 
L 158.183533 162.556266 
L 158.720215 166.318021 
L 159.256898 167.637986 
L 159.793581 165.408169 
L 160.330263 165.54895 
L 160.866946 167.995466 
L 161.403628 171.541149 
L 161.940311 168.225689 
L 162.476994 170.583651 
L 163.013676 162.887146 
L 163.550359 165.251882 
L 164.087041 165.389705 
L 164.623724 175.272409 
L 165.160407 171.026787 
L 165.697089 165.792209 
L 166.770455 166.051877 
L 167.307137 171.360606 
L 167.84382 164.250046 
L 168.380502 167.447179 
L 168.917185 172.609449 
L 169.453868 166.671918 
L 169.99055 170.761468 
L 170.527233 166.90895 
L 171.063915 161.169991 
L 171.600598 171.978315 
L 172.137281 165.334236 
L 172.673963 161.655953 
L 173.747329 167.585085 
L 174.284011 168.621104 
L 174.820694 167.799461 
L 175.357376 170.643796 
L 175.894059 169.819812 
L 176.430742 167.212958 
L 176.967424 170.885776 
L 177.504107 160.357833 
L 178.040789 167.535012 
L 178.577472 163.290658 
L 179.114155 169.469209 
L 179.650837 165.277321 
L 180.724203 167.204031 
L 181.260885 166.473236 
L 181.797568 169.902301 
L 182.33425 168.33954 
L 182.870933 167.618053 
L 183.407616 164.476457 
L 183.944298 160.579044 
L 184.480981 169.512598 
L 185.017663 168.805506 
L 185.554346 161.820469 
L 186.091029 166.643894 
L 186.627711 163.652191 
L 187.164394 164.548368 
L 187.701077 166.957107 
L 188.237759 163.273586 
L 188.774442 168.663137 
L 189.311124 170.98977 
L 189.847807 168.099181 
L 190.38449 172.601712 
L 190.921172 163.174806 
L 191.457855 177.065367 
L 191.994537 158.394275 
L 192.53122 166.408554 
L 193.067903 165.09364 
L 193.604585 173.650084 
L 194.141268 161.822529 
L 194.677951 166.119134 
L 195.214633 166.222504 
L 195.751316 164.272886 
L 196.287998 169.821393 
L 196.824681 169.223283 
L 197.361364 169.303446 
L 197.898046 168.052825 
L 198.434729 168.140645 
L 198.971411 161.01384 
L 199.508094 170.267169 
L 200.044777 170.338788 
L 200.581459 169.124934 
L 201.118142 163.462175 
L 201.654825 161.044794 
L 202.191507 161.177971 
L 202.72819 168.18571 
L 203.801555 164.652954 
L 204.338238 172.111158 
L 204.87492 165.474878 
L 205.411603 165.575954 
L 205.948285 168.678265 
L 206.484968 164.58221 
L 207.021651 168.243474 
L 207.558333 166.559061 
L 208.095016 167.821039 
L 208.631699 165.580821 
L 209.168381 165.678896 
L 209.705064 168.643607 
L 210.241746 165.872225 
L 210.778429 163.702902 
L 211.315112 166.061848 
L 211.851794 167.273166 
L 212.388477 171.801511 
L 212.925159 170.202374 
L 213.461842 170.81709 
L 213.998525 168.154945 
L 214.535207 172.56541 
L 215.07189 169.387995 
L 215.608573 168.923929 
L 216.145255 166.871732 
L 216.681938 170.125959 
L 217.21862 168.61694 
L 217.755303 165.040547 
L 218.291986 167.728601 
L 218.828668 165.747392 
L 219.365351 168.398907 
L 219.902033 164.402664 
L 220.438716 168.548045 
L 220.975399 171.63807 
L 221.512081 165.196563 
L 222.048764 165.786698 
L 222.585447 168.838341 
L 223.122129 160.566525 
L 223.658812 168.491871 
L 224.195494 170.019189 
L 224.732177 167.190233 
L 225.26886 166.3117 
L 225.805542 164.967528 
L 226.342225 167.901259 
L 226.878907 168.447055 
L 227.41559 168.050647 
L 227.952273 165.33252 
L 229.025638 170.569269 
L 229.562321 168.79876 
L 230.099003 169.321827 
L 230.635686 169.38718 
L 231.172368 167.654368 
L 231.709051 168.622438 
L 232.245734 170.024151 
L 232.782416 163.016234 
L 233.319099 167.069876 
L 233.855781 169.767552 
L 234.392464 167.657451 
L 234.929147 167.298722 
L 235.465829 169.950511 
L 236.539195 163.274969 
L 237.075877 168.861952 
L 237.61256 165.567593 
L 238.149242 164.815751 
L 238.685925 166.149399 
L 239.222608 171.186291 
L 239.75929 161.378528 
L 240.295973 169.655608 
L 240.832656 170.528484 
L 241.369338 168.158786 
L 242.442703 167.494548 
L 243.516069 167.636161 
L 244.052751 170.066371 
L 244.589434 168.949398 
L 245.126116 166.676886 
L 245.662799 167.13857 
L 246.199482 169.135677 
L 246.736164 168.813725 
L 247.272847 164.685538 
L 247.80953 167.8016 
L 248.882895 167.936343 
L 249.419577 169.122175 
L 249.95626 162.502159 
L 250.492943 165.919398 
L 251.029625 164.894136 
L 251.566308 168.629536 
L 252.10299 168.328174 
L 252.639673 168.753327 
L 253.176356 167.015643 
L 253.713038 170.664967 
L 254.249721 167.867223 
L 254.786404 168.641067 
L 255.323086 168.349738 
L 255.859769 168.762914 
L 256.396451 168.823144 
L 256.933134 169.577254 
L 257.469817 166.178619 
L 258.006499 169.001075 
L 258.543182 167.349574 
L 258.543182 167.349574 
" clip-path="url(#p18e73306a5)" style="fill: none; stroke: #000000; stroke-opacity: 0.5; stroke-width: 0.5; stroke-linecap: square"/>
   </g>
   <g id="line2d_16">
    <path d="M 44.406818 180.687273 
L 91.634888 180.687273 
L 92.171571 159.81946 
L 92.708254 180.687273 
L 93.244936 160.721749 
L 93.781619 180.687273 
L 94.318301 142.446242 
L 95.391667 180.687273 
L 95.928349 162.737102 
L 96.465032 180.687273 
L 97.001715 146.230002 
L 97.538397 180.687273 
L 98.07508 180.687273 
L 98.611762 164.462024 
L 99.148445 180.687273 
L 99.685128 149.478729 
L 100.758493 180.687273 
L 101.831858 151.758081 
L 102.368541 152.288829 
L 102.905223 180.687273 
L 104.515271 141.064903 
L 105.051954 180.687273 
L 105.588636 155.187129 
L 106.125319 143.096458 
L 106.662002 143.739027 
L 107.198684 168.579916 
L 108.272049 168.981795 
L 108.808732 157.663288 
L 109.882097 180.687273 
L 110.41878 180.687273 
L 110.955463 169.90312 
L 111.492145 170.074294 
L 112.028828 180.687273 
L 112.56551 170.404641 
L 113.102193 170.564054 
L 113.638876 160.752303 
L 114.175558 161.056681 
L 114.712241 180.687273 
L 115.248923 171.166038 
L 115.785606 171.308156 
L 116.322289 143.726502 
L 116.858971 180.687273 
L 117.395654 153.773097 
L 117.932337 171.845885 
L 118.469019 163.258969 
L 119.542384 163.751595 
L 120.079067 172.338698 
L 120.61575 155.991805 
L 121.152432 180.687273 
L 121.689115 172.681751 
L 122.76248 172.898847 
L 123.299163 157.63771 
L 123.835845 157.947098 
L 124.372528 180.687273 
L 124.909211 173.307332 
L 125.445893 158.838807 
L 125.982576 173.499641 
L 126.519258 180.687273 
L 127.055941 173.68453 
L 127.592624 159.948338 
L 128.129306 153.387634 
L 128.665989 167.210212 
L 129.739354 167.5461 
L 130.276037 161.220371 
L 130.812719 167.869552 
L 131.349402 155.366404 
L 131.886085 161.928225 
L 132.422767 162.155576 
L 132.95945 156.275984 
L 133.496132 168.62782 
L 134.032815 168.771422 
L 134.569498 180.687273 
L 135.10618 157.414639 
L 135.642863 146.186566 
L 136.179545 175.004015 
L 136.716228 163.834595 
L 137.252911 169.581262 
L 137.789593 158.729205 
L 138.326276 158.978716 
L 138.862959 153.858147 
L 139.399641 170.076214 
L 139.936324 175.441006 
L 140.473006 170.311342 
L 141.009689 144.772791 
L 141.546372 165.464524 
L 142.083054 165.630851 
L 142.619737 155.86603 
L 143.156419 161.044931 
L 143.693102 170.971708 
L 144.229785 171.075619 
L 144.766467 166.42315 
L 145.30315 175.982882 
L 145.839833 162.067813 
L 146.376515 166.868909 
L 146.913198 162.45468 
L 147.986563 162.829625 
L 148.523246 167.431382 
L 149.059928 176.313732 
L 149.596611 172.029005 
L 150.133293 163.545659 
L 150.669976 146.748561 
L 151.206659 172.287443 
L 151.743341 164.054777 
L 152.280024 160.102484 
L 152.816707 168.458097 
L 153.353389 160.505093 
L 153.890072 172.693173 
L 154.426754 160.896053 
L 154.963437 161.087221 
L 155.50012 176.804976 
L 156.036802 169.151801 
L 156.573485 165.453167 
L 157.110167 169.369987 
L 157.64685 169.476704 
L 158.183533 158.476788 
L 158.720215 166.018659 
L 159.256898 177.054232 
L 159.793581 177.087868 
L 160.866946 163.019697 
L 161.403628 173.684771 
L 161.940311 163.340179 
L 162.476994 163.497081 
L 163.550359 157.051829 
L 164.087041 163.955555 
L 164.623724 174.054064 
L 165.160407 167.538277 
L 165.697089 170.912386 
L 166.770455 158.276822 
L 167.307137 167.992642 
L 167.84382 164.956331 
L 168.380502 174.449151 
L 168.917185 177.594981 
L 169.453868 177.621413 
L 170.527233 165.617231 
L 171.063915 165.744351 
L 171.600598 171.796877 
L 172.137281 174.809938 
L 172.673963 163.202247 
L 173.210646 174.907293 
L 173.747329 174.955065 
L 174.284011 160.789696 
L 174.820694 163.772017 
L 175.357376 169.502491 
L 175.894059 164.046471 
L 176.430742 164.181236 
L 176.967424 172.500794 
L 177.504107 153.618176 
L 178.040789 172.631512 
L 178.577472 164.704132 
L 179.114155 164.83097 
L 179.650837 167.57811 
L 180.18752 165.080155 
L 180.724203 167.783387 
L 181.260885 160.202335 
L 181.797568 167.983818 
L 182.33425 165.561298 
L 182.870933 168.179619 
L 183.407616 158.34674 
L 183.944298 168.370979 
L 184.480981 170.909431 
L 185.017663 170.983829 
L 185.554346 163.834891 
L 186.091029 168.740647 
L 187.701077 169.007095 
L 188.237759 162.137909 
L 188.774442 176.084283 
L 189.847807 171.61644 
L 190.38449 176.185085 
L 190.921172 167.279289 
L 191.457855 178.468855 
L 191.994537 167.473277 
L 192.53122 161.009411 
L 193.067903 165.49234 
L 193.604585 165.601297 
L 194.141268 155.010257 
L 194.677951 165.815631 
L 195.214633 165.921153 
L 195.751316 168.120005 
L 196.287998 172.368082 
L 196.824681 162.100434 
L 197.361364 168.382693 
L 197.898046 166.431956 
L 198.434729 170.575679 
L 198.971411 160.603974 
L 199.508094 168.720433 
L 200.044777 172.764213 
L 200.581459 162.98244 
L 201.118142 163.103317 
L 201.654825 159.341916 
L 202.72819 167.287159 
L 203.801555 167.466669 
L 204.338238 163.803044 
L 204.87492 167.642642 
L 205.411603 175.133862 
L 205.948285 171.492875 
L 206.484968 158.76649 
L 207.021651 164.354784 
L 207.558333 171.673177 
L 208.095016 169.941042 
L 208.631699 157.555517 
L 209.168381 170.080391 
L 209.705064 170.149063 
L 210.778429 163.349058 
L 211.315112 173.796447 
L 211.851794 168.7054 
L 212.388477 173.884111 
L 212.925159 173.927271 
L 213.461842 172.290762 
L 213.998525 174.012445 
L 214.535207 167.421563 
L 215.07189 175.743838 
L 215.608573 169.224696 
L 216.145255 172.550716 
L 216.681938 166.132462 
L 217.21862 169.436934 
L 217.755303 169.506383 
L 218.291986 166.400335 
L 218.828668 164.910239 
L 219.365351 169.710945 
L 219.902033 166.66088 
L 220.438716 171.393175 
L 220.975399 172.989165 
L 221.512081 165.383948 
L 222.048764 165.476266 
L 222.585447 173.127406 
L 223.122129 158.143444 
L 223.658812 165.747902 
L 224.195494 164.351768 
L 224.732177 164.448645 
L 225.26886 166.012206 
L 225.805542 161.722351 
L 226.342225 169.085148 
L 227.952273 165.012628 
L 228.488955 170.770459 
L 229.025638 172.236439 
L 229.562321 163.883316 
L 230.635686 175.150226 
L 231.172368 169.676713 
L 231.709051 172.476481 
L 232.782416 164.452004 
L 233.319099 168.579868 
L 233.855781 168.648278 
L 234.392464 166.055868 
L 234.929147 162.170042 
L 235.465829 166.219484 
L 236.002512 166.300341 
L 236.539195 167.681129 
L 237.075877 175.513694 
L 237.61256 166.53882 
L 238.149242 164.058718 
L 238.685925 170.51076 
L 239.222608 171.831737 
L 239.75929 164.331327 
L 240.295973 166.923227 
L 240.832656 170.731658 
L 241.369338 168.310338 
L 241.906021 164.684501 
L 242.442703 169.668347 
L 242.979386 170.945454 
L 243.516069 166.153079 
L 244.052751 173.459159 
L 244.589434 168.704858 
L 245.126116 165.193145 
L 245.662799 166.461134 
L 246.199482 172.432695 
L 246.736164 168.957355 
L 247.272847 163.185371 
L 247.80953 169.080689 
L 248.346212 165.67801 
L 248.882895 168.053536 
L 249.419577 168.119555 
L 249.95626 164.775298 
L 250.492943 160.335293 
L 251.029625 163.815241 
L 251.566308 168.378332 
L 252.10299 167.328539 
L 252.639673 165.182182 
L 253.176356 169.669017 
L 253.713038 169.725374 
L 254.249721 165.418949 
L 254.786404 169.836827 
L 255.323086 166.653326 
L 255.859769 167.798442 
L 256.396451 167.863544 
L 256.933134 168.991373 
L 257.469817 167.992199 
L 258.543182 168.119055 
L 258.543182 168.119055 
" clip-path="url(#p18e73306a5)" style="fill: none; stroke: #0000ff; stroke-opacity: 0.5; stroke-linecap: square"/>
   </g>
   <g id="line2d_17">
    <path d="M 44.406818 180.687273 
L 106.662002 180.687273 
L 107.735367 138.362377 
L 108.272049 139.067802 
L 109.345415 180.687273 
L 109.882097 180.687273 
L 110.41878 161.203742 
L 110.955463 180.687273 
L 111.492145 180.687273 
L 112.56551 144.126809 
L 113.102193 162.690441 
L 113.638876 145.247332 
L 114.175558 163.237862 
L 115.248923 129.907364 
L 115.785606 164.013289 
L 116.322289 180.687273 
L 116.858971 180.687273 
L 117.395654 164.738134 
L 117.932337 164.969252 
L 118.469019 180.687273 
L 119.005702 180.687273 
L 119.542384 165.633338 
L 120.079067 165.845364 
L 120.61575 180.687273 
L 121.152432 166.256165 
L 121.689115 180.687273 
L 122.225797 166.650215 
L 122.76248 180.687273 
L 123.299163 153.369275 
L 123.835845 180.687273 
L 124.372528 167.391277 
L 124.909211 180.687273 
L 125.445893 167.740035 
L 125.982576 180.687273 
L 126.519258 180.687273 
L 127.055941 168.237954 
L 128.129306 168.554101 
L 129.202671 145.200531 
L 129.739354 169.006231 
L 130.276037 157.615393 
L 130.812719 169.293745 
L 131.886085 147.337859 
L 132.422767 158.723782 
L 132.95945 137.28943 
L 134.032815 159.503541 
L 134.569498 180.687273 
L 135.10618 160.000489 
L 135.642863 129.57512 
L 136.179545 160.480138 
L 136.716228 150.726962 
L 137.252911 170.815264 
L 138.326276 171.039027 
L 138.862959 161.608787 
L 139.399641 171.255221 
L 139.936324 162.033882 
L 140.473006 171.464224 
L 141.009689 162.444999 
L 141.546372 171.666386 
L 142.083054 144.99798 
L 143.156419 180.687273 
L 143.693102 180.687273 
L 144.766467 163.781649 
L 145.839833 164.136643 
L 146.376515 180.687273 
L 146.913198 164.480525 
L 147.44988 164.648466 
L 147.986563 172.750541 
L 148.523246 141.410564 
L 149.059928 172.912091 
L 149.596611 180.687273 
L 150.133293 157.831793 
L 150.669976 173.145337 
L 151.206659 180.687273 
L 151.743341 136.333958 
L 152.280024 180.687273 
L 152.816707 151.6996 
L 153.353389 166.335502 
L 154.426754 152.539766 
L 154.963437 131.904929 
L 155.50012 166.883554 
L 156.573485 153.60442 
L 157.110167 167.274196 
L 157.64685 160.757376 
L 158.720215 174.16789 
L 159.256898 161.311059 
L 160.866946 161.841864 
L 161.403628 168.238382 
L 161.940311 168.351564 
L 162.476994 174.575205 
L 163.013676 162.516312 
L 163.550359 168.681969 
L 164.087041 156.891057 
L 164.623724 180.687273 
L 165.160407 168.999277 
L 165.697089 151.724649 
L 166.233772 174.945552 
L 166.770455 163.612645 
L 167.307137 175.045215 
L 167.84382 175.09405 
L 168.380502 147.417297 
L 168.917185 164.195051 
L 169.453868 153.435193 
L 169.99055 169.879174 
L 171.063915 159.435122 
L 171.600598 175.418891 
L 172.137281 159.790084 
L 172.673963 139.241288 
L 173.210646 154.998478 
L 173.747329 175.591977 
L 174.284011 165.527216 
L 174.820694 165.651492 
L 175.357376 160.803219 
L 175.894059 175.756666 
L 176.430742 180.687273 
L 177.504107 161.438141 
L 178.040789 171.139705 
L 179.650837 171.365203 
L 180.18752 157.565619 
L 181.260885 176.135065 
L 182.33425 176.205503 
L 182.870933 171.792943 
L 183.944298 154.412519 
L 184.480981 167.650153 
L 185.017663 163.436708 
L 185.554346 146.447517 
L 186.091029 172.191896 
L 186.627711 163.824262 
L 187.164394 143.029825 
L 187.701077 172.38137 
L 188.237759 168.321032 
L 189.311124 176.625926 
L 189.847807 164.56135 
L 190.38449 168.681441 
L 190.921172 176.714537 
L 191.457855 172.799568 
L 191.994537 161.110984 
L 192.53122 165.139335 
L 193.067903 161.392122 
L 193.604585 173.024556 
L 194.141268 161.667263 
L 194.677951 173.133423 
L 195.214633 165.686772 
L 195.751316 162.069101 
L 196.287998 169.59502 
L 197.361364 162.458268 
L 197.898046 166.205683 
L 198.434729 166.306343 
L 199.508094 173.595813 
L 200.581459 159.70377 
L 201.118142 145.953536 
L 201.654825 166.888255 
L 202.191507 153.276356 
L 202.72819 160.268054 
L 203.264872 157.025202 
L 203.801555 170.614432 
L 204.338238 180.687273 
L 204.87492 170.748508 
L 205.411603 167.523634 
L 205.948285 170.879917 
L 206.484968 170.944705 
L 207.021651 174.234933 
L 207.558333 167.867228 
L 208.095016 167.951002 
L 208.631699 164.87069 
L 209.168381 168.116155 
L 209.705064 177.564841 
L 210.241746 158.971199 
L 210.778429 162.193181 
L 211.315112 162.311742 
L 211.851794 165.472197 
L 212.388477 162.545511 
L 213.461842 174.716422 
L 213.998525 162.887737 
L 214.535207 177.739337 
L 215.07189 168.969503 
L 215.608573 169.042751 
L 216.145255 160.436289 
L 216.681938 172.062201 
L 217.21862 163.543903 
L 217.755303 169.32891 
L 218.291986 163.754609 
L 218.828668 166.663245 
L 219.902033 161.292757 
L 220.438716 166.918241 
L 220.975399 175.213064 
L 221.512081 167.084319 
L 222.048764 169.870559 
L 222.585447 167.247511 
L 223.122129 161.984248 
L 223.658812 178.031385 
L 224.195494 180.687273 
L 224.732177 172.814 
L 225.26886 172.860572 
L 225.805542 149.565356 
L 226.342225 167.796024 
L 226.878907 170.434783 
L 227.952273 165.487619 
L 228.488955 165.575939 
L 229.025638 173.175421 
L 229.562321 170.729373 
L 230.635686 160.999999 
L 231.172368 168.453319 
L 231.709051 173.388793 
L 232.245734 171.011477 
L 232.782416 159.040252 
L 233.319099 171.12093 
L 233.855781 168.796909 
L 234.392464 175.95793 
L 234.929147 168.930301 
L 235.465829 176.010816 
L 236.539195 162.189649 
L 237.075877 164.591697 
L 237.61256 153.247853 
L 238.149242 167.043333 
L 238.685925 164.857143 
L 239.222608 169.442149 
L 239.75929 160.55688 
L 240.295973 174.013797 
L 240.832656 171.837839 
L 241.369338 165.284868 
L 241.906021 171.933621 
L 242.442703 171.980962 
L 242.979386 174.192728 
L 243.516069 163.461563 
L 244.052751 163.553967 
L 244.589434 167.906033 
L 245.126116 165.855291 
L 245.662799 157.503937 
L 246.199482 163.916068 
L 246.736164 168.175363 
L 247.272847 170.315778 
L 247.80953 157.989958 
L 248.346212 170.424531 
L 248.882895 170.478194 
L 249.419577 168.500396 
L 249.95626 162.502159 
L 250.492943 158.576481 
L 251.029625 166.689738 
L 251.566308 168.751332 
L 252.10299 168.812845 
L 252.639673 164.936072 
L 253.713038 168.994583 
L 254.249721 165.176595 
L 254.786404 171.042434 
L 255.323086 167.253069 
L 255.859769 165.411624 
L 256.396451 171.188215 
L 256.933134 173.126288 
L 257.469817 161.879758 
L 258.006499 167.588038 
L 258.543182 165.791609 
L 258.543182 165.791609 
" clip-path="url(#p18e73306a5)" style="fill: none; stroke: #ff0000; stroke-opacity: 0.5; stroke-linecap: square"/>
   </g>
   <g id="patch_3">
    <path d="M 33.7 188.6 
L 33.7 14.52 
" style="fill: none; stroke: #000000; stroke-width: 0.8; stroke-linejoin: miter; stroke-linecap: square"/>
   </g>
   <g id="patch_4">
    <path d="M 269.25 188.6 
L 269.25 14.52 
" style="fill: none; stroke: #000000; stroke-width: 0.8; stroke-linejoin: miter; stroke-linecap: square"/>
   </g>
   <g id="patch_5">
    <path d="M 33.7 188.6 
L 269.25 188.6 
" style="fill: none; stroke: #000000; stroke-width: 0.8; stroke-linejoin: miter; stroke-linecap: square"/>
   </g>
   <g id="patch_6">
    <path d="M 33.7 14.52 
L 269.25 14.52 
" style="fill: none; stroke: #000000; stroke-width: 0.8; stroke-linejoin: miter; stroke-linecap: square"/>
   </g>
   <g id="legend_1">
    <g id="patch_7">
     <path d="M 213.917188 66.554375 
L 262.25 66.554375 
Q 264.25 66.554375 264.25 64.554375 
L 264.25 21.52 
Q 264.25 19.52 262.25 19.52 
L 213.917188 19.52 
Q 211.917188 19.52 211.917188 21.52 
L 211.917188 64.554375 
Q 211.917188 66.554375 213.917188 66.554375 
z
" style="fill: #ffffff; opacity: 0.8; stroke: #cccccc; stroke-linejoin: miter"/>
    </g>
    <g id="line2d_18">
     <path d="M 215.917188 27.618438 
L 225.917188 27.618438 
L 235.917188 27.618438 
" style="fill: none; stroke: #000000; stroke-opacity: 0.5; stroke-width: 0.5; stroke-linecap: square"/>
    </g>
    <g id="text_17">
     <!-- all -->
     <g transform="translate(243.917188 31.118438) scale(0.1 -0.1)">
      <defs>
       <path id="DejaVuSans-61" d="M 2194 1759 
Q 1497 1759 1228 1600 
Q 959 1441 959 1056 
Q 959 750 1161 570 
Q 1363 391 1709 391 
Q 2188 391 2477 730 
Q 2766 1069 2766 1631 
L 2766 1759 
L 2194 1759 
z
M 3341 1997 
L 3341 0 
L 2766 0 
L 2766 531 
Q 2569 213 2275 61 
Q 1981 -91 1556 -91 
Q 1019 -91 701 211 
Q 384 513 384 1019 
Q 384 1609 779 1909 
Q 1175 2209 1959 2209 
L 2766 2209 
L 2766 2266 
Q 2766 2663 2505 2880 
Q 2244 3097 1772 3097 
Q 1472 3097 1187 3025 
Q 903 2953 641 2809 
L 641 3341 
Q 956 3463 1253 3523 
Q 1550 3584 1831 3584 
Q 2591 3584 2966 3190 
Q 3341 2797 3341 1997 
z
" transform="scale(0.015625)"/>
       <path id="DejaVuSans-6c" d="M 603 4863 
L 1178 4863 
L 1178 0 
L 603 0 
L 603 4863 
z
" transform="scale(0.015625)"/>
      </defs>
      <use xlink:href="#DejaVuSans-61"/>
      <use xlink:href="#DejaVuSans-6c" transform="translate(61.279297 0)"/>
      <use xlink:href="#DejaVuSans-6c" transform="translate(89.0625 0)"/>
     </g>
    </g>
    <g id="line2d_19">
     <path d="M 215.917188 42.296563 
L 225.917188 42.296563 
L 235.917188 42.296563 
" style="fill: none; stroke: #0000ff; stroke-opacity: 0.5; stroke-linecap: square"/>
    </g>
    <g id="text_18">
     <!-- 1-1 -->
     <g transform="translate(243.917188 45.796563) scale(0.1 -0.1)">
      <defs>
       <path id="DejaVuSans-2d" d="M 313 2009 
L 1997 2009 
L 1997 1497 
L 313 1497 
L 313 2009 
z
" transform="scale(0.015625)"/>
      </defs>
      <use xlink:href="#DejaVuSans-31"/>
      <use xlink:href="#DejaVuSans-2d" transform="translate(63.623047 0)"/>
      <use xlink:href="#DejaVuSans-31" transform="translate(99.707031 0)"/>
     </g>
    </g>
    <g id="line2d_20">
     <path d="M 215.917188 56.974688 
L 225.917188 56.974688 
L 235.917188 56.974688 
" style="fill: none; stroke: #ff0000; stroke-opacity: 0.5; stroke-linecap: square"/>
    </g>
    <g id="text_19">
     <!-- 2-2 -->
     <g transform="translate(243.917188 60.474688) scale(0.1 -0.1)">
      <use xlink:href="#DejaVuSans-32"/>
      <use xlink:href="#DejaVuSans-2d" transform="translate(63.623047 0)"/>
      <use xlink:href="#DejaVuSans-32" transform="translate(99.707031 0)"/>
     </g>
    </g>
   </g>
  </g>
 </g>
 <defs>
  <clipPath id="p18e73306a5">
   <rect x="33.7" y="14.52" width="235.55" height="174.08"/>
  </clipPath>
 </defs>
</svg>
