<?xml version="1.0" encoding="utf-8" standalone="no"?>
<!DOCTYPE svg PUBLIC "-//W3C//DTD SVG 1.1//EN"
  "http://www.w3.org/Graphics/SVG/1.1/DTD/svg11.dtd">
<svg xmlns:xlink="http://www.w3.org/1999/xlink" width="288pt" height="216pt" viewBox="0 0 288 216" xmlns="http://www.w3.org/2000/svg" version="1.1">
 <metadata>
  <rdf:RDF xmlns:dc="http://purl.org/dc/elements/1.1/" xmlns:cc="http://creativecommons.org/ns#" xmlns:rdf="http://www.w3.org/1999/02/22-rdf-syntax-ns#">
   <cc:Work>
    <dc:type rdf:resource="http://purl.org/dc/dcmitype/StillImage"/>
    <dc:date>2025-09-18T00:04:06.474268</dc:date>
    <dc:format>image/svg+xml</dc:format>
    <dc:creator>
     <cc:Agent>
      <dc:title>Matplotlib v3.10.0, https://matplotlib.org/</dc:title>
     </cc:Agent>
    </dc:creator>
   </cc:Work>
  </rdf:RDF>
 </metadata>
 <defs>
  <style type="text/css">*{stroke-linejoin: round; stroke-linecap: butt}</style>
 </defs>
 <g id="figure_1">
  <g id="patch_1">
   <path d="M 0 216 
L 288 216 
L 288 0 
L 0 0 
z
" style="fill: #ffffff"/>
  </g>
  <g id="axes_1">
   <g id="patch_2">
    <path d="M 33.7 188.6 
L 269.25 188.6 
L 269.25 14.52 
L 33.7 14.52 
z
" style="fill: #ffffff"/>
   </g>
   <g id="matplotlib.axis_1">
    <g id="xtick_1">
     <g id="line2d_1">
      <defs>
       <path id="m0a149c1dfc" d="M 0 0 
L 0 3.5 
" style="stroke: #000000; stroke-width: 0.8"/>
      </defs>
      <g>
       <use xlink:href="#m0a149c1dfc" x="44.138477" y="188.6" style="stroke: #000000; stroke-width: 0.8"/>
      </g>
     </g>
     <g id="text_1">
      <!-- 0 -->
      <g transform="translate(40.957227 203.198437) scale(0.1 -0.1)">
       <defs>
        <path id="DejaVuSans-30" d="M 2034 4250 
Q 1547 4250 1301 3770 
Q 1056 3291 1056 2328 
Q 1056 1369 1301 889 
Q 1547 409 2034 409 
Q 2525 409 2770 889 
Q 3016 1369 3016 2328 
Q 3016 3291 2770 3770 
Q 2525 4250 2034 4250 
z
M 2034 4750 
Q 2819 4750 3233 4129 
Q 3647 3509 3647 2328 
Q 3647 1150 3233 529 
Q 2819 -91 2034 -91 
Q 1250 -91 836 529 
Q 422 1150 422 2328 
Q 422 3509 836 4129 
Q 1250 4750 2034 4750 
z
" transform="scale(0.015625)"/>
       </defs>
       <use xlink:href="#DejaVuSans-30"/>
      </g>
     </g>
    </g>
    <g id="xtick_2">
     <g id="line2d_2">
      <g>
       <use xlink:href="#m0a149c1dfc" x="87.073086" y="188.6" style="stroke: #000000; stroke-width: 0.8"/>
      </g>
     </g>
     <g id="text_2">
      <!-- 200 -->
      <g transform="translate(77.529336 203.198437) scale(0.1 -0.1)">
       <defs>
        <path id="DejaVuSans-32" d="M 1228 531 
L 3431 531 
L 3431 0 
L 469 0 
L 469 531 
Q 828 903 1448 1529 
Q 2069 2156 2228 2338 
Q 2531 2678 2651 2914 
Q 2772 3150 2772 3378 
Q 2772 3750 2511 3984 
Q 2250 4219 1831 4219 
Q 1534 4219 1204 4116 
Q 875 4013 500 3803 
L 500 4441 
Q 881 4594 1212 4672 
Q 1544 4750 1819 4750 
Q 2544 4750 2975 4387 
Q 3406 4025 3406 3419 
Q 3406 3131 3298 2873 
Q 3191 2616 2906 2266 
Q 2828 2175 2409 1742 
Q 1991 1309 1228 531 
z
" transform="scale(0.015625)"/>
       </defs>
       <use xlink:href="#DejaVuSans-32"/>
       <use xlink:href="#DejaVuSans-30" transform="translate(63.623047 0)"/>
       <use xlink:href="#DejaVuSans-30" transform="translate(127.246094 0)"/>
      </g>
     </g>
    </g>
    <g id="xtick_3">
     <g id="line2d_3">
      <g>
       <use xlink:href="#m0a149c1dfc" x="130.007695" y="188.6" style="stroke: #000000; stroke-width: 0.8"/>
      </g>
     </g>
     <g id="text_3">
      <!-- 400 -->
      <g transform="translate(120.463945 203.198437) scale(0.1 -0.1)">
       <defs>
        <path id="DejaVuSans-34" d="M 2419 4116 
L 825 1625 
L 2419 1625 
L 2419 4116 
z
M 2253 4666 
L 3047 4666 
L 3047 1625 
L 3713 1625 
L 3713 1100 
L 3047 1100 
L 3047 0 
L 2419 0 
L 2419 1100 
L 313 1100 
L 313 1709 
L 2253 4666 
z
" transform="scale(0.015625)"/>
       </defs>
       <use xlink:href="#DejaVuSans-34"/>
       <use xlink:href="#DejaVuSans-30" transform="translate(63.623047 0)"/>
       <use xlink:href="#DejaVuSans-30" transform="translate(127.246094 0)"/>
      </g>
     </g>
    </g>
    <g id="xtick_4">
     <g id="line2d_4">
      <g>
       <use xlink:href="#m0a149c1dfc" x="172.942305" y="188.6" style="stroke: #000000; stroke-width: 0.8"/>
      </g>
     </g>
     <g id="text_4">
      <!-- 600 -->
      <g transform="translate(163.398555 203.198437) scale(0.1 -0.1)">
       <defs>
        <path id="DejaVuSans-36" d="M 2113 2584 
Q 1688 2584 1439 2293 
Q 1191 2003 1191 1497 
Q 1191 994 1439 701 
Q 1688 409 2113 409 
Q 2538 409 2786 701 
Q 3034 994 3034 1497 
Q 3034 2003 2786 2293 
Q 2538 2584 2113 2584 
z
M 3366 4563 
L 3366 3988 
Q 3128 4100 2886 4159 
Q 2644 4219 2406 4219 
Q 1781 4219 1451 3797 
Q 1122 3375 1075 2522 
Q 1259 2794 1537 2939 
Q 1816 3084 2150 3084 
Q 2853 3084 3261 2657 
Q 3669 2231 3669 1497 
Q 3669 778 3244 343 
Q 2819 -91 2113 -91 
Q 1303 -91 875 529 
Q 447 1150 447 2328 
Q 447 3434 972 4092 
Q 1497 4750 2381 4750 
Q 2619 4750 2861 4703 
Q 3103 4656 3366 4563 
z
" transform="scale(0.015625)"/>
       </defs>
       <use xlink:href="#DejaVuSans-36"/>
       <use xlink:href="#DejaVuSans-30" transform="translate(63.623047 0)"/>
       <use xlink:href="#DejaVuSans-30" transform="translate(127.246094 0)"/>
      </g>
     </g>
    </g>
    <g id="xtick_5">
     <g id="line2d_5">
      <g>
       <use xlink:href="#m0a149c1dfc" x="215.876914" y="188.6" style="stroke: #000000; stroke-width: 0.8"/>
      </g>
     </g>
     <g id="text_5">
      <!-- 800 -->
      <g transform="translate(206.333164 203.198437) scale(0.1 -0.1)">
       <defs>
        <path id="DejaVuSans-38" d="M 2034 2216 
Q 1584 2216 1326 1975 
Q 1069 1734 1069 1313 
Q 1069 891 1326 650 
Q 1584 409 2034 409 
Q 2484 409 2743 651 
Q 3003 894 3003 1313 
Q 3003 1734 2745 1975 
Q 2488 2216 2034 2216 
z
M 1403 2484 
Q 997 2584 770 2862 
Q 544 3141 544 3541 
Q 544 4100 942 4425 
Q 1341 4750 2034 4750 
Q 2731 4750 3128 4425 
Q 3525 4100 3525 3541 
Q 3525 3141 3298 2862 
Q 3072 2584 2669 2484 
Q 3125 2378 3379 2068 
Q 3634 1759 3634 1313 
Q 3634 634 3220 271 
Q 2806 -91 2034 -91 
Q 1263 -91 848 271 
Q 434 634 434 1313 
Q 434 1759 690 2068 
Q 947 2378 1403 2484 
z
M 1172 3481 
Q 1172 3119 1398 2916 
Q 1625 2713 2034 2713 
Q 2441 2713 2670 2916 
Q 2900 3119 2900 3481 
Q 2900 3844 2670 4047 
Q 2441 4250 2034 4250 
Q 1625 4250 1398 4047 
Q 1172 3844 1172 3481 
z
" transform="scale(0.015625)"/>
       </defs>
       <use xlink:href="#DejaVuSans-38"/>
       <use xlink:href="#DejaVuSans-30" transform="translate(63.623047 0)"/>
       <use xlink:href="#DejaVuSans-30" transform="translate(127.246094 0)"/>
      </g>
     </g>
    </g>
    <g id="xtick_6">
     <g id="line2d_6">
      <g>
       <use xlink:href="#m0a149c1dfc" x="258.811523" y="188.6" style="stroke: #000000; stroke-width: 0.8"/>
      </g>
     </g>
     <g id="text_6">
      <!-- 1000 -->
      <g transform="translate(246.086523 203.198437) scale(0.1 -0.1)">
       <defs>
        <path id="DejaVuSans-31" d="M 794 531 
L 1825 531 
L 1825 4091 
L 703 3866 
L 703 4441 
L 1819 4666 
L 2450 4666 
L 2450 531 
L 3481 531 
L 3481 0 
L 794 0 
L 794 531 
z
" transform="scale(0.015625)"/>
       </defs>
       <use xlink:href="#DejaVuSans-31"/>
       <use xlink:href="#DejaVuSans-30" transform="translate(63.623047 0)"/>
       <use xlink:href="#DejaVuSans-30" transform="translate(127.246094 0)"/>
       <use xlink:href="#DejaVuSans-30" transform="translate(190.869141 0)"/>
      </g>
     </g>
    </g>
    <g id="text_7">
     <!-- q (nm) -->
     <g transform="translate(134.771094 216.876563) scale(0.1 -0.1)">
      <defs>
       <path id="DejaVuSans-71" d="M 947 1747 
Q 947 1113 1208 752 
Q 1469 391 1925 391 
Q 2381 391 2643 752 
Q 2906 1113 2906 1747 
Q 2906 2381 2643 2742 
Q 2381 3103 1925 3103 
Q 1469 3103 1208 2742 
Q 947 2381 947 1747 
z
M 2906 525 
Q 2725 213 2448 61 
Q 2172 -91 1784 -91 
Q 1150 -91 751 415 
Q 353 922 353 1747 
Q 353 2572 751 3078 
Q 1150 3584 1784 3584 
Q 2172 3584 2448 3432 
Q 2725 3281 2906 2969 
L 2906 3500 
L 3481 3500 
L 3481 -1331 
L 2906 -1331 
L 2906 525 
z
" transform="scale(0.015625)"/>
       <path id="DejaVuSans-20" transform="scale(0.015625)"/>
       <path id="DejaVuSans-28" d="M 1984 4856 
Q 1566 4138 1362 3434 
Q 1159 2731 1159 2009 
Q 1159 1288 1364 580 
Q 1569 -128 1984 -844 
L 1484 -844 
Q 1016 -109 783 600 
Q 550 1309 550 2009 
Q 550 2706 781 3412 
Q 1013 4119 1484 4856 
L 1984 4856 
z
" transform="scale(0.015625)"/>
       <path id="DejaVuSans-6e" d="M 3513 2113 
L 3513 0 
L 2938 0 
L 2938 2094 
Q 2938 2591 2744 2837 
Q 2550 3084 2163 3084 
Q 1697 3084 1428 2787 
Q 1159 2491 1159 1978 
L 1159 0 
L 581 0 
L 581 3500 
L 1159 3500 
L 1159 2956 
Q 1366 3272 1645 3428 
Q 1925 3584 2291 3584 
Q 2894 3584 3203 3211 
Q 3513 2838 3513 2113 
z
" transform="scale(0.015625)"/>
       <path id="DejaVuSans-6d" d="M 3328 2828 
Q 3544 3216 3844 3400 
Q 4144 3584 4550 3584 
Q 5097 3584 5394 3201 
Q 5691 2819 5691 2113 
L 5691 0 
L 5113 0 
L 5113 2094 
Q 5113 2597 4934 2840 
Q 4756 3084 4391 3084 
Q 3944 3084 3684 2787 
Q 3425 2491 3425 1978 
L 3425 0 
L 2847 0 
L 2847 2094 
Q 2847 2600 2669 2842 
Q 2491 3084 2119 3084 
Q 1678 3084 1418 2786 
Q 1159 2488 1159 1978 
L 1159 0 
L 581 0 
L 581 3500 
L 1159 3500 
L 1159 2956 
Q 1356 3278 1631 3431 
Q 1906 3584 2284 3584 
Q 2666 3584 2933 3390 
Q 3200 3197 3328 2828 
z
" transform="scale(0.015625)"/>
       <path id="DejaVuSans-29" d="M 513 4856 
L 1013 4856 
Q 1481 4119 1714 3412 
Q 1947 2706 1947 2009 
Q 1947 1309 1714 600 
Q 1481 -109 1013 -844 
L 513 -844 
Q 928 -128 1133 580 
Q 1338 1288 1338 2009 
Q 1338 2731 1133 3434 
Q 928 4138 513 4856 
z
" transform="scale(0.015625)"/>
      </defs>
      <use xlink:href="#DejaVuSans-71"/>
      <use xlink:href="#DejaVuSans-20" transform="translate(63.476562 0)"/>
      <use xlink:href="#DejaVuSans-28" transform="translate(95.263672 0)"/>
      <use xlink:href="#DejaVuSans-6e" transform="translate(134.277344 0)"/>
      <use xlink:href="#DejaVuSans-6d" transform="translate(197.65625 0)"/>
      <use xlink:href="#DejaVuSans-29" transform="translate(295.068359 0)"/>
     </g>
    </g>
   </g>
   <g id="matplotlib.axis_2">
    <g id="ytick_1">
     <g id="line2d_7">
      <defs>
       <path id="m1fe78374ea" d="M 0 0 
L -3.5 0 
" style="stroke: #000000; stroke-width: 0.8"/>
      </defs>
      <g>
       <use xlink:href="#m1fe78374ea" x="33.7" y="180.687273" style="stroke: #000000; stroke-width: 0.8"/>
      </g>
     </g>
     <g id="text_8">
      <!-- 0 -->
      <g transform="translate(20.3375 184.486491) scale(0.1 -0.1)">
       <use xlink:href="#DejaVuSans-30"/>
      </g>
     </g>
    </g>
    <g id="ytick_2">
     <g id="line2d_8">
      <g>
       <use xlink:href="#m1fe78374ea" x="33.7" y="142.665804" style="stroke: #000000; stroke-width: 0.8"/>
      </g>
     </g>
     <g id="text_9">
      <!-- 20000 -->
      <g transform="translate(-5.1125 146.465023) scale(0.1 -0.1)">
       <use xlink:href="#DejaVuSans-32"/>
       <use xlink:href="#DejaVuSans-30" transform="translate(63.623047 0)"/>
       <use xlink:href="#DejaVuSans-30" transform="translate(127.246094 0)"/>
       <use xlink:href="#DejaVuSans-30" transform="translate(190.869141 0)"/>
       <use xlink:href="#DejaVuSans-30" transform="translate(254.492188 0)"/>
      </g>
     </g>
    </g>
    <g id="ytick_3">
     <g id="line2d_9">
      <g>
       <use xlink:href="#m1fe78374ea" x="33.7" y="104.644336" style="stroke: #000000; stroke-width: 0.8"/>
      </g>
     </g>
     <g id="text_10">
      <!-- 40000 -->
      <g transform="translate(-5.1125 108.443554) scale(0.1 -0.1)">
       <use xlink:href="#DejaVuSans-34"/>
       <use xlink:href="#DejaVuSans-30" transform="translate(63.623047 0)"/>
       <use xlink:href="#DejaVuSans-30" transform="translate(127.246094 0)"/>
       <use xlink:href="#DejaVuSans-30" transform="translate(190.869141 0)"/>
       <use xlink:href="#DejaVuSans-30" transform="translate(254.492188 0)"/>
      </g>
     </g>
    </g>
    <g id="ytick_4">
     <g id="line2d_10">
      <g>
       <use xlink:href="#m1fe78374ea" x="33.7" y="66.622867" style="stroke: #000000; stroke-width: 0.8"/>
      </g>
     </g>
     <g id="text_11">
      <!-- 60000 -->
      <g transform="translate(-5.1125 70.422086) scale(0.1 -0.1)">
       <use xlink:href="#DejaVuSans-36"/>
       <use xlink:href="#DejaVuSans-30" transform="translate(63.623047 0)"/>
       <use xlink:href="#DejaVuSans-30" transform="translate(127.246094 0)"/>
       <use xlink:href="#DejaVuSans-30" transform="translate(190.869141 0)"/>
       <use xlink:href="#DejaVuSans-30" transform="translate(254.492188 0)"/>
      </g>
     </g>
    </g>
    <g id="ytick_5">
     <g id="line2d_11">
      <g>
       <use xlink:href="#m1fe78374ea" x="33.7" y="28.601399" style="stroke: #000000; stroke-width: 0.8"/>
      </g>
     </g>
     <g id="text_12">
      <!-- 80000 -->
      <g transform="translate(-5.1125 32.400617) scale(0.1 -0.1)">
       <use xlink:href="#DejaVuSans-38"/>
       <use xlink:href="#DejaVuSans-30" transform="translate(63.623047 0)"/>
       <use xlink:href="#DejaVuSans-30" transform="translate(127.246094 0)"/>
       <use xlink:href="#DejaVuSans-30" transform="translate(190.869141 0)"/>
       <use xlink:href="#DejaVuSans-30" transform="translate(254.492188 0)"/>
      </g>
     </g>
    </g>
    <g id="text_13">
     <!-- rdf -->
     <g transform="translate(-11.192187 108.462344) rotate(-90) scale(0.1 -0.1)">
      <defs>
       <path id="DejaVuSans-72" d="M 2631 2963 
Q 2534 3019 2420 3045 
Q 2306 3072 2169 3072 
Q 1681 3072 1420 2755 
Q 1159 2438 1159 1844 
L 1159 0 
L 581 0 
L 581 3500 
L 1159 3500 
L 1159 2956 
Q 1341 3275 1631 3429 
Q 1922 3584 2338 3584 
Q 2397 3584 2469 3576 
Q 2541 3569 2628 3553 
L 2631 2963 
z
" transform="scale(0.015625)"/>
       <path id="DejaVuSans-64" d="M 2906 2969 
L 2906 4863 
L 3481 4863 
L 3481 0 
L 2906 0 
L 2906 525 
Q 2725 213 2448 61 
Q 2172 -91 1784 -91 
Q 1150 -91 751 415 
Q 353 922 353 1747 
Q 353 2572 751 3078 
Q 1150 3584 1784 3584 
Q 2172 3584 2448 3432 
Q 2725 3281 2906 2969 
z
M 947 1747 
Q 947 1113 1208 752 
Q 1469 391 1925 391 
Q 2381 391 2643 752 
Q 2906 1113 2906 1747 
Q 2906 2381 2643 2742 
Q 2381 3103 1925 3103 
Q 1469 3103 1208 2742 
Q 947 2381 947 1747 
z
" transform="scale(0.015625)"/>
       <path id="DejaVuSans-66" d="M 2375 4863 
L 2375 4384 
L 1825 4384 
Q 1516 4384 1395 4259 
Q 1275 4134 1275 3809 
L 1275 3500 
L 2222 3500 
L 2222 3053 
L 1275 3053 
L 1275 0 
L 697 0 
L 697 3053 
L 147 3053 
L 147 3500 
L 697 3500 
L 697 3744 
Q 697 4328 969 4595 
Q 1241 4863 1831 4863 
L 2375 4863 
z
" transform="scale(0.015625)"/>
      </defs>
      <use xlink:href="#DejaVuSans-72"/>
      <use xlink:href="#DejaVuSans-64" transform="translate(39.363281 0)"/>
      <use xlink:href="#DejaVuSans-66" transform="translate(102.839844 0)"/>
     </g>
    </g>
   </g>
   <g id="line2d_12">
    <path d="M 44.406818 180.687273 
L 94.854984 180.584837 
L 95.391667 126.123183 
L 95.928349 22.432727 
L 96.465032 177.319254 
L 97.001715 179.555852 
L 97.538397 178.839283 
L 98.611762 174.738077 
L 99.148445 174.069961 
L 99.685128 174.026415 
L 100.758493 175.427216 
L 101.831858 179.024941 
L 103.441906 180.237758 
L 103.978589 180.392948 
L 104.515271 180.109042 
L 105.051954 180.616262 
L 105.588636 180.338394 
L 106.125319 179.864398 
L 106.662002 178.934854 
L 107.198684 178.765777 
L 107.735367 178.407201 
L 108.272049 177.292138 
L 108.808732 176.907255 
L 109.345415 177.898737 
L 109.882097 178.431758 
L 110.41878 178.468136 
L 110.955463 179.50693 
L 111.492145 179.235264 
L 112.028828 177.771816 
L 112.56551 175.172566 
L 113.638876 171.35959 
L 114.175558 170.803716 
L 114.712241 172.434705 
L 115.248923 175.685125 
L 115.785606 175.092525 
L 116.322289 175.175395 
L 116.858971 174.060676 
L 117.395654 171.898972 
L 117.932337 172.461789 
L 118.469019 173.867762 
L 119.005702 176.36257 
L 119.542384 178.231204 
L 120.079067 179.45369 
L 120.61575 180.371928 
L 122.225797 180.47122 
L 122.76248 180.261045 
L 123.835845 180.438378 
L 124.909211 180.364174 
L 125.445893 179.57131 
L 125.982576 179.153212 
L 126.519258 178.435479 
L 127.592624 175.579977 
L 128.129306 174.823345 
L 128.665989 173.791247 
L 129.202671 175.079631 
L 129.739354 174.933984 
L 130.276037 175.467099 
L 130.812719 177.460557 
L 131.349402 178.851214 
L 131.886085 179.729109 
L 132.422767 180.180192 
L 132.95945 180.152902 
L 133.496132 180.55528 
L 134.032815 180.132984 
L 134.569498 180.171762 
L 135.10618 179.986785 
L 135.642863 179.145342 
L 136.179545 176.45739 
L 137.252911 172.99879 
L 137.789593 174.01799 
L 138.326276 173.588866 
L 138.862959 172.024627 
L 139.399641 169.18944 
L 139.936324 169.088186 
L 141.009689 176.026352 
L 141.546372 178.549042 
L 142.619737 178.812733 
L 143.156419 178.026789 
L 143.693102 176.672998 
L 144.229785 176.347729 
L 145.30315 176.130382 
L 145.839833 170.242885 
L 146.376515 163.01691 
L 147.44988 176.367163 
L 147.986563 175.581016 
L 148.523246 173.940689 
L 149.059928 173.937731 
L 149.596611 174.077336 
L 150.133293 175.410526 
L 151.206659 178.98643 
L 151.743341 178.70753 
L 152.280024 178.073749 
L 152.816707 176.984082 
L 153.353389 177.550533 
L 153.890072 177.31865 
L 154.426754 178.499431 
L 154.963437 179.056878 
L 155.50012 179.242533 
L 156.036802 179.024881 
L 156.573485 178.144492 
L 157.110167 177.77634 
L 157.64685 177.619736 
L 158.183533 177.952428 
L 158.720215 179.001495 
L 159.256898 179.633521 
L 160.330263 180.296942 
L 160.866946 180.455223 
L 161.403628 180.342377 
L 161.940311 180.345513 
L 162.476994 180.179269 
L 163.013676 179.885521 
L 163.550359 179.209023 
L 164.087041 177.555728 
L 165.160407 175.344323 
L 165.697089 174.785119 
L 166.233772 175.225732 
L 166.770455 176.254605 
L 167.84382 177.054325 
L 168.380502 177.78549 
L 168.917185 177.691935 
L 169.453868 176.761184 
L 169.99055 176.362061 
L 170.527233 175.326593 
L 171.063915 174.864799 
L 171.600598 173.956886 
L 172.137281 173.771973 
L 172.673963 172.792997 
L 173.210646 173.522761 
L 173.747329 173.958416 
L 174.284011 175.756063 
L 174.820694 177.138753 
L 175.357376 177.99405 
L 175.894059 177.621313 
L 176.430742 177.781639 
L 176.967424 176.685037 
L 177.504107 177.428242 
L 178.040789 177.454315 
L 179.114155 177.05719 
L 180.18752 177.811763 
L 180.724203 178.964205 
L 182.33425 180.342364 
L 183.407616 180.37483 
L 183.944298 180.201979 
L 184.480981 179.79098 
L 186.091029 176.869148 
L 186.627711 176.326846 
L 187.701077 178.181582 
L 188.237759 178.314409 
L 188.774442 177.261402 
L 189.311124 174.673738 
L 189.847807 173.700323 
L 190.38449 173.689917 
L 190.921172 175.502017 
L 191.994537 176.553286 
L 192.53122 176.415623 
L 193.067903 177.075949 
L 193.604585 177.479258 
L 194.677951 178.722376 
L 195.214633 178.332275 
L 195.751316 176.480513 
L 196.287998 176.407694 
L 196.824681 177.488809 
L 197.361364 177.668295 
L 198.434729 175.828729 
L 198.971411 176.455836 
L 199.508094 176.812479 
L 200.581459 178.910936 
L 201.118142 179.607363 
L 201.654825 179.434175 
L 202.191507 178.957488 
L 202.72819 178.885372 
L 203.264872 178.033831 
L 204.87492 178.045925 
L 205.411603 178.225563 
L 205.948285 177.507234 
L 206.484968 177.258324 
L 207.021651 176.824034 
L 208.095016 176.38437 
L 208.631699 176.519528 
L 209.168381 176.227328 
L 209.705064 176.361934 
L 210.241746 176.704973 
L 210.778429 176.284621 
L 211.315112 176.906787 
L 211.851794 177.230705 
L 212.388477 177.308574 
L 212.925159 176.682602 
L 213.998525 176.81525 
L 215.07189 177.684352 
L 216.145255 178.523214 
L 216.681938 178.749065 
L 217.21862 178.761062 
L 217.755303 178.370858 
L 218.291986 178.24612 
L 219.365351 177.460719 
L 219.902033 177.454801 
L 220.438716 177.711806 
L 220.975399 177.65402 
L 221.512081 177.915192 
L 222.585447 178.792437 
L 223.658812 178.087404 
L 224.195494 177.070744 
L 224.732177 176.502436 
L 225.26886 176.36657 
L 225.805542 177.853088 
L 226.342225 178.877707 
L 226.878907 179.637886 
L 227.952273 179.969834 
L 228.488955 179.671638 
L 229.562321 179.369165 
L 231.172368 178.683756 
L 231.709051 178.567876 
L 232.245734 178.810802 
L 233.855781 178.944998 
L 234.392464 179.064005 
L 235.465829 179.63639 
L 236.002512 179.763942 
L 236.539195 179.569792 
L 237.61256 177.843534 
L 238.149242 176.781226 
L 238.685925 176.468621 
L 239.222608 175.030992 
L 239.75929 175.020651 
L 240.295973 174.599657 
L 241.369338 176.223619 
L 241.906021 177.534521 
L 242.442703 178.020587 
L 242.979386 178.254873 
L 243.516069 178.334228 
L 244.052751 177.305198 
L 244.589434 177.506899 
L 245.126116 177.295559 
L 245.662799 177.761272 
L 246.199482 178.570556 
L 246.736164 178.851356 
L 247.272847 178.99515 
L 248.346212 178.791749 
L 249.419577 177.911149 
L 249.95626 177.882067 
L 251.566308 178.256129 
L 252.10299 178.152906 
L 252.639673 177.868946 
L 253.176356 177.123645 
L 253.713038 176.871918 
L 254.249721 176.384081 
L 254.786404 176.322849 
L 255.859769 177.031201 
L 256.396451 177.552616 
L 256.933134 177.504392 
L 257.469817 177.636171 
L 258.006499 177.530502 
L 258.543182 177.643733 
L 258.543182 177.643733 
" clip-path="url(#pc00812e9e0)" style="fill: none; stroke: #000000; stroke-opacity: 0.5; stroke-width: 0.5; stroke-linecap: square"/>
   </g>
   <g id="line2d_13">
    <path d="M 44.406818 180.687273 
L 92.708254 180.687273 
L 93.244936 180.352655 
L 93.781619 180.687273 
L 94.318301 180.366817 
L 94.854984 180.373563 
L 95.391667 180.072925 
L 95.928349 178.882228 
L 96.465032 180.097869 
L 97.538397 175.027805 
L 98.611762 162.46786 
L 99.148445 160.421756 
L 99.685128 160.288393 
L 100.22181 162.729295 
L 100.758493 164.578347 
L 101.831858 175.596381 
L 103.441906 179.310635 
L 103.978589 179.785904 
L 104.515271 178.916441 
L 105.051954 180.469802 
L 105.588636 179.618831 
L 106.125319 178.377223 
L 106.662002 175.733318 
L 107.198684 174.802692 
L 107.735367 174.103564 
L 108.272049 170.485851 
L 108.808732 170.07566 
L 109.882097 174.153137 
L 110.41878 175.360594 
L 110.955463 178.337653 
L 111.492145 179.620046 
L 112.028828 179.811921 
L 112.56551 179.653265 
L 113.102193 179.669295 
L 113.638876 179.35085 
L 114.175558 179.864762 
L 114.712241 178.905167 
L 115.248923 177.495797 
L 116.322289 167.833597 
L 117.395654 155.126325 
L 117.932337 157.126704 
L 118.469019 160.240658 
L 119.005702 168.018712 
L 119.542384 173.591318 
L 120.079067 177.748948 
L 120.61575 179.721528 
L 121.152432 180.007035 
L 122.225797 180.290275 
L 122.76248 179.773547 
L 123.299163 180.429736 
L 123.835845 180.687273 
L 125.445893 180.199039 
L 125.982576 180.446347 
L 126.519258 180.568374 
L 127.055941 180.569908 
L 127.592624 180.687273 
L 128.129306 180.687273 
L 128.665989 180.4614 
L 129.202671 180.687273 
L 129.739354 180.687273 
L 130.276037 180.469765 
L 130.812719 180.579862 
L 131.349402 180.475087 
L 131.886085 180.582474 
L 132.422767 180.480215 
L 132.95945 180.073581 
L 133.496132 180.687273 
L 134.032815 179.888445 
L 134.569498 179.799224 
L 135.10618 178.834563 
L 135.642863 176.736074 
L 136.179545 168.400007 
L 137.252911 158.537296 
L 137.789593 164.218723 
L 138.326276 166.497883 
L 138.862959 164.67973 
L 139.399641 158.901998 
L 139.936324 158.178151 
L 140.473006 169.036088 
L 141.009689 175.785935 
L 141.546372 179.496667 
L 142.083054 179.677904 
L 142.619737 180.354474 
L 143.156419 179.94657 
L 143.693102 180.03595 
L 144.229785 180.365094 
L 144.766467 180.448209 
L 145.30315 180.214206 
L 145.839833 178.112794 
L 146.376515 166.25133 
L 146.913198 165.408565 
L 147.44988 179.477642 
L 147.986563 180.687273 
L 149.596611 180.469607 
L 150.133293 180.61545 
L 153.353389 180.687273 
L 153.890072 180.486304 
L 154.426754 180.620933 
L 155.50012 180.622206 
L 156.573485 180.368122 
L 157.110167 180.687273 
L 158.183533 180.625232 
L 160.330263 180.687273 
L 160.866946 180.50961 
L 161.940311 180.570979 
L 162.476994 180.399169 
L 163.013676 180.458867 
L 163.550359 180.177969 
L 164.087041 180.406853 
L 165.160407 179.915963 
L 166.233772 177.764287 
L 166.770455 174.946048 
L 167.307137 172.815183 
L 167.84382 172.672403 
L 168.380502 173.63018 
L 168.917185 174.934573 
L 169.453868 173.647786 
L 169.99055 173.503887 
L 171.063915 170.218881 
L 171.600598 167.227512 
L 172.137281 166.355112 
L 172.673963 164.423268 
L 173.747329 167.237399 
L 174.820694 175.820593 
L 175.894059 178.735 
L 176.430742 178.981342 
L 176.967424 177.805998 
L 177.504107 177.556936 
L 178.040789 177.131937 
L 178.577472 176.937039 
L 179.650837 179.325092 
L 180.18752 179.989748 
L 180.724203 180.25474 
L 181.260885 180.34395 
L 181.797568 180.133714 
L 182.33425 180.349262 
L 182.870933 180.435722 
L 183.944298 179.655181 
L 184.480981 178.843685 
L 185.017663 177.109467 
L 185.554346 176.692734 
L 186.091029 175.441436 
L 186.627711 175.282159 
L 187.164394 176.151022 
L 187.701077 177.59431 
L 188.774442 179.722959 
L 189.847807 180.155185 
L 190.38449 180.008172 
L 190.921172 179.676056 
L 191.457855 178.679543 
L 192.53122 175.813612 
L 193.067903 175.812283 
L 193.604585 175.955598 
L 194.141268 176.455586 
L 195.214633 178.530688 
L 195.751316 177.843841 
L 196.287998 176.260441 
L 196.824681 175.737705 
L 197.361364 174.775576 
L 197.898046 174.236543 
L 198.434729 172.756169 
L 198.971411 175.369126 
L 200.044777 177.101978 
L 200.581459 178.807989 
L 201.118142 179.115523 
L 201.654825 178.150547 
L 202.191507 176.391156 
L 202.72819 175.810615 
L 203.264872 174.441279 
L 204.87492 177.126807 
L 205.411603 177.833006 
L 205.948285 176.495861 
L 206.484968 176.646012 
L 207.021651 176.915897 
L 207.558333 178.23987 
L 208.095016 178.435968 
L 208.631699 178.808501 
L 209.705064 177.714203 
L 210.241746 177.236184 
L 210.778429 176.531913 
L 211.315112 178.204266 
L 212.388477 179.718107 
L 212.925159 180.347384 
L 213.461842 180.377681 
L 213.998525 180.295733 
L 214.535207 180.464942 
L 215.07189 180.411103 
L 215.608573 180.550051 
L 216.145255 180.414539 
L 216.681938 180.443337 
L 217.755303 180.125105 
L 218.291986 179.649674 
L 219.902033 176.116288 
L 220.438716 175.676768 
L 220.975399 175.784567 
L 221.512081 176.096276 
L 222.048764 178.061462 
L 222.585447 178.93879 
L 223.658812 178.759343 
L 224.195494 177.40192 
L 224.732177 175.714245 
L 225.26886 175.645281 
L 225.805542 177.386545 
L 226.342225 178.062211 
L 226.878907 179.43077 
L 227.41559 180.014653 
L 227.952273 180.257394 
L 228.488955 180.331122 
L 229.025638 179.955497 
L 229.562321 179.208712 
L 230.099003 178.097189 
L 230.635686 176.464888 
L 231.172368 175.358839 
L 231.709051 175.412183 
L 232.782416 178.306402 
L 233.319099 179.605047 
L 233.855781 179.992284 
L 234.929147 180.376928 
L 235.465829 180.158232 
L 236.002512 179.788546 
L 236.539195 178.899836 
L 237.075877 177.609138 
L 238.149242 175.842339 
L 238.685925 176.743164 
L 239.222608 176.5104 
L 239.75929 175.879595 
L 240.295973 174.333023 
L 240.832656 173.762837 
L 241.369338 174.837616 
L 241.906021 176.602337 
L 242.442703 177.670919 
L 242.979386 177.809627 
L 243.516069 177.6221 
L 244.052751 176.58865 
L 244.589434 176.831479 
L 245.126116 176.872002 
L 246.736164 179.625682 
L 247.272847 180.022396 
L 247.80953 179.909178 
L 248.346212 179.487564 
L 248.882895 178.415895 
L 249.419577 177.029933 
L 249.95626 177.201369 
L 250.492943 176.897333 
L 251.029625 177.708747 
L 251.566308 178.736846 
L 252.10299 179.418566 
L 252.639673 179.592141 
L 253.713038 178.666364 
L 254.786404 176.995697 
L 255.323086 176.59831 
L 256.396451 177.230597 
L 256.933134 176.85596 
L 258.543182 174.157417 
L 258.543182 174.157417 
" clip-path="url(#pc00812e9e0)" style="fill: none; stroke: #0000ff; stroke-opacity: 0.5; stroke-linecap: square"/>
   </g>
   <g id="line2d_14">
    <path d="M 44.406818 180.687273 
L 105.588636 180.687273 
L 106.662002 179.953354 
L 107.198684 180.687273 
L 107.735367 179.977917 
L 108.272049 180.338506 
L 108.808732 178.972265 
L 109.345415 180.349894 
L 109.882097 180.023488 
L 110.41878 178.401496 
L 110.955463 178.438064 
L 111.492145 174.679182 
L 112.028828 166.370411 
L 112.56551 152.500995 
L 113.638876 132.279085 
L 114.175558 128.63149 
L 114.712241 138.924811 
L 115.248923 159.127088 
L 115.785606 164.479044 
L 116.322289 173.529136 
L 116.858971 178.245895 
L 117.395654 178.281537 
L 117.932337 178.052968 
L 118.469019 179.908354 
L 119.005702 179.919481 
L 119.542384 180.434972 
L 120.079067 179.443537 
L 120.61575 180.687273 
L 121.689115 180.210221 
L 122.225797 180.216757 
L 123.835845 179.558028 
L 124.372528 180.018759 
L 124.909211 179.367954 
L 125.445893 175.913431 
L 125.982576 173.834261 
L 126.519258 170.118509 
L 127.055941 163.578154 
L 127.592624 160.295919 
L 128.129306 163.402589 
L 129.202671 175.929274 
L 129.739354 179.316871 
L 130.276037 179.913914 
L 130.812719 180.305367 
L 131.886085 180.687273 
L 132.422767 180.503221 
L 132.95945 180.687273 
L 133.496132 180.687273 
L 134.032815 180.332238 
L 134.569498 180.336439 
L 135.10618 180.51392 
L 135.642863 180.515947 
L 136.179545 180.687273 
L 136.716228 180.519897 
L 137.252911 180.687273 
L 137.789593 180.523712 
L 138.326276 180.687273 
L 138.862959 180.687273 
L 139.399641 180.529194 
L 139.936324 180.687273 
L 142.083054 180.687273 
L 142.619737 180.539362 
L 143.156419 180.540961 
L 143.693102 180.687273 
L 144.229785 179.971321 
L 144.766467 179.978937 
L 145.30315 176.902736 
L 145.839833 141.57601 
L 146.376515 122.360235 
L 146.913198 162.760256 
L 147.44988 178.268011 
L 147.986563 180.421237 
L 148.523246 180.687273 
L 149.596611 180.687273 
L 150.133293 180.559588 
L 150.669976 180.687273 
L 157.110167 180.687273 
L 157.64685 180.575933 
L 158.720215 180.687273 
L 160.866946 180.581991 
L 161.403628 180.478632 
L 161.940311 180.687273 
L 163.013676 180.585759 
L 163.550359 180.58667 
L 164.087041 180.388158 
L 164.623724 180.390817 
L 165.160407 180.589329 
L 165.697089 180.201866 
L 166.770455 180.305717 
L 167.307137 180.214475 
L 167.84382 179.281155 
L 168.380502 178.735682 
L 169.453868 172.557324 
L 169.99055 170.271648 
L 170.527233 167.486255 
L 171.063915 168.131882 
L 171.600598 168.325707 
L 172.137281 169.217168 
L 172.673963 166.968421 
L 173.210646 168.459982 
L 173.747329 168.304852 
L 174.820694 175.815344 
L 175.357376 178.021254 
L 176.430742 179.375806 
L 176.967424 177.516347 
L 177.504107 176.977245 
L 178.040789 175.56679 
L 178.577472 174.813891 
L 179.114155 175.726642 
L 179.650837 177.250085 
L 180.18752 177.742168 
L 180.724203 180.14901 
L 181.260885 179.924333 
L 181.797568 180.081671 
L 182.33425 180.386819 
L 182.870933 180.240072 
L 183.407616 180.465393 
L 183.944298 180.246914 
L 184.480981 180.468774 
L 185.017663 180.470436 
L 185.554346 180.328616 
L 186.091029 180.331321 
L 186.627711 180.051377 
L 187.164394 180.126268 
L 187.701077 179.434427 
L 188.237759 178.960144 
L 188.774442 177.39575 
L 189.311124 174.901555 
L 190.38449 164.120567 
L 190.921172 163.375912 
L 191.457855 161.915417 
L 191.994537 165.660558 
L 192.53122 167.006825 
L 193.067903 170.339036 
L 193.604585 172.403834 
L 194.677951 177.332351 
L 195.214633 178.801735 
L 195.751316 179.688756 
L 196.287998 180.253497 
L 196.824681 180.071942 
L 197.361364 180.565067 
L 197.898046 180.626596 
L 198.434729 180.566762 
L 199.508094 180.627847 
L 200.581459 180.511433 
L 201.118142 180.570847 
L 201.654825 180.513821 
L 202.191507 180.687273 
L 202.72819 180.630236 
L 203.264872 180.687273 
L 204.338238 180.519583 
L 204.87492 180.576225 
L 205.411603 180.301188 
L 205.948285 180.522904 
L 207.021651 178.686687 
L 207.558333 176.604912 
L 208.631699 174.219263 
L 209.168381 174.15591 
L 210.241746 178.295558 
L 210.778429 179.085829 
L 211.851794 180.12627 
L 212.388477 180.028494 
L 213.461842 178.78594 
L 213.998525 176.11309 
L 214.535207 175.746599 
L 215.07189 175.728496 
L 215.608573 175.369174 
L 216.681938 178.470774 
L 217.21862 179.394337 
L 218.291986 180.545379 
L 218.828668 180.640265 
L 220.438716 180.456507 
L 221.512081 180.550483 
L 222.048764 180.143416 
L 222.585447 179.515986 
L 223.658812 175.434847 
L 224.195494 172.678535 
L 225.26886 169.756127 
L 225.805542 172.863327 
L 226.342225 176.625449 
L 226.878907 178.754192 
L 227.41559 179.96127 
L 227.952273 180.644816 
L 228.488955 180.43401 
L 229.025638 180.603341 
L 230.099003 180.521341 
L 230.635686 180.481051 
L 231.709051 180.646499 
L 233.855781 180.448137 
L 234.392464 180.687273 
L 234.929147 180.490229 
L 235.465829 180.452144 
L 236.002512 180.180674 
L 236.539195 180.299753 
L 237.075877 179.916535 
L 237.61256 178.694466 
L 238.685925 173.031201 
L 239.222608 167.381591 
L 239.75929 167.379472 
L 240.295973 169.800932 
L 240.832656 174.161433 
L 241.369338 177.442073 
L 241.906021 179.146826 
L 242.442703 179.483467 
L 242.979386 179.235978 
L 243.516069 178.774642 
L 244.052751 175.913398 
L 244.589434 175.367706 
L 245.126116 174.36622 
L 245.662799 174.894383 
L 246.199482 178.122403 
L 246.736164 179.359193 
L 247.272847 180.061507 
L 247.80953 180.376035 
L 248.882895 180.44773 
L 249.419577 180.517065 
L 249.95626 180.280902 
L 250.492943 179.845064 
L 251.029625 179.078618 
L 251.566308 177.519914 
L 253.176356 169.755195 
L 253.713038 169.778451 
L 254.249721 169.216738 
L 254.786404 170.923895 
L 255.323086 174.189964 
L 255.859769 175.214921 
L 256.396451 177.40771 
L 256.933134 179.039907 
L 257.469817 179.741644 
L 258.006499 180.216829 
L 258.543182 180.281595 
L 258.543182 180.281595 
" clip-path="url(#pc00812e9e0)" style="fill: none; stroke: #ff0000; stroke-opacity: 0.5; stroke-linecap: square"/>
   </g>
   <g id="patch_3">
    <path d="M 33.7 188.6 
L 33.7 14.52 
" style="fill: none; stroke: #000000; stroke-width: 0.8; stroke-linejoin: miter; stroke-linecap: square"/>
   </g>
   <g id="patch_4">
    <path d="M 269.25 188.6 
L 269.25 14.52 
" style="fill: none; stroke: #000000; stroke-width: 0.8; stroke-linejoin: miter; stroke-linecap: square"/>
   </g>
   <g id="patch_5">
    <path d="M 33.7 188.6 
L 269.25 188.6 
" style="fill: none; stroke: #000000; stroke-width: 0.8; stroke-linejoin: miter; stroke-linecap: square"/>
   </g>
   <g id="patch_6">
    <path d="M 33.7 14.52 
L 269.25 14.52 
" style="fill: none; stroke: #000000; stroke-width: 0.8; stroke-linejoin: miter; stroke-linecap: square"/>
   </g>
   <g id="legend_1">
    <g id="patch_7">
     <path d="M 213.917188 66.554375 
L 262.25 66.554375 
Q 264.25 66.554375 264.25 64.554375 
L 264.25 21.52 
Q 264.25 19.52 262.25 19.52 
L 213.917188 19.52 
Q 211.917188 19.52 211.917188 21.52 
L 211.917188 64.554375 
Q 211.917188 66.554375 213.917188 66.554375 
z
" style="fill: #ffffff; opacity: 0.8; stroke: #cccccc; stroke-linejoin: miter"/>
    </g>
    <g id="line2d_15">
     <path d="M 215.917188 27.618438 
L 225.917188 27.618438 
L 235.917188 27.618438 
" style="fill: none; stroke: #000000; stroke-opacity: 0.5; stroke-width: 0.5; stroke-linecap: square"/>
    </g>
    <g id="text_14">
     <!-- all -->
     <g transform="translate(243.917188 31.118438) scale(0.1 -0.1)">
      <defs>
       <path id="DejaVuSans-61" d="M 2194 1759 
Q 1497 1759 1228 1600 
Q 959 1441 959 1056 
Q 959 750 1161 570 
Q 1363 391 1709 391 
Q 2188 391 2477 730 
Q 2766 1069 2766 1631 
L 2766 1759 
L 2194 1759 
z
M 3341 1997 
L 3341 0 
L 2766 0 
L 2766 531 
Q 2569 213 2275 61 
Q 1981 -91 1556 -91 
Q 1019 -91 701 211 
Q 384 513 384 1019 
Q 384 1609 779 1909 
Q 1175 2209 1959 2209 
L 2766 2209 
L 2766 2266 
Q 2766 2663 2505 2880 
Q 2244 3097 1772 3097 
Q 1472 3097 1187 3025 
Q 903 2953 641 2809 
L 641 3341 
Q 956 3463 1253 3523 
Q 1550 3584 1831 3584 
Q 2591 3584 2966 3190 
Q 3341 2797 3341 1997 
z
" transform="scale(0.015625)"/>
       <path id="DejaVuSans-6c" d="M 603 4863 
L 1178 4863 
L 1178 0 
L 603 0 
L 603 4863 
z
" transform="scale(0.015625)"/>
      </defs>
      <use xlink:href="#DejaVuSans-61"/>
      <use xlink:href="#DejaVuSans-6c" transform="translate(61.279297 0)"/>
      <use xlink:href="#DejaVuSans-6c" transform="translate(89.0625 0)"/>
     </g>
    </g>
    <g id="line2d_16">
     <path d="M 215.917188 42.296563 
L 225.917188 42.296563 
L 235.917188 42.296563 
" style="fill: none; stroke: #0000ff; stroke-opacity: 0.5; stroke-linecap: square"/>
    </g>
    <g id="text_15">
     <!-- 1-1 -->
     <g transform="translate(243.917188 45.796563) scale(0.1 -0.1)">
      <defs>
       <path id="DejaVuSans-2d" d="M 313 2009 
L 1997 2009 
L 1997 1497 
L 313 1497 
L 313 2009 
z
" transform="scale(0.015625)"/>
      </defs>
      <use xlink:href="#DejaVuSans-31"/>
      <use xlink:href="#DejaVuSans-2d" transform="translate(63.623047 0)"/>
      <use xlink:href="#DejaVuSans-31" transform="translate(99.707031 0)"/>
     </g>
    </g>
    <g id="line2d_17">
     <path d="M 215.917188 56.974688 
L 225.917188 56.974688 
L 235.917188 56.974688 
" style="fill: none; stroke: #ff0000; stroke-opacity: 0.5; stroke-linecap: square"/>
    </g>
    <g id="text_16">
     <!-- 2-2 -->
     <g transform="translate(243.917188 60.474688) scale(0.1 -0.1)">
      <use xlink:href="#DejaVuSans-32"/>
      <use xlink:href="#DejaVuSans-2d" transform="translate(63.623047 0)"/>
      <use xlink:href="#DejaVuSans-32" transform="translate(99.707031 0)"/>
     </g>
    </g>
   </g>
  </g>
 </g>
 <defs>
  <clipPath id="pc00812e9e0">
   <rect x="33.7" y="14.52" width="235.55" height="174.08"/>
  </clipPath>
 </defs>
</svg>
