<?xml version="1.0" encoding="utf-8" standalone="no"?>
<!DOCTYPE svg PUBLIC "-//W3C//DTD SVG 1.1//EN"
  "http://www.w3.org/Graphics/SVG/1.1/DTD/svg11.dtd">
<svg xmlns:xlink="http://www.w3.org/1999/xlink" width="288pt" height="216pt" viewBox="0 0 288 216" xmlns="http://www.w3.org/2000/svg" version="1.1">
 <metadata>
  <rdf:RDF xmlns:dc="http://purl.org/dc/elements/1.1/" xmlns:cc="http://creativecommons.org/ns#" xmlns:rdf="http://www.w3.org/1999/02/22-rdf-syntax-ns#">
   <cc:Work>
    <dc:type rdf:resource="http://purl.org/dc/dcmitype/StillImage"/>
    <dc:date>2025-09-17T22:23:16.369243</dc:date>
    <dc:format>image/svg+xml</dc:format>
    <dc:creator>
     <cc:Agent>
      <dc:title>Matplotlib v3.10.0, https://matplotlib.org/</dc:title>
     </cc:Agent>
    </dc:creator>
   </cc:Work>
  </rdf:RDF>
 </metadata>
 <defs>
  <style type="text/css">*{stroke-linejoin: round; stroke-linecap: butt}</style>
 </defs>
 <g id="figure_1">
  <g id="patch_1">
   <path d="M 0 216 
L 288 216 
L 288 0 
L 0 0 
z
" style="fill: #ffffff"/>
  </g>
  <g id="axes_1">
   <g id="patch_2">
    <path d="M 33.7 188.6 
L 269.25 188.6 
L 269.25 14.52 
L 33.7 14.52 
z
" style="fill: #ffffff"/>
   </g>
   <g id="matplotlib.axis_1">
    <g id="xtick_1">
     <g id="line2d_1">
      <defs>
       <path id="m4fb9502abb" d="M 0 0 
L 0 3.5 
" style="stroke: #000000; stroke-width: 0.8"/>
      </defs>
      <g>
       <use xlink:href="#m4fb9502abb" x="44.138477" y="188.6" style="stroke: #000000; stroke-width: 0.8"/>
      </g>
     </g>
     <g id="text_1">
      <!-- 0 -->
      <g transform="translate(40.957227 203.198437) scale(0.1 -0.1)">
       <defs>
        <path id="DejaVuSans-30" d="M 2034 4250 
Q 1547 4250 1301 3770 
Q 1056 3291 1056 2328 
Q 1056 1369 1301 889 
Q 1547 409 2034 409 
Q 2525 409 2770 889 
Q 3016 1369 3016 2328 
Q 3016 3291 2770 3770 
Q 2525 4250 2034 4250 
z
M 2034 4750 
Q 2819 4750 3233 4129 
Q 3647 3509 3647 2328 
Q 3647 1150 3233 529 
Q 2819 -91 2034 -91 
Q 1250 -91 836 529 
Q 422 1150 422 2328 
Q 422 3509 836 4129 
Q 1250 4750 2034 4750 
z
" transform="scale(0.015625)"/>
       </defs>
       <use xlink:href="#DejaVuSans-30"/>
      </g>
     </g>
    </g>
    <g id="xtick_2">
     <g id="line2d_2">
      <g>
       <use xlink:href="#m4fb9502abb" x="87.073086" y="188.6" style="stroke: #000000; stroke-width: 0.8"/>
      </g>
     </g>
     <g id="text_2">
      <!-- 200 -->
      <g transform="translate(77.529336 203.198437) scale(0.1 -0.1)">
       <defs>
        <path id="DejaVuSans-32" d="M 1228 531 
L 3431 531 
L 3431 0 
L 469 0 
L 469 531 
Q 828 903 1448 1529 
Q 2069 2156 2228 2338 
Q 2531 2678 2651 2914 
Q 2772 3150 2772 3378 
Q 2772 3750 2511 3984 
Q 2250 4219 1831 4219 
Q 1534 4219 1204 4116 
Q 875 4013 500 3803 
L 500 4441 
Q 881 4594 1212 4672 
Q 1544 4750 1819 4750 
Q 2544 4750 2975 4387 
Q 3406 4025 3406 3419 
Q 3406 3131 3298 2873 
Q 3191 2616 2906 2266 
Q 2828 2175 2409 1742 
Q 1991 1309 1228 531 
z
" transform="scale(0.015625)"/>
       </defs>
       <use xlink:href="#DejaVuSans-32"/>
       <use xlink:href="#DejaVuSans-30" transform="translate(63.623047 0)"/>
       <use xlink:href="#DejaVuSans-30" transform="translate(127.246094 0)"/>
      </g>
     </g>
    </g>
    <g id="xtick_3">
     <g id="line2d_3">
      <g>
       <use xlink:href="#m4fb9502abb" x="130.007695" y="188.6" style="stroke: #000000; stroke-width: 0.8"/>
      </g>
     </g>
     <g id="text_3">
      <!-- 400 -->
      <g transform="translate(120.463945 203.198437) scale(0.1 -0.1)">
       <defs>
        <path id="DejaVuSans-34" d="M 2419 4116 
L 825 1625 
L 2419 1625 
L 2419 4116 
z
M 2253 4666 
L 3047 4666 
L 3047 1625 
L 3713 1625 
L 3713 1100 
L 3047 1100 
L 3047 0 
L 2419 0 
L 2419 1100 
L 313 1100 
L 313 1709 
L 2253 4666 
z
" transform="scale(0.015625)"/>
       </defs>
       <use xlink:href="#DejaVuSans-34"/>
       <use xlink:href="#DejaVuSans-30" transform="translate(63.623047 0)"/>
       <use xlink:href="#DejaVuSans-30" transform="translate(127.246094 0)"/>
      </g>
     </g>
    </g>
    <g id="xtick_4">
     <g id="line2d_4">
      <g>
       <use xlink:href="#m4fb9502abb" x="172.942305" y="188.6" style="stroke: #000000; stroke-width: 0.8"/>
      </g>
     </g>
     <g id="text_4">
      <!-- 600 -->
      <g transform="translate(163.398555 203.198437) scale(0.1 -0.1)">
       <defs>
        <path id="DejaVuSans-36" d="M 2113 2584 
Q 1688 2584 1439 2293 
Q 1191 2003 1191 1497 
Q 1191 994 1439 701 
Q 1688 409 2113 409 
Q 2538 409 2786 701 
Q 3034 994 3034 1497 
Q 3034 2003 2786 2293 
Q 2538 2584 2113 2584 
z
M 3366 4563 
L 3366 3988 
Q 3128 4100 2886 4159 
Q 2644 4219 2406 4219 
Q 1781 4219 1451 3797 
Q 1122 3375 1075 2522 
Q 1259 2794 1537 2939 
Q 1816 3084 2150 3084 
Q 2853 3084 3261 2657 
Q 3669 2231 3669 1497 
Q 3669 778 3244 343 
Q 2819 -91 2113 -91 
Q 1303 -91 875 529 
Q 447 1150 447 2328 
Q 447 3434 972 4092 
Q 1497 4750 2381 4750 
Q 2619 4750 2861 4703 
Q 3103 4656 3366 4563 
z
" transform="scale(0.015625)"/>
       </defs>
       <use xlink:href="#DejaVuSans-36"/>
       <use xlink:href="#DejaVuSans-30" transform="translate(63.623047 0)"/>
       <use xlink:href="#DejaVuSans-30" transform="translate(127.246094 0)"/>
      </g>
     </g>
    </g>
    <g id="xtick_5">
     <g id="line2d_5">
      <g>
       <use xlink:href="#m4fb9502abb" x="215.876914" y="188.6" style="stroke: #000000; stroke-width: 0.8"/>
      </g>
     </g>
     <g id="text_5">
      <!-- 800 -->
      <g transform="translate(206.333164 203.198437) scale(0.1 -0.1)">
       <defs>
        <path id="DejaVuSans-38" d="M 2034 2216 
Q 1584 2216 1326 1975 
Q 1069 1734 1069 1313 
Q 1069 891 1326 650 
Q 1584 409 2034 409 
Q 2484 409 2743 651 
Q 3003 894 3003 1313 
Q 3003 1734 2745 1975 
Q 2488 2216 2034 2216 
z
M 1403 2484 
Q 997 2584 770 2862 
Q 544 3141 544 3541 
Q 544 4100 942 4425 
Q 1341 4750 2034 4750 
Q 2731 4750 3128 4425 
Q 3525 4100 3525 3541 
Q 3525 3141 3298 2862 
Q 3072 2584 2669 2484 
Q 3125 2378 3379 2068 
Q 3634 1759 3634 1313 
Q 3634 634 3220 271 
Q 2806 -91 2034 -91 
Q 1263 -91 848 271 
Q 434 634 434 1313 
Q 434 1759 690 2068 
Q 947 2378 1403 2484 
z
M 1172 3481 
Q 1172 3119 1398 2916 
Q 1625 2713 2034 2713 
Q 2441 2713 2670 2916 
Q 2900 3119 2900 3481 
Q 2900 3844 2670 4047 
Q 2441 4250 2034 4250 
Q 1625 4250 1398 4047 
Q 1172 3844 1172 3481 
z
" transform="scale(0.015625)"/>
       </defs>
       <use xlink:href="#DejaVuSans-38"/>
       <use xlink:href="#DejaVuSans-30" transform="translate(63.623047 0)"/>
       <use xlink:href="#DejaVuSans-30" transform="translate(127.246094 0)"/>
      </g>
     </g>
    </g>
    <g id="xtick_6">
     <g id="line2d_6">
      <g>
       <use xlink:href="#m4fb9502abb" x="258.811523" y="188.6" style="stroke: #000000; stroke-width: 0.8"/>
      </g>
     </g>
     <g id="text_6">
      <!-- 1000 -->
      <g transform="translate(246.086523 203.198437) scale(0.1 -0.1)">
       <defs>
        <path id="DejaVuSans-31" d="M 794 531 
L 1825 531 
L 1825 4091 
L 703 3866 
L 703 4441 
L 1819 4666 
L 2450 4666 
L 2450 531 
L 3481 531 
L 3481 0 
L 794 0 
L 794 531 
z
" transform="scale(0.015625)"/>
       </defs>
       <use xlink:href="#DejaVuSans-31"/>
       <use xlink:href="#DejaVuSans-30" transform="translate(63.623047 0)"/>
       <use xlink:href="#DejaVuSans-30" transform="translate(127.246094 0)"/>
       <use xlink:href="#DejaVuSans-30" transform="translate(190.869141 0)"/>
      </g>
     </g>
    </g>
    <g id="text_7">
     <!-- q (nm) -->
     <g transform="translate(134.771094 216.876563) scale(0.1 -0.1)">
      <defs>
       <path id="DejaVuSans-71" d="M 947 1747 
Q 947 1113 1208 752 
Q 1469 391 1925 391 
Q 2381 391 2643 752 
Q 2906 1113 2906 1747 
Q 2906 2381 2643 2742 
Q 2381 3103 1925 3103 
Q 1469 3103 1208 2742 
Q 947 2381 947 1747 
z
M 2906 525 
Q 2725 213 2448 61 
Q 2172 -91 1784 -91 
Q 1150 -91 751 415 
Q 353 922 353 1747 
Q 353 2572 751 3078 
Q 1150 3584 1784 3584 
Q 2172 3584 2448 3432 
Q 2725 3281 2906 2969 
L 2906 3500 
L 3481 3500 
L 3481 -1331 
L 2906 -1331 
L 2906 525 
z
" transform="scale(0.015625)"/>
       <path id="DejaVuSans-20" transform="scale(0.015625)"/>
       <path id="DejaVuSans-28" d="M 1984 4856 
Q 1566 4138 1362 3434 
Q 1159 2731 1159 2009 
Q 1159 1288 1364 580 
Q 1569 -128 1984 -844 
L 1484 -844 
Q 1016 -109 783 600 
Q 550 1309 550 2009 
Q 550 2706 781 3412 
Q 1013 4119 1484 4856 
L 1984 4856 
z
" transform="scale(0.015625)"/>
       <path id="DejaVuSans-6e" d="M 3513 2113 
L 3513 0 
L 2938 0 
L 2938 2094 
Q 2938 2591 2744 2837 
Q 2550 3084 2163 3084 
Q 1697 3084 1428 2787 
Q 1159 2491 1159 1978 
L 1159 0 
L 581 0 
L 581 3500 
L 1159 3500 
L 1159 2956 
Q 1366 3272 1645 3428 
Q 1925 3584 2291 3584 
Q 2894 3584 3203 3211 
Q 3513 2838 3513 2113 
z
" transform="scale(0.015625)"/>
       <path id="DejaVuSans-6d" d="M 3328 2828 
Q 3544 3216 3844 3400 
Q 4144 3584 4550 3584 
Q 5097 3584 5394 3201 
Q 5691 2819 5691 2113 
L 5691 0 
L 5113 0 
L 5113 2094 
Q 5113 2597 4934 2840 
Q 4756 3084 4391 3084 
Q 3944 3084 3684 2787 
Q 3425 2491 3425 1978 
L 3425 0 
L 2847 0 
L 2847 2094 
Q 2847 2600 2669 2842 
Q 2491 3084 2119 3084 
Q 1678 3084 1418 2786 
Q 1159 2488 1159 1978 
L 1159 0 
L 581 0 
L 581 3500 
L 1159 3500 
L 1159 2956 
Q 1356 3278 1631 3431 
Q 1906 3584 2284 3584 
Q 2666 3584 2933 3390 
Q 3200 3197 3328 2828 
z
" transform="scale(0.015625)"/>
       <path id="DejaVuSans-29" d="M 513 4856 
L 1013 4856 
Q 1481 4119 1714 3412 
Q 1947 2706 1947 2009 
Q 1947 1309 1714 600 
Q 1481 -109 1013 -844 
L 513 -844 
Q 928 -128 1133 580 
Q 1338 1288 1338 2009 
Q 1338 2731 1133 3434 
Q 928 4138 513 4856 
z
" transform="scale(0.015625)"/>
      </defs>
      <use xlink:href="#DejaVuSans-71"/>
      <use xlink:href="#DejaVuSans-20" transform="translate(63.476562 0)"/>
      <use xlink:href="#DejaVuSans-28" transform="translate(95.263672 0)"/>
      <use xlink:href="#DejaVuSans-6e" transform="translate(134.277344 0)"/>
      <use xlink:href="#DejaVuSans-6d" transform="translate(197.65625 0)"/>
      <use xlink:href="#DejaVuSans-29" transform="translate(295.068359 0)"/>
     </g>
    </g>
   </g>
   <g id="matplotlib.axis_2">
    <g id="ytick_1">
     <g id="line2d_7">
      <defs>
       <path id="m0f3dac471d" d="M 0 0 
L -3.5 0 
" style="stroke: #000000; stroke-width: 0.8"/>
      </defs>
      <g>
       <use xlink:href="#m0f3dac471d" x="33.7" y="180.687273" style="stroke: #000000; stroke-width: 0.8"/>
      </g>
     </g>
     <g id="text_8">
      <!-- 0 -->
      <g transform="translate(20.3375 184.486491) scale(0.1 -0.1)">
       <use xlink:href="#DejaVuSans-30"/>
      </g>
     </g>
    </g>
    <g id="ytick_2">
     <g id="line2d_8">
      <g>
       <use xlink:href="#m0f3dac471d" x="33.7" y="155.203188" style="stroke: #000000; stroke-width: 0.8"/>
      </g>
     </g>
     <g id="text_9">
      <!-- 100 -->
      <g transform="translate(7.6125 159.002407) scale(0.1 -0.1)">
       <use xlink:href="#DejaVuSans-31"/>
       <use xlink:href="#DejaVuSans-30" transform="translate(63.623047 0)"/>
       <use xlink:href="#DejaVuSans-30" transform="translate(127.246094 0)"/>
      </g>
     </g>
    </g>
    <g id="ytick_3">
     <g id="line2d_9">
      <g>
       <use xlink:href="#m0f3dac471d" x="33.7" y="129.719104" style="stroke: #000000; stroke-width: 0.8"/>
      </g>
     </g>
     <g id="text_10">
      <!-- 200 -->
      <g transform="translate(7.6125 133.518323) scale(0.1 -0.1)">
       <use xlink:href="#DejaVuSans-32"/>
       <use xlink:href="#DejaVuSans-30" transform="translate(63.623047 0)"/>
       <use xlink:href="#DejaVuSans-30" transform="translate(127.246094 0)"/>
      </g>
     </g>
    </g>
    <g id="ytick_4">
     <g id="line2d_10">
      <g>
       <use xlink:href="#m0f3dac471d" x="33.7" y="104.23502" style="stroke: #000000; stroke-width: 0.8"/>
      </g>
     </g>
     <g id="text_11">
      <!-- 300 -->
      <g transform="translate(7.6125 108.034239) scale(0.1 -0.1)">
       <defs>
        <path id="DejaVuSans-33" d="M 2597 2516 
Q 3050 2419 3304 2112 
Q 3559 1806 3559 1356 
Q 3559 666 3084 287 
Q 2609 -91 1734 -91 
Q 1441 -91 1130 -33 
Q 819 25 488 141 
L 488 750 
Q 750 597 1062 519 
Q 1375 441 1716 441 
Q 2309 441 2620 675 
Q 2931 909 2931 1356 
Q 2931 1769 2642 2001 
Q 2353 2234 1838 2234 
L 1294 2234 
L 1294 2753 
L 1863 2753 
Q 2328 2753 2575 2939 
Q 2822 3125 2822 3475 
Q 2822 3834 2567 4026 
Q 2313 4219 1838 4219 
Q 1578 4219 1281 4162 
Q 984 4106 628 3988 
L 628 4550 
Q 988 4650 1302 4700 
Q 1616 4750 1894 4750 
Q 2613 4750 3031 4423 
Q 3450 4097 3450 3541 
Q 3450 3153 3228 2886 
Q 3006 2619 2597 2516 
z
" transform="scale(0.015625)"/>
       </defs>
       <use xlink:href="#DejaVuSans-33"/>
       <use xlink:href="#DejaVuSans-30" transform="translate(63.623047 0)"/>
       <use xlink:href="#DejaVuSans-30" transform="translate(127.246094 0)"/>
      </g>
     </g>
    </g>
    <g id="ytick_5">
     <g id="line2d_11">
      <g>
       <use xlink:href="#m0f3dac471d" x="33.7" y="78.750936" style="stroke: #000000; stroke-width: 0.8"/>
      </g>
     </g>
     <g id="text_12">
      <!-- 400 -->
      <g transform="translate(7.6125 82.550155) scale(0.1 -0.1)">
       <use xlink:href="#DejaVuSans-34"/>
       <use xlink:href="#DejaVuSans-30" transform="translate(63.623047 0)"/>
       <use xlink:href="#DejaVuSans-30" transform="translate(127.246094 0)"/>
      </g>
     </g>
    </g>
    <g id="ytick_6">
     <g id="line2d_12">
      <g>
       <use xlink:href="#m0f3dac471d" x="33.7" y="53.266852" style="stroke: #000000; stroke-width: 0.8"/>
      </g>
     </g>
     <g id="text_13">
      <!-- 500 -->
      <g transform="translate(7.6125 57.06607) scale(0.1 -0.1)">
       <defs>
        <path id="DejaVuSans-35" d="M 691 4666 
L 3169 4666 
L 3169 4134 
L 1269 4134 
L 1269 2991 
Q 1406 3038 1543 3061 
Q 1681 3084 1819 3084 
Q 2600 3084 3056 2656 
Q 3513 2228 3513 1497 
Q 3513 744 3044 326 
Q 2575 -91 1722 -91 
Q 1428 -91 1123 -41 
Q 819 9 494 109 
L 494 744 
Q 775 591 1075 516 
Q 1375 441 1709 441 
Q 2250 441 2565 725 
Q 2881 1009 2881 1497 
Q 2881 1984 2565 2268 
Q 2250 2553 1709 2553 
Q 1456 2553 1204 2497 
Q 953 2441 691 2322 
L 691 4666 
z
" transform="scale(0.015625)"/>
       </defs>
       <use xlink:href="#DejaVuSans-35"/>
       <use xlink:href="#DejaVuSans-30" transform="translate(63.623047 0)"/>
       <use xlink:href="#DejaVuSans-30" transform="translate(127.246094 0)"/>
      </g>
     </g>
    </g>
    <g id="ytick_7">
     <g id="line2d_13">
      <g>
       <use xlink:href="#m0f3dac471d" x="33.7" y="27.782767" style="stroke: #000000; stroke-width: 0.8"/>
      </g>
     </g>
     <g id="text_14">
      <!-- 600 -->
      <g transform="translate(7.6125 31.581986) scale(0.1 -0.1)">
       <use xlink:href="#DejaVuSans-36"/>
       <use xlink:href="#DejaVuSans-30" transform="translate(63.623047 0)"/>
       <use xlink:href="#DejaVuSans-30" transform="translate(127.246094 0)"/>
      </g>
     </g>
    </g>
    <g id="text_15">
     <!-- rdf -->
     <g transform="translate(1.532813 108.462344) rotate(-90) scale(0.1 -0.1)">
      <defs>
       <path id="DejaVuSans-72" d="M 2631 2963 
Q 2534 3019 2420 3045 
Q 2306 3072 2169 3072 
Q 1681 3072 1420 2755 
Q 1159 2438 1159 1844 
L 1159 0 
L 581 0 
L 581 3500 
L 1159 3500 
L 1159 2956 
Q 1341 3275 1631 3429 
Q 1922 3584 2338 3584 
Q 2397 3584 2469 3576 
Q 2541 3569 2628 3553 
L 2631 2963 
z
" transform="scale(0.015625)"/>
       <path id="DejaVuSans-64" d="M 2906 2969 
L 2906 4863 
L 3481 4863 
L 3481 0 
L 2906 0 
L 2906 525 
Q 2725 213 2448 61 
Q 2172 -91 1784 -91 
Q 1150 -91 751 415 
Q 353 922 353 1747 
Q 353 2572 751 3078 
Q 1150 3584 1784 3584 
Q 2172 3584 2448 3432 
Q 2725 3281 2906 2969 
z
M 947 1747 
Q 947 1113 1208 752 
Q 1469 391 1925 391 
Q 2381 391 2643 752 
Q 2906 1113 2906 1747 
Q 2906 2381 2643 2742 
Q 2381 3103 1925 3103 
Q 1469 3103 1208 2742 
Q 947 2381 947 1747 
z
" transform="scale(0.015625)"/>
       <path id="DejaVuSans-66" d="M 2375 4863 
L 2375 4384 
L 1825 4384 
Q 1516 4384 1395 4259 
Q 1275 4134 1275 3809 
L 1275 3500 
L 2222 3500 
L 2222 3053 
L 1275 3053 
L 1275 0 
L 697 0 
L 697 3053 
L 147 3053 
L 147 3500 
L 697 3500 
L 697 3744 
Q 697 4328 969 4595 
Q 1241 4863 1831 4863 
L 2375 4863 
z
" transform="scale(0.015625)"/>
      </defs>
      <use xlink:href="#DejaVuSans-72"/>
      <use xlink:href="#DejaVuSans-64" transform="translate(39.363281 0)"/>
      <use xlink:href="#DejaVuSans-66" transform="translate(102.839844 0)"/>
     </g>
    </g>
   </g>
   <g id="line2d_14">
    <path d="M 44.406818 180.687273 
L 91.634888 180.687273 
L 92.171571 150.069815 
L 92.708254 165.715001 
L 93.244936 151.393663 
L 93.781619 152.023616 
L 94.318301 180.687273 
L 94.854984 153.224042 
L 95.391667 167.241735 
L 95.928349 154.350608 
L 96.465032 129.08883 
L 97.001715 155.409251 
L 97.538397 168.30103 
L 98.07508 144.264347 
L 98.611762 168.784351 
L 99.148445 157.343658 
L 99.685128 169.239902 
L 100.22181 146.999321 
L 100.758493 147.634961 
L 101.295175 159.064269 
L 101.831858 148.85338 
L 102.368541 170.270655 
L 102.905223 129.551134 
L 103.978589 151.096411 
L 104.515271 93.485788 
L 105.051954 152.130032 
L 106.662002 126.476451 
L 107.198684 136.277196 
L 107.735367 128.290816 
L 108.272049 129.164101 
L 108.808732 113.125239 
L 109.345415 155.766867 
L 109.882097 156.17208 
L 110.41878 140.487608 
L 110.955463 164.864659 
L 111.492145 157.330077 
L 112.028828 119.382185 
L 112.56551 142.97033 
L 113.102193 150.981502 
L 113.638876 144.126295 
L 114.175558 151.88508 
L 114.712241 145.230052 
L 115.248923 166.717625 
L 115.785606 166.926141 
L 116.322289 140.015373 
L 116.858971 160.650384 
L 117.395654 134.617076 
L 117.932337 161.229018 
L 118.469019 161.509039 
L 119.005702 136.577316 
L 119.542384 162.05113 
L 120.079067 125.566279 
L 120.61575 150.492747 
L 121.152432 144.957051 
L 121.689115 145.449935 
L 122.225797 128.555394 
L 122.76248 117.837368 
L 123.299163 158.141577 
L 123.835845 152.883435 
L 124.372528 164.227384 
L 124.909211 169.859351 
L 125.982576 149.049983 
L 126.519258 149.460868 
L 127.055941 155.001042 
L 127.592624 145.187511 
L 128.129306 140.632978 
L 128.665989 155.970178 
L 129.202671 136.756162 
L 129.739354 127.664917 
L 130.276037 147.364908 
L 131.886085 134.81484 
L 132.422767 148.96574 
L 132.95945 135.916672 
L 133.496132 114.335717 
L 134.032815 154.462697 
L 134.569498 150.453927 
L 135.10618 142.273208 
L 135.642863 155.377388 
L 136.179545 118.148293 
L 136.716228 143.597653 
L 137.789593 160.551591 
L 138.326276 160.780394 
L 138.862959 153.132507 
L 139.399641 141.76565 
L 139.936324 142.200403 
L 140.473006 150.23994 
L 141.009689 143.048646 
L 141.546372 158.352308 
L 142.083054 162.278166 
L 142.619737 136.985716 
L 143.156419 159.072697 
L 143.693102 137.922964 
L 144.229785 148.957072 
L 144.766467 152.782661 
L 145.30315 149.626799 
L 145.839833 126.049965 
L 146.376515 150.275617 
L 146.913198 133.872956 
L 147.44988 144.285749 
L 147.986563 157.761472 
L 148.523246 151.513516 
L 149.059928 155.01967 
L 149.596611 161.632031 
L 150.133293 152.39314 
L 150.669976 152.677468 
L 151.206659 131.390024 
L 151.743341 153.233493 
L 152.280024 138.404193 
L 152.816707 141.811282 
L 153.353389 156.998081 
L 153.890072 148.432464 
L 154.426754 142.938044 
L 155.50012 143.662343 
L 156.036802 149.658184 
L 156.573485 149.953783 
L 157.110167 164.082443 
L 157.64685 150.532138 
L 158.183533 139.952973 
L 158.720215 140.333648 
L 159.256898 164.695976 
L 159.793581 146.360243 
L 160.330263 157.141376 
L 160.866946 146.988627 
L 161.403628 165.276066 
L 161.940311 142.509536 
L 162.476994 163.032143 
L 163.013676 140.696349 
L 163.550359 155.917162 
L 164.087041 146.31876 
L 164.623724 163.655732 
L 165.160407 146.925687 
L 166.233772 166.471251 
L 166.770455 145.457809 
L 167.307137 169.046219 
L 167.84382 159.914742 
L 168.380502 153.229375 
L 168.917185 153.465028 
L 169.453868 155.946851 
L 170.527233 147.520905 
L 171.600598 135.033012 
L 172.137281 146.194139 
L 172.673963 144.343825 
L 173.210646 146.765505 
L 173.747329 140.738105 
L 174.284011 151.493354 
L 174.820694 131.05082 
L 175.357376 151.969036 
L 175.894059 154.237096 
L 176.430742 138.306093 
L 176.967424 160.668472 
L 177.504107 148.914442 
L 178.040789 157.048292 
L 178.577472 139.648689 
L 179.114155 136.096938 
L 179.650837 155.683216 
L 180.18752 152.063629 
L 180.724203 144.715132 
L 181.260885 146.874611 
L 181.797568 152.729326 
L 182.33425 132.602489 
L 182.870933 143.984572 
L 183.407616 158.83511 
L 183.944298 155.388455 
L 184.480981 144.821912 
L 185.017663 145.094808 
L 185.554346 143.598306 
L 186.091029 150.889326 
L 186.627711 154.592641 
L 187.164394 147.881768 
L 187.701077 154.981367 
L 188.237759 138.162578 
L 188.774442 153.673066 
L 189.311124 145.492825 
L 189.847807 155.733248 
L 190.38449 154.264659 
L 190.921172 146.260704 
L 191.457855 148.138438 
L 191.994537 145.14315 
L 192.53122 140.587901 
L 193.067903 155.208242 
L 193.604585 155.390942 
L 194.141268 149.292634 
L 194.677951 158.867455 
L 195.214633 155.92728 
L 195.751316 162.248457 
L 196.287998 150.172279 
L 196.824681 145.841264 
L 197.361364 158.120524 
L 197.898046 143.338099 
L 198.434729 153.982784 
L 198.971411 148.274221 
L 199.508094 152.887324 
L 200.044777 151.625299 
L 200.581459 164.81262 
L 201.118142 144.854844 
L 201.654825 143.674953 
L 202.191507 148.167598 
L 202.72819 151.196106 
L 203.264872 147.209949 
L 203.801555 154.36223 
L 204.338238 155.914568 
L 204.87492 150.611372 
L 205.411603 160.317226 
L 205.948285 157.754088 
L 206.484968 159.245684 
L 207.021651 154.06151 
L 207.558333 144.97824 
L 208.095016 149.153328 
L 208.631699 151.969541 
L 209.168381 153.452863 
L 209.705064 145.898305 
L 210.241746 156.36402 
L 210.778429 152.704596 
L 211.315112 155.411557 
L 211.851794 151.805975 
L 212.388477 137.017489 
L 212.925159 150.932252 
L 213.461842 148.656725 
L 213.998525 157.428016 
L 215.07189 148.048525 
L 216.145255 148.454576 
L 216.681938 145.095671 
L 217.21862 151.211192 
L 217.755303 144.362556 
L 218.291986 152.738028 
L 218.828668 154.066824 
L 219.365351 146.177469 
L 219.902033 146.38784 
L 220.438716 154.550857 
L 220.975399 149.062005 
L 221.512081 144.762176 
L 222.048764 149.442446 
L 222.585447 150.739117 
L 223.122129 158.636257 
L 223.658812 156.576166 
L 224.195494 157.809099 
L 224.732177 144.949064 
L 225.26886 145.160466 
L 225.805542 158.212817 
L 226.342225 146.641771 
L 226.878907 154.245284 
L 227.41559 155.451481 
L 227.952273 150.371739 
L 228.488955 152.626469 
L 229.025638 144.523096 
L 229.562321 151.92319 
L 230.099003 154.131543 
L 230.635686 144.129235 
L 231.172368 157.464747 
L 231.709051 152.577717 
L 232.245734 159.725367 
L 232.782416 149.919071 
L 233.319099 154.041119 
L 233.855781 152.229043 
L 234.392464 149.462052 
L 234.929147 152.548302 
L 235.465829 150.776103 
L 236.002512 148.064822 
L 236.539195 156.833849 
L 237.075877 148.426693 
L 237.61256 146.718415 
L 238.149242 152.536222 
L 238.685925 156.424269 
L 239.222608 147.276886 
L 239.75929 148.382807 
L 240.295973 150.395162 
L 240.832656 151.473324 
L 241.369338 154.355915 
L 241.906021 161.723126 
L 242.442703 153.742147 
L 242.979386 148.52737 
L 243.516069 162.028151 
L 244.052751 148.871796 
L 244.589434 151.679093 
L 245.662799 153.726664 
L 246.199482 152.13945 
L 246.736164 151.42985 
L 247.80953 156.846266 
L 248.346212 150.195639 
L 248.882895 152.882763 
L 249.419577 151.351738 
L 249.95626 155.673481 
L 250.492943 153.315037 
L 251.029625 151.806663 
L 251.566308 159.343874 
L 252.639673 151.438276 
L 253.176356 145.121872 
L 253.713038 153.345488 
L 254.249721 149.484717 
L 254.786404 148.847518 
L 255.323086 155.34482 
L 255.859769 153.897232 
L 256.396451 149.328772 
L 256.933134 154.946767 
L 257.469817 152.747769 
L 258.006499 159.065531 
L 258.543182 151.490274 
L 258.543182 151.490274 
" clip-path="url(#p9ed734d574)" style="fill: none; stroke: #000000; stroke-opacity: 0.5; stroke-width: 0.5; stroke-linecap: square"/>
   </g>
   <g id="line2d_15">
    <path d="M 44.406818 180.687273 
L 91.634888 180.687273 
L 92.171571 86.921296 
L 92.708254 134.834687 
L 93.244936 90.975581 
L 93.781619 92.904814 
L 94.318301 180.687273 
L 94.854984 96.581123 
L 95.391667 139.510307 
L 95.928349 140.35925 
L 96.465032 180.687273 
L 97.001715 141.980298 
L 98.07508 143.505533 
L 98.611762 180.687273 
L 101.295175 180.687273 
L 101.831858 148.19017 
L 102.368541 148.786376 
L 102.905223 118.045495 
L 103.441906 180.687273 
L 103.978589 180.687273 
L 104.515271 61.996348 
L 105.051954 180.687273 
L 105.588636 123.39699 
L 106.125319 152.535948 
L 106.662002 153.017161 
L 107.198684 126.28492 
L 107.735367 127.199215 
L 108.272049 101.792404 
L 108.808732 103.096496 
L 109.345415 180.687273 
L 109.882097 155.661343 
L 110.41878 156.064974 
L 110.955463 132.230513 
L 111.492145 132.999655 
L 112.028828 110.282202 
L 112.56551 157.585643 
L 113.102193 157.943791 
L 113.638876 135.900072 
L 114.175558 180.687273 
L 114.712241 137.252176 
L 115.248923 180.687273 
L 115.785606 159.615539 
L 116.322289 159.927654 
L 116.858971 139.778621 
L 117.395654 180.687273 
L 117.932337 140.959998 
L 118.469019 141.53171 
L 119.005702 180.687273 
L 119.542384 161.662875 
L 120.079067 124.417916 
L 121.152432 125.975367 
L 121.689115 144.715821 
L 122.76248 110.69533 
L 123.299163 146.164174 
L 123.835845 146.627566 
L 124.909211 180.687273 
L 125.445893 147.963148 
L 125.982576 132.242665 
L 126.519258 132.871834 
L 127.055941 149.221636 
L 127.592624 134.093831 
L 128.129306 150.020699 
L 128.665989 135.269607 
L 129.202671 150.789707 
L 129.739354 136.401549 
L 130.276037 166.108736 
L 130.812719 137.491587 
L 131.886085 166.638839 
L 132.95945 166.976275 
L 133.496132 153.59372 
L 134.032815 180.687273 
L 134.569498 167.460182 
L 135.10618 141.472911 
L 135.642863 167.768683 
L 136.179545 116.845388 
L 136.716228 142.824949 
L 137.252911 155.735785 
L 137.789593 180.687273 
L 138.326276 144.10838 
L 138.862959 144.521637 
L 139.399641 168.767525 
L 140.473006 169.031651 
L 141.009689 134.579951 
L 141.546372 157.886993 
L 142.083054 169.411693 
L 142.619737 113.769255 
L 143.156419 147.589951 
L 143.693102 126.118221 
L 144.766467 170.005037 
L 145.30315 148.979703 
L 145.839833 149.313503 
L 146.376515 128.94521 
L 146.913198 149.965374 
L 147.44988 140.149209 
L 147.986563 150.597157 
L 148.523246 150.905726 
L 149.059928 161.035511 
L 149.596611 161.235043 
L 151.206659 133.508256 
L 151.743341 162.003449 
L 152.280024 134.440146 
L 152.816707 171.528985 
L 153.353389 153.481712 
L 153.890072 171.70724 
L 154.426754 145.11588 
L 154.963437 145.459473 
L 155.50012 180.687273 
L 156.036802 137.493364 
L 156.573485 163.574305 
L 157.110167 172.211889 
L 157.64685 147.105416 
L 158.183533 130.787751 
L 159.256898 164.36282 
L 159.793581 140.253987 
L 160.330263 156.650834 
L 160.866946 148.932774 
L 161.403628 157.088858 
L 161.940311 126.124921 
L 162.476994 157.51491 
L 163.013676 134.760194 
L 163.550359 165.515579 
L 164.087041 143.096705 
L 164.623724 173.235973 
L 165.160407 151.145882 
L 166.233772 166.175081 
L 166.770455 137.531176 
L 167.307137 159.296834 
L 167.84382 173.618841 
L 168.380502 152.657331 
L 169.453868 153.135436 
L 169.99055 167.028546 
L 170.527233 153.601402 
L 171.063915 147.11553 
L 171.600598 147.3977 
L 172.137281 160.880667 
L 172.673963 147.951439 
L 173.210646 128.74456 
L 173.747329 161.369745 
L 174.284011 161.52876 
L 174.820694 142.684358 
L 175.357376 168.123043 
L 175.894059 161.994118 
L 176.430742 131.242554 
L 176.967424 174.556514 
L 177.504107 144.19816 
L 178.040789 150.522942 
L 178.577472 150.7633 
L 179.114155 127.251566 
L 179.650837 157.125754 
L 180.18752 145.623306 
L 180.724203 151.696562 
L 181.260885 146.170174 
L 181.797568 152.146864 
L 182.33425 152.368106 
L 182.870933 169.447069 
L 183.407616 169.533563 
L 183.944298 153.016685 
L 185.017663 131.636399 
L 185.554346 137.416806 
L 186.091029 148.479193 
L 186.627711 164.704309 
L 187.164394 143.673161 
L 187.701077 164.942405 
L 188.237759 149.431615 
L 188.774442 144.492454 
L 189.311124 155.024649 
L 189.847807 150.11859 
L 190.38449 165.514911 
L 190.921172 140.522939 
L 191.457855 135.830906 
L 192.53122 146.302059 
L 193.067903 166.056734 
L 193.604585 146.794137 
L 194.141268 156.650749 
L 194.677951 161.59493 
L 195.214633 156.991181 
L 195.751316 171.275792 
L 196.287998 147.979013 
L 196.824681 166.767806 
L 197.361364 153.043002 
L 197.898046 144.085072 
L 198.434729 144.339493 
L 198.971411 131.054783 
L 199.508094 153.801791 
L 200.044777 158.436696 
L 200.581459 158.589032 
L 201.118142 149.960961 
L 201.654825 158.889147 
L 202.191507 146.046747 
L 202.72819 141.980108 
L 203.264872 146.5125 
L 203.801555 134.012276 
L 204.338238 163.828069 
L 204.87492 151.380356 
L 205.411603 155.733964 
L 205.948285 151.767849 
L 206.484968 156.062944 
L 207.558333 148.284629 
L 208.095016 148.496365 
L 208.631699 160.699077 
L 209.168381 136.998735 
L 209.705064 129.389646 
L 210.241746 172.846223 
L 210.778429 141.73411 
L 211.315112 161.335551 
L 211.851794 149.922408 
L 212.388477 134.833995 
L 212.925159 150.312351 
L 213.461842 146.731807 
L 213.998525 154.444094 
L 215.07189 132.56022 
L 215.608573 158.613639 
L 216.145255 166.063177 
L 216.681938 151.620796 
L 217.21862 169.854811 
L 217.755303 148.390495 
L 218.828668 155.875276 
L 219.365351 138.41276 
L 219.902033 159.678868 
L 220.438716 152.846305 
L 220.975399 153.01516 
L 221.512081 132.553252 
L 222.048764 156.76545 
L 222.585447 146.718294 
L 223.122129 157.051339 
L 223.658812 160.549017 
L 224.195494 160.668869 
L 224.732177 144.204513 
L 225.26886 134.529334 
L 225.805542 161.022121 
L 226.342225 138.329875 
L 226.878907 158.013264 
L 227.41559 161.366117 
L 227.952273 155.075869 
L 228.488955 161.590335 
L 229.025638 149.043614 
L 229.562321 142.934408 
L 230.099003 155.663602 
L 230.635686 152.697521 
L 231.172368 155.950232 
L 231.709051 146.867957 
L 232.245734 159.288658 
L 232.782416 153.330865 
L 233.319099 150.463622 
L 233.855781 150.634396 
L 234.392464 147.815406 
L 234.929147 156.914691 
L 235.465829 160.002733 
L 236.002512 151.303073 
L 236.539195 154.388867 
L 237.075877 140.005725 
L 237.61256 157.569573 
L 238.149242 163.444752 
L 239.222608 152.265237 
L 239.75929 132.634379 
L 240.295973 152.575269 
L 240.832656 158.32034 
L 241.369338 161.222495 
L 242.442703 161.432734 
L 242.979386 145.121542 
L 243.516069 161.639417 
L 244.052751 153.622019 
L 244.589434 164.534989 
L 245.126116 159.265663 
L 245.662799 164.706588 
L 246.736164 149.063436 
L 247.80953 159.82639 
L 248.346212 152.154301 
L 248.882895 160.044527 
L 249.419577 147.318101 
L 249.95626 152.598866 
L 250.492943 152.744779 
L 251.029625 147.835575 
L 251.566308 168.117241 
L 252.10299 168.182022 
L 252.639673 140.876133 
L 253.176356 138.604913 
L 253.713038 156.059557 
L 254.249721 139.033857 
L 254.786404 153.872225 
L 255.323086 156.433749 
L 255.859769 154.14346 
L 256.396451 149.475761 
L 256.933134 156.7993 
L 258.006499 161.768245 
L 258.543182 157.156791 
L 258.543182 157.156791 
" clip-path="url(#p9ed734d574)" style="fill: none; stroke: #0000ff; stroke-opacity: 0.5; stroke-linecap: square"/>
   </g>
   <g id="line2d_16">
    <path d="M 44.406818 180.687273 
L 99.685128 180.687273 
L 100.22181 119.549875 
L 100.758493 120.703448 
L 101.295175 180.687273 
L 101.831858 65.142032 
L 102.368541 180.687273 
L 102.905223 69.324127 
L 103.441906 180.687273 
L 103.978589 180.687273 
L 104.515271 22.432727 
L 105.051954 180.687273 
L 106.125319 80.593679 
L 106.662002 131.495971 
L 107.198684 83.971992 
L 107.735367 180.687273 
L 108.272049 180.687273 
L 108.808732 42.748134 
L 109.345415 135.461349 
L 109.882097 180.687273 
L 110.41878 136.914302 
L 110.955463 180.687273 
L 111.492145 180.687273 
L 112.028828 97.24424 
L 112.56551 139.617713 
L 113.102193 140.254418 
L 113.638876 180.687273 
L 114.175558 180.687273 
L 114.712241 103.469331 
L 115.248923 142.658786 
L 116.322289 143.78129 
L 116.858971 180.687273 
L 117.932337 180.687273 
L 118.469019 145.882331 
L 119.542384 146.866122 
L 120.079067 47.30808 
L 120.61575 147.808787 
L 121.152432 148.265406 
L 121.689115 84.763408 
L 122.225797 149.150705 
L 122.76248 56.257164 
L 123.299163 180.687273 
L 123.835845 150.411984 
L 124.372528 150.815622 
L 124.909211 180.687273 
L 125.445893 180.687273 
L 125.982576 151.97936 
L 126.519258 180.687273 
L 127.055941 180.687273 
L 127.592624 153.076347 
L 128.665989 153.773103 
L 129.202671 180.687273 
L 129.739354 128.200496 
L 130.276037 154.769878 
L 130.812719 129.492389 
L 131.349402 155.403937 
L 131.886085 130.737293 
L 132.95945 180.687273 
L 134.032815 133.094521 
L 134.569498 180.687273 
L 135.10618 87.734721 
L 135.642863 134.754517 
L 137.789593 136.836232 
L 138.862959 180.687273 
L 139.399641 117.115293 
L 139.936324 159.733311 
L 140.473006 180.687273 
L 141.009689 78.226563 
L 141.546372 180.687273 
L 142.083054 160.6418 
L 142.619737 160.859713 
L 143.156419 141.460821 
L 143.693102 141.882622 
L 144.766467 104.724722 
L 145.30315 161.897604 
L 145.839833 124.911694 
L 146.376515 162.290098 
L 146.913198 107.865001 
L 147.44988 108.619616 
L 147.986563 162.856094 
L 148.523246 145.39063 
L 149.596611 180.687273 
L 150.669976 146.798865 
L 151.206659 96.81348 
L 151.743341 147.47159 
L 152.280024 131.357014 
L 152.816707 148.124476 
L 153.353389 180.687273 
L 153.890072 116.82927 
L 154.426754 180.687273 
L 154.963437 149.373675 
L 155.50012 103.156442 
L 156.036802 165.329441 
L 156.573485 135.0527 
L 157.110167 180.687273 
L 157.64685 120.986197 
L 158.183533 136.332149 
L 158.720215 122.099788 
L 159.256898 180.687273 
L 159.793581 180.687273 
L 160.330263 152.199645 
L 160.866946 138.347949 
L 161.403628 180.687273 
L 163.013676 139.863209 
L 163.550359 153.715376 
L 164.087041 140.590678 
L 164.623724 167.440519 
L 165.160407 141.298758 
L 165.697089 141.645684 
L 166.233772 167.787548 
L 166.770455 142.326303 
L 167.307137 168.011459 
L 167.84382 142.98898 
L 168.917185 168.336438 
L 169.453868 156.196755 
L 169.99055 168.546184 
L 170.527233 132.534622 
L 171.063915 168.750656 
L 171.600598 121.505822 
L 172.673963 122.490243 
L 173.210646 169.144449 
L 173.747329 100.55532 
L 174.284011 135.274507 
L 174.820694 113.126545 
L 175.357376 113.67806 
L 175.894059 158.532426 
L 176.430742 158.711846 
L 176.967424 147.989897 
L 177.504107 148.252509 
L 178.040789 159.237086 
L 178.577472 106.209842 
L 179.114155 138.466473 
L 179.650837 117.856569 
L 180.18752 149.519308 
L 180.724203 160.071659 
L 181.260885 139.778124 
L 181.797568 150.244176 
L 182.33425 100.13499 
L 182.870933 120.73953 
L 183.407616 160.858457 
L 183.944298 161.010415 
L 184.480981 180.687273 
L 185.017663 151.620094 
L 185.554346 132.608979 
L 186.091029 142.514739 
L 186.627711 180.687273 
L 187.164394 152.48605 
L 187.701077 162.02669 
L 188.774442 143.917934 
L 189.311124 144.189325 
L 189.847807 171.629886 
L 190.38449 162.705217 
L 190.921172 136.060238 
L 191.457855 154.105725 
L 191.994537 145.502181 
L 192.53122 128.290761 
L 193.067903 163.347377 
L 193.604585 163.471713 
L 194.141268 146.502001 
L 194.677951 155.230819 
L 195.214633 155.411446 
L 195.751316 138.858475 
L 196.287998 155.766696 
L 196.824681 114.698699 
L 197.361364 156.114594 
L 197.898046 131.884349 
L 198.434729 172.609989 
L 198.971411 164.644449 
L 199.508094 140.856935 
L 200.044777 164.864642 
L 200.581459 172.830122 
L 201.118142 133.866233 
L 201.654825 141.935059 
L 202.191507 142.197801 
L 202.72819 180.687273 
L 203.264872 135.120917 
L 203.801555 165.600406 
L 204.338238 150.715359 
L 204.87492 143.472142 
L 205.411603 158.506557 
L 205.948285 180.687273 
L 207.021651 151.694778 
L 207.558333 151.884924 
L 208.095016 137.766069 
L 208.631699 138.045796 
L 209.168381 159.504954 
L 209.705064 166.657154 
L 210.241746 152.807987 
L 210.778429 159.912257 
L 211.315112 146.284214 
L 211.851794 153.340728 
L 212.388477 153.514963 
L 212.925159 146.937364 
L 213.461842 147.151013 
L 213.998525 160.692474 
L 214.535207 147.572153 
L 215.07189 167.52432 
L 215.608573 141.445263 
L 216.145255 128.690494 
L 217.755303 167.928054 
L 218.291986 155.325921 
L 218.828668 161.782897 
L 219.365351 136.847042 
L 219.902033 124.664867 
L 220.438716 149.752868 
L 220.975399 119.193695 
L 221.512081 150.125991 
L 222.048764 132.084206 
L 222.585447 132.375844 
L 223.122129 150.67339 
L 223.658812 132.952152 
L 224.195494 156.96176 
L 224.732177 162.998666 
L 225.26886 139.657998 
L 225.805542 151.553718 
L 226.878907 151.894883 
L 227.41559 157.788128 
L 227.952273 140.847319 
L 228.488955 129.762112 
L 229.025638 135.682966 
L 229.562321 163.908224 
L 230.099003 152.883198 
L 230.635686 136.45656 
L 231.172368 153.201675 
L 231.709051 164.290032 
L 232.245734 164.383569 
L 232.782416 142.861136 
L 233.319099 159.194903 
L 233.855781 164.659074 
L 234.392464 138.186278 
L 234.929147 133.142113 
L 235.465829 143.914761 
L 236.002512 144.120276 
L 236.539195 154.713543 
L 237.075877 160.023632 
L 237.61256 139.589147 
L 238.149242 150.033908 
L 238.685925 129.88013 
L 239.222608 125.106413 
L 239.75929 155.561578 
L 240.295973 140.705764 
L 240.832656 155.835129 
L 241.369338 151.026664 
L 241.906021 161.020748 
L 242.442703 141.566944 
L 242.979386 136.914073 
L 243.516069 161.337071 
L 244.052751 127.759673 
L 244.589434 137.61452 
L 245.126116 161.645845 
L 245.662799 152.27717 
L 246.199482 133.58817 
L 246.736164 152.577201 
L 247.80953 162.144267 
L 248.346212 148.40755 
L 248.882895 157.750891 
L 249.419577 157.870746 
L 250.492943 149.075566 
L 251.029625 158.224576 
L 251.566308 144.932522 
L 252.10299 162.902029 
L 252.639673 158.569976 
L 253.176356 158.683425 
L 253.713038 171.930753 
L 254.249721 163.263623 
L 254.786404 159.018549 
L 255.323086 150.505115 
L 255.859769 167.817547 
L 256.396451 142.273107 
L 257.469817 168.011017 
L 258.006499 147.053449 
L 258.543182 147.221704 
L 258.543182 147.221704 
" clip-path="url(#p9ed734d574)" style="fill: none; stroke: #ff0000; stroke-opacity: 0.5; stroke-linecap: square"/>
   </g>
   <g id="patch_3">
    <path d="M 33.7 188.6 
L 33.7 14.52 
" style="fill: none; stroke: #000000; stroke-width: 0.8; stroke-linejoin: miter; stroke-linecap: square"/>
   </g>
   <g id="patch_4">
    <path d="M 269.25 188.6 
L 269.25 14.52 
" style="fill: none; stroke: #000000; stroke-width: 0.8; stroke-linejoin: miter; stroke-linecap: square"/>
   </g>
   <g id="patch_5">
    <path d="M 33.7 188.6 
L 269.25 188.6 
" style="fill: none; stroke: #000000; stroke-width: 0.8; stroke-linejoin: miter; stroke-linecap: square"/>
   </g>
   <g id="patch_6">
    <path d="M 33.7 14.52 
L 269.25 14.52 
" style="fill: none; stroke: #000000; stroke-width: 0.8; stroke-linejoin: miter; stroke-linecap: square"/>
   </g>
   <g id="legend_1">
    <g id="patch_7">
     <path d="M 213.917188 66.554375 
L 262.25 66.554375 
Q 264.25 66.554375 264.25 64.554375 
L 264.25 21.52 
Q 264.25 19.52 262.25 19.52 
L 213.917188 19.52 
Q 211.917188 19.52 211.917188 21.52 
L 211.917188 64.554375 
Q 211.917188 66.554375 213.917188 66.554375 
z
" style="fill: #ffffff; opacity: 0.8; stroke: #cccccc; stroke-linejoin: miter"/>
    </g>
    <g id="line2d_17">
     <path d="M 215.917188 27.618438 
L 225.917188 27.618438 
L 235.917188 27.618438 
" style="fill: none; stroke: #000000; stroke-opacity: 0.5; stroke-width: 0.5; stroke-linecap: square"/>
    </g>
    <g id="text_16">
     <!-- all -->
     <g transform="translate(243.917188 31.118438) scale(0.1 -0.1)">
      <defs>
       <path id="DejaVuSans-61" d="M 2194 1759 
Q 1497 1759 1228 1600 
Q 959 1441 959 1056 
Q 959 750 1161 570 
Q 1363 391 1709 391 
Q 2188 391 2477 730 
Q 2766 1069 2766 1631 
L 2766 1759 
L 2194 1759 
z
M 3341 1997 
L 3341 0 
L 2766 0 
L 2766 531 
Q 2569 213 2275 61 
Q 1981 -91 1556 -91 
Q 1019 -91 701 211 
Q 384 513 384 1019 
Q 384 1609 779 1909 
Q 1175 2209 1959 2209 
L 2766 2209 
L 2766 2266 
Q 2766 2663 2505 2880 
Q 2244 3097 1772 3097 
Q 1472 3097 1187 3025 
Q 903 2953 641 2809 
L 641 3341 
Q 956 3463 1253 3523 
Q 1550 3584 1831 3584 
Q 2591 3584 2966 3190 
Q 3341 2797 3341 1997 
z
" transform="scale(0.015625)"/>
       <path id="DejaVuSans-6c" d="M 603 4863 
L 1178 4863 
L 1178 0 
L 603 0 
L 603 4863 
z
" transform="scale(0.015625)"/>
      </defs>
      <use xlink:href="#DejaVuSans-61"/>
      <use xlink:href="#DejaVuSans-6c" transform="translate(61.279297 0)"/>
      <use xlink:href="#DejaVuSans-6c" transform="translate(89.0625 0)"/>
     </g>
    </g>
    <g id="line2d_18">
     <path d="M 215.917188 42.296563 
L 225.917188 42.296563 
L 235.917188 42.296563 
" style="fill: none; stroke: #0000ff; stroke-opacity: 0.5; stroke-linecap: square"/>
    </g>
    <g id="text_17">
     <!-- 1-1 -->
     <g transform="translate(243.917188 45.796563) scale(0.1 -0.1)">
      <defs>
       <path id="DejaVuSans-2d" d="M 313 2009 
L 1997 2009 
L 1997 1497 
L 313 1497 
L 313 2009 
z
" transform="scale(0.015625)"/>
      </defs>
      <use xlink:href="#DejaVuSans-31"/>
      <use xlink:href="#DejaVuSans-2d" transform="translate(63.623047 0)"/>
      <use xlink:href="#DejaVuSans-31" transform="translate(99.707031 0)"/>
     </g>
    </g>
    <g id="line2d_19">
     <path d="M 215.917188 56.974688 
L 225.917188 56.974688 
L 235.917188 56.974688 
" style="fill: none; stroke: #ff0000; stroke-opacity: 0.5; stroke-linecap: square"/>
    </g>
    <g id="text_18">
     <!-- 2-2 -->
     <g transform="translate(243.917188 60.474688) scale(0.1 -0.1)">
      <use xlink:href="#DejaVuSans-32"/>
      <use xlink:href="#DejaVuSans-2d" transform="translate(63.623047 0)"/>
      <use xlink:href="#DejaVuSans-32" transform="translate(99.707031 0)"/>
     </g>
    </g>
   </g>
  </g>
 </g>
 <defs>
  <clipPath id="p9ed734d574">
   <rect x="33.7" y="14.52" width="235.55" height="174.08"/>
  </clipPath>
 </defs>
</svg>
