<?xml version="1.0" encoding="utf-8" standalone="no"?>
<!DOCTYPE svg PUBLIC "-//W3C//DTD SVG 1.1//EN"
  "http://www.w3.org/Graphics/SVG/1.1/DTD/svg11.dtd">
<svg xmlns:xlink="http://www.w3.org/1999/xlink" width="288pt" height="216pt" viewBox="0 0 288 216" xmlns="http://www.w3.org/2000/svg" version="1.1">
 <metadata>
  <rdf:RDF xmlns:dc="http://purl.org/dc/elements/1.1/" xmlns:cc="http://creativecommons.org/ns#" xmlns:rdf="http://www.w3.org/1999/02/22-rdf-syntax-ns#">
   <cc:Work>
    <dc:type rdf:resource="http://purl.org/dc/dcmitype/StillImage"/>
    <dc:date>2025-09-17T23:05:09.545003</dc:date>
    <dc:format>image/svg+xml</dc:format>
    <dc:creator>
     <cc:Agent>
      <dc:title>Matplotlib v3.10.0, https://matplotlib.org/</dc:title>
     </cc:Agent>
    </dc:creator>
   </cc:Work>
  </rdf:RDF>
 </metadata>
 <defs>
  <style type="text/css">*{stroke-linejoin: round; stroke-linecap: butt}</style>
 </defs>
 <g id="figure_1">
  <g id="patch_1">
   <path d="M 0 216 
L 288 216 
L 288 0 
L 0 0 
z
" style="fill: #ffffff"/>
  </g>
  <g id="axes_1">
   <g id="patch_2">
    <path d="M 33.7 188.6 
L 269.25 188.6 
L 269.25 14.52 
L 33.7 14.52 
z
" style="fill: #ffffff"/>
   </g>
   <g id="matplotlib.axis_1">
    <g id="xtick_1">
     <g id="line2d_1">
      <defs>
       <path id="m2555c6f0ce" d="M 0 0 
L 0 3.5 
" style="stroke: #000000; stroke-width: 0.8"/>
      </defs>
      <g>
       <use xlink:href="#m2555c6f0ce" x="44.138477" y="188.6" style="stroke: #000000; stroke-width: 0.8"/>
      </g>
     </g>
     <g id="text_1">
      <!-- 0 -->
      <g transform="translate(40.957227 203.198437) scale(0.1 -0.1)">
       <defs>
        <path id="DejaVuSans-30" d="M 2034 4250 
Q 1547 4250 1301 3770 
Q 1056 3291 1056 2328 
Q 1056 1369 1301 889 
Q 1547 409 2034 409 
Q 2525 409 2770 889 
Q 3016 1369 3016 2328 
Q 3016 3291 2770 3770 
Q 2525 4250 2034 4250 
z
M 2034 4750 
Q 2819 4750 3233 4129 
Q 3647 3509 3647 2328 
Q 3647 1150 3233 529 
Q 2819 -91 2034 -91 
Q 1250 -91 836 529 
Q 422 1150 422 2328 
Q 422 3509 836 4129 
Q 1250 4750 2034 4750 
z
" transform="scale(0.015625)"/>
       </defs>
       <use xlink:href="#DejaVuSans-30"/>
      </g>
     </g>
    </g>
    <g id="xtick_2">
     <g id="line2d_2">
      <g>
       <use xlink:href="#m2555c6f0ce" x="87.073086" y="188.6" style="stroke: #000000; stroke-width: 0.8"/>
      </g>
     </g>
     <g id="text_2">
      <!-- 200 -->
      <g transform="translate(77.529336 203.198437) scale(0.1 -0.1)">
       <defs>
        <path id="DejaVuSans-32" d="M 1228 531 
L 3431 531 
L 3431 0 
L 469 0 
L 469 531 
Q 828 903 1448 1529 
Q 2069 2156 2228 2338 
Q 2531 2678 2651 2914 
Q 2772 3150 2772 3378 
Q 2772 3750 2511 3984 
Q 2250 4219 1831 4219 
Q 1534 4219 1204 4116 
Q 875 4013 500 3803 
L 500 4441 
Q 881 4594 1212 4672 
Q 1544 4750 1819 4750 
Q 2544 4750 2975 4387 
Q 3406 4025 3406 3419 
Q 3406 3131 3298 2873 
Q 3191 2616 2906 2266 
Q 2828 2175 2409 1742 
Q 1991 1309 1228 531 
z
" transform="scale(0.015625)"/>
       </defs>
       <use xlink:href="#DejaVuSans-32"/>
       <use xlink:href="#DejaVuSans-30" transform="translate(63.623047 0)"/>
       <use xlink:href="#DejaVuSans-30" transform="translate(127.246094 0)"/>
      </g>
     </g>
    </g>
    <g id="xtick_3">
     <g id="line2d_3">
      <g>
       <use xlink:href="#m2555c6f0ce" x="130.007695" y="188.6" style="stroke: #000000; stroke-width: 0.8"/>
      </g>
     </g>
     <g id="text_3">
      <!-- 400 -->
      <g transform="translate(120.463945 203.198437) scale(0.1 -0.1)">
       <defs>
        <path id="DejaVuSans-34" d="M 2419 4116 
L 825 1625 
L 2419 1625 
L 2419 4116 
z
M 2253 4666 
L 3047 4666 
L 3047 1625 
L 3713 1625 
L 3713 1100 
L 3047 1100 
L 3047 0 
L 2419 0 
L 2419 1100 
L 313 1100 
L 313 1709 
L 2253 4666 
z
" transform="scale(0.015625)"/>
       </defs>
       <use xlink:href="#DejaVuSans-34"/>
       <use xlink:href="#DejaVuSans-30" transform="translate(63.623047 0)"/>
       <use xlink:href="#DejaVuSans-30" transform="translate(127.246094 0)"/>
      </g>
     </g>
    </g>
    <g id="xtick_4">
     <g id="line2d_4">
      <g>
       <use xlink:href="#m2555c6f0ce" x="172.942305" y="188.6" style="stroke: #000000; stroke-width: 0.8"/>
      </g>
     </g>
     <g id="text_4">
      <!-- 600 -->
      <g transform="translate(163.398555 203.198437) scale(0.1 -0.1)">
       <defs>
        <path id="DejaVuSans-36" d="M 2113 2584 
Q 1688 2584 1439 2293 
Q 1191 2003 1191 1497 
Q 1191 994 1439 701 
Q 1688 409 2113 409 
Q 2538 409 2786 701 
Q 3034 994 3034 1497 
Q 3034 2003 2786 2293 
Q 2538 2584 2113 2584 
z
M 3366 4563 
L 3366 3988 
Q 3128 4100 2886 4159 
Q 2644 4219 2406 4219 
Q 1781 4219 1451 3797 
Q 1122 3375 1075 2522 
Q 1259 2794 1537 2939 
Q 1816 3084 2150 3084 
Q 2853 3084 3261 2657 
Q 3669 2231 3669 1497 
Q 3669 778 3244 343 
Q 2819 -91 2113 -91 
Q 1303 -91 875 529 
Q 447 1150 447 2328 
Q 447 3434 972 4092 
Q 1497 4750 2381 4750 
Q 2619 4750 2861 4703 
Q 3103 4656 3366 4563 
z
" transform="scale(0.015625)"/>
       </defs>
       <use xlink:href="#DejaVuSans-36"/>
       <use xlink:href="#DejaVuSans-30" transform="translate(63.623047 0)"/>
       <use xlink:href="#DejaVuSans-30" transform="translate(127.246094 0)"/>
      </g>
     </g>
    </g>
    <g id="xtick_5">
     <g id="line2d_5">
      <g>
       <use xlink:href="#m2555c6f0ce" x="215.876914" y="188.6" style="stroke: #000000; stroke-width: 0.8"/>
      </g>
     </g>
     <g id="text_5">
      <!-- 800 -->
      <g transform="translate(206.333164 203.198437) scale(0.1 -0.1)">
       <defs>
        <path id="DejaVuSans-38" d="M 2034 2216 
Q 1584 2216 1326 1975 
Q 1069 1734 1069 1313 
Q 1069 891 1326 650 
Q 1584 409 2034 409 
Q 2484 409 2743 651 
Q 3003 894 3003 1313 
Q 3003 1734 2745 1975 
Q 2488 2216 2034 2216 
z
M 1403 2484 
Q 997 2584 770 2862 
Q 544 3141 544 3541 
Q 544 4100 942 4425 
Q 1341 4750 2034 4750 
Q 2731 4750 3128 4425 
Q 3525 4100 3525 3541 
Q 3525 3141 3298 2862 
Q 3072 2584 2669 2484 
Q 3125 2378 3379 2068 
Q 3634 1759 3634 1313 
Q 3634 634 3220 271 
Q 2806 -91 2034 -91 
Q 1263 -91 848 271 
Q 434 634 434 1313 
Q 434 1759 690 2068 
Q 947 2378 1403 2484 
z
M 1172 3481 
Q 1172 3119 1398 2916 
Q 1625 2713 2034 2713 
Q 2441 2713 2670 2916 
Q 2900 3119 2900 3481 
Q 2900 3844 2670 4047 
Q 2441 4250 2034 4250 
Q 1625 4250 1398 4047 
Q 1172 3844 1172 3481 
z
" transform="scale(0.015625)"/>
       </defs>
       <use xlink:href="#DejaVuSans-38"/>
       <use xlink:href="#DejaVuSans-30" transform="translate(63.623047 0)"/>
       <use xlink:href="#DejaVuSans-30" transform="translate(127.246094 0)"/>
      </g>
     </g>
    </g>
    <g id="xtick_6">
     <g id="line2d_6">
      <g>
       <use xlink:href="#m2555c6f0ce" x="258.811523" y="188.6" style="stroke: #000000; stroke-width: 0.8"/>
      </g>
     </g>
     <g id="text_6">
      <!-- 1000 -->
      <g transform="translate(246.086523 203.198437) scale(0.1 -0.1)">
       <defs>
        <path id="DejaVuSans-31" d="M 794 531 
L 1825 531 
L 1825 4091 
L 703 3866 
L 703 4441 
L 1819 4666 
L 2450 4666 
L 2450 531 
L 3481 531 
L 3481 0 
L 794 0 
L 794 531 
z
" transform="scale(0.015625)"/>
       </defs>
       <use xlink:href="#DejaVuSans-31"/>
       <use xlink:href="#DejaVuSans-30" transform="translate(63.623047 0)"/>
       <use xlink:href="#DejaVuSans-30" transform="translate(127.246094 0)"/>
       <use xlink:href="#DejaVuSans-30" transform="translate(190.869141 0)"/>
      </g>
     </g>
    </g>
    <g id="text_7">
     <!-- q (nm) -->
     <g transform="translate(134.771094 216.876563) scale(0.1 -0.1)">
      <defs>
       <path id="DejaVuSans-71" d="M 947 1747 
Q 947 1113 1208 752 
Q 1469 391 1925 391 
Q 2381 391 2643 752 
Q 2906 1113 2906 1747 
Q 2906 2381 2643 2742 
Q 2381 3103 1925 3103 
Q 1469 3103 1208 2742 
Q 947 2381 947 1747 
z
M 2906 525 
Q 2725 213 2448 61 
Q 2172 -91 1784 -91 
Q 1150 -91 751 415 
Q 353 922 353 1747 
Q 353 2572 751 3078 
Q 1150 3584 1784 3584 
Q 2172 3584 2448 3432 
Q 2725 3281 2906 2969 
L 2906 3500 
L 3481 3500 
L 3481 -1331 
L 2906 -1331 
L 2906 525 
z
" transform="scale(0.015625)"/>
       <path id="DejaVuSans-20" transform="scale(0.015625)"/>
       <path id="DejaVuSans-28" d="M 1984 4856 
Q 1566 4138 1362 3434 
Q 1159 2731 1159 2009 
Q 1159 1288 1364 580 
Q 1569 -128 1984 -844 
L 1484 -844 
Q 1016 -109 783 600 
Q 550 1309 550 2009 
Q 550 2706 781 3412 
Q 1013 4119 1484 4856 
L 1984 4856 
z
" transform="scale(0.015625)"/>
       <path id="DejaVuSans-6e" d="M 3513 2113 
L 3513 0 
L 2938 0 
L 2938 2094 
Q 2938 2591 2744 2837 
Q 2550 3084 2163 3084 
Q 1697 3084 1428 2787 
Q 1159 2491 1159 1978 
L 1159 0 
L 581 0 
L 581 3500 
L 1159 3500 
L 1159 2956 
Q 1366 3272 1645 3428 
Q 1925 3584 2291 3584 
Q 2894 3584 3203 3211 
Q 3513 2838 3513 2113 
z
" transform="scale(0.015625)"/>
       <path id="DejaVuSans-6d" d="M 3328 2828 
Q 3544 3216 3844 3400 
Q 4144 3584 4550 3584 
Q 5097 3584 5394 3201 
Q 5691 2819 5691 2113 
L 5691 0 
L 5113 0 
L 5113 2094 
Q 5113 2597 4934 2840 
Q 4756 3084 4391 3084 
Q 3944 3084 3684 2787 
Q 3425 2491 3425 1978 
L 3425 0 
L 2847 0 
L 2847 2094 
Q 2847 2600 2669 2842 
Q 2491 3084 2119 3084 
Q 1678 3084 1418 2786 
Q 1159 2488 1159 1978 
L 1159 0 
L 581 0 
L 581 3500 
L 1159 3500 
L 1159 2956 
Q 1356 3278 1631 3431 
Q 1906 3584 2284 3584 
Q 2666 3584 2933 3390 
Q 3200 3197 3328 2828 
z
" transform="scale(0.015625)"/>
       <path id="DejaVuSans-29" d="M 513 4856 
L 1013 4856 
Q 1481 4119 1714 3412 
Q 1947 2706 1947 2009 
Q 1947 1309 1714 600 
Q 1481 -109 1013 -844 
L 513 -844 
Q 928 -128 1133 580 
Q 1338 1288 1338 2009 
Q 1338 2731 1133 3434 
Q 928 4138 513 4856 
z
" transform="scale(0.015625)"/>
      </defs>
      <use xlink:href="#DejaVuSans-71"/>
      <use xlink:href="#DejaVuSans-20" transform="translate(63.476562 0)"/>
      <use xlink:href="#DejaVuSans-28" transform="translate(95.263672 0)"/>
      <use xlink:href="#DejaVuSans-6e" transform="translate(134.277344 0)"/>
      <use xlink:href="#DejaVuSans-6d" transform="translate(197.65625 0)"/>
      <use xlink:href="#DejaVuSans-29" transform="translate(295.068359 0)"/>
     </g>
    </g>
   </g>
   <g id="matplotlib.axis_2">
    <g id="ytick_1">
     <g id="line2d_7">
      <defs>
       <path id="m8138a6f1d5" d="M 0 0 
L -3.5 0 
" style="stroke: #000000; stroke-width: 0.8"/>
      </defs>
      <g>
       <use xlink:href="#m8138a6f1d5" x="33.7" y="180.687273" style="stroke: #000000; stroke-width: 0.8"/>
      </g>
     </g>
     <g id="text_8">
      <!-- 0 -->
      <g transform="translate(20.3375 184.486491) scale(0.1 -0.1)">
       <use xlink:href="#DejaVuSans-30"/>
      </g>
     </g>
    </g>
    <g id="ytick_2">
     <g id="line2d_8">
      <g>
       <use xlink:href="#m8138a6f1d5" x="33.7" y="156.13763" style="stroke: #000000; stroke-width: 0.8"/>
      </g>
     </g>
     <g id="text_9">
      <!-- 100 -->
      <g transform="translate(7.6125 159.936848) scale(0.1 -0.1)">
       <use xlink:href="#DejaVuSans-31"/>
       <use xlink:href="#DejaVuSans-30" transform="translate(63.623047 0)"/>
       <use xlink:href="#DejaVuSans-30" transform="translate(127.246094 0)"/>
      </g>
     </g>
    </g>
    <g id="ytick_3">
     <g id="line2d_9">
      <g>
       <use xlink:href="#m8138a6f1d5" x="33.7" y="131.587986" style="stroke: #000000; stroke-width: 0.8"/>
      </g>
     </g>
     <g id="text_10">
      <!-- 200 -->
      <g transform="translate(7.6125 135.387205) scale(0.1 -0.1)">
       <use xlink:href="#DejaVuSans-32"/>
       <use xlink:href="#DejaVuSans-30" transform="translate(63.623047 0)"/>
       <use xlink:href="#DejaVuSans-30" transform="translate(127.246094 0)"/>
      </g>
     </g>
    </g>
    <g id="ytick_4">
     <g id="line2d_10">
      <g>
       <use xlink:href="#m8138a6f1d5" x="33.7" y="107.038343" style="stroke: #000000; stroke-width: 0.8"/>
      </g>
     </g>
     <g id="text_11">
      <!-- 300 -->
      <g transform="translate(7.6125 110.837562) scale(0.1 -0.1)">
       <defs>
        <path id="DejaVuSans-33" d="M 2597 2516 
Q 3050 2419 3304 2112 
Q 3559 1806 3559 1356 
Q 3559 666 3084 287 
Q 2609 -91 1734 -91 
Q 1441 -91 1130 -33 
Q 819 25 488 141 
L 488 750 
Q 750 597 1062 519 
Q 1375 441 1716 441 
Q 2309 441 2620 675 
Q 2931 909 2931 1356 
Q 2931 1769 2642 2001 
Q 2353 2234 1838 2234 
L 1294 2234 
L 1294 2753 
L 1863 2753 
Q 2328 2753 2575 2939 
Q 2822 3125 2822 3475 
Q 2822 3834 2567 4026 
Q 2313 4219 1838 4219 
Q 1578 4219 1281 4162 
Q 984 4106 628 3988 
L 628 4550 
Q 988 4650 1302 4700 
Q 1616 4750 1894 4750 
Q 2613 4750 3031 4423 
Q 3450 4097 3450 3541 
Q 3450 3153 3228 2886 
Q 3006 2619 2597 2516 
z
" transform="scale(0.015625)"/>
       </defs>
       <use xlink:href="#DejaVuSans-33"/>
       <use xlink:href="#DejaVuSans-30" transform="translate(63.623047 0)"/>
       <use xlink:href="#DejaVuSans-30" transform="translate(127.246094 0)"/>
      </g>
     </g>
    </g>
    <g id="ytick_5">
     <g id="line2d_11">
      <g>
       <use xlink:href="#m8138a6f1d5" x="33.7" y="82.4887" style="stroke: #000000; stroke-width: 0.8"/>
      </g>
     </g>
     <g id="text_12">
      <!-- 400 -->
      <g transform="translate(7.6125 86.287919) scale(0.1 -0.1)">
       <use xlink:href="#DejaVuSans-34"/>
       <use xlink:href="#DejaVuSans-30" transform="translate(63.623047 0)"/>
       <use xlink:href="#DejaVuSans-30" transform="translate(127.246094 0)"/>
      </g>
     </g>
    </g>
    <g id="ytick_6">
     <g id="line2d_12">
      <g>
       <use xlink:href="#m8138a6f1d5" x="33.7" y="57.939057" style="stroke: #000000; stroke-width: 0.8"/>
      </g>
     </g>
     <g id="text_13">
      <!-- 500 -->
      <g transform="translate(7.6125 61.738276) scale(0.1 -0.1)">
       <defs>
        <path id="DejaVuSans-35" d="M 691 4666 
L 3169 4666 
L 3169 4134 
L 1269 4134 
L 1269 2991 
Q 1406 3038 1543 3061 
Q 1681 3084 1819 3084 
Q 2600 3084 3056 2656 
Q 3513 2228 3513 1497 
Q 3513 744 3044 326 
Q 2575 -91 1722 -91 
Q 1428 -91 1123 -41 
Q 819 9 494 109 
L 494 744 
Q 775 591 1075 516 
Q 1375 441 1709 441 
Q 2250 441 2565 725 
Q 2881 1009 2881 1497 
Q 2881 1984 2565 2268 
Q 2250 2553 1709 2553 
Q 1456 2553 1204 2497 
Q 953 2441 691 2322 
L 691 4666 
z
" transform="scale(0.015625)"/>
       </defs>
       <use xlink:href="#DejaVuSans-35"/>
       <use xlink:href="#DejaVuSans-30" transform="translate(63.623047 0)"/>
       <use xlink:href="#DejaVuSans-30" transform="translate(127.246094 0)"/>
      </g>
     </g>
    </g>
    <g id="ytick_7">
     <g id="line2d_13">
      <g>
       <use xlink:href="#m8138a6f1d5" x="33.7" y="33.389414" style="stroke: #000000; stroke-width: 0.8"/>
      </g>
     </g>
     <g id="text_14">
      <!-- 600 -->
      <g transform="translate(7.6125 37.188633) scale(0.1 -0.1)">
       <use xlink:href="#DejaVuSans-36"/>
       <use xlink:href="#DejaVuSans-30" transform="translate(63.623047 0)"/>
       <use xlink:href="#DejaVuSans-30" transform="translate(127.246094 0)"/>
      </g>
     </g>
    </g>
    <g id="text_15">
     <!-- rdf -->
     <g transform="translate(1.532813 108.462344) rotate(-90) scale(0.1 -0.1)">
      <defs>
       <path id="DejaVuSans-72" d="M 2631 2963 
Q 2534 3019 2420 3045 
Q 2306 3072 2169 3072 
Q 1681 3072 1420 2755 
Q 1159 2438 1159 1844 
L 1159 0 
L 581 0 
L 581 3500 
L 1159 3500 
L 1159 2956 
Q 1341 3275 1631 3429 
Q 1922 3584 2338 3584 
Q 2397 3584 2469 3576 
Q 2541 3569 2628 3553 
L 2631 2963 
z
" transform="scale(0.015625)"/>
       <path id="DejaVuSans-64" d="M 2906 2969 
L 2906 4863 
L 3481 4863 
L 3481 0 
L 2906 0 
L 2906 525 
Q 2725 213 2448 61 
Q 2172 -91 1784 -91 
Q 1150 -91 751 415 
Q 353 922 353 1747 
Q 353 2572 751 3078 
Q 1150 3584 1784 3584 
Q 2172 3584 2448 3432 
Q 2725 3281 2906 2969 
z
M 947 1747 
Q 947 1113 1208 752 
Q 1469 391 1925 391 
Q 2381 391 2643 752 
Q 2906 1113 2906 1747 
Q 2906 2381 2643 2742 
Q 2381 3103 1925 3103 
Q 1469 3103 1208 2742 
Q 947 2381 947 1747 
z
" transform="scale(0.015625)"/>
       <path id="DejaVuSans-66" d="M 2375 4863 
L 2375 4384 
L 1825 4384 
Q 1516 4384 1395 4259 
Q 1275 4134 1275 3809 
L 1275 3500 
L 2222 3500 
L 2222 3053 
L 1275 3053 
L 1275 0 
L 697 0 
L 697 3053 
L 147 3053 
L 147 3500 
L 697 3500 
L 697 3744 
Q 697 4328 969 4595 
Q 1241 4863 1831 4863 
L 2375 4863 
z
" transform="scale(0.015625)"/>
      </defs>
      <use xlink:href="#DejaVuSans-72"/>
      <use xlink:href="#DejaVuSans-64" transform="translate(39.363281 0)"/>
      <use xlink:href="#DejaVuSans-66" transform="translate(102.839844 0)"/>
     </g>
    </g>
   </g>
   <g id="line2d_14">
    <path d="M 44.406818 180.687273 
L 92.171571 180.687273 
L 92.708254 151.840725 
L 93.244936 180.687273 
L 93.781619 180.687273 
L 94.318301 167.174704 
L 94.854984 180.687273 
L 95.391667 167.734751 
L 95.928349 129.945349 
L 96.465032 168.26066 
L 97.001715 156.336136 
L 97.538397 168.755204 
L 98.07508 145.599889 
L 98.611762 157.754334 
L 99.148445 180.687273 
L 100.22181 115.781884 
L 100.758493 138.233457 
L 101.295175 139.026994 
L 101.831858 119.354034 
L 102.368541 180.687273 
L 102.905223 151.130615 
L 103.441906 161.337821 
L 103.978589 133.177547 
L 104.515271 162.019715 
L 105.051954 134.837079 
L 105.588636 153.655644 
L 106.125319 136.411222 
L 106.662002 145.871911 
L 107.198684 146.46194 
L 107.735367 96.561936 
L 108.272049 139.325657 
L 108.808732 156.280514 
L 109.345415 140.676213 
L 110.41878 157.451889 
L 110.955463 150.202401 
L 111.492145 150.686282 
L 112.028828 158.540832 
L 112.56551 129.819742 
L 113.102193 116.30008 
L 113.638876 131.378751 
L 115.248923 153.772445 
L 115.785606 134.289372 
L 116.858971 148.516965 
L 117.395654 142.646493 
L 117.932337 149.445994 
L 118.469019 143.737247 
L 119.005702 150.335452 
L 119.542384 162.734473 
L 120.079067 139.387398 
L 120.61575 157.417381 
L 121.152432 123.320474 
L 121.689115 163.714639 
L 122.225797 124.886911 
L 122.76248 153.166661 
L 123.299163 142.679026 
L 124.372528 154.260033 
L 124.909211 138.963724 
L 125.445893 144.659611 
L 125.982576 129.891897 
L 126.519258 160.633002 
L 127.055941 141.096268 
L 127.592624 146.489203 
L 128.129306 161.394473 
L 128.665989 166.400807 
L 129.202671 147.771515 
L 129.739354 162.1134 
L 130.276037 153.172549 
L 130.812719 162.570572 
L 131.349402 135.951291 
L 131.886085 136.496874 
L 132.422767 158.859858 
L 132.95945 172.061479 
L 133.496132 167.903553 
L 134.032815 147.003294 
L 134.569498 151.562513 
L 135.10618 164.240379 
L 135.642863 164.432718 
L 136.179545 136.507003 
L 136.716228 117.167933 
L 137.252911 145.368227 
L 137.789593 145.772036 
L 138.326276 169.181109 
L 138.862959 146.558759 
L 139.399641 176.937827 
L 139.936324 128.781368 
L 140.473006 155.022735 
L 141.009689 144.428765 
L 141.546372 151.999281 
L 142.083054 131.031825 
L 142.619737 131.571624 
L 143.156419 135.572894 
L 143.693102 156.656131 
L 144.229785 146.724241 
L 144.766467 133.644798 
L 145.30315 137.467243 
L 146.376515 164.41142 
L 146.913198 145.25333 
L 147.44988 136.056849 
L 147.986563 155.447083 
L 148.523246 143.215241 
L 149.059928 168.324056 
L 149.596611 156.211897 
L 150.133293 129.202484 
L 150.669976 138.714103 
L 151.206659 151.00625 
L 151.743341 145.424454 
L 152.280024 148.683039 
L 152.816707 157.640812 
L 153.353389 129.340999 
L 154.426754 166.700713 
L 154.963437 141.903186 
L 155.50012 145.019959 
L 156.036802 153.513341 
L 157.110167 143.363342 
L 157.64685 162.20128 
L 158.183533 164.991007 
L 158.720215 159.954499 
L 159.256898 157.579871 
L 159.793581 145.075216 
L 160.330263 158.004749 
L 160.866946 165.704351 
L 161.403628 148.520689 
L 161.940311 148.813137 
L 162.476994 166.109194 
L 163.013676 154.201644 
L 163.550359 152.053054 
L 164.087041 161.768243 
L 164.623724 164.280238 
L 165.160407 150.48676 
L 165.697089 143.844797 
L 166.233772 151.015302 
L 166.770455 151.274614 
L 167.307137 156.016024 
L 168.380502 147.623418 
L 168.917185 154.463204 
L 169.453868 146.020728 
L 169.99055 150.612091 
L 170.527233 159.387116 
L 171.063915 151.118597 
L 171.600598 140.895637 
L 172.137281 153.689236 
L 172.673963 147.73591 
L 173.210646 154.136447 
L 173.747329 142.202946 
L 174.284011 152.563826 
L 174.820694 134.863223 
L 175.357376 139.189464 
L 175.894059 145.406844 
L 176.430742 153.469163 
L 176.967424 153.68861 
L 178.040789 129.449831 
L 178.577472 146.801161 
L 179.114155 147.07007 
L 179.650837 151.041468 
L 180.18752 156.789735 
L 180.724203 136.914902 
L 181.260885 162.591253 
L 181.797568 151.958959 
L 182.33425 148.618455 
L 182.870933 150.633909 
L 183.407616 149.110927 
L 183.944298 144.130518 
L 184.480981 147.864524 
L 185.017663 148.114269 
L 185.554346 151.763795 
L 186.091029 158.73614 
L 186.627711 157.225325 
L 187.164394 154.074551 
L 187.701077 155.923942 
L 188.774442 149.784177 
L 189.311124 151.626743 
L 189.847807 147.032647 
L 190.38449 164.778674 
L 190.921172 147.523045 
L 191.457855 157.170763 
L 191.994537 144.890068 
L 192.53122 159.05502 
L 193.067903 146.938204 
L 193.604585 153.272402 
L 194.141268 147.419453 
L 194.677951 153.661896 
L 195.214633 141.927602 
L 195.751316 152.562985 
L 196.287998 154.230799 
L 196.824681 151.497456 
L 197.361364 140.107285 
L 197.898046 149.025159 
L 198.434729 164.966256 
L 198.971411 156.559219 
L 199.508094 160.954205 
L 200.044777 149.891297 
L 200.581459 151.492375 
L 201.118142 157.214666 
L 201.654825 147.774812 
L 202.191507 143.911798 
L 202.72819 153.630325 
L 203.264872 159.187414 
L 203.801555 147.319162 
L 204.338238 148.868143 
L 204.87492 155.665061 
L 205.411603 151.90669 
L 205.948285 162.493631 
L 206.484968 147.122285 
L 207.021651 156.320289 
L 207.558333 150.109792 
L 208.095016 152.841073 
L 208.631699 158.052503 
L 209.168381 160.6981 
L 209.705064 145.932701 
L 210.241746 146.156823 
L 210.778429 157.406559 
L 211.315112 161.208141 
L 211.851794 149.235987 
L 212.388477 160.253995 
L 213.461842 146.270895 
L 213.998525 159.460161 
L 214.535207 144.359349 
L 215.07189 145.751755 
L 215.608573 164.485945 
L 216.145255 157.68668 
L 216.681938 168.11554 
L 217.21862 151.156198 
L 217.755303 147.952098 
L 218.291986 149.27546 
L 218.828668 151.698018 
L 219.365351 140.793979 
L 220.438716 154.414521 
L 220.975399 151.309687 
L 221.512081 141.753489 
L 222.048764 152.738057 
L 222.585447 156.111323 
L 223.122129 155.196325 
L 223.658812 141.623668 
L 224.195494 160.746968 
L 224.732177 146.2595 
L 225.805542 158.005931 
L 226.342225 158.139243 
L 226.878907 148.08257 
L 227.41559 158.402688 
L 227.952273 159.539596 
L 228.488955 159.662477 
L 229.025638 150.826025 
L 229.562321 147.040177 
L 230.099003 158.057048 
L 230.635686 154.274118 
L 231.172368 147.617087 
L 231.709051 144.904512 
L 232.245734 150.878141 
L 232.782416 152.003398 
L 233.319099 149.313928 
L 233.855781 152.327202 
L 234.392464 152.487022 
L 234.929147 147.971708 
L 235.465829 155.590861 
L 236.002512 149.26101 
L 236.539195 152.19359 
L 237.075877 156.007953 
L 237.61256 146.146012 
L 238.149242 149.04865 
L 238.685925 152.819064 
L 239.222608 147.607932 
L 239.75929 160.23703 
L 240.295973 148.853047 
L 240.832656 144.629385 
L 241.369338 145.699892 
L 241.906021 158.93873 
L 242.442703 149.538741 
L 242.979386 148.846023 
L 243.516069 150.729046 
L 244.589434 147.66193 
L 245.126116 148.680218 
L 245.662799 164.768935 
L 246.199482 153.186231 
L 246.736164 156.647448 
L 247.272847 149.35327 
L 247.80953 155.25973 
L 248.346212 149.681831 
L 248.882895 157.960619 
L 249.419577 146.77543 
L 249.95626 151.771359 
L 250.492943 147.127286 
L 251.029625 152.865647 
L 251.566308 155.381691 
L 252.10299 149.218313 
L 252.639673 153.293447 
L 253.176356 155.769962 
L 253.713038 152.023995 
L 254.249721 149.858111 
L 254.786404 156.916265 
L 255.323086 147.882029 
L 255.859769 154.120506 
L 256.396451 151.989049 
L 256.933134 153.636367 
L 257.469817 150.034047 
L 258.006499 157.626677 
L 258.543182 145.159171 
L 258.543182 145.159171 
" clip-path="url(#pc459870ba5)" style="fill: none; stroke: #000000; stroke-opacity: 0.5; stroke-width: 0.5; stroke-linecap: square"/>
   </g>
   <g id="line2d_15">
    <path d="M 44.406818 180.687273 
L 92.171571 180.687273 
L 92.708254 92.344714 
L 93.244936 180.687273 
L 93.781619 180.687273 
L 94.318301 139.305024 
L 94.854984 180.687273 
L 95.391667 141.020169 
L 95.928349 141.837983 
L 96.465032 180.687273 
L 97.001715 143.399592 
L 97.538397 144.145307 
L 98.07508 109.050526 
L 98.611762 180.687273 
L 99.685128 180.687273 
L 100.22181 147.558474 
L 100.758493 148.183565 
L 101.295175 116.894964 
L 102.368541 180.687273 
L 102.905223 150.514847 
L 103.441906 151.058422 
L 103.978589 122.487852 
L 104.515271 180.687273 
L 105.051954 124.520779 
L 105.588636 180.687273 
L 106.125319 126.449107 
L 107.198684 128.279726 
L 107.735367 77.633718 
L 108.272049 130.019287 
L 108.808732 155.772037 
L 109.345415 156.180497 
L 109.882097 132.470696 
L 110.41878 156.967815 
L 110.955463 134.007308 
L 112.028828 180.687273 
L 112.56551 113.923631 
L 113.102193 93.049145 
L 113.638876 137.542313 
L 114.712241 138.844838 
L 115.248923 160.080605 
L 116.322289 120.692033 
L 116.858971 141.278645 
L 117.395654 141.853971 
L 117.932337 180.687273 
L 118.469019 180.687273 
L 119.005702 143.506288 
L 119.542384 144.033636 
L 120.079067 162.618575 
L 120.61575 162.87126 
L 121.152432 127.981523 
L 121.689115 163.361041 
L 122.76248 130.118143 
L 123.299163 147.430054 
L 123.835845 147.876455 
L 124.372528 115.940526 
L 124.909211 132.770382 
L 125.445893 180.687273 
L 125.982576 165.131187 
L 126.519258 134.625113 
L 127.055941 120.063541 
L 127.592624 150.763958 
L 128.129306 165.916221 
L 128.665989 136.934966 
L 129.739354 166.46665 
L 130.276037 166.643297 
L 130.812719 152.946069 
L 131.349402 125.88569 
L 131.886085 153.620651 
L 132.422767 140.579394 
L 132.95945 180.687273 
L 133.496132 180.687273 
L 134.032815 142.003323 
L 135.10618 168.095118 
L 135.642863 168.242377 
L 136.179545 156.086892 
L 136.716228 107.739268 
L 137.252911 168.668985 
L 137.789593 180.687273 
L 138.326276 168.941395 
L 138.862959 122.621392 
L 139.399641 169.204594 
L 139.936324 112.560762 
L 141.009689 180.687273 
L 141.546372 147.740903 
L 142.083054 158.963011 
L 142.619737 126.967023 
L 143.156419 116.919829 
L 143.693102 138.632767 
L 144.229785 149.483733 
L 144.766467 139.5251 
L 145.839833 140.389451 
L 146.376515 170.718312 
L 146.913198 160.957007 
L 147.44988 112.346926 
L 147.986563 161.36275 
L 148.523246 142.434568 
L 149.059928 180.687273 
L 149.596611 133.839866 
L 150.133293 152.862768 
L 151.206659 153.41783 
L 151.743341 144.689808 
L 152.280024 162.866731 
L 152.816707 171.864798 
L 153.353389 145.743278 
L 153.890072 163.38576 
L 154.426754 163.553736 
L 154.963437 172.203253 
L 155.50012 147.077685 
L 156.036802 130.755169 
L 156.573485 122.988108 
L 157.110167 123.534995 
L 157.64685 156.424405 
L 158.183533 164.663999 
L 158.720215 180.687273 
L 159.256898 172.824336 
L 159.793581 133.946443 
L 160.866946 165.392205 
L 161.403628 157.954156 
L 161.940311 143.143213 
L 162.476994 165.805482 
L 163.013676 151.191912 
L 164.087041 151.717506 
L 164.623724 173.509195 
L 165.160407 145.114549 
L 165.697089 131.324109 
L 166.233772 166.707209 
L 166.770455 146.042548 
L 167.307137 146.343769 
L 167.84382 173.878024 
L 168.380502 140.184048 
L 168.917185 160.609466 
L 169.453868 134.239517 
L 170.527233 174.164099 
L 171.063915 161.282826 
L 171.600598 129.377001 
L 172.137281 148.886697 
L 172.673963 130.230493 
L 173.210646 149.41346 
L 173.747329 137.265807 
L 174.284011 143.775242 
L 174.820694 144.077835 
L 175.357376 162.531979 
L 175.894059 156.676979 
L 176.430742 156.871424 
L 176.967424 145.251525 
L 177.504107 127.960553 
L 178.040789 145.817343 
L 178.577472 140.329852 
L 179.114155 146.36971 
L 179.650837 163.664092 
L 180.18752 163.798146 
L 180.724203 141.588509 
L 181.260885 169.603461 
L 181.797568 142.195818 
L 182.33425 147.950348 
L 182.870933 159.031169 
L 183.407616 159.197813 
L 183.944298 148.700106 
L 184.480981 133.072686 
L 185.017663 164.936507 
L 185.554346 139.003431 
L 186.091029 154.831368 
L 186.627711 155.025761 
L 187.701077 165.519732 
L 188.237759 150.577686 
L 189.311124 151.021313 
L 189.847807 121.791669 
L 190.38449 170.943255 
L 190.921172 137.159219 
L 191.457855 151.879546 
L 191.994537 123.48956 
L 192.53122 175.955217 
L 193.067903 152.499129 
L 193.604585 166.694264 
L 194.141268 139.007983 
L 194.677951 162.295001 
L 195.214633 153.294619 
L 195.751316 158.021314 
L 196.287998 140.175791 
L 196.824681 144.929745 
L 197.361364 140.741341 
L 197.898046 149.834701 
L 198.434729 154.426027 
L 198.971411 141.567883 
L 199.508094 163.420836 
L 200.044777 154.965631 
L 200.581459 155.141733 
L 201.118142 163.773186 
L 201.654825 155.488667 
L 202.191507 143.145637 
L 202.72819 151.685604 
L 203.264872 168.341648 
L 203.801555 156.161707 
L 204.338238 148.20524 
L 204.87492 156.488156 
L 205.411603 144.629778 
L 205.948285 160.787973 
L 206.484968 160.919429 
L 207.021651 157.121831 
L 207.558333 161.178199 
L 208.095016 153.553049 
L 208.631699 165.283053 
L 210.241746 142.919586 
L 210.778429 161.924851 
L 211.315112 150.85985 
L 211.851794 151.050482 
L 212.388477 162.282294 
L 212.925159 147.768485 
L 213.461842 155.245853 
L 213.998525 159.017927 
L 214.535207 141.209947 
L 215.07189 130.758593 
L 215.608573 155.878987 
L 216.145255 166.599408 
L 217.21862 166.773591 
L 217.755303 139.203897 
L 218.291986 142.89493 
L 218.828668 139.712073 
L 219.365351 146.750264 
L 219.902033 143.584133 
L 220.438716 163.924706 
L 220.975399 154.029831 
L 222.048764 147.766316 
L 222.585447 147.963856 
L 223.122129 161.170763 
L 223.658812 145.12091 
L 224.195494 158.188834 
L 224.732177 145.54225 
L 225.26886 164.806758 
L 225.805542 171.215234 
L 226.878907 146.363177 
L 227.41559 165.176693 
L 227.952273 159.099016 
L 228.488955 159.224458 
L 229.025638 150.203912 
L 229.562321 135.226575 
L 230.099003 162.607689 
L 231.172368 144.942287 
L 231.709051 156.99328 
L 232.245734 142.404169 
L 232.782416 160.190252 
L 233.319099 131.191063 
L 233.855781 145.946183 
L 234.392464 140.384413 
L 234.929147 149.198538 
L 235.465829 146.528266 
L 236.002512 141.057827 
L 236.539195 152.538267 
L 237.075877 152.694521 
L 237.61256 144.498478 
L 238.149242 150.235097 
L 238.685925 147.649958 
L 239.222608 164.259354 
L 239.75929 161.62631 
L 240.295973 137.357351 
L 240.832656 126.820296 
L 241.369338 148.542614 
L 241.906021 159.373696 
L 242.442703 151.539597 
L 242.979386 159.603199 
L 243.516069 136.124407 
L 244.052751 146.792586 
L 244.589434 144.380566 
L 245.126116 160.051143 
L 245.662799 167.858346 
L 246.199482 160.269829 
L 247.272847 140.282893 
L 247.80953 153.055323 
L 248.346212 158.198124 
L 248.882895 158.315719 
L 249.419577 148.54167 
L 249.95626 143.789357 
L 250.492943 153.769364 
L 251.029625 151.474563 
L 251.566308 146.781742 
L 252.10299 137.319108 
L 252.639673 159.114633 
L 253.176356 159.22529 
L 253.713038 147.472729 
L 254.249721 157.083693 
L 254.786404 164.248853 
L 255.323086 138.631707 
L 255.859769 157.44135 
L 256.396451 150.620214 
L 256.933134 139.265567 
L 257.469817 146.342571 
L 258.006499 162.461961 
L 258.543182 158.019598 
L 258.543182 158.019598 
" clip-path="url(#pc459870ba5)" style="fill: none; stroke: #0000ff; stroke-opacity: 0.5; stroke-linecap: square"/>
   </g>
   <g id="line2d_16">
    <path d="M 44.406818 180.687273 
L 99.148445 180.687273 
L 100.22181 62.896005 
L 100.758493 180.687273 
L 101.295175 123.983003 
L 101.831858 125.033038 
L 102.368541 180.687273 
L 103.978589 180.687273 
L 104.515271 129.870028 
L 105.588636 131.62987 
L 106.125319 180.687273 
L 107.198684 180.687273 
L 107.735367 43.282558 
L 108.272049 135.649069 
L 108.808732 136.393526 
L 109.345415 93.55208 
L 109.882097 180.687273 
L 110.41878 180.687273 
L 110.955463 139.193974 
L 111.492145 180.687273 
L 112.028828 180.687273 
L 112.56551 22.432727 
L 113.102193 102.786718 
L 113.638876 142.336202 
L 114.175558 142.92177 
L 114.712241 180.687273 
L 115.248923 144.053201 
L 116.322289 145.134545 
L 116.858971 110.6275 
L 117.395654 180.687273 
L 117.932337 112.65071 
L 118.469019 147.158546 
L 119.005702 147.637514 
L 119.542384 180.687273 
L 120.079067 148.56515 
L 121.152432 149.454239 
L 121.689115 180.687273 
L 122.225797 59.166487 
L 122.76248 120.753497 
L 123.299163 92.001365 
L 123.835845 151.522107 
L 124.372528 180.687273 
L 124.909211 152.292081 
L 125.445893 152.665758 
L 125.982576 70.066227 
L 126.519258 180.687273 
L 127.055941 126.799517 
L 127.592624 180.687273 
L 128.665989 180.687273 
L 129.739354 130.125062 
L 130.276037 155.720208 
L 130.812719 156.028429 
L 131.349402 180.687273 
L 131.886085 132.568841 
L 132.422767 156.919644 
L 133.496132 157.487189 
L 134.032815 180.687273 
L 135.642863 180.687273 
L 136.179545 71.352259 
L 136.716228 115.844614 
L 137.252911 137.955588 
L 137.789593 180.687273 
L 138.326276 159.805716 
L 138.862959 160.04163 
L 139.399641 180.687273 
L 139.936324 160.501644 
L 140.473006 160.725964 
L 141.009689 81.983555 
L 141.546372 141.639727 
L 142.083054 103.445463 
L 142.619737 123.385684 
L 143.156419 124.005108 
L 143.693102 161.996385 
L 144.229785 162.196289 
L 144.766467 107.510089 
L 145.30315 108.284488 
L 145.839833 162.777131 
L 146.376515 180.687273 
L 146.913198 128.07324 
L 147.44988 163.330996 
L 147.986563 180.687273 
L 148.523246 180.687273 
L 149.059928 163.859561 
L 149.596611 164.030419 
L 150.133293 147.710085 
L 150.669976 115.395673 
L 151.206659 164.527606 
L 151.743341 132.69066 
L 152.280024 149.006313 
L 152.816707 180.687273 
L 153.353389 134.095286 
L 153.890072 165.308152 
L 154.426754 165.457464 
L 154.963437 120.356469 
L 155.50012 135.874498 
L 156.036802 165.892577 
L 156.573485 166.033518 
L 157.110167 151.657548 
L 157.64685 180.687273 
L 158.183533 166.444364 
L 158.720215 138.357861 
L 159.793581 139.139875 
L 160.330263 166.965746 
L 160.866946 153.496044 
L 161.403628 113.329894 
L 161.940311 153.989279 
L 162.476994 180.687273 
L 163.013676 180.687273 
L 163.550359 167.695822 
L 164.087041 180.687273 
L 164.623724 155.16522 
L 165.160407 168.039194 
L 166.770455 168.36915 
L 167.307137 156.265229 
L 167.84382 120.160625 
L 168.380502 156.685365 
L 168.917185 168.789314 
L 169.453868 145.29851 
L 169.99055 157.295465 
L 172.137281 158.073534 
L 172.673963 147.049426 
L 173.210646 147.328546 
L 173.747329 136.576581 
L 174.284011 136.939686 
L 174.820694 115.603837 
L 175.357376 137.652508 
L 176.967424 170.187793 
L 178.040789 129.028124 
L 178.577472 160.188266 
L 179.114155 150.182777 
L 180.18752 150.662163 
L 180.724203 140.967897 
L 181.260885 180.687273 
L 181.797568 170.911666 
L 182.33425 132.188133 
L 182.870933 142.187539 
L 183.407616 161.585533 
L 183.944298 142.776564 
L 184.480981 152.471227 
L 185.017663 152.685919 
L 185.554346 162.161123 
L 186.091029 143.914435 
L 186.627711 153.314999 
L 187.164394 126.352971 
L 187.701077 171.699101 
L 188.237759 153.9232 
L 188.774442 162.976726 
L 189.311124 145.527618 
L 189.847807 171.961999 
L 190.38449 180.687273 
L 190.921172 154.892875 
L 191.994537 155.26607 
L 192.53122 163.862187 
L 193.067903 155.631149 
L 193.604585 139.226508 
L 194.141268 131.289604 
L 194.677951 147.989902 
L 195.751316 148.451246 
L 196.287998 164.68274 
L 196.824681 140.956689 
L 197.361364 141.234506 
L 197.898046 157.180555 
L 198.434729 180.687273 
L 199.508094 165.339331 
L 200.581459 135.272988 
L 201.118142 150.617788 
L 202.191507 121.36223 
L 202.72819 151.225262 
L 203.264872 158.7395 
L 203.801555 144.353104 
L 204.338238 166.250816 
L 204.87492 152.006842 
L 205.411603 130.830003 
L 205.948285 159.461357 
L 206.484968 138.515881 
L 207.021651 145.775508 
L 207.558333 132.131363 
L 208.095016 160.01358 
L 208.631699 173.840953 
L 209.168381 160.281659 
L 209.705064 133.382437 
L 210.241746 160.544511 
L 210.778429 167.34511 
L 211.315112 167.430642 
L 211.851794 154.343461 
L 212.925159 141.672418 
L 213.461842 167.764648 
L 213.998525 148.584542 
L 214.535207 142.406237 
L 215.07189 148.986527 
L 215.608573 180.687273 
L 216.145255 161.903456 
L 216.681938 180.687273 
L 217.21862 131.216412 
L 217.755303 137.667484 
L 218.291986 162.363715 
L 218.828668 150.335276 
L 219.365351 132.421313 
L 220.438716 156.847182 
L 220.975399 151.067896 
L 221.512081 121.80593 
L 222.048764 157.276819 
L 222.585447 163.234788 
L 223.122129 140.208591 
L 223.658812 128.954388 
L 224.195494 163.545607 
L 224.732177 146.607258 
L 225.805542 147.00892 
L 226.342225 169.527137 
L 226.878907 147.403308 
L 227.41559 142.083172 
L 227.952273 158.756347 
L 228.488955 164.334654 
L 229.562321 153.747604 
L 230.099003 159.259622 
L 230.635686 132.752285 
L 231.172368 143.618402 
L 231.709051 122.768628 
L 232.245734 170.216682 
L 232.782416 154.659311 
L 233.319099 165.159051 
L 234.392464 165.333804 
L 234.929147 150.152748 
L 235.465829 170.566086 
L 236.002512 140.428791 
L 236.539195 160.670205 
L 237.075877 140.875364 
L 237.61256 141.096118 
L 238.149242 136.393204 
L 238.685925 161.109607 
L 239.222608 151.482088 
L 239.75929 156.482878 
L 240.295973 151.800663 
L 241.369338 152.114249 
L 241.906021 166.478224 
L 242.442703 138.290658 
L 242.979386 143.204482 
L 243.516069 162.046598 
L 244.052751 162.146593 
L 244.589434 143.804273 
L 245.126116 153.172437 
L 245.662799 157.880294 
L 246.199482 153.46402 
L 246.736164 144.581481 
L 247.272847 149.261651 
L 247.80953 176.221503 
L 248.346212 149.591171 
L 248.882895 154.172843 
L 249.419577 145.519437 
L 249.95626 132.58333 
L 250.492943 150.234693 
L 251.029625 146.064806 
L 251.566308 172.076346 
L 252.10299 167.837448 
L 252.639673 142.335917 
L 253.176356 159.490254 
L 253.713038 163.816394 
L 254.249721 155.510126 
L 254.786404 163.987926 
L 255.323086 139.150914 
L 255.859769 155.891626 
L 256.396451 139.569932 
L 256.933134 176.596241 
L 257.469817 152.193896 
L 258.006499 152.336791 
L 258.543182 148.448807 
L 258.543182 148.448807 
" clip-path="url(#pc459870ba5)" style="fill: none; stroke: #ff0000; stroke-opacity: 0.5; stroke-linecap: square"/>
   </g>
   <g id="patch_3">
    <path d="M 33.7 188.6 
L 33.7 14.52 
" style="fill: none; stroke: #000000; stroke-width: 0.8; stroke-linejoin: miter; stroke-linecap: square"/>
   </g>
   <g id="patch_4">
    <path d="M 269.25 188.6 
L 269.25 14.52 
" style="fill: none; stroke: #000000; stroke-width: 0.8; stroke-linejoin: miter; stroke-linecap: square"/>
   </g>
   <g id="patch_5">
    <path d="M 33.7 188.6 
L 269.25 188.6 
" style="fill: none; stroke: #000000; stroke-width: 0.8; stroke-linejoin: miter; stroke-linecap: square"/>
   </g>
   <g id="patch_6">
    <path d="M 33.7 14.52 
L 269.25 14.52 
" style="fill: none; stroke: #000000; stroke-width: 0.8; stroke-linejoin: miter; stroke-linecap: square"/>
   </g>
   <g id="legend_1">
    <g id="patch_7">
     <path d="M 213.917188 66.554375 
L 262.25 66.554375 
Q 264.25 66.554375 264.25 64.554375 
L 264.25 21.52 
Q 264.25 19.52 262.25 19.52 
L 213.917188 19.52 
Q 211.917188 19.52 211.917188 21.52 
L 211.917188 64.554375 
Q 211.917188 66.554375 213.917188 66.554375 
z
" style="fill: #ffffff; opacity: 0.8; stroke: #cccccc; stroke-linejoin: miter"/>
    </g>
    <g id="line2d_17">
     <path d="M 215.917188 27.618438 
L 225.917188 27.618438 
L 235.917188 27.618438 
" style="fill: none; stroke: #000000; stroke-opacity: 0.5; stroke-width: 0.5; stroke-linecap: square"/>
    </g>
    <g id="text_16">
     <!-- all -->
     <g transform="translate(243.917188 31.118438) scale(0.1 -0.1)">
      <defs>
       <path id="DejaVuSans-61" d="M 2194 1759 
Q 1497 1759 1228 1600 
Q 959 1441 959 1056 
Q 959 750 1161 570 
Q 1363 391 1709 391 
Q 2188 391 2477 730 
Q 2766 1069 2766 1631 
L 2766 1759 
L 2194 1759 
z
M 3341 1997 
L 3341 0 
L 2766 0 
L 2766 531 
Q 2569 213 2275 61 
Q 1981 -91 1556 -91 
Q 1019 -91 701 211 
Q 384 513 384 1019 
Q 384 1609 779 1909 
Q 1175 2209 1959 2209 
L 2766 2209 
L 2766 2266 
Q 2766 2663 2505 2880 
Q 2244 3097 1772 3097 
Q 1472 3097 1187 3025 
Q 903 2953 641 2809 
L 641 3341 
Q 956 3463 1253 3523 
Q 1550 3584 1831 3584 
Q 2591 3584 2966 3190 
Q 3341 2797 3341 1997 
z
" transform="scale(0.015625)"/>
       <path id="DejaVuSans-6c" d="M 603 4863 
L 1178 4863 
L 1178 0 
L 603 0 
L 603 4863 
z
" transform="scale(0.015625)"/>
      </defs>
      <use xlink:href="#DejaVuSans-61"/>
      <use xlink:href="#DejaVuSans-6c" transform="translate(61.279297 0)"/>
      <use xlink:href="#DejaVuSans-6c" transform="translate(89.0625 0)"/>
     </g>
    </g>
    <g id="line2d_18">
     <path d="M 215.917188 42.296563 
L 225.917188 42.296563 
L 235.917188 42.296563 
" style="fill: none; stroke: #0000ff; stroke-opacity: 0.5; stroke-linecap: square"/>
    </g>
    <g id="text_17">
     <!-- 1-1 -->
     <g transform="translate(243.917188 45.796563) scale(0.1 -0.1)">
      <defs>
       <path id="DejaVuSans-2d" d="M 313 2009 
L 1997 2009 
L 1997 1497 
L 313 1497 
L 313 2009 
z
" transform="scale(0.015625)"/>
      </defs>
      <use xlink:href="#DejaVuSans-31"/>
      <use xlink:href="#DejaVuSans-2d" transform="translate(63.623047 0)"/>
      <use xlink:href="#DejaVuSans-31" transform="translate(99.707031 0)"/>
     </g>
    </g>
    <g id="line2d_19">
     <path d="M 215.917188 56.974688 
L 225.917188 56.974688 
L 235.917188 56.974688 
" style="fill: none; stroke: #ff0000; stroke-opacity: 0.5; stroke-linecap: square"/>
    </g>
    <g id="text_18">
     <!-- 2-2 -->
     <g transform="translate(243.917188 60.474688) scale(0.1 -0.1)">
      <use xlink:href="#DejaVuSans-32"/>
      <use xlink:href="#DejaVuSans-2d" transform="translate(63.623047 0)"/>
      <use xlink:href="#DejaVuSans-32" transform="translate(99.707031 0)"/>
     </g>
    </g>
   </g>
  </g>
 </g>
 <defs>
  <clipPath id="pc459870ba5">
   <rect x="33.7" y="14.52" width="235.55" height="174.08"/>
  </clipPath>
 </defs>
</svg>
