<?xml version="1.0" encoding="utf-8" standalone="no"?>
<!DOCTYPE svg PUBLIC "-//W3C//DTD SVG 1.1//EN"
  "http://www.w3.org/Graphics/SVG/1.1/DTD/svg11.dtd">
<svg xmlns:xlink="http://www.w3.org/1999/xlink" width="288pt" height="216pt" viewBox="0 0 288 216" xmlns="http://www.w3.org/2000/svg" version="1.1">
 <metadata>
  <rdf:RDF xmlns:dc="http://purl.org/dc/elements/1.1/" xmlns:cc="http://creativecommons.org/ns#" xmlns:rdf="http://www.w3.org/1999/02/22-rdf-syntax-ns#">
   <cc:Work>
    <dc:type rdf:resource="http://purl.org/dc/dcmitype/StillImage"/>
    <dc:date>2025-09-17T22:53:38.946360</dc:date>
    <dc:format>image/svg+xml</dc:format>
    <dc:creator>
     <cc:Agent>
      <dc:title>Matplotlib v3.10.0, https://matplotlib.org/</dc:title>
     </cc:Agent>
    </dc:creator>
   </cc:Work>
  </rdf:RDF>
 </metadata>
 <defs>
  <style type="text/css">*{stroke-linejoin: round; stroke-linecap: butt}</style>
 </defs>
 <g id="figure_1">
  <g id="patch_1">
   <path d="M 0 216 
L 288 216 
L 288 0 
L 0 0 
z
" style="fill: #ffffff"/>
  </g>
  <g id="axes_1">
   <g id="patch_2">
    <path d="M 33.7 188.6 
L 269.25 188.6 
L 269.25 14.52 
L 33.7 14.52 
z
" style="fill: #ffffff"/>
   </g>
   <g id="matplotlib.axis_1">
    <g id="xtick_1">
     <g id="line2d_1">
      <defs>
       <path id="mcad6da8a60" d="M 0 0 
L 0 3.5 
" style="stroke: #000000; stroke-width: 0.8"/>
      </defs>
      <g>
       <use xlink:href="#mcad6da8a60" x="44.138477" y="188.6" style="stroke: #000000; stroke-width: 0.8"/>
      </g>
     </g>
     <g id="text_1">
      <!-- 0 -->
      <g transform="translate(40.957227 203.198437) scale(0.1 -0.1)">
       <defs>
        <path id="DejaVuSans-30" d="M 2034 4250 
Q 1547 4250 1301 3770 
Q 1056 3291 1056 2328 
Q 1056 1369 1301 889 
Q 1547 409 2034 409 
Q 2525 409 2770 889 
Q 3016 1369 3016 2328 
Q 3016 3291 2770 3770 
Q 2525 4250 2034 4250 
z
M 2034 4750 
Q 2819 4750 3233 4129 
Q 3647 3509 3647 2328 
Q 3647 1150 3233 529 
Q 2819 -91 2034 -91 
Q 1250 -91 836 529 
Q 422 1150 422 2328 
Q 422 3509 836 4129 
Q 1250 4750 2034 4750 
z
" transform="scale(0.015625)"/>
       </defs>
       <use xlink:href="#DejaVuSans-30"/>
      </g>
     </g>
    </g>
    <g id="xtick_2">
     <g id="line2d_2">
      <g>
       <use xlink:href="#mcad6da8a60" x="87.073086" y="188.6" style="stroke: #000000; stroke-width: 0.8"/>
      </g>
     </g>
     <g id="text_2">
      <!-- 200 -->
      <g transform="translate(77.529336 203.198437) scale(0.1 -0.1)">
       <defs>
        <path id="DejaVuSans-32" d="M 1228 531 
L 3431 531 
L 3431 0 
L 469 0 
L 469 531 
Q 828 903 1448 1529 
Q 2069 2156 2228 2338 
Q 2531 2678 2651 2914 
Q 2772 3150 2772 3378 
Q 2772 3750 2511 3984 
Q 2250 4219 1831 4219 
Q 1534 4219 1204 4116 
Q 875 4013 500 3803 
L 500 4441 
Q 881 4594 1212 4672 
Q 1544 4750 1819 4750 
Q 2544 4750 2975 4387 
Q 3406 4025 3406 3419 
Q 3406 3131 3298 2873 
Q 3191 2616 2906 2266 
Q 2828 2175 2409 1742 
Q 1991 1309 1228 531 
z
" transform="scale(0.015625)"/>
       </defs>
       <use xlink:href="#DejaVuSans-32"/>
       <use xlink:href="#DejaVuSans-30" transform="translate(63.623047 0)"/>
       <use xlink:href="#DejaVuSans-30" transform="translate(127.246094 0)"/>
      </g>
     </g>
    </g>
    <g id="xtick_3">
     <g id="line2d_3">
      <g>
       <use xlink:href="#mcad6da8a60" x="130.007695" y="188.6" style="stroke: #000000; stroke-width: 0.8"/>
      </g>
     </g>
     <g id="text_3">
      <!-- 400 -->
      <g transform="translate(120.463945 203.198437) scale(0.1 -0.1)">
       <defs>
        <path id="DejaVuSans-34" d="M 2419 4116 
L 825 1625 
L 2419 1625 
L 2419 4116 
z
M 2253 4666 
L 3047 4666 
L 3047 1625 
L 3713 1625 
L 3713 1100 
L 3047 1100 
L 3047 0 
L 2419 0 
L 2419 1100 
L 313 1100 
L 313 1709 
L 2253 4666 
z
" transform="scale(0.015625)"/>
       </defs>
       <use xlink:href="#DejaVuSans-34"/>
       <use xlink:href="#DejaVuSans-30" transform="translate(63.623047 0)"/>
       <use xlink:href="#DejaVuSans-30" transform="translate(127.246094 0)"/>
      </g>
     </g>
    </g>
    <g id="xtick_4">
     <g id="line2d_4">
      <g>
       <use xlink:href="#mcad6da8a60" x="172.942305" y="188.6" style="stroke: #000000; stroke-width: 0.8"/>
      </g>
     </g>
     <g id="text_4">
      <!-- 600 -->
      <g transform="translate(163.398555 203.198437) scale(0.1 -0.1)">
       <defs>
        <path id="DejaVuSans-36" d="M 2113 2584 
Q 1688 2584 1439 2293 
Q 1191 2003 1191 1497 
Q 1191 994 1439 701 
Q 1688 409 2113 409 
Q 2538 409 2786 701 
Q 3034 994 3034 1497 
Q 3034 2003 2786 2293 
Q 2538 2584 2113 2584 
z
M 3366 4563 
L 3366 3988 
Q 3128 4100 2886 4159 
Q 2644 4219 2406 4219 
Q 1781 4219 1451 3797 
Q 1122 3375 1075 2522 
Q 1259 2794 1537 2939 
Q 1816 3084 2150 3084 
Q 2853 3084 3261 2657 
Q 3669 2231 3669 1497 
Q 3669 778 3244 343 
Q 2819 -91 2113 -91 
Q 1303 -91 875 529 
Q 447 1150 447 2328 
Q 447 3434 972 4092 
Q 1497 4750 2381 4750 
Q 2619 4750 2861 4703 
Q 3103 4656 3366 4563 
z
" transform="scale(0.015625)"/>
       </defs>
       <use xlink:href="#DejaVuSans-36"/>
       <use xlink:href="#DejaVuSans-30" transform="translate(63.623047 0)"/>
       <use xlink:href="#DejaVuSans-30" transform="translate(127.246094 0)"/>
      </g>
     </g>
    </g>
    <g id="xtick_5">
     <g id="line2d_5">
      <g>
       <use xlink:href="#mcad6da8a60" x="215.876914" y="188.6" style="stroke: #000000; stroke-width: 0.8"/>
      </g>
     </g>
     <g id="text_5">
      <!-- 800 -->
      <g transform="translate(206.333164 203.198437) scale(0.1 -0.1)">
       <defs>
        <path id="DejaVuSans-38" d="M 2034 2216 
Q 1584 2216 1326 1975 
Q 1069 1734 1069 1313 
Q 1069 891 1326 650 
Q 1584 409 2034 409 
Q 2484 409 2743 651 
Q 3003 894 3003 1313 
Q 3003 1734 2745 1975 
Q 2488 2216 2034 2216 
z
M 1403 2484 
Q 997 2584 770 2862 
Q 544 3141 544 3541 
Q 544 4100 942 4425 
Q 1341 4750 2034 4750 
Q 2731 4750 3128 4425 
Q 3525 4100 3525 3541 
Q 3525 3141 3298 2862 
Q 3072 2584 2669 2484 
Q 3125 2378 3379 2068 
Q 3634 1759 3634 1313 
Q 3634 634 3220 271 
Q 2806 -91 2034 -91 
Q 1263 -91 848 271 
Q 434 634 434 1313 
Q 434 1759 690 2068 
Q 947 2378 1403 2484 
z
M 1172 3481 
Q 1172 3119 1398 2916 
Q 1625 2713 2034 2713 
Q 2441 2713 2670 2916 
Q 2900 3119 2900 3481 
Q 2900 3844 2670 4047 
Q 2441 4250 2034 4250 
Q 1625 4250 1398 4047 
Q 1172 3844 1172 3481 
z
" transform="scale(0.015625)"/>
       </defs>
       <use xlink:href="#DejaVuSans-38"/>
       <use xlink:href="#DejaVuSans-30" transform="translate(63.623047 0)"/>
       <use xlink:href="#DejaVuSans-30" transform="translate(127.246094 0)"/>
      </g>
     </g>
    </g>
    <g id="xtick_6">
     <g id="line2d_6">
      <g>
       <use xlink:href="#mcad6da8a60" x="258.811523" y="188.6" style="stroke: #000000; stroke-width: 0.8"/>
      </g>
     </g>
     <g id="text_6">
      <!-- 1000 -->
      <g transform="translate(246.086523 203.198437) scale(0.1 -0.1)">
       <defs>
        <path id="DejaVuSans-31" d="M 794 531 
L 1825 531 
L 1825 4091 
L 703 3866 
L 703 4441 
L 1819 4666 
L 2450 4666 
L 2450 531 
L 3481 531 
L 3481 0 
L 794 0 
L 794 531 
z
" transform="scale(0.015625)"/>
       </defs>
       <use xlink:href="#DejaVuSans-31"/>
       <use xlink:href="#DejaVuSans-30" transform="translate(63.623047 0)"/>
       <use xlink:href="#DejaVuSans-30" transform="translate(127.246094 0)"/>
       <use xlink:href="#DejaVuSans-30" transform="translate(190.869141 0)"/>
      </g>
     </g>
    </g>
    <g id="text_7">
     <!-- q (nm) -->
     <g transform="translate(134.771094 216.876563) scale(0.1 -0.1)">
      <defs>
       <path id="DejaVuSans-71" d="M 947 1747 
Q 947 1113 1208 752 
Q 1469 391 1925 391 
Q 2381 391 2643 752 
Q 2906 1113 2906 1747 
Q 2906 2381 2643 2742 
Q 2381 3103 1925 3103 
Q 1469 3103 1208 2742 
Q 947 2381 947 1747 
z
M 2906 525 
Q 2725 213 2448 61 
Q 2172 -91 1784 -91 
Q 1150 -91 751 415 
Q 353 922 353 1747 
Q 353 2572 751 3078 
Q 1150 3584 1784 3584 
Q 2172 3584 2448 3432 
Q 2725 3281 2906 2969 
L 2906 3500 
L 3481 3500 
L 3481 -1331 
L 2906 -1331 
L 2906 525 
z
" transform="scale(0.015625)"/>
       <path id="DejaVuSans-20" transform="scale(0.015625)"/>
       <path id="DejaVuSans-28" d="M 1984 4856 
Q 1566 4138 1362 3434 
Q 1159 2731 1159 2009 
Q 1159 1288 1364 580 
Q 1569 -128 1984 -844 
L 1484 -844 
Q 1016 -109 783 600 
Q 550 1309 550 2009 
Q 550 2706 781 3412 
Q 1013 4119 1484 4856 
L 1984 4856 
z
" transform="scale(0.015625)"/>
       <path id="DejaVuSans-6e" d="M 3513 2113 
L 3513 0 
L 2938 0 
L 2938 2094 
Q 2938 2591 2744 2837 
Q 2550 3084 2163 3084 
Q 1697 3084 1428 2787 
Q 1159 2491 1159 1978 
L 1159 0 
L 581 0 
L 581 3500 
L 1159 3500 
L 1159 2956 
Q 1366 3272 1645 3428 
Q 1925 3584 2291 3584 
Q 2894 3584 3203 3211 
Q 3513 2838 3513 2113 
z
" transform="scale(0.015625)"/>
       <path id="DejaVuSans-6d" d="M 3328 2828 
Q 3544 3216 3844 3400 
Q 4144 3584 4550 3584 
Q 5097 3584 5394 3201 
Q 5691 2819 5691 2113 
L 5691 0 
L 5113 0 
L 5113 2094 
Q 5113 2597 4934 2840 
Q 4756 3084 4391 3084 
Q 3944 3084 3684 2787 
Q 3425 2491 3425 1978 
L 3425 0 
L 2847 0 
L 2847 2094 
Q 2847 2600 2669 2842 
Q 2491 3084 2119 3084 
Q 1678 3084 1418 2786 
Q 1159 2488 1159 1978 
L 1159 0 
L 581 0 
L 581 3500 
L 1159 3500 
L 1159 2956 
Q 1356 3278 1631 3431 
Q 1906 3584 2284 3584 
Q 2666 3584 2933 3390 
Q 3200 3197 3328 2828 
z
" transform="scale(0.015625)"/>
       <path id="DejaVuSans-29" d="M 513 4856 
L 1013 4856 
Q 1481 4119 1714 3412 
Q 1947 2706 1947 2009 
Q 1947 1309 1714 600 
Q 1481 -109 1013 -844 
L 513 -844 
Q 928 -128 1133 580 
Q 1338 1288 1338 2009 
Q 1338 2731 1133 3434 
Q 928 4138 513 4856 
z
" transform="scale(0.015625)"/>
      </defs>
      <use xlink:href="#DejaVuSans-71"/>
      <use xlink:href="#DejaVuSans-20" transform="translate(63.476562 0)"/>
      <use xlink:href="#DejaVuSans-28" transform="translate(95.263672 0)"/>
      <use xlink:href="#DejaVuSans-6e" transform="translate(134.277344 0)"/>
      <use xlink:href="#DejaVuSans-6d" transform="translate(197.65625 0)"/>
      <use xlink:href="#DejaVuSans-29" transform="translate(295.068359 0)"/>
     </g>
    </g>
   </g>
   <g id="matplotlib.axis_2">
    <g id="ytick_1">
     <g id="line2d_7">
      <defs>
       <path id="m5d5516c31a" d="M 0 0 
L -3.5 0 
" style="stroke: #000000; stroke-width: 0.8"/>
      </defs>
      <g>
       <use xlink:href="#m5d5516c31a" x="33.7" y="180.687273" style="stroke: #000000; stroke-width: 0.8"/>
      </g>
     </g>
     <g id="text_8">
      <!-- 0 -->
      <g transform="translate(20.3375 184.486491) scale(0.1 -0.1)">
       <use xlink:href="#DejaVuSans-30"/>
      </g>
     </g>
    </g>
    <g id="ytick_2">
     <g id="line2d_8">
      <g>
       <use xlink:href="#m5d5516c31a" x="33.7" y="146.042142" style="stroke: #000000; stroke-width: 0.8"/>
      </g>
     </g>
     <g id="text_9">
      <!-- 20000 -->
      <g transform="translate(-5.1125 149.841361) scale(0.1 -0.1)">
       <use xlink:href="#DejaVuSans-32"/>
       <use xlink:href="#DejaVuSans-30" transform="translate(63.623047 0)"/>
       <use xlink:href="#DejaVuSans-30" transform="translate(127.246094 0)"/>
       <use xlink:href="#DejaVuSans-30" transform="translate(190.869141 0)"/>
       <use xlink:href="#DejaVuSans-30" transform="translate(254.492188 0)"/>
      </g>
     </g>
    </g>
    <g id="ytick_3">
     <g id="line2d_9">
      <g>
       <use xlink:href="#m5d5516c31a" x="33.7" y="111.397011" style="stroke: #000000; stroke-width: 0.8"/>
      </g>
     </g>
     <g id="text_10">
      <!-- 40000 -->
      <g transform="translate(-5.1125 115.19623) scale(0.1 -0.1)">
       <use xlink:href="#DejaVuSans-34"/>
       <use xlink:href="#DejaVuSans-30" transform="translate(63.623047 0)"/>
       <use xlink:href="#DejaVuSans-30" transform="translate(127.246094 0)"/>
       <use xlink:href="#DejaVuSans-30" transform="translate(190.869141 0)"/>
       <use xlink:href="#DejaVuSans-30" transform="translate(254.492188 0)"/>
      </g>
     </g>
    </g>
    <g id="ytick_4">
     <g id="line2d_10">
      <g>
       <use xlink:href="#m5d5516c31a" x="33.7" y="76.75188" style="stroke: #000000; stroke-width: 0.8"/>
      </g>
     </g>
     <g id="text_11">
      <!-- 60000 -->
      <g transform="translate(-5.1125 80.551099) scale(0.1 -0.1)">
       <use xlink:href="#DejaVuSans-36"/>
       <use xlink:href="#DejaVuSans-30" transform="translate(63.623047 0)"/>
       <use xlink:href="#DejaVuSans-30" transform="translate(127.246094 0)"/>
       <use xlink:href="#DejaVuSans-30" transform="translate(190.869141 0)"/>
       <use xlink:href="#DejaVuSans-30" transform="translate(254.492188 0)"/>
      </g>
     </g>
    </g>
    <g id="ytick_5">
     <g id="line2d_11">
      <g>
       <use xlink:href="#m5d5516c31a" x="33.7" y="42.10675" style="stroke: #000000; stroke-width: 0.8"/>
      </g>
     </g>
     <g id="text_12">
      <!-- 80000 -->
      <g transform="translate(-5.1125 45.905968) scale(0.1 -0.1)">
       <use xlink:href="#DejaVuSans-38"/>
       <use xlink:href="#DejaVuSans-30" transform="translate(63.623047 0)"/>
       <use xlink:href="#DejaVuSans-30" transform="translate(127.246094 0)"/>
       <use xlink:href="#DejaVuSans-30" transform="translate(190.869141 0)"/>
       <use xlink:href="#DejaVuSans-30" transform="translate(254.492188 0)"/>
      </g>
     </g>
    </g>
    <g id="text_13">
     <!-- rdf -->
     <g transform="translate(-11.192187 108.462344) rotate(-90) scale(0.1 -0.1)">
      <defs>
       <path id="DejaVuSans-72" d="M 2631 2963 
Q 2534 3019 2420 3045 
Q 2306 3072 2169 3072 
Q 1681 3072 1420 2755 
Q 1159 2438 1159 1844 
L 1159 0 
L 581 0 
L 581 3500 
L 1159 3500 
L 1159 2956 
Q 1341 3275 1631 3429 
Q 1922 3584 2338 3584 
Q 2397 3584 2469 3576 
Q 2541 3569 2628 3553 
L 2631 2963 
z
" transform="scale(0.015625)"/>
       <path id="DejaVuSans-64" d="M 2906 2969 
L 2906 4863 
L 3481 4863 
L 3481 0 
L 2906 0 
L 2906 525 
Q 2725 213 2448 61 
Q 2172 -91 1784 -91 
Q 1150 -91 751 415 
Q 353 922 353 1747 
Q 353 2572 751 3078 
Q 1150 3584 1784 3584 
Q 2172 3584 2448 3432 
Q 2725 3281 2906 2969 
z
M 947 1747 
Q 947 1113 1208 752 
Q 1469 391 1925 391 
Q 2381 391 2643 752 
Q 2906 1113 2906 1747 
Q 2906 2381 2643 2742 
Q 2381 3103 1925 3103 
Q 1469 3103 1208 2742 
Q 947 2381 947 1747 
z
" transform="scale(0.015625)"/>
       <path id="DejaVuSans-66" d="M 2375 4863 
L 2375 4384 
L 1825 4384 
Q 1516 4384 1395 4259 
Q 1275 4134 1275 3809 
L 1275 3500 
L 2222 3500 
L 2222 3053 
L 1275 3053 
L 1275 0 
L 697 0 
L 697 3053 
L 147 3053 
L 147 3500 
L 697 3500 
L 697 3744 
Q 697 4328 969 4595 
Q 1241 4863 1831 4863 
L 2375 4863 
z
" transform="scale(0.015625)"/>
      </defs>
      <use xlink:href="#DejaVuSans-72"/>
      <use xlink:href="#DejaVuSans-64" transform="translate(39.363281 0)"/>
      <use xlink:href="#DejaVuSans-66" transform="translate(102.839844 0)"/>
     </g>
    </g>
   </g>
   <g id="line2d_12">
    <path d="M 44.406818 180.687273 
L 94.854984 180.687273 
L 95.391667 164.327609 
L 95.928349 22.432727 
L 96.465032 162.449024 
L 97.001715 178.797198 
L 97.538397 180.097913 
L 98.07508 179.201784 
L 98.611762 177.370004 
L 99.148445 174.260894 
L 99.685128 171.816657 
L 100.22181 171.909296 
L 100.758493 175.594754 
L 101.295175 177.086255 
L 101.831858 179.100428 
L 102.368541 180.120825 
L 103.441906 180.482474 
L 103.978589 180.150896 
L 104.515271 180.555552 
L 105.588636 180.432954 
L 106.125319 180.562306 
L 106.662002 180.380195 
L 107.198684 179.600529 
L 107.735367 179.025193 
L 108.272049 176.718069 
L 108.808732 175.865184 
L 109.345415 176.791208 
L 109.882097 178.520957 
L 110.41878 179.539608 
L 111.492145 180.105122 
L 112.56551 178.174775 
L 113.102193 175.134413 
L 113.638876 170.448257 
L 114.175558 169.283077 
L 115.785606 178.068153 
L 116.322289 178.153025 
L 117.395654 172.500433 
L 117.932337 170.546906 
L 118.469019 172.822085 
L 119.005702 176.189774 
L 119.542384 178.449305 
L 120.079067 179.854651 
L 121.689115 180.44775 
L 122.225797 180.411658 
L 123.835845 180.611675 
L 124.909211 180.319264 
L 125.445893 180.360423 
L 126.519258 179.696733 
L 127.592624 176.136926 
L 128.129306 175.820531 
L 128.665989 175.714114 
L 129.202671 174.482663 
L 129.739354 172.528799 
L 130.276037 174.312757 
L 130.812719 177.523383 
L 131.349402 179.235222 
L 131.886085 180.281915 
L 132.422767 180.533255 
L 135.642863 180.457884 
L 136.179545 179.723706 
L 137.252911 171.964711 
L 138.326276 176.086559 
L 138.862959 175.737177 
L 139.399641 170.025262 
L 139.936324 166.272515 
L 140.473006 170.261518 
L 141.009689 176.209985 
L 141.546372 178.738918 
L 142.083054 179.686199 
L 142.619737 179.89512 
L 143.156419 179.58535 
L 143.693102 178.337558 
L 144.766467 174.902065 
L 145.30315 175.972022 
L 145.839833 174.861062 
L 146.376515 166.538413 
L 146.913198 168.845095 
L 147.44988 176.278415 
L 147.986563 177.882226 
L 148.523246 174.143179 
L 149.059928 171.462008 
L 149.596611 171.98743 
L 150.669976 178.212151 
L 151.206659 179.430672 
L 151.743341 179.940815 
L 152.280024 179.558141 
L 153.353389 176.62139 
L 153.890072 176.202634 
L 154.426754 178.39764 
L 154.963437 178.94754 
L 155.50012 179.970971 
L 156.036802 180.016172 
L 157.110167 178.335819 
L 157.64685 176.979058 
L 158.183533 176.97698 
L 158.720215 178.51116 
L 159.256898 179.690862 
L 160.330263 180.491655 
L 161.940311 180.531567 
L 163.550359 180.333691 
L 164.087041 179.469128 
L 164.623724 178.223019 
L 165.160407 175.867958 
L 165.697089 174.123142 
L 166.233772 174.760506 
L 166.770455 176.664194 
L 167.307137 177.332205 
L 167.84382 177.54951 
L 168.380502 177.281048 
L 168.917185 177.849983 
L 169.453868 179.097295 
L 169.99055 177.943641 
L 170.527233 175.877774 
L 171.063915 174.279024 
L 171.600598 174.968325 
L 172.137281 175.983342 
L 172.673963 174.32233 
L 173.210646 171.781119 
L 173.747329 171.883313 
L 174.820694 177.720972 
L 175.357376 179.069823 
L 175.894059 178.944668 
L 176.430742 177.710425 
L 176.967424 177.054046 
L 178.040789 177.942259 
L 178.577472 177.525772 
L 179.114155 177.761713 
L 179.650837 177.261871 
L 180.18752 177.198047 
L 181.260885 179.346549 
L 181.797568 180.041132 
L 182.33425 180.498704 
L 184.480981 180.553187 
L 185.017663 180.336465 
L 185.554346 179.726858 
L 186.091029 177.982651 
L 186.627711 175.649801 
L 187.164394 175.488031 
L 187.701077 177.97308 
L 188.237759 179.380732 
L 188.774442 179.436317 
L 189.311124 177.793718 
L 189.847807 174.739173 
L 190.38449 173.244881 
L 190.921172 174.44697 
L 191.457855 175.322018 
L 191.994537 177.052173 
L 192.53122 177.928847 
L 193.067903 177.385813 
L 193.604585 176.248828 
L 194.677951 178.674384 
L 195.214633 179.551223 
L 195.751316 178.911678 
L 196.287998 176.798095 
L 197.361364 177.967062 
L 197.898046 177.671208 
L 198.434729 176.875326 
L 198.971411 175.64985 
L 199.508094 175.475747 
L 200.044777 176.904266 
L 200.581459 178.823434 
L 201.118142 179.713003 
L 201.654825 180.271185 
L 202.191507 180.129844 
L 202.72819 179.455855 
L 203.264872 178.33583 
L 203.801555 177.899545 
L 204.87492 178.206138 
L 205.411603 178.231854 
L 205.948285 178.688262 
L 206.484968 178.610375 
L 207.021651 177.755298 
L 207.558333 176.479974 
L 208.095016 176.123425 
L 209.168381 176.949545 
L 209.705064 177.490485 
L 210.241746 177.0412 
L 210.778429 176.061721 
L 211.315112 176.108555 
L 211.851794 177.887609 
L 212.388477 178.753564 
L 212.925159 177.90624 
L 213.461842 176.349528 
L 213.998525 175.727844 
L 214.535207 177.230887 
L 215.07189 178.074269 
L 216.145255 178.260957 
L 217.21862 179.30879 
L 217.755303 179.604038 
L 218.828668 178.421464 
L 219.365351 177.33282 
L 219.902033 177.532015 
L 220.438716 178.223208 
L 221.512081 177.596649 
L 222.048764 178.017305 
L 223.122129 179.518133 
L 223.658812 179.219686 
L 224.195494 178.517507 
L 224.732177 176.925583 
L 225.26886 175.835517 
L 225.805542 176.16243 
L 226.878907 179.810157 
L 227.41559 180.329902 
L 227.952273 180.388831 
L 228.488955 180.115051 
L 229.025638 179.47923 
L 230.635686 179.73469 
L 231.172368 179.239144 
L 231.709051 178.34664 
L 232.245734 178.590684 
L 232.782416 179.236758 
L 233.319099 179.486483 
L 233.855781 179.079702 
L 234.392464 178.259658 
L 236.002512 180.204645 
L 236.539195 180.298133 
L 237.075877 180.145502 
L 237.61256 179.507117 
L 238.149242 178.269833 
L 238.685925 177.471226 
L 239.222608 176.189353 
L 239.75929 175.2478 
L 240.295973 174.915616 
L 241.369338 175.515225 
L 241.906021 176.353542 
L 242.442703 178.019287 
L 242.979386 179.035599 
L 243.516069 178.965959 
L 244.052751 178.548675 
L 245.126116 176.907321 
L 245.662799 176.732356 
L 246.199482 178.411582 
L 246.736164 178.885703 
L 247.272847 179.570151 
L 247.80953 179.437119 
L 248.346212 178.856441 
L 248.882895 179.020649 
L 249.419577 179.029358 
L 249.95626 178.544909 
L 250.492943 177.49042 
L 251.029625 177.254596 
L 252.10299 179.205094 
L 252.639673 178.953144 
L 253.176356 178.352164 
L 253.713038 177.292718 
L 254.249721 177.02725 
L 255.323086 176.100772 
L 255.859769 176.482841 
L 256.396451 177.687096 
L 256.933134 178.545232 
L 257.469817 177.94404 
L 258.543182 177.81477 
L 258.543182 177.81477 
" clip-path="url(#p404e8b1394)" style="fill: none; stroke: #000000; stroke-opacity: 0.5; stroke-width: 0.5; stroke-linecap: square"/>
   </g>
   <g id="line2d_13">
    <path d="M 44.406818 180.687273 
L 97.001715 180.687273 
L 97.538397 179.655892 
L 98.07508 176.643443 
L 98.611762 170.528137 
L 99.148445 161.006485 
L 99.685128 153.521009 
L 100.22181 153.804717 
L 100.758493 165.09143 
L 101.295175 169.659154 
L 101.831858 176.048457 
L 102.368541 178.952526 
L 102.905223 179.83567 
L 103.441906 180.060077 
L 103.978589 179.249952 
L 104.515271 180.283878 
L 105.051954 180.092795 
L 105.588636 180.103135 
L 106.125319 180.304561 
L 106.662002 180.123018 
L 107.198684 177.544017 
L 107.735367 175.778943 
L 108.272049 168.710344 
L 108.808732 166.271236 
L 109.345415 168.755574 
L 109.882097 174.22304 
L 110.41878 177.507286 
L 110.955463 179.040371 
L 111.492145 180.201045 
L 112.028828 180.208701 
L 112.56551 180.530242 
L 113.102193 179.914289 
L 113.638876 179.926181 
L 114.175558 180.537378 
L 114.712241 180.244404 
L 115.248923 179.378641 
L 115.785606 178.109076 
L 116.322289 173.772807 
L 116.858971 164.280983 
L 117.932337 150.172481 
L 118.469019 156.866287 
L 119.005702 167.176035 
L 119.542384 174.350762 
L 120.079067 178.519854 
L 121.152432 179.943475 
L 121.689115 180.320504 
L 122.225797 180.084366 
L 123.299163 180.687273 
L 123.835845 180.455755 
L 124.372528 180.458842 
L 124.909211 180.687273 
L 125.982576 180.577507 
L 127.592624 180.47613 
L 128.129306 180.374593 
L 128.665989 180.584365 
L 129.202671 180.484047 
L 129.739354 180.687273 
L 130.276037 180.48908 
L 131.886085 180.687273 
L 132.422767 180.687273 
L 132.95945 180.500874 
L 133.496132 180.687273 
L 135.642863 180.248208 
L 136.179545 178.083518 
L 137.252911 154.652848 
L 137.789593 160.651156 
L 138.326276 168.835359 
L 138.862959 171.837303 
L 139.399641 160.512456 
L 139.936324 155.770471 
L 140.473006 164.28708 
L 141.009689 175.67271 
L 141.546372 179.059954 
L 142.083054 180.227405 
L 142.619737 180.459838 
L 143.156419 180.312313 
L 144.229785 180.613881 
L 145.839833 180.189666 
L 146.913198 164.328986 
L 147.44988 174.76287 
L 147.986563 179.869134 
L 148.523246 180.552315 
L 150.133293 180.687273 
L 156.036802 180.628551 
L 156.573485 180.570949 
L 158.183533 180.687273 
L 164.087041 180.585065 
L 164.623724 180.484675 
L 165.160407 180.58687 
L 165.697089 180.438478 
L 166.233772 179.996756 
L 166.770455 178.096019 
L 167.84382 172.327096 
L 168.380502 171.017831 
L 168.917185 173.178669 
L 169.453868 177.643956 
L 169.99055 177.205626 
L 170.527233 174.289324 
L 171.063915 170.190039 
L 171.600598 169.916216 
L 172.137281 170.859024 
L 173.210646 161.091572 
L 173.747329 163.529554 
L 174.820694 175.305581 
L 175.357376 178.466764 
L 175.894059 179.628398 
L 176.430742 179.763009 
L 176.967424 179.603768 
L 177.504107 177.669558 
L 178.040789 176.914552 
L 178.577472 176.375079 
L 179.114155 177.418255 
L 179.650837 179.12574 
L 180.18752 179.853069 
L 180.724203 180.253737 
L 181.260885 180.452646 
L 181.797568 180.532072 
L 182.870933 180.534464 
L 183.407616 180.573548 
L 183.944298 180.461567 
L 184.480981 180.53795 
L 185.017663 180.168621 
L 185.554346 178.84898 
L 186.091029 175.761317 
L 186.627711 173.335785 
L 187.164394 174.109732 
L 187.701077 176.941424 
L 188.237759 178.916795 
L 188.774442 179.984327 
L 189.311124 180.129067 
L 189.847807 180.514116 
L 190.38449 180.58414 
L 191.457855 180.246852 
L 191.994537 179.61102 
L 192.53122 178.51692 
L 193.604585 173.31494 
L 195.214633 179.108768 
L 195.751316 179.887602 
L 196.287998 179.575616 
L 197.361364 174.76813 
L 197.898046 173.751973 
L 198.434729 173.460457 
L 198.971411 174.154521 
L 200.044777 176.331382 
L 200.581459 178.944829 
L 201.118142 179.553466 
L 201.654825 179.887151 
L 202.191507 179.392211 
L 202.72819 177.383802 
L 203.264872 173.892504 
L 203.801555 173.101662 
L 204.338238 175.387076 
L 205.411603 178.680129 
L 205.948285 178.665337 
L 206.484968 177.45123 
L 207.021651 175.643416 
L 207.558333 176.172067 
L 208.095016 178.499126 
L 208.631699 179.627503 
L 209.168381 179.580389 
L 209.705064 178.943819 
L 210.778429 176.53022 
L 211.315112 176.504253 
L 211.851794 178.491499 
L 212.388477 179.362619 
L 212.925159 180.53242 
L 213.461842 180.405173 
L 214.535207 180.636626 
L 215.608573 180.587244 
L 216.145255 180.687273 
L 218.291986 180.517575 
L 218.828668 180.398146 
L 219.365351 179.226541 
L 219.902033 177.164808 
L 220.438716 176.003426 
L 220.975399 175.326463 
L 221.512081 175.405548 
L 222.585447 178.031912 
L 223.122129 179.746246 
L 223.658812 180.071277 
L 224.195494 179.349219 
L 224.732177 177.959404 
L 225.26886 175.443095 
L 225.805542 174.627475 
L 226.878907 179.256117 
L 227.41559 180.140049 
L 227.952273 180.447897 
L 228.488955 180.557463 
L 229.025638 180.536706 
L 229.562321 180.238185 
L 230.099003 180.198247 
L 230.635686 179.186351 
L 231.172368 176.924968 
L 231.709051 173.853461 
L 232.245734 174.765174 
L 233.319099 179.208087 
L 233.855781 180.115284 
L 234.929147 180.465084 
L 235.465829 180.40607 
L 236.002512 180.50751 
L 236.539195 180.369476 
L 237.075877 179.877438 
L 237.61256 178.34981 
L 238.149242 175.862358 
L 238.685925 176.141514 
L 239.222608 177.190424 
L 239.75929 177.30564 
L 240.295973 176.655302 
L 241.369338 173.240111 
L 241.906021 174.032448 
L 242.442703 177.172185 
L 242.979386 179.125165 
L 243.516069 179.337023 
L 244.052751 178.185233 
L 244.589434 176.185734 
L 245.126116 175.572673 
L 245.662799 175.835258 
L 246.199482 178.580274 
L 247.272847 180.259624 
L 247.80953 180.527748 
L 248.882895 180.266321 
L 249.419577 179.622946 
L 249.95626 178.205205 
L 250.492943 175.783458 
L 251.029625 175.448163 
L 252.10299 179.191215 
L 252.639673 179.943088 
L 253.176356 180.283436 
L 253.713038 180.084616 
L 254.249721 179.604697 
L 255.323086 176.400886 
L 255.859769 176.340573 
L 256.933134 178.592619 
L 257.469817 177.82765 
L 258.006499 176.764963 
L 258.543182 174.929209 
L 258.543182 174.929209 
" clip-path="url(#p404e8b1394)" style="fill: none; stroke: #0000ff; stroke-opacity: 0.5; stroke-linecap: square"/>
   </g>
   <g id="line2d_14">
    <path d="M 44.406818 180.687273 
L 101.295175 180.687273 
L 101.831858 180.294569 
L 102.368541 180.687273 
L 102.905223 180.308782 
L 103.441906 180.687273 
L 103.978589 180.322239 
L 104.515271 180.687273 
L 105.051954 180.687273 
L 105.588636 180.341117 
L 106.125319 180.687273 
L 106.662002 180.018526 
L 107.198684 180.358566 
L 108.272049 180.369477 
L 108.808732 180.062187 
L 109.345415 180.687273 
L 110.41878 180.092187 
L 110.955463 178.930578 
L 111.492145 178.382192 
L 112.56551 167.287284 
L 113.102193 151.829232 
L 113.638876 126.565187 
L 114.175558 118.864241 
L 115.785606 171.011081 
L 116.322289 179.182083 
L 116.858971 179.204219 
L 117.395654 178.251601 
L 117.932337 179.727122 
L 118.469019 180.214106 
L 119.005702 180.220865 
L 119.542384 179.997585 
L 120.079067 180.233957 
L 120.61575 179.793319 
L 121.152432 180.246504 
L 121.689115 180.035239 
L 122.225797 180.472906 
L 122.76248 180.264372 
L 123.299163 179.852899 
L 123.835845 180.687273 
L 124.372528 180.281173 
L 124.909211 178.884029 
L 125.445893 179.698654 
L 125.982576 177.369904 
L 126.519258 175.872148 
L 127.592624 157.22694 
L 128.129306 158.822856 
L 129.202671 178.338885 
L 129.739354 179.438564 
L 130.276037 180.15876 
L 130.812719 180.687273 
L 131.349402 180.687273 
L 131.886085 180.347742 
L 132.422767 180.687273 
L 133.496132 180.687273 
L 134.032815 180.525519 
L 134.569498 180.687273 
L 138.326276 180.687273 
L 138.862959 180.395916 
L 139.399641 180.687273 
L 139.936324 180.687273 
L 140.473006 180.546423 
L 143.156419 180.553954 
L 143.693102 180.687273 
L 144.229785 180.165373 
L 144.766467 180.300012 
L 145.30315 179.793226 
L 145.839833 166.912244 
L 146.376515 126.289197 
L 147.44988 173.216707 
L 147.986563 179.232804 
L 148.523246 180.447347 
L 149.059928 180.449795 
L 149.596611 180.687273 
L 150.133293 180.570927 
L 150.669976 180.687273 
L 153.353389 180.687273 
L 153.890072 180.470238 
L 154.426754 180.687273 
L 163.013676 180.687273 
L 163.550359 180.503934 
L 164.087041 180.596422 
L 166.233772 180.336534 
L 166.770455 180.513436 
L 167.307137 180.514947 
L 167.84382 180.260188 
L 168.380502 180.433232 
L 169.453868 177.857249 
L 170.527233 165.958183 
L 171.063915 164.703082 
L 172.137281 173.028122 
L 172.673963 172.933732 
L 173.210646 167.427321 
L 173.747329 163.568462 
L 174.820694 175.252961 
L 175.357376 178.485743 
L 175.894059 180.009593 
L 176.430742 180.164457 
L 176.967424 179.872329 
L 177.504107 179.290948 
L 178.040789 176.750521 
L 178.577472 172.876508 
L 179.114155 174.875687 
L 179.650837 174.992795 
L 180.18752 178.498039 
L 180.724203 179.77641 
L 181.260885 179.992083 
L 181.797568 179.997492 
L 182.33425 180.550386 
L 182.870933 180.483528 
L 183.407616 180.61988 
L 184.480981 180.488176 
L 185.017663 180.160389 
L 185.554346 180.621911 
L 186.091029 180.168324 
L 186.627711 180.429749 
L 187.164394 180.239984 
L 187.701077 180.370164 
L 188.237759 180.24662 
L 188.774442 179.56256 
L 189.311124 179.32277 
L 189.847807 176.377602 
L 190.38449 169.625338 
L 190.921172 161.272997 
L 191.457855 157.017464 
L 191.994537 164.782644 
L 192.53122 170.002462 
L 193.067903 171.729433 
L 193.604585 170.096861 
L 194.677951 176.476685 
L 195.751316 179.834291 
L 196.824681 180.519066 
L 197.361364 180.297535 
L 197.898046 180.521406 
L 198.971411 180.523698 
L 200.044777 180.633496 
L 200.581459 180.527048 
L 201.118142 180.634229 
L 202.72819 180.583329 
L 203.801555 180.635997 
L 205.411603 180.536501 
L 205.948285 180.637348 
L 206.484968 180.389706 
L 207.021651 180.342394 
L 207.558333 179.708367 
L 208.095016 177.429366 
L 209.168381 172.096179 
L 209.705064 173.9638 
L 210.241746 177.181397 
L 210.778429 179.275111 
L 211.315112 179.845407 
L 211.851794 180.59433 
L 212.925159 180.503743 
L 213.461842 179.957802 
L 213.998525 178.829798 
L 215.07189 175.184627 
L 215.608573 173.440731 
L 216.145255 175.297264 
L 216.681938 178.184636 
L 217.21862 179.770956 
L 217.755303 180.21026 
L 218.291986 180.471783 
L 219.365351 180.559559 
L 219.902033 180.433401 
L 220.438716 180.561109 
L 220.975399 180.520074 
L 221.512081 180.604178 
L 222.048764 180.480789 
L 222.585447 180.523077 
L 223.122129 179.952813 
L 223.658812 179.186576 
L 224.195494 178.187558 
L 224.732177 172.030234 
L 225.26886 167.81837 
L 225.805542 168.646891 
L 226.878907 178.886708 
L 227.41559 180.103567 
L 227.952273 180.571212 
L 228.488955 180.494962 
L 229.025638 180.534316 
L 229.562321 180.459165 
L 230.635686 180.649691 
L 231.172368 180.687273 
L 231.709051 180.575814 
L 233.319099 180.614227 
L 236.539195 180.510719 
L 237.075877 180.265895 
L 237.61256 180.407912 
L 238.149242 179.992728 
L 238.685925 178.891418 
L 239.222608 174.367615 
L 239.75929 166.955794 
L 240.295973 163.769558 
L 241.369338 176.184534 
L 241.906021 178.815734 
L 242.442703 179.756564 
L 242.979386 180.125245 
L 243.516069 179.996734 
L 244.052751 179.575255 
L 244.589434 177.531723 
L 245.126116 173.180199 
L 245.662799 172.866116 
L 246.736164 178.744671 
L 247.272847 180.148753 
L 247.80953 180.466695 
L 248.346212 180.405163 
L 248.882895 180.531365 
L 251.566308 180.140434 
L 252.10299 179.689901 
L 252.639673 177.530128 
L 253.176356 173.418216 
L 253.713038 167.532995 
L 254.249721 167.777792 
L 254.786404 169.198567 
L 255.323086 172.129154 
L 255.859769 173.105608 
L 256.933134 179.012993 
L 258.006499 180.344339 
L 258.543182 180.374489 
L 258.543182 180.374489 
" clip-path="url(#p404e8b1394)" style="fill: none; stroke: #ff0000; stroke-opacity: 0.5; stroke-linecap: square"/>
   </g>
   <g id="patch_3">
    <path d="M 33.7 188.6 
L 33.7 14.52 
" style="fill: none; stroke: #000000; stroke-width: 0.8; stroke-linejoin: miter; stroke-linecap: square"/>
   </g>
   <g id="patch_4">
    <path d="M 269.25 188.6 
L 269.25 14.52 
" style="fill: none; stroke: #000000; stroke-width: 0.8; stroke-linejoin: miter; stroke-linecap: square"/>
   </g>
   <g id="patch_5">
    <path d="M 33.7 188.6 
L 269.25 188.6 
" style="fill: none; stroke: #000000; stroke-width: 0.8; stroke-linejoin: miter; stroke-linecap: square"/>
   </g>
   <g id="patch_6">
    <path d="M 33.7 14.52 
L 269.25 14.52 
" style="fill: none; stroke: #000000; stroke-width: 0.8; stroke-linejoin: miter; stroke-linecap: square"/>
   </g>
   <g id="legend_1">
    <g id="patch_7">
     <path d="M 213.917188 66.554375 
L 262.25 66.554375 
Q 264.25 66.554375 264.25 64.554375 
L 264.25 21.52 
Q 264.25 19.52 262.25 19.52 
L 213.917188 19.52 
Q 211.917188 19.52 211.917188 21.52 
L 211.917188 64.554375 
Q 211.917188 66.554375 213.917188 66.554375 
z
" style="fill: #ffffff; opacity: 0.8; stroke: #cccccc; stroke-linejoin: miter"/>
    </g>
    <g id="line2d_15">
     <path d="M 215.917188 27.618438 
L 225.917188 27.618438 
L 235.917188 27.618438 
" style="fill: none; stroke: #000000; stroke-opacity: 0.5; stroke-width: 0.5; stroke-linecap: square"/>
    </g>
    <g id="text_14">
     <!-- all -->
     <g transform="translate(243.917188 31.118438) scale(0.1 -0.1)">
      <defs>
       <path id="DejaVuSans-61" d="M 2194 1759 
Q 1497 1759 1228 1600 
Q 959 1441 959 1056 
Q 959 750 1161 570 
Q 1363 391 1709 391 
Q 2188 391 2477 730 
Q 2766 1069 2766 1631 
L 2766 1759 
L 2194 1759 
z
M 3341 1997 
L 3341 0 
L 2766 0 
L 2766 531 
Q 2569 213 2275 61 
Q 1981 -91 1556 -91 
Q 1019 -91 701 211 
Q 384 513 384 1019 
Q 384 1609 779 1909 
Q 1175 2209 1959 2209 
L 2766 2209 
L 2766 2266 
Q 2766 2663 2505 2880 
Q 2244 3097 1772 3097 
Q 1472 3097 1187 3025 
Q 903 2953 641 2809 
L 641 3341 
Q 956 3463 1253 3523 
Q 1550 3584 1831 3584 
Q 2591 3584 2966 3190 
Q 3341 2797 3341 1997 
z
" transform="scale(0.015625)"/>
       <path id="DejaVuSans-6c" d="M 603 4863 
L 1178 4863 
L 1178 0 
L 603 0 
L 603 4863 
z
" transform="scale(0.015625)"/>
      </defs>
      <use xlink:href="#DejaVuSans-61"/>
      <use xlink:href="#DejaVuSans-6c" transform="translate(61.279297 0)"/>
      <use xlink:href="#DejaVuSans-6c" transform="translate(89.0625 0)"/>
     </g>
    </g>
    <g id="line2d_16">
     <path d="M 215.917188 42.296563 
L 225.917188 42.296563 
L 235.917188 42.296563 
" style="fill: none; stroke: #0000ff; stroke-opacity: 0.5; stroke-linecap: square"/>
    </g>
    <g id="text_15">
     <!-- 1-1 -->
     <g transform="translate(243.917188 45.796563) scale(0.1 -0.1)">
      <defs>
       <path id="DejaVuSans-2d" d="M 313 2009 
L 1997 2009 
L 1997 1497 
L 313 1497 
L 313 2009 
z
" transform="scale(0.015625)"/>
      </defs>
      <use xlink:href="#DejaVuSans-31"/>
      <use xlink:href="#DejaVuSans-2d" transform="translate(63.623047 0)"/>
      <use xlink:href="#DejaVuSans-31" transform="translate(99.707031 0)"/>
     </g>
    </g>
    <g id="line2d_17">
     <path d="M 215.917188 56.974688 
L 225.917188 56.974688 
L 235.917188 56.974688 
" style="fill: none; stroke: #ff0000; stroke-opacity: 0.5; stroke-linecap: square"/>
    </g>
    <g id="text_16">
     <!-- 2-2 -->
     <g transform="translate(243.917188 60.474688) scale(0.1 -0.1)">
      <use xlink:href="#DejaVuSans-32"/>
      <use xlink:href="#DejaVuSans-2d" transform="translate(63.623047 0)"/>
      <use xlink:href="#DejaVuSans-32" transform="translate(99.707031 0)"/>
     </g>
    </g>
   </g>
  </g>
 </g>
 <defs>
  <clipPath id="p404e8b1394">
   <rect x="33.7" y="14.52" width="235.55" height="174.08"/>
  </clipPath>
 </defs>
</svg>
