<?xml version="1.0" encoding="utf-8" standalone="no"?>
<!DOCTYPE svg PUBLIC "-//W3C//DTD SVG 1.1//EN"
  "http://www.w3.org/Graphics/SVG/1.1/DTD/svg11.dtd">
<svg xmlns:xlink="http://www.w3.org/1999/xlink" width="288pt" height="216pt" viewBox="0 0 288 216" xmlns="http://www.w3.org/2000/svg" version="1.1">
 <metadata>
  <rdf:RDF xmlns:dc="http://purl.org/dc/elements/1.1/" xmlns:cc="http://creativecommons.org/ns#" xmlns:rdf="http://www.w3.org/1999/02/22-rdf-syntax-ns#">
   <cc:Work>
    <dc:type rdf:resource="http://purl.org/dc/dcmitype/StillImage"/>
    <dc:date>2025-09-17T22:42:59.147448</dc:date>
    <dc:format>image/svg+xml</dc:format>
    <dc:creator>
     <cc:Agent>
      <dc:title>Matplotlib v3.10.0, https://matplotlib.org/</dc:title>
     </cc:Agent>
    </dc:creator>
   </cc:Work>
  </rdf:RDF>
 </metadata>
 <defs>
  <style type="text/css">*{stroke-linejoin: round; stroke-linecap: butt}</style>
 </defs>
 <g id="figure_1">
  <g id="patch_1">
   <path d="M 0 216 
L 288 216 
L 288 0 
L 0 0 
z
" style="fill: #ffffff"/>
  </g>
  <g id="axes_1">
   <g id="patch_2">
    <path d="M 33.7 188.6 
L 269.25 188.6 
L 269.25 14.52 
L 33.7 14.52 
z
" style="fill: #ffffff"/>
   </g>
   <g id="matplotlib.axis_1">
    <g id="xtick_1">
     <g id="line2d_1">
      <defs>
       <path id="m209e66514c" d="M 0 0 
L 0 3.5 
" style="stroke: #000000; stroke-width: 0.8"/>
      </defs>
      <g>
       <use xlink:href="#m209e66514c" x="44.138477" y="188.6" style="stroke: #000000; stroke-width: 0.8"/>
      </g>
     </g>
     <g id="text_1">
      <!-- 0 -->
      <g transform="translate(40.957227 203.198437) scale(0.1 -0.1)">
       <defs>
        <path id="DejaVuSans-30" d="M 2034 4250 
Q 1547 4250 1301 3770 
Q 1056 3291 1056 2328 
Q 1056 1369 1301 889 
Q 1547 409 2034 409 
Q 2525 409 2770 889 
Q 3016 1369 3016 2328 
Q 3016 3291 2770 3770 
Q 2525 4250 2034 4250 
z
M 2034 4750 
Q 2819 4750 3233 4129 
Q 3647 3509 3647 2328 
Q 3647 1150 3233 529 
Q 2819 -91 2034 -91 
Q 1250 -91 836 529 
Q 422 1150 422 2328 
Q 422 3509 836 4129 
Q 1250 4750 2034 4750 
z
" transform="scale(0.015625)"/>
       </defs>
       <use xlink:href="#DejaVuSans-30"/>
      </g>
     </g>
    </g>
    <g id="xtick_2">
     <g id="line2d_2">
      <g>
       <use xlink:href="#m209e66514c" x="87.073086" y="188.6" style="stroke: #000000; stroke-width: 0.8"/>
      </g>
     </g>
     <g id="text_2">
      <!-- 200 -->
      <g transform="translate(77.529336 203.198437) scale(0.1 -0.1)">
       <defs>
        <path id="DejaVuSans-32" d="M 1228 531 
L 3431 531 
L 3431 0 
L 469 0 
L 469 531 
Q 828 903 1448 1529 
Q 2069 2156 2228 2338 
Q 2531 2678 2651 2914 
Q 2772 3150 2772 3378 
Q 2772 3750 2511 3984 
Q 2250 4219 1831 4219 
Q 1534 4219 1204 4116 
Q 875 4013 500 3803 
L 500 4441 
Q 881 4594 1212 4672 
Q 1544 4750 1819 4750 
Q 2544 4750 2975 4387 
Q 3406 4025 3406 3419 
Q 3406 3131 3298 2873 
Q 3191 2616 2906 2266 
Q 2828 2175 2409 1742 
Q 1991 1309 1228 531 
z
" transform="scale(0.015625)"/>
       </defs>
       <use xlink:href="#DejaVuSans-32"/>
       <use xlink:href="#DejaVuSans-30" transform="translate(63.623047 0)"/>
       <use xlink:href="#DejaVuSans-30" transform="translate(127.246094 0)"/>
      </g>
     </g>
    </g>
    <g id="xtick_3">
     <g id="line2d_3">
      <g>
       <use xlink:href="#m209e66514c" x="130.007695" y="188.6" style="stroke: #000000; stroke-width: 0.8"/>
      </g>
     </g>
     <g id="text_3">
      <!-- 400 -->
      <g transform="translate(120.463945 203.198437) scale(0.1 -0.1)">
       <defs>
        <path id="DejaVuSans-34" d="M 2419 4116 
L 825 1625 
L 2419 1625 
L 2419 4116 
z
M 2253 4666 
L 3047 4666 
L 3047 1625 
L 3713 1625 
L 3713 1100 
L 3047 1100 
L 3047 0 
L 2419 0 
L 2419 1100 
L 313 1100 
L 313 1709 
L 2253 4666 
z
" transform="scale(0.015625)"/>
       </defs>
       <use xlink:href="#DejaVuSans-34"/>
       <use xlink:href="#DejaVuSans-30" transform="translate(63.623047 0)"/>
       <use xlink:href="#DejaVuSans-30" transform="translate(127.246094 0)"/>
      </g>
     </g>
    </g>
    <g id="xtick_4">
     <g id="line2d_4">
      <g>
       <use xlink:href="#m209e66514c" x="172.942305" y="188.6" style="stroke: #000000; stroke-width: 0.8"/>
      </g>
     </g>
     <g id="text_4">
      <!-- 600 -->
      <g transform="translate(163.398555 203.198437) scale(0.1 -0.1)">
       <defs>
        <path id="DejaVuSans-36" d="M 2113 2584 
Q 1688 2584 1439 2293 
Q 1191 2003 1191 1497 
Q 1191 994 1439 701 
Q 1688 409 2113 409 
Q 2538 409 2786 701 
Q 3034 994 3034 1497 
Q 3034 2003 2786 2293 
Q 2538 2584 2113 2584 
z
M 3366 4563 
L 3366 3988 
Q 3128 4100 2886 4159 
Q 2644 4219 2406 4219 
Q 1781 4219 1451 3797 
Q 1122 3375 1075 2522 
Q 1259 2794 1537 2939 
Q 1816 3084 2150 3084 
Q 2853 3084 3261 2657 
Q 3669 2231 3669 1497 
Q 3669 778 3244 343 
Q 2819 -91 2113 -91 
Q 1303 -91 875 529 
Q 447 1150 447 2328 
Q 447 3434 972 4092 
Q 1497 4750 2381 4750 
Q 2619 4750 2861 4703 
Q 3103 4656 3366 4563 
z
" transform="scale(0.015625)"/>
       </defs>
       <use xlink:href="#DejaVuSans-36"/>
       <use xlink:href="#DejaVuSans-30" transform="translate(63.623047 0)"/>
       <use xlink:href="#DejaVuSans-30" transform="translate(127.246094 0)"/>
      </g>
     </g>
    </g>
    <g id="xtick_5">
     <g id="line2d_5">
      <g>
       <use xlink:href="#m209e66514c" x="215.876914" y="188.6" style="stroke: #000000; stroke-width: 0.8"/>
      </g>
     </g>
     <g id="text_5">
      <!-- 800 -->
      <g transform="translate(206.333164 203.198437) scale(0.1 -0.1)">
       <defs>
        <path id="DejaVuSans-38" d="M 2034 2216 
Q 1584 2216 1326 1975 
Q 1069 1734 1069 1313 
Q 1069 891 1326 650 
Q 1584 409 2034 409 
Q 2484 409 2743 651 
Q 3003 894 3003 1313 
Q 3003 1734 2745 1975 
Q 2488 2216 2034 2216 
z
M 1403 2484 
Q 997 2584 770 2862 
Q 544 3141 544 3541 
Q 544 4100 942 4425 
Q 1341 4750 2034 4750 
Q 2731 4750 3128 4425 
Q 3525 4100 3525 3541 
Q 3525 3141 3298 2862 
Q 3072 2584 2669 2484 
Q 3125 2378 3379 2068 
Q 3634 1759 3634 1313 
Q 3634 634 3220 271 
Q 2806 -91 2034 -91 
Q 1263 -91 848 271 
Q 434 634 434 1313 
Q 434 1759 690 2068 
Q 947 2378 1403 2484 
z
M 1172 3481 
Q 1172 3119 1398 2916 
Q 1625 2713 2034 2713 
Q 2441 2713 2670 2916 
Q 2900 3119 2900 3481 
Q 2900 3844 2670 4047 
Q 2441 4250 2034 4250 
Q 1625 4250 1398 4047 
Q 1172 3844 1172 3481 
z
" transform="scale(0.015625)"/>
       </defs>
       <use xlink:href="#DejaVuSans-38"/>
       <use xlink:href="#DejaVuSans-30" transform="translate(63.623047 0)"/>
       <use xlink:href="#DejaVuSans-30" transform="translate(127.246094 0)"/>
      </g>
     </g>
    </g>
    <g id="xtick_6">
     <g id="line2d_6">
      <g>
       <use xlink:href="#m209e66514c" x="258.811523" y="188.6" style="stroke: #000000; stroke-width: 0.8"/>
      </g>
     </g>
     <g id="text_6">
      <!-- 1000 -->
      <g transform="translate(246.086523 203.198437) scale(0.1 -0.1)">
       <defs>
        <path id="DejaVuSans-31" d="M 794 531 
L 1825 531 
L 1825 4091 
L 703 3866 
L 703 4441 
L 1819 4666 
L 2450 4666 
L 2450 531 
L 3481 531 
L 3481 0 
L 794 0 
L 794 531 
z
" transform="scale(0.015625)"/>
       </defs>
       <use xlink:href="#DejaVuSans-31"/>
       <use xlink:href="#DejaVuSans-30" transform="translate(63.623047 0)"/>
       <use xlink:href="#DejaVuSans-30" transform="translate(127.246094 0)"/>
       <use xlink:href="#DejaVuSans-30" transform="translate(190.869141 0)"/>
      </g>
     </g>
    </g>
    <g id="text_7">
     <!-- q (nm) -->
     <g transform="translate(134.771094 216.876563) scale(0.1 -0.1)">
      <defs>
       <path id="DejaVuSans-71" d="M 947 1747 
Q 947 1113 1208 752 
Q 1469 391 1925 391 
Q 2381 391 2643 752 
Q 2906 1113 2906 1747 
Q 2906 2381 2643 2742 
Q 2381 3103 1925 3103 
Q 1469 3103 1208 2742 
Q 947 2381 947 1747 
z
M 2906 525 
Q 2725 213 2448 61 
Q 2172 -91 1784 -91 
Q 1150 -91 751 415 
Q 353 922 353 1747 
Q 353 2572 751 3078 
Q 1150 3584 1784 3584 
Q 2172 3584 2448 3432 
Q 2725 3281 2906 2969 
L 2906 3500 
L 3481 3500 
L 3481 -1331 
L 2906 -1331 
L 2906 525 
z
" transform="scale(0.015625)"/>
       <path id="DejaVuSans-20" transform="scale(0.015625)"/>
       <path id="DejaVuSans-28" d="M 1984 4856 
Q 1566 4138 1362 3434 
Q 1159 2731 1159 2009 
Q 1159 1288 1364 580 
Q 1569 -128 1984 -844 
L 1484 -844 
Q 1016 -109 783 600 
Q 550 1309 550 2009 
Q 550 2706 781 3412 
Q 1013 4119 1484 4856 
L 1984 4856 
z
" transform="scale(0.015625)"/>
       <path id="DejaVuSans-6e" d="M 3513 2113 
L 3513 0 
L 2938 0 
L 2938 2094 
Q 2938 2591 2744 2837 
Q 2550 3084 2163 3084 
Q 1697 3084 1428 2787 
Q 1159 2491 1159 1978 
L 1159 0 
L 581 0 
L 581 3500 
L 1159 3500 
L 1159 2956 
Q 1366 3272 1645 3428 
Q 1925 3584 2291 3584 
Q 2894 3584 3203 3211 
Q 3513 2838 3513 2113 
z
" transform="scale(0.015625)"/>
       <path id="DejaVuSans-6d" d="M 3328 2828 
Q 3544 3216 3844 3400 
Q 4144 3584 4550 3584 
Q 5097 3584 5394 3201 
Q 5691 2819 5691 2113 
L 5691 0 
L 5113 0 
L 5113 2094 
Q 5113 2597 4934 2840 
Q 4756 3084 4391 3084 
Q 3944 3084 3684 2787 
Q 3425 2491 3425 1978 
L 3425 0 
L 2847 0 
L 2847 2094 
Q 2847 2600 2669 2842 
Q 2491 3084 2119 3084 
Q 1678 3084 1418 2786 
Q 1159 2488 1159 1978 
L 1159 0 
L 581 0 
L 581 3500 
L 1159 3500 
L 1159 2956 
Q 1356 3278 1631 3431 
Q 1906 3584 2284 3584 
Q 2666 3584 2933 3390 
Q 3200 3197 3328 2828 
z
" transform="scale(0.015625)"/>
       <path id="DejaVuSans-29" d="M 513 4856 
L 1013 4856 
Q 1481 4119 1714 3412 
Q 1947 2706 1947 2009 
Q 1947 1309 1714 600 
Q 1481 -109 1013 -844 
L 513 -844 
Q 928 -128 1133 580 
Q 1338 1288 1338 2009 
Q 1338 2731 1133 3434 
Q 928 4138 513 4856 
z
" transform="scale(0.015625)"/>
      </defs>
      <use xlink:href="#DejaVuSans-71"/>
      <use xlink:href="#DejaVuSans-20" transform="translate(63.476562 0)"/>
      <use xlink:href="#DejaVuSans-28" transform="translate(95.263672 0)"/>
      <use xlink:href="#DejaVuSans-6e" transform="translate(134.277344 0)"/>
      <use xlink:href="#DejaVuSans-6d" transform="translate(197.65625 0)"/>
      <use xlink:href="#DejaVuSans-29" transform="translate(295.068359 0)"/>
     </g>
    </g>
   </g>
   <g id="matplotlib.axis_2">
    <g id="ytick_1">
     <g id="line2d_7">
      <defs>
       <path id="meb08a5746b" d="M 0 0 
L -3.5 0 
" style="stroke: #000000; stroke-width: 0.8"/>
      </defs>
      <g>
       <use xlink:href="#meb08a5746b" x="33.7" y="180.687273" style="stroke: #000000; stroke-width: 0.8"/>
      </g>
     </g>
     <g id="text_8">
      <!-- 0 -->
      <g transform="translate(20.3375 184.486491) scale(0.1 -0.1)">
       <use xlink:href="#DejaVuSans-30"/>
      </g>
     </g>
    </g>
    <g id="ytick_2">
     <g id="line2d_8">
      <g>
       <use xlink:href="#meb08a5746b" x="33.7" y="155.654206" style="stroke: #000000; stroke-width: 0.8"/>
      </g>
     </g>
     <g id="text_9">
      <!-- 100 -->
      <g transform="translate(7.6125 159.453424) scale(0.1 -0.1)">
       <use xlink:href="#DejaVuSans-31"/>
       <use xlink:href="#DejaVuSans-30" transform="translate(63.623047 0)"/>
       <use xlink:href="#DejaVuSans-30" transform="translate(127.246094 0)"/>
      </g>
     </g>
    </g>
    <g id="ytick_3">
     <g id="line2d_9">
      <g>
       <use xlink:href="#meb08a5746b" x="33.7" y="130.621139" style="stroke: #000000; stroke-width: 0.8"/>
      </g>
     </g>
     <g id="text_10">
      <!-- 200 -->
      <g transform="translate(7.6125 134.420357) scale(0.1 -0.1)">
       <use xlink:href="#DejaVuSans-32"/>
       <use xlink:href="#DejaVuSans-30" transform="translate(63.623047 0)"/>
       <use xlink:href="#DejaVuSans-30" transform="translate(127.246094 0)"/>
      </g>
     </g>
    </g>
    <g id="ytick_4">
     <g id="line2d_10">
      <g>
       <use xlink:href="#meb08a5746b" x="33.7" y="105.588072" style="stroke: #000000; stroke-width: 0.8"/>
      </g>
     </g>
     <g id="text_11">
      <!-- 300 -->
      <g transform="translate(7.6125 109.38729) scale(0.1 -0.1)">
       <defs>
        <path id="DejaVuSans-33" d="M 2597 2516 
Q 3050 2419 3304 2112 
Q 3559 1806 3559 1356 
Q 3559 666 3084 287 
Q 2609 -91 1734 -91 
Q 1441 -91 1130 -33 
Q 819 25 488 141 
L 488 750 
Q 750 597 1062 519 
Q 1375 441 1716 441 
Q 2309 441 2620 675 
Q 2931 909 2931 1356 
Q 2931 1769 2642 2001 
Q 2353 2234 1838 2234 
L 1294 2234 
L 1294 2753 
L 1863 2753 
Q 2328 2753 2575 2939 
Q 2822 3125 2822 3475 
Q 2822 3834 2567 4026 
Q 2313 4219 1838 4219 
Q 1578 4219 1281 4162 
Q 984 4106 628 3988 
L 628 4550 
Q 988 4650 1302 4700 
Q 1616 4750 1894 4750 
Q 2613 4750 3031 4423 
Q 3450 4097 3450 3541 
Q 3450 3153 3228 2886 
Q 3006 2619 2597 2516 
z
" transform="scale(0.015625)"/>
       </defs>
       <use xlink:href="#DejaVuSans-33"/>
       <use xlink:href="#DejaVuSans-30" transform="translate(63.623047 0)"/>
       <use xlink:href="#DejaVuSans-30" transform="translate(127.246094 0)"/>
      </g>
     </g>
    </g>
    <g id="ytick_5">
     <g id="line2d_11">
      <g>
       <use xlink:href="#meb08a5746b" x="33.7" y="80.555005" style="stroke: #000000; stroke-width: 0.8"/>
      </g>
     </g>
     <g id="text_12">
      <!-- 400 -->
      <g transform="translate(7.6125 84.354223) scale(0.1 -0.1)">
       <use xlink:href="#DejaVuSans-34"/>
       <use xlink:href="#DejaVuSans-30" transform="translate(63.623047 0)"/>
       <use xlink:href="#DejaVuSans-30" transform="translate(127.246094 0)"/>
      </g>
     </g>
    </g>
    <g id="ytick_6">
     <g id="line2d_12">
      <g>
       <use xlink:href="#meb08a5746b" x="33.7" y="55.521938" style="stroke: #000000; stroke-width: 0.8"/>
      </g>
     </g>
     <g id="text_13">
      <!-- 500 -->
      <g transform="translate(7.6125 59.321156) scale(0.1 -0.1)">
       <defs>
        <path id="DejaVuSans-35" d="M 691 4666 
L 3169 4666 
L 3169 4134 
L 1269 4134 
L 1269 2991 
Q 1406 3038 1543 3061 
Q 1681 3084 1819 3084 
Q 2600 3084 3056 2656 
Q 3513 2228 3513 1497 
Q 3513 744 3044 326 
Q 2575 -91 1722 -91 
Q 1428 -91 1123 -41 
Q 819 9 494 109 
L 494 744 
Q 775 591 1075 516 
Q 1375 441 1709 441 
Q 2250 441 2565 725 
Q 2881 1009 2881 1497 
Q 2881 1984 2565 2268 
Q 2250 2553 1709 2553 
Q 1456 2553 1204 2497 
Q 953 2441 691 2322 
L 691 4666 
z
" transform="scale(0.015625)"/>
       </defs>
       <use xlink:href="#DejaVuSans-35"/>
       <use xlink:href="#DejaVuSans-30" transform="translate(63.623047 0)"/>
       <use xlink:href="#DejaVuSans-30" transform="translate(127.246094 0)"/>
      </g>
     </g>
    </g>
    <g id="ytick_7">
     <g id="line2d_13">
      <g>
       <use xlink:href="#meb08a5746b" x="33.7" y="30.488871" style="stroke: #000000; stroke-width: 0.8"/>
      </g>
     </g>
     <g id="text_14">
      <!-- 600 -->
      <g transform="translate(7.6125 34.288089) scale(0.1 -0.1)">
       <use xlink:href="#DejaVuSans-36"/>
       <use xlink:href="#DejaVuSans-30" transform="translate(63.623047 0)"/>
       <use xlink:href="#DejaVuSans-30" transform="translate(127.246094 0)"/>
      </g>
     </g>
    </g>
    <g id="text_15">
     <!-- rdf -->
     <g transform="translate(1.532813 108.462344) rotate(-90) scale(0.1 -0.1)">
      <defs>
       <path id="DejaVuSans-72" d="M 2631 2963 
Q 2534 3019 2420 3045 
Q 2306 3072 2169 3072 
Q 1681 3072 1420 2755 
Q 1159 2438 1159 1844 
L 1159 0 
L 581 0 
L 581 3500 
L 1159 3500 
L 1159 2956 
Q 1341 3275 1631 3429 
Q 1922 3584 2338 3584 
Q 2397 3584 2469 3576 
Q 2541 3569 2628 3553 
L 2631 2963 
z
" transform="scale(0.015625)"/>
       <path id="DejaVuSans-64" d="M 2906 2969 
L 2906 4863 
L 3481 4863 
L 3481 0 
L 2906 0 
L 2906 525 
Q 2725 213 2448 61 
Q 2172 -91 1784 -91 
Q 1150 -91 751 415 
Q 353 922 353 1747 
Q 353 2572 751 3078 
Q 1150 3584 1784 3584 
Q 2172 3584 2448 3432 
Q 2725 3281 2906 2969 
z
M 947 1747 
Q 947 1113 1208 752 
Q 1469 391 1925 391 
Q 2381 391 2643 752 
Q 2906 1113 2906 1747 
Q 2906 2381 2643 2742 
Q 2381 3103 1925 3103 
Q 1469 3103 1208 2742 
Q 947 2381 947 1747 
z
" transform="scale(0.015625)"/>
       <path id="DejaVuSans-66" d="M 2375 4863 
L 2375 4384 
L 1825 4384 
Q 1516 4384 1395 4259 
Q 1275 4134 1275 3809 
L 1275 3500 
L 2222 3500 
L 2222 3053 
L 1275 3053 
L 1275 0 
L 697 0 
L 697 3053 
L 147 3053 
L 147 3500 
L 697 3500 
L 697 3744 
Q 697 4328 969 4595 
Q 1241 4863 1831 4863 
L 2375 4863 
z
" transform="scale(0.015625)"/>
      </defs>
      <use xlink:href="#DejaVuSans-72"/>
      <use xlink:href="#DejaVuSans-64" transform="translate(39.363281 0)"/>
      <use xlink:href="#DejaVuSans-66" transform="translate(102.839844 0)"/>
     </g>
    </g>
   </g>
   <g id="line2d_14">
    <path d="M 44.406818 180.687273 
L 92.708254 180.687273 
L 93.244936 166.299687 
L 93.781619 166.609089 
L 94.318301 180.687273 
L 94.854984 180.687273 
L 95.391667 167.479694 
L 96.465032 168.015959 
L 97.001715 180.687273 
L 97.538397 156.353211 
L 98.07508 168.761168 
L 99.148445 123.361072 
L 99.685128 158.197723 
L 100.22181 136.564945 
L 100.758493 180.687273 
L 101.295175 159.446953 
L 101.831858 118.146279 
L 102.368541 149.99048 
L 102.905223 120.409916 
L 103.441906 151.091561 
L 103.978589 112.863895 
L 104.515271 161.652119 
L 105.051954 133.934212 
L 106.125319 153.598521 
L 106.662002 127.435874 
L 107.198684 137.063166 
L 107.735367 94.905366 
L 108.272049 163.816834 
L 108.808732 164.095692 
L 109.882097 116.470412 
L 110.41878 133.301418 
L 110.955463 172.91598 
L 111.492145 134.799632 
L 112.028828 165.632245 
L 112.56551 143.637845 
L 113.102193 158.802245 
L 113.638876 144.773351 
L 114.175558 145.321706 
L 114.712241 138.891638 
L 115.248923 139.520036 
L 115.785606 146.893305 
L 116.322289 147.393863 
L 116.858971 161.004997 
L 117.395654 141.897406 
L 117.932337 142.459507 
L 118.469019 111.611608 
L 119.005702 131.168076 
L 119.542384 137.972524 
L 120.079067 150.606459 
L 120.61575 145.095103 
L 121.152432 157.288695 
L 121.689115 140.304615 
L 122.225797 169.30744 
L 122.76248 147.012228 
L 123.299163 141.93058 
L 123.835845 158.83786 
L 124.372528 126.791999 
L 124.909211 148.778409 
L 125.445893 159.69464 
L 125.982576 165.148586 
L 126.519258 165.350393 
L 127.055941 140.316655 
L 127.592624 145.815786 
L 128.129306 161.014566 
L 128.665989 127.272042 
L 129.739354 166.482555 
L 130.276037 138.602469 
L 130.812719 139.122011 
L 131.349402 144.193747 
L 131.886085 162.66304 
L 132.422767 140.624251 
L 132.95945 163.095972 
L 133.496132 150.271218 
L 134.032815 146.339999 
L 134.569498 163.716829 
L 135.10618 151.338441 
L 135.642863 143.394344 
L 136.179545 152.01893 
L 136.716228 172.591005 
L 137.252911 132.667891 
L 137.789593 109.481719 
L 138.326276 153.310881 
L 138.862959 157.486899 
L 139.936324 142.881543 
L 140.473006 147.040239 
L 141.009689 165.898274 
L 141.546372 140.464524 
L 142.083054 137.287346 
L 142.619737 148.491176 
L 143.693102 142.180426 
L 144.229785 135.665904 
L 144.766467 139.57114 
L 145.30315 163.736849 
L 145.839833 167.269689 
L 146.376515 157.452382 
L 146.913198 164.263774 
L 147.44988 174.185948 
L 147.986563 129.212849 
L 149.059928 161.777269 
L 149.596611 146.370932 
L 150.133293 146.717581 
L 150.669976 156.230307 
L 151.206659 150.421781 
L 151.743341 150.722937 
L 152.280024 162.886664 
L 152.816707 148.374379 
L 153.353389 142.873617 
L 153.890072 140.362228 
L 154.426754 152.163316 
L 154.963437 152.438836 
L 155.50012 147.115277 
L 156.036802 150.207336 
L 157.110167 139.909875 
L 157.64685 151.065824 
L 158.183533 151.344126 
L 158.720215 143.690458 
L 159.256898 151.888753 
L 159.793581 152.155379 
L 160.330263 142.138638 
L 160.866946 150.131352 
L 161.403628 152.933428 
L 161.940311 150.685622 
L 162.476994 158.389552 
L 163.013676 151.224903 
L 163.550359 146.622851 
L 164.087041 151.749909 
L 164.623724 147.227039 
L 165.160407 159.367511 
L 165.697089 150.163299 
L 166.770455 141.467173 
L 167.307137 166.965237 
L 167.84382 128.541422 
L 168.380502 137.981688 
L 168.917185 156.175177 
L 169.453868 151.966059 
L 169.99055 165.353566 
L 170.527233 145.935924 
L 171.063915 141.921787 
L 171.600598 150.789757 
L 172.137281 155.275268 
L 172.673963 147.087042 
L 173.210646 157.778796 
L 173.747329 147.641252 
L 174.284011 147.913279 
L 174.820694 144.118781 
L 175.357376 150.462291 
L 175.894059 146.710736 
L 176.430742 148.968324 
L 176.967424 157.089864 
L 177.504107 155.328729 
L 178.040789 130.37593 
L 178.577472 148.053521 
L 179.650837 152.347038 
L 180.18752 167.565977 
L 180.724203 145.351767 
L 181.260885 145.627789 
L 181.797568 147.731497 
L 182.33425 158.887068 
L 182.870933 157.252734 
L 183.944298 146.960807 
L 184.480981 138.410534 
L 185.017663 147.472851 
L 185.554346 152.929127 
L 186.091029 147.973092 
L 186.627711 163.598734 
L 187.164394 145.070263 
L 187.701077 152.069518 
L 188.237759 138.915179 
L 188.774442 149.175643 
L 189.311124 152.700759 
L 189.847807 165.97984 
L 190.38449 138.51042 
L 190.921172 153.311376 
L 191.457855 147.11585 
L 191.994537 147.35926 
L 192.53122 158.629044 
L 193.067903 158.787682 
L 193.604585 148.073437 
L 194.141268 156.01606 
L 194.677951 160.784596 
L 195.214633 147.244809 
L 195.751316 153.518544 
L 196.287998 152.211082 
L 196.824681 146.457968 
L 197.361364 142.263845 
L 197.898046 142.531574 
L 198.434729 144.254118 
L 198.971411 151.742359 
L 199.508094 143.318503 
L 200.044777 140.720585 
L 200.581459 143.829431 
L 201.118142 163.792105 
L 201.654825 141.533285 
L 202.191507 162.631889 
L 202.72819 158.615477 
L 203.801555 143.94007 
L 204.338238 155.001093 
L 204.87492 152.486548 
L 205.411603 154.007891 
L 206.484968 151.726863 
L 207.021651 149.301826 
L 207.558333 153.40512 
L 208.095016 145.83943 
L 208.631699 143.502045 
L 209.705064 155.373737 
L 210.241746 150.506919 
L 210.778429 153.199834 
L 211.315112 149.651793 
L 211.851794 156.01757 
L 212.388477 150.046621 
L 212.925159 155.112408 
L 213.461842 141.962754 
L 213.998525 154.232138 
L 214.535207 144.838936 
L 215.07189 153.375958 
L 215.608573 150.006603 
L 216.145255 152.543058 
L 216.681938 145.725571 
L 217.21862 144.783798 
L 217.755303 149.609539 
L 218.291986 164.672091 
L 218.828668 145.442536 
L 219.365351 151.308097 
L 219.902033 142.502552 
L 220.438716 163.943455 
L 220.975399 157.3881 
L 221.512081 148.706351 
L 222.048764 145.610864 
L 222.585447 161.075183 
L 223.122129 150.362214 
L 223.658812 154.849758 
L 224.732177 150.900606 
L 225.26886 163.767003 
L 225.805542 158.61057 
L 226.878907 142.245724 
L 227.41559 149.70081 
L 227.952273 150.908263 
L 228.488955 153.123089 
L 229.025638 148.20806 
L 229.562321 158.486902 
L 230.099003 146.575147 
L 230.635686 161.734228 
L 231.172368 155.89213 
L 231.709051 156.033636 
L 232.245734 154.213229 
L 232.782416 149.48865 
L 233.319099 154.512702 
L 233.855781 155.624547 
L 234.392464 151.931712 
L 234.929147 149.233758 
L 235.465829 156.992273 
L 236.002512 150.527179 
L 236.539195 148.820751 
L 237.075877 144.337396 
L 237.61256 154.734633 
L 238.149242 160.408527 
L 238.685925 146.770232 
L 239.222608 149.691467 
L 240.295973 158.144848 
L 240.832656 150.196796 
L 241.369338 165.524829 
L 241.906021 147.865593 
L 242.442703 149.807646 
L 242.979386 139.443809 
L 243.516069 150.139118 
L 244.052751 154.643599 
L 244.589434 155.646394 
L 245.126116 160.933102 
L 245.662799 144.806457 
L 246.199482 160.292667 
L 246.736164 150.257081 
L 247.272847 144.532169 
L 247.80953 148.904252 
L 248.346212 134.095287 
L 248.882895 159.16839 
L 249.419577 154.340892 
L 249.95626 159.392321 
L 250.492943 150.540342 
L 251.029625 149.075566 
L 251.566308 157.302497 
L 252.639673 154.350205 
L 253.713038 153.039443 
L 254.249721 146.107412 
L 254.786404 154.102456 
L 255.323086 146.458102 
L 255.859769 155.919355 
L 256.396451 151.423932 
L 256.933134 159.233375 
L 257.469817 154.004604 
L 258.006499 151.862805 
L 258.543182 156.535464 
L 258.543182 156.535464 
" clip-path="url(#pb99d837171)" style="fill: none; stroke: #000000; stroke-opacity: 0.5; stroke-width: 0.5; stroke-linecap: square"/>
   </g>
   <g id="line2d_15">
    <path d="M 44.406818 180.687273 
L 92.708254 180.687273 
L 93.244936 136.625286 
L 93.781619 137.57283 
L 94.318301 180.687273 
L 94.854984 180.687273 
L 95.391667 140.239056 
L 95.928349 180.687273 
L 97.001715 180.687273 
L 97.538397 143.425734 
L 98.07508 144.163575 
L 98.611762 180.687273 
L 99.148445 110.462675 
L 100.22181 180.687273 
L 100.758493 180.687273 
L 101.831858 52.999395 
L 102.368541 180.687273 
L 102.905223 119.154129 
L 103.441906 180.687273 
L 103.978589 151.01454 
L 104.515271 180.687273 
L 105.051954 123.414766 
L 105.588636 96.272735 
L 106.125319 153.03417 
L 106.662002 99.146052 
L 107.198684 127.247733 
L 107.735367 75.604419 
L 108.272049 180.687273 
L 109.345415 180.687273 
L 110.41878 132.314205 
L 110.955463 156.887687 
L 111.492145 133.84363 
L 112.028828 180.687273 
L 112.56551 157.994495 
L 114.175558 159.02586 
L 115.248923 117.64993 
L 115.785606 159.988466 
L 116.322289 160.295058 
L 116.858971 120.410294 
L 117.395654 101.491283 
L 117.932337 161.175182 
L 118.469019 84.530792 
L 119.005702 180.687273 
L 119.542384 161.999568 
L 120.079067 106.989268 
L 120.61575 126.186753 
L 121.152432 180.687273 
L 121.689115 127.685025 
L 122.225797 180.687273 
L 122.76248 146.31066 
L 123.299163 129.819107 
L 123.835845 180.687273 
L 124.372528 131.170983 
L 124.909211 164.400454 
L 125.445893 180.687273 
L 125.982576 180.687273 
L 126.519258 165.030872 
L 127.055941 134.324135 
L 127.592624 150.174718 
L 128.129306 150.563436 
L 128.665989 106.330828 
L 129.202671 121.950395 
L 129.739354 166.186622 
L 130.276037 137.725696 
L 130.812719 138.256064 
L 131.349402 124.806554 
L 131.886085 153.087663 
L 132.422767 112.52448 
L 132.95945 180.687273 
L 133.496132 154.073222 
L 135.10618 155.007042 
L 135.642863 129.927447 
L 136.716228 180.687273 
L 137.252911 143.922431 
L 137.789593 95.883427 
L 138.326276 144.755753 
L 138.862959 121.477977 
L 139.399641 157.269688 
L 139.936324 134.375251 
L 141.009689 158.041616 
L 142.083054 114.231126 
L 142.619737 158.776038 
L 143.156419 169.850083 
L 143.693102 169.966615 
L 144.229785 127.657289 
L 144.766467 138.714547 
L 145.30315 159.922999 
L 145.839833 170.414434 
L 146.376515 170.522007 
L 146.913198 150.50909 
L 147.44988 180.687273 
L 147.986563 141.277163 
L 148.523246 161.18429 
L 149.059928 151.731326 
L 149.596611 132.917362 
L 150.669976 171.324839 
L 151.206659 143.612042 
L 151.743341 143.980957 
L 152.280024 162.515814 
L 152.816707 126.710047 
L 153.353389 153.963196 
L 153.890072 154.22396 
L 154.963437 172.036188 
L 155.50012 129.280149 
L 156.036802 155.229597 
L 156.573485 155.472119 
L 157.110167 147.385727 
L 158.183533 164.348473 
L 158.720215 140.221998 
L 160.330263 164.946578 
L 161.403628 165.233426 
L 161.940311 150.060582 
L 162.476994 157.925014 
L 163.013676 128.05397 
L 164.087041 128.991873 
L 164.623724 151.409566 
L 165.160407 158.923346 
L 165.697089 144.733549 
L 166.233772 152.176563 
L 166.770455 152.425725 
L 167.307137 159.675402 
L 167.84382 125.140598 
L 168.380502 118.73607 
L 168.917185 146.565318 
L 169.453868 140.090934 
L 169.99055 167.270278 
L 170.527233 154.080768 
L 171.600598 141.446779 
L 172.137281 167.71656 
L 172.673963 148.530798 
L 173.210646 174.309344 
L 173.747329 123.76033 
L 174.284011 155.594679 
L 174.820694 130.913487 
L 175.357376 125.148864 
L 175.894059 150.083399 
L 176.430742 119.975213 
L 176.967424 174.665016 
L 177.504107 162.765608 
L 178.040789 139.204601 
L 178.577472 133.656268 
L 179.114155 145.69394 
L 179.650837 145.970481 
L 180.18752 157.725003 
L 180.724203 146.514115 
L 181.260885 141.130023 
L 181.797568 141.437856 
L 182.33425 147.305703 
L 182.870933 175.166636 
L 183.407616 153.296492 
L 184.480981 132.135075 
L 185.017663 148.565424 
L 185.554346 154.121855 
L 186.091029 127.95717 
L 186.627711 175.453907 
L 187.164394 139.134089 
L 187.701077 144.599438 
L 188.237759 144.867695 
L 188.774442 150.212205 
L 189.311124 165.562206 
L 189.847807 170.678046 
L 190.38449 145.911642 
L 190.921172 156.028831 
L 191.457855 161.10394 
L 191.994537 141.804582 
L 193.067903 171.1062 
L 193.604585 142.637794 
L 194.141268 147.631699 
L 194.677951 157.244212 
L 195.214633 157.410554 
L 195.751316 143.707608 
L 196.287998 153.147794 
L 196.824681 125.994792 
L 197.361364 153.532251 
L 197.898046 149.227162 
L 198.434729 131.593588 
L 198.971411 149.66194 
L 200.044777 141.345055 
L 200.581459 154.638698 
L 201.118142 159.128329 
L 201.654825 137.862588 
L 202.191507 159.420109 
L 202.72819 159.563871 
L 203.264872 151.31357 
L 203.801555 155.678757 
L 204.338238 164.126443 
L 204.87492 156.011634 
L 205.411603 156.175587 
L 205.948285 144.163204 
L 206.484968 156.498745 
L 207.021651 132.628303 
L 207.558333 156.815385 
L 208.095016 153.01873 
L 208.631699 153.199053 
L 209.168381 137.771934 
L 209.705064 153.554325 
L 210.241746 153.729298 
L 210.778429 157.729012 
L 211.315112 157.87619 
L 211.851794 161.799528 
L 212.388477 146.905948 
L 212.925159 158.309263 
L 213.998525 143.86052 
L 214.535207 144.092088 
L 215.07189 155.231343 
L 215.608573 151.77664 
L 216.145255 162.730675 
L 216.681938 134.290174 
L 217.21862 145.21811 
L 217.755303 159.537146 
L 218.291986 163.170663 
L 218.828668 159.796237 
L 219.365351 146.081987 
L 219.902033 139.414076 
L 220.438716 160.176094 
L 220.975399 163.69829 
L 222.048764 126.976516 
L 222.585447 164.003375 
L 223.122129 154.152842 
L 223.658812 151.014498 
L 224.195494 144.636387 
L 224.732177 157.881855 
L 225.26886 167.73269 
L 225.805542 164.589673 
L 226.342225 145.48071 
L 226.878907 136.141825 
L 227.41559 158.544861 
L 227.952273 155.52914 
L 228.488955 146.295847 
L 229.025638 149.603643 
L 229.562321 165.235308 
L 230.099003 156.106471 
L 230.635686 162.357681 
L 231.172368 156.388028 
L 231.709051 171.627059 
L 232.245734 159.667371 
L 233.319099 153.967396 
L 233.855781 145.262072 
L 234.392464 142.526242 
L 234.929147 154.416435 
L 235.465829 169.076721 
L 236.002512 151.823114 
L 236.539195 163.46529 
L 237.61256 146.624429 
L 238.149242 146.812548 
L 238.685925 141.384754 
L 239.222608 138.808738 
L 239.75929 166.804197 
L 240.295973 155.834244 
L 240.832656 158.71619 
L 241.369338 167.029921 
L 241.906021 145.370698 
L 242.442703 161.773501 
L 242.979386 153.813204 
L 243.516069 148.611708 
L 244.052751 148.78377 
L 244.589434 162.176449 
L 245.126116 159.644783 
L 245.662799 123.128457 
L 246.199482 162.470214 
L 246.736164 154.800474 
L 247.272847 154.937267 
L 247.80953 157.634124 
L 248.346212 137.371281 
L 248.882895 152.805833 
L 249.419577 157.994392 
L 249.95626 155.604274 
L 250.492943 143.258223 
L 251.029625 153.381646 
L 251.566308 155.992138 
L 252.10299 153.662622 
L 252.639673 153.801512 
L 253.176356 161.23429 
L 253.713038 154.076234 
L 254.249721 144.584713 
L 255.323086 149.715703 
L 255.859769 156.983598 
L 256.396451 152.386538 
L 256.933134 164.261632 
L 257.469817 145.666266 
L 258.006499 145.841897 
L 258.543182 159.884638 
L 258.543182 159.884638 
" clip-path="url(#pb99d837171)" style="fill: none; stroke: #0000ff; stroke-opacity: 0.5; stroke-linecap: square"/>
   </g>
   <g id="line2d_16">
    <path d="M 44.406818 180.687273 
L 99.685128 180.687273 
L 100.22181 120.631885 
L 100.758493 180.687273 
L 101.295175 180.687273 
L 101.831858 123.937112 
L 102.905223 125.991152 
L 103.441906 180.687273 
L 103.978589 22.432727 
L 104.515271 128.869351 
L 105.051954 78.869497 
L 105.588636 180.687273 
L 106.662002 84.045845 
L 107.198684 133.185466 
L 107.735367 40.576827 
L 108.272049 134.762191 
L 108.808732 135.521307 
L 109.345415 180.687273 
L 109.882097 136.984131 
L 110.41878 180.687273 
L 112.028828 180.687273 
L 112.56551 140.344562 
L 113.102193 180.687273 
L 113.638876 141.581005 
L 115.248923 143.331814 
L 115.785606 180.687273 
L 117.395654 180.687273 
L 117.932337 111.310956 
L 118.469019 146.498309 
L 119.005702 146.986709 
L 119.542384 114.242104 
L 120.079067 180.687273 
L 120.61575 148.39067 
L 121.689115 149.278537 
L 122.225797 180.687273 
L 122.76248 150.130286 
L 123.299163 180.687273 
L 123.835845 180.687273 
L 124.372528 92.658334 
L 124.909211 180.687273 
L 125.445893 180.687273 
L 125.982576 152.487433 
L 127.592624 153.565005 
L 128.129306 180.687273 
L 128.665989 154.24943 
L 129.202671 154.581998 
L 129.739354 180.687273 
L 130.276037 129.769856 
L 131.349402 131.015531 
L 131.886085 180.687273 
L 132.422767 132.215965 
L 132.95945 180.687273 
L 133.496132 157.030341 
L 134.032815 157.312045 
L 134.569498 180.687273 
L 135.10618 157.860403 
L 135.642863 158.127354 
L 136.179545 136.092072 
L 136.716228 180.687273 
L 137.252911 115.32756 
L 137.789593 159.14979 
L 138.326276 116.809029 
L 138.862959 180.687273 
L 139.399641 180.687273 
L 140.473006 99.269751 
L 141.009689 160.557803 
L 141.546372 140.870815 
L 142.083054 180.687273 
L 142.619737 102.780668 
L 143.693102 104.4515 
L 144.229785 161.83217 
L 144.766467 162.032731 
L 145.30315 143.773014 
L 145.839833 144.161627 
L 146.376515 162.615691 
L 146.913198 162.803907 
L 147.44988 180.687273 
L 147.986563 128.140468 
L 148.523246 128.679327 
L 149.059928 180.687273 
L 149.596611 180.687273 
L 150.133293 163.873991 
L 150.669976 114.109972 
L 151.206659 147.731517 
L 151.743341 131.745526 
L 152.280024 180.687273 
L 152.816707 148.700772 
L 153.353389 164.850785 
L 153.890072 165.005312 
L 154.426754 149.627855 
L 154.963437 165.307568 
L 156.036802 165.601244 
L 156.573485 120.918025 
L 157.110167 136.285222 
L 157.64685 180.687273 
L 158.183533 79.023647 
L 158.720215 151.911971 
L 159.256898 123.672022 
L 159.793581 152.44358 
L 160.330263 124.720365 
L 160.866946 125.233934 
L 161.403628 166.950521 
L 161.940311 139.851693 
L 163.013676 167.320085 
L 163.550359 154.192724 
L 164.087041 180.687273 
L 164.623724 128.638024 
L 165.160407 180.687273 
L 165.697089 142.336642 
L 166.233772 130.001573 
L 166.770455 168.126586 
L 167.307137 168.235795 
L 167.84382 118.968753 
L 168.380502 156.212727 
L 168.917185 168.555023 
L 169.99055 168.761057 
L 170.527233 145.211938 
L 171.063915 133.785822 
L 171.600598 169.060461 
L 172.137281 169.157752 
L 172.673963 134.953625 
L 173.210646 112.65604 
L 173.747329 169.442446 
L 174.284011 147.230489 
L 174.820694 147.504754 
L 175.357376 136.805081 
L 176.430742 180.687273 
L 176.967424 169.98104 
L 178.040789 128.010868 
L 178.577472 170.23594 
L 179.114155 159.950484 
L 180.18752 180.687273 
L 180.724203 150.311138 
L 181.260885 130.455851 
L 182.33425 170.796439 
L 182.870933 121.800485 
L 183.407616 151.470447 
L 183.944298 151.694347 
L 184.480981 142.325049 
L 185.017663 123.581777 
L 186.091029 161.938794 
L 186.627711 152.775993 
L 187.164394 134.51707 
L 188.237759 135.202099 
L 188.774442 144.568678 
L 189.311124 162.761269 
L 189.847807 162.893094 
L 190.38449 136.527748 
L 190.921172 171.919828 
L 191.457855 145.872463 
L 191.994537 154.765483 
L 192.53122 146.374473 
L 193.067903 146.621243 
L 194.141268 163.897142 
L 194.677951 155.681347 
L 195.214633 139.306447 
L 195.751316 172.46957 
L 196.287998 156.20774 
L 196.824681 156.379506 
L 197.361364 140.457615 
L 197.898046 132.748063 
L 198.434729 109.278287 
L 198.971411 172.807824 
L 199.508094 141.561853 
L 200.581459 142.096796 
L 201.118142 150.025669 
L 201.654825 173.073997 
L 202.191507 158.002303 
L 202.72819 150.645106 
L 203.264872 150.847323 
L 203.801555 128.817765 
L 204.338238 158.60617 
L 204.87492 144.130775 
L 205.411603 151.63639 
L 205.948285 166.258013 
L 206.484968 130.518483 
L 207.021651 166.44758 
L 207.558333 166.54097 
L 208.095016 124.471826 
L 208.631699 124.838193 
L 209.168381 159.879838 
L 209.705064 146.232737 
L 210.241746 139.608459 
L 210.778429 112.662801 
L 211.315112 146.893079 
L 211.851794 160.54035 
L 212.388477 153.995859 
L 212.925159 154.165192 
L 213.461842 147.744538 
L 213.998525 147.952386 
L 214.535207 141.652419 
L 215.07189 122.502298 
L 215.608573 148.56435 
L 216.145255 135.995303 
L 216.681938 155.307667 
L 217.21862 155.46476 
L 217.755303 130.553648 
L 218.291986 168.23102 
L 218.828668 137.357725 
L 219.365351 156.079074 
L 219.902033 137.885446 
L 220.438716 174.609887 
L 220.975399 138.40359 
L 221.512081 138.658703 
L 222.048764 144.880109 
L 222.585447 162.891119 
L 223.122129 157.101115 
L 223.658812 174.825985 
L 224.195494 151.555247 
L 224.732177 151.728012 
L 225.26886 157.656906 
L 225.805542 146.345737 
L 226.342225 152.237528 
L 226.878907 124.121628 
L 227.41559 141.322993 
L 227.952273 141.552406 
L 228.488955 152.896223 
L 229.025638 147.531408 
L 229.562321 158.711148 
L 230.099003 147.912878 
L 230.635686 164.394305 
L 231.172368 169.88761 
L 231.709051 153.8422 
L 232.245734 132.641786 
L 232.782416 127.606281 
L 233.319099 154.297275 
L 233.855781 164.942741 
L 234.392464 149.375664 
L 234.929147 139.172871 
L 235.465829 139.405314 
L 236.002512 160.161653 
L 236.539195 129.659178 
L 237.075877 135.016918 
L 237.61256 155.455539 
L 238.149242 165.631842 
L 238.685925 150.7425 
L 239.222608 140.980228 
L 239.75929 160.942456 
L 240.295973 151.231837 
L 240.832656 131.862651 
L 241.369338 146.695648 
L 241.906021 156.53919 
L 242.442703 147.062794 
L 242.979386 142.466383 
L 243.516069 142.67179 
L 244.052751 157.055051 
L 244.589434 133.675661 
L 245.126116 143.278407 
L 245.662799 138.826321 
L 246.199482 148.301392 
L 246.736164 153.074693 
L 247.272847 139.48727 
L 247.80953 153.365028 
L 248.346212 130.859727 
L 248.882895 158.156819 
L 249.419577 126.896748 
L 249.95626 162.850477 
L 250.492943 154.071066 
L 251.029625 136.556969 
L 251.566308 158.736045 
L 252.10299 150.113934 
L 252.639673 163.306581 
L 253.176356 159.072849 
L 253.713038 163.484178 
L 254.249721 137.899059 
L 254.786404 150.887952 
L 255.859769 134.333425 
L 256.396451 155.531067 
L 256.933134 159.829316 
L 257.469817 151.632813 
L 258.006499 155.908345 
L 258.543182 139.595655 
L 258.543182 139.595655 
" clip-path="url(#pb99d837171)" style="fill: none; stroke: #ff0000; stroke-opacity: 0.5; stroke-linecap: square"/>
   </g>
   <g id="patch_3">
    <path d="M 33.7 188.6 
L 33.7 14.52 
" style="fill: none; stroke: #000000; stroke-width: 0.8; stroke-linejoin: miter; stroke-linecap: square"/>
   </g>
   <g id="patch_4">
    <path d="M 269.25 188.6 
L 269.25 14.52 
" style="fill: none; stroke: #000000; stroke-width: 0.8; stroke-linejoin: miter; stroke-linecap: square"/>
   </g>
   <g id="patch_5">
    <path d="M 33.7 188.6 
L 269.25 188.6 
" style="fill: none; stroke: #000000; stroke-width: 0.8; stroke-linejoin: miter; stroke-linecap: square"/>
   </g>
   <g id="patch_6">
    <path d="M 33.7 14.52 
L 269.25 14.52 
" style="fill: none; stroke: #000000; stroke-width: 0.8; stroke-linejoin: miter; stroke-linecap: square"/>
   </g>
   <g id="legend_1">
    <g id="patch_7">
     <path d="M 213.917188 66.554375 
L 262.25 66.554375 
Q 264.25 66.554375 264.25 64.554375 
L 264.25 21.52 
Q 264.25 19.52 262.25 19.52 
L 213.917188 19.52 
Q 211.917188 19.52 211.917188 21.52 
L 211.917188 64.554375 
Q 211.917188 66.554375 213.917188 66.554375 
z
" style="fill: #ffffff; opacity: 0.8; stroke: #cccccc; stroke-linejoin: miter"/>
    </g>
    <g id="line2d_17">
     <path d="M 215.917188 27.618438 
L 225.917188 27.618438 
L 235.917188 27.618438 
" style="fill: none; stroke: #000000; stroke-opacity: 0.5; stroke-width: 0.5; stroke-linecap: square"/>
    </g>
    <g id="text_16">
     <!-- all -->
     <g transform="translate(243.917188 31.118438) scale(0.1 -0.1)">
      <defs>
       <path id="DejaVuSans-61" d="M 2194 1759 
Q 1497 1759 1228 1600 
Q 959 1441 959 1056 
Q 959 750 1161 570 
Q 1363 391 1709 391 
Q 2188 391 2477 730 
Q 2766 1069 2766 1631 
L 2766 1759 
L 2194 1759 
z
M 3341 1997 
L 3341 0 
L 2766 0 
L 2766 531 
Q 2569 213 2275 61 
Q 1981 -91 1556 -91 
Q 1019 -91 701 211 
Q 384 513 384 1019 
Q 384 1609 779 1909 
Q 1175 2209 1959 2209 
L 2766 2209 
L 2766 2266 
Q 2766 2663 2505 2880 
Q 2244 3097 1772 3097 
Q 1472 3097 1187 3025 
Q 903 2953 641 2809 
L 641 3341 
Q 956 3463 1253 3523 
Q 1550 3584 1831 3584 
Q 2591 3584 2966 3190 
Q 3341 2797 3341 1997 
z
" transform="scale(0.015625)"/>
       <path id="DejaVuSans-6c" d="M 603 4863 
L 1178 4863 
L 1178 0 
L 603 0 
L 603 4863 
z
" transform="scale(0.015625)"/>
      </defs>
      <use xlink:href="#DejaVuSans-61"/>
      <use xlink:href="#DejaVuSans-6c" transform="translate(61.279297 0)"/>
      <use xlink:href="#DejaVuSans-6c" transform="translate(89.0625 0)"/>
     </g>
    </g>
    <g id="line2d_18">
     <path d="M 215.917188 42.296563 
L 225.917188 42.296563 
L 235.917188 42.296563 
" style="fill: none; stroke: #0000ff; stroke-opacity: 0.5; stroke-linecap: square"/>
    </g>
    <g id="text_17">
     <!-- 1-1 -->
     <g transform="translate(243.917188 45.796563) scale(0.1 -0.1)">
      <defs>
       <path id="DejaVuSans-2d" d="M 313 2009 
L 1997 2009 
L 1997 1497 
L 313 1497 
L 313 2009 
z
" transform="scale(0.015625)"/>
      </defs>
      <use xlink:href="#DejaVuSans-31"/>
      <use xlink:href="#DejaVuSans-2d" transform="translate(63.623047 0)"/>
      <use xlink:href="#DejaVuSans-31" transform="translate(99.707031 0)"/>
     </g>
    </g>
    <g id="line2d_19">
     <path d="M 215.917188 56.974688 
L 225.917188 56.974688 
L 235.917188 56.974688 
" style="fill: none; stroke: #ff0000; stroke-opacity: 0.5; stroke-linecap: square"/>
    </g>
    <g id="text_18">
     <!-- 2-2 -->
     <g transform="translate(243.917188 60.474688) scale(0.1 -0.1)">
      <use xlink:href="#DejaVuSans-32"/>
      <use xlink:href="#DejaVuSans-2d" transform="translate(63.623047 0)"/>
      <use xlink:href="#DejaVuSans-32" transform="translate(99.707031 0)"/>
     </g>
    </g>
   </g>
  </g>
 </g>
 <defs>
  <clipPath id="pb99d837171">
   <rect x="33.7" y="14.52" width="235.55" height="174.08"/>
  </clipPath>
 </defs>
</svg>
