<?xml version="1.0" encoding="utf-8" standalone="no"?>
<!DOCTYPE svg PUBLIC "-//W3C//DTD SVG 1.1//EN"
  "http://www.w3.org/Graphics/SVG/1.1/DTD/svg11.dtd">
<svg xmlns:xlink="http://www.w3.org/1999/xlink" width="288pt" height="216pt" viewBox="0 0 288 216" xmlns="http://www.w3.org/2000/svg" version="1.1">
 <metadata>
  <rdf:RDF xmlns:dc="http://purl.org/dc/elements/1.1/" xmlns:cc="http://creativecommons.org/ns#" xmlns:rdf="http://www.w3.org/1999/02/22-rdf-syntax-ns#">
   <cc:Work>
    <dc:type rdf:resource="http://purl.org/dc/dcmitype/StillImage"/>
    <dc:date>2025-09-17T22:59:39.792883</dc:date>
    <dc:format>image/svg+xml</dc:format>
    <dc:creator>
     <cc:Agent>
      <dc:title>Matplotlib v3.10.0, https://matplotlib.org/</dc:title>
     </cc:Agent>
    </dc:creator>
   </cc:Work>
  </rdf:RDF>
 </metadata>
 <defs>
  <style type="text/css">*{stroke-linejoin: round; stroke-linecap: butt}</style>
 </defs>
 <g id="figure_1">
  <g id="patch_1">
   <path d="M 0 216 
L 288 216 
L 288 0 
L 0 0 
z
" style="fill: #ffffff"/>
  </g>
  <g id="axes_1">
   <g id="patch_2">
    <path d="M 33.7 188.6 
L 269.25 188.6 
L 269.25 14.52 
L 33.7 14.52 
z
" style="fill: #ffffff"/>
   </g>
   <g id="matplotlib.axis_1">
    <g id="xtick_1">
     <g id="line2d_1">
      <defs>
       <path id="m9fd26ebe5e" d="M 0 0 
L 0 3.5 
" style="stroke: #000000; stroke-width: 0.8"/>
      </defs>
      <g>
       <use xlink:href="#m9fd26ebe5e" x="44.138477" y="188.6" style="stroke: #000000; stroke-width: 0.8"/>
      </g>
     </g>
     <g id="text_1">
      <!-- 0 -->
      <g transform="translate(40.957227 203.198437) scale(0.1 -0.1)">
       <defs>
        <path id="DejaVuSans-30" d="M 2034 4250 
Q 1547 4250 1301 3770 
Q 1056 3291 1056 2328 
Q 1056 1369 1301 889 
Q 1547 409 2034 409 
Q 2525 409 2770 889 
Q 3016 1369 3016 2328 
Q 3016 3291 2770 3770 
Q 2525 4250 2034 4250 
z
M 2034 4750 
Q 2819 4750 3233 4129 
Q 3647 3509 3647 2328 
Q 3647 1150 3233 529 
Q 2819 -91 2034 -91 
Q 1250 -91 836 529 
Q 422 1150 422 2328 
Q 422 3509 836 4129 
Q 1250 4750 2034 4750 
z
" transform="scale(0.015625)"/>
       </defs>
       <use xlink:href="#DejaVuSans-30"/>
      </g>
     </g>
    </g>
    <g id="xtick_2">
     <g id="line2d_2">
      <g>
       <use xlink:href="#m9fd26ebe5e" x="87.073086" y="188.6" style="stroke: #000000; stroke-width: 0.8"/>
      </g>
     </g>
     <g id="text_2">
      <!-- 200 -->
      <g transform="translate(77.529336 203.198437) scale(0.1 -0.1)">
       <defs>
        <path id="DejaVuSans-32" d="M 1228 531 
L 3431 531 
L 3431 0 
L 469 0 
L 469 531 
Q 828 903 1448 1529 
Q 2069 2156 2228 2338 
Q 2531 2678 2651 2914 
Q 2772 3150 2772 3378 
Q 2772 3750 2511 3984 
Q 2250 4219 1831 4219 
Q 1534 4219 1204 4116 
Q 875 4013 500 3803 
L 500 4441 
Q 881 4594 1212 4672 
Q 1544 4750 1819 4750 
Q 2544 4750 2975 4387 
Q 3406 4025 3406 3419 
Q 3406 3131 3298 2873 
Q 3191 2616 2906 2266 
Q 2828 2175 2409 1742 
Q 1991 1309 1228 531 
z
" transform="scale(0.015625)"/>
       </defs>
       <use xlink:href="#DejaVuSans-32"/>
       <use xlink:href="#DejaVuSans-30" transform="translate(63.623047 0)"/>
       <use xlink:href="#DejaVuSans-30" transform="translate(127.246094 0)"/>
      </g>
     </g>
    </g>
    <g id="xtick_3">
     <g id="line2d_3">
      <g>
       <use xlink:href="#m9fd26ebe5e" x="130.007695" y="188.6" style="stroke: #000000; stroke-width: 0.8"/>
      </g>
     </g>
     <g id="text_3">
      <!-- 400 -->
      <g transform="translate(120.463945 203.198437) scale(0.1 -0.1)">
       <defs>
        <path id="DejaVuSans-34" d="M 2419 4116 
L 825 1625 
L 2419 1625 
L 2419 4116 
z
M 2253 4666 
L 3047 4666 
L 3047 1625 
L 3713 1625 
L 3713 1100 
L 3047 1100 
L 3047 0 
L 2419 0 
L 2419 1100 
L 313 1100 
L 313 1709 
L 2253 4666 
z
" transform="scale(0.015625)"/>
       </defs>
       <use xlink:href="#DejaVuSans-34"/>
       <use xlink:href="#DejaVuSans-30" transform="translate(63.623047 0)"/>
       <use xlink:href="#DejaVuSans-30" transform="translate(127.246094 0)"/>
      </g>
     </g>
    </g>
    <g id="xtick_4">
     <g id="line2d_4">
      <g>
       <use xlink:href="#m9fd26ebe5e" x="172.942305" y="188.6" style="stroke: #000000; stroke-width: 0.8"/>
      </g>
     </g>
     <g id="text_4">
      <!-- 600 -->
      <g transform="translate(163.398555 203.198437) scale(0.1 -0.1)">
       <defs>
        <path id="DejaVuSans-36" d="M 2113 2584 
Q 1688 2584 1439 2293 
Q 1191 2003 1191 1497 
Q 1191 994 1439 701 
Q 1688 409 2113 409 
Q 2538 409 2786 701 
Q 3034 994 3034 1497 
Q 3034 2003 2786 2293 
Q 2538 2584 2113 2584 
z
M 3366 4563 
L 3366 3988 
Q 3128 4100 2886 4159 
Q 2644 4219 2406 4219 
Q 1781 4219 1451 3797 
Q 1122 3375 1075 2522 
Q 1259 2794 1537 2939 
Q 1816 3084 2150 3084 
Q 2853 3084 3261 2657 
Q 3669 2231 3669 1497 
Q 3669 778 3244 343 
Q 2819 -91 2113 -91 
Q 1303 -91 875 529 
Q 447 1150 447 2328 
Q 447 3434 972 4092 
Q 1497 4750 2381 4750 
Q 2619 4750 2861 4703 
Q 3103 4656 3366 4563 
z
" transform="scale(0.015625)"/>
       </defs>
       <use xlink:href="#DejaVuSans-36"/>
       <use xlink:href="#DejaVuSans-30" transform="translate(63.623047 0)"/>
       <use xlink:href="#DejaVuSans-30" transform="translate(127.246094 0)"/>
      </g>
     </g>
    </g>
    <g id="xtick_5">
     <g id="line2d_5">
      <g>
       <use xlink:href="#m9fd26ebe5e" x="215.876914" y="188.6" style="stroke: #000000; stroke-width: 0.8"/>
      </g>
     </g>
     <g id="text_5">
      <!-- 800 -->
      <g transform="translate(206.333164 203.198437) scale(0.1 -0.1)">
       <defs>
        <path id="DejaVuSans-38" d="M 2034 2216 
Q 1584 2216 1326 1975 
Q 1069 1734 1069 1313 
Q 1069 891 1326 650 
Q 1584 409 2034 409 
Q 2484 409 2743 651 
Q 3003 894 3003 1313 
Q 3003 1734 2745 1975 
Q 2488 2216 2034 2216 
z
M 1403 2484 
Q 997 2584 770 2862 
Q 544 3141 544 3541 
Q 544 4100 942 4425 
Q 1341 4750 2034 4750 
Q 2731 4750 3128 4425 
Q 3525 4100 3525 3541 
Q 3525 3141 3298 2862 
Q 3072 2584 2669 2484 
Q 3125 2378 3379 2068 
Q 3634 1759 3634 1313 
Q 3634 634 3220 271 
Q 2806 -91 2034 -91 
Q 1263 -91 848 271 
Q 434 634 434 1313 
Q 434 1759 690 2068 
Q 947 2378 1403 2484 
z
M 1172 3481 
Q 1172 3119 1398 2916 
Q 1625 2713 2034 2713 
Q 2441 2713 2670 2916 
Q 2900 3119 2900 3481 
Q 2900 3844 2670 4047 
Q 2441 4250 2034 4250 
Q 1625 4250 1398 4047 
Q 1172 3844 1172 3481 
z
" transform="scale(0.015625)"/>
       </defs>
       <use xlink:href="#DejaVuSans-38"/>
       <use xlink:href="#DejaVuSans-30" transform="translate(63.623047 0)"/>
       <use xlink:href="#DejaVuSans-30" transform="translate(127.246094 0)"/>
      </g>
     </g>
    </g>
    <g id="xtick_6">
     <g id="line2d_6">
      <g>
       <use xlink:href="#m9fd26ebe5e" x="258.811523" y="188.6" style="stroke: #000000; stroke-width: 0.8"/>
      </g>
     </g>
     <g id="text_6">
      <!-- 1000 -->
      <g transform="translate(246.086523 203.198437) scale(0.1 -0.1)">
       <defs>
        <path id="DejaVuSans-31" d="M 794 531 
L 1825 531 
L 1825 4091 
L 703 3866 
L 703 4441 
L 1819 4666 
L 2450 4666 
L 2450 531 
L 3481 531 
L 3481 0 
L 794 0 
L 794 531 
z
" transform="scale(0.015625)"/>
       </defs>
       <use xlink:href="#DejaVuSans-31"/>
       <use xlink:href="#DejaVuSans-30" transform="translate(63.623047 0)"/>
       <use xlink:href="#DejaVuSans-30" transform="translate(127.246094 0)"/>
       <use xlink:href="#DejaVuSans-30" transform="translate(190.869141 0)"/>
      </g>
     </g>
    </g>
    <g id="text_7">
     <!-- q (nm) -->
     <g transform="translate(134.771094 216.876563) scale(0.1 -0.1)">
      <defs>
       <path id="DejaVuSans-71" d="M 947 1747 
Q 947 1113 1208 752 
Q 1469 391 1925 391 
Q 2381 391 2643 752 
Q 2906 1113 2906 1747 
Q 2906 2381 2643 2742 
Q 2381 3103 1925 3103 
Q 1469 3103 1208 2742 
Q 947 2381 947 1747 
z
M 2906 525 
Q 2725 213 2448 61 
Q 2172 -91 1784 -91 
Q 1150 -91 751 415 
Q 353 922 353 1747 
Q 353 2572 751 3078 
Q 1150 3584 1784 3584 
Q 2172 3584 2448 3432 
Q 2725 3281 2906 2969 
L 2906 3500 
L 3481 3500 
L 3481 -1331 
L 2906 -1331 
L 2906 525 
z
" transform="scale(0.015625)"/>
       <path id="DejaVuSans-20" transform="scale(0.015625)"/>
       <path id="DejaVuSans-28" d="M 1984 4856 
Q 1566 4138 1362 3434 
Q 1159 2731 1159 2009 
Q 1159 1288 1364 580 
Q 1569 -128 1984 -844 
L 1484 -844 
Q 1016 -109 783 600 
Q 550 1309 550 2009 
Q 550 2706 781 3412 
Q 1013 4119 1484 4856 
L 1984 4856 
z
" transform="scale(0.015625)"/>
       <path id="DejaVuSans-6e" d="M 3513 2113 
L 3513 0 
L 2938 0 
L 2938 2094 
Q 2938 2591 2744 2837 
Q 2550 3084 2163 3084 
Q 1697 3084 1428 2787 
Q 1159 2491 1159 1978 
L 1159 0 
L 581 0 
L 581 3500 
L 1159 3500 
L 1159 2956 
Q 1366 3272 1645 3428 
Q 1925 3584 2291 3584 
Q 2894 3584 3203 3211 
Q 3513 2838 3513 2113 
z
" transform="scale(0.015625)"/>
       <path id="DejaVuSans-6d" d="M 3328 2828 
Q 3544 3216 3844 3400 
Q 4144 3584 4550 3584 
Q 5097 3584 5394 3201 
Q 5691 2819 5691 2113 
L 5691 0 
L 5113 0 
L 5113 2094 
Q 5113 2597 4934 2840 
Q 4756 3084 4391 3084 
Q 3944 3084 3684 2787 
Q 3425 2491 3425 1978 
L 3425 0 
L 2847 0 
L 2847 2094 
Q 2847 2600 2669 2842 
Q 2491 3084 2119 3084 
Q 1678 3084 1418 2786 
Q 1159 2488 1159 1978 
L 1159 0 
L 581 0 
L 581 3500 
L 1159 3500 
L 1159 2956 
Q 1356 3278 1631 3431 
Q 1906 3584 2284 3584 
Q 2666 3584 2933 3390 
Q 3200 3197 3328 2828 
z
" transform="scale(0.015625)"/>
       <path id="DejaVuSans-29" d="M 513 4856 
L 1013 4856 
Q 1481 4119 1714 3412 
Q 1947 2706 1947 2009 
Q 1947 1309 1714 600 
Q 1481 -109 1013 -844 
L 513 -844 
Q 928 -128 1133 580 
Q 1338 1288 1338 2009 
Q 1338 2731 1133 3434 
Q 928 4138 513 4856 
z
" transform="scale(0.015625)"/>
      </defs>
      <use xlink:href="#DejaVuSans-71"/>
      <use xlink:href="#DejaVuSans-20" transform="translate(63.476562 0)"/>
      <use xlink:href="#DejaVuSans-28" transform="translate(95.263672 0)"/>
      <use xlink:href="#DejaVuSans-6e" transform="translate(134.277344 0)"/>
      <use xlink:href="#DejaVuSans-6d" transform="translate(197.65625 0)"/>
      <use xlink:href="#DejaVuSans-29" transform="translate(295.068359 0)"/>
     </g>
    </g>
   </g>
   <g id="matplotlib.axis_2">
    <g id="ytick_1">
     <g id="line2d_7">
      <defs>
       <path id="m1b824e1fe4" d="M 0 0 
L -3.5 0 
" style="stroke: #000000; stroke-width: 0.8"/>
      </defs>
      <g>
       <use xlink:href="#m1b824e1fe4" x="33.7" y="180.687273" style="stroke: #000000; stroke-width: 0.8"/>
      </g>
     </g>
     <g id="text_8">
      <!-- 0 -->
      <g transform="translate(20.3375 184.486491) scale(0.1 -0.1)">
       <use xlink:href="#DejaVuSans-30"/>
      </g>
     </g>
    </g>
    <g id="ytick_2">
     <g id="line2d_8">
      <g>
       <use xlink:href="#m1b824e1fe4" x="33.7" y="145.342445" style="stroke: #000000; stroke-width: 0.8"/>
      </g>
     </g>
     <g id="text_9">
      <!-- 20000 -->
      <g transform="translate(-5.1125 149.141664) scale(0.1 -0.1)">
       <use xlink:href="#DejaVuSans-32"/>
       <use xlink:href="#DejaVuSans-30" transform="translate(63.623047 0)"/>
       <use xlink:href="#DejaVuSans-30" transform="translate(127.246094 0)"/>
       <use xlink:href="#DejaVuSans-30" transform="translate(190.869141 0)"/>
       <use xlink:href="#DejaVuSans-30" transform="translate(254.492188 0)"/>
      </g>
     </g>
    </g>
    <g id="ytick_3">
     <g id="line2d_9">
      <g>
       <use xlink:href="#m1b824e1fe4" x="33.7" y="109.997618" style="stroke: #000000; stroke-width: 0.8"/>
      </g>
     </g>
     <g id="text_10">
      <!-- 40000 -->
      <g transform="translate(-5.1125 113.796837) scale(0.1 -0.1)">
       <use xlink:href="#DejaVuSans-34"/>
       <use xlink:href="#DejaVuSans-30" transform="translate(63.623047 0)"/>
       <use xlink:href="#DejaVuSans-30" transform="translate(127.246094 0)"/>
       <use xlink:href="#DejaVuSans-30" transform="translate(190.869141 0)"/>
       <use xlink:href="#DejaVuSans-30" transform="translate(254.492188 0)"/>
      </g>
     </g>
    </g>
    <g id="ytick_4">
     <g id="line2d_10">
      <g>
       <use xlink:href="#m1b824e1fe4" x="33.7" y="74.652791" style="stroke: #000000; stroke-width: 0.8"/>
      </g>
     </g>
     <g id="text_11">
      <!-- 60000 -->
      <g transform="translate(-5.1125 78.452009) scale(0.1 -0.1)">
       <use xlink:href="#DejaVuSans-36"/>
       <use xlink:href="#DejaVuSans-30" transform="translate(63.623047 0)"/>
       <use xlink:href="#DejaVuSans-30" transform="translate(127.246094 0)"/>
       <use xlink:href="#DejaVuSans-30" transform="translate(190.869141 0)"/>
       <use xlink:href="#DejaVuSans-30" transform="translate(254.492188 0)"/>
      </g>
     </g>
    </g>
    <g id="ytick_5">
     <g id="line2d_11">
      <g>
       <use xlink:href="#m1b824e1fe4" x="33.7" y="39.307963" style="stroke: #000000; stroke-width: 0.8"/>
      </g>
     </g>
     <g id="text_12">
      <!-- 80000 -->
      <g transform="translate(-5.1125 43.107182) scale(0.1 -0.1)">
       <use xlink:href="#DejaVuSans-38"/>
       <use xlink:href="#DejaVuSans-30" transform="translate(63.623047 0)"/>
       <use xlink:href="#DejaVuSans-30" transform="translate(127.246094 0)"/>
       <use xlink:href="#DejaVuSans-30" transform="translate(190.869141 0)"/>
       <use xlink:href="#DejaVuSans-30" transform="translate(254.492188 0)"/>
      </g>
     </g>
    </g>
    <g id="text_13">
     <!-- rdf -->
     <g transform="translate(-11.192187 108.462344) rotate(-90) scale(0.1 -0.1)">
      <defs>
       <path id="DejaVuSans-72" d="M 2631 2963 
Q 2534 3019 2420 3045 
Q 2306 3072 2169 3072 
Q 1681 3072 1420 2755 
Q 1159 2438 1159 1844 
L 1159 0 
L 581 0 
L 581 3500 
L 1159 3500 
L 1159 2956 
Q 1341 3275 1631 3429 
Q 1922 3584 2338 3584 
Q 2397 3584 2469 3576 
Q 2541 3569 2628 3553 
L 2631 2963 
z
" transform="scale(0.015625)"/>
       <path id="DejaVuSans-64" d="M 2906 2969 
L 2906 4863 
L 3481 4863 
L 3481 0 
L 2906 0 
L 2906 525 
Q 2725 213 2448 61 
Q 2172 -91 1784 -91 
Q 1150 -91 751 415 
Q 353 922 353 1747 
Q 353 2572 751 3078 
Q 1150 3584 1784 3584 
Q 2172 3584 2448 3432 
Q 2725 3281 2906 2969 
z
M 947 1747 
Q 947 1113 1208 752 
Q 1469 391 1925 391 
Q 2381 391 2643 752 
Q 2906 1113 2906 1747 
Q 2906 2381 2643 2742 
Q 2381 3103 1925 3103 
Q 1469 3103 1208 2742 
Q 947 2381 947 1747 
z
" transform="scale(0.015625)"/>
       <path id="DejaVuSans-66" d="M 2375 4863 
L 2375 4384 
L 1825 4384 
Q 1516 4384 1395 4259 
Q 1275 4134 1275 3809 
L 1275 3500 
L 2222 3500 
L 2222 3053 
L 1275 3053 
L 1275 0 
L 697 0 
L 697 3053 
L 147 3053 
L 147 3500 
L 697 3500 
L 697 3744 
Q 697 4328 969 4595 
Q 1241 4863 1831 4863 
L 2375 4863 
z
" transform="scale(0.015625)"/>
      </defs>
      <use xlink:href="#DejaVuSans-72"/>
      <use xlink:href="#DejaVuSans-64" transform="translate(39.363281 0)"/>
      <use xlink:href="#DejaVuSans-66" transform="translate(102.839844 0)"/>
     </g>
    </g>
   </g>
   <g id="line2d_12">
    <path d="M 44.406818 180.687273 
L 94.854984 180.687273 
L 95.391667 165.955259 
L 95.928349 22.432727 
L 96.465032 158.770857 
L 97.001715 177.794903 
L 97.538397 180.257799 
L 98.07508 179.676946 
L 98.611762 178.128439 
L 99.148445 174.859569 
L 99.685128 172.431344 
L 100.22181 171.809887 
L 100.758493 173.19983 
L 101.295175 178.138144 
L 102.905223 180.190814 
L 103.978589 180.55047 
L 105.051954 180.357214 
L 105.588636 180.492682 
L 106.125319 179.858581 
L 106.662002 179.998058 
L 107.198684 179.516987 
L 107.735367 178.446596 
L 108.272049 177.054753 
L 108.808732 176.9391 
L 109.345415 177.691809 
L 109.882097 177.513843 
L 110.41878 179.070395 
L 110.955463 179.754611 
L 111.492145 179.877399 
L 112.028828 179.252454 
L 112.56551 177.234745 
L 113.102193 174.661767 
L 113.638876 171.458456 
L 114.175558 169.602026 
L 114.712241 172.22884 
L 115.248923 175.456016 
L 115.785606 177.013251 
L 116.322289 177.208695 
L 116.858971 175.453507 
L 117.395654 172.380731 
L 117.932337 171.061774 
L 119.005702 175.487164 
L 119.542384 178.791814 
L 120.079067 179.243229 
L 120.61575 180.059104 
L 121.152432 180.315606 
L 121.689115 180.320733 
L 122.225797 180.486429 
L 122.76248 180.370295 
L 123.299163 180.452752 
L 123.835845 180.340213 
L 124.909211 180.499552 
L 125.445893 180.131522 
L 125.982576 180.394746 
L 126.519258 179.099274 
L 127.592624 175.517498 
L 128.129306 176.104167 
L 128.665989 176.436421 
L 129.202671 175.10205 
L 129.739354 172.898858 
L 130.276037 173.820891 
L 130.812719 177.133445 
L 131.349402 179.141489 
L 131.886085 180.082862 
L 132.422767 180.435868 
L 132.95945 180.40785 
L 133.496132 180.595247 
L 134.032815 180.626653 
L 135.10618 180.332087 
L 135.642863 180.453251 
L 136.179545 179.733159 
L 136.716228 177.315031 
L 137.252911 172.749046 
L 137.789593 173.370418 
L 138.326276 175.303403 
L 138.862959 175.528013 
L 139.936324 166.675319 
L 140.473006 170.156529 
L 141.009689 174.736197 
L 141.546372 178.10584 
L 142.083054 179.768111 
L 142.619737 179.778103 
L 143.156419 179.438187 
L 143.693102 178.759652 
L 144.229785 176.408737 
L 144.766467 175.244811 
L 145.30315 174.967348 
L 145.839833 175.027564 
L 146.376515 166.32296 
L 146.913198 167.678379 
L 147.44988 175.913991 
L 147.986563 177.166929 
L 148.523246 174.303241 
L 149.059928 172.766416 
L 150.133293 174.146908 
L 150.669976 177.449952 
L 151.206659 179.148898 
L 151.743341 179.693048 
L 152.280024 179.30495 
L 153.353389 176.785691 
L 153.890072 177.108441 
L 154.426754 178.109756 
L 155.50012 179.640497 
L 156.036802 179.943934 
L 157.110167 177.962073 
L 157.64685 177.550527 
L 158.183533 177.711821 
L 158.720215 178.094091 
L 159.793581 180.211178 
L 160.866946 180.453583 
L 161.403628 180.509153 
L 161.940311 180.440172 
L 162.476994 180.54735 
L 163.013676 180.271286 
L 163.550359 180.206308 
L 164.087041 179.393455 
L 164.623724 178.105761 
L 165.697089 174.471276 
L 166.233772 174.558655 
L 166.770455 176.843536 
L 167.307137 177.522772 
L 167.84382 177.085998 
L 168.380502 176.990108 
L 168.917185 177.949995 
L 169.453868 178.25414 
L 169.99055 177.795444 
L 170.527233 175.949306 
L 171.063915 174.772962 
L 171.600598 174.596531 
L 172.137281 176.082691 
L 172.673963 175.127778 
L 173.210646 171.924701 
L 173.747329 172.317901 
L 174.284011 173.919636 
L 174.820694 177.216456 
L 175.357376 179.051381 
L 175.894059 178.542627 
L 176.430742 177.300423 
L 176.967424 176.758551 
L 177.504107 177.919319 
L 178.040789 178.06441 
L 179.114155 177.729516 
L 179.650837 176.992619 
L 180.18752 177.114345 
L 181.797568 180.028082 
L 182.870933 180.521834 
L 185.017663 180.304698 
L 185.554346 179.7687 
L 186.091029 178.316997 
L 186.627711 175.994426 
L 187.164394 175.730256 
L 187.701077 177.644928 
L 188.237759 178.77635 
L 188.774442 179.258843 
L 189.311124 177.758523 
L 189.847807 174.999751 
L 190.38449 173.025862 
L 192.53122 178.039984 
L 193.604585 176.630636 
L 194.141268 176.975283 
L 194.677951 178.449993 
L 195.214633 179.281456 
L 195.751316 178.673361 
L 196.287998 176.634905 
L 196.824681 177.608911 
L 197.898046 178.211186 
L 198.971411 175.497029 
L 199.508094 175.624158 
L 200.044777 176.606175 
L 200.581459 178.555613 
L 201.118142 179.554173 
L 201.654825 179.956754 
L 202.191507 180.010731 
L 203.264872 178.830035 
L 203.801555 178.217964 
L 204.338238 177.957706 
L 205.411603 178.154012 
L 205.948285 178.311111 
L 206.484968 178.252463 
L 207.021651 178.03767 
L 207.558333 176.74352 
L 208.095016 176.341047 
L 208.631699 176.097806 
L 209.168381 177.035939 
L 209.705064 177.33657 
L 210.778429 176.056508 
L 211.315112 176.182598 
L 211.851794 177.665616 
L 212.388477 178.550114 
L 212.925159 177.979037 
L 213.461842 176.398613 
L 213.998525 176.196462 
L 215.07189 177.669413 
L 216.145255 178.24507 
L 216.681938 178.441242 
L 217.21862 179.403594 
L 217.755303 179.557783 
L 218.291986 179.185174 
L 218.828668 178.223204 
L 219.365351 177.576182 
L 220.438716 178.118281 
L 220.975399 178.243518 
L 221.512081 177.549801 
L 222.048764 177.723495 
L 222.585447 178.379705 
L 223.122129 179.410417 
L 223.658812 179.159646 
L 224.195494 178.307478 
L 225.26886 175.856981 
L 225.805542 176.071046 
L 226.342225 178.082851 
L 226.878907 179.513724 
L 227.41559 180.154974 
L 227.952273 180.346557 
L 229.025638 179.676959 
L 231.172368 179.307922 
L 231.709051 178.57088 
L 232.245734 178.44451 
L 232.782416 179.145518 
L 233.319099 179.263761 
L 234.392464 178.670771 
L 234.929147 178.628263 
L 236.002512 179.94871 
L 236.539195 180.210875 
L 237.075877 180.068761 
L 237.61256 179.535629 
L 239.75929 175.457974 
L 240.295973 174.894535 
L 240.832656 174.976779 
L 241.369338 175.423364 
L 242.979386 178.692493 
L 243.516069 178.918872 
L 244.052751 178.43194 
L 245.126116 177.128085 
L 245.662799 176.857539 
L 246.736164 178.986568 
L 247.272847 179.458552 
L 248.346212 178.92519 
L 248.882895 178.992833 
L 249.419577 178.856378 
L 249.95626 178.518988 
L 250.492943 177.74222 
L 251.029625 177.568659 
L 251.566308 178.011712 
L 252.10299 178.773062 
L 252.639673 178.901219 
L 253.176356 178.310609 
L 254.249721 176.775789 
L 254.786404 176.834335 
L 255.323086 176.299215 
L 256.396451 177.360114 
L 256.933134 177.9286 
L 257.469817 178.044715 
L 258.006499 177.709892 
L 258.543182 177.9539 
L 258.543182 177.9539 
" clip-path="url(#pcb76a1a821)" style="fill: none; stroke: #000000; stroke-opacity: 0.5; stroke-width: 0.5; stroke-linecap: square"/>
   </g>
   <g id="line2d_13">
    <path d="M 44.406818 180.687273 
L 96.465032 180.687273 
L 97.001715 180.418852 
L 97.538397 180.42422 
L 98.07508 178.108835 
L 98.611762 173.356419 
L 99.148445 162.839928 
L 99.685128 155.40349 
L 100.22181 153.738759 
L 100.758493 157.756978 
L 101.295175 172.880565 
L 101.831858 175.053342 
L 102.368541 176.705264 
L 102.905223 179.166869 
L 103.441906 179.620835 
L 103.978589 180.268316 
L 104.515271 179.864188 
L 105.051954 179.878628 
L 105.588636 180.091338 
L 106.125319 178.344625 
L 106.662002 178.768437 
L 107.198684 177.103272 
L 107.735367 174.381583 
L 108.272049 170.29216 
L 108.808732 169.208495 
L 109.345415 171.69008 
L 109.882097 171.489283 
L 110.41878 176.247827 
L 110.955463 178.671078 
L 111.492145 179.199129 
L 112.028828 180.524527 
L 113.102193 179.898678 
L 113.638876 180.376688 
L 114.175558 179.769744 
L 114.712241 180.23546 
L 115.248923 179.500552 
L 115.785606 176.741874 
L 116.322289 173.201277 
L 116.858971 166.21915 
L 117.395654 155.947354 
L 117.932337 151.89792 
L 118.469019 158.285918 
L 119.542384 175.278215 
L 120.079067 176.785169 
L 120.61575 178.891757 
L 121.689115 180.063646 
L 122.225797 180.441239 
L 122.76248 180.201901 
L 123.299163 180.208459 
L 123.835845 180.096789 
L 124.909211 180.687273 
L 125.445893 180.573807 
L 126.519258 180.576744 
L 127.055941 180.359966 
L 127.592624 180.364162 
L 128.129306 180.580941 
L 128.665989 180.477301 
L 129.739354 180.584904 
L 134.569498 180.503821 
L 135.10618 180.052748 
L 135.642863 180.149755 
L 136.179545 178.119477 
L 136.716228 170.447302 
L 137.252911 156.982061 
L 137.789593 159.049138 
L 138.326276 166.143919 
L 138.862959 170.57178 
L 139.399641 163.99001 
L 139.936324 155.67593 
L 140.473006 163.309236 
L 141.009689 173.732932 
L 141.546372 178.157468 
L 142.083054 179.905347 
L 142.619737 180.145875 
L 143.156419 180.151727 
L 143.693102 180.535905 
L 144.229785 180.238026 
L 144.766467 180.094649 
L 145.30315 180.174215 
L 145.839833 179.599436 
L 146.913198 164.069628 
L 147.44988 175.556855 
L 147.986563 179.7135 
L 148.523246 180.618431 
L 149.059928 180.687273 
L 150.669976 180.555082 
L 151.743341 180.687273 
L 152.280024 180.623131 
L 153.353389 180.687273 
L 155.50012 180.687273 
L 156.036802 180.567458 
L 156.573485 180.687273 
L 157.110167 180.569724 
L 157.64685 180.687273 
L 158.183533 180.571927 
L 158.720215 180.687273 
L 159.793581 180.631194 
L 164.087041 180.530865 
L 165.160407 180.533628 
L 166.233772 179.731217 
L 166.770455 179.190903 
L 167.307137 176.138302 
L 167.84382 172.207269 
L 168.380502 171.114114 
L 168.917185 173.219736 
L 169.453868 176.053987 
L 169.99055 176.23548 
L 170.527233 174.62969 
L 171.063915 171.002397 
L 171.600598 169.837194 
L 172.137281 171.347295 
L 172.673963 167.611338 
L 173.210646 161.911512 
L 173.747329 163.674226 
L 174.284011 167.622874 
L 174.820694 173.747431 
L 175.357376 177.942709 
L 175.894059 179.174909 
L 176.430742 179.401459 
L 176.967424 179.114222 
L 177.504107 178.367734 
L 178.040789 177.089374 
L 178.577472 177.367059 
L 179.114155 177.475754 
L 179.650837 177.868765 
L 180.18752 179.552537 
L 180.724203 180.04394 
L 181.260885 180.328225 
L 183.407616 180.45523 
L 184.480981 180.382597 
L 185.017663 180.082557 
L 185.554346 178.699328 
L 186.627711 173.889279 
L 187.164394 174.050228 
L 187.701077 176.902167 
L 188.237759 178.375292 
L 188.774442 179.468131 
L 189.311124 179.797462 
L 189.847807 180.369296 
L 190.38449 180.476842 
L 190.921172 180.37393 
L 191.994537 179.69222 
L 192.53122 179.120311 
L 193.067903 176.290751 
L 193.604585 174.274086 
L 194.141268 174.586574 
L 194.677951 176.71529 
L 195.214633 178.353858 
L 195.751316 179.381959 
L 196.824681 177.952337 
L 197.361364 175.159797 
L 197.898046 174.817575 
L 198.434729 173.282997 
L 198.971411 173.709689 
L 199.508094 174.5036 
L 200.581459 178.449905 
L 201.118142 179.226171 
L 201.654825 179.719829 
L 202.191507 179.215918 
L 202.72819 177.585507 
L 203.264872 175.44384 
L 203.801555 174.184318 
L 204.338238 174.695466 
L 205.411603 178.033941 
L 205.948285 178.252057 
L 206.484968 177.272033 
L 207.021651 176.87039 
L 207.558333 176.30558 
L 208.095016 177.868945 
L 209.168381 179.475407 
L 209.705064 178.9907 
L 210.241746 177.424759 
L 211.315112 176.419772 
L 211.851794 178.340481 
L 212.925159 180.108011 
L 213.998525 180.479286 
L 217.755303 180.637502 
L 218.828668 180.293985 
L 219.365351 179.612351 
L 220.438716 176.608703 
L 221.512081 175.251193 
L 222.048764 175.710562 
L 222.585447 177.295148 
L 223.122129 179.422841 
L 223.658812 179.779532 
L 224.195494 179.090827 
L 224.732177 177.950311 
L 225.26886 175.565819 
L 225.805542 174.800562 
L 226.878907 178.912739 
L 227.41559 179.950349 
L 227.952273 180.265456 
L 229.025638 180.423946 
L 230.099003 180.166679 
L 230.635686 179.350138 
L 231.172368 177.556602 
L 231.709051 174.760152 
L 232.245734 174.560775 
L 233.319099 178.360807 
L 233.855781 179.874484 
L 234.929147 180.254527 
L 236.002512 180.50388 
L 237.075877 179.981988 
L 237.61256 178.442877 
L 238.149242 176.542128 
L 238.685925 176.30735 
L 239.222608 176.765025 
L 239.75929 177.413761 
L 240.295973 176.651851 
L 241.369338 173.47537 
L 241.906021 174.492583 
L 242.442703 176.719697 
L 242.979386 178.277817 
L 243.516069 179.328623 
L 244.052751 178.247315 
L 244.589434 176.692213 
L 245.126116 175.915035 
L 245.662799 176.439133 
L 247.272847 179.905595 
L 247.80953 180.235199 
L 248.346212 180.381478 
L 248.882895 180.275714 
L 249.419577 179.815055 
L 249.95626 178.721722 
L 250.492943 176.512357 
L 251.029625 175.903132 
L 251.566308 176.86926 
L 252.639673 179.686491 
L 253.176356 179.966286 
L 253.713038 179.901659 
L 254.249721 179.446902 
L 254.786404 178.675589 
L 255.323086 176.734794 
L 256.396451 176.991109 
L 256.933134 177.887693 
L 257.469817 177.951202 
L 258.006499 176.357754 
L 258.543182 175.612483 
L 258.543182 175.612483 
" clip-path="url(#pcb76a1a821)" style="fill: none; stroke: #0000ff; stroke-opacity: 0.5; stroke-linecap: square"/>
   </g>
   <g id="line2d_14">
    <path d="M 44.406818 180.687273 
L 104.515271 180.687273 
L 105.051954 180.327875 
L 105.588636 180.687273 
L 106.125319 180.340214 
L 106.662002 180.687273 
L 107.198684 180.687273 
L 107.735367 179.698145 
L 108.272049 179.390417 
L 108.808732 180.687273 
L 109.345415 180.373645 
L 109.882097 179.761689 
L 110.41878 179.776617 
L 110.955463 179.193795 
L 111.492145 178.923547 
L 112.028828 173.454132 
L 112.56551 162.744588 
L 113.102193 149.283687 
L 113.638876 130.993647 
L 114.175558 121.965425 
L 114.712241 135.439025 
L 115.248923 154.31571 
L 115.785606 167.698308 
L 116.322289 175.312712 
L 116.858971 177.913428 
L 117.395654 179.444841 
L 117.932337 179.707731 
L 118.469019 180.445911 
L 119.005702 178.783965 
L 119.542384 180.218195 
L 120.079067 179.76233 
L 120.61575 180.687273 
L 121.152432 180.687273 
L 121.689115 180.022071 
L 122.225797 180.24988 
L 122.76248 180.255831 
L 123.299163 180.474467 
L 123.835845 180.267373 
L 124.372528 180.272972 
L 124.909211 179.869645 
L 125.445893 178.468387 
L 125.982576 179.492791 
L 126.519258 172.827479 
L 127.592624 155.029876 
L 128.129306 159.515485 
L 128.665989 171.541848 
L 129.202671 177.554283 
L 129.739354 179.231355 
L 130.812719 180.687273 
L 131.349402 180.687273 
L 131.886085 180.514079 
L 132.422767 180.687273 
L 132.95945 180.518239 
L 133.496132 180.687273 
L 134.032815 180.522252 
L 135.10618 180.526124 
L 135.642863 180.687273 
L 137.789593 180.687273 
L 138.326276 180.536954 
L 138.862959 180.538652 
L 139.399641 180.687273 
L 139.936324 180.541964 
L 140.473006 180.687273 
L 141.009689 180.687273 
L 141.546372 180.406183 
L 142.083054 180.687273 
L 142.619737 180.687273 
L 143.156419 180.551261 
L 144.229785 180.554163 
L 144.766467 180.423884 
L 145.30315 179.644869 
L 145.839833 169.212616 
L 146.376515 126.59393 
L 146.913198 145.211052 
L 147.44988 172.19124 
L 147.986563 178.956122 
L 148.523246 180.442502 
L 149.059928 180.566136 
L 149.596611 180.567366 
L 150.133293 180.687273 
L 150.669976 180.56977 
L 151.206659 180.687273 
L 161.403628 180.590296 
L 161.940311 180.398989 
L 162.476994 180.687273 
L 163.013676 180.404171 
L 163.550359 180.593752 
L 164.087041 180.501901 
L 164.623724 180.687273 
L 165.160407 180.596224 
L 165.697089 180.14579 
L 166.233772 180.508362 
L 167.307137 180.423564 
L 168.380502 179.909757 
L 168.917185 179.402535 
L 169.99055 173.109754 
L 170.527233 166.245079 
L 171.063915 166.035798 
L 171.600598 167.061833 
L 172.137281 172.629254 
L 172.673963 173.826444 
L 173.210646 166.5992 
L 173.747329 165.763026 
L 174.284011 167.381764 
L 174.820694 174.908953 
L 175.357376 178.673625 
L 175.894059 180.072725 
L 176.430742 180.306291 
L 177.504107 179.112798 
L 178.577472 174.268193 
L 179.114155 174.758316 
L 179.650837 174.659933 
L 180.18752 177.805405 
L 180.724203 179.686533 
L 181.260885 180.119888 
L 181.797568 180.335417 
L 182.33425 180.338145 
L 182.870933 180.5487 
L 183.407616 180.412259 
L 184.480981 180.348744 
L 185.017663 180.216939 
L 185.554346 180.420546 
L 186.091029 180.290201 
L 186.627711 180.555911 
L 187.164394 180.230951 
L 187.701077 180.299057 
L 188.237759 179.659726 
L 188.774442 179.922321 
L 189.847807 176.164943 
L 190.38449 169.15253 
L 191.457855 159.181557 
L 191.994537 163.790442 
L 192.53122 169.726112 
L 193.067903 170.406175 
L 193.604585 170.539591 
L 194.141268 171.619568 
L 194.677951 176.450492 
L 195.214633 178.408634 
L 195.751316 179.585008 
L 196.287998 179.996007 
L 197.898046 180.630867 
L 199.508094 180.466304 
L 200.044777 180.63241 
L 203.264872 180.581943 
L 203.801555 180.425716 
L 204.338238 180.635311 
L 205.411603 180.584729 
L 205.948285 180.63634 
L 207.021651 180.234902 
L 207.558333 179.388994 
L 208.095016 177.363569 
L 208.631699 173.787483 
L 209.168381 174.175028 
L 209.705064 174.119895 
L 210.778429 178.286136 
L 211.315112 179.78069 
L 211.851794 180.355403 
L 212.388477 180.404626 
L 212.925159 180.593655 
L 213.461842 179.94307 
L 213.998525 178.930942 
L 214.535207 177.380414 
L 215.07189 174.343247 
L 215.608573 173.974707 
L 216.681938 177.41741 
L 217.21862 179.440842 
L 218.291986 180.555368 
L 222.048764 180.56088 
L 223.122129 180.312626 
L 223.658812 179.487296 
L 224.195494 177.273296 
L 224.732177 171.896284 
L 225.26886 168.45269 
L 225.805542 168.726975 
L 226.342225 174.581597 
L 226.878907 178.171479 
L 227.41559 179.774182 
L 227.952273 180.450463 
L 228.488955 180.334123 
L 229.025638 180.492216 
L 230.635686 180.648932 
L 231.172368 180.53479 
L 232.782416 180.687273 
L 233.855781 180.502022 
L 234.392464 180.466224 
L 234.929147 180.650638 
L 235.465829 180.468696 
L 236.002512 180.542369 
L 236.539195 180.471129 
L 237.075877 180.257385 
L 237.61256 180.188518 
L 238.149242 179.943272 
L 238.685925 179.066547 
L 239.222608 175.536448 
L 239.75929 167.758752 
L 240.295973 164.121033 
L 240.832656 168.451003 
L 241.369338 174.516662 
L 241.906021 178.709746 
L 242.442703 179.669946 
L 242.979386 180.080166 
L 243.516069 180.251163 
L 244.052751 179.686265 
L 244.589434 177.667124 
L 245.126116 173.985921 
L 245.662799 172.346964 
L 246.736164 178.802905 
L 247.272847 179.97629 
L 248.882895 180.432782 
L 249.419577 180.244241 
L 251.029625 180.344575 
L 252.10299 179.700592 
L 252.639673 177.466366 
L 253.176356 174.339538 
L 253.713038 168.906871 
L 254.249721 166.369209 
L 255.323086 171.986214 
L 255.859769 173.428475 
L 256.396451 176.040244 
L 257.469817 179.6031 
L 258.006499 180.045863 
L 258.543182 180.223126 
L 258.543182 180.223126 
" clip-path="url(#pcb76a1a821)" style="fill: none; stroke: #ff0000; stroke-opacity: 0.5; stroke-linecap: square"/>
   </g>
   <g id="patch_3">
    <path d="M 33.7 188.6 
L 33.7 14.52 
" style="fill: none; stroke: #000000; stroke-width: 0.8; stroke-linejoin: miter; stroke-linecap: square"/>
   </g>
   <g id="patch_4">
    <path d="M 269.25 188.6 
L 269.25 14.52 
" style="fill: none; stroke: #000000; stroke-width: 0.8; stroke-linejoin: miter; stroke-linecap: square"/>
   </g>
   <g id="patch_5">
    <path d="M 33.7 188.6 
L 269.25 188.6 
" style="fill: none; stroke: #000000; stroke-width: 0.8; stroke-linejoin: miter; stroke-linecap: square"/>
   </g>
   <g id="patch_6">
    <path d="M 33.7 14.52 
L 269.25 14.52 
" style="fill: none; stroke: #000000; stroke-width: 0.8; stroke-linejoin: miter; stroke-linecap: square"/>
   </g>
   <g id="legend_1">
    <g id="patch_7">
     <path d="M 213.917188 66.554375 
L 262.25 66.554375 
Q 264.25 66.554375 264.25 64.554375 
L 264.25 21.52 
Q 264.25 19.52 262.25 19.52 
L 213.917188 19.52 
Q 211.917188 19.52 211.917188 21.52 
L 211.917188 64.554375 
Q 211.917188 66.554375 213.917188 66.554375 
z
" style="fill: #ffffff; opacity: 0.8; stroke: #cccccc; stroke-linejoin: miter"/>
    </g>
    <g id="line2d_15">
     <path d="M 215.917188 27.618438 
L 225.917188 27.618438 
L 235.917188 27.618438 
" style="fill: none; stroke: #000000; stroke-opacity: 0.5; stroke-width: 0.5; stroke-linecap: square"/>
    </g>
    <g id="text_14">
     <!-- all -->
     <g transform="translate(243.917188 31.118438) scale(0.1 -0.1)">
      <defs>
       <path id="DejaVuSans-61" d="M 2194 1759 
Q 1497 1759 1228 1600 
Q 959 1441 959 1056 
Q 959 750 1161 570 
Q 1363 391 1709 391 
Q 2188 391 2477 730 
Q 2766 1069 2766 1631 
L 2766 1759 
L 2194 1759 
z
M 3341 1997 
L 3341 0 
L 2766 0 
L 2766 531 
Q 2569 213 2275 61 
Q 1981 -91 1556 -91 
Q 1019 -91 701 211 
Q 384 513 384 1019 
Q 384 1609 779 1909 
Q 1175 2209 1959 2209 
L 2766 2209 
L 2766 2266 
Q 2766 2663 2505 2880 
Q 2244 3097 1772 3097 
Q 1472 3097 1187 3025 
Q 903 2953 641 2809 
L 641 3341 
Q 956 3463 1253 3523 
Q 1550 3584 1831 3584 
Q 2591 3584 2966 3190 
Q 3341 2797 3341 1997 
z
" transform="scale(0.015625)"/>
       <path id="DejaVuSans-6c" d="M 603 4863 
L 1178 4863 
L 1178 0 
L 603 0 
L 603 4863 
z
" transform="scale(0.015625)"/>
      </defs>
      <use xlink:href="#DejaVuSans-61"/>
      <use xlink:href="#DejaVuSans-6c" transform="translate(61.279297 0)"/>
      <use xlink:href="#DejaVuSans-6c" transform="translate(89.0625 0)"/>
     </g>
    </g>
    <g id="line2d_16">
     <path d="M 215.917188 42.296563 
L 225.917188 42.296563 
L 235.917188 42.296563 
" style="fill: none; stroke: #0000ff; stroke-opacity: 0.5; stroke-linecap: square"/>
    </g>
    <g id="text_15">
     <!-- 1-1 -->
     <g transform="translate(243.917188 45.796563) scale(0.1 -0.1)">
      <defs>
       <path id="DejaVuSans-2d" d="M 313 2009 
L 1997 2009 
L 1997 1497 
L 313 1497 
L 313 2009 
z
" transform="scale(0.015625)"/>
      </defs>
      <use xlink:href="#DejaVuSans-31"/>
      <use xlink:href="#DejaVuSans-2d" transform="translate(63.623047 0)"/>
      <use xlink:href="#DejaVuSans-31" transform="translate(99.707031 0)"/>
     </g>
    </g>
    <g id="line2d_17">
     <path d="M 215.917188 56.974688 
L 225.917188 56.974688 
L 235.917188 56.974688 
" style="fill: none; stroke: #ff0000; stroke-opacity: 0.5; stroke-linecap: square"/>
    </g>
    <g id="text_16">
     <!-- 2-2 -->
     <g transform="translate(243.917188 60.474688) scale(0.1 -0.1)">
      <use xlink:href="#DejaVuSans-32"/>
      <use xlink:href="#DejaVuSans-2d" transform="translate(63.623047 0)"/>
      <use xlink:href="#DejaVuSans-32" transform="translate(99.707031 0)"/>
     </g>
    </g>
   </g>
  </g>
 </g>
 <defs>
  <clipPath id="pcb76a1a821">
   <rect x="33.7" y="14.52" width="235.55" height="174.08"/>
  </clipPath>
 </defs>
</svg>
