<?xml version="1.0" encoding="utf-8" standalone="no"?>
<!DOCTYPE svg PUBLIC "-//W3C//DTD SVG 1.1//EN"
  "http://www.w3.org/Graphics/SVG/1.1/DTD/svg11.dtd">
<svg xmlns:xlink="http://www.w3.org/1999/xlink" width="288pt" height="216pt" viewBox="0 0 288 216" xmlns="http://www.w3.org/2000/svg" version="1.1">
 <metadata>
  <rdf:RDF xmlns:dc="http://purl.org/dc/elements/1.1/" xmlns:cc="http://creativecommons.org/ns#" xmlns:rdf="http://www.w3.org/1999/02/22-rdf-syntax-ns#">
   <cc:Work>
    <dc:type rdf:resource="http://purl.org/dc/dcmitype/StillImage"/>
    <dc:date>2025-09-18T00:17:10.483219</dc:date>
    <dc:format>image/svg+xml</dc:format>
    <dc:creator>
     <cc:Agent>
      <dc:title>Matplotlib v3.10.0, https://matplotlib.org/</dc:title>
     </cc:Agent>
    </dc:creator>
   </cc:Work>
  </rdf:RDF>
 </metadata>
 <defs>
  <style type="text/css">*{stroke-linejoin: round; stroke-linecap: butt}</style>
 </defs>
 <g id="figure_1">
  <g id="patch_1">
   <path d="M 0 216 
L 288 216 
L 288 0 
L 0 0 
z
" style="fill: #ffffff"/>
  </g>
  <g id="axes_1">
   <g id="patch_2">
    <path d="M 33.7 188.6 
L 269.25 188.6 
L 269.25 14.52 
L 33.7 14.52 
z
" style="fill: #ffffff"/>
   </g>
   <g id="matplotlib.axis_1">
    <g id="xtick_1">
     <g id="line2d_1">
      <defs>
       <path id="mea7079579c" d="M 0 0 
L 0 3.5 
" style="stroke: #000000; stroke-width: 0.8"/>
      </defs>
      <g>
       <use xlink:href="#mea7079579c" x="44.138477" y="188.6" style="stroke: #000000; stroke-width: 0.8"/>
      </g>
     </g>
     <g id="text_1">
      <!-- 0 -->
      <g transform="translate(40.957227 203.198437) scale(0.1 -0.1)">
       <defs>
        <path id="DejaVuSans-30" d="M 2034 4250 
Q 1547 4250 1301 3770 
Q 1056 3291 1056 2328 
Q 1056 1369 1301 889 
Q 1547 409 2034 409 
Q 2525 409 2770 889 
Q 3016 1369 3016 2328 
Q 3016 3291 2770 3770 
Q 2525 4250 2034 4250 
z
M 2034 4750 
Q 2819 4750 3233 4129 
Q 3647 3509 3647 2328 
Q 3647 1150 3233 529 
Q 2819 -91 2034 -91 
Q 1250 -91 836 529 
Q 422 1150 422 2328 
Q 422 3509 836 4129 
Q 1250 4750 2034 4750 
z
" transform="scale(0.015625)"/>
       </defs>
       <use xlink:href="#DejaVuSans-30"/>
      </g>
     </g>
    </g>
    <g id="xtick_2">
     <g id="line2d_2">
      <g>
       <use xlink:href="#mea7079579c" x="87.073086" y="188.6" style="stroke: #000000; stroke-width: 0.8"/>
      </g>
     </g>
     <g id="text_2">
      <!-- 200 -->
      <g transform="translate(77.529336 203.198437) scale(0.1 -0.1)">
       <defs>
        <path id="DejaVuSans-32" d="M 1228 531 
L 3431 531 
L 3431 0 
L 469 0 
L 469 531 
Q 828 903 1448 1529 
Q 2069 2156 2228 2338 
Q 2531 2678 2651 2914 
Q 2772 3150 2772 3378 
Q 2772 3750 2511 3984 
Q 2250 4219 1831 4219 
Q 1534 4219 1204 4116 
Q 875 4013 500 3803 
L 500 4441 
Q 881 4594 1212 4672 
Q 1544 4750 1819 4750 
Q 2544 4750 2975 4387 
Q 3406 4025 3406 3419 
Q 3406 3131 3298 2873 
Q 3191 2616 2906 2266 
Q 2828 2175 2409 1742 
Q 1991 1309 1228 531 
z
" transform="scale(0.015625)"/>
       </defs>
       <use xlink:href="#DejaVuSans-32"/>
       <use xlink:href="#DejaVuSans-30" transform="translate(63.623047 0)"/>
       <use xlink:href="#DejaVuSans-30" transform="translate(127.246094 0)"/>
      </g>
     </g>
    </g>
    <g id="xtick_3">
     <g id="line2d_3">
      <g>
       <use xlink:href="#mea7079579c" x="130.007695" y="188.6" style="stroke: #000000; stroke-width: 0.8"/>
      </g>
     </g>
     <g id="text_3">
      <!-- 400 -->
      <g transform="translate(120.463945 203.198437) scale(0.1 -0.1)">
       <defs>
        <path id="DejaVuSans-34" d="M 2419 4116 
L 825 1625 
L 2419 1625 
L 2419 4116 
z
M 2253 4666 
L 3047 4666 
L 3047 1625 
L 3713 1625 
L 3713 1100 
L 3047 1100 
L 3047 0 
L 2419 0 
L 2419 1100 
L 313 1100 
L 313 1709 
L 2253 4666 
z
" transform="scale(0.015625)"/>
       </defs>
       <use xlink:href="#DejaVuSans-34"/>
       <use xlink:href="#DejaVuSans-30" transform="translate(63.623047 0)"/>
       <use xlink:href="#DejaVuSans-30" transform="translate(127.246094 0)"/>
      </g>
     </g>
    </g>
    <g id="xtick_4">
     <g id="line2d_4">
      <g>
       <use xlink:href="#mea7079579c" x="172.942305" y="188.6" style="stroke: #000000; stroke-width: 0.8"/>
      </g>
     </g>
     <g id="text_4">
      <!-- 600 -->
      <g transform="translate(163.398555 203.198437) scale(0.1 -0.1)">
       <defs>
        <path id="DejaVuSans-36" d="M 2113 2584 
Q 1688 2584 1439 2293 
Q 1191 2003 1191 1497 
Q 1191 994 1439 701 
Q 1688 409 2113 409 
Q 2538 409 2786 701 
Q 3034 994 3034 1497 
Q 3034 2003 2786 2293 
Q 2538 2584 2113 2584 
z
M 3366 4563 
L 3366 3988 
Q 3128 4100 2886 4159 
Q 2644 4219 2406 4219 
Q 1781 4219 1451 3797 
Q 1122 3375 1075 2522 
Q 1259 2794 1537 2939 
Q 1816 3084 2150 3084 
Q 2853 3084 3261 2657 
Q 3669 2231 3669 1497 
Q 3669 778 3244 343 
Q 2819 -91 2113 -91 
Q 1303 -91 875 529 
Q 447 1150 447 2328 
Q 447 3434 972 4092 
Q 1497 4750 2381 4750 
Q 2619 4750 2861 4703 
Q 3103 4656 3366 4563 
z
" transform="scale(0.015625)"/>
       </defs>
       <use xlink:href="#DejaVuSans-36"/>
       <use xlink:href="#DejaVuSans-30" transform="translate(63.623047 0)"/>
       <use xlink:href="#DejaVuSans-30" transform="translate(127.246094 0)"/>
      </g>
     </g>
    </g>
    <g id="xtick_5">
     <g id="line2d_5">
      <g>
       <use xlink:href="#mea7079579c" x="215.876914" y="188.6" style="stroke: #000000; stroke-width: 0.8"/>
      </g>
     </g>
     <g id="text_5">
      <!-- 800 -->
      <g transform="translate(206.333164 203.198437) scale(0.1 -0.1)">
       <defs>
        <path id="DejaVuSans-38" d="M 2034 2216 
Q 1584 2216 1326 1975 
Q 1069 1734 1069 1313 
Q 1069 891 1326 650 
Q 1584 409 2034 409 
Q 2484 409 2743 651 
Q 3003 894 3003 1313 
Q 3003 1734 2745 1975 
Q 2488 2216 2034 2216 
z
M 1403 2484 
Q 997 2584 770 2862 
Q 544 3141 544 3541 
Q 544 4100 942 4425 
Q 1341 4750 2034 4750 
Q 2731 4750 3128 4425 
Q 3525 4100 3525 3541 
Q 3525 3141 3298 2862 
Q 3072 2584 2669 2484 
Q 3125 2378 3379 2068 
Q 3634 1759 3634 1313 
Q 3634 634 3220 271 
Q 2806 -91 2034 -91 
Q 1263 -91 848 271 
Q 434 634 434 1313 
Q 434 1759 690 2068 
Q 947 2378 1403 2484 
z
M 1172 3481 
Q 1172 3119 1398 2916 
Q 1625 2713 2034 2713 
Q 2441 2713 2670 2916 
Q 2900 3119 2900 3481 
Q 2900 3844 2670 4047 
Q 2441 4250 2034 4250 
Q 1625 4250 1398 4047 
Q 1172 3844 1172 3481 
z
" transform="scale(0.015625)"/>
       </defs>
       <use xlink:href="#DejaVuSans-38"/>
       <use xlink:href="#DejaVuSans-30" transform="translate(63.623047 0)"/>
       <use xlink:href="#DejaVuSans-30" transform="translate(127.246094 0)"/>
      </g>
     </g>
    </g>
    <g id="xtick_6">
     <g id="line2d_6">
      <g>
       <use xlink:href="#mea7079579c" x="258.811523" y="188.6" style="stroke: #000000; stroke-width: 0.8"/>
      </g>
     </g>
     <g id="text_6">
      <!-- 1000 -->
      <g transform="translate(246.086523 203.198437) scale(0.1 -0.1)">
       <defs>
        <path id="DejaVuSans-31" d="M 794 531 
L 1825 531 
L 1825 4091 
L 703 3866 
L 703 4441 
L 1819 4666 
L 2450 4666 
L 2450 531 
L 3481 531 
L 3481 0 
L 794 0 
L 794 531 
z
" transform="scale(0.015625)"/>
       </defs>
       <use xlink:href="#DejaVuSans-31"/>
       <use xlink:href="#DejaVuSans-30" transform="translate(63.623047 0)"/>
       <use xlink:href="#DejaVuSans-30" transform="translate(127.246094 0)"/>
       <use xlink:href="#DejaVuSans-30" transform="translate(190.869141 0)"/>
      </g>
     </g>
    </g>
    <g id="text_7">
     <!-- q (nm) -->
     <g transform="translate(134.771094 216.876563) scale(0.1 -0.1)">
      <defs>
       <path id="DejaVuSans-71" d="M 947 1747 
Q 947 1113 1208 752 
Q 1469 391 1925 391 
Q 2381 391 2643 752 
Q 2906 1113 2906 1747 
Q 2906 2381 2643 2742 
Q 2381 3103 1925 3103 
Q 1469 3103 1208 2742 
Q 947 2381 947 1747 
z
M 2906 525 
Q 2725 213 2448 61 
Q 2172 -91 1784 -91 
Q 1150 -91 751 415 
Q 353 922 353 1747 
Q 353 2572 751 3078 
Q 1150 3584 1784 3584 
Q 2172 3584 2448 3432 
Q 2725 3281 2906 2969 
L 2906 3500 
L 3481 3500 
L 3481 -1331 
L 2906 -1331 
L 2906 525 
z
" transform="scale(0.015625)"/>
       <path id="DejaVuSans-20" transform="scale(0.015625)"/>
       <path id="DejaVuSans-28" d="M 1984 4856 
Q 1566 4138 1362 3434 
Q 1159 2731 1159 2009 
Q 1159 1288 1364 580 
Q 1569 -128 1984 -844 
L 1484 -844 
Q 1016 -109 783 600 
Q 550 1309 550 2009 
Q 550 2706 781 3412 
Q 1013 4119 1484 4856 
L 1984 4856 
z
" transform="scale(0.015625)"/>
       <path id="DejaVuSans-6e" d="M 3513 2113 
L 3513 0 
L 2938 0 
L 2938 2094 
Q 2938 2591 2744 2837 
Q 2550 3084 2163 3084 
Q 1697 3084 1428 2787 
Q 1159 2491 1159 1978 
L 1159 0 
L 581 0 
L 581 3500 
L 1159 3500 
L 1159 2956 
Q 1366 3272 1645 3428 
Q 1925 3584 2291 3584 
Q 2894 3584 3203 3211 
Q 3513 2838 3513 2113 
z
" transform="scale(0.015625)"/>
       <path id="DejaVuSans-6d" d="M 3328 2828 
Q 3544 3216 3844 3400 
Q 4144 3584 4550 3584 
Q 5097 3584 5394 3201 
Q 5691 2819 5691 2113 
L 5691 0 
L 5113 0 
L 5113 2094 
Q 5113 2597 4934 2840 
Q 4756 3084 4391 3084 
Q 3944 3084 3684 2787 
Q 3425 2491 3425 1978 
L 3425 0 
L 2847 0 
L 2847 2094 
Q 2847 2600 2669 2842 
Q 2491 3084 2119 3084 
Q 1678 3084 1418 2786 
Q 1159 2488 1159 1978 
L 1159 0 
L 581 0 
L 581 3500 
L 1159 3500 
L 1159 2956 
Q 1356 3278 1631 3431 
Q 1906 3584 2284 3584 
Q 2666 3584 2933 3390 
Q 3200 3197 3328 2828 
z
" transform="scale(0.015625)"/>
       <path id="DejaVuSans-29" d="M 513 4856 
L 1013 4856 
Q 1481 4119 1714 3412 
Q 1947 2706 1947 2009 
Q 1947 1309 1714 600 
Q 1481 -109 1013 -844 
L 513 -844 
Q 928 -128 1133 580 
Q 1338 1288 1338 2009 
Q 1338 2731 1133 3434 
Q 928 4138 513 4856 
z
" transform="scale(0.015625)"/>
      </defs>
      <use xlink:href="#DejaVuSans-71"/>
      <use xlink:href="#DejaVuSans-20" transform="translate(63.476562 0)"/>
      <use xlink:href="#DejaVuSans-28" transform="translate(95.263672 0)"/>
      <use xlink:href="#DejaVuSans-6e" transform="translate(134.277344 0)"/>
      <use xlink:href="#DejaVuSans-6d" transform="translate(197.65625 0)"/>
      <use xlink:href="#DejaVuSans-29" transform="translate(295.068359 0)"/>
     </g>
    </g>
   </g>
   <g id="matplotlib.axis_2">
    <g id="ytick_1">
     <g id="line2d_7">
      <defs>
       <path id="ma3f988cd80" d="M 0 0 
L -3.5 0 
" style="stroke: #000000; stroke-width: 0.8"/>
      </defs>
      <g>
       <use xlink:href="#ma3f988cd80" x="33.7" y="180.687273" style="stroke: #000000; stroke-width: 0.8"/>
      </g>
     </g>
     <g id="text_8">
      <!-- 0 -->
      <g transform="translate(20.3375 184.486491) scale(0.1 -0.1)">
       <use xlink:href="#DejaVuSans-30"/>
      </g>
     </g>
    </g>
    <g id="ytick_2">
     <g id="line2d_8">
      <g>
       <use xlink:href="#ma3f988cd80" x="33.7" y="137.490805" style="stroke: #000000; stroke-width: 0.8"/>
      </g>
     </g>
     <g id="text_9">
      <!-- 20000 -->
      <g transform="translate(-5.1125 141.290024) scale(0.1 -0.1)">
       <use xlink:href="#DejaVuSans-32"/>
       <use xlink:href="#DejaVuSans-30" transform="translate(63.623047 0)"/>
       <use xlink:href="#DejaVuSans-30" transform="translate(127.246094 0)"/>
       <use xlink:href="#DejaVuSans-30" transform="translate(190.869141 0)"/>
       <use xlink:href="#DejaVuSans-30" transform="translate(254.492188 0)"/>
      </g>
     </g>
    </g>
    <g id="ytick_3">
     <g id="line2d_9">
      <g>
       <use xlink:href="#ma3f988cd80" x="33.7" y="94.294337" style="stroke: #000000; stroke-width: 0.8"/>
      </g>
     </g>
     <g id="text_10">
      <!-- 40000 -->
      <g transform="translate(-5.1125 98.093556) scale(0.1 -0.1)">
       <use xlink:href="#DejaVuSans-34"/>
       <use xlink:href="#DejaVuSans-30" transform="translate(63.623047 0)"/>
       <use xlink:href="#DejaVuSans-30" transform="translate(127.246094 0)"/>
       <use xlink:href="#DejaVuSans-30" transform="translate(190.869141 0)"/>
       <use xlink:href="#DejaVuSans-30" transform="translate(254.492188 0)"/>
      </g>
     </g>
    </g>
    <g id="ytick_4">
     <g id="line2d_10">
      <g>
       <use xlink:href="#ma3f988cd80" x="33.7" y="51.09787" style="stroke: #000000; stroke-width: 0.8"/>
      </g>
     </g>
     <g id="text_11">
      <!-- 60000 -->
      <g transform="translate(-5.1125 54.897088) scale(0.1 -0.1)">
       <use xlink:href="#DejaVuSans-36"/>
       <use xlink:href="#DejaVuSans-30" transform="translate(63.623047 0)"/>
       <use xlink:href="#DejaVuSans-30" transform="translate(127.246094 0)"/>
       <use xlink:href="#DejaVuSans-30" transform="translate(190.869141 0)"/>
       <use xlink:href="#DejaVuSans-30" transform="translate(254.492188 0)"/>
      </g>
     </g>
    </g>
    <g id="text_12">
     <!-- rdf -->
     <g transform="translate(-11.192187 108.462344) rotate(-90) scale(0.1 -0.1)">
      <defs>
       <path id="DejaVuSans-72" d="M 2631 2963 
Q 2534 3019 2420 3045 
Q 2306 3072 2169 3072 
Q 1681 3072 1420 2755 
Q 1159 2438 1159 1844 
L 1159 0 
L 581 0 
L 581 3500 
L 1159 3500 
L 1159 2956 
Q 1341 3275 1631 3429 
Q 1922 3584 2338 3584 
Q 2397 3584 2469 3576 
Q 2541 3569 2628 3553 
L 2631 2963 
z
" transform="scale(0.015625)"/>
       <path id="DejaVuSans-64" d="M 2906 2969 
L 2906 4863 
L 3481 4863 
L 3481 0 
L 2906 0 
L 2906 525 
Q 2725 213 2448 61 
Q 2172 -91 1784 -91 
Q 1150 -91 751 415 
Q 353 922 353 1747 
Q 353 2572 751 3078 
Q 1150 3584 1784 3584 
Q 2172 3584 2448 3432 
Q 2725 3281 2906 2969 
z
M 947 1747 
Q 947 1113 1208 752 
Q 1469 391 1925 391 
Q 2381 391 2643 752 
Q 2906 1113 2906 1747 
Q 2906 2381 2643 2742 
Q 2381 3103 1925 3103 
Q 1469 3103 1208 2742 
Q 947 2381 947 1747 
z
" transform="scale(0.015625)"/>
       <path id="DejaVuSans-66" d="M 2375 4863 
L 2375 4384 
L 1825 4384 
Q 1516 4384 1395 4259 
Q 1275 4134 1275 3809 
L 1275 3500 
L 2222 3500 
L 2222 3053 
L 1275 3053 
L 1275 0 
L 697 0 
L 697 3053 
L 147 3053 
L 147 3500 
L 697 3500 
L 697 3744 
Q 697 4328 969 4595 
Q 1241 4863 1831 4863 
L 2375 4863 
z
" transform="scale(0.015625)"/>
      </defs>
      <use xlink:href="#DejaVuSans-72"/>
      <use xlink:href="#DejaVuSans-64" transform="translate(39.363281 0)"/>
      <use xlink:href="#DejaVuSans-66" transform="translate(102.839844 0)"/>
     </g>
    </g>
   </g>
   <g id="line2d_11">
    <path d="M 44.406818 180.687273 
L 93.781619 180.687273 
L 94.318301 180.568392 
L 94.854984 180.570895 
L 95.928349 22.432727 
L 96.465032 179.266027 
L 97.001715 180.473037 
L 97.538397 180.477321 
L 98.07508 179.555406 
L 98.611762 177.35825 
L 99.148445 170.102754 
L 99.685128 166.037466 
L 100.22181 167.648907 
L 100.758493 176.298656 
L 101.295175 179.129572 
L 102.368541 179.804445 
L 102.905223 180.600595 
L 103.441906 180.346808 
L 103.978589 180.687273 
L 104.515271 180.52304 
L 105.051954 180.525921 
L 105.588636 180.211636 
L 106.125319 180.53146 
L 106.662002 180.380975 
L 107.198684 179.558122 
L 107.735367 177.874831 
L 108.272049 174.210024 
L 108.808732 173.386614 
L 109.345415 175.970359 
L 109.882097 179.786933 
L 110.41878 180.210293 
L 110.955463 180.419074 
L 112.028828 180.037808 
L 112.56551 178.385735 
L 113.102193 171.246201 
L 113.638876 161.227998 
L 114.175558 162.867686 
L 114.712241 173.17461 
L 115.248923 178.674552 
L 115.785606 179.346049 
L 116.322289 178.733962 
L 116.858971 173.498381 
L 117.395654 162.559078 
L 117.932337 163.481421 
L 118.469019 174.07735 
L 119.005702 179.085101 
L 119.542384 180.213438 
L 120.079067 180.323926 
L 120.61575 180.277826 
L 121.152432 180.384452 
L 122.225797 180.392721 
L 122.76248 180.542001 
L 123.835845 180.498759 
L 124.372528 180.222271 
L 124.909211 180.22843 
L 125.445893 180.370309 
L 125.982576 180.151009 
L 126.519258 178.614184 
L 127.055941 174.765953 
L 127.592624 172.864729 
L 128.129306 176.953129 
L 128.665989 175.659706 
L 129.202671 169.558912 
L 129.739354 167.49201 
L 130.276037 176.209006 
L 130.812719 179.491872 
L 131.349402 180.136265 
L 131.886085 180.531762 
L 132.422767 180.226394 
L 133.496132 180.537315 
L 134.032815 180.390929 
L 134.569498 180.614063 
L 135.642863 180.401265 
L 136.179545 178.885173 
L 136.716228 170.802982 
L 137.252911 166.32468 
L 137.789593 175.772448 
L 138.326276 178.359013 
L 138.862959 172.813917 
L 139.399641 159.212868 
L 139.936324 160.235578 
L 140.473006 174.300614 
L 141.009689 178.709508 
L 141.546372 179.867003 
L 142.083054 180.094394 
L 142.619737 179.97738 
L 143.156419 179.40496 
L 143.693102 176.489062 
L 144.229785 172.619693 
L 144.766467 171.848207 
L 145.30315 175.978143 
L 145.839833 168.792386 
L 146.376515 157.776659 
L 146.913198 174.877572 
L 147.44988 179.200817 
L 147.986563 176.634721 
L 148.523246 168.571876 
L 149.059928 163.800909 
L 149.596611 172.154863 
L 150.133293 178.502446 
L 150.669976 180.133367 
L 151.206659 180.321695 
L 151.743341 180.092657 
L 152.280024 178.767503 
L 152.816707 175.466262 
L 153.353389 173.13329 
L 154.426754 179.186055 
L 154.963437 180.224197 
L 155.50012 180.349342 
L 156.036802 180.209132 
L 156.573485 178.437742 
L 157.110167 174.940838 
L 157.64685 174.553584 
L 158.720215 179.820862 
L 159.256898 180.325862 
L 161.940311 180.493135 
L 163.550359 180.309396 
L 164.087041 179.459738 
L 164.623724 175.222766 
L 165.160407 169.446227 
L 165.697089 170.699956 
L 166.233772 176.309708 
L 166.770455 178.776385 
L 167.307137 176.583013 
L 167.84382 174.994955 
L 168.917185 179.379896 
L 169.453868 178.647661 
L 169.99055 175.376476 
L 170.527233 171.055218 
L 171.063915 172.678718 
L 171.600598 176.32051 
L 172.137281 174.913643 
L 172.673963 168.837659 
L 173.210646 165.288413 
L 174.284011 178.425112 
L 174.820694 179.670634 
L 175.357376 179.174763 
L 175.894059 176.686698 
L 176.430742 175.042884 
L 176.967424 177.243113 
L 177.504107 177.893486 
L 178.040789 176.697073 
L 178.577472 176.480433 
L 179.114155 176.990314 
L 179.650837 175.35682 
L 180.18752 176.902858 
L 180.724203 179.54802 
L 181.260885 180.400704 
L 182.33425 180.467835 
L 184.480981 180.489695 
L 185.017663 179.963306 
L 185.554346 178.232459 
L 186.091029 173.363522 
L 186.627711 172.533957 
L 187.164394 177.233813 
L 187.701077 179.597961 
L 188.237759 179.937631 
L 188.774442 178.526553 
L 189.311124 172.505893 
L 189.847807 170.028177 
L 190.38449 172.639553 
L 190.921172 172.531563 
L 191.457855 176.714926 
L 191.994537 178.537493 
L 192.53122 177.234401 
L 193.067903 174.047132 
L 193.604585 175.421291 
L 194.141268 178.17286 
L 194.677951 180.053237 
L 195.214633 179.297046 
L 195.751316 174.905195 
L 196.287998 177.312279 
L 196.824681 177.451523 
L 197.898046 176.610222 
L 198.434729 173.83464 
L 198.971411 171.796768 
L 200.044777 179.369538 
L 200.581459 180.357037 
L 201.118142 180.249964 
L 201.654825 180.301197 
L 202.191507 179.536899 
L 202.72819 177.557033 
L 203.264872 176.005785 
L 203.801555 177.446312 
L 204.338238 177.806247 
L 204.87492 177.698005 
L 205.411603 178.67314 
L 205.948285 178.537847 
L 206.484968 176.655328 
L 207.021651 175.316606 
L 207.558333 174.432699 
L 208.095016 174.885589 
L 208.631699 176.085025 
L 209.168381 177.653682 
L 209.705064 176.46119 
L 210.241746 172.810398 
L 210.778429 174.424136 
L 211.315112 178.416579 
L 211.851794 179.463401 
L 212.388477 177.853291 
L 212.925159 173.762849 
L 213.461842 173.670951 
L 213.998525 176.744743 
L 214.535207 177.687109 
L 215.07189 177.767401 
L 215.608573 177.062793 
L 216.681938 179.651623 
L 217.21862 180.077723 
L 217.755303 179.177772 
L 218.291986 176.255736 
L 218.828668 176.076915 
L 219.365351 177.216546 
L 219.902033 177.915989 
L 220.975399 176.149908 
L 221.512081 176.881375 
L 222.048764 178.975493 
L 222.585447 179.991628 
L 223.122129 179.238903 
L 223.658812 177.742831 
L 224.195494 175.747521 
L 224.732177 172.637796 
L 225.26886 174.555858 
L 225.805542 178.945785 
L 226.342225 180.245443 
L 227.41559 180.500129 
L 227.952273 179.943062 
L 229.025638 178.436701 
L 229.562321 179.5119 
L 230.099003 180.046704 
L 230.635686 178.905715 
L 231.172368 176.562711 
L 231.709051 177.862502 
L 232.245734 179.536738 
L 232.782416 179.736738 
L 233.319099 178.136218 
L 233.855781 177.17756 
L 234.392464 178.131847 
L 234.929147 179.914259 
L 235.465829 180.360172 
L 236.002512 180.362001 
L 236.539195 180.177824 
L 237.075877 179.16741 
L 237.61256 177.29654 
L 238.149242 176.122339 
L 239.222608 173.002646 
L 239.75929 172.966498 
L 240.295973 174.549062 
L 240.832656 173.189828 
L 241.369338 175.292881 
L 241.906021 178.689695 
L 242.442703 179.636794 
L 243.516069 177.765457 
L 244.052751 176.500331 
L 244.589434 174.90608 
L 245.126116 175.952098 
L 245.662799 178.063252 
L 246.199482 179.162266 
L 246.736164 179.885042 
L 247.80953 178.024451 
L 248.346212 178.203548 
L 248.882895 179.330509 
L 249.419577 177.902683 
L 249.95626 175.281361 
L 250.492943 176.012428 
L 251.029625 178.764092 
L 251.566308 179.455834 
L 252.10299 178.77696 
L 253.176356 175.75489 
L 253.713038 176.154971 
L 254.249721 175.493254 
L 254.786404 173.9006 
L 255.323086 175.579489 
L 255.859769 177.94931 
L 256.396451 178.029582 
L 256.933134 177.289335 
L 258.006499 176.865237 
L 258.543182 176.604348 
L 258.543182 176.604348 
" clip-path="url(#p6a3f73ee8f)" style="fill: none; stroke: #000000; stroke-opacity: 0.5; stroke-width: 0.5; stroke-linecap: square"/>
   </g>
   <g id="line2d_12">
    <path d="M 44.406818 180.687273 
L 93.781619 180.687273 
L 94.318301 180.323201 
L 94.854984 180.330865 
L 95.391667 180.687273 
L 95.928349 180.345485 
L 96.465032 180.35246 
L 97.001715 180.031175 
L 97.538397 180.044296 
L 98.07508 177.220929 
L 98.611762 170.492141 
L 99.148445 148.272181 
L 99.685128 135.822236 
L 100.22181 140.757272 
L 100.758493 167.247133 
L 101.295175 175.916812 
L 101.831858 177.106826 
L 102.368541 177.983613 
L 102.905223 180.421822 
L 103.441906 179.6446 
L 103.978589 180.687273 
L 104.515271 180.184309 
L 105.051954 180.193132 
L 105.588636 179.230635 
L 106.125319 180.210097 
L 106.662002 179.749235 
L 107.198684 177.229248 
L 107.735367 172.07417 
L 108.272049 161.073579 
L 108.808732 158.767398 
L 109.345415 166.672935 
L 109.882097 178.14208 
L 110.41878 179.64388 
L 110.955463 180.071253 
L 111.492145 180.283111 
L 112.028828 180.289475 
L 112.56551 180.491482 
L 113.102193 180.109007 
L 113.638876 180.497483 
L 114.175558 179.752812 
L 114.712241 179.582911 
L 115.248923 179.236929 
L 115.785606 178.722817 
L 116.322289 175.760908 
L 116.858971 159.364705 
L 117.395654 126.194608 
L 117.932337 129.004433 
L 118.469019 161.274008 
L 119.005702 176.434841 
L 119.542384 179.39739 
L 120.61575 180.37379 
L 121.152432 180.378144 
L 121.689115 179.925111 
L 122.225797 180.386585 
L 122.76248 180.687273 
L 123.299163 180.394683 
L 123.835845 180.39861 
L 124.372528 180.260052 
L 124.909211 180.265711 
L 125.445893 180.40993 
L 125.982576 180.687273 
L 126.519258 180.687273 
L 127.055941 180.420596 
L 127.592624 180.687273 
L 128.129306 180.297415 
L 128.665989 180.687273 
L 129.202671 180.307192 
L 129.739354 180.687273 
L 131.886085 180.687273 
L 132.95945 180.106256 
L 135.10618 180.687273 
L 135.642863 180.468298 
L 136.179545 175.709412 
L 136.716228 150.630555 
L 137.252911 137.653437 
L 137.789593 166.367298 
L 138.326276 176.347092 
L 138.862959 166.281281 
L 139.399641 138.76311 
L 139.936324 149.02098 
L 140.473006 176.43958 
L 141.009689 179.808044 
L 141.546372 180.107563 
L 142.083054 180.20946 
L 142.619737 180.687273 
L 143.156419 180.313265 
L 143.693102 180.22479 
L 144.229785 180.412751 
L 144.766467 180.234603 
L 145.30315 180.239393 
L 145.839833 178.648717 
L 146.376515 155.252908 
L 147.44988 180.343705 
L 147.986563 180.602266 
L 148.523246 180.687273 
L 149.059928 180.603997 
L 150.133293 180.687273 
L 151.743341 180.687273 
L 152.280024 180.530492 
L 153.353389 180.610415 
L 159.793581 180.618737 
L 160.330263 180.415655 
L 161.403628 180.687273 
L 161.940311 180.621212 
L 162.476994 180.425419 
L 163.013676 180.557526 
L 164.087041 180.623555 
L 164.623724 180.371517 
L 165.160407 180.499496 
L 165.697089 180.190946 
L 166.233772 179.334344 
L 166.770455 176.968754 
L 167.307137 168.903557 
L 167.84382 163.613987 
L 168.917185 177.919911 
L 169.453868 178.702464 
L 169.99055 174.55198 
L 170.527233 166.339913 
L 171.063915 166.005693 
L 171.600598 170.925392 
L 172.137281 166.306867 
L 172.673963 154.607701 
L 173.210646 149.596442 
L 173.747329 164.970187 
L 174.284011 176.086734 
L 174.820694 179.023184 
L 175.357376 179.941884 
L 175.894059 180.053561 
L 176.430742 179.63964 
L 176.967424 178.453022 
L 177.504107 175.378446 
L 178.040789 173.835899 
L 178.577472 176.020826 
L 179.114155 178.976402 
L 179.650837 179.938442 
L 180.18752 180.439628 
L 184.480981 180.408004 
L 185.017663 179.070602 
L 185.554346 175.736482 
L 186.091029 169.54102 
L 186.627711 169.715128 
L 187.164394 176.161009 
L 187.701077 179.352866 
L 188.237759 180.069179 
L 189.311124 180.469777 
L 190.38449 180.430096 
L 191.457855 180.011422 
L 191.994537 178.716356 
L 192.53122 174.983745 
L 193.067903 169.610249 
L 193.604585 171.782503 
L 194.677951 179.878217 
L 195.214633 180.044621 
L 195.751316 180.009278 
L 196.287998 178.152794 
L 196.824681 172.075458 
L 197.361364 170.183256 
L 197.898046 172.234039 
L 198.434729 172.138769 
L 198.971411 171.318371 
L 199.508094 176.206037 
L 200.044777 179.480375 
L 200.581459 180.312699 
L 201.654825 180.169992 
L 202.191507 177.494537 
L 202.72819 171.428963 
L 203.264872 167.074309 
L 204.338238 178.043903 
L 204.87492 179.906645 
L 205.411603 179.6651 
L 206.484968 171.956834 
L 207.021651 174.536674 
L 207.558333 178.318689 
L 208.095016 180.209831 
L 208.631699 180.280704 
L 209.168381 179.542807 
L 209.705064 176.540361 
L 210.241746 172.779205 
L 210.778429 174.678811 
L 211.315112 178.883169 
L 211.851794 180.035428 
L 212.388477 180.492965 
L 212.925159 180.622914 
L 216.145255 180.50136 
L 216.681938 180.687273 
L 217.755303 180.596032 
L 218.291986 180.264105 
L 218.828668 179.6058 
L 219.365351 175.641435 
L 220.438716 172.989164 
L 220.975399 173.651484 
L 221.512081 175.529685 
L 222.048764 178.051628 
L 222.585447 180.025118 
L 223.122129 180.229401 
L 223.658812 179.862341 
L 224.195494 177.152696 
L 224.732177 172.001616 
L 225.26886 171.2706 
L 225.805542 177.826176 
L 226.342225 180.024528 
L 226.878907 180.330392 
L 227.41559 180.468939 
L 229.562321 180.260656 
L 230.099003 179.494321 
L 230.635686 175.890191 
L 231.172368 168.370276 
L 231.709051 172.401206 
L 232.245734 177.941006 
L 232.782416 180.146288 
L 233.855781 180.50898 
L 234.392464 180.383351 
L 235.465829 180.386749 
L 236.002512 180.214103 
L 236.539195 179.845267 
L 237.075877 177.042417 
L 237.61256 173.242055 
L 238.149242 174.62273 
L 238.685925 178.071378 
L 239.222608 177.218572 
L 240.295973 172.49132 
L 240.832656 168.531487 
L 241.906021 178.577761 
L 242.442703 179.801407 
L 242.979386 179.852554 
L 243.516069 177.22797 
L 244.052751 173.622275 
L 244.589434 172.199869 
L 245.662799 178.881416 
L 246.199482 180.036121 
L 246.736164 180.35225 
L 247.80953 180.399973 
L 248.346212 180.467434 
L 248.882895 179.965599 
L 249.419577 176.640915 
L 249.95626 172.07403 
L 250.492943 173.991787 
L 251.029625 177.988699 
L 251.566308 179.771086 
L 252.10299 180.242139 
L 252.639673 180.41313 
L 253.176356 180.309637 
L 253.713038 179.539288 
L 254.249721 176.804048 
L 254.786404 172.815726 
L 256.396451 179.364656 
L 256.933134 177.913639 
L 258.006499 171.166952 
L 258.543182 171.134806 
L 258.543182 171.134806 
" clip-path="url(#p6a3f73ee8f)" style="fill: none; stroke: #0000ff; stroke-opacity: 0.5; stroke-linecap: square"/>
   </g>
   <g id="line2d_13">
    <path d="M 44.406818 180.687273 
L 107.735367 180.687273 
L 108.808732 179.9079 
L 109.345415 179.920677 
L 109.882097 180.310207 
L 110.41878 179.945305 
L 110.955463 180.322224 
L 111.492145 178.891 
L 112.028828 177.858492 
L 112.56551 168.504749 
L 113.102193 130.31391 
L 113.638876 75.079738 
L 114.175558 85.330783 
L 114.712241 141.74831 
L 115.248923 172.307513 
L 115.785606 176.87742 
L 116.322289 178.810562 
L 116.858971 179.454532 
L 117.395654 179.168843 
L 117.932337 179.190846 
L 118.469019 179.507359 
L 119.005702 179.524215 
L 119.542384 180.400632 
L 120.079067 180.122066 
L 120.61575 179.294016 
L 121.152432 179.862929 
L 121.689115 180.145291 
L 122.225797 179.885438 
L 122.76248 179.896347 
L 123.299163 180.427193 
L 123.835845 180.430684 
L 124.372528 179.421434 
L 124.909211 178.93857 
L 125.445893 179.947691 
L 125.982576 178.497529 
L 126.519258 170.120893 
L 127.055941 149.397163 
L 127.592624 138.79989 
L 128.129306 164.053361 
L 128.665989 178.178144 
L 129.739354 180.687273 
L 130.276037 180.687273 
L 130.812719 180.253387 
L 131.886085 180.687273 
L 132.422767 180.47817 
L 132.95945 180.687273 
L 133.496132 180.687273 
L 134.032815 180.485594 
L 134.569498 180.687273 
L 135.10618 180.490325 
L 135.642863 180.687273 
L 137.789593 180.687273 
L 138.326276 180.503561 
L 139.399641 180.507678 
L 139.936324 180.687273 
L 141.009689 180.687273 
L 141.546372 180.343741 
L 142.083054 180.687273 
L 142.619737 180.51923 
L 143.156419 180.687273 
L 143.693102 180.522834 
L 144.229785 180.199234 
L 144.766467 180.365374 
L 145.30315 178.617076 
L 145.839833 126.798515 
L 146.376515 105.690013 
L 146.913198 173.589677 
L 147.44988 179.618396 
L 147.986563 180.687273 
L 160.330263 180.687273 
L 160.866946 180.567662 
L 161.940311 180.569831 
L 163.013676 180.341281 
L 163.550359 180.687273 
L 164.623724 180.350467 
L 165.160407 180.242173 
L 165.697089 180.687273 
L 166.233772 180.35929 
L 167.84382 180.367773 
L 168.380502 179.948201 
L 168.917185 178.907787 
L 169.453868 173.733957 
L 170.527233 154.1606 
L 171.600598 174.467758 
L 172.137281 175.116654 
L 173.210646 152.61076 
L 174.284011 177.030897 
L 174.820694 179.446662 
L 175.894059 180.31174 
L 176.430742 179.662921 
L 176.967424 179.301691 
L 177.504107 177.205324 
L 178.577472 168.694282 
L 179.114155 173.083405 
L 179.650837 178.468515 
L 180.18752 179.806758 
L 181.260885 180.253882 
L 182.33425 180.516599 
L 182.870933 180.433239 
L 183.407616 179.931035 
L 183.944298 180.520508 
L 184.480981 180.52178 
L 185.017663 180.112457 
L 185.554346 180.116811 
L 186.091029 180.525513 
L 187.701077 179.896513 
L 188.237759 180.608785 
L 188.774442 179.284951 
L 189.311124 178.367321 
L 189.847807 171.936287 
L 190.38449 151.502431 
L 190.921172 139.234103 
L 191.457855 161.162699 
L 191.994537 173.306818 
L 192.53122 172.471974 
L 193.067903 164.5218 
L 193.604585 168.358296 
L 194.141268 175.834354 
L 194.677951 179.536616 
L 195.214633 180.258838 
L 195.751316 179.907358 
L 196.287998 180.616871 
L 196.824681 180.477548 
L 198.434729 180.618816 
L 199.508094 180.417217 
L 200.044777 180.620223 
L 200.581459 180.420909 
L 201.654825 180.358841 
L 202.191507 180.687273 
L 204.338238 180.687273 
L 204.87492 180.561111 
L 205.411603 180.561949 
L 205.948285 180.313791 
L 206.484968 180.501765 
L 207.021651 180.13441 
L 207.558333 178.24622 
L 208.631699 165.207545 
L 209.705064 177.892938 
L 210.241746 180.214709 
L 210.778429 180.45251 
L 211.851794 180.629331 
L 212.925159 180.458443 
L 213.461842 179.664059 
L 213.998525 176.224836 
L 214.535207 169.517133 
L 215.07189 170.647011 
L 215.608573 174.091037 
L 216.145255 179.089799 
L 216.681938 180.194585 
L 217.755303 180.525068 
L 218.291986 180.633537 
L 218.828668 180.473649 
L 219.902033 180.529006 
L 221.512081 180.42826 
L 222.585447 180.53373 
L 223.122129 180.127652 
L 223.658812 177.653043 
L 224.732177 157.750393 
L 225.26886 165.53615 
L 225.805542 176.786059 
L 226.342225 179.754521 
L 226.878907 180.394448 
L 228.488955 180.639317 
L 229.562321 180.545067 
L 230.099003 180.640144 
L 230.635686 180.546699 
L 232.782416 180.687273 
L 233.319099 180.641735 
L 233.855781 180.415589 
L 235.465829 180.598229 
L 236.539195 180.291035 
L 237.075877 180.337016 
L 237.61256 180.077723 
L 238.149242 179.128515 
L 238.685925 172.333634 
L 239.222608 156.963077 
L 239.75929 154.83576 
L 240.295973 171.199453 
L 240.832656 178.707383 
L 241.369338 179.63986 
L 242.442703 180.397165 
L 242.979386 180.357507 
L 243.516069 179.580296 
L 244.052751 176.446236 
L 244.589434 167.504928 
L 245.126116 169.552078 
L 245.662799 177.797902 
L 246.199482 179.809091 
L 246.736164 180.409328 
L 247.80953 180.530117 
L 248.346212 180.296449 
L 248.882895 180.454005 
L 251.029625 180.039996 
L 251.566308 179.285768 
L 252.10299 177.597241 
L 252.639673 169.102975 
L 253.176356 158.383466 
L 253.713038 163.061654 
L 254.249721 170.387384 
L 254.786404 170.03578 
L 255.323086 171.14961 
L 255.859769 177.778651 
L 256.396451 179.674397 
L 256.933134 180.219377 
L 257.469817 180.400783 
L 258.006499 180.366588 
L 258.543182 180.510006 
L 258.543182 180.510006 
" clip-path="url(#p6a3f73ee8f)" style="fill: none; stroke: #ff0000; stroke-opacity: 0.5; stroke-linecap: square"/>
   </g>
   <g id="patch_3">
    <path d="M 33.7 188.6 
L 33.7 14.52 
" style="fill: none; stroke: #000000; stroke-width: 0.8; stroke-linejoin: miter; stroke-linecap: square"/>
   </g>
   <g id="patch_4">
    <path d="M 269.25 188.6 
L 269.25 14.52 
" style="fill: none; stroke: #000000; stroke-width: 0.8; stroke-linejoin: miter; stroke-linecap: square"/>
   </g>
   <g id="patch_5">
    <path d="M 33.7 188.6 
L 269.25 188.6 
" style="fill: none; stroke: #000000; stroke-width: 0.8; stroke-linejoin: miter; stroke-linecap: square"/>
   </g>
   <g id="patch_6">
    <path d="M 33.7 14.52 
L 269.25 14.52 
" style="fill: none; stroke: #000000; stroke-width: 0.8; stroke-linejoin: miter; stroke-linecap: square"/>
   </g>
   <g id="legend_1">
    <g id="patch_7">
     <path d="M 213.917188 66.554375 
L 262.25 66.554375 
Q 264.25 66.554375 264.25 64.554375 
L 264.25 21.52 
Q 264.25 19.52 262.25 19.52 
L 213.917188 19.52 
Q 211.917188 19.52 211.917188 21.52 
L 211.917188 64.554375 
Q 211.917188 66.554375 213.917188 66.554375 
z
" style="fill: #ffffff; opacity: 0.8; stroke: #cccccc; stroke-linejoin: miter"/>
    </g>
    <g id="line2d_14">
     <path d="M 215.917188 27.618438 
L 225.917188 27.618438 
L 235.917188 27.618438 
" style="fill: none; stroke: #000000; stroke-opacity: 0.5; stroke-width: 0.5; stroke-linecap: square"/>
    </g>
    <g id="text_13">
     <!-- all -->
     <g transform="translate(243.917188 31.118438) scale(0.1 -0.1)">
      <defs>
       <path id="DejaVuSans-61" d="M 2194 1759 
Q 1497 1759 1228 1600 
Q 959 1441 959 1056 
Q 959 750 1161 570 
Q 1363 391 1709 391 
Q 2188 391 2477 730 
Q 2766 1069 2766 1631 
L 2766 1759 
L 2194 1759 
z
M 3341 1997 
L 3341 0 
L 2766 0 
L 2766 531 
Q 2569 213 2275 61 
Q 1981 -91 1556 -91 
Q 1019 -91 701 211 
Q 384 513 384 1019 
Q 384 1609 779 1909 
Q 1175 2209 1959 2209 
L 2766 2209 
L 2766 2266 
Q 2766 2663 2505 2880 
Q 2244 3097 1772 3097 
Q 1472 3097 1187 3025 
Q 903 2953 641 2809 
L 641 3341 
Q 956 3463 1253 3523 
Q 1550 3584 1831 3584 
Q 2591 3584 2966 3190 
Q 3341 2797 3341 1997 
z
" transform="scale(0.015625)"/>
       <path id="DejaVuSans-6c" d="M 603 4863 
L 1178 4863 
L 1178 0 
L 603 0 
L 603 4863 
z
" transform="scale(0.015625)"/>
      </defs>
      <use xlink:href="#DejaVuSans-61"/>
      <use xlink:href="#DejaVuSans-6c" transform="translate(61.279297 0)"/>
      <use xlink:href="#DejaVuSans-6c" transform="translate(89.0625 0)"/>
     </g>
    </g>
    <g id="line2d_15">
     <path d="M 215.917188 42.296563 
L 225.917188 42.296563 
L 235.917188 42.296563 
" style="fill: none; stroke: #0000ff; stroke-opacity: 0.5; stroke-linecap: square"/>
    </g>
    <g id="text_14">
     <!-- 1-1 -->
     <g transform="translate(243.917188 45.796563) scale(0.1 -0.1)">
      <defs>
       <path id="DejaVuSans-2d" d="M 313 2009 
L 1997 2009 
L 1997 1497 
L 313 1497 
L 313 2009 
z
" transform="scale(0.015625)"/>
      </defs>
      <use xlink:href="#DejaVuSans-31"/>
      <use xlink:href="#DejaVuSans-2d" transform="translate(63.623047 0)"/>
      <use xlink:href="#DejaVuSans-31" transform="translate(99.707031 0)"/>
     </g>
    </g>
    <g id="line2d_16">
     <path d="M 215.917188 56.974688 
L 225.917188 56.974688 
L 235.917188 56.974688 
" style="fill: none; stroke: #ff0000; stroke-opacity: 0.5; stroke-linecap: square"/>
    </g>
    <g id="text_15">
     <!-- 2-2 -->
     <g transform="translate(243.917188 60.474688) scale(0.1 -0.1)">
      <use xlink:href="#DejaVuSans-32"/>
      <use xlink:href="#DejaVuSans-2d" transform="translate(63.623047 0)"/>
      <use xlink:href="#DejaVuSans-32" transform="translate(99.707031 0)"/>
     </g>
    </g>
   </g>
  </g>
 </g>
 <defs>
  <clipPath id="p6a3f73ee8f">
   <rect x="33.7" y="14.52" width="235.55" height="174.08"/>
  </clipPath>
 </defs>
</svg>
