<?xml version="1.0" encoding="utf-8" standalone="no"?>
<!DOCTYPE svg PUBLIC "-//W3C//DTD SVG 1.1//EN"
  "http://www.w3.org/Graphics/SVG/1.1/DTD/svg11.dtd">
<svg xmlns:xlink="http://www.w3.org/1999/xlink" width="288pt" height="216pt" viewBox="0 0 288 216" xmlns="http://www.w3.org/2000/svg" version="1.1">
 <metadata>
  <rdf:RDF xmlns:dc="http://purl.org/dc/elements/1.1/" xmlns:cc="http://creativecommons.org/ns#" xmlns:rdf="http://www.w3.org/1999/02/22-rdf-syntax-ns#">
   <cc:Work>
    <dc:type rdf:resource="http://purl.org/dc/dcmitype/StillImage"/>
    <dc:date>2025-09-18T00:32:08.190692</dc:date>
    <dc:format>image/svg+xml</dc:format>
    <dc:creator>
     <cc:Agent>
      <dc:title>Matplotlib v3.10.0, https://matplotlib.org/</dc:title>
     </cc:Agent>
    </dc:creator>
   </cc:Work>
  </rdf:RDF>
 </metadata>
 <defs>
  <style type="text/css">*{stroke-linejoin: round; stroke-linecap: butt}</style>
 </defs>
 <g id="figure_1">
  <g id="patch_1">
   <path d="M 0 216 
L 288 216 
L 288 0 
L 0 0 
z
" style="fill: #ffffff"/>
  </g>
  <g id="axes_1">
   <g id="patch_2">
    <path d="M 33.7 188.6 
L 269.25 188.6 
L 269.25 14.52 
L 33.7 14.52 
z
" style="fill: #ffffff"/>
   </g>
   <g id="matplotlib.axis_1">
    <g id="xtick_1">
     <g id="line2d_1">
      <defs>
       <path id="mbac821e16e" d="M 0 0 
L 0 3.5 
" style="stroke: #000000; stroke-width: 0.8"/>
      </defs>
      <g>
       <use xlink:href="#mbac821e16e" x="44.138477" y="188.6" style="stroke: #000000; stroke-width: 0.8"/>
      </g>
     </g>
     <g id="text_1">
      <!-- 0 -->
      <g transform="translate(40.957227 203.198437) scale(0.1 -0.1)">
       <defs>
        <path id="DejaVuSans-30" d="M 2034 4250 
Q 1547 4250 1301 3770 
Q 1056 3291 1056 2328 
Q 1056 1369 1301 889 
Q 1547 409 2034 409 
Q 2525 409 2770 889 
Q 3016 1369 3016 2328 
Q 3016 3291 2770 3770 
Q 2525 4250 2034 4250 
z
M 2034 4750 
Q 2819 4750 3233 4129 
Q 3647 3509 3647 2328 
Q 3647 1150 3233 529 
Q 2819 -91 2034 -91 
Q 1250 -91 836 529 
Q 422 1150 422 2328 
Q 422 3509 836 4129 
Q 1250 4750 2034 4750 
z
" transform="scale(0.015625)"/>
       </defs>
       <use xlink:href="#DejaVuSans-30"/>
      </g>
     </g>
    </g>
    <g id="xtick_2">
     <g id="line2d_2">
      <g>
       <use xlink:href="#mbac821e16e" x="87.073086" y="188.6" style="stroke: #000000; stroke-width: 0.8"/>
      </g>
     </g>
     <g id="text_2">
      <!-- 200 -->
      <g transform="translate(77.529336 203.198437) scale(0.1 -0.1)">
       <defs>
        <path id="DejaVuSans-32" d="M 1228 531 
L 3431 531 
L 3431 0 
L 469 0 
L 469 531 
Q 828 903 1448 1529 
Q 2069 2156 2228 2338 
Q 2531 2678 2651 2914 
Q 2772 3150 2772 3378 
Q 2772 3750 2511 3984 
Q 2250 4219 1831 4219 
Q 1534 4219 1204 4116 
Q 875 4013 500 3803 
L 500 4441 
Q 881 4594 1212 4672 
Q 1544 4750 1819 4750 
Q 2544 4750 2975 4387 
Q 3406 4025 3406 3419 
Q 3406 3131 3298 2873 
Q 3191 2616 2906 2266 
Q 2828 2175 2409 1742 
Q 1991 1309 1228 531 
z
" transform="scale(0.015625)"/>
       </defs>
       <use xlink:href="#DejaVuSans-32"/>
       <use xlink:href="#DejaVuSans-30" transform="translate(63.623047 0)"/>
       <use xlink:href="#DejaVuSans-30" transform="translate(127.246094 0)"/>
      </g>
     </g>
    </g>
    <g id="xtick_3">
     <g id="line2d_3">
      <g>
       <use xlink:href="#mbac821e16e" x="130.007695" y="188.6" style="stroke: #000000; stroke-width: 0.8"/>
      </g>
     </g>
     <g id="text_3">
      <!-- 400 -->
      <g transform="translate(120.463945 203.198437) scale(0.1 -0.1)">
       <defs>
        <path id="DejaVuSans-34" d="M 2419 4116 
L 825 1625 
L 2419 1625 
L 2419 4116 
z
M 2253 4666 
L 3047 4666 
L 3047 1625 
L 3713 1625 
L 3713 1100 
L 3047 1100 
L 3047 0 
L 2419 0 
L 2419 1100 
L 313 1100 
L 313 1709 
L 2253 4666 
z
" transform="scale(0.015625)"/>
       </defs>
       <use xlink:href="#DejaVuSans-34"/>
       <use xlink:href="#DejaVuSans-30" transform="translate(63.623047 0)"/>
       <use xlink:href="#DejaVuSans-30" transform="translate(127.246094 0)"/>
      </g>
     </g>
    </g>
    <g id="xtick_4">
     <g id="line2d_4">
      <g>
       <use xlink:href="#mbac821e16e" x="172.942305" y="188.6" style="stroke: #000000; stroke-width: 0.8"/>
      </g>
     </g>
     <g id="text_4">
      <!-- 600 -->
      <g transform="translate(163.398555 203.198437) scale(0.1 -0.1)">
       <defs>
        <path id="DejaVuSans-36" d="M 2113 2584 
Q 1688 2584 1439 2293 
Q 1191 2003 1191 1497 
Q 1191 994 1439 701 
Q 1688 409 2113 409 
Q 2538 409 2786 701 
Q 3034 994 3034 1497 
Q 3034 2003 2786 2293 
Q 2538 2584 2113 2584 
z
M 3366 4563 
L 3366 3988 
Q 3128 4100 2886 4159 
Q 2644 4219 2406 4219 
Q 1781 4219 1451 3797 
Q 1122 3375 1075 2522 
Q 1259 2794 1537 2939 
Q 1816 3084 2150 3084 
Q 2853 3084 3261 2657 
Q 3669 2231 3669 1497 
Q 3669 778 3244 343 
Q 2819 -91 2113 -91 
Q 1303 -91 875 529 
Q 447 1150 447 2328 
Q 447 3434 972 4092 
Q 1497 4750 2381 4750 
Q 2619 4750 2861 4703 
Q 3103 4656 3366 4563 
z
" transform="scale(0.015625)"/>
       </defs>
       <use xlink:href="#DejaVuSans-36"/>
       <use xlink:href="#DejaVuSans-30" transform="translate(63.623047 0)"/>
       <use xlink:href="#DejaVuSans-30" transform="translate(127.246094 0)"/>
      </g>
     </g>
    </g>
    <g id="xtick_5">
     <g id="line2d_5">
      <g>
       <use xlink:href="#mbac821e16e" x="215.876914" y="188.6" style="stroke: #000000; stroke-width: 0.8"/>
      </g>
     </g>
     <g id="text_5">
      <!-- 800 -->
      <g transform="translate(206.333164 203.198437) scale(0.1 -0.1)">
       <defs>
        <path id="DejaVuSans-38" d="M 2034 2216 
Q 1584 2216 1326 1975 
Q 1069 1734 1069 1313 
Q 1069 891 1326 650 
Q 1584 409 2034 409 
Q 2484 409 2743 651 
Q 3003 894 3003 1313 
Q 3003 1734 2745 1975 
Q 2488 2216 2034 2216 
z
M 1403 2484 
Q 997 2584 770 2862 
Q 544 3141 544 3541 
Q 544 4100 942 4425 
Q 1341 4750 2034 4750 
Q 2731 4750 3128 4425 
Q 3525 4100 3525 3541 
Q 3525 3141 3298 2862 
Q 3072 2584 2669 2484 
Q 3125 2378 3379 2068 
Q 3634 1759 3634 1313 
Q 3634 634 3220 271 
Q 2806 -91 2034 -91 
Q 1263 -91 848 271 
Q 434 634 434 1313 
Q 434 1759 690 2068 
Q 947 2378 1403 2484 
z
M 1172 3481 
Q 1172 3119 1398 2916 
Q 1625 2713 2034 2713 
Q 2441 2713 2670 2916 
Q 2900 3119 2900 3481 
Q 2900 3844 2670 4047 
Q 2441 4250 2034 4250 
Q 1625 4250 1398 4047 
Q 1172 3844 1172 3481 
z
" transform="scale(0.015625)"/>
       </defs>
       <use xlink:href="#DejaVuSans-38"/>
       <use xlink:href="#DejaVuSans-30" transform="translate(63.623047 0)"/>
       <use xlink:href="#DejaVuSans-30" transform="translate(127.246094 0)"/>
      </g>
     </g>
    </g>
    <g id="xtick_6">
     <g id="line2d_6">
      <g>
       <use xlink:href="#mbac821e16e" x="258.811523" y="188.6" style="stroke: #000000; stroke-width: 0.8"/>
      </g>
     </g>
     <g id="text_6">
      <!-- 1000 -->
      <g transform="translate(246.086523 203.198437) scale(0.1 -0.1)">
       <defs>
        <path id="DejaVuSans-31" d="M 794 531 
L 1825 531 
L 1825 4091 
L 703 3866 
L 703 4441 
L 1819 4666 
L 2450 4666 
L 2450 531 
L 3481 531 
L 3481 0 
L 794 0 
L 794 531 
z
" transform="scale(0.015625)"/>
       </defs>
       <use xlink:href="#DejaVuSans-31"/>
       <use xlink:href="#DejaVuSans-30" transform="translate(63.623047 0)"/>
       <use xlink:href="#DejaVuSans-30" transform="translate(127.246094 0)"/>
       <use xlink:href="#DejaVuSans-30" transform="translate(190.869141 0)"/>
      </g>
     </g>
    </g>
    <g id="text_7">
     <!-- q (nm) -->
     <g transform="translate(134.771094 216.876563) scale(0.1 -0.1)">
      <defs>
       <path id="DejaVuSans-71" d="M 947 1747 
Q 947 1113 1208 752 
Q 1469 391 1925 391 
Q 2381 391 2643 752 
Q 2906 1113 2906 1747 
Q 2906 2381 2643 2742 
Q 2381 3103 1925 3103 
Q 1469 3103 1208 2742 
Q 947 2381 947 1747 
z
M 2906 525 
Q 2725 213 2448 61 
Q 2172 -91 1784 -91 
Q 1150 -91 751 415 
Q 353 922 353 1747 
Q 353 2572 751 3078 
Q 1150 3584 1784 3584 
Q 2172 3584 2448 3432 
Q 2725 3281 2906 2969 
L 2906 3500 
L 3481 3500 
L 3481 -1331 
L 2906 -1331 
L 2906 525 
z
" transform="scale(0.015625)"/>
       <path id="DejaVuSans-20" transform="scale(0.015625)"/>
       <path id="DejaVuSans-28" d="M 1984 4856 
Q 1566 4138 1362 3434 
Q 1159 2731 1159 2009 
Q 1159 1288 1364 580 
Q 1569 -128 1984 -844 
L 1484 -844 
Q 1016 -109 783 600 
Q 550 1309 550 2009 
Q 550 2706 781 3412 
Q 1013 4119 1484 4856 
L 1984 4856 
z
" transform="scale(0.015625)"/>
       <path id="DejaVuSans-6e" d="M 3513 2113 
L 3513 0 
L 2938 0 
L 2938 2094 
Q 2938 2591 2744 2837 
Q 2550 3084 2163 3084 
Q 1697 3084 1428 2787 
Q 1159 2491 1159 1978 
L 1159 0 
L 581 0 
L 581 3500 
L 1159 3500 
L 1159 2956 
Q 1366 3272 1645 3428 
Q 1925 3584 2291 3584 
Q 2894 3584 3203 3211 
Q 3513 2838 3513 2113 
z
" transform="scale(0.015625)"/>
       <path id="DejaVuSans-6d" d="M 3328 2828 
Q 3544 3216 3844 3400 
Q 4144 3584 4550 3584 
Q 5097 3584 5394 3201 
Q 5691 2819 5691 2113 
L 5691 0 
L 5113 0 
L 5113 2094 
Q 5113 2597 4934 2840 
Q 4756 3084 4391 3084 
Q 3944 3084 3684 2787 
Q 3425 2491 3425 1978 
L 3425 0 
L 2847 0 
L 2847 2094 
Q 2847 2600 2669 2842 
Q 2491 3084 2119 3084 
Q 1678 3084 1418 2786 
Q 1159 2488 1159 1978 
L 1159 0 
L 581 0 
L 581 3500 
L 1159 3500 
L 1159 2956 
Q 1356 3278 1631 3431 
Q 1906 3584 2284 3584 
Q 2666 3584 2933 3390 
Q 3200 3197 3328 2828 
z
" transform="scale(0.015625)"/>
       <path id="DejaVuSans-29" d="M 513 4856 
L 1013 4856 
Q 1481 4119 1714 3412 
Q 1947 2706 1947 2009 
Q 1947 1309 1714 600 
Q 1481 -109 1013 -844 
L 513 -844 
Q 928 -128 1133 580 
Q 1338 1288 1338 2009 
Q 1338 2731 1133 3434 
Q 928 4138 513 4856 
z
" transform="scale(0.015625)"/>
      </defs>
      <use xlink:href="#DejaVuSans-71"/>
      <use xlink:href="#DejaVuSans-20" transform="translate(63.476562 0)"/>
      <use xlink:href="#DejaVuSans-28" transform="translate(95.263672 0)"/>
      <use xlink:href="#DejaVuSans-6e" transform="translate(134.277344 0)"/>
      <use xlink:href="#DejaVuSans-6d" transform="translate(197.65625 0)"/>
      <use xlink:href="#DejaVuSans-29" transform="translate(295.068359 0)"/>
     </g>
    </g>
   </g>
   <g id="matplotlib.axis_2">
    <g id="ytick_1">
     <g id="line2d_7">
      <defs>
       <path id="m713e71aaf2" d="M 0 0 
L -3.5 0 
" style="stroke: #000000; stroke-width: 0.8"/>
      </defs>
      <g>
       <use xlink:href="#m713e71aaf2" x="33.7" y="180.687273" style="stroke: #000000; stroke-width: 0.8"/>
      </g>
     </g>
     <g id="text_8">
      <!-- 0 -->
      <g transform="translate(20.3375 184.486491) scale(0.1 -0.1)">
       <use xlink:href="#DejaVuSans-30"/>
      </g>
     </g>
    </g>
    <g id="ytick_2">
     <g id="line2d_8">
      <g>
       <use xlink:href="#m713e71aaf2" x="33.7" y="155.116195" style="stroke: #000000; stroke-width: 0.8"/>
      </g>
     </g>
     <g id="text_9">
      <!-- 10000 -->
      <g transform="translate(-5.1125 158.915414) scale(0.1 -0.1)">
       <use xlink:href="#DejaVuSans-31"/>
       <use xlink:href="#DejaVuSans-30" transform="translate(63.623047 0)"/>
       <use xlink:href="#DejaVuSans-30" transform="translate(127.246094 0)"/>
       <use xlink:href="#DejaVuSans-30" transform="translate(190.869141 0)"/>
       <use xlink:href="#DejaVuSans-30" transform="translate(254.492188 0)"/>
      </g>
     </g>
    </g>
    <g id="ytick_3">
     <g id="line2d_9">
      <g>
       <use xlink:href="#m713e71aaf2" x="33.7" y="129.545117" style="stroke: #000000; stroke-width: 0.8"/>
      </g>
     </g>
     <g id="text_10">
      <!-- 20000 -->
      <g transform="translate(-5.1125 133.344336) scale(0.1 -0.1)">
       <use xlink:href="#DejaVuSans-32"/>
       <use xlink:href="#DejaVuSans-30" transform="translate(63.623047 0)"/>
       <use xlink:href="#DejaVuSans-30" transform="translate(127.246094 0)"/>
       <use xlink:href="#DejaVuSans-30" transform="translate(190.869141 0)"/>
       <use xlink:href="#DejaVuSans-30" transform="translate(254.492188 0)"/>
      </g>
     </g>
    </g>
    <g id="ytick_4">
     <g id="line2d_10">
      <g>
       <use xlink:href="#m713e71aaf2" x="33.7" y="103.97404" style="stroke: #000000; stroke-width: 0.8"/>
      </g>
     </g>
     <g id="text_11">
      <!-- 30000 -->
      <g transform="translate(-5.1125 107.773258) scale(0.1 -0.1)">
       <defs>
        <path id="DejaVuSans-33" d="M 2597 2516 
Q 3050 2419 3304 2112 
Q 3559 1806 3559 1356 
Q 3559 666 3084 287 
Q 2609 -91 1734 -91 
Q 1441 -91 1130 -33 
Q 819 25 488 141 
L 488 750 
Q 750 597 1062 519 
Q 1375 441 1716 441 
Q 2309 441 2620 675 
Q 2931 909 2931 1356 
Q 2931 1769 2642 2001 
Q 2353 2234 1838 2234 
L 1294 2234 
L 1294 2753 
L 1863 2753 
Q 2328 2753 2575 2939 
Q 2822 3125 2822 3475 
Q 2822 3834 2567 4026 
Q 2313 4219 1838 4219 
Q 1578 4219 1281 4162 
Q 984 4106 628 3988 
L 628 4550 
Q 988 4650 1302 4700 
Q 1616 4750 1894 4750 
Q 2613 4750 3031 4423 
Q 3450 4097 3450 3541 
Q 3450 3153 3228 2886 
Q 3006 2619 2597 2516 
z
" transform="scale(0.015625)"/>
       </defs>
       <use xlink:href="#DejaVuSans-33"/>
       <use xlink:href="#DejaVuSans-30" transform="translate(63.623047 0)"/>
       <use xlink:href="#DejaVuSans-30" transform="translate(127.246094 0)"/>
       <use xlink:href="#DejaVuSans-30" transform="translate(190.869141 0)"/>
       <use xlink:href="#DejaVuSans-30" transform="translate(254.492188 0)"/>
      </g>
     </g>
    </g>
    <g id="ytick_5">
     <g id="line2d_11">
      <g>
       <use xlink:href="#m713e71aaf2" x="33.7" y="78.402962" style="stroke: #000000; stroke-width: 0.8"/>
      </g>
     </g>
     <g id="text_12">
      <!-- 40000 -->
      <g transform="translate(-5.1125 82.202181) scale(0.1 -0.1)">
       <use xlink:href="#DejaVuSans-34"/>
       <use xlink:href="#DejaVuSans-30" transform="translate(63.623047 0)"/>
       <use xlink:href="#DejaVuSans-30" transform="translate(127.246094 0)"/>
       <use xlink:href="#DejaVuSans-30" transform="translate(190.869141 0)"/>
       <use xlink:href="#DejaVuSans-30" transform="translate(254.492188 0)"/>
      </g>
     </g>
    </g>
    <g id="ytick_6">
     <g id="line2d_12">
      <g>
       <use xlink:href="#m713e71aaf2" x="33.7" y="52.831884" style="stroke: #000000; stroke-width: 0.8"/>
      </g>
     </g>
     <g id="text_13">
      <!-- 50000 -->
      <g transform="translate(-5.1125 56.631103) scale(0.1 -0.1)">
       <defs>
        <path id="DejaVuSans-35" d="M 691 4666 
L 3169 4666 
L 3169 4134 
L 1269 4134 
L 1269 2991 
Q 1406 3038 1543 3061 
Q 1681 3084 1819 3084 
Q 2600 3084 3056 2656 
Q 3513 2228 3513 1497 
Q 3513 744 3044 326 
Q 2575 -91 1722 -91 
Q 1428 -91 1123 -41 
Q 819 9 494 109 
L 494 744 
Q 775 591 1075 516 
Q 1375 441 1709 441 
Q 2250 441 2565 725 
Q 2881 1009 2881 1497 
Q 2881 1984 2565 2268 
Q 2250 2553 1709 2553 
Q 1456 2553 1204 2497 
Q 953 2441 691 2322 
L 691 4666 
z
" transform="scale(0.015625)"/>
       </defs>
       <use xlink:href="#DejaVuSans-35"/>
       <use xlink:href="#DejaVuSans-30" transform="translate(63.623047 0)"/>
       <use xlink:href="#DejaVuSans-30" transform="translate(127.246094 0)"/>
       <use xlink:href="#DejaVuSans-30" transform="translate(190.869141 0)"/>
       <use xlink:href="#DejaVuSans-30" transform="translate(254.492188 0)"/>
      </g>
     </g>
    </g>
    <g id="ytick_7">
     <g id="line2d_13">
      <g>
       <use xlink:href="#m713e71aaf2" x="33.7" y="27.260806" style="stroke: #000000; stroke-width: 0.8"/>
      </g>
     </g>
     <g id="text_14">
      <!-- 60000 -->
      <g transform="translate(-5.1125 31.060025) scale(0.1 -0.1)">
       <use xlink:href="#DejaVuSans-36"/>
       <use xlink:href="#DejaVuSans-30" transform="translate(63.623047 0)"/>
       <use xlink:href="#DejaVuSans-30" transform="translate(127.246094 0)"/>
       <use xlink:href="#DejaVuSans-30" transform="translate(190.869141 0)"/>
       <use xlink:href="#DejaVuSans-30" transform="translate(254.492188 0)"/>
      </g>
     </g>
    </g>
    <g id="text_15">
     <!-- rdf -->
     <g transform="translate(-11.192187 108.462344) rotate(-90) scale(0.1 -0.1)">
      <defs>
       <path id="DejaVuSans-72" d="M 2631 2963 
Q 2534 3019 2420 3045 
Q 2306 3072 2169 3072 
Q 1681 3072 1420 2755 
Q 1159 2438 1159 1844 
L 1159 0 
L 581 0 
L 581 3500 
L 1159 3500 
L 1159 2956 
Q 1341 3275 1631 3429 
Q 1922 3584 2338 3584 
Q 2397 3584 2469 3576 
Q 2541 3569 2628 3553 
L 2631 2963 
z
" transform="scale(0.015625)"/>
       <path id="DejaVuSans-64" d="M 2906 2969 
L 2906 4863 
L 3481 4863 
L 3481 0 
L 2906 0 
L 2906 525 
Q 2725 213 2448 61 
Q 2172 -91 1784 -91 
Q 1150 -91 751 415 
Q 353 922 353 1747 
Q 353 2572 751 3078 
Q 1150 3584 1784 3584 
Q 2172 3584 2448 3432 
Q 2725 3281 2906 2969 
z
M 947 1747 
Q 947 1113 1208 752 
Q 1469 391 1925 391 
Q 2381 391 2643 752 
Q 2906 1113 2906 1747 
Q 2906 2381 2643 2742 
Q 2381 3103 1925 3103 
Q 1469 3103 1208 2742 
Q 947 2381 947 1747 
z
" transform="scale(0.015625)"/>
       <path id="DejaVuSans-66" d="M 2375 4863 
L 2375 4384 
L 1825 4384 
Q 1516 4384 1395 4259 
Q 1275 4134 1275 3809 
L 1275 3500 
L 2222 3500 
L 2222 3053 
L 1275 3053 
L 1275 0 
L 697 0 
L 697 3053 
L 147 3053 
L 147 3500 
L 697 3500 
L 697 3744 
Q 697 4328 969 4595 
Q 1241 4863 1831 4863 
L 2375 4863 
z
" transform="scale(0.015625)"/>
      </defs>
      <use xlink:href="#DejaVuSans-72"/>
      <use xlink:href="#DejaVuSans-64" transform="translate(39.363281 0)"/>
      <use xlink:href="#DejaVuSans-66" transform="translate(102.839844 0)"/>
     </g>
    </g>
   </g>
   <g id="line2d_14">
    <path d="M 44.406818 180.687273 
L 93.781619 180.687273 
L 94.318301 180.265029 
L 94.854984 180.687273 
L 95.391667 22.432727 
L 95.928349 47.893769 
L 96.465032 180.4284 
L 97.001715 180.43363 
L 97.538397 179.817276 
L 98.07508 178.128965 
L 99.148445 168.39004 
L 99.685128 162.194092 
L 100.22181 170.77174 
L 100.758493 175.15975 
L 101.295175 178.409107 
L 101.831858 179.835471 
L 102.368541 180.164664 
L 102.905223 180.174166 
L 103.441906 180.485728 
L 104.515271 180.103945 
L 105.051954 180.209694 
L 105.588636 180.593418 
L 106.125319 180.410563 
L 106.662002 180.052654 
L 107.198684 179.261299 
L 108.272049 172.932415 
L 108.808732 173.060598 
L 109.345415 176.8531 
L 109.882097 178.309381 
L 110.41878 180.122556 
L 110.955463 180.60789 
L 112.028828 178.995628 
L 112.56551 175.691641 
L 113.102193 168.838921 
L 113.638876 157.208371 
L 114.175558 163.419215 
L 114.712241 172.7889 
L 115.248923 177.673546 
L 115.785606 178.132773 
L 116.322289 176.87827 
L 116.858971 170.299541 
L 117.395654 159.224523 
L 117.932337 165.327859 
L 119.005702 179.169769 
L 119.542384 179.814617 
L 120.079067 180.195636 
L 121.152432 180.388504 
L 121.689115 180.333696 
L 122.225797 180.571029 
L 123.299163 180.178263 
L 123.835845 180.408285 
L 124.909211 180.144029 
L 125.445893 180.472835 
L 125.982576 179.417461 
L 126.519258 177.867303 
L 127.055941 172.078786 
L 127.592624 172.189133 
L 128.129306 175.964827 
L 129.202671 168.344572 
L 129.739354 168.789068 
L 130.276037 175.815153 
L 130.812719 178.941753 
L 131.349402 179.895119 
L 132.422767 180.505388 
L 132.95945 180.462656 
L 133.496132 180.243419 
L 134.032815 180.336418 
L 134.569498 180.253893 
L 135.642863 179.629094 
L 136.179545 176.503775 
L 136.716228 165.552673 
L 137.252911 167.484267 
L 137.789593 176.848434 
L 138.326276 176.852105 
L 138.862959 167.178845 
L 139.399641 152.138441 
L 140.473006 174.347884 
L 141.009689 178.874451 
L 142.083054 179.874507 
L 142.619737 179.737173 
L 143.156419 177.470166 
L 144.229785 170.180563 
L 145.30315 175.631374 
L 145.839833 160.745108 
L 146.376515 157.766765 
L 146.913198 176.056966 
L 147.44988 178.196878 
L 147.986563 173.095933 
L 148.523246 164.749563 
L 149.059928 164.397094 
L 149.596611 173.198492 
L 150.133293 178.069017 
L 150.669976 179.687969 
L 151.743341 179.922065 
L 152.280024 177.383995 
L 152.816707 172.645479 
L 153.353389 173.051141 
L 153.890072 176.803483 
L 154.426754 179.084738 
L 154.963437 179.994739 
L 155.50012 180.001402 
L 156.036802 179.328654 
L 156.573485 177.267014 
L 157.110167 173.883822 
L 157.64685 174.30557 
L 158.183533 177.744392 
L 158.720215 179.742474 
L 159.793581 180.475308 
L 160.330263 180.503513 
L 160.866946 180.375146 
L 161.403628 180.558408 
L 161.940311 180.431886 
L 162.476994 180.459503 
L 163.550359 179.643377 
L 164.087041 177.361853 
L 164.623724 172.82602 
L 165.160407 167.11234 
L 165.697089 171.477182 
L 166.233772 176.788295 
L 166.770455 176.822369 
L 167.307137 174.776792 
L 167.84382 174.804791 
L 168.380502 177.725472 
L 168.917185 178.911786 
L 169.453868 177.121518 
L 169.99055 172.497626 
L 170.527233 169.904687 
L 171.063915 172.789545 
L 171.600598 173.793942 
L 172.137281 171.320703 
L 172.673963 165.864301 
L 173.210646 165.689471 
L 173.747329 174.252489 
L 174.284011 178.364711 
L 174.820694 179.110086 
L 175.357376 178.176141 
L 175.894059 174.685045 
L 176.430742 174.409646 
L 176.967424 177.071588 
L 177.504107 176.243818 
L 178.040789 175.686374 
L 178.577472 176.549797 
L 179.114155 175.862858 
L 179.650837 174.762312 
L 180.18752 177.604514 
L 180.724203 179.680414 
L 181.260885 180.423388 
L 181.797568 180.257121 
L 182.33425 180.464585 
L 183.407616 180.376644 
L 184.480981 180.07548 
L 185.017663 178.723004 
L 186.091029 170.873147 
L 186.627711 174.088978 
L 187.164394 178.331073 
L 187.701077 179.552352 
L 188.237759 179.526652 
L 188.774442 175.875882 
L 189.311124 168.697129 
L 189.847807 169.7201 
L 190.921172 173.20272 
L 191.457855 176.70276 
L 191.994537 176.991034 
L 193.067903 173.097364 
L 193.604585 176.530859 
L 194.141268 178.954673 
L 194.677951 179.655113 
L 195.751316 173.826204 
L 196.287998 176.951735 
L 197.361364 176.40005 
L 197.898046 174.556089 
L 198.434729 171.189704 
L 198.971411 172.837235 
L 199.508094 177.075624 
L 200.044777 179.302117 
L 200.581459 180.093561 
L 201.118142 180.111997 
L 201.654825 179.930215 
L 202.191507 178.247065 
L 202.72819 175.825756 
L 203.264872 176.166403 
L 203.801555 177.267238 
L 204.338238 176.779158 
L 205.411603 178.180017 
L 205.948285 177.059582 
L 207.021651 173.968035 
L 207.558333 173.375109 
L 208.095016 174.74129 
L 208.631699 175.749299 
L 209.168381 175.950527 
L 210.241746 172.376291 
L 211.315112 178.430055 
L 211.851794 178.179882 
L 212.925159 171.9791 
L 213.461842 174.778478 
L 213.998525 176.842536 
L 214.535207 176.817887 
L 215.608573 177.083166 
L 216.681938 179.603975 
L 217.21862 179.279422 
L 218.291986 175.276992 
L 218.828668 175.856007 
L 219.365351 176.693555 
L 219.902033 177.130899 
L 220.975399 175.360624 
L 221.512081 177.600686 
L 222.048764 179.29885 
L 222.585447 179.106845 
L 223.122129 178.198065 
L 223.658812 176.332458 
L 224.195494 172.696303 
L 224.732177 171.99389 
L 225.26886 176.474317 
L 225.805542 179.484543 
L 226.342225 180.228225 
L 226.878907 180.241531 
L 227.41559 180.085877 
L 227.952273 179.271215 
L 228.488955 178.21575 
L 229.025638 178.655166 
L 229.562321 179.708017 
L 230.099003 178.801529 
L 230.635686 177.080128 
L 231.172368 176.969116 
L 231.709051 178.592006 
L 232.245734 179.405233 
L 232.782416 178.695451 
L 233.319099 176.874759 
L 233.855781 177.378788 
L 234.392464 178.875902 
L 234.929147 179.791541 
L 235.465829 180.174143 
L 236.002512 180.167383 
L 236.539195 179.500104 
L 237.61256 175.801782 
L 238.149242 174.642383 
L 238.685925 172.72806 
L 239.222608 171.421491 
L 239.75929 172.574326 
L 240.832656 172.571049 
L 241.369338 176.988299 
L 241.906021 178.784384 
L 242.442703 178.785663 
L 243.516069 176.514759 
L 244.052751 174.559622 
L 244.589434 174.433635 
L 245.126116 176.835767 
L 245.662799 178.470701 
L 246.199482 179.298411 
L 246.736164 179.253946 
L 247.272847 177.81859 
L 247.80953 177.303963 
L 248.346212 178.622062 
L 248.882895 178.193233 
L 249.95626 174.061089 
L 250.492943 177.541204 
L 251.029625 178.807765 
L 251.566308 178.908076 
L 252.639673 175.543073 
L 253.176356 175.034158 
L 253.713038 174.974313 
L 254.249721 172.956341 
L 254.786404 173.618679 
L 255.323086 176.650425 
L 255.859769 177.817278 
L 256.396451 176.738347 
L 256.933134 176.484292 
L 257.469817 176.373016 
L 258.543182 175.69913 
L 258.543182 175.69913 
" clip-path="url(#pa2d598d939)" style="fill: none; stroke: #000000; stroke-opacity: 0.5; stroke-width: 0.5; stroke-linecap: square"/>
   </g>
   <g id="line2d_15">
    <path d="M 44.406818 180.687273 
L 93.781619 180.687273 
L 94.318301 179.394152 
L 94.854984 180.687273 
L 95.391667 180.687273 
L 95.928349 179.877959 
L 97.001715 179.910491 
L 97.538397 178.022908 
L 98.07508 172.852453 
L 99.148445 143.026991 
L 99.685128 124.0519 
L 100.22181 150.320951 
L 100.758493 163.759231 
L 101.295175 173.710389 
L 101.831858 178.07863 
L 102.368541 179.086783 
L 102.905223 179.115882 
L 103.441906 180.07004 
L 104.515271 178.900831 
L 105.051954 179.224687 
L 105.588636 180.399843 
L 106.125319 179.83985 
L 106.662002 178.743753 
L 107.198684 176.593168 
L 108.272049 157.201898 
L 108.808732 158.368654 
L 109.345415 169.200381 
L 110.41878 179.946082 
L 110.955463 180.444162 
L 111.492145 179.969517 
L 112.028828 179.745334 
L 112.56551 179.760053 
L 113.102193 180.459062 
L 113.638876 179.788471 
L 114.175558 179.359655 
L 114.712241 180.251439 
L 115.785606 176.247103 
L 116.322289 170.480335 
L 116.858971 149.901049 
L 117.395654 115.968813 
L 117.932337 134.247009 
L 119.005702 176.814476 
L 119.542384 178.396552 
L 120.61575 180.130554 
L 121.152432 180.138286 
L 121.689115 179.784916 
L 122.225797 180.687273 
L 122.76248 180.336118 
L 123.299163 180.167658 
L 123.835845 180.345513 
L 124.372528 180.181468 
L 124.909211 180.520904 
L 125.445893 180.358914 
L 125.982576 180.687273 
L 126.519258 180.687273 
L 127.055941 180.529407 
L 127.592624 180.687273 
L 128.129306 180.687273 
L 128.665989 180.535364 
L 129.202671 180.687273 
L 129.739354 180.687273 
L 130.276037 180.394707 
L 130.812719 180.398318 
L 131.349402 180.544568 
L 131.886085 180.546309 
L 132.422767 180.687273 
L 132.95945 180.687273 
L 133.496132 180.279482 
L 134.032815 180.284338 
L 134.569498 180.156383 
L 135.10618 179.506826 
L 135.642863 177.835481 
L 136.179545 168.644028 
L 136.716228 134.59083 
L 137.252911 141.379712 
L 137.789593 170.044595 
L 138.326276 173.95825 
L 138.862959 157.220328 
L 139.399641 125.908466 
L 139.936324 158.216276 
L 140.473006 175.541293 
L 141.009689 179.299331 
L 142.083054 180.460991 
L 142.619737 180.127719 
L 143.156419 180.133768 
L 143.693102 179.920698 
L 144.229785 180.037236 
L 144.766467 180.472899 
L 145.30315 180.050957 
L 145.839833 176.279951 
L 146.376515 146.940125 
L 146.913198 173.186091 
L 147.44988 180.48389 
L 147.986563 180.687273 
L 153.353389 180.687273 
L 153.890072 180.507059 
L 154.963437 180.598903 
L 155.50012 180.512233 
L 157.110167 180.687273 
L 162.476994 180.609768 
L 163.013676 180.456853 
L 163.550359 180.45892 
L 164.087041 180.159208 
L 165.160407 180.464956 
L 165.697089 179.805838 
L 166.233772 178.503013 
L 167.307137 163.802686 
L 167.84382 163.381424 
L 168.380502 172.952726 
L 168.917185 177.341164 
L 169.453868 176.678619 
L 170.527233 163.361086 
L 171.063915 165.258928 
L 171.600598 164.920958 
L 172.137281 159.15687 
L 172.673963 147.642608 
L 173.210646 152.542459 
L 173.747329 167.894182 
L 174.284011 176.650251 
L 174.820694 178.589978 
L 175.357376 179.363525 
L 175.894059 179.561855 
L 176.430742 178.330631 
L 176.967424 176.073508 
L 177.504107 172.75431 
L 178.040789 173.302051 
L 178.577472 177.864817 
L 179.114155 179.734062 
L 179.650837 180.155329 
L 180.724203 180.454555 
L 181.260885 180.398648 
L 181.797568 180.229067 
L 182.33425 180.403114 
L 182.870933 180.405308 
L 183.407616 180.183642 
L 183.944298 180.131972 
L 184.480981 179.474934 
L 185.017663 176.585746 
L 185.554346 171.243819 
L 186.091029 167.490745 
L 187.164394 177.397688 
L 187.701077 179.212735 
L 188.237759 180.216837 
L 189.311124 180.120768 
L 189.847807 180.482786 
L 190.38449 180.078307 
L 190.921172 179.830867 
L 191.457855 179.386998 
L 191.994537 175.92107 
L 193.067903 167.425903 
L 193.604585 173.93409 
L 194.141268 177.937755 
L 194.677951 179.39414 
L 195.214633 179.545978 
L 195.751316 178.798551 
L 196.824681 169.746469 
L 197.361364 170.14659 
L 197.898046 171.138215 
L 198.434729 169.016278 
L 198.971411 172.537868 
L 199.508094 177.539926 
L 200.044777 179.615599 
L 200.581459 179.88902 
L 201.118142 179.718292 
L 201.654825 178.76249 
L 202.191507 173.909311 
L 202.72819 166.618817 
L 203.264872 168.513814 
L 203.801555 175.024576 
L 204.338238 178.065176 
L 204.87492 179.384964 
L 205.411603 177.098423 
L 205.948285 172.935283 
L 206.484968 172.368783 
L 207.021651 176.269006 
L 207.558333 178.736477 
L 208.095016 179.799001 
L 208.631699 179.764677 
L 209.168381 177.778045 
L 209.705064 173.124739 
L 210.241746 172.150692 
L 211.315112 179.561041 
L 211.851794 180.301399 
L 212.388477 180.457224 
L 213.461842 180.384416 
L 213.998525 180.612036 
L 215.07189 180.352948 
L 215.608573 180.613443 
L 216.145255 180.503848 
L 216.681938 180.614358 
L 217.755303 180.363202 
L 218.291986 179.577902 
L 219.365351 173.087233 
L 219.902033 172.641694 
L 220.975399 172.634966 
L 221.512081 176.892404 
L 222.048764 179.247064 
L 223.122129 180.077417 
L 223.658812 178.430824 
L 224.732177 168.906379 
L 225.805542 178.977142 
L 226.342225 180.06609 
L 226.878907 180.102236 
L 227.41559 180.396466 
L 227.952273 180.173296 
L 229.025638 180.115743 
L 229.562321 179.550821 
L 230.099003 175.947931 
L 230.635686 170.326918 
L 231.172368 169.641713 
L 231.709051 175.072612 
L 232.245734 179.000214 
L 232.782416 179.955278 
L 233.319099 180.384004 
L 233.855781 180.385718 
L 234.392464 180.23749 
L 234.929147 180.29965 
L 236.002512 179.802738 
L 236.539195 178.107095 
L 237.075877 173.339597 
L 237.61256 172.626449 
L 238.149242 176.563777 
L 238.685925 177.160053 
L 239.222608 175.097538 
L 240.295973 168.557847 
L 240.832656 168.792332 
L 241.369338 175.916074 
L 241.906021 178.938994 
L 242.442703 179.390055 
L 242.979386 177.722495 
L 243.516069 174.543848 
L 244.052751 170.340211 
L 244.589434 173.366921 
L 245.126116 177.892957 
L 245.662799 179.538081 
L 246.199482 180.182183 
L 246.736164 180.264182 
L 247.272847 180.187508 
L 248.346212 179.672196 
L 248.882895 177.373159 
L 249.419577 173.501288 
L 249.95626 170.899638 
L 250.492943 176.685502 
L 251.029625 178.760156 
L 251.566308 180.182755 
L 252.10299 180.084972 
L 252.639673 180.187935 
L 253.176356 179.271459 
L 253.713038 177.277046 
L 254.249721 173.459092 
L 254.786404 172.028245 
L 255.323086 175.868682 
L 255.859769 178.79865 
L 256.396451 177.820466 
L 257.469817 170.861436 
L 258.006499 169.771696 
L 258.543182 170.392962 
L 258.543182 170.392962 
" clip-path="url(#pa2d598d939)" style="fill: none; stroke: #0000ff; stroke-opacity: 0.5; stroke-linecap: square"/>
   </g>
   <g id="line2d_16">
    <path d="M 44.406818 180.687273 
L 106.662002 180.687273 
L 107.198684 180.202046 
L 107.735367 180.687273 
L 108.272049 180.218152 
L 108.808732 178.841806 
L 109.345415 180.23347 
L 109.882097 179.348 
L 110.41878 178.930377 
L 110.955463 180.687273 
L 111.492145 177.284578 
L 112.028828 173.151763 
L 112.56551 155.137224 
L 113.102193 116.585291 
L 113.638876 54.455568 
L 114.175558 89.032499 
L 114.712241 138.459834 
L 115.248923 168.8582 
L 115.785606 174.673075 
L 116.322289 178.465355 
L 116.858971 179.227778 
L 117.395654 178.889538 
L 117.932337 179.624262 
L 118.469019 179.290323 
L 120.079067 180.352686 
L 120.61575 179.697551 
L 121.152432 180.361947 
L 121.689115 180.366435 
L 123.299163 179.455595 
L 123.835845 179.775914 
L 124.372528 179.788064 
L 124.909211 178.912675 
L 125.445893 180.103525 
L 125.982576 175.790268 
L 126.519258 167.040011 
L 127.055941 136.064034 
L 127.592624 137.744244 
L 128.129306 165.370026 
L 128.665989 176.096245 
L 129.202671 179.887283 
L 129.739354 180.687273 
L 130.276037 180.427214 
L 130.812719 180.430425 
L 131.349402 180.687273 
L 131.886085 180.687273 
L 132.422767 180.439707 
L 132.95945 180.687273 
L 133.496132 180.445619 
L 134.032815 180.687273 
L 134.569498 180.451322 
L 135.10618 180.687273 
L 136.716228 180.687273 
L 137.252911 180.464725 
L 137.789593 180.687273 
L 138.326276 180.687273 
L 138.862959 180.472226 
L 139.399641 180.687273 
L 139.936324 180.687273 
L 140.473006 180.479354 
L 141.009689 180.481652 
L 141.546372 180.280551 
L 142.083054 180.687273 
L 142.619737 180.48832 
L 143.156419 180.490471 
L 143.693102 179.713845 
L 144.229785 180.494669 
L 144.766467 179.925054 
L 145.30315 175.408206 
L 145.839833 86.477869 
L 146.376515 120.323148 
L 146.913198 176.485698 
L 147.44988 180.506489 
L 147.986563 180.687273 
L 148.523246 180.510187 
L 149.059928 180.687273 
L 152.816707 180.687273 
L 153.353389 180.525504 
L 153.890072 180.687273 
L 157.110167 180.687273 
L 157.64685 180.387748 
L 158.720215 180.687273 
L 160.330263 180.687273 
L 160.866946 180.54566 
L 161.403628 180.687273 
L 161.940311 180.548229 
L 162.476994 180.687273 
L 163.013676 180.004549 
L 163.550359 180.551953 
L 164.087041 180.284938 
L 164.623724 180.421433 
L 165.160407 180.687273 
L 165.697089 180.295524 
L 166.233772 180.428398 
L 166.770455 179.917434 
L 167.307137 180.432891 
L 167.84382 180.056823 
L 168.380502 179.062237 
L 168.917185 177.341164 
L 169.453868 169.137436 
L 169.99055 154.251171 
L 170.527233 152.904984 
L 171.063915 165.595793 
L 171.600598 171.898519 
L 172.137281 168.085547 
L 173.210646 149.878549 
L 173.747329 168.971043 
L 174.284011 176.016575 
L 174.820694 178.766518 
L 175.357376 179.678703 
L 175.894059 179.909206 
L 176.430742 179.805255 
L 176.967424 178.390643 
L 177.504107 174.612115 
L 178.040789 167.988461 
L 178.577472 168.089648 
L 179.114155 176.238955 
L 179.650837 178.165465 
L 180.724203 180.376983 
L 181.260885 180.687273 
L 181.797568 180.178156 
L 182.33425 180.182102 
L 182.870933 180.587019 
L 183.407616 180.488308 
L 183.944298 180.193672 
L 184.480981 180.295406 
L 185.017663 179.715059 
L 185.554346 180.108364 
L 186.091029 180.208487 
L 186.627711 180.497198 
L 187.164394 179.932673 
L 187.701077 179.657437 
L 188.237759 180.036794 
L 188.774442 178.565818 
L 189.311124 175.285448 
L 189.847807 161.51095 
L 190.38449 140.630834 
L 190.921172 143.430837 
L 191.457855 162.994655 
L 191.994537 169.654398 
L 193.067903 163.288185 
L 194.141268 176.914056 
L 194.677951 179.49525 
L 195.214633 180.09549 
L 195.751316 180.099671 
L 196.824681 180.521738 
L 198.434729 180.525176 
L 198.971411 180.365321 
L 201.118142 180.687273 
L 201.654825 180.609504 
L 202.191507 180.687273 
L 202.72819 180.457114 
L 203.264872 180.687273 
L 203.801555 180.535889 
L 204.338238 180.612087 
L 204.87492 180.46322 
L 205.411603 180.538897 
L 205.948285 180.024001 
L 206.484968 180.394433 
L 207.021651 179.159971 
L 207.558333 174.834888 
L 208.095016 167.695176 
L 208.631699 164.784756 
L 209.705064 178.927521 
L 210.241746 180.19772 
L 211.315112 180.273027 
L 211.851794 180.550073 
L 212.388477 180.482785 
L 212.925159 179.87451 
L 213.461842 177.726008 
L 214.535207 167.861202 
L 215.07189 170.451161 
L 215.608573 175.371517 
L 216.145255 179.25248 
L 216.681938 180.039146 
L 217.21862 180.494038 
L 218.291986 180.432793 
L 218.828668 180.434354 
L 219.365351 180.561587 
L 220.438716 180.438953 
L 220.975399 180.502162 
L 221.512081 180.380617 
L 222.048764 180.07766 
L 222.585447 179.960128 
L 223.122129 179.181456 
L 223.658812 174.221033 
L 224.195494 156.761736 
L 224.732177 157.021952 
L 225.26886 171.159513 
L 225.805542 177.705506 
L 226.342225 179.699192 
L 227.41559 180.514943 
L 227.952273 180.630164 
L 228.488955 180.630496 
L 229.025638 180.292141 
L 229.562321 180.575031 
L 230.635686 180.576318 
L 231.709051 180.522741 
L 232.245734 180.632742 
L 233.319099 180.52553 
L 233.855781 180.580053 
L 234.929147 180.210198 
L 235.465829 180.371004 
L 236.539195 180.374524 
L 237.075877 179.961576 
L 237.61256 179.140832 
L 238.149242 175.304621 
L 239.222608 149.45574 
L 240.295973 174.619426 
L 240.832656 178.442945 
L 241.369338 179.744814 
L 242.442703 180.147532 
L 242.979386 179.369594 
L 243.516069 177.677753 
L 244.052751 170.355299 
L 244.589434 165.560348 
L 245.126116 173.092467 
L 245.662799 178.596753 
L 246.199482 180.072894 
L 246.736164 180.405212 
L 247.272847 180.219656 
L 247.80953 180.454694 
L 248.882895 180.088891 
L 249.419577 180.275173 
L 249.95626 180.095118 
L 250.492943 180.098194 
L 251.029625 179.244753 
L 251.566308 177.592898 
L 252.10299 171.050457 
L 252.639673 160.225514 
L 253.176356 157.990102 
L 253.713038 165.574645 
L 254.249721 167.225264 
L 254.786404 168.424394 
L 255.323086 175.106145 
L 255.859769 178.491951 
L 256.933134 180.218536 
L 257.469817 180.390484 
L 258.006499 180.265415 
L 258.543182 180.435424 
L 258.543182 180.435424 
" clip-path="url(#pa2d598d939)" style="fill: none; stroke: #ff0000; stroke-opacity: 0.5; stroke-linecap: square"/>
   </g>
   <g id="patch_3">
    <path d="M 33.7 188.6 
L 33.7 14.52 
" style="fill: none; stroke: #000000; stroke-width: 0.8; stroke-linejoin: miter; stroke-linecap: square"/>
   </g>
   <g id="patch_4">
    <path d="M 269.25 188.6 
L 269.25 14.52 
" style="fill: none; stroke: #000000; stroke-width: 0.8; stroke-linejoin: miter; stroke-linecap: square"/>
   </g>
   <g id="patch_5">
    <path d="M 33.7 188.6 
L 269.25 188.6 
" style="fill: none; stroke: #000000; stroke-width: 0.8; stroke-linejoin: miter; stroke-linecap: square"/>
   </g>
   <g id="patch_6">
    <path d="M 33.7 14.52 
L 269.25 14.52 
" style="fill: none; stroke: #000000; stroke-width: 0.8; stroke-linejoin: miter; stroke-linecap: square"/>
   </g>
   <g id="legend_1">
    <g id="patch_7">
     <path d="M 213.917188 66.554375 
L 262.25 66.554375 
Q 264.25 66.554375 264.25 64.554375 
L 264.25 21.52 
Q 264.25 19.52 262.25 19.52 
L 213.917188 19.52 
Q 211.917188 19.52 211.917188 21.52 
L 211.917188 64.554375 
Q 211.917188 66.554375 213.917188 66.554375 
z
" style="fill: #ffffff; opacity: 0.8; stroke: #cccccc; stroke-linejoin: miter"/>
    </g>
    <g id="line2d_17">
     <path d="M 215.917188 27.618438 
L 225.917188 27.618438 
L 235.917188 27.618438 
" style="fill: none; stroke: #000000; stroke-opacity: 0.5; stroke-width: 0.5; stroke-linecap: square"/>
    </g>
    <g id="text_16">
     <!-- all -->
     <g transform="translate(243.917188 31.118438) scale(0.1 -0.1)">
      <defs>
       <path id="DejaVuSans-61" d="M 2194 1759 
Q 1497 1759 1228 1600 
Q 959 1441 959 1056 
Q 959 750 1161 570 
Q 1363 391 1709 391 
Q 2188 391 2477 730 
Q 2766 1069 2766 1631 
L 2766 1759 
L 2194 1759 
z
M 3341 1997 
L 3341 0 
L 2766 0 
L 2766 531 
Q 2569 213 2275 61 
Q 1981 -91 1556 -91 
Q 1019 -91 701 211 
Q 384 513 384 1019 
Q 384 1609 779 1909 
Q 1175 2209 1959 2209 
L 2766 2209 
L 2766 2266 
Q 2766 2663 2505 2880 
Q 2244 3097 1772 3097 
Q 1472 3097 1187 3025 
Q 903 2953 641 2809 
L 641 3341 
Q 956 3463 1253 3523 
Q 1550 3584 1831 3584 
Q 2591 3584 2966 3190 
Q 3341 2797 3341 1997 
z
" transform="scale(0.015625)"/>
       <path id="DejaVuSans-6c" d="M 603 4863 
L 1178 4863 
L 1178 0 
L 603 0 
L 603 4863 
z
" transform="scale(0.015625)"/>
      </defs>
      <use xlink:href="#DejaVuSans-61"/>
      <use xlink:href="#DejaVuSans-6c" transform="translate(61.279297 0)"/>
      <use xlink:href="#DejaVuSans-6c" transform="translate(89.0625 0)"/>
     </g>
    </g>
    <g id="line2d_18">
     <path d="M 215.917188 42.296563 
L 225.917188 42.296563 
L 235.917188 42.296563 
" style="fill: none; stroke: #0000ff; stroke-opacity: 0.5; stroke-linecap: square"/>
    </g>
    <g id="text_17">
     <!-- 1-1 -->
     <g transform="translate(243.917188 45.796563) scale(0.1 -0.1)">
      <defs>
       <path id="DejaVuSans-2d" d="M 313 2009 
L 1997 2009 
L 1997 1497 
L 313 1497 
L 313 2009 
z
" transform="scale(0.015625)"/>
      </defs>
      <use xlink:href="#DejaVuSans-31"/>
      <use xlink:href="#DejaVuSans-2d" transform="translate(63.623047 0)"/>
      <use xlink:href="#DejaVuSans-31" transform="translate(99.707031 0)"/>
     </g>
    </g>
    <g id="line2d_19">
     <path d="M 215.917188 56.974688 
L 225.917188 56.974688 
L 235.917188 56.974688 
" style="fill: none; stroke: #ff0000; stroke-opacity: 0.5; stroke-linecap: square"/>
    </g>
    <g id="text_18">
     <!-- 2-2 -->
     <g transform="translate(243.917188 60.474688) scale(0.1 -0.1)">
      <use xlink:href="#DejaVuSans-32"/>
      <use xlink:href="#DejaVuSans-2d" transform="translate(63.623047 0)"/>
      <use xlink:href="#DejaVuSans-32" transform="translate(99.707031 0)"/>
     </g>
    </g>
   </g>
  </g>
 </g>
 <defs>
  <clipPath id="pa2d598d939">
   <rect x="33.7" y="14.52" width="235.55" height="174.08"/>
  </clipPath>
 </defs>
</svg>
