<?xml version="1.0" encoding="utf-8" standalone="no"?>
<!DOCTYPE svg PUBLIC "-//W3C//DTD SVG 1.1//EN"
  "http://www.w3.org/Graphics/SVG/1.1/DTD/svg11.dtd">
<svg xmlns:xlink="http://www.w3.org/1999/xlink" width="288pt" height="216pt" viewBox="0 0 288 216" xmlns="http://www.w3.org/2000/svg" version="1.1">
 <metadata>
  <rdf:RDF xmlns:dc="http://purl.org/dc/elements/1.1/" xmlns:cc="http://creativecommons.org/ns#" xmlns:rdf="http://www.w3.org/1999/02/22-rdf-syntax-ns#">
   <cc:Work>
    <dc:type rdf:resource="http://purl.org/dc/dcmitype/StillImage"/>
    <dc:date>2025-09-18T00:01:09.879580</dc:date>
    <dc:format>image/svg+xml</dc:format>
    <dc:creator>
     <cc:Agent>
      <dc:title>Matplotlib v3.10.0, https://matplotlib.org/</dc:title>
     </cc:Agent>
    </dc:creator>
   </cc:Work>
  </rdf:RDF>
 </metadata>
 <defs>
  <style type="text/css">*{stroke-linejoin: round; stroke-linecap: butt}</style>
 </defs>
 <g id="figure_1">
  <g id="patch_1">
   <path d="M 0 216 
L 288 216 
L 288 0 
L 0 0 
z
" style="fill: #ffffff"/>
  </g>
  <g id="axes_1">
   <g id="patch_2">
    <path d="M 33.7 188.6 
L 269.25 188.6 
L 269.25 14.52 
L 33.7 14.52 
z
" style="fill: #ffffff"/>
   </g>
   <g id="matplotlib.axis_1">
    <g id="xtick_1">
     <g id="line2d_1">
      <defs>
       <path id="m5759bf60f4" d="M 0 0 
L 0 3.5 
" style="stroke: #000000; stroke-width: 0.8"/>
      </defs>
      <g>
       <use xlink:href="#m5759bf60f4" x="44.138477" y="188.6" style="stroke: #000000; stroke-width: 0.8"/>
      </g>
     </g>
     <g id="text_1">
      <!-- 0 -->
      <g transform="translate(40.957227 203.198437) scale(0.1 -0.1)">
       <defs>
        <path id="DejaVuSans-30" d="M 2034 4250 
Q 1547 4250 1301 3770 
Q 1056 3291 1056 2328 
Q 1056 1369 1301 889 
Q 1547 409 2034 409 
Q 2525 409 2770 889 
Q 3016 1369 3016 2328 
Q 3016 3291 2770 3770 
Q 2525 4250 2034 4250 
z
M 2034 4750 
Q 2819 4750 3233 4129 
Q 3647 3509 3647 2328 
Q 3647 1150 3233 529 
Q 2819 -91 2034 -91 
Q 1250 -91 836 529 
Q 422 1150 422 2328 
Q 422 3509 836 4129 
Q 1250 4750 2034 4750 
z
" transform="scale(0.015625)"/>
       </defs>
       <use xlink:href="#DejaVuSans-30"/>
      </g>
     </g>
    </g>
    <g id="xtick_2">
     <g id="line2d_2">
      <g>
       <use xlink:href="#m5759bf60f4" x="87.073086" y="188.6" style="stroke: #000000; stroke-width: 0.8"/>
      </g>
     </g>
     <g id="text_2">
      <!-- 200 -->
      <g transform="translate(77.529336 203.198437) scale(0.1 -0.1)">
       <defs>
        <path id="DejaVuSans-32" d="M 1228 531 
L 3431 531 
L 3431 0 
L 469 0 
L 469 531 
Q 828 903 1448 1529 
Q 2069 2156 2228 2338 
Q 2531 2678 2651 2914 
Q 2772 3150 2772 3378 
Q 2772 3750 2511 3984 
Q 2250 4219 1831 4219 
Q 1534 4219 1204 4116 
Q 875 4013 500 3803 
L 500 4441 
Q 881 4594 1212 4672 
Q 1544 4750 1819 4750 
Q 2544 4750 2975 4387 
Q 3406 4025 3406 3419 
Q 3406 3131 3298 2873 
Q 3191 2616 2906 2266 
Q 2828 2175 2409 1742 
Q 1991 1309 1228 531 
z
" transform="scale(0.015625)"/>
       </defs>
       <use xlink:href="#DejaVuSans-32"/>
       <use xlink:href="#DejaVuSans-30" transform="translate(63.623047 0)"/>
       <use xlink:href="#DejaVuSans-30" transform="translate(127.246094 0)"/>
      </g>
     </g>
    </g>
    <g id="xtick_3">
     <g id="line2d_3">
      <g>
       <use xlink:href="#m5759bf60f4" x="130.007695" y="188.6" style="stroke: #000000; stroke-width: 0.8"/>
      </g>
     </g>
     <g id="text_3">
      <!-- 400 -->
      <g transform="translate(120.463945 203.198437) scale(0.1 -0.1)">
       <defs>
        <path id="DejaVuSans-34" d="M 2419 4116 
L 825 1625 
L 2419 1625 
L 2419 4116 
z
M 2253 4666 
L 3047 4666 
L 3047 1625 
L 3713 1625 
L 3713 1100 
L 3047 1100 
L 3047 0 
L 2419 0 
L 2419 1100 
L 313 1100 
L 313 1709 
L 2253 4666 
z
" transform="scale(0.015625)"/>
       </defs>
       <use xlink:href="#DejaVuSans-34"/>
       <use xlink:href="#DejaVuSans-30" transform="translate(63.623047 0)"/>
       <use xlink:href="#DejaVuSans-30" transform="translate(127.246094 0)"/>
      </g>
     </g>
    </g>
    <g id="xtick_4">
     <g id="line2d_4">
      <g>
       <use xlink:href="#m5759bf60f4" x="172.942305" y="188.6" style="stroke: #000000; stroke-width: 0.8"/>
      </g>
     </g>
     <g id="text_4">
      <!-- 600 -->
      <g transform="translate(163.398555 203.198437) scale(0.1 -0.1)">
       <defs>
        <path id="DejaVuSans-36" d="M 2113 2584 
Q 1688 2584 1439 2293 
Q 1191 2003 1191 1497 
Q 1191 994 1439 701 
Q 1688 409 2113 409 
Q 2538 409 2786 701 
Q 3034 994 3034 1497 
Q 3034 2003 2786 2293 
Q 2538 2584 2113 2584 
z
M 3366 4563 
L 3366 3988 
Q 3128 4100 2886 4159 
Q 2644 4219 2406 4219 
Q 1781 4219 1451 3797 
Q 1122 3375 1075 2522 
Q 1259 2794 1537 2939 
Q 1816 3084 2150 3084 
Q 2853 3084 3261 2657 
Q 3669 2231 3669 1497 
Q 3669 778 3244 343 
Q 2819 -91 2113 -91 
Q 1303 -91 875 529 
Q 447 1150 447 2328 
Q 447 3434 972 4092 
Q 1497 4750 2381 4750 
Q 2619 4750 2861 4703 
Q 3103 4656 3366 4563 
z
" transform="scale(0.015625)"/>
       </defs>
       <use xlink:href="#DejaVuSans-36"/>
       <use xlink:href="#DejaVuSans-30" transform="translate(63.623047 0)"/>
       <use xlink:href="#DejaVuSans-30" transform="translate(127.246094 0)"/>
      </g>
     </g>
    </g>
    <g id="xtick_5">
     <g id="line2d_5">
      <g>
       <use xlink:href="#m5759bf60f4" x="215.876914" y="188.6" style="stroke: #000000; stroke-width: 0.8"/>
      </g>
     </g>
     <g id="text_5">
      <!-- 800 -->
      <g transform="translate(206.333164 203.198437) scale(0.1 -0.1)">
       <defs>
        <path id="DejaVuSans-38" d="M 2034 2216 
Q 1584 2216 1326 1975 
Q 1069 1734 1069 1313 
Q 1069 891 1326 650 
Q 1584 409 2034 409 
Q 2484 409 2743 651 
Q 3003 894 3003 1313 
Q 3003 1734 2745 1975 
Q 2488 2216 2034 2216 
z
M 1403 2484 
Q 997 2584 770 2862 
Q 544 3141 544 3541 
Q 544 4100 942 4425 
Q 1341 4750 2034 4750 
Q 2731 4750 3128 4425 
Q 3525 4100 3525 3541 
Q 3525 3141 3298 2862 
Q 3072 2584 2669 2484 
Q 3125 2378 3379 2068 
Q 3634 1759 3634 1313 
Q 3634 634 3220 271 
Q 2806 -91 2034 -91 
Q 1263 -91 848 271 
Q 434 634 434 1313 
Q 434 1759 690 2068 
Q 947 2378 1403 2484 
z
M 1172 3481 
Q 1172 3119 1398 2916 
Q 1625 2713 2034 2713 
Q 2441 2713 2670 2916 
Q 2900 3119 2900 3481 
Q 2900 3844 2670 4047 
Q 2441 4250 2034 4250 
Q 1625 4250 1398 4047 
Q 1172 3844 1172 3481 
z
" transform="scale(0.015625)"/>
       </defs>
       <use xlink:href="#DejaVuSans-38"/>
       <use xlink:href="#DejaVuSans-30" transform="translate(63.623047 0)"/>
       <use xlink:href="#DejaVuSans-30" transform="translate(127.246094 0)"/>
      </g>
     </g>
    </g>
    <g id="xtick_6">
     <g id="line2d_6">
      <g>
       <use xlink:href="#m5759bf60f4" x="258.811523" y="188.6" style="stroke: #000000; stroke-width: 0.8"/>
      </g>
     </g>
     <g id="text_6">
      <!-- 1000 -->
      <g transform="translate(246.086523 203.198437) scale(0.1 -0.1)">
       <defs>
        <path id="DejaVuSans-31" d="M 794 531 
L 1825 531 
L 1825 4091 
L 703 3866 
L 703 4441 
L 1819 4666 
L 2450 4666 
L 2450 531 
L 3481 531 
L 3481 0 
L 794 0 
L 794 531 
z
" transform="scale(0.015625)"/>
       </defs>
       <use xlink:href="#DejaVuSans-31"/>
       <use xlink:href="#DejaVuSans-30" transform="translate(63.623047 0)"/>
       <use xlink:href="#DejaVuSans-30" transform="translate(127.246094 0)"/>
       <use xlink:href="#DejaVuSans-30" transform="translate(190.869141 0)"/>
      </g>
     </g>
    </g>
    <g id="text_7">
     <!-- q (nm) -->
     <g transform="translate(134.771094 216.876563) scale(0.1 -0.1)">
      <defs>
       <path id="DejaVuSans-71" d="M 947 1747 
Q 947 1113 1208 752 
Q 1469 391 1925 391 
Q 2381 391 2643 752 
Q 2906 1113 2906 1747 
Q 2906 2381 2643 2742 
Q 2381 3103 1925 3103 
Q 1469 3103 1208 2742 
Q 947 2381 947 1747 
z
M 2906 525 
Q 2725 213 2448 61 
Q 2172 -91 1784 -91 
Q 1150 -91 751 415 
Q 353 922 353 1747 
Q 353 2572 751 3078 
Q 1150 3584 1784 3584 
Q 2172 3584 2448 3432 
Q 2725 3281 2906 2969 
L 2906 3500 
L 3481 3500 
L 3481 -1331 
L 2906 -1331 
L 2906 525 
z
" transform="scale(0.015625)"/>
       <path id="DejaVuSans-20" transform="scale(0.015625)"/>
       <path id="DejaVuSans-28" d="M 1984 4856 
Q 1566 4138 1362 3434 
Q 1159 2731 1159 2009 
Q 1159 1288 1364 580 
Q 1569 -128 1984 -844 
L 1484 -844 
Q 1016 -109 783 600 
Q 550 1309 550 2009 
Q 550 2706 781 3412 
Q 1013 4119 1484 4856 
L 1984 4856 
z
" transform="scale(0.015625)"/>
       <path id="DejaVuSans-6e" d="M 3513 2113 
L 3513 0 
L 2938 0 
L 2938 2094 
Q 2938 2591 2744 2837 
Q 2550 3084 2163 3084 
Q 1697 3084 1428 2787 
Q 1159 2491 1159 1978 
L 1159 0 
L 581 0 
L 581 3500 
L 1159 3500 
L 1159 2956 
Q 1366 3272 1645 3428 
Q 1925 3584 2291 3584 
Q 2894 3584 3203 3211 
Q 3513 2838 3513 2113 
z
" transform="scale(0.015625)"/>
       <path id="DejaVuSans-6d" d="M 3328 2828 
Q 3544 3216 3844 3400 
Q 4144 3584 4550 3584 
Q 5097 3584 5394 3201 
Q 5691 2819 5691 2113 
L 5691 0 
L 5113 0 
L 5113 2094 
Q 5113 2597 4934 2840 
Q 4756 3084 4391 3084 
Q 3944 3084 3684 2787 
Q 3425 2491 3425 1978 
L 3425 0 
L 2847 0 
L 2847 2094 
Q 2847 2600 2669 2842 
Q 2491 3084 2119 3084 
Q 1678 3084 1418 2786 
Q 1159 2488 1159 1978 
L 1159 0 
L 581 0 
L 581 3500 
L 1159 3500 
L 1159 2956 
Q 1356 3278 1631 3431 
Q 1906 3584 2284 3584 
Q 2666 3584 2933 3390 
Q 3200 3197 3328 2828 
z
" transform="scale(0.015625)"/>
       <path id="DejaVuSans-29" d="M 513 4856 
L 1013 4856 
Q 1481 4119 1714 3412 
Q 1947 2706 1947 2009 
Q 1947 1309 1714 600 
Q 1481 -109 1013 -844 
L 513 -844 
Q 928 -128 1133 580 
Q 1338 1288 1338 2009 
Q 1338 2731 1133 3434 
Q 928 4138 513 4856 
z
" transform="scale(0.015625)"/>
      </defs>
      <use xlink:href="#DejaVuSans-71"/>
      <use xlink:href="#DejaVuSans-20" transform="translate(63.476562 0)"/>
      <use xlink:href="#DejaVuSans-28" transform="translate(95.263672 0)"/>
      <use xlink:href="#DejaVuSans-6e" transform="translate(134.277344 0)"/>
      <use xlink:href="#DejaVuSans-6d" transform="translate(197.65625 0)"/>
      <use xlink:href="#DejaVuSans-29" transform="translate(295.068359 0)"/>
     </g>
    </g>
   </g>
   <g id="matplotlib.axis_2">
    <g id="ytick_1">
     <g id="line2d_7">
      <defs>
       <path id="m15a90f0713" d="M 0 0 
L -3.5 0 
" style="stroke: #000000; stroke-width: 0.8"/>
      </defs>
      <g>
       <use xlink:href="#m15a90f0713" x="33.7" y="180.687273" style="stroke: #000000; stroke-width: 0.8"/>
      </g>
     </g>
     <g id="text_8">
      <!-- 0 -->
      <g transform="translate(20.3375 184.486491) scale(0.1 -0.1)">
       <use xlink:href="#DejaVuSans-30"/>
      </g>
     </g>
    </g>
    <g id="ytick_2">
     <g id="line2d_8">
      <g>
       <use xlink:href="#m15a90f0713" x="33.7" y="145.805391" style="stroke: #000000; stroke-width: 0.8"/>
      </g>
     </g>
     <g id="text_9">
      <!-- 10000 -->
      <g transform="translate(-5.1125 149.60461) scale(0.1 -0.1)">
       <use xlink:href="#DejaVuSans-31"/>
       <use xlink:href="#DejaVuSans-30" transform="translate(63.623047 0)"/>
       <use xlink:href="#DejaVuSans-30" transform="translate(127.246094 0)"/>
       <use xlink:href="#DejaVuSans-30" transform="translate(190.869141 0)"/>
       <use xlink:href="#DejaVuSans-30" transform="translate(254.492188 0)"/>
      </g>
     </g>
    </g>
    <g id="ytick_3">
     <g id="line2d_9">
      <g>
       <use xlink:href="#m15a90f0713" x="33.7" y="110.92351" style="stroke: #000000; stroke-width: 0.8"/>
      </g>
     </g>
     <g id="text_10">
      <!-- 20000 -->
      <g transform="translate(-5.1125 114.722728) scale(0.1 -0.1)">
       <use xlink:href="#DejaVuSans-32"/>
       <use xlink:href="#DejaVuSans-30" transform="translate(63.623047 0)"/>
       <use xlink:href="#DejaVuSans-30" transform="translate(127.246094 0)"/>
       <use xlink:href="#DejaVuSans-30" transform="translate(190.869141 0)"/>
       <use xlink:href="#DejaVuSans-30" transform="translate(254.492188 0)"/>
      </g>
     </g>
    </g>
    <g id="ytick_4">
     <g id="line2d_10">
      <g>
       <use xlink:href="#m15a90f0713" x="33.7" y="76.041628" style="stroke: #000000; stroke-width: 0.8"/>
      </g>
     </g>
     <g id="text_11">
      <!-- 30000 -->
      <g transform="translate(-5.1125 79.840847) scale(0.1 -0.1)">
       <defs>
        <path id="DejaVuSans-33" d="M 2597 2516 
Q 3050 2419 3304 2112 
Q 3559 1806 3559 1356 
Q 3559 666 3084 287 
Q 2609 -91 1734 -91 
Q 1441 -91 1130 -33 
Q 819 25 488 141 
L 488 750 
Q 750 597 1062 519 
Q 1375 441 1716 441 
Q 2309 441 2620 675 
Q 2931 909 2931 1356 
Q 2931 1769 2642 2001 
Q 2353 2234 1838 2234 
L 1294 2234 
L 1294 2753 
L 1863 2753 
Q 2328 2753 2575 2939 
Q 2822 3125 2822 3475 
Q 2822 3834 2567 4026 
Q 2313 4219 1838 4219 
Q 1578 4219 1281 4162 
Q 984 4106 628 3988 
L 628 4550 
Q 988 4650 1302 4700 
Q 1616 4750 1894 4750 
Q 2613 4750 3031 4423 
Q 3450 4097 3450 3541 
Q 3450 3153 3228 2886 
Q 3006 2619 2597 2516 
z
" transform="scale(0.015625)"/>
       </defs>
       <use xlink:href="#DejaVuSans-33"/>
       <use xlink:href="#DejaVuSans-30" transform="translate(63.623047 0)"/>
       <use xlink:href="#DejaVuSans-30" transform="translate(127.246094 0)"/>
       <use xlink:href="#DejaVuSans-30" transform="translate(190.869141 0)"/>
       <use xlink:href="#DejaVuSans-30" transform="translate(254.492188 0)"/>
      </g>
     </g>
    </g>
    <g id="ytick_5">
     <g id="line2d_11">
      <g>
       <use xlink:href="#m15a90f0713" x="33.7" y="41.159747" style="stroke: #000000; stroke-width: 0.8"/>
      </g>
     </g>
     <g id="text_12">
      <!-- 40000 -->
      <g transform="translate(-5.1125 44.958965) scale(0.1 -0.1)">
       <use xlink:href="#DejaVuSans-34"/>
       <use xlink:href="#DejaVuSans-30" transform="translate(63.623047 0)"/>
       <use xlink:href="#DejaVuSans-30" transform="translate(127.246094 0)"/>
       <use xlink:href="#DejaVuSans-30" transform="translate(190.869141 0)"/>
       <use xlink:href="#DejaVuSans-30" transform="translate(254.492188 0)"/>
      </g>
     </g>
    </g>
    <g id="text_13">
     <!-- rdf -->
     <g transform="translate(-11.192187 108.462344) rotate(-90) scale(0.1 -0.1)">
      <defs>
       <path id="DejaVuSans-72" d="M 2631 2963 
Q 2534 3019 2420 3045 
Q 2306 3072 2169 3072 
Q 1681 3072 1420 2755 
Q 1159 2438 1159 1844 
L 1159 0 
L 581 0 
L 581 3500 
L 1159 3500 
L 1159 2956 
Q 1341 3275 1631 3429 
Q 1922 3584 2338 3584 
Q 2397 3584 2469 3576 
Q 2541 3569 2628 3553 
L 2631 2963 
z
" transform="scale(0.015625)"/>
       <path id="DejaVuSans-64" d="M 2906 2969 
L 2906 4863 
L 3481 4863 
L 3481 0 
L 2906 0 
L 2906 525 
Q 2725 213 2448 61 
Q 2172 -91 1784 -91 
Q 1150 -91 751 415 
Q 353 922 353 1747 
Q 353 2572 751 3078 
Q 1150 3584 1784 3584 
Q 2172 3584 2448 3432 
Q 2725 3281 2906 2969 
z
M 947 1747 
Q 947 1113 1208 752 
Q 1469 391 1925 391 
Q 2381 391 2643 752 
Q 2906 1113 2906 1747 
Q 2906 2381 2643 2742 
Q 2381 3103 1925 3103 
Q 1469 3103 1208 2742 
Q 947 2381 947 1747 
z
" transform="scale(0.015625)"/>
       <path id="DejaVuSans-66" d="M 2375 4863 
L 2375 4384 
L 1825 4384 
Q 1516 4384 1395 4259 
Q 1275 4134 1275 3809 
L 1275 3500 
L 2222 3500 
L 2222 3053 
L 1275 3053 
L 1275 0 
L 697 0 
L 697 3053 
L 147 3053 
L 147 3500 
L 697 3500 
L 697 3744 
Q 697 4328 969 4595 
Q 1241 4863 1831 4863 
L 2375 4863 
z
" transform="scale(0.015625)"/>
      </defs>
      <use xlink:href="#DejaVuSans-72"/>
      <use xlink:href="#DejaVuSans-64" transform="translate(39.363281 0)"/>
      <use xlink:href="#DejaVuSans-66" transform="translate(102.839844 0)"/>
     </g>
    </g>
   </g>
   <g id="line2d_12">
    <path d="M 44.406818 180.687273 
L 92.171571 180.687273 
L 92.708254 180.482337 
L 93.244936 180.687273 
L 93.781619 180.098763 
L 94.318301 180.30328 
L 94.854984 179.559546 
L 95.391667 164.307833 
L 95.928349 22.432727 
L 96.465032 146.610004 
L 97.001715 171.691317 
L 97.538397 175.601093 
L 98.07508 176.034172 
L 98.611762 177.428797 
L 99.148445 177.012785 
L 99.685128 178.023572 
L 100.22181 177.305792 
L 100.758493 177.218792 
L 101.295175 177.727578 
L 101.831858 177.491896 
L 102.368541 177.6931 
L 102.905223 178.027513 
L 103.441906 176.838242 
L 103.978589 176.771971 
L 104.515271 177.106506 
L 105.051954 177.299617 
L 106.125319 176.535176 
L 106.662002 176.35881 
L 107.198684 176.553741 
L 107.735367 175.427897 
L 108.272049 176.808484 
L 109.345415 176.594032 
L 109.882097 176.996147 
L 110.955463 175.706039 
L 111.492145 177.916482 
L 112.028828 178.065003 
L 112.56551 177.073462 
L 113.102193 177.231139 
L 113.638876 177.984918 
L 114.175558 176.646352 
L 114.712241 176.222253 
L 115.248923 176.576204 
L 115.785606 177.48518 
L 116.322289 177.53261 
L 116.858971 176.664805 
L 117.395654 177.98472 
L 117.932337 177.846323 
L 118.469019 178.149713 
L 119.005702 176.978435 
L 119.542384 177.796296 
L 120.079067 176.160391 
L 121.152432 177.426839 
L 121.689115 177.230656 
L 122.225797 177.833008 
L 122.76248 177.011568 
L 123.299163 177.061234 
L 123.835845 176.805449 
L 124.909211 178.019502 
L 125.445893 177.396444 
L 125.982576 178.08902 
L 126.519258 177.196692 
L 127.055941 177.80427 
L 127.592624 177.077652 
L 128.129306 176.918042 
L 128.665989 177.371732 
L 129.202671 177.012561 
L 129.739354 177.520343 
L 130.276037 176.973259 
L 130.812719 177.855708 
L 131.349402 177.254813 
L 131.886085 177.422252 
L 132.95945 177.439395 
L 133.496132 177.115015 
L 134.032815 177.097728 
L 134.569498 176.903727 
L 135.10618 177.240357 
L 135.642863 177.338407 
L 136.179545 176.064789 
L 137.252911 175.668891 
L 137.789593 176.387735 
L 138.326276 176.109615 
L 138.862959 175.514769 
L 139.399641 175.839266 
L 139.936324 175.63002 
L 140.473006 175.790409 
L 141.009689 175.329331 
L 141.546372 174.572981 
L 142.083054 175.345328 
L 142.619737 174.456289 
L 143.156419 174.523646 
L 144.229785 173.786508 
L 144.766467 175.005762 
L 145.30315 174.546263 
L 145.839833 174.330465 
L 146.376515 173.980765 
L 146.913198 173.959073 
L 147.44988 173.439949 
L 147.986563 176.069904 
L 148.523246 176.427838 
L 149.059928 176.954383 
L 149.596611 176.861873 
L 150.133293 177.287798 
L 150.669976 176.469981 
L 152.280024 177.62812 
L 152.816707 177.289869 
L 153.353389 177.404233 
L 154.426754 177.944785 
L 154.963437 177.420203 
L 157.110167 177.315921 
L 157.64685 177.948082 
L 158.183533 177.416258 
L 158.720215 177.26271 
L 159.256898 177.513451 
L 159.793581 177.109119 
L 160.330263 177.321138 
L 161.403628 177.347323 
L 161.940311 177.098987 
L 162.476994 177.511191 
L 163.550359 177.330716 
L 164.087041 177.495094 
L 164.623724 177.157127 
L 165.160407 177.584474 
L 165.697089 176.957448 
L 166.233772 177.671208 
L 167.307137 177.149938 
L 167.84382 177.24374 
L 168.380502 176.928914 
L 168.917185 177.457984 
L 169.453868 177.054591 
L 169.99055 177.238112 
L 170.527233 177.267352 
L 171.063915 177.086134 
L 171.600598 176.580771 
L 172.137281 177.028249 
L 173.747329 177.14738 
L 174.284011 177.775916 
L 174.820694 176.695742 
L 175.357376 177.009102 
L 175.894059 177.456741 
L 176.430742 176.654187 
L 176.967424 176.960715 
L 177.504107 177.914802 
L 178.040789 176.939328 
L 178.577472 176.567961 
L 179.114155 177.051771 
L 179.650837 176.6856 
L 180.18752 176.769351 
L 180.724203 177.551613 
L 181.260885 177.190426 
L 181.797568 177.600318 
L 182.33425 176.51042 
L 182.870933 177.170641 
L 183.407616 176.275457 
L 183.944298 177.174974 
L 184.480981 176.931775 
L 185.017663 176.96035 
L 185.554346 177.327026 
L 186.091029 176.800552 
L 186.627711 176.925021 
L 187.164394 176.315116 
L 187.701077 177.239094 
L 188.237759 176.938769 
L 188.774442 176.458112 
L 189.311124 176.626965 
L 189.847807 177.112241 
L 190.38449 176.844581 
L 190.921172 176.984822 
L 191.457855 176.588497 
L 191.994537 177.016275 
L 192.53122 176.186549 
L 193.067903 176.851026 
L 193.604585 177.311346 
L 194.141268 176.561953 
L 194.677951 177.508641 
L 195.214633 177.531195 
L 195.751316 177.174912 
L 196.287998 177.888814 
L 197.361364 177.495439 
L 197.898046 177.681271 
L 198.434729 177.519403 
L 198.971411 177.52115 
L 200.044777 177.36571 
L 200.581459 178.000807 
L 201.654825 177.472222 
L 202.191507 177.74561 
L 204.338238 177.277618 
L 204.87492 177.805581 
L 205.411603 177.471556 
L 206.484968 177.917496 
L 208.095016 177.450066 
L 208.631699 177.489031 
L 209.168381 177.758312 
L 209.705064 177.51273 
L 210.778429 177.762402 
L 211.315112 177.573572 
L 211.851794 177.885665 
L 212.388477 177.95475 
L 212.925159 177.564807 
L 214.535207 177.523632 
L 215.07189 177.493839 
L 215.608573 177.579572 
L 216.145255 177.484546 
L 216.681938 177.894179 
L 217.21862 177.395038 
L 217.755303 177.848408 
L 218.828668 177.281177 
L 220.438716 177.887508 
L 220.975399 177.394311 
L 222.585447 177.772274 
L 223.658812 177.71704 
L 224.195494 177.421567 
L 224.732177 177.826344 
L 225.26886 177.843267 
L 226.342225 177.468926 
L 226.878907 177.878693 
L 227.41559 177.434565 
L 227.952273 177.868472 
L 228.488955 177.756822 
L 229.025638 178.183963 
L 230.099003 177.751415 
L 230.635686 177.4208 
L 231.172368 177.881784 
L 231.709051 177.499298 
L 232.782416 177.739249 
L 233.319099 177.229141 
L 233.855781 178.135192 
L 234.392464 177.268058 
L 234.929147 177.858353 
L 235.465829 178.09871 
L 236.002512 177.732316 
L 236.539195 177.774903 
L 237.075877 177.985881 
L 237.61256 177.703805 
L 238.149242 177.835879 
L 239.75929 177.857358 
L 241.369338 177.592666 
L 241.906021 178.202762 
L 242.442703 177.662972 
L 242.979386 177.948279 
L 243.516069 178.023808 
L 244.052751 177.638905 
L 244.589434 177.859756 
L 245.126116 178.449281 
L 245.662799 177.925507 
L 247.272847 177.79337 
L 247.80953 178.006714 
L 249.95626 178.233538 
L 250.492943 178.121397 
L 251.029625 177.728099 
L 251.566308 178.181591 
L 252.10299 178.049186 
L 253.176356 178.242164 
L 253.713038 178.188627 
L 254.249721 177.982359 
L 254.786404 178.115973 
L 255.323086 178.074831 
L 255.859769 178.454751 
L 256.396451 178.133377 
L 256.933134 178.018116 
L 257.469817 178.127131 
L 258.006499 178.457062 
L 258.543182 178.16323 
L 258.543182 178.16323 
" clip-path="url(#p6ba2440d13)" style="fill: none; stroke: #000000; stroke-opacity: 0.5; stroke-width: 0.5; stroke-linecap: square"/>
   </g>
   <g id="line2d_13">
    <path d="M 44.406818 180.687273 
L 92.171571 180.687273 
L 92.708254 180.059656 
L 93.244936 180.687273 
L 93.781619 178.884961 
L 94.318301 179.511296 
L 94.854984 177.23361 
L 95.391667 173.923851 
L 95.928349 176.271286 
L 96.465032 174.198465 
L 97.001715 171.150693 
L 97.538397 173.418274 
L 98.07508 173.562211 
L 98.611762 172.704007 
L 99.148445 172.369749 
L 99.685128 174.928977 
L 100.22181 173.626509 
L 100.758493 171.912392 
L 101.295175 173.43602 
L 101.831858 174.015107 
L 102.368541 174.137518 
L 102.905223 176.400159 
L 103.441906 174.372455 
L 103.978589 174.071762 
L 104.515271 174.594995 
L 105.051954 175.499925 
L 105.588636 175.198062 
L 106.125319 174.522037 
L 106.662002 175.006165 
L 107.735367 172.267787 
L 108.272049 176.007748 
L 108.808732 175.731085 
L 109.345415 174.419497 
L 109.882097 178.289439 
L 110.41878 173.609791 
L 110.955463 172.728127 
L 111.492145 176.770866 
L 112.028828 175.868851 
L 112.56551 176.892771 
L 113.102193 176.951598 
L 113.638876 177.622101 
L 114.175558 175.556042 
L 114.712241 174.742001 
L 115.248923 174.538594 
L 115.785606 177.514611 
L 116.322289 175.572542 
L 116.858971 177.887543 
L 117.395654 177.652531 
L 117.932337 176.337069 
L 118.469019 177.739547 
L 119.005702 176.989215 
L 119.542384 176.520865 
L 120.079067 176.836279 
L 120.61575 178.408989 
L 121.152432 175.694734 
L 121.689115 176.502154 
L 122.225797 176.55949 
L 122.76248 175.178602 
L 123.299163 176.670664 
L 123.835845 175.325979 
L 124.372528 177.007401 
L 124.909211 176.148357 
L 125.445893 176.879966 
L 125.982576 178.919017 
L 126.519258 176.324046 
L 127.055941 176.811039 
L 127.592624 175.797797 
L 128.129306 177.329231 
L 128.665989 176.957289 
L 129.202671 177.208824 
L 130.276037 178.093164 
L 130.812719 177.336855 
L 131.349402 178.156628 
L 131.886085 177.802909 
L 132.422767 177.647906 
L 132.95945 176.933829 
L 133.496132 177.535058 
L 134.569498 175.436863 
L 135.10618 177.108906 
L 135.642863 176.620276 
L 137.252911 173.17364 
L 137.789593 175.4541 
L 138.326276 174.679096 
L 138.862959 173.591917 
L 139.399641 176.60842 
L 141.009689 174.849563 
L 141.546372 171.94893 
L 142.083054 174.513797 
L 142.619737 173.664954 
L 143.693102 174.861255 
L 144.229785 174.332416 
L 145.30315 175.479223 
L 145.839833 173.816311 
L 146.376515 175.021429 
L 146.913198 176.76249 
L 147.44988 172.919046 
L 147.986563 178.902525 
L 148.523246 179.192588 
L 149.059928 177.997396 
L 149.596611 178.557221 
L 150.133293 179.896572 
L 150.669976 177.94763 
L 151.206659 179.266573 
L 151.743341 178.129885 
L 152.280024 179.421238 
L 153.353389 178.577109 
L 153.890072 178.720615 
L 154.426754 179.348323 
L 154.963437 177.914692 
L 155.50012 178.299528 
L 156.036802 178.913595 
L 156.573485 178.22778 
L 157.110167 178.715126 
L 157.64685 178.733723 
L 158.183533 178.865912 
L 158.720215 178.54462 
L 159.256898 178.564551 
L 159.793581 176.70251 
L 160.330263 178.16491 
L 160.866946 177.970733 
L 161.403628 178.318545 
L 161.940311 178.446771 
L 162.476994 177.621232 
L 163.550359 177.468453 
L 164.087041 176.982665 
L 164.623724 177.627535 
L 165.160407 178.564414 
L 165.697089 176.879743 
L 166.233772 178.402927 
L 166.770455 177.930634 
L 167.307137 178.344983 
L 167.84382 178.171756 
L 168.380502 177.138364 
L 168.917185 176.978636 
L 169.453868 177.76458 
L 169.99055 177.41553 
L 170.527233 176.516407 
L 171.063915 177.103014 
L 171.600598 176.039561 
L 172.137281 177.343618 
L 173.210646 177.665621 
L 173.747329 176.897356 
L 174.284011 177.715263 
L 174.820694 175.572239 
L 175.357376 176.989798 
L 175.894059 176.081676 
L 176.430742 177.049553 
L 176.967424 176.155805 
L 177.504107 177.440832 
L 178.040789 176.145586 
L 178.577472 175.854102 
L 179.114155 176.705138 
L 179.650837 176.172227 
L 180.18752 176.127791 
L 180.724203 177.354014 
L 181.260885 176.828849 
L 181.797568 177.718311 
L 182.33425 176.268352 
L 182.870933 177.225588 
L 183.407616 176.030875 
L 185.017663 177.106503 
L 185.554346 176.985562 
L 186.091029 176.205247 
L 186.627711 177.697413 
L 187.164394 176.344656 
L 187.701077 176.951745 
L 189.311124 176.612627 
L 189.847807 177.33995 
L 190.38449 176.949124 
L 190.921172 177.594885 
L 192.53122 176.182433 
L 193.604585 177.174739 
L 194.141268 177.068217 
L 194.677951 177.616639 
L 195.214633 177.44382 
L 195.751316 177.144678 
L 196.287998 177.745236 
L 196.824681 177.194302 
L 197.361364 177.029534 
L 197.898046 177.117645 
L 198.434729 177.515595 
L 198.971411 177.722814 
L 199.508094 176.884598 
L 200.044777 177.276206 
L 200.581459 178.569952 
L 201.654825 177.226222 
L 202.191507 177.901644 
L 202.72819 177.567266 
L 203.264872 177.763682 
L 203.801555 177.434824 
L 204.338238 177.341196 
L 204.87492 177.936566 
L 205.411603 177.954843 
L 205.948285 178.086033 
L 206.484968 177.653816 
L 207.021651 178.120207 
L 208.095016 177.823243 
L 208.631699 177.896627 
L 209.168381 177.479839 
L 209.705064 177.608627 
L 210.778429 178.3946 
L 211.851794 178.581769 
L 212.388477 178.124465 
L 212.925159 178.088753 
L 213.461842 177.846996 
L 213.998525 178.532018 
L 214.535207 178.392592 
L 215.07189 177.748238 
L 215.608573 178.57231 
L 216.145255 177.984972 
L 216.681938 177.952029 
L 217.21862 178.067807 
L 217.755303 178.034859 
L 218.291986 177.758288 
L 219.365351 178.179827 
L 219.902033 178.051334 
L 220.438716 178.210258 
L 220.975399 178.035897 
L 221.512081 177.675412 
L 222.048764 177.974239 
L 222.585447 177.990519 
L 223.122129 177.775576 
L 223.658812 178.344276 
L 224.195494 177.399199 
L 224.732177 178.190445 
L 225.26886 177.844188 
L 225.805542 178.130149 
L 226.342225 177.788394 
L 226.878907 178.115757 
L 227.41559 177.557801 
L 227.952273 178.145702 
L 228.488955 177.811945 
L 229.562321 178.189646 
L 230.099003 177.989953 
L 230.635686 178.048032 
L 231.172368 178.23247 
L 231.709051 177.404827 
L 232.245734 177.088811 
L 232.782416 177.816515 
L 233.319099 177.625947 
L 233.855781 178.260277 
L 234.392464 177.455881 
L 234.929147 177.514698 
L 235.465829 178.139156 
L 236.002512 177.670754 
L 236.539195 177.367596 
L 237.075877 178.221279 
L 237.61256 177.918524 
L 238.685925 177.949003 
L 239.222608 178.080754 
L 239.75929 178.017646 
L 240.295973 177.801355 
L 240.832656 177.28133 
L 241.369338 177.794623 
L 241.906021 178.113146 
L 242.442703 178.089417 
L 242.979386 177.878733 
L 243.516069 178.042811 
L 244.589434 177.592043 
L 245.126116 178.268267 
L 245.662799 177.734296 
L 246.199482 178.076323 
L 246.736164 177.837624 
L 247.272847 178.067968 
L 247.80953 178.081741 
L 248.346212 178.521489 
L 249.419577 178.438669 
L 249.95626 177.75135 
L 250.492943 177.870911 
L 251.029625 177.332083 
L 251.566308 178.140859 
L 252.10299 177.914347 
L 252.639673 177.996713 
L 253.176356 178.450994 
L 254.249721 177.937186 
L 254.786404 178.251484 
L 255.859769 178.507328 
L 256.396451 178.222575 
L 256.933134 178.333076 
L 258.006499 177.871102 
L 258.543182 178.593763 
L 258.543182 178.593763 
" clip-path="url(#p6ba2440d13)" style="fill: none; stroke: #0000ff; stroke-opacity: 0.5; stroke-linecap: square"/>
   </g>
   <g id="line2d_14">
    <path d="M 44.406818 180.687273 
L 100.22181 180.687273 
L 100.758493 179.866231 
L 101.295175 179.881578 
L 101.831858 177.524173 
L 102.368541 177.582204 
L 102.905223 174.590046 
L 103.441906 173.203046 
L 103.978589 175.541876 
L 104.515271 175.63294 
L 105.051954 174.302845 
L 105.588636 172.322763 
L 106.125319 171.781933 
L 106.662002 169.914211 
L 107.198684 174.730124 
L 107.735367 171.576334 
L 108.272049 171.728184 
L 108.808732 171.246916 
L 109.345415 173.877839 
L 109.882097 170.33472 
L 110.41878 172.299148 
L 110.955463 171.254211 
L 112.028828 177.831912 
L 112.56551 170.006455 
L 113.102193 171.83234 
L 113.638876 174.148241 
L 114.175558 170.491888 
L 114.712241 172.760245 
L 115.785606 172.995971 
L 116.322289 174.120212 
L 116.858971 170.73268 
L 117.395654 176.273103 
L 117.932337 174.887001 
L 118.469019 174.970473 
L 119.005702 171.295382 
L 119.542384 176.520865 
L 120.079067 166.538438 
L 120.61575 169.886524 
L 121.152432 175.361899 
L 121.689115 174.560041 
L 122.225797 175.938974 
L 122.76248 175.151991 
L 123.299163 172.286523 
L 123.835845 174.056882 
L 124.372528 171.692032 
L 124.909211 176.652682 
L 125.445893 175.909477 
L 125.982576 174.793088 
L 126.519258 174.093953 
L 127.055941 175.327543 
L 127.592624 176.152108 
L 128.129306 175.836768 
L 128.665989 176.634945 
L 129.202671 172.684568 
L 130.276037 176.785024 
L 130.812719 176.132457 
L 131.349402 174.804065 
L 131.886085 175.217665 
L 132.422767 176.634784 
L 132.95945 175.349042 
L 133.496132 177.061196 
L 134.032815 177.755811 
L 134.569498 178.756088 
L 135.10618 179.096888 
L 135.642863 179.115487 
L 136.179545 176.337446 
L 136.716228 176.69484 
L 137.252911 177.955043 
L 137.789593 178.286391 
L 138.326276 176.830172 
L 138.862959 177.460444 
L 139.399641 176.916601 
L 139.936324 175.811472 
L 140.473006 178.134652 
L 141.009689 179.565311 
L 141.546372 176.803565 
L 142.083054 177.394753 
L 143.156419 174.781148 
L 143.693102 173.782363 
L 144.766467 175.488505 
L 145.30315 169.885394 
L 145.839833 174.070792 
L 146.376515 171.118294 
L 146.913198 165.73572 
L 147.44988 171.8093 
L 147.986563 175.805912 
L 148.523246 177.305361 
L 149.059928 178.296272 
L 149.596611 178.793893 
L 150.133293 178.578738 
L 150.669976 176.976435 
L 151.206659 177.931976 
L 151.743341 180.232626 
L 152.280024 180.012054 
L 153.353389 178.259895 
L 153.890072 178.28358 
L 154.426754 178.956105 
L 154.963437 179.401438 
L 155.50012 179.201565 
L 156.036802 179.215778 
L 156.573485 178.813374 
L 157.110167 179.037373 
L 157.64685 178.848638 
L 158.183533 178.461165 
L 158.720215 178.682451 
L 159.256898 178.502483 
L 159.793581 178.719489 
L 160.866946 177.016926 
L 161.403628 177.433263 
L 161.940311 177.65252 
L 162.476994 178.619751 
L 163.013676 178.079595 
L 163.550359 178.656763 
L 164.087041 177.943119 
L 164.623724 176.516964 
L 165.160407 177.991579 
L 165.697089 177.837192 
L 166.233772 178.745028 
L 166.770455 177.536829 
L 167.307137 177.217215 
L 167.84382 177.591252 
L 168.380502 175.401211 
L 168.917185 177.306179 
L 169.453868 176.497033 
L 169.99055 176.865047 
L 170.527233 177.886099 
L 171.063915 175.785723 
L 172.137281 175.546279 
L 172.673963 176.226401 
L 173.210646 175.789432 
L 173.747329 177.083425 
L 174.284011 177.890087 
L 174.820694 176.371764 
L 175.357376 177.171328 
L 175.894059 176.29016 
L 176.430742 174.370613 
L 176.967424 176.21175 
L 177.504107 177.135611 
L 178.040789 175.696005 
L 178.577472 175.444512 
L 179.114155 175.486117 
L 179.650837 174.667212 
L 180.18752 176.136679 
L 180.724203 175.749113 
L 181.260885 176.34764 
L 181.797568 176.242512 
L 182.33425 174.898746 
L 182.870933 175.216956 
L 183.407616 176.344695 
L 183.944298 176.51264 
L 184.480981 176.277222 
L 185.017663 175.38243 
L 185.554346 176.212317 
L 186.091029 176.768563 
L 186.627711 176.538742 
L 187.164394 174.897119 
L 187.701077 175.96199 
L 188.237759 175.23655 
L 188.774442 175.151103 
L 189.311124 176.940472 
L 189.847807 175.604302 
L 190.38449 176.379942 
L 190.921172 176.655716 
L 191.457855 174.865824 
L 191.994537 176.954846 
L 192.53122 175.069297 
L 193.067903 176.771104 
L 193.604585 177.152648 
L 194.141268 176.125071 
L 194.677951 176.854426 
L 195.214633 177.804204 
L 195.751316 176.679489 
L 196.287998 177.731023 
L 196.824681 177.30015 
L 197.361364 177.660179 
L 197.898046 177.235937 
L 198.434729 177.812725 
L 198.971411 176.515071 
L 199.508094 177.63423 
L 200.044777 176.8972 
L 200.581459 176.492962 
L 201.118142 178.123781 
L 201.654825 177.398612 
L 202.191507 177.842376 
L 203.264872 176.945077 
L 204.338238 178.020668 
L 204.87492 177.834689 
L 205.411603 177.246436 
L 205.948285 177.470281 
L 206.484968 178.390335 
L 207.021651 177.710966 
L 207.558333 177.533367 
L 208.095016 176.966483 
L 208.631699 177.282565 
L 209.168381 178.271127 
L 209.705064 177.038508 
L 210.241746 178.588453 
L 211.851794 177.879936 
L 212.388477 178.176767 
L 212.925159 179.02422 
L 213.461842 178.66752 
L 213.998525 176.85571 
L 214.535207 177.967652 
L 215.07189 177.894627 
L 215.608573 178.091128 
L 216.145255 177.662476 
L 216.681938 178.300151 
L 217.21862 177.172687 
L 217.755303 178.329572 
L 218.291986 178.344085 
L 218.828668 177.582181 
L 219.902033 177.534796 
L 220.438716 177.892693 
L 220.975399 176.731253 
L 222.048764 178.19253 
L 222.585447 177.876863 
L 223.122129 178.304509 
L 223.658812 176.930311 
L 224.195494 177.683354 
L 224.732177 178.669635 
L 225.26886 178.601341 
L 226.342225 177.595135 
L 227.41559 177.552904 
L 227.952273 177.571171 
L 228.488955 177.434378 
L 229.025638 178.762254 
L 229.562321 177.854716 
L 230.099003 177.718794 
L 230.635686 176.903415 
L 231.172368 177.226095 
L 231.709051 177.844357 
L 232.245734 176.744772 
L 232.782416 177.580753 
L 233.319099 176.348097 
L 233.855781 177.542692 
L 234.392464 176.833236 
L 234.929147 178.228754 
L 235.465829 177.163952 
L 236.002512 177.612659 
L 237.075877 177.505346 
L 237.61256 177.101084 
L 238.685925 177.766452 
L 239.75929 177.110575 
L 240.295973 176.993299 
L 240.832656 177.489684 
L 241.369338 176.627414 
L 241.906021 177.793483 
L 242.442703 176.738197 
L 242.979386 177.425207 
L 243.516069 177.442738 
L 244.052751 177.064984 
L 245.126116 178.211254 
L 245.662799 178.48368 
L 246.199482 177.270474 
L 246.736164 177.545045 
L 247.272847 177.497861 
L 247.80953 177.70499 
L 248.346212 178.351856 
L 248.882895 177.861753 
L 249.419577 177.689135 
L 249.95626 178.077564 
L 250.492943 177.225737 
L 251.029625 177.858614 
L 252.10299 177.826861 
L 252.639673 177.902109 
L 253.176356 177.795923 
L 253.713038 178.110353 
L 254.786404 177.365406 
L 255.323086 177.382275 
L 255.859769 178.044916 
L 256.396451 178.291952 
L 256.933134 177.897115 
L 257.469817 177.159257 
L 258.006499 178.442969 
L 258.543182 176.908219 
L 258.543182 176.908219 
" clip-path="url(#p6ba2440d13)" style="fill: none; stroke: #ff0000; stroke-opacity: 0.5; stroke-linecap: square"/>
   </g>
   <g id="patch_3">
    <path d="M 33.7 188.6 
L 33.7 14.52 
" style="fill: none; stroke: #000000; stroke-width: 0.8; stroke-linejoin: miter; stroke-linecap: square"/>
   </g>
   <g id="patch_4">
    <path d="M 269.25 188.6 
L 269.25 14.52 
" style="fill: none; stroke: #000000; stroke-width: 0.8; stroke-linejoin: miter; stroke-linecap: square"/>
   </g>
   <g id="patch_5">
    <path d="M 33.7 188.6 
L 269.25 188.6 
" style="fill: none; stroke: #000000; stroke-width: 0.8; stroke-linejoin: miter; stroke-linecap: square"/>
   </g>
   <g id="patch_6">
    <path d="M 33.7 14.52 
L 269.25 14.52 
" style="fill: none; stroke: #000000; stroke-width: 0.8; stroke-linejoin: miter; stroke-linecap: square"/>
   </g>
   <g id="legend_1">
    <g id="patch_7">
     <path d="M 213.917188 66.554375 
L 262.25 66.554375 
Q 264.25 66.554375 264.25 64.554375 
L 264.25 21.52 
Q 264.25 19.52 262.25 19.52 
L 213.917188 19.52 
Q 211.917188 19.52 211.917188 21.52 
L 211.917188 64.554375 
Q 211.917188 66.554375 213.917188 66.554375 
z
" style="fill: #ffffff; opacity: 0.8; stroke: #cccccc; stroke-linejoin: miter"/>
    </g>
    <g id="line2d_15">
     <path d="M 215.917188 27.618438 
L 225.917188 27.618438 
L 235.917188 27.618438 
" style="fill: none; stroke: #000000; stroke-opacity: 0.5; stroke-width: 0.5; stroke-linecap: square"/>
    </g>
    <g id="text_14">
     <!-- all -->
     <g transform="translate(243.917188 31.118438) scale(0.1 -0.1)">
      <defs>
       <path id="DejaVuSans-61" d="M 2194 1759 
Q 1497 1759 1228 1600 
Q 959 1441 959 1056 
Q 959 750 1161 570 
Q 1363 391 1709 391 
Q 2188 391 2477 730 
Q 2766 1069 2766 1631 
L 2766 1759 
L 2194 1759 
z
M 3341 1997 
L 3341 0 
L 2766 0 
L 2766 531 
Q 2569 213 2275 61 
Q 1981 -91 1556 -91 
Q 1019 -91 701 211 
Q 384 513 384 1019 
Q 384 1609 779 1909 
Q 1175 2209 1959 2209 
L 2766 2209 
L 2766 2266 
Q 2766 2663 2505 2880 
Q 2244 3097 1772 3097 
Q 1472 3097 1187 3025 
Q 903 2953 641 2809 
L 641 3341 
Q 956 3463 1253 3523 
Q 1550 3584 1831 3584 
Q 2591 3584 2966 3190 
Q 3341 2797 3341 1997 
z
" transform="scale(0.015625)"/>
       <path id="DejaVuSans-6c" d="M 603 4863 
L 1178 4863 
L 1178 0 
L 603 0 
L 603 4863 
z
" transform="scale(0.015625)"/>
      </defs>
      <use xlink:href="#DejaVuSans-61"/>
      <use xlink:href="#DejaVuSans-6c" transform="translate(61.279297 0)"/>
      <use xlink:href="#DejaVuSans-6c" transform="translate(89.0625 0)"/>
     </g>
    </g>
    <g id="line2d_16">
     <path d="M 215.917188 42.296563 
L 225.917188 42.296563 
L 235.917188 42.296563 
" style="fill: none; stroke: #0000ff; stroke-opacity: 0.5; stroke-linecap: square"/>
    </g>
    <g id="text_15">
     <!-- 1-1 -->
     <g transform="translate(243.917188 45.796563) scale(0.1 -0.1)">
      <defs>
       <path id="DejaVuSans-2d" d="M 313 2009 
L 1997 2009 
L 1997 1497 
L 313 1497 
L 313 2009 
z
" transform="scale(0.015625)"/>
      </defs>
      <use xlink:href="#DejaVuSans-31"/>
      <use xlink:href="#DejaVuSans-2d" transform="translate(63.623047 0)"/>
      <use xlink:href="#DejaVuSans-31" transform="translate(99.707031 0)"/>
     </g>
    </g>
    <g id="line2d_17">
     <path d="M 215.917188 56.974688 
L 225.917188 56.974688 
L 235.917188 56.974688 
" style="fill: none; stroke: #ff0000; stroke-opacity: 0.5; stroke-linecap: square"/>
    </g>
    <g id="text_16">
     <!-- 2-2 -->
     <g transform="translate(243.917188 60.474688) scale(0.1 -0.1)">
      <use xlink:href="#DejaVuSans-32"/>
      <use xlink:href="#DejaVuSans-2d" transform="translate(63.623047 0)"/>
      <use xlink:href="#DejaVuSans-32" transform="translate(99.707031 0)"/>
     </g>
    </g>
   </g>
  </g>
 </g>
 <defs>
  <clipPath id="p6ba2440d13">
   <rect x="33.7" y="14.52" width="235.55" height="174.08"/>
  </clipPath>
 </defs>
</svg>
