<?xml version="1.0" encoding="utf-8" standalone="no"?>
<!DOCTYPE svg PUBLIC "-//W3C//DTD SVG 1.1//EN"
  "http://www.w3.org/Graphics/SVG/1.1/DTD/svg11.dtd">
<svg xmlns:xlink="http://www.w3.org/1999/xlink" width="288pt" height="216pt" viewBox="0 0 288 216" xmlns="http://www.w3.org/2000/svg" version="1.1">
 <metadata>
  <rdf:RDF xmlns:dc="http://purl.org/dc/elements/1.1/" xmlns:cc="http://creativecommons.org/ns#" xmlns:rdf="http://www.w3.org/1999/02/22-rdf-syntax-ns#">
   <cc:Work>
    <dc:type rdf:resource="http://purl.org/dc/dcmitype/StillImage"/>
    <dc:date>2025-09-18T00:38:38.396682</dc:date>
    <dc:format>image/svg+xml</dc:format>
    <dc:creator>
     <cc:Agent>
      <dc:title>Matplotlib v3.10.0, https://matplotlib.org/</dc:title>
     </cc:Agent>
    </dc:creator>
   </cc:Work>
  </rdf:RDF>
 </metadata>
 <defs>
  <style type="text/css">*{stroke-linejoin: round; stroke-linecap: butt}</style>
 </defs>
 <g id="figure_1">
  <g id="patch_1">
   <path d="M 0 216 
L 288 216 
L 288 0 
L 0 0 
z
" style="fill: #ffffff"/>
  </g>
  <g id="axes_1">
   <g id="patch_2">
    <path d="M 33.7 188.6 
L 269.25 188.6 
L 269.25 14.52 
L 33.7 14.52 
z
" style="fill: #ffffff"/>
   </g>
   <g id="matplotlib.axis_1">
    <g id="xtick_1">
     <g id="line2d_1">
      <defs>
       <path id="m0a011e1bd7" d="M 0 0 
L 0 3.5 
" style="stroke: #000000; stroke-width: 0.8"/>
      </defs>
      <g>
       <use xlink:href="#m0a011e1bd7" x="44.138477" y="188.6" style="stroke: #000000; stroke-width: 0.8"/>
      </g>
     </g>
     <g id="text_1">
      <!-- 0 -->
      <g transform="translate(40.957227 203.198437) scale(0.1 -0.1)">
       <defs>
        <path id="DejaVuSans-30" d="M 2034 4250 
Q 1547 4250 1301 3770 
Q 1056 3291 1056 2328 
Q 1056 1369 1301 889 
Q 1547 409 2034 409 
Q 2525 409 2770 889 
Q 3016 1369 3016 2328 
Q 3016 3291 2770 3770 
Q 2525 4250 2034 4250 
z
M 2034 4750 
Q 2819 4750 3233 4129 
Q 3647 3509 3647 2328 
Q 3647 1150 3233 529 
Q 2819 -91 2034 -91 
Q 1250 -91 836 529 
Q 422 1150 422 2328 
Q 422 3509 836 4129 
Q 1250 4750 2034 4750 
z
" transform="scale(0.015625)"/>
       </defs>
       <use xlink:href="#DejaVuSans-30"/>
      </g>
     </g>
    </g>
    <g id="xtick_2">
     <g id="line2d_2">
      <g>
       <use xlink:href="#m0a011e1bd7" x="87.073086" y="188.6" style="stroke: #000000; stroke-width: 0.8"/>
      </g>
     </g>
     <g id="text_2">
      <!-- 200 -->
      <g transform="translate(77.529336 203.198437) scale(0.1 -0.1)">
       <defs>
        <path id="DejaVuSans-32" d="M 1228 531 
L 3431 531 
L 3431 0 
L 469 0 
L 469 531 
Q 828 903 1448 1529 
Q 2069 2156 2228 2338 
Q 2531 2678 2651 2914 
Q 2772 3150 2772 3378 
Q 2772 3750 2511 3984 
Q 2250 4219 1831 4219 
Q 1534 4219 1204 4116 
Q 875 4013 500 3803 
L 500 4441 
Q 881 4594 1212 4672 
Q 1544 4750 1819 4750 
Q 2544 4750 2975 4387 
Q 3406 4025 3406 3419 
Q 3406 3131 3298 2873 
Q 3191 2616 2906 2266 
Q 2828 2175 2409 1742 
Q 1991 1309 1228 531 
z
" transform="scale(0.015625)"/>
       </defs>
       <use xlink:href="#DejaVuSans-32"/>
       <use xlink:href="#DejaVuSans-30" transform="translate(63.623047 0)"/>
       <use xlink:href="#DejaVuSans-30" transform="translate(127.246094 0)"/>
      </g>
     </g>
    </g>
    <g id="xtick_3">
     <g id="line2d_3">
      <g>
       <use xlink:href="#m0a011e1bd7" x="130.007695" y="188.6" style="stroke: #000000; stroke-width: 0.8"/>
      </g>
     </g>
     <g id="text_3">
      <!-- 400 -->
      <g transform="translate(120.463945 203.198437) scale(0.1 -0.1)">
       <defs>
        <path id="DejaVuSans-34" d="M 2419 4116 
L 825 1625 
L 2419 1625 
L 2419 4116 
z
M 2253 4666 
L 3047 4666 
L 3047 1625 
L 3713 1625 
L 3713 1100 
L 3047 1100 
L 3047 0 
L 2419 0 
L 2419 1100 
L 313 1100 
L 313 1709 
L 2253 4666 
z
" transform="scale(0.015625)"/>
       </defs>
       <use xlink:href="#DejaVuSans-34"/>
       <use xlink:href="#DejaVuSans-30" transform="translate(63.623047 0)"/>
       <use xlink:href="#DejaVuSans-30" transform="translate(127.246094 0)"/>
      </g>
     </g>
    </g>
    <g id="xtick_4">
     <g id="line2d_4">
      <g>
       <use xlink:href="#m0a011e1bd7" x="172.942305" y="188.6" style="stroke: #000000; stroke-width: 0.8"/>
      </g>
     </g>
     <g id="text_4">
      <!-- 600 -->
      <g transform="translate(163.398555 203.198437) scale(0.1 -0.1)">
       <defs>
        <path id="DejaVuSans-36" d="M 2113 2584 
Q 1688 2584 1439 2293 
Q 1191 2003 1191 1497 
Q 1191 994 1439 701 
Q 1688 409 2113 409 
Q 2538 409 2786 701 
Q 3034 994 3034 1497 
Q 3034 2003 2786 2293 
Q 2538 2584 2113 2584 
z
M 3366 4563 
L 3366 3988 
Q 3128 4100 2886 4159 
Q 2644 4219 2406 4219 
Q 1781 4219 1451 3797 
Q 1122 3375 1075 2522 
Q 1259 2794 1537 2939 
Q 1816 3084 2150 3084 
Q 2853 3084 3261 2657 
Q 3669 2231 3669 1497 
Q 3669 778 3244 343 
Q 2819 -91 2113 -91 
Q 1303 -91 875 529 
Q 447 1150 447 2328 
Q 447 3434 972 4092 
Q 1497 4750 2381 4750 
Q 2619 4750 2861 4703 
Q 3103 4656 3366 4563 
z
" transform="scale(0.015625)"/>
       </defs>
       <use xlink:href="#DejaVuSans-36"/>
       <use xlink:href="#DejaVuSans-30" transform="translate(63.623047 0)"/>
       <use xlink:href="#DejaVuSans-30" transform="translate(127.246094 0)"/>
      </g>
     </g>
    </g>
    <g id="xtick_5">
     <g id="line2d_5">
      <g>
       <use xlink:href="#m0a011e1bd7" x="215.876914" y="188.6" style="stroke: #000000; stroke-width: 0.8"/>
      </g>
     </g>
     <g id="text_5">
      <!-- 800 -->
      <g transform="translate(206.333164 203.198437) scale(0.1 -0.1)">
       <defs>
        <path id="DejaVuSans-38" d="M 2034 2216 
Q 1584 2216 1326 1975 
Q 1069 1734 1069 1313 
Q 1069 891 1326 650 
Q 1584 409 2034 409 
Q 2484 409 2743 651 
Q 3003 894 3003 1313 
Q 3003 1734 2745 1975 
Q 2488 2216 2034 2216 
z
M 1403 2484 
Q 997 2584 770 2862 
Q 544 3141 544 3541 
Q 544 4100 942 4425 
Q 1341 4750 2034 4750 
Q 2731 4750 3128 4425 
Q 3525 4100 3525 3541 
Q 3525 3141 3298 2862 
Q 3072 2584 2669 2484 
Q 3125 2378 3379 2068 
Q 3634 1759 3634 1313 
Q 3634 634 3220 271 
Q 2806 -91 2034 -91 
Q 1263 -91 848 271 
Q 434 634 434 1313 
Q 434 1759 690 2068 
Q 947 2378 1403 2484 
z
M 1172 3481 
Q 1172 3119 1398 2916 
Q 1625 2713 2034 2713 
Q 2441 2713 2670 2916 
Q 2900 3119 2900 3481 
Q 2900 3844 2670 4047 
Q 2441 4250 2034 4250 
Q 1625 4250 1398 4047 
Q 1172 3844 1172 3481 
z
" transform="scale(0.015625)"/>
       </defs>
       <use xlink:href="#DejaVuSans-38"/>
       <use xlink:href="#DejaVuSans-30" transform="translate(63.623047 0)"/>
       <use xlink:href="#DejaVuSans-30" transform="translate(127.246094 0)"/>
      </g>
     </g>
    </g>
    <g id="xtick_6">
     <g id="line2d_6">
      <g>
       <use xlink:href="#m0a011e1bd7" x="258.811523" y="188.6" style="stroke: #000000; stroke-width: 0.8"/>
      </g>
     </g>
     <g id="text_6">
      <!-- 1000 -->
      <g transform="translate(246.086523 203.198437) scale(0.1 -0.1)">
       <defs>
        <path id="DejaVuSans-31" d="M 794 531 
L 1825 531 
L 1825 4091 
L 703 3866 
L 703 4441 
L 1819 4666 
L 2450 4666 
L 2450 531 
L 3481 531 
L 3481 0 
L 794 0 
L 794 531 
z
" transform="scale(0.015625)"/>
       </defs>
       <use xlink:href="#DejaVuSans-31"/>
       <use xlink:href="#DejaVuSans-30" transform="translate(63.623047 0)"/>
       <use xlink:href="#DejaVuSans-30" transform="translate(127.246094 0)"/>
       <use xlink:href="#DejaVuSans-30" transform="translate(190.869141 0)"/>
      </g>
     </g>
    </g>
    <g id="text_7">
     <!-- q (nm) -->
     <g transform="translate(134.771094 216.876563) scale(0.1 -0.1)">
      <defs>
       <path id="DejaVuSans-71" d="M 947 1747 
Q 947 1113 1208 752 
Q 1469 391 1925 391 
Q 2381 391 2643 752 
Q 2906 1113 2906 1747 
Q 2906 2381 2643 2742 
Q 2381 3103 1925 3103 
Q 1469 3103 1208 2742 
Q 947 2381 947 1747 
z
M 2906 525 
Q 2725 213 2448 61 
Q 2172 -91 1784 -91 
Q 1150 -91 751 415 
Q 353 922 353 1747 
Q 353 2572 751 3078 
Q 1150 3584 1784 3584 
Q 2172 3584 2448 3432 
Q 2725 3281 2906 2969 
L 2906 3500 
L 3481 3500 
L 3481 -1331 
L 2906 -1331 
L 2906 525 
z
" transform="scale(0.015625)"/>
       <path id="DejaVuSans-20" transform="scale(0.015625)"/>
       <path id="DejaVuSans-28" d="M 1984 4856 
Q 1566 4138 1362 3434 
Q 1159 2731 1159 2009 
Q 1159 1288 1364 580 
Q 1569 -128 1984 -844 
L 1484 -844 
Q 1016 -109 783 600 
Q 550 1309 550 2009 
Q 550 2706 781 3412 
Q 1013 4119 1484 4856 
L 1984 4856 
z
" transform="scale(0.015625)"/>
       <path id="DejaVuSans-6e" d="M 3513 2113 
L 3513 0 
L 2938 0 
L 2938 2094 
Q 2938 2591 2744 2837 
Q 2550 3084 2163 3084 
Q 1697 3084 1428 2787 
Q 1159 2491 1159 1978 
L 1159 0 
L 581 0 
L 581 3500 
L 1159 3500 
L 1159 2956 
Q 1366 3272 1645 3428 
Q 1925 3584 2291 3584 
Q 2894 3584 3203 3211 
Q 3513 2838 3513 2113 
z
" transform="scale(0.015625)"/>
       <path id="DejaVuSans-6d" d="M 3328 2828 
Q 3544 3216 3844 3400 
Q 4144 3584 4550 3584 
Q 5097 3584 5394 3201 
Q 5691 2819 5691 2113 
L 5691 0 
L 5113 0 
L 5113 2094 
Q 5113 2597 4934 2840 
Q 4756 3084 4391 3084 
Q 3944 3084 3684 2787 
Q 3425 2491 3425 1978 
L 3425 0 
L 2847 0 
L 2847 2094 
Q 2847 2600 2669 2842 
Q 2491 3084 2119 3084 
Q 1678 3084 1418 2786 
Q 1159 2488 1159 1978 
L 1159 0 
L 581 0 
L 581 3500 
L 1159 3500 
L 1159 2956 
Q 1356 3278 1631 3431 
Q 1906 3584 2284 3584 
Q 2666 3584 2933 3390 
Q 3200 3197 3328 2828 
z
" transform="scale(0.015625)"/>
       <path id="DejaVuSans-29" d="M 513 4856 
L 1013 4856 
Q 1481 4119 1714 3412 
Q 1947 2706 1947 2009 
Q 1947 1309 1714 600 
Q 1481 -109 1013 -844 
L 513 -844 
Q 928 -128 1133 580 
Q 1338 1288 1338 2009 
Q 1338 2731 1133 3434 
Q 928 4138 513 4856 
z
" transform="scale(0.015625)"/>
      </defs>
      <use xlink:href="#DejaVuSans-71"/>
      <use xlink:href="#DejaVuSans-20" transform="translate(63.476562 0)"/>
      <use xlink:href="#DejaVuSans-28" transform="translate(95.263672 0)"/>
      <use xlink:href="#DejaVuSans-6e" transform="translate(134.277344 0)"/>
      <use xlink:href="#DejaVuSans-6d" transform="translate(197.65625 0)"/>
      <use xlink:href="#DejaVuSans-29" transform="translate(295.068359 0)"/>
     </g>
    </g>
   </g>
   <g id="matplotlib.axis_2">
    <g id="ytick_1">
     <g id="line2d_7">
      <defs>
       <path id="m59b9f236b2" d="M 0 0 
L -3.5 0 
" style="stroke: #000000; stroke-width: 0.8"/>
      </defs>
      <g>
       <use xlink:href="#m59b9f236b2" x="33.7" y="180.687273" style="stroke: #000000; stroke-width: 0.8"/>
      </g>
     </g>
     <g id="text_8">
      <!-- 0 -->
      <g transform="translate(20.3375 184.486491) scale(0.1 -0.1)">
       <use xlink:href="#DejaVuSans-30"/>
      </g>
     </g>
    </g>
    <g id="ytick_2">
     <g id="line2d_8">
      <g>
       <use xlink:href="#m59b9f236b2" x="33.7" y="157.489382" style="stroke: #000000; stroke-width: 0.8"/>
      </g>
     </g>
     <g id="text_9">
      <!-- 10000 -->
      <g transform="translate(-5.1125 161.2886) scale(0.1 -0.1)">
       <use xlink:href="#DejaVuSans-31"/>
       <use xlink:href="#DejaVuSans-30" transform="translate(63.623047 0)"/>
       <use xlink:href="#DejaVuSans-30" transform="translate(127.246094 0)"/>
       <use xlink:href="#DejaVuSans-30" transform="translate(190.869141 0)"/>
       <use xlink:href="#DejaVuSans-30" transform="translate(254.492188 0)"/>
      </g>
     </g>
    </g>
    <g id="ytick_3">
     <g id="line2d_9">
      <g>
       <use xlink:href="#m59b9f236b2" x="33.7" y="134.29149" style="stroke: #000000; stroke-width: 0.8"/>
      </g>
     </g>
     <g id="text_10">
      <!-- 20000 -->
      <g transform="translate(-5.1125 138.090709) scale(0.1 -0.1)">
       <use xlink:href="#DejaVuSans-32"/>
       <use xlink:href="#DejaVuSans-30" transform="translate(63.623047 0)"/>
       <use xlink:href="#DejaVuSans-30" transform="translate(127.246094 0)"/>
       <use xlink:href="#DejaVuSans-30" transform="translate(190.869141 0)"/>
       <use xlink:href="#DejaVuSans-30" transform="translate(254.492188 0)"/>
      </g>
     </g>
    </g>
    <g id="ytick_4">
     <g id="line2d_10">
      <g>
       <use xlink:href="#m59b9f236b2" x="33.7" y="111.093599" style="stroke: #000000; stroke-width: 0.8"/>
      </g>
     </g>
     <g id="text_11">
      <!-- 30000 -->
      <g transform="translate(-5.1125 114.892818) scale(0.1 -0.1)">
       <defs>
        <path id="DejaVuSans-33" d="M 2597 2516 
Q 3050 2419 3304 2112 
Q 3559 1806 3559 1356 
Q 3559 666 3084 287 
Q 2609 -91 1734 -91 
Q 1441 -91 1130 -33 
Q 819 25 488 141 
L 488 750 
Q 750 597 1062 519 
Q 1375 441 1716 441 
Q 2309 441 2620 675 
Q 2931 909 2931 1356 
Q 2931 1769 2642 2001 
Q 2353 2234 1838 2234 
L 1294 2234 
L 1294 2753 
L 1863 2753 
Q 2328 2753 2575 2939 
Q 2822 3125 2822 3475 
Q 2822 3834 2567 4026 
Q 2313 4219 1838 4219 
Q 1578 4219 1281 4162 
Q 984 4106 628 3988 
L 628 4550 
Q 988 4650 1302 4700 
Q 1616 4750 1894 4750 
Q 2613 4750 3031 4423 
Q 3450 4097 3450 3541 
Q 3450 3153 3228 2886 
Q 3006 2619 2597 2516 
z
" transform="scale(0.015625)"/>
       </defs>
       <use xlink:href="#DejaVuSans-33"/>
       <use xlink:href="#DejaVuSans-30" transform="translate(63.623047 0)"/>
       <use xlink:href="#DejaVuSans-30" transform="translate(127.246094 0)"/>
       <use xlink:href="#DejaVuSans-30" transform="translate(190.869141 0)"/>
       <use xlink:href="#DejaVuSans-30" transform="translate(254.492188 0)"/>
      </g>
     </g>
    </g>
    <g id="ytick_5">
     <g id="line2d_11">
      <g>
       <use xlink:href="#m59b9f236b2" x="33.7" y="87.895708" style="stroke: #000000; stroke-width: 0.8"/>
      </g>
     </g>
     <g id="text_12">
      <!-- 40000 -->
      <g transform="translate(-5.1125 91.694927) scale(0.1 -0.1)">
       <use xlink:href="#DejaVuSans-34"/>
       <use xlink:href="#DejaVuSans-30" transform="translate(63.623047 0)"/>
       <use xlink:href="#DejaVuSans-30" transform="translate(127.246094 0)"/>
       <use xlink:href="#DejaVuSans-30" transform="translate(190.869141 0)"/>
       <use xlink:href="#DejaVuSans-30" transform="translate(254.492188 0)"/>
      </g>
     </g>
    </g>
    <g id="ytick_6">
     <g id="line2d_12">
      <g>
       <use xlink:href="#m59b9f236b2" x="33.7" y="64.697817" style="stroke: #000000; stroke-width: 0.8"/>
      </g>
     </g>
     <g id="text_13">
      <!-- 50000 -->
      <g transform="translate(-5.1125 68.497036) scale(0.1 -0.1)">
       <defs>
        <path id="DejaVuSans-35" d="M 691 4666 
L 3169 4666 
L 3169 4134 
L 1269 4134 
L 1269 2991 
Q 1406 3038 1543 3061 
Q 1681 3084 1819 3084 
Q 2600 3084 3056 2656 
Q 3513 2228 3513 1497 
Q 3513 744 3044 326 
Q 2575 -91 1722 -91 
Q 1428 -91 1123 -41 
Q 819 9 494 109 
L 494 744 
Q 775 591 1075 516 
Q 1375 441 1709 441 
Q 2250 441 2565 725 
Q 2881 1009 2881 1497 
Q 2881 1984 2565 2268 
Q 2250 2553 1709 2553 
Q 1456 2553 1204 2497 
Q 953 2441 691 2322 
L 691 4666 
z
" transform="scale(0.015625)"/>
       </defs>
       <use xlink:href="#DejaVuSans-35"/>
       <use xlink:href="#DejaVuSans-30" transform="translate(63.623047 0)"/>
       <use xlink:href="#DejaVuSans-30" transform="translate(127.246094 0)"/>
       <use xlink:href="#DejaVuSans-30" transform="translate(190.869141 0)"/>
       <use xlink:href="#DejaVuSans-30" transform="translate(254.492188 0)"/>
      </g>
     </g>
    </g>
    <g id="ytick_7">
     <g id="line2d_13">
      <g>
       <use xlink:href="#m59b9f236b2" x="33.7" y="41.499926" style="stroke: #000000; stroke-width: 0.8"/>
      </g>
     </g>
     <g id="text_14">
      <!-- 60000 -->
      <g transform="translate(-5.1125 45.299145) scale(0.1 -0.1)">
       <use xlink:href="#DejaVuSans-36"/>
       <use xlink:href="#DejaVuSans-30" transform="translate(63.623047 0)"/>
       <use xlink:href="#DejaVuSans-30" transform="translate(127.246094 0)"/>
       <use xlink:href="#DejaVuSans-30" transform="translate(190.869141 0)"/>
       <use xlink:href="#DejaVuSans-30" transform="translate(254.492188 0)"/>
      </g>
     </g>
    </g>
    <g id="ytick_8">
     <g id="line2d_14">
      <g>
       <use xlink:href="#m59b9f236b2" x="33.7" y="18.302035" style="stroke: #000000; stroke-width: 0.8"/>
      </g>
     </g>
     <g id="text_15">
      <!-- 70000 -->
      <g transform="translate(-5.1125 22.101253) scale(0.1 -0.1)">
       <defs>
        <path id="DejaVuSans-37" d="M 525 4666 
L 3525 4666 
L 3525 4397 
L 1831 0 
L 1172 0 
L 2766 4134 
L 525 4134 
L 525 4666 
z
" transform="scale(0.015625)"/>
       </defs>
       <use xlink:href="#DejaVuSans-37"/>
       <use xlink:href="#DejaVuSans-30" transform="translate(63.623047 0)"/>
       <use xlink:href="#DejaVuSans-30" transform="translate(127.246094 0)"/>
       <use xlink:href="#DejaVuSans-30" transform="translate(190.869141 0)"/>
       <use xlink:href="#DejaVuSans-30" transform="translate(254.492188 0)"/>
      </g>
     </g>
    </g>
    <g id="text_16">
     <!-- rdf -->
     <g transform="translate(-11.192187 108.462344) rotate(-90) scale(0.1 -0.1)">
      <defs>
       <path id="DejaVuSans-72" d="M 2631 2963 
Q 2534 3019 2420 3045 
Q 2306 3072 2169 3072 
Q 1681 3072 1420 2755 
Q 1159 2438 1159 1844 
L 1159 0 
L 581 0 
L 581 3500 
L 1159 3500 
L 1159 2956 
Q 1341 3275 1631 3429 
Q 1922 3584 2338 3584 
Q 2397 3584 2469 3576 
Q 2541 3569 2628 3553 
L 2631 2963 
z
" transform="scale(0.015625)"/>
       <path id="DejaVuSans-64" d="M 2906 2969 
L 2906 4863 
L 3481 4863 
L 3481 0 
L 2906 0 
L 2906 525 
Q 2725 213 2448 61 
Q 2172 -91 1784 -91 
Q 1150 -91 751 415 
Q 353 922 353 1747 
Q 353 2572 751 3078 
Q 1150 3584 1784 3584 
Q 2172 3584 2448 3432 
Q 2725 3281 2906 2969 
z
M 947 1747 
Q 947 1113 1208 752 
Q 1469 391 1925 391 
Q 2381 391 2643 752 
Q 2906 1113 2906 1747 
Q 2906 2381 2643 2742 
Q 2381 3103 1925 3103 
Q 1469 3103 1208 2742 
Q 947 2381 947 1747 
z
" transform="scale(0.015625)"/>
       <path id="DejaVuSans-66" d="M 2375 4863 
L 2375 4384 
L 1825 4384 
Q 1516 4384 1395 4259 
Q 1275 4134 1275 3809 
L 1275 3500 
L 2222 3500 
L 2222 3053 
L 1275 3053 
L 1275 0 
L 697 0 
L 697 3053 
L 147 3053 
L 147 3500 
L 697 3500 
L 697 3744 
Q 697 4328 969 4595 
Q 1241 4863 1831 4863 
L 2375 4863 
z
" transform="scale(0.015625)"/>
      </defs>
      <use xlink:href="#DejaVuSans-72"/>
      <use xlink:href="#DejaVuSans-64" transform="translate(39.363281 0)"/>
      <use xlink:href="#DejaVuSans-66" transform="translate(102.839844 0)"/>
     </g>
    </g>
   </g>
   <g id="line2d_15">
    <path d="M 44.406818 180.687273 
L 92.708254 180.687273 
L 93.244936 180.553944 
L 93.781619 180.556812 
L 94.318301 180.687273 
L 94.854984 180.562275 
L 95.391667 22.432727 
L 95.928349 73.883167 
L 96.465032 180.569849 
L 97.001715 180.45717 
L 97.538397 180.461771 
L 98.07508 179.471575 
L 98.611762 175.16137 
L 99.148445 166.343898 
L 99.685128 164.952439 
L 100.22181 171.487537 
L 100.758493 175.572454 
L 101.295175 178.030042 
L 101.831858 179.914525 
L 102.368541 180.307987 
L 102.905223 180.314883 
L 103.441906 180.687273 
L 103.978589 180.507698 
L 104.515271 180.599074 
L 105.051954 180.427319 
L 105.588636 180.602129 
L 106.662002 180.029306 
L 107.198684 179.636196 
L 108.272049 173.026776 
L 108.808732 173.384029 
L 109.345415 177.662635 
L 109.882097 179.49709 
L 110.41878 179.809033 
L 110.955463 180.471225 
L 111.492145 180.6164 
L 112.028828 179.571165 
L 112.56551 176.567273 
L 113.102193 168.7893 
L 113.638876 158.721767 
L 114.175558 163.645358 
L 114.712241 174.812981 
L 115.248923 178.398317 
L 115.785606 179.121446 
L 116.322289 176.861542 
L 116.858971 170.716419 
L 117.395654 161.036695 
L 117.932337 165.277273 
L 118.469019 174.402485 
L 119.005702 179.540049 
L 119.542384 180.121797 
L 120.079067 180.018259 
L 121.689115 180.633812 
L 122.225797 180.318178 
L 122.76248 180.479231 
L 123.299163 180.276811 
L 123.835845 180.434177 
L 125.445893 180.298199 
L 125.982576 179.535309 
L 126.519258 177.41839 
L 127.055941 173.111536 
L 127.592624 172.83933 
L 128.129306 176.858868 
L 128.665989 174.297356 
L 129.202671 167.135099 
L 129.739354 169.805554 
L 130.276037 176.483986 
L 130.812719 179.189346 
L 131.349402 180.306818 
L 132.422767 180.522268 
L 133.496132 180.40541 
L 134.032815 180.6077 
L 134.569498 180.569325 
L 135.642863 180.034492 
L 136.179545 177.537225 
L 136.716228 166.694681 
L 137.252911 168.301697 
L 137.789593 176.251583 
L 138.326276 178.005362 
L 138.862959 167.787542 
L 139.399641 154.114818 
L 139.936324 163.76576 
L 140.473006 176.148797 
L 141.009689 179.316791 
L 141.546372 180.009563 
L 142.083054 180.385636 
L 142.619737 179.991104 
L 143.156419 178.654136 
L 144.229785 170.160782 
L 145.30315 175.974936 
L 145.839833 161.072733 
L 146.376515 160.662941 
L 146.913198 177.582497 
L 147.44988 178.759365 
L 147.986563 173.323457 
L 148.523246 165.166438 
L 149.059928 164.536253 
L 149.596611 174.384971 
L 150.133293 179.199157 
L 150.669976 180.092342 
L 151.206659 180.350712 
L 151.743341 179.854243 
L 152.280024 177.415636 
L 152.816707 173.963476 
L 153.353389 173.436371 
L 153.890072 176.9237 
L 154.426754 179.444928 
L 154.963437 180.111367 
L 155.50012 180.246536 
L 156.036802 179.403389 
L 156.573485 177.457274 
L 157.110167 174.137352 
L 157.64685 174.373796 
L 158.183533 178.487193 
L 158.720215 179.830158 
L 159.256898 180.444661 
L 159.793581 180.591126 
L 160.330263 180.449122 
L 160.866946 180.522097 
L 161.940311 180.386082 
L 162.476994 180.480642 
L 163.013676 180.368744 
L 163.550359 180.078478 
L 164.087041 178.162103 
L 165.160407 167.603875 
L 166.233772 177.603074 
L 166.770455 177.88658 
L 167.307137 174.710719 
L 167.84382 175.602849 
L 168.380502 178.271125 
L 168.917185 179.345016 
L 169.453868 177.145343 
L 169.99055 173.156189 
L 170.527233 170.140553 
L 171.063915 173.502556 
L 171.600598 175.779401 
L 172.137281 171.463895 
L 172.673963 166.013963 
L 173.210646 166.907687 
L 173.747329 174.945382 
L 174.284011 178.883975 
L 174.820694 179.68947 
L 175.357376 178.465211 
L 175.894059 174.890197 
L 176.430742 175.212709 
L 176.967424 177.480042 
L 177.504107 176.963505 
L 178.040789 176.024971 
L 178.577472 176.755895 
L 179.114155 176.081178 
L 179.650837 175.154616 
L 180.18752 177.942729 
L 180.724203 180.049606 
L 181.260885 180.533376 
L 182.33425 180.468417 
L 182.870933 180.553632 
L 183.407616 180.422049 
L 183.944298 180.47343 
L 184.480981 180.328146 
L 185.017663 179.456094 
L 185.554346 175.687326 
L 186.091029 170.778759 
L 187.164394 178.58118 
L 187.701077 179.673281 
L 188.237759 179.665335 
L 188.774442 176.091877 
L 189.311124 169.062371 
L 189.847807 170.374488 
L 190.38449 172.35919 
L 190.921172 173.688422 
L 191.457855 177.665129 
L 191.994537 177.995889 
L 192.53122 175.051359 
L 193.067903 173.656806 
L 194.141268 179.429832 
L 194.677951 179.750905 
L 195.751316 174.407013 
L 196.287998 177.548418 
L 197.361364 176.400786 
L 197.898046 175.138708 
L 198.434729 172.138674 
L 198.971411 172.747677 
L 199.508094 177.677191 
L 200.044777 179.801037 
L 200.581459 180.371989 
L 201.118142 180.400235 
L 201.654825 179.961601 
L 202.191507 178.615111 
L 202.72819 176.097971 
L 203.264872 176.433603 
L 203.801555 177.57203 
L 204.338238 176.991524 
L 205.411603 178.795924 
L 205.948285 177.666417 
L 206.484968 175.551586 
L 207.021651 174.434089 
L 207.558333 173.764794 
L 208.095016 175.041953 
L 208.631699 176.849233 
L 209.168381 177.098452 
L 209.705064 173.743764 
L 210.241746 172.343537 
L 210.778429 176.449603 
L 211.315112 179.122714 
L 211.851794 178.744074 
L 212.925159 172.640569 
L 213.998525 177.065634 
L 215.608573 177.505135 
L 216.681938 179.823309 
L 217.21862 179.635468 
L 218.291986 175.503486 
L 219.365351 177.430697 
L 219.902033 177.294438 
L 220.975399 175.505407 
L 221.512081 178.040436 
L 222.048764 179.559757 
L 222.585447 179.465554 
L 223.122129 178.368864 
L 223.658812 176.497184 
L 224.195494 173.150332 
L 224.732177 172.485237 
L 225.26886 177.00251 
L 225.805542 179.839716 
L 226.342225 180.367675 
L 226.878907 180.494714 
L 227.41559 180.151262 
L 227.952273 179.478762 
L 228.488955 178.416744 
L 229.562321 179.724089 
L 230.099003 179.441413 
L 230.635686 177.128334 
L 231.172368 176.873022 
L 231.709051 178.886986 
L 232.245734 179.887671 
L 232.782416 178.826098 
L 233.319099 176.941113 
L 233.855781 177.230265 
L 234.392464 179.230543 
L 234.929147 180.289805 
L 235.465829 180.379862 
L 236.002512 180.250569 
L 236.539195 179.679765 
L 237.61256 176.109174 
L 238.149242 175.382773 
L 239.222608 171.453512 
L 239.75929 173.671743 
L 240.295973 173.359117 
L 240.832656 173.232881 
L 241.369338 177.199347 
L 241.906021 179.503534 
L 242.442703 178.953971 
L 242.979386 178.101331 
L 244.052751 174.838701 
L 244.589434 174.869986 
L 245.126116 177.312603 
L 246.199482 179.608428 
L 246.736164 179.449635 
L 247.272847 178.232868 
L 247.80953 177.610209 
L 248.346212 178.721208 
L 248.882895 178.486056 
L 249.419577 176.269697 
L 249.95626 174.827847 
L 251.029625 179.417855 
L 251.566308 179.200232 
L 252.10299 177.780558 
L 252.639673 175.77643 
L 253.176356 175.367503 
L 253.713038 175.519158 
L 254.249721 173.462624 
L 254.786404 174.129781 
L 255.323086 176.989029 
L 255.859769 178.284466 
L 256.396451 177.268972 
L 256.933134 176.753653 
L 257.469817 176.434304 
L 258.006499 176.743835 
L 258.543182 175.959236 
L 258.543182 175.959236 
" clip-path="url(#p2f91a8e897)" style="fill: none; stroke: #000000; stroke-opacity: 0.5; stroke-width: 0.5; stroke-linecap: square"/>
   </g>
   <g id="line2d_16">
    <path d="M 44.406818 180.687273 
L 92.708254 180.687273 
L 93.244936 180.278955 
L 93.781619 180.287736 
L 94.318301 180.687273 
L 94.854984 180.304468 
L 95.391667 180.687273 
L 95.928349 180.687273 
L 97.001715 179.982582 
L 97.538397 179.996675 
L 98.07508 176.964197 
L 98.611762 163.764194 
L 99.148445 136.760679 
L 99.685128 132.49934 
L 100.22181 152.513078 
L 100.758493 165.023138 
L 101.295175 172.549502 
L 101.831858 178.320731 
L 102.368541 179.525711 
L 102.905223 179.54683 
L 103.441906 180.687273 
L 103.978589 180.137324 
L 104.515271 180.417165 
L 105.051954 179.891165 
L 105.588636 180.426519 
L 106.125319 179.662239 
L 107.198684 177.46835 
L 108.272049 157.227001 
L 108.808732 158.321087 
L 109.345415 171.424319 
L 109.882097 177.042339 
L 110.41878 179.566602 
L 110.955463 180.466724 
L 111.492145 180.687273 
L 112.028828 180.046383 
L 112.56551 180.476981 
L 113.102193 180.27321 
L 113.638876 179.66804 
L 114.175558 180.08507 
L 114.712241 180.291888 
L 115.248923 179.324231 
L 115.785606 177.042811 
L 116.322289 170.482753 
L 116.858971 151.082496 
L 117.395654 121.424748 
L 117.932337 134.217411 
L 118.469019 161.974753 
L 119.005702 177.525237 
L 119.542384 179.128679 
L 120.079067 179.321369 
L 120.61575 180.013872 
L 121.152432 180.521261 
L 121.689115 180.687273 
L 122.225797 179.718398 
L 122.76248 180.368708 
L 123.299163 180.215883 
L 123.835845 180.532252 
L 124.909211 180.536344 
L 125.445893 180.389388 
L 125.982576 180.540277 
L 126.519258 180.542186 
L 127.055941 180.400844 
L 127.592624 180.687273 
L 128.129306 180.547695 
L 128.665989 180.549462 
L 129.202671 180.687273 
L 129.739354 180.687273 
L 130.812719 180.425136 
L 131.349402 180.687273 
L 131.886085 180.43151 
L 132.422767 180.560941 
L 132.95945 180.562463 
L 133.496132 180.440643 
L 134.032815 180.565426 
L 134.569498 180.446463 
L 135.10618 180.211321 
L 135.642863 179.276114 
L 136.179545 171.505169 
L 136.716228 138.75404 
L 137.252911 143.097134 
L 137.789593 168.562442 
L 138.326276 175.803657 
L 139.399641 132.402901 
L 139.936324 158.370491 
L 140.473006 178.246975 
L 141.009689 180.267563 
L 142.083054 180.379352 
L 142.619737 180.585748 
L 143.156419 179.984283 
L 144.229785 180.490703 
L 145.30315 180.206222 
L 145.839833 174.880233 
L 146.376515 148.564906 
L 146.913198 176.026303 
L 147.44988 180.595019 
L 148.523246 180.687273 
L 149.059928 180.597829 
L 150.133293 180.687273 
L 150.669976 180.600512 
L 151.743341 180.687273 
L 153.890072 180.687273 
L 154.426754 180.525371 
L 156.036802 180.687273 
L 157.110167 180.687273 
L 157.64685 180.458004 
L 158.720215 180.687273 
L 160.866946 180.687273 
L 161.940311 180.474412 
L 162.476994 180.546649 
L 163.013676 180.478238 
L 163.550359 180.687273 
L 164.087041 180.413526 
L 164.623724 180.551616 
L 165.160407 180.351133 
L 165.697089 180.287457 
L 166.233772 178.903883 
L 166.770455 173.943427 
L 167.307137 162.773503 
L 167.84382 165.630968 
L 168.380502 173.989491 
L 168.917185 177.967912 
L 169.453868 176.79985 
L 169.99055 171.548728 
L 170.527233 162.503487 
L 171.063915 167.424233 
L 171.600598 170.020567 
L 172.137281 158.270292 
L 172.673963 149.934619 
L 173.210646 152.908568 
L 173.747329 169.960703 
L 174.284011 177.141182 
L 174.820694 179.476495 
L 175.357376 180.115418 
L 176.430742 179.280741 
L 176.967424 175.943623 
L 177.504107 173.545907 
L 178.040789 173.932539 
L 178.577472 177.636452 
L 179.114155 179.714434 
L 179.650837 180.311936 
L 180.724203 180.581713 
L 181.260885 180.634905 
L 181.797568 180.375512 
L 183.944298 180.43539 
L 184.480981 179.937392 
L 185.017663 177.859408 
L 185.554346 170.840111 
L 186.091029 167.640464 
L 187.164394 177.847388 
L 187.701077 179.445133 
L 188.237759 180.260497 
L 188.774442 180.451932 
L 189.847807 180.362632 
L 190.38449 180.503123 
L 190.921172 180.321661 
L 191.457855 179.870627 
L 191.994537 176.723731 
L 192.53122 171.297123 
L 193.067903 168.789838 
L 194.141268 178.411733 
L 194.677951 179.60105 
L 195.214633 179.997023 
L 195.751316 179.102346 
L 196.824681 170.128321 
L 197.361364 170.118273 
L 197.898046 172.23268 
L 198.434729 170.388945 
L 198.971411 172.965612 
L 199.508094 178.158337 
L 200.044777 179.755567 
L 200.581459 180.405652 
L 201.118142 180.327661 
L 201.654825 178.941124 
L 202.191507 174.81427 
L 202.72819 167.14148 
L 203.264872 168.865879 
L 203.801555 175.125239 
L 204.338238 178.768929 
L 204.87492 179.696384 
L 205.411603 178.150794 
L 205.948285 173.72994 
L 206.484968 171.870602 
L 207.021651 176.567715 
L 207.558333 179.175614 
L 208.095016 180.064583 
L 208.631699 180.214202 
L 209.168381 178.445735 
L 209.705064 173.108204 
L 210.241746 172.657446 
L 210.778429 176.680445 
L 211.315112 179.665564 
L 211.851794 180.337211 
L 212.388477 180.478574 
L 213.461842 180.584242 
L 213.998525 180.653146 
L 214.535207 180.551623 
L 215.07189 180.653573 
L 215.608573 180.519828 
L 216.681938 180.621125 
L 217.21862 180.621535 
L 217.755303 180.360613 
L 218.291986 179.940579 
L 218.828668 177.36389 
L 219.365351 174.145325 
L 219.902033 172.782799 
L 220.438716 173.242667 
L 220.975399 172.878487 
L 221.512081 177.056813 
L 222.048764 179.505159 
L 222.585447 180.099762 
L 223.122129 180.103279 
L 223.658812 178.945767 
L 224.732177 169.214773 
L 225.805542 179.344699 
L 226.342225 180.272038 
L 226.878907 180.392417 
L 227.41559 180.27689 
L 227.952273 180.454135 
L 228.488955 180.339598 
L 229.025638 180.370419 
L 229.562321 179.656292 
L 230.099003 177.754505 
L 230.635686 170.156046 
L 231.172368 169.259456 
L 231.709051 175.509734 
L 232.245734 179.602018 
L 232.782416 180.161559 
L 233.319099 180.41215 
L 235.465829 180.337593 
L 236.002512 180.045318 
L 236.539195 178.346555 
L 237.075877 174.153773 
L 237.61256 172.164535 
L 238.149242 177.103425 
L 238.685925 178.007709 
L 239.222608 174.9695 
L 239.75929 173.173933 
L 240.295973 169.555598 
L 240.832656 169.056405 
L 241.369338 176.434813 
L 241.906021 179.478872 
L 242.442703 179.610602 
L 242.979386 178.919094 
L 244.052751 170.512105 
L 244.589434 173.727733 
L 245.126116 178.322914 
L 245.662799 179.741715 
L 246.199482 180.277292 
L 246.736164 180.471371 
L 247.272847 180.353201 
L 247.80953 180.354958 
L 248.346212 179.766403 
L 248.882895 177.704222 
L 249.419577 173.841079 
L 249.95626 171.831247 
L 251.029625 179.629112 
L 251.566308 180.412656 
L 252.10299 180.459605 
L 252.639673 180.324876 
L 253.176356 179.718328 
L 253.713038 177.862561 
L 254.249721 173.951489 
L 254.786404 172.45463 
L 255.859769 178.951962 
L 256.396451 178.654757 
L 257.469817 170.84301 
L 258.006499 171.107651 
L 258.543182 170.363051 
L 258.543182 170.363051 
" clip-path="url(#p2f91a8e897)" style="fill: none; stroke: #0000ff; stroke-opacity: 0.5; stroke-linecap: square"/>
   </g>
   <g id="line2d_17">
    <path d="M 44.406818 180.687273 
L 107.198684 180.687273 
L 107.735367 179.82168 
L 108.272049 180.687273 
L 109.882097 180.687273 
L 110.41878 177.898048 
L 110.955463 179.903101 
L 111.492145 180.30141 
L 112.028828 175.750048 
L 112.56551 158.630013 
L 113.102193 116.645534 
L 113.638876 62.909269 
L 114.175558 88.974102 
L 114.712241 149.407925 
L 115.248923 170.648364 
L 115.785606 178.64126 
L 116.322289 177.999663 
L 116.858971 179.032219 
L 117.395654 179.056381 
L 119.542384 180.379402 
L 120.079067 179.77667 
L 120.61575 179.789405 
L 121.689115 180.396211 
L 122.225797 180.400199 
L 122.76248 180.120936 
L 123.299163 179.290561 
L 123.835845 179.860495 
L 124.372528 179.871517 
L 124.909211 180.150639 
L 125.445893 179.892915 
L 125.982576 174.676796 
L 126.519258 164.179679 
L 127.055941 141.223813 
L 127.592624 139.718963 
L 128.129306 170.513642 
L 128.665989 177.747311 
L 129.202671 179.961528 
L 130.812719 180.687273 
L 136.716228 180.687273 
L 137.252911 180.485379 
L 137.789593 180.487687 
L 138.326276 180.687273 
L 138.862959 180.687273 
L 139.399641 180.494376 
L 139.936324 180.496531 
L 140.473006 180.687273 
L 141.009689 180.500735 
L 141.546372 180.687273 
L 143.156419 180.687273 
L 143.693102 180.157421 
L 144.229785 180.337816 
L 144.766467 179.995794 
L 145.30315 174.187739 
L 145.839833 90.14401 
L 146.913198 177.207082 
L 147.44988 180.031248 
L 147.986563 180.687273 
L 159.793581 180.687273 
L 160.330263 180.557613 
L 161.940311 180.561133 
L 162.476994 180.687273 
L 163.013676 180.5634 
L 163.550359 180.687273 
L 164.087041 180.687273 
L 165.160407 180.209207 
L 165.697089 180.213417 
L 166.233772 180.100149 
L 166.770455 180.687273 
L 167.307137 180.4565 
L 167.84382 180.000946 
L 168.380502 179.78006 
L 168.917185 178.551134 
L 169.453868 168.760272 
L 169.99055 155.931007 
L 170.527233 155.921714 
L 171.063915 166.018475 
L 171.600598 173.360647 
L 172.137281 170.750882 
L 172.673963 155.89444 
L 173.210646 155.364656 
L 173.747329 169.120554 
L 174.284011 177.79356 
L 174.820694 179.969775 
L 175.357376 180.077295 
L 175.894059 179.981417 
L 176.430742 179.687073 
L 176.967424 179.099856 
L 177.504107 174.585435 
L 178.040789 168.776488 
L 178.577472 170.033613 
L 179.114155 175.114466 
L 179.650837 178.971449 
L 180.18752 180.214408 
L 180.724203 180.40578 
L 181.260885 180.407979 
L 181.797568 180.133032 
L 182.33425 180.320643 
L 183.944298 180.32904 
L 184.480981 180.598398 
L 185.017663 180.158082 
L 185.554346 180.337151 
L 186.091029 180.252922 
L 186.627711 180.342405 
L 188.237759 180.097164 
L 188.774442 178.762705 
L 189.311124 176.119015 
L 189.847807 161.229443 
L 190.38449 142.220416 
L 190.921172 144.207357 
L 191.457855 166.491757 
L 191.994537 173.560906 
L 192.53122 167.093916 
L 193.067903 163.95589 
L 194.141268 178.353386 
L 194.677951 179.837606 
L 195.214633 180.227106 
L 195.751316 180.154204 
L 196.287998 180.384807 
L 198.434729 180.687273 
L 199.508094 180.542244 
L 200.044777 180.615257 
L 200.581459 180.472704 
L 201.118142 180.616238 
L 202.191507 180.477053 
L 203.264872 180.687273 
L 203.801555 180.549939 
L 205.411603 180.552667 
L 205.948285 180.286129 
L 206.484968 180.355195 
L 207.021651 179.169758 
L 207.558333 175.312486 
L 208.095016 167.142758 
L 208.631699 167.360417 
L 209.705064 178.963125 
L 210.241746 180.243154 
L 211.315112 180.687273 
L 211.851794 180.500573 
L 212.388477 180.501763 
L 212.925159 180.318607 
L 213.461842 178.489278 
L 213.998525 172.132777 
L 214.535207 167.664918 
L 215.07189 170.981776 
L 215.608573 177.115114 
L 216.145255 179.858961 
L 217.21862 180.570405 
L 218.291986 180.629557 
L 218.828668 180.629911 
L 219.365351 180.516241 
L 219.902033 180.573947 
L 221.512081 180.353437 
L 222.048764 180.466058 
L 222.585447 180.137555 
L 223.122129 179.102636 
L 223.658812 172.865774 
L 224.195494 159.198176 
L 224.732177 158.305836 
L 225.26886 172.57731 
L 225.805542 178.830875 
L 226.342225 180.159991 
L 226.878907 180.477597 
L 229.562321 180.687273 
L 230.099003 180.484795 
L 231.172368 180.637233 
L 233.319099 180.540541 
L 233.855781 180.444101 
L 235.465829 180.543814 
L 237.61256 179.892285 
L 238.149242 175.990195 
L 239.222608 149.180595 
L 240.295973 176.001449 
L 240.832656 179.46565 
L 241.369338 180.192277 
L 241.906021 180.418739 
L 242.979386 179.978894 
L 243.516069 177.516702 
L 244.052751 170.525793 
L 244.589434 166.397892 
L 245.126116 174.577316 
L 245.662799 178.575257 
L 246.199482 180.387156 
L 247.272847 180.602429 
L 247.80953 180.391881 
L 248.346212 180.561342 
L 249.95626 180.398012 
L 250.492943 180.27619 
L 251.029625 179.70579 
L 251.566308 178.164867 
L 252.10299 172.390043 
L 252.639673 160.433334 
L 253.176356 157.933343 
L 253.713038 166.738081 
L 254.249721 168.910806 
L 254.786404 169.838628 
L 255.323086 175.310121 
L 255.859769 178.969047 
L 256.396451 179.987913 
L 256.933134 180.339353 
L 257.469817 180.494955 
L 258.543182 180.573035 
L 258.543182 180.573035 
" clip-path="url(#p2f91a8e897)" style="fill: none; stroke: #ff0000; stroke-opacity: 0.5; stroke-linecap: square"/>
   </g>
   <g id="patch_3">
    <path d="M 33.7 188.6 
L 33.7 14.52 
" style="fill: none; stroke: #000000; stroke-width: 0.8; stroke-linejoin: miter; stroke-linecap: square"/>
   </g>
   <g id="patch_4">
    <path d="M 269.25 188.6 
L 269.25 14.52 
" style="fill: none; stroke: #000000; stroke-width: 0.8; stroke-linejoin: miter; stroke-linecap: square"/>
   </g>
   <g id="patch_5">
    <path d="M 33.7 188.6 
L 269.25 188.6 
" style="fill: none; stroke: #000000; stroke-width: 0.8; stroke-linejoin: miter; stroke-linecap: square"/>
   </g>
   <g id="patch_6">
    <path d="M 33.7 14.52 
L 269.25 14.52 
" style="fill: none; stroke: #000000; stroke-width: 0.8; stroke-linejoin: miter; stroke-linecap: square"/>
   </g>
   <g id="legend_1">
    <g id="patch_7">
     <path d="M 213.917188 66.554375 
L 262.25 66.554375 
Q 264.25 66.554375 264.25 64.554375 
L 264.25 21.52 
Q 264.25 19.52 262.25 19.52 
L 213.917188 19.52 
Q 211.917188 19.52 211.917188 21.52 
L 211.917188 64.554375 
Q 211.917188 66.554375 213.917188 66.554375 
z
" style="fill: #ffffff; opacity: 0.8; stroke: #cccccc; stroke-linejoin: miter"/>
    </g>
    <g id="line2d_18">
     <path d="M 215.917188 27.618438 
L 225.917188 27.618438 
L 235.917188 27.618438 
" style="fill: none; stroke: #000000; stroke-opacity: 0.5; stroke-width: 0.5; stroke-linecap: square"/>
    </g>
    <g id="text_17">
     <!-- all -->
     <g transform="translate(243.917188 31.118438) scale(0.1 -0.1)">
      <defs>
       <path id="DejaVuSans-61" d="M 2194 1759 
Q 1497 1759 1228 1600 
Q 959 1441 959 1056 
Q 959 750 1161 570 
Q 1363 391 1709 391 
Q 2188 391 2477 730 
Q 2766 1069 2766 1631 
L 2766 1759 
L 2194 1759 
z
M 3341 1997 
L 3341 0 
L 2766 0 
L 2766 531 
Q 2569 213 2275 61 
Q 1981 -91 1556 -91 
Q 1019 -91 701 211 
Q 384 513 384 1019 
Q 384 1609 779 1909 
Q 1175 2209 1959 2209 
L 2766 2209 
L 2766 2266 
Q 2766 2663 2505 2880 
Q 2244 3097 1772 3097 
Q 1472 3097 1187 3025 
Q 903 2953 641 2809 
L 641 3341 
Q 956 3463 1253 3523 
Q 1550 3584 1831 3584 
Q 2591 3584 2966 3190 
Q 3341 2797 3341 1997 
z
" transform="scale(0.015625)"/>
       <path id="DejaVuSans-6c" d="M 603 4863 
L 1178 4863 
L 1178 0 
L 603 0 
L 603 4863 
z
" transform="scale(0.015625)"/>
      </defs>
      <use xlink:href="#DejaVuSans-61"/>
      <use xlink:href="#DejaVuSans-6c" transform="translate(61.279297 0)"/>
      <use xlink:href="#DejaVuSans-6c" transform="translate(89.0625 0)"/>
     </g>
    </g>
    <g id="line2d_19">
     <path d="M 215.917188 42.296563 
L 225.917188 42.296563 
L 235.917188 42.296563 
" style="fill: none; stroke: #0000ff; stroke-opacity: 0.5; stroke-linecap: square"/>
    </g>
    <g id="text_18">
     <!-- 1-1 -->
     <g transform="translate(243.917188 45.796563) scale(0.1 -0.1)">
      <defs>
       <path id="DejaVuSans-2d" d="M 313 2009 
L 1997 2009 
L 1997 1497 
L 313 1497 
L 313 2009 
z
" transform="scale(0.015625)"/>
      </defs>
      <use xlink:href="#DejaVuSans-31"/>
      <use xlink:href="#DejaVuSans-2d" transform="translate(63.623047 0)"/>
      <use xlink:href="#DejaVuSans-31" transform="translate(99.707031 0)"/>
     </g>
    </g>
    <g id="line2d_20">
     <path d="M 215.917188 56.974688 
L 225.917188 56.974688 
L 235.917188 56.974688 
" style="fill: none; stroke: #ff0000; stroke-opacity: 0.5; stroke-linecap: square"/>
    </g>
    <g id="text_19">
     <!-- 2-2 -->
     <g transform="translate(243.917188 60.474688) scale(0.1 -0.1)">
      <use xlink:href="#DejaVuSans-32"/>
      <use xlink:href="#DejaVuSans-2d" transform="translate(63.623047 0)"/>
      <use xlink:href="#DejaVuSans-32" transform="translate(99.707031 0)"/>
     </g>
    </g>
   </g>
  </g>
 </g>
 <defs>
  <clipPath id="p2f91a8e897">
   <rect x="33.7" y="14.52" width="235.55" height="174.08"/>
  </clipPath>
 </defs>
</svg>
