<?xml version="1.0" encoding="utf-8" standalone="no"?>
<!DOCTYPE svg PUBLIC "-//W3C//DTD SVG 1.1//EN"
  "http://www.w3.org/Graphics/SVG/1.1/DTD/svg11.dtd">
<svg xmlns:xlink="http://www.w3.org/1999/xlink" width="288pt" height="216pt" viewBox="0 0 288 216" xmlns="http://www.w3.org/2000/svg" version="1.1">
 <metadata>
  <rdf:RDF xmlns:dc="http://purl.org/dc/elements/1.1/" xmlns:cc="http://creativecommons.org/ns#" xmlns:rdf="http://www.w3.org/1999/02/22-rdf-syntax-ns#">
   <cc:Work>
    <dc:type rdf:resource="http://purl.org/dc/dcmitype/StillImage"/>
    <dc:date>2025-09-17T23:58:06.390689</dc:date>
    <dc:format>image/svg+xml</dc:format>
    <dc:creator>
     <cc:Agent>
      <dc:title>Matplotlib v3.10.0, https://matplotlib.org/</dc:title>
     </cc:Agent>
    </dc:creator>
   </cc:Work>
  </rdf:RDF>
 </metadata>
 <defs>
  <style type="text/css">*{stroke-linejoin: round; stroke-linecap: butt}</style>
 </defs>
 <g id="figure_1">
  <g id="patch_1">
   <path d="M 0 216 
L 288 216 
L 288 0 
L 0 0 
z
" style="fill: #ffffff"/>
  </g>
  <g id="axes_1">
   <g id="patch_2">
    <path d="M 33.7 188.6 
L 269.25 188.6 
L 269.25 14.52 
L 33.7 14.52 
z
" style="fill: #ffffff"/>
   </g>
   <g id="matplotlib.axis_1">
    <g id="xtick_1">
     <g id="line2d_1">
      <defs>
       <path id="madecf1b4fb" d="M 0 0 
L 0 3.5 
" style="stroke: #000000; stroke-width: 0.8"/>
      </defs>
      <g>
       <use xlink:href="#madecf1b4fb" x="44.138477" y="188.6" style="stroke: #000000; stroke-width: 0.8"/>
      </g>
     </g>
     <g id="text_1">
      <!-- 0 -->
      <g transform="translate(40.957227 203.198437) scale(0.1 -0.1)">
       <defs>
        <path id="DejaVuSans-30" d="M 2034 4250 
Q 1547 4250 1301 3770 
Q 1056 3291 1056 2328 
Q 1056 1369 1301 889 
Q 1547 409 2034 409 
Q 2525 409 2770 889 
Q 3016 1369 3016 2328 
Q 3016 3291 2770 3770 
Q 2525 4250 2034 4250 
z
M 2034 4750 
Q 2819 4750 3233 4129 
Q 3647 3509 3647 2328 
Q 3647 1150 3233 529 
Q 2819 -91 2034 -91 
Q 1250 -91 836 529 
Q 422 1150 422 2328 
Q 422 3509 836 4129 
Q 1250 4750 2034 4750 
z
" transform="scale(0.015625)"/>
       </defs>
       <use xlink:href="#DejaVuSans-30"/>
      </g>
     </g>
    </g>
    <g id="xtick_2">
     <g id="line2d_2">
      <g>
       <use xlink:href="#madecf1b4fb" x="87.073086" y="188.6" style="stroke: #000000; stroke-width: 0.8"/>
      </g>
     </g>
     <g id="text_2">
      <!-- 200 -->
      <g transform="translate(77.529336 203.198437) scale(0.1 -0.1)">
       <defs>
        <path id="DejaVuSans-32" d="M 1228 531 
L 3431 531 
L 3431 0 
L 469 0 
L 469 531 
Q 828 903 1448 1529 
Q 2069 2156 2228 2338 
Q 2531 2678 2651 2914 
Q 2772 3150 2772 3378 
Q 2772 3750 2511 3984 
Q 2250 4219 1831 4219 
Q 1534 4219 1204 4116 
Q 875 4013 500 3803 
L 500 4441 
Q 881 4594 1212 4672 
Q 1544 4750 1819 4750 
Q 2544 4750 2975 4387 
Q 3406 4025 3406 3419 
Q 3406 3131 3298 2873 
Q 3191 2616 2906 2266 
Q 2828 2175 2409 1742 
Q 1991 1309 1228 531 
z
" transform="scale(0.015625)"/>
       </defs>
       <use xlink:href="#DejaVuSans-32"/>
       <use xlink:href="#DejaVuSans-30" transform="translate(63.623047 0)"/>
       <use xlink:href="#DejaVuSans-30" transform="translate(127.246094 0)"/>
      </g>
     </g>
    </g>
    <g id="xtick_3">
     <g id="line2d_3">
      <g>
       <use xlink:href="#madecf1b4fb" x="130.007695" y="188.6" style="stroke: #000000; stroke-width: 0.8"/>
      </g>
     </g>
     <g id="text_3">
      <!-- 400 -->
      <g transform="translate(120.463945 203.198437) scale(0.1 -0.1)">
       <defs>
        <path id="DejaVuSans-34" d="M 2419 4116 
L 825 1625 
L 2419 1625 
L 2419 4116 
z
M 2253 4666 
L 3047 4666 
L 3047 1625 
L 3713 1625 
L 3713 1100 
L 3047 1100 
L 3047 0 
L 2419 0 
L 2419 1100 
L 313 1100 
L 313 1709 
L 2253 4666 
z
" transform="scale(0.015625)"/>
       </defs>
       <use xlink:href="#DejaVuSans-34"/>
       <use xlink:href="#DejaVuSans-30" transform="translate(63.623047 0)"/>
       <use xlink:href="#DejaVuSans-30" transform="translate(127.246094 0)"/>
      </g>
     </g>
    </g>
    <g id="xtick_4">
     <g id="line2d_4">
      <g>
       <use xlink:href="#madecf1b4fb" x="172.942305" y="188.6" style="stroke: #000000; stroke-width: 0.8"/>
      </g>
     </g>
     <g id="text_4">
      <!-- 600 -->
      <g transform="translate(163.398555 203.198437) scale(0.1 -0.1)">
       <defs>
        <path id="DejaVuSans-36" d="M 2113 2584 
Q 1688 2584 1439 2293 
Q 1191 2003 1191 1497 
Q 1191 994 1439 701 
Q 1688 409 2113 409 
Q 2538 409 2786 701 
Q 3034 994 3034 1497 
Q 3034 2003 2786 2293 
Q 2538 2584 2113 2584 
z
M 3366 4563 
L 3366 3988 
Q 3128 4100 2886 4159 
Q 2644 4219 2406 4219 
Q 1781 4219 1451 3797 
Q 1122 3375 1075 2522 
Q 1259 2794 1537 2939 
Q 1816 3084 2150 3084 
Q 2853 3084 3261 2657 
Q 3669 2231 3669 1497 
Q 3669 778 3244 343 
Q 2819 -91 2113 -91 
Q 1303 -91 875 529 
Q 447 1150 447 2328 
Q 447 3434 972 4092 
Q 1497 4750 2381 4750 
Q 2619 4750 2861 4703 
Q 3103 4656 3366 4563 
z
" transform="scale(0.015625)"/>
       </defs>
       <use xlink:href="#DejaVuSans-36"/>
       <use xlink:href="#DejaVuSans-30" transform="translate(63.623047 0)"/>
       <use xlink:href="#DejaVuSans-30" transform="translate(127.246094 0)"/>
      </g>
     </g>
    </g>
    <g id="xtick_5">
     <g id="line2d_5">
      <g>
       <use xlink:href="#madecf1b4fb" x="215.876914" y="188.6" style="stroke: #000000; stroke-width: 0.8"/>
      </g>
     </g>
     <g id="text_5">
      <!-- 800 -->
      <g transform="translate(206.333164 203.198437) scale(0.1 -0.1)">
       <defs>
        <path id="DejaVuSans-38" d="M 2034 2216 
Q 1584 2216 1326 1975 
Q 1069 1734 1069 1313 
Q 1069 891 1326 650 
Q 1584 409 2034 409 
Q 2484 409 2743 651 
Q 3003 894 3003 1313 
Q 3003 1734 2745 1975 
Q 2488 2216 2034 2216 
z
M 1403 2484 
Q 997 2584 770 2862 
Q 544 3141 544 3541 
Q 544 4100 942 4425 
Q 1341 4750 2034 4750 
Q 2731 4750 3128 4425 
Q 3525 4100 3525 3541 
Q 3525 3141 3298 2862 
Q 3072 2584 2669 2484 
Q 3125 2378 3379 2068 
Q 3634 1759 3634 1313 
Q 3634 634 3220 271 
Q 2806 -91 2034 -91 
Q 1263 -91 848 271 
Q 434 634 434 1313 
Q 434 1759 690 2068 
Q 947 2378 1403 2484 
z
M 1172 3481 
Q 1172 3119 1398 2916 
Q 1625 2713 2034 2713 
Q 2441 2713 2670 2916 
Q 2900 3119 2900 3481 
Q 2900 3844 2670 4047 
Q 2441 4250 2034 4250 
Q 1625 4250 1398 4047 
Q 1172 3844 1172 3481 
z
" transform="scale(0.015625)"/>
       </defs>
       <use xlink:href="#DejaVuSans-38"/>
       <use xlink:href="#DejaVuSans-30" transform="translate(63.623047 0)"/>
       <use xlink:href="#DejaVuSans-30" transform="translate(127.246094 0)"/>
      </g>
     </g>
    </g>
    <g id="xtick_6">
     <g id="line2d_6">
      <g>
       <use xlink:href="#madecf1b4fb" x="258.811523" y="188.6" style="stroke: #000000; stroke-width: 0.8"/>
      </g>
     </g>
     <g id="text_6">
      <!-- 1000 -->
      <g transform="translate(246.086523 203.198437) scale(0.1 -0.1)">
       <defs>
        <path id="DejaVuSans-31" d="M 794 531 
L 1825 531 
L 1825 4091 
L 703 3866 
L 703 4441 
L 1819 4666 
L 2450 4666 
L 2450 531 
L 3481 531 
L 3481 0 
L 794 0 
L 794 531 
z
" transform="scale(0.015625)"/>
       </defs>
       <use xlink:href="#DejaVuSans-31"/>
       <use xlink:href="#DejaVuSans-30" transform="translate(63.623047 0)"/>
       <use xlink:href="#DejaVuSans-30" transform="translate(127.246094 0)"/>
       <use xlink:href="#DejaVuSans-30" transform="translate(190.869141 0)"/>
      </g>
     </g>
    </g>
    <g id="text_7">
     <!-- q (nm) -->
     <g transform="translate(134.771094 216.876563) scale(0.1 -0.1)">
      <defs>
       <path id="DejaVuSans-71" d="M 947 1747 
Q 947 1113 1208 752 
Q 1469 391 1925 391 
Q 2381 391 2643 752 
Q 2906 1113 2906 1747 
Q 2906 2381 2643 2742 
Q 2381 3103 1925 3103 
Q 1469 3103 1208 2742 
Q 947 2381 947 1747 
z
M 2906 525 
Q 2725 213 2448 61 
Q 2172 -91 1784 -91 
Q 1150 -91 751 415 
Q 353 922 353 1747 
Q 353 2572 751 3078 
Q 1150 3584 1784 3584 
Q 2172 3584 2448 3432 
Q 2725 3281 2906 2969 
L 2906 3500 
L 3481 3500 
L 3481 -1331 
L 2906 -1331 
L 2906 525 
z
" transform="scale(0.015625)"/>
       <path id="DejaVuSans-20" transform="scale(0.015625)"/>
       <path id="DejaVuSans-28" d="M 1984 4856 
Q 1566 4138 1362 3434 
Q 1159 2731 1159 2009 
Q 1159 1288 1364 580 
Q 1569 -128 1984 -844 
L 1484 -844 
Q 1016 -109 783 600 
Q 550 1309 550 2009 
Q 550 2706 781 3412 
Q 1013 4119 1484 4856 
L 1984 4856 
z
" transform="scale(0.015625)"/>
       <path id="DejaVuSans-6e" d="M 3513 2113 
L 3513 0 
L 2938 0 
L 2938 2094 
Q 2938 2591 2744 2837 
Q 2550 3084 2163 3084 
Q 1697 3084 1428 2787 
Q 1159 2491 1159 1978 
L 1159 0 
L 581 0 
L 581 3500 
L 1159 3500 
L 1159 2956 
Q 1366 3272 1645 3428 
Q 1925 3584 2291 3584 
Q 2894 3584 3203 3211 
Q 3513 2838 3513 2113 
z
" transform="scale(0.015625)"/>
       <path id="DejaVuSans-6d" d="M 3328 2828 
Q 3544 3216 3844 3400 
Q 4144 3584 4550 3584 
Q 5097 3584 5394 3201 
Q 5691 2819 5691 2113 
L 5691 0 
L 5113 0 
L 5113 2094 
Q 5113 2597 4934 2840 
Q 4756 3084 4391 3084 
Q 3944 3084 3684 2787 
Q 3425 2491 3425 1978 
L 3425 0 
L 2847 0 
L 2847 2094 
Q 2847 2600 2669 2842 
Q 2491 3084 2119 3084 
Q 1678 3084 1418 2786 
Q 1159 2488 1159 1978 
L 1159 0 
L 581 0 
L 581 3500 
L 1159 3500 
L 1159 2956 
Q 1356 3278 1631 3431 
Q 1906 3584 2284 3584 
Q 2666 3584 2933 3390 
Q 3200 3197 3328 2828 
z
" transform="scale(0.015625)"/>
       <path id="DejaVuSans-29" d="M 513 4856 
L 1013 4856 
Q 1481 4119 1714 3412 
Q 1947 2706 1947 2009 
Q 1947 1309 1714 600 
Q 1481 -109 1013 -844 
L 513 -844 
Q 928 -128 1133 580 
Q 1338 1288 1338 2009 
Q 1338 2731 1133 3434 
Q 928 4138 513 4856 
z
" transform="scale(0.015625)"/>
      </defs>
      <use xlink:href="#DejaVuSans-71"/>
      <use xlink:href="#DejaVuSans-20" transform="translate(63.476562 0)"/>
      <use xlink:href="#DejaVuSans-28" transform="translate(95.263672 0)"/>
      <use xlink:href="#DejaVuSans-6e" transform="translate(134.277344 0)"/>
      <use xlink:href="#DejaVuSans-6d" transform="translate(197.65625 0)"/>
      <use xlink:href="#DejaVuSans-29" transform="translate(295.068359 0)"/>
     </g>
    </g>
   </g>
   <g id="matplotlib.axis_2">
    <g id="ytick_1">
     <g id="line2d_7">
      <defs>
       <path id="mbcad1a4c57" d="M 0 0 
L -3.5 0 
" style="stroke: #000000; stroke-width: 0.8"/>
      </defs>
      <g>
       <use xlink:href="#mbcad1a4c57" x="33.7" y="180.687273" style="stroke: #000000; stroke-width: 0.8"/>
      </g>
     </g>
     <g id="text_8">
      <!-- 0 -->
      <g transform="translate(20.3375 184.486491) scale(0.1 -0.1)">
       <use xlink:href="#DejaVuSans-30"/>
      </g>
     </g>
    </g>
    <g id="ytick_2">
     <g id="line2d_8">
      <g>
       <use xlink:href="#mbcad1a4c57" x="33.7" y="146.733511" style="stroke: #000000; stroke-width: 0.8"/>
      </g>
     </g>
     <g id="text_9">
      <!-- 20000 -->
      <g transform="translate(-5.1125 150.532729) scale(0.1 -0.1)">
       <use xlink:href="#DejaVuSans-32"/>
       <use xlink:href="#DejaVuSans-30" transform="translate(63.623047 0)"/>
       <use xlink:href="#DejaVuSans-30" transform="translate(127.246094 0)"/>
       <use xlink:href="#DejaVuSans-30" transform="translate(190.869141 0)"/>
       <use xlink:href="#DejaVuSans-30" transform="translate(254.492188 0)"/>
      </g>
     </g>
    </g>
    <g id="ytick_3">
     <g id="line2d_9">
      <g>
       <use xlink:href="#mbcad1a4c57" x="33.7" y="112.779749" style="stroke: #000000; stroke-width: 0.8"/>
      </g>
     </g>
     <g id="text_10">
      <!-- 40000 -->
      <g transform="translate(-5.1125 116.578968) scale(0.1 -0.1)">
       <use xlink:href="#DejaVuSans-34"/>
       <use xlink:href="#DejaVuSans-30" transform="translate(63.623047 0)"/>
       <use xlink:href="#DejaVuSans-30" transform="translate(127.246094 0)"/>
       <use xlink:href="#DejaVuSans-30" transform="translate(190.869141 0)"/>
       <use xlink:href="#DejaVuSans-30" transform="translate(254.492188 0)"/>
      </g>
     </g>
    </g>
    <g id="ytick_4">
     <g id="line2d_10">
      <g>
       <use xlink:href="#mbcad1a4c57" x="33.7" y="78.825987" style="stroke: #000000; stroke-width: 0.8"/>
      </g>
     </g>
     <g id="text_11">
      <!-- 60000 -->
      <g transform="translate(-5.1125 82.625206) scale(0.1 -0.1)">
       <use xlink:href="#DejaVuSans-36"/>
       <use xlink:href="#DejaVuSans-30" transform="translate(63.623047 0)"/>
       <use xlink:href="#DejaVuSans-30" transform="translate(127.246094 0)"/>
       <use xlink:href="#DejaVuSans-30" transform="translate(190.869141 0)"/>
       <use xlink:href="#DejaVuSans-30" transform="translate(254.492188 0)"/>
      </g>
     </g>
    </g>
    <g id="ytick_5">
     <g id="line2d_11">
      <g>
       <use xlink:href="#mbcad1a4c57" x="33.7" y="44.872225" style="stroke: #000000; stroke-width: 0.8"/>
      </g>
     </g>
     <g id="text_12">
      <!-- 80000 -->
      <g transform="translate(-5.1125 48.671444) scale(0.1 -0.1)">
       <use xlink:href="#DejaVuSans-38"/>
       <use xlink:href="#DejaVuSans-30" transform="translate(63.623047 0)"/>
       <use xlink:href="#DejaVuSans-30" transform="translate(127.246094 0)"/>
       <use xlink:href="#DejaVuSans-30" transform="translate(190.869141 0)"/>
       <use xlink:href="#DejaVuSans-30" transform="translate(254.492188 0)"/>
      </g>
     </g>
    </g>
    <g id="text_13">
     <!-- rdf -->
     <g transform="translate(-11.192187 108.462344) rotate(-90) scale(0.1 -0.1)">
      <defs>
       <path id="DejaVuSans-72" d="M 2631 2963 
Q 2534 3019 2420 3045 
Q 2306 3072 2169 3072 
Q 1681 3072 1420 2755 
Q 1159 2438 1159 1844 
L 1159 0 
L 581 0 
L 581 3500 
L 1159 3500 
L 1159 2956 
Q 1341 3275 1631 3429 
Q 1922 3584 2338 3584 
Q 2397 3584 2469 3576 
Q 2541 3569 2628 3553 
L 2631 2963 
z
" transform="scale(0.015625)"/>
       <path id="DejaVuSans-64" d="M 2906 2969 
L 2906 4863 
L 3481 4863 
L 3481 0 
L 2906 0 
L 2906 525 
Q 2725 213 2448 61 
Q 2172 -91 1784 -91 
Q 1150 -91 751 415 
Q 353 922 353 1747 
Q 353 2572 751 3078 
Q 1150 3584 1784 3584 
Q 2172 3584 2448 3432 
Q 2725 3281 2906 2969 
z
M 947 1747 
Q 947 1113 1208 752 
Q 1469 391 1925 391 
Q 2381 391 2643 752 
Q 2906 1113 2906 1747 
Q 2906 2381 2643 2742 
Q 2381 3103 1925 3103 
Q 1469 3103 1208 2742 
Q 947 2381 947 1747 
z
" transform="scale(0.015625)"/>
       <path id="DejaVuSans-66" d="M 2375 4863 
L 2375 4384 
L 1825 4384 
Q 1516 4384 1395 4259 
Q 1275 4134 1275 3809 
L 1275 3500 
L 2222 3500 
L 2222 3053 
L 1275 3053 
L 1275 0 
L 697 0 
L 697 3053 
L 147 3053 
L 147 3500 
L 697 3500 
L 697 3744 
Q 697 4328 969 4595 
Q 1241 4863 1831 4863 
L 2375 4863 
z
" transform="scale(0.015625)"/>
      </defs>
      <use xlink:href="#DejaVuSans-72"/>
      <use xlink:href="#DejaVuSans-64" transform="translate(39.363281 0)"/>
      <use xlink:href="#DejaVuSans-66" transform="translate(102.839844 0)"/>
     </g>
    </g>
   </g>
   <g id="line2d_12">
    <path d="M 44.406818 180.687273 
L 92.171571 180.687273 
L 92.708254 180.288306 
L 93.244936 180.589699 
L 93.781619 180.687273 
L 94.318301 180.593829 
L 94.854984 180.687273 
L 95.391667 159.369392 
L 95.928349 22.432727 
L 96.465032 169.000237 
L 97.001715 179.92949 
L 97.538397 179.862131 
L 98.07508 178.503506 
L 99.148445 174.155873 
L 99.685128 171.154821 
L 100.22181 173.730222 
L 100.758493 174.889028 
L 101.295175 178.454541 
L 102.368541 180.062736 
L 102.905223 180.278485 
L 103.441906 180.620369 
L 103.978589 180.621564 
L 104.515271 180.364542 
L 105.051954 180.687273 
L 105.588636 180.562651 
L 106.662002 179.964994 
L 107.198684 179.740555 
L 107.735367 178.127554 
L 108.272049 177.826982 
L 108.808732 175.792632 
L 110.41878 179.830311 
L 110.955463 180.423757 
L 111.492145 180.583539 
L 112.028828 180.278873 
L 112.56551 178.476174 
L 113.102193 175.245225 
L 113.638876 168.947663 
L 114.175558 169.798465 
L 114.712241 171.853115 
L 115.248923 175.522309 
L 115.785606 178.074583 
L 116.322289 178.022967 
L 117.395654 171.611549 
L 117.932337 169.669047 
L 118.469019 172.382823 
L 119.005702 177.161074 
L 119.542384 179.61131 
L 120.079067 180.156869 
L 120.61575 180.164286 
L 121.152432 180.449247 
L 122.76248 180.64921 
L 123.299163 180.424433 
L 123.835845 180.576139 
L 125.982576 180.230626 
L 126.519258 179.161772 
L 127.055941 177.401856 
L 127.592624 176.666928 
L 128.129306 175.217216 
L 128.665989 176.142676 
L 129.739354 172.787942 
L 130.276037 174.630239 
L 130.812719 177.711804 
L 131.349402 179.326071 
L 131.886085 180.320563 
L 132.422767 180.325008 
L 133.496132 180.657805 
L 134.569498 180.399548 
L 135.10618 180.431368 
L 136.179545 179.215217 
L 136.716228 175.19656 
L 137.252911 172.952919 
L 137.789593 173.631559 
L 138.326276 177.159719 
L 138.862959 175.67862 
L 139.399641 168.345238 
L 139.936324 167.38062 
L 140.473006 171.179487 
L 141.009689 176.148889 
L 141.546372 179.124976 
L 142.083054 179.975978 
L 142.619737 180.032232 
L 143.156419 179.823326 
L 143.693102 177.387349 
L 144.229785 176.083909 
L 144.766467 175.366063 
L 145.30315 176.158082 
L 145.839833 175.864531 
L 146.376515 164.817323 
L 146.913198 169.059139 
L 147.44988 177.358435 
L 147.986563 177.436388 
L 148.523246 174.101018 
L 149.059928 172.052209 
L 149.596611 172.37261 
L 151.206659 180.174138 
L 151.743341 180.341813 
L 152.280024 179.641034 
L 152.816707 178.137292 
L 153.353389 175.893743 
L 153.890072 176.800011 
L 154.426754 178.17251 
L 154.963437 179.058887 
L 155.50012 180.212944 
L 156.036802 180.104731 
L 156.573485 179.589127 
L 157.110167 177.829657 
L 157.64685 176.687811 
L 158.183533 177.087203 
L 158.720215 178.787568 
L 159.256898 179.799521 
L 159.793581 180.405822 
L 160.866946 180.566392 
L 161.403628 180.516163 
L 161.940311 180.602496 
L 162.476994 180.519252 
L 163.013676 180.587369 
L 163.550359 180.373749 
L 164.087041 179.640623 
L 164.623724 177.76973 
L 165.697089 173.426107 
L 166.233772 174.799859 
L 166.770455 176.979168 
L 167.307137 177.848947 
L 167.84382 177.150855 
L 168.380502 177.48621 
L 168.917185 178.752894 
L 169.453868 179.069092 
L 169.99055 177.968681 
L 171.063915 174.144007 
L 171.600598 175.096933 
L 172.137281 175.732536 
L 172.673963 174.16451 
L 173.210646 171.676375 
L 173.747329 172.157052 
L 174.284011 175.64461 
L 174.820694 178.3175 
L 175.357376 179.36174 
L 175.894059 178.694805 
L 176.430742 177.326163 
L 176.967424 176.886501 
L 177.504107 177.816594 
L 178.577472 177.862252 
L 179.114155 177.716772 
L 179.650837 177.163656 
L 180.18752 177.62362 
L 180.724203 178.265671 
L 181.260885 179.748724 
L 181.797568 180.314775 
L 183.407616 180.578092 
L 185.017663 180.213056 
L 185.554346 179.345994 
L 186.091029 177.207567 
L 186.627711 175.761916 
L 187.164394 176.005865 
L 187.701077 178.438235 
L 188.237759 179.486126 
L 188.774442 179.674986 
L 189.311124 177.639333 
L 189.847807 174.082096 
L 190.38449 173.305389 
L 190.921172 174.167422 
L 191.457855 176.133791 
L 192.53122 177.652649 
L 193.067903 177.250136 
L 193.604585 177.00094 
L 194.141268 177.560577 
L 194.677951 178.735317 
L 195.214633 179.470803 
L 195.751316 178.599079 
L 196.287998 176.418319 
L 196.824681 177.70988 
L 197.361364 178.412215 
L 198.434729 176.852564 
L 198.971411 175.554078 
L 199.508094 175.492022 
L 200.044777 177.638012 
L 200.581459 179.302869 
L 201.118142 180.047538 
L 201.654825 180.288972 
L 202.191507 180.093872 
L 202.72819 179.358808 
L 203.264872 177.871673 
L 204.338238 178.367688 
L 204.87492 178.12815 
L 205.948285 178.853969 
L 206.484968 178.446491 
L 207.021651 177.689646 
L 207.558333 176.66966 
L 208.095016 176.442077 
L 209.168381 177.119168 
L 209.705064 177.236688 
L 210.241746 176.491403 
L 210.778429 175.95914 
L 211.315112 176.528269 
L 211.851794 178.236261 
L 212.388477 178.999951 
L 213.461842 176.312987 
L 213.998525 176.242725 
L 214.535207 177.348485 
L 215.07189 178.094201 
L 215.608573 178.110411 
L 216.681938 178.901099 
L 217.21862 179.477679 
L 217.755303 179.649073 
L 218.828668 177.957794 
L 219.365351 177.346118 
L 219.902033 177.785392 
L 220.438716 178.022564 
L 220.975399 178.016153 
L 221.512081 177.628409 
L 222.585447 179.113381 
L 223.122129 179.526774 
L 224.195494 178.437428 
L 224.732177 176.531707 
L 225.26886 175.645463 
L 225.805542 176.865863 
L 226.878907 180.00381 
L 227.41559 180.316019 
L 227.952273 180.311219 
L 229.025638 179.551521 
L 230.635686 179.449274 
L 231.172368 179.025899 
L 231.709051 178.386661 
L 232.245734 178.758867 
L 232.782416 179.52357 
L 233.319099 179.490722 
L 233.855781 178.817603 
L 234.392464 178.600623 
L 235.465829 179.639546 
L 236.002512 180.163141 
L 236.539195 180.312255 
L 237.075877 180.162634 
L 239.222608 176.34712 
L 239.75929 175.190334 
L 240.295973 174.755613 
L 240.832656 175.146791 
L 241.369338 175.37044 
L 242.442703 178.377682 
L 242.979386 179.282801 
L 244.052751 178.55014 
L 245.126116 176.627445 
L 246.736164 179.254141 
L 247.272847 179.615253 
L 247.80953 179.337277 
L 248.346212 178.729346 
L 248.882895 179.003392 
L 249.419577 178.911686 
L 249.95626 178.515452 
L 250.492943 177.410548 
L 251.029625 177.625434 
L 251.566308 178.636534 
L 252.10299 179.348921 
L 252.639673 179.1393 
L 253.713038 177.274744 
L 254.249721 176.887094 
L 254.786404 176.232989 
L 255.323086 176.144817 
L 256.396451 177.746966 
L 256.933134 178.421697 
L 257.469817 177.978102 
L 258.543182 177.570101 
L 258.543182 177.570101 
" clip-path="url(#p0f57f8e694)" style="fill: none; stroke: #000000; stroke-opacity: 0.5; stroke-width: 0.5; stroke-linecap: square"/>
   </g>
   <g id="line2d_13">
    <path d="M 44.406818 180.687273 
L 92.171571 180.687273 
L 92.708254 179.465437 
L 93.244936 180.388454 
L 93.781619 180.687273 
L 94.318301 180.401101 
L 94.854984 180.687273 
L 95.928349 180.687273 
L 97.001715 180.17156 
L 97.538397 178.918375 
L 98.07508 173.999487 
L 99.148445 160.684858 
L 99.685128 151.494137 
L 100.22181 159.3813 
L 100.758493 162.930147 
L 101.295175 173.84953 
L 102.368541 178.774628 
L 102.905223 179.43536 
L 103.441906 180.48238 
L 103.978589 180.486039 
L 104.515271 179.69891 
L 105.051954 180.687273 
L 105.588636 180.305619 
L 106.125319 179.186974 
L 107.198684 177.78795 
L 107.735367 172.848134 
L 108.272049 171.927631 
L 108.808732 165.697433 
L 110.41878 178.226856 
L 110.955463 179.880255 
L 111.492145 180.528431 
L 112.028828 180.687273 
L 112.56551 180.687273 
L 113.638876 179.792188 
L 114.175558 180.687273 
L 114.712241 180.253242 
L 115.248923 180.544771 
L 115.785606 178.160526 
L 116.322289 174.325676 
L 117.395654 153.295684 
L 117.932337 147.605585 
L 118.469019 155.776585 
L 119.005702 170.659645 
L 119.542384 177.392138 
L 120.079067 179.437763 
L 122.76248 180.687273 
L 123.299163 180.342296 
L 123.835845 180.687273 
L 124.909211 180.466365 
L 125.445893 180.687273 
L 127.055941 180.582464 
L 127.592624 180.480343 
L 128.129306 180.687273 
L 128.665989 180.687273 
L 129.202671 180.488102 
L 129.739354 180.687273 
L 130.276037 180.590154 
L 130.812719 180.687273 
L 131.349402 180.497787 
L 132.95945 180.687273 
L 134.032815 180.687273 
L 134.569498 180.070463 
L 135.10618 180.338957 
L 135.642863 178.966062 
L 136.179545 176.349221 
L 136.716228 164.292346 
L 137.252911 157.333254 
L 137.789593 159.325628 
L 138.326276 172.402161 
L 138.862959 170.889586 
L 139.399641 157.500579 
L 139.936324 156.81734 
L 141.009689 176.233513 
L 141.546372 180.079713 
L 142.619737 180.538676 
L 143.156419 180.540282 
L 143.693102 180.105631 
L 144.229785 180.039925 
L 144.766467 180.61611 
L 145.30315 180.405635 
L 145.839833 179.990591 
L 146.376515 170.691173 
L 146.913198 165.269412 
L 147.44988 176.568937 
L 147.986563 180.420002 
L 148.523246 180.62114 
L 165.160407 180.539675 
L 165.697089 179.85825 
L 166.233772 179.768844 
L 167.307137 174.987355 
L 167.84382 170.89293 
L 168.380502 171.537567 
L 168.917185 175.17977 
L 169.453868 177.704688 
L 169.99055 176.729158 
L 170.527233 173.785461 
L 171.063915 170.220602 
L 171.600598 169.776333 
L 172.137281 170.307456 
L 173.210646 161.525873 
L 173.747329 163.228505 
L 174.284011 171.370328 
L 174.820694 176.299058 
L 175.357376 179.306225 
L 175.894059 180.106136 
L 176.430742 179.493238 
L 176.967424 178.318458 
L 178.040789 176.628134 
L 178.577472 176.620609 
L 179.114155 178.590971 
L 179.650837 179.549304 
L 180.18752 180.142235 
L 180.724203 180.455518 
L 182.33425 180.498617 
L 182.870933 180.350315 
L 183.407616 180.501514 
L 184.480981 180.394588 
L 185.017663 179.561749 
L 185.554346 177.840731 
L 186.091029 175.001368 
L 186.627711 173.553472 
L 187.164394 174.593247 
L 187.701077 177.715432 
L 188.774442 180.411706 
L 189.311124 180.242781 
L 190.921172 180.486599 
L 191.457855 180.122831 
L 191.994537 179.368803 
L 193.067903 175.001807 
L 193.604585 174.849044 
L 194.141268 175.339081 
L 194.677951 177.571153 
L 195.214633 179.077125 
L 195.751316 179.840863 
L 196.287998 178.850733 
L 196.824681 176.267232 
L 197.898046 173.798934 
L 198.434729 173.877081 
L 198.971411 174.07448 
L 199.508094 175.433539 
L 200.581459 179.568453 
L 201.118142 180.219407 
L 201.654825 180.019289 
L 202.191507 179.129597 
L 202.72819 176.876708 
L 203.264872 172.889778 
L 203.801555 173.761845 
L 204.338238 176.026327 
L 205.411603 179.024944 
L 205.948285 178.265334 
L 206.484968 177.051023 
L 207.021651 176.178637 
L 207.558333 176.370101 
L 208.095016 178.596404 
L 208.631699 179.968227 
L 209.168381 180.025813 
L 210.241746 176.900223 
L 210.778429 176.40558 
L 211.315112 176.897128 
L 211.851794 178.817121 
L 212.388477 180.203622 
L 212.925159 180.510216 
L 213.461842 180.385669 
L 213.998525 180.587372 
L 215.07189 180.613286 
L 218.291986 180.425926 
L 218.828668 179.695524 
L 219.365351 178.504698 
L 220.438716 175.308649 
L 220.975399 175.686916 
L 221.512081 175.785798 
L 222.048764 177.545577 
L 223.122129 179.697544 
L 223.658812 179.859976 
L 224.195494 179.331469 
L 225.26886 175.130434 
L 225.805542 175.665434 
L 226.878907 179.65151 
L 227.952273 180.41002 
L 228.488955 180.496444 
L 229.025638 180.392149 
L 229.562321 180.414814 
L 230.099003 180.041304 
L 230.635686 178.325434 
L 231.709051 173.989834 
L 232.245734 175.127729 
L 232.782416 178.034642 
L 233.319099 179.902036 
L 233.855781 180.326904 
L 234.392464 180.408565 
L 234.929147 180.350742 
L 235.465829 180.451052 
L 236.539195 180.142226 
L 237.075877 179.661304 
L 237.61256 177.549431 
L 238.149242 176.150085 
L 238.685925 176.327421 
L 239.222608 177.563151 
L 239.75929 177.862713 
L 240.295973 175.668293 
L 241.369338 172.999715 
L 242.979386 179.520847 
L 244.052751 177.838498 
L 244.589434 176.006559 
L 245.126116 175.603386 
L 245.662799 177.458002 
L 246.736164 179.80948 
L 247.272847 180.372937 
L 247.80953 180.305105 
L 248.346212 180.531753 
L 248.882895 180.137205 
L 249.419577 179.114091 
L 249.95626 177.319146 
L 250.492943 175.999774 
L 251.029625 175.973579 
L 252.10299 179.604282 
L 252.639673 180.239727 
L 253.176356 180.423421 
L 253.713038 180.162268 
L 254.249721 179.120299 
L 254.786404 177.130805 
L 255.323086 176.195596 
L 256.933134 178.523025 
L 257.469817 177.884716 
L 258.543182 173.931159 
L 258.543182 173.931159 
" clip-path="url(#p0f57f8e694)" style="fill: none; stroke: #0000ff; stroke-opacity: 0.5; stroke-linecap: square"/>
   </g>
   <g id="line2d_14">
    <path d="M 44.406818 180.687273 
L 109.882097 180.687273 
L 110.41878 180.395668 
L 110.955463 180.687273 
L 111.492145 180.404888 
L 112.028828 178.463763 
L 112.56551 168.649072 
L 113.102193 151.866404 
L 113.638876 118.362875 
L 114.175558 121.403772 
L 114.712241 133.361803 
L 115.785606 170.954622 
L 116.322289 177.491109 
L 116.858971 179.476057 
L 117.395654 179.971153 
L 117.932337 179.511035 
L 118.469019 179.759824 
L 119.005702 179.544523 
L 119.542384 180.687273 
L 120.079067 180.020868 
L 120.61575 179.59213 
L 121.152432 180.471286 
L 121.689115 180.687273 
L 122.76248 180.687273 
L 123.299163 179.86955 
L 123.835845 180.082213 
L 124.372528 180.09028 
L 124.909211 180.294549 
L 125.445893 179.524605 
L 125.982576 178.201086 
L 126.519258 172.948056 
L 127.055941 163.172654 
L 127.592624 160.638105 
L 128.129306 155.808892 
L 128.665989 172.260376 
L 129.202671 177.677588 
L 129.739354 179.288656 
L 130.276037 180.514617 
L 130.812719 180.516749 
L 131.349402 180.687273 
L 131.886085 180.687273 
L 132.422767 180.522912 
L 132.95945 180.524892 
L 133.496132 180.687273 
L 140.473006 180.687273 
L 141.009689 180.550759 
L 141.546372 180.687273 
L 143.693102 180.687273 
L 144.229785 179.920046 
L 144.766467 180.687273 
L 145.30315 180.436928 
L 145.839833 169.044951 
L 146.376515 120.388972 
L 147.44988 176.486421 
L 147.986563 179.855764 
L 148.523246 180.687273 
L 161.403628 180.594113 
L 161.940311 180.502647 
L 162.476994 180.595795 
L 163.013676 180.505966 
L 164.623724 180.687273 
L 166.233772 180.515403 
L 166.770455 180.516905 
L 167.307137 180.687273 
L 167.84382 180.687273 
L 168.380502 180.106339 
L 168.917185 180.029047 
L 169.453868 177.179549 
L 169.99055 173.16534 
L 170.527233 166.893675 
L 171.063915 163.829275 
L 171.600598 169.963604 
L 172.137281 172.242677 
L 172.673963 171.227526 
L 173.210646 165.84644 
L 173.747329 165.435281 
L 174.284011 170.401291 
L 174.820694 176.561601 
L 175.357376 179.124875 
L 175.894059 179.801731 
L 176.430742 180.248088 
L 176.967424 179.525555 
L 177.504107 179.174765 
L 178.040789 176.257498 
L 178.577472 174.946101 
L 179.114155 173.936919 
L 179.650837 175.455235 
L 180.18752 178.680149 
L 180.724203 179.725919 
L 181.260885 180.142219 
L 181.797568 180.416867 
L 182.33425 180.284808 
L 183.407616 180.555178 
L 183.944298 180.294025 
L 184.480981 180.297026 
L 185.017663 180.55818 
L 185.554346 180.174815 
L 186.091029 180.305828 
L 186.627711 180.624177 
L 187.164394 180.562026 
L 187.701077 180.376492 
L 188.237759 180.070332 
L 188.774442 180.197376 
L 189.311124 179.593141 
L 189.847807 176.765295 
L 190.38449 168.58827 
L 190.921172 158.211809 
L 191.457855 160.146011 
L 191.994537 163.166279 
L 192.53122 170.564738 
L 193.067903 172.139222 
L 193.604585 171.111001 
L 194.677951 176.051956 
L 195.214633 178.666695 
L 195.751316 180.018505 
L 196.824681 180.467473 
L 198.434729 180.687273 
L 198.971411 180.526963 
L 200.044777 180.687273 
L 201.118142 180.687273 
L 206.484968 180.590063 
L 207.558333 180.063681 
L 208.095016 177.49438 
L 208.631699 173.727626 
L 209.168381 171.656137 
L 209.705064 174.004506 
L 210.241746 177.576378 
L 210.778429 179.349424 
L 211.315112 180.320577 
L 211.851794 180.550641 
L 212.388477 180.642019 
L 212.925159 180.597339 
L 213.461842 180.240452 
L 213.998525 178.911266 
L 215.07189 174.242175 
L 215.608573 173.541771 
L 216.145255 176.314099 
L 217.21862 179.660951 
L 217.755303 180.347277 
L 218.291986 180.645035 
L 222.585447 180.647043 
L 223.122129 180.327371 
L 223.658812 179.733273 
L 224.195494 177.052039 
L 224.732177 170.631829 
L 225.26886 166.786637 
L 225.805542 170.362179 
L 226.878907 179.114448 
L 227.41559 180.267764 
L 227.952273 180.270209 
L 228.488955 180.536494 
L 229.025638 180.499893 
L 230.099003 180.687273 
L 231.172368 180.540791 
L 232.245734 180.651069 
L 234.392464 180.61649 
L 234.929147 180.511309 
L 236.002512 180.617673 
L 236.539195 180.479636 
L 237.075877 180.618445 
L 237.61256 180.618826 
L 238.149242 180.142725 
L 238.685925 178.859562 
L 239.222608 173.618554 
L 239.75929 164.819524 
L 240.295973 164.739738 
L 241.369338 176.603709 
L 241.906021 179.115109 
L 242.442703 180.198629 
L 242.979386 180.428067 
L 243.516069 180.300554 
L 244.052751 179.501285 
L 244.589434 176.82952 
L 245.126116 172.346925 
L 245.662799 173.653063 
L 246.736164 179.064331 
L 247.272847 180.190545 
L 247.80953 180.501979 
L 248.882895 180.595595 
L 251.029625 180.447847 
L 251.566308 180.300215 
L 252.10299 179.443222 
L 252.639673 177.327919 
L 253.713038 167.416329 
L 254.249721 167.89032 
L 254.786404 170.236204 
L 255.323086 171.78291 
L 255.859769 173.771316 
L 256.933134 178.961532 
L 258.006499 180.407197 
L 258.543182 180.436466 
L 258.543182 180.436466 
" clip-path="url(#p0f57f8e694)" style="fill: none; stroke: #ff0000; stroke-opacity: 0.5; stroke-linecap: square"/>
   </g>
   <g id="patch_3">
    <path d="M 33.7 188.6 
L 33.7 14.52 
" style="fill: none; stroke: #000000; stroke-width: 0.8; stroke-linejoin: miter; stroke-linecap: square"/>
   </g>
   <g id="patch_4">
    <path d="M 269.25 188.6 
L 269.25 14.52 
" style="fill: none; stroke: #000000; stroke-width: 0.8; stroke-linejoin: miter; stroke-linecap: square"/>
   </g>
   <g id="patch_5">
    <path d="M 33.7 188.6 
L 269.25 188.6 
" style="fill: none; stroke: #000000; stroke-width: 0.8; stroke-linejoin: miter; stroke-linecap: square"/>
   </g>
   <g id="patch_6">
    <path d="M 33.7 14.52 
L 269.25 14.52 
" style="fill: none; stroke: #000000; stroke-width: 0.8; stroke-linejoin: miter; stroke-linecap: square"/>
   </g>
   <g id="legend_1">
    <g id="patch_7">
     <path d="M 213.917188 66.554375 
L 262.25 66.554375 
Q 264.25 66.554375 264.25 64.554375 
L 264.25 21.52 
Q 264.25 19.52 262.25 19.52 
L 213.917188 19.52 
Q 211.917188 19.52 211.917188 21.52 
L 211.917188 64.554375 
Q 211.917188 66.554375 213.917188 66.554375 
z
" style="fill: #ffffff; opacity: 0.8; stroke: #cccccc; stroke-linejoin: miter"/>
    </g>
    <g id="line2d_15">
     <path d="M 215.917188 27.618438 
L 225.917188 27.618438 
L 235.917188 27.618438 
" style="fill: none; stroke: #000000; stroke-opacity: 0.5; stroke-width: 0.5; stroke-linecap: square"/>
    </g>
    <g id="text_14">
     <!-- all -->
     <g transform="translate(243.917188 31.118438) scale(0.1 -0.1)">
      <defs>
       <path id="DejaVuSans-61" d="M 2194 1759 
Q 1497 1759 1228 1600 
Q 959 1441 959 1056 
Q 959 750 1161 570 
Q 1363 391 1709 391 
Q 2188 391 2477 730 
Q 2766 1069 2766 1631 
L 2766 1759 
L 2194 1759 
z
M 3341 1997 
L 3341 0 
L 2766 0 
L 2766 531 
Q 2569 213 2275 61 
Q 1981 -91 1556 -91 
Q 1019 -91 701 211 
Q 384 513 384 1019 
Q 384 1609 779 1909 
Q 1175 2209 1959 2209 
L 2766 2209 
L 2766 2266 
Q 2766 2663 2505 2880 
Q 2244 3097 1772 3097 
Q 1472 3097 1187 3025 
Q 903 2953 641 2809 
L 641 3341 
Q 956 3463 1253 3523 
Q 1550 3584 1831 3584 
Q 2591 3584 2966 3190 
Q 3341 2797 3341 1997 
z
" transform="scale(0.015625)"/>
       <path id="DejaVuSans-6c" d="M 603 4863 
L 1178 4863 
L 1178 0 
L 603 0 
L 603 4863 
z
" transform="scale(0.015625)"/>
      </defs>
      <use xlink:href="#DejaVuSans-61"/>
      <use xlink:href="#DejaVuSans-6c" transform="translate(61.279297 0)"/>
      <use xlink:href="#DejaVuSans-6c" transform="translate(89.0625 0)"/>
     </g>
    </g>
    <g id="line2d_16">
     <path d="M 215.917188 42.296563 
L 225.917188 42.296563 
L 235.917188 42.296563 
" style="fill: none; stroke: #0000ff; stroke-opacity: 0.5; stroke-linecap: square"/>
    </g>
    <g id="text_15">
     <!-- 1-1 -->
     <g transform="translate(243.917188 45.796563) scale(0.1 -0.1)">
      <defs>
       <path id="DejaVuSans-2d" d="M 313 2009 
L 1997 2009 
L 1997 1497 
L 313 1497 
L 313 2009 
z
" transform="scale(0.015625)"/>
      </defs>
      <use xlink:href="#DejaVuSans-31"/>
      <use xlink:href="#DejaVuSans-2d" transform="translate(63.623047 0)"/>
      <use xlink:href="#DejaVuSans-31" transform="translate(99.707031 0)"/>
     </g>
    </g>
    <g id="line2d_17">
     <path d="M 215.917188 56.974688 
L 225.917188 56.974688 
L 235.917188 56.974688 
" style="fill: none; stroke: #ff0000; stroke-opacity: 0.5; stroke-linecap: square"/>
    </g>
    <g id="text_16">
     <!-- 2-2 -->
     <g transform="translate(243.917188 60.474688) scale(0.1 -0.1)">
      <use xlink:href="#DejaVuSans-32"/>
      <use xlink:href="#DejaVuSans-2d" transform="translate(63.623047 0)"/>
      <use xlink:href="#DejaVuSans-32" transform="translate(99.707031 0)"/>
     </g>
    </g>
   </g>
  </g>
 </g>
 <defs>
  <clipPath id="p0f57f8e694">
   <rect x="33.7" y="14.52" width="235.55" height="174.08"/>
  </clipPath>
 </defs>
</svg>
