<?xml version="1.0" encoding="utf-8" standalone="no"?>
<!DOCTYPE svg PUBLIC "-//W3C//DTD SVG 1.1//EN"
  "http://www.w3.org/Graphics/SVG/1.1/DTD/svg11.dtd">
<svg xmlns:xlink="http://www.w3.org/1999/xlink" width="288pt" height="216pt" viewBox="0 0 288 216" xmlns="http://www.w3.org/2000/svg" version="1.1">
 <metadata>
  <rdf:RDF xmlns:dc="http://purl.org/dc/elements/1.1/" xmlns:cc="http://creativecommons.org/ns#" xmlns:rdf="http://www.w3.org/1999/02/22-rdf-syntax-ns#">
   <cc:Work>
    <dc:type rdf:resource="http://purl.org/dc/dcmitype/StillImage"/>
    <dc:date>2025-09-18T00:37:49.966738</dc:date>
    <dc:format>image/svg+xml</dc:format>
    <dc:creator>
     <cc:Agent>
      <dc:title>Matplotlib v3.10.0, https://matplotlib.org/</dc:title>
     </cc:Agent>
    </dc:creator>
   </cc:Work>
  </rdf:RDF>
 </metadata>
 <defs>
  <style type="text/css">*{stroke-linejoin: round; stroke-linecap: butt}</style>
 </defs>
 <g id="figure_1">
  <g id="patch_1">
   <path d="M 0 216 
L 288 216 
L 288 0 
L 0 0 
z
" style="fill: #ffffff"/>
  </g>
  <g id="axes_1">
   <g id="patch_2">
    <path d="M 33.7 188.6 
L 269.25 188.6 
L 269.25 14.52 
L 33.7 14.52 
z
" style="fill: #ffffff"/>
   </g>
   <g id="matplotlib.axis_1">
    <g id="xtick_1">
     <g id="line2d_1">
      <defs>
       <path id="mf913dcfa02" d="M 0 0 
L 0 3.5 
" style="stroke: #000000; stroke-width: 0.8"/>
      </defs>
      <g>
       <use xlink:href="#mf913dcfa02" x="44.138477" y="188.6" style="stroke: #000000; stroke-width: 0.8"/>
      </g>
     </g>
     <g id="text_1">
      <!-- 0 -->
      <g transform="translate(40.957227 203.198437) scale(0.1 -0.1)">
       <defs>
        <path id="DejaVuSans-30" d="M 2034 4250 
Q 1547 4250 1301 3770 
Q 1056 3291 1056 2328 
Q 1056 1369 1301 889 
Q 1547 409 2034 409 
Q 2525 409 2770 889 
Q 3016 1369 3016 2328 
Q 3016 3291 2770 3770 
Q 2525 4250 2034 4250 
z
M 2034 4750 
Q 2819 4750 3233 4129 
Q 3647 3509 3647 2328 
Q 3647 1150 3233 529 
Q 2819 -91 2034 -91 
Q 1250 -91 836 529 
Q 422 1150 422 2328 
Q 422 3509 836 4129 
Q 1250 4750 2034 4750 
z
" transform="scale(0.015625)"/>
       </defs>
       <use xlink:href="#DejaVuSans-30"/>
      </g>
     </g>
    </g>
    <g id="xtick_2">
     <g id="line2d_2">
      <g>
       <use xlink:href="#mf913dcfa02" x="87.073086" y="188.6" style="stroke: #000000; stroke-width: 0.8"/>
      </g>
     </g>
     <g id="text_2">
      <!-- 200 -->
      <g transform="translate(77.529336 203.198437) scale(0.1 -0.1)">
       <defs>
        <path id="DejaVuSans-32" d="M 1228 531 
L 3431 531 
L 3431 0 
L 469 0 
L 469 531 
Q 828 903 1448 1529 
Q 2069 2156 2228 2338 
Q 2531 2678 2651 2914 
Q 2772 3150 2772 3378 
Q 2772 3750 2511 3984 
Q 2250 4219 1831 4219 
Q 1534 4219 1204 4116 
Q 875 4013 500 3803 
L 500 4441 
Q 881 4594 1212 4672 
Q 1544 4750 1819 4750 
Q 2544 4750 2975 4387 
Q 3406 4025 3406 3419 
Q 3406 3131 3298 2873 
Q 3191 2616 2906 2266 
Q 2828 2175 2409 1742 
Q 1991 1309 1228 531 
z
" transform="scale(0.015625)"/>
       </defs>
       <use xlink:href="#DejaVuSans-32"/>
       <use xlink:href="#DejaVuSans-30" transform="translate(63.623047 0)"/>
       <use xlink:href="#DejaVuSans-30" transform="translate(127.246094 0)"/>
      </g>
     </g>
    </g>
    <g id="xtick_3">
     <g id="line2d_3">
      <g>
       <use xlink:href="#mf913dcfa02" x="130.007695" y="188.6" style="stroke: #000000; stroke-width: 0.8"/>
      </g>
     </g>
     <g id="text_3">
      <!-- 400 -->
      <g transform="translate(120.463945 203.198437) scale(0.1 -0.1)">
       <defs>
        <path id="DejaVuSans-34" d="M 2419 4116 
L 825 1625 
L 2419 1625 
L 2419 4116 
z
M 2253 4666 
L 3047 4666 
L 3047 1625 
L 3713 1625 
L 3713 1100 
L 3047 1100 
L 3047 0 
L 2419 0 
L 2419 1100 
L 313 1100 
L 313 1709 
L 2253 4666 
z
" transform="scale(0.015625)"/>
       </defs>
       <use xlink:href="#DejaVuSans-34"/>
       <use xlink:href="#DejaVuSans-30" transform="translate(63.623047 0)"/>
       <use xlink:href="#DejaVuSans-30" transform="translate(127.246094 0)"/>
      </g>
     </g>
    </g>
    <g id="xtick_4">
     <g id="line2d_4">
      <g>
       <use xlink:href="#mf913dcfa02" x="172.942305" y="188.6" style="stroke: #000000; stroke-width: 0.8"/>
      </g>
     </g>
     <g id="text_4">
      <!-- 600 -->
      <g transform="translate(163.398555 203.198437) scale(0.1 -0.1)">
       <defs>
        <path id="DejaVuSans-36" d="M 2113 2584 
Q 1688 2584 1439 2293 
Q 1191 2003 1191 1497 
Q 1191 994 1439 701 
Q 1688 409 2113 409 
Q 2538 409 2786 701 
Q 3034 994 3034 1497 
Q 3034 2003 2786 2293 
Q 2538 2584 2113 2584 
z
M 3366 4563 
L 3366 3988 
Q 3128 4100 2886 4159 
Q 2644 4219 2406 4219 
Q 1781 4219 1451 3797 
Q 1122 3375 1075 2522 
Q 1259 2794 1537 2939 
Q 1816 3084 2150 3084 
Q 2853 3084 3261 2657 
Q 3669 2231 3669 1497 
Q 3669 778 3244 343 
Q 2819 -91 2113 -91 
Q 1303 -91 875 529 
Q 447 1150 447 2328 
Q 447 3434 972 4092 
Q 1497 4750 2381 4750 
Q 2619 4750 2861 4703 
Q 3103 4656 3366 4563 
z
" transform="scale(0.015625)"/>
       </defs>
       <use xlink:href="#DejaVuSans-36"/>
       <use xlink:href="#DejaVuSans-30" transform="translate(63.623047 0)"/>
       <use xlink:href="#DejaVuSans-30" transform="translate(127.246094 0)"/>
      </g>
     </g>
    </g>
    <g id="xtick_5">
     <g id="line2d_5">
      <g>
       <use xlink:href="#mf913dcfa02" x="215.876914" y="188.6" style="stroke: #000000; stroke-width: 0.8"/>
      </g>
     </g>
     <g id="text_5">
      <!-- 800 -->
      <g transform="translate(206.333164 203.198437) scale(0.1 -0.1)">
       <defs>
        <path id="DejaVuSans-38" d="M 2034 2216 
Q 1584 2216 1326 1975 
Q 1069 1734 1069 1313 
Q 1069 891 1326 650 
Q 1584 409 2034 409 
Q 2484 409 2743 651 
Q 3003 894 3003 1313 
Q 3003 1734 2745 1975 
Q 2488 2216 2034 2216 
z
M 1403 2484 
Q 997 2584 770 2862 
Q 544 3141 544 3541 
Q 544 4100 942 4425 
Q 1341 4750 2034 4750 
Q 2731 4750 3128 4425 
Q 3525 4100 3525 3541 
Q 3525 3141 3298 2862 
Q 3072 2584 2669 2484 
Q 3125 2378 3379 2068 
Q 3634 1759 3634 1313 
Q 3634 634 3220 271 
Q 2806 -91 2034 -91 
Q 1263 -91 848 271 
Q 434 634 434 1313 
Q 434 1759 690 2068 
Q 947 2378 1403 2484 
z
M 1172 3481 
Q 1172 3119 1398 2916 
Q 1625 2713 2034 2713 
Q 2441 2713 2670 2916 
Q 2900 3119 2900 3481 
Q 2900 3844 2670 4047 
Q 2441 4250 2034 4250 
Q 1625 4250 1398 4047 
Q 1172 3844 1172 3481 
z
" transform="scale(0.015625)"/>
       </defs>
       <use xlink:href="#DejaVuSans-38"/>
       <use xlink:href="#DejaVuSans-30" transform="translate(63.623047 0)"/>
       <use xlink:href="#DejaVuSans-30" transform="translate(127.246094 0)"/>
      </g>
     </g>
    </g>
    <g id="xtick_6">
     <g id="line2d_6">
      <g>
       <use xlink:href="#mf913dcfa02" x="258.811523" y="188.6" style="stroke: #000000; stroke-width: 0.8"/>
      </g>
     </g>
     <g id="text_6">
      <!-- 1000 -->
      <g transform="translate(246.086523 203.198437) scale(0.1 -0.1)">
       <defs>
        <path id="DejaVuSans-31" d="M 794 531 
L 1825 531 
L 1825 4091 
L 703 3866 
L 703 4441 
L 1819 4666 
L 2450 4666 
L 2450 531 
L 3481 531 
L 3481 0 
L 794 0 
L 794 531 
z
" transform="scale(0.015625)"/>
       </defs>
       <use xlink:href="#DejaVuSans-31"/>
       <use xlink:href="#DejaVuSans-30" transform="translate(63.623047 0)"/>
       <use xlink:href="#DejaVuSans-30" transform="translate(127.246094 0)"/>
       <use xlink:href="#DejaVuSans-30" transform="translate(190.869141 0)"/>
      </g>
     </g>
    </g>
    <g id="text_7">
     <!-- q (nm) -->
     <g transform="translate(134.771094 216.876563) scale(0.1 -0.1)">
      <defs>
       <path id="DejaVuSans-71" d="M 947 1747 
Q 947 1113 1208 752 
Q 1469 391 1925 391 
Q 2381 391 2643 752 
Q 2906 1113 2906 1747 
Q 2906 2381 2643 2742 
Q 2381 3103 1925 3103 
Q 1469 3103 1208 2742 
Q 947 2381 947 1747 
z
M 2906 525 
Q 2725 213 2448 61 
Q 2172 -91 1784 -91 
Q 1150 -91 751 415 
Q 353 922 353 1747 
Q 353 2572 751 3078 
Q 1150 3584 1784 3584 
Q 2172 3584 2448 3432 
Q 2725 3281 2906 2969 
L 2906 3500 
L 3481 3500 
L 3481 -1331 
L 2906 -1331 
L 2906 525 
z
" transform="scale(0.015625)"/>
       <path id="DejaVuSans-20" transform="scale(0.015625)"/>
       <path id="DejaVuSans-28" d="M 1984 4856 
Q 1566 4138 1362 3434 
Q 1159 2731 1159 2009 
Q 1159 1288 1364 580 
Q 1569 -128 1984 -844 
L 1484 -844 
Q 1016 -109 783 600 
Q 550 1309 550 2009 
Q 550 2706 781 3412 
Q 1013 4119 1484 4856 
L 1984 4856 
z
" transform="scale(0.015625)"/>
       <path id="DejaVuSans-6e" d="M 3513 2113 
L 3513 0 
L 2938 0 
L 2938 2094 
Q 2938 2591 2744 2837 
Q 2550 3084 2163 3084 
Q 1697 3084 1428 2787 
Q 1159 2491 1159 1978 
L 1159 0 
L 581 0 
L 581 3500 
L 1159 3500 
L 1159 2956 
Q 1366 3272 1645 3428 
Q 1925 3584 2291 3584 
Q 2894 3584 3203 3211 
Q 3513 2838 3513 2113 
z
" transform="scale(0.015625)"/>
       <path id="DejaVuSans-6d" d="M 3328 2828 
Q 3544 3216 3844 3400 
Q 4144 3584 4550 3584 
Q 5097 3584 5394 3201 
Q 5691 2819 5691 2113 
L 5691 0 
L 5113 0 
L 5113 2094 
Q 5113 2597 4934 2840 
Q 4756 3084 4391 3084 
Q 3944 3084 3684 2787 
Q 3425 2491 3425 1978 
L 3425 0 
L 2847 0 
L 2847 2094 
Q 2847 2600 2669 2842 
Q 2491 3084 2119 3084 
Q 1678 3084 1418 2786 
Q 1159 2488 1159 1978 
L 1159 0 
L 581 0 
L 581 3500 
L 1159 3500 
L 1159 2956 
Q 1356 3278 1631 3431 
Q 1906 3584 2284 3584 
Q 2666 3584 2933 3390 
Q 3200 3197 3328 2828 
z
" transform="scale(0.015625)"/>
       <path id="DejaVuSans-29" d="M 513 4856 
L 1013 4856 
Q 1481 4119 1714 3412 
Q 1947 2706 1947 2009 
Q 1947 1309 1714 600 
Q 1481 -109 1013 -844 
L 513 -844 
Q 928 -128 1133 580 
Q 1338 1288 1338 2009 
Q 1338 2731 1133 3434 
Q 928 4138 513 4856 
z
" transform="scale(0.015625)"/>
      </defs>
      <use xlink:href="#DejaVuSans-71"/>
      <use xlink:href="#DejaVuSans-20" transform="translate(63.476562 0)"/>
      <use xlink:href="#DejaVuSans-28" transform="translate(95.263672 0)"/>
      <use xlink:href="#DejaVuSans-6e" transform="translate(134.277344 0)"/>
      <use xlink:href="#DejaVuSans-6d" transform="translate(197.65625 0)"/>
      <use xlink:href="#DejaVuSans-29" transform="translate(295.068359 0)"/>
     </g>
    </g>
   </g>
   <g id="matplotlib.axis_2">
    <g id="ytick_1">
     <g id="line2d_7">
      <defs>
       <path id="m017f86ab16" d="M 0 0 
L -3.5 0 
" style="stroke: #000000; stroke-width: 0.8"/>
      </defs>
      <g>
       <use xlink:href="#m017f86ab16" x="33.7" y="180.687273" style="stroke: #000000; stroke-width: 0.8"/>
      </g>
     </g>
     <g id="text_8">
      <!-- 0 -->
      <g transform="translate(20.3375 184.486491) scale(0.1 -0.1)">
       <use xlink:href="#DejaVuSans-30"/>
      </g>
     </g>
    </g>
    <g id="ytick_2">
     <g id="line2d_8">
      <g>
       <use xlink:href="#m017f86ab16" x="33.7" y="157.57874" style="stroke: #000000; stroke-width: 0.8"/>
      </g>
     </g>
     <g id="text_9">
      <!-- 10000 -->
      <g transform="translate(-5.1125 161.377959) scale(0.1 -0.1)">
       <use xlink:href="#DejaVuSans-31"/>
       <use xlink:href="#DejaVuSans-30" transform="translate(63.623047 0)"/>
       <use xlink:href="#DejaVuSans-30" transform="translate(127.246094 0)"/>
       <use xlink:href="#DejaVuSans-30" transform="translate(190.869141 0)"/>
       <use xlink:href="#DejaVuSans-30" transform="translate(254.492188 0)"/>
      </g>
     </g>
    </g>
    <g id="ytick_3">
     <g id="line2d_9">
      <g>
       <use xlink:href="#m017f86ab16" x="33.7" y="134.470207" style="stroke: #000000; stroke-width: 0.8"/>
      </g>
     </g>
     <g id="text_10">
      <!-- 20000 -->
      <g transform="translate(-5.1125 138.269426) scale(0.1 -0.1)">
       <use xlink:href="#DejaVuSans-32"/>
       <use xlink:href="#DejaVuSans-30" transform="translate(63.623047 0)"/>
       <use xlink:href="#DejaVuSans-30" transform="translate(127.246094 0)"/>
       <use xlink:href="#DejaVuSans-30" transform="translate(190.869141 0)"/>
       <use xlink:href="#DejaVuSans-30" transform="translate(254.492188 0)"/>
      </g>
     </g>
    </g>
    <g id="ytick_4">
     <g id="line2d_10">
      <g>
       <use xlink:href="#m017f86ab16" x="33.7" y="111.361674" style="stroke: #000000; stroke-width: 0.8"/>
      </g>
     </g>
     <g id="text_11">
      <!-- 30000 -->
      <g transform="translate(-5.1125 115.160893) scale(0.1 -0.1)">
       <defs>
        <path id="DejaVuSans-33" d="M 2597 2516 
Q 3050 2419 3304 2112 
Q 3559 1806 3559 1356 
Q 3559 666 3084 287 
Q 2609 -91 1734 -91 
Q 1441 -91 1130 -33 
Q 819 25 488 141 
L 488 750 
Q 750 597 1062 519 
Q 1375 441 1716 441 
Q 2309 441 2620 675 
Q 2931 909 2931 1356 
Q 2931 1769 2642 2001 
Q 2353 2234 1838 2234 
L 1294 2234 
L 1294 2753 
L 1863 2753 
Q 2328 2753 2575 2939 
Q 2822 3125 2822 3475 
Q 2822 3834 2567 4026 
Q 2313 4219 1838 4219 
Q 1578 4219 1281 4162 
Q 984 4106 628 3988 
L 628 4550 
Q 988 4650 1302 4700 
Q 1616 4750 1894 4750 
Q 2613 4750 3031 4423 
Q 3450 4097 3450 3541 
Q 3450 3153 3228 2886 
Q 3006 2619 2597 2516 
z
" transform="scale(0.015625)"/>
       </defs>
       <use xlink:href="#DejaVuSans-33"/>
       <use xlink:href="#DejaVuSans-30" transform="translate(63.623047 0)"/>
       <use xlink:href="#DejaVuSans-30" transform="translate(127.246094 0)"/>
       <use xlink:href="#DejaVuSans-30" transform="translate(190.869141 0)"/>
       <use xlink:href="#DejaVuSans-30" transform="translate(254.492188 0)"/>
      </g>
     </g>
    </g>
    <g id="ytick_5">
     <g id="line2d_11">
      <g>
       <use xlink:href="#m017f86ab16" x="33.7" y="88.253141" style="stroke: #000000; stroke-width: 0.8"/>
      </g>
     </g>
     <g id="text_12">
      <!-- 40000 -->
      <g transform="translate(-5.1125 92.05236) scale(0.1 -0.1)">
       <use xlink:href="#DejaVuSans-34"/>
       <use xlink:href="#DejaVuSans-30" transform="translate(63.623047 0)"/>
       <use xlink:href="#DejaVuSans-30" transform="translate(127.246094 0)"/>
       <use xlink:href="#DejaVuSans-30" transform="translate(190.869141 0)"/>
       <use xlink:href="#DejaVuSans-30" transform="translate(254.492188 0)"/>
      </g>
     </g>
    </g>
    <g id="ytick_6">
     <g id="line2d_12">
      <g>
       <use xlink:href="#m017f86ab16" x="33.7" y="65.144608" style="stroke: #000000; stroke-width: 0.8"/>
      </g>
     </g>
     <g id="text_13">
      <!-- 50000 -->
      <g transform="translate(-5.1125 68.943827) scale(0.1 -0.1)">
       <defs>
        <path id="DejaVuSans-35" d="M 691 4666 
L 3169 4666 
L 3169 4134 
L 1269 4134 
L 1269 2991 
Q 1406 3038 1543 3061 
Q 1681 3084 1819 3084 
Q 2600 3084 3056 2656 
Q 3513 2228 3513 1497 
Q 3513 744 3044 326 
Q 2575 -91 1722 -91 
Q 1428 -91 1123 -41 
Q 819 9 494 109 
L 494 744 
Q 775 591 1075 516 
Q 1375 441 1709 441 
Q 2250 441 2565 725 
Q 2881 1009 2881 1497 
Q 2881 1984 2565 2268 
Q 2250 2553 1709 2553 
Q 1456 2553 1204 2497 
Q 953 2441 691 2322 
L 691 4666 
z
" transform="scale(0.015625)"/>
       </defs>
       <use xlink:href="#DejaVuSans-35"/>
       <use xlink:href="#DejaVuSans-30" transform="translate(63.623047 0)"/>
       <use xlink:href="#DejaVuSans-30" transform="translate(127.246094 0)"/>
       <use xlink:href="#DejaVuSans-30" transform="translate(190.869141 0)"/>
       <use xlink:href="#DejaVuSans-30" transform="translate(254.492188 0)"/>
      </g>
     </g>
    </g>
    <g id="ytick_7">
     <g id="line2d_13">
      <g>
       <use xlink:href="#m017f86ab16" x="33.7" y="42.036075" style="stroke: #000000; stroke-width: 0.8"/>
      </g>
     </g>
     <g id="text_14">
      <!-- 60000 -->
      <g transform="translate(-5.1125 45.835294) scale(0.1 -0.1)">
       <use xlink:href="#DejaVuSans-36"/>
       <use xlink:href="#DejaVuSans-30" transform="translate(63.623047 0)"/>
       <use xlink:href="#DejaVuSans-30" transform="translate(127.246094 0)"/>
       <use xlink:href="#DejaVuSans-30" transform="translate(190.869141 0)"/>
       <use xlink:href="#DejaVuSans-30" transform="translate(254.492188 0)"/>
      </g>
     </g>
    </g>
    <g id="ytick_8">
     <g id="line2d_14">
      <g>
       <use xlink:href="#m017f86ab16" x="33.7" y="18.927542" style="stroke: #000000; stroke-width: 0.8"/>
      </g>
     </g>
     <g id="text_15">
      <!-- 70000 -->
      <g transform="translate(-5.1125 22.726761) scale(0.1 -0.1)">
       <defs>
        <path id="DejaVuSans-37" d="M 525 4666 
L 3525 4666 
L 3525 4397 
L 1831 0 
L 1172 0 
L 2766 4134 
L 525 4134 
L 525 4666 
z
" transform="scale(0.015625)"/>
       </defs>
       <use xlink:href="#DejaVuSans-37"/>
       <use xlink:href="#DejaVuSans-30" transform="translate(63.623047 0)"/>
       <use xlink:href="#DejaVuSans-30" transform="translate(127.246094 0)"/>
       <use xlink:href="#DejaVuSans-30" transform="translate(190.869141 0)"/>
       <use xlink:href="#DejaVuSans-30" transform="translate(254.492188 0)"/>
      </g>
     </g>
    </g>
    <g id="text_16">
     <!-- rdf -->
     <g transform="translate(-11.192187 108.462344) rotate(-90) scale(0.1 -0.1)">
      <defs>
       <path id="DejaVuSans-72" d="M 2631 2963 
Q 2534 3019 2420 3045 
Q 2306 3072 2169 3072 
Q 1681 3072 1420 2755 
Q 1159 2438 1159 1844 
L 1159 0 
L 581 0 
L 581 3500 
L 1159 3500 
L 1159 2956 
Q 1341 3275 1631 3429 
Q 1922 3584 2338 3584 
Q 2397 3584 2469 3576 
Q 2541 3569 2628 3553 
L 2631 2963 
z
" transform="scale(0.015625)"/>
       <path id="DejaVuSans-64" d="M 2906 2969 
L 2906 4863 
L 3481 4863 
L 3481 0 
L 2906 0 
L 2906 525 
Q 2725 213 2448 61 
Q 2172 -91 1784 -91 
Q 1150 -91 751 415 
Q 353 922 353 1747 
Q 353 2572 751 3078 
Q 1150 3584 1784 3584 
Q 2172 3584 2448 3432 
Q 2725 3281 2906 2969 
z
M 947 1747 
Q 947 1113 1208 752 
Q 1469 391 1925 391 
Q 2381 391 2643 752 
Q 2906 1113 2906 1747 
Q 2906 2381 2643 2742 
Q 2381 3103 1925 3103 
Q 1469 3103 1208 2742 
Q 947 2381 947 1747 
z
" transform="scale(0.015625)"/>
       <path id="DejaVuSans-66" d="M 2375 4863 
L 2375 4384 
L 1825 4384 
Q 1516 4384 1395 4259 
Q 1275 4134 1275 3809 
L 1275 3500 
L 2222 3500 
L 2222 3053 
L 1275 3053 
L 1275 0 
L 697 0 
L 697 3053 
L 147 3053 
L 147 3500 
L 697 3500 
L 697 3744 
Q 697 4328 969 4595 
Q 1241 4863 1831 4863 
L 2375 4863 
z
" transform="scale(0.015625)"/>
      </defs>
      <use xlink:href="#DejaVuSans-72"/>
      <use xlink:href="#DejaVuSans-64" transform="translate(39.363281 0)"/>
      <use xlink:href="#DejaVuSans-66" transform="translate(102.839844 0)"/>
     </g>
    </g>
   </g>
   <g id="line2d_15">
    <path d="M 44.406818 180.687273 
L 92.708254 180.687273 
L 93.244936 180.554458 
L 93.781619 180.687273 
L 94.318301 180.560079 
L 94.854984 180.687273 
L 95.391667 22.432727 
L 95.928349 74.772209 
L 96.465032 180.687273 
L 97.001715 180.572664 
L 97.538397 180.013375 
L 98.07508 178.925796 
L 98.611762 175.398523 
L 99.148445 166.504986 
L 99.685128 164.28643 
L 100.22181 171.217497 
L 100.758493 176.091677 
L 101.295175 179.412794 
L 102.905223 180.594534 
L 103.441906 180.414069 
L 104.515271 180.511555 
L 105.588636 180.178376 
L 106.125319 180.270503 
L 106.662002 179.949911 
L 107.198684 179.962407 
L 107.735367 177.123857 
L 108.272049 172.277612 
L 108.808732 172.18688 
L 109.345415 177.975585 
L 109.882097 179.872174 
L 110.41878 180.541463 
L 110.955463 180.472058 
L 112.028828 179.783929 
L 112.56551 177.882784 
L 113.102193 169.171839 
L 113.638876 156.286761 
L 114.175558 163.05807 
L 114.712241 174.964217 
L 115.248923 179.483866 
L 115.785606 179.377045 
L 116.322289 178.351502 
L 116.858971 169.725244 
L 117.395654 159.083284 
L 117.932337 165.336632 
L 118.469019 176.339649 
L 119.005702 179.030206 
L 119.542384 180.067645 
L 121.152432 180.471276 
L 121.689115 180.314492 
L 122.76248 180.272791 
L 123.299163 180.482832 
L 123.835845 180.334304 
L 124.372528 180.538017 
L 124.909211 180.392716 
L 125.445893 180.445039 
L 125.982576 179.922255 
L 126.519258 177.76133 
L 127.055941 172.255628 
L 127.592624 173.283439 
L 128.129306 177.146019 
L 128.665989 173.918535 
L 129.202671 166.080746 
L 129.739354 169.934888 
L 130.276037 177.018169 
L 130.812719 179.536181 
L 131.349402 180.392503 
L 131.886085 180.354502 
L 132.422767 180.481812 
L 134.569498 180.491451 
L 135.10618 180.377644 
L 135.642863 180.075257 
L 136.179545 177.284716 
L 136.716228 166.673841 
L 137.252911 167.352032 
L 137.789593 177.838917 
L 138.326276 177.654668 
L 138.862959 168.158482 
L 139.399641 153.405424 
L 140.473006 176.028233 
L 141.009689 179.560981 
L 141.546372 179.877154 
L 142.619737 180.125878 
L 143.156419 178.400638 
L 143.693102 174.967525 
L 144.229785 169.242249 
L 144.766467 173.539055 
L 145.30315 176.650274 
L 145.839833 160.776706 
L 146.376515 160.678795 
L 146.913198 178.504108 
L 147.44988 179.096874 
L 147.986563 174.034881 
L 148.523246 163.16867 
L 149.059928 164.132969 
L 149.596611 174.985213 
L 150.133293 179.6325 
L 150.669976 180.122855 
L 151.206659 180.32407 
L 151.743341 179.746809 
L 152.280024 178.578486 
L 152.816707 173.663972 
L 153.353389 171.745825 
L 153.890072 177.283856 
L 154.426754 179.897341 
L 154.963437 180.478659 
L 155.50012 180.119105 
L 156.036802 179.945488 
L 156.573485 177.140359 
L 157.110167 173.133689 
L 157.64685 175.044432 
L 158.183533 178.520292 
L 158.720215 179.955433 
L 159.256898 180.373092 
L 160.330263 180.521209 
L 161.940311 180.548797 
L 163.013676 180.324642 
L 163.550359 179.968517 
L 164.087041 178.772865 
L 165.160407 166.21102 
L 165.697089 173.209451 
L 166.233772 177.872771 
L 166.770455 177.939962 
L 167.307137 174.754852 
L 167.84382 175.643364 
L 168.380502 178.0107 
L 168.917185 179.514751 
L 169.453868 177.546486 
L 169.99055 172.639225 
L 170.527233 169.419286 
L 171.063915 174.623668 
L 171.600598 176.113724 
L 172.137281 171.479875 
L 172.673963 164.984889 
L 173.210646 167.537509 
L 173.747329 175.196292 
L 174.284011 179.023284 
L 174.820694 179.618297 
L 175.357376 178.064551 
L 175.894059 174.672681 
L 176.430742 176.002408 
L 176.967424 177.692076 
L 177.504107 176.365613 
L 178.040789 175.953616 
L 178.577472 177.019125 
L 179.114155 175.993441 
L 179.650837 174.600376 
L 180.18752 178.541624 
L 180.724203 180.155069 
L 181.260885 180.397699 
L 183.407616 180.571684 
L 183.944298 180.523412 
L 184.480981 180.280747 
L 185.017663 179.3156 
L 185.554346 175.786662 
L 186.091029 170.610302 
L 187.164394 179.043333 
L 187.701077 179.754886 
L 188.237759 179.669271 
L 188.774442 176.155509 
L 189.311124 168.863997 
L 189.847807 170.927113 
L 190.38449 171.702432 
L 190.921172 173.343745 
L 191.457855 178.193278 
L 191.994537 178.328564 
L 192.53122 174.796721 
L 193.067903 173.005209 
L 193.604585 176.816438 
L 194.141268 179.690888 
L 194.677951 180.037167 
L 195.751316 173.999271 
L 196.287998 178.155424 
L 196.824681 176.771897 
L 197.361364 176.56736 
L 197.898046 175.214269 
L 198.434729 171.055014 
L 198.971411 173.432892 
L 199.508094 177.755124 
L 200.044777 180.02845 
L 200.581459 180.268513 
L 201.118142 180.375347 
L 201.654825 180.093481 
L 202.191507 178.635914 
L 202.72819 176.026509 
L 203.264872 176.171719 
L 203.801555 177.659412 
L 204.338238 177.380151 
L 204.87492 177.836076 
L 205.411603 178.593869 
L 206.484968 176.312627 
L 207.021651 173.890796 
L 207.558333 173.743488 
L 208.095016 175.444958 
L 208.631699 176.331366 
L 209.168381 177.594431 
L 209.705064 173.303162 
L 210.241746 172.514977 
L 210.778429 176.488994 
L 211.315112 179.575673 
L 211.851794 178.717399 
L 212.388477 174.837933 
L 212.925159 172.199391 
L 213.461842 175.503901 
L 213.998525 177.75672 
L 214.535207 176.969901 
L 215.07189 176.960336 
L 215.608573 177.702575 
L 216.145255 178.97689 
L 216.681938 179.880426 
L 217.21862 179.789198 
L 218.291986 175.153855 
L 219.365351 177.297209 
L 219.902033 177.504487 
L 220.438716 176.29761 
L 220.975399 175.678995 
L 221.512081 178.213513 
L 222.048764 179.64505 
L 222.585447 179.651303 
L 223.122129 178.237826 
L 223.658812 176.274813 
L 224.195494 172.87312 
L 224.732177 172.153483 
L 225.26886 177.836724 
L 225.805542 180.046776 
L 226.342225 180.330317 
L 226.878907 180.485865 
L 227.41559 180.286813 
L 228.488955 178.302977 
L 229.025638 178.850862 
L 229.562321 179.94205 
L 230.099003 179.409165 
L 230.635686 177.16046 
L 231.172368 176.704604 
L 231.709051 179.1124 
L 232.245734 179.754981 
L 232.782416 178.689267 
L 233.319099 176.875002 
L 233.855781 177.42155 
L 234.392464 179.448513 
L 234.929147 180.247343 
L 235.465829 180.337299 
L 236.002512 180.295753 
L 236.539195 179.856685 
L 237.075877 177.693107 
L 237.61256 176.058359 
L 238.149242 175.233027 
L 238.685925 172.538339 
L 239.222608 171.657391 
L 239.75929 174.351585 
L 240.295973 172.713121 
L 240.832656 173.418884 
L 241.369338 177.550352 
L 241.906021 179.573603 
L 242.442703 179.090959 
L 242.979386 177.80347 
L 243.516069 176.844067 
L 244.052751 174.75705 
L 244.589434 174.892395 
L 245.126116 177.103605 
L 245.662799 178.739365 
L 246.199482 179.918517 
L 246.736164 179.555841 
L 247.272847 177.87752 
L 247.80953 177.537131 
L 248.346212 179.059037 
L 248.882895 178.815424 
L 249.419577 175.648291 
L 249.95626 174.616036 
L 250.492943 177.85922 
L 251.029625 179.579876 
L 251.566308 179.20596 
L 252.10299 177.525159 
L 252.639673 174.992304 
L 253.176356 176.106293 
L 253.713038 175.670323 
L 254.249721 172.902811 
L 254.786404 173.967373 
L 255.323086 177.714222 
L 255.859769 178.53665 
L 256.396451 176.891153 
L 256.933134 176.676856 
L 257.469817 176.8659 
L 258.006499 176.30388 
L 258.543182 176.061055 
L 258.543182 176.061055 
" clip-path="url(#p3b8a486605)" style="fill: none; stroke: #000000; stroke-opacity: 0.5; stroke-width: 0.5; stroke-linecap: square"/>
   </g>
   <g id="line2d_16">
    <path d="M 44.406818 180.687273 
L 92.708254 180.687273 
L 93.244936 180.280528 
L 93.781619 180.687273 
L 94.318301 180.297742 
L 94.854984 180.687273 
L 96.465032 180.687273 
L 97.001715 180.336284 
L 97.538397 178.62346 
L 98.07508 175.29275 
L 98.611762 164.490476 
L 99.148445 137.254018 
L 99.685128 130.459689 
L 100.22181 151.686082 
L 100.758493 166.61326 
L 101.295175 176.78418 
L 101.831858 178.035169 
L 102.368541 178.951641 
L 102.905223 180.40326 
L 103.441906 179.850585 
L 103.978589 180.139443 
L 104.515271 180.149138 
L 105.588636 179.128777 
L 106.125319 179.410916 
L 106.662002 178.429102 
L 107.198684 178.467372 
L 107.735367 170.016821 
L 108.272049 155.171153 
L 108.808732 155.358396 
L 109.345415 172.382727 
L 109.882097 178.191033 
L 110.41878 180.240731 
L 110.955463 180.467574 
L 111.492145 180.25485 
L 112.56551 180.268309 
L 113.102193 180.068571 
L 113.638876 180.687273 
L 114.712241 178.914893 
L 115.248923 179.329482 
L 115.785606 178.585449 
L 116.322289 174.098708 
L 116.858971 148.228912 
L 117.395654 116.169964 
L 117.932337 134.036173 
L 118.469019 168.082784 
L 119.005702 176.137482 
L 119.542384 179.134683 
L 120.079067 179.32663 
L 120.61575 179.848764 
L 121.152432 180.687273 
L 121.689115 180.36109 
L 122.225797 180.204701 
L 122.76248 179.893929 
L 123.299163 180.374223 
L 123.835845 180.378425 
L 124.372528 180.687273 
L 124.909211 180.386579 
L 125.445893 180.687273 
L 125.982576 180.394414 
L 126.519258 180.687273 
L 127.592624 180.687273 
L 128.129306 180.548233 
L 128.665989 180.687273 
L 129.202671 180.280614 
L 129.739354 180.553414 
L 130.276037 180.555077 
L 130.812719 180.687273 
L 131.349402 180.687273 
L 131.886085 180.559884 
L 132.422767 180.687273 
L 132.95945 180.562944 
L 133.496132 180.564433 
L 134.032815 180.201764 
L 134.569498 180.567332 
L 135.10618 180.331684 
L 135.642863 179.398694 
L 136.179545 170.498505 
L 136.716228 138.34335 
L 137.252911 140.866247 
L 137.789593 172.747023 
L 138.326276 175.380214 
L 138.862959 157.512576 
L 139.399641 130.42717 
L 139.936324 159.418366 
L 140.473006 178.256376 
L 141.009689 180.060133 
L 141.546372 180.583898 
L 142.083054 180.278293 
L 142.619737 180.485006 
L 143.156419 180.287112 
L 143.693102 180.390379 
L 144.229785 180.197742 
L 144.766467 180.396679 
L 145.30315 179.633037 
L 145.839833 175.376756 
L 146.376515 147.46875 
L 146.913198 177.344301 
L 147.44988 180.503477 
L 149.059928 180.687273 
L 151.206659 180.60171 
L 151.743341 180.43314 
L 152.816707 180.687273 
L 153.353389 180.687273 
L 153.890072 180.524414 
L 154.963437 180.607413 
L 160.866946 180.687273 
L 161.403628 180.473286 
L 161.940311 180.616592 
L 163.013676 180.479043 
L 164.087041 180.550927 
L 164.623724 180.417004 
L 165.160407 180.084551 
L 165.697089 179.890722 
L 166.233772 178.910753 
L 166.770455 173.317184 
L 167.307137 163.683021 
L 167.84382 165.624869 
L 168.380502 173.252779 
L 168.917185 178.797352 
L 169.453868 177.439413 
L 169.99055 171.150438 
L 170.527233 162.205117 
L 171.063915 169.058322 
L 171.600598 169.276808 
L 172.137281 157.518495 
L 172.673963 149.043815 
L 173.210646 154.781851 
L 173.747329 170.060411 
L 174.284011 177.791837 
L 174.820694 179.021687 
L 175.357376 179.946726 
L 176.430742 179.622427 
L 176.967424 176.406637 
L 177.504107 171.863884 
L 178.040789 173.739739 
L 178.577472 178.407971 
L 179.114155 180.041212 
L 179.650837 180.473621 
L 180.18752 180.528296 
L 181.260885 180.322112 
L 181.797568 180.376713 
L 182.33425 180.584555 
L 182.870933 180.432462 
L 183.407616 180.535563 
L 184.480981 180.139479 
L 185.017663 177.623199 
L 185.554346 171.074227 
L 186.091029 167.155281 
L 187.164394 178.433706 
L 187.701077 179.830642 
L 189.311124 180.501109 
L 190.921172 180.41412 
L 191.457855 179.512217 
L 191.994537 177.232533 
L 192.53122 171.466923 
L 193.067903 167.199437 
L 193.604585 173.96976 
L 194.141268 179.030784 
L 194.677951 179.951487 
L 195.214633 180.042656 
L 195.751316 178.895097 
L 196.287998 175.39097 
L 196.824681 169.327531 
L 197.361364 169.782975 
L 197.898046 172.597149 
L 198.434729 169.027833 
L 199.508094 178.452504 
L 200.044777 180.404803 
L 200.581459 180.166277 
L 201.118142 180.050425 
L 201.654825 179.343173 
L 202.191507 174.99395 
L 202.72819 166.920667 
L 203.264872 167.826795 
L 203.801555 176.147052 
L 204.338238 179.349604 
L 204.87492 179.852058 
L 205.411603 177.745732 
L 205.948285 172.445557 
L 206.484968 172.686076 
L 207.021651 176.805404 
L 207.558333 179.328348 
L 208.095016 180.285908 
L 208.631699 179.672275 
L 209.168381 178.382341 
L 209.705064 172.636459 
L 210.241746 172.972781 
L 210.778429 177.225711 
L 211.315112 179.915169 
L 211.851794 180.33856 
L 212.388477 180.37543 
L 212.925159 180.549555 
L 214.535207 180.518364 
L 217.21862 180.589046 
L 217.755303 180.524572 
L 218.291986 179.781756 
L 218.828668 177.312408 
L 219.365351 173.020511 
L 219.902033 173.606999 
L 220.438716 172.98733 
L 220.975399 173.065396 
L 221.512081 177.507269 
L 222.048764 179.602678 
L 222.585447 180.16363 
L 223.122129 179.92182 
L 223.658812 178.769865 
L 224.732177 168.206357 
L 225.26886 175.694542 
L 225.805542 179.795672 
L 226.878907 180.393553 
L 227.41559 180.336871 
L 227.952273 180.455033 
L 229.025638 180.256864 
L 229.562321 179.831431 
L 230.099003 177.255253 
L 230.635686 170.253014 
L 231.172368 168.826815 
L 231.709051 176.254529 
L 232.245734 179.578478 
L 232.782416 180.356522 
L 233.319099 180.41321 
L 233.855781 180.305753 
L 234.392464 180.497588 
L 236.002512 180.127726 
L 236.539195 178.779517 
L 237.075877 173.362105 
L 237.61256 172.302178 
L 238.149242 177.351758 
L 238.685925 177.577476 
L 239.75929 173.356664 
L 240.295973 167.890547 
L 240.832656 170.242067 
L 241.369338 176.678126 
L 241.906021 179.684151 
L 242.442703 179.639691 
L 242.979386 178.677825 
L 244.052751 170.305876 
L 244.589434 174.023062 
L 245.126116 178.623393 
L 245.662799 179.986874 
L 246.199482 180.447036 
L 246.736164 180.472203 
L 247.80953 180.19072 
L 248.346212 180.052203 
L 248.882895 177.668916 
L 249.419577 173.076072 
L 249.95626 172.004288 
L 250.492943 176.518056 
L 251.029625 179.610273 
L 251.566308 180.208545 
L 252.10299 180.25637 
L 252.639673 179.987834 
L 253.176356 180.036315 
L 253.713038 177.895774 
L 254.249721 172.844317 
L 254.786404 172.574762 
L 255.323086 176.838553 
L 255.859769 179.111816 
L 256.396451 178.945607 
L 257.469817 170.988693 
L 258.006499 169.922226 
L 258.543182 171.106942 
L 258.543182 171.106942 
" clip-path="url(#p3b8a486605)" style="fill: none; stroke: #0000ff; stroke-opacity: 0.5; stroke-linecap: square"/>
   </g>
   <g id="line2d_17">
    <path d="M 44.406818 180.687273 
L 107.198684 180.687273 
L 107.735367 180.256143 
L 108.272049 180.263329 
L 108.808732 179.436464 
L 109.345415 180.687273 
L 110.41878 180.687273 
L 110.955463 179.906121 
L 112.028828 176.525713 
L 112.56551 166.163214 
L 113.102193 119.092051 
L 113.638876 47.840036 
L 114.175558 86.127995 
L 114.712241 152.679307 
L 115.248923 176.549243 
L 115.785606 177.630075 
L 116.322289 179.683301 
L 116.858971 179.038594 
L 117.395654 178.087898 
L 117.932337 180.046846 
L 118.469019 179.424852 
L 120.61575 180.687273 
L 121.152432 179.805285 
L 121.689115 180.107392 
L 122.225797 179.5434 
L 122.76248 180.405195 
L 123.299163 180.13074 
L 123.835845 179.314617 
L 124.372528 179.87466 
L 124.909211 179.618139 
L 125.445893 179.632209 
L 125.982576 177.82377 
L 126.519258 166.555705 
L 127.055941 135.542519 
L 127.592624 141.378999 
L 128.129306 169.069741 
L 128.665989 178.978901 
L 129.202671 179.000391 
L 129.739354 180.687273 
L 135.10618 180.687273 
L 135.642863 180.479018 
L 136.179545 180.687273 
L 136.716228 180.687273 
L 137.252911 180.486156 
L 137.789593 180.687273 
L 138.326276 180.490715 
L 138.862959 180.687273 
L 139.399641 180.495119 
L 139.936324 180.687273 
L 140.473006 180.499377 
L 141.009689 180.501453 
L 141.546372 180.687273 
L 142.083054 180.505504 
L 142.619737 180.50748 
L 143.156419 180.687273 
L 143.693102 180.511336 
L 144.229785 179.816996 
L 144.766467 179.998457 
L 145.30315 176.086972 
L 145.839833 85.097978 
L 146.913198 178.376083 
L 147.44988 179.870401 
L 147.986563 180.687273 
L 159.793581 180.687273 
L 160.330263 180.558112 
L 160.866946 180.687273 
L 161.403628 180.560466 
L 162.476994 180.562755 
L 163.013676 180.440482 
L 163.550359 180.687273 
L 164.087041 180.566076 
L 164.623724 180.687273 
L 165.160407 180.568217 
L 165.697089 180.569265 
L 166.233772 180.10241 
L 167.307137 180.342446 
L 168.380502 180.009484 
L 168.917185 178.335372 
L 169.453868 169.805556 
L 169.99055 154.154782 
L 170.527233 152.52399 
L 171.063915 168.889199 
L 171.600598 176.286765 
L 172.137281 171.959902 
L 172.673963 152.08481 
L 173.210646 155.566867 
L 173.747329 170.514551 
L 174.284011 177.392911 
L 174.820694 179.768329 
L 175.357376 180.180916 
L 175.894059 180.385928 
L 176.430742 179.98983 
L 176.967424 179.303633 
L 177.504107 174.608939 
L 178.040789 168.433355 
L 178.577472 168.91691 
L 179.114155 175.518784 
L 179.650837 179.547797 
L 181.260885 180.316316 
L 181.797568 180.503238 
L 182.33425 179.956838 
L 182.870933 180.596673 
L 183.407616 180.687273 
L 183.944298 180.508846 
L 184.480981 180.510208 
L 185.017663 180.335838 
L 185.554346 180.425693 
L 186.091029 180.687273 
L 187.164394 179.749618 
L 187.701077 180.17964 
L 188.237759 180.099437 
L 188.774442 179.270246 
L 189.311124 176.715787 
L 189.847807 162.782751 
L 190.38449 137.966018 
L 190.921172 142.00079 
L 191.457855 169.760264 
L 191.994537 174.625277 
L 192.53122 165.40416 
L 193.067903 163.31278 
L 193.604585 172.1794 
L 194.141268 178.904852 
L 194.677951 180.148658 
L 195.214633 180.305278 
L 195.751316 180.232117 
L 196.287998 180.536622 
L 197.361364 180.612999 
L 197.898046 180.392248 
L 198.434729 180.614029 
L 198.971411 180.614536 
L 199.508094 180.398333 
L 201.118142 180.545751 
L 202.191507 180.61747 
L 202.72819 180.687273 
L 203.264872 180.549543 
L 203.801555 180.687273 
L 204.338238 180.551383 
L 204.87492 180.619781 
L 206.484968 180.356474 
L 207.021651 179.767126 
L 207.558333 176.508476 
L 208.095016 165.119186 
L 208.631699 164.833982 
L 209.168381 176.077409 
L 209.705064 179.287823 
L 210.241746 180.434468 
L 211.315112 180.624881 
L 211.851794 180.439299 
L 212.388477 180.625674 
L 212.925159 180.075196 
L 213.461842 178.376105 
L 213.998525 173.434895 
L 214.535207 165.432935 
L 215.07189 170.780442 
L 215.608573 178.374314 
L 216.145255 180.274712 
L 216.681938 180.335846 
L 217.755303 180.629424 
L 218.291986 180.399807 
L 218.828668 180.40157 
L 219.902033 180.687273 
L 220.975399 180.464227 
L 221.512081 180.576423 
L 222.585447 180.084913 
L 223.122129 179.59863 
L 223.658812 174.410891 
L 224.195494 155.784942 
L 224.732177 157.696995 
L 225.26886 174.362483 
L 225.805542 179.15504 
L 226.342225 180.267072 
L 227.41559 180.635361 
L 227.952273 180.480837 
L 229.025638 180.58525 
L 235.465829 180.592002 
L 236.002512 180.403058 
L 236.539195 180.404642 
L 237.61256 179.662428 
L 238.149242 176.564207 
L 239.222608 148.019053 
L 239.75929 164.966622 
L 240.295973 176.563318 
L 240.832656 179.966137 
L 241.369338 180.373489 
L 241.906021 180.419774 
L 242.979386 179.849314 
L 243.516069 178.274638 
L 244.052751 169.910473 
L 244.589434 165.411396 
L 245.126116 174.385021 
L 245.662799 179.78561 
L 246.199482 180.345603 
L 247.272847 180.645014 
L 248.346212 180.478196 
L 248.882895 180.396096 
L 249.419577 180.521756 
L 249.95626 180.234471 
L 250.492943 180.277773 
L 251.029625 179.872521 
L 251.566308 178.944601 
L 252.10299 171.978501 
L 252.639673 156.620568 
L 253.176356 160.096074 
L 253.713038 168.101956 
L 254.249721 168.166194 
L 254.786404 169.133762 
L 255.323086 176.112796 
L 255.859769 179.286867 
L 256.396451 180.300236 
L 256.933134 180.379202 
L 257.469817 180.572327 
L 258.006499 180.496657 
L 258.543182 180.535543 
L 258.543182 180.535543 
" clip-path="url(#p3b8a486605)" style="fill: none; stroke: #ff0000; stroke-opacity: 0.5; stroke-linecap: square"/>
   </g>
   <g id="patch_3">
    <path d="M 33.7 188.6 
L 33.7 14.52 
" style="fill: none; stroke: #000000; stroke-width: 0.8; stroke-linejoin: miter; stroke-linecap: square"/>
   </g>
   <g id="patch_4">
    <path d="M 269.25 188.6 
L 269.25 14.52 
" style="fill: none; stroke: #000000; stroke-width: 0.8; stroke-linejoin: miter; stroke-linecap: square"/>
   </g>
   <g id="patch_5">
    <path d="M 33.7 188.6 
L 269.25 188.6 
" style="fill: none; stroke: #000000; stroke-width: 0.8; stroke-linejoin: miter; stroke-linecap: square"/>
   </g>
   <g id="patch_6">
    <path d="M 33.7 14.52 
L 269.25 14.52 
" style="fill: none; stroke: #000000; stroke-width: 0.8; stroke-linejoin: miter; stroke-linecap: square"/>
   </g>
   <g id="legend_1">
    <g id="patch_7">
     <path d="M 213.917188 66.554375 
L 262.25 66.554375 
Q 264.25 66.554375 264.25 64.554375 
L 264.25 21.52 
Q 264.25 19.52 262.25 19.52 
L 213.917188 19.52 
Q 211.917188 19.52 211.917188 21.52 
L 211.917188 64.554375 
Q 211.917188 66.554375 213.917188 66.554375 
z
" style="fill: #ffffff; opacity: 0.8; stroke: #cccccc; stroke-linejoin: miter"/>
    </g>
    <g id="line2d_18">
     <path d="M 215.917188 27.618438 
L 225.917188 27.618438 
L 235.917188 27.618438 
" style="fill: none; stroke: #000000; stroke-opacity: 0.5; stroke-width: 0.5; stroke-linecap: square"/>
    </g>
    <g id="text_17">
     <!-- all -->
     <g transform="translate(243.917188 31.118438) scale(0.1 -0.1)">
      <defs>
       <path id="DejaVuSans-61" d="M 2194 1759 
Q 1497 1759 1228 1600 
Q 959 1441 959 1056 
Q 959 750 1161 570 
Q 1363 391 1709 391 
Q 2188 391 2477 730 
Q 2766 1069 2766 1631 
L 2766 1759 
L 2194 1759 
z
M 3341 1997 
L 3341 0 
L 2766 0 
L 2766 531 
Q 2569 213 2275 61 
Q 1981 -91 1556 -91 
Q 1019 -91 701 211 
Q 384 513 384 1019 
Q 384 1609 779 1909 
Q 1175 2209 1959 2209 
L 2766 2209 
L 2766 2266 
Q 2766 2663 2505 2880 
Q 2244 3097 1772 3097 
Q 1472 3097 1187 3025 
Q 903 2953 641 2809 
L 641 3341 
Q 956 3463 1253 3523 
Q 1550 3584 1831 3584 
Q 2591 3584 2966 3190 
Q 3341 2797 3341 1997 
z
" transform="scale(0.015625)"/>
       <path id="DejaVuSans-6c" d="M 603 4863 
L 1178 4863 
L 1178 0 
L 603 0 
L 603 4863 
z
" transform="scale(0.015625)"/>
      </defs>
      <use xlink:href="#DejaVuSans-61"/>
      <use xlink:href="#DejaVuSans-6c" transform="translate(61.279297 0)"/>
      <use xlink:href="#DejaVuSans-6c" transform="translate(89.0625 0)"/>
     </g>
    </g>
    <g id="line2d_19">
     <path d="M 215.917188 42.296563 
L 225.917188 42.296563 
L 235.917188 42.296563 
" style="fill: none; stroke: #0000ff; stroke-opacity: 0.5; stroke-linecap: square"/>
    </g>
    <g id="text_18">
     <!-- 1-1 -->
     <g transform="translate(243.917188 45.796563) scale(0.1 -0.1)">
      <defs>
       <path id="DejaVuSans-2d" d="M 313 2009 
L 1997 2009 
L 1997 1497 
L 313 1497 
L 313 2009 
z
" transform="scale(0.015625)"/>
      </defs>
      <use xlink:href="#DejaVuSans-31"/>
      <use xlink:href="#DejaVuSans-2d" transform="translate(63.623047 0)"/>
      <use xlink:href="#DejaVuSans-31" transform="translate(99.707031 0)"/>
     </g>
    </g>
    <g id="line2d_20">
     <path d="M 215.917188 56.974688 
L 225.917188 56.974688 
L 235.917188 56.974688 
" style="fill: none; stroke: #ff0000; stroke-opacity: 0.5; stroke-linecap: square"/>
    </g>
    <g id="text_19">
     <!-- 2-2 -->
     <g transform="translate(243.917188 60.474688) scale(0.1 -0.1)">
      <use xlink:href="#DejaVuSans-32"/>
      <use xlink:href="#DejaVuSans-2d" transform="translate(63.623047 0)"/>
      <use xlink:href="#DejaVuSans-32" transform="translate(99.707031 0)"/>
     </g>
    </g>
   </g>
  </g>
 </g>
 <defs>
  <clipPath id="p3b8a486605">
   <rect x="33.7" y="14.52" width="235.55" height="174.08"/>
  </clipPath>
 </defs>
</svg>
