<?xml version="1.0" encoding="utf-8" standalone="no"?>
<!DOCTYPE svg PUBLIC "-//W3C//DTD SVG 1.1//EN"
  "http://www.w3.org/Graphics/SVG/1.1/DTD/svg11.dtd">
<svg xmlns:xlink="http://www.w3.org/1999/xlink" width="288pt" height="216pt" viewBox="0 0 288 216" xmlns="http://www.w3.org/2000/svg" version="1.1">
 <metadata>
  <rdf:RDF xmlns:dc="http://purl.org/dc/elements/1.1/" xmlns:cc="http://creativecommons.org/ns#" xmlns:rdf="http://www.w3.org/1999/02/22-rdf-syntax-ns#">
   <cc:Work>
    <dc:type rdf:resource="http://purl.org/dc/dcmitype/StillImage"/>
    <dc:date>2025-09-17T23:12:13.645793</dc:date>
    <dc:format>image/svg+xml</dc:format>
    <dc:creator>
     <cc:Agent>
      <dc:title>Matplotlib v3.10.0, https://matplotlib.org/</dc:title>
     </cc:Agent>
    </dc:creator>
   </cc:Work>
  </rdf:RDF>
 </metadata>
 <defs>
  <style type="text/css">*{stroke-linejoin: round; stroke-linecap: butt}</style>
 </defs>
 <g id="figure_1">
  <g id="patch_1">
   <path d="M 0 216 
L 288 216 
L 288 0 
L 0 0 
z
" style="fill: #ffffff"/>
  </g>
  <g id="axes_1">
   <g id="patch_2">
    <path d="M 33.7 188.6 
L 269.25 188.6 
L 269.25 14.52 
L 33.7 14.52 
z
" style="fill: #ffffff"/>
   </g>
   <g id="matplotlib.axis_1">
    <g id="xtick_1">
     <g id="line2d_1">
      <defs>
       <path id="m5a7c26f4c3" d="M 0 0 
L 0 3.5 
" style="stroke: #000000; stroke-width: 0.8"/>
      </defs>
      <g>
       <use xlink:href="#m5a7c26f4c3" x="44.138477" y="188.6" style="stroke: #000000; stroke-width: 0.8"/>
      </g>
     </g>
     <g id="text_1">
      <!-- 0 -->
      <g transform="translate(40.957227 203.198437) scale(0.1 -0.1)">
       <defs>
        <path id="DejaVuSans-30" d="M 2034 4250 
Q 1547 4250 1301 3770 
Q 1056 3291 1056 2328 
Q 1056 1369 1301 889 
Q 1547 409 2034 409 
Q 2525 409 2770 889 
Q 3016 1369 3016 2328 
Q 3016 3291 2770 3770 
Q 2525 4250 2034 4250 
z
M 2034 4750 
Q 2819 4750 3233 4129 
Q 3647 3509 3647 2328 
Q 3647 1150 3233 529 
Q 2819 -91 2034 -91 
Q 1250 -91 836 529 
Q 422 1150 422 2328 
Q 422 3509 836 4129 
Q 1250 4750 2034 4750 
z
" transform="scale(0.015625)"/>
       </defs>
       <use xlink:href="#DejaVuSans-30"/>
      </g>
     </g>
    </g>
    <g id="xtick_2">
     <g id="line2d_2">
      <g>
       <use xlink:href="#m5a7c26f4c3" x="87.073086" y="188.6" style="stroke: #000000; stroke-width: 0.8"/>
      </g>
     </g>
     <g id="text_2">
      <!-- 200 -->
      <g transform="translate(77.529336 203.198437) scale(0.1 -0.1)">
       <defs>
        <path id="DejaVuSans-32" d="M 1228 531 
L 3431 531 
L 3431 0 
L 469 0 
L 469 531 
Q 828 903 1448 1529 
Q 2069 2156 2228 2338 
Q 2531 2678 2651 2914 
Q 2772 3150 2772 3378 
Q 2772 3750 2511 3984 
Q 2250 4219 1831 4219 
Q 1534 4219 1204 4116 
Q 875 4013 500 3803 
L 500 4441 
Q 881 4594 1212 4672 
Q 1544 4750 1819 4750 
Q 2544 4750 2975 4387 
Q 3406 4025 3406 3419 
Q 3406 3131 3298 2873 
Q 3191 2616 2906 2266 
Q 2828 2175 2409 1742 
Q 1991 1309 1228 531 
z
" transform="scale(0.015625)"/>
       </defs>
       <use xlink:href="#DejaVuSans-32"/>
       <use xlink:href="#DejaVuSans-30" transform="translate(63.623047 0)"/>
       <use xlink:href="#DejaVuSans-30" transform="translate(127.246094 0)"/>
      </g>
     </g>
    </g>
    <g id="xtick_3">
     <g id="line2d_3">
      <g>
       <use xlink:href="#m5a7c26f4c3" x="130.007695" y="188.6" style="stroke: #000000; stroke-width: 0.8"/>
      </g>
     </g>
     <g id="text_3">
      <!-- 400 -->
      <g transform="translate(120.463945 203.198437) scale(0.1 -0.1)">
       <defs>
        <path id="DejaVuSans-34" d="M 2419 4116 
L 825 1625 
L 2419 1625 
L 2419 4116 
z
M 2253 4666 
L 3047 4666 
L 3047 1625 
L 3713 1625 
L 3713 1100 
L 3047 1100 
L 3047 0 
L 2419 0 
L 2419 1100 
L 313 1100 
L 313 1709 
L 2253 4666 
z
" transform="scale(0.015625)"/>
       </defs>
       <use xlink:href="#DejaVuSans-34"/>
       <use xlink:href="#DejaVuSans-30" transform="translate(63.623047 0)"/>
       <use xlink:href="#DejaVuSans-30" transform="translate(127.246094 0)"/>
      </g>
     </g>
    </g>
    <g id="xtick_4">
     <g id="line2d_4">
      <g>
       <use xlink:href="#m5a7c26f4c3" x="172.942305" y="188.6" style="stroke: #000000; stroke-width: 0.8"/>
      </g>
     </g>
     <g id="text_4">
      <!-- 600 -->
      <g transform="translate(163.398555 203.198437) scale(0.1 -0.1)">
       <defs>
        <path id="DejaVuSans-36" d="M 2113 2584 
Q 1688 2584 1439 2293 
Q 1191 2003 1191 1497 
Q 1191 994 1439 701 
Q 1688 409 2113 409 
Q 2538 409 2786 701 
Q 3034 994 3034 1497 
Q 3034 2003 2786 2293 
Q 2538 2584 2113 2584 
z
M 3366 4563 
L 3366 3988 
Q 3128 4100 2886 4159 
Q 2644 4219 2406 4219 
Q 1781 4219 1451 3797 
Q 1122 3375 1075 2522 
Q 1259 2794 1537 2939 
Q 1816 3084 2150 3084 
Q 2853 3084 3261 2657 
Q 3669 2231 3669 1497 
Q 3669 778 3244 343 
Q 2819 -91 2113 -91 
Q 1303 -91 875 529 
Q 447 1150 447 2328 
Q 447 3434 972 4092 
Q 1497 4750 2381 4750 
Q 2619 4750 2861 4703 
Q 3103 4656 3366 4563 
z
" transform="scale(0.015625)"/>
       </defs>
       <use xlink:href="#DejaVuSans-36"/>
       <use xlink:href="#DejaVuSans-30" transform="translate(63.623047 0)"/>
       <use xlink:href="#DejaVuSans-30" transform="translate(127.246094 0)"/>
      </g>
     </g>
    </g>
    <g id="xtick_5">
     <g id="line2d_5">
      <g>
       <use xlink:href="#m5a7c26f4c3" x="215.876914" y="188.6" style="stroke: #000000; stroke-width: 0.8"/>
      </g>
     </g>
     <g id="text_5">
      <!-- 800 -->
      <g transform="translate(206.333164 203.198437) scale(0.1 -0.1)">
       <defs>
        <path id="DejaVuSans-38" d="M 2034 2216 
Q 1584 2216 1326 1975 
Q 1069 1734 1069 1313 
Q 1069 891 1326 650 
Q 1584 409 2034 409 
Q 2484 409 2743 651 
Q 3003 894 3003 1313 
Q 3003 1734 2745 1975 
Q 2488 2216 2034 2216 
z
M 1403 2484 
Q 997 2584 770 2862 
Q 544 3141 544 3541 
Q 544 4100 942 4425 
Q 1341 4750 2034 4750 
Q 2731 4750 3128 4425 
Q 3525 4100 3525 3541 
Q 3525 3141 3298 2862 
Q 3072 2584 2669 2484 
Q 3125 2378 3379 2068 
Q 3634 1759 3634 1313 
Q 3634 634 3220 271 
Q 2806 -91 2034 -91 
Q 1263 -91 848 271 
Q 434 634 434 1313 
Q 434 1759 690 2068 
Q 947 2378 1403 2484 
z
M 1172 3481 
Q 1172 3119 1398 2916 
Q 1625 2713 2034 2713 
Q 2441 2713 2670 2916 
Q 2900 3119 2900 3481 
Q 2900 3844 2670 4047 
Q 2441 4250 2034 4250 
Q 1625 4250 1398 4047 
Q 1172 3844 1172 3481 
z
" transform="scale(0.015625)"/>
       </defs>
       <use xlink:href="#DejaVuSans-38"/>
       <use xlink:href="#DejaVuSans-30" transform="translate(63.623047 0)"/>
       <use xlink:href="#DejaVuSans-30" transform="translate(127.246094 0)"/>
      </g>
     </g>
    </g>
    <g id="xtick_6">
     <g id="line2d_6">
      <g>
       <use xlink:href="#m5a7c26f4c3" x="258.811523" y="188.6" style="stroke: #000000; stroke-width: 0.8"/>
      </g>
     </g>
     <g id="text_6">
      <!-- 1000 -->
      <g transform="translate(246.086523 203.198437) scale(0.1 -0.1)">
       <defs>
        <path id="DejaVuSans-31" d="M 794 531 
L 1825 531 
L 1825 4091 
L 703 3866 
L 703 4441 
L 1819 4666 
L 2450 4666 
L 2450 531 
L 3481 531 
L 3481 0 
L 794 0 
L 794 531 
z
" transform="scale(0.015625)"/>
       </defs>
       <use xlink:href="#DejaVuSans-31"/>
       <use xlink:href="#DejaVuSans-30" transform="translate(63.623047 0)"/>
       <use xlink:href="#DejaVuSans-30" transform="translate(127.246094 0)"/>
       <use xlink:href="#DejaVuSans-30" transform="translate(190.869141 0)"/>
      </g>
     </g>
    </g>
    <g id="text_7">
     <!-- q (nm) -->
     <g transform="translate(134.771094 216.876563) scale(0.1 -0.1)">
      <defs>
       <path id="DejaVuSans-71" d="M 947 1747 
Q 947 1113 1208 752 
Q 1469 391 1925 391 
Q 2381 391 2643 752 
Q 2906 1113 2906 1747 
Q 2906 2381 2643 2742 
Q 2381 3103 1925 3103 
Q 1469 3103 1208 2742 
Q 947 2381 947 1747 
z
M 2906 525 
Q 2725 213 2448 61 
Q 2172 -91 1784 -91 
Q 1150 -91 751 415 
Q 353 922 353 1747 
Q 353 2572 751 3078 
Q 1150 3584 1784 3584 
Q 2172 3584 2448 3432 
Q 2725 3281 2906 2969 
L 2906 3500 
L 3481 3500 
L 3481 -1331 
L 2906 -1331 
L 2906 525 
z
" transform="scale(0.015625)"/>
       <path id="DejaVuSans-20" transform="scale(0.015625)"/>
       <path id="DejaVuSans-28" d="M 1984 4856 
Q 1566 4138 1362 3434 
Q 1159 2731 1159 2009 
Q 1159 1288 1364 580 
Q 1569 -128 1984 -844 
L 1484 -844 
Q 1016 -109 783 600 
Q 550 1309 550 2009 
Q 550 2706 781 3412 
Q 1013 4119 1484 4856 
L 1984 4856 
z
" transform="scale(0.015625)"/>
       <path id="DejaVuSans-6e" d="M 3513 2113 
L 3513 0 
L 2938 0 
L 2938 2094 
Q 2938 2591 2744 2837 
Q 2550 3084 2163 3084 
Q 1697 3084 1428 2787 
Q 1159 2491 1159 1978 
L 1159 0 
L 581 0 
L 581 3500 
L 1159 3500 
L 1159 2956 
Q 1366 3272 1645 3428 
Q 1925 3584 2291 3584 
Q 2894 3584 3203 3211 
Q 3513 2838 3513 2113 
z
" transform="scale(0.015625)"/>
       <path id="DejaVuSans-6d" d="M 3328 2828 
Q 3544 3216 3844 3400 
Q 4144 3584 4550 3584 
Q 5097 3584 5394 3201 
Q 5691 2819 5691 2113 
L 5691 0 
L 5113 0 
L 5113 2094 
Q 5113 2597 4934 2840 
Q 4756 3084 4391 3084 
Q 3944 3084 3684 2787 
Q 3425 2491 3425 1978 
L 3425 0 
L 2847 0 
L 2847 2094 
Q 2847 2600 2669 2842 
Q 2491 3084 2119 3084 
Q 1678 3084 1418 2786 
Q 1159 2488 1159 1978 
L 1159 0 
L 581 0 
L 581 3500 
L 1159 3500 
L 1159 2956 
Q 1356 3278 1631 3431 
Q 1906 3584 2284 3584 
Q 2666 3584 2933 3390 
Q 3200 3197 3328 2828 
z
" transform="scale(0.015625)"/>
       <path id="DejaVuSans-29" d="M 513 4856 
L 1013 4856 
Q 1481 4119 1714 3412 
Q 1947 2706 1947 2009 
Q 1947 1309 1714 600 
Q 1481 -109 1013 -844 
L 513 -844 
Q 928 -128 1133 580 
Q 1338 1288 1338 2009 
Q 1338 2731 1133 3434 
Q 928 4138 513 4856 
z
" transform="scale(0.015625)"/>
      </defs>
      <use xlink:href="#DejaVuSans-71"/>
      <use xlink:href="#DejaVuSans-20" transform="translate(63.476562 0)"/>
      <use xlink:href="#DejaVuSans-28" transform="translate(95.263672 0)"/>
      <use xlink:href="#DejaVuSans-6e" transform="translate(134.277344 0)"/>
      <use xlink:href="#DejaVuSans-6d" transform="translate(197.65625 0)"/>
      <use xlink:href="#DejaVuSans-29" transform="translate(295.068359 0)"/>
     </g>
    </g>
   </g>
   <g id="matplotlib.axis_2">
    <g id="ytick_1">
     <g id="line2d_7">
      <defs>
       <path id="mc5836066a8" d="M 0 0 
L -3.5 0 
" style="stroke: #000000; stroke-width: 0.8"/>
      </defs>
      <g>
       <use xlink:href="#mc5836066a8" x="33.7" y="180.687273" style="stroke: #000000; stroke-width: 0.8"/>
      </g>
     </g>
     <g id="text_8">
      <!-- 0 -->
      <g transform="translate(20.3375 184.486491) scale(0.1 -0.1)">
       <use xlink:href="#DejaVuSans-30"/>
      </g>
     </g>
    </g>
    <g id="ytick_2">
     <g id="line2d_8">
      <g>
       <use xlink:href="#mc5836066a8" x="33.7" y="144.867046" style="stroke: #000000; stroke-width: 0.8"/>
      </g>
     </g>
     <g id="text_9">
      <!-- 20000 -->
      <g transform="translate(-5.1125 148.666265) scale(0.1 -0.1)">
       <use xlink:href="#DejaVuSans-32"/>
       <use xlink:href="#DejaVuSans-30" transform="translate(63.623047 0)"/>
       <use xlink:href="#DejaVuSans-30" transform="translate(127.246094 0)"/>
       <use xlink:href="#DejaVuSans-30" transform="translate(190.869141 0)"/>
       <use xlink:href="#DejaVuSans-30" transform="translate(254.492188 0)"/>
      </g>
     </g>
    </g>
    <g id="ytick_3">
     <g id="line2d_9">
      <g>
       <use xlink:href="#mc5836066a8" x="33.7" y="109.046819" style="stroke: #000000; stroke-width: 0.8"/>
      </g>
     </g>
     <g id="text_10">
      <!-- 40000 -->
      <g transform="translate(-5.1125 112.846038) scale(0.1 -0.1)">
       <use xlink:href="#DejaVuSans-34"/>
       <use xlink:href="#DejaVuSans-30" transform="translate(63.623047 0)"/>
       <use xlink:href="#DejaVuSans-30" transform="translate(127.246094 0)"/>
       <use xlink:href="#DejaVuSans-30" transform="translate(190.869141 0)"/>
       <use xlink:href="#DejaVuSans-30" transform="translate(254.492188 0)"/>
      </g>
     </g>
    </g>
    <g id="ytick_4">
     <g id="line2d_10">
      <g>
       <use xlink:href="#mc5836066a8" x="33.7" y="73.226592" style="stroke: #000000; stroke-width: 0.8"/>
      </g>
     </g>
     <g id="text_11">
      <!-- 60000 -->
      <g transform="translate(-5.1125 77.025811) scale(0.1 -0.1)">
       <use xlink:href="#DejaVuSans-36"/>
       <use xlink:href="#DejaVuSans-30" transform="translate(63.623047 0)"/>
       <use xlink:href="#DejaVuSans-30" transform="translate(127.246094 0)"/>
       <use xlink:href="#DejaVuSans-30" transform="translate(190.869141 0)"/>
       <use xlink:href="#DejaVuSans-30" transform="translate(254.492188 0)"/>
      </g>
     </g>
    </g>
    <g id="ytick_5">
     <g id="line2d_11">
      <g>
       <use xlink:href="#mc5836066a8" x="33.7" y="37.406366" style="stroke: #000000; stroke-width: 0.8"/>
      </g>
     </g>
     <g id="text_12">
      <!-- 80000 -->
      <g transform="translate(-5.1125 41.205584) scale(0.1 -0.1)">
       <use xlink:href="#DejaVuSans-38"/>
       <use xlink:href="#DejaVuSans-30" transform="translate(63.623047 0)"/>
       <use xlink:href="#DejaVuSans-30" transform="translate(127.246094 0)"/>
       <use xlink:href="#DejaVuSans-30" transform="translate(190.869141 0)"/>
       <use xlink:href="#DejaVuSans-30" transform="translate(254.492188 0)"/>
      </g>
     </g>
    </g>
    <g id="text_13">
     <!-- rdf -->
     <g transform="translate(-11.192187 108.462344) rotate(-90) scale(0.1 -0.1)">
      <defs>
       <path id="DejaVuSans-72" d="M 2631 2963 
Q 2534 3019 2420 3045 
Q 2306 3072 2169 3072 
Q 1681 3072 1420 2755 
Q 1159 2438 1159 1844 
L 1159 0 
L 581 0 
L 581 3500 
L 1159 3500 
L 1159 2956 
Q 1341 3275 1631 3429 
Q 1922 3584 2338 3584 
Q 2397 3584 2469 3576 
Q 2541 3569 2628 3553 
L 2631 2963 
z
" transform="scale(0.015625)"/>
       <path id="DejaVuSans-64" d="M 2906 2969 
L 2906 4863 
L 3481 4863 
L 3481 0 
L 2906 0 
L 2906 525 
Q 2725 213 2448 61 
Q 2172 -91 1784 -91 
Q 1150 -91 751 415 
Q 353 922 353 1747 
Q 353 2572 751 3078 
Q 1150 3584 1784 3584 
Q 2172 3584 2448 3432 
Q 2725 3281 2906 2969 
z
M 947 1747 
Q 947 1113 1208 752 
Q 1469 391 1925 391 
Q 2381 391 2643 752 
Q 2906 1113 2906 1747 
Q 2906 2381 2643 2742 
Q 2381 3103 1925 3103 
Q 1469 3103 1208 2742 
Q 947 2381 947 1747 
z
" transform="scale(0.015625)"/>
       <path id="DejaVuSans-66" d="M 2375 4863 
L 2375 4384 
L 1825 4384 
Q 1516 4384 1395 4259 
Q 1275 4134 1275 3809 
L 1275 3500 
L 2222 3500 
L 2222 3053 
L 1275 3053 
L 1275 0 
L 697 0 
L 697 3053 
L 147 3053 
L 147 3500 
L 697 3500 
L 697 3744 
Q 697 4328 969 4595 
Q 1241 4863 1831 4863 
L 2375 4863 
z
" transform="scale(0.015625)"/>
      </defs>
      <use xlink:href="#DejaVuSans-72"/>
      <use xlink:href="#DejaVuSans-64" transform="translate(39.363281 0)"/>
      <use xlink:href="#DejaVuSans-66" transform="translate(102.839844 0)"/>
     </g>
    </g>
   </g>
   <g id="line2d_12">
    <path d="M 44.406818 180.687273 
L 94.854984 180.687273 
L 95.391667 142.416918 
L 95.928349 22.432727 
L 96.465032 175.429111 
L 97.001715 180.154314 
L 97.538397 180.426123 
L 98.07508 179.407378 
L 98.611762 175.919037 
L 99.148445 173.55075 
L 99.685128 170.309008 
L 100.22181 171.690483 
L 101.295175 179.395565 
L 101.831858 179.643212 
L 102.905223 180.615396 
L 103.441906 180.334364 
L 103.978589 180.479309 
L 105.051954 180.419674 
L 105.588636 180.095648 
L 106.125319 180.558067 
L 106.662002 180.433278 
L 107.198684 180.187893 
L 107.735367 177.864098 
L 108.272049 176.46274 
L 108.808732 174.692629 
L 109.882097 178.906924 
L 110.41878 180.065725 
L 110.955463 180.464871 
L 111.492145 180.413684 
L 112.028828 180.040998 
L 112.56551 178.195585 
L 113.102193 173.745638 
L 113.638876 166.914801 
L 114.175558 167.580534 
L 115.248923 177.643751 
L 115.785606 179.13987 
L 116.322289 178.400549 
L 116.858971 173.505532 
L 117.395654 169.863786 
L 117.932337 167.695848 
L 118.469019 174.037935 
L 119.005702 177.542956 
L 119.542384 179.901428 
L 120.61575 180.517508 
L 122.225797 180.605855 
L 122.76248 180.325876 
L 123.835845 180.530949 
L 124.372528 180.340234 
L 124.909211 180.535076 
L 125.445893 180.311789 
L 125.982576 179.946121 
L 126.519258 179.077914 
L 127.055941 176.679689 
L 127.592624 175.162831 
L 128.129306 175.303585 
L 128.665989 176.031824 
L 129.739354 171.743936 
L 130.812719 178.308216 
L 131.349402 180.197718 
L 131.886085 180.397122 
L 132.95945 180.561414 
L 133.496132 180.376395 
L 134.032815 180.625838 
L 135.10618 180.567285 
L 135.642863 180.242581 
L 136.179545 178.841283 
L 136.716228 173.938962 
L 137.252911 170.924482 
L 138.326276 178.224949 
L 138.862959 174.684005 
L 139.399641 165.916132 
L 139.936324 164.918044 
L 140.473006 172.689671 
L 141.009689 177.75107 
L 141.546372 179.640811 
L 142.083054 180.118007 
L 142.619737 179.893846 
L 143.156419 179.421386 
L 143.693102 177.781996 
L 144.229785 174.46809 
L 144.766467 174.436187 
L 145.30315 176.1274 
L 145.839833 174.183462 
L 146.376515 161.831367 
L 146.913198 172.133035 
L 147.44988 179.129045 
L 147.986563 177.741049 
L 148.523246 172.303742 
L 149.059928 169.345196 
L 149.596611 171.335228 
L 150.133293 176.732366 
L 150.669976 179.418672 
L 151.206659 180.275853 
L 151.743341 180.129879 
L 152.280024 179.031646 
L 153.353389 175.713483 
L 153.890072 176.194778 
L 154.426754 178.707726 
L 154.963437 179.798007 
L 155.50012 180.186869 
L 156.036802 180.171832 
L 156.573485 178.821872 
L 157.110167 176.797336 
L 157.64685 176.429425 
L 158.183533 177.27101 
L 158.720215 179.363789 
L 159.256898 180.162804 
L 159.793581 180.464581 
L 160.330263 180.42986 
L 160.866946 180.559747 
L 162.476994 180.580919 
L 163.550359 180.252064 
L 164.087041 179.427811 
L 164.623724 177.027965 
L 165.160407 173.704606 
L 165.697089 172.438991 
L 166.233772 175.675139 
L 166.770455 177.897744 
L 167.84382 177.086223 
L 168.380502 177.438894 
L 168.917185 178.933535 
L 169.453868 178.980139 
L 169.99055 176.878898 
L 170.527233 174.020844 
L 171.063915 173.553193 
L 171.600598 175.996659 
L 172.137281 175.793493 
L 172.673963 172.3185 
L 173.210646 169.959235 
L 173.747329 172.648638 
L 174.284011 176.920869 
L 174.820694 179.146549 
L 175.357376 179.461872 
L 176.430742 176.73008 
L 177.504107 177.923958 
L 178.040789 177.696864 
L 178.577472 177.102654 
L 179.114155 177.78511 
L 179.650837 176.794232 
L 180.18752 177.200398 
L 180.724203 178.930903 
L 181.260885 179.987572 
L 181.797568 180.42529 
L 182.870933 180.5583 
L 183.944298 180.509474 
L 184.480981 180.473021 
L 185.017663 180.199495 
L 185.554346 178.813005 
L 186.091029 176.264841 
L 186.627711 174.46417 
L 187.701077 179.061332 
L 188.237759 180.005868 
L 188.774442 179.251496 
L 189.847807 172.67844 
L 190.38449 172.99245 
L 190.921172 174.673123 
L 191.457855 175.872045 
L 191.994537 177.85996 
L 192.53122 178.117103 
L 193.067903 176.423273 
L 193.604585 176.38718 
L 194.677951 179.405715 
L 195.214633 179.773708 
L 195.751316 177.415194 
L 196.287998 176.365941 
L 196.824681 178.099889 
L 197.361364 177.885371 
L 197.898046 177.390417 
L 198.434729 175.72423 
L 198.971411 174.702408 
L 199.508094 175.370963 
L 200.044777 178.246528 
L 200.581459 179.936735 
L 201.118142 180.314566 
L 201.654825 180.347114 
L 202.191507 179.842643 
L 202.72819 178.515948 
L 203.264872 177.814929 
L 203.801555 177.688141 
L 204.338238 178.075749 
L 204.87492 178.064336 
L 205.411603 178.530331 
L 205.948285 178.686825 
L 206.484968 178.200877 
L 207.021651 177.23482 
L 207.558333 175.798168 
L 208.095016 175.645433 
L 208.631699 176.696601 
L 209.168381 177.433433 
L 209.705064 177.463554 
L 210.241746 175.576981 
L 210.778429 175.064552 
L 211.315112 177.67633 
L 211.851794 178.913434 
L 212.388477 178.538906 
L 212.925159 176.609489 
L 213.461842 175.319279 
L 214.535207 177.686458 
L 215.608573 178.222036 
L 216.145255 178.354851 
L 216.681938 179.344874 
L 217.21862 179.742638 
L 217.755303 179.46024 
L 218.828668 177.254625 
L 219.365351 177.429239 
L 219.902033 177.907105 
L 220.438716 177.979905 
L 221.512081 177.184111 
L 222.048764 178.726671 
L 222.585447 179.627105 
L 223.122129 179.555965 
L 223.658812 178.94654 
L 224.732177 175.161605 
L 225.26886 175.171592 
L 225.805542 177.731359 
L 226.342225 179.670373 
L 226.878907 180.352773 
L 227.41559 180.524696 
L 228.488955 179.759654 
L 229.025638 179.227666 
L 229.562321 179.539333 
L 230.099003 179.718219 
L 230.635686 179.302714 
L 231.172368 178.381087 
L 231.709051 178.11203 
L 232.245734 179.045713 
L 232.782416 179.717691 
L 233.855781 178.363096 
L 234.392464 178.561355 
L 235.465829 180.076973 
L 236.002512 180.390571 
L 236.539195 180.378813 
L 237.075877 179.800374 
L 239.222608 175.280192 
L 239.75929 174.466528 
L 240.295973 174.668242 
L 241.369338 175.461043 
L 241.906021 177.818595 
L 242.442703 179.216505 
L 242.979386 179.29977 
L 243.516069 178.851375 
L 244.589434 176.671685 
L 245.126116 176.348969 
L 245.662799 177.796204 
L 246.199482 178.905895 
L 246.736164 179.532172 
L 247.272847 179.634527 
L 247.80953 178.892055 
L 248.346212 178.645527 
L 248.882895 178.845691 
L 249.419577 178.843533 
L 249.95626 177.640143 
L 250.492943 176.76407 
L 251.566308 179.025728 
L 252.10299 179.441797 
L 252.639673 178.568855 
L 253.176356 177.432213 
L 253.713038 176.612414 
L 254.249721 176.543248 
L 254.786404 175.439901 
L 255.323086 176.089918 
L 255.859769 177.641577 
L 256.396451 178.240985 
L 256.933134 178.297157 
L 257.469817 177.84554 
L 258.006499 177.593867 
L 258.543182 177.490545 
L 258.543182 177.490545 
" clip-path="url(#p4e4c04c9e4)" style="fill: none; stroke: #000000; stroke-opacity: 0.5; stroke-width: 0.5; stroke-linecap: square"/>
   </g>
   <g id="line2d_13">
    <path d="M 44.406818 180.687273 
L 94.854984 180.687273 
L 95.391667 180.397883 
L 95.928349 180.687273 
L 96.465032 180.687273 
L 97.001715 179.871179 
L 97.538397 179.887501 
L 98.07508 176.767595 
L 98.611762 166.084549 
L 99.148445 158.83167 
L 99.685128 148.903832 
L 100.22181 153.134603 
L 101.295175 176.731418 
L 101.831858 177.489836 
L 102.905223 180.467151 
L 103.441906 179.606491 
L 103.978589 180.262681 
L 104.515271 179.853118 
L 105.051954 179.867751 
L 105.588636 179.278054 
L 106.125319 180.29158 
L 106.662002 180.103879 
L 107.198684 179.349091 
L 107.735367 172.417211 
L 108.272049 168.119286 
L 108.808732 162.510442 
L 109.882097 175.938479 
L 110.41878 178.956827 
L 110.955463 180.176444 
L 111.492145 180.184553 
L 112.028828 180.522338 
L 112.56551 180.200201 
L 113.102193 180.367592 
L 113.638876 179.900366 
L 114.175558 180.377316 
L 114.712241 180.382013 
L 115.785606 178.910177 
L 116.322289 174.121873 
L 117.395654 147.823649 
L 117.932337 141.599031 
L 118.469019 161.149224 
L 119.005702 171.193429 
L 119.542384 178.949137 
L 120.61575 180.42732 
L 122.225797 180.43793 
L 122.76248 180.195372 
L 123.835845 180.447902 
L 124.372528 180.333004 
L 124.909211 180.687273 
L 125.445893 180.457289 
L 125.982576 180.460295 
L 126.519258 180.351228 
L 127.055941 180.576703 
L 132.95945 180.590912 
L 133.496132 180.211242 
L 134.032815 180.687273 
L 134.569498 180.501354 
L 135.10618 180.595407 
L 135.642863 179.870151 
L 136.179545 175.572341 
L 136.716228 160.464059 
L 137.252911 151.314795 
L 138.326276 175.460081 
L 138.862959 170.689894 
L 139.399641 153.377757 
L 139.936324 152.605938 
L 140.473006 171.43085 
L 141.009689 178.58101 
L 141.546372 180.126435 
L 142.083054 180.528784 
L 142.619737 180.373741 
L 144.229785 180.611391 
L 144.766467 180.311901 
L 145.30315 180.167314 
L 145.839833 179.584805 
L 146.376515 165.705256 
L 146.913198 165.28553 
L 147.44988 179.262773 
L 147.986563 180.616782 
L 149.059928 180.687273 
L 149.596611 180.618918 
L 150.133293 180.687273 
L 150.669976 180.620288 
L 151.743341 180.687273 
L 152.280024 180.622268 
L 152.816707 180.687273 
L 153.353389 180.62354 
L 154.426754 180.687273 
L 154.963437 180.501588 
L 156.573485 180.627138 
L 159.256898 180.687273 
L 159.793581 180.516775 
L 163.013676 180.579681 
L 163.550359 180.687273 
L 164.087041 180.423088 
L 164.623724 180.477803 
L 165.697089 180.275699 
L 166.233772 179.565371 
L 166.770455 177.40153 
L 167.307137 172.769833 
L 167.84382 169.907438 
L 168.380502 170.886855 
L 168.917185 176.244137 
L 169.453868 178.266858 
L 169.99055 175.983616 
L 170.527233 171.4073 
L 171.063915 168.040843 
L 171.600598 171.562919 
L 172.137281 169.319269 
L 172.673963 161.591784 
L 173.210646 158.145352 
L 173.747329 164.938786 
L 174.284011 173.685719 
L 174.820694 178.239012 
L 175.357376 179.892565 
L 176.430742 179.948845 
L 176.967424 178.963804 
L 177.504107 177.054315 
L 178.040789 175.599424 
L 178.577472 175.89233 
L 179.114155 178.85128 
L 179.650837 179.900723 
L 180.18752 180.522987 
L 180.724203 180.157534 
L 181.260885 180.444688 
L 181.797568 180.526808 
L 182.33425 180.448442 
L 183.944298 180.570592 
L 184.480981 180.301305 
L 185.017663 179.576484 
L 186.091029 173.821107 
L 186.627711 172.2627 
L 187.701077 178.511071 
L 188.237759 179.88184 
L 189.311124 180.470846 
L 189.847807 180.544049 
L 190.921172 180.440284 
L 191.457855 179.916665 
L 191.994537 179.157231 
L 193.067903 173.969513 
L 193.604585 173.473227 
L 194.677951 178.741659 
L 195.214633 179.721369 
L 195.751316 180.058909 
L 196.287998 178.716938 
L 196.824681 175.56774 
L 197.361364 173.207384 
L 197.898046 173.516741 
L 198.434729 172.608642 
L 199.508094 175.617112 
L 200.044777 178.372905 
L 200.581459 179.879684 
L 201.118142 180.193688 
L 201.654825 179.98257 
L 202.191507 178.313613 
L 202.72819 174.430528 
L 203.264872 172.551211 
L 203.801555 173.023298 
L 204.338238 176.836484 
L 204.87492 178.74529 
L 205.411603 179.255077 
L 206.484968 175.812784 
L 207.021651 175.81618 
L 207.558333 177.24294 
L 208.095016 179.442972 
L 208.631699 180.153463 
L 209.168381 179.654497 
L 210.241746 176.140979 
L 210.778429 175.348928 
L 211.851794 179.984576 
L 212.925159 180.553852 
L 216.145255 180.507412 
L 216.681938 180.687273 
L 217.21862 180.611143 
L 217.755303 180.662053 
L 218.291986 180.461689 
L 218.828668 179.765562 
L 219.902033 175.88877 
L 220.438716 174.988523 
L 220.975399 175.071706 
L 221.512081 175.371381 
L 222.048764 177.901257 
L 222.585447 179.517483 
L 223.122129 180.212666 
L 223.658812 180.003207 
L 224.195494 178.412808 
L 224.732177 175.582594 
L 225.26886 173.457873 
L 225.805542 175.988272 
L 226.342225 179.061449 
L 226.878907 180.118158 
L 227.41559 180.48359 
L 227.952273 180.552276 
L 229.562321 180.333505 
L 230.099003 179.544148 
L 230.635686 177.474329 
L 231.172368 173.972281 
L 231.709051 173.167916 
L 232.782416 179.234644 
L 233.319099 180.262451 
L 233.855781 180.497183 
L 236.002512 180.315553 
L 236.539195 180.194408 
L 237.075877 178.767603 
L 238.149242 174.486909 
L 238.685925 177.172359 
L 239.222608 178.210386 
L 240.832656 172.925824 
L 241.369338 172.518496 
L 241.906021 176.91658 
L 242.442703 179.334071 
L 242.979386 179.745136 
L 243.516069 178.908746 
L 244.589434 174.103251 
L 245.126116 175.399196 
L 245.662799 178.347447 
L 246.199482 179.458396 
L 246.736164 180.187208 
L 247.272847 180.466196 
L 248.346212 180.286216 
L 248.882895 179.671738 
L 249.419577 178.41426 
L 249.95626 176.164922 
L 250.492943 174.849468 
L 251.566308 179.044117 
L 252.10299 180.195109 
L 253.176356 180.356725 
L 253.713038 179.839168 
L 254.249721 178.259265 
L 254.786404 175.924499 
L 255.323086 175.710051 
L 255.859769 177.227639 
L 256.396451 178.223767 
L 256.933134 178.907705 
L 257.469817 176.878751 
L 258.006499 174.221987 
L 258.543182 173.295177 
L 258.543182 173.295177 
" clip-path="url(#p4e4c04c9e4)" style="fill: none; stroke: #0000ff; stroke-opacity: 0.5; stroke-linecap: square"/>
   </g>
   <g id="line2d_14">
    <path d="M 44.406818 180.687273 
L 103.441906 180.687273 
L 103.978589 180.309858 
L 104.515271 180.687273 
L 105.051954 180.687273 
L 105.588636 179.971479 
L 106.125319 180.687273 
L 106.662002 180.341558 
L 107.198684 180.347417 
L 107.735367 180.018985 
L 108.272049 180.030123 
L 108.808732 180.364129 
L 109.345415 180.369427 
L 109.882097 179.436562 
L 110.41878 180.379638 
L 111.492145 180.389365 
L 112.028828 177.461884 
L 112.56551 167.987322 
L 113.102193 143.462249 
L 113.638876 107.10276 
L 114.175558 109.879402 
L 115.248923 165.987824 
L 115.785606 175.421804 
L 116.322289 179.909151 
L 116.858971 178.387238 
L 117.395654 180.183616 
L 117.932337 179.446376 
L 118.469019 179.464234 
L 119.005702 180.446159 
L 119.542384 179.736498 
L 121.152432 180.459413 
L 121.689115 180.462556 
L 122.225797 180.687273 
L 122.76248 179.59416 
L 123.299163 180.471604 
L 123.835845 180.474499 
L 124.372528 179.637589 
L 124.909211 180.27296 
L 125.982576 177.660902 
L 126.519258 172.721762 
L 127.055941 159.851044 
L 127.592624 152.938336 
L 128.129306 159.230717 
L 128.665989 174.256114 
L 129.202671 179.566639 
L 129.739354 180.502835 
L 130.276037 180.32298 
L 130.812719 180.687273 
L 132.422767 180.687273 
L 132.95945 180.515965 
L 133.496132 180.687273 
L 134.569498 180.687273 
L 135.10618 180.523956 
L 135.642863 180.687273 
L 136.179545 180.687273 
L 137.252911 180.375525 
L 137.789593 180.687273 
L 138.326276 180.687273 
L 139.399641 180.389418 
L 140.473006 180.687273 
L 141.546372 180.687273 
L 142.083054 180.546394 
L 142.619737 180.687273 
L 143.156419 180.687273 
L 143.693102 180.278196 
L 144.229785 180.282572 
L 144.766467 179.88648 
L 145.30315 179.762901 
L 145.839833 155.730667 
L 146.376515 109.833829 
L 146.913198 164.821719 
L 147.44988 178.914563 
L 147.986563 180.687273 
L 149.596611 180.687273 
L 150.133293 180.566981 
L 150.669976 180.687273 
L 161.940311 180.687273 
L 162.476994 180.49426 
L 163.013676 180.495999 
L 163.550359 180.687273 
L 164.623724 180.40798 
L 165.160407 180.594999 
L 165.697089 180.504351 
L 166.233772 180.596614 
L 167.307137 179.885507 
L 167.84382 180.510645 
L 168.380502 180.512168 
L 168.917185 179.472056 
L 169.453868 176.040076 
L 170.527233 161.482227 
L 171.063915 164.832049 
L 171.600598 171.370555 
L 172.137281 174.418116 
L 172.673963 169.480498 
L 173.210646 162.921444 
L 173.747329 165.16003 
L 174.284011 173.027455 
L 174.820694 177.996659 
L 175.357376 180.137845 
L 175.894059 180.142311 
L 176.430742 179.683397 
L 176.967424 179.997885 
L 177.504107 178.483754 
L 178.577472 171.639508 
L 179.114155 174.901114 
L 179.650837 176.418746 
L 180.18752 179.299974 
L 180.724203 180.325058 
L 181.260885 180.04038 
L 182.33425 180.545743 
L 182.870933 180.476618 
L 183.407616 180.547917 
L 183.944298 180.47984 
L 184.480981 180.618656 
L 188.237759 180.166589 
L 188.774442 179.782826 
L 189.311124 179.019983 
L 189.847807 174.894672 
L 190.38449 162.678524 
L 190.921172 153.463579 
L 191.457855 157.397785 
L 191.994537 168.323301 
L 192.53122 173.997568 
L 193.067903 169.963231 
L 193.604585 170.705576 
L 194.677951 177.944033 
L 195.214633 179.858298 
L 195.751316 180.51089 
L 196.287998 180.278611 
L 197.898046 180.572944 
L 198.434729 180.516972 
L 198.971411 180.687273 
L 200.581459 180.411174 
L 201.118142 180.63243 
L 201.654825 180.523863 
L 202.72819 180.687273 
L 203.801555 180.475213 
L 205.948285 180.584037 
L 207.021651 180.177877 
L 207.558333 178.865477 
L 208.095016 175.659797 
L 208.631699 171.297217 
L 209.168381 171.556672 
L 209.705064 176.348735 
L 210.241746 178.62996 
L 210.778429 180.151917 
L 211.851794 180.54313 
L 212.388477 180.544048 
L 213.461842 180.027337 
L 213.998525 178.157865 
L 214.535207 174.682794 
L 215.07189 171.991454 
L 215.608573 173.70056 
L 216.145255 177.809501 
L 216.681938 179.552395 
L 217.21862 180.145903 
L 217.755303 180.50793 
L 218.828668 180.5987 
L 219.902033 180.643526 
L 220.438716 180.513348 
L 220.975399 180.55762 
L 221.512081 180.429533 
L 222.048764 180.516483 
L 223.122129 180.181025 
L 223.658812 178.967935 
L 224.195494 174.392764 
L 224.732177 165.065042 
L 225.26886 165.651769 
L 225.805542 173.561991 
L 226.342225 178.488976 
L 226.878907 180.080217 
L 227.41559 180.647039 
L 227.952273 180.447278 
L 229.025638 180.687273 
L 229.562321 180.687273 
L 230.099003 180.491867 
L 231.172368 180.610006 
L 231.709051 180.610447 
L 232.245734 180.496303 
L 233.319099 180.687273 
L 233.855781 180.537079 
L 234.392464 180.649936 
L 234.929147 180.501636 
L 237.075877 180.396826 
L 237.61256 180.145705 
L 238.149242 179.717835 
L 238.685925 176.652375 
L 239.222608 167.690278 
L 239.75929 161.333844 
L 240.295973 165.689513 
L 240.832656 175.098156 
L 241.369338 179.297582 
L 241.906021 180.272626 
L 242.442703 180.274869 
L 242.979386 180.106182 
L 243.516069 180.211299 
L 244.052751 178.286356 
L 244.589434 173.825765 
L 245.126116 170.851326 
L 245.662799 174.4311 
L 246.199482 178.999119 
L 246.736164 180.29216 
L 247.272847 180.523512 
L 248.346212 180.557638 
L 248.882895 180.558316 
L 249.419577 180.334495 
L 251.029625 180.434686 
L 251.566308 179.839193 
L 252.10299 178.499878 
L 252.639673 174.749485 
L 253.176356 167.851973 
L 253.713038 164.90214 
L 254.249721 168.22771 
L 255.323086 172.929777 
L 255.859769 176.496519 
L 256.396451 178.437496 
L 256.933134 179.821739 
L 257.469817 180.241832 
L 258.006499 180.480443 
L 258.543182 180.422679 
L 258.543182 180.422679 
" clip-path="url(#p4e4c04c9e4)" style="fill: none; stroke: #ff0000; stroke-opacity: 0.5; stroke-linecap: square"/>
   </g>
   <g id="patch_3">
    <path d="M 33.7 188.6 
L 33.7 14.52 
" style="fill: none; stroke: #000000; stroke-width: 0.8; stroke-linejoin: miter; stroke-linecap: square"/>
   </g>
   <g id="patch_4">
    <path d="M 269.25 188.6 
L 269.25 14.52 
" style="fill: none; stroke: #000000; stroke-width: 0.8; stroke-linejoin: miter; stroke-linecap: square"/>
   </g>
   <g id="patch_5">
    <path d="M 33.7 188.6 
L 269.25 188.6 
" style="fill: none; stroke: #000000; stroke-width: 0.8; stroke-linejoin: miter; stroke-linecap: square"/>
   </g>
   <g id="patch_6">
    <path d="M 33.7 14.52 
L 269.25 14.52 
" style="fill: none; stroke: #000000; stroke-width: 0.8; stroke-linejoin: miter; stroke-linecap: square"/>
   </g>
   <g id="legend_1">
    <g id="patch_7">
     <path d="M 213.917188 66.554375 
L 262.25 66.554375 
Q 264.25 66.554375 264.25 64.554375 
L 264.25 21.52 
Q 264.25 19.52 262.25 19.52 
L 213.917188 19.52 
Q 211.917188 19.52 211.917188 21.52 
L 211.917188 64.554375 
Q 211.917188 66.554375 213.917188 66.554375 
z
" style="fill: #ffffff; opacity: 0.8; stroke: #cccccc; stroke-linejoin: miter"/>
    </g>
    <g id="line2d_15">
     <path d="M 215.917188 27.618438 
L 225.917188 27.618438 
L 235.917188 27.618438 
" style="fill: none; stroke: #000000; stroke-opacity: 0.5; stroke-width: 0.5; stroke-linecap: square"/>
    </g>
    <g id="text_14">
     <!-- all -->
     <g transform="translate(243.917188 31.118438) scale(0.1 -0.1)">
      <defs>
       <path id="DejaVuSans-61" d="M 2194 1759 
Q 1497 1759 1228 1600 
Q 959 1441 959 1056 
Q 959 750 1161 570 
Q 1363 391 1709 391 
Q 2188 391 2477 730 
Q 2766 1069 2766 1631 
L 2766 1759 
L 2194 1759 
z
M 3341 1997 
L 3341 0 
L 2766 0 
L 2766 531 
Q 2569 213 2275 61 
Q 1981 -91 1556 -91 
Q 1019 -91 701 211 
Q 384 513 384 1019 
Q 384 1609 779 1909 
Q 1175 2209 1959 2209 
L 2766 2209 
L 2766 2266 
Q 2766 2663 2505 2880 
Q 2244 3097 1772 3097 
Q 1472 3097 1187 3025 
Q 903 2953 641 2809 
L 641 3341 
Q 956 3463 1253 3523 
Q 1550 3584 1831 3584 
Q 2591 3584 2966 3190 
Q 3341 2797 3341 1997 
z
" transform="scale(0.015625)"/>
       <path id="DejaVuSans-6c" d="M 603 4863 
L 1178 4863 
L 1178 0 
L 603 0 
L 603 4863 
z
" transform="scale(0.015625)"/>
      </defs>
      <use xlink:href="#DejaVuSans-61"/>
      <use xlink:href="#DejaVuSans-6c" transform="translate(61.279297 0)"/>
      <use xlink:href="#DejaVuSans-6c" transform="translate(89.0625 0)"/>
     </g>
    </g>
    <g id="line2d_16">
     <path d="M 215.917188 42.296563 
L 225.917188 42.296563 
L 235.917188 42.296563 
" style="fill: none; stroke: #0000ff; stroke-opacity: 0.5; stroke-linecap: square"/>
    </g>
    <g id="text_15">
     <!-- 1-1 -->
     <g transform="translate(243.917188 45.796563) scale(0.1 -0.1)">
      <defs>
       <path id="DejaVuSans-2d" d="M 313 2009 
L 1997 2009 
L 1997 1497 
L 313 1497 
L 313 2009 
z
" transform="scale(0.015625)"/>
      </defs>
      <use xlink:href="#DejaVuSans-31"/>
      <use xlink:href="#DejaVuSans-2d" transform="translate(63.623047 0)"/>
      <use xlink:href="#DejaVuSans-31" transform="translate(99.707031 0)"/>
     </g>
    </g>
    <g id="line2d_17">
     <path d="M 215.917188 56.974688 
L 225.917188 56.974688 
L 235.917188 56.974688 
" style="fill: none; stroke: #ff0000; stroke-opacity: 0.5; stroke-linecap: square"/>
    </g>
    <g id="text_16">
     <!-- 2-2 -->
     <g transform="translate(243.917188 60.474688) scale(0.1 -0.1)">
      <use xlink:href="#DejaVuSans-32"/>
      <use xlink:href="#DejaVuSans-2d" transform="translate(63.623047 0)"/>
      <use xlink:href="#DejaVuSans-32" transform="translate(99.707031 0)"/>
     </g>
    </g>
   </g>
  </g>
 </g>
 <defs>
  <clipPath id="p4e4c04c9e4">
   <rect x="33.7" y="14.52" width="235.55" height="174.08"/>
  </clipPath>
 </defs>
</svg>
