<?xml version="1.0" encoding="utf-8" standalone="no"?>
<!DOCTYPE svg PUBLIC "-//W3C//DTD SVG 1.1//EN"
  "http://www.w3.org/Graphics/SVG/1.1/DTD/svg11.dtd">
<svg xmlns:xlink="http://www.w3.org/1999/xlink" width="288pt" height="216pt" viewBox="0 0 288 216" xmlns="http://www.w3.org/2000/svg" version="1.1">
 <metadata>
  <rdf:RDF xmlns:dc="http://purl.org/dc/elements/1.1/" xmlns:cc="http://creativecommons.org/ns#" xmlns:rdf="http://www.w3.org/1999/02/22-rdf-syntax-ns#">
   <cc:Work>
    <dc:type rdf:resource="http://purl.org/dc/dcmitype/StillImage"/>
    <dc:date>2025-09-17T23:11:32.740772</dc:date>
    <dc:format>image/svg+xml</dc:format>
    <dc:creator>
     <cc:Agent>
      <dc:title>Matplotlib v3.10.0, https://matplotlib.org/</dc:title>
     </cc:Agent>
    </dc:creator>
   </cc:Work>
  </rdf:RDF>
 </metadata>
 <defs>
  <style type="text/css">*{stroke-linejoin: round; stroke-linecap: butt}</style>
 </defs>
 <g id="figure_1">
  <g id="patch_1">
   <path d="M 0 216 
L 288 216 
L 288 0 
L 0 0 
z
" style="fill: #ffffff"/>
  </g>
  <g id="axes_1">
   <g id="patch_2">
    <path d="M 33.7 188.6 
L 269.25 188.6 
L 269.25 14.52 
L 33.7 14.52 
z
" style="fill: #ffffff"/>
   </g>
   <g id="matplotlib.axis_1">
    <g id="xtick_1">
     <g id="line2d_1">
      <defs>
       <path id="m0e10d70909" d="M 0 0 
L 0 3.5 
" style="stroke: #000000; stroke-width: 0.8"/>
      </defs>
      <g>
       <use xlink:href="#m0e10d70909" x="44.138477" y="188.6" style="stroke: #000000; stroke-width: 0.8"/>
      </g>
     </g>
     <g id="text_1">
      <!-- 0 -->
      <g transform="translate(40.957227 203.198437) scale(0.1 -0.1)">
       <defs>
        <path id="DejaVuSans-30" d="M 2034 4250 
Q 1547 4250 1301 3770 
Q 1056 3291 1056 2328 
Q 1056 1369 1301 889 
Q 1547 409 2034 409 
Q 2525 409 2770 889 
Q 3016 1369 3016 2328 
Q 3016 3291 2770 3770 
Q 2525 4250 2034 4250 
z
M 2034 4750 
Q 2819 4750 3233 4129 
Q 3647 3509 3647 2328 
Q 3647 1150 3233 529 
Q 2819 -91 2034 -91 
Q 1250 -91 836 529 
Q 422 1150 422 2328 
Q 422 3509 836 4129 
Q 1250 4750 2034 4750 
z
" transform="scale(0.015625)"/>
       </defs>
       <use xlink:href="#DejaVuSans-30"/>
      </g>
     </g>
    </g>
    <g id="xtick_2">
     <g id="line2d_2">
      <g>
       <use xlink:href="#m0e10d70909" x="87.073086" y="188.6" style="stroke: #000000; stroke-width: 0.8"/>
      </g>
     </g>
     <g id="text_2">
      <!-- 200 -->
      <g transform="translate(77.529336 203.198437) scale(0.1 -0.1)">
       <defs>
        <path id="DejaVuSans-32" d="M 1228 531 
L 3431 531 
L 3431 0 
L 469 0 
L 469 531 
Q 828 903 1448 1529 
Q 2069 2156 2228 2338 
Q 2531 2678 2651 2914 
Q 2772 3150 2772 3378 
Q 2772 3750 2511 3984 
Q 2250 4219 1831 4219 
Q 1534 4219 1204 4116 
Q 875 4013 500 3803 
L 500 4441 
Q 881 4594 1212 4672 
Q 1544 4750 1819 4750 
Q 2544 4750 2975 4387 
Q 3406 4025 3406 3419 
Q 3406 3131 3298 2873 
Q 3191 2616 2906 2266 
Q 2828 2175 2409 1742 
Q 1991 1309 1228 531 
z
" transform="scale(0.015625)"/>
       </defs>
       <use xlink:href="#DejaVuSans-32"/>
       <use xlink:href="#DejaVuSans-30" transform="translate(63.623047 0)"/>
       <use xlink:href="#DejaVuSans-30" transform="translate(127.246094 0)"/>
      </g>
     </g>
    </g>
    <g id="xtick_3">
     <g id="line2d_3">
      <g>
       <use xlink:href="#m0e10d70909" x="130.007695" y="188.6" style="stroke: #000000; stroke-width: 0.8"/>
      </g>
     </g>
     <g id="text_3">
      <!-- 400 -->
      <g transform="translate(120.463945 203.198437) scale(0.1 -0.1)">
       <defs>
        <path id="DejaVuSans-34" d="M 2419 4116 
L 825 1625 
L 2419 1625 
L 2419 4116 
z
M 2253 4666 
L 3047 4666 
L 3047 1625 
L 3713 1625 
L 3713 1100 
L 3047 1100 
L 3047 0 
L 2419 0 
L 2419 1100 
L 313 1100 
L 313 1709 
L 2253 4666 
z
" transform="scale(0.015625)"/>
       </defs>
       <use xlink:href="#DejaVuSans-34"/>
       <use xlink:href="#DejaVuSans-30" transform="translate(63.623047 0)"/>
       <use xlink:href="#DejaVuSans-30" transform="translate(127.246094 0)"/>
      </g>
     </g>
    </g>
    <g id="xtick_4">
     <g id="line2d_4">
      <g>
       <use xlink:href="#m0e10d70909" x="172.942305" y="188.6" style="stroke: #000000; stroke-width: 0.8"/>
      </g>
     </g>
     <g id="text_4">
      <!-- 600 -->
      <g transform="translate(163.398555 203.198437) scale(0.1 -0.1)">
       <defs>
        <path id="DejaVuSans-36" d="M 2113 2584 
Q 1688 2584 1439 2293 
Q 1191 2003 1191 1497 
Q 1191 994 1439 701 
Q 1688 409 2113 409 
Q 2538 409 2786 701 
Q 3034 994 3034 1497 
Q 3034 2003 2786 2293 
Q 2538 2584 2113 2584 
z
M 3366 4563 
L 3366 3988 
Q 3128 4100 2886 4159 
Q 2644 4219 2406 4219 
Q 1781 4219 1451 3797 
Q 1122 3375 1075 2522 
Q 1259 2794 1537 2939 
Q 1816 3084 2150 3084 
Q 2853 3084 3261 2657 
Q 3669 2231 3669 1497 
Q 3669 778 3244 343 
Q 2819 -91 2113 -91 
Q 1303 -91 875 529 
Q 447 1150 447 2328 
Q 447 3434 972 4092 
Q 1497 4750 2381 4750 
Q 2619 4750 2861 4703 
Q 3103 4656 3366 4563 
z
" transform="scale(0.015625)"/>
       </defs>
       <use xlink:href="#DejaVuSans-36"/>
       <use xlink:href="#DejaVuSans-30" transform="translate(63.623047 0)"/>
       <use xlink:href="#DejaVuSans-30" transform="translate(127.246094 0)"/>
      </g>
     </g>
    </g>
    <g id="xtick_5">
     <g id="line2d_5">
      <g>
       <use xlink:href="#m0e10d70909" x="215.876914" y="188.6" style="stroke: #000000; stroke-width: 0.8"/>
      </g>
     </g>
     <g id="text_5">
      <!-- 800 -->
      <g transform="translate(206.333164 203.198437) scale(0.1 -0.1)">
       <defs>
        <path id="DejaVuSans-38" d="M 2034 2216 
Q 1584 2216 1326 1975 
Q 1069 1734 1069 1313 
Q 1069 891 1326 650 
Q 1584 409 2034 409 
Q 2484 409 2743 651 
Q 3003 894 3003 1313 
Q 3003 1734 2745 1975 
Q 2488 2216 2034 2216 
z
M 1403 2484 
Q 997 2584 770 2862 
Q 544 3141 544 3541 
Q 544 4100 942 4425 
Q 1341 4750 2034 4750 
Q 2731 4750 3128 4425 
Q 3525 4100 3525 3541 
Q 3525 3141 3298 2862 
Q 3072 2584 2669 2484 
Q 3125 2378 3379 2068 
Q 3634 1759 3634 1313 
Q 3634 634 3220 271 
Q 2806 -91 2034 -91 
Q 1263 -91 848 271 
Q 434 634 434 1313 
Q 434 1759 690 2068 
Q 947 2378 1403 2484 
z
M 1172 3481 
Q 1172 3119 1398 2916 
Q 1625 2713 2034 2713 
Q 2441 2713 2670 2916 
Q 2900 3119 2900 3481 
Q 2900 3844 2670 4047 
Q 2441 4250 2034 4250 
Q 1625 4250 1398 4047 
Q 1172 3844 1172 3481 
z
" transform="scale(0.015625)"/>
       </defs>
       <use xlink:href="#DejaVuSans-38"/>
       <use xlink:href="#DejaVuSans-30" transform="translate(63.623047 0)"/>
       <use xlink:href="#DejaVuSans-30" transform="translate(127.246094 0)"/>
      </g>
     </g>
    </g>
    <g id="xtick_6">
     <g id="line2d_6">
      <g>
       <use xlink:href="#m0e10d70909" x="258.811523" y="188.6" style="stroke: #000000; stroke-width: 0.8"/>
      </g>
     </g>
     <g id="text_6">
      <!-- 1000 -->
      <g transform="translate(246.086523 203.198437) scale(0.1 -0.1)">
       <defs>
        <path id="DejaVuSans-31" d="M 794 531 
L 1825 531 
L 1825 4091 
L 703 3866 
L 703 4441 
L 1819 4666 
L 2450 4666 
L 2450 531 
L 3481 531 
L 3481 0 
L 794 0 
L 794 531 
z
" transform="scale(0.015625)"/>
       </defs>
       <use xlink:href="#DejaVuSans-31"/>
       <use xlink:href="#DejaVuSans-30" transform="translate(63.623047 0)"/>
       <use xlink:href="#DejaVuSans-30" transform="translate(127.246094 0)"/>
       <use xlink:href="#DejaVuSans-30" transform="translate(190.869141 0)"/>
      </g>
     </g>
    </g>
    <g id="text_7">
     <!-- q (nm) -->
     <g transform="translate(134.771094 216.876563) scale(0.1 -0.1)">
      <defs>
       <path id="DejaVuSans-71" d="M 947 1747 
Q 947 1113 1208 752 
Q 1469 391 1925 391 
Q 2381 391 2643 752 
Q 2906 1113 2906 1747 
Q 2906 2381 2643 2742 
Q 2381 3103 1925 3103 
Q 1469 3103 1208 2742 
Q 947 2381 947 1747 
z
M 2906 525 
Q 2725 213 2448 61 
Q 2172 -91 1784 -91 
Q 1150 -91 751 415 
Q 353 922 353 1747 
Q 353 2572 751 3078 
Q 1150 3584 1784 3584 
Q 2172 3584 2448 3432 
Q 2725 3281 2906 2969 
L 2906 3500 
L 3481 3500 
L 3481 -1331 
L 2906 -1331 
L 2906 525 
z
" transform="scale(0.015625)"/>
       <path id="DejaVuSans-20" transform="scale(0.015625)"/>
       <path id="DejaVuSans-28" d="M 1984 4856 
Q 1566 4138 1362 3434 
Q 1159 2731 1159 2009 
Q 1159 1288 1364 580 
Q 1569 -128 1984 -844 
L 1484 -844 
Q 1016 -109 783 600 
Q 550 1309 550 2009 
Q 550 2706 781 3412 
Q 1013 4119 1484 4856 
L 1984 4856 
z
" transform="scale(0.015625)"/>
       <path id="DejaVuSans-6e" d="M 3513 2113 
L 3513 0 
L 2938 0 
L 2938 2094 
Q 2938 2591 2744 2837 
Q 2550 3084 2163 3084 
Q 1697 3084 1428 2787 
Q 1159 2491 1159 1978 
L 1159 0 
L 581 0 
L 581 3500 
L 1159 3500 
L 1159 2956 
Q 1366 3272 1645 3428 
Q 1925 3584 2291 3584 
Q 2894 3584 3203 3211 
Q 3513 2838 3513 2113 
z
" transform="scale(0.015625)"/>
       <path id="DejaVuSans-6d" d="M 3328 2828 
Q 3544 3216 3844 3400 
Q 4144 3584 4550 3584 
Q 5097 3584 5394 3201 
Q 5691 2819 5691 2113 
L 5691 0 
L 5113 0 
L 5113 2094 
Q 5113 2597 4934 2840 
Q 4756 3084 4391 3084 
Q 3944 3084 3684 2787 
Q 3425 2491 3425 1978 
L 3425 0 
L 2847 0 
L 2847 2094 
Q 2847 2600 2669 2842 
Q 2491 3084 2119 3084 
Q 1678 3084 1418 2786 
Q 1159 2488 1159 1978 
L 1159 0 
L 581 0 
L 581 3500 
L 1159 3500 
L 1159 2956 
Q 1356 3278 1631 3431 
Q 1906 3584 2284 3584 
Q 2666 3584 2933 3390 
Q 3200 3197 3328 2828 
z
" transform="scale(0.015625)"/>
       <path id="DejaVuSans-29" d="M 513 4856 
L 1013 4856 
Q 1481 4119 1714 3412 
Q 1947 2706 1947 2009 
Q 1947 1309 1714 600 
Q 1481 -109 1013 -844 
L 513 -844 
Q 928 -128 1133 580 
Q 1338 1288 1338 2009 
Q 1338 2731 1133 3434 
Q 928 4138 513 4856 
z
" transform="scale(0.015625)"/>
      </defs>
      <use xlink:href="#DejaVuSans-71"/>
      <use xlink:href="#DejaVuSans-20" transform="translate(63.476562 0)"/>
      <use xlink:href="#DejaVuSans-28" transform="translate(95.263672 0)"/>
      <use xlink:href="#DejaVuSans-6e" transform="translate(134.277344 0)"/>
      <use xlink:href="#DejaVuSans-6d" transform="translate(197.65625 0)"/>
      <use xlink:href="#DejaVuSans-29" transform="translate(295.068359 0)"/>
     </g>
    </g>
   </g>
   <g id="matplotlib.axis_2">
    <g id="ytick_1">
     <g id="line2d_7">
      <defs>
       <path id="mda2962695e" d="M 0 0 
L -3.5 0 
" style="stroke: #000000; stroke-width: 0.8"/>
      </defs>
      <g>
       <use xlink:href="#mda2962695e" x="33.7" y="180.687273" style="stroke: #000000; stroke-width: 0.8"/>
      </g>
     </g>
     <g id="text_8">
      <!-- 0 -->
      <g transform="translate(20.3375 184.486491) scale(0.1 -0.1)">
       <use xlink:href="#DejaVuSans-30"/>
      </g>
     </g>
    </g>
    <g id="ytick_2">
     <g id="line2d_8">
      <g>
       <use xlink:href="#mda2962695e" x="33.7" y="142.689387" style="stroke: #000000; stroke-width: 0.8"/>
      </g>
     </g>
     <g id="text_9">
      <!-- 20000 -->
      <g transform="translate(-5.1125 146.488606) scale(0.1 -0.1)">
       <use xlink:href="#DejaVuSans-32"/>
       <use xlink:href="#DejaVuSans-30" transform="translate(63.623047 0)"/>
       <use xlink:href="#DejaVuSans-30" transform="translate(127.246094 0)"/>
       <use xlink:href="#DejaVuSans-30" transform="translate(190.869141 0)"/>
       <use xlink:href="#DejaVuSans-30" transform="translate(254.492188 0)"/>
      </g>
     </g>
    </g>
    <g id="ytick_3">
     <g id="line2d_9">
      <g>
       <use xlink:href="#mda2962695e" x="33.7" y="104.691501" style="stroke: #000000; stroke-width: 0.8"/>
      </g>
     </g>
     <g id="text_10">
      <!-- 40000 -->
      <g transform="translate(-5.1125 108.49072) scale(0.1 -0.1)">
       <use xlink:href="#DejaVuSans-34"/>
       <use xlink:href="#DejaVuSans-30" transform="translate(63.623047 0)"/>
       <use xlink:href="#DejaVuSans-30" transform="translate(127.246094 0)"/>
       <use xlink:href="#DejaVuSans-30" transform="translate(190.869141 0)"/>
       <use xlink:href="#DejaVuSans-30" transform="translate(254.492188 0)"/>
      </g>
     </g>
    </g>
    <g id="ytick_4">
     <g id="line2d_10">
      <g>
       <use xlink:href="#mda2962695e" x="33.7" y="66.693615" style="stroke: #000000; stroke-width: 0.8"/>
      </g>
     </g>
     <g id="text_11">
      <!-- 60000 -->
      <g transform="translate(-5.1125 70.492834) scale(0.1 -0.1)">
       <use xlink:href="#DejaVuSans-36"/>
       <use xlink:href="#DejaVuSans-30" transform="translate(63.623047 0)"/>
       <use xlink:href="#DejaVuSans-30" transform="translate(127.246094 0)"/>
       <use xlink:href="#DejaVuSans-30" transform="translate(190.869141 0)"/>
       <use xlink:href="#DejaVuSans-30" transform="translate(254.492188 0)"/>
      </g>
     </g>
    </g>
    <g id="ytick_5">
     <g id="line2d_11">
      <g>
       <use xlink:href="#mda2962695e" x="33.7" y="28.695729" style="stroke: #000000; stroke-width: 0.8"/>
      </g>
     </g>
     <g id="text_12">
      <!-- 80000 -->
      <g transform="translate(-5.1125 32.494948) scale(0.1 -0.1)">
       <use xlink:href="#DejaVuSans-38"/>
       <use xlink:href="#DejaVuSans-30" transform="translate(63.623047 0)"/>
       <use xlink:href="#DejaVuSans-30" transform="translate(127.246094 0)"/>
       <use xlink:href="#DejaVuSans-30" transform="translate(190.869141 0)"/>
       <use xlink:href="#DejaVuSans-30" transform="translate(254.492188 0)"/>
      </g>
     </g>
    </g>
    <g id="text_13">
     <!-- rdf -->
     <g transform="translate(-11.192187 108.462344) rotate(-90) scale(0.1 -0.1)">
      <defs>
       <path id="DejaVuSans-72" d="M 2631 2963 
Q 2534 3019 2420 3045 
Q 2306 3072 2169 3072 
Q 1681 3072 1420 2755 
Q 1159 2438 1159 1844 
L 1159 0 
L 581 0 
L 581 3500 
L 1159 3500 
L 1159 2956 
Q 1341 3275 1631 3429 
Q 1922 3584 2338 3584 
Q 2397 3584 2469 3576 
Q 2541 3569 2628 3553 
L 2631 2963 
z
" transform="scale(0.015625)"/>
       <path id="DejaVuSans-64" d="M 2906 2969 
L 2906 4863 
L 3481 4863 
L 3481 0 
L 2906 0 
L 2906 525 
Q 2725 213 2448 61 
Q 2172 -91 1784 -91 
Q 1150 -91 751 415 
Q 353 922 353 1747 
Q 353 2572 751 3078 
Q 1150 3584 1784 3584 
Q 2172 3584 2448 3432 
Q 2725 3281 2906 2969 
z
M 947 1747 
Q 947 1113 1208 752 
Q 1469 391 1925 391 
Q 2381 391 2643 752 
Q 2906 1113 2906 1747 
Q 2906 2381 2643 2742 
Q 2381 3103 1925 3103 
Q 1469 3103 1208 2742 
Q 947 2381 947 1747 
z
" transform="scale(0.015625)"/>
       <path id="DejaVuSans-66" d="M 2375 4863 
L 2375 4384 
L 1825 4384 
Q 1516 4384 1395 4259 
Q 1275 4134 1275 3809 
L 1275 3500 
L 2222 3500 
L 2222 3053 
L 1275 3053 
L 1275 0 
L 697 0 
L 697 3053 
L 147 3053 
L 147 3500 
L 697 3500 
L 697 3744 
Q 697 4328 969 4595 
Q 1241 4863 1831 4863 
L 2375 4863 
z
" transform="scale(0.015625)"/>
      </defs>
      <use xlink:href="#DejaVuSans-72"/>
      <use xlink:href="#DejaVuSans-64" transform="translate(39.363281 0)"/>
      <use xlink:href="#DejaVuSans-66" transform="translate(102.839844 0)"/>
     </g>
    </g>
   </g>
   <g id="line2d_12">
    <path d="M 44.406818 180.687273 
L 91.634888 180.687273 
L 92.171571 180.573143 
L 93.781619 180.473579 
L 94.854984 180.175412 
L 95.391667 160.539148 
L 95.928349 22.432727 
L 96.465032 151.547937 
L 97.001715 175.033677 
L 97.538397 178.00935 
L 98.07508 176.976214 
L 98.611762 176.250329 
L 99.148445 177.032606 
L 99.685128 175.908084 
L 100.22181 175.999119 
L 100.758493 176.908952 
L 101.295175 178.349811 
L 101.831858 177.602 
L 102.368541 178.745819 
L 102.905223 178.93361 
L 103.978589 180.24606 
L 105.051954 179.977604 
L 105.588636 179.50182 
L 106.125319 179.453726 
L 106.662002 179.0033 
L 107.198684 179.164273 
L 107.735367 178.669033 
L 108.272049 178.76669 
L 109.345415 177.714679 
L 109.882097 178.311313 
L 110.41878 177.63036 
L 110.955463 178.269071 
L 111.492145 177.43679 
L 112.028828 176.973799 
L 112.56551 175.56965 
L 113.638876 174.963301 
L 114.175558 173.762338 
L 115.248923 173.865659 
L 115.785606 173.198039 
L 116.322289 174.168087 
L 116.858971 174.463131 
L 117.395654 174.406799 
L 117.932337 175.078071 
L 118.469019 174.872837 
L 119.005702 176.412231 
L 121.152432 179.57737 
L 122.225797 180.21225 
L 122.76248 180.431695 
L 123.299163 180.51919 
L 124.372528 180.032808 
L 124.909211 180.081839 
L 125.445893 179.253353 
L 125.982576 178.87899 
L 126.519258 178.010076 
L 127.055941 177.661628 
L 127.592624 176.528353 
L 128.129306 176.170743 
L 128.665989 175.122278 
L 129.202671 175.483407 
L 129.739354 175.476589 
L 130.276037 177.315784 
L 130.812719 177.006893 
L 131.349402 177.779098 
L 131.886085 178.943129 
L 132.422767 179.166973 
L 132.95945 179.786081 
L 133.496132 179.73092 
L 134.032815 180.002988 
L 134.569498 179.914486 
L 135.642863 178.800365 
L 137.252911 174.58282 
L 138.326276 173.266766 
L 139.399641 172.620568 
L 139.936324 172.308975 
L 140.473006 172.45883 
L 141.009689 174.598162 
L 142.083054 177.887497 
L 142.619737 177.70073 
L 143.693102 177.897621 
L 144.229785 177.217791 
L 144.766467 177.020656 
L 145.30315 176.570604 
L 145.839833 173.406194 
L 146.376515 168.318134 
L 146.913198 165.629942 
L 147.44988 172.126426 
L 147.986563 174.949349 
L 149.059928 176.166449 
L 149.596611 175.288954 
L 150.133293 175.648176 
L 150.669976 176.696505 
L 151.206659 176.874234 
L 151.743341 177.753613 
L 152.280024 177.444911 
L 152.816707 178.190284 
L 153.353389 178.038151 
L 153.890072 177.71423 
L 154.426754 178.370898 
L 154.963437 178.479029 
L 155.50012 178.436575 
L 156.036802 178.836643 
L 156.573485 178.333535 
L 157.110167 178.520902 
L 157.64685 178.009953 
L 158.183533 178.743701 
L 158.720215 178.721751 
L 159.256898 179.395738 
L 159.793581 179.033665 
L 160.330263 179.770565 
L 161.403628 180.131952 
L 163.013676 179.681047 
L 163.550359 178.619007 
L 164.087041 177.960309 
L 164.623724 177.603622 
L 165.160407 176.875815 
L 165.697089 176.820285 
L 166.233772 176.182971 
L 166.770455 176.134787 
L 167.307137 176.538873 
L 167.84382 176.505951 
L 168.380502 177.25847 
L 168.917185 176.966563 
L 169.453868 176.964832 
L 169.99055 176.298244 
L 170.527233 175.857411 
L 171.063915 175.652976 
L 171.600598 174.657994 
L 172.137281 174.772734 
L 172.673963 174.088882 
L 173.210646 174.886512 
L 173.747329 175.185259 
L 174.284011 175.152819 
L 174.820694 175.460308 
L 175.357376 176.726409 
L 176.430742 177.527663 
L 176.967424 177.553137 
L 178.040789 177.103852 
L 178.577472 177.423789 
L 180.18752 177.770867 
L 182.33425 179.846217 
L 183.407616 180.00847 
L 183.944298 179.703816 
L 184.480981 179.738059 
L 186.627711 177.808063 
L 187.164394 177.572195 
L 188.237759 177.529644 
L 188.774442 177.011781 
L 189.311124 176.064346 
L 190.38449 174.98698 
L 190.921172 175.126358 
L 191.457855 175.457978 
L 192.53122 177.040087 
L 193.067903 177.446221 
L 193.604585 177.575543 
L 194.141268 178.007355 
L 194.677951 177.875379 
L 195.214633 177.883794 
L 196.287998 176.569596 
L 196.824681 176.587194 
L 197.361364 177.423416 
L 199.508094 177.185759 
L 201.118142 178.475365 
L 202.191507 178.83207 
L 202.72819 178.509581 
L 203.264872 178.38905 
L 203.801555 178.538753 
L 204.338238 178.183752 
L 205.411603 178.196717 
L 205.948285 177.951722 
L 206.484968 177.350368 
L 207.021651 177.521184 
L 207.558333 176.881332 
L 208.095016 177.160885 
L 208.631699 176.67782 
L 209.168381 176.810204 
L 209.705064 176.393434 
L 210.241746 176.402036 
L 210.778429 176.68562 
L 211.315112 176.758382 
L 211.851794 177.363911 
L 212.388477 176.864177 
L 212.925159 177.082532 
L 213.461842 177.160458 
L 213.998525 177.064066 
L 214.535207 177.540303 
L 215.07189 177.704239 
L 215.608573 177.696019 
L 216.145255 178.124053 
L 216.681938 178.122289 
L 217.21862 178.533716 
L 217.755303 177.961714 
L 218.291986 178.377864 
L 218.828668 178.245336 
L 219.902033 177.823323 
L 220.438716 177.628932 
L 220.975399 178.127448 
L 221.512081 177.942021 
L 222.048764 178.274711 
L 222.585447 178.313995 
L 223.122129 178.180247 
L 224.195494 177.747112 
L 224.732177 177.578851 
L 225.26886 177.637368 
L 225.805542 177.543678 
L 226.342225 177.990471 
L 226.878907 178.621342 
L 227.41559 178.735337 
L 227.952273 179.432533 
L 228.488955 179.41658 
L 229.025638 179.624232 
L 231.172368 178.955983 
L 231.709051 179.115551 
L 232.245734 178.893824 
L 232.782416 178.800407 
L 233.855781 178.887551 
L 234.392464 179.123209 
L 234.929147 179.189862 
L 235.465829 179.406854 
L 236.539195 179.21482 
L 237.075877 179.010779 
L 237.61256 178.499515 
L 238.685925 177.006938 
L 239.222608 176.771154 
L 239.75929 175.540245 
L 240.295973 175.985813 
L 240.832656 175.807273 
L 241.369338 176.009774 
L 241.906021 176.768975 
L 242.979386 177.730244 
L 246.199482 177.959176 
L 246.736164 178.422669 
L 247.272847 178.587789 
L 247.80953 178.471871 
L 248.346212 178.780295 
L 248.882895 178.696045 
L 249.95626 178.256774 
L 251.566308 177.976118 
L 252.10299 177.825702 
L 253.176356 177.824881 
L 254.786404 176.723154 
L 255.323086 176.92041 
L 255.859769 177.244943 
L 256.933134 177.558703 
L 257.469817 177.366123 
L 258.543182 177.811737 
L 258.543182 177.811737 
" clip-path="url(#p51f15accf7)" style="fill: none; stroke: #000000; stroke-opacity: 0.5; stroke-width: 0.5; stroke-linecap: square"/>
   </g>
   <g id="line2d_13">
    <path d="M 44.406818 180.687273 
L 91.634888 180.687273 
L 92.171571 180.33775 
L 93.244936 180.352863 
L 94.318301 179.726502 
L 94.854984 179.119698 
L 95.391667 178.845373 
L 95.928349 178.883347 
L 96.465032 175.091414 
L 97.001715 174.627324 
L 97.538397 173.900123 
L 98.07508 170.153749 
L 98.611762 168.186181 
L 99.148445 169.76134 
L 99.685128 166.051007 
L 100.22181 166.329801 
L 100.758493 169.116163 
L 101.295175 173.528796 
L 101.831858 171.238625 
L 102.368541 174.741569 
L 102.905223 175.316679 
L 103.978589 179.336059 
L 104.515271 179.138756 
L 105.051954 178.731249 
L 105.588636 177.697491 
L 106.125319 177.11941 
L 106.662002 175.942678 
L 107.198684 176.225877 
L 107.735367 174.905178 
L 108.272049 175.393666 
L 108.808732 173.36016 
L 109.345415 172.72165 
L 109.882097 174.530338 
L 110.41878 175.363898 
L 110.955463 177.074715 
L 111.492145 176.954296 
L 112.028828 178.762694 
L 112.56551 178.276085 
L 113.102193 179.500369 
L 113.638876 179.518628 
L 114.175558 178.385671 
L 114.712241 177.611 
L 115.248923 176.062504 
L 115.785606 170.633232 
L 116.322289 170.31785 
L 116.858971 166.353073 
L 117.395654 163.557033 
L 117.932337 165.878497 
L 118.469019 164.486084 
L 119.005702 168.02657 
L 119.542384 170.617267 
L 120.079067 172.017598 
L 120.61575 175.861545 
L 121.152432 178.3759 
L 121.689115 178.810047 
L 122.225797 179.629269 
L 122.76248 180.035016 
L 123.299163 180.687273 
L 123.835845 180.179428 
L 124.372528 180.436736 
L 124.909211 180.440054 
L 125.445893 180.077359 
L 125.982576 180.566884 
L 126.519258 180.449623 
L 127.055941 180.687273 
L 127.592624 180.339908 
L 128.129306 180.57296 
L 128.665989 180.574407 
L 129.202671 180.46438 
L 129.739354 180.687273 
L 130.276037 180.4699 
L 131.886085 180.582539 
L 132.422767 180.169949 
L 132.95945 180.380617 
L 134.032815 179.589566 
L 134.569498 179.503942 
L 135.642863 176.064349 
L 136.716228 168.361399 
L 137.252911 165.71276 
L 137.789593 164.504775 
L 138.326276 163.779646 
L 138.862959 165.139028 
L 139.399641 164.691693 
L 139.936324 164.694619 
L 140.473006 166.523354 
L 141.546372 174.482963 
L 142.083054 178.837911 
L 143.156419 180.111528 
L 145.30315 180.135703 
L 145.839833 178.816086 
L 146.376515 173.589502 
L 146.913198 166.410541 
L 147.44988 173.28288 
L 147.986563 178.593541 
L 148.523246 180.391235 
L 149.059928 180.687273 
L 150.133293 180.471939 
L 151.743341 180.687273 
L 152.280024 180.480403 
L 152.816707 180.482442 
L 153.353389 180.687273 
L 153.890072 180.553377 
L 154.963437 180.687273 
L 155.50012 180.622247 
L 156.036802 180.687273 
L 156.573485 180.432111 
L 157.110167 180.560901 
L 157.64685 180.499503 
L 158.183533 180.625271 
L 158.720215 180.564428 
L 159.256898 180.626422 
L 159.793581 180.566697 
L 160.330263 180.62754 
L 160.866946 180.50972 
L 162.476994 180.456933 
L 163.013676 180.230744 
L 163.550359 180.23484 
L 164.087041 179.734437 
L 164.623724 179.965109 
L 165.160407 179.200669 
L 165.697089 178.886316 
L 167.307137 175.690533 
L 167.84382 174.943332 
L 168.380502 174.627161 
L 169.99055 172.948284 
L 170.527233 172.004235 
L 171.063915 171.57691 
L 171.600598 169.46949 
L 172.137281 168.382057 
L 172.673963 168.142959 
L 173.210646 169.602404 
L 173.747329 169.69402 
L 174.284011 170.355837 
L 174.820694 171.762692 
L 175.357376 174.973458 
L 176.430742 177.323604 
L 177.504107 177.694895 
L 178.040789 177.179119 
L 178.577472 177.831724 
L 179.114155 177.854384 
L 179.650837 178.623311 
L 180.724203 179.563386 
L 181.260885 180.129719 
L 181.797568 179.665953 
L 182.33425 180.096121 
L 182.870933 179.807392 
L 183.407616 179.855739 
L 183.944298 178.913176 
L 184.480981 179.008602 
L 185.017663 178.858848 
L 185.554346 178.187194 
L 186.091029 177.165538 
L 186.627711 177.112578 
L 187.164394 176.863417 
L 188.237759 178.162914 
L 188.774442 178.374356 
L 189.847807 179.281913 
L 190.38449 179.103687 
L 190.921172 179.227532 
L 191.457855 178.978045 
L 191.994537 178.584673 
L 193.067903 177.305982 
L 193.604585 177.330228 
L 194.677951 176.70182 
L 195.214633 177.401405 
L 196.287998 177.168905 
L 196.824681 175.982911 
L 197.361364 176.634089 
L 197.898046 174.888628 
L 198.434729 175.504767 
L 198.971411 175.506978 
L 199.508094 175.876781 
L 200.581459 177.095783 
L 201.654825 177.274567 
L 202.191507 177.168579 
L 202.72819 176.29459 
L 203.801555 176.131998 
L 204.338238 176.288156 
L 204.87492 177.441143 
L 205.411603 177.090647 
L 205.948285 177.391663 
L 206.484968 176.923888 
L 207.021651 177.586937 
L 207.558333 176.822172 
L 208.095016 178.257371 
L 208.631699 177.587732 
L 209.168381 177.755904 
L 209.705064 178.245572 
L 210.241746 177.910577 
L 210.778429 178.160755 
L 211.315112 177.974972 
L 212.388477 179.234426 
L 213.461842 179.899709 
L 213.998525 179.59723 
L 214.535207 180.381758 
L 215.07189 180.273275 
L 215.608573 180.358145 
L 216.145255 180.578247 
L 216.681938 180.172617 
L 217.21862 180.33732 
L 217.755303 179.643895 
L 218.828668 179.048888 
L 219.365351 177.903308 
L 219.902033 177.737553 
L 220.438716 176.821458 
L 220.975399 177.076993 
L 221.512081 176.791191 
L 222.048764 177.298766 
L 222.585447 178.002863 
L 223.122129 178.270664 
L 223.658812 177.334255 
L 224.195494 177.801935 
L 224.732177 177.398703 
L 225.26886 177.737694 
L 225.805542 177.315289 
L 226.342225 177.578018 
L 226.878907 178.199974 
L 227.41559 178.334563 
L 227.952273 179.37457 
L 229.025638 179.625676 
L 229.562321 179.420721 
L 230.635686 177.881824 
L 231.172368 177.436869 
L 231.709051 177.70755 
L 232.245734 177.314324 
L 232.782416 177.333461 
L 233.319099 177.983385 
L 233.855781 178.827651 
L 234.392464 179.461938 
L 234.929147 179.756816 
L 235.465829 179.717967 
L 236.002512 179.526225 
L 237.075877 178.889197 
L 237.61256 178.145147 
L 238.149242 176.980841 
L 238.685925 176.447322 
L 239.75929 176.009016 
L 240.295973 176.076488 
L 240.832656 175.538855 
L 241.906021 176.192507 
L 242.442703 176.360362 
L 242.979386 176.811999 
L 243.516069 177.055978 
L 244.052751 177.438657 
L 244.589434 177.375755 
L 245.126116 177.573068 
L 245.662799 177.947064 
L 246.199482 178.080101 
L 247.272847 178.928397 
L 247.80953 178.801563 
L 248.346212 179.294926 
L 248.882895 179.28297 
L 249.419577 178.601394 
L 249.95626 178.17441 
L 251.029625 177.804793 
L 251.566308 178.232009 
L 252.639673 178.609667 
L 253.176356 178.712599 
L 253.713038 178.612536 
L 255.323086 177.70382 
L 256.396451 177.447531 
L 256.933134 176.929572 
L 257.469817 176.647215 
L 258.006499 176.085664 
L 258.543182 176.038513 
L 258.543182 176.038513 
" clip-path="url(#p51f15accf7)" style="fill: none; stroke: #0000ff; stroke-opacity: 0.5; stroke-linecap: square"/>
   </g>
   <g id="line2d_14">
    <path d="M 44.406818 180.687273 
L 103.978589 180.687273 
L 104.515271 180.293999 
L 105.051954 180.300898 
L 105.588636 179.927963 
L 106.125319 180.314163 
L 106.662002 179.953809 
L 107.198684 180.687273 
L 107.735367 179.978357 
L 108.272049 179.641622 
L 108.808732 180.001695 
L 109.345415 179.001427 
L 109.882097 178.697153 
L 110.41878 173.507857 
L 110.955463 173.943833 
L 111.492145 169.626602 
L 113.102193 152.95518 
L 113.638876 151.601015 
L 114.175558 147.076588 
L 114.712241 149.025056 
L 115.248923 151.769182 
L 116.322289 163.903599 
L 116.858971 172.554395 
L 117.395654 176.947338 
L 117.932337 176.738266 
L 118.469019 178.092488 
L 119.005702 179.919957 
L 119.542384 179.426552 
L 120.079067 180.190087 
L 120.61575 178.971459 
L 121.152432 178.995288 
L 121.689115 179.972139 
L 122.225797 179.981937 
L 122.76248 180.455359 
L 123.299163 180.000933 
L 123.835845 179.784437 
L 124.372528 178.460276 
L 124.909211 178.929272 
L 125.445893 175.699534 
L 126.519258 170.970041 
L 127.592624 168.130697 
L 128.129306 170.526118 
L 128.665989 166.240399 
L 129.202671 172.564066 
L 130.276037 178.368634 
L 130.812719 178.206424 
L 131.886085 180.501079 
L 132.95945 180.505551 
L 133.496132 180.328182 
L 134.032815 180.687273 
L 134.569498 180.687273 
L 135.10618 180.514027 
L 135.642863 180.516053 
L 136.179545 180.687273 
L 136.716228 180.352728 
L 137.252911 180.687273 
L 137.789593 180.523813 
L 138.326276 180.687273 
L 138.862959 180.527496 
L 139.399641 180.687273 
L 141.546372 180.687273 
L 142.619737 180.391635 
L 143.693102 180.397976 
L 144.229785 180.257968 
L 144.766467 179.271479 
L 145.30315 175.364191 
L 145.839833 161.282378 
L 146.376515 140.775176 
L 146.913198 143.633938 
L 147.44988 167.792549 
L 147.986563 177.762695 
L 148.523246 180.029412 
L 149.059928 180.687273 
L 149.596611 180.429458 
L 150.669976 180.687273 
L 151.206659 180.687273 
L 151.743341 180.563458 
L 152.280024 180.687273 
L 152.816707 180.44451 
L 153.353389 180.687273 
L 153.890072 180.687273 
L 154.426754 180.569409 
L 154.963437 180.687273 
L 155.50012 180.571671 
L 156.573485 180.573867 
L 157.110167 180.687273 
L 157.64685 180.353459 
L 158.183533 180.687273 
L 159.793581 180.687273 
L 160.866946 180.371624 
L 161.403628 180.687273 
L 161.940311 180.583965 
L 162.476994 180.175406 
L 163.013676 180.687273 
L 164.087041 180.58763 
L 164.623724 180.588515 
L 165.160407 180.295739 
L 165.697089 180.590252 
L 166.233772 179.72557 
L 167.307137 179.647762 
L 167.84382 178.43888 
L 168.380502 178.086766 
L 168.917185 175.438817 
L 169.453868 175.301098 
L 169.99055 171.907369 
L 170.527233 170.994582 
L 171.063915 170.720383 
L 171.600598 168.686342 
L 172.137281 171.411876 
L 172.673963 167.844674 
L 173.747329 171.470224 
L 174.284011 171.715377 
L 174.820694 172.628392 
L 175.357376 175.77485 
L 176.967424 177.518314 
L 177.504107 177.221354 
L 178.577472 176.324629 
L 179.114155 177.067472 
L 179.650837 177.564495 
L 180.18752 177.046903 
L 180.724203 177.843935 
L 181.260885 179.543573 
L 182.33425 179.486203 
L 182.870933 180.016887 
L 183.407616 180.09596 
L 183.944298 179.953796 
L 185.017663 180.542805 
L 185.554346 180.042091 
L 186.091029 180.118104 
L 186.627711 180.475439 
L 187.164394 179.776205 
L 187.701077 178.878729 
L 188.237759 178.754089 
L 188.774442 177.192198 
L 189.847807 171.773999 
L 190.38449 170.766821 
L 190.921172 167.844886 
L 191.457855 165.890486 
L 191.994537 166.522395 
L 193.067903 170.927183 
L 193.604585 170.61213 
L 194.141268 174.060947 
L 194.677951 174.550941 
L 195.214633 176.478851 
L 195.751316 177.132264 
L 196.287998 179.077107 
L 196.824681 180.010829 
L 197.361364 179.893429 
L 197.898046 180.323436 
L 198.434729 180.085094 
L 198.971411 180.448067 
L 199.508094 180.390329 
L 200.044777 180.628292 
L 200.581459 180.570119 
L 201.118142 180.629096 
L 201.654825 180.456148 
L 202.72819 180.630271 
L 203.264872 180.23433 
L 203.801555 180.631035 
L 204.87492 180.465315 
L 205.411603 180.46679 
L 205.948285 179.975448 
L 206.484968 179.164241 
L 207.021651 178.687928 
L 208.095016 176.90076 
L 208.631699 177.031405 
L 209.168381 176.160266 
L 209.705064 176.032679 
L 210.241746 177.413695 
L 210.778429 177.589627 
L 211.315112 178.225043 
L 211.851794 179.413057 
L 212.388477 178.864093 
L 212.925159 178.875659 
L 213.998525 177.954403 
L 214.535207 177.823459 
L 215.07189 177.350761 
L 215.608573 176.640223 
L 216.145255 176.713887 
L 216.681938 177.460896 
L 217.21862 178.485859 
L 217.755303 178.309203 
L 218.291986 179.741901 
L 218.828668 179.888634 
L 219.365351 180.313743 
L 219.902033 180.31602 
L 220.438716 180.548899 
L 222.585447 179.516713 
L 223.122129 178.360168 
L 224.195494 175.469345 
L 224.732177 174.665098 
L 225.26886 173.477191 
L 225.805542 173.432892 
L 226.342225 174.555132 
L 226.878907 176.179548 
L 227.41559 177.358269 
L 227.952273 179.244625 
L 229.562321 180.186907 
L 230.099003 180.231245 
L 230.635686 180.481179 
L 231.172368 180.441379 
L 231.709051 180.565028 
L 232.245734 180.363146 
L 232.782416 180.566415 
L 233.319099 180.40687 
L 234.392464 180.528846 
L 234.929147 180.372198 
L 236.002512 180.297823 
L 236.539195 179.912713 
L 237.075877 179.339318 
L 237.61256 178.274408 
L 238.149242 177.640238 
L 238.685925 175.232864 
L 239.222608 174.283412 
L 239.75929 170.909296 
L 240.295973 172.005957 
L 240.832656 172.683256 
L 241.369338 173.758647 
L 241.906021 176.32538 
L 242.442703 177.697854 
L 242.979386 177.713964 
L 243.516069 177.910268 
L 244.052751 177.530578 
L 244.589434 176.584114 
L 245.126116 176.464022 
L 245.662799 175.851092 
L 246.199482 176.649231 
L 247.80953 179.581335 
L 248.346212 179.759042 
L 248.882895 180.105887 
L 249.419577 179.802741 
L 249.95626 179.875034 
L 251.029625 179.113108 
L 251.566308 178.288237 
L 252.10299 175.947077 
L 253.176356 174.388003 
L 253.713038 172.755537 
L 254.249721 172.114063 
L 254.786404 171.220732 
L 255.323086 173.197501 
L 255.859769 174.41876 
L 256.396451 175.945993 
L 256.933134 176.539753 
L 257.469817 177.411125 
L 258.006499 179.02607 
L 258.543182 179.470994 
L 258.543182 179.470994 
" clip-path="url(#p51f15accf7)" style="fill: none; stroke: #ff0000; stroke-opacity: 0.5; stroke-linecap: square"/>
   </g>
   <g id="patch_3">
    <path d="M 33.7 188.6 
L 33.7 14.52 
" style="fill: none; stroke: #000000; stroke-width: 0.8; stroke-linejoin: miter; stroke-linecap: square"/>
   </g>
   <g id="patch_4">
    <path d="M 269.25 188.6 
L 269.25 14.52 
" style="fill: none; stroke: #000000; stroke-width: 0.8; stroke-linejoin: miter; stroke-linecap: square"/>
   </g>
   <g id="patch_5">
    <path d="M 33.7 188.6 
L 269.25 188.6 
" style="fill: none; stroke: #000000; stroke-width: 0.8; stroke-linejoin: miter; stroke-linecap: square"/>
   </g>
   <g id="patch_6">
    <path d="M 33.7 14.52 
L 269.25 14.52 
" style="fill: none; stroke: #000000; stroke-width: 0.8; stroke-linejoin: miter; stroke-linecap: square"/>
   </g>
   <g id="legend_1">
    <g id="patch_7">
     <path d="M 213.917188 66.554375 
L 262.25 66.554375 
Q 264.25 66.554375 264.25 64.554375 
L 264.25 21.52 
Q 264.25 19.52 262.25 19.52 
L 213.917188 19.52 
Q 211.917188 19.52 211.917188 21.52 
L 211.917188 64.554375 
Q 211.917188 66.554375 213.917188 66.554375 
z
" style="fill: #ffffff; opacity: 0.8; stroke: #cccccc; stroke-linejoin: miter"/>
    </g>
    <g id="line2d_15">
     <path d="M 215.917188 27.618438 
L 225.917188 27.618438 
L 235.917188 27.618438 
" style="fill: none; stroke: #000000; stroke-opacity: 0.5; stroke-width: 0.5; stroke-linecap: square"/>
    </g>
    <g id="text_14">
     <!-- all -->
     <g transform="translate(243.917188 31.118438) scale(0.1 -0.1)">
      <defs>
       <path id="DejaVuSans-61" d="M 2194 1759 
Q 1497 1759 1228 1600 
Q 959 1441 959 1056 
Q 959 750 1161 570 
Q 1363 391 1709 391 
Q 2188 391 2477 730 
Q 2766 1069 2766 1631 
L 2766 1759 
L 2194 1759 
z
M 3341 1997 
L 3341 0 
L 2766 0 
L 2766 531 
Q 2569 213 2275 61 
Q 1981 -91 1556 -91 
Q 1019 -91 701 211 
Q 384 513 384 1019 
Q 384 1609 779 1909 
Q 1175 2209 1959 2209 
L 2766 2209 
L 2766 2266 
Q 2766 2663 2505 2880 
Q 2244 3097 1772 3097 
Q 1472 3097 1187 3025 
Q 903 2953 641 2809 
L 641 3341 
Q 956 3463 1253 3523 
Q 1550 3584 1831 3584 
Q 2591 3584 2966 3190 
Q 3341 2797 3341 1997 
z
" transform="scale(0.015625)"/>
       <path id="DejaVuSans-6c" d="M 603 4863 
L 1178 4863 
L 1178 0 
L 603 0 
L 603 4863 
z
" transform="scale(0.015625)"/>
      </defs>
      <use xlink:href="#DejaVuSans-61"/>
      <use xlink:href="#DejaVuSans-6c" transform="translate(61.279297 0)"/>
      <use xlink:href="#DejaVuSans-6c" transform="translate(89.0625 0)"/>
     </g>
    </g>
    <g id="line2d_16">
     <path d="M 215.917188 42.296563 
L 225.917188 42.296563 
L 235.917188 42.296563 
" style="fill: none; stroke: #0000ff; stroke-opacity: 0.5; stroke-linecap: square"/>
    </g>
    <g id="text_15">
     <!-- 1-1 -->
     <g transform="translate(243.917188 45.796563) scale(0.1 -0.1)">
      <defs>
       <path id="DejaVuSans-2d" d="M 313 2009 
L 1997 2009 
L 1997 1497 
L 313 1497 
L 313 2009 
z
" transform="scale(0.015625)"/>
      </defs>
      <use xlink:href="#DejaVuSans-31"/>
      <use xlink:href="#DejaVuSans-2d" transform="translate(63.623047 0)"/>
      <use xlink:href="#DejaVuSans-31" transform="translate(99.707031 0)"/>
     </g>
    </g>
    <g id="line2d_17">
     <path d="M 215.917188 56.974688 
L 225.917188 56.974688 
L 235.917188 56.974688 
" style="fill: none; stroke: #ff0000; stroke-opacity: 0.5; stroke-linecap: square"/>
    </g>
    <g id="text_16">
     <!-- 2-2 -->
     <g transform="translate(243.917188 60.474688) scale(0.1 -0.1)">
      <use xlink:href="#DejaVuSans-32"/>
      <use xlink:href="#DejaVuSans-2d" transform="translate(63.623047 0)"/>
      <use xlink:href="#DejaVuSans-32" transform="translate(99.707031 0)"/>
     </g>
    </g>
   </g>
  </g>
 </g>
 <defs>
  <clipPath id="p51f15accf7">
   <rect x="33.7" y="14.52" width="235.55" height="174.08"/>
  </clipPath>
 </defs>
</svg>
