<?xml version="1.0" encoding="utf-8" standalone="no"?>
<!DOCTYPE svg PUBLIC "-//W3C//DTD SVG 1.1//EN"
  "http://www.w3.org/Graphics/SVG/1.1/DTD/svg11.dtd">
<svg xmlns:xlink="http://www.w3.org/1999/xlink" width="288pt" height="216pt" viewBox="0 0 288 216" xmlns="http://www.w3.org/2000/svg" version="1.1">
 <metadata>
  <rdf:RDF xmlns:dc="http://purl.org/dc/elements/1.1/" xmlns:cc="http://creativecommons.org/ns#" xmlns:rdf="http://www.w3.org/1999/02/22-rdf-syntax-ns#">
   <cc:Work>
    <dc:type rdf:resource="http://purl.org/dc/dcmitype/StillImage"/>
    <dc:date>2025-09-18T00:26:00.582084</dc:date>
    <dc:format>image/svg+xml</dc:format>
    <dc:creator>
     <cc:Agent>
      <dc:title>Matplotlib v3.10.0, https://matplotlib.org/</dc:title>
     </cc:Agent>
    </dc:creator>
   </cc:Work>
  </rdf:RDF>
 </metadata>
 <defs>
  <style type="text/css">*{stroke-linejoin: round; stroke-linecap: butt}</style>
 </defs>
 <g id="figure_1">
  <g id="patch_1">
   <path d="M 0 216 
L 288 216 
L 288 0 
L 0 0 
z
" style="fill: #ffffff"/>
  </g>
  <g id="axes_1">
   <g id="patch_2">
    <path d="M 33.7 188.6 
L 269.25 188.6 
L 269.25 14.52 
L 33.7 14.52 
z
" style="fill: #ffffff"/>
   </g>
   <g id="matplotlib.axis_1">
    <g id="xtick_1">
     <g id="line2d_1">
      <defs>
       <path id="m65c1e11315" d="M 0 0 
L 0 3.5 
" style="stroke: #000000; stroke-width: 0.8"/>
      </defs>
      <g>
       <use xlink:href="#m65c1e11315" x="44.138477" y="188.6" style="stroke: #000000; stroke-width: 0.8"/>
      </g>
     </g>
     <g id="text_1">
      <!-- 0 -->
      <g transform="translate(40.957227 203.198437) scale(0.1 -0.1)">
       <defs>
        <path id="DejaVuSans-30" d="M 2034 4250 
Q 1547 4250 1301 3770 
Q 1056 3291 1056 2328 
Q 1056 1369 1301 889 
Q 1547 409 2034 409 
Q 2525 409 2770 889 
Q 3016 1369 3016 2328 
Q 3016 3291 2770 3770 
Q 2525 4250 2034 4250 
z
M 2034 4750 
Q 2819 4750 3233 4129 
Q 3647 3509 3647 2328 
Q 3647 1150 3233 529 
Q 2819 -91 2034 -91 
Q 1250 -91 836 529 
Q 422 1150 422 2328 
Q 422 3509 836 4129 
Q 1250 4750 2034 4750 
z
" transform="scale(0.015625)"/>
       </defs>
       <use xlink:href="#DejaVuSans-30"/>
      </g>
     </g>
    </g>
    <g id="xtick_2">
     <g id="line2d_2">
      <g>
       <use xlink:href="#m65c1e11315" x="87.073086" y="188.6" style="stroke: #000000; stroke-width: 0.8"/>
      </g>
     </g>
     <g id="text_2">
      <!-- 200 -->
      <g transform="translate(77.529336 203.198437) scale(0.1 -0.1)">
       <defs>
        <path id="DejaVuSans-32" d="M 1228 531 
L 3431 531 
L 3431 0 
L 469 0 
L 469 531 
Q 828 903 1448 1529 
Q 2069 2156 2228 2338 
Q 2531 2678 2651 2914 
Q 2772 3150 2772 3378 
Q 2772 3750 2511 3984 
Q 2250 4219 1831 4219 
Q 1534 4219 1204 4116 
Q 875 4013 500 3803 
L 500 4441 
Q 881 4594 1212 4672 
Q 1544 4750 1819 4750 
Q 2544 4750 2975 4387 
Q 3406 4025 3406 3419 
Q 3406 3131 3298 2873 
Q 3191 2616 2906 2266 
Q 2828 2175 2409 1742 
Q 1991 1309 1228 531 
z
" transform="scale(0.015625)"/>
       </defs>
       <use xlink:href="#DejaVuSans-32"/>
       <use xlink:href="#DejaVuSans-30" transform="translate(63.623047 0)"/>
       <use xlink:href="#DejaVuSans-30" transform="translate(127.246094 0)"/>
      </g>
     </g>
    </g>
    <g id="xtick_3">
     <g id="line2d_3">
      <g>
       <use xlink:href="#m65c1e11315" x="130.007695" y="188.6" style="stroke: #000000; stroke-width: 0.8"/>
      </g>
     </g>
     <g id="text_3">
      <!-- 400 -->
      <g transform="translate(120.463945 203.198437) scale(0.1 -0.1)">
       <defs>
        <path id="DejaVuSans-34" d="M 2419 4116 
L 825 1625 
L 2419 1625 
L 2419 4116 
z
M 2253 4666 
L 3047 4666 
L 3047 1625 
L 3713 1625 
L 3713 1100 
L 3047 1100 
L 3047 0 
L 2419 0 
L 2419 1100 
L 313 1100 
L 313 1709 
L 2253 4666 
z
" transform="scale(0.015625)"/>
       </defs>
       <use xlink:href="#DejaVuSans-34"/>
       <use xlink:href="#DejaVuSans-30" transform="translate(63.623047 0)"/>
       <use xlink:href="#DejaVuSans-30" transform="translate(127.246094 0)"/>
      </g>
     </g>
    </g>
    <g id="xtick_4">
     <g id="line2d_4">
      <g>
       <use xlink:href="#m65c1e11315" x="172.942305" y="188.6" style="stroke: #000000; stroke-width: 0.8"/>
      </g>
     </g>
     <g id="text_4">
      <!-- 600 -->
      <g transform="translate(163.398555 203.198437) scale(0.1 -0.1)">
       <defs>
        <path id="DejaVuSans-36" d="M 2113 2584 
Q 1688 2584 1439 2293 
Q 1191 2003 1191 1497 
Q 1191 994 1439 701 
Q 1688 409 2113 409 
Q 2538 409 2786 701 
Q 3034 994 3034 1497 
Q 3034 2003 2786 2293 
Q 2538 2584 2113 2584 
z
M 3366 4563 
L 3366 3988 
Q 3128 4100 2886 4159 
Q 2644 4219 2406 4219 
Q 1781 4219 1451 3797 
Q 1122 3375 1075 2522 
Q 1259 2794 1537 2939 
Q 1816 3084 2150 3084 
Q 2853 3084 3261 2657 
Q 3669 2231 3669 1497 
Q 3669 778 3244 343 
Q 2819 -91 2113 -91 
Q 1303 -91 875 529 
Q 447 1150 447 2328 
Q 447 3434 972 4092 
Q 1497 4750 2381 4750 
Q 2619 4750 2861 4703 
Q 3103 4656 3366 4563 
z
" transform="scale(0.015625)"/>
       </defs>
       <use xlink:href="#DejaVuSans-36"/>
       <use xlink:href="#DejaVuSans-30" transform="translate(63.623047 0)"/>
       <use xlink:href="#DejaVuSans-30" transform="translate(127.246094 0)"/>
      </g>
     </g>
    </g>
    <g id="xtick_5">
     <g id="line2d_5">
      <g>
       <use xlink:href="#m65c1e11315" x="215.876914" y="188.6" style="stroke: #000000; stroke-width: 0.8"/>
      </g>
     </g>
     <g id="text_5">
      <!-- 800 -->
      <g transform="translate(206.333164 203.198437) scale(0.1 -0.1)">
       <defs>
        <path id="DejaVuSans-38" d="M 2034 2216 
Q 1584 2216 1326 1975 
Q 1069 1734 1069 1313 
Q 1069 891 1326 650 
Q 1584 409 2034 409 
Q 2484 409 2743 651 
Q 3003 894 3003 1313 
Q 3003 1734 2745 1975 
Q 2488 2216 2034 2216 
z
M 1403 2484 
Q 997 2584 770 2862 
Q 544 3141 544 3541 
Q 544 4100 942 4425 
Q 1341 4750 2034 4750 
Q 2731 4750 3128 4425 
Q 3525 4100 3525 3541 
Q 3525 3141 3298 2862 
Q 3072 2584 2669 2484 
Q 3125 2378 3379 2068 
Q 3634 1759 3634 1313 
Q 3634 634 3220 271 
Q 2806 -91 2034 -91 
Q 1263 -91 848 271 
Q 434 634 434 1313 
Q 434 1759 690 2068 
Q 947 2378 1403 2484 
z
M 1172 3481 
Q 1172 3119 1398 2916 
Q 1625 2713 2034 2713 
Q 2441 2713 2670 2916 
Q 2900 3119 2900 3481 
Q 2900 3844 2670 4047 
Q 2441 4250 2034 4250 
Q 1625 4250 1398 4047 
Q 1172 3844 1172 3481 
z
" transform="scale(0.015625)"/>
       </defs>
       <use xlink:href="#DejaVuSans-38"/>
       <use xlink:href="#DejaVuSans-30" transform="translate(63.623047 0)"/>
       <use xlink:href="#DejaVuSans-30" transform="translate(127.246094 0)"/>
      </g>
     </g>
    </g>
    <g id="xtick_6">
     <g id="line2d_6">
      <g>
       <use xlink:href="#m65c1e11315" x="258.811523" y="188.6" style="stroke: #000000; stroke-width: 0.8"/>
      </g>
     </g>
     <g id="text_6">
      <!-- 1000 -->
      <g transform="translate(246.086523 203.198437) scale(0.1 -0.1)">
       <defs>
        <path id="DejaVuSans-31" d="M 794 531 
L 1825 531 
L 1825 4091 
L 703 3866 
L 703 4441 
L 1819 4666 
L 2450 4666 
L 2450 531 
L 3481 531 
L 3481 0 
L 794 0 
L 794 531 
z
" transform="scale(0.015625)"/>
       </defs>
       <use xlink:href="#DejaVuSans-31"/>
       <use xlink:href="#DejaVuSans-30" transform="translate(63.623047 0)"/>
       <use xlink:href="#DejaVuSans-30" transform="translate(127.246094 0)"/>
       <use xlink:href="#DejaVuSans-30" transform="translate(190.869141 0)"/>
      </g>
     </g>
    </g>
    <g id="text_7">
     <!-- q (nm) -->
     <g transform="translate(134.771094 216.876563) scale(0.1 -0.1)">
      <defs>
       <path id="DejaVuSans-71" d="M 947 1747 
Q 947 1113 1208 752 
Q 1469 391 1925 391 
Q 2381 391 2643 752 
Q 2906 1113 2906 1747 
Q 2906 2381 2643 2742 
Q 2381 3103 1925 3103 
Q 1469 3103 1208 2742 
Q 947 2381 947 1747 
z
M 2906 525 
Q 2725 213 2448 61 
Q 2172 -91 1784 -91 
Q 1150 -91 751 415 
Q 353 922 353 1747 
Q 353 2572 751 3078 
Q 1150 3584 1784 3584 
Q 2172 3584 2448 3432 
Q 2725 3281 2906 2969 
L 2906 3500 
L 3481 3500 
L 3481 -1331 
L 2906 -1331 
L 2906 525 
z
" transform="scale(0.015625)"/>
       <path id="DejaVuSans-20" transform="scale(0.015625)"/>
       <path id="DejaVuSans-28" d="M 1984 4856 
Q 1566 4138 1362 3434 
Q 1159 2731 1159 2009 
Q 1159 1288 1364 580 
Q 1569 -128 1984 -844 
L 1484 -844 
Q 1016 -109 783 600 
Q 550 1309 550 2009 
Q 550 2706 781 3412 
Q 1013 4119 1484 4856 
L 1984 4856 
z
" transform="scale(0.015625)"/>
       <path id="DejaVuSans-6e" d="M 3513 2113 
L 3513 0 
L 2938 0 
L 2938 2094 
Q 2938 2591 2744 2837 
Q 2550 3084 2163 3084 
Q 1697 3084 1428 2787 
Q 1159 2491 1159 1978 
L 1159 0 
L 581 0 
L 581 3500 
L 1159 3500 
L 1159 2956 
Q 1366 3272 1645 3428 
Q 1925 3584 2291 3584 
Q 2894 3584 3203 3211 
Q 3513 2838 3513 2113 
z
" transform="scale(0.015625)"/>
       <path id="DejaVuSans-6d" d="M 3328 2828 
Q 3544 3216 3844 3400 
Q 4144 3584 4550 3584 
Q 5097 3584 5394 3201 
Q 5691 2819 5691 2113 
L 5691 0 
L 5113 0 
L 5113 2094 
Q 5113 2597 4934 2840 
Q 4756 3084 4391 3084 
Q 3944 3084 3684 2787 
Q 3425 2491 3425 1978 
L 3425 0 
L 2847 0 
L 2847 2094 
Q 2847 2600 2669 2842 
Q 2491 3084 2119 3084 
Q 1678 3084 1418 2786 
Q 1159 2488 1159 1978 
L 1159 0 
L 581 0 
L 581 3500 
L 1159 3500 
L 1159 2956 
Q 1356 3278 1631 3431 
Q 1906 3584 2284 3584 
Q 2666 3584 2933 3390 
Q 3200 3197 3328 2828 
z
" transform="scale(0.015625)"/>
       <path id="DejaVuSans-29" d="M 513 4856 
L 1013 4856 
Q 1481 4119 1714 3412 
Q 1947 2706 1947 2009 
Q 1947 1309 1714 600 
Q 1481 -109 1013 -844 
L 513 -844 
Q 928 -128 1133 580 
Q 1338 1288 1338 2009 
Q 1338 2731 1133 3434 
Q 928 4138 513 4856 
z
" transform="scale(0.015625)"/>
      </defs>
      <use xlink:href="#DejaVuSans-71"/>
      <use xlink:href="#DejaVuSans-20" transform="translate(63.476562 0)"/>
      <use xlink:href="#DejaVuSans-28" transform="translate(95.263672 0)"/>
      <use xlink:href="#DejaVuSans-6e" transform="translate(134.277344 0)"/>
      <use xlink:href="#DejaVuSans-6d" transform="translate(197.65625 0)"/>
      <use xlink:href="#DejaVuSans-29" transform="translate(295.068359 0)"/>
     </g>
    </g>
   </g>
   <g id="matplotlib.axis_2">
    <g id="ytick_1">
     <g id="line2d_7">
      <defs>
       <path id="mb5312318ad" d="M 0 0 
L -3.5 0 
" style="stroke: #000000; stroke-width: 0.8"/>
      </defs>
      <g>
       <use xlink:href="#mb5312318ad" x="33.7" y="180.687273" style="stroke: #000000; stroke-width: 0.8"/>
      </g>
     </g>
     <g id="text_8">
      <!-- 0 -->
      <g transform="translate(20.3375 184.486491) scale(0.1 -0.1)">
       <use xlink:href="#DejaVuSans-30"/>
      </g>
     </g>
    </g>
    <g id="ytick_2">
     <g id="line2d_8">
      <g>
       <use xlink:href="#mb5312318ad" x="33.7" y="141.523213" style="stroke: #000000; stroke-width: 0.8"/>
      </g>
     </g>
     <g id="text_9">
      <!-- 20000 -->
      <g transform="translate(-5.1125 145.322432) scale(0.1 -0.1)">
       <use xlink:href="#DejaVuSans-32"/>
       <use xlink:href="#DejaVuSans-30" transform="translate(63.623047 0)"/>
       <use xlink:href="#DejaVuSans-30" transform="translate(127.246094 0)"/>
       <use xlink:href="#DejaVuSans-30" transform="translate(190.869141 0)"/>
       <use xlink:href="#DejaVuSans-30" transform="translate(254.492188 0)"/>
      </g>
     </g>
    </g>
    <g id="ytick_3">
     <g id="line2d_9">
      <g>
       <use xlink:href="#mb5312318ad" x="33.7" y="102.359153" style="stroke: #000000; stroke-width: 0.8"/>
      </g>
     </g>
     <g id="text_10">
      <!-- 40000 -->
      <g transform="translate(-5.1125 106.158372) scale(0.1 -0.1)">
       <use xlink:href="#DejaVuSans-34"/>
       <use xlink:href="#DejaVuSans-30" transform="translate(63.623047 0)"/>
       <use xlink:href="#DejaVuSans-30" transform="translate(127.246094 0)"/>
       <use xlink:href="#DejaVuSans-30" transform="translate(190.869141 0)"/>
       <use xlink:href="#DejaVuSans-30" transform="translate(254.492188 0)"/>
      </g>
     </g>
    </g>
    <g id="ytick_4">
     <g id="line2d_10">
      <g>
       <use xlink:href="#mb5312318ad" x="33.7" y="63.195094" style="stroke: #000000; stroke-width: 0.8"/>
      </g>
     </g>
     <g id="text_11">
      <!-- 60000 -->
      <g transform="translate(-5.1125 66.994312) scale(0.1 -0.1)">
       <use xlink:href="#DejaVuSans-36"/>
       <use xlink:href="#DejaVuSans-30" transform="translate(63.623047 0)"/>
       <use xlink:href="#DejaVuSans-30" transform="translate(127.246094 0)"/>
       <use xlink:href="#DejaVuSans-30" transform="translate(190.869141 0)"/>
       <use xlink:href="#DejaVuSans-30" transform="translate(254.492188 0)"/>
      </g>
     </g>
    </g>
    <g id="ytick_5">
     <g id="line2d_11">
      <g>
       <use xlink:href="#mb5312318ad" x="33.7" y="24.031034" style="stroke: #000000; stroke-width: 0.8"/>
      </g>
     </g>
     <g id="text_12">
      <!-- 80000 -->
      <g transform="translate(-5.1125 27.830253) scale(0.1 -0.1)">
       <use xlink:href="#DejaVuSans-38"/>
       <use xlink:href="#DejaVuSans-30" transform="translate(63.623047 0)"/>
       <use xlink:href="#DejaVuSans-30" transform="translate(127.246094 0)"/>
       <use xlink:href="#DejaVuSans-30" transform="translate(190.869141 0)"/>
       <use xlink:href="#DejaVuSans-30" transform="translate(254.492188 0)"/>
      </g>
     </g>
    </g>
    <g id="text_13">
     <!-- rdf -->
     <g transform="translate(-11.192187 108.462344) rotate(-90) scale(0.1 -0.1)">
      <defs>
       <path id="DejaVuSans-72" d="M 2631 2963 
Q 2534 3019 2420 3045 
Q 2306 3072 2169 3072 
Q 1681 3072 1420 2755 
Q 1159 2438 1159 1844 
L 1159 0 
L 581 0 
L 581 3500 
L 1159 3500 
L 1159 2956 
Q 1341 3275 1631 3429 
Q 1922 3584 2338 3584 
Q 2397 3584 2469 3576 
Q 2541 3569 2628 3553 
L 2631 2963 
z
" transform="scale(0.015625)"/>
       <path id="DejaVuSans-64" d="M 2906 2969 
L 2906 4863 
L 3481 4863 
L 3481 0 
L 2906 0 
L 2906 525 
Q 2725 213 2448 61 
Q 2172 -91 1784 -91 
Q 1150 -91 751 415 
Q 353 922 353 1747 
Q 353 2572 751 3078 
Q 1150 3584 1784 3584 
Q 2172 3584 2448 3432 
Q 2725 3281 2906 2969 
z
M 947 1747 
Q 947 1113 1208 752 
Q 1469 391 1925 391 
Q 2381 391 2643 752 
Q 2906 1113 2906 1747 
Q 2906 2381 2643 2742 
Q 2381 3103 1925 3103 
Q 1469 3103 1208 2742 
Q 947 2381 947 1747 
z
" transform="scale(0.015625)"/>
       <path id="DejaVuSans-66" d="M 2375 4863 
L 2375 4384 
L 1825 4384 
Q 1516 4384 1395 4259 
Q 1275 4134 1275 3809 
L 1275 3500 
L 2222 3500 
L 2222 3053 
L 1275 3053 
L 1275 0 
L 697 0 
L 697 3053 
L 147 3053 
L 147 3500 
L 697 3500 
L 697 3744 
Q 697 4328 969 4595 
Q 1241 4863 1831 4863 
L 2375 4863 
z
" transform="scale(0.015625)"/>
      </defs>
      <use xlink:href="#DejaVuSans-72"/>
      <use xlink:href="#DejaVuSans-64" transform="translate(39.363281 0)"/>
      <use xlink:href="#DejaVuSans-66" transform="translate(102.839844 0)"/>
     </g>
    </g>
   </g>
   <g id="line2d_12">
    <path d="M 44.406818 180.687273 
L 92.708254 180.687273 
L 93.244936 180.349634 
L 93.781619 180.467021 
L 94.318301 180.040574 
L 94.854984 179.104562 
L 95.391667 154.961632 
L 95.928349 22.432727 
L 96.465032 161.457817 
L 97.001715 175.734232 
L 97.538397 177.26093 
L 98.07508 177.515361 
L 98.611762 176.388543 
L 99.148445 177.996679 
L 99.685128 176.904913 
L 100.22181 178.012396 
L 100.758493 177.385601 
L 101.831858 178.811911 
L 102.368541 179.086442 
L 102.905223 178.408271 
L 103.441906 178.758011 
L 105.051954 179.297521 
L 105.588636 179.034202 
L 106.125319 178.921433 
L 106.662002 179.021044 
L 107.198684 177.957288 
L 107.735367 178.607092 
L 108.808732 177.50749 
L 109.345415 178.708553 
L 109.882097 177.296517 
L 110.41878 177.907216 
L 110.955463 177.70853 
L 111.492145 177.935288 
L 112.028828 176.506529 
L 112.56551 175.876296 
L 113.102193 175.893817 
L 113.638876 174.78763 
L 114.175558 175.320342 
L 114.712241 175.510645 
L 115.248923 174.837073 
L 115.785606 175.135878 
L 116.322289 175.947328 
L 116.858971 174.887965 
L 117.395654 175.326634 
L 117.932337 176.301421 
L 118.469019 176.364537 
L 119.005702 176.571549 
L 120.079067 178.522456 
L 120.61575 177.949491 
L 121.152432 178.948444 
L 121.689115 178.882176 
L 122.225797 179.173961 
L 122.76248 179.721392 
L 123.299163 179.517892 
L 123.835845 179.661775 
L 124.372528 179.253854 
L 124.909211 178.690425 
L 125.445893 178.675649 
L 125.982576 178.945044 
L 126.519258 177.887921 
L 127.055941 177.371396 
L 127.592624 176.634526 
L 128.129306 176.339906 
L 129.202671 176.786491 
L 129.739354 177.538988 
L 130.276037 177.175732 
L 131.886085 178.678109 
L 132.422767 179.015851 
L 132.95945 178.863976 
L 133.496132 179.259702 
L 134.032815 178.840095 
L 134.569498 178.762388 
L 135.10618 178.227485 
L 135.642863 176.927292 
L 136.179545 176.298241 
L 136.716228 176.095646 
L 137.252911 175.616268 
L 138.326276 173.803852 
L 138.862959 173.942113 
L 139.399641 174.436612 
L 139.936324 173.767097 
L 140.473006 175.072281 
L 141.009689 175.568148 
L 141.546372 175.824638 
L 142.083054 176.330428 
L 142.619737 176.37779 
L 143.693102 177.510787 
L 144.229785 176.894586 
L 144.766467 176.640101 
L 145.30315 175.383509 
L 145.839833 172.7629 
L 146.376515 169.288693 
L 146.913198 169.510187 
L 147.986563 175.779892 
L 148.523246 176.65218 
L 149.059928 176.07701 
L 149.596611 176.465469 
L 150.133293 176.628901 
L 150.669976 177.076225 
L 151.206659 177.278062 
L 151.743341 177.780775 
L 152.816707 177.401308 
L 153.353389 178.252644 
L 153.890072 177.848301 
L 154.426754 178.500622 
L 154.963437 178.344965 
L 155.50012 178.389385 
L 156.573485 178.819487 
L 157.110167 178.454415 
L 157.64685 178.433339 
L 158.183533 178.642318 
L 158.720215 178.620085 
L 159.256898 179.151304 
L 160.330263 178.797588 
L 160.866946 179.312893 
L 161.403628 179.088602 
L 161.940311 179.416052 
L 164.087041 178.008661 
L 164.623724 177.322025 
L 165.160407 177.147977 
L 165.697089 177.417923 
L 166.233772 176.536295 
L 167.307137 177.234498 
L 167.84382 176.98062 
L 168.380502 177.100491 
L 168.917185 177.061549 
L 169.453868 176.6432 
L 169.99055 176.574791 
L 170.527233 175.913061 
L 171.600598 175.475262 
L 172.137281 176.032401 
L 172.673963 175.693377 
L 173.210646 175.637069 
L 173.747329 176.163499 
L 174.284011 176.328924 
L 174.820694 176.793736 
L 175.357376 176.462988 
L 176.430742 177.275617 
L 176.967424 177.256977 
L 177.504107 177.39134 
L 178.040789 177.402571 
L 178.577472 177.548875 
L 179.114155 177.4695 
L 179.650837 177.95309 
L 180.724203 178.257768 
L 181.260885 178.984026 
L 181.797568 179.025925 
L 182.33425 178.925115 
L 183.407616 179.148074 
L 184.480981 178.813259 
L 185.554346 178.163053 
L 186.091029 178.006999 
L 186.627711 177.586024 
L 187.164394 178.033817 
L 188.774442 176.431928 
L 189.311124 176.424702 
L 190.38449 176.055606 
L 190.921172 176.467317 
L 191.457855 176.43547 
L 191.994537 176.093859 
L 192.53122 177.137678 
L 193.067903 177.664896 
L 193.604585 177.965986 
L 194.677951 177.980697 
L 195.751316 177.050709 
L 196.287998 176.6777 
L 196.824681 177.252991 
L 197.361364 177.311686 
L 197.898046 177.633678 
L 198.434729 177.518105 
L 199.508094 178.045187 
L 200.044777 178.163837 
L 200.581459 178.158935 
L 201.118142 178.583696 
L 201.654825 178.280781 
L 202.191507 178.460064 
L 203.264872 178.307798 
L 203.801555 178.036311 
L 204.338238 178.360723 
L 204.87492 177.819483 
L 205.411603 177.984627 
L 205.948285 177.805572 
L 206.484968 177.824608 
L 207.021651 177.485393 
L 208.095016 177.446409 
L 208.631699 176.966013 
L 209.168381 176.960276 
L 209.705064 177.202222 
L 210.241746 176.978774 
L 210.778429 177.061262 
L 211.851794 177.512786 
L 212.388477 177.226215 
L 212.925159 177.133853 
L 213.998525 177.639547 
L 214.535207 177.574585 
L 215.608573 177.991906 
L 216.145255 178.036214 
L 217.21862 178.331726 
L 218.291986 177.975894 
L 218.828668 177.885798 
L 220.438716 178.224888 
L 220.975399 177.736446 
L 221.512081 177.969913 
L 222.048764 177.917709 
L 223.122129 178.179553 
L 224.195494 178.192638 
L 224.732177 177.550025 
L 225.805542 178.211988 
L 226.342225 178.251063 
L 226.878907 178.541683 
L 227.952273 178.815678 
L 228.488955 179.130018 
L 229.562321 178.974338 
L 230.099003 178.819386 
L 231.709051 178.85132 
L 232.782416 178.711992 
L 233.319099 179.109942 
L 233.855781 178.809695 
L 234.392464 179.082705 
L 237.075877 178.376053 
L 237.61256 177.953839 
L 238.149242 177.803095 
L 238.685925 177.309886 
L 239.222608 177.000399 
L 240.832656 176.899162 
L 241.369338 176.780196 
L 241.906021 177.328752 
L 242.979386 177.48161 
L 244.052751 177.950557 
L 244.589434 178.201605 
L 246.199482 178.207816 
L 246.736164 178.45235 
L 247.272847 178.385233 
L 247.80953 178.580532 
L 248.882895 178.498973 
L 249.419577 178.420243 
L 249.95626 178.118112 
L 251.029625 178.265182 
L 251.566308 177.993836 
L 252.639673 177.865412 
L 253.713038 177.888067 
L 254.249721 177.711775 
L 254.786404 177.7575 
L 255.323086 177.388999 
L 256.396451 177.578896 
L 256.933134 177.930191 
L 258.006499 177.773854 
L 258.543182 178.307977 
L 258.543182 178.307977 
" clip-path="url(#p850ec5ee89)" style="fill: none; stroke: #000000; stroke-opacity: 0.5; stroke-width: 0.5; stroke-linecap: square"/>
   </g>
   <g id="line2d_13">
    <path d="M 44.406818 180.687273 
L 92.708254 180.687273 
L 93.244936 179.653253 
L 93.781619 180.01275 
L 94.318301 178.706759 
L 94.854984 175.84022 
L 95.391667 175.624796 
L 95.928349 174.179762 
L 96.465032 175.223231 
L 97.538397 173.108868 
L 98.07508 172.687523 
L 98.611762 167.802516 
L 99.148445 172.721995 
L 99.685128 169.373177 
L 100.22181 172.495462 
L 100.758493 170.575902 
L 101.295175 173.309099 
L 101.831858 175.193686 
L 102.368541 175.784728 
L 102.905223 174.670512 
L 103.441906 174.778908 
L 103.978589 177.437678 
L 104.515271 176.811172 
L 105.051954 177.327181 
L 105.588636 177.385623 
L 106.125319 176.360964 
L 106.662002 176.647535 
L 107.198684 174.834868 
L 107.735367 174.933224 
L 108.272049 175.837433 
L 108.808732 173.731497 
L 109.345415 176.973184 
L 109.882097 174.341379 
L 110.955463 177.336187 
L 111.492145 177.389378 
L 112.56551 177.847057 
L 113.102193 177.366805 
L 113.638876 178.278251 
L 114.175558 176.281686 
L 114.712241 175.847806 
L 115.248923 174.934353 
L 115.785606 172.915319 
L 116.322289 172.87092 
L 116.858971 170.471124 
L 117.395654 169.226376 
L 117.932337 171.37668 
L 118.469019 169.855871 
L 119.542384 172.208605 
L 120.079067 175.066397 
L 120.61575 174.434456 
L 121.152432 177.464148 
L 121.689115 177.508609 
L 123.299163 179.228253 
L 124.372528 179.912594 
L 124.909211 179.031033 
L 125.445893 179.681461 
L 125.982576 179.322358 
L 126.519258 179.952443 
L 127.055941 179.841033 
L 127.592624 180.209906 
L 128.129306 179.626881 
L 129.202671 180.342672 
L 129.739354 180.006688 
L 130.276037 180.239185 
L 130.812719 179.359606 
L 131.349402 180.031585 
L 131.886085 180.255479 
L 132.422767 180.260712 
L 132.95945 178.790871 
L 133.496132 179.854523 
L 134.032815 177.910209 
L 134.569498 177.943066 
L 135.10618 176.267853 
L 135.642863 173.043734 
L 136.716228 171.280375 
L 137.252911 169.758788 
L 137.789593 167.325002 
L 138.326276 166.821002 
L 138.862959 167.718718 
L 139.399641 168.230812 
L 139.936324 166.830285 
L 140.473006 171.641504 
L 141.009689 172.804326 
L 141.546372 174.993341 
L 142.619737 177.430675 
L 143.156419 178.652708 
L 143.693102 179.010033 
L 144.229785 178.779077 
L 144.766467 179.209787 
L 145.30315 178.981781 
L 146.376515 173.133116 
L 146.913198 171.480629 
L 147.986563 178.99171 
L 148.523246 179.924466 
L 149.059928 180.309761 
L 150.133293 180.39135 
L 150.669976 180.321086 
L 151.206659 180.397253 
L 152.280024 180.189763 
L 152.816707 180.476155 
L 153.353389 180.199494 
L 153.890072 180.273256 
L 154.426754 180.482274 
L 155.50012 179.883012 
L 156.036802 180.488131 
L 156.573485 180.292783 
L 157.110167 180.361647 
L 157.64685 180.106674 
L 158.183533 180.048224 
L 159.256898 180.373679 
L 159.793581 180.065892 
L 160.330263 180.256314 
L 160.866946 180.077267 
L 161.403628 179.720175 
L 161.940311 180.20812 
L 163.013676 179.275654 
L 163.550359 179.579766 
L 164.087041 179.011961 
L 164.623724 178.74057 
L 165.160407 178.928048 
L 166.233772 177.063132 
L 166.770455 177.039536 
L 167.307137 176.742522 
L 167.84382 176.124897 
L 168.380502 176.164235 
L 168.917185 175.081999 
L 169.453868 173.64795 
L 169.99055 173.970218 
L 170.527233 171.893846 
L 171.600598 171.785509 
L 172.137281 172.519505 
L 173.210646 171.207958 
L 174.820694 174.798298 
L 175.357376 174.942914 
L 175.894059 175.229005 
L 176.430742 176.792945 
L 176.967424 176.777235 
L 177.504107 177.135752 
L 178.040789 177.998585 
L 178.577472 178.34192 
L 179.114155 177.858687 
L 180.18752 178.980868 
L 180.724203 178.637832 
L 181.260885 179.405327 
L 181.797568 179.195998 
L 182.33425 178.728827 
L 182.870933 178.873503 
L 183.407616 178.716049 
L 184.480981 177.775489 
L 185.017663 178.090795 
L 185.554346 177.611728 
L 186.091029 178.129901 
L 186.627711 177.207558 
L 187.164394 178.086886 
L 187.701077 177.461034 
L 188.237759 177.805242 
L 188.774442 178.382834 
L 189.311124 178.518159 
L 190.38449 179.210532 
L 190.921172 178.758375 
L 191.457855 178.083044 
L 193.067903 177.464526 
L 193.604585 177.822481 
L 194.141268 177.916815 
L 195.214633 177.191311 
L 195.751316 177.360643 
L 196.287998 176.881402 
L 196.824681 176.587235 
L 197.361364 176.155663 
L 197.898046 175.905986 
L 198.434729 176.113781 
L 198.971411 176.83883 
L 199.508094 176.280048 
L 200.044777 177.609742 
L 200.581459 177.189323 
L 201.654825 177.337327 
L 202.191507 177.759308 
L 202.72819 176.787678 
L 203.264872 176.912401 
L 203.801555 176.905127 
L 204.338238 177.383837 
L 204.87492 177.01981 
L 205.411603 177.459619 
L 205.948285 177.480991 
L 206.484968 177.849064 
L 207.021651 177.491786 
L 208.095016 178.151877 
L 209.168381 177.84905 
L 209.705064 178.170635 
L 210.241746 178.156739 
L 210.778429 178.53219 
L 211.315112 178.694705 
L 211.851794 179.180236 
L 212.388477 178.573247 
L 212.925159 179.374389 
L 214.535207 179.484962 
L 215.07189 180.004548 
L 215.608573 179.58478 
L 216.145255 180.041134 
L 216.681938 179.626372 
L 217.755303 179.418852 
L 218.291986 178.686736 
L 218.828668 178.235982 
L 219.365351 178.034426 
L 219.902033 177.700835 
L 220.438716 178.039881 
L 220.975399 177.444617 
L 221.512081 177.675531 
L 222.048764 177.378587 
L 222.585447 177.946579 
L 223.122129 178.222442 
L 223.658812 177.979273 
L 224.195494 177.99539 
L 224.732177 177.272291 
L 225.26886 178.027183 
L 226.342225 178.008361 
L 228.488955 178.828549 
L 229.025638 179.106794 
L 229.562321 178.318173 
L 230.099003 178.211636 
L 230.635686 178.32146 
L 231.172368 177.741033 
L 231.709051 177.781472 
L 232.245734 178.079923 
L 232.782416 178.048004 
L 233.319099 178.945479 
L 233.855781 178.585837 
L 234.392464 178.78138 
L 234.929147 178.769247 
L 235.465829 179.120574 
L 236.539195 178.756309 
L 237.61256 177.689649 
L 238.149242 177.352892 
L 238.685925 177.327364 
L 239.222608 177.018227 
L 240.295973 176.73423 
L 240.832656 176.326121 
L 241.369338 176.435274 
L 241.906021 176.819595 
L 242.442703 177.030736 
L 243.516069 177.279079 
L 244.589434 178.246354 
L 245.126116 178.300513 
L 245.662799 178.088092 
L 246.199482 178.285091 
L 246.736164 178.682537 
L 247.272847 178.572273 
L 247.80953 178.823837 
L 248.346212 178.813699 
L 248.882895 178.922633 
L 249.419577 178.359863 
L 249.95626 178.215016 
L 251.029625 178.337702 
L 251.566308 178.620281 
L 252.10299 178.496406 
L 252.639673 178.08704 
L 253.176356 178.651995 
L 253.713038 178.605633 
L 254.249721 178.333848 
L 254.786404 178.195972 
L 255.323086 177.779985 
L 255.859769 177.68345 
L 256.396451 177.145168 
L 256.933134 177.328203 
L 258.006499 176.562278 
L 258.543182 176.92645 
L 258.543182 176.92645 
" clip-path="url(#p850ec5ee89)" style="fill: none; stroke: #0000ff; stroke-opacity: 0.5; stroke-linecap: square"/>
   </g>
   <g id="line2d_14">
    <path d="M 44.406818 180.687273 
L 101.295175 180.687273 
L 101.831858 180.243347 
L 102.368541 180.687273 
L 102.905223 179.831556 
L 103.441906 180.687273 
L 103.978589 178.211391 
L 104.515271 178.660553 
L 105.051954 179.492574 
L 105.588636 177.556821 
L 106.125319 179.14903 
L 106.662002 179.175324 
L 107.198684 177.714623 
L 107.735367 179.591264 
L 108.272049 174.580067 
L 108.808732 175.740944 
L 109.345415 176.517068 
L 109.882097 174.191813 
L 110.41878 173.960222 
L 110.955463 170.758131 
L 111.492145 171.56717 
L 112.028828 164.337228 
L 112.56551 159.859028 
L 113.102193 160.803305 
L 113.638876 153.767416 
L 114.175558 159.29947 
L 114.712241 161.996921 
L 115.248923 159.940236 
L 116.322289 169.343815 
L 116.858971 167.55472 
L 117.395654 172.427169 
L 117.932337 174.174947 
L 118.469019 177.210527 
L 119.005702 177.523815 
L 119.542384 178.34833 
L 120.079067 178.893717 
L 120.61575 178.413521 
L 121.152432 178.445099 
L 121.689115 177.24756 
L 122.225797 178.748651 
L 122.76248 179.731149 
L 123.299163 177.857659 
L 123.835845 179.058821 
L 124.372528 176.326118 
L 124.909211 175.930892 
L 125.445893 175.322944 
L 125.982576 176.496019 
L 126.519258 173.284543 
L 127.055941 173.165146 
L 127.592624 170.503449 
L 128.129306 171.889947 
L 128.665989 172.2081 
L 129.202671 172.110553 
L 129.739354 176.855831 
L 130.276037 176.106826 
L 130.812719 178.130285 
L 131.349402 179.327329 
L 131.886085 179.152005 
L 132.422767 179.360195 
L 132.95945 180.125376 
L 133.496132 179.761995 
L 134.032815 180.687273 
L 134.569498 179.78383 
L 135.10618 180.330148 
L 135.642863 180.510799 
L 136.179545 180.512851 
L 136.716228 179.825243 
L 137.252911 180.005574 
L 137.789593 180.518797 
L 138.326276 180.354149 
L 138.862959 180.687273 
L 139.399641 180.524443 
L 139.936324 180.04323 
L 140.473006 180.209608 
L 141.009689 179.7425 
L 141.546372 180.064347 
L 142.083054 179.763094 
L 142.619737 179.163718 
L 143.156419 179.481605 
L 143.693102 179.047305 
L 144.229785 179.212339 
L 144.766467 176.601387 
L 145.30315 170.869416 
L 146.376515 150.152581 
L 146.913198 153.408331 
L 147.44988 170.165651 
L 147.986563 177.398908 
L 148.523246 179.602392 
L 149.059928 179.479236 
L 149.596611 180.288682 
L 150.133293 180.687273 
L 150.669976 180.426873 
L 151.743341 180.432043 
L 152.816707 180.687273 
L 153.353389 180.563392 
L 153.890072 180.319258 
L 154.426754 180.322831 
L 154.963437 180.566966 
L 156.036802 180.333243 
L 156.573485 180.687273 
L 157.110167 179.876828 
L 157.64685 180.343214 
L 158.183533 180.232838 
L 158.720215 180.687273 
L 159.256898 180.129773 
L 159.793581 180.35587 
L 160.330263 180.249474 
L 160.866946 179.385927 
L 161.403628 180.257452 
L 161.940311 180.261359 
L 162.476994 180.054181 
L 163.013676 179.641629 
L 163.550359 180.48002 
L 164.087041 180.071066 
L 164.623724 180.381908 
L 165.160407 179.577511 
L 165.697089 179.18729 
L 166.233772 179.101324 
L 167.307137 178.447044 
L 167.84382 176.342154 
L 168.380502 175.900991 
L 168.917185 176.891109 
L 169.453868 174.477144 
L 170.527233 173.379652 
L 171.063915 171.973754 
L 171.600598 169.955134 
L 172.137281 172.209481 
L 172.673963 171.743527 
L 173.210646 173.14817 
L 173.747329 174.178065 
L 174.284011 173.272027 
L 174.820694 174.198045 
L 175.357376 174.680102 
L 175.894059 175.580122 
L 176.430742 176.212491 
L 176.967424 176.667314 
L 177.504107 176.201142 
L 178.040789 176.731503 
L 178.577472 177.090044 
L 179.114155 176.875272 
L 179.650837 176.824932 
L 180.18752 177.653664 
L 180.724203 178.865548 
L 181.260885 179.665645 
L 182.33425 178.675634 
L 182.870933 178.614393 
L 183.407616 179.163622 
L 183.944298 179.553292 
L 184.480981 179.186837 
L 185.017663 178.528195 
L 185.554346 178.766212 
L 186.091029 178.487383 
L 186.627711 179.304484 
L 187.164394 179.025915 
L 187.701077 177.8912 
L 188.774442 174.895275 
L 189.311124 174.867913 
L 189.847807 173.518764 
L 190.38449 171.222317 
L 190.921172 172.457309 
L 191.994537 169.061661 
L 192.53122 171.82972 
L 193.067903 173.425683 
L 193.604585 174.006893 
L 194.141268 174.776963 
L 194.677951 176.840315 
L 195.214633 177.385532 
L 195.751316 177.28029 
L 196.287998 177.942579 
L 196.824681 179.229482 
L 197.361364 179.302614 
L 197.898046 179.749766 
L 198.434729 179.383886 
L 199.508094 179.891524 
L 200.044777 179.896993 
L 200.581459 179.781655 
L 201.654825 180.270391 
L 202.191507 180.036614 
L 202.72819 180.099763 
L 203.264872 180.045362 
L 203.801555 179.643922 
L 204.338238 179.938782 
L 204.87492 179.42904 
L 205.411603 179.66465 
L 205.948285 178.65557 
L 206.484968 178.668991 
L 207.021651 178.403788 
L 207.558333 178.640082 
L 208.095016 177.719005 
L 208.631699 177.246862 
L 209.168381 177.377709 
L 209.705064 177.992079 
L 210.241746 177.206115 
L 210.778429 177.654194 
L 211.315112 178.4667 
L 211.851794 178.008096 
L 212.388477 178.286157 
L 212.925159 178.042055 
L 213.461842 178.522648 
L 213.998525 178.382665 
L 214.535207 177.48111 
L 215.07189 177.754084 
L 215.608573 177.571395 
L 216.145255 178.290006 
L 216.681938 178.255267 
L 217.21862 178.960878 
L 217.755303 179.16762 
L 218.291986 178.835939 
L 218.828668 179.234656 
L 219.365351 179.195423 
L 219.902033 179.730656 
L 221.512081 179.278271 
L 222.048764 179.333455 
L 222.585447 177.81027 
L 223.658812 177.202694 
L 224.195494 176.67651 
L 224.732177 174.933339 
L 225.26886 175.868147 
L 226.878907 176.837673 
L 227.952273 178.32569 
L 228.488955 178.904638 
L 229.025638 179.044656 
L 229.562321 179.655828 
L 230.099003 179.576308 
L 230.635686 180.092501 
L 231.709051 179.721297 
L 232.245734 179.977364 
L 232.782416 179.690735 
L 233.319099 179.944107 
L 233.855781 179.578823 
L 234.392464 179.993293 
L 235.465829 179.193737 
L 236.002512 179.362645 
L 236.539195 178.611612 
L 237.075877 178.424659 
L 238.149242 176.329761 
L 238.685925 175.729152 
L 239.222608 174.59161 
L 240.295973 175.195735 
L 240.832656 175.340268 
L 241.369338 175.065423 
L 241.906021 176.26707 
L 242.442703 176.704302 
L 244.052751 177.47067 
L 244.589434 176.973031 
L 245.126116 176.809931 
L 245.662799 176.794186 
L 246.736164 178.455289 
L 247.80953 178.621242 
L 248.346212 179.34078 
L 248.882895 178.960085 
L 249.419577 178.96911 
L 250.492943 177.807112 
L 251.029625 178.132736 
L 252.10299 175.801598 
L 252.639673 175.588778 
L 253.176356 175.513484 
L 253.713038 174.833451 
L 254.786404 176.05849 
L 255.323086 175.651287 
L 255.859769 175.610854 
L 256.396451 176.784399 
L 256.933134 177.685117 
L 257.469817 178.057347 
L 258.006499 178.587423 
L 258.543182 179.465809 
L 258.543182 179.465809 
" clip-path="url(#p850ec5ee89)" style="fill: none; stroke: #ff0000; stroke-opacity: 0.5; stroke-linecap: square"/>
   </g>
   <g id="patch_3">
    <path d="M 33.7 188.6 
L 33.7 14.52 
" style="fill: none; stroke: #000000; stroke-width: 0.8; stroke-linejoin: miter; stroke-linecap: square"/>
   </g>
   <g id="patch_4">
    <path d="M 269.25 188.6 
L 269.25 14.52 
" style="fill: none; stroke: #000000; stroke-width: 0.8; stroke-linejoin: miter; stroke-linecap: square"/>
   </g>
   <g id="patch_5">
    <path d="M 33.7 188.6 
L 269.25 188.6 
" style="fill: none; stroke: #000000; stroke-width: 0.8; stroke-linejoin: miter; stroke-linecap: square"/>
   </g>
   <g id="patch_6">
    <path d="M 33.7 14.52 
L 269.25 14.52 
" style="fill: none; stroke: #000000; stroke-width: 0.8; stroke-linejoin: miter; stroke-linecap: square"/>
   </g>
   <g id="legend_1">
    <g id="patch_7">
     <path d="M 213.917188 66.554375 
L 262.25 66.554375 
Q 264.25 66.554375 264.25 64.554375 
L 264.25 21.52 
Q 264.25 19.52 262.25 19.52 
L 213.917188 19.52 
Q 211.917188 19.52 211.917188 21.52 
L 211.917188 64.554375 
Q 211.917188 66.554375 213.917188 66.554375 
z
" style="fill: #ffffff; opacity: 0.8; stroke: #cccccc; stroke-linejoin: miter"/>
    </g>
    <g id="line2d_15">
     <path d="M 215.917188 27.618438 
L 225.917188 27.618438 
L 235.917188 27.618438 
" style="fill: none; stroke: #000000; stroke-opacity: 0.5; stroke-width: 0.5; stroke-linecap: square"/>
    </g>
    <g id="text_14">
     <!-- all -->
     <g transform="translate(243.917188 31.118438) scale(0.1 -0.1)">
      <defs>
       <path id="DejaVuSans-61" d="M 2194 1759 
Q 1497 1759 1228 1600 
Q 959 1441 959 1056 
Q 959 750 1161 570 
Q 1363 391 1709 391 
Q 2188 391 2477 730 
Q 2766 1069 2766 1631 
L 2766 1759 
L 2194 1759 
z
M 3341 1997 
L 3341 0 
L 2766 0 
L 2766 531 
Q 2569 213 2275 61 
Q 1981 -91 1556 -91 
Q 1019 -91 701 211 
Q 384 513 384 1019 
Q 384 1609 779 1909 
Q 1175 2209 1959 2209 
L 2766 2209 
L 2766 2266 
Q 2766 2663 2505 2880 
Q 2244 3097 1772 3097 
Q 1472 3097 1187 3025 
Q 903 2953 641 2809 
L 641 3341 
Q 956 3463 1253 3523 
Q 1550 3584 1831 3584 
Q 2591 3584 2966 3190 
Q 3341 2797 3341 1997 
z
" transform="scale(0.015625)"/>
       <path id="DejaVuSans-6c" d="M 603 4863 
L 1178 4863 
L 1178 0 
L 603 0 
L 603 4863 
z
" transform="scale(0.015625)"/>
      </defs>
      <use xlink:href="#DejaVuSans-61"/>
      <use xlink:href="#DejaVuSans-6c" transform="translate(61.279297 0)"/>
      <use xlink:href="#DejaVuSans-6c" transform="translate(89.0625 0)"/>
     </g>
    </g>
    <g id="line2d_16">
     <path d="M 215.917188 42.296563 
L 225.917188 42.296563 
L 235.917188 42.296563 
" style="fill: none; stroke: #0000ff; stroke-opacity: 0.5; stroke-linecap: square"/>
    </g>
    <g id="text_15">
     <!-- 1-1 -->
     <g transform="translate(243.917188 45.796563) scale(0.1 -0.1)">
      <defs>
       <path id="DejaVuSans-2d" d="M 313 2009 
L 1997 2009 
L 1997 1497 
L 313 1497 
L 313 2009 
z
" transform="scale(0.015625)"/>
      </defs>
      <use xlink:href="#DejaVuSans-31"/>
      <use xlink:href="#DejaVuSans-2d" transform="translate(63.623047 0)"/>
      <use xlink:href="#DejaVuSans-31" transform="translate(99.707031 0)"/>
     </g>
    </g>
    <g id="line2d_17">
     <path d="M 215.917188 56.974688 
L 225.917188 56.974688 
L 235.917188 56.974688 
" style="fill: none; stroke: #ff0000; stroke-opacity: 0.5; stroke-linecap: square"/>
    </g>
    <g id="text_16">
     <!-- 2-2 -->
     <g transform="translate(243.917188 60.474688) scale(0.1 -0.1)">
      <use xlink:href="#DejaVuSans-32"/>
      <use xlink:href="#DejaVuSans-2d" transform="translate(63.623047 0)"/>
      <use xlink:href="#DejaVuSans-32" transform="translate(99.707031 0)"/>
     </g>
    </g>
   </g>
  </g>
 </g>
 <defs>
  <clipPath id="p850ec5ee89">
   <rect x="33.7" y="14.52" width="235.55" height="174.08"/>
  </clipPath>
 </defs>
</svg>
