<?xml version="1.0" encoding="utf-8" standalone="no"?>
<!DOCTYPE svg PUBLIC "-//W3C//DTD SVG 1.1//EN"
  "http://www.w3.org/Graphics/SVG/1.1/DTD/svg11.dtd">
<svg xmlns:xlink="http://www.w3.org/1999/xlink" width="288pt" height="216pt" viewBox="0 0 288 216" xmlns="http://www.w3.org/2000/svg" version="1.1">
 <metadata>
  <rdf:RDF xmlns:dc="http://purl.org/dc/elements/1.1/" xmlns:cc="http://creativecommons.org/ns#" xmlns:rdf="http://www.w3.org/1999/02/22-rdf-syntax-ns#">
   <cc:Work>
    <dc:type rdf:resource="http://purl.org/dc/dcmitype/StillImage"/>
    <dc:date>2025-09-17T23:08:53.958388</dc:date>
    <dc:format>image/svg+xml</dc:format>
    <dc:creator>
     <cc:Agent>
      <dc:title>Matplotlib v3.10.0, https://matplotlib.org/</dc:title>
     </cc:Agent>
    </dc:creator>
   </cc:Work>
  </rdf:RDF>
 </metadata>
 <defs>
  <style type="text/css">*{stroke-linejoin: round; stroke-linecap: butt}</style>
 </defs>
 <g id="figure_1">
  <g id="patch_1">
   <path d="M 0 216 
L 288 216 
L 288 0 
L 0 0 
z
" style="fill: #ffffff"/>
  </g>
  <g id="axes_1">
   <g id="patch_2">
    <path d="M 33.7 188.6 
L 269.25 188.6 
L 269.25 14.52 
L 33.7 14.52 
z
" style="fill: #ffffff"/>
   </g>
   <g id="matplotlib.axis_1">
    <g id="xtick_1">
     <g id="line2d_1">
      <defs>
       <path id="mf90746b838" d="M 0 0 
L 0 3.5 
" style="stroke: #000000; stroke-width: 0.8"/>
      </defs>
      <g>
       <use xlink:href="#mf90746b838" x="44.138477" y="188.6" style="stroke: #000000; stroke-width: 0.8"/>
      </g>
     </g>
     <g id="text_1">
      <!-- 0 -->
      <g transform="translate(40.957227 203.198437) scale(0.1 -0.1)">
       <defs>
        <path id="DejaVuSans-30" d="M 2034 4250 
Q 1547 4250 1301 3770 
Q 1056 3291 1056 2328 
Q 1056 1369 1301 889 
Q 1547 409 2034 409 
Q 2525 409 2770 889 
Q 3016 1369 3016 2328 
Q 3016 3291 2770 3770 
Q 2525 4250 2034 4250 
z
M 2034 4750 
Q 2819 4750 3233 4129 
Q 3647 3509 3647 2328 
Q 3647 1150 3233 529 
Q 2819 -91 2034 -91 
Q 1250 -91 836 529 
Q 422 1150 422 2328 
Q 422 3509 836 4129 
Q 1250 4750 2034 4750 
z
" transform="scale(0.015625)"/>
       </defs>
       <use xlink:href="#DejaVuSans-30"/>
      </g>
     </g>
    </g>
    <g id="xtick_2">
     <g id="line2d_2">
      <g>
       <use xlink:href="#mf90746b838" x="87.073086" y="188.6" style="stroke: #000000; stroke-width: 0.8"/>
      </g>
     </g>
     <g id="text_2">
      <!-- 200 -->
      <g transform="translate(77.529336 203.198437) scale(0.1 -0.1)">
       <defs>
        <path id="DejaVuSans-32" d="M 1228 531 
L 3431 531 
L 3431 0 
L 469 0 
L 469 531 
Q 828 903 1448 1529 
Q 2069 2156 2228 2338 
Q 2531 2678 2651 2914 
Q 2772 3150 2772 3378 
Q 2772 3750 2511 3984 
Q 2250 4219 1831 4219 
Q 1534 4219 1204 4116 
Q 875 4013 500 3803 
L 500 4441 
Q 881 4594 1212 4672 
Q 1544 4750 1819 4750 
Q 2544 4750 2975 4387 
Q 3406 4025 3406 3419 
Q 3406 3131 3298 2873 
Q 3191 2616 2906 2266 
Q 2828 2175 2409 1742 
Q 1991 1309 1228 531 
z
" transform="scale(0.015625)"/>
       </defs>
       <use xlink:href="#DejaVuSans-32"/>
       <use xlink:href="#DejaVuSans-30" transform="translate(63.623047 0)"/>
       <use xlink:href="#DejaVuSans-30" transform="translate(127.246094 0)"/>
      </g>
     </g>
    </g>
    <g id="xtick_3">
     <g id="line2d_3">
      <g>
       <use xlink:href="#mf90746b838" x="130.007695" y="188.6" style="stroke: #000000; stroke-width: 0.8"/>
      </g>
     </g>
     <g id="text_3">
      <!-- 400 -->
      <g transform="translate(120.463945 203.198437) scale(0.1 -0.1)">
       <defs>
        <path id="DejaVuSans-34" d="M 2419 4116 
L 825 1625 
L 2419 1625 
L 2419 4116 
z
M 2253 4666 
L 3047 4666 
L 3047 1625 
L 3713 1625 
L 3713 1100 
L 3047 1100 
L 3047 0 
L 2419 0 
L 2419 1100 
L 313 1100 
L 313 1709 
L 2253 4666 
z
" transform="scale(0.015625)"/>
       </defs>
       <use xlink:href="#DejaVuSans-34"/>
       <use xlink:href="#DejaVuSans-30" transform="translate(63.623047 0)"/>
       <use xlink:href="#DejaVuSans-30" transform="translate(127.246094 0)"/>
      </g>
     </g>
    </g>
    <g id="xtick_4">
     <g id="line2d_4">
      <g>
       <use xlink:href="#mf90746b838" x="172.942305" y="188.6" style="stroke: #000000; stroke-width: 0.8"/>
      </g>
     </g>
     <g id="text_4">
      <!-- 600 -->
      <g transform="translate(163.398555 203.198437) scale(0.1 -0.1)">
       <defs>
        <path id="DejaVuSans-36" d="M 2113 2584 
Q 1688 2584 1439 2293 
Q 1191 2003 1191 1497 
Q 1191 994 1439 701 
Q 1688 409 2113 409 
Q 2538 409 2786 701 
Q 3034 994 3034 1497 
Q 3034 2003 2786 2293 
Q 2538 2584 2113 2584 
z
M 3366 4563 
L 3366 3988 
Q 3128 4100 2886 4159 
Q 2644 4219 2406 4219 
Q 1781 4219 1451 3797 
Q 1122 3375 1075 2522 
Q 1259 2794 1537 2939 
Q 1816 3084 2150 3084 
Q 2853 3084 3261 2657 
Q 3669 2231 3669 1497 
Q 3669 778 3244 343 
Q 2819 -91 2113 -91 
Q 1303 -91 875 529 
Q 447 1150 447 2328 
Q 447 3434 972 4092 
Q 1497 4750 2381 4750 
Q 2619 4750 2861 4703 
Q 3103 4656 3366 4563 
z
" transform="scale(0.015625)"/>
       </defs>
       <use xlink:href="#DejaVuSans-36"/>
       <use xlink:href="#DejaVuSans-30" transform="translate(63.623047 0)"/>
       <use xlink:href="#DejaVuSans-30" transform="translate(127.246094 0)"/>
      </g>
     </g>
    </g>
    <g id="xtick_5">
     <g id="line2d_5">
      <g>
       <use xlink:href="#mf90746b838" x="215.876914" y="188.6" style="stroke: #000000; stroke-width: 0.8"/>
      </g>
     </g>
     <g id="text_5">
      <!-- 800 -->
      <g transform="translate(206.333164 203.198437) scale(0.1 -0.1)">
       <defs>
        <path id="DejaVuSans-38" d="M 2034 2216 
Q 1584 2216 1326 1975 
Q 1069 1734 1069 1313 
Q 1069 891 1326 650 
Q 1584 409 2034 409 
Q 2484 409 2743 651 
Q 3003 894 3003 1313 
Q 3003 1734 2745 1975 
Q 2488 2216 2034 2216 
z
M 1403 2484 
Q 997 2584 770 2862 
Q 544 3141 544 3541 
Q 544 4100 942 4425 
Q 1341 4750 2034 4750 
Q 2731 4750 3128 4425 
Q 3525 4100 3525 3541 
Q 3525 3141 3298 2862 
Q 3072 2584 2669 2484 
Q 3125 2378 3379 2068 
Q 3634 1759 3634 1313 
Q 3634 634 3220 271 
Q 2806 -91 2034 -91 
Q 1263 -91 848 271 
Q 434 634 434 1313 
Q 434 1759 690 2068 
Q 947 2378 1403 2484 
z
M 1172 3481 
Q 1172 3119 1398 2916 
Q 1625 2713 2034 2713 
Q 2441 2713 2670 2916 
Q 2900 3119 2900 3481 
Q 2900 3844 2670 4047 
Q 2441 4250 2034 4250 
Q 1625 4250 1398 4047 
Q 1172 3844 1172 3481 
z
" transform="scale(0.015625)"/>
       </defs>
       <use xlink:href="#DejaVuSans-38"/>
       <use xlink:href="#DejaVuSans-30" transform="translate(63.623047 0)"/>
       <use xlink:href="#DejaVuSans-30" transform="translate(127.246094 0)"/>
      </g>
     </g>
    </g>
    <g id="xtick_6">
     <g id="line2d_6">
      <g>
       <use xlink:href="#mf90746b838" x="258.811523" y="188.6" style="stroke: #000000; stroke-width: 0.8"/>
      </g>
     </g>
     <g id="text_6">
      <!-- 1000 -->
      <g transform="translate(246.086523 203.198437) scale(0.1 -0.1)">
       <defs>
        <path id="DejaVuSans-31" d="M 794 531 
L 1825 531 
L 1825 4091 
L 703 3866 
L 703 4441 
L 1819 4666 
L 2450 4666 
L 2450 531 
L 3481 531 
L 3481 0 
L 794 0 
L 794 531 
z
" transform="scale(0.015625)"/>
       </defs>
       <use xlink:href="#DejaVuSans-31"/>
       <use xlink:href="#DejaVuSans-30" transform="translate(63.623047 0)"/>
       <use xlink:href="#DejaVuSans-30" transform="translate(127.246094 0)"/>
       <use xlink:href="#DejaVuSans-30" transform="translate(190.869141 0)"/>
      </g>
     </g>
    </g>
    <g id="text_7">
     <!-- q (nm) -->
     <g transform="translate(134.771094 216.876563) scale(0.1 -0.1)">
      <defs>
       <path id="DejaVuSans-71" d="M 947 1747 
Q 947 1113 1208 752 
Q 1469 391 1925 391 
Q 2381 391 2643 752 
Q 2906 1113 2906 1747 
Q 2906 2381 2643 2742 
Q 2381 3103 1925 3103 
Q 1469 3103 1208 2742 
Q 947 2381 947 1747 
z
M 2906 525 
Q 2725 213 2448 61 
Q 2172 -91 1784 -91 
Q 1150 -91 751 415 
Q 353 922 353 1747 
Q 353 2572 751 3078 
Q 1150 3584 1784 3584 
Q 2172 3584 2448 3432 
Q 2725 3281 2906 2969 
L 2906 3500 
L 3481 3500 
L 3481 -1331 
L 2906 -1331 
L 2906 525 
z
" transform="scale(0.015625)"/>
       <path id="DejaVuSans-20" transform="scale(0.015625)"/>
       <path id="DejaVuSans-28" d="M 1984 4856 
Q 1566 4138 1362 3434 
Q 1159 2731 1159 2009 
Q 1159 1288 1364 580 
Q 1569 -128 1984 -844 
L 1484 -844 
Q 1016 -109 783 600 
Q 550 1309 550 2009 
Q 550 2706 781 3412 
Q 1013 4119 1484 4856 
L 1984 4856 
z
" transform="scale(0.015625)"/>
       <path id="DejaVuSans-6e" d="M 3513 2113 
L 3513 0 
L 2938 0 
L 2938 2094 
Q 2938 2591 2744 2837 
Q 2550 3084 2163 3084 
Q 1697 3084 1428 2787 
Q 1159 2491 1159 1978 
L 1159 0 
L 581 0 
L 581 3500 
L 1159 3500 
L 1159 2956 
Q 1366 3272 1645 3428 
Q 1925 3584 2291 3584 
Q 2894 3584 3203 3211 
Q 3513 2838 3513 2113 
z
" transform="scale(0.015625)"/>
       <path id="DejaVuSans-6d" d="M 3328 2828 
Q 3544 3216 3844 3400 
Q 4144 3584 4550 3584 
Q 5097 3584 5394 3201 
Q 5691 2819 5691 2113 
L 5691 0 
L 5113 0 
L 5113 2094 
Q 5113 2597 4934 2840 
Q 4756 3084 4391 3084 
Q 3944 3084 3684 2787 
Q 3425 2491 3425 1978 
L 3425 0 
L 2847 0 
L 2847 2094 
Q 2847 2600 2669 2842 
Q 2491 3084 2119 3084 
Q 1678 3084 1418 2786 
Q 1159 2488 1159 1978 
L 1159 0 
L 581 0 
L 581 3500 
L 1159 3500 
L 1159 2956 
Q 1356 3278 1631 3431 
Q 1906 3584 2284 3584 
Q 2666 3584 2933 3390 
Q 3200 3197 3328 2828 
z
" transform="scale(0.015625)"/>
       <path id="DejaVuSans-29" d="M 513 4856 
L 1013 4856 
Q 1481 4119 1714 3412 
Q 1947 2706 1947 2009 
Q 1947 1309 1714 600 
Q 1481 -109 1013 -844 
L 513 -844 
Q 928 -128 1133 580 
Q 1338 1288 1338 2009 
Q 1338 2731 1133 3434 
Q 928 4138 513 4856 
z
" transform="scale(0.015625)"/>
      </defs>
      <use xlink:href="#DejaVuSans-71"/>
      <use xlink:href="#DejaVuSans-20" transform="translate(63.476562 0)"/>
      <use xlink:href="#DejaVuSans-28" transform="translate(95.263672 0)"/>
      <use xlink:href="#DejaVuSans-6e" transform="translate(134.277344 0)"/>
      <use xlink:href="#DejaVuSans-6d" transform="translate(197.65625 0)"/>
      <use xlink:href="#DejaVuSans-29" transform="translate(295.068359 0)"/>
     </g>
    </g>
   </g>
   <g id="matplotlib.axis_2">
    <g id="ytick_1">
     <g id="line2d_7">
      <defs>
       <path id="maf49219d2f" d="M 0 0 
L -3.5 0 
" style="stroke: #000000; stroke-width: 0.8"/>
      </defs>
      <g>
       <use xlink:href="#maf49219d2f" x="33.7" y="180.687273" style="stroke: #000000; stroke-width: 0.8"/>
      </g>
     </g>
     <g id="text_8">
      <!-- 0 -->
      <g transform="translate(20.3375 184.486491) scale(0.1 -0.1)">
       <use xlink:href="#DejaVuSans-30"/>
      </g>
     </g>
    </g>
    <g id="ytick_2">
     <g id="line2d_8">
      <g>
       <use xlink:href="#maf49219d2f" x="33.7" y="157.128586" style="stroke: #000000; stroke-width: 0.8"/>
      </g>
     </g>
     <g id="text_9">
      <!-- 200 -->
      <g transform="translate(7.6125 160.927804) scale(0.1 -0.1)">
       <use xlink:href="#DejaVuSans-32"/>
       <use xlink:href="#DejaVuSans-30" transform="translate(63.623047 0)"/>
       <use xlink:href="#DejaVuSans-30" transform="translate(127.246094 0)"/>
      </g>
     </g>
    </g>
    <g id="ytick_3">
     <g id="line2d_9">
      <g>
       <use xlink:href="#maf49219d2f" x="33.7" y="133.569899" style="stroke: #000000; stroke-width: 0.8"/>
      </g>
     </g>
     <g id="text_10">
      <!-- 400 -->
      <g transform="translate(7.6125 137.369117) scale(0.1 -0.1)">
       <use xlink:href="#DejaVuSans-34"/>
       <use xlink:href="#DejaVuSans-30" transform="translate(63.623047 0)"/>
       <use xlink:href="#DejaVuSans-30" transform="translate(127.246094 0)"/>
      </g>
     </g>
    </g>
    <g id="ytick_4">
     <g id="line2d_10">
      <g>
       <use xlink:href="#maf49219d2f" x="33.7" y="110.011212" style="stroke: #000000; stroke-width: 0.8"/>
      </g>
     </g>
     <g id="text_11">
      <!-- 600 -->
      <g transform="translate(7.6125 113.81043) scale(0.1 -0.1)">
       <use xlink:href="#DejaVuSans-36"/>
       <use xlink:href="#DejaVuSans-30" transform="translate(63.623047 0)"/>
       <use xlink:href="#DejaVuSans-30" transform="translate(127.246094 0)"/>
      </g>
     </g>
    </g>
    <g id="ytick_5">
     <g id="line2d_11">
      <g>
       <use xlink:href="#maf49219d2f" x="33.7" y="86.452525" style="stroke: #000000; stroke-width: 0.8"/>
      </g>
     </g>
     <g id="text_12">
      <!-- 800 -->
      <g transform="translate(7.6125 90.251743) scale(0.1 -0.1)">
       <use xlink:href="#DejaVuSans-38"/>
       <use xlink:href="#DejaVuSans-30" transform="translate(63.623047 0)"/>
       <use xlink:href="#DejaVuSans-30" transform="translate(127.246094 0)"/>
      </g>
     </g>
    </g>
    <g id="ytick_6">
     <g id="line2d_12">
      <g>
       <use xlink:href="#maf49219d2f" x="33.7" y="62.893838" style="stroke: #000000; stroke-width: 0.8"/>
      </g>
     </g>
     <g id="text_13">
      <!-- 1000 -->
      <g transform="translate(1.25 66.693056) scale(0.1 -0.1)">
       <use xlink:href="#DejaVuSans-31"/>
       <use xlink:href="#DejaVuSans-30" transform="translate(63.623047 0)"/>
       <use xlink:href="#DejaVuSans-30" transform="translate(127.246094 0)"/>
       <use xlink:href="#DejaVuSans-30" transform="translate(190.869141 0)"/>
      </g>
     </g>
    </g>
    <g id="ytick_7">
     <g id="line2d_13">
      <g>
       <use xlink:href="#maf49219d2f" x="33.7" y="39.335151" style="stroke: #000000; stroke-width: 0.8"/>
      </g>
     </g>
     <g id="text_14">
      <!-- 1200 -->
      <g transform="translate(1.25 43.134369) scale(0.1 -0.1)">
       <use xlink:href="#DejaVuSans-31"/>
       <use xlink:href="#DejaVuSans-32" transform="translate(63.623047 0)"/>
       <use xlink:href="#DejaVuSans-30" transform="translate(127.246094 0)"/>
       <use xlink:href="#DejaVuSans-30" transform="translate(190.869141 0)"/>
      </g>
     </g>
    </g>
    <g id="ytick_8">
     <g id="line2d_14">
      <g>
       <use xlink:href="#maf49219d2f" x="33.7" y="15.776464" style="stroke: #000000; stroke-width: 0.8"/>
      </g>
     </g>
     <g id="text_15">
      <!-- 1400 -->
      <g transform="translate(1.25 19.575682) scale(0.1 -0.1)">
       <use xlink:href="#DejaVuSans-31"/>
       <use xlink:href="#DejaVuSans-34" transform="translate(63.623047 0)"/>
       <use xlink:href="#DejaVuSans-30" transform="translate(127.246094 0)"/>
       <use xlink:href="#DejaVuSans-30" transform="translate(190.869141 0)"/>
      </g>
     </g>
    </g>
    <g id="text_16">
     <!-- rdf -->
     <g transform="translate(-4.829688 108.462344) rotate(-90) scale(0.1 -0.1)">
      <defs>
       <path id="DejaVuSans-72" d="M 2631 2963 
Q 2534 3019 2420 3045 
Q 2306 3072 2169 3072 
Q 1681 3072 1420 2755 
Q 1159 2438 1159 1844 
L 1159 0 
L 581 0 
L 581 3500 
L 1159 3500 
L 1159 2956 
Q 1341 3275 1631 3429 
Q 1922 3584 2338 3584 
Q 2397 3584 2469 3576 
Q 2541 3569 2628 3553 
L 2631 2963 
z
" transform="scale(0.015625)"/>
       <path id="DejaVuSans-64" d="M 2906 2969 
L 2906 4863 
L 3481 4863 
L 3481 0 
L 2906 0 
L 2906 525 
Q 2725 213 2448 61 
Q 2172 -91 1784 -91 
Q 1150 -91 751 415 
Q 353 922 353 1747 
Q 353 2572 751 3078 
Q 1150 3584 1784 3584 
Q 2172 3584 2448 3432 
Q 2725 3281 2906 2969 
z
M 947 1747 
Q 947 1113 1208 752 
Q 1469 391 1925 391 
Q 2381 391 2643 752 
Q 2906 1113 2906 1747 
Q 2906 2381 2643 2742 
Q 2381 3103 1925 3103 
Q 1469 3103 1208 2742 
Q 947 2381 947 1747 
z
" transform="scale(0.015625)"/>
       <path id="DejaVuSans-66" d="M 2375 4863 
L 2375 4384 
L 1825 4384 
Q 1516 4384 1395 4259 
Q 1275 4134 1275 3809 
L 1275 3500 
L 2222 3500 
L 2222 3053 
L 1275 3053 
L 1275 0 
L 697 0 
L 697 3053 
L 147 3053 
L 147 3500 
L 697 3500 
L 697 3744 
Q 697 4328 969 4595 
Q 1241 4863 1831 4863 
L 2375 4863 
z
" transform="scale(0.015625)"/>
      </defs>
      <use xlink:href="#DejaVuSans-72"/>
      <use xlink:href="#DejaVuSans-64" transform="translate(39.363281 0)"/>
      <use xlink:href="#DejaVuSans-66" transform="translate(102.839844 0)"/>
     </g>
    </g>
   </g>
   <g id="line2d_15">
    <path d="M 44.406818 180.687273 
L 91.634888 180.687273 
L 92.171571 173.611218 
L 95.391667 174.472429 
L 95.928349 22.432727 
L 96.465032 127.024739 
L 97.001715 151.477032 
L 97.538397 140.610781 
L 98.07508 169.463584 
L 98.611762 169.683652 
L 99.148445 148.317369 
L 99.685128 159.522297 
L 100.22181 159.925452 
L 100.758493 180.687273 
L 101.295175 170.692611 
L 101.831858 175.782481 
L 102.368541 166.242855 
L 102.905223 175.960007 
L 103.441906 162.118869 
L 103.978589 171.568877 
L 105.051954 154.287615 
L 105.588636 176.363858 
L 106.125319 167.940624 
L 106.662002 155.629755 
L 107.198684 172.476319 
L 107.735367 176.650794 
L 108.272049 172.748865 
L 108.808732 149.45851 
L 109.345415 173.008073 
L 109.882097 165.578607 
L 110.41878 162.106041 
L 110.955463 177.03048 
L 111.492145 155.496032 
L 112.028828 166.518945 
L 112.56551 163.253614 
L 113.102193 170.389243 
L 113.638876 143.508716 
L 114.175558 157.389433 
L 114.712241 167.575944 
L 115.248923 174.230173 
L 115.785606 164.785475 
L 116.322289 174.420769 
L 116.858971 155.989883 
L 117.395654 174.603065 
L 117.932337 156.703103 
L 118.469019 165.912888 
L 119.005702 154.473282 
L 119.542384 169.201854 
L 120.079067 158.039964 
L 120.61575 169.521976 
L 121.152432 172.429598 
L 121.689115 161.685158 
L 122.225797 156.590691 
L 123.299163 162.450259 
L 123.835845 167.835685 
L 124.372528 160.398878 
L 124.909211 173.179893 
L 125.445893 175.748217 
L 125.982576 163.626523 
L 126.519258 166.253694 
L 127.055941 164.06538 
L 127.592624 157.246093 
L 128.129306 155.23047 
L 129.202671 160.38128 
L 129.739354 158.407107 
L 130.276037 152.082849 
L 130.812719 165.475037 
L 131.349402 172.101234 
L 131.886085 161.604287 
L 132.422767 159.74093 
L 132.95945 162.062649 
L 133.496132 168.419573 
L 134.032815 168.565657 
L 134.569498 160.723609 
L 135.10618 162.931388 
L 135.642863 168.988448 
L 136.179545 171.05161 
L 136.716228 161.638723 
L 137.252911 167.506515 
L 137.789593 154.627152 
L 138.326276 173.326131 
L 138.862959 167.950812 
L 139.399641 166.294881 
L 139.936324 162.897736 
L 140.473006 166.613799 
L 141.009689 171.988543 
L 141.546372 168.642902 
L 142.083054 156.86173 
L 142.619737 170.587329 
L 143.156419 162.370868 
L 143.693102 174.098383 
L 144.229785 162.761618 
L 144.766467 169.401376 
L 145.30315 161.544765 
L 145.839833 160.167871 
L 146.376515 171.315951 
L 146.913198 166.776693 
L 147.44988 174.568858 
L 147.986563 165.548924 
L 148.523246 167.202476 
L 149.059928 171.789145 
L 149.596611 164.539672 
L 150.133293 161.796519 
L 150.669976 176.371676 
L 151.206659 162.173364 
L 151.743341 158.127659 
L 152.280024 158.351004 
L 152.816707 172.393704 
L 153.353389 164.26272 
L 153.890072 168.489056 
L 154.426754 165.923088 
L 154.963437 167.394933 
L 155.50012 166.20637 
L 156.036802 161.129488 
L 156.573485 163.898667 
L 157.110167 165.336987 
L 157.64685 169.283117 
L 158.720215 164.521864 
L 159.256898 164.672238 
L 159.793581 172.143632 
L 160.330263 162.54816 
L 160.866946 173.498208 
L 161.403628 170.002139 
L 161.940311 170.099284 
L 162.476994 166.697644 
L 163.013676 167.97901 
L 163.550359 170.382878 
L 164.087041 164.801337 
L 164.623724 161.568639 
L 165.160407 165.081873 
L 165.697089 174.058151 
L 166.233772 165.354986 
L 166.770455 172.002533 
L 167.307137 165.62112 
L 167.84382 166.818363 
L 168.380502 163.765024 
L 168.917185 167.055946 
L 169.453868 165.093265 
L 169.99055 170.379706 
L 170.527233 165.356997 
L 171.063915 167.513107 
L 171.600598 170.638475 
L 172.137281 163.747264 
L 172.673963 164.876639 
L 173.210646 161.087974 
L 173.747329 169.024886 
L 174.284011 170.084752 
L 174.820694 161.567992 
L 175.357376 169.309349 
L 175.894059 165.64002 
L 176.430742 165.761879 
L 176.967424 171.434112 
L 177.504107 166.919007 
L 178.040789 171.581861 
L 178.577472 165.331417 
L 179.114155 166.349393 
L 179.650837 163.795596 
L 180.18752 162.164543 
L 180.724203 162.309874 
L 181.260885 177.21416 
L 181.797568 162.595324 
L 182.33425 164.445255 
L 182.870933 163.722421 
L 183.407616 166.378112 
L 183.944298 163.146709 
L 184.480981 168.253912 
L 185.017663 163.413014 
L 185.554346 165.176583 
L 186.091029 161.242597 
L 186.627711 171.038031 
L 187.164394 168.716106 
L 187.701077 160.88415 
L 188.237759 160.245119 
L 188.774442 172.883146 
L 189.311124 162.870266 
L 189.847807 174.535626 
L 190.38449 161.60422 
L 190.921172 168.563257 
L 191.457855 164.890195 
L 191.994537 165.004731 
L 192.53122 168.083559 
L 193.067903 170.382391 
L 193.604585 163.148433 
L 194.141268 163.273664 
L 194.677951 168.440432 
L 195.214633 164.235585 
L 195.751316 165.772277 
L 196.287998 168.698237 
L 196.824681 167.381783 
L 197.361364 162.607077 
L 197.898046 160.661418 
L 198.434729 167.658083 
L 198.971411 165.024195 
L 199.508094 165.132263 
L 200.044777 167.925801 
L 200.581459 169.347287 
L 201.118142 168.099703 
L 201.654825 166.211302 
L 202.191507 166.309451 
L 202.72819 161.213685 
L 203.264872 161.989515 
L 203.801555 165.957522 
L 204.338238 167.328325 
L 204.87492 166.785483 
L 205.411603 165.62245 
L 205.948285 165.098659 
L 207.021651 170.226278 
L 207.558333 165.404351 
L 208.095016 169.755474 
L 208.631699 166.809898 
L 209.168381 168.098888 
L 209.705064 166.989256 
L 210.241746 164.118965 
L 210.778429 163.637579 
L 211.315112 168.420091 
L 211.851794 165.015985 
L 212.388477 167.999431 
L 212.925159 162.922372 
L 213.461842 164.743133 
L 213.998525 171.633819 
L 214.535207 166.06792 
L 215.07189 167.835897 
L 215.608573 165.69518 
L 216.681938 166.977877 
L 217.21862 163.792844 
L 217.755303 167.688456 
L 218.291986 161.847358 
L 218.828668 168.917658 
L 219.365351 167.39457 
L 219.902033 162.719401 
L 220.438716 165.454877 
L 220.975399 164.50312 
L 221.512081 167.714285 
L 222.048764 165.729389 
L 222.585447 170.433389 
L 223.122129 165.398524 
L 223.658812 165.996505 
L 224.195494 168.098189 
L 224.732177 167.67227 
L 225.26886 166.25641 
L 225.805542 164.362923 
L 226.342225 167.901259 
L 226.878907 166.509626 
L 227.41559 170.966792 
L 227.952273 166.674719 
L 228.488955 166.275757 
L 229.025638 163.971339 
L 229.562321 168.34151 
L 230.099003 167.468384 
L 230.635686 168.952561 
L 231.172368 169.48658 
L 231.709051 168.158406 
L 232.245734 165.00018 
L 232.782416 166.465486 
L 233.319099 165.177632 
L 233.855781 170.708328 
L 234.392464 167.607338 
L 234.929147 169.026277 
L 235.465829 163.293718 
L 236.002512 171.373856 
L 236.539195 164.369363 
L 237.075877 168.407132 
L 238.149242 170.27761 
L 239.222608 164.815233 
L 240.295973 166.685546 
L 240.832656 166.761918 
L 241.369338 165.578478 
L 241.906021 170.251946 
L 242.979386 164.996372 
L 243.516069 165.902098 
L 244.052751 168.023892 
L 244.589434 161.184346 
L 245.126116 168.967046 
L 245.662799 164.2055 
L 246.199482 165.892346 
L 246.736164 169.948046 
L 247.272847 168.026559 
L 247.80953 172.0288 
L 248.346212 163.461333 
L 248.882895 169.393179 
L 249.419577 170.614446 
L 250.492943 166.501594 
L 251.029625 171.152061 
L 251.566308 165.130264 
L 252.10299 167.097856 
L 252.639673 167.543241 
L 253.176356 165.742577 
L 253.713038 164.332191 
L 254.249721 167.374145 
L 254.786404 169.281532 
L 255.323086 167.509159 
L 255.859769 170.853724 
L 256.396451 168.366832 
L 256.933134 166.986698 
L 257.469817 164.903132 
L 258.006499 168.551607 
L 258.543182 167.546878 
L 258.543182 167.546878 
" clip-path="url(#pbf85cdc6bf)" style="fill: none; stroke: #000000; stroke-opacity: 0.5; stroke-width: 0.5; stroke-linecap: square"/>
   </g>
   <g id="line2d_16">
    <path d="M 44.406818 180.687273 
L 91.634888 180.687273 
L 92.171571 159.016852 
L 94.318301 160.831354 
L 94.854984 161.249352 
L 95.391667 180.687273 
L 97.001715 180.687273 
L 97.538397 145.620338 
L 98.07508 180.687273 
L 98.611762 180.687273 
L 99.148445 164.165133 
L 100.22181 164.791502 
L 100.758493 180.687273 
L 101.831858 180.687273 
L 102.368541 165.941927 
L 102.905223 166.210021 
L 103.441906 138.037968 
L 103.978589 152.762184 
L 104.515271 180.687273 
L 105.051954 153.737617 
L 105.588636 180.687273 
L 106.125319 167.675068 
L 107.735367 168.325553 
L 108.272049 180.687273 
L 108.808732 132.868228 
L 109.882097 180.687273 
L 110.41878 146.544255 
L 110.955463 169.488345 
L 111.492145 180.687273 
L 112.028828 169.839646 
L 112.56551 170.009156 
L 113.102193 159.662128 
L 113.638876 139.283876 
L 114.175558 150.108855 
L 114.712241 170.648911 
L 115.248923 180.687273 
L 115.785606 161.20757 
L 116.322289 171.091688 
L 116.858971 152.323859 
L 117.395654 171.370828 
L 117.932337 180.687273 
L 119.005702 145.007114 
L 119.542384 180.687273 
L 120.079067 154.678252 
L 120.61575 163.59041 
L 121.689115 164.060421 
L 122.76248 180.687273 
L 123.299163 156.751189 
L 123.835845 164.944075 
L 124.372528 157.387316 
L 124.909211 173.023488 
L 125.982576 173.223194 
L 126.519258 158.585852 
L 127.055941 173.415194 
L 127.592624 130.435241 
L 128.129306 152.337648 
L 128.665989 145.698747 
L 129.202671 146.138877 
L 129.739354 153.394069 
L 130.276037 146.994558 
L 130.812719 167.376563 
L 131.349402 180.687273 
L 131.886085 174.193756 
L 132.422767 174.272454 
L 132.95945 161.674635 
L 134.032815 174.500197 
L 134.569498 156.231782 
L 135.10618 162.561472 
L 135.642863 162.773445 
L 136.179545 174.785429 
L 136.716228 163.186415 
L 137.252911 157.620943 
L 137.789593 157.884665 
L 138.326276 175.051398 
L 138.862959 152.826258 
L 139.399641 164.158508 
L 139.936324 164.343133 
L 140.473006 175.29977 
L 141.009689 175.3593 
L 141.546372 159.609621 
L 142.619737 170.376911 
L 143.156419 170.488365 
L 143.693102 175.642653 
L 144.766467 165.874531 
L 145.30315 156.26063 
L 145.839833 166.185578 
L 146.376515 180.687273 
L 146.913198 171.22035 
L 147.986563 171.415033 
L 148.523246 153.155809 
L 149.059928 180.687273 
L 149.596611 167.200356 
L 150.133293 162.886367 
L 150.669976 176.281767 
L 151.206659 154.518572 
L 151.743341 150.460912 
L 152.280024 150.760159 
L 152.816707 167.987744 
L 153.353389 163.920539 
L 153.890072 164.084143 
L 154.426754 156.024371 
L 154.963437 168.474934 
L 155.50012 152.465967 
L 156.036802 156.728986 
L 156.573485 168.822248 
L 157.110167 165.017185 
L 157.64685 172.92611 
L 158.183533 149.934296 
L 158.720215 161.646283 
L 159.256898 169.368954 
L 159.793581 180.687273 
L 160.330263 158.466858 
L 160.866946 173.348434 
L 161.403628 169.77953 
L 161.940311 173.481557 
L 162.476994 169.976461 
L 163.013676 145.30631 
L 163.550359 177.180916 
L 164.087041 166.787078 
L 165.697089 167.152815 
L 166.233772 173.979396 
L 166.770455 177.362645 
L 167.307137 170.800108 
L 168.917185 161.419915 
L 169.453868 164.768388 
L 169.99055 174.373888 
L 170.527233 168.167546 
L 171.063915 165.169623 
L 171.600598 174.532384 
L 172.137281 162.377114 
L 172.673963 168.582255 
L 173.210646 153.676984 
L 174.284011 171.831757 
L 174.820694 168.976712 
L 175.357376 160.361084 
L 175.894059 157.646164 
L 176.430742 174.973645 
L 176.967424 172.18593 
L 177.504107 172.254209 
L 178.040789 177.89874 
L 178.577472 164.089397 
L 179.114155 161.476752 
L 179.650837 161.62857 
L 180.18752 159.077419 
L 180.724203 164.607047 
L 181.260885 178.02817 
L 181.797568 170.133634 
L 182.33425 167.597487 
L 183.407616 172.954012 
L 183.944298 167.897276 
L 184.480981 165.456405 
L 185.554346 170.686959 
L 186.091029 163.318719 
L 186.627711 163.449303 
L 187.164394 168.466705 
L 187.701077 156.428443 
L 188.237759 151.793071 
L 188.774442 175.907245 
L 189.311124 166.453032 
L 189.847807 173.62249 
L 190.38449 166.661227 
L 190.921172 164.442985 
L 191.457855 176.079791 
L 191.994537 160.103932 
L 192.53122 173.875705 
L 193.604585 169.497126 
L 194.141268 162.910878 
L 195.214633 167.543804 
L 195.751316 163.286442 
L 196.287998 169.888323 
L 196.824681 167.819462 
L 197.898046 155.309677 
L 198.434729 165.986573 
L 198.971411 166.088261 
L 199.508094 159.975435 
L 200.581459 176.601542 
L 201.118142 168.513765 
L 201.654825 162.551182 
L 202.72819 170.747628 
L 203.264872 156.992696 
L 203.801555 163.035586 
L 204.338238 170.946372 
L 204.87492 165.205733 
L 205.411603 165.308597 
L 205.948285 163.500823 
L 207.021651 163.726612 
L 207.558333 167.582166 
L 208.095016 165.807877 
L 208.631699 165.90485 
L 209.168381 169.672434 
L 209.705064 162.448064 
L 210.241746 162.565683 
L 210.778429 164.482711 
L 211.315112 168.164524 
L 211.851794 168.244559 
L 212.388477 166.55763 
L 212.925159 170.15727 
L 213.461842 166.736149 
L 213.998525 175.488609 
L 214.535207 166.911343 
L 215.07189 165.286572 
L 215.608573 160.281366 
L 216.145255 160.408469 
L 216.681938 163.893259 
L 217.21862 165.666217 
L 217.755303 169.07635 
L 218.291986 157.608376 
L 218.828668 165.941815 
L 219.902033 166.121403 
L 220.438716 167.818522 
L 220.975399 158.303545 
L 221.512081 172.741316 
L 222.048764 166.470834 
L 222.585447 171.266516 
L 223.122129 171.322914 
L 224.195494 162.181318 
L 224.732177 163.824083 
L 225.26886 166.971731 
L 225.805542 159.477982 
L 226.342225 168.638913 
L 227.41559 174.733477 
L 228.488955 160.090813 
L 229.025638 157.284964 
L 229.562321 173.41633 
L 230.099003 172.012376 
L 230.635686 167.749751 
L 231.172368 172.111741 
L 231.709051 167.897386 
L 233.319099 168.114199 
L 233.855781 166.796126 
L 234.392464 172.399554 
L 234.929147 166.951963 
L 235.465829 160.199668 
L 236.002512 171.179826 
L 237.075877 160.540163 
L 237.61256 170.001728 
L 238.149242 171.389058 
L 238.685925 166.156388 
L 239.222608 170.177406 
L 239.75929 170.234953 
L 240.295973 163.795035 
L 240.832656 167.764119 
L 241.369338 161.407818 
L 241.906021 170.46065 
L 242.442703 167.973127 
L 242.979386 161.718829 
L 243.516069 163.078538 
L 244.052751 170.679116 
L 244.589434 162.022357 
L 245.126116 168.310307 
L 245.662799 169.607299 
L 246.199482 169.66605 
L 246.736164 167.288099 
L 247.272847 168.570573 
L 247.80953 175.866077 
L 248.346212 161.503838 
L 248.882895 169.953014 
L 249.419577 173.568496 
L 249.95626 174.785853 
L 250.492943 166.597441 
L 251.029625 177.183082 
L 251.566308 166.742878 
L 252.10299 159.878477 
L 252.639673 173.786656 
L 253.176356 158.947408 
L 253.713038 168.165412 
L 254.249721 169.361867 
L 254.786404 173.926611 
L 255.323086 168.355669 
L 255.859769 167.302718 
L 256.396451 165.150832 
L 256.933134 164.124897 
L 258.543182 167.635663 
L 258.543182 167.635663 
" clip-path="url(#pbf85cdc6bf)" style="fill: none; stroke: #0000ff; stroke-opacity: 0.5; stroke-linecap: square"/>
   </g>
   <g id="line2d_17">
    <path d="M 44.406818 180.687273 
L 103.978589 180.687273 
L 104.515271 131.921287 
L 105.051954 180.687273 
L 105.588636 180.687273 
L 106.125319 157.554465 
L 106.662002 157.949895 
L 107.198684 180.687273 
L 107.735367 180.687273 
L 108.272049 159.077163 
L 108.808732 180.687273 
L 109.345415 180.687273 
L 109.882097 160.1227 
L 110.41878 160.454376 
L 110.955463 180.687273 
L 111.492145 121.907712 
L 112.028828 161.402606 
L 113.102193 161.998256 
L 114.175558 126.325649 
L 114.712241 162.841298 
L 115.248923 163.109611 
L 115.785606 146.056693 
L 116.322289 180.687273 
L 117.395654 180.687273 
L 117.932337 164.364713 
L 119.005702 164.829427 
L 119.542384 149.421409 
L 120.079067 149.861772 
L 120.61575 180.687273 
L 121.152432 180.687273 
L 121.689115 165.90785 
L 122.225797 180.687273 
L 122.76248 180.687273 
L 123.299163 152.318583 
L 123.835845 180.687273 
L 124.372528 166.879893 
L 124.909211 180.687273 
L 125.445893 180.687273 
L 125.982576 154.148327 
L 127.055941 180.687273 
L 127.592624 180.687273 
L 128.129306 142.887781 
L 128.665989 180.687273 
L 130.276037 144.748384 
L 130.812719 168.855533 
L 131.349402 169.00072 
L 131.886085 180.687273 
L 132.422767 146.474916 
L 133.496132 169.555471 
L 134.032815 147.689538 
L 134.569498 148.079959 
L 135.10618 169.946058 
L 135.642863 180.687273 
L 136.179545 159.702941 
L 136.716228 149.574643 
L 137.252911 170.435572 
L 137.789593 140.149306 
L 138.326276 160.648608 
L 138.862959 160.875 
L 139.399641 170.89245 
L 140.473006 151.953932 
L 141.009689 171.215323 
L 142.083054 171.421784 
L 142.619737 162.357744 
L 143.156419 162.555884 
L 143.693102 180.687273 
L 144.229785 162.942685 
L 145.839833 163.500081 
L 146.376515 172.183666 
L 146.913198 147.027105 
L 147.44988 172.359431 
L 147.986563 172.445282 
L 148.523246 180.687273 
L 149.059928 180.687273 
L 149.596611 164.702779 
L 150.133293 156.952737 
L 150.669976 172.855263 
L 151.206659 172.933585 
L 151.743341 165.334203 
L 152.280024 150.285128 
L 152.816707 180.687273 
L 153.353389 150.87975 
L 153.890072 165.928937 
L 154.426754 173.379747 
L 154.963437 166.213391 
L 155.50012 180.687273 
L 156.036802 166.48977 
L 156.573485 166.625023 
L 157.110167 145.864862 
L 157.64685 180.687273 
L 158.183533 180.687273 
L 158.720215 153.606759 
L 159.793581 180.687273 
L 160.330263 160.935796 
L 160.866946 174.163862 
L 161.403628 180.687273 
L 161.940311 161.472035 
L 162.476994 174.340126 
L 163.013676 180.687273 
L 163.550359 168.220227 
L 164.623724 156.195428 
L 165.160407 162.480974 
L 165.697089 180.687273 
L 166.233772 162.799604 
L 166.770455 162.95593 
L 167.307137 174.828213 
L 168.380502 163.412478 
L 169.453868 163.707132 
L 170.527233 175.122951 
L 171.063915 169.652502 
L 171.600598 169.745249 
L 172.137281 158.986347 
L 172.673963 153.787236 
L 173.210646 164.681178 
L 173.747329 170.104736 
L 174.284011 180.687273 
L 174.820694 165.073194 
L 175.357376 175.525067 
L 175.894059 175.567027 
L 176.430742 165.450934 
L 176.967424 165.573776 
L 177.504107 155.700419 
L 179.114155 170.929549 
L 179.650837 171.006662 
L 180.18752 156.676326 
L 180.724203 161.629229 
L 181.260885 175.95998 
L 181.797568 147.853737 
L 182.33425 166.724838 
L 182.870933 152.978015 
L 183.407616 153.191239 
L 183.944298 148.854399 
L 184.480981 167.148726 
L 185.017663 171.730249 
L 185.554346 162.908939 
L 186.091029 149.809845 
L 186.627711 180.687273 
L 187.164394 158.961822 
L 187.701077 159.123872 
L 188.237759 167.845408 
L 188.774442 180.687273 
L 189.311124 151.164405 
L 189.847807 168.127662 
L 190.921172 176.56174 
L 191.457855 168.400656 
L 191.994537 172.555584 
L 192.53122 168.577822 
L 193.067903 160.650001 
L 193.604585 172.729836 
L 194.141268 168.836345 
L 194.677951 157.154128 
L 195.214633 165.10983 
L 196.287998 165.328769 
L 196.824681 173.061905 
L 197.361364 157.971132 
L 197.898046 165.648699 
L 198.434729 169.486741 
L 198.971411 151.025791 
L 199.508094 173.323065 
L 200.044777 158.746497 
L 200.581459 169.791993 
L 201.118142 166.259414 
L 201.654825 173.522398 
L 202.191507 170.01283 
L 202.72819 155.948604 
L 203.264872 166.646044 
L 204.338238 159.906687 
L 204.87492 166.925906 
L 205.948285 167.107857 
L 206.484968 170.569991 
L 207.021651 180.687273 
L 207.558333 164.045869 
L 208.095016 170.767677 
L 208.631699 157.692397 
L 209.168381 161.10534 
L 209.705064 170.959697 
L 210.778429 158.28097 
L 211.315112 177.506892 
L 211.851794 161.726949 
L 212.388477 171.267512 
L 213.461842 165.186024 
L 213.998525 171.445206 
L 215.07189 165.476707 
L 215.608573 168.594885 
L 216.145255 165.665938 
L 216.681938 171.730467 
L 217.21862 159.917421 
L 217.755303 165.943244 
L 218.291986 166.034006 
L 218.828668 169.036543 
L 219.365351 169.107851 
L 220.438716 163.528941 
L 220.975399 175.002517 
L 221.512081 175.036815 
L 222.048764 163.838163 
L 222.585447 172.313269 
L 223.122129 164.039526 
L 223.658812 169.655125 
L 224.195494 166.979159 
L 224.732177 175.236545 
L 225.26886 172.559545 
L 225.805542 159.14133 
L 226.342225 164.622796 
L 226.878907 175.363865 
L 227.952273 170.164435 
L 228.488955 172.841003 
L 229.025638 180.687273 
L 229.562321 170.346377 
L 230.099003 165.265237 
L 230.635686 173.020595 
L 231.172368 173.064579 
L 231.709051 165.528892 
L 232.245734 160.59139 
L 232.782416 165.700875 
L 233.319099 148.400864 
L 233.855781 173.278662 
L 234.392464 165.953553 
L 235.465829 170.974632 
L 236.002512 171.028915 
L 236.539195 159.077068 
L 237.075877 173.523857 
L 237.61256 168.814446 
L 238.149242 175.96437 
L 238.685925 164.248293 
L 239.222608 171.345171 
L 239.75929 166.750849 
L 240.295973 171.447075 
L 240.832656 162.307679 
L 241.369338 171.547385 
L 242.442703 171.646104 
L 242.979386 158.206158 
L 243.516069 169.507125 
L 244.052751 162.894995 
L 245.126116 167.485178 
L 245.662799 165.366818 
L 246.199482 158.916959 
L 246.736164 174.190704 
L 247.272847 167.762795 
L 247.80953 169.973505 
L 248.346212 161.50384 
L 248.882895 163.724497 
L 249.419577 170.140937 
L 249.95626 163.901016 
L 250.492943 166.075598 
L 251.029625 170.304486 
L 251.566308 168.292257 
L 252.10299 174.521705 
L 253.713038 156.402456 
L 254.249721 162.566627 
L 254.786404 172.674637 
L 255.323086 172.715328 
L 255.859769 174.738582 
L 256.396451 168.849986 
L 257.469817 172.874921 
L 258.006499 163.197635 
L 258.543182 169.085843 
L 258.543182 169.085843 
" clip-path="url(#pbf85cdc6bf)" style="fill: none; stroke: #ff0000; stroke-opacity: 0.5; stroke-linecap: square"/>
   </g>
   <g id="patch_3">
    <path d="M 33.7 188.6 
L 33.7 14.52 
" style="fill: none; stroke: #000000; stroke-width: 0.8; stroke-linejoin: miter; stroke-linecap: square"/>
   </g>
   <g id="patch_4">
    <path d="M 269.25 188.6 
L 269.25 14.52 
" style="fill: none; stroke: #000000; stroke-width: 0.8; stroke-linejoin: miter; stroke-linecap: square"/>
   </g>
   <g id="patch_5">
    <path d="M 33.7 188.6 
L 269.25 188.6 
" style="fill: none; stroke: #000000; stroke-width: 0.8; stroke-linejoin: miter; stroke-linecap: square"/>
   </g>
   <g id="patch_6">
    <path d="M 33.7 14.52 
L 269.25 14.52 
" style="fill: none; stroke: #000000; stroke-width: 0.8; stroke-linejoin: miter; stroke-linecap: square"/>
   </g>
   <g id="legend_1">
    <g id="patch_7">
     <path d="M 213.917188 66.554375 
L 262.25 66.554375 
Q 264.25 66.554375 264.25 64.554375 
L 264.25 21.52 
Q 264.25 19.52 262.25 19.52 
L 213.917188 19.52 
Q 211.917188 19.52 211.917188 21.52 
L 211.917188 64.554375 
Q 211.917188 66.554375 213.917188 66.554375 
z
" style="fill: #ffffff; opacity: 0.8; stroke: #cccccc; stroke-linejoin: miter"/>
    </g>
    <g id="line2d_18">
     <path d="M 215.917188 27.618438 
L 225.917188 27.618438 
L 235.917188 27.618438 
" style="fill: none; stroke: #000000; stroke-opacity: 0.5; stroke-width: 0.5; stroke-linecap: square"/>
    </g>
    <g id="text_17">
     <!-- all -->
     <g transform="translate(243.917188 31.118438) scale(0.1 -0.1)">
      <defs>
       <path id="DejaVuSans-61" d="M 2194 1759 
Q 1497 1759 1228 1600 
Q 959 1441 959 1056 
Q 959 750 1161 570 
Q 1363 391 1709 391 
Q 2188 391 2477 730 
Q 2766 1069 2766 1631 
L 2766 1759 
L 2194 1759 
z
M 3341 1997 
L 3341 0 
L 2766 0 
L 2766 531 
Q 2569 213 2275 61 
Q 1981 -91 1556 -91 
Q 1019 -91 701 211 
Q 384 513 384 1019 
Q 384 1609 779 1909 
Q 1175 2209 1959 2209 
L 2766 2209 
L 2766 2266 
Q 2766 2663 2505 2880 
Q 2244 3097 1772 3097 
Q 1472 3097 1187 3025 
Q 903 2953 641 2809 
L 641 3341 
Q 956 3463 1253 3523 
Q 1550 3584 1831 3584 
Q 2591 3584 2966 3190 
Q 3341 2797 3341 1997 
z
" transform="scale(0.015625)"/>
       <path id="DejaVuSans-6c" d="M 603 4863 
L 1178 4863 
L 1178 0 
L 603 0 
L 603 4863 
z
" transform="scale(0.015625)"/>
      </defs>
      <use xlink:href="#DejaVuSans-61"/>
      <use xlink:href="#DejaVuSans-6c" transform="translate(61.279297 0)"/>
      <use xlink:href="#DejaVuSans-6c" transform="translate(89.0625 0)"/>
     </g>
    </g>
    <g id="line2d_19">
     <path d="M 215.917188 42.296563 
L 225.917188 42.296563 
L 235.917188 42.296563 
" style="fill: none; stroke: #0000ff; stroke-opacity: 0.5; stroke-linecap: square"/>
    </g>
    <g id="text_18">
     <!-- 1-1 -->
     <g transform="translate(243.917188 45.796563) scale(0.1 -0.1)">
      <defs>
       <path id="DejaVuSans-2d" d="M 313 2009 
L 1997 2009 
L 1997 1497 
L 313 1497 
L 313 2009 
z
" transform="scale(0.015625)"/>
      </defs>
      <use xlink:href="#DejaVuSans-31"/>
      <use xlink:href="#DejaVuSans-2d" transform="translate(63.623047 0)"/>
      <use xlink:href="#DejaVuSans-31" transform="translate(99.707031 0)"/>
     </g>
    </g>
    <g id="line2d_20">
     <path d="M 215.917188 56.974688 
L 225.917188 56.974688 
L 235.917188 56.974688 
" style="fill: none; stroke: #ff0000; stroke-opacity: 0.5; stroke-linecap: square"/>
    </g>
    <g id="text_19">
     <!-- 2-2 -->
     <g transform="translate(243.917188 60.474688) scale(0.1 -0.1)">
      <use xlink:href="#DejaVuSans-32"/>
      <use xlink:href="#DejaVuSans-2d" transform="translate(63.623047 0)"/>
      <use xlink:href="#DejaVuSans-32" transform="translate(99.707031 0)"/>
     </g>
    </g>
   </g>
  </g>
 </g>
 <defs>
  <clipPath id="pbf85cdc6bf">
   <rect x="33.7" y="14.52" width="235.55" height="174.08"/>
  </clipPath>
 </defs>
</svg>
