<?xml version="1.0" encoding="utf-8" standalone="no"?>
<!DOCTYPE svg PUBLIC "-//W3C//DTD SVG 1.1//EN"
  "http://www.w3.org/Graphics/SVG/1.1/DTD/svg11.dtd">
<svg xmlns:xlink="http://www.w3.org/1999/xlink" width="288pt" height="216pt" viewBox="0 0 288 216" xmlns="http://www.w3.org/2000/svg" version="1.1">
 <metadata>
  <rdf:RDF xmlns:dc="http://purl.org/dc/elements/1.1/" xmlns:cc="http://creativecommons.org/ns#" xmlns:rdf="http://www.w3.org/1999/02/22-rdf-syntax-ns#">
   <cc:Work>
    <dc:type rdf:resource="http://purl.org/dc/dcmitype/StillImage"/>
    <dc:date>2025-09-18T00:47:16.775609</dc:date>
    <dc:format>image/svg+xml</dc:format>
    <dc:creator>
     <cc:Agent>
      <dc:title>Matplotlib v3.10.0, https://matplotlib.org/</dc:title>
     </cc:Agent>
    </dc:creator>
   </cc:Work>
  </rdf:RDF>
 </metadata>
 <defs>
  <style type="text/css">*{stroke-linejoin: round; stroke-linecap: butt}</style>
 </defs>
 <g id="figure_1">
  <g id="patch_1">
   <path d="M 0 216 
L 288 216 
L 288 0 
L 0 0 
z
" style="fill: #ffffff"/>
  </g>
  <g id="axes_1">
   <g id="patch_2">
    <path d="M 33.7 188.6 
L 269.25 188.6 
L 269.25 14.52 
L 33.7 14.52 
z
" style="fill: #ffffff"/>
   </g>
   <g id="matplotlib.axis_1">
    <g id="xtick_1">
     <g id="line2d_1">
      <defs>
       <path id="m7bf34e8611" d="M 0 0 
L 0 3.5 
" style="stroke: #000000; stroke-width: 0.8"/>
      </defs>
      <g>
       <use xlink:href="#m7bf34e8611" x="44.138477" y="188.6" style="stroke: #000000; stroke-width: 0.8"/>
      </g>
     </g>
     <g id="text_1">
      <!-- 0 -->
      <g transform="translate(40.957227 203.198437) scale(0.1 -0.1)">
       <defs>
        <path id="DejaVuSans-30" d="M 2034 4250 
Q 1547 4250 1301 3770 
Q 1056 3291 1056 2328 
Q 1056 1369 1301 889 
Q 1547 409 2034 409 
Q 2525 409 2770 889 
Q 3016 1369 3016 2328 
Q 3016 3291 2770 3770 
Q 2525 4250 2034 4250 
z
M 2034 4750 
Q 2819 4750 3233 4129 
Q 3647 3509 3647 2328 
Q 3647 1150 3233 529 
Q 2819 -91 2034 -91 
Q 1250 -91 836 529 
Q 422 1150 422 2328 
Q 422 3509 836 4129 
Q 1250 4750 2034 4750 
z
" transform="scale(0.015625)"/>
       </defs>
       <use xlink:href="#DejaVuSans-30"/>
      </g>
     </g>
    </g>
    <g id="xtick_2">
     <g id="line2d_2">
      <g>
       <use xlink:href="#m7bf34e8611" x="87.073086" y="188.6" style="stroke: #000000; stroke-width: 0.8"/>
      </g>
     </g>
     <g id="text_2">
      <!-- 200 -->
      <g transform="translate(77.529336 203.198437) scale(0.1 -0.1)">
       <defs>
        <path id="DejaVuSans-32" d="M 1228 531 
L 3431 531 
L 3431 0 
L 469 0 
L 469 531 
Q 828 903 1448 1529 
Q 2069 2156 2228 2338 
Q 2531 2678 2651 2914 
Q 2772 3150 2772 3378 
Q 2772 3750 2511 3984 
Q 2250 4219 1831 4219 
Q 1534 4219 1204 4116 
Q 875 4013 500 3803 
L 500 4441 
Q 881 4594 1212 4672 
Q 1544 4750 1819 4750 
Q 2544 4750 2975 4387 
Q 3406 4025 3406 3419 
Q 3406 3131 3298 2873 
Q 3191 2616 2906 2266 
Q 2828 2175 2409 1742 
Q 1991 1309 1228 531 
z
" transform="scale(0.015625)"/>
       </defs>
       <use xlink:href="#DejaVuSans-32"/>
       <use xlink:href="#DejaVuSans-30" transform="translate(63.623047 0)"/>
       <use xlink:href="#DejaVuSans-30" transform="translate(127.246094 0)"/>
      </g>
     </g>
    </g>
    <g id="xtick_3">
     <g id="line2d_3">
      <g>
       <use xlink:href="#m7bf34e8611" x="130.007695" y="188.6" style="stroke: #000000; stroke-width: 0.8"/>
      </g>
     </g>
     <g id="text_3">
      <!-- 400 -->
      <g transform="translate(120.463945 203.198437) scale(0.1 -0.1)">
       <defs>
        <path id="DejaVuSans-34" d="M 2419 4116 
L 825 1625 
L 2419 1625 
L 2419 4116 
z
M 2253 4666 
L 3047 4666 
L 3047 1625 
L 3713 1625 
L 3713 1100 
L 3047 1100 
L 3047 0 
L 2419 0 
L 2419 1100 
L 313 1100 
L 313 1709 
L 2253 4666 
z
" transform="scale(0.015625)"/>
       </defs>
       <use xlink:href="#DejaVuSans-34"/>
       <use xlink:href="#DejaVuSans-30" transform="translate(63.623047 0)"/>
       <use xlink:href="#DejaVuSans-30" transform="translate(127.246094 0)"/>
      </g>
     </g>
    </g>
    <g id="xtick_4">
     <g id="line2d_4">
      <g>
       <use xlink:href="#m7bf34e8611" x="172.942305" y="188.6" style="stroke: #000000; stroke-width: 0.8"/>
      </g>
     </g>
     <g id="text_4">
      <!-- 600 -->
      <g transform="translate(163.398555 203.198437) scale(0.1 -0.1)">
       <defs>
        <path id="DejaVuSans-36" d="M 2113 2584 
Q 1688 2584 1439 2293 
Q 1191 2003 1191 1497 
Q 1191 994 1439 701 
Q 1688 409 2113 409 
Q 2538 409 2786 701 
Q 3034 994 3034 1497 
Q 3034 2003 2786 2293 
Q 2538 2584 2113 2584 
z
M 3366 4563 
L 3366 3988 
Q 3128 4100 2886 4159 
Q 2644 4219 2406 4219 
Q 1781 4219 1451 3797 
Q 1122 3375 1075 2522 
Q 1259 2794 1537 2939 
Q 1816 3084 2150 3084 
Q 2853 3084 3261 2657 
Q 3669 2231 3669 1497 
Q 3669 778 3244 343 
Q 2819 -91 2113 -91 
Q 1303 -91 875 529 
Q 447 1150 447 2328 
Q 447 3434 972 4092 
Q 1497 4750 2381 4750 
Q 2619 4750 2861 4703 
Q 3103 4656 3366 4563 
z
" transform="scale(0.015625)"/>
       </defs>
       <use xlink:href="#DejaVuSans-36"/>
       <use xlink:href="#DejaVuSans-30" transform="translate(63.623047 0)"/>
       <use xlink:href="#DejaVuSans-30" transform="translate(127.246094 0)"/>
      </g>
     </g>
    </g>
    <g id="xtick_5">
     <g id="line2d_5">
      <g>
       <use xlink:href="#m7bf34e8611" x="215.876914" y="188.6" style="stroke: #000000; stroke-width: 0.8"/>
      </g>
     </g>
     <g id="text_5">
      <!-- 800 -->
      <g transform="translate(206.333164 203.198437) scale(0.1 -0.1)">
       <defs>
        <path id="DejaVuSans-38" d="M 2034 2216 
Q 1584 2216 1326 1975 
Q 1069 1734 1069 1313 
Q 1069 891 1326 650 
Q 1584 409 2034 409 
Q 2484 409 2743 651 
Q 3003 894 3003 1313 
Q 3003 1734 2745 1975 
Q 2488 2216 2034 2216 
z
M 1403 2484 
Q 997 2584 770 2862 
Q 544 3141 544 3541 
Q 544 4100 942 4425 
Q 1341 4750 2034 4750 
Q 2731 4750 3128 4425 
Q 3525 4100 3525 3541 
Q 3525 3141 3298 2862 
Q 3072 2584 2669 2484 
Q 3125 2378 3379 2068 
Q 3634 1759 3634 1313 
Q 3634 634 3220 271 
Q 2806 -91 2034 -91 
Q 1263 -91 848 271 
Q 434 634 434 1313 
Q 434 1759 690 2068 
Q 947 2378 1403 2484 
z
M 1172 3481 
Q 1172 3119 1398 2916 
Q 1625 2713 2034 2713 
Q 2441 2713 2670 2916 
Q 2900 3119 2900 3481 
Q 2900 3844 2670 4047 
Q 2441 4250 2034 4250 
Q 1625 4250 1398 4047 
Q 1172 3844 1172 3481 
z
" transform="scale(0.015625)"/>
       </defs>
       <use xlink:href="#DejaVuSans-38"/>
       <use xlink:href="#DejaVuSans-30" transform="translate(63.623047 0)"/>
       <use xlink:href="#DejaVuSans-30" transform="translate(127.246094 0)"/>
      </g>
     </g>
    </g>
    <g id="xtick_6">
     <g id="line2d_6">
      <g>
       <use xlink:href="#m7bf34e8611" x="258.811523" y="188.6" style="stroke: #000000; stroke-width: 0.8"/>
      </g>
     </g>
     <g id="text_6">
      <!-- 1000 -->
      <g transform="translate(246.086523 203.198437) scale(0.1 -0.1)">
       <defs>
        <path id="DejaVuSans-31" d="M 794 531 
L 1825 531 
L 1825 4091 
L 703 3866 
L 703 4441 
L 1819 4666 
L 2450 4666 
L 2450 531 
L 3481 531 
L 3481 0 
L 794 0 
L 794 531 
z
" transform="scale(0.015625)"/>
       </defs>
       <use xlink:href="#DejaVuSans-31"/>
       <use xlink:href="#DejaVuSans-30" transform="translate(63.623047 0)"/>
       <use xlink:href="#DejaVuSans-30" transform="translate(127.246094 0)"/>
       <use xlink:href="#DejaVuSans-30" transform="translate(190.869141 0)"/>
      </g>
     </g>
    </g>
    <g id="text_7">
     <!-- q (nm) -->
     <g transform="translate(134.771094 216.876563) scale(0.1 -0.1)">
      <defs>
       <path id="DejaVuSans-71" d="M 947 1747 
Q 947 1113 1208 752 
Q 1469 391 1925 391 
Q 2381 391 2643 752 
Q 2906 1113 2906 1747 
Q 2906 2381 2643 2742 
Q 2381 3103 1925 3103 
Q 1469 3103 1208 2742 
Q 947 2381 947 1747 
z
M 2906 525 
Q 2725 213 2448 61 
Q 2172 -91 1784 -91 
Q 1150 -91 751 415 
Q 353 922 353 1747 
Q 353 2572 751 3078 
Q 1150 3584 1784 3584 
Q 2172 3584 2448 3432 
Q 2725 3281 2906 2969 
L 2906 3500 
L 3481 3500 
L 3481 -1331 
L 2906 -1331 
L 2906 525 
z
" transform="scale(0.015625)"/>
       <path id="DejaVuSans-20" transform="scale(0.015625)"/>
       <path id="DejaVuSans-28" d="M 1984 4856 
Q 1566 4138 1362 3434 
Q 1159 2731 1159 2009 
Q 1159 1288 1364 580 
Q 1569 -128 1984 -844 
L 1484 -844 
Q 1016 -109 783 600 
Q 550 1309 550 2009 
Q 550 2706 781 3412 
Q 1013 4119 1484 4856 
L 1984 4856 
z
" transform="scale(0.015625)"/>
       <path id="DejaVuSans-6e" d="M 3513 2113 
L 3513 0 
L 2938 0 
L 2938 2094 
Q 2938 2591 2744 2837 
Q 2550 3084 2163 3084 
Q 1697 3084 1428 2787 
Q 1159 2491 1159 1978 
L 1159 0 
L 581 0 
L 581 3500 
L 1159 3500 
L 1159 2956 
Q 1366 3272 1645 3428 
Q 1925 3584 2291 3584 
Q 2894 3584 3203 3211 
Q 3513 2838 3513 2113 
z
" transform="scale(0.015625)"/>
       <path id="DejaVuSans-6d" d="M 3328 2828 
Q 3544 3216 3844 3400 
Q 4144 3584 4550 3584 
Q 5097 3584 5394 3201 
Q 5691 2819 5691 2113 
L 5691 0 
L 5113 0 
L 5113 2094 
Q 5113 2597 4934 2840 
Q 4756 3084 4391 3084 
Q 3944 3084 3684 2787 
Q 3425 2491 3425 1978 
L 3425 0 
L 2847 0 
L 2847 2094 
Q 2847 2600 2669 2842 
Q 2491 3084 2119 3084 
Q 1678 3084 1418 2786 
Q 1159 2488 1159 1978 
L 1159 0 
L 581 0 
L 581 3500 
L 1159 3500 
L 1159 2956 
Q 1356 3278 1631 3431 
Q 1906 3584 2284 3584 
Q 2666 3584 2933 3390 
Q 3200 3197 3328 2828 
z
" transform="scale(0.015625)"/>
       <path id="DejaVuSans-29" d="M 513 4856 
L 1013 4856 
Q 1481 4119 1714 3412 
Q 1947 2706 1947 2009 
Q 1947 1309 1714 600 
Q 1481 -109 1013 -844 
L 513 -844 
Q 928 -128 1133 580 
Q 1338 1288 1338 2009 
Q 1338 2731 1133 3434 
Q 928 4138 513 4856 
z
" transform="scale(0.015625)"/>
      </defs>
      <use xlink:href="#DejaVuSans-71"/>
      <use xlink:href="#DejaVuSans-20" transform="translate(63.476562 0)"/>
      <use xlink:href="#DejaVuSans-28" transform="translate(95.263672 0)"/>
      <use xlink:href="#DejaVuSans-6e" transform="translate(134.277344 0)"/>
      <use xlink:href="#DejaVuSans-6d" transform="translate(197.65625 0)"/>
      <use xlink:href="#DejaVuSans-29" transform="translate(295.068359 0)"/>
     </g>
    </g>
   </g>
   <g id="matplotlib.axis_2">
    <g id="ytick_1">
     <g id="line2d_7">
      <defs>
       <path id="m1388fd6437" d="M 0 0 
L -3.5 0 
" style="stroke: #000000; stroke-width: 0.8"/>
      </defs>
      <g>
       <use xlink:href="#m1388fd6437" x="33.7" y="180.687273" style="stroke: #000000; stroke-width: 0.8"/>
      </g>
     </g>
     <g id="text_8">
      <!-- 0 -->
      <g transform="translate(20.3375 184.486491) scale(0.1 -0.1)">
       <use xlink:href="#DejaVuSans-30"/>
      </g>
     </g>
    </g>
    <g id="ytick_2">
     <g id="line2d_8">
      <g>
       <use xlink:href="#m1388fd6437" x="33.7" y="153.542591" style="stroke: #000000; stroke-width: 0.8"/>
      </g>
     </g>
     <g id="text_9">
      <!-- 10000 -->
      <g transform="translate(-5.1125 157.34181) scale(0.1 -0.1)">
       <use xlink:href="#DejaVuSans-31"/>
       <use xlink:href="#DejaVuSans-30" transform="translate(63.623047 0)"/>
       <use xlink:href="#DejaVuSans-30" transform="translate(127.246094 0)"/>
       <use xlink:href="#DejaVuSans-30" transform="translate(190.869141 0)"/>
       <use xlink:href="#DejaVuSans-30" transform="translate(254.492188 0)"/>
      </g>
     </g>
    </g>
    <g id="ytick_3">
     <g id="line2d_9">
      <g>
       <use xlink:href="#m1388fd6437" x="33.7" y="126.397909" style="stroke: #000000; stroke-width: 0.8"/>
      </g>
     </g>
     <g id="text_10">
      <!-- 20000 -->
      <g transform="translate(-5.1125 130.197128) scale(0.1 -0.1)">
       <use xlink:href="#DejaVuSans-32"/>
       <use xlink:href="#DejaVuSans-30" transform="translate(63.623047 0)"/>
       <use xlink:href="#DejaVuSans-30" transform="translate(127.246094 0)"/>
       <use xlink:href="#DejaVuSans-30" transform="translate(190.869141 0)"/>
       <use xlink:href="#DejaVuSans-30" transform="translate(254.492188 0)"/>
      </g>
     </g>
    </g>
    <g id="ytick_4">
     <g id="line2d_10">
      <g>
       <use xlink:href="#m1388fd6437" x="33.7" y="99.253227" style="stroke: #000000; stroke-width: 0.8"/>
      </g>
     </g>
     <g id="text_11">
      <!-- 30000 -->
      <g transform="translate(-5.1125 103.052446) scale(0.1 -0.1)">
       <defs>
        <path id="DejaVuSans-33" d="M 2597 2516 
Q 3050 2419 3304 2112 
Q 3559 1806 3559 1356 
Q 3559 666 3084 287 
Q 2609 -91 1734 -91 
Q 1441 -91 1130 -33 
Q 819 25 488 141 
L 488 750 
Q 750 597 1062 519 
Q 1375 441 1716 441 
Q 2309 441 2620 675 
Q 2931 909 2931 1356 
Q 2931 1769 2642 2001 
Q 2353 2234 1838 2234 
L 1294 2234 
L 1294 2753 
L 1863 2753 
Q 2328 2753 2575 2939 
Q 2822 3125 2822 3475 
Q 2822 3834 2567 4026 
Q 2313 4219 1838 4219 
Q 1578 4219 1281 4162 
Q 984 4106 628 3988 
L 628 4550 
Q 988 4650 1302 4700 
Q 1616 4750 1894 4750 
Q 2613 4750 3031 4423 
Q 3450 4097 3450 3541 
Q 3450 3153 3228 2886 
Q 3006 2619 2597 2516 
z
" transform="scale(0.015625)"/>
       </defs>
       <use xlink:href="#DejaVuSans-33"/>
       <use xlink:href="#DejaVuSans-30" transform="translate(63.623047 0)"/>
       <use xlink:href="#DejaVuSans-30" transform="translate(127.246094 0)"/>
       <use xlink:href="#DejaVuSans-30" transform="translate(190.869141 0)"/>
       <use xlink:href="#DejaVuSans-30" transform="translate(254.492188 0)"/>
      </g>
     </g>
    </g>
    <g id="ytick_5">
     <g id="line2d_11">
      <g>
       <use xlink:href="#m1388fd6437" x="33.7" y="72.108545" style="stroke: #000000; stroke-width: 0.8"/>
      </g>
     </g>
     <g id="text_12">
      <!-- 40000 -->
      <g transform="translate(-5.1125 75.907764) scale(0.1 -0.1)">
       <use xlink:href="#DejaVuSans-34"/>
       <use xlink:href="#DejaVuSans-30" transform="translate(63.623047 0)"/>
       <use xlink:href="#DejaVuSans-30" transform="translate(127.246094 0)"/>
       <use xlink:href="#DejaVuSans-30" transform="translate(190.869141 0)"/>
       <use xlink:href="#DejaVuSans-30" transform="translate(254.492188 0)"/>
      </g>
     </g>
    </g>
    <g id="ytick_6">
     <g id="line2d_12">
      <g>
       <use xlink:href="#m1388fd6437" x="33.7" y="44.963863" style="stroke: #000000; stroke-width: 0.8"/>
      </g>
     </g>
     <g id="text_13">
      <!-- 50000 -->
      <g transform="translate(-5.1125 48.763082) scale(0.1 -0.1)">
       <defs>
        <path id="DejaVuSans-35" d="M 691 4666 
L 3169 4666 
L 3169 4134 
L 1269 4134 
L 1269 2991 
Q 1406 3038 1543 3061 
Q 1681 3084 1819 3084 
Q 2600 3084 3056 2656 
Q 3513 2228 3513 1497 
Q 3513 744 3044 326 
Q 2575 -91 1722 -91 
Q 1428 -91 1123 -41 
Q 819 9 494 109 
L 494 744 
Q 775 591 1075 516 
Q 1375 441 1709 441 
Q 2250 441 2565 725 
Q 2881 1009 2881 1497 
Q 2881 1984 2565 2268 
Q 2250 2553 1709 2553 
Q 1456 2553 1204 2497 
Q 953 2441 691 2322 
L 691 4666 
z
" transform="scale(0.015625)"/>
       </defs>
       <use xlink:href="#DejaVuSans-35"/>
       <use xlink:href="#DejaVuSans-30" transform="translate(63.623047 0)"/>
       <use xlink:href="#DejaVuSans-30" transform="translate(127.246094 0)"/>
       <use xlink:href="#DejaVuSans-30" transform="translate(190.869141 0)"/>
       <use xlink:href="#DejaVuSans-30" transform="translate(254.492188 0)"/>
      </g>
     </g>
    </g>
    <g id="ytick_7">
     <g id="line2d_13">
      <g>
       <use xlink:href="#m1388fd6437" x="33.7" y="17.819181" style="stroke: #000000; stroke-width: 0.8"/>
      </g>
     </g>
     <g id="text_14">
      <!-- 60000 -->
      <g transform="translate(-5.1125 21.6184) scale(0.1 -0.1)">
       <use xlink:href="#DejaVuSans-36"/>
       <use xlink:href="#DejaVuSans-30" transform="translate(63.623047 0)"/>
       <use xlink:href="#DejaVuSans-30" transform="translate(127.246094 0)"/>
       <use xlink:href="#DejaVuSans-30" transform="translate(190.869141 0)"/>
       <use xlink:href="#DejaVuSans-30" transform="translate(254.492188 0)"/>
      </g>
     </g>
    </g>
    <g id="text_15">
     <!-- rdf -->
     <g transform="translate(-11.192187 108.462344) rotate(-90) scale(0.1 -0.1)">
      <defs>
       <path id="DejaVuSans-72" d="M 2631 2963 
Q 2534 3019 2420 3045 
Q 2306 3072 2169 3072 
Q 1681 3072 1420 2755 
Q 1159 2438 1159 1844 
L 1159 0 
L 581 0 
L 581 3500 
L 1159 3500 
L 1159 2956 
Q 1341 3275 1631 3429 
Q 1922 3584 2338 3584 
Q 2397 3584 2469 3576 
Q 2541 3569 2628 3553 
L 2631 2963 
z
" transform="scale(0.015625)"/>
       <path id="DejaVuSans-64" d="M 2906 2969 
L 2906 4863 
L 3481 4863 
L 3481 0 
L 2906 0 
L 2906 525 
Q 2725 213 2448 61 
Q 2172 -91 1784 -91 
Q 1150 -91 751 415 
Q 353 922 353 1747 
Q 353 2572 751 3078 
Q 1150 3584 1784 3584 
Q 2172 3584 2448 3432 
Q 2725 3281 2906 2969 
z
M 947 1747 
Q 947 1113 1208 752 
Q 1469 391 1925 391 
Q 2381 391 2643 752 
Q 2906 1113 2906 1747 
Q 2906 2381 2643 2742 
Q 2381 3103 1925 3103 
Q 1469 3103 1208 2742 
Q 947 2381 947 1747 
z
" transform="scale(0.015625)"/>
       <path id="DejaVuSans-66" d="M 2375 4863 
L 2375 4384 
L 1825 4384 
Q 1516 4384 1395 4259 
Q 1275 4134 1275 3809 
L 1275 3500 
L 2222 3500 
L 2222 3053 
L 1275 3053 
L 1275 0 
L 697 0 
L 697 3053 
L 147 3053 
L 147 3500 
L 697 3500 
L 697 3744 
Q 697 4328 969 4595 
Q 1241 4863 1831 4863 
L 2375 4863 
z
" transform="scale(0.015625)"/>
      </defs>
      <use xlink:href="#DejaVuSans-72"/>
      <use xlink:href="#DejaVuSans-64" transform="translate(39.363281 0)"/>
      <use xlink:href="#DejaVuSans-66" transform="translate(102.839844 0)"/>
     </g>
    </g>
   </g>
   <g id="line2d_14">
    <path d="M 44.406818 180.687273 
L 92.171571 180.687273 
L 92.708254 180.527794 
L 93.244936 180.531261 
L 93.781619 180.381958 
L 94.318301 180.687273 
L 94.854984 180.541009 
L 95.391667 22.432727 
L 95.928349 29.903378 
L 96.465032 179.862862 
L 97.001715 180.687273 
L 97.538397 180.687273 
L 98.07508 179.523383 
L 98.611762 175.996212 
L 99.148445 165.02249 
L 99.685128 159.227056 
L 100.758493 176.227837 
L 101.295175 178.268912 
L 101.831858 179.330942 
L 102.368541 180.132503 
L 102.905223 180.4694 
L 106.125319 180.58936 
L 106.662002 179.628645 
L 107.198684 179.268155 
L 107.735367 176.129397 
L 108.272049 171.44905 
L 108.808732 172.321398 
L 109.345415 176.528669 
L 109.882097 178.946429 
L 110.41878 180.344719 
L 110.955463 180.603004 
L 111.492145 180.438481 
L 112.028828 179.871024 
L 112.56551 177.714348 
L 113.102193 168.505311 
L 113.638876 153.349029 
L 114.175558 158.598389 
L 114.712241 173.284806 
L 115.248923 178.306482 
L 115.785606 178.855043 
L 116.322289 177.510313 
L 116.858971 170.371714 
L 117.395654 154.678991 
L 117.932337 161.066474 
L 118.469019 175.035546 
L 119.005702 179.210625 
L 119.542384 180.091757 
L 120.079067 180.295854 
L 120.61575 180.237004 
L 121.152432 180.49698 
L 121.689115 180.311938 
L 122.225797 180.378779 
L 122.76248 180.200398 
L 123.299163 180.387087 
L 123.835845 180.331886 
L 124.372528 180.628831 
L 125.445893 180.118187 
L 125.982576 179.788637 
L 126.519258 178.081813 
L 127.055941 171.165993 
L 127.592624 170.963929 
L 128.129306 176.794154 
L 128.665989 174.789865 
L 129.202671 164.413445 
L 129.739354 165.38703 
L 130.276037 175.667446 
L 130.812719 179.435289 
L 131.349402 180.192624 
L 131.886085 180.149795 
L 132.95945 180.639585 
L 133.496132 180.640156 
L 134.032815 180.314827 
L 134.569498 180.411243 
L 135.10618 180.641809 
L 135.642863 180.193022 
L 136.179545 177.356565 
L 136.716228 165.148066 
L 137.252911 164.719151 
L 137.789593 175.6256 
L 138.326276 178.524459 
L 138.862959 168.402079 
L 139.399641 149.345146 
L 139.936324 158.304136 
L 140.473006 175.173944 
L 141.009689 178.281798 
L 141.546372 180.132164 
L 142.083054 179.706839 
L 142.619737 180.144198 
L 143.156419 179.382635 
L 144.229785 168.933147 
L 144.766467 169.801248 
L 145.30315 176.202493 
L 145.839833 160.46361 
L 146.376515 154.520648 
L 146.913198 176.698086 
L 147.44988 178.255115 
L 147.986563 174.407922 
L 148.523246 162.215041 
L 149.059928 161.104883 
L 149.596611 171.959595 
L 150.133293 178.644597 
L 150.669976 180.123723 
L 151.206659 180.260633 
L 151.743341 180.102418 
L 152.280024 177.920632 
L 152.816707 173.233611 
L 153.353389 170.341812 
L 153.890072 176.002282 
L 154.426754 179.419141 
L 154.963437 180.044016 
L 155.50012 180.110878 
L 156.036802 179.665696 
L 156.573485 177.8303 
L 157.110167 172.286025 
L 157.64685 173.036848 
L 158.183533 177.389737 
L 158.720215 180.171475 
L 159.793581 180.49039 
L 160.330263 180.380737 
L 163.013676 180.474289 
L 163.550359 179.895747 
L 164.087041 178.909168 
L 165.160407 164.992619 
L 165.697089 168.899021 
L 166.233772 177.255002 
L 166.770455 177.735299 
L 167.307137 174.487468 
L 167.84382 173.631501 
L 168.380502 177.957542 
L 168.917185 179.092487 
L 169.453868 177.860362 
L 170.527233 167.027283 
L 171.600598 176.102234 
L 172.137281 171.639855 
L 172.673963 163.335337 
L 173.210646 162.463102 
L 173.747329 173.005455 
L 174.284011 178.888132 
L 174.820694 179.563767 
L 175.357376 178.786349 
L 175.894059 173.968923 
L 176.430742 173.851358 
L 176.967424 177.680692 
L 178.040789 175.021919 
L 178.577472 175.941317 
L 179.114155 175.813776 
L 179.650837 173.721621 
L 180.724203 179.63862 
L 181.260885 180.407149 
L 182.33425 180.529679 
L 183.407616 180.590289 
L 184.480981 180.247945 
L 185.017663 179.6447 
L 185.554346 176.398075 
L 186.091029 169.447704 
L 186.627711 171.607569 
L 187.164394 178.038947 
L 187.701077 179.719812 
L 188.237759 179.582058 
L 188.774442 177.108443 
L 189.311124 167.727206 
L 189.847807 168.088314 
L 190.38449 170.414579 
L 190.921172 171.537266 
L 191.457855 176.838927 
L 191.994537 178.226356 
L 193.067903 171.392063 
L 194.141268 178.948373 
L 194.677951 179.757607 
L 195.214633 177.390597 
L 195.751316 173.093012 
L 196.287998 177.209407 
L 197.361364 176.024047 
L 197.898046 174.847139 
L 198.434729 170.131162 
L 198.971411 170.423886 
L 199.508094 176.681934 
L 200.044777 179.603823 
L 200.581459 180.349091 
L 201.118142 180.229265 
L 201.654825 180.262705 
L 202.191507 178.729432 
L 202.72819 175.915507 
L 203.264872 174.803574 
L 203.801555 177.101048 
L 204.338238 176.670593 
L 204.87492 177.221591 
L 205.411603 178.531998 
L 205.948285 177.68412 
L 207.021651 173.143312 
L 207.558333 172.840605 
L 208.095016 173.871553 
L 209.168381 176.957536 
L 209.705064 173.907417 
L 210.241746 169.860368 
L 210.778429 174.861538 
L 211.315112 178.721913 
L 211.851794 179.269487 
L 212.925159 170.901775 
L 213.461842 172.971418 
L 213.998525 176.814568 
L 214.535207 176.78709 
L 215.07189 176.502529 
L 215.608573 176.426323 
L 216.681938 179.802687 
L 217.21862 179.883514 
L 217.755303 177.866522 
L 218.291986 174.522303 
L 218.828668 174.880643 
L 219.365351 176.876638 
L 219.902033 176.875511 
L 220.438716 176.232949 
L 220.975399 174.587694 
L 222.048764 179.272838 
L 222.585447 179.683025 
L 223.122129 178.209299 
L 223.658812 176.15786 
L 224.195494 172.610701 
L 224.732177 170.201549 
L 225.26886 175.504091 
L 225.805542 179.490326 
L 226.342225 180.26797 
L 226.878907 180.507017 
L 227.41559 180.250469 
L 227.952273 179.66287 
L 228.488955 178.008306 
L 229.025638 178.442066 
L 229.562321 179.286659 
L 230.099003 179.621102 
L 230.635686 177.269185 
L 231.172368 175.4605 
L 231.709051 178.099495 
L 232.245734 179.804792 
L 232.782416 179.059189 
L 233.319099 176.797823 
L 233.855781 176.014947 
L 234.392464 178.629315 
L 234.929147 180.077486 
L 235.465829 180.420058 
L 236.002512 180.329571 
L 236.539195 179.772593 
L 238.149242 174.490283 
L 238.685925 172.963883 
L 239.222608 169.5563 
L 239.75929 171.898105 
L 240.295973 172.483883 
L 240.832656 171.497859 
L 241.906021 179.148233 
L 242.442703 179.347896 
L 242.979386 177.651854 
L 243.516069 176.513525 
L 244.052751 174.286085 
L 244.589434 173.421464 
L 245.126116 176.049269 
L 246.199482 179.434092 
L 246.736164 179.523209 
L 247.80953 176.56066 
L 248.346212 178.332579 
L 248.882895 178.802598 
L 249.419577 176.285895 
L 249.95626 173.004994 
L 251.029625 179.263407 
L 251.566308 179.227039 
L 252.10299 177.729663 
L 252.639673 175.139965 
L 253.176356 174.359103 
L 253.713038 175.3337 
L 254.249721 173.051565 
L 254.786404 171.479486 
L 255.323086 175.617495 
L 255.859769 178.202985 
L 256.396451 176.821005 
L 256.933134 176.15918 
L 257.469817 176.008323 
L 258.006499 176.179843 
L 258.543182 174.868385 
L 258.543182 174.868385 
" clip-path="url(#p8b68d39f8b)" style="fill: none; stroke: #000000; stroke-opacity: 0.5; stroke-width: 0.5; stroke-linecap: square"/>
   </g>
   <g id="line2d_15">
    <path d="M 44.406818 180.687273 
L 92.171571 180.687273 
L 92.708254 180.198868 
L 93.244936 180.209485 
L 93.781619 179.752247 
L 94.318301 180.687273 
L 94.854984 180.239339 
L 95.391667 180.687273 
L 95.928349 180.687273 
L 96.465032 180.26648 
L 97.001715 180.687273 
L 97.538397 180.687273 
L 98.07508 177.12286 
L 98.611762 166.320898 
L 99.148445 132.713867 
L 99.685128 114.965348 
L 100.758493 167.030249 
L 101.295175 173.281042 
L 101.831858 176.53351 
L 102.368541 178.988291 
L 102.905223 180.020036 
L 103.441906 180.032057 
L 103.978589 180.365516 
L 104.515271 179.739085 
L 105.051954 180.066237 
L 105.588636 179.771921 
L 106.125319 180.387415 
L 106.662002 177.445226 
L 107.198684 176.341223 
L 107.735367 166.728777 
L 108.272049 152.395211 
L 108.808732 155.342265 
L 109.345415 168.493496 
L 109.882097 175.622505 
L 110.41878 180.162738 
L 110.955463 180.429201 
L 111.492145 180.433298 
L 112.028828 180.687273 
L 112.56551 180.195133 
L 113.102193 180.202763 
L 113.638876 180.448745 
L 114.175558 180.2175 
L 114.712241 179.530637 
L 115.248923 179.092329 
L 115.785606 177.32055 
L 116.322289 172.284576 
L 116.858971 150.403102 
L 117.395654 101.251595 
L 117.932337 121.444884 
L 118.469019 164.421534 
L 119.005702 176.57615 
L 119.542384 178.863506 
L 120.079067 179.488553 
L 120.61575 180.293287 
L 121.152432 180.687273 
L 121.689115 180.112541 
L 122.225797 179.74251 
L 122.76248 179.755363 
L 123.299163 180.319546 
L 123.835845 180.143086 
L 124.372528 180.687273 
L 125.445893 180.687273 
L 125.982576 180.515268 
L 126.519258 180.687273 
L 127.055941 180.352113 
L 128.129306 180.687273 
L 128.665989 180.687273 
L 129.202671 180.528044 
L 129.739354 180.530034 
L 130.276037 180.687273 
L 130.812719 180.687273 
L 131.349402 180.384301 
L 131.886085 180.687273 
L 132.422767 180.391623 
L 132.95945 180.541228 
L 134.032815 180.544696 
L 134.569498 180.264603 
L 135.10618 180.548041 
L 135.642863 180.136857 
L 136.179545 171.303004 
L 136.716228 133.501741 
L 137.252911 132.449328 
L 137.789593 166.368206 
L 138.326276 176.271528 
L 138.862959 157.317096 
L 139.399641 121.521748 
L 140.473006 177.335188 
L 141.009689 179.336699 
L 141.546372 180.565843 
L 142.083054 180.20686 
L 142.619737 180.449678 
L 143.156419 180.452246 
L 143.693102 179.641025 
L 144.229785 180.572266 
L 144.766467 180.57349 
L 145.30315 179.674062 
L 145.839833 175.67455 
L 146.376515 144.091785 
L 146.913198 173.051718 
L 147.44988 180.363426 
L 147.986563 180.687273 
L 148.523246 180.581532 
L 149.596611 180.687273 
L 153.890072 180.687273 
L 154.426754 180.403103 
L 156.573485 180.687273 
L 159.793581 180.601137 
L 160.330263 180.431246 
L 160.866946 180.602714 
L 165.160407 180.529941 
L 165.697089 179.985515 
L 166.233772 179.218778 
L 166.770455 173.25574 
L 167.307137 162.535792 
L 167.84382 159.53071 
L 168.380502 172.775318 
L 168.917185 177.135249 
L 169.453868 177.60582 
L 169.99055 172.103505 
L 170.527233 159.121267 
L 171.063915 162.664562 
L 171.600598 170.900647 
L 172.137281 158.394514 
L 172.673963 141.564289 
L 173.210646 146.176799 
L 173.747329 165.597987 
L 174.284011 177.694257 
L 174.820694 179.135567 
L 175.357376 179.616637 
L 175.894059 179.758082 
L 176.430742 179.370607 
L 176.967424 177.226239 
L 177.504107 171.359235 
L 178.040789 171.305342 
L 178.577472 177.117398 
L 179.114155 179.675403 
L 179.650837 179.808883 
L 180.18752 180.500529 
L 180.724203 180.440234 
L 181.260885 180.625996 
L 181.797568 180.383271 
L 182.33425 180.506286 
L 182.870933 180.387957 
L 183.407616 180.509065 
L 184.480981 179.985303 
L 185.017663 178.249073 
L 185.554346 172.218224 
L 186.091029 164.334353 
L 186.627711 168.543166 
L 187.164394 177.307898 
L 187.701077 179.457411 
L 188.237759 180.298862 
L 190.921172 180.259457 
L 191.457855 179.997127 
L 191.994537 177.894003 
L 193.067903 164.531967 
L 194.141268 178.075787 
L 194.677951 179.467086 
L 195.214633 179.829107 
L 195.751316 179.333931 
L 196.287998 175.112937 
L 196.824681 169.270876 
L 197.361364 168.516412 
L 197.898046 169.47843 
L 198.434729 167.088179 
L 198.971411 171.075155 
L 199.508094 177.96672 
L 200.044777 179.739254 
L 200.581459 180.263585 
L 201.118142 180.219723 
L 201.654825 179.758531 
L 202.191507 175.24485 
L 202.72819 166.623465 
L 203.264872 163.669491 
L 203.801555 173.275003 
L 204.338238 178.622127 
L 204.87492 179.795369 
L 205.411603 178.693824 
L 206.484968 168.840552 
L 207.021651 174.911427 
L 207.558333 179.134139 
L 208.095016 180.087223 
L 208.631699 180.218878 
L 209.168381 178.783553 
L 209.705064 173.079663 
L 210.241746 170.163766 
L 210.778429 175.542335 
L 211.315112 178.955804 
L 211.851794 180.482463 
L 212.388477 180.56517 
L 214.535207 180.44918 
L 215.07189 180.568973 
L 217.755303 180.610825 
L 218.291986 179.965494 
L 218.828668 177.591328 
L 219.365351 173.332501 
L 219.902033 171.624443 
L 220.438716 172.45797 
L 220.975399 171.107804 
L 222.048764 178.794427 
L 222.585447 179.927441 
L 223.122129 180.147785 
L 223.658812 179.257239 
L 224.195494 174.290419 
L 224.732177 166.944945 
L 225.26886 172.083277 
L 225.805542 178.662437 
L 226.342225 180.13198 
L 226.878907 180.376753 
L 229.025638 180.383922 
L 229.562321 179.581417 
L 230.099003 178.255071 
L 230.635686 170.881903 
L 231.172368 165.075514 
L 231.709051 173.51541 
L 232.245734 178.766149 
L 232.782416 180.039739 
L 233.319099 180.429728 
L 234.929147 180.402404 
L 235.465829 180.466949 
L 236.002512 180.123892 
L 236.539195 178.913175 
L 237.075877 173.506468 
L 237.61256 170.499052 
L 238.149242 175.51416 
L 238.685925 177.977998 
L 239.222608 174.481088 
L 239.75929 172.407487 
L 240.295973 168.320467 
L 240.832656 166.51175 
L 241.369338 173.96381 
L 241.906021 179.096531 
L 242.442703 179.925502 
L 242.979386 179.084519 
L 243.516069 174.571572 
L 244.052751 168.723287 
L 244.589434 171.912824 
L 245.126116 176.580125 
L 245.662799 179.524101 
L 246.199482 180.122881 
L 246.736164 180.406568 
L 247.272847 180.408052 
L 248.346212 179.941281 
L 248.882895 178.735849 
L 249.95626 168.855783 
L 251.029625 178.856902 
L 251.566308 180.258821 
L 252.10299 180.127828 
L 252.639673 180.316226 
L 253.176356 180.133558 
L 253.713038 178.431277 
L 254.249721 173.536253 
L 254.786404 169.859537 
L 255.859769 178.733833 
L 256.396451 178.82042 
L 256.933134 175.674693 
L 257.469817 170.155502 
L 258.006499 169.175539 
L 258.543182 167.503726 
L 258.543182 167.503726 
" clip-path="url(#p8b68d39f8b)" style="fill: none; stroke: #0000ff; stroke-opacity: 0.5; stroke-linecap: square"/>
   </g>
   <g id="line2d_16">
    <path d="M 44.406818 180.687273 
L 108.272049 180.687273 
L 109.345415 179.723814 
L 109.882097 180.213376 
L 110.41878 179.754767 
L 110.955463 180.687273 
L 111.492145 179.78425 
L 112.028828 176.243255 
L 112.56551 165.376265 
L 113.102193 115.224606 
L 113.638876 32.269769 
L 114.175558 61.260714 
L 114.712241 142.441195 
L 115.248923 170.560647 
L 115.785606 176.697084 
L 116.322289 178.328621 
L 116.858971 178.363308 
L 117.395654 180.3056 
L 117.932337 179.182704 
L 118.469019 179.204356 
L 119.005702 180.32184 
L 119.542384 180.687273 
L 120.079067 180.687273 
L 120.61575 178.936227 
L 121.152432 179.996582 
L 121.689115 179.665528 
L 122.225797 180.687273 
L 122.76248 179.693236 
L 123.299163 180.033536 
L 123.835845 180.042311 
L 124.372528 180.369091 
L 124.909211 179.745371 
L 125.982576 176.406271 
L 126.519258 167.105622 
L 127.055941 130.63671 
L 127.592624 130.10188 
L 128.129306 166.750263 
L 128.665989 178.393836 
L 129.202671 179.838053 
L 129.739354 180.128203 
L 130.276037 180.687273 
L 130.812719 180.687273 
L 131.349402 180.417964 
L 132.422767 180.424473 
L 132.95945 180.687273 
L 138.862959 180.687273 
L 139.399641 180.235843 
L 139.936324 180.240885 
L 140.473006 180.687273 
L 143.156419 180.687273 
L 143.693102 180.27394 
L 144.766467 180.282711 
L 145.30315 176.684464 
L 145.839833 88.007609 
L 146.376515 106.81045 
L 146.913198 176.22714 
L 147.44988 179.727726 
L 147.986563 180.687273 
L 158.720215 180.687273 
L 159.256898 180.532711 
L 159.793581 180.534142 
L 160.330263 180.687273 
L 161.403628 180.687273 
L 161.940311 180.539672 
L 163.013676 180.542325 
L 163.550359 180.399978 
L 164.087041 180.687273 
L 164.623724 180.546173 
L 165.160407 180.687273 
L 165.697089 180.132798 
L 166.233772 180.412467 
L 166.770455 180.551071 
L 167.307137 180.012183 
L 167.84382 180.151875 
L 168.380502 180.421882 
L 168.917185 179.108596 
L 169.453868 170.904883 
L 169.99055 152.88298 
L 170.527233 144.912231 
L 171.063915 163.522788 
L 171.600598 173.75311 
L 172.137281 171.31072 
L 173.210646 143.310535 
L 173.747329 166.055239 
L 174.284011 177.543095 
L 174.820694 179.847703 
L 175.357376 180.092475 
L 175.894059 179.861325 
L 176.430742 180.336162 
L 176.967424 178.945872 
L 177.504107 175.620191 
L 178.040789 167.892433 
L 178.577472 165.61447 
L 179.114155 173.266893 
L 179.650837 178.567984 
L 180.18752 179.469978 
L 181.260885 180.469398 
L 181.797568 180.579183 
L 182.33425 180.151015 
L 182.870933 180.580849 
L 183.407616 180.476064 
L 183.944298 180.058501 
L 184.480981 180.0633 
L 185.017663 180.37766 
L 185.554346 180.175161 
L 187.701077 180.289742 
L 188.237759 179.996765 
L 188.774442 178.729007 
L 189.311124 177.965937 
L 189.847807 164.575805 
L 190.38449 134.622371 
L 190.921172 134.293088 
L 191.457855 161.622743 
L 191.994537 173.191707 
L 193.067903 159.077605 
L 194.141268 176.31773 
L 194.677951 179.512278 
L 195.214633 180.059073 
L 196.824681 180.687273 
L 197.361364 180.600026 
L 197.898046 180.687273 
L 198.971411 180.516391 
L 199.508094 180.602421 
L 200.044777 180.434468 
L 200.581459 180.687273 
L 201.118142 180.271673 
L 201.654825 180.687273 
L 202.191507 180.359293 
L 202.72819 180.687273 
L 204.87492 180.607992 
L 205.948285 180.139648 
L 206.484968 180.454127 
L 207.021651 179.606413 
L 207.558333 176.775678 
L 208.095016 165.828909 
L 208.631699 162.292137 
L 209.705064 178.819229 
L 210.241746 180.316073 
L 210.778429 180.31846 
L 211.315112 180.687273 
L 212.388477 180.542558 
L 212.925159 180.183985 
L 213.461842 179.115524 
L 213.998525 173.304069 
L 214.535207 165.802079 
L 215.07189 166.596491 
L 215.608573 175.323054 
L 216.145255 179.233416 
L 216.681938 180.412068 
L 217.755303 180.61932 
L 218.291986 180.552203 
L 219.365351 180.687273 
L 219.902033 180.554666 
L 220.438716 180.687273 
L 220.975399 180.556271 
L 221.512081 180.557062 
L 222.585447 180.108353 
L 223.122129 179.600305 
L 223.658812 175.412037 
L 224.195494 157.816547 
L 224.732177 150.604099 
L 225.26886 168.762643 
L 225.805542 178.080588 
L 226.342225 179.576688 
L 226.878907 180.503261 
L 227.41559 180.504338 
L 227.952273 180.62665 
L 228.488955 180.506461 
L 229.025638 180.627352 
L 230.635686 180.569491 
L 231.172368 180.394507 
L 231.709051 180.629054 
L 232.245734 180.687273 
L 232.782416 180.572156 
L 233.319099 180.687273 
L 233.855781 180.459638 
L 234.392464 180.404332 
L 234.929147 180.574732 
L 237.075877 180.302096 
L 237.61256 179.757029 
L 238.149242 177.857536 
L 238.685925 165.534278 
L 239.222608 143.389618 
L 239.75929 153.817282 
L 240.295973 174.352488 
L 240.832656 178.887206 
L 241.369338 179.950094 
L 242.442703 180.478925 
L 242.979386 180.013792 
L 243.516069 178.574635 
L 244.052751 171.564534 
L 244.589434 161.774738 
L 245.126116 171.306751 
L 245.662799 178.468106 
L 246.199482 180.135423 
L 246.736164 180.13834 
L 247.272847 180.587994 
L 247.80953 180.391003 
L 249.419577 180.59006 
L 249.95626 180.203738 
L 250.492943 180.446761 
L 251.029625 180.065186 
L 251.566308 178.783042 
L 252.10299 174.625139 
L 252.639673 158.589392 
L 253.176356 151.765195 
L 253.713038 163.478749 
L 254.249721 167.835158 
L 254.786404 166.561883 
L 255.323086 171.27224 
L 255.859769 178.356854 
L 256.396451 179.868926 
L 256.933134 180.506334 
L 257.469817 180.37222 
L 258.006499 180.3738 
L 258.543182 180.553599 
L 258.543182 180.553599 
" clip-path="url(#p8b68d39f8b)" style="fill: none; stroke: #ff0000; stroke-opacity: 0.5; stroke-linecap: square"/>
   </g>
   <g id="patch_3">
    <path d="M 33.7 188.6 
L 33.7 14.52 
" style="fill: none; stroke: #000000; stroke-width: 0.8; stroke-linejoin: miter; stroke-linecap: square"/>
   </g>
   <g id="patch_4">
    <path d="M 269.25 188.6 
L 269.25 14.52 
" style="fill: none; stroke: #000000; stroke-width: 0.8; stroke-linejoin: miter; stroke-linecap: square"/>
   </g>
   <g id="patch_5">
    <path d="M 33.7 188.6 
L 269.25 188.6 
" style="fill: none; stroke: #000000; stroke-width: 0.8; stroke-linejoin: miter; stroke-linecap: square"/>
   </g>
   <g id="patch_6">
    <path d="M 33.7 14.52 
L 269.25 14.52 
" style="fill: none; stroke: #000000; stroke-width: 0.8; stroke-linejoin: miter; stroke-linecap: square"/>
   </g>
   <g id="legend_1">
    <g id="patch_7">
     <path d="M 213.917188 66.554375 
L 262.25 66.554375 
Q 264.25 66.554375 264.25 64.554375 
L 264.25 21.52 
Q 264.25 19.52 262.25 19.52 
L 213.917188 19.52 
Q 211.917188 19.52 211.917188 21.52 
L 211.917188 64.554375 
Q 211.917188 66.554375 213.917188 66.554375 
z
" style="fill: #ffffff; opacity: 0.8; stroke: #cccccc; stroke-linejoin: miter"/>
    </g>
    <g id="line2d_17">
     <path d="M 215.917188 27.618438 
L 225.917188 27.618438 
L 235.917188 27.618438 
" style="fill: none; stroke: #000000; stroke-opacity: 0.5; stroke-width: 0.5; stroke-linecap: square"/>
    </g>
    <g id="text_16">
     <!-- all -->
     <g transform="translate(243.917188 31.118438) scale(0.1 -0.1)">
      <defs>
       <path id="DejaVuSans-61" d="M 2194 1759 
Q 1497 1759 1228 1600 
Q 959 1441 959 1056 
Q 959 750 1161 570 
Q 1363 391 1709 391 
Q 2188 391 2477 730 
Q 2766 1069 2766 1631 
L 2766 1759 
L 2194 1759 
z
M 3341 1997 
L 3341 0 
L 2766 0 
L 2766 531 
Q 2569 213 2275 61 
Q 1981 -91 1556 -91 
Q 1019 -91 701 211 
Q 384 513 384 1019 
Q 384 1609 779 1909 
Q 1175 2209 1959 2209 
L 2766 2209 
L 2766 2266 
Q 2766 2663 2505 2880 
Q 2244 3097 1772 3097 
Q 1472 3097 1187 3025 
Q 903 2953 641 2809 
L 641 3341 
Q 956 3463 1253 3523 
Q 1550 3584 1831 3584 
Q 2591 3584 2966 3190 
Q 3341 2797 3341 1997 
z
" transform="scale(0.015625)"/>
       <path id="DejaVuSans-6c" d="M 603 4863 
L 1178 4863 
L 1178 0 
L 603 0 
L 603 4863 
z
" transform="scale(0.015625)"/>
      </defs>
      <use xlink:href="#DejaVuSans-61"/>
      <use xlink:href="#DejaVuSans-6c" transform="translate(61.279297 0)"/>
      <use xlink:href="#DejaVuSans-6c" transform="translate(89.0625 0)"/>
     </g>
    </g>
    <g id="line2d_18">
     <path d="M 215.917188 42.296563 
L 225.917188 42.296563 
L 235.917188 42.296563 
" style="fill: none; stroke: #0000ff; stroke-opacity: 0.5; stroke-linecap: square"/>
    </g>
    <g id="text_17">
     <!-- 1-1 -->
     <g transform="translate(243.917188 45.796563) scale(0.1 -0.1)">
      <defs>
       <path id="DejaVuSans-2d" d="M 313 2009 
L 1997 2009 
L 1997 1497 
L 313 1497 
L 313 2009 
z
" transform="scale(0.015625)"/>
      </defs>
      <use xlink:href="#DejaVuSans-31"/>
      <use xlink:href="#DejaVuSans-2d" transform="translate(63.623047 0)"/>
      <use xlink:href="#DejaVuSans-31" transform="translate(99.707031 0)"/>
     </g>
    </g>
    <g id="line2d_19">
     <path d="M 215.917188 56.974688 
L 225.917188 56.974688 
L 235.917188 56.974688 
" style="fill: none; stroke: #ff0000; stroke-opacity: 0.5; stroke-linecap: square"/>
    </g>
    <g id="text_18">
     <!-- 2-2 -->
     <g transform="translate(243.917188 60.474688) scale(0.1 -0.1)">
      <use xlink:href="#DejaVuSans-32"/>
      <use xlink:href="#DejaVuSans-2d" transform="translate(63.623047 0)"/>
      <use xlink:href="#DejaVuSans-32" transform="translate(99.707031 0)"/>
     </g>
    </g>
   </g>
  </g>
 </g>
 <defs>
  <clipPath id="p8b68d39f8b">
   <rect x="33.7" y="14.52" width="235.55" height="174.08"/>
  </clipPath>
 </defs>
</svg>
