<?xml version="1.0" encoding="utf-8" standalone="no"?>
<!DOCTYPE svg PUBLIC "-//W3C//DTD SVG 1.1//EN"
  "http://www.w3.org/Graphics/SVG/1.1/DTD/svg11.dtd">
<svg xmlns:xlink="http://www.w3.org/1999/xlink" width="288pt" height="216pt" viewBox="0 0 288 216" xmlns="http://www.w3.org/2000/svg" version="1.1">
 <metadata>
  <rdf:RDF xmlns:dc="http://purl.org/dc/elements/1.1/" xmlns:cc="http://creativecommons.org/ns#" xmlns:rdf="http://www.w3.org/1999/02/22-rdf-syntax-ns#">
   <cc:Work>
    <dc:type rdf:resource="http://purl.org/dc/dcmitype/StillImage"/>
    <dc:date>2025-09-18T00:20:37.305972</dc:date>
    <dc:format>image/svg+xml</dc:format>
    <dc:creator>
     <cc:Agent>
      <dc:title>Matplotlib v3.10.0, https://matplotlib.org/</dc:title>
     </cc:Agent>
    </dc:creator>
   </cc:Work>
  </rdf:RDF>
 </metadata>
 <defs>
  <style type="text/css">*{stroke-linejoin: round; stroke-linecap: butt}</style>
 </defs>
 <g id="figure_1">
  <g id="patch_1">
   <path d="M 0 216 
L 288 216 
L 288 0 
L 0 0 
z
" style="fill: #ffffff"/>
  </g>
  <g id="axes_1">
   <g id="patch_2">
    <path d="M 33.7 188.6 
L 269.25 188.6 
L 269.25 14.52 
L 33.7 14.52 
z
" style="fill: #ffffff"/>
   </g>
   <g id="matplotlib.axis_1">
    <g id="xtick_1">
     <g id="line2d_1">
      <defs>
       <path id="m83be771036" d="M 0 0 
L 0 3.5 
" style="stroke: #000000; stroke-width: 0.8"/>
      </defs>
      <g>
       <use xlink:href="#m83be771036" x="44.138477" y="188.6" style="stroke: #000000; stroke-width: 0.8"/>
      </g>
     </g>
     <g id="text_1">
      <!-- 0 -->
      <g transform="translate(40.957227 203.198437) scale(0.1 -0.1)">
       <defs>
        <path id="DejaVuSans-30" d="M 2034 4250 
Q 1547 4250 1301 3770 
Q 1056 3291 1056 2328 
Q 1056 1369 1301 889 
Q 1547 409 2034 409 
Q 2525 409 2770 889 
Q 3016 1369 3016 2328 
Q 3016 3291 2770 3770 
Q 2525 4250 2034 4250 
z
M 2034 4750 
Q 2819 4750 3233 4129 
Q 3647 3509 3647 2328 
Q 3647 1150 3233 529 
Q 2819 -91 2034 -91 
Q 1250 -91 836 529 
Q 422 1150 422 2328 
Q 422 3509 836 4129 
Q 1250 4750 2034 4750 
z
" transform="scale(0.015625)"/>
       </defs>
       <use xlink:href="#DejaVuSans-30"/>
      </g>
     </g>
    </g>
    <g id="xtick_2">
     <g id="line2d_2">
      <g>
       <use xlink:href="#m83be771036" x="87.073086" y="188.6" style="stroke: #000000; stroke-width: 0.8"/>
      </g>
     </g>
     <g id="text_2">
      <!-- 200 -->
      <g transform="translate(77.529336 203.198437) scale(0.1 -0.1)">
       <defs>
        <path id="DejaVuSans-32" d="M 1228 531 
L 3431 531 
L 3431 0 
L 469 0 
L 469 531 
Q 828 903 1448 1529 
Q 2069 2156 2228 2338 
Q 2531 2678 2651 2914 
Q 2772 3150 2772 3378 
Q 2772 3750 2511 3984 
Q 2250 4219 1831 4219 
Q 1534 4219 1204 4116 
Q 875 4013 500 3803 
L 500 4441 
Q 881 4594 1212 4672 
Q 1544 4750 1819 4750 
Q 2544 4750 2975 4387 
Q 3406 4025 3406 3419 
Q 3406 3131 3298 2873 
Q 3191 2616 2906 2266 
Q 2828 2175 2409 1742 
Q 1991 1309 1228 531 
z
" transform="scale(0.015625)"/>
       </defs>
       <use xlink:href="#DejaVuSans-32"/>
       <use xlink:href="#DejaVuSans-30" transform="translate(63.623047 0)"/>
       <use xlink:href="#DejaVuSans-30" transform="translate(127.246094 0)"/>
      </g>
     </g>
    </g>
    <g id="xtick_3">
     <g id="line2d_3">
      <g>
       <use xlink:href="#m83be771036" x="130.007695" y="188.6" style="stroke: #000000; stroke-width: 0.8"/>
      </g>
     </g>
     <g id="text_3">
      <!-- 400 -->
      <g transform="translate(120.463945 203.198437) scale(0.1 -0.1)">
       <defs>
        <path id="DejaVuSans-34" d="M 2419 4116 
L 825 1625 
L 2419 1625 
L 2419 4116 
z
M 2253 4666 
L 3047 4666 
L 3047 1625 
L 3713 1625 
L 3713 1100 
L 3047 1100 
L 3047 0 
L 2419 0 
L 2419 1100 
L 313 1100 
L 313 1709 
L 2253 4666 
z
" transform="scale(0.015625)"/>
       </defs>
       <use xlink:href="#DejaVuSans-34"/>
       <use xlink:href="#DejaVuSans-30" transform="translate(63.623047 0)"/>
       <use xlink:href="#DejaVuSans-30" transform="translate(127.246094 0)"/>
      </g>
     </g>
    </g>
    <g id="xtick_4">
     <g id="line2d_4">
      <g>
       <use xlink:href="#m83be771036" x="172.942305" y="188.6" style="stroke: #000000; stroke-width: 0.8"/>
      </g>
     </g>
     <g id="text_4">
      <!-- 600 -->
      <g transform="translate(163.398555 203.198437) scale(0.1 -0.1)">
       <defs>
        <path id="DejaVuSans-36" d="M 2113 2584 
Q 1688 2584 1439 2293 
Q 1191 2003 1191 1497 
Q 1191 994 1439 701 
Q 1688 409 2113 409 
Q 2538 409 2786 701 
Q 3034 994 3034 1497 
Q 3034 2003 2786 2293 
Q 2538 2584 2113 2584 
z
M 3366 4563 
L 3366 3988 
Q 3128 4100 2886 4159 
Q 2644 4219 2406 4219 
Q 1781 4219 1451 3797 
Q 1122 3375 1075 2522 
Q 1259 2794 1537 2939 
Q 1816 3084 2150 3084 
Q 2853 3084 3261 2657 
Q 3669 2231 3669 1497 
Q 3669 778 3244 343 
Q 2819 -91 2113 -91 
Q 1303 -91 875 529 
Q 447 1150 447 2328 
Q 447 3434 972 4092 
Q 1497 4750 2381 4750 
Q 2619 4750 2861 4703 
Q 3103 4656 3366 4563 
z
" transform="scale(0.015625)"/>
       </defs>
       <use xlink:href="#DejaVuSans-36"/>
       <use xlink:href="#DejaVuSans-30" transform="translate(63.623047 0)"/>
       <use xlink:href="#DejaVuSans-30" transform="translate(127.246094 0)"/>
      </g>
     </g>
    </g>
    <g id="xtick_5">
     <g id="line2d_5">
      <g>
       <use xlink:href="#m83be771036" x="215.876914" y="188.6" style="stroke: #000000; stroke-width: 0.8"/>
      </g>
     </g>
     <g id="text_5">
      <!-- 800 -->
      <g transform="translate(206.333164 203.198437) scale(0.1 -0.1)">
       <defs>
        <path id="DejaVuSans-38" d="M 2034 2216 
Q 1584 2216 1326 1975 
Q 1069 1734 1069 1313 
Q 1069 891 1326 650 
Q 1584 409 2034 409 
Q 2484 409 2743 651 
Q 3003 894 3003 1313 
Q 3003 1734 2745 1975 
Q 2488 2216 2034 2216 
z
M 1403 2484 
Q 997 2584 770 2862 
Q 544 3141 544 3541 
Q 544 4100 942 4425 
Q 1341 4750 2034 4750 
Q 2731 4750 3128 4425 
Q 3525 4100 3525 3541 
Q 3525 3141 3298 2862 
Q 3072 2584 2669 2484 
Q 3125 2378 3379 2068 
Q 3634 1759 3634 1313 
Q 3634 634 3220 271 
Q 2806 -91 2034 -91 
Q 1263 -91 848 271 
Q 434 634 434 1313 
Q 434 1759 690 2068 
Q 947 2378 1403 2484 
z
M 1172 3481 
Q 1172 3119 1398 2916 
Q 1625 2713 2034 2713 
Q 2441 2713 2670 2916 
Q 2900 3119 2900 3481 
Q 2900 3844 2670 4047 
Q 2441 4250 2034 4250 
Q 1625 4250 1398 4047 
Q 1172 3844 1172 3481 
z
" transform="scale(0.015625)"/>
       </defs>
       <use xlink:href="#DejaVuSans-38"/>
       <use xlink:href="#DejaVuSans-30" transform="translate(63.623047 0)"/>
       <use xlink:href="#DejaVuSans-30" transform="translate(127.246094 0)"/>
      </g>
     </g>
    </g>
    <g id="xtick_6">
     <g id="line2d_6">
      <g>
       <use xlink:href="#m83be771036" x="258.811523" y="188.6" style="stroke: #000000; stroke-width: 0.8"/>
      </g>
     </g>
     <g id="text_6">
      <!-- 1000 -->
      <g transform="translate(246.086523 203.198437) scale(0.1 -0.1)">
       <defs>
        <path id="DejaVuSans-31" d="M 794 531 
L 1825 531 
L 1825 4091 
L 703 3866 
L 703 4441 
L 1819 4666 
L 2450 4666 
L 2450 531 
L 3481 531 
L 3481 0 
L 794 0 
L 794 531 
z
" transform="scale(0.015625)"/>
       </defs>
       <use xlink:href="#DejaVuSans-31"/>
       <use xlink:href="#DejaVuSans-30" transform="translate(63.623047 0)"/>
       <use xlink:href="#DejaVuSans-30" transform="translate(127.246094 0)"/>
       <use xlink:href="#DejaVuSans-30" transform="translate(190.869141 0)"/>
      </g>
     </g>
    </g>
    <g id="text_7">
     <!-- q (nm) -->
     <g transform="translate(134.771094 216.876563) scale(0.1 -0.1)">
      <defs>
       <path id="DejaVuSans-71" d="M 947 1747 
Q 947 1113 1208 752 
Q 1469 391 1925 391 
Q 2381 391 2643 752 
Q 2906 1113 2906 1747 
Q 2906 2381 2643 2742 
Q 2381 3103 1925 3103 
Q 1469 3103 1208 2742 
Q 947 2381 947 1747 
z
M 2906 525 
Q 2725 213 2448 61 
Q 2172 -91 1784 -91 
Q 1150 -91 751 415 
Q 353 922 353 1747 
Q 353 2572 751 3078 
Q 1150 3584 1784 3584 
Q 2172 3584 2448 3432 
Q 2725 3281 2906 2969 
L 2906 3500 
L 3481 3500 
L 3481 -1331 
L 2906 -1331 
L 2906 525 
z
" transform="scale(0.015625)"/>
       <path id="DejaVuSans-20" transform="scale(0.015625)"/>
       <path id="DejaVuSans-28" d="M 1984 4856 
Q 1566 4138 1362 3434 
Q 1159 2731 1159 2009 
Q 1159 1288 1364 580 
Q 1569 -128 1984 -844 
L 1484 -844 
Q 1016 -109 783 600 
Q 550 1309 550 2009 
Q 550 2706 781 3412 
Q 1013 4119 1484 4856 
L 1984 4856 
z
" transform="scale(0.015625)"/>
       <path id="DejaVuSans-6e" d="M 3513 2113 
L 3513 0 
L 2938 0 
L 2938 2094 
Q 2938 2591 2744 2837 
Q 2550 3084 2163 3084 
Q 1697 3084 1428 2787 
Q 1159 2491 1159 1978 
L 1159 0 
L 581 0 
L 581 3500 
L 1159 3500 
L 1159 2956 
Q 1366 3272 1645 3428 
Q 1925 3584 2291 3584 
Q 2894 3584 3203 3211 
Q 3513 2838 3513 2113 
z
" transform="scale(0.015625)"/>
       <path id="DejaVuSans-6d" d="M 3328 2828 
Q 3544 3216 3844 3400 
Q 4144 3584 4550 3584 
Q 5097 3584 5394 3201 
Q 5691 2819 5691 2113 
L 5691 0 
L 5113 0 
L 5113 2094 
Q 5113 2597 4934 2840 
Q 4756 3084 4391 3084 
Q 3944 3084 3684 2787 
Q 3425 2491 3425 1978 
L 3425 0 
L 2847 0 
L 2847 2094 
Q 2847 2600 2669 2842 
Q 2491 3084 2119 3084 
Q 1678 3084 1418 2786 
Q 1159 2488 1159 1978 
L 1159 0 
L 581 0 
L 581 3500 
L 1159 3500 
L 1159 2956 
Q 1356 3278 1631 3431 
Q 1906 3584 2284 3584 
Q 2666 3584 2933 3390 
Q 3200 3197 3328 2828 
z
" transform="scale(0.015625)"/>
       <path id="DejaVuSans-29" d="M 513 4856 
L 1013 4856 
Q 1481 4119 1714 3412 
Q 1947 2706 1947 2009 
Q 1947 1309 1714 600 
Q 1481 -109 1013 -844 
L 513 -844 
Q 928 -128 1133 580 
Q 1338 1288 1338 2009 
Q 1338 2731 1133 3434 
Q 928 4138 513 4856 
z
" transform="scale(0.015625)"/>
      </defs>
      <use xlink:href="#DejaVuSans-71"/>
      <use xlink:href="#DejaVuSans-20" transform="translate(63.476562 0)"/>
      <use xlink:href="#DejaVuSans-28" transform="translate(95.263672 0)"/>
      <use xlink:href="#DejaVuSans-6e" transform="translate(134.277344 0)"/>
      <use xlink:href="#DejaVuSans-6d" transform="translate(197.65625 0)"/>
      <use xlink:href="#DejaVuSans-29" transform="translate(295.068359 0)"/>
     </g>
    </g>
   </g>
   <g id="matplotlib.axis_2">
    <g id="ytick_1">
     <g id="line2d_7">
      <defs>
       <path id="m194972a197" d="M 0 0 
L -3.5 0 
" style="stroke: #000000; stroke-width: 0.8"/>
      </defs>
      <g>
       <use xlink:href="#m194972a197" x="33.7" y="180.687273" style="stroke: #000000; stroke-width: 0.8"/>
      </g>
     </g>
     <g id="text_8">
      <!-- 0 -->
      <g transform="translate(20.3375 184.486491) scale(0.1 -0.1)">
       <use xlink:href="#DejaVuSans-30"/>
      </g>
     </g>
    </g>
    <g id="ytick_2">
     <g id="line2d_8">
      <g>
       <use xlink:href="#m194972a197" x="33.7" y="137.733142" style="stroke: #000000; stroke-width: 0.8"/>
      </g>
     </g>
     <g id="text_9">
      <!-- 20000 -->
      <g transform="translate(-5.1125 141.532361) scale(0.1 -0.1)">
       <use xlink:href="#DejaVuSans-32"/>
       <use xlink:href="#DejaVuSans-30" transform="translate(63.623047 0)"/>
       <use xlink:href="#DejaVuSans-30" transform="translate(127.246094 0)"/>
       <use xlink:href="#DejaVuSans-30" transform="translate(190.869141 0)"/>
       <use xlink:href="#DejaVuSans-30" transform="translate(254.492188 0)"/>
      </g>
     </g>
    </g>
    <g id="ytick_3">
     <g id="line2d_9">
      <g>
       <use xlink:href="#m194972a197" x="33.7" y="94.779011" style="stroke: #000000; stroke-width: 0.8"/>
      </g>
     </g>
     <g id="text_10">
      <!-- 40000 -->
      <g transform="translate(-5.1125 98.57823) scale(0.1 -0.1)">
       <use xlink:href="#DejaVuSans-34"/>
       <use xlink:href="#DejaVuSans-30" transform="translate(63.623047 0)"/>
       <use xlink:href="#DejaVuSans-30" transform="translate(127.246094 0)"/>
       <use xlink:href="#DejaVuSans-30" transform="translate(190.869141 0)"/>
       <use xlink:href="#DejaVuSans-30" transform="translate(254.492188 0)"/>
      </g>
     </g>
    </g>
    <g id="ytick_4">
     <g id="line2d_10">
      <g>
       <use xlink:href="#m194972a197" x="33.7" y="51.82488" style="stroke: #000000; stroke-width: 0.8"/>
      </g>
     </g>
     <g id="text_11">
      <!-- 60000 -->
      <g transform="translate(-5.1125 55.624099) scale(0.1 -0.1)">
       <use xlink:href="#DejaVuSans-36"/>
       <use xlink:href="#DejaVuSans-30" transform="translate(63.623047 0)"/>
       <use xlink:href="#DejaVuSans-30" transform="translate(127.246094 0)"/>
       <use xlink:href="#DejaVuSans-30" transform="translate(190.869141 0)"/>
       <use xlink:href="#DejaVuSans-30" transform="translate(254.492188 0)"/>
      </g>
     </g>
    </g>
    <g id="text_12">
     <!-- rdf -->
     <g transform="translate(-11.192187 108.462344) rotate(-90) scale(0.1 -0.1)">
      <defs>
       <path id="DejaVuSans-72" d="M 2631 2963 
Q 2534 3019 2420 3045 
Q 2306 3072 2169 3072 
Q 1681 3072 1420 2755 
Q 1159 2438 1159 1844 
L 1159 0 
L 581 0 
L 581 3500 
L 1159 3500 
L 1159 2956 
Q 1341 3275 1631 3429 
Q 1922 3584 2338 3584 
Q 2397 3584 2469 3576 
Q 2541 3569 2628 3553 
L 2631 2963 
z
" transform="scale(0.015625)"/>
       <path id="DejaVuSans-64" d="M 2906 2969 
L 2906 4863 
L 3481 4863 
L 3481 0 
L 2906 0 
L 2906 525 
Q 2725 213 2448 61 
Q 2172 -91 1784 -91 
Q 1150 -91 751 415 
Q 353 922 353 1747 
Q 353 2572 751 3078 
Q 1150 3584 1784 3584 
Q 2172 3584 2448 3432 
Q 2725 3281 2906 2969 
z
M 947 1747 
Q 947 1113 1208 752 
Q 1469 391 1925 391 
Q 2381 391 2643 752 
Q 2906 1113 2906 1747 
Q 2906 2381 2643 2742 
Q 2381 3103 1925 3103 
Q 1469 3103 1208 2742 
Q 947 2381 947 1747 
z
" transform="scale(0.015625)"/>
       <path id="DejaVuSans-66" d="M 2375 4863 
L 2375 4384 
L 1825 4384 
Q 1516 4384 1395 4259 
Q 1275 4134 1275 3809 
L 1275 3500 
L 2222 3500 
L 2222 3053 
L 1275 3053 
L 1275 0 
L 697 0 
L 697 3053 
L 147 3053 
L 147 3500 
L 697 3500 
L 697 3744 
Q 697 4328 969 4595 
Q 1241 4863 1831 4863 
L 2375 4863 
z
" transform="scale(0.015625)"/>
      </defs>
      <use xlink:href="#DejaVuSans-72"/>
      <use xlink:href="#DejaVuSans-64" transform="translate(39.363281 0)"/>
      <use xlink:href="#DejaVuSans-66" transform="translate(102.839844 0)"/>
     </g>
    </g>
   </g>
   <g id="line2d_11">
    <path d="M 44.406818 180.687273 
L 93.244936 180.687273 
L 93.781619 180.566489 
L 94.318301 180.569059 
L 94.854984 180.455823 
L 95.928349 22.432727 
L 96.465032 179.491427 
L 97.001715 180.367722 
L 98.07508 179.971034 
L 98.611762 176.775045 
L 99.148445 170.260501 
L 99.685128 165.733756 
L 100.22181 170.08797 
L 100.758493 176.787532 
L 101.295175 178.318271 
L 101.831858 178.898709 
L 102.368541 179.72161 
L 102.905223 180.256316 
L 103.978589 180.687273 
L 105.588636 180.293133 
L 106.662002 180.078114 
L 107.198684 179.190184 
L 108.272049 174.608211 
L 108.808732 174.851042 
L 109.345415 177.256943 
L 109.882097 178.965563 
L 110.41878 179.806423 
L 110.955463 180.220557 
L 111.492145 180.096735 
L 112.028828 179.718541 
L 112.56551 177.000042 
L 113.638876 165.527636 
L 114.175558 162.785606 
L 114.712241 172.380059 
L 115.248923 177.390801 
L 115.785606 178.715718 
L 116.322289 177.545232 
L 116.858971 173.426135 
L 117.395654 163.991965 
L 117.932337 166.584379 
L 118.469019 173.845054 
L 119.005702 178.031967 
L 119.542384 179.901979 
L 120.61575 180.025654 
L 121.689115 180.489294 
L 124.372528 180.409837 
L 124.909211 180.231004 
L 125.445893 180.327061 
L 125.982576 179.754076 
L 126.519258 178.231067 
L 127.055941 174.972352 
L 127.592624 173.421493 
L 128.129306 176.172366 
L 128.665989 175.312959 
L 129.202671 170.608639 
L 129.739354 170.003417 
L 130.812719 179.181593 
L 131.349402 180.178493 
L 131.886085 180.300676 
L 133.496132 180.239923 
L 134.032815 180.539932 
L 134.569498 180.396078 
L 135.10618 180.543388 
L 135.642863 180.331768 
L 136.179545 178.649323 
L 136.716228 171.205743 
L 137.252911 167.503873 
L 137.789593 175.087297 
L 138.326276 177.499681 
L 138.862959 173.554752 
L 139.399641 159.661358 
L 139.936324 161.517985 
L 140.473006 174.04777 
L 141.009689 178.086194 
L 141.546372 179.432399 
L 142.083054 179.725372 
L 142.619737 179.858596 
L 143.156419 179.138914 
L 143.693102 176.90305 
L 144.229785 172.456967 
L 144.766467 172.691493 
L 145.30315 175.568284 
L 145.839833 169.521034 
L 146.376515 157.364113 
L 146.913198 174.346546 
L 147.44988 178.511932 
L 147.986563 175.028969 
L 148.523246 169.350123 
L 149.059928 167.248561 
L 150.133293 177.401924 
L 150.669976 179.559447 
L 151.206659 179.908286 
L 151.743341 179.916038 
L 152.280024 178.9819 
L 152.816707 175.47035 
L 153.353389 174.248755 
L 153.890072 175.448331 
L 154.426754 179.292365 
L 154.963437 179.984438 
L 155.50012 179.943195 
L 156.036802 180.09295 
L 156.573485 178.33263 
L 157.110167 175.486188 
L 157.64685 175.188681 
L 158.183533 176.819494 
L 158.720215 179.735033 
L 159.256898 180.238043 
L 159.793581 180.442484 
L 162.476994 180.389691 
L 163.013676 180.308115 
L 163.550359 179.977511 
L 164.087041 178.970089 
L 165.160407 171.521328 
L 165.697089 170.896999 
L 166.233772 175.795133 
L 166.770455 178.193303 
L 167.307137 176.213612 
L 167.84382 175.377017 
L 168.380502 177.447599 
L 168.917185 178.871037 
L 169.453868 178.204188 
L 170.527233 172.320482 
L 171.063915 172.594307 
L 171.600598 175.245701 
L 172.137281 174.619001 
L 172.673963 169.030256 
L 173.210646 167.179423 
L 173.747329 173.156337 
L 174.284011 177.682121 
L 174.820694 179.04886 
L 175.357376 179.131385 
L 175.894059 176.469082 
L 176.430742 175.567789 
L 176.967424 177.414275 
L 177.504107 177.423827 
L 178.577472 176.586381 
L 179.114155 176.831328 
L 179.650837 175.662288 
L 180.18752 176.827597 
L 180.724203 179.315074 
L 181.260885 180.338987 
L 181.797568 180.467361 
L 182.33425 180.313204 
L 182.870933 180.532614 
L 183.407616 180.579845 
L 183.944298 180.413146 
L 184.480981 180.400125 
L 185.017663 179.907376 
L 185.554346 178.156925 
L 186.091029 173.906861 
L 186.627711 173.092836 
L 187.164394 176.91851 
L 187.701077 179.315219 
L 188.237759 179.526113 
L 188.774442 178.311009 
L 189.311124 173.060259 
L 189.847807 170.214159 
L 190.38449 172.350681 
L 191.457855 175.831989 
L 191.994537 178.018528 
L 192.53122 177.159147 
L 193.067903 174.366215 
L 193.604585 175.610726 
L 194.141268 178.266341 
L 194.677951 179.67588 
L 195.214633 179.135302 
L 195.751316 174.575043 
L 196.287998 177.318355 
L 196.824681 177.80165 
L 197.361364 177.213238 
L 198.971411 172.988973 
L 199.508094 175.495946 
L 200.044777 179.021791 
L 200.581459 179.981857 
L 201.118142 180.192021 
L 201.654825 180.171394 
L 202.191507 179.686343 
L 202.72819 177.763958 
L 203.264872 176.678608 
L 203.801555 177.055808 
L 204.338238 177.729621 
L 204.87492 177.818466 
L 205.411603 178.604327 
L 205.948285 178.242943 
L 207.558333 174.37862 
L 208.095016 175.039943 
L 208.631699 175.95683 
L 209.168381 177.452109 
L 209.705064 176.202569 
L 210.241746 173.696117 
L 210.778429 175.059562 
L 211.315112 177.779624 
L 211.851794 178.877638 
L 212.388477 177.637855 
L 212.925159 174.55399 
L 213.461842 174.187903 
L 213.998525 176.27165 
L 214.535207 177.734696 
L 215.07189 177.345711 
L 215.608573 177.245111 
L 216.681938 179.447466 
L 217.21862 179.7433 
L 217.755303 179.047987 
L 218.291986 176.771318 
L 218.828668 176.541721 
L 219.365351 177.216628 
L 220.438716 177.603517 
L 220.975399 176.013543 
L 221.512081 177.158183 
L 222.048764 178.721776 
L 222.585447 179.724443 
L 223.122129 179.116942 
L 223.658812 177.703932 
L 224.195494 175.334528 
L 224.732177 173.686917 
L 225.26886 174.753569 
L 225.805542 178.657916 
L 226.342225 179.978931 
L 226.878907 180.375292 
L 227.41559 180.306224 
L 227.952273 179.929618 
L 229.025638 178.701858 
L 229.562321 179.267423 
L 230.099003 179.628517 
L 230.635686 178.81301 
L 231.172368 177.436768 
L 231.709051 177.666834 
L 232.245734 179.349709 
L 232.782416 179.599872 
L 233.319099 178.333508 
L 233.855781 177.354384 
L 234.392464 178.261314 
L 234.929147 179.689628 
L 235.465829 180.248165 
L 236.002512 180.29105 
L 236.539195 180.076147 
L 237.075877 179.199926 
L 237.61256 177.108807 
L 238.149242 176.432645 
L 238.685925 175.347204 
L 239.222608 173.123972 
L 239.75929 173.227613 
L 240.295973 174.072915 
L 240.832656 173.824319 
L 241.369338 175.369057 
L 241.906021 178.160547 
L 242.442703 179.226367 
L 242.979386 178.865335 
L 243.516069 177.729431 
L 244.052751 176.300379 
L 244.589434 175.345964 
L 245.126116 176.251305 
L 245.662799 178.180586 
L 246.199482 178.988556 
L 246.736164 179.592207 
L 247.272847 179.107458 
L 247.80953 178.21161 
L 248.346212 178.074719 
L 248.882895 179.046988 
L 249.419577 177.974815 
L 249.95626 176.028434 
L 250.492943 176.024674 
L 251.029625 178.57321 
L 251.566308 179.282868 
L 252.10299 178.69132 
L 253.176356 175.925615 
L 253.713038 176.241393 
L 254.249721 175.825813 
L 254.786404 174.153341 
L 255.323086 175.221035 
L 255.859769 177.699051 
L 256.396451 177.945387 
L 256.933134 177.29525 
L 258.006499 177.010329 
L 258.543182 176.536599 
L 258.543182 176.536599 
" clip-path="url(#p72ed34ef38)" style="fill: none; stroke: #000000; stroke-opacity: 0.5; stroke-width: 0.5; stroke-linecap: square"/>
   </g>
   <g id="line2d_12">
    <path d="M 44.406818 180.687273 
L 93.244936 180.687273 
L 93.781619 180.317373 
L 94.318301 180.325243 
L 94.854984 179.978456 
L 95.391667 180.340248 
L 95.928349 180.007533 
L 96.465032 180.354338 
L 98.07508 178.493793 
L 98.611762 169.013286 
L 99.148445 148.755279 
L 99.685128 134.89212 
L 100.22181 148.226903 
L 100.758493 168.744314 
L 101.295175 173.432205 
L 101.831858 175.209796 
L 102.368541 177.729931 
L 102.905223 179.367467 
L 103.441906 180.168861 
L 103.978589 180.687273 
L 104.515271 180.187131 
L 105.051954 179.95022 
L 105.588636 179.480218 
L 106.125319 179.263778 
L 106.662002 178.821723 
L 107.198684 176.102439 
L 108.272049 162.291776 
L 108.808732 163.249751 
L 109.345415 170.396282 
L 109.882097 175.414536 
L 110.41878 178.197179 
L 110.955463 179.870521 
L 111.492145 180.486326 
L 112.028828 180.48949 
L 112.56551 180.297888 
L 113.102193 179.728903 
L 113.638876 180.309822 
L 114.175558 180.129742 
L 114.712241 179.589107 
L 115.785606 177.135573 
L 116.322289 173.164226 
L 116.858971 159.311944 
L 117.395654 129.72775 
L 117.932337 138.166769 
L 118.469019 160.227958 
L 119.005702 173.693861 
L 119.542384 178.442642 
L 120.61575 179.128653 
L 121.152432 180.072483 
L 121.689115 180.384118 
L 122.225797 180.238771 
L 122.76248 180.539806 
L 123.299163 180.25085 
L 123.835845 180.543751 
L 124.372528 180.404057 
L 125.445893 180.687273 
L 125.982576 180.687273 
L 126.519258 180.552949 
L 127.055941 180.554682 
L 127.592624 180.687273 
L 130.812719 180.687273 
L 131.349402 180.567416 
L 131.886085 180.687273 
L 132.422767 180.570312 
L 133.496132 180.002269 
L 134.032815 180.574465 
L 134.569498 180.352853 
L 135.10618 180.577111 
L 135.642863 180.034034 
L 136.179545 174.876481 
L 136.716228 152.288264 
L 137.252911 141.049092 
L 137.789593 164.992489 
L 138.326276 173.083189 
L 138.862959 166.971681 
L 139.399641 141.811058 
L 139.936324 150.986631 
L 140.473006 173.32007 
L 141.009689 178.938681 
L 141.546372 180.014739 
L 142.083054 180.022087 
L 142.619737 180.311299 
L 143.156419 180.40834 
L 143.693102 180.043429 
L 144.766467 180.597247 
L 145.30315 179.885613 
L 145.839833 177.690663 
L 146.376515 155.133959 
L 146.913198 171.021186 
L 147.44988 179.918582 
L 147.986563 180.433684 
L 149.059928 180.687273 
L 150.133293 180.606133 
L 151.206659 180.687273 
L 154.426754 180.612327 
L 154.963437 180.538829 
L 156.573485 180.687273 
L 157.110167 180.544418 
L 157.64685 180.687273 
L 161.403628 180.62098 
L 162.476994 180.557081 
L 163.550359 180.687273 
L 164.087041 180.497193 
L 165.160407 180.376068 
L 165.697089 180.132037 
L 166.233772 179.341934 
L 166.770455 176.747146 
L 167.307137 168.488942 
L 167.84382 165.199025 
L 168.917185 176.354594 
L 169.453868 177.90091 
L 169.99055 174.471289 
L 170.527233 167.16228 
L 171.063915 166.031473 
L 171.600598 169.801837 
L 172.137281 166.053697 
L 172.673963 155.085073 
L 173.210646 153.382341 
L 173.747329 166.469305 
L 174.284011 174.659395 
L 174.820694 178.231832 
L 175.357376 179.575461 
L 175.894059 179.584499 
L 176.430742 179.958044 
L 176.967424 178.052214 
L 177.504107 175.151965 
L 178.040789 174.535293 
L 178.577472 175.643505 
L 179.114155 179.3863 
L 179.650837 179.893001 
L 180.18752 180.047009 
L 180.724203 180.394085 
L 183.944298 180.407435 
L 184.480981 179.993018 
L 185.017663 179.217466 
L 185.554346 175.718673 
L 186.091029 169.377355 
L 186.627711 171.303267 
L 187.164394 175.785334 
L 187.701077 178.962276 
L 188.237759 179.677529 
L 188.774442 180.033622 
L 189.847807 180.558462 
L 190.921172 180.306471 
L 191.457855 179.763191 
L 191.994537 178.268722 
L 192.53122 175.429724 
L 193.067903 170.617699 
L 193.604585 171.506016 
L 194.141268 176.757393 
L 194.677951 179.118465 
L 195.214633 179.808584 
L 195.751316 179.061283 
L 196.287998 177.655085 
L 196.824681 173.296854 
L 197.361364 171.7177 
L 197.898046 170.931906 
L 198.434729 172.071855 
L 198.971411 172.58776 
L 200.044777 179.187114 
L 200.581459 179.905082 
L 201.118142 180.095386 
L 201.654825 179.585032 
L 202.191507 177.840879 
L 202.72819 172.532024 
L 203.264872 169.20277 
L 203.801555 172.104872 
L 204.338238 177.454878 
L 204.87492 179.275912 
L 205.411603 179.25024 
L 206.484968 173.4239 
L 207.021651 174.57118 
L 207.558333 177.717552 
L 208.095016 179.873393 
L 208.631699 179.777625 
L 209.168381 179.515755 
L 209.705064 176.995943 
L 210.241746 173.2531 
L 210.778429 175.237772 
L 211.315112 178.43664 
L 211.851794 179.812219 
L 212.388477 180.397447 
L 213.461842 180.560089 
L 217.21862 180.656842 
L 218.291986 180.146253 
L 218.828668 179.253399 
L 219.902033 173.428172 
L 220.438716 174.029544 
L 220.975399 173.516048 
L 221.512081 175.471694 
L 222.048764 178.095215 
L 222.585447 179.914321 
L 223.122129 180.061231 
L 223.658812 179.55582 
L 224.195494 176.750755 
L 224.732177 172.860928 
L 225.26886 172.073647 
L 225.805542 177.372657 
L 226.342225 179.726192 
L 226.878907 180.359693 
L 228.488955 180.23127 
L 229.025638 180.313919 
L 229.562321 180.103966 
L 230.099003 178.841981 
L 230.635686 175.655006 
L 231.172368 171.149549 
L 231.709051 172.110853 
L 232.245734 177.415394 
L 232.782416 179.816306 
L 233.319099 180.228788 
L 234.929147 180.386753 
L 235.465829 180.388435 
L 236.002512 180.142466 
L 236.539195 179.677609 
L 237.075877 177.23429 
L 237.61256 172.991582 
L 238.149242 175.455978 
L 238.685925 177.315321 
L 239.222608 176.998501 
L 239.75929 175.517918 
L 240.832656 169.659998 
L 241.369338 173.047597 
L 241.906021 177.843755 
L 242.442703 179.458655 
L 242.979386 179.442219 
L 243.516069 177.522569 
L 244.052751 173.182909 
L 244.589434 172.928112 
L 245.662799 178.8691 
L 246.199482 179.972791 
L 246.736164 180.220873 
L 247.272847 180.179153 
L 247.80953 180.445537 
L 248.346212 180.1189 
L 248.882895 179.599963 
L 249.419577 177.074635 
L 249.95626 173.219866 
L 250.492943 173.858084 
L 251.029625 177.854759 
L 251.566308 179.712664 
L 252.10299 180.160324 
L 252.639673 180.330789 
L 253.176356 180.040549 
L 253.713038 179.421196 
L 254.249721 177.30077 
L 254.786404 173.804925 
L 255.323086 174.105595 
L 255.859769 177.352084 
L 256.396451 178.80553 
L 256.933134 177.224583 
L 257.469817 174.978495 
L 258.006499 172.137156 
L 258.543182 170.990091 
L 258.543182 170.990091 
" clip-path="url(#p72ed34ef38)" style="fill: none; stroke: #0000ff; stroke-opacity: 0.5; stroke-linecap: square"/>
   </g>
   <g id="line2d_13">
    <path d="M 44.406818 180.687273 
L 107.735367 180.687273 
L 108.808732 179.912272 
L 109.882097 180.687273 
L 110.41878 180.31837 
L 110.955463 179.59827 
L 112.028828 175.764678 
L 112.56551 161.304586 
L 113.638876 98.822488 
L 114.175558 84.213796 
L 114.712241 137.411405 
L 115.248923 166.906189 
L 115.785606 176.267381 
L 116.322289 176.954909 
L 116.858971 179.154991 
L 117.395654 180.38529 
L 117.932337 179.496848 
L 118.469019 179.807302 
L 119.005702 178.952473 
L 119.542384 180.40224 
L 120.61575 179.856009 
L 121.152432 179.867553 
L 122.225797 180.421494 
L 122.76248 179.638621 
L 123.299163 180.428652 
L 123.835845 180.176974 
L 124.372528 180.183778 
L 124.909211 179.196794 
L 125.445893 179.706696 
L 125.982576 175.848475 
L 126.519258 167.553397 
L 127.055941 150.987002 
L 127.592624 143.456088 
L 128.129306 164.146679 
L 128.665989 176.150815 
L 129.202671 180.015364 
L 129.739354 180.244933 
L 130.276037 180.687273 
L 130.812719 180.255821 
L 131.886085 180.687273 
L 134.569498 180.687273 
L 135.10618 180.49143 
L 135.642863 180.49372 
L 136.179545 180.687273 
L 137.252911 180.687273 
L 137.789593 180.502492 
L 138.326276 180.687273 
L 139.399641 180.687273 
L 139.936324 180.51068 
L 140.473006 180.687273 
L 142.619737 180.687273 
L 143.156419 180.356686 
L 143.693102 180.523757 
L 144.229785 180.363739 
L 144.766467 180.36718 
L 145.30315 177.836927 
L 145.839833 132.898201 
L 146.376515 104.405267 
L 146.913198 170.560896 
L 147.44988 179.168872 
L 147.986563 180.687273 
L 148.523246 180.687273 
L 149.059928 180.540057 
L 149.596611 180.687273 
L 158.183533 180.687273 
L 158.720215 180.563834 
L 159.256898 180.564982 
L 159.793581 180.687273 
L 160.330263 180.687273 
L 160.866946 180.568333 
L 161.940311 180.57049 
L 162.476994 180.340094 
L 163.013676 180.687273 
L 164.087041 180.349353 
L 164.623724 180.463995 
L 165.160407 180.355321 
L 166.233772 180.687273 
L 166.770455 180.687273 
L 167.307137 180.259964 
L 167.84382 180.263663 
L 168.380502 180.057336 
L 168.917185 178.501417 
L 169.453868 172.534582 
L 169.99055 163.292752 
L 170.527233 159.280629 
L 171.063915 162.881517 
L 171.600598 170.811826 
L 172.137281 173.86198 
L 172.673963 163.030585 
L 173.210646 156.173027 
L 174.284011 175.711882 
L 174.820694 178.504659 
L 175.357376 179.9343 
L 175.894059 180.127134 
L 176.430742 179.761268 
L 176.967424 179.768734 
L 177.504107 177.042626 
L 178.040789 172.733198 
L 178.577472 170.106568 
L 179.114155 172.681285 
L 179.650837 178.39271 
L 180.18752 179.373911 
L 180.724203 180.079179 
L 181.260885 180.342505 
L 181.797568 180.345188 
L 182.33425 180.178124 
L 182.870933 180.518867 
L 183.407616 180.520163 
L 183.944298 179.94104 
L 184.480981 180.440427 
L 185.017663 180.034026 
L 186.091029 180.445994 
L 186.627711 180.208344 
L 187.701077 180.215479 
L 188.237759 179.984842 
L 188.774442 178.673061 
L 189.311124 177.918949 
L 189.847807 170.077072 
L 190.38449 153.408944 
L 190.921172 147.816087 
L 191.457855 157.015859 
L 191.994537 171.717324 
L 192.53122 171.561309 
L 193.067903 164.539423 
L 194.677951 179.185508 
L 195.214633 180.190236 
L 195.751316 180.123244 
L 196.287998 180.477251 
L 196.824681 180.617757 
L 197.898046 180.481626 
L 198.434729 180.6192 
L 199.508094 180.418732 
L 200.044777 180.553925 
L 201.654825 180.556637 
L 202.191507 180.687273 
L 203.801555 180.687273 
L 204.87492 180.499091 
L 205.411603 180.562652 
L 207.021651 179.832089 
L 207.558333 177.895811 
L 208.631699 167.750062 
L 209.168381 171.285381 
L 209.705064 176.844448 
L 210.241746 179.395012 
L 210.778429 180.512188 
L 211.315112 180.571298 
L 211.851794 180.456806 
L 212.388477 180.515524 
L 212.925159 180.175295 
L 213.461842 179.500221 
L 213.998525 176.530719 
L 214.535207 171.868274 
L 215.07189 169.815877 
L 215.608573 173.246129 
L 216.145255 178.605775 
L 216.681938 180.306221 
L 217.21862 180.362679 
L 217.755303 180.687273 
L 219.902033 180.529894 
L 220.438716 180.582991 
L 220.975399 180.42815 
L 221.512081 180.584249 
L 222.048764 180.277664 
L 222.585447 180.483697 
L 223.122129 179.928434 
L 223.658812 177.167197 
L 224.732177 160.56239 
L 225.26886 165.225971 
L 225.805542 175.973153 
L 226.342225 179.076319 
L 226.878907 180.056378 
L 227.41559 180.446041 
L 227.952273 180.543377 
L 228.488955 180.496527 
L 229.025638 180.639863 
L 230.099003 180.593544 
L 231.172368 180.640945 
L 231.709051 180.456956 
L 232.245734 180.687273 
L 233.855781 180.46214 
L 234.392464 180.373863 
L 234.929147 180.59823 
L 236.539195 180.424596 
L 237.61256 180.167732 
L 238.149242 178.233085 
L 238.685925 173.365322 
L 239.222608 159.480831 
L 239.75929 156.674791 
L 240.295973 168.557083 
L 240.832656 177.880711 
L 241.369338 179.520751 
L 241.906021 179.817125 
L 242.442703 180.481215 
L 243.516069 179.219584 
L 244.052751 176.105075 
L 244.589434 169.595558 
L 245.126116 170.256445 
L 245.662799 176.616961 
L 246.199482 179.49647 
L 246.736164 180.134502 
L 247.272847 180.333798 
L 247.80953 180.296588 
L 248.346212 180.64841 
L 248.882895 180.571293 
L 249.419577 180.610357 
L 250.492943 180.192508 
L 251.029625 180.005766 
L 251.566308 179.180632 
L 252.10299 176.527892 
L 252.639673 169.689873 
L 253.176356 160.51135 
L 253.713038 163.824708 
L 254.249721 169.527416 
L 254.786404 170.095536 
L 255.323086 171.530157 
L 255.859769 176.638047 
L 256.396451 179.320368 
L 256.933134 180.007261 
L 257.469817 180.36678 
L 258.543182 180.546255 
L 258.543182 180.546255 
" clip-path="url(#p72ed34ef38)" style="fill: none; stroke: #ff0000; stroke-opacity: 0.5; stroke-linecap: square"/>
   </g>
   <g id="patch_3">
    <path d="M 33.7 188.6 
L 33.7 14.52 
" style="fill: none; stroke: #000000; stroke-width: 0.8; stroke-linejoin: miter; stroke-linecap: square"/>
   </g>
   <g id="patch_4">
    <path d="M 269.25 188.6 
L 269.25 14.52 
" style="fill: none; stroke: #000000; stroke-width: 0.8; stroke-linejoin: miter; stroke-linecap: square"/>
   </g>
   <g id="patch_5">
    <path d="M 33.7 188.6 
L 269.25 188.6 
" style="fill: none; stroke: #000000; stroke-width: 0.8; stroke-linejoin: miter; stroke-linecap: square"/>
   </g>
   <g id="patch_6">
    <path d="M 33.7 14.52 
L 269.25 14.52 
" style="fill: none; stroke: #000000; stroke-width: 0.8; stroke-linejoin: miter; stroke-linecap: square"/>
   </g>
   <g id="legend_1">
    <g id="patch_7">
     <path d="M 213.917188 66.554375 
L 262.25 66.554375 
Q 264.25 66.554375 264.25 64.554375 
L 264.25 21.52 
Q 264.25 19.52 262.25 19.52 
L 213.917188 19.52 
Q 211.917188 19.52 211.917188 21.52 
L 211.917188 64.554375 
Q 211.917188 66.554375 213.917188 66.554375 
z
" style="fill: #ffffff; opacity: 0.8; stroke: #cccccc; stroke-linejoin: miter"/>
    </g>
    <g id="line2d_14">
     <path d="M 215.917188 27.618438 
L 225.917188 27.618438 
L 235.917188 27.618438 
" style="fill: none; stroke: #000000; stroke-opacity: 0.5; stroke-width: 0.5; stroke-linecap: square"/>
    </g>
    <g id="text_13">
     <!-- all -->
     <g transform="translate(243.917188 31.118438) scale(0.1 -0.1)">
      <defs>
       <path id="DejaVuSans-61" d="M 2194 1759 
Q 1497 1759 1228 1600 
Q 959 1441 959 1056 
Q 959 750 1161 570 
Q 1363 391 1709 391 
Q 2188 391 2477 730 
Q 2766 1069 2766 1631 
L 2766 1759 
L 2194 1759 
z
M 3341 1997 
L 3341 0 
L 2766 0 
L 2766 531 
Q 2569 213 2275 61 
Q 1981 -91 1556 -91 
Q 1019 -91 701 211 
Q 384 513 384 1019 
Q 384 1609 779 1909 
Q 1175 2209 1959 2209 
L 2766 2209 
L 2766 2266 
Q 2766 2663 2505 2880 
Q 2244 3097 1772 3097 
Q 1472 3097 1187 3025 
Q 903 2953 641 2809 
L 641 3341 
Q 956 3463 1253 3523 
Q 1550 3584 1831 3584 
Q 2591 3584 2966 3190 
Q 3341 2797 3341 1997 
z
" transform="scale(0.015625)"/>
       <path id="DejaVuSans-6c" d="M 603 4863 
L 1178 4863 
L 1178 0 
L 603 0 
L 603 4863 
z
" transform="scale(0.015625)"/>
      </defs>
      <use xlink:href="#DejaVuSans-61"/>
      <use xlink:href="#DejaVuSans-6c" transform="translate(61.279297 0)"/>
      <use xlink:href="#DejaVuSans-6c" transform="translate(89.0625 0)"/>
     </g>
    </g>
    <g id="line2d_15">
     <path d="M 215.917188 42.296563 
L 225.917188 42.296563 
L 235.917188 42.296563 
" style="fill: none; stroke: #0000ff; stroke-opacity: 0.5; stroke-linecap: square"/>
    </g>
    <g id="text_14">
     <!-- 1-1 -->
     <g transform="translate(243.917188 45.796563) scale(0.1 -0.1)">
      <defs>
       <path id="DejaVuSans-2d" d="M 313 2009 
L 1997 2009 
L 1997 1497 
L 313 1497 
L 313 2009 
z
" transform="scale(0.015625)"/>
      </defs>
      <use xlink:href="#DejaVuSans-31"/>
      <use xlink:href="#DejaVuSans-2d" transform="translate(63.623047 0)"/>
      <use xlink:href="#DejaVuSans-31" transform="translate(99.707031 0)"/>
     </g>
    </g>
    <g id="line2d_16">
     <path d="M 215.917188 56.974688 
L 225.917188 56.974688 
L 235.917188 56.974688 
" style="fill: none; stroke: #ff0000; stroke-opacity: 0.5; stroke-linecap: square"/>
    </g>
    <g id="text_15">
     <!-- 2-2 -->
     <g transform="translate(243.917188 60.474688) scale(0.1 -0.1)">
      <use xlink:href="#DejaVuSans-32"/>
      <use xlink:href="#DejaVuSans-2d" transform="translate(63.623047 0)"/>
      <use xlink:href="#DejaVuSans-32" transform="translate(99.707031 0)"/>
     </g>
    </g>
   </g>
  </g>
 </g>
 <defs>
  <clipPath id="p72ed34ef38">
   <rect x="33.7" y="14.52" width="235.55" height="174.08"/>
  </clipPath>
 </defs>
</svg>
