<?xml version="1.0" encoding="utf-8" standalone="no"?>
<!DOCTYPE svg PUBLIC "-//W3C//DTD SVG 1.1//EN"
  "http://www.w3.org/Graphics/SVG/1.1/DTD/svg11.dtd">
<svg xmlns:xlink="http://www.w3.org/1999/xlink" width="288pt" height="216pt" viewBox="0 0 288 216" xmlns="http://www.w3.org/2000/svg" version="1.1">
 <metadata>
  <rdf:RDF xmlns:dc="http://purl.org/dc/elements/1.1/" xmlns:cc="http://creativecommons.org/ns#" xmlns:rdf="http://www.w3.org/1999/02/22-rdf-syntax-ns#">
   <cc:Work>
    <dc:type rdf:resource="http://purl.org/dc/dcmitype/StillImage"/>
    <dc:date>2025-09-17T23:01:59.625333</dc:date>
    <dc:format>image/svg+xml</dc:format>
    <dc:creator>
     <cc:Agent>
      <dc:title>Matplotlib v3.10.0, https://matplotlib.org/</dc:title>
     </cc:Agent>
    </dc:creator>
   </cc:Work>
  </rdf:RDF>
 </metadata>
 <defs>
  <style type="text/css">*{stroke-linejoin: round; stroke-linecap: butt}</style>
 </defs>
 <g id="figure_1">
  <g id="patch_1">
   <path d="M 0 216 
L 288 216 
L 288 0 
L 0 0 
z
" style="fill: #ffffff"/>
  </g>
  <g id="axes_1">
   <g id="patch_2">
    <path d="M 33.7 188.6 
L 269.25 188.6 
L 269.25 14.52 
L 33.7 14.52 
z
" style="fill: #ffffff"/>
   </g>
   <g id="matplotlib.axis_1">
    <g id="xtick_1">
     <g id="line2d_1">
      <defs>
       <path id="m48b86ab2e5" d="M 0 0 
L 0 3.5 
" style="stroke: #000000; stroke-width: 0.8"/>
      </defs>
      <g>
       <use xlink:href="#m48b86ab2e5" x="44.138477" y="188.6" style="stroke: #000000; stroke-width: 0.8"/>
      </g>
     </g>
     <g id="text_1">
      <!-- 0 -->
      <g transform="translate(40.957227 203.198437) scale(0.1 -0.1)">
       <defs>
        <path id="DejaVuSans-30" d="M 2034 4250 
Q 1547 4250 1301 3770 
Q 1056 3291 1056 2328 
Q 1056 1369 1301 889 
Q 1547 409 2034 409 
Q 2525 409 2770 889 
Q 3016 1369 3016 2328 
Q 3016 3291 2770 3770 
Q 2525 4250 2034 4250 
z
M 2034 4750 
Q 2819 4750 3233 4129 
Q 3647 3509 3647 2328 
Q 3647 1150 3233 529 
Q 2819 -91 2034 -91 
Q 1250 -91 836 529 
Q 422 1150 422 2328 
Q 422 3509 836 4129 
Q 1250 4750 2034 4750 
z
" transform="scale(0.015625)"/>
       </defs>
       <use xlink:href="#DejaVuSans-30"/>
      </g>
     </g>
    </g>
    <g id="xtick_2">
     <g id="line2d_2">
      <g>
       <use xlink:href="#m48b86ab2e5" x="87.073086" y="188.6" style="stroke: #000000; stroke-width: 0.8"/>
      </g>
     </g>
     <g id="text_2">
      <!-- 200 -->
      <g transform="translate(77.529336 203.198437) scale(0.1 -0.1)">
       <defs>
        <path id="DejaVuSans-32" d="M 1228 531 
L 3431 531 
L 3431 0 
L 469 0 
L 469 531 
Q 828 903 1448 1529 
Q 2069 2156 2228 2338 
Q 2531 2678 2651 2914 
Q 2772 3150 2772 3378 
Q 2772 3750 2511 3984 
Q 2250 4219 1831 4219 
Q 1534 4219 1204 4116 
Q 875 4013 500 3803 
L 500 4441 
Q 881 4594 1212 4672 
Q 1544 4750 1819 4750 
Q 2544 4750 2975 4387 
Q 3406 4025 3406 3419 
Q 3406 3131 3298 2873 
Q 3191 2616 2906 2266 
Q 2828 2175 2409 1742 
Q 1991 1309 1228 531 
z
" transform="scale(0.015625)"/>
       </defs>
       <use xlink:href="#DejaVuSans-32"/>
       <use xlink:href="#DejaVuSans-30" transform="translate(63.623047 0)"/>
       <use xlink:href="#DejaVuSans-30" transform="translate(127.246094 0)"/>
      </g>
     </g>
    </g>
    <g id="xtick_3">
     <g id="line2d_3">
      <g>
       <use xlink:href="#m48b86ab2e5" x="130.007695" y="188.6" style="stroke: #000000; stroke-width: 0.8"/>
      </g>
     </g>
     <g id="text_3">
      <!-- 400 -->
      <g transform="translate(120.463945 203.198437) scale(0.1 -0.1)">
       <defs>
        <path id="DejaVuSans-34" d="M 2419 4116 
L 825 1625 
L 2419 1625 
L 2419 4116 
z
M 2253 4666 
L 3047 4666 
L 3047 1625 
L 3713 1625 
L 3713 1100 
L 3047 1100 
L 3047 0 
L 2419 0 
L 2419 1100 
L 313 1100 
L 313 1709 
L 2253 4666 
z
" transform="scale(0.015625)"/>
       </defs>
       <use xlink:href="#DejaVuSans-34"/>
       <use xlink:href="#DejaVuSans-30" transform="translate(63.623047 0)"/>
       <use xlink:href="#DejaVuSans-30" transform="translate(127.246094 0)"/>
      </g>
     </g>
    </g>
    <g id="xtick_4">
     <g id="line2d_4">
      <g>
       <use xlink:href="#m48b86ab2e5" x="172.942305" y="188.6" style="stroke: #000000; stroke-width: 0.8"/>
      </g>
     </g>
     <g id="text_4">
      <!-- 600 -->
      <g transform="translate(163.398555 203.198437) scale(0.1 -0.1)">
       <defs>
        <path id="DejaVuSans-36" d="M 2113 2584 
Q 1688 2584 1439 2293 
Q 1191 2003 1191 1497 
Q 1191 994 1439 701 
Q 1688 409 2113 409 
Q 2538 409 2786 701 
Q 3034 994 3034 1497 
Q 3034 2003 2786 2293 
Q 2538 2584 2113 2584 
z
M 3366 4563 
L 3366 3988 
Q 3128 4100 2886 4159 
Q 2644 4219 2406 4219 
Q 1781 4219 1451 3797 
Q 1122 3375 1075 2522 
Q 1259 2794 1537 2939 
Q 1816 3084 2150 3084 
Q 2853 3084 3261 2657 
Q 3669 2231 3669 1497 
Q 3669 778 3244 343 
Q 2819 -91 2113 -91 
Q 1303 -91 875 529 
Q 447 1150 447 2328 
Q 447 3434 972 4092 
Q 1497 4750 2381 4750 
Q 2619 4750 2861 4703 
Q 3103 4656 3366 4563 
z
" transform="scale(0.015625)"/>
       </defs>
       <use xlink:href="#DejaVuSans-36"/>
       <use xlink:href="#DejaVuSans-30" transform="translate(63.623047 0)"/>
       <use xlink:href="#DejaVuSans-30" transform="translate(127.246094 0)"/>
      </g>
     </g>
    </g>
    <g id="xtick_5">
     <g id="line2d_5">
      <g>
       <use xlink:href="#m48b86ab2e5" x="215.876914" y="188.6" style="stroke: #000000; stroke-width: 0.8"/>
      </g>
     </g>
     <g id="text_5">
      <!-- 800 -->
      <g transform="translate(206.333164 203.198437) scale(0.1 -0.1)">
       <defs>
        <path id="DejaVuSans-38" d="M 2034 2216 
Q 1584 2216 1326 1975 
Q 1069 1734 1069 1313 
Q 1069 891 1326 650 
Q 1584 409 2034 409 
Q 2484 409 2743 651 
Q 3003 894 3003 1313 
Q 3003 1734 2745 1975 
Q 2488 2216 2034 2216 
z
M 1403 2484 
Q 997 2584 770 2862 
Q 544 3141 544 3541 
Q 544 4100 942 4425 
Q 1341 4750 2034 4750 
Q 2731 4750 3128 4425 
Q 3525 4100 3525 3541 
Q 3525 3141 3298 2862 
Q 3072 2584 2669 2484 
Q 3125 2378 3379 2068 
Q 3634 1759 3634 1313 
Q 3634 634 3220 271 
Q 2806 -91 2034 -91 
Q 1263 -91 848 271 
Q 434 634 434 1313 
Q 434 1759 690 2068 
Q 947 2378 1403 2484 
z
M 1172 3481 
Q 1172 3119 1398 2916 
Q 1625 2713 2034 2713 
Q 2441 2713 2670 2916 
Q 2900 3119 2900 3481 
Q 2900 3844 2670 4047 
Q 2441 4250 2034 4250 
Q 1625 4250 1398 4047 
Q 1172 3844 1172 3481 
z
" transform="scale(0.015625)"/>
       </defs>
       <use xlink:href="#DejaVuSans-38"/>
       <use xlink:href="#DejaVuSans-30" transform="translate(63.623047 0)"/>
       <use xlink:href="#DejaVuSans-30" transform="translate(127.246094 0)"/>
      </g>
     </g>
    </g>
    <g id="xtick_6">
     <g id="line2d_6">
      <g>
       <use xlink:href="#m48b86ab2e5" x="258.811523" y="188.6" style="stroke: #000000; stroke-width: 0.8"/>
      </g>
     </g>
     <g id="text_6">
      <!-- 1000 -->
      <g transform="translate(246.086523 203.198437) scale(0.1 -0.1)">
       <defs>
        <path id="DejaVuSans-31" d="M 794 531 
L 1825 531 
L 1825 4091 
L 703 3866 
L 703 4441 
L 1819 4666 
L 2450 4666 
L 2450 531 
L 3481 531 
L 3481 0 
L 794 0 
L 794 531 
z
" transform="scale(0.015625)"/>
       </defs>
       <use xlink:href="#DejaVuSans-31"/>
       <use xlink:href="#DejaVuSans-30" transform="translate(63.623047 0)"/>
       <use xlink:href="#DejaVuSans-30" transform="translate(127.246094 0)"/>
       <use xlink:href="#DejaVuSans-30" transform="translate(190.869141 0)"/>
      </g>
     </g>
    </g>
    <g id="text_7">
     <!-- q (nm) -->
     <g transform="translate(134.771094 216.876563) scale(0.1 -0.1)">
      <defs>
       <path id="DejaVuSans-71" d="M 947 1747 
Q 947 1113 1208 752 
Q 1469 391 1925 391 
Q 2381 391 2643 752 
Q 2906 1113 2906 1747 
Q 2906 2381 2643 2742 
Q 2381 3103 1925 3103 
Q 1469 3103 1208 2742 
Q 947 2381 947 1747 
z
M 2906 525 
Q 2725 213 2448 61 
Q 2172 -91 1784 -91 
Q 1150 -91 751 415 
Q 353 922 353 1747 
Q 353 2572 751 3078 
Q 1150 3584 1784 3584 
Q 2172 3584 2448 3432 
Q 2725 3281 2906 2969 
L 2906 3500 
L 3481 3500 
L 3481 -1331 
L 2906 -1331 
L 2906 525 
z
" transform="scale(0.015625)"/>
       <path id="DejaVuSans-20" transform="scale(0.015625)"/>
       <path id="DejaVuSans-28" d="M 1984 4856 
Q 1566 4138 1362 3434 
Q 1159 2731 1159 2009 
Q 1159 1288 1364 580 
Q 1569 -128 1984 -844 
L 1484 -844 
Q 1016 -109 783 600 
Q 550 1309 550 2009 
Q 550 2706 781 3412 
Q 1013 4119 1484 4856 
L 1984 4856 
z
" transform="scale(0.015625)"/>
       <path id="DejaVuSans-6e" d="M 3513 2113 
L 3513 0 
L 2938 0 
L 2938 2094 
Q 2938 2591 2744 2837 
Q 2550 3084 2163 3084 
Q 1697 3084 1428 2787 
Q 1159 2491 1159 1978 
L 1159 0 
L 581 0 
L 581 3500 
L 1159 3500 
L 1159 2956 
Q 1366 3272 1645 3428 
Q 1925 3584 2291 3584 
Q 2894 3584 3203 3211 
Q 3513 2838 3513 2113 
z
" transform="scale(0.015625)"/>
       <path id="DejaVuSans-6d" d="M 3328 2828 
Q 3544 3216 3844 3400 
Q 4144 3584 4550 3584 
Q 5097 3584 5394 3201 
Q 5691 2819 5691 2113 
L 5691 0 
L 5113 0 
L 5113 2094 
Q 5113 2597 4934 2840 
Q 4756 3084 4391 3084 
Q 3944 3084 3684 2787 
Q 3425 2491 3425 1978 
L 3425 0 
L 2847 0 
L 2847 2094 
Q 2847 2600 2669 2842 
Q 2491 3084 2119 3084 
Q 1678 3084 1418 2786 
Q 1159 2488 1159 1978 
L 1159 0 
L 581 0 
L 581 3500 
L 1159 3500 
L 1159 2956 
Q 1356 3278 1631 3431 
Q 1906 3584 2284 3584 
Q 2666 3584 2933 3390 
Q 3200 3197 3328 2828 
z
" transform="scale(0.015625)"/>
       <path id="DejaVuSans-29" d="M 513 4856 
L 1013 4856 
Q 1481 4119 1714 3412 
Q 1947 2706 1947 2009 
Q 1947 1309 1714 600 
Q 1481 -109 1013 -844 
L 513 -844 
Q 928 -128 1133 580 
Q 1338 1288 1338 2009 
Q 1338 2731 1133 3434 
Q 928 4138 513 4856 
z
" transform="scale(0.015625)"/>
      </defs>
      <use xlink:href="#DejaVuSans-71"/>
      <use xlink:href="#DejaVuSans-20" transform="translate(63.476562 0)"/>
      <use xlink:href="#DejaVuSans-28" transform="translate(95.263672 0)"/>
      <use xlink:href="#DejaVuSans-6e" transform="translate(134.277344 0)"/>
      <use xlink:href="#DejaVuSans-6d" transform="translate(197.65625 0)"/>
      <use xlink:href="#DejaVuSans-29" transform="translate(295.068359 0)"/>
     </g>
    </g>
   </g>
   <g id="matplotlib.axis_2">
    <g id="ytick_1">
     <g id="line2d_7">
      <defs>
       <path id="m3a313f9998" d="M 0 0 
L -3.5 0 
" style="stroke: #000000; stroke-width: 0.8"/>
      </defs>
      <g>
       <use xlink:href="#m3a313f9998" x="33.7" y="180.687273" style="stroke: #000000; stroke-width: 0.8"/>
      </g>
     </g>
     <g id="text_8">
      <!-- 0 -->
      <g transform="translate(20.3375 184.486491) scale(0.1 -0.1)">
       <use xlink:href="#DejaVuSans-30"/>
      </g>
     </g>
    </g>
    <g id="ytick_2">
     <g id="line2d_8">
      <g>
       <use xlink:href="#m3a313f9998" x="33.7" y="150.895159" style="stroke: #000000; stroke-width: 0.8"/>
      </g>
     </g>
     <g id="text_9">
      <!-- 10000 -->
      <g transform="translate(-5.1125 154.694378) scale(0.1 -0.1)">
       <use xlink:href="#DejaVuSans-31"/>
       <use xlink:href="#DejaVuSans-30" transform="translate(63.623047 0)"/>
       <use xlink:href="#DejaVuSans-30" transform="translate(127.246094 0)"/>
       <use xlink:href="#DejaVuSans-30" transform="translate(190.869141 0)"/>
       <use xlink:href="#DejaVuSans-30" transform="translate(254.492188 0)"/>
      </g>
     </g>
    </g>
    <g id="ytick_3">
     <g id="line2d_9">
      <g>
       <use xlink:href="#m3a313f9998" x="33.7" y="121.103045" style="stroke: #000000; stroke-width: 0.8"/>
      </g>
     </g>
     <g id="text_10">
      <!-- 20000 -->
      <g transform="translate(-5.1125 124.902264) scale(0.1 -0.1)">
       <use xlink:href="#DejaVuSans-32"/>
       <use xlink:href="#DejaVuSans-30" transform="translate(63.623047 0)"/>
       <use xlink:href="#DejaVuSans-30" transform="translate(127.246094 0)"/>
       <use xlink:href="#DejaVuSans-30" transform="translate(190.869141 0)"/>
       <use xlink:href="#DejaVuSans-30" transform="translate(254.492188 0)"/>
      </g>
     </g>
    </g>
    <g id="ytick_4">
     <g id="line2d_10">
      <g>
       <use xlink:href="#m3a313f9998" x="33.7" y="91.310931" style="stroke: #000000; stroke-width: 0.8"/>
      </g>
     </g>
     <g id="text_11">
      <!-- 30000 -->
      <g transform="translate(-5.1125 95.11015) scale(0.1 -0.1)">
       <defs>
        <path id="DejaVuSans-33" d="M 2597 2516 
Q 3050 2419 3304 2112 
Q 3559 1806 3559 1356 
Q 3559 666 3084 287 
Q 2609 -91 1734 -91 
Q 1441 -91 1130 -33 
Q 819 25 488 141 
L 488 750 
Q 750 597 1062 519 
Q 1375 441 1716 441 
Q 2309 441 2620 675 
Q 2931 909 2931 1356 
Q 2931 1769 2642 2001 
Q 2353 2234 1838 2234 
L 1294 2234 
L 1294 2753 
L 1863 2753 
Q 2328 2753 2575 2939 
Q 2822 3125 2822 3475 
Q 2822 3834 2567 4026 
Q 2313 4219 1838 4219 
Q 1578 4219 1281 4162 
Q 984 4106 628 3988 
L 628 4550 
Q 988 4650 1302 4700 
Q 1616 4750 1894 4750 
Q 2613 4750 3031 4423 
Q 3450 4097 3450 3541 
Q 3450 3153 3228 2886 
Q 3006 2619 2597 2516 
z
" transform="scale(0.015625)"/>
       </defs>
       <use xlink:href="#DejaVuSans-33"/>
       <use xlink:href="#DejaVuSans-30" transform="translate(63.623047 0)"/>
       <use xlink:href="#DejaVuSans-30" transform="translate(127.246094 0)"/>
       <use xlink:href="#DejaVuSans-30" transform="translate(190.869141 0)"/>
       <use xlink:href="#DejaVuSans-30" transform="translate(254.492188 0)"/>
      </g>
     </g>
    </g>
    <g id="ytick_5">
     <g id="line2d_11">
      <g>
       <use xlink:href="#m3a313f9998" x="33.7" y="61.518817" style="stroke: #000000; stroke-width: 0.8"/>
      </g>
     </g>
     <g id="text_12">
      <!-- 40000 -->
      <g transform="translate(-5.1125 65.318036) scale(0.1 -0.1)">
       <use xlink:href="#DejaVuSans-34"/>
       <use xlink:href="#DejaVuSans-30" transform="translate(63.623047 0)"/>
       <use xlink:href="#DejaVuSans-30" transform="translate(127.246094 0)"/>
       <use xlink:href="#DejaVuSans-30" transform="translate(190.869141 0)"/>
       <use xlink:href="#DejaVuSans-30" transform="translate(254.492188 0)"/>
      </g>
     </g>
    </g>
    <g id="ytick_6">
     <g id="line2d_12">
      <g>
       <use xlink:href="#m3a313f9998" x="33.7" y="31.726703" style="stroke: #000000; stroke-width: 0.8"/>
      </g>
     </g>
     <g id="text_13">
      <!-- 50000 -->
      <g transform="translate(-5.1125 35.525922) scale(0.1 -0.1)">
       <defs>
        <path id="DejaVuSans-35" d="M 691 4666 
L 3169 4666 
L 3169 4134 
L 1269 4134 
L 1269 2991 
Q 1406 3038 1543 3061 
Q 1681 3084 1819 3084 
Q 2600 3084 3056 2656 
Q 3513 2228 3513 1497 
Q 3513 744 3044 326 
Q 2575 -91 1722 -91 
Q 1428 -91 1123 -41 
Q 819 9 494 109 
L 494 744 
Q 775 591 1075 516 
Q 1375 441 1709 441 
Q 2250 441 2565 725 
Q 2881 1009 2881 1497 
Q 2881 1984 2565 2268 
Q 2250 2553 1709 2553 
Q 1456 2553 1204 2497 
Q 953 2441 691 2322 
L 691 4666 
z
" transform="scale(0.015625)"/>
       </defs>
       <use xlink:href="#DejaVuSans-35"/>
       <use xlink:href="#DejaVuSans-30" transform="translate(63.623047 0)"/>
       <use xlink:href="#DejaVuSans-30" transform="translate(127.246094 0)"/>
       <use xlink:href="#DejaVuSans-30" transform="translate(190.869141 0)"/>
       <use xlink:href="#DejaVuSans-30" transform="translate(254.492188 0)"/>
      </g>
     </g>
    </g>
    <g id="text_14">
     <!-- rdf -->
     <g transform="translate(-11.192187 108.462344) rotate(-90) scale(0.1 -0.1)">
      <defs>
       <path id="DejaVuSans-72" d="M 2631 2963 
Q 2534 3019 2420 3045 
Q 2306 3072 2169 3072 
Q 1681 3072 1420 2755 
Q 1159 2438 1159 1844 
L 1159 0 
L 581 0 
L 581 3500 
L 1159 3500 
L 1159 2956 
Q 1341 3275 1631 3429 
Q 1922 3584 2338 3584 
Q 2397 3584 2469 3576 
Q 2541 3569 2628 3553 
L 2631 2963 
z
" transform="scale(0.015625)"/>
       <path id="DejaVuSans-64" d="M 2906 2969 
L 2906 4863 
L 3481 4863 
L 3481 0 
L 2906 0 
L 2906 525 
Q 2725 213 2448 61 
Q 2172 -91 1784 -91 
Q 1150 -91 751 415 
Q 353 922 353 1747 
Q 353 2572 751 3078 
Q 1150 3584 1784 3584 
Q 2172 3584 2448 3432 
Q 2725 3281 2906 2969 
z
M 947 1747 
Q 947 1113 1208 752 
Q 1469 391 1925 391 
Q 2381 391 2643 752 
Q 2906 1113 2906 1747 
Q 2906 2381 2643 2742 
Q 2381 3103 1925 3103 
Q 1469 3103 1208 2742 
Q 947 2381 947 1747 
z
" transform="scale(0.015625)"/>
       <path id="DejaVuSans-66" d="M 2375 4863 
L 2375 4384 
L 1825 4384 
Q 1516 4384 1395 4259 
Q 1275 4134 1275 3809 
L 1275 3500 
L 2222 3500 
L 2222 3053 
L 1275 3053 
L 1275 0 
L 697 0 
L 697 3053 
L 147 3053 
L 147 3500 
L 697 3500 
L 697 3744 
Q 697 4328 969 4595 
Q 1241 4863 1831 4863 
L 2375 4863 
z
" transform="scale(0.015625)"/>
      </defs>
      <use xlink:href="#DejaVuSans-72"/>
      <use xlink:href="#DejaVuSans-64" transform="translate(39.363281 0)"/>
      <use xlink:href="#DejaVuSans-66" transform="translate(102.839844 0)"/>
     </g>
    </g>
   </g>
   <g id="line2d_13">
    <path d="M 44.406818 180.687273 
L 91.634888 180.687273 
L 92.171571 179.792441 
L 92.708254 179.812108 
L 93.244936 179.488676 
L 93.781619 179.514451 
L 94.318301 178.88348 
L 94.854984 180.366214 
L 95.391667 174.085513 
L 95.928349 22.432727 
L 96.465032 98.047434 
L 97.001715 139.167813 
L 97.538397 162.297533 
L 98.07508 167.91323 
L 98.611762 171.920769 
L 99.148445 171.135842 
L 99.685128 172.925409 
L 100.22181 172.548154 
L 100.758493 174.118518 
L 101.295175 173.230166 
L 101.831858 175.601176 
L 102.368541 176.91224 
L 102.905223 176.741754 
L 103.441906 177.165056 
L 103.978589 178.611685 
L 104.515271 179.328037 
L 105.051954 178.795468 
L 105.588636 178.719026 
L 106.125319 179.075342 
L 106.662002 178.891647 
L 107.198684 178.506737 
L 107.735367 177.828754 
L 108.272049 178.277951 
L 108.808732 175.849549 
L 109.345415 176.705743 
L 109.882097 176.101763 
L 110.41878 176.457693 
L 110.955463 177.635203 
L 111.492145 178.138742 
L 112.028828 177.730944 
L 112.56551 178.658999 
L 113.102193 175.304515 
L 113.638876 173.07928 
L 114.712241 169.909965 
L 115.248923 168.275571 
L 115.785606 171.115257 
L 116.322289 171.098548 
L 116.858971 171.551881 
L 117.395654 170.069501 
L 117.932337 170.147537 
L 118.469019 170.822353 
L 119.005702 172.289275 
L 119.542384 173.35247 
L 120.079067 173.240979 
L 120.61575 176.663204 
L 121.152432 177.276028 
L 122.225797 178.7235 
L 122.76248 178.750217 
L 123.299163 179.501208 
L 123.835845 179.062072 
L 124.372528 178.891316 
L 124.909211 179.358145 
L 125.445893 179.18826 
L 125.982576 179.207853 
L 126.519258 178.010227 
L 127.055941 178.224941 
L 127.592624 177.841495 
L 128.129306 175.360885 
L 128.665989 175.54388 
L 129.202671 173.040701 
L 129.739354 174.488706 
L 130.276037 174.009197 
L 131.349402 173.358237 
L 131.886085 175.753583 
L 132.422767 176.290171 
L 132.95945 177.703951 
L 134.032815 178.541228 
L 134.569498 178.465635 
L 135.10618 179.040651 
L 136.179545 177.567867 
L 136.716228 175.869546 
L 137.252911 173.210361 
L 137.789593 173.013371 
L 138.326276 172.169687 
L 138.862959 170.931384 
L 139.399641 170.358492 
L 140.473006 168.006771 
L 141.009689 167.92688 
L 141.546372 170.460604 
L 142.083054 171.820569 
L 143.156419 175.338779 
L 143.693102 175.02134 
L 144.766467 175.671667 
L 145.30315 174.837138 
L 145.839833 173.381727 
L 146.376515 170.96954 
L 146.913198 167.435236 
L 147.44988 165.599548 
L 148.523246 170.720883 
L 149.059928 171.272685 
L 149.596611 171.516784 
L 150.133293 171.352153 
L 150.669976 171.77341 
L 151.206659 173.123225 
L 151.743341 175.124177 
L 152.280024 175.07333 
L 152.816707 176.317283 
L 153.353389 175.910092 
L 153.890072 175.956706 
L 154.426754 176.308154 
L 154.963437 176.081503 
L 155.50012 176.791721 
L 156.573485 177.094381 
L 157.110167 177.38726 
L 157.64685 177.867049 
L 158.183533 176.591923 
L 158.720215 176.535845 
L 159.256898 177.104142 
L 161.403628 178.615382 
L 162.476994 178.977127 
L 163.013676 179.723027 
L 163.550359 178.949826 
L 164.087041 179.137533 
L 164.623724 177.729114 
L 165.160407 176.71219 
L 165.697089 176.411876 
L 166.233772 174.84285 
L 166.770455 173.878031 
L 167.307137 173.556184 
L 167.84382 173.806783 
L 168.380502 174.481351 
L 168.917185 174.826333 
L 169.453868 175.612647 
L 169.99055 175.525468 
L 170.527233 174.974707 
L 171.063915 175.202309 
L 171.600598 174.282631 
L 172.673963 172.114849 
L 173.210646 172.309907 
L 173.747329 171.985862 
L 174.284011 170.741081 
L 174.820694 172.104055 
L 175.357376 172.677716 
L 175.894059 173.575323 
L 176.430742 174.222748 
L 176.967424 174.555704 
L 177.504107 175.742483 
L 178.040789 175.505691 
L 178.577472 175.729745 
L 179.114155 175.111818 
L 179.650837 175.83044 
L 180.18752 175.890994 
L 180.724203 176.172092 
L 181.260885 176.009719 
L 181.797568 176.43833 
L 182.33425 177.033401 
L 182.870933 177.833943 
L 183.407616 177.621726 
L 183.944298 178.701487 
L 184.480981 178.905319 
L 185.017663 178.669222 
L 185.554346 178.746451 
L 186.091029 178.228315 
L 187.164394 176.630119 
L 187.701077 176.219627 
L 188.237759 175.994327 
L 188.774442 176.009352 
L 189.311124 176.318172 
L 190.921172 173.519597 
L 191.457855 173.685862 
L 191.994537 174.01994 
L 192.53122 173.880575 
L 193.067903 173.29657 
L 193.604585 174.440056 
L 194.141268 174.594768 
L 194.677951 175.038981 
L 195.214633 175.205697 
L 195.751316 175.495903 
L 196.287998 175.996209 
L 196.824681 176.046837 
L 197.361364 175.235074 
L 198.434729 175.55351 
L 198.971411 175.709588 
L 200.044777 174.894563 
L 201.118142 175.610226 
L 201.654825 176.493492 
L 202.191507 176.273989 
L 202.72819 177.173945 
L 203.264872 177.588959 
L 203.801555 177.60975 
L 204.338238 177.308551 
L 205.948285 176.996956 
L 207.021651 176.205015 
L 207.558333 176.419948 
L 208.095016 176.186708 
L 208.631699 175.498811 
L 209.168381 175.441529 
L 209.705064 174.918163 
L 210.778429 175.319353 
L 211.851794 174.066667 
L 212.388477 174.721474 
L 212.925159 175.150653 
L 213.461842 174.998476 
L 213.998525 175.535259 
L 214.535207 175.709867 
L 215.07189 175.048625 
L 215.608573 175.406875 
L 216.681938 175.513976 
L 218.291986 176.56218 
L 218.828668 176.69572 
L 219.365351 177.123587 
L 219.902033 176.944823 
L 220.438716 176.927714 
L 221.512081 175.949356 
L 222.048764 176.017073 
L 224.195494 177.070238 
L 224.732177 177.154991 
L 225.805542 176.333343 
L 226.878907 176.02575 
L 227.41559 176.175948 
L 227.952273 176.703293 
L 228.488955 177.41898 
L 229.025638 177.631203 
L 229.562321 178.225326 
L 230.635686 178.253576 
L 231.172368 178.562628 
L 231.709051 178.140513 
L 232.782416 177.902537 
L 233.319099 177.722194 
L 234.392464 177.744156 
L 234.929147 177.998892 
L 235.465829 177.878586 
L 236.002512 178.242005 
L 236.539195 178.032545 
L 237.075877 178.4577 
L 238.149242 178.186118 
L 238.685925 177.698079 
L 239.222608 177.616853 
L 240.295973 176.24456 
L 240.832656 175.062782 
L 241.369338 174.965951 
L 241.906021 174.173516 
L 242.442703 174.061744 
L 242.979386 174.128778 
L 243.516069 174.382159 
L 244.052751 174.901568 
L 244.589434 175.867665 
L 245.126116 176.159111 
L 245.662799 176.000205 
L 246.199482 176.136304 
L 246.736164 176.029584 
L 247.80953 176.77534 
L 248.346212 176.498847 
L 249.419577 177.306801 
L 252.10299 177.154788 
L 252.639673 177.258427 
L 253.176356 176.794092 
L 253.713038 177.368672 
L 254.786404 176.602136 
L 255.323086 176.25255 
L 255.859769 175.55651 
L 256.396451 175.811547 
L 256.933134 175.51694 
L 257.469817 174.83522 
L 258.543182 175.720068 
L 258.543182 175.720068 
" clip-path="url(#pa941f8db52)" style="fill: none; stroke: #000000; stroke-opacity: 0.5; stroke-width: 0.5; stroke-linecap: square"/>
   </g>
   <g id="line2d_14">
    <path d="M 44.406818 180.687273 
L 91.634888 180.687273 
L 92.171571 177.94685 
L 92.708254 178.007079 
L 93.244936 177.016569 
L 93.781619 177.095506 
L 94.318301 175.163155 
L 94.854984 179.704032 
L 95.391667 178.761759 
L 96.465032 173.297943 
L 97.001715 173.899727 
L 97.538397 170.931297 
L 98.07508 171.559154 
L 98.611762 171.311983 
L 99.148445 159.37564 
L 99.685128 162.65432 
L 100.22181 157.771385 
L 100.758493 160.964906 
L 101.295175 160.559402 
L 101.831858 166.630725 
L 102.368541 170.61798 
L 102.905223 169.336431 
L 103.441906 170.260043 
L 103.978589 175.03706 
L 104.515271 177.218388 
L 105.588636 175.999017 
L 106.125319 175.750735 
L 106.662002 175.83512 
L 107.735367 172.24571 
L 108.272049 173.308723 
L 108.808732 166.1741 
L 109.345415 168.791235 
L 109.882097 167.229279 
L 110.41878 168.309876 
L 110.955463 171.90679 
L 111.492145 174.276125 
L 112.028828 175.474503 
L 112.56551 178.256651 
L 113.102193 177.496686 
L 113.638876 178.069353 
L 114.175558 176.820352 
L 114.712241 175.863391 
L 115.248923 175.185704 
L 115.785606 173.78979 
L 116.858971 166.818263 
L 117.395654 160.187469 
L 117.932337 156.304652 
L 118.469019 156.65554 
L 119.005702 157.901257 
L 119.542384 162.005309 
L 120.079067 162.049162 
L 120.61575 170.525616 
L 121.152432 174.077986 
L 121.689115 175.64099 
L 122.225797 176.747031 
L 122.76248 178.232555 
L 123.299163 179.274702 
L 123.835845 178.895489 
L 124.372528 178.919377 
L 124.909211 180.493442 
L 125.445893 179.539591 
L 125.982576 180.120932 
L 126.519258 179.941959 
L 128.129306 180.508019 
L 128.665989 180.333303 
L 129.202671 179.988239 
L 129.739354 179.996978 
L 130.276037 180.346413 
L 130.812719 179.50899 
L 131.349402 179.689709 
L 131.886085 179.537642 
L 132.422767 179.713818 
L 132.95945 179.404968 
L 133.496132 178.786853 
L 134.032815 178.496518 
L 134.569498 176.821498 
L 135.10618 177.631042 
L 135.642863 176.609611 
L 136.179545 174.268731 
L 136.716228 171.096985 
L 137.252911 161.581261 
L 137.789593 160.934624 
L 138.326276 160.018743 
L 138.862959 158.842937 
L 139.399641 158.53101 
L 139.936324 156.298255 
L 141.009689 158.722344 
L 142.083054 170.010102 
L 142.619737 172.733852 
L 143.156419 174.367522 
L 143.693102 175.201003 
L 144.766467 177.315501 
L 145.30315 179.451684 
L 145.839833 178.24211 
L 146.376515 176.090113 
L 146.913198 171.468995 
L 147.44988 168.36563 
L 147.986563 171.072284 
L 149.059928 178.160149 
L 149.596611 178.64062 
L 150.133293 178.323631 
L 150.669976 179.461616 
L 151.206659 179.142946 
L 151.743341 180.46885 
L 152.816707 180.151949 
L 153.353389 180.369227 
L 155.50012 180.381372 
L 156.036802 180.182315 
L 156.573485 180.387185 
L 157.64685 180.294685 
L 158.183533 180.201148 
L 158.720215 179.916742 
L 159.256898 180.305591 
L 159.793581 180.309125 
L 160.866946 179.944822 
L 161.403628 180.04356 
L 162.476994 179.784286 
L 163.013676 180.150363 
L 163.550359 179.445722 
L 164.087041 179.632589 
L 164.623724 179.206415 
L 165.160407 178.960508 
L 165.697089 179.146872 
L 166.770455 177.576094 
L 167.84382 173.746072 
L 168.380502 173.805921 
L 168.917185 170.778702 
L 169.453868 172.715443 
L 169.99055 171.665519 
L 170.527233 170.871222 
L 171.600598 168.545137 
L 172.137281 166.79435 
L 172.673963 164.307817 
L 173.210646 164.216019 
L 173.747329 163.524106 
L 174.284011 161.27635 
L 175.357376 166.292851 
L 176.430742 171.294246 
L 176.967424 171.943349 
L 177.504107 174.430836 
L 178.040789 175.115633 
L 178.577472 176.139541 
L 179.114155 174.926252 
L 179.650837 176.004701 
L 180.18752 177.407956 
L 180.724203 177.365903 
L 181.260885 177.526355 
L 181.797568 177.350763 
L 182.33425 178.237395 
L 182.870933 178.322012 
L 183.407616 178.861782 
L 183.944298 179.134557 
L 184.480981 179.274812 
L 185.017663 178.457274 
L 185.554346 178.15801 
L 186.091029 177.298522 
L 186.627711 175.642363 
L 187.164394 174.938376 
L 187.701077 175.226677 
L 188.237759 174.231986 
L 189.311124 176.487156 
L 189.847807 176.220241 
L 190.38449 177.494574 
L 190.921172 177.224413 
L 191.457855 178.065311 
L 191.994537 178.547068 
L 192.53122 177.988266 
L 193.067903 176.810411 
L 193.604585 176.102361 
L 194.141268 176.640895 
L 194.677951 175.218906 
L 195.214633 174.814478 
L 195.751316 175.571124 
L 196.287998 176.09877 
L 196.824681 174.937648 
L 197.361364 175.193302 
L 197.898046 174.696712 
L 198.434729 174.366544 
L 198.971411 172.564087 
L 199.508094 172.672517 
L 200.044777 172.363436 
L 200.581459 173.45378 
L 201.118142 173.708427 
L 201.654825 175.030036 
L 202.191507 175.068393 
L 202.72819 175.759993 
L 203.264872 175.24382 
L 203.801555 175.181137 
L 204.87492 174.030813 
L 205.411603 174.804331 
L 207.021651 174.39577 
L 207.558333 174.673785 
L 208.095016 175.653898 
L 208.631699 174.191203 
L 209.168381 175.997752 
L 209.705064 175.889722 
L 210.241746 176.24149 
L 210.778429 177.180838 
L 211.315112 176.434132 
L 211.851794 175.921831 
L 212.388477 176.086204 
L 212.925159 177.313848 
L 213.461842 177.643946 
L 213.998525 178.320566 
L 214.535207 178.683867 
L 215.07189 178.43676 
L 215.608573 179.052948 
L 216.145255 179.405053 
L 216.681938 179.285593 
L 217.21862 179.631967 
L 218.291986 179.519858 
L 219.365351 178.875172 
L 219.902033 178.272223 
L 220.438716 177.920742 
L 220.975399 176.96702 
L 221.512081 175.703272 
L 222.048764 175.293877 
L 222.585447 175.802776 
L 223.122129 175.634648 
L 224.195494 177.020885 
L 224.732177 176.887537 
L 226.342225 175.468856 
L 227.41559 175.718055 
L 227.952273 176.270982 
L 228.488955 177.040818 
L 229.025638 177.172943 
L 229.562321 178.333411 
L 230.099003 178.273829 
L 231.172368 178.409919 
L 233.319099 175.210674 
L 233.855781 175.487552 
L 234.392464 175.971013 
L 234.929147 177.178623 
L 235.465829 177.578259 
L 236.002512 178.248314 
L 236.539195 178.193585 
L 237.075877 178.716985 
L 237.61256 178.08605 
L 238.149242 178.201202 
L 238.685925 177.145787 
L 239.222608 176.633613 
L 239.75929 175.796644 
L 240.295973 175.757631 
L 240.832656 174.80397 
L 241.369338 174.835921 
L 241.906021 173.574398 
L 242.442703 172.712486 
L 242.979386 173.011327 
L 243.516069 173.752426 
L 244.052751 174.011112 
L 244.589434 175.022435 
L 245.126116 175.177838 
L 245.662799 174.989206 
L 246.199482 175.669829 
L 246.736164 175.542312 
L 247.272847 175.814662 
L 247.80953 176.968199 
L 248.346212 176.8058 
L 248.882895 177.79139 
L 249.419577 178.016577 
L 249.95626 177.373752 
L 250.492943 177.242482 
L 251.029625 177.496686 
L 251.566308 176.807801 
L 252.10299 177.061702 
L 252.639673 176.52766 
L 253.176356 176.664752 
L 253.713038 177.203564 
L 254.249721 177.937447 
L 254.786404 176.9825 
L 255.323086 177.228142 
L 255.859769 176.991764 
L 256.396451 176.477148 
L 257.469817 176.185955 
L 258.006499 175.517366 
L 258.543182 175.790803 
L 258.543182 175.790803 
" clip-path="url(#pa941f8db52)" style="fill: none; stroke: #0000ff; stroke-opacity: 0.5; stroke-linecap: square"/>
   </g>
   <g id="line2d_15">
    <path d="M 44.406818 180.687273 
L 109.882097 180.687273 
L 110.955463 179.680192 
L 111.492145 178.705083 
L 112.028828 173.85885 
L 112.56551 173.965554 
L 113.638876 144.850871 
L 114.712241 131.489321 
L 115.248923 124.671302 
L 115.785606 141.273092 
L 116.858971 155.606153 
L 117.932337 167.063969 
L 118.469019 170.515113 
L 119.005702 176.275459 
L 119.542384 174.361106 
L 120.079067 173.670572 
L 120.61575 177.996716 
L 121.152432 175.001866 
L 121.689115 176.949287 
L 122.225797 177.369175 
L 122.76248 175.596007 
L 123.299163 177.817289 
L 123.835845 176.440081 
L 124.909211 175.173855 
L 125.982576 175.317525 
L 126.519258 171.081007 
L 127.055941 172.839842 
L 127.592624 170.03537 
L 128.129306 162.841597 
L 128.665989 164.011378 
L 129.202671 160.492969 
L 129.739354 169.949351 
L 130.276037 171.59767 
L 130.812719 173.804606 
L 131.349402 173.59349 
L 131.886085 177.475607 
L 132.422767 177.514531 
L 132.95945 178.977533 
L 133.496132 179.561098 
L 134.032815 178.739936 
L 134.569498 179.862574 
L 135.10618 180.143943 
L 135.642863 179.344833 
L 136.179545 179.891175 
L 136.716228 179.37578 
L 137.252911 178.353714 
L 137.789593 180.174633 
L 138.326276 179.927051 
L 139.399641 179.944086 
L 139.936324 179.707425 
L 140.473006 179.718314 
L 141.009689 180.208147 
L 142.083054 179.749908 
L 143.156419 179.770121 
L 143.693102 178.872693 
L 144.229785 178.8921 
L 144.766467 178.245167 
L 145.30315 178.490671 
L 145.839833 173.732144 
L 146.913198 149.61383 
L 147.44988 144.670166 
L 148.523246 163.356617 
L 149.596611 175.835948 
L 150.133293 175.084567 
L 150.669976 178.310243 
L 151.206659 178.334013 
L 151.743341 179.522351 
L 152.816707 179.925923 
L 153.353389 179.744914 
L 153.890072 180.50064 
L 154.963437 180.504237 
L 155.50012 179.418351 
L 156.036802 179.789571 
L 156.573485 180.509443 
L 157.110167 180.334984 
L 157.64685 180.687273 
L 158.183533 180.687273 
L 158.720215 180.173586 
L 159.256898 180.687273 
L 159.793581 180.351142 
L 160.330263 180.520756 
L 160.866946 180.357295 
L 161.940311 180.36328 
L 162.476994 180.20568 
L 163.013676 180.21002 
L 163.550359 180.056644 
L 164.087041 180.218524 
L 164.623724 179.912968 
L 165.160407 179.305861 
L 165.697089 180.230858 
L 166.233772 180.084057 
L 167.307137 180.094527 
L 167.84382 179.805851 
L 168.380502 179.959087 
L 168.917185 179.676563 
L 169.99055 176.571154 
L 170.527233 174.072874 
L 171.063915 173.849579 
L 171.600598 171.416356 
L 172.137281 167.926368 
L 172.673963 166.127759 
L 173.747329 167.304689 
L 174.284011 164.62764 
L 174.820694 166.602198 
L 175.357376 167.108862 
L 175.894059 168.125736 
L 176.430742 170.282691 
L 176.967424 172.914897 
L 178.040789 175.797395 
L 178.577472 174.716918 
L 179.650837 172.974801 
L 180.18752 174.007185 
L 180.724203 174.059597 
L 181.797568 175.467489 
L 182.33425 175.978799 
L 182.870933 177.066381 
L 183.407616 176.051106 
L 183.944298 178.616986 
L 184.480981 177.833818 
L 186.091029 179.571635 
L 186.627711 179.026397 
L 187.164394 179.148739 
L 187.701077 178.614837 
L 188.237759 179.063301 
L 188.774442 178.430554 
L 189.311124 178.127202 
L 189.847807 176.981292 
L 190.38449 175.221583 
L 190.921172 172.548576 
L 191.457855 169.293069 
L 191.994537 168.45019 
L 192.53122 162.515244 
L 193.067903 161.024239 
L 193.604585 165.089769 
L 194.141268 162.503553 
L 194.677951 165.311368 
L 195.751316 167.386509 
L 196.824681 175.962215 
L 197.361364 175.707989 
L 197.898046 175.93286 
L 198.434729 178.32659 
L 198.971411 178.530468 
L 199.508094 179.756001 
L 200.044777 178.745044 
L 200.581459 179.585027 
L 201.118142 179.045192 
L 201.654825 179.599996 
L 202.191507 179.337392 
L 202.72819 180.15097 
L 203.801555 180.246341 
L 204.338238 179.986501 
L 204.87492 179.991172 
L 205.411603 179.65006 
L 206.484968 180.090209 
L 207.558333 179.424598 
L 208.095016 179.265593 
L 208.631699 177.696277 
L 209.168381 177.220432 
L 209.705064 175.110633 
L 210.241746 174.983635 
L 210.778429 174.615526 
L 211.315112 173.447885 
L 212.388477 176.398899 
L 212.925159 177.767584 
L 213.461842 177.786067 
L 213.998525 178.66145 
L 214.535207 178.364483 
L 215.07189 178.379055 
L 215.608573 177.628887 
L 216.145255 176.508185 
L 216.681938 174.495343 
L 217.21862 174.758802 
L 217.755303 174.497076 
L 218.291986 176.165856 
L 218.828668 176.340916 
L 219.365351 178.05149 
L 219.902033 178.504177 
L 220.438716 179.240721 
L 221.512081 179.186714 
L 222.048764 179.621911 
L 222.585447 179.487107 
L 223.122129 179.494292 
L 223.658812 179.850203 
L 224.195494 179.439141 
L 224.732177 178.757249 
L 226.342225 172.832139 
L 226.878907 171.599159 
L 227.41559 171.585406 
L 227.952273 171.704987 
L 228.488955 173.807794 
L 229.025638 174.965697 
L 229.562321 176.764171 
L 230.635686 178.554325 
L 231.172368 178.823618 
L 231.709051 178.70646 
L 232.245734 179.670749 
L 232.782416 179.234311 
L 233.319099 179.933504 
L 233.855781 179.188254 
L 235.465829 180.38021 
L 236.002512 179.771232 
L 236.539195 180.019253 
L 237.61256 180.146759 
L 238.149242 179.253863 
L 238.685925 179.142977 
L 239.222608 178.915181 
L 239.75929 178.337422 
L 240.832656 172.610443 
L 241.369338 171.787439 
L 241.906021 170.341275 
L 242.442703 170.968897 
L 242.979386 171.191844 
L 243.516069 171.978068 
L 244.589434 175.372117 
L 245.126116 175.789998 
L 245.662799 175.982131 
L 246.736164 173.841018 
L 247.80953 174.725916 
L 248.346212 174.272061 
L 248.882895 176.182567 
L 249.419577 176.419495 
L 249.95626 177.715387 
L 250.492943 178.258762 
L 251.029625 178.166316 
L 251.566308 178.649571 
L 252.10299 179.387785 
L 252.639673 179.187614 
L 253.713038 177.616236 
L 254.249721 175.747771 
L 254.786404 174.455656 
L 255.859769 169.654034 
L 256.396451 171.156798 
L 256.933134 169.765034 
L 257.469817 167.794612 
L 258.006499 171.545478 
L 258.543182 172.764896 
L 258.543182 172.764896 
" clip-path="url(#pa941f8db52)" style="fill: none; stroke: #ff0000; stroke-opacity: 0.5; stroke-linecap: square"/>
   </g>
   <g id="patch_3">
    <path d="M 33.7 188.6 
L 33.7 14.52 
" style="fill: none; stroke: #000000; stroke-width: 0.8; stroke-linejoin: miter; stroke-linecap: square"/>
   </g>
   <g id="patch_4">
    <path d="M 269.25 188.6 
L 269.25 14.52 
" style="fill: none; stroke: #000000; stroke-width: 0.8; stroke-linejoin: miter; stroke-linecap: square"/>
   </g>
   <g id="patch_5">
    <path d="M 33.7 188.6 
L 269.25 188.6 
" style="fill: none; stroke: #000000; stroke-width: 0.8; stroke-linejoin: miter; stroke-linecap: square"/>
   </g>
   <g id="patch_6">
    <path d="M 33.7 14.52 
L 269.25 14.52 
" style="fill: none; stroke: #000000; stroke-width: 0.8; stroke-linejoin: miter; stroke-linecap: square"/>
   </g>
   <g id="legend_1">
    <g id="patch_7">
     <path d="M 213.917188 66.554375 
L 262.25 66.554375 
Q 264.25 66.554375 264.25 64.554375 
L 264.25 21.52 
Q 264.25 19.52 262.25 19.52 
L 213.917188 19.52 
Q 211.917188 19.52 211.917188 21.52 
L 211.917188 64.554375 
Q 211.917188 66.554375 213.917188 66.554375 
z
" style="fill: #ffffff; opacity: 0.8; stroke: #cccccc; stroke-linejoin: miter"/>
    </g>
    <g id="line2d_16">
     <path d="M 215.917188 27.618438 
L 225.917188 27.618438 
L 235.917188 27.618438 
" style="fill: none; stroke: #000000; stroke-opacity: 0.5; stroke-width: 0.5; stroke-linecap: square"/>
    </g>
    <g id="text_15">
     <!-- all -->
     <g transform="translate(243.917188 31.118438) scale(0.1 -0.1)">
      <defs>
       <path id="DejaVuSans-61" d="M 2194 1759 
Q 1497 1759 1228 1600 
Q 959 1441 959 1056 
Q 959 750 1161 570 
Q 1363 391 1709 391 
Q 2188 391 2477 730 
Q 2766 1069 2766 1631 
L 2766 1759 
L 2194 1759 
z
M 3341 1997 
L 3341 0 
L 2766 0 
L 2766 531 
Q 2569 213 2275 61 
Q 1981 -91 1556 -91 
Q 1019 -91 701 211 
Q 384 513 384 1019 
Q 384 1609 779 1909 
Q 1175 2209 1959 2209 
L 2766 2209 
L 2766 2266 
Q 2766 2663 2505 2880 
Q 2244 3097 1772 3097 
Q 1472 3097 1187 3025 
Q 903 2953 641 2809 
L 641 3341 
Q 956 3463 1253 3523 
Q 1550 3584 1831 3584 
Q 2591 3584 2966 3190 
Q 3341 2797 3341 1997 
z
" transform="scale(0.015625)"/>
       <path id="DejaVuSans-6c" d="M 603 4863 
L 1178 4863 
L 1178 0 
L 603 0 
L 603 4863 
z
" transform="scale(0.015625)"/>
      </defs>
      <use xlink:href="#DejaVuSans-61"/>
      <use xlink:href="#DejaVuSans-6c" transform="translate(61.279297 0)"/>
      <use xlink:href="#DejaVuSans-6c" transform="translate(89.0625 0)"/>
     </g>
    </g>
    <g id="line2d_17">
     <path d="M 215.917188 42.296563 
L 225.917188 42.296563 
L 235.917188 42.296563 
" style="fill: none; stroke: #0000ff; stroke-opacity: 0.5; stroke-linecap: square"/>
    </g>
    <g id="text_16">
     <!-- 1-1 -->
     <g transform="translate(243.917188 45.796563) scale(0.1 -0.1)">
      <defs>
       <path id="DejaVuSans-2d" d="M 313 2009 
L 1997 2009 
L 1997 1497 
L 313 1497 
L 313 2009 
z
" transform="scale(0.015625)"/>
      </defs>
      <use xlink:href="#DejaVuSans-31"/>
      <use xlink:href="#DejaVuSans-2d" transform="translate(63.623047 0)"/>
      <use xlink:href="#DejaVuSans-31" transform="translate(99.707031 0)"/>
     </g>
    </g>
    <g id="line2d_18">
     <path d="M 215.917188 56.974688 
L 225.917188 56.974688 
L 235.917188 56.974688 
" style="fill: none; stroke: #ff0000; stroke-opacity: 0.5; stroke-linecap: square"/>
    </g>
    <g id="text_17">
     <!-- 2-2 -->
     <g transform="translate(243.917188 60.474688) scale(0.1 -0.1)">
      <use xlink:href="#DejaVuSans-32"/>
      <use xlink:href="#DejaVuSans-2d" transform="translate(63.623047 0)"/>
      <use xlink:href="#DejaVuSans-32" transform="translate(99.707031 0)"/>
     </g>
    </g>
   </g>
  </g>
 </g>
 <defs>
  <clipPath id="pa941f8db52">
   <rect x="33.7" y="14.52" width="235.55" height="174.08"/>
  </clipPath>
 </defs>
</svg>
