<?xml version="1.0" encoding="utf-8" standalone="no"?>
<!DOCTYPE svg PUBLIC "-//W3C//DTD SVG 1.1//EN"
  "http://www.w3.org/Graphics/SVG/1.1/DTD/svg11.dtd">
<svg xmlns:xlink="http://www.w3.org/1999/xlink" width="288pt" height="216pt" viewBox="0 0 288 216" xmlns="http://www.w3.org/2000/svg" version="1.1">
 <metadata>
  <rdf:RDF xmlns:dc="http://purl.org/dc/elements/1.1/" xmlns:cc="http://creativecommons.org/ns#" xmlns:rdf="http://www.w3.org/1999/02/22-rdf-syntax-ns#">
   <cc:Work>
    <dc:type rdf:resource="http://purl.org/dc/dcmitype/StillImage"/>
    <dc:date>2025-09-18T00:13:46.667402</dc:date>
    <dc:format>image/svg+xml</dc:format>
    <dc:creator>
     <cc:Agent>
      <dc:title>Matplotlib v3.10.0, https://matplotlib.org/</dc:title>
     </cc:Agent>
    </dc:creator>
   </cc:Work>
  </rdf:RDF>
 </metadata>
 <defs>
  <style type="text/css">*{stroke-linejoin: round; stroke-linecap: butt}</style>
 </defs>
 <g id="figure_1">
  <g id="patch_1">
   <path d="M 0 216 
L 288 216 
L 288 0 
L 0 0 
z
" style="fill: #ffffff"/>
  </g>
  <g id="axes_1">
   <g id="patch_2">
    <path d="M 33.7 188.6 
L 269.25 188.6 
L 269.25 14.52 
L 33.7 14.52 
z
" style="fill: #ffffff"/>
   </g>
   <g id="matplotlib.axis_1">
    <g id="xtick_1">
     <g id="line2d_1">
      <defs>
       <path id="m7ac92ae5bc" d="M 0 0 
L 0 3.5 
" style="stroke: #000000; stroke-width: 0.8"/>
      </defs>
      <g>
       <use xlink:href="#m7ac92ae5bc" x="44.138477" y="188.6" style="stroke: #000000; stroke-width: 0.8"/>
      </g>
     </g>
     <g id="text_1">
      <!-- 0 -->
      <g transform="translate(40.957227 203.198437) scale(0.1 -0.1)">
       <defs>
        <path id="DejaVuSans-30" d="M 2034 4250 
Q 1547 4250 1301 3770 
Q 1056 3291 1056 2328 
Q 1056 1369 1301 889 
Q 1547 409 2034 409 
Q 2525 409 2770 889 
Q 3016 1369 3016 2328 
Q 3016 3291 2770 3770 
Q 2525 4250 2034 4250 
z
M 2034 4750 
Q 2819 4750 3233 4129 
Q 3647 3509 3647 2328 
Q 3647 1150 3233 529 
Q 2819 -91 2034 -91 
Q 1250 -91 836 529 
Q 422 1150 422 2328 
Q 422 3509 836 4129 
Q 1250 4750 2034 4750 
z
" transform="scale(0.015625)"/>
       </defs>
       <use xlink:href="#DejaVuSans-30"/>
      </g>
     </g>
    </g>
    <g id="xtick_2">
     <g id="line2d_2">
      <g>
       <use xlink:href="#m7ac92ae5bc" x="87.073086" y="188.6" style="stroke: #000000; stroke-width: 0.8"/>
      </g>
     </g>
     <g id="text_2">
      <!-- 200 -->
      <g transform="translate(77.529336 203.198437) scale(0.1 -0.1)">
       <defs>
        <path id="DejaVuSans-32" d="M 1228 531 
L 3431 531 
L 3431 0 
L 469 0 
L 469 531 
Q 828 903 1448 1529 
Q 2069 2156 2228 2338 
Q 2531 2678 2651 2914 
Q 2772 3150 2772 3378 
Q 2772 3750 2511 3984 
Q 2250 4219 1831 4219 
Q 1534 4219 1204 4116 
Q 875 4013 500 3803 
L 500 4441 
Q 881 4594 1212 4672 
Q 1544 4750 1819 4750 
Q 2544 4750 2975 4387 
Q 3406 4025 3406 3419 
Q 3406 3131 3298 2873 
Q 3191 2616 2906 2266 
Q 2828 2175 2409 1742 
Q 1991 1309 1228 531 
z
" transform="scale(0.015625)"/>
       </defs>
       <use xlink:href="#DejaVuSans-32"/>
       <use xlink:href="#DejaVuSans-30" transform="translate(63.623047 0)"/>
       <use xlink:href="#DejaVuSans-30" transform="translate(127.246094 0)"/>
      </g>
     </g>
    </g>
    <g id="xtick_3">
     <g id="line2d_3">
      <g>
       <use xlink:href="#m7ac92ae5bc" x="130.007695" y="188.6" style="stroke: #000000; stroke-width: 0.8"/>
      </g>
     </g>
     <g id="text_3">
      <!-- 400 -->
      <g transform="translate(120.463945 203.198437) scale(0.1 -0.1)">
       <defs>
        <path id="DejaVuSans-34" d="M 2419 4116 
L 825 1625 
L 2419 1625 
L 2419 4116 
z
M 2253 4666 
L 3047 4666 
L 3047 1625 
L 3713 1625 
L 3713 1100 
L 3047 1100 
L 3047 0 
L 2419 0 
L 2419 1100 
L 313 1100 
L 313 1709 
L 2253 4666 
z
" transform="scale(0.015625)"/>
       </defs>
       <use xlink:href="#DejaVuSans-34"/>
       <use xlink:href="#DejaVuSans-30" transform="translate(63.623047 0)"/>
       <use xlink:href="#DejaVuSans-30" transform="translate(127.246094 0)"/>
      </g>
     </g>
    </g>
    <g id="xtick_4">
     <g id="line2d_4">
      <g>
       <use xlink:href="#m7ac92ae5bc" x="172.942305" y="188.6" style="stroke: #000000; stroke-width: 0.8"/>
      </g>
     </g>
     <g id="text_4">
      <!-- 600 -->
      <g transform="translate(163.398555 203.198437) scale(0.1 -0.1)">
       <defs>
        <path id="DejaVuSans-36" d="M 2113 2584 
Q 1688 2584 1439 2293 
Q 1191 2003 1191 1497 
Q 1191 994 1439 701 
Q 1688 409 2113 409 
Q 2538 409 2786 701 
Q 3034 994 3034 1497 
Q 3034 2003 2786 2293 
Q 2538 2584 2113 2584 
z
M 3366 4563 
L 3366 3988 
Q 3128 4100 2886 4159 
Q 2644 4219 2406 4219 
Q 1781 4219 1451 3797 
Q 1122 3375 1075 2522 
Q 1259 2794 1537 2939 
Q 1816 3084 2150 3084 
Q 2853 3084 3261 2657 
Q 3669 2231 3669 1497 
Q 3669 778 3244 343 
Q 2819 -91 2113 -91 
Q 1303 -91 875 529 
Q 447 1150 447 2328 
Q 447 3434 972 4092 
Q 1497 4750 2381 4750 
Q 2619 4750 2861 4703 
Q 3103 4656 3366 4563 
z
" transform="scale(0.015625)"/>
       </defs>
       <use xlink:href="#DejaVuSans-36"/>
       <use xlink:href="#DejaVuSans-30" transform="translate(63.623047 0)"/>
       <use xlink:href="#DejaVuSans-30" transform="translate(127.246094 0)"/>
      </g>
     </g>
    </g>
    <g id="xtick_5">
     <g id="line2d_5">
      <g>
       <use xlink:href="#m7ac92ae5bc" x="215.876914" y="188.6" style="stroke: #000000; stroke-width: 0.8"/>
      </g>
     </g>
     <g id="text_5">
      <!-- 800 -->
      <g transform="translate(206.333164 203.198437) scale(0.1 -0.1)">
       <defs>
        <path id="DejaVuSans-38" d="M 2034 2216 
Q 1584 2216 1326 1975 
Q 1069 1734 1069 1313 
Q 1069 891 1326 650 
Q 1584 409 2034 409 
Q 2484 409 2743 651 
Q 3003 894 3003 1313 
Q 3003 1734 2745 1975 
Q 2488 2216 2034 2216 
z
M 1403 2484 
Q 997 2584 770 2862 
Q 544 3141 544 3541 
Q 544 4100 942 4425 
Q 1341 4750 2034 4750 
Q 2731 4750 3128 4425 
Q 3525 4100 3525 3541 
Q 3525 3141 3298 2862 
Q 3072 2584 2669 2484 
Q 3125 2378 3379 2068 
Q 3634 1759 3634 1313 
Q 3634 634 3220 271 
Q 2806 -91 2034 -91 
Q 1263 -91 848 271 
Q 434 634 434 1313 
Q 434 1759 690 2068 
Q 947 2378 1403 2484 
z
M 1172 3481 
Q 1172 3119 1398 2916 
Q 1625 2713 2034 2713 
Q 2441 2713 2670 2916 
Q 2900 3119 2900 3481 
Q 2900 3844 2670 4047 
Q 2441 4250 2034 4250 
Q 1625 4250 1398 4047 
Q 1172 3844 1172 3481 
z
" transform="scale(0.015625)"/>
       </defs>
       <use xlink:href="#DejaVuSans-38"/>
       <use xlink:href="#DejaVuSans-30" transform="translate(63.623047 0)"/>
       <use xlink:href="#DejaVuSans-30" transform="translate(127.246094 0)"/>
      </g>
     </g>
    </g>
    <g id="xtick_6">
     <g id="line2d_6">
      <g>
       <use xlink:href="#m7ac92ae5bc" x="258.811523" y="188.6" style="stroke: #000000; stroke-width: 0.8"/>
      </g>
     </g>
     <g id="text_6">
      <!-- 1000 -->
      <g transform="translate(246.086523 203.198437) scale(0.1 -0.1)">
       <defs>
        <path id="DejaVuSans-31" d="M 794 531 
L 1825 531 
L 1825 4091 
L 703 3866 
L 703 4441 
L 1819 4666 
L 2450 4666 
L 2450 531 
L 3481 531 
L 3481 0 
L 794 0 
L 794 531 
z
" transform="scale(0.015625)"/>
       </defs>
       <use xlink:href="#DejaVuSans-31"/>
       <use xlink:href="#DejaVuSans-30" transform="translate(63.623047 0)"/>
       <use xlink:href="#DejaVuSans-30" transform="translate(127.246094 0)"/>
       <use xlink:href="#DejaVuSans-30" transform="translate(190.869141 0)"/>
      </g>
     </g>
    </g>
    <g id="text_7">
     <!-- q (nm) -->
     <g transform="translate(134.771094 216.876563) scale(0.1 -0.1)">
      <defs>
       <path id="DejaVuSans-71" d="M 947 1747 
Q 947 1113 1208 752 
Q 1469 391 1925 391 
Q 2381 391 2643 752 
Q 2906 1113 2906 1747 
Q 2906 2381 2643 2742 
Q 2381 3103 1925 3103 
Q 1469 3103 1208 2742 
Q 947 2381 947 1747 
z
M 2906 525 
Q 2725 213 2448 61 
Q 2172 -91 1784 -91 
Q 1150 -91 751 415 
Q 353 922 353 1747 
Q 353 2572 751 3078 
Q 1150 3584 1784 3584 
Q 2172 3584 2448 3432 
Q 2725 3281 2906 2969 
L 2906 3500 
L 3481 3500 
L 3481 -1331 
L 2906 -1331 
L 2906 525 
z
" transform="scale(0.015625)"/>
       <path id="DejaVuSans-20" transform="scale(0.015625)"/>
       <path id="DejaVuSans-28" d="M 1984 4856 
Q 1566 4138 1362 3434 
Q 1159 2731 1159 2009 
Q 1159 1288 1364 580 
Q 1569 -128 1984 -844 
L 1484 -844 
Q 1016 -109 783 600 
Q 550 1309 550 2009 
Q 550 2706 781 3412 
Q 1013 4119 1484 4856 
L 1984 4856 
z
" transform="scale(0.015625)"/>
       <path id="DejaVuSans-6e" d="M 3513 2113 
L 3513 0 
L 2938 0 
L 2938 2094 
Q 2938 2591 2744 2837 
Q 2550 3084 2163 3084 
Q 1697 3084 1428 2787 
Q 1159 2491 1159 1978 
L 1159 0 
L 581 0 
L 581 3500 
L 1159 3500 
L 1159 2956 
Q 1366 3272 1645 3428 
Q 1925 3584 2291 3584 
Q 2894 3584 3203 3211 
Q 3513 2838 3513 2113 
z
" transform="scale(0.015625)"/>
       <path id="DejaVuSans-6d" d="M 3328 2828 
Q 3544 3216 3844 3400 
Q 4144 3584 4550 3584 
Q 5097 3584 5394 3201 
Q 5691 2819 5691 2113 
L 5691 0 
L 5113 0 
L 5113 2094 
Q 5113 2597 4934 2840 
Q 4756 3084 4391 3084 
Q 3944 3084 3684 2787 
Q 3425 2491 3425 1978 
L 3425 0 
L 2847 0 
L 2847 2094 
Q 2847 2600 2669 2842 
Q 2491 3084 2119 3084 
Q 1678 3084 1418 2786 
Q 1159 2488 1159 1978 
L 1159 0 
L 581 0 
L 581 3500 
L 1159 3500 
L 1159 2956 
Q 1356 3278 1631 3431 
Q 1906 3584 2284 3584 
Q 2666 3584 2933 3390 
Q 3200 3197 3328 2828 
z
" transform="scale(0.015625)"/>
       <path id="DejaVuSans-29" d="M 513 4856 
L 1013 4856 
Q 1481 4119 1714 3412 
Q 1947 2706 1947 2009 
Q 1947 1309 1714 600 
Q 1481 -109 1013 -844 
L 513 -844 
Q 928 -128 1133 580 
Q 1338 1288 1338 2009 
Q 1338 2731 1133 3434 
Q 928 4138 513 4856 
z
" transform="scale(0.015625)"/>
      </defs>
      <use xlink:href="#DejaVuSans-71"/>
      <use xlink:href="#DejaVuSans-20" transform="translate(63.476562 0)"/>
      <use xlink:href="#DejaVuSans-28" transform="translate(95.263672 0)"/>
      <use xlink:href="#DejaVuSans-6e" transform="translate(134.277344 0)"/>
      <use xlink:href="#DejaVuSans-6d" transform="translate(197.65625 0)"/>
      <use xlink:href="#DejaVuSans-29" transform="translate(295.068359 0)"/>
     </g>
    </g>
   </g>
   <g id="matplotlib.axis_2">
    <g id="ytick_1">
     <g id="line2d_7">
      <defs>
       <path id="m58f6ed35dd" d="M 0 0 
L -3.5 0 
" style="stroke: #000000; stroke-width: 0.8"/>
      </defs>
      <g>
       <use xlink:href="#m58f6ed35dd" x="33.7" y="180.687273" style="stroke: #000000; stroke-width: 0.8"/>
      </g>
     </g>
     <g id="text_8">
      <!-- 0 -->
      <g transform="translate(20.3375 184.486491) scale(0.1 -0.1)">
       <use xlink:href="#DejaVuSans-30"/>
      </g>
     </g>
    </g>
    <g id="ytick_2">
     <g id="line2d_8">
      <g>
       <use xlink:href="#m58f6ed35dd" x="33.7" y="157.467944" style="stroke: #000000; stroke-width: 0.8"/>
      </g>
     </g>
     <g id="text_9">
      <!-- 10000 -->
      <g transform="translate(-5.1125 161.267163) scale(0.1 -0.1)">
       <use xlink:href="#DejaVuSans-31"/>
       <use xlink:href="#DejaVuSans-30" transform="translate(63.623047 0)"/>
       <use xlink:href="#DejaVuSans-30" transform="translate(127.246094 0)"/>
       <use xlink:href="#DejaVuSans-30" transform="translate(190.869141 0)"/>
       <use xlink:href="#DejaVuSans-30" transform="translate(254.492188 0)"/>
      </g>
     </g>
    </g>
    <g id="ytick_3">
     <g id="line2d_9">
      <g>
       <use xlink:href="#m58f6ed35dd" x="33.7" y="134.248615" style="stroke: #000000; stroke-width: 0.8"/>
      </g>
     </g>
     <g id="text_10">
      <!-- 20000 -->
      <g transform="translate(-5.1125 138.047834) scale(0.1 -0.1)">
       <use xlink:href="#DejaVuSans-32"/>
       <use xlink:href="#DejaVuSans-30" transform="translate(63.623047 0)"/>
       <use xlink:href="#DejaVuSans-30" transform="translate(127.246094 0)"/>
       <use xlink:href="#DejaVuSans-30" transform="translate(190.869141 0)"/>
       <use xlink:href="#DejaVuSans-30" transform="translate(254.492188 0)"/>
      </g>
     </g>
    </g>
    <g id="ytick_4">
     <g id="line2d_10">
      <g>
       <use xlink:href="#m58f6ed35dd" x="33.7" y="111.029287" style="stroke: #000000; stroke-width: 0.8"/>
      </g>
     </g>
     <g id="text_11">
      <!-- 30000 -->
      <g transform="translate(-5.1125 114.828505) scale(0.1 -0.1)">
       <defs>
        <path id="DejaVuSans-33" d="M 2597 2516 
Q 3050 2419 3304 2112 
Q 3559 1806 3559 1356 
Q 3559 666 3084 287 
Q 2609 -91 1734 -91 
Q 1441 -91 1130 -33 
Q 819 25 488 141 
L 488 750 
Q 750 597 1062 519 
Q 1375 441 1716 441 
Q 2309 441 2620 675 
Q 2931 909 2931 1356 
Q 2931 1769 2642 2001 
Q 2353 2234 1838 2234 
L 1294 2234 
L 1294 2753 
L 1863 2753 
Q 2328 2753 2575 2939 
Q 2822 3125 2822 3475 
Q 2822 3834 2567 4026 
Q 2313 4219 1838 4219 
Q 1578 4219 1281 4162 
Q 984 4106 628 3988 
L 628 4550 
Q 988 4650 1302 4700 
Q 1616 4750 1894 4750 
Q 2613 4750 3031 4423 
Q 3450 4097 3450 3541 
Q 3450 3153 3228 2886 
Q 3006 2619 2597 2516 
z
" transform="scale(0.015625)"/>
       </defs>
       <use xlink:href="#DejaVuSans-33"/>
       <use xlink:href="#DejaVuSans-30" transform="translate(63.623047 0)"/>
       <use xlink:href="#DejaVuSans-30" transform="translate(127.246094 0)"/>
       <use xlink:href="#DejaVuSans-30" transform="translate(190.869141 0)"/>
       <use xlink:href="#DejaVuSans-30" transform="translate(254.492188 0)"/>
      </g>
     </g>
    </g>
    <g id="ytick_5">
     <g id="line2d_11">
      <g>
       <use xlink:href="#m58f6ed35dd" x="33.7" y="87.809958" style="stroke: #000000; stroke-width: 0.8"/>
      </g>
     </g>
     <g id="text_12">
      <!-- 40000 -->
      <g transform="translate(-5.1125 91.609177) scale(0.1 -0.1)">
       <use xlink:href="#DejaVuSans-34"/>
       <use xlink:href="#DejaVuSans-30" transform="translate(63.623047 0)"/>
       <use xlink:href="#DejaVuSans-30" transform="translate(127.246094 0)"/>
       <use xlink:href="#DejaVuSans-30" transform="translate(190.869141 0)"/>
       <use xlink:href="#DejaVuSans-30" transform="translate(254.492188 0)"/>
      </g>
     </g>
    </g>
    <g id="ytick_6">
     <g id="line2d_12">
      <g>
       <use xlink:href="#m58f6ed35dd" x="33.7" y="64.590629" style="stroke: #000000; stroke-width: 0.8"/>
      </g>
     </g>
     <g id="text_13">
      <!-- 50000 -->
      <g transform="translate(-5.1125 68.389848) scale(0.1 -0.1)">
       <defs>
        <path id="DejaVuSans-35" d="M 691 4666 
L 3169 4666 
L 3169 4134 
L 1269 4134 
L 1269 2991 
Q 1406 3038 1543 3061 
Q 1681 3084 1819 3084 
Q 2600 3084 3056 2656 
Q 3513 2228 3513 1497 
Q 3513 744 3044 326 
Q 2575 -91 1722 -91 
Q 1428 -91 1123 -41 
Q 819 9 494 109 
L 494 744 
Q 775 591 1075 516 
Q 1375 441 1709 441 
Q 2250 441 2565 725 
Q 2881 1009 2881 1497 
Q 2881 1984 2565 2268 
Q 2250 2553 1709 2553 
Q 1456 2553 1204 2497 
Q 953 2441 691 2322 
L 691 4666 
z
" transform="scale(0.015625)"/>
       </defs>
       <use xlink:href="#DejaVuSans-35"/>
       <use xlink:href="#DejaVuSans-30" transform="translate(63.623047 0)"/>
       <use xlink:href="#DejaVuSans-30" transform="translate(127.246094 0)"/>
       <use xlink:href="#DejaVuSans-30" transform="translate(190.869141 0)"/>
       <use xlink:href="#DejaVuSans-30" transform="translate(254.492188 0)"/>
      </g>
     </g>
    </g>
    <g id="ytick_7">
     <g id="line2d_13">
      <g>
       <use xlink:href="#m58f6ed35dd" x="33.7" y="41.371301" style="stroke: #000000; stroke-width: 0.8"/>
      </g>
     </g>
     <g id="text_14">
      <!-- 60000 -->
      <g transform="translate(-5.1125 45.170519) scale(0.1 -0.1)">
       <use xlink:href="#DejaVuSans-36"/>
       <use xlink:href="#DejaVuSans-30" transform="translate(63.623047 0)"/>
       <use xlink:href="#DejaVuSans-30" transform="translate(127.246094 0)"/>
       <use xlink:href="#DejaVuSans-30" transform="translate(190.869141 0)"/>
       <use xlink:href="#DejaVuSans-30" transform="translate(254.492188 0)"/>
      </g>
     </g>
    </g>
    <g id="ytick_8">
     <g id="line2d_14">
      <g>
       <use xlink:href="#m58f6ed35dd" x="33.7" y="18.151972" style="stroke: #000000; stroke-width: 0.8"/>
      </g>
     </g>
     <g id="text_15">
      <!-- 70000 -->
      <g transform="translate(-5.1125 21.951191) scale(0.1 -0.1)">
       <defs>
        <path id="DejaVuSans-37" d="M 525 4666 
L 3525 4666 
L 3525 4397 
L 1831 0 
L 1172 0 
L 2766 4134 
L 525 4134 
L 525 4666 
z
" transform="scale(0.015625)"/>
       </defs>
       <use xlink:href="#DejaVuSans-37"/>
       <use xlink:href="#DejaVuSans-30" transform="translate(63.623047 0)"/>
       <use xlink:href="#DejaVuSans-30" transform="translate(127.246094 0)"/>
       <use xlink:href="#DejaVuSans-30" transform="translate(190.869141 0)"/>
       <use xlink:href="#DejaVuSans-30" transform="translate(254.492188 0)"/>
      </g>
     </g>
    </g>
    <g id="text_16">
     <!-- rdf -->
     <g transform="translate(-11.192187 108.462344) rotate(-90) scale(0.1 -0.1)">
      <defs>
       <path id="DejaVuSans-72" d="M 2631 2963 
Q 2534 3019 2420 3045 
Q 2306 3072 2169 3072 
Q 1681 3072 1420 2755 
Q 1159 2438 1159 1844 
L 1159 0 
L 581 0 
L 581 3500 
L 1159 3500 
L 1159 2956 
Q 1341 3275 1631 3429 
Q 1922 3584 2338 3584 
Q 2397 3584 2469 3576 
Q 2541 3569 2628 3553 
L 2631 2963 
z
" transform="scale(0.015625)"/>
       <path id="DejaVuSans-64" d="M 2906 2969 
L 2906 4863 
L 3481 4863 
L 3481 0 
L 2906 0 
L 2906 525 
Q 2725 213 2448 61 
Q 2172 -91 1784 -91 
Q 1150 -91 751 415 
Q 353 922 353 1747 
Q 353 2572 751 3078 
Q 1150 3584 1784 3584 
Q 2172 3584 2448 3432 
Q 2725 3281 2906 2969 
z
M 947 1747 
Q 947 1113 1208 752 
Q 1469 391 1925 391 
Q 2381 391 2643 752 
Q 2906 1113 2906 1747 
Q 2906 2381 2643 2742 
Q 2381 3103 1925 3103 
Q 1469 3103 1208 2742 
Q 947 2381 947 1747 
z
" transform="scale(0.015625)"/>
       <path id="DejaVuSans-66" d="M 2375 4863 
L 2375 4384 
L 1825 4384 
Q 1516 4384 1395 4259 
Q 1275 4134 1275 3809 
L 1275 3500 
L 2222 3500 
L 2222 3053 
L 1275 3053 
L 1275 0 
L 697 0 
L 697 3053 
L 147 3053 
L 147 3500 
L 697 3500 
L 697 3744 
Q 697 4328 969 4595 
Q 1241 4863 1831 4863 
L 2375 4863 
z
" transform="scale(0.015625)"/>
      </defs>
      <use xlink:href="#DejaVuSans-72"/>
      <use xlink:href="#DejaVuSans-64" transform="translate(39.363281 0)"/>
      <use xlink:href="#DejaVuSans-66" transform="translate(102.839844 0)"/>
     </g>
    </g>
   </g>
   <g id="line2d_15">
    <path d="M 44.406818 180.687273 
L 94.318301 180.687273 
L 94.854984 180.56216 
L 95.391667 75.331764 
L 95.928349 22.432727 
L 96.465032 180.56974 
L 97.001715 180.456957 
L 97.538397 180.461563 
L 98.07508 179.912932 
L 98.611762 176.349226 
L 99.148445 168.989277 
L 99.685128 163.477691 
L 100.22181 168.61425 
L 100.758493 175.668111 
L 101.295175 178.914148 
L 101.831858 179.817128 
L 102.905223 180.407723 
L 104.515271 180.598993 
L 105.588636 180.261159 
L 106.125319 180.687273 
L 106.662002 180.193341 
L 107.735367 177.345472 
L 108.808732 172.607807 
L 109.882097 179.34708 
L 110.41878 180.101238 
L 110.955463 180.471026 
L 111.492145 180.545396 
L 112.028828 179.570134 
L 112.56551 177.388227 
L 113.638876 160.433685 
L 114.175558 162.907938 
L 114.712241 172.352284 
L 115.248923 178.26892 
L 115.785606 179.119999 
L 116.322289 178.649115 
L 117.395654 163.357196 
L 117.932337 163.312842 
L 118.469019 173.11526 
L 119.005702 178.907433 
L 119.542384 179.894875 
L 120.61575 180.467183 
L 123.835845 180.484609 
L 124.372528 180.33734 
L 124.909211 180.440631 
L 125.445893 180.151803 
L 125.982576 180.110759 
L 126.519258 178.458585 
L 127.055941 173.713027 
L 127.592624 172.462422 
L 128.129306 176.262291 
L 128.665989 175.507557 
L 129.202671 167.0781 
L 129.739354 168.214434 
L 130.276037 175.525898 
L 130.812719 179.402149 
L 131.886085 180.561885 
L 132.422767 180.398248 
L 133.496132 180.52606 
L 134.032815 180.448333 
L 135.10618 180.570605 
L 135.642863 180.341364 
L 136.179545 178.370038 
L 136.716228 169.197487 
L 137.252911 167.065395 
L 137.789593 174.779785 
L 138.326276 178.329363 
L 138.862959 171.828445 
L 139.399641 155.721544 
L 139.936324 160.699331 
L 140.473006 174.029314 
L 141.009689 178.492476 
L 141.546372 180.076771 
L 142.083054 180.284718 
L 142.619737 180.255913 
L 143.156419 179.571296 
L 143.693102 175.751849 
L 144.229785 170.986242 
L 144.766467 172.328888 
L 145.30315 175.876248 
L 146.376515 156.149424 
L 146.913198 175.751601 
L 147.44988 178.968643 
L 147.986563 175.495014 
L 148.523246 167.662533 
L 149.059928 163.322768 
L 150.133293 178.080664 
L 150.669976 180.006724 
L 151.206659 180.23811 
L 151.743341 180.270373 
L 152.280024 178.320712 
L 152.816707 174.52945 
L 153.353389 172.782152 
L 154.426754 179.020463 
L 154.963437 180.084633 
L 155.50012 180.427776 
L 156.036802 180.147543 
L 156.573485 177.912507 
L 157.110167 174.61039 
L 157.64685 174.318007 
L 158.720215 179.633273 
L 159.256898 180.517288 
L 159.793581 180.446685 
L 160.330263 180.54425 
L 160.866946 180.451089 
L 163.013676 180.459542 
L 163.550359 180.077915 
L 164.087041 179.121563 
L 164.623724 174.546595 
L 165.160407 168.88815 
L 165.697089 170.124571 
L 166.233772 176.47766 
L 166.770455 178.311973 
L 167.307137 175.426439 
L 167.84382 175.072414 
L 168.917185 179.343776 
L 169.453868 178.187187 
L 170.527233 170.352412 
L 171.063915 172.037669 
L 171.600598 176.091795 
L 172.137281 173.79281 
L 172.673963 166.701634 
L 173.210646 165.44618 
L 173.747329 172.641198 
L 174.284011 177.932327 
L 174.820694 179.952362 
L 175.357376 179.192069 
L 175.894059 175.515136 
L 176.430742 174.93183 
L 176.967424 177.094043 
L 177.504107 177.6657 
L 178.040789 176.505273 
L 178.577472 175.755155 
L 179.114155 176.465533 
L 179.650837 174.939209 
L 180.724203 179.617762 
L 181.260885 180.447657 
L 183.407616 180.554538 
L 183.944298 180.57202 
L 184.480981 180.40951 
L 185.017663 179.941397 
L 185.554346 178.064301 
L 186.091029 172.111123 
L 186.627711 172.254854 
L 187.164394 177.572409 
L 187.701077 179.844101 
L 188.237759 179.92786 
L 188.774442 178.010558 
L 189.311124 171.510077 
L 189.847807 168.697624 
L 190.38449 171.990377 
L 190.921172 173.174106 
L 191.457855 176.13504 
L 191.994537 178.258372 
L 192.53122 176.390667 
L 193.067903 173.519726 
L 193.604585 175.299742 
L 194.141268 178.62774 
L 194.677951 179.849443 
L 195.214633 178.967104 
L 195.751316 173.701202 
L 196.287998 177.295289 
L 196.824681 177.885055 
L 197.361364 176.561314 
L 197.898046 176.004748 
L 198.434729 172.522777 
L 198.971411 171.720126 
L 200.044777 179.283872 
L 200.581459 180.345399 
L 201.654825 180.401924 
L 202.191507 179.192907 
L 202.72819 177.104565 
L 203.264872 176.099231 
L 203.801555 177.001072 
L 204.338238 177.51477 
L 204.87492 177.423816 
L 205.411603 178.447727 
L 205.948285 178.327353 
L 207.021651 174.767944 
L 207.558333 173.445091 
L 208.631699 176.20344 
L 209.168381 177.272379 
L 209.705064 175.850501 
L 210.241746 172.114209 
L 210.778429 174.463962 
L 211.315112 178.303722 
L 211.851794 179.394423 
L 212.388477 176.901645 
L 212.925159 173.084978 
L 213.461842 173.155553 
L 213.998525 176.872673 
L 214.535207 177.439759 
L 215.07189 177.305934 
L 215.608573 177.053438 
L 216.681938 179.660367 
L 217.21862 179.967517 
L 217.755303 178.733508 
L 218.291986 175.95495 
L 218.828668 175.467238 
L 219.365351 177.186626 
L 219.902033 177.718403 
L 220.438716 176.959913 
L 220.975399 175.963712 
L 221.512081 176.718463 
L 222.048764 178.989353 
L 222.585447 179.767611 
L 223.122129 178.919234 
L 223.658812 177.641658 
L 224.732177 171.856016 
L 225.26886 175.027504 
L 225.805542 179.019846 
L 226.342225 180.231668 
L 227.41559 180.495664 
L 227.952273 180.058648 
L 228.488955 178.689255 
L 229.025638 178.493725 
L 229.562321 179.536 
L 230.099003 179.859034 
L 230.635686 178.475916 
L 231.172368 176.446323 
L 231.709051 177.613896 
L 232.245734 179.650468 
L 232.782416 179.638264 
L 233.319099 177.845833 
L 233.855781 176.824721 
L 234.929147 179.829717 
L 235.465829 180.361995 
L 236.002512 180.337587 
L 236.539195 180.104813 
L 237.075877 178.958237 
L 237.61256 176.80132 
L 238.685925 174.352835 
L 239.222608 171.918509 
L 239.75929 172.311315 
L 240.295973 174.138529 
L 240.832656 172.826727 
L 241.369338 175.392639 
L 241.906021 178.745463 
L 242.442703 179.296076 
L 242.979386 178.538469 
L 243.516069 177.473294 
L 244.589434 174.496189 
L 245.126116 176.010948 
L 245.662799 178.0961 
L 246.199482 179.142389 
L 246.736164 179.652341 
L 247.272847 178.916908 
L 247.80953 177.677187 
L 248.882895 179.059785 
L 249.419577 177.266025 
L 249.95626 175.065535 
L 250.492943 175.948733 
L 251.029625 178.552079 
L 251.566308 179.572832 
L 252.10299 178.514523 
L 252.639673 176.556576 
L 253.176356 175.244752 
L 253.713038 176.005294 
L 254.786404 173.195395 
L 255.859769 177.880211 
L 256.396451 177.922962 
L 256.933134 176.906371 
L 257.469817 176.713225 
L 258.006499 176.747226 
L 258.543182 176.115881 
L 258.543182 176.115881 
" clip-path="url(#pe8e699a3e9)" style="fill: none; stroke: #000000; stroke-opacity: 0.5; stroke-width: 0.5; stroke-linecap: square"/>
   </g>
   <g id="line2d_16">
    <path d="M 44.406818 180.687273 
L 94.318301 180.687273 
L 94.854984 180.304114 
L 95.391667 180.687273 
L 95.928349 180.319832 
L 96.465032 180.687273 
L 97.001715 179.981931 
L 97.538397 179.996037 
L 98.07508 178.315853 
L 98.611762 167.402004 
L 99.148445 144.862161 
L 99.685128 127.982925 
L 100.22181 143.713637 
L 100.758493 165.316087 
L 101.295175 175.257079 
L 101.831858 178.022453 
L 102.905223 179.83115 
L 103.441906 180.126807 
L 103.978589 180.687273 
L 104.515271 180.416915 
L 105.588636 179.382299 
L 106.125319 180.687273 
L 106.662002 179.174608 
L 107.735367 170.453006 
L 108.808732 156.179557 
L 109.882097 176.582932 
L 110.41878 179.565566 
L 110.955463 180.466521 
L 111.492145 180.252776 
L 112.028828 179.831963 
L 112.56551 180.476787 
L 113.102193 180.272827 
L 113.638876 180.279203 
L 114.712241 179.104271 
L 115.248923 179.907672 
L 116.322289 175.769444 
L 117.395654 127.981197 
L 117.932337 128.021019 
L 118.469019 157.497982 
L 119.005702 175.764006 
L 119.542384 178.607227 
L 120.079067 179.661898 
L 120.61575 180.350261 
L 121.152432 180.188776 
L 122.225797 180.202388 
L 122.76248 180.368414 
L 123.835845 180.376944 
L 124.372528 180.534177 
L 124.909211 180.536205 
L 125.445893 180.389113 
L 125.982576 180.687273 
L 128.129306 180.687273 
L 128.665989 180.549335 
L 129.202671 180.55107 
L 129.739354 180.687273 
L 130.276037 180.421614 
L 130.812719 180.687273 
L 131.349402 180.428113 
L 131.886085 180.559273 
L 132.422767 180.434376 
L 133.496132 180.440415 
L 134.032815 180.565314 
L 134.569498 180.446241 
L 135.10618 180.568175 
L 135.642863 180.098747 
L 136.179545 174.056088 
L 136.716228 146.074759 
L 137.252911 139.311277 
L 137.789593 163.606926 
L 138.326276 176.132426 
L 138.862959 164.321304 
L 139.399641 133.552929 
L 139.936324 150.617689 
L 140.473006 175.271178 
L 141.009689 179.532003 
L 141.546372 180.271792 
L 142.083054 180.584537 
L 142.619737 180.382417 
L 143.156419 180.586753 
L 143.693102 180.587834 
L 144.229785 180.293771 
L 144.766467 180.492614 
L 145.30315 180.494674 
L 145.839833 177.638142 
L 146.376515 150.232395 
L 146.913198 171.076802 
L 147.44988 180.410257 
L 147.986563 180.687273 
L 149.596611 180.598655 
L 150.133293 180.511828 
L 150.669976 180.687273 
L 151.206659 180.6013 
L 151.743341 180.687273 
L 152.280024 180.518724 
L 152.816707 180.687273 
L 159.256898 180.612904 
L 159.793581 180.539913 
L 160.330263 180.614272 
L 160.866946 180.470279 
L 161.403628 180.687273 
L 161.940311 180.687273 
L 162.476994 180.476142 
L 163.013676 180.408302 
L 164.087041 180.687273 
L 164.623724 180.415708 
L 165.697089 180.420483 
L 166.233772 179.893923 
L 166.770455 175.968772 
L 167.307137 165.095685 
L 167.84382 163.81378 
L 168.917185 177.522304 
L 169.453868 178.427974 
L 169.99055 173.904811 
L 170.527233 163.967409 
L 171.063915 164.659035 
L 171.600598 170.617332 
L 172.137281 163.603342 
L 172.673963 150.085161 
L 173.210646 149.924986 
L 173.747329 165.433254 
L 174.284011 175.566873 
L 174.820694 179.302248 
L 175.357376 180.057652 
L 175.894059 179.551812 
L 176.430742 179.561008 
L 176.967424 177.615016 
L 177.504107 174.647519 
L 178.040789 174.2561 
L 178.577472 175.343402 
L 179.114155 179.118472 
L 179.650837 180.204251 
L 181.797568 180.583257 
L 182.33425 180.635668 
L 183.407616 180.534835 
L 183.944298 180.536004 
L 184.480981 180.18689 
L 185.017663 178.998918 
L 185.554346 175.31561 
L 186.091029 167.628407 
L 186.627711 169.231387 
L 187.164394 176.543954 
L 187.701077 179.587441 
L 188.237759 180.022786 
L 188.774442 180.310379 
L 189.311124 180.453453 
L 189.847807 180.315912 
L 190.38449 180.502953 
L 190.921172 180.458554 
L 191.457855 180.096928 
L 191.994537 178.117606 
L 193.067903 169.001015 
L 193.604585 171.246488 
L 194.141268 176.964203 
L 194.677951 179.513068 
L 195.214633 179.910024 
L 195.751316 179.272383 
L 196.287998 177.111093 
L 196.824681 172.781878 
L 197.361364 169.394858 
L 197.898046 170.890892 
L 198.434729 171.000382 
L 198.971411 171.355163 
L 199.508094 175.992171 
L 200.044777 179.470882 
L 200.581459 180.244316 
L 201.118142 180.287334 
L 201.654825 180.051723 
L 202.191507 176.623659 
L 202.72819 170.067904 
L 203.264872 167.220225 
L 203.801555 171.949903 
L 204.338238 178.34473 
L 204.87492 179.390298 
L 205.411603 178.603165 
L 205.948285 175.83146 
L 206.484968 172.012028 
L 207.021651 174.112177 
L 207.558333 178.436141 
L 208.095016 180.137333 
L 208.631699 180.177341 
L 209.168381 179.312158 
L 210.241746 172.685746 
L 210.778429 174.156852 
L 211.315112 178.85355 
L 211.851794 180.091618 
L 212.388477 180.652457 
L 212.925159 180.514301 
L 215.07189 180.55235 
L 215.608573 180.687273 
L 217.21862 180.654373 
L 217.755303 180.556488 
L 218.291986 180.264839 
L 218.828668 178.652645 
L 219.365351 175.26271 
L 219.902033 173.509247 
L 220.438716 172.98212 
L 220.975399 173.154917 
L 221.512081 175.236551 
L 222.048764 178.134038 
L 222.585447 179.882568 
L 223.122129 180.133505 
L 223.658812 179.892168 
L 224.195494 176.309821 
L 224.732177 170.020075 
L 225.26886 171.825491 
L 225.805542 178.05937 
L 226.342225 179.885723 
L 226.878907 180.333119 
L 227.41559 180.569912 
L 227.952273 180.541427 
L 228.488955 180.368276 
L 229.025638 180.514284 
L 229.562321 180.285965 
L 230.099003 179.062785 
L 230.635686 174.226686 
L 231.172368 167.981095 
L 231.709051 171.77928 
L 232.245734 178.319788 
L 232.782416 180.244157 
L 233.319099 180.466971 
L 235.465829 180.391116 
L 236.002512 180.205362 
L 236.539195 179.622327 
L 237.075877 176.583515 
L 237.61256 172.130331 
L 238.149242 174.455565 
L 238.685925 178.499978 
L 239.75929 173.965377 
L 240.295973 171.876158 
L 240.832656 167.593639 
L 241.906021 178.721807 
L 242.442703 179.709855 
L 242.979386 179.440926 
L 243.516069 176.968326 
L 244.052751 172.1056 
L 244.589434 171.660944 
L 245.126116 176.198159 
L 245.662799 179.158421 
L 246.199482 180.011386 
L 246.736164 180.327105 
L 247.80953 180.425927 
L 248.346212 180.380032 
L 248.882895 179.535268 
L 249.95626 171.89286 
L 250.492943 173.489245 
L 251.029625 178.1085 
L 251.566308 180.114626 
L 252.10299 180.345455 
L 253.176356 180.303847 
L 253.713038 179.498002 
L 254.786404 172.313756 
L 255.323086 174.102031 
L 255.859769 177.543238 
L 256.396451 179.177884 
L 256.933134 177.226628 
L 257.469817 173.151077 
L 258.006499 170.818687 
L 258.543182 169.989042 
L 258.543182 169.989042 
" clip-path="url(#pe8e699a3e9)" style="fill: none; stroke: #0000ff; stroke-opacity: 0.5; stroke-linecap: square"/>
   </g>
   <g id="line2d_17">
    <path d="M 44.406818 180.687273 
L 107.735367 180.687273 
L 108.272049 180.261296 
L 109.345415 180.275205 
L 109.882097 180.687273 
L 110.41878 179.490786 
L 110.955463 179.902376 
L 111.492145 180.687273 
L 112.028828 176.125623 
L 112.56551 163.1 
L 113.638876 71.143196 
L 114.175558 85.674623 
L 114.712241 138.122116 
L 115.248923 168.906641 
L 115.785606 177.274099 
L 116.322289 178.333441 
L 116.858971 179.03069 
L 117.395654 180.034313 
L 117.932337 179.722027 
L 118.469019 180.687273 
L 119.005702 179.749508 
L 119.542384 180.070963 
L 120.079067 179.775829 
L 120.61575 180.387707 
L 121.152432 180.687273 
L 121.689115 180.104612 
L 122.225797 180.399933 
L 122.76248 180.403843 
L 123.299163 180.687273 
L 123.835845 180.411425 
L 124.372528 179.326424 
L 124.909211 180.150143 
L 125.445893 178.301997 
L 125.982576 177.81004 
L 126.519258 169.069645 
L 127.055941 143.990566 
L 127.592624 137.165385 
L 128.129306 162.059773 
L 128.665989 178.480264 
L 129.202671 180.445134 
L 129.739354 180.20905 
L 130.276037 180.451131 
L 131.349402 180.456909 
L 131.886085 180.687273 
L 132.422767 180.687273 
L 132.95945 180.465184 
L 133.496132 180.687273 
L 135.10618 180.687273 
L 135.642863 180.478019 
L 136.179545 180.687273 
L 136.716228 180.278413 
L 137.789593 180.687273 
L 138.326276 180.489773 
L 138.862959 180.687273 
L 143.156419 180.687273 
L 143.693102 180.510492 
L 144.229785 180.512383 
L 144.766467 180.341214 
L 145.30315 178.632892 
L 145.839833 114.622777 
L 146.376515 104.25151 
L 146.913198 175.876855 
L 147.44988 180.030642 
L 147.986563 180.687273 
L 160.866946 180.687273 
L 161.940311 180.43476 
L 162.476994 180.687273 
L 163.013676 180.687273 
L 163.550359 180.441524 
L 164.087041 180.687273 
L 164.623724 180.687273 
L 165.160407 180.567646 
L 165.697089 180.687273 
L 166.233772 180.569739 
L 166.770455 180.104742 
L 167.307137 180.456286 
L 168.380502 180.233247 
L 168.917185 179.224354 
L 169.453868 171.426937 
L 169.99055 158.452414 
L 170.527233 154.472943 
L 171.063915 162.198385 
L 171.600598 173.785253 
L 172.137281 173.736066 
L 172.673963 159.265136 
L 173.210646 152.712 
L 174.284011 175.82548 
L 174.820694 179.969112 
L 175.357376 180.382002 
L 176.430742 180.186711 
L 176.967424 179.296999 
L 177.504107 177.535027 
L 178.040789 170.133555 
L 178.577472 166.727776 
L 179.650837 178.77904 
L 180.18752 180.024651 
L 180.724203 180.40552 
L 181.260885 180.594089 
L 181.797568 180.409896 
L 183.407616 180.506606 
L 183.944298 180.597632 
L 184.480981 180.242488 
L 185.017663 180.598993 
L 186.627711 180.342086 
L 187.164394 180.601623 
L 187.701077 180.347228 
L 188.237759 179.843481 
L 188.774442 179.849731 
L 189.311124 177.195561 
L 189.847807 169.381401 
L 190.38449 146.035109 
L 190.921172 142.384559 
L 191.994537 172.352137 
L 192.53122 170.025324 
L 193.067903 162.834505 
L 193.604585 168.452488 
L 194.141268 176.871735 
L 194.677951 179.372937 
L 195.214633 180.149916 
L 195.751316 180.458604 
L 196.287998 180.384527 
L 196.824681 180.612117 
L 197.361364 180.388754 
L 197.898046 180.613163 
L 198.434729 180.687273 
L 198.971411 180.468016 
L 199.508094 180.396948 
L 201.654825 180.687273 
L 202.191507 180.546997 
L 202.72819 180.687273 
L 205.411603 180.619908 
L 205.948285 180.486516 
L 206.484968 180.155457 
L 207.021651 180.026874 
L 207.558333 177.341328 
L 208.095016 170.389142 
L 208.631699 165.92353 
L 209.168381 170.522681 
L 209.705064 177.619288 
L 210.241746 180.369752 
L 211.315112 180.56189 
L 212.388477 180.625379 
L 212.925159 180.441268 
L 213.461842 179.098365 
L 213.998525 175.161184 
L 214.535207 168.98046 
L 215.07189 169.293762 
L 216.145255 179.029118 
L 216.681938 180.393013 
L 217.755303 180.687273 
L 218.828668 180.515029 
L 219.365351 180.63021 
L 220.975399 180.575215 
L 221.512081 180.46451 
L 222.048764 180.521209 
L 223.122129 180.085648 
L 223.658812 176.229248 
L 224.195494 164.744704 
L 224.732177 156.297436 
L 225.805542 177.077224 
L 226.342225 179.895619 
L 226.878907 180.372469 
L 227.41559 180.635112 
L 227.952273 180.479848 
L 229.562321 180.636313 
L 230.099003 180.535274 
L 232.245734 180.637757 
L 233.319099 180.638317 
L 233.855781 180.443876 
L 234.392464 180.493653 
L 234.929147 180.687273 
L 236.002512 180.59208 
L 236.539195 180.355956 
L 237.61256 180.453237 
L 238.149242 178.63913 
L 238.685925 169.993834 
L 239.222608 152.788453 
L 239.75929 153.856926 
L 240.295973 171.853392 
L 240.832656 179.32866 
L 241.906021 180.373694 
L 242.442703 180.197171 
L 242.979386 180.155498 
L 243.516069 179.541286 
L 244.052751 174.593519 
L 244.589434 166.515503 
L 245.126116 169.887379 
L 245.662799 177.494751 
L 246.199482 179.914831 
L 246.736164 180.559213 
L 249.95626 180.480467 
L 250.492943 180.440395 
L 251.029625 180.114212 
L 251.566308 179.424904 
L 252.10299 175.987916 
L 253.176356 156.067864 
L 254.249721 168.622106 
L 254.786404 168.999396 
L 255.323086 172.044451 
L 255.859769 177.403992 
L 256.396451 180.026156 
L 256.933134 180.609886 
L 258.006499 180.419131 
L 258.543182 180.496701 
L 258.543182 180.496701 
" clip-path="url(#pe8e699a3e9)" style="fill: none; stroke: #ff0000; stroke-opacity: 0.5; stroke-linecap: square"/>
   </g>
   <g id="patch_3">
    <path d="M 33.7 188.6 
L 33.7 14.52 
" style="fill: none; stroke: #000000; stroke-width: 0.8; stroke-linejoin: miter; stroke-linecap: square"/>
   </g>
   <g id="patch_4">
    <path d="M 269.25 188.6 
L 269.25 14.52 
" style="fill: none; stroke: #000000; stroke-width: 0.8; stroke-linejoin: miter; stroke-linecap: square"/>
   </g>
   <g id="patch_5">
    <path d="M 33.7 188.6 
L 269.25 188.6 
" style="fill: none; stroke: #000000; stroke-width: 0.8; stroke-linejoin: miter; stroke-linecap: square"/>
   </g>
   <g id="patch_6">
    <path d="M 33.7 14.52 
L 269.25 14.52 
" style="fill: none; stroke: #000000; stroke-width: 0.8; stroke-linejoin: miter; stroke-linecap: square"/>
   </g>
   <g id="legend_1">
    <g id="patch_7">
     <path d="M 213.917188 66.554375 
L 262.25 66.554375 
Q 264.25 66.554375 264.25 64.554375 
L 264.25 21.52 
Q 264.25 19.52 262.25 19.52 
L 213.917188 19.52 
Q 211.917188 19.52 211.917188 21.52 
L 211.917188 64.554375 
Q 211.917188 66.554375 213.917188 66.554375 
z
" style="fill: #ffffff; opacity: 0.8; stroke: #cccccc; stroke-linejoin: miter"/>
    </g>
    <g id="line2d_18">
     <path d="M 215.917188 27.618438 
L 225.917188 27.618438 
L 235.917188 27.618438 
" style="fill: none; stroke: #000000; stroke-opacity: 0.5; stroke-width: 0.5; stroke-linecap: square"/>
    </g>
    <g id="text_17">
     <!-- all -->
     <g transform="translate(243.917188 31.118438) scale(0.1 -0.1)">
      <defs>
       <path id="DejaVuSans-61" d="M 2194 1759 
Q 1497 1759 1228 1600 
Q 959 1441 959 1056 
Q 959 750 1161 570 
Q 1363 391 1709 391 
Q 2188 391 2477 730 
Q 2766 1069 2766 1631 
L 2766 1759 
L 2194 1759 
z
M 3341 1997 
L 3341 0 
L 2766 0 
L 2766 531 
Q 2569 213 2275 61 
Q 1981 -91 1556 -91 
Q 1019 -91 701 211 
Q 384 513 384 1019 
Q 384 1609 779 1909 
Q 1175 2209 1959 2209 
L 2766 2209 
L 2766 2266 
Q 2766 2663 2505 2880 
Q 2244 3097 1772 3097 
Q 1472 3097 1187 3025 
Q 903 2953 641 2809 
L 641 3341 
Q 956 3463 1253 3523 
Q 1550 3584 1831 3584 
Q 2591 3584 2966 3190 
Q 3341 2797 3341 1997 
z
" transform="scale(0.015625)"/>
       <path id="DejaVuSans-6c" d="M 603 4863 
L 1178 4863 
L 1178 0 
L 603 0 
L 603 4863 
z
" transform="scale(0.015625)"/>
      </defs>
      <use xlink:href="#DejaVuSans-61"/>
      <use xlink:href="#DejaVuSans-6c" transform="translate(61.279297 0)"/>
      <use xlink:href="#DejaVuSans-6c" transform="translate(89.0625 0)"/>
     </g>
    </g>
    <g id="line2d_19">
     <path d="M 215.917188 42.296563 
L 225.917188 42.296563 
L 235.917188 42.296563 
" style="fill: none; stroke: #0000ff; stroke-opacity: 0.5; stroke-linecap: square"/>
    </g>
    <g id="text_18">
     <!-- 1-1 -->
     <g transform="translate(243.917188 45.796563) scale(0.1 -0.1)">
      <defs>
       <path id="DejaVuSans-2d" d="M 313 2009 
L 1997 2009 
L 1997 1497 
L 313 1497 
L 313 2009 
z
" transform="scale(0.015625)"/>
      </defs>
      <use xlink:href="#DejaVuSans-31"/>
      <use xlink:href="#DejaVuSans-2d" transform="translate(63.623047 0)"/>
      <use xlink:href="#DejaVuSans-31" transform="translate(99.707031 0)"/>
     </g>
    </g>
    <g id="line2d_20">
     <path d="M 215.917188 56.974688 
L 225.917188 56.974688 
L 235.917188 56.974688 
" style="fill: none; stroke: #ff0000; stroke-opacity: 0.5; stroke-linecap: square"/>
    </g>
    <g id="text_19">
     <!-- 2-2 -->
     <g transform="translate(243.917188 60.474688) scale(0.1 -0.1)">
      <use xlink:href="#DejaVuSans-32"/>
      <use xlink:href="#DejaVuSans-2d" transform="translate(63.623047 0)"/>
      <use xlink:href="#DejaVuSans-32" transform="translate(99.707031 0)"/>
     </g>
    </g>
   </g>
  </g>
 </g>
 <defs>
  <clipPath id="pe8e699a3e9">
   <rect x="33.7" y="14.52" width="235.55" height="174.08"/>
  </clipPath>
 </defs>
</svg>
