<?xml version="1.0" encoding="utf-8" standalone="no"?>
<!DOCTYPE svg PUBLIC "-//W3C//DTD SVG 1.1//EN"
  "http://www.w3.org/Graphics/SVG/1.1/DTD/svg11.dtd">
<svg xmlns:xlink="http://www.w3.org/1999/xlink" width="288pt" height="216pt" viewBox="0 0 288 216" xmlns="http://www.w3.org/2000/svg" version="1.1">
 <metadata>
  <rdf:RDF xmlns:dc="http://purl.org/dc/elements/1.1/" xmlns:cc="http://creativecommons.org/ns#" xmlns:rdf="http://www.w3.org/1999/02/22-rdf-syntax-ns#">
   <cc:Work>
    <dc:type rdf:resource="http://purl.org/dc/dcmitype/StillImage"/>
    <dc:date>2025-09-18T00:00:34.244872</dc:date>
    <dc:format>image/svg+xml</dc:format>
    <dc:creator>
     <cc:Agent>
      <dc:title>Matplotlib v3.10.0, https://matplotlib.org/</dc:title>
     </cc:Agent>
    </dc:creator>
   </cc:Work>
  </rdf:RDF>
 </metadata>
 <defs>
  <style type="text/css">*{stroke-linejoin: round; stroke-linecap: butt}</style>
 </defs>
 <g id="figure_1">
  <g id="patch_1">
   <path d="M 0 216 
L 288 216 
L 288 0 
L 0 0 
z
" style="fill: #ffffff"/>
  </g>
  <g id="axes_1">
   <g id="patch_2">
    <path d="M 33.7 188.6 
L 269.25 188.6 
L 269.25 14.52 
L 33.7 14.52 
z
" style="fill: #ffffff"/>
   </g>
   <g id="matplotlib.axis_1">
    <g id="xtick_1">
     <g id="line2d_1">
      <defs>
       <path id="m0f055f0caa" d="M 0 0 
L 0 3.5 
" style="stroke: #000000; stroke-width: 0.8"/>
      </defs>
      <g>
       <use xlink:href="#m0f055f0caa" x="44.138477" y="188.6" style="stroke: #000000; stroke-width: 0.8"/>
      </g>
     </g>
     <g id="text_1">
      <!-- 0 -->
      <g transform="translate(40.957227 203.198437) scale(0.1 -0.1)">
       <defs>
        <path id="DejaVuSans-30" d="M 2034 4250 
Q 1547 4250 1301 3770 
Q 1056 3291 1056 2328 
Q 1056 1369 1301 889 
Q 1547 409 2034 409 
Q 2525 409 2770 889 
Q 3016 1369 3016 2328 
Q 3016 3291 2770 3770 
Q 2525 4250 2034 4250 
z
M 2034 4750 
Q 2819 4750 3233 4129 
Q 3647 3509 3647 2328 
Q 3647 1150 3233 529 
Q 2819 -91 2034 -91 
Q 1250 -91 836 529 
Q 422 1150 422 2328 
Q 422 3509 836 4129 
Q 1250 4750 2034 4750 
z
" transform="scale(0.015625)"/>
       </defs>
       <use xlink:href="#DejaVuSans-30"/>
      </g>
     </g>
    </g>
    <g id="xtick_2">
     <g id="line2d_2">
      <g>
       <use xlink:href="#m0f055f0caa" x="87.073086" y="188.6" style="stroke: #000000; stroke-width: 0.8"/>
      </g>
     </g>
     <g id="text_2">
      <!-- 200 -->
      <g transform="translate(77.529336 203.198437) scale(0.1 -0.1)">
       <defs>
        <path id="DejaVuSans-32" d="M 1228 531 
L 3431 531 
L 3431 0 
L 469 0 
L 469 531 
Q 828 903 1448 1529 
Q 2069 2156 2228 2338 
Q 2531 2678 2651 2914 
Q 2772 3150 2772 3378 
Q 2772 3750 2511 3984 
Q 2250 4219 1831 4219 
Q 1534 4219 1204 4116 
Q 875 4013 500 3803 
L 500 4441 
Q 881 4594 1212 4672 
Q 1544 4750 1819 4750 
Q 2544 4750 2975 4387 
Q 3406 4025 3406 3419 
Q 3406 3131 3298 2873 
Q 3191 2616 2906 2266 
Q 2828 2175 2409 1742 
Q 1991 1309 1228 531 
z
" transform="scale(0.015625)"/>
       </defs>
       <use xlink:href="#DejaVuSans-32"/>
       <use xlink:href="#DejaVuSans-30" transform="translate(63.623047 0)"/>
       <use xlink:href="#DejaVuSans-30" transform="translate(127.246094 0)"/>
      </g>
     </g>
    </g>
    <g id="xtick_3">
     <g id="line2d_3">
      <g>
       <use xlink:href="#m0f055f0caa" x="130.007695" y="188.6" style="stroke: #000000; stroke-width: 0.8"/>
      </g>
     </g>
     <g id="text_3">
      <!-- 400 -->
      <g transform="translate(120.463945 203.198437) scale(0.1 -0.1)">
       <defs>
        <path id="DejaVuSans-34" d="M 2419 4116 
L 825 1625 
L 2419 1625 
L 2419 4116 
z
M 2253 4666 
L 3047 4666 
L 3047 1625 
L 3713 1625 
L 3713 1100 
L 3047 1100 
L 3047 0 
L 2419 0 
L 2419 1100 
L 313 1100 
L 313 1709 
L 2253 4666 
z
" transform="scale(0.015625)"/>
       </defs>
       <use xlink:href="#DejaVuSans-34"/>
       <use xlink:href="#DejaVuSans-30" transform="translate(63.623047 0)"/>
       <use xlink:href="#DejaVuSans-30" transform="translate(127.246094 0)"/>
      </g>
     </g>
    </g>
    <g id="xtick_4">
     <g id="line2d_4">
      <g>
       <use xlink:href="#m0f055f0caa" x="172.942305" y="188.6" style="stroke: #000000; stroke-width: 0.8"/>
      </g>
     </g>
     <g id="text_4">
      <!-- 600 -->
      <g transform="translate(163.398555 203.198437) scale(0.1 -0.1)">
       <defs>
        <path id="DejaVuSans-36" d="M 2113 2584 
Q 1688 2584 1439 2293 
Q 1191 2003 1191 1497 
Q 1191 994 1439 701 
Q 1688 409 2113 409 
Q 2538 409 2786 701 
Q 3034 994 3034 1497 
Q 3034 2003 2786 2293 
Q 2538 2584 2113 2584 
z
M 3366 4563 
L 3366 3988 
Q 3128 4100 2886 4159 
Q 2644 4219 2406 4219 
Q 1781 4219 1451 3797 
Q 1122 3375 1075 2522 
Q 1259 2794 1537 2939 
Q 1816 3084 2150 3084 
Q 2853 3084 3261 2657 
Q 3669 2231 3669 1497 
Q 3669 778 3244 343 
Q 2819 -91 2113 -91 
Q 1303 -91 875 529 
Q 447 1150 447 2328 
Q 447 3434 972 4092 
Q 1497 4750 2381 4750 
Q 2619 4750 2861 4703 
Q 3103 4656 3366 4563 
z
" transform="scale(0.015625)"/>
       </defs>
       <use xlink:href="#DejaVuSans-36"/>
       <use xlink:href="#DejaVuSans-30" transform="translate(63.623047 0)"/>
       <use xlink:href="#DejaVuSans-30" transform="translate(127.246094 0)"/>
      </g>
     </g>
    </g>
    <g id="xtick_5">
     <g id="line2d_5">
      <g>
       <use xlink:href="#m0f055f0caa" x="215.876914" y="188.6" style="stroke: #000000; stroke-width: 0.8"/>
      </g>
     </g>
     <g id="text_5">
      <!-- 800 -->
      <g transform="translate(206.333164 203.198437) scale(0.1 -0.1)">
       <defs>
        <path id="DejaVuSans-38" d="M 2034 2216 
Q 1584 2216 1326 1975 
Q 1069 1734 1069 1313 
Q 1069 891 1326 650 
Q 1584 409 2034 409 
Q 2484 409 2743 651 
Q 3003 894 3003 1313 
Q 3003 1734 2745 1975 
Q 2488 2216 2034 2216 
z
M 1403 2484 
Q 997 2584 770 2862 
Q 544 3141 544 3541 
Q 544 4100 942 4425 
Q 1341 4750 2034 4750 
Q 2731 4750 3128 4425 
Q 3525 4100 3525 3541 
Q 3525 3141 3298 2862 
Q 3072 2584 2669 2484 
Q 3125 2378 3379 2068 
Q 3634 1759 3634 1313 
Q 3634 634 3220 271 
Q 2806 -91 2034 -91 
Q 1263 -91 848 271 
Q 434 634 434 1313 
Q 434 1759 690 2068 
Q 947 2378 1403 2484 
z
M 1172 3481 
Q 1172 3119 1398 2916 
Q 1625 2713 2034 2713 
Q 2441 2713 2670 2916 
Q 2900 3119 2900 3481 
Q 2900 3844 2670 4047 
Q 2441 4250 2034 4250 
Q 1625 4250 1398 4047 
Q 1172 3844 1172 3481 
z
" transform="scale(0.015625)"/>
       </defs>
       <use xlink:href="#DejaVuSans-38"/>
       <use xlink:href="#DejaVuSans-30" transform="translate(63.623047 0)"/>
       <use xlink:href="#DejaVuSans-30" transform="translate(127.246094 0)"/>
      </g>
     </g>
    </g>
    <g id="xtick_6">
     <g id="line2d_6">
      <g>
       <use xlink:href="#m0f055f0caa" x="258.811523" y="188.6" style="stroke: #000000; stroke-width: 0.8"/>
      </g>
     </g>
     <g id="text_6">
      <!-- 1000 -->
      <g transform="translate(246.086523 203.198437) scale(0.1 -0.1)">
       <defs>
        <path id="DejaVuSans-31" d="M 794 531 
L 1825 531 
L 1825 4091 
L 703 3866 
L 703 4441 
L 1819 4666 
L 2450 4666 
L 2450 531 
L 3481 531 
L 3481 0 
L 794 0 
L 794 531 
z
" transform="scale(0.015625)"/>
       </defs>
       <use xlink:href="#DejaVuSans-31"/>
       <use xlink:href="#DejaVuSans-30" transform="translate(63.623047 0)"/>
       <use xlink:href="#DejaVuSans-30" transform="translate(127.246094 0)"/>
       <use xlink:href="#DejaVuSans-30" transform="translate(190.869141 0)"/>
      </g>
     </g>
    </g>
    <g id="text_7">
     <!-- q (nm) -->
     <g transform="translate(134.771094 216.876563) scale(0.1 -0.1)">
      <defs>
       <path id="DejaVuSans-71" d="M 947 1747 
Q 947 1113 1208 752 
Q 1469 391 1925 391 
Q 2381 391 2643 752 
Q 2906 1113 2906 1747 
Q 2906 2381 2643 2742 
Q 2381 3103 1925 3103 
Q 1469 3103 1208 2742 
Q 947 2381 947 1747 
z
M 2906 525 
Q 2725 213 2448 61 
Q 2172 -91 1784 -91 
Q 1150 -91 751 415 
Q 353 922 353 1747 
Q 353 2572 751 3078 
Q 1150 3584 1784 3584 
Q 2172 3584 2448 3432 
Q 2725 3281 2906 2969 
L 2906 3500 
L 3481 3500 
L 3481 -1331 
L 2906 -1331 
L 2906 525 
z
" transform="scale(0.015625)"/>
       <path id="DejaVuSans-20" transform="scale(0.015625)"/>
       <path id="DejaVuSans-28" d="M 1984 4856 
Q 1566 4138 1362 3434 
Q 1159 2731 1159 2009 
Q 1159 1288 1364 580 
Q 1569 -128 1984 -844 
L 1484 -844 
Q 1016 -109 783 600 
Q 550 1309 550 2009 
Q 550 2706 781 3412 
Q 1013 4119 1484 4856 
L 1984 4856 
z
" transform="scale(0.015625)"/>
       <path id="DejaVuSans-6e" d="M 3513 2113 
L 3513 0 
L 2938 0 
L 2938 2094 
Q 2938 2591 2744 2837 
Q 2550 3084 2163 3084 
Q 1697 3084 1428 2787 
Q 1159 2491 1159 1978 
L 1159 0 
L 581 0 
L 581 3500 
L 1159 3500 
L 1159 2956 
Q 1366 3272 1645 3428 
Q 1925 3584 2291 3584 
Q 2894 3584 3203 3211 
Q 3513 2838 3513 2113 
z
" transform="scale(0.015625)"/>
       <path id="DejaVuSans-6d" d="M 3328 2828 
Q 3544 3216 3844 3400 
Q 4144 3584 4550 3584 
Q 5097 3584 5394 3201 
Q 5691 2819 5691 2113 
L 5691 0 
L 5113 0 
L 5113 2094 
Q 5113 2597 4934 2840 
Q 4756 3084 4391 3084 
Q 3944 3084 3684 2787 
Q 3425 2491 3425 1978 
L 3425 0 
L 2847 0 
L 2847 2094 
Q 2847 2600 2669 2842 
Q 2491 3084 2119 3084 
Q 1678 3084 1418 2786 
Q 1159 2488 1159 1978 
L 1159 0 
L 581 0 
L 581 3500 
L 1159 3500 
L 1159 2956 
Q 1356 3278 1631 3431 
Q 1906 3584 2284 3584 
Q 2666 3584 2933 3390 
Q 3200 3197 3328 2828 
z
" transform="scale(0.015625)"/>
       <path id="DejaVuSans-29" d="M 513 4856 
L 1013 4856 
Q 1481 4119 1714 3412 
Q 1947 2706 1947 2009 
Q 1947 1309 1714 600 
Q 1481 -109 1013 -844 
L 513 -844 
Q 928 -128 1133 580 
Q 1338 1288 1338 2009 
Q 1338 2731 1133 3434 
Q 928 4138 513 4856 
z
" transform="scale(0.015625)"/>
      </defs>
      <use xlink:href="#DejaVuSans-71"/>
      <use xlink:href="#DejaVuSans-20" transform="translate(63.476562 0)"/>
      <use xlink:href="#DejaVuSans-28" transform="translate(95.263672 0)"/>
      <use xlink:href="#DejaVuSans-6e" transform="translate(134.277344 0)"/>
      <use xlink:href="#DejaVuSans-6d" transform="translate(197.65625 0)"/>
      <use xlink:href="#DejaVuSans-29" transform="translate(295.068359 0)"/>
     </g>
    </g>
   </g>
   <g id="matplotlib.axis_2">
    <g id="ytick_1">
     <g id="line2d_7">
      <defs>
       <path id="m9bf5d2f783" d="M 0 0 
L -3.5 0 
" style="stroke: #000000; stroke-width: 0.8"/>
      </defs>
      <g>
       <use xlink:href="#m9bf5d2f783" x="33.7" y="180.687273" style="stroke: #000000; stroke-width: 0.8"/>
      </g>
     </g>
     <g id="text_8">
      <!-- 0 -->
      <g transform="translate(20.3375 184.486491) scale(0.1 -0.1)">
       <use xlink:href="#DejaVuSans-30"/>
      </g>
     </g>
    </g>
    <g id="ytick_2">
     <g id="line2d_8">
      <g>
       <use xlink:href="#m9bf5d2f783" x="33.7" y="156.521252" style="stroke: #000000; stroke-width: 0.8"/>
      </g>
     </g>
     <g id="text_9">
      <!-- 100 -->
      <g transform="translate(7.6125 160.32047) scale(0.1 -0.1)">
       <use xlink:href="#DejaVuSans-31"/>
       <use xlink:href="#DejaVuSans-30" transform="translate(63.623047 0)"/>
       <use xlink:href="#DejaVuSans-30" transform="translate(127.246094 0)"/>
      </g>
     </g>
    </g>
    <g id="ytick_3">
     <g id="line2d_9">
      <g>
       <use xlink:href="#m9bf5d2f783" x="33.7" y="132.355231" style="stroke: #000000; stroke-width: 0.8"/>
      </g>
     </g>
     <g id="text_10">
      <!-- 200 -->
      <g transform="translate(7.6125 136.15445) scale(0.1 -0.1)">
       <use xlink:href="#DejaVuSans-32"/>
       <use xlink:href="#DejaVuSans-30" transform="translate(63.623047 0)"/>
       <use xlink:href="#DejaVuSans-30" transform="translate(127.246094 0)"/>
      </g>
     </g>
    </g>
    <g id="ytick_4">
     <g id="line2d_10">
      <g>
       <use xlink:href="#m9bf5d2f783" x="33.7" y="108.18921" style="stroke: #000000; stroke-width: 0.8"/>
      </g>
     </g>
     <g id="text_11">
      <!-- 300 -->
      <g transform="translate(7.6125 111.988429) scale(0.1 -0.1)">
       <defs>
        <path id="DejaVuSans-33" d="M 2597 2516 
Q 3050 2419 3304 2112 
Q 3559 1806 3559 1356 
Q 3559 666 3084 287 
Q 2609 -91 1734 -91 
Q 1441 -91 1130 -33 
Q 819 25 488 141 
L 488 750 
Q 750 597 1062 519 
Q 1375 441 1716 441 
Q 2309 441 2620 675 
Q 2931 909 2931 1356 
Q 2931 1769 2642 2001 
Q 2353 2234 1838 2234 
L 1294 2234 
L 1294 2753 
L 1863 2753 
Q 2328 2753 2575 2939 
Q 2822 3125 2822 3475 
Q 2822 3834 2567 4026 
Q 2313 4219 1838 4219 
Q 1578 4219 1281 4162 
Q 984 4106 628 3988 
L 628 4550 
Q 988 4650 1302 4700 
Q 1616 4750 1894 4750 
Q 2613 4750 3031 4423 
Q 3450 4097 3450 3541 
Q 3450 3153 3228 2886 
Q 3006 2619 2597 2516 
z
" transform="scale(0.015625)"/>
       </defs>
       <use xlink:href="#DejaVuSans-33"/>
       <use xlink:href="#DejaVuSans-30" transform="translate(63.623047 0)"/>
       <use xlink:href="#DejaVuSans-30" transform="translate(127.246094 0)"/>
      </g>
     </g>
    </g>
    <g id="ytick_5">
     <g id="line2d_11">
      <g>
       <use xlink:href="#m9bf5d2f783" x="33.7" y="84.023189" style="stroke: #000000; stroke-width: 0.8"/>
      </g>
     </g>
     <g id="text_12">
      <!-- 400 -->
      <g transform="translate(7.6125 87.822408) scale(0.1 -0.1)">
       <use xlink:href="#DejaVuSans-34"/>
       <use xlink:href="#DejaVuSans-30" transform="translate(63.623047 0)"/>
       <use xlink:href="#DejaVuSans-30" transform="translate(127.246094 0)"/>
      </g>
     </g>
    </g>
    <g id="ytick_6">
     <g id="line2d_12">
      <g>
       <use xlink:href="#m9bf5d2f783" x="33.7" y="59.857168" style="stroke: #000000; stroke-width: 0.8"/>
      </g>
     </g>
     <g id="text_13">
      <!-- 500 -->
      <g transform="translate(7.6125 63.656387) scale(0.1 -0.1)">
       <defs>
        <path id="DejaVuSans-35" d="M 691 4666 
L 3169 4666 
L 3169 4134 
L 1269 4134 
L 1269 2991 
Q 1406 3038 1543 3061 
Q 1681 3084 1819 3084 
Q 2600 3084 3056 2656 
Q 3513 2228 3513 1497 
Q 3513 744 3044 326 
Q 2575 -91 1722 -91 
Q 1428 -91 1123 -41 
Q 819 9 494 109 
L 494 744 
Q 775 591 1075 516 
Q 1375 441 1709 441 
Q 2250 441 2565 725 
Q 2881 1009 2881 1497 
Q 2881 1984 2565 2268 
Q 2250 2553 1709 2553 
Q 1456 2553 1204 2497 
Q 953 2441 691 2322 
L 691 4666 
z
" transform="scale(0.015625)"/>
       </defs>
       <use xlink:href="#DejaVuSans-35"/>
       <use xlink:href="#DejaVuSans-30" transform="translate(63.623047 0)"/>
       <use xlink:href="#DejaVuSans-30" transform="translate(127.246094 0)"/>
      </g>
     </g>
    </g>
    <g id="ytick_7">
     <g id="line2d_13">
      <g>
       <use xlink:href="#m9bf5d2f783" x="33.7" y="35.691147" style="stroke: #000000; stroke-width: 0.8"/>
      </g>
     </g>
     <g id="text_14">
      <!-- 600 -->
      <g transform="translate(7.6125 39.490366) scale(0.1 -0.1)">
       <use xlink:href="#DejaVuSans-36"/>
       <use xlink:href="#DejaVuSans-30" transform="translate(63.623047 0)"/>
       <use xlink:href="#DejaVuSans-30" transform="translate(127.246094 0)"/>
      </g>
     </g>
    </g>
    <g id="text_15">
     <!-- rdf -->
     <g transform="translate(1.532813 108.462344) rotate(-90) scale(0.1 -0.1)">
      <defs>
       <path id="DejaVuSans-72" d="M 2631 2963 
Q 2534 3019 2420 3045 
Q 2306 3072 2169 3072 
Q 1681 3072 1420 2755 
Q 1159 2438 1159 1844 
L 1159 0 
L 581 0 
L 581 3500 
L 1159 3500 
L 1159 2956 
Q 1341 3275 1631 3429 
Q 1922 3584 2338 3584 
Q 2397 3584 2469 3576 
Q 2541 3569 2628 3553 
L 2631 2963 
z
" transform="scale(0.015625)"/>
       <path id="DejaVuSans-64" d="M 2906 2969 
L 2906 4863 
L 3481 4863 
L 3481 0 
L 2906 0 
L 2906 525 
Q 2725 213 2448 61 
Q 2172 -91 1784 -91 
Q 1150 -91 751 415 
Q 353 922 353 1747 
Q 353 2572 751 3078 
Q 1150 3584 1784 3584 
Q 2172 3584 2448 3432 
Q 2725 3281 2906 2969 
z
M 947 1747 
Q 947 1113 1208 752 
Q 1469 391 1925 391 
Q 2381 391 2643 752 
Q 2906 1113 2906 1747 
Q 2906 2381 2643 2742 
Q 2381 3103 1925 3103 
Q 1469 3103 1208 2742 
Q 947 2381 947 1747 
z
" transform="scale(0.015625)"/>
       <path id="DejaVuSans-66" d="M 2375 4863 
L 2375 4384 
L 1825 4384 
Q 1516 4384 1395 4259 
Q 1275 4134 1275 3809 
L 1275 3500 
L 2222 3500 
L 2222 3053 
L 1275 3053 
L 1275 0 
L 697 0 
L 697 3053 
L 147 3053 
L 147 3500 
L 697 3500 
L 697 3744 
Q 697 4328 969 4595 
Q 1241 4863 1831 4863 
L 2375 4863 
z
" transform="scale(0.015625)"/>
      </defs>
      <use xlink:href="#DejaVuSans-72"/>
      <use xlink:href="#DejaVuSans-64" transform="translate(39.363281 0)"/>
      <use xlink:href="#DejaVuSans-66" transform="translate(102.839844 0)"/>
     </g>
    </g>
   </g>
   <g id="line2d_14">
    <path d="M 44.406818 180.687273 
L 91.634888 180.687273 
L 92.171571 166.170327 
L 92.708254 180.687273 
L 94.854984 180.687273 
L 96.465032 143.989985 
L 97.001715 156.716657 
L 97.538397 180.687273 
L 98.07508 123.122115 
L 98.611762 124.250823 
L 99.148445 147.482885 
L 100.22181 127.444642 
L 100.758493 128.449252 
L 101.295175 160.182633 
L 101.831858 180.687273 
L 102.368541 151.053695 
L 102.905223 180.687273 
L 103.441906 152.116639 
L 103.978589 171.333808 
L 104.515271 153.123495 
L 105.051954 144.580296 
L 105.588636 145.208308 
L 106.125319 154.536768 
L 106.662002 172.119442 
L 107.198684 121.728874 
L 107.735367 147.562969 
L 108.272049 156.258103 
L 108.808732 132.636535 
L 109.345415 149.178607 
L 110.41878 134.942676 
L 111.492145 165.921181 
L 112.028828 115.286157 
L 112.56551 166.3808 
L 113.102193 173.644933 
L 114.175558 146.546628 
L 115.248923 134.322341 
L 116.322289 148.547014 
L 116.858971 161.686713 
L 117.395654 105.794592 
L 117.932337 162.235419 
L 118.469019 168.563062 
L 119.005702 126.907717 
L 119.542384 157.124255 
L 120.079067 174.879486 
L 120.61575 134.874738 
L 121.152432 146.805056 
L 121.689115 163.979859 
L 122.225797 169.701592 
L 122.76248 148.178598 
L 123.299163 153.962762 
L 123.835845 149.048322 
L 124.372528 139.064429 
L 124.909211 134.481768 
L 125.445893 170.554507 
L 125.982576 165.686785 
L 126.519258 151.07593 
L 127.055941 131.971847 
L 127.592624 161.450886 
L 128.665989 161.936312 
L 129.202671 139.028325 
L 129.739354 166.97455 
L 130.276037 135.545989 
L 130.812719 162.85367 
L 131.349402 154.265123 
L 131.886085 154.587358 
L 132.422767 159.200942 
L 132.95945 155.214262 
L 133.496132 147.130056 
L 134.032815 155.81906 
L 134.569498 147.921963 
L 135.10618 148.307496 
L 135.642863 160.686579 
L 136.179545 164.872766 
L 136.716228 161.147659 
L 137.252911 161.372196 
L 137.789593 142.498787 
L 138.326276 131.606363 
L 138.862959 154.557669 
L 139.399641 151.160428 
L 139.936324 133.242097 
L 140.473006 137.378427 
L 141.009689 155.702931 
L 141.546372 134.797752 
L 142.083054 163.230304 
L 142.619737 166.873516 
L 143.156419 153.358409 
L 143.693102 163.790399 
L 144.229785 153.941423 
L 144.766467 160.841256 
L 145.30315 151.233279 
L 145.839833 132.114076 
L 146.376515 158.257146 
L 146.913198 168.003549 
L 147.44988 158.720767 
L 147.986563 137.207163 
L 148.523246 153.022413 
L 149.059928 144.1772 
L 149.596611 165.629201 
L 150.133293 144.912966 
L 150.669976 154.126164 
L 151.206659 139.783174 
L 151.743341 157.54608 
L 152.280024 129.135072 
L 152.816707 149.49357 
L 153.353389 152.60732 
L 153.890072 175.126081 
L 154.426754 144.890473 
L 154.963437 164.325258 
L 155.50012 159.081144 
L 156.036802 145.913181 
L 156.573485 154.192798 
L 157.110167 151.819584 
L 157.64685 133.894671 
L 158.183533 147.210125 
L 158.720215 134.767482 
L 159.256898 150.358852 
L 159.793581 158.151549 
L 160.330263 136.031116 
L 160.866946 156.105952 
L 161.403628 153.894711 
L 161.940311 139.657045 
L 162.476994 151.986721 
L 163.013676 138.024404 
L 163.550359 129.011528 
L 164.087041 164.391804 
L 164.623724 146.078733 
L 165.160407 141.811429 
L 165.697089 151.220528 
L 166.770455 142.825601 
L 167.307137 143.15479 
L 167.84382 145.668331 
L 168.380502 163.328775 
L 168.917185 148.419418 
L 169.453868 146.56244 
L 169.99055 151.082057 
L 170.527233 140.849379 
L 171.063915 157.817782 
L 171.600598 158.009999 
L 172.137281 147.97816 
L 172.673963 144.196264 
L 173.210646 148.519974 
L 173.747329 138.816636 
L 174.284011 158.935573 
L 174.820694 147.34659 
L 175.357376 147.618752 
L 175.894059 151.746337 
L 176.430742 146.239402 
L 176.967424 142.720457 
L 177.504107 158.090144 
L 178.040789 148.930781 
L 178.577472 145.477536 
L 179.114155 154.94914 
L 179.650837 146.032997 
L 180.18752 148.115436 
L 180.724203 153.757042 
L 181.260885 150.404761 
L 181.797568 155.942803 
L 182.33425 159.642141 
L 182.870933 154.583973 
L 183.407616 147.877526 
L 183.944298 136.13379 
L 185.017663 162.1239 
L 185.554346 157.240148 
L 186.091029 144.11969 
L 186.627711 154.292617 
L 187.164394 149.578502 
L 187.701077 164.436361 
L 188.237759 156.492106 
L 188.774442 151.868142 
L 189.311124 153.670101 
L 189.847807 160.179012 
L 190.38449 152.499263 
L 190.921172 155.814137 
L 191.457855 145.192091 
L 191.994537 157.706082 
L 192.53122 156.351023 
L 193.067903 145.955506 
L 193.604585 153.700797 
L 194.141268 153.893485 
L 194.677951 152.606258 
L 195.214633 167.480121 
L 195.751316 158.830844 
L 196.287998 153.197384 
L 196.824681 149.080218 
L 197.361364 153.581149 
L 197.898046 159.436809 
L 198.434729 149.736565 
L 198.971411 145.759304 
L 199.508094 154.325166 
L 200.044777 151.75047 
L 200.581459 153.317093 
L 201.654825 145.589269 
L 202.191507 144.486466 
L 202.72819 150.058005 
L 203.264872 146.295941 
L 203.801555 147.840585 
L 204.338238 153.2806 
L 204.87492 157.352445 
L 205.411603 149.780897 
L 205.948285 148.706308 
L 206.484968 151.45915 
L 207.558333 151.841759 
L 208.631699 157.168367 
L 209.168381 154.861455 
L 209.705064 158.694175 
L 210.241746 155.194125 
L 210.778429 152.945738 
L 211.315112 155.520423 
L 211.851794 150.918222 
L 212.388477 155.84059 
L 212.925159 151.295545 
L 213.461842 143.304017 
L 213.998525 155.148439 
L 214.535207 154.155476 
L 215.07189 152.029274 
L 215.608573 161.321651 
L 216.145255 151.253742 
L 216.681938 155.936709 
L 217.21862 156.08991 
L 217.755303 147.352467 
L 218.291986 154.183592 
L 218.828668 151.053468 
L 219.365351 152.325675 
L 219.902033 143.825119 
L 220.438716 150.514702 
L 220.975399 160.337203 
L 221.512081 159.39539 
L 222.048764 146.825772 
L 222.585447 144.925312 
L 223.122129 155.594657 
L 223.658812 161.980318 
L 224.732177 142.689627 
L 225.26886 148.018836 
L 225.805542 159.37522 
L 226.342225 153.447114 
L 226.878907 159.624791 
L 227.41559 149.776951 
L 227.952273 156.896169 
L 228.488955 151.121196 
L 229.025638 152.272472 
L 229.562321 159.255835 
L 230.099003 142.913915 
L 230.635686 153.723883 
L 231.172368 150.048758 
L 231.709051 153.079583 
L 232.245734 158.916421 
L 232.782416 153.392813 
L 233.319099 152.611732 
L 233.855781 152.770367 
L 234.392464 149.226414 
L 234.929147 156.76405 
L 235.465829 144.088391 
L 236.002512 155.211238 
L 236.539195 153.543631 
L 237.075877 159.992663 
L 237.61256 149.370092 
L 238.149242 152.212553 
L 238.685925 153.254543 
L 239.222608 149.004906 
L 239.75929 152.679368 
L 240.295973 155.443765 
L 240.832656 153.850017 
L 241.369338 157.439832 
L 241.906021 150.715101 
L 242.442703 147.470329 
L 242.979386 154.426346 
L 243.516069 158.78035 
L 244.052751 151.355379 
L 244.589434 141.509431 
L 245.126116 162.446435 
L 245.662799 155.94581 
L 246.199482 156.076998 
L 246.736164 152.127067 
L 247.272847 149.842907 
L 247.80953 154.849644 
L 248.346212 147.756784 
L 248.882895 151.923891 
L 249.419577 148.894965 
L 249.95626 153.013878 
L 250.492943 149.224829 
L 251.029625 158.777775 
L 251.566308 160.447777 
L 252.10299 144.289047 
L 252.639673 149.098814 
L 253.176356 152.32684 
L 253.713038 157.809941 
L 254.249721 156.409343 
L 254.786404 156.532897 
L 255.323086 155.153576 
L 255.859769 161.260352 
L 256.396451 153.180912 
L 256.933134 154.059075 
L 257.469817 158.608569 
L 258.006499 152.86117 
L 258.543182 148.628754 
L 258.543182 148.628754 
" clip-path="url(#pab3dd48e06)" style="fill: none; stroke: #000000; stroke-opacity: 0.5; stroke-width: 0.5; stroke-linecap: square"/>
   </g>
   <g id="line2d_15">
    <path d="M 44.406818 180.687273 
L 91.634888 180.687273 
L 92.171571 136.229121 
L 92.708254 180.687273 
L 94.854984 180.687273 
L 95.391667 141.640022 
L 95.928349 180.687273 
L 96.465032 105.763632 
L 97.001715 180.687273 
L 97.538397 180.687273 
L 98.07508 145.428611 
L 98.611762 180.687273 
L 99.685128 180.687273 
L 100.22181 82.85393 
L 100.758493 116.695689 
L 101.295175 180.687273 
L 102.905223 180.687273 
L 103.441906 93.189698 
L 103.978589 180.687273 
L 104.515271 152.549246 
L 105.051954 153.042865 
L 105.588636 180.687273 
L 106.662002 180.687273 
L 107.198684 129.098666 
L 107.735367 155.326473 
L 108.272049 130.811044 
L 108.808732 131.635472 
L 109.345415 156.563449 
L 110.41878 157.338465 
L 110.955463 134.736747 
L 111.492145 180.687273 
L 112.028828 136.178175 
L 112.56551 136.873693 
L 113.102193 180.687273 
L 113.638876 180.687273 
L 114.712241 139.498684 
L 115.248923 160.402613 
L 115.785606 140.723508 
L 116.322289 161.001363 
L 116.858971 161.290866 
L 117.395654 123.347554 
L 117.932337 180.687273 
L 118.469019 180.687273 
L 119.005702 144.087293 
L 119.542384 126.565961 
L 120.079067 180.687273 
L 120.61575 128.074435 
L 121.689115 163.631787 
L 122.225797 163.865447 
L 122.76248 147.501329 
L 123.299163 147.949744 
L 123.835845 164.538221 
L 124.372528 164.753525 
L 124.909211 133.51915 
L 125.445893 180.687273 
L 127.055941 135.92997 
L 127.592624 151.231551 
L 128.129306 180.687273 
L 128.665989 180.687273 
L 129.202671 123.984807 
L 129.739354 152.69046 
L 130.276037 125.389195 
L 130.812719 167.033418 
L 131.886085 167.365438 
L 132.422767 180.687273 
L 132.95945 141.68172 
L 133.496132 154.995027 
L 134.032815 155.300967 
L 134.569498 180.687273 
L 135.642863 131.685565 
L 136.179545 144.363323 
L 136.716228 168.719258 
L 137.789593 145.601596 
L 138.326276 146.000279 
L 138.862959 157.823865 
L 139.399641 135.474287 
L 139.936324 135.979315 
L 141.009689 180.687273 
L 141.546372 137.445221 
L 142.083054 180.687273 
L 142.619737 148.958798 
L 143.156419 128.378111 
L 143.693102 170.337936 
L 144.229785 149.971331 
L 144.766467 160.427794 
L 145.30315 160.642191 
L 145.839833 141.01916 
L 146.913198 161.265319 
L 147.44988 151.856228 
L 147.986563 114.108351 
L 148.523246 161.859796 
L 149.059928 171.369597 
L 149.596611 162.241133 
L 150.669976 162.610961 
L 151.206659 135.948403 
L 151.743341 154.111057 
L 152.280024 110.518987 
L 152.816707 145.948828 
L 153.890072 163.65612 
L 154.426754 121.656969 
L 154.963437 180.687273 
L 155.50012 172.416175 
L 156.036802 131.535428 
L 156.573485 140.117603 
L 157.110167 132.465105 
L 158.183533 180.687273 
L 158.720215 157.249042 
L 159.256898 157.467071 
L 159.793581 165.35046 
L 160.330263 142.698521 
L 160.866946 173.159242 
L 161.403628 128.472221 
L 161.940311 121.555465 
L 162.476994 158.713408 
L 163.013676 100.84252 
L 163.550359 108.752275 
L 164.087041 173.558004 
L 165.160407 131.663684 
L 165.697089 152.920531 
L 166.770455 139.763254 
L 167.307137 160.40317 
L 167.84382 160.578738 
L 168.380502 167.397171 
L 168.917185 154.335189 
L 169.453868 134.965328 
L 169.99055 141.830419 
L 170.527233 129.31735 
L 171.063915 148.851896 
L 171.600598 174.373713 
L 172.137281 118.079977 
L 173.210646 143.745135 
L 173.747329 107.413652 
L 174.284011 162.519658 
L 174.820694 168.674818 
L 175.357376 138.986893 
L 175.894059 157.052173 
L 176.430742 133.799886 
L 176.967424 134.177919 
L 177.504107 157.619366 
L 178.040789 174.966433 
L 178.577472 157.986254 
L 179.114155 146.90597 
L 179.650837 163.930103 
L 180.18752 152.978586 
L 180.724203 158.694249 
L 181.260885 153.410739 
L 181.797568 153.623003 
L 182.33425 159.203696 
L 182.870933 143.381302 
L 183.407616 159.533615 
L 183.944298 143.952067 
L 184.480981 159.85592 
L 185.017663 154.846209 
L 185.554346 160.171036 
L 186.091029 134.873905 
L 186.627711 160.478862 
L 187.164394 160.630299 
L 188.237759 151.04819 
L 188.774442 141.461229 
L 189.311124 146.617818 
L 189.847807 166.193453 
L 190.38449 142.320256 
L 190.921172 156.882901 
L 191.457855 147.603446 
L 191.994537 166.611293 
L 192.53122 152.738605 
L 193.067903 157.564217 
L 193.604585 148.547125 
L 194.141268 153.335278 
L 194.677951 167.108622 
L 195.214633 167.20497 
L 195.751316 158.3755 
L 196.287998 158.532587 
L 196.824681 149.888351 
L 197.361364 158.841872 
L 197.898046 163.332724 
L 198.434729 146.219438 
L 198.971411 155.015212 
L 199.508094 159.441492 
L 200.044777 151.147618 
L 200.581459 138.776679 
L 201.118142 147.387712 
L 201.654825 164.150712 
L 202.191507 127.307838 
L 202.72819 135.825379 
L 203.264872 160.432761 
L 203.801555 128.378911 
L 204.338238 164.700045 
L 204.87492 168.776787 
L 205.411603 145.193227 
L 205.948285 157.18126 
L 206.484968 157.33654 
L 207.021651 149.757673 
L 207.558333 146.119682 
L 208.631699 169.314642 
L 209.168381 154.323415 
L 209.705064 150.752219 
L 210.241746 158.380764 
L 210.778429 154.830349 
L 211.315112 147.655778 
L 212.388477 162.569898 
L 212.925159 151.883373 
L 213.461842 137.754937 
L 213.998525 145.136053 
L 214.535207 145.3596 
L 215.07189 163.134246 
L 216.145255 156.418759 
L 216.681938 160.014926 
L 217.21862 143.022558 
L 217.755303 167.075559 
L 218.291986 160.395389 
L 218.828668 160.51982 
L 219.365351 150.621247 
L 219.902033 144.163921 
L 220.438716 141.085766 
L 220.975399 157.726501 
L 221.512081 161.125353 
L 222.048764 148.280751 
L 222.585447 138.811584 
L 223.122129 151.869966 
L 223.658812 161.590589 
L 224.195494 139.557369 
L 224.732177 146.09144 
L 225.26886 146.296085 
L 225.805542 158.931215 
L 226.342225 149.789865 
L 226.878907 159.185987 
L 227.41559 153.204504 
L 228.488955 147.487029 
L 229.025638 153.680959 
L 229.562321 156.820442 
L 230.099003 148.059321 
L 230.635686 160.043425 
L 231.172368 145.500851 
L 231.709051 139.870725 
L 232.245734 163.294253 
L 232.782416 151.863376 
L 234.392464 152.349363 
L 234.929147 146.872713 
L 235.465829 144.259942 
L 236.002512 163.968622 
L 236.539195 155.749048 
L 237.075877 155.88748 
L 237.61256 145.063978 
L 238.149242 153.436072 
L 238.685925 148.166212 
L 239.222608 140.259245 
L 239.75929 151.202387 
L 240.295973 167.358262 
L 240.832656 159.477181 
L 241.369338 156.955507 
L 241.906021 141.348792 
L 242.442703 146.778307 
L 243.516069 147.142294 
L 244.052751 144.755701 
L 244.589434 152.606344 
L 245.126116 167.991233 
L 245.662799 150.378978 
L 246.199482 155.564281 
L 246.736164 150.699053 
L 247.272847 140.914267 
L 247.80953 153.48711 
L 248.346212 148.71056 
L 249.419577 158.780383 
L 249.95626 156.47305 
L 250.492943 139.736933 
L 251.029625 151.931052 
L 251.566308 159.231459 
L 252.10299 142.740182 
L 252.639673 142.935207 
L 253.713038 166.674906 
L 254.249721 152.805584 
L 254.786404 164.505726 
L 255.323086 155.388257 
L 255.859769 160.092868 
L 256.396451 157.920179 
L 256.933134 151.239072 
L 257.469817 151.38699 
L 258.006499 156.019065 
L 258.543182 153.911122 
L 258.543182 153.911122 
" clip-path="url(#pab3dd48e06)" style="fill: none; stroke: #0000ff; stroke-opacity: 0.5; stroke-linecap: square"/>
   </g>
   <g id="line2d_16">
    <path d="M 44.406818 180.687273 
L 101.831858 180.687273 
L 102.368541 73.128353 
L 102.905223 180.687273 
L 104.515271 180.687273 
L 105.051954 82.396061 
L 105.588636 84.105647 
L 106.125319 180.687273 
L 106.662002 134.040196 
L 107.198684 180.687273 
L 107.735367 135.601411 
L 108.272049 180.687273 
L 109.345415 94.913688 
L 109.882097 138.497835 
L 110.41878 97.669299 
L 110.955463 180.687273 
L 111.492145 140.490687 
L 112.028828 22.432727 
L 112.56551 180.687273 
L 113.102193 180.687273 
L 113.638876 105.183708 
L 114.712241 180.687273 
L 115.248923 144.625659 
L 115.785606 145.16393 
L 116.322289 110.692939 
L 116.858971 146.204777 
L 117.395654 146.708186 
L 117.932337 180.687273 
L 118.469019 180.687273 
L 119.005702 83.087338 
L 119.542384 148.615387 
L 120.079067 180.687273 
L 120.61575 149.509297 
L 121.689115 150.366411 
L 122.225797 180.687273 
L 122.76248 121.690045 
L 123.299163 122.487226 
L 123.835845 180.687273 
L 124.372528 95.707307 
L 124.909211 96.832847 
L 125.445893 153.103633 
L 125.982576 180.687273 
L 126.519258 180.687273 
L 127.055941 154.16443 
L 127.592624 180.687273 
L 128.129306 154.837971 
L 128.665989 155.165132 
L 129.202671 79.882907 
L 129.739354 155.80122 
L 130.276037 106.956513 
L 130.812719 156.413757 
L 131.349402 108.760306 
L 131.886085 133.320758 
L 132.422767 110.498596 
L 132.95945 157.572873 
L 133.496132 180.687273 
L 134.032815 158.12167 
L 134.569498 113.791437 
L 135.10618 136.614798 
L 135.642863 180.687273 
L 136.179545 159.161973 
L 136.716228 159.410803 
L 137.252911 180.687273 
L 137.789593 139.104253 
L 138.326276 77.911003 
L 138.862959 160.364247 
L 139.399641 160.592614 
L 139.936324 121.076673 
L 140.473006 62.790971 
L 141.009689 141.822742 
L 141.546372 180.687273 
L 142.083054 161.678573 
L 142.619737 180.687273 
L 143.156419 143.489654 
L 143.693102 162.288456 
L 144.229785 126.081166 
L 144.766467 162.678851 
L 145.30315 162.869425 
L 145.839833 145.42673 
L 146.376515 163.241619 
L 146.913198 163.423316 
L 147.44988 180.687273 
L 147.986563 113.051545 
L 148.523246 130.480675 
L 149.059928 130.993009 
L 149.596611 147.894138 
L 150.133293 115.763526 
L 150.669976 148.551609 
L 151.206659 132.965823 
L 151.743341 133.440674 
L 152.280024 149.501372 
L 152.816707 149.808658 
L 153.353389 119.535373 
L 153.890072 180.687273 
L 154.426754 165.695451 
L 155.50012 165.983101 
L 156.036802 180.687273 
L 156.573485 137.412967 
L 157.110167 152.111178 
L 157.64685 95.767368 
L 158.183533 110.585553 
L 158.720215 139.019316 
L 159.256898 153.167038 
L 159.793581 139.78911 
L 160.330263 153.673055 
L 160.866946 140.537783 
L 161.403628 167.426308 
L 161.940311 154.406472 
L 162.476994 154.644178 
L 163.013676 141.974672 
L 163.550359 142.321948 
L 164.087041 168.01302 
L 164.623724 143.002421 
L 165.160407 130.885534 
L 165.697089 168.3465 
L 166.233772 168.454736 
L 166.770455 120.059101 
L 167.307137 120.586232 
L 167.84382 133.022606 
L 168.380502 168.87385 
L 169.453868 145.851509 
L 169.99055 146.147854 
L 170.527233 135.025127 
L 171.063915 158.048788 
L 171.600598 147.014959 
L 172.137281 180.687273 
L 173.210646 136.904004 
L 173.747329 148.121225 
L 174.284011 137.623302 
L 175.894059 138.669323 
L 176.430742 170.267855 
L 177.504107 170.434871 
L 178.040789 140.005751 
L 178.577472 140.329911 
L 179.114155 160.668724 
L 179.650837 140.966581 
L 180.18752 141.279372 
L 180.724203 161.13792 
L 181.260885 151.59231 
L 181.797568 171.064423 
L 182.33425 171.139018 
L 182.870933 161.738212 
L 183.944298 124.709821 
L 184.480981 162.170518 
L 185.017663 180.687273 
L 185.554346 162.45062 
L 186.091029 135.439507 
L 186.627711 153.742729 
L 187.164394 118.287809 
L 187.701077 171.839554 
L 188.237759 171.905323 
L 188.774442 154.536582 
L 189.847807 172.098343 
L 190.38449 155.109266 
L 190.921172 172.223498 
L 191.457855 138.676067 
L 191.994537 155.663311 
L 192.53122 155.844018 
L 193.604585 172.524696 
L 194.141268 156.374392 
L 194.677951 148.500844 
L 195.214633 148.729226 
L 195.751316 156.888053 
L 196.287998 133.423955 
L 196.824681 141.577535 
L 197.361364 157.385518 
L 197.898046 142.121617 
L 198.434729 119.411129 
L 198.971411 150.261129 
L 199.508094 150.471055 
L 200.044777 143.176601 
L 200.581459 143.433417 
L 201.118142 165.887469 
L 201.654825 129.240201 
L 202.191507 144.188517 
L 202.72819 173.436866 
L 203.264872 123.074448 
L 203.801555 152.074156 
L 204.338238 123.843803 
L 204.87492 159.51308 
L 205.411603 152.642597 
L 205.948285 124.969321 
L 206.484968 166.849803 
L 207.021651 160.067542 
L 207.558333 160.202779 
L 208.095016 167.120181 
L 208.631699 140.251258 
L 209.168381 173.99169 
L 209.705064 147.426106 
L 210.241746 154.249933 
L 210.778429 167.553599 
L 211.315112 154.588317 
L 211.851794 148.272082 
L 212.388477 148.478609 
L 212.925159 161.484676 
L 213.461842 180.687273 
L 213.998525 161.726626 
L 214.535207 168.126325 
L 215.07189 143.240822 
L 215.608573 155.879023 
L 216.145255 137.543255 
L 217.21862 162.425595 
L 217.755303 138.339728 
L 218.291986 156.637637 
L 218.828668 144.834029 
L 219.365351 150.992437 
L 219.902033 127.562404 
L 220.975399 163.193354 
L 222.048764 140.359167 
L 223.658812 175.028996 
L 224.195494 163.813469 
L 224.732177 147.139805 
L 225.26886 141.780075 
L 225.805542 158.585884 
L 226.342225 158.715787 
L 226.878907 169.765986 
L 227.41559 137.257718 
L 227.952273 169.893161 
L 228.488955 159.224492 
L 229.025638 138.010635 
L 229.562321 164.776054 
L 230.099003 133.228439 
L 230.635686 154.472863 
L 231.172368 144.197654 
L 231.709051 165.138115 
L 232.245734 144.612867 
L 232.782416 149.941789 
L 233.319099 160.306511 
L 233.855781 140.156063 
L 234.929147 170.668146 
L 235.465829 155.7797 
L 236.002512 165.826253 
L 236.539195 146.204795 
L 237.075877 161.092377 
L 237.61256 146.586346 
L 238.149242 166.153302 
L 238.685925 171.051404 
L 239.222608 142.355522 
L 239.75929 142.565404 
L 240.295973 147.512853 
L 240.832656 147.693803 
L 241.369338 152.560742 
L 241.906021 152.713247 
L 242.442703 125.041798 
L 242.979386 153.01447 
L 243.516069 148.575843 
L 244.052751 153.310841 
L 244.589434 121.688965 
L 245.126116 158.116541 
L 245.662799 153.74657 
L 246.199482 167.288347 
L 246.736164 140.702984 
L 247.272847 158.591162 
L 247.80953 149.915376 
L 248.346212 150.077091 
L 248.882895 163.287203 
L 249.419577 146.068983 
L 249.95626 141.94452 
L 251.029625 167.906732 
L 251.566308 159.496348 
L 252.10299 138.523842 
L 252.639673 147.129886 
L 253.176356 159.821487 
L 253.713038 147.472778 
L 254.249721 143.511694 
L 254.786404 151.920082 
L 255.323086 156.154897 
L 255.859769 164.415153 
L 256.396451 128.070003 
L 256.933134 140.416234 
L 257.469817 164.65977 
L 258.006499 144.806244 
L 258.543182 137.052066 
L 258.543182 137.052066 
" clip-path="url(#pab3dd48e06)" style="fill: none; stroke: #ff0000; stroke-opacity: 0.5; stroke-linecap: square"/>
   </g>
   <g id="patch_3">
    <path d="M 33.7 188.6 
L 33.7 14.52 
" style="fill: none; stroke: #000000; stroke-width: 0.8; stroke-linejoin: miter; stroke-linecap: square"/>
   </g>
   <g id="patch_4">
    <path d="M 269.25 188.6 
L 269.25 14.52 
" style="fill: none; stroke: #000000; stroke-width: 0.8; stroke-linejoin: miter; stroke-linecap: square"/>
   </g>
   <g id="patch_5">
    <path d="M 33.7 188.6 
L 269.25 188.6 
" style="fill: none; stroke: #000000; stroke-width: 0.8; stroke-linejoin: miter; stroke-linecap: square"/>
   </g>
   <g id="patch_6">
    <path d="M 33.7 14.52 
L 269.25 14.52 
" style="fill: none; stroke: #000000; stroke-width: 0.8; stroke-linejoin: miter; stroke-linecap: square"/>
   </g>
   <g id="legend_1">
    <g id="patch_7">
     <path d="M 213.917188 66.554375 
L 262.25 66.554375 
Q 264.25 66.554375 264.25 64.554375 
L 264.25 21.52 
Q 264.25 19.52 262.25 19.52 
L 213.917188 19.52 
Q 211.917188 19.52 211.917188 21.52 
L 211.917188 64.554375 
Q 211.917188 66.554375 213.917188 66.554375 
z
" style="fill: #ffffff; opacity: 0.8; stroke: #cccccc; stroke-linejoin: miter"/>
    </g>
    <g id="line2d_17">
     <path d="M 215.917188 27.618438 
L 225.917188 27.618438 
L 235.917188 27.618438 
" style="fill: none; stroke: #000000; stroke-opacity: 0.5; stroke-width: 0.5; stroke-linecap: square"/>
    </g>
    <g id="text_16">
     <!-- all -->
     <g transform="translate(243.917188 31.118438) scale(0.1 -0.1)">
      <defs>
       <path id="DejaVuSans-61" d="M 2194 1759 
Q 1497 1759 1228 1600 
Q 959 1441 959 1056 
Q 959 750 1161 570 
Q 1363 391 1709 391 
Q 2188 391 2477 730 
Q 2766 1069 2766 1631 
L 2766 1759 
L 2194 1759 
z
M 3341 1997 
L 3341 0 
L 2766 0 
L 2766 531 
Q 2569 213 2275 61 
Q 1981 -91 1556 -91 
Q 1019 -91 701 211 
Q 384 513 384 1019 
Q 384 1609 779 1909 
Q 1175 2209 1959 2209 
L 2766 2209 
L 2766 2266 
Q 2766 2663 2505 2880 
Q 2244 3097 1772 3097 
Q 1472 3097 1187 3025 
Q 903 2953 641 2809 
L 641 3341 
Q 956 3463 1253 3523 
Q 1550 3584 1831 3584 
Q 2591 3584 2966 3190 
Q 3341 2797 3341 1997 
z
" transform="scale(0.015625)"/>
       <path id="DejaVuSans-6c" d="M 603 4863 
L 1178 4863 
L 1178 0 
L 603 0 
L 603 4863 
z
" transform="scale(0.015625)"/>
      </defs>
      <use xlink:href="#DejaVuSans-61"/>
      <use xlink:href="#DejaVuSans-6c" transform="translate(61.279297 0)"/>
      <use xlink:href="#DejaVuSans-6c" transform="translate(89.0625 0)"/>
     </g>
    </g>
    <g id="line2d_18">
     <path d="M 215.917188 42.296563 
L 225.917188 42.296563 
L 235.917188 42.296563 
" style="fill: none; stroke: #0000ff; stroke-opacity: 0.5; stroke-linecap: square"/>
    </g>
    <g id="text_17">
     <!-- 1-1 -->
     <g transform="translate(243.917188 45.796563) scale(0.1 -0.1)">
      <defs>
       <path id="DejaVuSans-2d" d="M 313 2009 
L 1997 2009 
L 1997 1497 
L 313 1497 
L 313 2009 
z
" transform="scale(0.015625)"/>
      </defs>
      <use xlink:href="#DejaVuSans-31"/>
      <use xlink:href="#DejaVuSans-2d" transform="translate(63.623047 0)"/>
      <use xlink:href="#DejaVuSans-31" transform="translate(99.707031 0)"/>
     </g>
    </g>
    <g id="line2d_19">
     <path d="M 215.917188 56.974688 
L 225.917188 56.974688 
L 235.917188 56.974688 
" style="fill: none; stroke: #ff0000; stroke-opacity: 0.5; stroke-linecap: square"/>
    </g>
    <g id="text_18">
     <!-- 2-2 -->
     <g transform="translate(243.917188 60.474688) scale(0.1 -0.1)">
      <use xlink:href="#DejaVuSans-32"/>
      <use xlink:href="#DejaVuSans-2d" transform="translate(63.623047 0)"/>
      <use xlink:href="#DejaVuSans-32" transform="translate(99.707031 0)"/>
     </g>
    </g>
   </g>
  </g>
 </g>
 <defs>
  <clipPath id="pab3dd48e06">
   <rect x="33.7" y="14.52" width="235.55" height="174.08"/>
  </clipPath>
 </defs>
</svg>
