<?xml version="1.0" encoding="utf-8" standalone="no"?>
<!DOCTYPE svg PUBLIC "-//W3C//DTD SVG 1.1//EN"
  "http://www.w3.org/Graphics/SVG/1.1/DTD/svg11.dtd">
<svg xmlns:xlink="http://www.w3.org/1999/xlink" width="288pt" height="216pt" viewBox="0 0 288 216" xmlns="http://www.w3.org/2000/svg" version="1.1">
 <metadata>
  <rdf:RDF xmlns:dc="http://purl.org/dc/elements/1.1/" xmlns:cc="http://creativecommons.org/ns#" xmlns:rdf="http://www.w3.org/1999/02/22-rdf-syntax-ns#">
   <cc:Work>
    <dc:type rdf:resource="http://purl.org/dc/dcmitype/StillImage"/>
    <dc:date>2025-09-17T23:36:59.777155</dc:date>
    <dc:format>image/svg+xml</dc:format>
    <dc:creator>
     <cc:Agent>
      <dc:title>Matplotlib v3.10.0, https://matplotlib.org/</dc:title>
     </cc:Agent>
    </dc:creator>
   </cc:Work>
  </rdf:RDF>
 </metadata>
 <defs>
  <style type="text/css">*{stroke-linejoin: round; stroke-linecap: butt}</style>
 </defs>
 <g id="figure_1">
  <g id="patch_1">
   <path d="M 0 216 
L 288 216 
L 288 0 
L 0 0 
z
" style="fill: #ffffff"/>
  </g>
  <g id="axes_1">
   <g id="patch_2">
    <path d="M 33.7 188.6 
L 269.25 188.6 
L 269.25 14.52 
L 33.7 14.52 
z
" style="fill: #ffffff"/>
   </g>
   <g id="matplotlib.axis_1">
    <g id="xtick_1">
     <g id="line2d_1">
      <defs>
       <path id="md946177603" d="M 0 0 
L 0 3.5 
" style="stroke: #000000; stroke-width: 0.8"/>
      </defs>
      <g>
       <use xlink:href="#md946177603" x="44.138477" y="188.6" style="stroke: #000000; stroke-width: 0.8"/>
      </g>
     </g>
     <g id="text_1">
      <!-- 0 -->
      <g transform="translate(40.957227 203.198437) scale(0.1 -0.1)">
       <defs>
        <path id="DejaVuSans-30" d="M 2034 4250 
Q 1547 4250 1301 3770 
Q 1056 3291 1056 2328 
Q 1056 1369 1301 889 
Q 1547 409 2034 409 
Q 2525 409 2770 889 
Q 3016 1369 3016 2328 
Q 3016 3291 2770 3770 
Q 2525 4250 2034 4250 
z
M 2034 4750 
Q 2819 4750 3233 4129 
Q 3647 3509 3647 2328 
Q 3647 1150 3233 529 
Q 2819 -91 2034 -91 
Q 1250 -91 836 529 
Q 422 1150 422 2328 
Q 422 3509 836 4129 
Q 1250 4750 2034 4750 
z
" transform="scale(0.015625)"/>
       </defs>
       <use xlink:href="#DejaVuSans-30"/>
      </g>
     </g>
    </g>
    <g id="xtick_2">
     <g id="line2d_2">
      <g>
       <use xlink:href="#md946177603" x="87.073086" y="188.6" style="stroke: #000000; stroke-width: 0.8"/>
      </g>
     </g>
     <g id="text_2">
      <!-- 200 -->
      <g transform="translate(77.529336 203.198437) scale(0.1 -0.1)">
       <defs>
        <path id="DejaVuSans-32" d="M 1228 531 
L 3431 531 
L 3431 0 
L 469 0 
L 469 531 
Q 828 903 1448 1529 
Q 2069 2156 2228 2338 
Q 2531 2678 2651 2914 
Q 2772 3150 2772 3378 
Q 2772 3750 2511 3984 
Q 2250 4219 1831 4219 
Q 1534 4219 1204 4116 
Q 875 4013 500 3803 
L 500 4441 
Q 881 4594 1212 4672 
Q 1544 4750 1819 4750 
Q 2544 4750 2975 4387 
Q 3406 4025 3406 3419 
Q 3406 3131 3298 2873 
Q 3191 2616 2906 2266 
Q 2828 2175 2409 1742 
Q 1991 1309 1228 531 
z
" transform="scale(0.015625)"/>
       </defs>
       <use xlink:href="#DejaVuSans-32"/>
       <use xlink:href="#DejaVuSans-30" transform="translate(63.623047 0)"/>
       <use xlink:href="#DejaVuSans-30" transform="translate(127.246094 0)"/>
      </g>
     </g>
    </g>
    <g id="xtick_3">
     <g id="line2d_3">
      <g>
       <use xlink:href="#md946177603" x="130.007695" y="188.6" style="stroke: #000000; stroke-width: 0.8"/>
      </g>
     </g>
     <g id="text_3">
      <!-- 400 -->
      <g transform="translate(120.463945 203.198437) scale(0.1 -0.1)">
       <defs>
        <path id="DejaVuSans-34" d="M 2419 4116 
L 825 1625 
L 2419 1625 
L 2419 4116 
z
M 2253 4666 
L 3047 4666 
L 3047 1625 
L 3713 1625 
L 3713 1100 
L 3047 1100 
L 3047 0 
L 2419 0 
L 2419 1100 
L 313 1100 
L 313 1709 
L 2253 4666 
z
" transform="scale(0.015625)"/>
       </defs>
       <use xlink:href="#DejaVuSans-34"/>
       <use xlink:href="#DejaVuSans-30" transform="translate(63.623047 0)"/>
       <use xlink:href="#DejaVuSans-30" transform="translate(127.246094 0)"/>
      </g>
     </g>
    </g>
    <g id="xtick_4">
     <g id="line2d_4">
      <g>
       <use xlink:href="#md946177603" x="172.942305" y="188.6" style="stroke: #000000; stroke-width: 0.8"/>
      </g>
     </g>
     <g id="text_4">
      <!-- 600 -->
      <g transform="translate(163.398555 203.198437) scale(0.1 -0.1)">
       <defs>
        <path id="DejaVuSans-36" d="M 2113 2584 
Q 1688 2584 1439 2293 
Q 1191 2003 1191 1497 
Q 1191 994 1439 701 
Q 1688 409 2113 409 
Q 2538 409 2786 701 
Q 3034 994 3034 1497 
Q 3034 2003 2786 2293 
Q 2538 2584 2113 2584 
z
M 3366 4563 
L 3366 3988 
Q 3128 4100 2886 4159 
Q 2644 4219 2406 4219 
Q 1781 4219 1451 3797 
Q 1122 3375 1075 2522 
Q 1259 2794 1537 2939 
Q 1816 3084 2150 3084 
Q 2853 3084 3261 2657 
Q 3669 2231 3669 1497 
Q 3669 778 3244 343 
Q 2819 -91 2113 -91 
Q 1303 -91 875 529 
Q 447 1150 447 2328 
Q 447 3434 972 4092 
Q 1497 4750 2381 4750 
Q 2619 4750 2861 4703 
Q 3103 4656 3366 4563 
z
" transform="scale(0.015625)"/>
       </defs>
       <use xlink:href="#DejaVuSans-36"/>
       <use xlink:href="#DejaVuSans-30" transform="translate(63.623047 0)"/>
       <use xlink:href="#DejaVuSans-30" transform="translate(127.246094 0)"/>
      </g>
     </g>
    </g>
    <g id="xtick_5">
     <g id="line2d_5">
      <g>
       <use xlink:href="#md946177603" x="215.876914" y="188.6" style="stroke: #000000; stroke-width: 0.8"/>
      </g>
     </g>
     <g id="text_5">
      <!-- 800 -->
      <g transform="translate(206.333164 203.198437) scale(0.1 -0.1)">
       <defs>
        <path id="DejaVuSans-38" d="M 2034 2216 
Q 1584 2216 1326 1975 
Q 1069 1734 1069 1313 
Q 1069 891 1326 650 
Q 1584 409 2034 409 
Q 2484 409 2743 651 
Q 3003 894 3003 1313 
Q 3003 1734 2745 1975 
Q 2488 2216 2034 2216 
z
M 1403 2484 
Q 997 2584 770 2862 
Q 544 3141 544 3541 
Q 544 4100 942 4425 
Q 1341 4750 2034 4750 
Q 2731 4750 3128 4425 
Q 3525 4100 3525 3541 
Q 3525 3141 3298 2862 
Q 3072 2584 2669 2484 
Q 3125 2378 3379 2068 
Q 3634 1759 3634 1313 
Q 3634 634 3220 271 
Q 2806 -91 2034 -91 
Q 1263 -91 848 271 
Q 434 634 434 1313 
Q 434 1759 690 2068 
Q 947 2378 1403 2484 
z
M 1172 3481 
Q 1172 3119 1398 2916 
Q 1625 2713 2034 2713 
Q 2441 2713 2670 2916 
Q 2900 3119 2900 3481 
Q 2900 3844 2670 4047 
Q 2441 4250 2034 4250 
Q 1625 4250 1398 4047 
Q 1172 3844 1172 3481 
z
" transform="scale(0.015625)"/>
       </defs>
       <use xlink:href="#DejaVuSans-38"/>
       <use xlink:href="#DejaVuSans-30" transform="translate(63.623047 0)"/>
       <use xlink:href="#DejaVuSans-30" transform="translate(127.246094 0)"/>
      </g>
     </g>
    </g>
    <g id="xtick_6">
     <g id="line2d_6">
      <g>
       <use xlink:href="#md946177603" x="258.811523" y="188.6" style="stroke: #000000; stroke-width: 0.8"/>
      </g>
     </g>
     <g id="text_6">
      <!-- 1000 -->
      <g transform="translate(246.086523 203.198437) scale(0.1 -0.1)">
       <defs>
        <path id="DejaVuSans-31" d="M 794 531 
L 1825 531 
L 1825 4091 
L 703 3866 
L 703 4441 
L 1819 4666 
L 2450 4666 
L 2450 531 
L 3481 531 
L 3481 0 
L 794 0 
L 794 531 
z
" transform="scale(0.015625)"/>
       </defs>
       <use xlink:href="#DejaVuSans-31"/>
       <use xlink:href="#DejaVuSans-30" transform="translate(63.623047 0)"/>
       <use xlink:href="#DejaVuSans-30" transform="translate(127.246094 0)"/>
       <use xlink:href="#DejaVuSans-30" transform="translate(190.869141 0)"/>
      </g>
     </g>
    </g>
    <g id="text_7">
     <!-- q (nm) -->
     <g transform="translate(134.771094 216.876563) scale(0.1 -0.1)">
      <defs>
       <path id="DejaVuSans-71" d="M 947 1747 
Q 947 1113 1208 752 
Q 1469 391 1925 391 
Q 2381 391 2643 752 
Q 2906 1113 2906 1747 
Q 2906 2381 2643 2742 
Q 2381 3103 1925 3103 
Q 1469 3103 1208 2742 
Q 947 2381 947 1747 
z
M 2906 525 
Q 2725 213 2448 61 
Q 2172 -91 1784 -91 
Q 1150 -91 751 415 
Q 353 922 353 1747 
Q 353 2572 751 3078 
Q 1150 3584 1784 3584 
Q 2172 3584 2448 3432 
Q 2725 3281 2906 2969 
L 2906 3500 
L 3481 3500 
L 3481 -1331 
L 2906 -1331 
L 2906 525 
z
" transform="scale(0.015625)"/>
       <path id="DejaVuSans-20" transform="scale(0.015625)"/>
       <path id="DejaVuSans-28" d="M 1984 4856 
Q 1566 4138 1362 3434 
Q 1159 2731 1159 2009 
Q 1159 1288 1364 580 
Q 1569 -128 1984 -844 
L 1484 -844 
Q 1016 -109 783 600 
Q 550 1309 550 2009 
Q 550 2706 781 3412 
Q 1013 4119 1484 4856 
L 1984 4856 
z
" transform="scale(0.015625)"/>
       <path id="DejaVuSans-6e" d="M 3513 2113 
L 3513 0 
L 2938 0 
L 2938 2094 
Q 2938 2591 2744 2837 
Q 2550 3084 2163 3084 
Q 1697 3084 1428 2787 
Q 1159 2491 1159 1978 
L 1159 0 
L 581 0 
L 581 3500 
L 1159 3500 
L 1159 2956 
Q 1366 3272 1645 3428 
Q 1925 3584 2291 3584 
Q 2894 3584 3203 3211 
Q 3513 2838 3513 2113 
z
" transform="scale(0.015625)"/>
       <path id="DejaVuSans-6d" d="M 3328 2828 
Q 3544 3216 3844 3400 
Q 4144 3584 4550 3584 
Q 5097 3584 5394 3201 
Q 5691 2819 5691 2113 
L 5691 0 
L 5113 0 
L 5113 2094 
Q 5113 2597 4934 2840 
Q 4756 3084 4391 3084 
Q 3944 3084 3684 2787 
Q 3425 2491 3425 1978 
L 3425 0 
L 2847 0 
L 2847 2094 
Q 2847 2600 2669 2842 
Q 2491 3084 2119 3084 
Q 1678 3084 1418 2786 
Q 1159 2488 1159 1978 
L 1159 0 
L 581 0 
L 581 3500 
L 1159 3500 
L 1159 2956 
Q 1356 3278 1631 3431 
Q 1906 3584 2284 3584 
Q 2666 3584 2933 3390 
Q 3200 3197 3328 2828 
z
" transform="scale(0.015625)"/>
       <path id="DejaVuSans-29" d="M 513 4856 
L 1013 4856 
Q 1481 4119 1714 3412 
Q 1947 2706 1947 2009 
Q 1947 1309 1714 600 
Q 1481 -109 1013 -844 
L 513 -844 
Q 928 -128 1133 580 
Q 1338 1288 1338 2009 
Q 1338 2731 1133 3434 
Q 928 4138 513 4856 
z
" transform="scale(0.015625)"/>
      </defs>
      <use xlink:href="#DejaVuSans-71"/>
      <use xlink:href="#DejaVuSans-20" transform="translate(63.476562 0)"/>
      <use xlink:href="#DejaVuSans-28" transform="translate(95.263672 0)"/>
      <use xlink:href="#DejaVuSans-6e" transform="translate(134.277344 0)"/>
      <use xlink:href="#DejaVuSans-6d" transform="translate(197.65625 0)"/>
      <use xlink:href="#DejaVuSans-29" transform="translate(295.068359 0)"/>
     </g>
    </g>
   </g>
   <g id="matplotlib.axis_2">
    <g id="ytick_1">
     <g id="line2d_7">
      <defs>
       <path id="m59afdae442" d="M 0 0 
L -3.5 0 
" style="stroke: #000000; stroke-width: 0.8"/>
      </defs>
      <g>
       <use xlink:href="#m59afdae442" x="33.7" y="180.687273" style="stroke: #000000; stroke-width: 0.8"/>
      </g>
     </g>
     <g id="text_8">
      <!-- 0 -->
      <g transform="translate(20.3375 184.486491) scale(0.1 -0.1)">
       <use xlink:href="#DejaVuSans-30"/>
      </g>
     </g>
    </g>
    <g id="ytick_2">
     <g id="line2d_8">
      <g>
       <use xlink:href="#m59afdae442" x="33.7" y="145.075303" style="stroke: #000000; stroke-width: 0.8"/>
      </g>
     </g>
     <g id="text_9">
      <!-- 20000 -->
      <g transform="translate(-5.1125 148.874521) scale(0.1 -0.1)">
       <use xlink:href="#DejaVuSans-32"/>
       <use xlink:href="#DejaVuSans-30" transform="translate(63.623047 0)"/>
       <use xlink:href="#DejaVuSans-30" transform="translate(127.246094 0)"/>
       <use xlink:href="#DejaVuSans-30" transform="translate(190.869141 0)"/>
       <use xlink:href="#DejaVuSans-30" transform="translate(254.492188 0)"/>
      </g>
     </g>
    </g>
    <g id="ytick_3">
     <g id="line2d_9">
      <g>
       <use xlink:href="#m59afdae442" x="33.7" y="109.463333" style="stroke: #000000; stroke-width: 0.8"/>
      </g>
     </g>
     <g id="text_10">
      <!-- 40000 -->
      <g transform="translate(-5.1125 113.262551) scale(0.1 -0.1)">
       <use xlink:href="#DejaVuSans-34"/>
       <use xlink:href="#DejaVuSans-30" transform="translate(63.623047 0)"/>
       <use xlink:href="#DejaVuSans-30" transform="translate(127.246094 0)"/>
       <use xlink:href="#DejaVuSans-30" transform="translate(190.869141 0)"/>
       <use xlink:href="#DejaVuSans-30" transform="translate(254.492188 0)"/>
      </g>
     </g>
    </g>
    <g id="ytick_4">
     <g id="line2d_10">
      <g>
       <use xlink:href="#m59afdae442" x="33.7" y="73.851362" style="stroke: #000000; stroke-width: 0.8"/>
      </g>
     </g>
     <g id="text_11">
      <!-- 60000 -->
      <g transform="translate(-5.1125 77.650581) scale(0.1 -0.1)">
       <use xlink:href="#DejaVuSans-36"/>
       <use xlink:href="#DejaVuSans-30" transform="translate(63.623047 0)"/>
       <use xlink:href="#DejaVuSans-30" transform="translate(127.246094 0)"/>
       <use xlink:href="#DejaVuSans-30" transform="translate(190.869141 0)"/>
       <use xlink:href="#DejaVuSans-30" transform="translate(254.492188 0)"/>
      </g>
     </g>
    </g>
    <g id="ytick_5">
     <g id="line2d_11">
      <g>
       <use xlink:href="#m59afdae442" x="33.7" y="38.239392" style="stroke: #000000; stroke-width: 0.8"/>
      </g>
     </g>
     <g id="text_12">
      <!-- 80000 -->
      <g transform="translate(-5.1125 42.038611) scale(0.1 -0.1)">
       <use xlink:href="#DejaVuSans-38"/>
       <use xlink:href="#DejaVuSans-30" transform="translate(63.623047 0)"/>
       <use xlink:href="#DejaVuSans-30" transform="translate(127.246094 0)"/>
       <use xlink:href="#DejaVuSans-30" transform="translate(190.869141 0)"/>
       <use xlink:href="#DejaVuSans-30" transform="translate(254.492188 0)"/>
      </g>
     </g>
    </g>
    <g id="text_13">
     <!-- rdf -->
     <g transform="translate(-11.192187 108.462344) rotate(-90) scale(0.1 -0.1)">
      <defs>
       <path id="DejaVuSans-72" d="M 2631 2963 
Q 2534 3019 2420 3045 
Q 2306 3072 2169 3072 
Q 1681 3072 1420 2755 
Q 1159 2438 1159 1844 
L 1159 0 
L 581 0 
L 581 3500 
L 1159 3500 
L 1159 2956 
Q 1341 3275 1631 3429 
Q 1922 3584 2338 3584 
Q 2397 3584 2469 3576 
Q 2541 3569 2628 3553 
L 2631 2963 
z
" transform="scale(0.015625)"/>
       <path id="DejaVuSans-64" d="M 2906 2969 
L 2906 4863 
L 3481 4863 
L 3481 0 
L 2906 0 
L 2906 525 
Q 2725 213 2448 61 
Q 2172 -91 1784 -91 
Q 1150 -91 751 415 
Q 353 922 353 1747 
Q 353 2572 751 3078 
Q 1150 3584 1784 3584 
Q 2172 3584 2448 3432 
Q 2725 3281 2906 2969 
z
M 947 1747 
Q 947 1113 1208 752 
Q 1469 391 1925 391 
Q 2381 391 2643 752 
Q 2906 1113 2906 1747 
Q 2906 2381 2643 2742 
Q 2381 3103 1925 3103 
Q 1469 3103 1208 2742 
Q 947 2381 947 1747 
z
" transform="scale(0.015625)"/>
       <path id="DejaVuSans-66" d="M 2375 4863 
L 2375 4384 
L 1825 4384 
Q 1516 4384 1395 4259 
Q 1275 4134 1275 3809 
L 1275 3500 
L 2222 3500 
L 2222 3053 
L 1275 3053 
L 1275 0 
L 697 0 
L 697 3053 
L 147 3053 
L 147 3500 
L 697 3500 
L 697 3744 
Q 697 4328 969 4595 
Q 1241 4863 1831 4863 
L 2375 4863 
z
" transform="scale(0.015625)"/>
      </defs>
      <use xlink:href="#DejaVuSans-72"/>
      <use xlink:href="#DejaVuSans-64" transform="translate(39.363281 0)"/>
      <use xlink:href="#DejaVuSans-66" transform="translate(102.839844 0)"/>
     </g>
    </g>
   </g>
   <g id="line2d_12">
    <path d="M 44.406818 180.687273 
L 94.854984 180.687273 
L 95.391667 141.136295 
L 95.928349 22.432727 
L 96.465032 176.991907 
L 97.001715 180.598963 
L 97.538397 180.514185 
L 98.07508 180.093461 
L 98.611762 177.610097 
L 99.685128 168.769669 
L 100.22181 169.859742 
L 100.758493 176.145456 
L 101.295175 179.176452 
L 101.831858 179.871709 
L 102.368541 180.105017 
L 102.905223 180.472897 
L 103.441906 180.54693 
L 103.978589 180.273764 
L 104.515271 180.551876 
L 105.051954 180.687273 
L 105.588636 180.556565 
L 106.125319 180.558818 
L 106.662002 180.308496 
L 107.198684 179.69432 
L 108.272049 176.127303 
L 108.808732 175.494583 
L 109.345415 176.508359 
L 109.882097 179.374049 
L 110.41878 180.069339 
L 110.955463 180.466164 
L 111.492145 180.469674 
L 112.028828 179.991212 
L 112.56551 177.893833 
L 113.102193 174.045443 
L 113.638876 167.505784 
L 114.175558 165.443054 
L 114.712241 173.007235 
L 115.248923 177.759053 
L 115.785606 179.869994 
L 116.322289 178.840112 
L 116.858971 174.200618 
L 117.395654 167.90336 
L 117.932337 167.72606 
L 118.469019 174.076594 
L 119.005702 178.177638 
L 119.542384 179.862593 
L 120.61575 180.476301 
L 121.152432 180.520839 
L 121.689115 180.400031 
L 122.225797 180.525384 
L 123.299163 180.608508 
L 123.835845 180.298736 
L 124.372528 180.457259 
L 125.445893 180.276642 
L 125.982576 180.46622 
L 126.519258 179.087271 
L 127.055941 176.200466 
L 127.592624 174.734303 
L 128.129306 176.629254 
L 128.665989 177.267797 
L 129.202671 172.399594 
L 129.739354 170.819232 
L 130.276037 174.500735 
L 130.812719 179.077606 
L 131.349402 180.297906 
L 131.886085 180.527015 
L 132.422767 180.433968 
L 132.95945 180.562146 
L 133.496132 180.532738 
L 134.569498 180.657095 
L 135.642863 180.451482 
L 136.179545 179.347243 
L 137.252911 169.643461 
L 137.789593 174.468774 
L 138.326276 178.072355 
L 138.862959 176.039099 
L 139.399641 165.022995 
L 139.936324 163.69206 
L 140.473006 172.815946 
L 141.009689 178.373006 
L 141.546372 179.88098 
L 142.083054 180.172768 
L 142.619737 180.076578 
L 143.156419 179.730792 
L 143.693102 177.649488 
L 144.229785 174.898385 
L 144.766467 173.497669 
L 145.30315 176.08157 
L 145.839833 174.221274 
L 146.376515 161.610457 
L 146.913198 172.603321 
L 147.44988 179.161226 
L 147.986563 177.208973 
L 148.523246 172.19394 
L 149.059928 169.097288 
L 149.596611 172.010925 
L 150.133293 176.97502 
L 150.669976 179.686991 
L 151.206659 180.299772 
L 151.743341 180.239687 
L 152.280024 179.463323 
L 153.353389 175.163084 
L 153.890072 176.323337 
L 154.963437 180.124667 
L 155.50012 180.289278 
L 156.036802 180.095991 
L 156.573485 179.262193 
L 157.110167 176.761942 
L 157.64685 175.956169 
L 158.183533 177.044206 
L 158.720215 179.427875 
L 159.256898 180.370696 
L 160.330263 180.522755 
L 161.403628 180.633433 
L 161.940311 180.473871 
L 162.476994 180.563915 
L 163.013676 180.512635 
L 163.550359 180.271902 
L 164.087041 179.640965 
L 164.623724 177.440243 
L 165.160407 173.273411 
L 165.697089 171.952506 
L 166.233772 176.002265 
L 166.770455 178.045243 
L 167.307137 177.97061 
L 167.84382 176.139561 
L 168.917185 178.816928 
L 169.453868 179.288647 
L 169.99055 177.664519 
L 170.527233 173.457087 
L 171.063915 173.380206 
L 171.600598 176.05431 
L 172.137281 176.228644 
L 172.673963 172.949713 
L 173.210646 168.866159 
L 173.747329 172.063661 
L 174.284011 177.132178 
L 174.820694 179.719081 
L 175.357376 179.841646 
L 175.894059 177.858258 
L 176.430742 176.38646 
L 177.504107 178.092648 
L 178.040789 178.044586 
L 178.577472 177.301001 
L 179.114155 177.531064 
L 179.650837 176.8975 
L 180.18752 177.08734 
L 180.724203 178.954343 
L 181.260885 180.149142 
L 181.797568 180.478905 
L 182.33425 180.583896 
L 182.870933 180.494939 
L 183.944298 180.573638 
L 185.017663 180.314241 
L 185.554346 179.194108 
L 186.627711 173.965528 
L 187.701077 179.406057 
L 188.237759 179.879095 
L 188.774442 179.519376 
L 189.311124 176.155556 
L 189.847807 171.458014 
L 191.994537 178.316656 
L 192.53122 178.356189 
L 193.067903 176.080887 
L 193.604585 175.859843 
L 194.677951 179.674521 
L 195.214633 179.984458 
L 195.751316 176.918882 
L 196.287998 176.646919 
L 196.824681 178.358405 
L 197.361364 178.248549 
L 197.898046 177.555723 
L 198.434729 175.607962 
L 198.971411 174.09896 
L 199.508094 175.228077 
L 200.044777 178.484083 
L 200.581459 180.102434 
L 201.118142 180.366806 
L 201.654825 180.378931 
L 202.191507 179.956223 
L 203.264872 177.665943 
L 203.801555 177.366749 
L 204.338238 178.004387 
L 204.87492 178.203761 
L 205.411603 178.704175 
L 205.948285 179.000077 
L 206.484968 178.102972 
L 207.021651 176.752593 
L 207.558333 175.724943 
L 208.095016 175.904257 
L 208.631699 176.39146 
L 209.168381 177.678885 
L 209.705064 177.608335 
L 210.241746 175.400964 
L 210.778429 174.848402 
L 211.315112 177.640855 
L 211.851794 179.318566 
L 212.388477 178.673447 
L 213.461842 174.653263 
L 214.535207 178.052389 
L 215.07189 178.128043 
L 215.608573 178.051712 
L 216.145255 178.310024 
L 217.21862 180.036463 
L 217.755303 179.827613 
L 218.291986 178.075347 
L 218.828668 177.031974 
L 219.365351 177.303507 
L 219.902033 178.17091 
L 220.438716 178.257663 
L 220.975399 177.522682 
L 221.512081 177.212322 
L 222.585447 179.586769 
L 223.122129 179.878391 
L 223.658812 179.002605 
L 224.195494 177.185751 
L 224.732177 174.891057 
L 225.26886 174.947909 
L 225.805542 177.741067 
L 226.342225 179.921599 
L 226.878907 180.465569 
L 227.41559 180.525641 
L 227.952273 180.256333 
L 229.025638 179.26503 
L 229.562321 179.452696 
L 230.099003 179.766671 
L 230.635686 179.630057 
L 231.172368 178.288675 
L 231.709051 177.657035 
L 232.245734 179.166848 
L 232.782416 179.931374 
L 233.319099 179.259898 
L 233.855781 178.205195 
L 234.392464 178.151003 
L 234.929147 179.466936 
L 235.465829 180.255805 
L 236.539195 180.400607 
L 237.075877 179.98453 
L 237.61256 178.676443 
L 238.149242 177.035317 
L 238.685925 176.768567 
L 239.222608 175.058733 
L 239.75929 173.935184 
L 240.295973 174.76096 
L 240.832656 175.297208 
L 241.369338 175.599279 
L 242.442703 179.469804 
L 242.979386 179.488849 
L 244.052751 177.618326 
L 244.589434 176.443212 
L 245.126116 176.502484 
L 246.199482 179.097585 
L 246.736164 179.755337 
L 247.272847 179.598783 
L 247.80953 178.908442 
L 248.346212 178.521284 
L 248.882895 179.044784 
L 249.419577 178.854253 
L 249.95626 177.576298 
L 250.492943 176.746311 
L 251.029625 177.591211 
L 251.566308 179.482774 
L 252.10299 179.437626 
L 252.639673 178.490342 
L 253.176356 177.129219 
L 253.713038 176.737244 
L 254.249721 176.802127 
L 254.786404 175.715123 
L 255.323086 175.790173 
L 256.396451 178.518133 
L 256.933134 178.294703 
L 257.469817 177.813258 
L 258.543182 177.428603 
L 258.543182 177.428603 
" clip-path="url(#pb3caa511b7)" style="fill: none; stroke: #000000; stroke-opacity: 0.5; stroke-width: 0.5; stroke-linecap: square"/>
   </g>
   <g id="line2d_13">
    <path d="M 44.406818 180.687273 
L 94.854984 180.687273 
L 95.391667 180.399565 
L 95.928349 180.687273 
L 96.465032 180.411247 
L 97.001715 180.687273 
L 97.538397 180.157191 
L 98.07508 178.868725 
L 98.611762 171.263421 
L 99.685128 144.189608 
L 100.22181 147.527955 
L 100.758493 166.777959 
L 101.295175 176.060383 
L 101.831858 178.189607 
L 102.368541 178.904115 
L 102.905223 180.030746 
L 103.441906 180.257474 
L 103.978589 179.420902 
L 104.515271 180.27262 
L 105.051954 180.687273 
L 105.588636 180.28698 
L 106.125319 180.490577 
L 106.662002 179.720603 
L 107.198684 177.646355 
L 108.272049 166.906114 
L 108.808732 164.784659 
L 109.345415 168.244847 
L 109.882097 176.665523 
L 110.41878 178.79485 
L 110.955463 180.3487 
L 111.492145 180.354075 
L 112.028828 180.523297 
L 112.56551 179.880206 
L 113.102193 180.369451 
L 113.638876 179.904941 
L 114.712241 180.232045 
L 115.785606 179.214969 
L 116.322289 175.900638 
L 116.858971 161.679387 
L 117.395654 142.944837 
L 117.932337 141.548713 
L 118.469019 160.71565 
L 119.005702 173.406031 
L 119.542384 178.427541 
L 120.079067 179.638847 
L 120.61575 180.428832 
L 121.152432 180.304995 
L 121.689115 180.310268 
L 122.225797 180.191487 
L 122.76248 180.565013 
L 123.299163 180.687273 
L 123.835845 180.092326 
L 124.372528 180.56987 
L 125.445893 180.344303 
L 126.519258 180.687273 
L 127.055941 180.577346 
L 127.592624 180.687273 
L 128.665989 180.581493 
L 129.739354 180.687273 
L 130.276037 180.483549 
L 130.812719 180.486064 
L 131.349402 180.687273 
L 132.95945 180.399872 
L 133.496132 180.59262 
L 135.10618 180.595941 
L 135.642863 180.326219 
L 136.179545 177.029502 
L 136.716228 163.579846 
L 137.252911 147.127105 
L 138.326276 174.297763 
L 138.862959 172.179944 
L 139.399641 150.455009 
L 139.936324 152.439785 
L 140.473006 172.950569 
L 141.009689 179.157029 
L 141.546372 180.527965 
L 142.619737 180.141783 
L 143.156419 180.610188 
L 143.693102 180.305993 
L 144.766467 180.537997 
L 145.30315 180.391881 
L 145.839833 179.152791 
L 146.376515 165.575446 
L 146.913198 165.589733 
L 147.44988 179.554299 
L 147.986563 180.547111 
L 148.523246 180.687273 
L 155.50012 180.687273 
L 156.036802 180.566553 
L 156.573485 180.687273 
L 157.64685 180.569953 
L 159.256898 180.687273 
L 160.866946 180.576337 
L 161.403628 180.632311 
L 161.940311 180.523887 
L 163.013676 180.63379 
L 164.087041 180.319564 
L 164.623724 180.583147 
L 165.160407 180.584068 
L 165.697089 180.431534 
L 166.233772 180.028185 
L 166.770455 178.073961 
L 167.307137 173.363873 
L 167.84382 167.05623 
L 169.453868 179.243467 
L 169.99055 177.537921 
L 170.527233 170.514994 
L 171.063915 167.598317 
L 171.600598 171.662487 
L 172.137281 169.662144 
L 172.673963 162.571973 
L 173.210646 156.960792 
L 173.747329 163.860577 
L 174.284011 173.592563 
L 174.820694 179.005582 
L 175.357376 179.72161 
L 175.894059 180.034218 
L 176.430742 180.125876 
L 176.967424 178.845315 
L 177.504107 176.820484 
L 178.040789 176.176983 
L 178.577472 176.296555 
L 179.114155 178.530078 
L 179.650837 180.069923 
L 180.18752 180.360612 
L 180.724203 180.322663 
L 181.260885 180.52649 
L 182.33425 180.528978 
L 182.870933 180.373127 
L 183.407616 180.531409 
L 183.944298 180.532603 
L 184.480981 180.380294 
L 185.017663 179.735263 
L 185.554346 177.739506 
L 186.091029 173.373437 
L 186.627711 171.604408 
L 187.164394 174.84982 
L 187.701077 178.927097 
L 188.237759 180.032113 
L 189.311124 180.507965 
L 190.921172 180.476799 
L 191.457855 180.199737 
L 191.994537 179.753842 
L 192.53122 177.392375 
L 193.067903 173.12262 
L 193.604585 172.601742 
L 194.141268 175.010712 
L 194.677951 179.286571 
L 195.214633 180.025005 
L 195.751316 179.898165 
L 196.287998 178.597802 
L 196.824681 175.500248 
L 197.361364 173.9591 
L 197.898046 173.078912 
L 198.434729 173.131797 
L 198.971411 173.310164 
L 199.508094 175.458738 
L 200.044777 178.604015 
L 200.581459 180.038782 
L 201.118142 180.196558 
L 201.654825 180.108511 
L 202.191507 178.902251 
L 203.264872 171.70308 
L 203.801555 171.852307 
L 204.338238 176.387684 
L 204.87492 179.575662 
L 205.411603 179.873633 
L 205.948285 178.031589 
L 206.484968 175.267614 
L 207.021651 174.64805 
L 208.095016 179.956279 
L 208.631699 180.324158 
L 209.168381 179.993509 
L 209.705064 178.371317 
L 210.241746 175.126473 
L 210.778429 175.461616 
L 211.851794 179.854314 
L 212.388477 180.39359 
L 212.925159 180.581156 
L 215.07189 180.583805 
L 218.291986 180.537758 
L 218.828668 180.068116 
L 219.902033 175.549699 
L 220.438716 175.264815 
L 221.512081 175.186084 
L 222.585447 179.405612 
L 223.122129 180.286202 
L 223.658812 180.171343 
L 224.195494 179.288567 
L 224.732177 174.824373 
L 225.26886 172.601483 
L 226.342225 179.344091 
L 226.878907 180.393054 
L 227.41559 180.552274 
L 229.562321 180.379526 
L 230.099003 179.878624 
L 230.635686 178.10144 
L 231.172368 173.795271 
L 231.709051 171.750877 
L 232.245734 176.522232 
L 232.782416 179.497945 
L 233.319099 180.328274 
L 233.855781 180.498289 
L 235.465829 180.522101 
L 236.002512 180.215059 
L 236.539195 180.27894 
L 237.075877 179.12392 
L 237.61256 175.902074 
L 238.149242 174.44264 
L 238.685925 177.871722 
L 239.222608 177.907046 
L 239.75929 176.539768 
L 240.295973 174.716063 
L 240.832656 172.150478 
L 241.369338 172.663133 
L 241.906021 176.880531 
L 242.442703 179.591786 
L 242.979386 179.903538 
L 243.516069 178.785997 
L 244.052751 176.224333 
L 244.589434 174.498913 
L 245.126116 175.523488 
L 246.199482 179.891296 
L 246.736164 180.392661 
L 247.80953 180.432198 
L 248.346212 180.361043 
L 248.882895 180.12837 
L 249.419577 178.606824 
L 249.95626 175.977117 
L 250.492943 174.404191 
L 251.029625 176.361363 
L 251.566308 179.229327 
L 252.10299 180.23292 
L 252.639673 180.374338 
L 253.176356 180.185686 
L 253.713038 180.171044 
L 254.249721 178.530178 
L 254.786404 176.241745 
L 255.323086 175.010303 
L 255.859769 176.640779 
L 256.396451 178.892323 
L 256.933134 178.834598 
L 257.469817 177.183211 
L 258.006499 174.32567 
L 258.543182 172.94357 
L 258.543182 172.94357 
" clip-path="url(#pb3caa511b7)" style="fill: none; stroke: #0000ff; stroke-opacity: 0.5; stroke-linecap: square"/>
   </g>
   <g id="line2d_14">
    <path d="M 44.406818 180.687273 
L 105.588636 180.687273 
L 106.125319 180.337591 
L 106.662002 180.343568 
L 107.198684 180.687273 
L 107.735367 180.02287 
L 108.808732 180.687273 
L 109.345415 180.055277 
L 109.882097 180.687273 
L 110.41878 180.687273 
L 110.955463 180.085367 
L 111.492145 180.094921 
L 112.028828 177.189124 
L 112.56551 166.913331 
L 113.102193 145.091213 
L 113.638876 110.312198 
L 114.175558 98.786634 
L 114.712241 139.683031 
L 115.248923 166.870413 
L 115.785606 178.855073 
L 116.322289 179.140078 
L 116.858971 179.162831 
L 117.395654 178.183629 
L 117.932337 179.700327 
L 118.469019 180.444087 
L 119.005702 180.207849 
L 119.542384 180.214649 
L 120.079067 179.755339 
L 120.61575 179.998097 
L 121.152432 180.460738 
L 121.689115 180.240453 
L 122.225797 180.687273 
L 122.76248 180.035219 
L 123.299163 180.258444 
L 123.835845 180.2642 
L 124.372528 180.478557 
L 124.909211 179.863465 
L 125.445893 179.671065 
L 125.982576 179.684347 
L 126.519258 172.768073 
L 127.055941 156.649953 
L 127.592624 149.048343 
L 128.665989 175.985973 
L 129.202671 179.75884 
L 129.739354 180.503908 
L 130.276037 180.506185 
L 130.812719 180.329569 
L 131.349402 180.687273 
L 131.886085 180.687273 
L 132.422767 180.342497 
L 132.95945 180.687273 
L 134.569498 180.687273 
L 135.10618 180.524906 
L 135.642863 180.687273 
L 136.179545 180.52867 
L 136.716228 180.687273 
L 139.399641 180.687273 
L 140.473006 180.397712 
L 141.546372 180.687273 
L 142.083054 180.687273 
L 142.619737 180.548736 
L 143.156419 180.550233 
L 143.693102 180.687273 
L 144.229785 180.284925 
L 144.766467 180.289204 
L 145.30315 179.37442 
L 145.839833 156.005665 
L 146.376515 108.189078 
L 146.913198 166.822023 
L 147.44988 178.798983 
L 147.986563 180.687273 
L 163.013676 180.592192 
L 163.550359 180.498817 
L 164.623724 180.687273 
L 165.160407 180.503798 
L 165.697089 180.596344 
L 166.770455 180.329897 
L 167.307137 180.421571 
L 167.84382 180.160469 
L 168.380502 180.513186 
L 168.917185 179.392825 
L 169.453868 175.724859 
L 169.99055 169.998565 
L 170.527233 159.911644 
L 171.063915 164.257012 
L 171.600598 171.838229 
L 172.137281 176.258769 
L 172.673963 171.009516 
L 173.210646 158.669584 
L 173.747329 164.050541 
L 174.284011 174.499854 
L 174.820694 179.349788 
L 175.357376 180.297106 
L 175.894059 180.377676 
L 176.430742 180.149867 
L 176.967424 179.773433 
L 177.504107 177.967773 
L 178.040789 175.516599 
L 178.577472 171.61777 
L 179.114155 173.164748 
L 179.650837 177.541074 
L 180.18752 179.816178 
L 180.724203 180.183121 
L 181.260885 180.187059 
L 182.870933 180.547652 
L 183.944298 180.549789 
L 184.480981 180.414403 
L 185.554346 180.41853 
L 186.091029 180.2872 
L 186.627711 180.554918 
L 187.701077 180.361314 
L 188.237759 180.040202 
L 188.774442 180.237678 
L 189.311124 178.838415 
L 189.847807 174.232216 
L 190.38449 161.96655 
L 190.921172 153.68422 
L 191.457855 157.533189 
L 191.994537 170.177537 
L 192.53122 174.036462 
L 193.067903 169.662114 
L 193.604585 169.079593 
L 194.141268 174.536732 
L 194.677951 178.375004 
L 195.214633 179.921986 
L 195.751316 180.395011 
L 197.898046 180.687273 
L 198.434729 180.517962 
L 199.508094 180.631613 
L 200.044777 180.466164 
L 201.118142 180.632749 
L 202.72819 180.473583 
L 203.801555 180.687273 
L 204.338238 180.477856 
L 204.87492 180.687273 
L 205.948285 180.584638 
L 206.484968 180.534337 
L 207.021651 180.282126 
L 207.558333 178.92638 
L 208.095016 175.589062 
L 208.631699 170.9049 
L 209.168381 171.067078 
L 210.241746 179.567199 
L 210.778429 180.638887 
L 211.851794 180.448431 
L 212.388477 180.639809 
L 212.925159 180.545784 
L 213.461842 179.796852 
L 213.998525 178.591688 
L 214.535207 174.116119 
L 215.07189 171.444201 
L 215.608573 173.878274 
L 216.145255 177.826232 
L 216.681938 179.874911 
L 217.21862 180.463014 
L 219.902033 180.64378 
L 220.438716 180.557588 
L 221.512081 180.601859 
L 222.048764 180.390128 
L 222.585447 180.307521 
L 223.122129 180.645331 
L 223.658812 179.311461 
L 224.732177 165.361854 
L 225.26886 166.148721 
L 226.342225 179.270734 
L 226.878907 180.284922 
L 227.41559 180.567274 
L 228.488955 180.568666 
L 235.465829 180.650568 
L 236.002512 180.395276 
L 236.539195 180.505792 
L 237.61256 180.256538 
L 238.149242 179.687775 
L 238.685925 177.56332 
L 239.75929 158.707693 
L 240.295973 166.090983 
L 240.832656 176.450349 
L 241.369338 179.340202 
L 241.906021 180.240684 
L 242.979386 180.55134 
L 243.516069 180.281667 
L 244.052751 178.502029 
L 244.589434 172.561524 
L 245.126116 170.675684 
L 245.662799 175.625415 
L 246.199482 179.008933 
L 246.736164 180.294457 
L 247.272847 180.459341 
L 247.80953 180.395759 
L 248.346212 180.558392 
L 249.95626 180.5604 
L 250.492943 180.277078 
L 251.029625 180.122256 
L 251.566308 180.281312 
L 252.10299 178.85433 
L 252.639673 174.382213 
L 253.176356 167.526865 
L 253.713038 163.403165 
L 254.249721 169.182769 
L 254.786404 171.694022 
L 255.323086 172.763993 
L 255.859769 175.321923 
L 256.396451 178.71898 
L 256.933134 180.360876 
L 257.469817 180.480609 
L 258.006499 180.334768 
L 258.543182 180.511902 
L 258.543182 180.511902 
" clip-path="url(#pb3caa511b7)" style="fill: none; stroke: #ff0000; stroke-opacity: 0.5; stroke-linecap: square"/>
   </g>
   <g id="patch_3">
    <path d="M 33.7 188.6 
L 33.7 14.52 
" style="fill: none; stroke: #000000; stroke-width: 0.8; stroke-linejoin: miter; stroke-linecap: square"/>
   </g>
   <g id="patch_4">
    <path d="M 269.25 188.6 
L 269.25 14.52 
" style="fill: none; stroke: #000000; stroke-width: 0.8; stroke-linejoin: miter; stroke-linecap: square"/>
   </g>
   <g id="patch_5">
    <path d="M 33.7 188.6 
L 269.25 188.6 
" style="fill: none; stroke: #000000; stroke-width: 0.8; stroke-linejoin: miter; stroke-linecap: square"/>
   </g>
   <g id="patch_6">
    <path d="M 33.7 14.52 
L 269.25 14.52 
" style="fill: none; stroke: #000000; stroke-width: 0.8; stroke-linejoin: miter; stroke-linecap: square"/>
   </g>
   <g id="legend_1">
    <g id="patch_7">
     <path d="M 213.917188 66.554375 
L 262.25 66.554375 
Q 264.25 66.554375 264.25 64.554375 
L 264.25 21.52 
Q 264.25 19.52 262.25 19.52 
L 213.917188 19.52 
Q 211.917188 19.52 211.917188 21.52 
L 211.917188 64.554375 
Q 211.917188 66.554375 213.917188 66.554375 
z
" style="fill: #ffffff; opacity: 0.8; stroke: #cccccc; stroke-linejoin: miter"/>
    </g>
    <g id="line2d_15">
     <path d="M 215.917188 27.618438 
L 225.917188 27.618438 
L 235.917188 27.618438 
" style="fill: none; stroke: #000000; stroke-opacity: 0.5; stroke-width: 0.5; stroke-linecap: square"/>
    </g>
    <g id="text_14">
     <!-- all -->
     <g transform="translate(243.917188 31.118438) scale(0.1 -0.1)">
      <defs>
       <path id="DejaVuSans-61" d="M 2194 1759 
Q 1497 1759 1228 1600 
Q 959 1441 959 1056 
Q 959 750 1161 570 
Q 1363 391 1709 391 
Q 2188 391 2477 730 
Q 2766 1069 2766 1631 
L 2766 1759 
L 2194 1759 
z
M 3341 1997 
L 3341 0 
L 2766 0 
L 2766 531 
Q 2569 213 2275 61 
Q 1981 -91 1556 -91 
Q 1019 -91 701 211 
Q 384 513 384 1019 
Q 384 1609 779 1909 
Q 1175 2209 1959 2209 
L 2766 2209 
L 2766 2266 
Q 2766 2663 2505 2880 
Q 2244 3097 1772 3097 
Q 1472 3097 1187 3025 
Q 903 2953 641 2809 
L 641 3341 
Q 956 3463 1253 3523 
Q 1550 3584 1831 3584 
Q 2591 3584 2966 3190 
Q 3341 2797 3341 1997 
z
" transform="scale(0.015625)"/>
       <path id="DejaVuSans-6c" d="M 603 4863 
L 1178 4863 
L 1178 0 
L 603 0 
L 603 4863 
z
" transform="scale(0.015625)"/>
      </defs>
      <use xlink:href="#DejaVuSans-61"/>
      <use xlink:href="#DejaVuSans-6c" transform="translate(61.279297 0)"/>
      <use xlink:href="#DejaVuSans-6c" transform="translate(89.0625 0)"/>
     </g>
    </g>
    <g id="line2d_16">
     <path d="M 215.917188 42.296563 
L 225.917188 42.296563 
L 235.917188 42.296563 
" style="fill: none; stroke: #0000ff; stroke-opacity: 0.5; stroke-linecap: square"/>
    </g>
    <g id="text_15">
     <!-- 1-1 -->
     <g transform="translate(243.917188 45.796563) scale(0.1 -0.1)">
      <defs>
       <path id="DejaVuSans-2d" d="M 313 2009 
L 1997 2009 
L 1997 1497 
L 313 1497 
L 313 2009 
z
" transform="scale(0.015625)"/>
      </defs>
      <use xlink:href="#DejaVuSans-31"/>
      <use xlink:href="#DejaVuSans-2d" transform="translate(63.623047 0)"/>
      <use xlink:href="#DejaVuSans-31" transform="translate(99.707031 0)"/>
     </g>
    </g>
    <g id="line2d_17">
     <path d="M 215.917188 56.974688 
L 225.917188 56.974688 
L 235.917188 56.974688 
" style="fill: none; stroke: #ff0000; stroke-opacity: 0.5; stroke-linecap: square"/>
    </g>
    <g id="text_16">
     <!-- 2-2 -->
     <g transform="translate(243.917188 60.474688) scale(0.1 -0.1)">
      <use xlink:href="#DejaVuSans-32"/>
      <use xlink:href="#DejaVuSans-2d" transform="translate(63.623047 0)"/>
      <use xlink:href="#DejaVuSans-32" transform="translate(99.707031 0)"/>
     </g>
    </g>
   </g>
  </g>
 </g>
 <defs>
  <clipPath id="pb3caa511b7">
   <rect x="33.7" y="14.52" width="235.55" height="174.08"/>
  </clipPath>
 </defs>
</svg>
