<?xml version="1.0" encoding="utf-8" standalone="no"?>
<!DOCTYPE svg PUBLIC "-//W3C//DTD SVG 1.1//EN"
  "http://www.w3.org/Graphics/SVG/1.1/DTD/svg11.dtd">
<svg xmlns:xlink="http://www.w3.org/1999/xlink" width="288pt" height="216pt" viewBox="0 0 288 216" xmlns="http://www.w3.org/2000/svg" version="1.1">
 <metadata>
  <rdf:RDF xmlns:dc="http://purl.org/dc/elements/1.1/" xmlns:cc="http://creativecommons.org/ns#" xmlns:rdf="http://www.w3.org/1999/02/22-rdf-syntax-ns#">
   <cc:Work>
    <dc:type rdf:resource="http://purl.org/dc/dcmitype/StillImage"/>
    <dc:date>2025-09-17T23:14:55.624323</dc:date>
    <dc:format>image/svg+xml</dc:format>
    <dc:creator>
     <cc:Agent>
      <dc:title>Matplotlib v3.10.0, https://matplotlib.org/</dc:title>
     </cc:Agent>
    </dc:creator>
   </cc:Work>
  </rdf:RDF>
 </metadata>
 <defs>
  <style type="text/css">*{stroke-linejoin: round; stroke-linecap: butt}</style>
 </defs>
 <g id="figure_1">
  <g id="patch_1">
   <path d="M 0 216 
L 288 216 
L 288 0 
L 0 0 
z
" style="fill: #ffffff"/>
  </g>
  <g id="axes_1">
   <g id="patch_2">
    <path d="M 33.7 188.6 
L 269.25 188.6 
L 269.25 14.52 
L 33.7 14.52 
z
" style="fill: #ffffff"/>
   </g>
   <g id="matplotlib.axis_1">
    <g id="xtick_1">
     <g id="line2d_1">
      <defs>
       <path id="m58fd2d7174" d="M 0 0 
L 0 3.5 
" style="stroke: #000000; stroke-width: 0.8"/>
      </defs>
      <g>
       <use xlink:href="#m58fd2d7174" x="44.138477" y="188.6" style="stroke: #000000; stroke-width: 0.8"/>
      </g>
     </g>
     <g id="text_1">
      <!-- 0 -->
      <g transform="translate(40.957227 203.198437) scale(0.1 -0.1)">
       <defs>
        <path id="DejaVuSans-30" d="M 2034 4250 
Q 1547 4250 1301 3770 
Q 1056 3291 1056 2328 
Q 1056 1369 1301 889 
Q 1547 409 2034 409 
Q 2525 409 2770 889 
Q 3016 1369 3016 2328 
Q 3016 3291 2770 3770 
Q 2525 4250 2034 4250 
z
M 2034 4750 
Q 2819 4750 3233 4129 
Q 3647 3509 3647 2328 
Q 3647 1150 3233 529 
Q 2819 -91 2034 -91 
Q 1250 -91 836 529 
Q 422 1150 422 2328 
Q 422 3509 836 4129 
Q 1250 4750 2034 4750 
z
" transform="scale(0.015625)"/>
       </defs>
       <use xlink:href="#DejaVuSans-30"/>
      </g>
     </g>
    </g>
    <g id="xtick_2">
     <g id="line2d_2">
      <g>
       <use xlink:href="#m58fd2d7174" x="87.073086" y="188.6" style="stroke: #000000; stroke-width: 0.8"/>
      </g>
     </g>
     <g id="text_2">
      <!-- 200 -->
      <g transform="translate(77.529336 203.198437) scale(0.1 -0.1)">
       <defs>
        <path id="DejaVuSans-32" d="M 1228 531 
L 3431 531 
L 3431 0 
L 469 0 
L 469 531 
Q 828 903 1448 1529 
Q 2069 2156 2228 2338 
Q 2531 2678 2651 2914 
Q 2772 3150 2772 3378 
Q 2772 3750 2511 3984 
Q 2250 4219 1831 4219 
Q 1534 4219 1204 4116 
Q 875 4013 500 3803 
L 500 4441 
Q 881 4594 1212 4672 
Q 1544 4750 1819 4750 
Q 2544 4750 2975 4387 
Q 3406 4025 3406 3419 
Q 3406 3131 3298 2873 
Q 3191 2616 2906 2266 
Q 2828 2175 2409 1742 
Q 1991 1309 1228 531 
z
" transform="scale(0.015625)"/>
       </defs>
       <use xlink:href="#DejaVuSans-32"/>
       <use xlink:href="#DejaVuSans-30" transform="translate(63.623047 0)"/>
       <use xlink:href="#DejaVuSans-30" transform="translate(127.246094 0)"/>
      </g>
     </g>
    </g>
    <g id="xtick_3">
     <g id="line2d_3">
      <g>
       <use xlink:href="#m58fd2d7174" x="130.007695" y="188.6" style="stroke: #000000; stroke-width: 0.8"/>
      </g>
     </g>
     <g id="text_3">
      <!-- 400 -->
      <g transform="translate(120.463945 203.198437) scale(0.1 -0.1)">
       <defs>
        <path id="DejaVuSans-34" d="M 2419 4116 
L 825 1625 
L 2419 1625 
L 2419 4116 
z
M 2253 4666 
L 3047 4666 
L 3047 1625 
L 3713 1625 
L 3713 1100 
L 3047 1100 
L 3047 0 
L 2419 0 
L 2419 1100 
L 313 1100 
L 313 1709 
L 2253 4666 
z
" transform="scale(0.015625)"/>
       </defs>
       <use xlink:href="#DejaVuSans-34"/>
       <use xlink:href="#DejaVuSans-30" transform="translate(63.623047 0)"/>
       <use xlink:href="#DejaVuSans-30" transform="translate(127.246094 0)"/>
      </g>
     </g>
    </g>
    <g id="xtick_4">
     <g id="line2d_4">
      <g>
       <use xlink:href="#m58fd2d7174" x="172.942305" y="188.6" style="stroke: #000000; stroke-width: 0.8"/>
      </g>
     </g>
     <g id="text_4">
      <!-- 600 -->
      <g transform="translate(163.398555 203.198437) scale(0.1 -0.1)">
       <defs>
        <path id="DejaVuSans-36" d="M 2113 2584 
Q 1688 2584 1439 2293 
Q 1191 2003 1191 1497 
Q 1191 994 1439 701 
Q 1688 409 2113 409 
Q 2538 409 2786 701 
Q 3034 994 3034 1497 
Q 3034 2003 2786 2293 
Q 2538 2584 2113 2584 
z
M 3366 4563 
L 3366 3988 
Q 3128 4100 2886 4159 
Q 2644 4219 2406 4219 
Q 1781 4219 1451 3797 
Q 1122 3375 1075 2522 
Q 1259 2794 1537 2939 
Q 1816 3084 2150 3084 
Q 2853 3084 3261 2657 
Q 3669 2231 3669 1497 
Q 3669 778 3244 343 
Q 2819 -91 2113 -91 
Q 1303 -91 875 529 
Q 447 1150 447 2328 
Q 447 3434 972 4092 
Q 1497 4750 2381 4750 
Q 2619 4750 2861 4703 
Q 3103 4656 3366 4563 
z
" transform="scale(0.015625)"/>
       </defs>
       <use xlink:href="#DejaVuSans-36"/>
       <use xlink:href="#DejaVuSans-30" transform="translate(63.623047 0)"/>
       <use xlink:href="#DejaVuSans-30" transform="translate(127.246094 0)"/>
      </g>
     </g>
    </g>
    <g id="xtick_5">
     <g id="line2d_5">
      <g>
       <use xlink:href="#m58fd2d7174" x="215.876914" y="188.6" style="stroke: #000000; stroke-width: 0.8"/>
      </g>
     </g>
     <g id="text_5">
      <!-- 800 -->
      <g transform="translate(206.333164 203.198437) scale(0.1 -0.1)">
       <defs>
        <path id="DejaVuSans-38" d="M 2034 2216 
Q 1584 2216 1326 1975 
Q 1069 1734 1069 1313 
Q 1069 891 1326 650 
Q 1584 409 2034 409 
Q 2484 409 2743 651 
Q 3003 894 3003 1313 
Q 3003 1734 2745 1975 
Q 2488 2216 2034 2216 
z
M 1403 2484 
Q 997 2584 770 2862 
Q 544 3141 544 3541 
Q 544 4100 942 4425 
Q 1341 4750 2034 4750 
Q 2731 4750 3128 4425 
Q 3525 4100 3525 3541 
Q 3525 3141 3298 2862 
Q 3072 2584 2669 2484 
Q 3125 2378 3379 2068 
Q 3634 1759 3634 1313 
Q 3634 634 3220 271 
Q 2806 -91 2034 -91 
Q 1263 -91 848 271 
Q 434 634 434 1313 
Q 434 1759 690 2068 
Q 947 2378 1403 2484 
z
M 1172 3481 
Q 1172 3119 1398 2916 
Q 1625 2713 2034 2713 
Q 2441 2713 2670 2916 
Q 2900 3119 2900 3481 
Q 2900 3844 2670 4047 
Q 2441 4250 2034 4250 
Q 1625 4250 1398 4047 
Q 1172 3844 1172 3481 
z
" transform="scale(0.015625)"/>
       </defs>
       <use xlink:href="#DejaVuSans-38"/>
       <use xlink:href="#DejaVuSans-30" transform="translate(63.623047 0)"/>
       <use xlink:href="#DejaVuSans-30" transform="translate(127.246094 0)"/>
      </g>
     </g>
    </g>
    <g id="xtick_6">
     <g id="line2d_6">
      <g>
       <use xlink:href="#m58fd2d7174" x="258.811523" y="188.6" style="stroke: #000000; stroke-width: 0.8"/>
      </g>
     </g>
     <g id="text_6">
      <!-- 1000 -->
      <g transform="translate(246.086523 203.198437) scale(0.1 -0.1)">
       <defs>
        <path id="DejaVuSans-31" d="M 794 531 
L 1825 531 
L 1825 4091 
L 703 3866 
L 703 4441 
L 1819 4666 
L 2450 4666 
L 2450 531 
L 3481 531 
L 3481 0 
L 794 0 
L 794 531 
z
" transform="scale(0.015625)"/>
       </defs>
       <use xlink:href="#DejaVuSans-31"/>
       <use xlink:href="#DejaVuSans-30" transform="translate(63.623047 0)"/>
       <use xlink:href="#DejaVuSans-30" transform="translate(127.246094 0)"/>
       <use xlink:href="#DejaVuSans-30" transform="translate(190.869141 0)"/>
      </g>
     </g>
    </g>
    <g id="text_7">
     <!-- q (nm) -->
     <g transform="translate(134.771094 216.876563) scale(0.1 -0.1)">
      <defs>
       <path id="DejaVuSans-71" d="M 947 1747 
Q 947 1113 1208 752 
Q 1469 391 1925 391 
Q 2381 391 2643 752 
Q 2906 1113 2906 1747 
Q 2906 2381 2643 2742 
Q 2381 3103 1925 3103 
Q 1469 3103 1208 2742 
Q 947 2381 947 1747 
z
M 2906 525 
Q 2725 213 2448 61 
Q 2172 -91 1784 -91 
Q 1150 -91 751 415 
Q 353 922 353 1747 
Q 353 2572 751 3078 
Q 1150 3584 1784 3584 
Q 2172 3584 2448 3432 
Q 2725 3281 2906 2969 
L 2906 3500 
L 3481 3500 
L 3481 -1331 
L 2906 -1331 
L 2906 525 
z
" transform="scale(0.015625)"/>
       <path id="DejaVuSans-20" transform="scale(0.015625)"/>
       <path id="DejaVuSans-28" d="M 1984 4856 
Q 1566 4138 1362 3434 
Q 1159 2731 1159 2009 
Q 1159 1288 1364 580 
Q 1569 -128 1984 -844 
L 1484 -844 
Q 1016 -109 783 600 
Q 550 1309 550 2009 
Q 550 2706 781 3412 
Q 1013 4119 1484 4856 
L 1984 4856 
z
" transform="scale(0.015625)"/>
       <path id="DejaVuSans-6e" d="M 3513 2113 
L 3513 0 
L 2938 0 
L 2938 2094 
Q 2938 2591 2744 2837 
Q 2550 3084 2163 3084 
Q 1697 3084 1428 2787 
Q 1159 2491 1159 1978 
L 1159 0 
L 581 0 
L 581 3500 
L 1159 3500 
L 1159 2956 
Q 1366 3272 1645 3428 
Q 1925 3584 2291 3584 
Q 2894 3584 3203 3211 
Q 3513 2838 3513 2113 
z
" transform="scale(0.015625)"/>
       <path id="DejaVuSans-6d" d="M 3328 2828 
Q 3544 3216 3844 3400 
Q 4144 3584 4550 3584 
Q 5097 3584 5394 3201 
Q 5691 2819 5691 2113 
L 5691 0 
L 5113 0 
L 5113 2094 
Q 5113 2597 4934 2840 
Q 4756 3084 4391 3084 
Q 3944 3084 3684 2787 
Q 3425 2491 3425 1978 
L 3425 0 
L 2847 0 
L 2847 2094 
Q 2847 2600 2669 2842 
Q 2491 3084 2119 3084 
Q 1678 3084 1418 2786 
Q 1159 2488 1159 1978 
L 1159 0 
L 581 0 
L 581 3500 
L 1159 3500 
L 1159 2956 
Q 1356 3278 1631 3431 
Q 1906 3584 2284 3584 
Q 2666 3584 2933 3390 
Q 3200 3197 3328 2828 
z
" transform="scale(0.015625)"/>
       <path id="DejaVuSans-29" d="M 513 4856 
L 1013 4856 
Q 1481 4119 1714 3412 
Q 1947 2706 1947 2009 
Q 1947 1309 1714 600 
Q 1481 -109 1013 -844 
L 513 -844 
Q 928 -128 1133 580 
Q 1338 1288 1338 2009 
Q 1338 2731 1133 3434 
Q 928 4138 513 4856 
z
" transform="scale(0.015625)"/>
      </defs>
      <use xlink:href="#DejaVuSans-71"/>
      <use xlink:href="#DejaVuSans-20" transform="translate(63.476562 0)"/>
      <use xlink:href="#DejaVuSans-28" transform="translate(95.263672 0)"/>
      <use xlink:href="#DejaVuSans-6e" transform="translate(134.277344 0)"/>
      <use xlink:href="#DejaVuSans-6d" transform="translate(197.65625 0)"/>
      <use xlink:href="#DejaVuSans-29" transform="translate(295.068359 0)"/>
     </g>
    </g>
   </g>
   <g id="matplotlib.axis_2">
    <g id="ytick_1">
     <g id="line2d_7">
      <defs>
       <path id="mede7193ac9" d="M 0 0 
L -3.5 0 
" style="stroke: #000000; stroke-width: 0.8"/>
      </defs>
      <g>
       <use xlink:href="#mede7193ac9" x="33.7" y="180.687273" style="stroke: #000000; stroke-width: 0.8"/>
      </g>
     </g>
     <g id="text_8">
      <!-- 0 -->
      <g transform="translate(20.3375 184.486491) scale(0.1 -0.1)">
       <use xlink:href="#DejaVuSans-30"/>
      </g>
     </g>
    </g>
    <g id="ytick_2">
     <g id="line2d_8">
      <g>
       <use xlink:href="#mede7193ac9" x="33.7" y="144.804091" style="stroke: #000000; stroke-width: 0.8"/>
      </g>
     </g>
     <g id="text_9">
      <!-- 20000 -->
      <g transform="translate(-5.1125 148.60331) scale(0.1 -0.1)">
       <use xlink:href="#DejaVuSans-32"/>
       <use xlink:href="#DejaVuSans-30" transform="translate(63.623047 0)"/>
       <use xlink:href="#DejaVuSans-30" transform="translate(127.246094 0)"/>
       <use xlink:href="#DejaVuSans-30" transform="translate(190.869141 0)"/>
       <use xlink:href="#DejaVuSans-30" transform="translate(254.492188 0)"/>
      </g>
     </g>
    </g>
    <g id="ytick_3">
     <g id="line2d_9">
      <g>
       <use xlink:href="#mede7193ac9" x="33.7" y="108.920909" style="stroke: #000000; stroke-width: 0.8"/>
      </g>
     </g>
     <g id="text_10">
      <!-- 40000 -->
      <g transform="translate(-5.1125 112.720128) scale(0.1 -0.1)">
       <use xlink:href="#DejaVuSans-34"/>
       <use xlink:href="#DejaVuSans-30" transform="translate(63.623047 0)"/>
       <use xlink:href="#DejaVuSans-30" transform="translate(127.246094 0)"/>
       <use xlink:href="#DejaVuSans-30" transform="translate(190.869141 0)"/>
       <use xlink:href="#DejaVuSans-30" transform="translate(254.492188 0)"/>
      </g>
     </g>
    </g>
    <g id="ytick_4">
     <g id="line2d_10">
      <g>
       <use xlink:href="#mede7193ac9" x="33.7" y="73.037727" style="stroke: #000000; stroke-width: 0.8"/>
      </g>
     </g>
     <g id="text_11">
      <!-- 60000 -->
      <g transform="translate(-5.1125 76.836946) scale(0.1 -0.1)">
       <use xlink:href="#DejaVuSans-36"/>
       <use xlink:href="#DejaVuSans-30" transform="translate(63.623047 0)"/>
       <use xlink:href="#DejaVuSans-30" transform="translate(127.246094 0)"/>
       <use xlink:href="#DejaVuSans-30" transform="translate(190.869141 0)"/>
       <use xlink:href="#DejaVuSans-30" transform="translate(254.492188 0)"/>
      </g>
     </g>
    </g>
    <g id="ytick_5">
     <g id="line2d_11">
      <g>
       <use xlink:href="#mede7193ac9" x="33.7" y="37.154546" style="stroke: #000000; stroke-width: 0.8"/>
      </g>
     </g>
     <g id="text_12">
      <!-- 80000 -->
      <g transform="translate(-5.1125 40.953764) scale(0.1 -0.1)">
       <use xlink:href="#DejaVuSans-38"/>
       <use xlink:href="#DejaVuSans-30" transform="translate(63.623047 0)"/>
       <use xlink:href="#DejaVuSans-30" transform="translate(127.246094 0)"/>
       <use xlink:href="#DejaVuSans-30" transform="translate(190.869141 0)"/>
       <use xlink:href="#DejaVuSans-30" transform="translate(254.492188 0)"/>
      </g>
     </g>
    </g>
    <g id="text_13">
     <!-- rdf -->
     <g transform="translate(-11.192187 108.462344) rotate(-90) scale(0.1 -0.1)">
      <defs>
       <path id="DejaVuSans-72" d="M 2631 2963 
Q 2534 3019 2420 3045 
Q 2306 3072 2169 3072 
Q 1681 3072 1420 2755 
Q 1159 2438 1159 1844 
L 1159 0 
L 581 0 
L 581 3500 
L 1159 3500 
L 1159 2956 
Q 1341 3275 1631 3429 
Q 1922 3584 2338 3584 
Q 2397 3584 2469 3576 
Q 2541 3569 2628 3553 
L 2631 2963 
z
" transform="scale(0.015625)"/>
       <path id="DejaVuSans-64" d="M 2906 2969 
L 2906 4863 
L 3481 4863 
L 3481 0 
L 2906 0 
L 2906 525 
Q 2725 213 2448 61 
Q 2172 -91 1784 -91 
Q 1150 -91 751 415 
Q 353 922 353 1747 
Q 353 2572 751 3078 
Q 1150 3584 1784 3584 
Q 2172 3584 2448 3432 
Q 2725 3281 2906 2969 
z
M 947 1747 
Q 947 1113 1208 752 
Q 1469 391 1925 391 
Q 2381 391 2643 752 
Q 2906 1113 2906 1747 
Q 2906 2381 2643 2742 
Q 2381 3103 1925 3103 
Q 1469 3103 1208 2742 
Q 947 2381 947 1747 
z
" transform="scale(0.015625)"/>
       <path id="DejaVuSans-66" d="M 2375 4863 
L 2375 4384 
L 1825 4384 
Q 1516 4384 1395 4259 
Q 1275 4134 1275 3809 
L 1275 3500 
L 2222 3500 
L 2222 3053 
L 1275 3053 
L 1275 0 
L 697 0 
L 697 3053 
L 147 3053 
L 147 3500 
L 697 3500 
L 697 3744 
Q 697 4328 969 4595 
Q 1241 4863 1831 4863 
L 2375 4863 
z
" transform="scale(0.015625)"/>
      </defs>
      <use xlink:href="#DejaVuSans-72"/>
      <use xlink:href="#DejaVuSans-64" transform="translate(39.363281 0)"/>
      <use xlink:href="#DejaVuSans-66" transform="translate(102.839844 0)"/>
     </g>
    </g>
   </g>
   <g id="line2d_12">
    <path d="M 44.406818 180.687273 
L 94.854984 180.687273 
L 95.391667 137.995257 
L 95.928349 22.432727 
L 96.465032 178.507658 
L 97.001715 180.59829 
L 97.538397 180.512867 
L 98.07508 179.490605 
L 98.611762 177.754263 
L 99.685128 167.872977 
L 100.22181 172.307135 
L 101.295175 178.632131 
L 101.831858 180.239032 
L 102.368541 180.247255 
L 102.905223 180.687273 
L 103.441906 180.475156 
L 103.978589 180.548387 
L 104.515271 180.414417 
L 105.588636 180.489718 
L 106.662002 180.369222 
L 107.198684 179.74929 
L 107.735367 178.473948 
L 108.272049 175.66938 
L 108.808732 174.682093 
L 109.882097 179.248984 
L 110.41878 180.121236 
L 110.955463 180.520179 
L 111.492145 180.413203 
L 112.028828 179.931961 
L 112.56551 178.297421 
L 113.638876 167.199477 
L 114.175558 165.631122 
L 115.248923 178.769434 
L 115.785606 179.621563 
L 116.322289 179.160111 
L 116.858971 174.198239 
L 117.395654 167.62066 
L 117.932337 167.39903 
L 118.469019 174.026249 
L 119.005702 178.247254 
L 119.542384 179.550169 
L 120.079067 180.385441 
L 120.61575 180.51721 
L 121.689115 180.397844 
L 122.225797 180.605712 
L 123.299163 180.44918 
L 124.909211 180.572925 
L 125.445893 180.499201 
L 125.982576 180.2418 
L 126.519258 179.111727 
L 127.592624 174.081995 
L 128.129306 176.598349 
L 128.665989 176.128052 
L 129.202671 172.955054 
L 129.739354 171.354924 
L 130.812719 178.767442 
L 131.349402 180.000691 
L 132.422767 180.655369 
L 135.642863 180.449687 
L 136.179545 179.513156 
L 137.252911 169.674075 
L 138.326276 178.781224 
L 138.862959 174.784308 
L 139.399641 165.807966 
L 139.936324 162.939421 
L 140.473006 172.622026 
L 141.009689 178.779361 
L 141.546372 179.97967 
L 142.083054 180.142928 
L 142.619737 180.148846 
L 143.156419 179.495248 
L 143.693102 177.701621 
L 144.229785 174.48198 
L 144.766467 173.762158 
L 145.30315 176.386656 
L 145.839833 173.643119 
L 146.376515 161.274855 
L 146.913198 173.036136 
L 147.44988 179.1962 
L 147.986563 177.297772 
L 149.059928 168.241013 
L 149.596611 171.36351 
L 150.133293 177.677147 
L 150.669976 179.85466 
L 151.206659 180.253438 
L 151.743341 180.343658 
L 152.280024 179.368949 
L 152.816707 176.897593 
L 153.353389 175.037623 
L 153.890072 176.248814 
L 154.426754 178.806465 
L 154.963437 179.998905 
L 155.50012 180.366452 
L 156.036802 180.051769 
L 156.573485 179.074308 
L 157.110167 176.848951 
L 157.64685 175.900837 
L 158.183533 177.284124 
L 158.720215 179.361463 
L 159.256898 180.19941 
L 159.793581 180.575731 
L 160.866946 180.596023 
L 162.476994 180.562975 
L 163.550359 180.373372 
L 164.087041 179.771262 
L 164.623724 177.107181 
L 165.160407 172.741565 
L 165.697089 172.155239 
L 166.233772 175.799777 
L 166.770455 178.4385 
L 167.307137 177.720442 
L 167.84382 176.559911 
L 168.380502 177.384856 
L 168.917185 178.866568 
L 169.453868 178.882131 
L 169.99055 177.139103 
L 170.527233 174.118095 
L 171.063915 173.432606 
L 171.600598 175.804746 
L 172.137281 176.1188 
L 172.673963 172.213486 
L 173.210646 169.194068 
L 173.747329 172.427268 
L 174.284011 177.178508 
L 174.820694 179.449616 
L 175.357376 179.70523 
L 176.430742 175.941662 
L 176.967424 177.713468 
L 177.504107 178.352502 
L 178.040789 177.497445 
L 178.577472 176.903739 
L 179.114155 177.684465 
L 179.650837 176.773849 
L 180.18752 177.033055 
L 180.724203 179.194401 
L 181.260885 180.330195 
L 182.33425 180.570089 
L 184.480981 180.523146 
L 185.017663 180.148521 
L 185.554346 179.19517 
L 186.091029 176.01026 
L 186.627711 173.975575 
L 187.701077 179.492821 
L 188.237759 180.028621 
L 188.774442 179.355954 
L 189.847807 171.903066 
L 190.921172 174.293221 
L 191.994537 178.594342 
L 192.53122 177.818982 
L 193.067903 175.944905 
L 193.604585 176.001173 
L 194.141268 178.123347 
L 194.677951 179.480271 
L 195.214633 179.913736 
L 195.751316 176.976727 
L 196.287998 176.723566 
L 196.824681 178.489998 
L 197.898046 177.416176 
L 198.971411 174.059158 
L 199.508094 175.402824 
L 200.044777 178.457074 
L 200.581459 180.09798 
L 201.118142 180.455183 
L 201.654825 180.456761 
L 202.191507 179.980518 
L 203.264872 177.367961 
L 203.801555 177.46827 
L 204.338238 178.022713 
L 204.87492 178.25222 
L 205.411603 178.631708 
L 205.948285 178.835268 
L 206.484968 178.309724 
L 207.021651 177.031926 
L 207.558333 175.37057 
L 208.095016 175.608821 
L 209.168381 177.701626 
L 209.705064 177.494174 
L 210.241746 175.369718 
L 210.778429 174.839754 
L 211.315112 177.626551 
L 211.851794 179.396548 
L 212.388477 178.640542 
L 212.925159 176.366652 
L 213.461842 175.040973 
L 214.535207 177.929551 
L 215.07189 178.236212 
L 215.608573 177.693343 
L 216.681938 179.442745 
L 217.21862 179.86549 
L 217.755303 179.631325 
L 218.828668 176.898205 
L 219.902033 177.99881 
L 220.438716 178.015149 
L 220.975399 177.323641 
L 221.512081 177.280704 
L 222.048764 178.731081 
L 222.585447 179.679905 
L 223.122129 179.73251 
L 223.658812 178.81231 
L 224.195494 177.151414 
L 224.732177 174.763044 
L 225.26886 175.124002 
L 225.805542 177.839183 
L 226.342225 179.915767 
L 226.878907 180.471327 
L 227.41559 180.524411 
L 227.952273 180.414964 
L 228.488955 179.604369 
L 229.025638 179.174179 
L 229.562321 179.276948 
L 230.099003 179.93943 
L 230.635686 179.607707 
L 231.172368 178.149564 
L 231.709051 177.853061 
L 232.245734 179.190406 
L 232.782416 179.778876 
L 233.319099 179.332404 
L 233.855781 177.861579 
L 234.392464 178.255345 
L 234.929147 179.635255 
L 235.465829 180.14383 
L 236.002512 180.4576 
L 236.539195 180.425293 
L 237.075877 179.885657 
L 237.61256 178.754132 
L 238.149242 176.829132 
L 238.685925 176.515344 
L 239.222608 174.91786 
L 239.75929 174.02672 
L 240.295973 175.097121 
L 240.832656 174.98621 
L 241.369338 175.138628 
L 241.906021 177.927993 
L 242.442703 179.593324 
L 242.979386 179.335068 
L 243.516069 178.666738 
L 244.052751 177.794057 
L 244.589434 176.231419 
L 245.126116 176.310566 
L 246.199482 179.23165 
L 246.736164 179.742182 
L 247.272847 179.783333 
L 247.80953 178.595166 
L 248.346212 178.534604 
L 248.882895 179.346665 
L 249.419577 178.869797 
L 249.95626 177.282578 
L 250.492943 176.50023 
L 251.566308 179.496718 
L 252.10299 179.543101 
L 252.639673 178.45073 
L 253.176356 177.102121 
L 253.713038 176.571283 
L 254.249721 176.840131 
L 254.786404 175.565175 
L 255.323086 175.43507 
L 255.859769 177.49754 
L 256.396451 178.606481 
L 256.933134 178.227058 
L 257.469817 177.698483 
L 258.543182 177.522792 
L 258.543182 177.522792 
" clip-path="url(#pe1ff0a5f1d)" style="fill: none; stroke: #000000; stroke-opacity: 0.5; stroke-width: 0.5; stroke-linecap: square"/>
   </g>
   <g id="line2d_13">
    <path d="M 44.406818 180.687273 
L 96.465032 180.687273 
L 97.538397 180.153154 
L 98.07508 177.022478 
L 98.611762 171.704928 
L 99.685128 141.443484 
L 100.22181 155.023097 
L 101.295175 174.393401 
L 101.831858 179.314534 
L 102.368541 179.339719 
L 102.905223 180.687273 
L 103.441906 180.037664 
L 103.978589 180.261934 
L 104.515271 179.851652 
L 105.051954 180.276792 
L 106.662002 179.713242 
L 107.198684 178.006206 
L 107.735367 174.097251 
L 108.272049 165.319974 
L 108.808732 162.660584 
L 109.882097 176.458704 
L 110.41878 179.300483 
L 110.955463 180.346122 
L 111.492145 180.015801 
L 112.028828 180.356824 
L 113.102193 180.36703 
L 113.638876 180.056641 
L 114.175558 180.221521 
L 114.712241 180.228578 
L 115.248923 180.536673 
L 115.785606 179.50046 
L 116.322289 176.594955 
L 116.858971 161.678634 
L 117.395654 141.238375 
L 117.932337 140.411562 
L 118.469019 160.701386 
L 119.005702 173.758173 
L 119.542384 177.740643 
L 120.079067 179.894965 
L 120.61575 180.426864 
L 121.689115 180.180772 
L 122.225797 180.437492 
L 123.299163 180.444219 
L 123.835845 180.567377 
L 124.909211 180.570543 
L 125.445893 180.456885 
L 125.982576 180.459896 
L 126.519258 180.687273 
L 130.812719 180.585902 
L 131.349402 180.386893 
L 132.422767 180.687273 
L 132.95945 180.687273 
L 133.496132 180.496526 
L 134.569498 180.59415 
L 135.10618 180.595246 
L 135.642863 180.232518 
L 136.179545 177.451112 
L 137.252911 147.047182 
L 138.326276 176.910213 
L 138.862959 170.163088 
L 139.399641 152.154897 
L 139.936324 150.813977 
L 140.473006 172.317233 
L 141.009689 180.038053 
L 141.546372 180.366231 
L 142.083054 180.449122 
L 142.619737 180.29467 
L 144.229785 180.611258 
L 144.766467 180.461654 
L 145.30315 180.09199 
L 145.839833 180.098256 
L 146.376515 165.023221 
L 146.913198 164.970073 
L 147.44988 179.902421 
L 147.986563 180.687273 
L 150.133293 180.687273 
L 150.669976 180.485967 
L 151.206659 180.687273 
L 152.816707 180.687273 
L 153.353389 180.559582 
L 153.890072 180.687273 
L 158.720215 180.687273 
L 159.256898 180.572343 
L 160.866946 180.687273 
L 164.087041 180.581413 
L 164.623724 180.424975 
L 165.697089 180.532661 
L 166.233772 180.176421 
L 166.770455 177.1932 
L 167.84382 168.395573 
L 168.380502 171.017636 
L 168.917185 175.991771 
L 169.453868 178.505071 
L 169.99055 176.888885 
L 170.527233 171.343317 
L 171.063915 167.734989 
L 171.600598 171.078146 
L 172.137281 169.857069 
L 172.673963 161.834787 
L 173.210646 156.003001 
L 174.284011 173.673414 
L 174.820694 178.769814 
L 175.357376 179.714256 
L 175.894059 180.16085 
L 176.967424 179.349237 
L 177.504107 176.919483 
L 178.040789 175.038329 
L 178.577472 175.757499 
L 179.114155 179.140656 
L 179.650837 180.189631 
L 180.18752 180.440411 
L 180.724203 180.52399 
L 181.260885 180.444262 
L 181.797568 180.606899 
L 183.407616 180.569484 
L 183.944298 180.570387 
L 184.480981 180.377956 
L 185.017663 179.305939 
L 185.554346 177.602817 
L 186.091029 172.59968 
L 186.627711 172.135369 
L 187.701077 178.876743 
L 188.237759 179.990449 
L 188.774442 180.359643 
L 189.847807 180.615535 
L 191.457855 180.336381 
L 191.994537 179.537725 
L 192.53122 176.571868 
L 193.067903 172.824667 
L 193.604585 172.369722 
L 194.141268 176.490502 
L 194.677951 178.671032 
L 195.214633 179.919864 
L 195.751316 179.660246 
L 196.287998 179.042441 
L 197.361364 172.675239 
L 197.898046 173.117603 
L 198.971411 173.158682 
L 199.508094 175.51356 
L 200.044777 178.838791 
L 200.581459 180.158306 
L 201.118142 180.409143 
L 201.654825 180.349648 
L 202.191507 178.705747 
L 203.264872 170.973005 
L 203.801555 172.501982 
L 204.338238 176.770369 
L 204.87492 179.390342 
L 205.411603 179.31112 
L 205.948285 177.924106 
L 206.484968 175.399702 
L 207.021651 175.405765 
L 207.558333 177.20837 
L 208.095016 179.63909 
L 208.631699 180.152525 
L 209.168381 180.183958 
L 209.705064 178.298118 
L 210.241746 174.918513 
L 210.778429 174.955606 
L 211.315112 178.180417 
L 211.851794 179.766747 
L 212.388477 180.418255 
L 213.998525 180.634484 
L 218.291986 180.561728 
L 218.828668 180.063401 
L 219.902033 175.46127 
L 220.438716 174.61099 
L 220.975399 174.745253 
L 221.512081 175.41045 
L 222.048764 178.040718 
L 222.585447 179.491512 
L 223.122129 180.211832 
L 223.658812 180.309194 
L 224.195494 178.855107 
L 224.732177 175.036573 
L 225.26886 172.841658 
L 225.805542 175.77234 
L 226.342225 179.65501 
L 226.878907 180.368009 
L 227.952273 180.619656 
L 228.488955 180.463192 
L 229.025638 180.48677 
L 229.562321 180.332883 
L 230.099003 180.04864 
L 230.635686 177.753319 
L 231.172368 173.242083 
L 231.709051 172.288888 
L 232.245734 176.512034 
L 232.782416 179.360489 
L 233.319099 180.495767 
L 233.855781 180.412217 
L 234.392464 180.603117 
L 234.929147 180.457144 
L 236.002512 180.397649 
L 236.539195 180.275831 
L 237.075877 178.723313 
L 238.149242 173.929744 
L 238.685925 177.669194 
L 239.222608 178.726293 
L 240.295973 174.749755 
L 240.832656 171.967362 
L 241.369338 171.975564 
L 241.906021 176.909952 
L 242.442703 179.815829 
L 242.979386 179.859047 
L 243.516069 179.173826 
L 244.589434 173.352518 
L 246.199482 179.903886 
L 246.736164 180.408971 
L 247.272847 180.57654 
L 247.80953 180.522047 
L 248.882895 180.233112 
L 249.419577 178.410265 
L 249.95626 175.581697 
L 250.492943 174.44576 
L 251.029625 176.595286 
L 251.566308 179.377518 
L 252.10299 180.282285 
L 252.639673 180.459543 
L 253.176356 180.408428 
L 253.713038 180.132435 
L 254.249721 178.582751 
L 254.786404 175.487068 
L 255.323086 174.710939 
L 256.396451 178.912459 
L 256.933134 179.392296 
L 258.006499 173.69449 
L 258.543182 173.033692 
L 258.543182 173.033692 
" clip-path="url(#pe1ff0a5f1d)" style="fill: none; stroke: #0000ff; stroke-opacity: 0.5; stroke-linecap: square"/>
   </g>
   <g id="line2d_14">
    <path d="M 44.406818 180.687273 
L 104.515271 180.687273 
L 105.051954 180.322401 
L 105.588636 180.687273 
L 106.662002 180.687273 
L 107.198684 180.34682 
L 107.735367 180.352542 
L 108.272049 180.687273 
L 108.808732 180.03985 
L 109.345415 180.368868 
L 109.882097 180.374045 
L 110.41878 180.070922 
L 110.955463 180.384028 
L 111.492145 180.388841 
L 112.028828 177.162483 
L 112.56551 168.254144 
L 113.638876 108.37484 
L 114.175558 99.542903 
L 115.248923 170.513441 
L 115.785606 176.994967 
L 116.322289 179.647954 
L 116.858971 179.151221 
L 117.395654 179.678188 
L 118.469019 180.197197 
L 119.542384 179.734827 
L 120.079067 180.452515 
L 121.152432 180.002493 
L 121.689115 180.462161 
L 122.225797 180.687273 
L 122.76248 180.468266 
L 123.299163 180.03913 
L 123.835845 180.260978 
L 124.372528 179.84605 
L 124.909211 180.479752 
L 125.445893 180.072905 
L 125.982576 178.868259 
L 126.519258 172.508275 
L 127.055941 157.451458 
L 127.592624 146.085937 
L 128.665989 176.708106 
L 129.202671 179.564669 
L 129.739354 180.502511 
L 130.276037 180.687273 
L 130.812719 180.326845 
L 131.886085 180.687273 
L 134.569498 180.687273 
L 135.10618 180.523669 
L 135.642863 180.687273 
L 136.179545 180.687273 
L 136.716228 180.52931 
L 137.252911 180.687273 
L 137.789593 180.378548 
L 138.326276 180.687273 
L 139.399641 180.687273 
L 139.936324 180.53975 
L 140.473006 180.687273 
L 141.009689 180.687273 
L 141.546372 180.544587 
L 143.156419 180.549189 
L 143.693102 180.687273 
L 144.229785 180.552135 
L 144.766467 180.286173 
L 145.30315 179.761277 
L 145.839833 153.330739 
L 146.376515 107.118866 
L 146.913198 168.382677 
L 147.44988 179.672515 
L 147.986563 180.561736 
L 148.523246 180.687273 
L 162.476994 180.687273 
L 163.013676 180.495663 
L 164.087041 180.593175 
L 164.623724 180.687273 
L 165.697089 180.412408 
L 166.233772 180.596455 
L 166.770455 180.597248 
L 167.307137 180.151823 
L 167.84382 180.510334 
L 168.380502 180.24874 
L 168.917185 179.469921 
L 169.453868 174.824962 
L 170.527233 161.787482 
L 171.063915 164.552071 
L 171.600598 171.437512 
L 172.137281 175.481338 
L 173.210646 162.240099 
L 173.747329 163.843246 
L 174.284011 174.292872 
L 174.820694 178.229755 
L 175.357376 180.372762 
L 175.894059 180.29733 
L 176.430742 180.068417 
L 176.967424 180.073407 
L 177.504107 179.241051 
L 178.577472 169.676041 
L 179.650837 178.033186 
L 180.18752 179.370679 
L 180.724203 180.324422 
L 181.260885 180.687273 
L 181.797568 180.187172 
L 182.33425 180.474605 
L 183.944298 180.618007 
L 185.017663 180.550845 
L 185.554346 180.348787 
L 186.091029 180.485713 
L 186.627711 180.353865 
L 187.701077 180.293144 
L 188.237759 180.035274 
L 188.774442 180.040104 
L 189.311124 178.760096 
L 189.847807 174.693191 
L 190.921172 149.833988 
L 191.457855 157.731139 
L 191.994537 171.70764 
L 192.53122 172.817666 
L 193.067903 169.150875 
L 193.604585 170.14262 
L 194.141268 174.850904 
L 194.677951 178.476876 
L 195.214633 180.153424 
L 195.751316 180.451682 
L 197.898046 180.630008 
L 198.971411 180.574326 
L 199.508094 180.575106 
L 200.044777 180.46448 
L 202.191507 180.687273 
L 202.72819 180.525785 
L 204.87492 180.634872 
L 205.411603 180.687273 
L 205.948285 180.532148 
L 206.484968 180.533172 
L 207.021651 180.27904 
L 207.558333 178.862275 
L 208.095016 175.550235 
L 208.631699 170.53019 
L 209.168381 170.944104 
L 209.705064 176.143557 
L 210.241746 179.558669 
L 210.778429 180.492256 
L 211.315112 180.638831 
L 212.388477 180.591622 
L 212.925159 180.449663 
L 213.461842 179.837292 
L 213.998525 178.247266 
L 214.535207 173.972818 
L 215.07189 172.393192 
L 215.608573 172.030624 
L 216.145255 178.673868 
L 216.681938 180.232524 
L 218.291986 180.597997 
L 220.438716 180.513042 
L 220.975399 180.470806 
L 221.512081 180.601208 
L 223.122129 180.518227 
L 223.658812 179.385001 
L 224.195494 173.170697 
L 224.732177 163.543186 
L 225.26886 165.872938 
L 225.805542 174.287862 
L 226.342225 178.729797 
L 226.878907 180.484565 
L 229.025638 180.647667 
L 229.562321 180.529766 
L 230.099003 180.530673 
L 230.635686 180.687273 
L 233.319099 180.53596 
L 233.855781 180.687273 
L 234.392464 180.462858 
L 234.929147 180.65008 
L 237.075877 180.396316 
L 237.61256 180.325593 
L 238.149242 179.644195 
L 238.685925 177.074522 
L 239.222608 166.422368 
L 239.75929 158.469544 
L 240.832656 175.788201 
L 241.369338 180.165223 
L 241.906021 180.271897 
L 242.442703 180.515136 
L 242.979386 180.413338 
L 243.516069 179.869884 
L 244.052751 178.417637 
L 244.589434 173.308296 
L 245.126116 169.895636 
L 245.662799 175.353512 
L 246.199482 179.526699 
L 246.736164 180.192513 
L 247.272847 180.490415 
L 247.80953 180.458813 
L 248.882895 180.622681 
L 249.419577 180.590891 
L 249.95626 180.335715 
L 251.029625 180.339355 
L 251.566308 180.026496 
L 252.10299 178.840371 
L 252.639673 174.085055 
L 253.176356 166.559121 
L 253.713038 163.179061 
L 254.249721 170.137831 
L 254.786404 171.869618 
L 255.323086 171.610837 
L 256.396451 178.854238 
L 256.933134 180.328491 
L 258.006499 180.628075 
L 258.543182 180.540018 
L 258.543182 180.540018 
" clip-path="url(#pe1ff0a5f1d)" style="fill: none; stroke: #ff0000; stroke-opacity: 0.5; stroke-linecap: square"/>
   </g>
   <g id="patch_3">
    <path d="M 33.7 188.6 
L 33.7 14.52 
" style="fill: none; stroke: #000000; stroke-width: 0.8; stroke-linejoin: miter; stroke-linecap: square"/>
   </g>
   <g id="patch_4">
    <path d="M 269.25 188.6 
L 269.25 14.52 
" style="fill: none; stroke: #000000; stroke-width: 0.8; stroke-linejoin: miter; stroke-linecap: square"/>
   </g>
   <g id="patch_5">
    <path d="M 33.7 188.6 
L 269.25 188.6 
" style="fill: none; stroke: #000000; stroke-width: 0.8; stroke-linejoin: miter; stroke-linecap: square"/>
   </g>
   <g id="patch_6">
    <path d="M 33.7 14.52 
L 269.25 14.52 
" style="fill: none; stroke: #000000; stroke-width: 0.8; stroke-linejoin: miter; stroke-linecap: square"/>
   </g>
   <g id="legend_1">
    <g id="patch_7">
     <path d="M 213.917188 66.554375 
L 262.25 66.554375 
Q 264.25 66.554375 264.25 64.554375 
L 264.25 21.52 
Q 264.25 19.52 262.25 19.52 
L 213.917188 19.52 
Q 211.917188 19.52 211.917188 21.52 
L 211.917188 64.554375 
Q 211.917188 66.554375 213.917188 66.554375 
z
" style="fill: #ffffff; opacity: 0.8; stroke: #cccccc; stroke-linejoin: miter"/>
    </g>
    <g id="line2d_15">
     <path d="M 215.917188 27.618438 
L 225.917188 27.618438 
L 235.917188 27.618438 
" style="fill: none; stroke: #000000; stroke-opacity: 0.5; stroke-width: 0.5; stroke-linecap: square"/>
    </g>
    <g id="text_14">
     <!-- all -->
     <g transform="translate(243.917188 31.118438) scale(0.1 -0.1)">
      <defs>
       <path id="DejaVuSans-61" d="M 2194 1759 
Q 1497 1759 1228 1600 
Q 959 1441 959 1056 
Q 959 750 1161 570 
Q 1363 391 1709 391 
Q 2188 391 2477 730 
Q 2766 1069 2766 1631 
L 2766 1759 
L 2194 1759 
z
M 3341 1997 
L 3341 0 
L 2766 0 
L 2766 531 
Q 2569 213 2275 61 
Q 1981 -91 1556 -91 
Q 1019 -91 701 211 
Q 384 513 384 1019 
Q 384 1609 779 1909 
Q 1175 2209 1959 2209 
L 2766 2209 
L 2766 2266 
Q 2766 2663 2505 2880 
Q 2244 3097 1772 3097 
Q 1472 3097 1187 3025 
Q 903 2953 641 2809 
L 641 3341 
Q 956 3463 1253 3523 
Q 1550 3584 1831 3584 
Q 2591 3584 2966 3190 
Q 3341 2797 3341 1997 
z
" transform="scale(0.015625)"/>
       <path id="DejaVuSans-6c" d="M 603 4863 
L 1178 4863 
L 1178 0 
L 603 0 
L 603 4863 
z
" transform="scale(0.015625)"/>
      </defs>
      <use xlink:href="#DejaVuSans-61"/>
      <use xlink:href="#DejaVuSans-6c" transform="translate(61.279297 0)"/>
      <use xlink:href="#DejaVuSans-6c" transform="translate(89.0625 0)"/>
     </g>
    </g>
    <g id="line2d_16">
     <path d="M 215.917188 42.296563 
L 225.917188 42.296563 
L 235.917188 42.296563 
" style="fill: none; stroke: #0000ff; stroke-opacity: 0.5; stroke-linecap: square"/>
    </g>
    <g id="text_15">
     <!-- 1-1 -->
     <g transform="translate(243.917188 45.796563) scale(0.1 -0.1)">
      <defs>
       <path id="DejaVuSans-2d" d="M 313 2009 
L 1997 2009 
L 1997 1497 
L 313 1497 
L 313 2009 
z
" transform="scale(0.015625)"/>
      </defs>
      <use xlink:href="#DejaVuSans-31"/>
      <use xlink:href="#DejaVuSans-2d" transform="translate(63.623047 0)"/>
      <use xlink:href="#DejaVuSans-31" transform="translate(99.707031 0)"/>
     </g>
    </g>
    <g id="line2d_17">
     <path d="M 215.917188 56.974688 
L 225.917188 56.974688 
L 235.917188 56.974688 
" style="fill: none; stroke: #ff0000; stroke-opacity: 0.5; stroke-linecap: square"/>
    </g>
    <g id="text_16">
     <!-- 2-2 -->
     <g transform="translate(243.917188 60.474688) scale(0.1 -0.1)">
      <use xlink:href="#DejaVuSans-32"/>
      <use xlink:href="#DejaVuSans-2d" transform="translate(63.623047 0)"/>
      <use xlink:href="#DejaVuSans-32" transform="translate(99.707031 0)"/>
     </g>
    </g>
   </g>
  </g>
 </g>
 <defs>
  <clipPath id="pe1ff0a5f1d">
   <rect x="33.7" y="14.52" width="235.55" height="174.08"/>
  </clipPath>
 </defs>
</svg>
