<?xml version="1.0" encoding="utf-8" standalone="no"?>
<!DOCTYPE svg PUBLIC "-//W3C//DTD SVG 1.1//EN"
  "http://www.w3.org/Graphics/SVG/1.1/DTD/svg11.dtd">
<svg xmlns:xlink="http://www.w3.org/1999/xlink" width="288pt" height="216pt" viewBox="0 0 288 216" xmlns="http://www.w3.org/2000/svg" version="1.1">
 <metadata>
  <rdf:RDF xmlns:dc="http://purl.org/dc/elements/1.1/" xmlns:cc="http://creativecommons.org/ns#" xmlns:rdf="http://www.w3.org/1999/02/22-rdf-syntax-ns#">
   <cc:Work>
    <dc:type rdf:resource="http://purl.org/dc/dcmitype/StillImage"/>
    <dc:date>2025-09-18T00:16:21.462063</dc:date>
    <dc:format>image/svg+xml</dc:format>
    <dc:creator>
     <cc:Agent>
      <dc:title>Matplotlib v3.10.0, https://matplotlib.org/</dc:title>
     </cc:Agent>
    </dc:creator>
   </cc:Work>
  </rdf:RDF>
 </metadata>
 <defs>
  <style type="text/css">*{stroke-linejoin: round; stroke-linecap: butt}</style>
 </defs>
 <g id="figure_1">
  <g id="patch_1">
   <path d="M 0 216 
L 288 216 
L 288 0 
L 0 0 
z
" style="fill: #ffffff"/>
  </g>
  <g id="axes_1">
   <g id="patch_2">
    <path d="M 33.7 188.6 
L 269.25 188.6 
L 269.25 14.52 
L 33.7 14.52 
z
" style="fill: #ffffff"/>
   </g>
   <g id="matplotlib.axis_1">
    <g id="xtick_1">
     <g id="line2d_1">
      <defs>
       <path id="m2e77f1b1d8" d="M 0 0 
L 0 3.5 
" style="stroke: #000000; stroke-width: 0.8"/>
      </defs>
      <g>
       <use xlink:href="#m2e77f1b1d8" x="44.138477" y="188.6" style="stroke: #000000; stroke-width: 0.8"/>
      </g>
     </g>
     <g id="text_1">
      <!-- 0 -->
      <g transform="translate(40.957227 203.198437) scale(0.1 -0.1)">
       <defs>
        <path id="DejaVuSans-30" d="M 2034 4250 
Q 1547 4250 1301 3770 
Q 1056 3291 1056 2328 
Q 1056 1369 1301 889 
Q 1547 409 2034 409 
Q 2525 409 2770 889 
Q 3016 1369 3016 2328 
Q 3016 3291 2770 3770 
Q 2525 4250 2034 4250 
z
M 2034 4750 
Q 2819 4750 3233 4129 
Q 3647 3509 3647 2328 
Q 3647 1150 3233 529 
Q 2819 -91 2034 -91 
Q 1250 -91 836 529 
Q 422 1150 422 2328 
Q 422 3509 836 4129 
Q 1250 4750 2034 4750 
z
" transform="scale(0.015625)"/>
       </defs>
       <use xlink:href="#DejaVuSans-30"/>
      </g>
     </g>
    </g>
    <g id="xtick_2">
     <g id="line2d_2">
      <g>
       <use xlink:href="#m2e77f1b1d8" x="87.073086" y="188.6" style="stroke: #000000; stroke-width: 0.8"/>
      </g>
     </g>
     <g id="text_2">
      <!-- 200 -->
      <g transform="translate(77.529336 203.198437) scale(0.1 -0.1)">
       <defs>
        <path id="DejaVuSans-32" d="M 1228 531 
L 3431 531 
L 3431 0 
L 469 0 
L 469 531 
Q 828 903 1448 1529 
Q 2069 2156 2228 2338 
Q 2531 2678 2651 2914 
Q 2772 3150 2772 3378 
Q 2772 3750 2511 3984 
Q 2250 4219 1831 4219 
Q 1534 4219 1204 4116 
Q 875 4013 500 3803 
L 500 4441 
Q 881 4594 1212 4672 
Q 1544 4750 1819 4750 
Q 2544 4750 2975 4387 
Q 3406 4025 3406 3419 
Q 3406 3131 3298 2873 
Q 3191 2616 2906 2266 
Q 2828 2175 2409 1742 
Q 1991 1309 1228 531 
z
" transform="scale(0.015625)"/>
       </defs>
       <use xlink:href="#DejaVuSans-32"/>
       <use xlink:href="#DejaVuSans-30" transform="translate(63.623047 0)"/>
       <use xlink:href="#DejaVuSans-30" transform="translate(127.246094 0)"/>
      </g>
     </g>
    </g>
    <g id="xtick_3">
     <g id="line2d_3">
      <g>
       <use xlink:href="#m2e77f1b1d8" x="130.007695" y="188.6" style="stroke: #000000; stroke-width: 0.8"/>
      </g>
     </g>
     <g id="text_3">
      <!-- 400 -->
      <g transform="translate(120.463945 203.198437) scale(0.1 -0.1)">
       <defs>
        <path id="DejaVuSans-34" d="M 2419 4116 
L 825 1625 
L 2419 1625 
L 2419 4116 
z
M 2253 4666 
L 3047 4666 
L 3047 1625 
L 3713 1625 
L 3713 1100 
L 3047 1100 
L 3047 0 
L 2419 0 
L 2419 1100 
L 313 1100 
L 313 1709 
L 2253 4666 
z
" transform="scale(0.015625)"/>
       </defs>
       <use xlink:href="#DejaVuSans-34"/>
       <use xlink:href="#DejaVuSans-30" transform="translate(63.623047 0)"/>
       <use xlink:href="#DejaVuSans-30" transform="translate(127.246094 0)"/>
      </g>
     </g>
    </g>
    <g id="xtick_4">
     <g id="line2d_4">
      <g>
       <use xlink:href="#m2e77f1b1d8" x="172.942305" y="188.6" style="stroke: #000000; stroke-width: 0.8"/>
      </g>
     </g>
     <g id="text_4">
      <!-- 600 -->
      <g transform="translate(163.398555 203.198437) scale(0.1 -0.1)">
       <defs>
        <path id="DejaVuSans-36" d="M 2113 2584 
Q 1688 2584 1439 2293 
Q 1191 2003 1191 1497 
Q 1191 994 1439 701 
Q 1688 409 2113 409 
Q 2538 409 2786 701 
Q 3034 994 3034 1497 
Q 3034 2003 2786 2293 
Q 2538 2584 2113 2584 
z
M 3366 4563 
L 3366 3988 
Q 3128 4100 2886 4159 
Q 2644 4219 2406 4219 
Q 1781 4219 1451 3797 
Q 1122 3375 1075 2522 
Q 1259 2794 1537 2939 
Q 1816 3084 2150 3084 
Q 2853 3084 3261 2657 
Q 3669 2231 3669 1497 
Q 3669 778 3244 343 
Q 2819 -91 2113 -91 
Q 1303 -91 875 529 
Q 447 1150 447 2328 
Q 447 3434 972 4092 
Q 1497 4750 2381 4750 
Q 2619 4750 2861 4703 
Q 3103 4656 3366 4563 
z
" transform="scale(0.015625)"/>
       </defs>
       <use xlink:href="#DejaVuSans-36"/>
       <use xlink:href="#DejaVuSans-30" transform="translate(63.623047 0)"/>
       <use xlink:href="#DejaVuSans-30" transform="translate(127.246094 0)"/>
      </g>
     </g>
    </g>
    <g id="xtick_5">
     <g id="line2d_5">
      <g>
       <use xlink:href="#m2e77f1b1d8" x="215.876914" y="188.6" style="stroke: #000000; stroke-width: 0.8"/>
      </g>
     </g>
     <g id="text_5">
      <!-- 800 -->
      <g transform="translate(206.333164 203.198437) scale(0.1 -0.1)">
       <defs>
        <path id="DejaVuSans-38" d="M 2034 2216 
Q 1584 2216 1326 1975 
Q 1069 1734 1069 1313 
Q 1069 891 1326 650 
Q 1584 409 2034 409 
Q 2484 409 2743 651 
Q 3003 894 3003 1313 
Q 3003 1734 2745 1975 
Q 2488 2216 2034 2216 
z
M 1403 2484 
Q 997 2584 770 2862 
Q 544 3141 544 3541 
Q 544 4100 942 4425 
Q 1341 4750 2034 4750 
Q 2731 4750 3128 4425 
Q 3525 4100 3525 3541 
Q 3525 3141 3298 2862 
Q 3072 2584 2669 2484 
Q 3125 2378 3379 2068 
Q 3634 1759 3634 1313 
Q 3634 634 3220 271 
Q 2806 -91 2034 -91 
Q 1263 -91 848 271 
Q 434 634 434 1313 
Q 434 1759 690 2068 
Q 947 2378 1403 2484 
z
M 1172 3481 
Q 1172 3119 1398 2916 
Q 1625 2713 2034 2713 
Q 2441 2713 2670 2916 
Q 2900 3119 2900 3481 
Q 2900 3844 2670 4047 
Q 2441 4250 2034 4250 
Q 1625 4250 1398 4047 
Q 1172 3844 1172 3481 
z
" transform="scale(0.015625)"/>
       </defs>
       <use xlink:href="#DejaVuSans-38"/>
       <use xlink:href="#DejaVuSans-30" transform="translate(63.623047 0)"/>
       <use xlink:href="#DejaVuSans-30" transform="translate(127.246094 0)"/>
      </g>
     </g>
    </g>
    <g id="xtick_6">
     <g id="line2d_6">
      <g>
       <use xlink:href="#m2e77f1b1d8" x="258.811523" y="188.6" style="stroke: #000000; stroke-width: 0.8"/>
      </g>
     </g>
     <g id="text_6">
      <!-- 1000 -->
      <g transform="translate(246.086523 203.198437) scale(0.1 -0.1)">
       <defs>
        <path id="DejaVuSans-31" d="M 794 531 
L 1825 531 
L 1825 4091 
L 703 3866 
L 703 4441 
L 1819 4666 
L 2450 4666 
L 2450 531 
L 3481 531 
L 3481 0 
L 794 0 
L 794 531 
z
" transform="scale(0.015625)"/>
       </defs>
       <use xlink:href="#DejaVuSans-31"/>
       <use xlink:href="#DejaVuSans-30" transform="translate(63.623047 0)"/>
       <use xlink:href="#DejaVuSans-30" transform="translate(127.246094 0)"/>
       <use xlink:href="#DejaVuSans-30" transform="translate(190.869141 0)"/>
      </g>
     </g>
    </g>
    <g id="text_7">
     <!-- q (nm) -->
     <g transform="translate(134.771094 216.876563) scale(0.1 -0.1)">
      <defs>
       <path id="DejaVuSans-71" d="M 947 1747 
Q 947 1113 1208 752 
Q 1469 391 1925 391 
Q 2381 391 2643 752 
Q 2906 1113 2906 1747 
Q 2906 2381 2643 2742 
Q 2381 3103 1925 3103 
Q 1469 3103 1208 2742 
Q 947 2381 947 1747 
z
M 2906 525 
Q 2725 213 2448 61 
Q 2172 -91 1784 -91 
Q 1150 -91 751 415 
Q 353 922 353 1747 
Q 353 2572 751 3078 
Q 1150 3584 1784 3584 
Q 2172 3584 2448 3432 
Q 2725 3281 2906 2969 
L 2906 3500 
L 3481 3500 
L 3481 -1331 
L 2906 -1331 
L 2906 525 
z
" transform="scale(0.015625)"/>
       <path id="DejaVuSans-20" transform="scale(0.015625)"/>
       <path id="DejaVuSans-28" d="M 1984 4856 
Q 1566 4138 1362 3434 
Q 1159 2731 1159 2009 
Q 1159 1288 1364 580 
Q 1569 -128 1984 -844 
L 1484 -844 
Q 1016 -109 783 600 
Q 550 1309 550 2009 
Q 550 2706 781 3412 
Q 1013 4119 1484 4856 
L 1984 4856 
z
" transform="scale(0.015625)"/>
       <path id="DejaVuSans-6e" d="M 3513 2113 
L 3513 0 
L 2938 0 
L 2938 2094 
Q 2938 2591 2744 2837 
Q 2550 3084 2163 3084 
Q 1697 3084 1428 2787 
Q 1159 2491 1159 1978 
L 1159 0 
L 581 0 
L 581 3500 
L 1159 3500 
L 1159 2956 
Q 1366 3272 1645 3428 
Q 1925 3584 2291 3584 
Q 2894 3584 3203 3211 
Q 3513 2838 3513 2113 
z
" transform="scale(0.015625)"/>
       <path id="DejaVuSans-6d" d="M 3328 2828 
Q 3544 3216 3844 3400 
Q 4144 3584 4550 3584 
Q 5097 3584 5394 3201 
Q 5691 2819 5691 2113 
L 5691 0 
L 5113 0 
L 5113 2094 
Q 5113 2597 4934 2840 
Q 4756 3084 4391 3084 
Q 3944 3084 3684 2787 
Q 3425 2491 3425 1978 
L 3425 0 
L 2847 0 
L 2847 2094 
Q 2847 2600 2669 2842 
Q 2491 3084 2119 3084 
Q 1678 3084 1418 2786 
Q 1159 2488 1159 1978 
L 1159 0 
L 581 0 
L 581 3500 
L 1159 3500 
L 1159 2956 
Q 1356 3278 1631 3431 
Q 1906 3584 2284 3584 
Q 2666 3584 2933 3390 
Q 3200 3197 3328 2828 
z
" transform="scale(0.015625)"/>
       <path id="DejaVuSans-29" d="M 513 4856 
L 1013 4856 
Q 1481 4119 1714 3412 
Q 1947 2706 1947 2009 
Q 1947 1309 1714 600 
Q 1481 -109 1013 -844 
L 513 -844 
Q 928 -128 1133 580 
Q 1338 1288 1338 2009 
Q 1338 2731 1133 3434 
Q 928 4138 513 4856 
z
" transform="scale(0.015625)"/>
      </defs>
      <use xlink:href="#DejaVuSans-71"/>
      <use xlink:href="#DejaVuSans-20" transform="translate(63.476562 0)"/>
      <use xlink:href="#DejaVuSans-28" transform="translate(95.263672 0)"/>
      <use xlink:href="#DejaVuSans-6e" transform="translate(134.277344 0)"/>
      <use xlink:href="#DejaVuSans-6d" transform="translate(197.65625 0)"/>
      <use xlink:href="#DejaVuSans-29" transform="translate(295.068359 0)"/>
     </g>
    </g>
   </g>
   <g id="matplotlib.axis_2">
    <g id="ytick_1">
     <g id="line2d_7">
      <defs>
       <path id="m6b073632de" d="M 0 0 
L -3.5 0 
" style="stroke: #000000; stroke-width: 0.8"/>
      </defs>
      <g>
       <use xlink:href="#m6b073632de" x="33.7" y="180.687273" style="stroke: #000000; stroke-width: 0.8"/>
      </g>
     </g>
     <g id="text_8">
      <!-- 0 -->
      <g transform="translate(20.3375 184.486491) scale(0.1 -0.1)">
       <use xlink:href="#DejaVuSans-30"/>
      </g>
     </g>
    </g>
    <g id="ytick_2">
     <g id="line2d_8">
      <g>
       <use xlink:href="#m6b073632de" x="33.7" y="158.873673" style="stroke: #000000; stroke-width: 0.8"/>
      </g>
     </g>
     <g id="text_9">
      <!-- 10000 -->
      <g transform="translate(-5.1125 162.672892) scale(0.1 -0.1)">
       <use xlink:href="#DejaVuSans-31"/>
       <use xlink:href="#DejaVuSans-30" transform="translate(63.623047 0)"/>
       <use xlink:href="#DejaVuSans-30" transform="translate(127.246094 0)"/>
       <use xlink:href="#DejaVuSans-30" transform="translate(190.869141 0)"/>
       <use xlink:href="#DejaVuSans-30" transform="translate(254.492188 0)"/>
      </g>
     </g>
    </g>
    <g id="ytick_3">
     <g id="line2d_9">
      <g>
       <use xlink:href="#m6b073632de" x="33.7" y="137.060074" style="stroke: #000000; stroke-width: 0.8"/>
      </g>
     </g>
     <g id="text_10">
      <!-- 20000 -->
      <g transform="translate(-5.1125 140.859293) scale(0.1 -0.1)">
       <use xlink:href="#DejaVuSans-32"/>
       <use xlink:href="#DejaVuSans-30" transform="translate(63.623047 0)"/>
       <use xlink:href="#DejaVuSans-30" transform="translate(127.246094 0)"/>
       <use xlink:href="#DejaVuSans-30" transform="translate(190.869141 0)"/>
       <use xlink:href="#DejaVuSans-30" transform="translate(254.492188 0)"/>
      </g>
     </g>
    </g>
    <g id="ytick_4">
     <g id="line2d_10">
      <g>
       <use xlink:href="#m6b073632de" x="33.7" y="115.246474" style="stroke: #000000; stroke-width: 0.8"/>
      </g>
     </g>
     <g id="text_11">
      <!-- 30000 -->
      <g transform="translate(-5.1125 119.045693) scale(0.1 -0.1)">
       <defs>
        <path id="DejaVuSans-33" d="M 2597 2516 
Q 3050 2419 3304 2112 
Q 3559 1806 3559 1356 
Q 3559 666 3084 287 
Q 2609 -91 1734 -91 
Q 1441 -91 1130 -33 
Q 819 25 488 141 
L 488 750 
Q 750 597 1062 519 
Q 1375 441 1716 441 
Q 2309 441 2620 675 
Q 2931 909 2931 1356 
Q 2931 1769 2642 2001 
Q 2353 2234 1838 2234 
L 1294 2234 
L 1294 2753 
L 1863 2753 
Q 2328 2753 2575 2939 
Q 2822 3125 2822 3475 
Q 2822 3834 2567 4026 
Q 2313 4219 1838 4219 
Q 1578 4219 1281 4162 
Q 984 4106 628 3988 
L 628 4550 
Q 988 4650 1302 4700 
Q 1616 4750 1894 4750 
Q 2613 4750 3031 4423 
Q 3450 4097 3450 3541 
Q 3450 3153 3228 2886 
Q 3006 2619 2597 2516 
z
" transform="scale(0.015625)"/>
       </defs>
       <use xlink:href="#DejaVuSans-33"/>
       <use xlink:href="#DejaVuSans-30" transform="translate(63.623047 0)"/>
       <use xlink:href="#DejaVuSans-30" transform="translate(127.246094 0)"/>
       <use xlink:href="#DejaVuSans-30" transform="translate(190.869141 0)"/>
       <use xlink:href="#DejaVuSans-30" transform="translate(254.492188 0)"/>
      </g>
     </g>
    </g>
    <g id="ytick_5">
     <g id="line2d_11">
      <g>
       <use xlink:href="#m6b073632de" x="33.7" y="93.432875" style="stroke: #000000; stroke-width: 0.8"/>
      </g>
     </g>
     <g id="text_12">
      <!-- 40000 -->
      <g transform="translate(-5.1125 97.232094) scale(0.1 -0.1)">
       <use xlink:href="#DejaVuSans-34"/>
       <use xlink:href="#DejaVuSans-30" transform="translate(63.623047 0)"/>
       <use xlink:href="#DejaVuSans-30" transform="translate(127.246094 0)"/>
       <use xlink:href="#DejaVuSans-30" transform="translate(190.869141 0)"/>
       <use xlink:href="#DejaVuSans-30" transform="translate(254.492188 0)"/>
      </g>
     </g>
    </g>
    <g id="ytick_6">
     <g id="line2d_12">
      <g>
       <use xlink:href="#m6b073632de" x="33.7" y="71.619275" style="stroke: #000000; stroke-width: 0.8"/>
      </g>
     </g>
     <g id="text_13">
      <!-- 50000 -->
      <g transform="translate(-5.1125 75.418494) scale(0.1 -0.1)">
       <defs>
        <path id="DejaVuSans-35" d="M 691 4666 
L 3169 4666 
L 3169 4134 
L 1269 4134 
L 1269 2991 
Q 1406 3038 1543 3061 
Q 1681 3084 1819 3084 
Q 2600 3084 3056 2656 
Q 3513 2228 3513 1497 
Q 3513 744 3044 326 
Q 2575 -91 1722 -91 
Q 1428 -91 1123 -41 
Q 819 9 494 109 
L 494 744 
Q 775 591 1075 516 
Q 1375 441 1709 441 
Q 2250 441 2565 725 
Q 2881 1009 2881 1497 
Q 2881 1984 2565 2268 
Q 2250 2553 1709 2553 
Q 1456 2553 1204 2497 
Q 953 2441 691 2322 
L 691 4666 
z
" transform="scale(0.015625)"/>
       </defs>
       <use xlink:href="#DejaVuSans-35"/>
       <use xlink:href="#DejaVuSans-30" transform="translate(63.623047 0)"/>
       <use xlink:href="#DejaVuSans-30" transform="translate(127.246094 0)"/>
       <use xlink:href="#DejaVuSans-30" transform="translate(190.869141 0)"/>
       <use xlink:href="#DejaVuSans-30" transform="translate(254.492188 0)"/>
      </g>
     </g>
    </g>
    <g id="ytick_7">
     <g id="line2d_13">
      <g>
       <use xlink:href="#m6b073632de" x="33.7" y="49.805676" style="stroke: #000000; stroke-width: 0.8"/>
      </g>
     </g>
     <g id="text_14">
      <!-- 60000 -->
      <g transform="translate(-5.1125 53.604895) scale(0.1 -0.1)">
       <use xlink:href="#DejaVuSans-36"/>
       <use xlink:href="#DejaVuSans-30" transform="translate(63.623047 0)"/>
       <use xlink:href="#DejaVuSans-30" transform="translate(127.246094 0)"/>
       <use xlink:href="#DejaVuSans-30" transform="translate(190.869141 0)"/>
       <use xlink:href="#DejaVuSans-30" transform="translate(254.492188 0)"/>
      </g>
     </g>
    </g>
    <g id="ytick_8">
     <g id="line2d_14">
      <g>
       <use xlink:href="#m6b073632de" x="33.7" y="27.992076" style="stroke: #000000; stroke-width: 0.8"/>
      </g>
     </g>
     <g id="text_15">
      <!-- 70000 -->
      <g transform="translate(-5.1125 31.791295) scale(0.1 -0.1)">
       <defs>
        <path id="DejaVuSans-37" d="M 525 4666 
L 3525 4666 
L 3525 4397 
L 1831 0 
L 1172 0 
L 2766 4134 
L 525 4134 
L 525 4666 
z
" transform="scale(0.015625)"/>
       </defs>
       <use xlink:href="#DejaVuSans-37"/>
       <use xlink:href="#DejaVuSans-30" transform="translate(63.623047 0)"/>
       <use xlink:href="#DejaVuSans-30" transform="translate(127.246094 0)"/>
       <use xlink:href="#DejaVuSans-30" transform="translate(190.869141 0)"/>
       <use xlink:href="#DejaVuSans-30" transform="translate(254.492188 0)"/>
      </g>
     </g>
    </g>
    <g id="text_16">
     <!-- rdf -->
     <g transform="translate(-11.192187 108.462344) rotate(-90) scale(0.1 -0.1)">
      <defs>
       <path id="DejaVuSans-72" d="M 2631 2963 
Q 2534 3019 2420 3045 
Q 2306 3072 2169 3072 
Q 1681 3072 1420 2755 
Q 1159 2438 1159 1844 
L 1159 0 
L 581 0 
L 581 3500 
L 1159 3500 
L 1159 2956 
Q 1341 3275 1631 3429 
Q 1922 3584 2338 3584 
Q 2397 3584 2469 3576 
Q 2541 3569 2628 3553 
L 2631 2963 
z
" transform="scale(0.015625)"/>
       <path id="DejaVuSans-64" d="M 2906 2969 
L 2906 4863 
L 3481 4863 
L 3481 0 
L 2906 0 
L 2906 525 
Q 2725 213 2448 61 
Q 2172 -91 1784 -91 
Q 1150 -91 751 415 
Q 353 922 353 1747 
Q 353 2572 751 3078 
Q 1150 3584 1784 3584 
Q 2172 3584 2448 3432 
Q 2725 3281 2906 2969 
z
M 947 1747 
Q 947 1113 1208 752 
Q 1469 391 1925 391 
Q 2381 391 2643 752 
Q 2906 1113 2906 1747 
Q 2906 2381 2643 2742 
Q 2381 3103 1925 3103 
Q 1469 3103 1208 2742 
Q 947 2381 947 1747 
z
" transform="scale(0.015625)"/>
       <path id="DejaVuSans-66" d="M 2375 4863 
L 2375 4384 
L 1825 4384 
Q 1516 4384 1395 4259 
Q 1275 4134 1275 3809 
L 1275 3500 
L 2222 3500 
L 2222 3053 
L 1275 3053 
L 1275 0 
L 697 0 
L 697 3053 
L 147 3053 
L 147 3500 
L 697 3500 
L 697 3744 
Q 697 4328 969 4595 
Q 1241 4863 1831 4863 
L 2375 4863 
z
" transform="scale(0.015625)"/>
      </defs>
      <use xlink:href="#DejaVuSans-72"/>
      <use xlink:href="#DejaVuSans-64" transform="translate(39.363281 0)"/>
      <use xlink:href="#DejaVuSans-66" transform="translate(102.839844 0)"/>
     </g>
    </g>
   </g>
   <g id="line2d_15">
    <path d="M 44.406818 180.687273 
L 91.634888 180.687273 
L 92.171571 180.425197 
L 92.708254 180.687273 
L 93.244936 180.436528 
L 93.781619 180.564597 
L 94.318301 180.567207 
L 94.854984 180.687273 
L 95.391667 91.83802 
L 95.928349 22.432727 
L 96.465032 179.362272 
L 97.001715 180.362714 
L 97.538397 180.051138 
L 98.07508 178.297043 
L 98.611762 176.000545 
L 99.685128 167.067219 
L 100.22181 168.480092 
L 100.758493 176.066283 
L 101.295175 178.836409 
L 101.831858 179.324831 
L 102.368541 180.33062 
L 102.905223 180.162021 
L 103.441906 180.343413 
L 104.515271 180.438467 
L 105.051954 180.524312 
L 105.588636 180.206893 
L 106.125319 180.372541 
L 106.662002 180.145907 
L 107.198684 179.62289 
L 108.272049 174.439451 
L 108.808732 173.819837 
L 109.345415 177.55871 
L 109.882097 179.288322 
L 110.41878 180.274356 
L 110.955463 180.416399 
L 111.492145 179.754264 
L 112.028828 179.572173 
L 112.56551 177.97537 
L 113.102193 171.660605 
L 113.638876 160.97137 
L 114.175558 164.970475 
L 115.248923 178.11639 
L 115.785606 178.74372 
L 116.322289 178.07623 
L 116.858971 171.99745 
L 117.395654 163.843029 
L 117.932337 166.0858 
L 118.469019 173.79256 
L 119.005702 178.529743 
L 119.542384 180.049194 
L 120.079067 180.058181 
L 120.61575 179.911905 
L 121.152432 180.228513 
L 121.689115 180.335382 
L 122.225797 180.637691 
L 122.76248 180.393831 
L 124.372528 180.640309 
L 124.909211 180.36288 
L 125.982576 180.190796 
L 126.519258 178.058936 
L 127.592624 172.396041 
L 128.129306 176.144476 
L 128.665989 175.313375 
L 129.202671 169.865765 
L 129.739354 170.001045 
L 130.276037 175.104928 
L 130.812719 178.715316 
L 131.349402 180.01152 
L 132.422767 180.570904 
L 132.95945 180.380695 
L 133.496132 180.460093 
L 134.032815 180.313149 
L 135.10618 180.394995 
L 135.642863 179.929016 
L 136.179545 178.082075 
L 136.716228 171.445199 
L 137.252911 167.227557 
L 137.789593 175.309787 
L 138.326276 177.415654 
L 138.862959 171.421329 
L 139.399641 160.931049 
L 139.936324 161.118783 
L 140.473006 173.650536 
L 141.009689 178.496482 
L 141.546372 179.412736 
L 142.083054 180.088483 
L 142.619737 179.845611 
L 143.156419 179.330502 
L 144.229785 172.207291 
L 144.766467 173.014057 
L 145.30315 175.960727 
L 146.376515 158.213452 
L 146.913198 174.24719 
L 147.44988 178.194585 
L 147.986563 176.0897 
L 148.523246 168.811772 
L 149.059928 165.69228 
L 150.133293 177.996282 
L 150.669976 179.674972 
L 151.206659 180.502661 
L 151.743341 179.982285 
L 152.280024 178.489839 
L 152.816707 175.388604 
L 153.353389 173.640936 
L 154.426754 178.773397 
L 154.963437 180.145733 
L 155.50012 180.297215 
L 156.036802 179.91462 
L 156.573485 178.152241 
L 157.110167 175.594199 
L 157.64685 175.079056 
L 158.183533 177.014582 
L 158.720215 179.628001 
L 159.256898 180.208191 
L 159.793581 180.438648 
L 161.403628 180.4894 
L 163.013676 180.302174 
L 163.550359 180.114806 
L 164.087041 178.943182 
L 164.623724 175.293235 
L 165.160407 169.561201 
L 165.697089 171.50062 
L 166.233772 176.205215 
L 166.770455 177.22946 
L 167.84382 175.649421 
L 168.380502 177.671039 
L 168.917185 178.706653 
L 169.453868 178.396301 
L 169.99055 174.750878 
L 170.527233 171.943338 
L 171.063915 172.917893 
L 171.600598 175.458176 
L 172.137281 173.435177 
L 172.673963 169.652768 
L 173.210646 167.56663 
L 174.284011 177.545785 
L 174.820694 179.536575 
L 175.357376 178.790952 
L 175.894059 176.577143 
L 176.430742 175.09025 
L 176.967424 177.191634 
L 177.504107 177.151718 
L 178.040789 176.488666 
L 178.577472 177.258133 
L 179.650837 175.336595 
L 180.724203 179.520454 
L 181.260885 180.204896 
L 181.797568 180.527732 
L 184.480981 180.395626 
L 185.017663 179.529562 
L 185.554346 177.76957 
L 186.091029 173.81562 
L 186.627711 172.973835 
L 187.164394 177.347169 
L 187.701077 179.279051 
L 188.237759 179.755437 
L 188.774442 177.984733 
L 189.311124 172.797294 
L 189.847807 170.064291 
L 190.38449 172.502763 
L 190.921172 173.179925 
L 191.457855 176.187752 
L 191.994537 178.19798 
L 193.067903 174.362584 
L 194.677951 179.700055 
L 195.214633 178.925538 
L 195.751316 174.808081 
L 196.287998 177.095786 
L 196.824681 177.678624 
L 197.361364 176.527798 
L 197.898046 176.543992 
L 198.434729 173.423436 
L 198.971411 173.082735 
L 200.044777 179.132512 
L 200.581459 180.094332 
L 201.118142 180.441901 
L 201.654825 180.199866 
L 202.191507 179.234968 
L 202.72819 177.453695 
L 203.264872 176.782952 
L 204.338238 177.730398 
L 204.87492 177.469266 
L 205.411603 178.443823 
L 205.948285 178.320113 
L 206.484968 176.810128 
L 207.558333 174.438256 
L 208.095016 175.165139 
L 208.631699 176.139695 
L 209.168381 176.813069 
L 209.705064 175.878629 
L 210.241746 173.827643 
L 210.778429 174.895167 
L 211.315112 177.831421 
L 211.851794 178.860031 
L 212.388477 177.120152 
L 212.925159 174.542782 
L 213.461842 174.402413 
L 213.998525 176.569209 
L 214.535207 177.292751 
L 215.07189 177.44856 
L 215.608573 177.25287 
L 216.681938 179.48897 
L 217.21862 179.758786 
L 217.755303 178.701342 
L 218.291986 176.939226 
L 218.828668 176.387598 
L 219.902033 177.350102 
L 220.438716 177.428746 
L 220.975399 176.394702 
L 221.512081 177.19898 
L 222.048764 178.738736 
L 222.585447 179.65239 
L 223.122129 178.913023 
L 223.658812 177.666565 
L 224.195494 175.586363 
L 224.732177 172.678041 
L 225.26886 175.222713 
L 225.805542 178.690242 
L 226.342225 179.976939 
L 226.878907 180.38851 
L 227.41559 180.354256 
L 227.952273 179.864058 
L 228.488955 179.032617 
L 229.025638 178.838791 
L 230.099003 179.620669 
L 231.172368 177.446331 
L 231.709051 177.971825 
L 232.245734 179.456912 
L 232.782416 179.370441 
L 233.855781 177.327359 
L 234.392464 178.281767 
L 234.929147 179.66569 
L 235.465829 180.208248 
L 236.002512 180.36697 
L 236.539195 180.066571 
L 237.075877 178.932967 
L 237.61256 177.295037 
L 238.685925 174.936026 
L 239.222608 173.124618 
L 239.75929 173.03962 
L 240.295973 173.764982 
L 240.832656 173.505791 
L 241.369338 175.565516 
L 241.906021 178.461069 
L 242.442703 179.234228 
L 242.979386 178.469748 
L 243.516069 177.972094 
L 244.052751 176.337545 
L 244.589434 175.329987 
L 245.126116 176.069533 
L 245.662799 178.00731 
L 246.199482 179.176679 
L 246.736164 179.64134 
L 247.80953 178.063493 
L 248.346212 178.338281 
L 248.882895 178.891469 
L 249.419577 177.89644 
L 249.95626 175.570033 
L 250.492943 176.498309 
L 251.029625 178.427074 
L 251.566308 179.401395 
L 252.10299 178.464313 
L 253.176356 176.003218 
L 254.249721 175.578428 
L 254.786404 174.078212 
L 255.323086 175.453989 
L 255.859769 177.679205 
L 256.396451 177.868871 
L 257.469817 176.801026 
L 258.006499 176.985762 
L 258.543182 176.780669 
L 258.543182 176.780669 
" clip-path="url(#pb0cb7b9279)" style="fill: none; stroke: #000000; stroke-opacity: 0.5; stroke-width: 0.5; stroke-linecap: square"/>
   </g>
   <g id="line2d_16">
    <path d="M 44.406818 180.687273 
L 91.634888 180.687273 
L 92.171571 179.884665 
L 92.708254 180.687273 
L 93.244936 179.919368 
L 93.781619 180.311577 
L 94.318301 180.319571 
L 94.854984 180.687273 
L 95.391667 180.687273 
L 95.928349 180.342077 
L 96.465032 180.687273 
L 97.538397 178.73911 
L 98.07508 173.367192 
L 98.611762 166.334168 
L 99.685128 138.975853 
L 100.22181 143.302777 
L 100.758493 166.535491 
L 101.295175 175.019003 
L 101.831858 176.514793 
L 102.368541 179.595025 
L 102.905223 179.078689 
L 103.441906 179.634203 
L 103.978589 179.65301 
L 105.051954 180.188205 
L 105.588636 179.216111 
L 106.125319 179.723406 
L 106.662002 179.029339 
L 107.198684 177.4276 
L 108.272049 161.553318 
L 108.808732 159.655748 
L 109.345415 171.106049 
L 109.882097 176.402986 
L 110.41878 179.633476 
L 110.955463 180.272498 
L 111.492145 179.666794 
L 112.028828 180.084627 
L 112.56551 180.687273 
L 113.102193 180.492595 
L 113.638876 180.49559 
L 114.175558 179.743494 
L 114.712241 179.757795 
L 115.248923 179.405568 
L 115.785606 177.801391 
L 116.322289 173.579432 
L 116.858971 155.475349 
L 117.395654 129.619349 
L 117.932337 136.310308 
L 118.469019 159.739792 
L 119.005702 175.070951 
L 119.542384 178.895999 
L 120.079067 179.402877 
L 120.61575 178.471013 
L 121.152432 179.594532 
L 122.225797 180.687273 
L 122.76248 180.387718 
L 123.299163 180.687273 
L 123.835845 180.541502 
L 124.372528 180.687273 
L 124.909211 180.403429 
L 125.445893 180.687273 
L 125.982576 180.687273 
L 126.519258 180.550844 
L 127.055941 180.687273 
L 127.592624 180.554331 
L 128.129306 180.687273 
L 129.202671 180.687273 
L 130.276037 180.437697 
L 130.812719 180.687273 
L 131.349402 180.565538 
L 131.886085 180.687273 
L 132.95945 180.687273 
L 133.496132 180.339404 
L 134.032815 180.228971 
L 135.10618 180.463497 
L 135.642863 178.807427 
L 136.179545 173.146028 
L 136.716228 152.599477 
L 137.252911 140.214405 
L 137.789593 165.696669 
L 138.326276 174.216453 
L 138.862959 162.938775 
L 139.399641 142.936389 
L 139.936324 149.007891 
L 140.473006 174.60139 
L 141.009689 179.700611 
L 141.546372 179.906619 
L 142.083054 180.590757 
L 143.156419 180.498404 
L 143.693102 180.033341 
L 144.229785 180.132754 
L 144.766467 180.412963 
L 145.30315 179.692113 
L 145.839833 178.09129 
L 146.376515 155.265029 
L 146.913198 169.9055 
L 147.44988 180.253531 
L 147.986563 180.601419 
L 148.523246 180.517325 
L 150.133293 180.687273 
L 153.353389 180.687273 
L 153.890072 180.53354 
L 154.963437 180.687273 
L 155.50012 180.537954 
L 157.110167 180.687273 
L 161.403628 180.619941 
L 161.940311 180.553834 
L 163.013676 180.621752 
L 164.087041 180.62292 
L 164.623724 180.49593 
L 165.160407 180.497624 
L 165.697089 180.060677 
L 166.233772 178.886084 
L 167.84382 165.984894 
L 168.380502 172.109855 
L 168.917185 176.048834 
L 169.453868 177.208702 
L 169.99055 173.321656 
L 170.527233 167.240159 
L 171.063915 167.296117 
L 171.600598 169.802238 
L 172.673963 156.645363 
L 173.210646 153.510254 
L 174.284011 174.892923 
L 174.820694 178.789728 
L 175.357376 179.342948 
L 175.894059 179.567219 
L 176.430742 179.153058 
L 176.967424 177.696059 
L 177.504107 174.388503 
L 178.040789 173.302826 
L 178.577472 176.947627 
L 179.114155 179.060985 
L 179.650837 180.183074 
L 180.18752 180.487181 
L 182.33425 180.396389 
L 183.944298 180.35568 
L 184.480981 180.076158 
L 185.017663 178.214761 
L 185.554346 175.131542 
L 186.091029 170.486694 
L 186.627711 170.700194 
L 187.164394 176.342182 
L 187.701077 178.62078 
L 188.237759 179.973836 
L 188.774442 180.067639 
L 189.847807 180.425614 
L 190.921172 180.300504 
L 191.457855 179.791373 
L 191.994537 178.611998 
L 193.067903 169.750261 
L 194.677951 179.134739 
L 195.214633 179.794815 
L 195.751316 179.519161 
L 196.287998 177.367596 
L 196.824681 172.585317 
L 197.361364 169.723578 
L 197.898046 172.893844 
L 198.434729 171.042368 
L 198.971411 172.422223 
L 199.508094 176.353129 
L 200.044777 179.354066 
L 200.581459 180.233303 
L 201.118142 180.424265 
L 201.654825 179.642395 
L 202.191507 176.90674 
L 202.72819 171.189389 
L 203.264872 169.607864 
L 203.801555 172.878399 
L 204.338238 177.620693 
L 204.87492 179.325471 
L 205.411603 178.764938 
L 206.484968 172.993921 
L 207.021651 174.859227 
L 207.558333 178.295071 
L 208.095016 179.895083 
L 208.631699 180.173994 
L 209.168381 178.81747 
L 210.241746 173.60643 
L 210.778429 175.085696 
L 211.315112 178.53389 
L 211.851794 180.226431 
L 212.388477 180.425613 
L 212.925159 180.362273 
L 213.461842 180.654978 
L 215.608573 180.466839 
L 216.145255 180.593389 
L 217.21862 180.656365 
L 217.755303 180.472256 
L 218.291986 180.168303 
L 218.828668 178.957867 
L 219.365351 175.591121 
L 219.902033 173.344397 
L 220.438716 174.044376 
L 220.975399 173.403679 
L 221.512081 176.125705 
L 222.585447 179.756828 
L 223.122129 180.138128 
L 223.658812 179.59555 
L 224.195494 177.288802 
L 224.732177 170.978163 
L 225.26886 172.841757 
L 225.805542 177.57321 
L 226.342225 179.627463 
L 226.878907 180.299108 
L 229.025638 180.280983 
L 229.562321 179.87939 
L 230.099003 178.786292 
L 230.635686 174.191891 
L 231.172368 171.105969 
L 231.709051 172.765964 
L 232.245734 177.678123 
L 232.782416 179.750623 
L 233.319099 180.480309 
L 234.392464 180.175685 
L 235.465829 180.484926 
L 236.002512 180.209385 
L 236.539195 179.461694 
L 237.61256 173.118345 
L 238.149242 175.669188 
L 238.685925 177.556038 
L 239.222608 177.135327 
L 240.832656 169.989774 
L 241.369338 173.35632 
L 241.906021 178.106944 
L 242.442703 179.415858 
L 242.979386 179.141696 
L 243.516069 177.403104 
L 244.052751 173.111654 
L 244.589434 173.106092 
L 245.126116 175.805248 
L 245.662799 179.25098 
L 246.199482 180.052305 
L 246.736164 180.281237 
L 247.272847 180.148753 
L 247.80953 180.285506 
L 248.346212 180.176603 
L 248.882895 179.295795 
L 249.95626 173.080999 
L 250.492943 175.012202 
L 251.566308 179.740431 
L 252.10299 180.2377 
L 252.639673 180.431694 
L 253.176356 180.115171 
L 254.249721 177.247705 
L 254.786404 173.196293 
L 255.323086 174.43843 
L 255.859769 177.52703 
L 256.396451 178.776044 
L 256.933134 177.538377 
L 257.469817 173.607328 
L 258.006499 172.084152 
L 258.543182 171.744503 
L 258.543182 171.744503 
" clip-path="url(#pb0cb7b9279)" style="fill: none; stroke: #0000ff; stroke-opacity: 0.5; stroke-linecap: square"/>
   </g>
   <g id="line2d_17">
    <path d="M 44.406818 180.687273 
L 109.882097 180.687273 
L 110.955463 179.949895 
L 111.492145 177.421741 
L 112.028828 175.687544 
L 112.56551 165.922471 
L 113.102193 131.888172 
L 113.638876 73.685909 
L 114.175558 96.795867 
L 115.248923 168.968831 
L 115.785606 175.236163 
L 116.322289 179.107753 
L 116.858971 178.197207 
L 117.395654 179.76713 
L 118.469019 180.389353 
L 119.005702 178.92529 
L 119.542384 180.397774 
L 120.079067 179.831009 
L 120.61575 180.405843 
L 121.152432 180.687273 
L 121.689115 179.866194 
L 122.225797 180.417329 
L 122.76248 180.421002 
L 123.299163 179.373908 
L 123.835845 179.650684 
L 124.372528 180.431581 
L 124.909211 179.930356 
L 125.445893 178.197419 
L 125.982576 178.721425 
L 126.519258 167.105056 
L 127.592624 139.091235 
L 128.129306 161.554196 
L 128.665989 177.461994 
L 129.202671 180.004835 
L 129.739354 180.013367 
L 130.276037 180.465428 
L 130.812719 180.24906 
L 131.886085 180.687273 
L 134.032815 180.687273 
L 134.569498 180.485993 
L 135.10618 180.687273 
L 141.546372 180.687273 
L 142.083054 180.51569 
L 143.156419 180.519389 
L 143.693102 180.355117 
L 144.229785 179.865764 
L 144.766467 180.687273 
L 145.30315 178.9181 
L 145.839833 124.98804 
L 146.376515 107.934189 
L 146.913198 171.025558 
L 147.44988 179.607738 
L 147.986563 180.687273 
L 160.866946 180.687273 
L 161.403628 180.447871 
L 162.476994 180.452193 
L 163.013676 180.337831 
L 163.550359 180.687273 
L 164.087041 180.572868 
L 164.623724 180.687273 
L 165.160407 180.462504 
L 165.697089 180.575878 
L 167.307137 180.253268 
L 167.84382 180.364587 
L 168.380502 179.834196 
L 168.917185 178.361446 
L 169.453868 174.503147 
L 169.99055 161.565252 
L 170.527233 156.987383 
L 171.063915 162.60251 
L 171.600598 171.872864 
L 172.137281 172.248023 
L 172.673963 163.550953 
L 173.210646 157.764965 
L 173.747329 164.519508 
L 174.284011 174.564941 
L 174.820694 179.048758 
L 175.357376 179.922501 
L 175.894059 180.118357 
L 176.430742 180.122964 
L 176.967424 179.567754 
L 177.504107 176.800429 
L 178.040789 172.149544 
L 178.577472 170.942567 
L 179.114155 172.465487 
L 179.650837 177.370767 
L 180.18752 179.53119 
L 180.724203 180.510809 
L 181.260885 180.337103 
L 182.33425 180.601085 
L 182.870933 180.259661 
L 183.407616 180.347815 
L 183.944298 179.929347 
L 184.480981 180.436559 
L 185.017663 180.18966 
L 185.554346 180.358044 
L 186.091029 180.278841 
L 186.627711 179.876551 
L 187.164394 180.606808 
L 187.701077 180.128222 
L 188.237759 180.37019 
L 189.311124 176.782132 
L 189.847807 169.67823 
L 190.38449 154.597675 
L 190.921172 143.32828 
L 191.457855 159.526986 
L 191.994537 171.350889 
L 193.067903 166.067486 
L 193.604585 169.782638 
L 194.141268 175.273886 
L 194.677951 178.726177 
L 195.214633 180.11033 
L 195.751316 180.329231 
L 196.287998 180.402856 
L 196.824681 180.687273 
L 197.898046 180.478404 
L 198.971411 180.687273 
L 200.044777 180.619554 
L 200.581459 180.485508 
L 201.118142 180.687273 
L 204.338238 180.623135 
L 204.87492 180.496143 
L 205.411603 180.560699 
L 205.948285 180.372934 
L 206.484968 180.437463 
L 207.021651 179.942772 
L 207.558333 177.543896 
L 208.095016 171.869854 
L 208.631699 167.608176 
L 209.168381 170.896307 
L 209.705064 176.604092 
L 210.241746 179.911699 
L 210.778429 180.450169 
L 211.851794 180.628753 
L 212.388477 180.338393 
L 212.925159 180.456162 
L 213.461842 179.48162 
L 213.998525 176.522637 
L 214.535207 170.312808 
L 215.07189 169.758199 
L 216.145255 178.517525 
L 216.681938 180.079095 
L 217.755303 180.578058 
L 218.291986 180.687273 
L 218.828668 180.579396 
L 219.902033 180.580709 
L 220.975399 180.581999 
L 222.048764 180.375252 
L 222.585447 180.428816 
L 223.122129 179.865162 
L 223.658812 177.163114 
L 224.732177 158.581546 
L 225.805542 175.699786 
L 226.342225 179.199821 
L 226.878907 180.243655 
L 227.952273 180.638556 
L 229.025638 180.63912 
L 229.562321 180.687273 
L 230.099003 180.449278 
L 231.172368 180.687273 
L 232.245734 180.687273 
L 233.319099 180.687273 
L 234.392464 180.368952 
L 235.465829 180.462443 
L 236.539195 180.464946 
L 237.61256 180.115618 
L 238.149242 178.325821 
L 238.685925 172.163357 
L 239.222608 157.937523 
L 239.75929 157.072773 
L 240.295973 169.30814 
L 240.832656 177.879279 
L 241.369338 179.502472 
L 241.906021 179.97183 
L 242.979386 180.146061 
L 243.516069 179.030955 
L 244.052751 175.950903 
L 244.589434 168.889204 
L 245.126116 170.459724 
L 245.662799 176.593712 
L 246.199482 179.316549 
L 246.736164 180.326352 
L 247.272847 180.567602 
L 247.80953 180.48887 
L 248.346212 180.568856 
L 248.882895 180.53021 
L 249.419577 180.648212 
L 250.492943 180.1461 
L 251.029625 180.187361 
L 251.566308 179.463074 
L 252.10299 175.92989 
L 253.176356 160.571896 
L 253.713038 163.373097 
L 254.249721 169.389833 
L 254.786404 170.07795 
L 255.323086 171.755741 
L 255.859769 176.207395 
L 256.396451 179.554693 
L 257.469817 180.614936 
L 258.006499 180.435364 
L 258.543182 180.544045 
L 258.543182 180.544045 
" clip-path="url(#pb0cb7b9279)" style="fill: none; stroke: #ff0000; stroke-opacity: 0.5; stroke-linecap: square"/>
   </g>
   <g id="patch_3">
    <path d="M 33.7 188.6 
L 33.7 14.52 
" style="fill: none; stroke: #000000; stroke-width: 0.8; stroke-linejoin: miter; stroke-linecap: square"/>
   </g>
   <g id="patch_4">
    <path d="M 269.25 188.6 
L 269.25 14.52 
" style="fill: none; stroke: #000000; stroke-width: 0.8; stroke-linejoin: miter; stroke-linecap: square"/>
   </g>
   <g id="patch_5">
    <path d="M 33.7 188.6 
L 269.25 188.6 
" style="fill: none; stroke: #000000; stroke-width: 0.8; stroke-linejoin: miter; stroke-linecap: square"/>
   </g>
   <g id="patch_6">
    <path d="M 33.7 14.52 
L 269.25 14.52 
" style="fill: none; stroke: #000000; stroke-width: 0.8; stroke-linejoin: miter; stroke-linecap: square"/>
   </g>
   <g id="legend_1">
    <g id="patch_7">
     <path d="M 213.917188 66.554375 
L 262.25 66.554375 
Q 264.25 66.554375 264.25 64.554375 
L 264.25 21.52 
Q 264.25 19.52 262.25 19.52 
L 213.917188 19.52 
Q 211.917188 19.52 211.917188 21.52 
L 211.917188 64.554375 
Q 211.917188 66.554375 213.917188 66.554375 
z
" style="fill: #ffffff; opacity: 0.8; stroke: #cccccc; stroke-linejoin: miter"/>
    </g>
    <g id="line2d_18">
     <path d="M 215.917188 27.618438 
L 225.917188 27.618438 
L 235.917188 27.618438 
" style="fill: none; stroke: #000000; stroke-opacity: 0.5; stroke-width: 0.5; stroke-linecap: square"/>
    </g>
    <g id="text_17">
     <!-- all -->
     <g transform="translate(243.917188 31.118438) scale(0.1 -0.1)">
      <defs>
       <path id="DejaVuSans-61" d="M 2194 1759 
Q 1497 1759 1228 1600 
Q 959 1441 959 1056 
Q 959 750 1161 570 
Q 1363 391 1709 391 
Q 2188 391 2477 730 
Q 2766 1069 2766 1631 
L 2766 1759 
L 2194 1759 
z
M 3341 1997 
L 3341 0 
L 2766 0 
L 2766 531 
Q 2569 213 2275 61 
Q 1981 -91 1556 -91 
Q 1019 -91 701 211 
Q 384 513 384 1019 
Q 384 1609 779 1909 
Q 1175 2209 1959 2209 
L 2766 2209 
L 2766 2266 
Q 2766 2663 2505 2880 
Q 2244 3097 1772 3097 
Q 1472 3097 1187 3025 
Q 903 2953 641 2809 
L 641 3341 
Q 956 3463 1253 3523 
Q 1550 3584 1831 3584 
Q 2591 3584 2966 3190 
Q 3341 2797 3341 1997 
z
" transform="scale(0.015625)"/>
       <path id="DejaVuSans-6c" d="M 603 4863 
L 1178 4863 
L 1178 0 
L 603 0 
L 603 4863 
z
" transform="scale(0.015625)"/>
      </defs>
      <use xlink:href="#DejaVuSans-61"/>
      <use xlink:href="#DejaVuSans-6c" transform="translate(61.279297 0)"/>
      <use xlink:href="#DejaVuSans-6c" transform="translate(89.0625 0)"/>
     </g>
    </g>
    <g id="line2d_19">
     <path d="M 215.917188 42.296563 
L 225.917188 42.296563 
L 235.917188 42.296563 
" style="fill: none; stroke: #0000ff; stroke-opacity: 0.5; stroke-linecap: square"/>
    </g>
    <g id="text_18">
     <!-- 1-1 -->
     <g transform="translate(243.917188 45.796563) scale(0.1 -0.1)">
      <defs>
       <path id="DejaVuSans-2d" d="M 313 2009 
L 1997 2009 
L 1997 1497 
L 313 1497 
L 313 2009 
z
" transform="scale(0.015625)"/>
      </defs>
      <use xlink:href="#DejaVuSans-31"/>
      <use xlink:href="#DejaVuSans-2d" transform="translate(63.623047 0)"/>
      <use xlink:href="#DejaVuSans-31" transform="translate(99.707031 0)"/>
     </g>
    </g>
    <g id="line2d_20">
     <path d="M 215.917188 56.974688 
L 225.917188 56.974688 
L 235.917188 56.974688 
" style="fill: none; stroke: #ff0000; stroke-opacity: 0.5; stroke-linecap: square"/>
    </g>
    <g id="text_19">
     <!-- 2-2 -->
     <g transform="translate(243.917188 60.474688) scale(0.1 -0.1)">
      <use xlink:href="#DejaVuSans-32"/>
      <use xlink:href="#DejaVuSans-2d" transform="translate(63.623047 0)"/>
      <use xlink:href="#DejaVuSans-32" transform="translate(99.707031 0)"/>
     </g>
    </g>
   </g>
  </g>
 </g>
 <defs>
  <clipPath id="pb0cb7b9279">
   <rect x="33.7" y="14.52" width="235.55" height="174.08"/>
  </clipPath>
 </defs>
</svg>
