<?xml version="1.0" encoding="utf-8" standalone="no"?>
<!DOCTYPE svg PUBLIC "-//W3C//DTD SVG 1.1//EN"
  "http://www.w3.org/Graphics/SVG/1.1/DTD/svg11.dtd">
<svg xmlns:xlink="http://www.w3.org/1999/xlink" width="288pt" height="216pt" viewBox="0 0 288 216" xmlns="http://www.w3.org/2000/svg" version="1.1">
 <metadata>
  <rdf:RDF xmlns:dc="http://purl.org/dc/elements/1.1/" xmlns:cc="http://creativecommons.org/ns#" xmlns:rdf="http://www.w3.org/1999/02/22-rdf-syntax-ns#">
   <cc:Work>
    <dc:type rdf:resource="http://purl.org/dc/dcmitype/StillImage"/>
    <dc:date>2025-09-18T00:03:22.508424</dc:date>
    <dc:format>image/svg+xml</dc:format>
    <dc:creator>
     <cc:Agent>
      <dc:title>Matplotlib v3.10.0, https://matplotlib.org/</dc:title>
     </cc:Agent>
    </dc:creator>
   </cc:Work>
  </rdf:RDF>
 </metadata>
 <defs>
  <style type="text/css">*{stroke-linejoin: round; stroke-linecap: butt}</style>
 </defs>
 <g id="figure_1">
  <g id="patch_1">
   <path d="M 0 216 
L 288 216 
L 288 0 
L 0 0 
z
" style="fill: #ffffff"/>
  </g>
  <g id="axes_1">
   <g id="patch_2">
    <path d="M 33.7 188.6 
L 269.25 188.6 
L 269.25 14.52 
L 33.7 14.52 
z
" style="fill: #ffffff"/>
   </g>
   <g id="matplotlib.axis_1">
    <g id="xtick_1">
     <g id="line2d_1">
      <defs>
       <path id="m393bd0e83d" d="M 0 0 
L 0 3.5 
" style="stroke: #000000; stroke-width: 0.8"/>
      </defs>
      <g>
       <use xlink:href="#m393bd0e83d" x="44.138477" y="188.6" style="stroke: #000000; stroke-width: 0.8"/>
      </g>
     </g>
     <g id="text_1">
      <!-- 0 -->
      <g transform="translate(40.957227 203.198437) scale(0.1 -0.1)">
       <defs>
        <path id="DejaVuSans-30" d="M 2034 4250 
Q 1547 4250 1301 3770 
Q 1056 3291 1056 2328 
Q 1056 1369 1301 889 
Q 1547 409 2034 409 
Q 2525 409 2770 889 
Q 3016 1369 3016 2328 
Q 3016 3291 2770 3770 
Q 2525 4250 2034 4250 
z
M 2034 4750 
Q 2819 4750 3233 4129 
Q 3647 3509 3647 2328 
Q 3647 1150 3233 529 
Q 2819 -91 2034 -91 
Q 1250 -91 836 529 
Q 422 1150 422 2328 
Q 422 3509 836 4129 
Q 1250 4750 2034 4750 
z
" transform="scale(0.015625)"/>
       </defs>
       <use xlink:href="#DejaVuSans-30"/>
      </g>
     </g>
    </g>
    <g id="xtick_2">
     <g id="line2d_2">
      <g>
       <use xlink:href="#m393bd0e83d" x="87.073086" y="188.6" style="stroke: #000000; stroke-width: 0.8"/>
      </g>
     </g>
     <g id="text_2">
      <!-- 200 -->
      <g transform="translate(77.529336 203.198437) scale(0.1 -0.1)">
       <defs>
        <path id="DejaVuSans-32" d="M 1228 531 
L 3431 531 
L 3431 0 
L 469 0 
L 469 531 
Q 828 903 1448 1529 
Q 2069 2156 2228 2338 
Q 2531 2678 2651 2914 
Q 2772 3150 2772 3378 
Q 2772 3750 2511 3984 
Q 2250 4219 1831 4219 
Q 1534 4219 1204 4116 
Q 875 4013 500 3803 
L 500 4441 
Q 881 4594 1212 4672 
Q 1544 4750 1819 4750 
Q 2544 4750 2975 4387 
Q 3406 4025 3406 3419 
Q 3406 3131 3298 2873 
Q 3191 2616 2906 2266 
Q 2828 2175 2409 1742 
Q 1991 1309 1228 531 
z
" transform="scale(0.015625)"/>
       </defs>
       <use xlink:href="#DejaVuSans-32"/>
       <use xlink:href="#DejaVuSans-30" transform="translate(63.623047 0)"/>
       <use xlink:href="#DejaVuSans-30" transform="translate(127.246094 0)"/>
      </g>
     </g>
    </g>
    <g id="xtick_3">
     <g id="line2d_3">
      <g>
       <use xlink:href="#m393bd0e83d" x="130.007695" y="188.6" style="stroke: #000000; stroke-width: 0.8"/>
      </g>
     </g>
     <g id="text_3">
      <!-- 400 -->
      <g transform="translate(120.463945 203.198437) scale(0.1 -0.1)">
       <defs>
        <path id="DejaVuSans-34" d="M 2419 4116 
L 825 1625 
L 2419 1625 
L 2419 4116 
z
M 2253 4666 
L 3047 4666 
L 3047 1625 
L 3713 1625 
L 3713 1100 
L 3047 1100 
L 3047 0 
L 2419 0 
L 2419 1100 
L 313 1100 
L 313 1709 
L 2253 4666 
z
" transform="scale(0.015625)"/>
       </defs>
       <use xlink:href="#DejaVuSans-34"/>
       <use xlink:href="#DejaVuSans-30" transform="translate(63.623047 0)"/>
       <use xlink:href="#DejaVuSans-30" transform="translate(127.246094 0)"/>
      </g>
     </g>
    </g>
    <g id="xtick_4">
     <g id="line2d_4">
      <g>
       <use xlink:href="#m393bd0e83d" x="172.942305" y="188.6" style="stroke: #000000; stroke-width: 0.8"/>
      </g>
     </g>
     <g id="text_4">
      <!-- 600 -->
      <g transform="translate(163.398555 203.198437) scale(0.1 -0.1)">
       <defs>
        <path id="DejaVuSans-36" d="M 2113 2584 
Q 1688 2584 1439 2293 
Q 1191 2003 1191 1497 
Q 1191 994 1439 701 
Q 1688 409 2113 409 
Q 2538 409 2786 701 
Q 3034 994 3034 1497 
Q 3034 2003 2786 2293 
Q 2538 2584 2113 2584 
z
M 3366 4563 
L 3366 3988 
Q 3128 4100 2886 4159 
Q 2644 4219 2406 4219 
Q 1781 4219 1451 3797 
Q 1122 3375 1075 2522 
Q 1259 2794 1537 2939 
Q 1816 3084 2150 3084 
Q 2853 3084 3261 2657 
Q 3669 2231 3669 1497 
Q 3669 778 3244 343 
Q 2819 -91 2113 -91 
Q 1303 -91 875 529 
Q 447 1150 447 2328 
Q 447 3434 972 4092 
Q 1497 4750 2381 4750 
Q 2619 4750 2861 4703 
Q 3103 4656 3366 4563 
z
" transform="scale(0.015625)"/>
       </defs>
       <use xlink:href="#DejaVuSans-36"/>
       <use xlink:href="#DejaVuSans-30" transform="translate(63.623047 0)"/>
       <use xlink:href="#DejaVuSans-30" transform="translate(127.246094 0)"/>
      </g>
     </g>
    </g>
    <g id="xtick_5">
     <g id="line2d_5">
      <g>
       <use xlink:href="#m393bd0e83d" x="215.876914" y="188.6" style="stroke: #000000; stroke-width: 0.8"/>
      </g>
     </g>
     <g id="text_5">
      <!-- 800 -->
      <g transform="translate(206.333164 203.198437) scale(0.1 -0.1)">
       <defs>
        <path id="DejaVuSans-38" d="M 2034 2216 
Q 1584 2216 1326 1975 
Q 1069 1734 1069 1313 
Q 1069 891 1326 650 
Q 1584 409 2034 409 
Q 2484 409 2743 651 
Q 3003 894 3003 1313 
Q 3003 1734 2745 1975 
Q 2488 2216 2034 2216 
z
M 1403 2484 
Q 997 2584 770 2862 
Q 544 3141 544 3541 
Q 544 4100 942 4425 
Q 1341 4750 2034 4750 
Q 2731 4750 3128 4425 
Q 3525 4100 3525 3541 
Q 3525 3141 3298 2862 
Q 3072 2584 2669 2484 
Q 3125 2378 3379 2068 
Q 3634 1759 3634 1313 
Q 3634 634 3220 271 
Q 2806 -91 2034 -91 
Q 1263 -91 848 271 
Q 434 634 434 1313 
Q 434 1759 690 2068 
Q 947 2378 1403 2484 
z
M 1172 3481 
Q 1172 3119 1398 2916 
Q 1625 2713 2034 2713 
Q 2441 2713 2670 2916 
Q 2900 3119 2900 3481 
Q 2900 3844 2670 4047 
Q 2441 4250 2034 4250 
Q 1625 4250 1398 4047 
Q 1172 3844 1172 3481 
z
" transform="scale(0.015625)"/>
       </defs>
       <use xlink:href="#DejaVuSans-38"/>
       <use xlink:href="#DejaVuSans-30" transform="translate(63.623047 0)"/>
       <use xlink:href="#DejaVuSans-30" transform="translate(127.246094 0)"/>
      </g>
     </g>
    </g>
    <g id="xtick_6">
     <g id="line2d_6">
      <g>
       <use xlink:href="#m393bd0e83d" x="258.811523" y="188.6" style="stroke: #000000; stroke-width: 0.8"/>
      </g>
     </g>
     <g id="text_6">
      <!-- 1000 -->
      <g transform="translate(246.086523 203.198437) scale(0.1 -0.1)">
       <defs>
        <path id="DejaVuSans-31" d="M 794 531 
L 1825 531 
L 1825 4091 
L 703 3866 
L 703 4441 
L 1819 4666 
L 2450 4666 
L 2450 531 
L 3481 531 
L 3481 0 
L 794 0 
L 794 531 
z
" transform="scale(0.015625)"/>
       </defs>
       <use xlink:href="#DejaVuSans-31"/>
       <use xlink:href="#DejaVuSans-30" transform="translate(63.623047 0)"/>
       <use xlink:href="#DejaVuSans-30" transform="translate(127.246094 0)"/>
       <use xlink:href="#DejaVuSans-30" transform="translate(190.869141 0)"/>
      </g>
     </g>
    </g>
    <g id="text_7">
     <!-- q (nm) -->
     <g transform="translate(134.771094 216.876563) scale(0.1 -0.1)">
      <defs>
       <path id="DejaVuSans-71" d="M 947 1747 
Q 947 1113 1208 752 
Q 1469 391 1925 391 
Q 2381 391 2643 752 
Q 2906 1113 2906 1747 
Q 2906 2381 2643 2742 
Q 2381 3103 1925 3103 
Q 1469 3103 1208 2742 
Q 947 2381 947 1747 
z
M 2906 525 
Q 2725 213 2448 61 
Q 2172 -91 1784 -91 
Q 1150 -91 751 415 
Q 353 922 353 1747 
Q 353 2572 751 3078 
Q 1150 3584 1784 3584 
Q 2172 3584 2448 3432 
Q 2725 3281 2906 2969 
L 2906 3500 
L 3481 3500 
L 3481 -1331 
L 2906 -1331 
L 2906 525 
z
" transform="scale(0.015625)"/>
       <path id="DejaVuSans-20" transform="scale(0.015625)"/>
       <path id="DejaVuSans-28" d="M 1984 4856 
Q 1566 4138 1362 3434 
Q 1159 2731 1159 2009 
Q 1159 1288 1364 580 
Q 1569 -128 1984 -844 
L 1484 -844 
Q 1016 -109 783 600 
Q 550 1309 550 2009 
Q 550 2706 781 3412 
Q 1013 4119 1484 4856 
L 1984 4856 
z
" transform="scale(0.015625)"/>
       <path id="DejaVuSans-6e" d="M 3513 2113 
L 3513 0 
L 2938 0 
L 2938 2094 
Q 2938 2591 2744 2837 
Q 2550 3084 2163 3084 
Q 1697 3084 1428 2787 
Q 1159 2491 1159 1978 
L 1159 0 
L 581 0 
L 581 3500 
L 1159 3500 
L 1159 2956 
Q 1366 3272 1645 3428 
Q 1925 3584 2291 3584 
Q 2894 3584 3203 3211 
Q 3513 2838 3513 2113 
z
" transform="scale(0.015625)"/>
       <path id="DejaVuSans-6d" d="M 3328 2828 
Q 3544 3216 3844 3400 
Q 4144 3584 4550 3584 
Q 5097 3584 5394 3201 
Q 5691 2819 5691 2113 
L 5691 0 
L 5113 0 
L 5113 2094 
Q 5113 2597 4934 2840 
Q 4756 3084 4391 3084 
Q 3944 3084 3684 2787 
Q 3425 2491 3425 1978 
L 3425 0 
L 2847 0 
L 2847 2094 
Q 2847 2600 2669 2842 
Q 2491 3084 2119 3084 
Q 1678 3084 1418 2786 
Q 1159 2488 1159 1978 
L 1159 0 
L 581 0 
L 581 3500 
L 1159 3500 
L 1159 2956 
Q 1356 3278 1631 3431 
Q 1906 3584 2284 3584 
Q 2666 3584 2933 3390 
Q 3200 3197 3328 2828 
z
" transform="scale(0.015625)"/>
       <path id="DejaVuSans-29" d="M 513 4856 
L 1013 4856 
Q 1481 4119 1714 3412 
Q 1947 2706 1947 2009 
Q 1947 1309 1714 600 
Q 1481 -109 1013 -844 
L 513 -844 
Q 928 -128 1133 580 
Q 1338 1288 1338 2009 
Q 1338 2731 1133 3434 
Q 928 4138 513 4856 
z
" transform="scale(0.015625)"/>
      </defs>
      <use xlink:href="#DejaVuSans-71"/>
      <use xlink:href="#DejaVuSans-20" transform="translate(63.476562 0)"/>
      <use xlink:href="#DejaVuSans-28" transform="translate(95.263672 0)"/>
      <use xlink:href="#DejaVuSans-6e" transform="translate(134.277344 0)"/>
      <use xlink:href="#DejaVuSans-6d" transform="translate(197.65625 0)"/>
      <use xlink:href="#DejaVuSans-29" transform="translate(295.068359 0)"/>
     </g>
    </g>
   </g>
   <g id="matplotlib.axis_2">
    <g id="ytick_1">
     <g id="line2d_7">
      <defs>
       <path id="mdf43deeccd" d="M 0 0 
L -3.5 0 
" style="stroke: #000000; stroke-width: 0.8"/>
      </defs>
      <g>
       <use xlink:href="#mdf43deeccd" x="33.7" y="180.687273" style="stroke: #000000; stroke-width: 0.8"/>
      </g>
     </g>
     <g id="text_8">
      <!-- 0 -->
      <g transform="translate(20.3375 184.486491) scale(0.1 -0.1)">
       <use xlink:href="#DejaVuSans-30"/>
      </g>
     </g>
    </g>
    <g id="ytick_2">
     <g id="line2d_8">
      <g>
       <use xlink:href="#mdf43deeccd" x="33.7" y="152.845187" style="stroke: #000000; stroke-width: 0.8"/>
      </g>
     </g>
     <g id="text_9">
      <!-- 5000 -->
      <g transform="translate(1.25 156.644406) scale(0.1 -0.1)">
       <defs>
        <path id="DejaVuSans-35" d="M 691 4666 
L 3169 4666 
L 3169 4134 
L 1269 4134 
L 1269 2991 
Q 1406 3038 1543 3061 
Q 1681 3084 1819 3084 
Q 2600 3084 3056 2656 
Q 3513 2228 3513 1497 
Q 3513 744 3044 326 
Q 2575 -91 1722 -91 
Q 1428 -91 1123 -41 
Q 819 9 494 109 
L 494 744 
Q 775 591 1075 516 
Q 1375 441 1709 441 
Q 2250 441 2565 725 
Q 2881 1009 2881 1497 
Q 2881 1984 2565 2268 
Q 2250 2553 1709 2553 
Q 1456 2553 1204 2497 
Q 953 2441 691 2322 
L 691 4666 
z
" transform="scale(0.015625)"/>
       </defs>
       <use xlink:href="#DejaVuSans-35"/>
       <use xlink:href="#DejaVuSans-30" transform="translate(63.623047 0)"/>
       <use xlink:href="#DejaVuSans-30" transform="translate(127.246094 0)"/>
       <use xlink:href="#DejaVuSans-30" transform="translate(190.869141 0)"/>
      </g>
     </g>
    </g>
    <g id="ytick_3">
     <g id="line2d_9">
      <g>
       <use xlink:href="#mdf43deeccd" x="33.7" y="125.003101" style="stroke: #000000; stroke-width: 0.8"/>
      </g>
     </g>
     <g id="text_10">
      <!-- 10000 -->
      <g transform="translate(-5.1125 128.80232) scale(0.1 -0.1)">
       <use xlink:href="#DejaVuSans-31"/>
       <use xlink:href="#DejaVuSans-30" transform="translate(63.623047 0)"/>
       <use xlink:href="#DejaVuSans-30" transform="translate(127.246094 0)"/>
       <use xlink:href="#DejaVuSans-30" transform="translate(190.869141 0)"/>
       <use xlink:href="#DejaVuSans-30" transform="translate(254.492188 0)"/>
      </g>
     </g>
    </g>
    <g id="ytick_4">
     <g id="line2d_10">
      <g>
       <use xlink:href="#mdf43deeccd" x="33.7" y="97.161016" style="stroke: #000000; stroke-width: 0.8"/>
      </g>
     </g>
     <g id="text_11">
      <!-- 15000 -->
      <g transform="translate(-5.1125 100.960234) scale(0.1 -0.1)">
       <use xlink:href="#DejaVuSans-31"/>
       <use xlink:href="#DejaVuSans-35" transform="translate(63.623047 0)"/>
       <use xlink:href="#DejaVuSans-30" transform="translate(127.246094 0)"/>
       <use xlink:href="#DejaVuSans-30" transform="translate(190.869141 0)"/>
       <use xlink:href="#DejaVuSans-30" transform="translate(254.492188 0)"/>
      </g>
     </g>
    </g>
    <g id="ytick_5">
     <g id="line2d_11">
      <g>
       <use xlink:href="#mdf43deeccd" x="33.7" y="69.31893" style="stroke: #000000; stroke-width: 0.8"/>
      </g>
     </g>
     <g id="text_12">
      <!-- 20000 -->
      <g transform="translate(-5.1125 73.118149) scale(0.1 -0.1)">
       <use xlink:href="#DejaVuSans-32"/>
       <use xlink:href="#DejaVuSans-30" transform="translate(63.623047 0)"/>
       <use xlink:href="#DejaVuSans-30" transform="translate(127.246094 0)"/>
       <use xlink:href="#DejaVuSans-30" transform="translate(190.869141 0)"/>
       <use xlink:href="#DejaVuSans-30" transform="translate(254.492188 0)"/>
      </g>
     </g>
    </g>
    <g id="ytick_6">
     <g id="line2d_12">
      <g>
       <use xlink:href="#mdf43deeccd" x="33.7" y="41.476844" style="stroke: #000000; stroke-width: 0.8"/>
      </g>
     </g>
     <g id="text_13">
      <!-- 25000 -->
      <g transform="translate(-5.1125 45.276063) scale(0.1 -0.1)">
       <use xlink:href="#DejaVuSans-32"/>
       <use xlink:href="#DejaVuSans-35" transform="translate(63.623047 0)"/>
       <use xlink:href="#DejaVuSans-30" transform="translate(127.246094 0)"/>
       <use xlink:href="#DejaVuSans-30" transform="translate(190.869141 0)"/>
       <use xlink:href="#DejaVuSans-30" transform="translate(254.492188 0)"/>
      </g>
     </g>
    </g>
    <g id="text_14">
     <!-- rdf -->
     <g transform="translate(-11.192187 108.462344) rotate(-90) scale(0.1 -0.1)">
      <defs>
       <path id="DejaVuSans-72" d="M 2631 2963 
Q 2534 3019 2420 3045 
Q 2306 3072 2169 3072 
Q 1681 3072 1420 2755 
Q 1159 2438 1159 1844 
L 1159 0 
L 581 0 
L 581 3500 
L 1159 3500 
L 1159 2956 
Q 1341 3275 1631 3429 
Q 1922 3584 2338 3584 
Q 2397 3584 2469 3576 
Q 2541 3569 2628 3553 
L 2631 2963 
z
" transform="scale(0.015625)"/>
       <path id="DejaVuSans-64" d="M 2906 2969 
L 2906 4863 
L 3481 4863 
L 3481 0 
L 2906 0 
L 2906 525 
Q 2725 213 2448 61 
Q 2172 -91 1784 -91 
Q 1150 -91 751 415 
Q 353 922 353 1747 
Q 353 2572 751 3078 
Q 1150 3584 1784 3584 
Q 2172 3584 2448 3432 
Q 2725 3281 2906 2969 
z
M 947 1747 
Q 947 1113 1208 752 
Q 1469 391 1925 391 
Q 2381 391 2643 752 
Q 2906 1113 2906 1747 
Q 2906 2381 2643 2742 
Q 2381 3103 1925 3103 
Q 1469 3103 1208 2742 
Q 947 2381 947 1747 
z
" transform="scale(0.015625)"/>
       <path id="DejaVuSans-66" d="M 2375 4863 
L 2375 4384 
L 1825 4384 
Q 1516 4384 1395 4259 
Q 1275 4134 1275 3809 
L 1275 3500 
L 2222 3500 
L 2222 3053 
L 1275 3053 
L 1275 0 
L 697 0 
L 697 3053 
L 147 3053 
L 147 3500 
L 697 3500 
L 697 3744 
Q 697 4328 969 4595 
Q 1241 4863 1831 4863 
L 2375 4863 
z
" transform="scale(0.015625)"/>
      </defs>
      <use xlink:href="#DejaVuSans-72"/>
      <use xlink:href="#DejaVuSans-64" transform="translate(39.363281 0)"/>
      <use xlink:href="#DejaVuSans-66" transform="translate(102.839844 0)"/>
     </g>
    </g>
   </g>
   <g id="line2d_13">
    <path d="M 44.406818 180.687273 
L 91.634888 180.687273 
L 92.171571 180.352768 
L 93.244936 180.367232 
L 93.781619 180.060956 
L 94.318301 179.46129 
L 94.854984 177.98688 
L 95.391667 166.585226 
L 95.928349 22.432727 
L 96.465032 142.071929 
L 97.001715 167.707303 
L 97.538397 175.54499 
L 98.07508 176.973252 
L 98.611762 175.745646 
L 99.148445 177.881881 
L 99.685128 178.185957 
L 100.22181 177.742869 
L 100.758493 178.2799 
L 101.295175 177.616186 
L 101.831858 178.136781 
L 102.368541 178.866401 
L 102.905223 178.899507 
L 103.441906 177.395601 
L 103.978589 177.454387 
L 104.515271 176.453046 
L 105.051954 177.567313 
L 105.588636 177.621579 
L 106.125319 176.067578 
L 106.662002 176.936238 
L 107.198684 175.835346 
L 107.735367 177.825042 
L 108.272049 176.746936 
L 108.808732 177.734735 
L 109.345415 174.697497 
L 109.882097 177.651805 
L 110.41878 176.998054 
L 110.955463 176.538476 
L 111.492145 177.454942 
L 112.028828 177.505839 
L 112.56551 176.236935 
L 113.102193 177.279561 
L 113.638876 177.172209 
L 114.175558 176.596535 
L 114.712241 176.813471 
L 115.248923 177.176958 
L 115.785606 177.07901 
L 116.322289 177.428691 
L 116.858971 176.746916 
L 117.395654 176.94825 
L 117.932337 177.427606 
L 118.469019 177.195145 
L 119.005702 176.831962 
L 119.542384 177.02238 
L 120.079067 176.271048 
L 120.61575 177.652342 
L 121.152432 176.653524 
L 121.689115 176.452516 
L 122.225797 177.649643 
L 122.76248 177.690969 
L 123.299163 176.376705 
L 123.835845 177.406613 
L 124.372528 177.929895 
L 124.909211 177.611522 
L 125.445893 176.834809 
L 125.982576 177.115593 
L 126.519258 177.048261 
L 127.055941 177.207468 
L 127.592624 176.587197 
L 128.129306 177.842843 
L 128.665989 176.906695 
L 129.202671 177.167567 
L 130.276037 177.150726 
L 131.349402 177.643132 
L 131.886085 177.279322 
L 132.422767 177.815719 
L 132.95945 176.872047 
L 133.496132 177.014398 
L 134.032815 177.631156 
L 134.569498 177.950436 
L 135.642863 176.078645 
L 136.179545 177.316543 
L 136.716228 176.635126 
L 137.252911 176.147614 
L 137.789593 176.903479 
L 138.326276 176.424502 
L 138.862959 176.386649 
L 139.399641 176.690113 
L 139.936324 176.734761 
L 140.473006 176.196555 
L 141.009689 176.328419 
L 141.546372 176.132311 
L 142.083054 175.53848 
L 142.619737 175.276151 
L 143.156419 175.806935 
L 143.693102 175.859413 
L 144.229785 174.986618 
L 144.766467 176.190502 
L 145.30315 175.483991 
L 146.376515 175.666516 
L 146.913198 175.426544 
L 147.44988 175.770292 
L 147.986563 175.964108 
L 148.523246 176.508348 
L 149.059928 177.742801 
L 149.596611 176.384805 
L 150.133293 177.664752 
L 150.669976 177.423112 
L 151.743341 177.421256 
L 152.280024 177.387597 
L 152.816707 177.616139 
L 153.353389 176.869808 
L 153.890072 177.0352 
L 154.426754 177.070658 
L 154.963437 177.294101 
L 155.50012 176.51773 
L 156.036802 177.851987 
L 156.573485 177.390601 
L 157.110167 176.393844 
L 157.64685 177.153136 
L 158.183533 177.48303 
L 159.256898 177.42603 
L 159.793581 177.571618 
L 160.330263 176.857171 
L 161.403628 177.151464 
L 161.940311 176.57186 
L 162.476994 177.270412 
L 163.013676 177.137361 
L 164.087041 177.576105 
L 164.623724 177.55059 
L 165.160407 177.736433 
L 165.697089 177.553506 
L 166.233772 176.493792 
L 166.770455 177.864732 
L 167.307137 177.584036 
L 167.84382 177.610897 
L 168.380502 177.287439 
L 168.917185 177.812302 
L 169.453868 177.787732 
L 169.99055 177.909852 
L 170.527233 177.643516 
L 171.063915 177.046413 
L 171.600598 177.837068 
L 172.137281 177.436965 
L 172.673963 177.744339 
L 173.210646 177.537131 
L 174.284011 178.135658 
L 174.820694 177.162373 
L 175.357376 177.101502 
L 175.894059 177.30848 
L 176.430742 177.644528 
L 176.967424 178.150224 
L 177.504107 176.782092 
L 178.040789 177.674209 
L 178.577472 177.442014 
L 179.114155 177.933748 
L 179.650837 177.871454 
L 180.18752 177.1014 
L 180.724203 177.253642 
L 181.260885 177.608832 
L 182.33425 176.565375 
L 182.870933 177.118485 
L 183.944298 177.488967 
L 185.017663 177.30421 
L 185.554346 177.407022 
L 186.091029 177.623263 
L 186.627711 177.076117 
L 187.164394 177.970906 
L 188.237759 177.676701 
L 189.847807 177.270312 
L 190.38449 176.537576 
L 190.921172 177.176819 
L 193.067903 177.903616 
L 194.677951 177.622288 
L 195.214633 177.914546 
L 195.751316 177.464084 
L 196.287998 177.786823 
L 196.824681 177.244397 
L 197.361364 178.123172 
L 197.898046 177.063786 
L 198.434729 177.44556 
L 198.971411 177.435791 
L 200.044777 178.051937 
L 201.118142 177.618074 
L 201.654825 178.136631 
L 202.191507 177.412456 
L 202.72819 177.373222 
L 203.801555 178.29558 
L 204.338238 177.740208 
L 204.87492 177.67024 
L 205.411603 177.719959 
L 206.484968 177.524824 
L 207.558333 177.855208 
L 208.095016 177.672746 
L 208.631699 177.977619 
L 209.168381 177.910199 
L 209.705064 178.097102 
L 210.778429 177.741257 
L 211.315112 177.704914 
L 212.388477 178.233591 
L 212.925159 177.734444 
L 213.461842 178.210754 
L 213.998525 177.905393 
L 214.535207 177.869725 
L 215.07189 177.411949 
L 215.608573 177.852404 
L 216.145255 177.687465 
L 216.681938 177.991258 
L 217.21862 177.904894 
L 217.755303 178.152503 
L 218.291986 177.659185 
L 218.828668 178.031814 
L 219.902033 178.36394 
L 220.438716 178.055267 
L 221.512081 177.694522 
L 222.048764 178.078318 
L 222.585447 178.142445 
L 223.122129 177.772218 
L 223.658812 178.10096 
L 224.195494 178.116353 
L 224.732177 178.320909 
L 225.26886 177.629196 
L 225.805542 177.740795 
L 226.342225 178.199812 
L 226.878907 178.029519 
L 227.41559 178.504583 
L 228.488955 178.143859 
L 229.025638 178.361804 
L 229.562321 177.746737 
L 230.099003 177.696714 
L 231.172368 178.370766 
L 231.709051 178.120753 
L 232.245734 178.266259 
L 232.782416 177.933001 
L 233.319099 178.250517 
L 233.855781 178.350055 
L 234.392464 177.702259 
L 234.929147 177.973441 
L 235.465829 178.051885 
L 236.002512 177.961788 
L 236.539195 178.414793 
L 237.075877 178.468873 
L 237.61256 178.171908 
L 238.149242 178.34983 
L 238.685925 178.219988 
L 239.222608 178.355213 
L 239.75929 177.682279 
L 240.295973 178.260307 
L 240.832656 178.094011 
L 241.369338 178.326333 
L 241.906021 178.062883 
L 242.442703 178.077076 
L 242.979386 178.422978 
L 243.516069 177.872116 
L 244.052751 178.50516 
L 244.589434 178.267137 
L 246.199482 178.078712 
L 247.272847 178.36806 
L 248.346212 178.059249 
L 249.419577 178.544508 
L 249.95626 178.063758 
L 250.492943 178.421746 
L 251.029625 178.289253 
L 252.10299 178.492376 
L 252.639673 178.574668 
L 253.176356 178.320576 
L 253.713038 178.578684 
L 254.249721 178.589446 
L 254.786404 178.200085 
L 255.323086 178.056975 
L 256.396451 178.58028 
L 256.933134 178.045487 
L 257.469817 178.838833 
L 258.006499 178.797483 
L 258.543182 178.135389 
L 258.543182 178.135389 
" clip-path="url(#paf931653ad)" style="fill: none; stroke: #000000; stroke-opacity: 0.5; stroke-width: 0.5; stroke-linecap: square"/>
   </g>
   <g id="line2d_14">
    <path d="M 44.406818 180.687273 
L 91.634888 180.687273 
L 92.171571 179.662853 
L 93.244936 179.707147 
L 93.781619 178.769176 
L 94.318301 176.932699 
L 94.854984 172.41732 
L 95.391667 175.288832 
L 95.928349 177.162512 
L 96.465032 176.371232 
L 97.001715 170.53804 
L 97.538397 175.714144 
L 98.07508 174.187736 
L 98.611762 171.129126 
L 99.148445 174.4389 
L 99.685128 176.091105 
L 100.22181 176.93009 
L 100.758493 174.051951 
L 101.295175 174.175977 
L 101.831858 173.586471 
L 102.368541 175.807904 
L 102.905223 177.265376 
L 103.441906 175.310875 
L 103.978589 176.06694 
L 104.515271 175.500345 
L 105.051954 173.680363 
L 105.588636 176.931797 
L 106.125319 173.305804 
L 106.662002 172.222766 
L 107.198684 174.743661 
L 107.735367 179.518528 
L 108.272049 173.217049 
L 108.808732 175.601065 
L 109.345415 175.128579 
L 109.882097 177.406288 
L 110.41878 176.921194 
L 110.955463 176.981446 
L 111.492145 175.998266 
L 112.028828 176.0721 
L 112.56551 175.639435 
L 113.102193 177.208567 
L 113.638876 177.262082 
L 114.175558 175.387013 
L 114.712241 175.941865 
L 115.248923 177.41543 
L 115.785606 176.543408 
L 116.322289 177.512007 
L 116.858971 175.770948 
L 117.395654 175.842721 
L 117.932337 178.517114 
L 118.469019 176.409416 
L 119.005702 176.048852 
L 119.542384 177.361722 
L 120.079067 173.310168 
L 120.61575 177.858519 
L 121.152432 175.506832 
L 121.689115 175.578294 
L 122.225797 176.81113 
L 122.76248 176.481522 
L 123.299163 175.406827 
L 123.835845 175.849817 
L 124.372528 178.851518 
L 124.909211 177.064392 
L 125.982576 175.747409 
L 126.519258 174.766771 
L 127.055941 176.218249 
L 127.592624 176.275536 
L 128.129306 177.336862 
L 129.202671 175.461042 
L 129.739354 177.139156 
L 130.812719 176.597255 
L 131.349402 178.201224 
L 131.886085 177.310644 
L 132.422767 178.261305 
L 132.95945 177.990935 
L 133.496132 175.063182 
L 134.032815 178.054953 
L 134.569498 177.219039 
L 135.10618 176.117374 
L 135.642863 175.888538 
L 136.179545 175.944336 
L 136.716228 175.723393 
L 137.252911 176.325639 
L 137.789593 175.836536 
L 138.326276 176.690925 
L 138.862959 175.945835 
L 139.399641 177.040927 
L 139.936324 176.309025 
L 140.473006 174.574906 
L 141.009689 175.901785 
L 141.546372 175.705282 
L 142.083054 176.006094 
L 142.619737 175.569584 
L 143.156419 174.660645 
L 143.693102 175.679341 
L 144.229785 174.317368 
L 145.30315 176.530302 
L 145.839833 174.288949 
L 146.376515 177.295493 
L 146.913198 175.988236 
L 147.44988 177.365599 
L 147.986563 176.08487 
L 148.523246 178.301212 
L 149.059928 178.325561 
L 149.596611 178.137019 
L 150.133293 177.531657 
L 150.669976 178.81293 
L 151.206659 178.831674 
L 151.743341 177.829508 
L 152.280024 177.45359 
L 152.816707 179.286476 
L 153.353389 177.516836 
L 153.890072 178.136428 
L 154.426754 177.578252 
L 154.963437 177.80072 
L 155.50012 178.590833 
L 156.036802 178.422126 
L 156.573485 177.508884 
L 157.110167 176.057474 
L 157.64685 177.935588 
L 158.183533 178.688329 
L 158.720215 177.80689 
L 159.256898 177.655335 
L 159.793581 178.566896 
L 160.330263 177.360944 
L 160.866946 178.258785 
L 161.403628 177.421561 
L 161.940311 177.621568 
L 162.476994 177.98685 
L 163.013676 177.174908 
L 163.550359 178.698212 
L 164.087041 177.894597 
L 164.623724 177.593785 
L 165.160407 177.943914 
L 165.697089 177.808124 
L 166.233772 177.516276 
L 166.770455 178.32981 
L 167.307137 177.41552 
L 167.84382 177.598288 
L 168.380502 177.931157 
L 168.917185 178.713828 
L 169.453868 179.031709 
L 169.99055 177.553538 
L 170.527233 178.615827 
L 171.063915 177.606314 
L 172.137281 177.657773 
L 172.673963 177.826087 
L 173.210646 178.133573 
L 173.747329 177.169781 
L 174.284011 178.594151 
L 174.820694 176.812142 
L 175.357376 178.079185 
L 175.894059 176.738864 
L 176.430742 178.391433 
L 176.967424 178.142022 
L 177.504107 177.498041 
L 178.040789 178.446307 
L 178.577472 178.333392 
L 179.114155 177.833138 
L 179.650837 177.726985 
L 180.18752 176.72874 
L 180.724203 177.013185 
L 181.260885 178.298915 
L 181.797568 176.446629 
L 182.33425 175.860712 
L 182.870933 177.617212 
L 183.407616 177.397122 
L 184.480981 177.447252 
L 185.554346 176.78715 
L 186.091029 177.403037 
L 186.627711 177.078492 
L 187.164394 178.145395 
L 187.701077 178.852423 
L 188.237759 177.61398 
L 189.847807 176.122995 
L 190.38449 176.48796 
L 190.921172 177.396222 
L 191.457855 177.746861 
L 191.994537 177.227608 
L 192.53122 177.789261 
L 193.067903 178.129788 
L 193.604585 177.830734 
L 194.677951 178.392791 
L 195.751316 177.294111 
L 196.824681 177.443025 
L 197.361364 177.969079 
L 197.898046 177.388185 
L 198.434729 177.311839 
L 198.971411 176.743643 
L 199.508094 178.337421 
L 200.044777 177.867384 
L 201.654825 177.829464 
L 202.191507 177.659612 
L 202.72819 177.116229 
L 203.264872 177.887004 
L 203.801555 178.46209 
L 204.338238 177.556016 
L 204.87492 177.851336 
L 205.411603 177.415809 
L 205.948285 176.805565 
L 206.484968 177.727967 
L 207.021651 178.014684 
L 207.558333 177.5012 
L 208.631699 178.503506 
L 209.168381 177.649847 
L 209.705064 178.53173 
L 210.241746 177.860305 
L 210.778429 177.793367 
L 211.315112 178.150196 
L 211.851794 177.998354 
L 212.388477 178.933912 
L 212.925159 178.530218 
L 213.461842 178.956065 
L 213.998525 178.065886 
L 214.535207 178.326579 
L 215.07189 177.45157 
L 215.608573 178.275665 
L 216.145255 177.411939 
L 216.681938 178.384966 
L 217.21862 177.846927 
L 217.755303 178.648575 
L 218.291986 177.648051 
L 218.828668 178.441197 
L 219.365351 178.916805 
L 219.902033 178.468552 
L 220.438716 178.253909 
L 220.975399 177.815179 
L 221.512081 177.982758 
L 222.048764 177.849729 
L 222.585447 178.163652 
L 223.122129 178.768998 
L 223.658812 178.193756 
L 224.195494 178.062792 
L 224.732177 178.368236 
L 225.805542 177.392946 
L 226.342225 178.907401 
L 226.878907 178.422404 
L 227.41559 178.29493 
L 227.952273 178.938449 
L 228.488955 178.114053 
L 229.025638 178.405548 
L 229.562321 178.006278 
L 230.099003 177.953366 
L 230.635686 178.17295 
L 231.172368 178.727894 
L 231.709051 178.336 
L 232.245734 178.215821 
L 232.782416 177.432839 
L 233.319099 178.177738 
L 233.855781 177.863581 
L 234.392464 177.291819 
L 234.929147 178.284842 
L 235.465829 178.040026 
L 236.002512 178.504264 
L 236.539195 178.388732 
L 237.075877 178.401492 
L 237.61256 177.845889 
L 238.149242 178.615099 
L 238.685925 177.939614 
L 239.222608 178.637849 
L 239.75929 177.722615 
L 240.832656 178.732352 
L 241.369338 179.046766 
L 241.906021 178.088781 
L 242.442703 178.042731 
L 242.979386 178.654775 
L 243.516069 177.833286 
L 244.052751 178.439986 
L 244.589434 178.157894 
L 245.126116 178.697957 
L 245.662799 178.242963 
L 246.199482 178.024367 
L 246.736164 178.096027 
L 247.80953 178.522118 
L 248.346212 178.250104 
L 249.419577 178.443779 
L 249.95626 178.176487 
L 250.492943 178.522562 
L 251.029625 178.368135 
L 251.566308 177.885717 
L 252.10299 178.118752 
L 252.639673 178.838744 
L 253.176356 178.577778 
L 253.713038 178.803819 
L 254.249721 178.652818 
L 254.786404 177.757653 
L 255.323086 178.355479 
L 255.859769 178.472737 
L 256.933134 178.338427 
L 257.469817 178.713766 
L 258.006499 178.930359 
L 258.543182 178.424994 
L 258.543182 178.424994 
" clip-path="url(#paf931653ad)" style="fill: none; stroke: #0000ff; stroke-opacity: 0.5; stroke-linecap: square"/>
   </g>
   <g id="line2d_15">
    <path d="M 44.406818 180.687273 
L 101.831858 180.687273 
L 102.368541 179.448068 
L 102.905223 179.470599 
L 103.441906 177.103008 
L 103.978589 173.646766 
L 105.051954 176.157553 
L 105.588636 174.010872 
L 106.662002 178.537557 
L 107.198684 172.234138 
L 107.735367 173.415086 
L 108.272049 173.536291 
L 108.808732 174.659176 
L 109.345415 164.875879 
L 109.882097 171.937982 
L 110.41878 174.948487 
L 110.955463 171.275649 
L 111.492145 176.982379 
L 112.028828 175.21744 
L 112.56551 169.021161 
L 113.102193 175.386388 
L 113.638876 172.858267 
L 114.175558 173.834413 
L 114.712241 173.094621 
L 115.248923 171.546888 
L 115.785606 172.501863 
L 116.322289 174.235939 
L 116.858971 172.741698 
L 117.932337 177.600825 
L 119.005702 173.190836 
L 119.542384 173.297159 
L 120.079067 174.858451 
L 120.61575 172.066311 
L 121.152432 172.186039 
L 121.689115 177.892618 
L 122.225797 176.552721 
L 122.76248 177.288687 
L 123.299163 173.981946 
L 123.835845 174.733482 
L 124.372528 173.507434 
L 124.909211 174.890665 
L 125.445893 173.060173 
L 125.982576 176.923568 
L 127.055941 175.798086 
L 128.129306 175.922245 
L 128.665989 176.570644 
L 129.202671 174.299659 
L 129.739354 173.232645 
L 130.276037 177.289414 
L 131.349402 177.372541 
L 131.886085 175.230095 
L 132.422767 177.45265 
L 132.95945 173.230735 
L 133.496132 178.05612 
L 135.10618 176.625141 
L 135.642863 174.665332 
L 136.179545 175.727339 
L 137.252911 175.841014 
L 137.789593 179.250018 
L 138.326276 177.371785 
L 138.862959 174.131211 
L 139.399641 175.593965 
L 139.936324 177.940137 
L 140.473006 176.159594 
L 141.009689 176.657388 
L 141.546372 174.930307 
L 142.083054 175.431214 
L 142.619737 172.888891 
L 143.156419 177.258792 
L 143.693102 173.904043 
L 144.766467 177.782579 
L 145.30315 172.886539 
L 145.839833 174.187389 
L 146.376515 169.833578 
L 146.913198 173.924639 
L 147.44988 172.813676 
L 148.523246 177.987892 
L 149.059928 178.015437 
L 149.596611 177.286935 
L 150.133293 178.817279 
L 150.669976 178.83607 
L 151.206659 179.587659 
L 151.743341 178.147037 
L 152.280024 179.25008 
L 152.816707 178.196968 
L 153.890072 177.547772 
L 154.426754 178.269146 
L 154.963437 178.634613 
L 155.50012 176.282632 
L 156.036802 178.338232 
L 156.573485 179.357751 
L 157.110167 177.724202 
L 157.64685 179.056645 
L 158.183533 177.456657 
L 158.720215 179.08706 
L 159.256898 178.467815 
L 159.793581 177.231845 
L 160.330263 176.641212 
L 160.866946 177.911858 
L 161.403628 176.714945 
L 161.940311 176.145489 
L 163.013676 176.821814 
L 163.550359 178.035192 
L 164.087041 178.350917 
L 164.623724 178.37168 
L 165.160407 177.244627 
L 165.697089 177.274949 
L 166.233772 175.331813 
L 166.770455 178.731452 
L 167.307137 178.748457 
L 167.84382 178.490662 
L 168.380502 177.420766 
L 168.917185 178.528291 
L 169.453868 177.744048 
L 169.99055 177.238507 
L 170.527233 177.004703 
L 171.063915 175.992479 
L 171.600598 177.583717 
L 172.137281 176.84029 
L 172.673963 178.398324 
L 173.210646 177.408448 
L 173.747329 178.436078 
L 174.284011 178.702683 
L 174.820694 176.750632 
L 175.357376 176.538736 
L 175.894059 177.298601 
L 176.430742 174.685078 
L 176.967424 175.924231 
L 177.504107 175.017529 
L 178.040789 176.468984 
L 178.577472 176.96756 
L 179.114155 178.611539 
L 179.650837 179.085572 
L 180.18752 177.282084 
L 181.260885 176.888248 
L 181.797568 175.365681 
L 182.33425 174.746891 
L 182.870933 176.53928 
L 183.407616 177.437741 
L 183.944298 176.602743 
L 184.480981 177.060583 
L 185.017663 176.241332 
L 185.554346 177.325551 
L 186.091029 177.350907 
L 186.627711 176.755125 
L 187.164394 178.017017 
L 187.701077 176.60983 
L 188.237759 177.449566 
L 188.774442 176.870976 
L 189.311124 177.098519 
L 189.847807 177.12491 
L 190.38449 176.561632 
L 190.921172 176.786768 
L 191.457855 177.395948 
L 191.994537 177.804219 
L 192.53122 178.015854 
L 193.067903 177.466737 
L 193.604585 177.48983 
L 194.141268 176.765693 
L 194.677951 176.237369 
L 195.214633 178.109914 
L 195.751316 176.482951 
L 196.287998 178.690667 
L 196.824681 176.361609 
L 197.361364 176.212881 
L 197.898046 177.132701 
L 198.434729 176.980915 
L 198.971411 177.707642 
L 199.508094 178.076326 
L 200.044777 178.612872 
L 200.581459 177.253608 
L 201.118142 177.277051 
L 201.654825 178.146999 
L 202.191507 176.818596 
L 202.72819 176.844747 
L 203.801555 178.05002 
L 204.87492 176.946683 
L 205.411603 177.617751 
L 205.948285 177.317109 
L 206.484968 177.977067 
L 207.021651 177.361384 
L 208.095016 177.092171 
L 208.631699 178.513212 
L 209.168381 178.218762 
L 209.705064 178.388027 
L 210.241746 178.402854 
L 210.778429 177.207021 
L 211.315112 177.830713 
L 211.851794 177.84897 
L 212.388477 177.421755 
L 212.925159 177.14749 
L 213.461842 178.342357 
L 214.535207 178.371803 
L 215.07189 177.523475 
L 215.608573 177.257432 
L 216.145255 178.556974 
L 216.681938 177.158834 
L 217.21862 177.320938 
L 217.755303 176.50533 
L 218.291986 177.777933 
L 218.828668 177.245011 
L 219.365351 178.087166 
L 219.902033 177.150922 
L 220.438716 178.253909 
L 220.975399 178.671768 
L 221.512081 178.683929 
L 222.048764 178.563263 
L 222.585447 178.180146 
L 223.122129 177.277007 
L 223.658812 178.861954 
L 224.195494 177.965589 
L 224.732177 178.754742 
L 225.26886 177.485441 
L 225.805542 178.013617 
L 226.342225 177.523057 
L 226.878907 177.415797 
L 227.41559 178.810925 
L 227.952273 178.324417 
L 228.488955 178.585423 
L 229.025638 177.614243 
L 230.099003 177.042064 
L 230.635686 177.908682 
L 231.172368 178.405084 
L 231.709051 178.418109 
L 232.782416 178.680003 
L 233.319099 177.86955 
L 233.855781 178.235696 
L 234.392464 177.785176 
L 234.929147 178.032335 
L 235.465829 178.0472 
L 236.002512 178.290244 
L 236.539195 178.757634 
L 237.075877 177.526687 
L 237.61256 178.778986 
L 238.149242 177.226673 
L 238.685925 178.577959 
L 239.222608 177.706293 
L 239.75929 177.503011 
L 240.295973 177.957215 
L 240.832656 177.429072 
L 241.369338 177.986851 
L 241.906021 177.6792 
L 242.442703 178.657119 
L 242.979386 178.455511 
L 243.516069 177.833286 
L 244.052751 178.584549 
L 244.589434 178.700371 
L 245.126116 176.838662 
L 245.662799 178.514553 
L 246.199482 177.188189 
L 246.736164 178.844609 
L 247.272847 178.650688 
L 247.80953 178.154928 
L 248.346212 178.168236 
L 248.882895 177.479766 
L 249.419577 178.393924 
L 249.95626 177.810719 
L 251.029625 178.331324 
L 251.566308 178.538803 
L 252.10299 177.966949 
L 252.639673 178.56086 
L 253.176356 178.571768 
L 253.713038 178.869591 
L 254.249721 178.022256 
L 254.786404 178.319903 
L 255.323086 177.484 
L 255.859769 177.687691 
L 256.396451 178.262422 
L 256.933134 177.625074 
L 257.469817 179.210028 
L 258.006499 178.941842 
L 258.543182 178.310737 
L 258.543182 178.310737 
" clip-path="url(#paf931653ad)" style="fill: none; stroke: #ff0000; stroke-opacity: 0.5; stroke-linecap: square"/>
   </g>
   <g id="patch_3">
    <path d="M 33.7 188.6 
L 33.7 14.52 
" style="fill: none; stroke: #000000; stroke-width: 0.8; stroke-linejoin: miter; stroke-linecap: square"/>
   </g>
   <g id="patch_4">
    <path d="M 269.25 188.6 
L 269.25 14.52 
" style="fill: none; stroke: #000000; stroke-width: 0.8; stroke-linejoin: miter; stroke-linecap: square"/>
   </g>
   <g id="patch_5">
    <path d="M 33.7 188.6 
L 269.25 188.6 
" style="fill: none; stroke: #000000; stroke-width: 0.8; stroke-linejoin: miter; stroke-linecap: square"/>
   </g>
   <g id="patch_6">
    <path d="M 33.7 14.52 
L 269.25 14.52 
" style="fill: none; stroke: #000000; stroke-width: 0.8; stroke-linejoin: miter; stroke-linecap: square"/>
   </g>
   <g id="legend_1">
    <g id="patch_7">
     <path d="M 213.917188 66.554375 
L 262.25 66.554375 
Q 264.25 66.554375 264.25 64.554375 
L 264.25 21.52 
Q 264.25 19.52 262.25 19.52 
L 213.917188 19.52 
Q 211.917188 19.52 211.917188 21.52 
L 211.917188 64.554375 
Q 211.917188 66.554375 213.917188 66.554375 
z
" style="fill: #ffffff; opacity: 0.8; stroke: #cccccc; stroke-linejoin: miter"/>
    </g>
    <g id="line2d_16">
     <path d="M 215.917188 27.618438 
L 225.917188 27.618438 
L 235.917188 27.618438 
" style="fill: none; stroke: #000000; stroke-opacity: 0.5; stroke-width: 0.5; stroke-linecap: square"/>
    </g>
    <g id="text_15">
     <!-- all -->
     <g transform="translate(243.917188 31.118438) scale(0.1 -0.1)">
      <defs>
       <path id="DejaVuSans-61" d="M 2194 1759 
Q 1497 1759 1228 1600 
Q 959 1441 959 1056 
Q 959 750 1161 570 
Q 1363 391 1709 391 
Q 2188 391 2477 730 
Q 2766 1069 2766 1631 
L 2766 1759 
L 2194 1759 
z
M 3341 1997 
L 3341 0 
L 2766 0 
L 2766 531 
Q 2569 213 2275 61 
Q 1981 -91 1556 -91 
Q 1019 -91 701 211 
Q 384 513 384 1019 
Q 384 1609 779 1909 
Q 1175 2209 1959 2209 
L 2766 2209 
L 2766 2266 
Q 2766 2663 2505 2880 
Q 2244 3097 1772 3097 
Q 1472 3097 1187 3025 
Q 903 2953 641 2809 
L 641 3341 
Q 956 3463 1253 3523 
Q 1550 3584 1831 3584 
Q 2591 3584 2966 3190 
Q 3341 2797 3341 1997 
z
" transform="scale(0.015625)"/>
       <path id="DejaVuSans-6c" d="M 603 4863 
L 1178 4863 
L 1178 0 
L 603 0 
L 603 4863 
z
" transform="scale(0.015625)"/>
      </defs>
      <use xlink:href="#DejaVuSans-61"/>
      <use xlink:href="#DejaVuSans-6c" transform="translate(61.279297 0)"/>
      <use xlink:href="#DejaVuSans-6c" transform="translate(89.0625 0)"/>
     </g>
    </g>
    <g id="line2d_17">
     <path d="M 215.917188 42.296563 
L 225.917188 42.296563 
L 235.917188 42.296563 
" style="fill: none; stroke: #0000ff; stroke-opacity: 0.5; stroke-linecap: square"/>
    </g>
    <g id="text_16">
     <!-- 1-1 -->
     <g transform="translate(243.917188 45.796563) scale(0.1 -0.1)">
      <defs>
       <path id="DejaVuSans-2d" d="M 313 2009 
L 1997 2009 
L 1997 1497 
L 313 1497 
L 313 2009 
z
" transform="scale(0.015625)"/>
      </defs>
      <use xlink:href="#DejaVuSans-31"/>
      <use xlink:href="#DejaVuSans-2d" transform="translate(63.623047 0)"/>
      <use xlink:href="#DejaVuSans-31" transform="translate(99.707031 0)"/>
     </g>
    </g>
    <g id="line2d_18">
     <path d="M 215.917188 56.974688 
L 225.917188 56.974688 
L 235.917188 56.974688 
" style="fill: none; stroke: #ff0000; stroke-opacity: 0.5; stroke-linecap: square"/>
    </g>
    <g id="text_17">
     <!-- 2-2 -->
     <g transform="translate(243.917188 60.474688) scale(0.1 -0.1)">
      <use xlink:href="#DejaVuSans-32"/>
      <use xlink:href="#DejaVuSans-2d" transform="translate(63.623047 0)"/>
      <use xlink:href="#DejaVuSans-32" transform="translate(99.707031 0)"/>
     </g>
    </g>
   </g>
  </g>
 </g>
 <defs>
  <clipPath id="paf931653ad">
   <rect x="33.7" y="14.52" width="235.55" height="174.08"/>
  </clipPath>
 </defs>
</svg>
