<?xml version="1.0" encoding="utf-8" standalone="no"?>
<!DOCTYPE svg PUBLIC "-//W3C//DTD SVG 1.1//EN"
  "http://www.w3.org/Graphics/SVG/1.1/DTD/svg11.dtd">
<svg xmlns:xlink="http://www.w3.org/1999/xlink" width="288pt" height="216pt" viewBox="0 0 288 216" xmlns="http://www.w3.org/2000/svg" version="1.1">
 <metadata>
  <rdf:RDF xmlns:dc="http://purl.org/dc/elements/1.1/" xmlns:cc="http://creativecommons.org/ns#" xmlns:rdf="http://www.w3.org/1999/02/22-rdf-syntax-ns#">
   <cc:Work>
    <dc:type rdf:resource="http://purl.org/dc/dcmitype/StillImage"/>
    <dc:date>2025-09-17T22:56:35.057872</dc:date>
    <dc:format>image/svg+xml</dc:format>
    <dc:creator>
     <cc:Agent>
      <dc:title>Matplotlib v3.10.0, https://matplotlib.org/</dc:title>
     </cc:Agent>
    </dc:creator>
   </cc:Work>
  </rdf:RDF>
 </metadata>
 <defs>
  <style type="text/css">*{stroke-linejoin: round; stroke-linecap: butt}</style>
 </defs>
 <g id="figure_1">
  <g id="patch_1">
   <path d="M 0 216 
L 288 216 
L 288 0 
L 0 0 
z
" style="fill: #ffffff"/>
  </g>
  <g id="axes_1">
   <g id="patch_2">
    <path d="M 33.7 188.6 
L 269.25 188.6 
L 269.25 14.52 
L 33.7 14.52 
z
" style="fill: #ffffff"/>
   </g>
   <g id="matplotlib.axis_1">
    <g id="xtick_1">
     <g id="line2d_1">
      <defs>
       <path id="me8946a25ea" d="M 0 0 
L 0 3.5 
" style="stroke: #000000; stroke-width: 0.8"/>
      </defs>
      <g>
       <use xlink:href="#me8946a25ea" x="44.138477" y="188.6" style="stroke: #000000; stroke-width: 0.8"/>
      </g>
     </g>
     <g id="text_1">
      <!-- 0 -->
      <g transform="translate(40.957227 203.198437) scale(0.1 -0.1)">
       <defs>
        <path id="DejaVuSans-30" d="M 2034 4250 
Q 1547 4250 1301 3770 
Q 1056 3291 1056 2328 
Q 1056 1369 1301 889 
Q 1547 409 2034 409 
Q 2525 409 2770 889 
Q 3016 1369 3016 2328 
Q 3016 3291 2770 3770 
Q 2525 4250 2034 4250 
z
M 2034 4750 
Q 2819 4750 3233 4129 
Q 3647 3509 3647 2328 
Q 3647 1150 3233 529 
Q 2819 -91 2034 -91 
Q 1250 -91 836 529 
Q 422 1150 422 2328 
Q 422 3509 836 4129 
Q 1250 4750 2034 4750 
z
" transform="scale(0.015625)"/>
       </defs>
       <use xlink:href="#DejaVuSans-30"/>
      </g>
     </g>
    </g>
    <g id="xtick_2">
     <g id="line2d_2">
      <g>
       <use xlink:href="#me8946a25ea" x="87.073086" y="188.6" style="stroke: #000000; stroke-width: 0.8"/>
      </g>
     </g>
     <g id="text_2">
      <!-- 200 -->
      <g transform="translate(77.529336 203.198437) scale(0.1 -0.1)">
       <defs>
        <path id="DejaVuSans-32" d="M 1228 531 
L 3431 531 
L 3431 0 
L 469 0 
L 469 531 
Q 828 903 1448 1529 
Q 2069 2156 2228 2338 
Q 2531 2678 2651 2914 
Q 2772 3150 2772 3378 
Q 2772 3750 2511 3984 
Q 2250 4219 1831 4219 
Q 1534 4219 1204 4116 
Q 875 4013 500 3803 
L 500 4441 
Q 881 4594 1212 4672 
Q 1544 4750 1819 4750 
Q 2544 4750 2975 4387 
Q 3406 4025 3406 3419 
Q 3406 3131 3298 2873 
Q 3191 2616 2906 2266 
Q 2828 2175 2409 1742 
Q 1991 1309 1228 531 
z
" transform="scale(0.015625)"/>
       </defs>
       <use xlink:href="#DejaVuSans-32"/>
       <use xlink:href="#DejaVuSans-30" transform="translate(63.623047 0)"/>
       <use xlink:href="#DejaVuSans-30" transform="translate(127.246094 0)"/>
      </g>
     </g>
    </g>
    <g id="xtick_3">
     <g id="line2d_3">
      <g>
       <use xlink:href="#me8946a25ea" x="130.007695" y="188.6" style="stroke: #000000; stroke-width: 0.8"/>
      </g>
     </g>
     <g id="text_3">
      <!-- 400 -->
      <g transform="translate(120.463945 203.198437) scale(0.1 -0.1)">
       <defs>
        <path id="DejaVuSans-34" d="M 2419 4116 
L 825 1625 
L 2419 1625 
L 2419 4116 
z
M 2253 4666 
L 3047 4666 
L 3047 1625 
L 3713 1625 
L 3713 1100 
L 3047 1100 
L 3047 0 
L 2419 0 
L 2419 1100 
L 313 1100 
L 313 1709 
L 2253 4666 
z
" transform="scale(0.015625)"/>
       </defs>
       <use xlink:href="#DejaVuSans-34"/>
       <use xlink:href="#DejaVuSans-30" transform="translate(63.623047 0)"/>
       <use xlink:href="#DejaVuSans-30" transform="translate(127.246094 0)"/>
      </g>
     </g>
    </g>
    <g id="xtick_4">
     <g id="line2d_4">
      <g>
       <use xlink:href="#me8946a25ea" x="172.942305" y="188.6" style="stroke: #000000; stroke-width: 0.8"/>
      </g>
     </g>
     <g id="text_4">
      <!-- 600 -->
      <g transform="translate(163.398555 203.198437) scale(0.1 -0.1)">
       <defs>
        <path id="DejaVuSans-36" d="M 2113 2584 
Q 1688 2584 1439 2293 
Q 1191 2003 1191 1497 
Q 1191 994 1439 701 
Q 1688 409 2113 409 
Q 2538 409 2786 701 
Q 3034 994 3034 1497 
Q 3034 2003 2786 2293 
Q 2538 2584 2113 2584 
z
M 3366 4563 
L 3366 3988 
Q 3128 4100 2886 4159 
Q 2644 4219 2406 4219 
Q 1781 4219 1451 3797 
Q 1122 3375 1075 2522 
Q 1259 2794 1537 2939 
Q 1816 3084 2150 3084 
Q 2853 3084 3261 2657 
Q 3669 2231 3669 1497 
Q 3669 778 3244 343 
Q 2819 -91 2113 -91 
Q 1303 -91 875 529 
Q 447 1150 447 2328 
Q 447 3434 972 4092 
Q 1497 4750 2381 4750 
Q 2619 4750 2861 4703 
Q 3103 4656 3366 4563 
z
" transform="scale(0.015625)"/>
       </defs>
       <use xlink:href="#DejaVuSans-36"/>
       <use xlink:href="#DejaVuSans-30" transform="translate(63.623047 0)"/>
       <use xlink:href="#DejaVuSans-30" transform="translate(127.246094 0)"/>
      </g>
     </g>
    </g>
    <g id="xtick_5">
     <g id="line2d_5">
      <g>
       <use xlink:href="#me8946a25ea" x="215.876914" y="188.6" style="stroke: #000000; stroke-width: 0.8"/>
      </g>
     </g>
     <g id="text_5">
      <!-- 800 -->
      <g transform="translate(206.333164 203.198437) scale(0.1 -0.1)">
       <defs>
        <path id="DejaVuSans-38" d="M 2034 2216 
Q 1584 2216 1326 1975 
Q 1069 1734 1069 1313 
Q 1069 891 1326 650 
Q 1584 409 2034 409 
Q 2484 409 2743 651 
Q 3003 894 3003 1313 
Q 3003 1734 2745 1975 
Q 2488 2216 2034 2216 
z
M 1403 2484 
Q 997 2584 770 2862 
Q 544 3141 544 3541 
Q 544 4100 942 4425 
Q 1341 4750 2034 4750 
Q 2731 4750 3128 4425 
Q 3525 4100 3525 3541 
Q 3525 3141 3298 2862 
Q 3072 2584 2669 2484 
Q 3125 2378 3379 2068 
Q 3634 1759 3634 1313 
Q 3634 634 3220 271 
Q 2806 -91 2034 -91 
Q 1263 -91 848 271 
Q 434 634 434 1313 
Q 434 1759 690 2068 
Q 947 2378 1403 2484 
z
M 1172 3481 
Q 1172 3119 1398 2916 
Q 1625 2713 2034 2713 
Q 2441 2713 2670 2916 
Q 2900 3119 2900 3481 
Q 2900 3844 2670 4047 
Q 2441 4250 2034 4250 
Q 1625 4250 1398 4047 
Q 1172 3844 1172 3481 
z
" transform="scale(0.015625)"/>
       </defs>
       <use xlink:href="#DejaVuSans-38"/>
       <use xlink:href="#DejaVuSans-30" transform="translate(63.623047 0)"/>
       <use xlink:href="#DejaVuSans-30" transform="translate(127.246094 0)"/>
      </g>
     </g>
    </g>
    <g id="xtick_6">
     <g id="line2d_6">
      <g>
       <use xlink:href="#me8946a25ea" x="258.811523" y="188.6" style="stroke: #000000; stroke-width: 0.8"/>
      </g>
     </g>
     <g id="text_6">
      <!-- 1000 -->
      <g transform="translate(246.086523 203.198437) scale(0.1 -0.1)">
       <defs>
        <path id="DejaVuSans-31" d="M 794 531 
L 1825 531 
L 1825 4091 
L 703 3866 
L 703 4441 
L 1819 4666 
L 2450 4666 
L 2450 531 
L 3481 531 
L 3481 0 
L 794 0 
L 794 531 
z
" transform="scale(0.015625)"/>
       </defs>
       <use xlink:href="#DejaVuSans-31"/>
       <use xlink:href="#DejaVuSans-30" transform="translate(63.623047 0)"/>
       <use xlink:href="#DejaVuSans-30" transform="translate(127.246094 0)"/>
       <use xlink:href="#DejaVuSans-30" transform="translate(190.869141 0)"/>
      </g>
     </g>
    </g>
    <g id="text_7">
     <!-- q (nm) -->
     <g transform="translate(134.771094 216.876563) scale(0.1 -0.1)">
      <defs>
       <path id="DejaVuSans-71" d="M 947 1747 
Q 947 1113 1208 752 
Q 1469 391 1925 391 
Q 2381 391 2643 752 
Q 2906 1113 2906 1747 
Q 2906 2381 2643 2742 
Q 2381 3103 1925 3103 
Q 1469 3103 1208 2742 
Q 947 2381 947 1747 
z
M 2906 525 
Q 2725 213 2448 61 
Q 2172 -91 1784 -91 
Q 1150 -91 751 415 
Q 353 922 353 1747 
Q 353 2572 751 3078 
Q 1150 3584 1784 3584 
Q 2172 3584 2448 3432 
Q 2725 3281 2906 2969 
L 2906 3500 
L 3481 3500 
L 3481 -1331 
L 2906 -1331 
L 2906 525 
z
" transform="scale(0.015625)"/>
       <path id="DejaVuSans-20" transform="scale(0.015625)"/>
       <path id="DejaVuSans-28" d="M 1984 4856 
Q 1566 4138 1362 3434 
Q 1159 2731 1159 2009 
Q 1159 1288 1364 580 
Q 1569 -128 1984 -844 
L 1484 -844 
Q 1016 -109 783 600 
Q 550 1309 550 2009 
Q 550 2706 781 3412 
Q 1013 4119 1484 4856 
L 1984 4856 
z
" transform="scale(0.015625)"/>
       <path id="DejaVuSans-6e" d="M 3513 2113 
L 3513 0 
L 2938 0 
L 2938 2094 
Q 2938 2591 2744 2837 
Q 2550 3084 2163 3084 
Q 1697 3084 1428 2787 
Q 1159 2491 1159 1978 
L 1159 0 
L 581 0 
L 581 3500 
L 1159 3500 
L 1159 2956 
Q 1366 3272 1645 3428 
Q 1925 3584 2291 3584 
Q 2894 3584 3203 3211 
Q 3513 2838 3513 2113 
z
" transform="scale(0.015625)"/>
       <path id="DejaVuSans-6d" d="M 3328 2828 
Q 3544 3216 3844 3400 
Q 4144 3584 4550 3584 
Q 5097 3584 5394 3201 
Q 5691 2819 5691 2113 
L 5691 0 
L 5113 0 
L 5113 2094 
Q 5113 2597 4934 2840 
Q 4756 3084 4391 3084 
Q 3944 3084 3684 2787 
Q 3425 2491 3425 1978 
L 3425 0 
L 2847 0 
L 2847 2094 
Q 2847 2600 2669 2842 
Q 2491 3084 2119 3084 
Q 1678 3084 1418 2786 
Q 1159 2488 1159 1978 
L 1159 0 
L 581 0 
L 581 3500 
L 1159 3500 
L 1159 2956 
Q 1356 3278 1631 3431 
Q 1906 3584 2284 3584 
Q 2666 3584 2933 3390 
Q 3200 3197 3328 2828 
z
" transform="scale(0.015625)"/>
       <path id="DejaVuSans-29" d="M 513 4856 
L 1013 4856 
Q 1481 4119 1714 3412 
Q 1947 2706 1947 2009 
Q 1947 1309 1714 600 
Q 1481 -109 1013 -844 
L 513 -844 
Q 928 -128 1133 580 
Q 1338 1288 1338 2009 
Q 1338 2731 1133 3434 
Q 928 4138 513 4856 
z
" transform="scale(0.015625)"/>
      </defs>
      <use xlink:href="#DejaVuSans-71"/>
      <use xlink:href="#DejaVuSans-20" transform="translate(63.476562 0)"/>
      <use xlink:href="#DejaVuSans-28" transform="translate(95.263672 0)"/>
      <use xlink:href="#DejaVuSans-6e" transform="translate(134.277344 0)"/>
      <use xlink:href="#DejaVuSans-6d" transform="translate(197.65625 0)"/>
      <use xlink:href="#DejaVuSans-29" transform="translate(295.068359 0)"/>
     </g>
    </g>
   </g>
   <g id="matplotlib.axis_2">
    <g id="ytick_1">
     <g id="line2d_7">
      <defs>
       <path id="m631e4d09af" d="M 0 0 
L -3.5 0 
" style="stroke: #000000; stroke-width: 0.8"/>
      </defs>
      <g>
       <use xlink:href="#m631e4d09af" x="33.7" y="180.687273" style="stroke: #000000; stroke-width: 0.8"/>
      </g>
     </g>
     <g id="text_8">
      <!-- 0 -->
      <g transform="translate(20.3375 184.486491) scale(0.1 -0.1)">
       <use xlink:href="#DejaVuSans-30"/>
      </g>
     </g>
    </g>
    <g id="ytick_2">
     <g id="line2d_8">
      <g>
       <use xlink:href="#m631e4d09af" x="33.7" y="145.157928" style="stroke: #000000; stroke-width: 0.8"/>
      </g>
     </g>
     <g id="text_9">
      <!-- 20000 -->
      <g transform="translate(-5.1125 148.957146) scale(0.1 -0.1)">
       <use xlink:href="#DejaVuSans-32"/>
       <use xlink:href="#DejaVuSans-30" transform="translate(63.623047 0)"/>
       <use xlink:href="#DejaVuSans-30" transform="translate(127.246094 0)"/>
       <use xlink:href="#DejaVuSans-30" transform="translate(190.869141 0)"/>
       <use xlink:href="#DejaVuSans-30" transform="translate(254.492188 0)"/>
      </g>
     </g>
    </g>
    <g id="ytick_3">
     <g id="line2d_9">
      <g>
       <use xlink:href="#m631e4d09af" x="33.7" y="109.628582" style="stroke: #000000; stroke-width: 0.8"/>
      </g>
     </g>
     <g id="text_10">
      <!-- 40000 -->
      <g transform="translate(-5.1125 113.427801) scale(0.1 -0.1)">
       <use xlink:href="#DejaVuSans-34"/>
       <use xlink:href="#DejaVuSans-30" transform="translate(63.623047 0)"/>
       <use xlink:href="#DejaVuSans-30" transform="translate(127.246094 0)"/>
       <use xlink:href="#DejaVuSans-30" transform="translate(190.869141 0)"/>
       <use xlink:href="#DejaVuSans-30" transform="translate(254.492188 0)"/>
      </g>
     </g>
    </g>
    <g id="ytick_4">
     <g id="line2d_10">
      <g>
       <use xlink:href="#m631e4d09af" x="33.7" y="74.099237" style="stroke: #000000; stroke-width: 0.8"/>
      </g>
     </g>
     <g id="text_11">
      <!-- 60000 -->
      <g transform="translate(-5.1125 77.898456) scale(0.1 -0.1)">
       <use xlink:href="#DejaVuSans-36"/>
       <use xlink:href="#DejaVuSans-30" transform="translate(63.623047 0)"/>
       <use xlink:href="#DejaVuSans-30" transform="translate(127.246094 0)"/>
       <use xlink:href="#DejaVuSans-30" transform="translate(190.869141 0)"/>
       <use xlink:href="#DejaVuSans-30" transform="translate(254.492188 0)"/>
      </g>
     </g>
    </g>
    <g id="ytick_5">
     <g id="line2d_11">
      <g>
       <use xlink:href="#m631e4d09af" x="33.7" y="38.569892" style="stroke: #000000; stroke-width: 0.8"/>
      </g>
     </g>
     <g id="text_12">
      <!-- 80000 -->
      <g transform="translate(-5.1125 42.369111) scale(0.1 -0.1)">
       <use xlink:href="#DejaVuSans-38"/>
       <use xlink:href="#DejaVuSans-30" transform="translate(63.623047 0)"/>
       <use xlink:href="#DejaVuSans-30" transform="translate(127.246094 0)"/>
       <use xlink:href="#DejaVuSans-30" transform="translate(190.869141 0)"/>
       <use xlink:href="#DejaVuSans-30" transform="translate(254.492188 0)"/>
      </g>
     </g>
    </g>
    <g id="text_13">
     <!-- rdf -->
     <g transform="translate(-11.192187 108.462344) rotate(-90) scale(0.1 -0.1)">
      <defs>
       <path id="DejaVuSans-72" d="M 2631 2963 
Q 2534 3019 2420 3045 
Q 2306 3072 2169 3072 
Q 1681 3072 1420 2755 
Q 1159 2438 1159 1844 
L 1159 0 
L 581 0 
L 581 3500 
L 1159 3500 
L 1159 2956 
Q 1341 3275 1631 3429 
Q 1922 3584 2338 3584 
Q 2397 3584 2469 3576 
Q 2541 3569 2628 3553 
L 2631 2963 
z
" transform="scale(0.015625)"/>
       <path id="DejaVuSans-64" d="M 2906 2969 
L 2906 4863 
L 3481 4863 
L 3481 0 
L 2906 0 
L 2906 525 
Q 2725 213 2448 61 
Q 2172 -91 1784 -91 
Q 1150 -91 751 415 
Q 353 922 353 1747 
Q 353 2572 751 3078 
Q 1150 3584 1784 3584 
Q 2172 3584 2448 3432 
Q 2725 3281 2906 2969 
z
M 947 1747 
Q 947 1113 1208 752 
Q 1469 391 1925 391 
Q 2381 391 2643 752 
Q 2906 1113 2906 1747 
Q 2906 2381 2643 2742 
Q 2381 3103 1925 3103 
Q 1469 3103 1208 2742 
Q 947 2381 947 1747 
z
" transform="scale(0.015625)"/>
       <path id="DejaVuSans-66" d="M 2375 4863 
L 2375 4384 
L 1825 4384 
Q 1516 4384 1395 4259 
Q 1275 4134 1275 3809 
L 1275 3500 
L 2222 3500 
L 2222 3053 
L 1275 3053 
L 1275 0 
L 697 0 
L 697 3053 
L 147 3053 
L 147 3500 
L 697 3500 
L 697 3744 
Q 697 4328 969 4595 
Q 1241 4863 1831 4863 
L 2375 4863 
z
" transform="scale(0.015625)"/>
      </defs>
      <use xlink:href="#DejaVuSans-72"/>
      <use xlink:href="#DejaVuSans-64" transform="translate(39.363281 0)"/>
      <use xlink:href="#DejaVuSans-66" transform="translate(102.839844 0)"/>
     </g>
    </g>
   </g>
   <g id="line2d_12">
    <path d="M 44.406818 180.687273 
L 94.854984 180.687273 
L 95.391667 162.691621 
L 95.928349 22.432727 
L 96.465032 159.645582 
L 97.001715 178.484644 
L 97.538397 180.514586 
L 98.07508 180.264106 
L 98.611762 177.949133 
L 99.148445 173.52734 
L 99.685128 171.111471 
L 100.22181 172.937718 
L 100.758493 173.083941 
L 101.295175 177.748007 
L 101.831858 179.42978 
L 102.368541 180.324207 
L 102.905223 180.259516 
L 103.441906 180.33723 
L 103.978589 180.618515 
L 104.515271 180.282025 
L 105.051954 180.488203 
L 105.588636 180.361261 
L 106.125319 180.43096 
L 107.198684 179.696624 
L 107.735367 178.434898 
L 108.272049 176.676627 
L 108.808732 176.74292 
L 109.345415 176.112715 
L 109.882097 178.123882 
L 110.41878 179.398227 
L 110.955463 179.804891 
L 112.028828 179.832571 
L 112.56551 178.163235 
L 113.638876 170.084992 
L 114.175558 168.590465 
L 115.248923 175.720848 
L 115.785606 177.857417 
L 116.322289 177.993839 
L 116.858971 175.5193 
L 117.395654 171.649188 
L 117.932337 171.101952 
L 118.469019 171.640961 
L 119.005702 175.943209 
L 119.542384 178.695312 
L 120.079067 180.046869 
L 121.152432 180.396689 
L 121.689115 180.155062 
L 122.225797 180.485381 
L 122.76248 180.408469 
L 123.299163 180.608691 
L 123.835845 180.338401 
L 124.909211 180.536312 
L 125.445893 180.389325 
L 125.982576 180.429976 
L 127.592624 176.126848 
L 128.129306 175.382206 
L 128.665989 176.51761 
L 129.202671 174.358335 
L 129.739354 172.959001 
L 130.276037 173.718678 
L 130.812719 177.114892 
L 131.349402 179.716114 
L 131.886085 180.175638 
L 132.422767 180.402966 
L 134.032815 180.504464 
L 135.642863 180.51084 
L 136.179545 179.931622 
L 137.252911 172.253247 
L 137.789593 172.967274 
L 138.326276 176.579721 
L 138.862959 175.995003 
L 139.936324 165.770477 
L 140.473006 169.172982 
L 141.009689 175.702154 
L 141.546372 178.689192 
L 142.083054 179.737647 
L 142.619737 180.179541 
L 143.156419 179.83346 
L 143.693102 178.625378 
L 144.229785 175.771991 
L 144.766467 174.924619 
L 145.30315 175.490814 
L 145.839833 174.783778 
L 146.376515 165.847533 
L 146.913198 168.123283 
L 147.44988 176.281233 
L 147.986563 177.650822 
L 148.523246 175.241556 
L 149.059928 171.271292 
L 149.596611 171.366896 
L 150.669976 177.953727 
L 151.206659 179.527469 
L 151.743341 180.070613 
L 152.280024 179.445109 
L 153.353389 176.269919 
L 153.890072 177.130638 
L 154.426754 177.448556 
L 154.963437 179.203835 
L 155.50012 179.95269 
L 156.036802 180.058035 
L 156.573485 179.2655 
L 157.110167 177.851387 
L 158.183533 176.711913 
L 158.720215 178.530634 
L 159.256898 179.553958 
L 159.793581 180.2271 
L 160.330263 180.43195 
L 161.403628 180.508223 
L 161.940311 180.563077 
L 163.550359 180.272865 
L 164.087041 179.780295 
L 164.623724 178.092284 
L 165.697089 173.439074 
L 166.233772 174.675308 
L 166.770455 177.085422 
L 167.84382 177.388982 
L 168.380502 176.922956 
L 168.917185 178.283605 
L 169.453868 178.586363 
L 169.99055 178.013523 
L 170.527233 175.292628 
L 171.063915 174.421138 
L 171.600598 175.019378 
L 172.137281 175.788149 
L 172.673963 174.711284 
L 173.210646 171.716386 
L 173.747329 171.819845 
L 174.284011 174.233175 
L 174.820694 177.659684 
L 175.357376 179.271632 
L 176.967424 176.82177 
L 177.504107 177.323471 
L 178.040789 178.050717 
L 178.577472 178.058103 
L 179.114155 177.403241 
L 179.650837 177.295117 
L 180.18752 176.882858 
L 181.260885 179.482562 
L 181.797568 180.167561 
L 182.33425 180.442323 
L 183.407616 180.484167 
L 185.017663 180.3027 
L 185.554346 179.751593 
L 186.091029 178.072467 
L 186.627711 175.739517 
L 187.164394 175.198867 
L 187.701077 177.784346 
L 188.237759 179.169526 
L 188.774442 179.616242 
L 189.311124 177.976887 
L 189.847807 174.274252 
L 190.38449 172.778653 
L 190.921172 174.3677 
L 191.457855 175.491393 
L 191.994537 177.10581 
L 192.53122 178.137975 
L 193.067903 177.101741 
L 193.604585 176.389036 
L 194.141268 177.152869 
L 195.214633 179.533016 
L 195.751316 178.630714 
L 196.287998 176.698836 
L 196.824681 177.687891 
L 197.361364 178.369568 
L 197.898046 177.458846 
L 198.434729 176.995218 
L 198.971411 175.449392 
L 199.508094 175.10815 
L 201.118142 180.017852 
L 201.654825 180.141485 
L 202.191507 180.135329 
L 202.72819 179.375479 
L 203.264872 178.421671 
L 203.801555 177.876688 
L 204.338238 177.95305 
L 204.87492 178.228582 
L 206.484968 178.39856 
L 207.021651 177.884634 
L 207.558333 176.501666 
L 208.095016 176.006946 
L 208.631699 176.146642 
L 209.168381 177.071119 
L 209.705064 177.247223 
L 210.241746 176.832134 
L 210.778429 176.0412 
L 211.315112 176.432183 
L 212.388477 178.739003 
L 212.925159 177.766123 
L 213.461842 176.419163 
L 213.998525 175.848742 
L 215.07189 177.763205 
L 215.608573 178.149941 
L 216.681938 178.58665 
L 217.21862 179.33936 
L 217.755303 179.756093 
L 218.291986 179.209804 
L 218.828668 177.798863 
L 219.365351 177.49579 
L 220.438716 178.120713 
L 220.975399 177.970937 
L 221.512081 177.392555 
L 222.048764 177.762473 
L 222.585447 178.792921 
L 223.122129 179.334579 
L 223.658812 179.403784 
L 224.195494 178.348215 
L 225.26886 175.719195 
L 225.805542 175.726153 
L 226.342225 178.150836 
L 226.878907 179.721414 
L 227.41559 180.342771 
L 227.952273 180.381214 
L 228.488955 180.15116 
L 229.562321 179.434077 
L 230.099003 179.348734 
L 230.635686 179.63251 
L 231.172368 179.195146 
L 231.709051 178.468855 
L 232.245734 178.585883 
L 232.782416 179.102875 
L 233.855781 179.059195 
L 234.392464 178.490191 
L 234.929147 178.549874 
L 235.465829 179.557297 
L 236.002512 180.098689 
L 236.539195 180.261597 
L 237.075877 180.17136 
L 237.61256 179.490152 
L 239.75929 175.23122 
L 240.295973 174.633935 
L 240.832656 175.182435 
L 241.369338 175.256636 
L 241.906021 176.362543 
L 242.442703 178.020066 
L 242.979386 178.88758 
L 243.516069 179.120231 
L 245.126116 176.914464 
L 245.662799 176.867859 
L 246.199482 178.112285 
L 246.736164 178.965693 
L 247.272847 179.511805 
L 247.80953 179.333987 
L 248.346212 178.88647 
L 249.419577 178.946146 
L 249.95626 178.530917 
L 250.492943 177.536036 
L 251.029625 177.270525 
L 251.566308 177.951964 
L 252.10299 179.070486 
L 252.639673 179.005168 
L 253.176356 178.433432 
L 253.713038 177.419102 
L 254.249721 176.772101 
L 254.786404 176.586721 
L 255.323086 176.02788 
L 255.859769 176.584257 
L 256.396451 177.490297 
L 256.933134 177.984885 
L 257.469817 178.139121 
L 258.006499 178.071156 
L 258.543182 177.714677 
L 258.543182 177.714677 
" clip-path="url(#p00f4fb65e1)" style="fill: none; stroke: #000000; stroke-opacity: 0.5; stroke-width: 0.5; stroke-linecap: square"/>
   </g>
   <g id="line2d_13">
    <path d="M 44.406818 180.687273 
L 97.001715 180.687273 
L 97.538397 180.422847 
L 98.07508 179.391324 
L 98.611762 172.301718 
L 99.148445 158.759977 
L 99.685128 151.361376 
L 100.22181 156.954258 
L 100.758493 157.402065 
L 101.295175 171.685771 
L 101.831858 176.8362 
L 102.368541 179.575385 
L 102.905223 179.377266 
L 103.441906 179.615268 
L 103.978589 180.476701 
L 104.515271 179.446201 
L 105.051954 180.077623 
L 105.588636 179.888544 
L 106.125319 179.902314 
L 107.198684 177.843027 
L 107.735367 174.162234 
L 108.272049 169.32128 
L 108.808732 168.968277 
L 109.345415 167.03236 
L 109.882097 173.360247 
L 110.41878 176.911208 
L 110.955463 178.998339 
L 111.492145 180.188635 
L 112.56551 179.882078 
L 113.102193 180.52873 
L 113.638876 179.906756 
L 114.175558 179.611234 
L 114.712241 179.93032 
L 115.248923 179.792586 
L 115.785606 178.190165 
L 116.322289 174.464614 
L 116.858971 165.858448 
L 117.395654 153.851153 
L 117.932337 152.02456 
L 118.469019 153.665313 
L 119.005702 166.8312 
L 119.542384 175.11736 
L 120.079067 178.856785 
L 120.61575 179.784828 
L 121.152432 179.924491 
L 121.689115 179.809637 
L 122.225797 180.439955 
L 122.76248 180.199367 
L 123.299163 180.687273 
L 124.372528 180.453012 
L 124.909211 180.571694 
L 125.445893 180.345098 
L 125.982576 180.574705 
L 126.519258 180.465062 
L 127.055941 180.687273 
L 128.129306 180.366613 
L 129.202671 180.687273 
L 129.739354 180.584369 
L 130.276037 180.687273 
L 131.349402 180.488994 
L 131.886085 180.589343 
L 134.032815 180.314038 
L 134.569498 180.595068 
L 135.642863 180.327057 
L 136.179545 178.72912 
L 137.252911 155.90167 
L 137.789593 157.732557 
L 138.326276 169.892807 
L 138.862959 172.283719 
L 139.399641 161.243922 
L 139.936324 153.162628 
L 141.009689 175.303671 
L 141.546372 179.256829 
L 142.083054 180.215668 
L 142.619737 180.376287 
L 143.156419 180.225837 
L 143.693102 180.459036 
L 144.229785 180.160416 
L 144.766467 180.463879 
L 145.30315 180.171536 
L 145.839833 180.031163 
L 146.913198 163.411784 
L 147.44988 175.318132 
L 147.986563 179.918172 
L 148.523246 180.54887 
L 149.059928 180.687273 
L 157.110167 180.687273 
L 157.64685 180.570225 
L 158.183533 180.687273 
L 158.720215 180.514976 
L 159.256898 180.687273 
L 159.793581 180.518159 
L 160.866946 180.576594 
L 163.013676 180.473838 
L 163.550359 180.317112 
L 164.087041 180.634865 
L 164.623724 180.427562 
L 165.160407 180.532825 
L 165.697089 180.381099 
L 166.233772 180.029714 
L 166.770455 178.882254 
L 167.84382 172.31082 
L 168.380502 169.940624 
L 168.917185 174.197764 
L 169.453868 176.461935 
L 169.99055 177.116767 
L 170.527233 172.945956 
L 171.063915 170.717813 
L 171.600598 170.708782 
L 172.137281 170.193979 
L 172.673963 166.995401 
L 173.210646 161.089321 
L 173.747329 163.405862 
L 174.284011 167.732741 
L 174.820694 174.770858 
L 175.357376 178.497676 
L 175.894059 179.471066 
L 176.430742 179.73942 
L 176.967424 179.191483 
L 177.504107 178.398019 
L 178.040789 176.313611 
L 179.114155 177.334823 
L 180.18752 179.953992 
L 180.724203 180.161836 
L 181.260885 180.526863 
L 181.797568 180.36895 
L 182.33425 180.489863 
L 182.870933 180.45221 
L 183.407616 180.53177 
L 184.480981 180.381006 
L 185.017663 179.851448 
L 185.554346 178.802063 
L 186.627711 174.076622 
L 187.164394 173.094075 
L 187.701077 176.55314 
L 188.237759 178.508475 
L 188.774442 180.038475 
L 190.38449 180.475743 
L 191.457855 180.339841 
L 191.994537 180.169903 
L 192.53122 178.530013 
L 193.604585 173.801827 
L 194.141268 174.588236 
L 194.677951 176.26201 
L 195.214633 179.101518 
L 195.751316 179.440751 
L 196.287998 179.254094 
L 197.361364 176.126584 
L 197.898046 172.80952 
L 198.434729 173.972799 
L 198.971411 173.295826 
L 199.508094 173.940307 
L 200.044777 176.902679 
L 201.118142 179.983506 
L 201.654825 179.957902 
L 202.191507 179.479896 
L 202.72819 177.20955 
L 203.264872 174.314659 
L 203.801555 173.381321 
L 204.338238 174.487901 
L 204.87492 177.243438 
L 205.411603 178.744867 
L 205.948285 178.440939 
L 206.484968 177.053941 
L 207.021651 176.083102 
L 207.558333 176.085065 
L 208.095016 178.022532 
L 208.631699 179.46112 
L 209.168381 179.801315 
L 209.705064 179.064364 
L 210.241746 177.216421 
L 210.778429 176.098278 
L 211.315112 177.368765 
L 211.851794 177.658047 
L 212.388477 179.675085 
L 212.925159 180.316727 
L 213.998525 180.373664 
L 214.535207 180.583394 
L 218.291986 180.538105 
L 218.828668 180.316641 
L 219.365351 179.361163 
L 220.438716 176.029442 
L 220.975399 175.961242 
L 221.512081 174.86331 
L 222.048764 175.756048 
L 222.585447 178.129898 
L 223.122129 179.32209 
L 223.658812 180.078953 
L 224.195494 179.384843 
L 224.732177 178.028501 
L 225.805542 173.878788 
L 226.342225 176.803353 
L 226.878907 179.106693 
L 227.41559 180.103635 
L 227.952273 180.419471 
L 228.488955 180.531963 
L 229.562321 180.424102 
L 230.099003 180.098547 
L 230.635686 179.299799 
L 231.709051 174.322004 
L 232.245734 174.720578 
L 233.319099 178.475073 
L 233.855781 180.205434 
L 235.465829 180.501886 
L 237.075877 179.937794 
L 237.61256 178.270009 
L 238.149242 175.899477 
L 238.685925 176.045419 
L 239.75929 177.830164 
L 240.295973 176.434818 
L 240.832656 174.314149 
L 241.369338 173.437721 
L 241.906021 174.190342 
L 242.442703 176.967427 
L 242.979386 178.932728 
L 243.516069 179.454311 
L 244.052751 178.15911 
L 244.589434 176.202208 
L 245.126116 175.535469 
L 245.662799 176.082756 
L 246.736164 179.346225 
L 247.272847 180.19389 
L 247.80953 180.450967 
L 248.882895 180.30954 
L 249.419577 179.792608 
L 249.95626 178.373259 
L 250.492943 175.870795 
L 251.029625 175.349682 
L 252.10299 178.891515 
L 252.639673 179.837371 
L 253.176356 180.204106 
L 253.713038 180.361086 
L 254.249721 179.474587 
L 254.786404 178.240258 
L 255.323086 176.359116 
L 255.859769 176.431491 
L 256.396451 176.904867 
L 256.933134 178.05625 
L 257.469817 178.119171 
L 258.006499 176.928623 
L 258.543182 175.011891 
L 258.543182 175.011891 
" clip-path="url(#p00f4fb65e1)" style="fill: none; stroke: #0000ff; stroke-opacity: 0.5; stroke-linecap: square"/>
   </g>
   <g id="line2d_14">
    <path d="M 44.406818 180.687273 
L 105.051954 180.687273 
L 105.588636 180.332282 
L 106.125319 180.687273 
L 106.662002 180.344366 
L 107.198684 180.350177 
L 107.735367 180.024412 
L 108.272049 179.05774 
L 108.808732 180.046234 
L 109.345415 180.056743 
L 109.882097 179.756857 
L 110.41878 180.382136 
L 111.492145 177.141406 
L 112.028828 177.19724 
L 112.56551 168.376745 
L 113.638876 124.351325 
L 114.175558 116.739829 
L 115.785606 169.980719 
L 116.322289 177.085527 
L 116.858971 179.166368 
L 117.932337 179.702617 
L 118.469019 179.474166 
L 119.542384 179.979982 
L 120.079067 180.687273 
L 120.61575 180.228888 
L 121.152432 180.461263 
L 121.689115 180.018598 
L 122.225797 180.027759 
L 122.76248 180.470426 
L 123.299163 180.473356 
L 123.835845 179.420999 
L 124.909211 180.276325 
L 125.445893 179.876193 
L 125.982576 179.686674 
L 127.592624 156.435712 
L 128.129306 156.744666 
L 128.665989 170.556026 
L 129.202671 178.464205 
L 129.739354 180.138453 
L 130.276037 180.506605 
L 130.812719 180.687273 
L 132.95945 180.687273 
L 133.496132 180.351511 
L 134.032815 180.687273 
L 134.569498 180.523353 
L 135.10618 180.687273 
L 135.642863 180.687273 
L 136.179545 180.529038 
L 137.252911 180.532665 
L 137.789593 180.075911 
L 138.326276 180.687273 
L 138.862959 180.38848 
L 139.399641 180.687273 
L 141.009689 180.687273 
L 141.546372 180.545994 
L 142.619737 180.549057 
L 143.156419 180.687273 
L 143.693102 180.687273 
L 144.229785 180.419663 
L 144.766467 180.422509 
L 145.30315 180.032369 
L 145.839833 167.727093 
L 146.376515 122.720685 
L 147.44988 173.402826 
L 147.986563 179.319982 
L 148.523246 180.441224 
L 149.059928 180.687273 
L 151.206659 180.687273 
L 151.743341 180.571501 
L 152.280024 180.687273 
L 152.816707 180.687273 
L 153.353389 180.574889 
L 154.426754 180.687273 
L 160.330263 180.687273 
L 160.866946 180.490511 
L 161.403628 180.687273 
L 162.476994 180.59155 
L 163.550359 180.687273 
L 164.087041 180.314594 
L 165.160407 180.321175 
L 165.697089 180.596555 
L 166.233772 180.417505 
L 166.770455 180.687273 
L 167.307137 180.157103 
L 167.84382 180.336885 
L 168.380502 180.253065 
L 168.917185 179.568021 
L 169.453868 177.102138 
L 169.99055 172.731659 
L 170.527233 165.666184 
L 171.063915 164.295133 
L 171.600598 167.815797 
L 172.137281 173.15992 
L 172.673963 172.979257 
L 173.210646 166.927972 
L 173.747329 163.530549 
L 174.820694 175.192759 
L 175.357376 178.974522 
L 175.894059 179.992297 
L 176.967424 179.6236 
L 177.504107 179.255311 
L 179.114155 172.593568 
L 180.18752 178.080051 
L 180.724203 179.537599 
L 181.260885 180.330806 
L 181.797568 180.545796 
L 182.33425 180.336322 
L 182.870933 180.547976 
L 183.407616 180.479936 
L 183.944298 180.275777 
L 184.480981 180.210858 
L 185.017663 180.55219 
L 186.627711 180.027033 
L 187.164394 180.228568 
L 187.701077 180.166949 
L 188.237759 180.299931 
L 188.774442 179.854249 
L 189.311124 178.842705 
L 189.847807 176.015058 
L 190.38449 169.531041 
L 190.921172 160.777506 
L 191.457855 158.1428 
L 191.994537 163.211687 
L 192.53122 171.312515 
L 193.067903 170.473378 
L 193.604585 169.886576 
L 195.214633 178.631665 
L 195.751316 179.929155 
L 196.824681 180.457273 
L 197.361364 180.401784 
L 197.898046 180.460473 
L 198.434729 180.630967 
L 200.044777 180.411528 
L 200.581459 180.632501 
L 201.654825 180.417135 
L 202.72819 180.633974 
L 203.801555 180.634688 
L 205.948285 180.584876 
L 207.021651 180.333592 
L 207.558333 179.582994 
L 209.168381 172.369116 
L 209.705064 173.205389 
L 210.241746 176.848991 
L 210.778429 179.094249 
L 211.315112 180.351525 
L 211.851794 180.496643 
L 212.388477 180.450504 
L 212.925159 180.593166 
L 213.461842 180.126207 
L 213.998525 179.154076 
L 214.535207 177.132309 
L 215.07189 173.254917 
L 215.608573 173.84848 
L 217.21862 179.658074 
L 217.755303 180.420443 
L 218.291986 180.554679 
L 218.828668 180.423712 
L 219.365351 180.512641 
L 219.902033 180.470314 
L 220.438716 180.557889 
L 220.975399 180.430074 
L 221.512081 180.559449 
L 222.048764 180.475519 
L 222.585447 180.560983 
L 223.122129 180.39436 
L 223.658812 179.689004 
L 224.195494 177.420861 
L 225.26886 167.040485 
L 225.805542 168.095892 
L 226.342225 174.832373 
L 226.878907 178.760471 
L 227.41559 180.288204 
L 228.488955 180.529498 
L 229.025638 180.412768 
L 229.562321 180.570308 
L 230.099003 180.45469 
L 231.172368 180.648953 
L 231.709051 180.572969 
L 232.245734 180.611505 
L 233.319099 180.499997 
L 234.929147 180.613621 
L 236.539195 180.470001 
L 237.075877 180.435196 
L 237.61256 180.221726 
L 238.149242 180.188683 
L 238.685925 178.810167 
L 239.222608 174.311992 
L 239.75929 166.780488 
L 240.295973 163.337783 
L 240.832656 169.738408 
L 241.906021 179.179248 
L 242.442703 179.971426 
L 242.979386 180.009188 
L 243.516069 180.350052 
L 244.052751 179.613957 
L 244.589434 177.51791 
L 245.126116 173.22089 
L 245.662799 172.435452 
L 246.199482 176.189253 
L 246.736164 178.629775 
L 247.272847 179.87512 
L 247.80953 180.267174 
L 248.882895 180.495408 
L 249.95626 180.402471 
L 250.492943 180.246549 
L 251.029625 180.342786 
L 251.566308 180.064167 
L 252.10299 179.447483 
L 252.639673 177.72707 
L 253.176356 173.84624 
L 253.713038 167.86872 
L 254.249721 166.051545 
L 254.786404 169.690814 
L 255.859769 173.420485 
L 256.396451 176.670559 
L 256.933134 178.70383 
L 257.469817 179.65635 
L 258.006499 180.306279 
L 258.543182 180.162382 
L 258.543182 180.162382 
" clip-path="url(#p00f4fb65e1)" style="fill: none; stroke: #ff0000; stroke-opacity: 0.5; stroke-linecap: square"/>
   </g>
   <g id="patch_3">
    <path d="M 33.7 188.6 
L 33.7 14.52 
" style="fill: none; stroke: #000000; stroke-width: 0.8; stroke-linejoin: miter; stroke-linecap: square"/>
   </g>
   <g id="patch_4">
    <path d="M 269.25 188.6 
L 269.25 14.52 
" style="fill: none; stroke: #000000; stroke-width: 0.8; stroke-linejoin: miter; stroke-linecap: square"/>
   </g>
   <g id="patch_5">
    <path d="M 33.7 188.6 
L 269.25 188.6 
" style="fill: none; stroke: #000000; stroke-width: 0.8; stroke-linejoin: miter; stroke-linecap: square"/>
   </g>
   <g id="patch_6">
    <path d="M 33.7 14.52 
L 269.25 14.52 
" style="fill: none; stroke: #000000; stroke-width: 0.8; stroke-linejoin: miter; stroke-linecap: square"/>
   </g>
   <g id="legend_1">
    <g id="patch_7">
     <path d="M 213.917188 66.554375 
L 262.25 66.554375 
Q 264.25 66.554375 264.25 64.554375 
L 264.25 21.52 
Q 264.25 19.52 262.25 19.52 
L 213.917188 19.52 
Q 211.917188 19.52 211.917188 21.52 
L 211.917188 64.554375 
Q 211.917188 66.554375 213.917188 66.554375 
z
" style="fill: #ffffff; opacity: 0.8; stroke: #cccccc; stroke-linejoin: miter"/>
    </g>
    <g id="line2d_15">
     <path d="M 215.917188 27.618438 
L 225.917188 27.618438 
L 235.917188 27.618438 
" style="fill: none; stroke: #000000; stroke-opacity: 0.5; stroke-width: 0.5; stroke-linecap: square"/>
    </g>
    <g id="text_14">
     <!-- all -->
     <g transform="translate(243.917188 31.118438) scale(0.1 -0.1)">
      <defs>
       <path id="DejaVuSans-61" d="M 2194 1759 
Q 1497 1759 1228 1600 
Q 959 1441 959 1056 
Q 959 750 1161 570 
Q 1363 391 1709 391 
Q 2188 391 2477 730 
Q 2766 1069 2766 1631 
L 2766 1759 
L 2194 1759 
z
M 3341 1997 
L 3341 0 
L 2766 0 
L 2766 531 
Q 2569 213 2275 61 
Q 1981 -91 1556 -91 
Q 1019 -91 701 211 
Q 384 513 384 1019 
Q 384 1609 779 1909 
Q 1175 2209 1959 2209 
L 2766 2209 
L 2766 2266 
Q 2766 2663 2505 2880 
Q 2244 3097 1772 3097 
Q 1472 3097 1187 3025 
Q 903 2953 641 2809 
L 641 3341 
Q 956 3463 1253 3523 
Q 1550 3584 1831 3584 
Q 2591 3584 2966 3190 
Q 3341 2797 3341 1997 
z
" transform="scale(0.015625)"/>
       <path id="DejaVuSans-6c" d="M 603 4863 
L 1178 4863 
L 1178 0 
L 603 0 
L 603 4863 
z
" transform="scale(0.015625)"/>
      </defs>
      <use xlink:href="#DejaVuSans-61"/>
      <use xlink:href="#DejaVuSans-6c" transform="translate(61.279297 0)"/>
      <use xlink:href="#DejaVuSans-6c" transform="translate(89.0625 0)"/>
     </g>
    </g>
    <g id="line2d_16">
     <path d="M 215.917188 42.296563 
L 225.917188 42.296563 
L 235.917188 42.296563 
" style="fill: none; stroke: #0000ff; stroke-opacity: 0.5; stroke-linecap: square"/>
    </g>
    <g id="text_15">
     <!-- 1-1 -->
     <g transform="translate(243.917188 45.796563) scale(0.1 -0.1)">
      <defs>
       <path id="DejaVuSans-2d" d="M 313 2009 
L 1997 2009 
L 1997 1497 
L 313 1497 
L 313 2009 
z
" transform="scale(0.015625)"/>
      </defs>
      <use xlink:href="#DejaVuSans-31"/>
      <use xlink:href="#DejaVuSans-2d" transform="translate(63.623047 0)"/>
      <use xlink:href="#DejaVuSans-31" transform="translate(99.707031 0)"/>
     </g>
    </g>
    <g id="line2d_17">
     <path d="M 215.917188 56.974688 
L 225.917188 56.974688 
L 235.917188 56.974688 
" style="fill: none; stroke: #ff0000; stroke-opacity: 0.5; stroke-linecap: square"/>
    </g>
    <g id="text_16">
     <!-- 2-2 -->
     <g transform="translate(243.917188 60.474688) scale(0.1 -0.1)">
      <use xlink:href="#DejaVuSans-32"/>
      <use xlink:href="#DejaVuSans-2d" transform="translate(63.623047 0)"/>
      <use xlink:href="#DejaVuSans-32" transform="translate(99.707031 0)"/>
     </g>
    </g>
   </g>
  </g>
 </g>
 <defs>
  <clipPath id="p00f4fb65e1">
   <rect x="33.7" y="14.52" width="235.55" height="174.08"/>
  </clipPath>
 </defs>
</svg>
