<?xml version="1.0" encoding="utf-8" standalone="no"?>
<!DOCTYPE svg PUBLIC "-//W3C//DTD SVG 1.1//EN"
  "http://www.w3.org/Graphics/SVG/1.1/DTD/svg11.dtd">
<svg xmlns:xlink="http://www.w3.org/1999/xlink" width="288pt" height="216pt" viewBox="0 0 288 216" xmlns="http://www.w3.org/2000/svg" version="1.1">
 <metadata>
  <rdf:RDF xmlns:dc="http://purl.org/dc/elements/1.1/" xmlns:cc="http://creativecommons.org/ns#" xmlns:rdf="http://www.w3.org/1999/02/22-rdf-syntax-ns#">
   <cc:Work>
    <dc:type rdf:resource="http://purl.org/dc/dcmitype/StillImage"/>
    <dc:date>2025-09-17T22:47:31.952464</dc:date>
    <dc:format>image/svg+xml</dc:format>
    <dc:creator>
     <cc:Agent>
      <dc:title>Matplotlib v3.10.0, https://matplotlib.org/</dc:title>
     </cc:Agent>
    </dc:creator>
   </cc:Work>
  </rdf:RDF>
 </metadata>
 <defs>
  <style type="text/css">*{stroke-linejoin: round; stroke-linecap: butt}</style>
 </defs>
 <g id="figure_1">
  <g id="patch_1">
   <path d="M 0 216 
L 288 216 
L 288 0 
L 0 0 
z
" style="fill: #ffffff"/>
  </g>
  <g id="axes_1">
   <g id="patch_2">
    <path d="M 33.7 188.6 
L 269.25 188.6 
L 269.25 14.52 
L 33.7 14.52 
z
" style="fill: #ffffff"/>
   </g>
   <g id="matplotlib.axis_1">
    <g id="xtick_1">
     <g id="line2d_1">
      <defs>
       <path id="m0da73d9495" d="M 0 0 
L 0 3.5 
" style="stroke: #000000; stroke-width: 0.8"/>
      </defs>
      <g>
       <use xlink:href="#m0da73d9495" x="44.138477" y="188.6" style="stroke: #000000; stroke-width: 0.8"/>
      </g>
     </g>
     <g id="text_1">
      <!-- 0 -->
      <g transform="translate(40.957227 203.198437) scale(0.1 -0.1)">
       <defs>
        <path id="DejaVuSans-30" d="M 2034 4250 
Q 1547 4250 1301 3770 
Q 1056 3291 1056 2328 
Q 1056 1369 1301 889 
Q 1547 409 2034 409 
Q 2525 409 2770 889 
Q 3016 1369 3016 2328 
Q 3016 3291 2770 3770 
Q 2525 4250 2034 4250 
z
M 2034 4750 
Q 2819 4750 3233 4129 
Q 3647 3509 3647 2328 
Q 3647 1150 3233 529 
Q 2819 -91 2034 -91 
Q 1250 -91 836 529 
Q 422 1150 422 2328 
Q 422 3509 836 4129 
Q 1250 4750 2034 4750 
z
" transform="scale(0.015625)"/>
       </defs>
       <use xlink:href="#DejaVuSans-30"/>
      </g>
     </g>
    </g>
    <g id="xtick_2">
     <g id="line2d_2">
      <g>
       <use xlink:href="#m0da73d9495" x="87.073086" y="188.6" style="stroke: #000000; stroke-width: 0.8"/>
      </g>
     </g>
     <g id="text_2">
      <!-- 200 -->
      <g transform="translate(77.529336 203.198437) scale(0.1 -0.1)">
       <defs>
        <path id="DejaVuSans-32" d="M 1228 531 
L 3431 531 
L 3431 0 
L 469 0 
L 469 531 
Q 828 903 1448 1529 
Q 2069 2156 2228 2338 
Q 2531 2678 2651 2914 
Q 2772 3150 2772 3378 
Q 2772 3750 2511 3984 
Q 2250 4219 1831 4219 
Q 1534 4219 1204 4116 
Q 875 4013 500 3803 
L 500 4441 
Q 881 4594 1212 4672 
Q 1544 4750 1819 4750 
Q 2544 4750 2975 4387 
Q 3406 4025 3406 3419 
Q 3406 3131 3298 2873 
Q 3191 2616 2906 2266 
Q 2828 2175 2409 1742 
Q 1991 1309 1228 531 
z
" transform="scale(0.015625)"/>
       </defs>
       <use xlink:href="#DejaVuSans-32"/>
       <use xlink:href="#DejaVuSans-30" transform="translate(63.623047 0)"/>
       <use xlink:href="#DejaVuSans-30" transform="translate(127.246094 0)"/>
      </g>
     </g>
    </g>
    <g id="xtick_3">
     <g id="line2d_3">
      <g>
       <use xlink:href="#m0da73d9495" x="130.007695" y="188.6" style="stroke: #000000; stroke-width: 0.8"/>
      </g>
     </g>
     <g id="text_3">
      <!-- 400 -->
      <g transform="translate(120.463945 203.198437) scale(0.1 -0.1)">
       <defs>
        <path id="DejaVuSans-34" d="M 2419 4116 
L 825 1625 
L 2419 1625 
L 2419 4116 
z
M 2253 4666 
L 3047 4666 
L 3047 1625 
L 3713 1625 
L 3713 1100 
L 3047 1100 
L 3047 0 
L 2419 0 
L 2419 1100 
L 313 1100 
L 313 1709 
L 2253 4666 
z
" transform="scale(0.015625)"/>
       </defs>
       <use xlink:href="#DejaVuSans-34"/>
       <use xlink:href="#DejaVuSans-30" transform="translate(63.623047 0)"/>
       <use xlink:href="#DejaVuSans-30" transform="translate(127.246094 0)"/>
      </g>
     </g>
    </g>
    <g id="xtick_4">
     <g id="line2d_4">
      <g>
       <use xlink:href="#m0da73d9495" x="172.942305" y="188.6" style="stroke: #000000; stroke-width: 0.8"/>
      </g>
     </g>
     <g id="text_4">
      <!-- 600 -->
      <g transform="translate(163.398555 203.198437) scale(0.1 -0.1)">
       <defs>
        <path id="DejaVuSans-36" d="M 2113 2584 
Q 1688 2584 1439 2293 
Q 1191 2003 1191 1497 
Q 1191 994 1439 701 
Q 1688 409 2113 409 
Q 2538 409 2786 701 
Q 3034 994 3034 1497 
Q 3034 2003 2786 2293 
Q 2538 2584 2113 2584 
z
M 3366 4563 
L 3366 3988 
Q 3128 4100 2886 4159 
Q 2644 4219 2406 4219 
Q 1781 4219 1451 3797 
Q 1122 3375 1075 2522 
Q 1259 2794 1537 2939 
Q 1816 3084 2150 3084 
Q 2853 3084 3261 2657 
Q 3669 2231 3669 1497 
Q 3669 778 3244 343 
Q 2819 -91 2113 -91 
Q 1303 -91 875 529 
Q 447 1150 447 2328 
Q 447 3434 972 4092 
Q 1497 4750 2381 4750 
Q 2619 4750 2861 4703 
Q 3103 4656 3366 4563 
z
" transform="scale(0.015625)"/>
       </defs>
       <use xlink:href="#DejaVuSans-36"/>
       <use xlink:href="#DejaVuSans-30" transform="translate(63.623047 0)"/>
       <use xlink:href="#DejaVuSans-30" transform="translate(127.246094 0)"/>
      </g>
     </g>
    </g>
    <g id="xtick_5">
     <g id="line2d_5">
      <g>
       <use xlink:href="#m0da73d9495" x="215.876914" y="188.6" style="stroke: #000000; stroke-width: 0.8"/>
      </g>
     </g>
     <g id="text_5">
      <!-- 800 -->
      <g transform="translate(206.333164 203.198437) scale(0.1 -0.1)">
       <defs>
        <path id="DejaVuSans-38" d="M 2034 2216 
Q 1584 2216 1326 1975 
Q 1069 1734 1069 1313 
Q 1069 891 1326 650 
Q 1584 409 2034 409 
Q 2484 409 2743 651 
Q 3003 894 3003 1313 
Q 3003 1734 2745 1975 
Q 2488 2216 2034 2216 
z
M 1403 2484 
Q 997 2584 770 2862 
Q 544 3141 544 3541 
Q 544 4100 942 4425 
Q 1341 4750 2034 4750 
Q 2731 4750 3128 4425 
Q 3525 4100 3525 3541 
Q 3525 3141 3298 2862 
Q 3072 2584 2669 2484 
Q 3125 2378 3379 2068 
Q 3634 1759 3634 1313 
Q 3634 634 3220 271 
Q 2806 -91 2034 -91 
Q 1263 -91 848 271 
Q 434 634 434 1313 
Q 434 1759 690 2068 
Q 947 2378 1403 2484 
z
M 1172 3481 
Q 1172 3119 1398 2916 
Q 1625 2713 2034 2713 
Q 2441 2713 2670 2916 
Q 2900 3119 2900 3481 
Q 2900 3844 2670 4047 
Q 2441 4250 2034 4250 
Q 1625 4250 1398 4047 
Q 1172 3844 1172 3481 
z
" transform="scale(0.015625)"/>
       </defs>
       <use xlink:href="#DejaVuSans-38"/>
       <use xlink:href="#DejaVuSans-30" transform="translate(63.623047 0)"/>
       <use xlink:href="#DejaVuSans-30" transform="translate(127.246094 0)"/>
      </g>
     </g>
    </g>
    <g id="xtick_6">
     <g id="line2d_6">
      <g>
       <use xlink:href="#m0da73d9495" x="258.811523" y="188.6" style="stroke: #000000; stroke-width: 0.8"/>
      </g>
     </g>
     <g id="text_6">
      <!-- 1000 -->
      <g transform="translate(246.086523 203.198437) scale(0.1 -0.1)">
       <defs>
        <path id="DejaVuSans-31" d="M 794 531 
L 1825 531 
L 1825 4091 
L 703 3866 
L 703 4441 
L 1819 4666 
L 2450 4666 
L 2450 531 
L 3481 531 
L 3481 0 
L 794 0 
L 794 531 
z
" transform="scale(0.015625)"/>
       </defs>
       <use xlink:href="#DejaVuSans-31"/>
       <use xlink:href="#DejaVuSans-30" transform="translate(63.623047 0)"/>
       <use xlink:href="#DejaVuSans-30" transform="translate(127.246094 0)"/>
       <use xlink:href="#DejaVuSans-30" transform="translate(190.869141 0)"/>
      </g>
     </g>
    </g>
    <g id="text_7">
     <!-- q (nm) -->
     <g transform="translate(134.771094 216.876563) scale(0.1 -0.1)">
      <defs>
       <path id="DejaVuSans-71" d="M 947 1747 
Q 947 1113 1208 752 
Q 1469 391 1925 391 
Q 2381 391 2643 752 
Q 2906 1113 2906 1747 
Q 2906 2381 2643 2742 
Q 2381 3103 1925 3103 
Q 1469 3103 1208 2742 
Q 947 2381 947 1747 
z
M 2906 525 
Q 2725 213 2448 61 
Q 2172 -91 1784 -91 
Q 1150 -91 751 415 
Q 353 922 353 1747 
Q 353 2572 751 3078 
Q 1150 3584 1784 3584 
Q 2172 3584 2448 3432 
Q 2725 3281 2906 2969 
L 2906 3500 
L 3481 3500 
L 3481 -1331 
L 2906 -1331 
L 2906 525 
z
" transform="scale(0.015625)"/>
       <path id="DejaVuSans-20" transform="scale(0.015625)"/>
       <path id="DejaVuSans-28" d="M 1984 4856 
Q 1566 4138 1362 3434 
Q 1159 2731 1159 2009 
Q 1159 1288 1364 580 
Q 1569 -128 1984 -844 
L 1484 -844 
Q 1016 -109 783 600 
Q 550 1309 550 2009 
Q 550 2706 781 3412 
Q 1013 4119 1484 4856 
L 1984 4856 
z
" transform="scale(0.015625)"/>
       <path id="DejaVuSans-6e" d="M 3513 2113 
L 3513 0 
L 2938 0 
L 2938 2094 
Q 2938 2591 2744 2837 
Q 2550 3084 2163 3084 
Q 1697 3084 1428 2787 
Q 1159 2491 1159 1978 
L 1159 0 
L 581 0 
L 581 3500 
L 1159 3500 
L 1159 2956 
Q 1366 3272 1645 3428 
Q 1925 3584 2291 3584 
Q 2894 3584 3203 3211 
Q 3513 2838 3513 2113 
z
" transform="scale(0.015625)"/>
       <path id="DejaVuSans-6d" d="M 3328 2828 
Q 3544 3216 3844 3400 
Q 4144 3584 4550 3584 
Q 5097 3584 5394 3201 
Q 5691 2819 5691 2113 
L 5691 0 
L 5113 0 
L 5113 2094 
Q 5113 2597 4934 2840 
Q 4756 3084 4391 3084 
Q 3944 3084 3684 2787 
Q 3425 2491 3425 1978 
L 3425 0 
L 2847 0 
L 2847 2094 
Q 2847 2600 2669 2842 
Q 2491 3084 2119 3084 
Q 1678 3084 1418 2786 
Q 1159 2488 1159 1978 
L 1159 0 
L 581 0 
L 581 3500 
L 1159 3500 
L 1159 2956 
Q 1356 3278 1631 3431 
Q 1906 3584 2284 3584 
Q 2666 3584 2933 3390 
Q 3200 3197 3328 2828 
z
" transform="scale(0.015625)"/>
       <path id="DejaVuSans-29" d="M 513 4856 
L 1013 4856 
Q 1481 4119 1714 3412 
Q 1947 2706 1947 2009 
Q 1947 1309 1714 600 
Q 1481 -109 1013 -844 
L 513 -844 
Q 928 -128 1133 580 
Q 1338 1288 1338 2009 
Q 1338 2731 1133 3434 
Q 928 4138 513 4856 
z
" transform="scale(0.015625)"/>
      </defs>
      <use xlink:href="#DejaVuSans-71"/>
      <use xlink:href="#DejaVuSans-20" transform="translate(63.476562 0)"/>
      <use xlink:href="#DejaVuSans-28" transform="translate(95.263672 0)"/>
      <use xlink:href="#DejaVuSans-6e" transform="translate(134.277344 0)"/>
      <use xlink:href="#DejaVuSans-6d" transform="translate(197.65625 0)"/>
      <use xlink:href="#DejaVuSans-29" transform="translate(295.068359 0)"/>
     </g>
    </g>
   </g>
   <g id="matplotlib.axis_2">
    <g id="ytick_1">
     <g id="line2d_7">
      <defs>
       <path id="m0f6aa18785" d="M 0 0 
L -3.5 0 
" style="stroke: #000000; stroke-width: 0.8"/>
      </defs>
      <g>
       <use xlink:href="#m0f6aa18785" x="33.7" y="180.687273" style="stroke: #000000; stroke-width: 0.8"/>
      </g>
     </g>
     <g id="text_8">
      <!-- 0 -->
      <g transform="translate(20.3375 184.486491) scale(0.1 -0.1)">
       <use xlink:href="#DejaVuSans-30"/>
      </g>
     </g>
    </g>
    <g id="ytick_2">
     <g id="line2d_8">
      <g>
       <use xlink:href="#m0f6aa18785" x="33.7" y="153.772698" style="stroke: #000000; stroke-width: 0.8"/>
      </g>
     </g>
     <g id="text_9">
      <!-- 100 -->
      <g transform="translate(7.6125 157.571917) scale(0.1 -0.1)">
       <use xlink:href="#DejaVuSans-31"/>
       <use xlink:href="#DejaVuSans-30" transform="translate(63.623047 0)"/>
       <use xlink:href="#DejaVuSans-30" transform="translate(127.246094 0)"/>
      </g>
     </g>
    </g>
    <g id="ytick_3">
     <g id="line2d_9">
      <g>
       <use xlink:href="#m0f6aa18785" x="33.7" y="126.858123" style="stroke: #000000; stroke-width: 0.8"/>
      </g>
     </g>
     <g id="text_10">
      <!-- 200 -->
      <g transform="translate(7.6125 130.657342) scale(0.1 -0.1)">
       <use xlink:href="#DejaVuSans-32"/>
       <use xlink:href="#DejaVuSans-30" transform="translate(63.623047 0)"/>
       <use xlink:href="#DejaVuSans-30" transform="translate(127.246094 0)"/>
      </g>
     </g>
    </g>
    <g id="ytick_4">
     <g id="line2d_10">
      <g>
       <use xlink:href="#m0f6aa18785" x="33.7" y="99.943548" style="stroke: #000000; stroke-width: 0.8"/>
      </g>
     </g>
     <g id="text_11">
      <!-- 300 -->
      <g transform="translate(7.6125 103.742767) scale(0.1 -0.1)">
       <defs>
        <path id="DejaVuSans-33" d="M 2597 2516 
Q 3050 2419 3304 2112 
Q 3559 1806 3559 1356 
Q 3559 666 3084 287 
Q 2609 -91 1734 -91 
Q 1441 -91 1130 -33 
Q 819 25 488 141 
L 488 750 
Q 750 597 1062 519 
Q 1375 441 1716 441 
Q 2309 441 2620 675 
Q 2931 909 2931 1356 
Q 2931 1769 2642 2001 
Q 2353 2234 1838 2234 
L 1294 2234 
L 1294 2753 
L 1863 2753 
Q 2328 2753 2575 2939 
Q 2822 3125 2822 3475 
Q 2822 3834 2567 4026 
Q 2313 4219 1838 4219 
Q 1578 4219 1281 4162 
Q 984 4106 628 3988 
L 628 4550 
Q 988 4650 1302 4700 
Q 1616 4750 1894 4750 
Q 2613 4750 3031 4423 
Q 3450 4097 3450 3541 
Q 3450 3153 3228 2886 
Q 3006 2619 2597 2516 
z
" transform="scale(0.015625)"/>
       </defs>
       <use xlink:href="#DejaVuSans-33"/>
       <use xlink:href="#DejaVuSans-30" transform="translate(63.623047 0)"/>
       <use xlink:href="#DejaVuSans-30" transform="translate(127.246094 0)"/>
      </g>
     </g>
    </g>
    <g id="ytick_5">
     <g id="line2d_11">
      <g>
       <use xlink:href="#m0f6aa18785" x="33.7" y="73.028974" style="stroke: #000000; stroke-width: 0.8"/>
      </g>
     </g>
     <g id="text_12">
      <!-- 400 -->
      <g transform="translate(7.6125 76.828192) scale(0.1 -0.1)">
       <use xlink:href="#DejaVuSans-34"/>
       <use xlink:href="#DejaVuSans-30" transform="translate(63.623047 0)"/>
       <use xlink:href="#DejaVuSans-30" transform="translate(127.246094 0)"/>
      </g>
     </g>
    </g>
    <g id="ytick_6">
     <g id="line2d_12">
      <g>
       <use xlink:href="#m0f6aa18785" x="33.7" y="46.114399" style="stroke: #000000; stroke-width: 0.8"/>
      </g>
     </g>
     <g id="text_13">
      <!-- 500 -->
      <g transform="translate(7.6125 49.913618) scale(0.1 -0.1)">
       <defs>
        <path id="DejaVuSans-35" d="M 691 4666 
L 3169 4666 
L 3169 4134 
L 1269 4134 
L 1269 2991 
Q 1406 3038 1543 3061 
Q 1681 3084 1819 3084 
Q 2600 3084 3056 2656 
Q 3513 2228 3513 1497 
Q 3513 744 3044 326 
Q 2575 -91 1722 -91 
Q 1428 -91 1123 -41 
Q 819 9 494 109 
L 494 744 
Q 775 591 1075 516 
Q 1375 441 1709 441 
Q 2250 441 2565 725 
Q 2881 1009 2881 1497 
Q 2881 1984 2565 2268 
Q 2250 2553 1709 2553 
Q 1456 2553 1204 2497 
Q 953 2441 691 2322 
L 691 4666 
z
" transform="scale(0.015625)"/>
       </defs>
       <use xlink:href="#DejaVuSans-35"/>
       <use xlink:href="#DejaVuSans-30" transform="translate(63.623047 0)"/>
       <use xlink:href="#DejaVuSans-30" transform="translate(127.246094 0)"/>
      </g>
     </g>
    </g>
    <g id="ytick_7">
     <g id="line2d_13">
      <g>
       <use xlink:href="#m0f6aa18785" x="33.7" y="19.199824" style="stroke: #000000; stroke-width: 0.8"/>
      </g>
     </g>
     <g id="text_14">
      <!-- 600 -->
      <g transform="translate(7.6125 22.999043) scale(0.1 -0.1)">
       <use xlink:href="#DejaVuSans-36"/>
       <use xlink:href="#DejaVuSans-30" transform="translate(63.623047 0)"/>
       <use xlink:href="#DejaVuSans-30" transform="translate(127.246094 0)"/>
      </g>
     </g>
    </g>
    <g id="text_15">
     <!-- rdf -->
     <g transform="translate(1.532813 108.462344) rotate(-90) scale(0.1 -0.1)">
      <defs>
       <path id="DejaVuSans-72" d="M 2631 2963 
Q 2534 3019 2420 3045 
Q 2306 3072 2169 3072 
Q 1681 3072 1420 2755 
Q 1159 2438 1159 1844 
L 1159 0 
L 581 0 
L 581 3500 
L 1159 3500 
L 1159 2956 
Q 1341 3275 1631 3429 
Q 1922 3584 2338 3584 
Q 2397 3584 2469 3576 
Q 2541 3569 2628 3553 
L 2631 2963 
z
" transform="scale(0.015625)"/>
       <path id="DejaVuSans-64" d="M 2906 2969 
L 2906 4863 
L 3481 4863 
L 3481 0 
L 2906 0 
L 2906 525 
Q 2725 213 2448 61 
Q 2172 -91 1784 -91 
Q 1150 -91 751 415 
Q 353 922 353 1747 
Q 353 2572 751 3078 
Q 1150 3584 1784 3584 
Q 2172 3584 2448 3432 
Q 2725 3281 2906 2969 
z
M 947 1747 
Q 947 1113 1208 752 
Q 1469 391 1925 391 
Q 2381 391 2643 752 
Q 2906 1113 2906 1747 
Q 2906 2381 2643 2742 
Q 2381 3103 1925 3103 
Q 1469 3103 1208 2742 
Q 947 2381 947 1747 
z
" transform="scale(0.015625)"/>
       <path id="DejaVuSans-66" d="M 2375 4863 
L 2375 4384 
L 1825 4384 
Q 1516 4384 1395 4259 
Q 1275 4134 1275 3809 
L 1275 3500 
L 2222 3500 
L 2222 3053 
L 1275 3053 
L 1275 0 
L 697 0 
L 697 3053 
L 147 3053 
L 147 3500 
L 697 3500 
L 697 3744 
Q 697 4328 969 4595 
Q 1241 4863 1831 4863 
L 2375 4863 
z
" transform="scale(0.015625)"/>
      </defs>
      <use xlink:href="#DejaVuSans-72"/>
      <use xlink:href="#DejaVuSans-64" transform="translate(39.363281 0)"/>
      <use xlink:href="#DejaVuSans-66" transform="translate(102.839844 0)"/>
     </g>
    </g>
   </g>
   <g id="line2d_14">
    <path d="M 44.406818 180.687273 
L 92.708254 180.687273 
L 93.244936 149.749333 
L 93.781619 135.278337 
L 94.318301 151.058733 
L 94.854984 151.682457 
L 95.391667 180.687273 
L 95.928349 138.964754 
L 96.465032 126.19247 
L 97.001715 167.3388 
L 98.07508 116.574867 
L 98.611762 168.116208 
L 99.148445 143.706341 
L 99.685128 156.507388 
L 100.22181 156.967972 
L 100.758493 134.143769 
L 101.295175 169.268892 
L 101.831858 113.445641 
L 102.368541 125.680619 
L 102.905223 159.084653 
L 103.441906 127.653684 
L 103.978589 128.600811 
L 104.515271 149.988493 
L 105.051954 120.366801 
L 105.588636 151.051616 
L 106.125319 132.145994 
L 106.662002 132.975752 
L 107.198684 171.306686 
L 107.735367 134.572597 
L 108.272049 135.341184 
L 108.808732 145.010036 
L 109.345415 163.1411 
L 109.882097 137.53511 
L 110.41878 172.196036 
L 110.955463 147.265713 
L 112.028828 132.127542 
L 112.56551 148.819997 
L 113.102193 149.314037 
L 113.638876 165.241975 
L 114.175558 142.663598 
L 114.712241 128.260736 
L 115.248923 129.048965 
L 115.785606 108.019367 
L 116.322289 130.573194 
L 116.858971 166.579531 
L 117.395654 152.883707 
L 117.932337 160.136774 
L 118.469019 140.177753 
L 119.005702 160.721858 
L 119.542384 134.762045 
L 120.079067 128.940528 
L 120.61575 142.419964 
L 121.152432 130.372801 
L 121.689115 168.282171 
L 122.225797 131.746669 
L 122.76248 150.515528 
L 123.299163 133.06478 
L 123.835845 151.322731 
L 124.372528 134.3304 
L 124.909211 163.533691 
L 125.445893 129.903742 
L 125.982576 136.13637 
L 126.519258 158.701121 
L 127.055941 158.984818 
L 127.592624 137.838749 
L 128.129306 127.808959 
L 128.665989 154.582741 
L 129.202671 165.221579 
L 129.739354 139.960986 
L 130.276037 140.466883 
L 130.812719 155.859859 
L 131.349402 141.450861 
L 131.886085 141.929373 
L 132.422767 132.827059 
L 132.95945 152.317056 
L 133.496132 157.328592 
L 134.032815 143.758428 
L 134.569498 107.703444 
L 135.10618 144.624741 
L 135.642863 136.136276 
L 136.179545 141.057598 
L 136.716228 171.982482 
L 137.252911 167.780132 
L 137.789593 116.889414 
L 138.326276 142.843527 
L 138.862959 155.743138 
L 139.399641 131.359596 
L 140.473006 140.491742 
L 141.009689 132.985612 
L 141.546372 149.235691 
L 142.083054 149.579337 
L 142.619737 146.071288 
L 143.156419 146.445481 
L 143.693102 135.522488 
L 144.229785 154.622926 
L 144.766467 147.532429 
L 145.30315 151.528179 
L 145.839833 148.228635 
L 146.376515 155.706027 
L 146.913198 152.434626 
L 147.44988 156.222378 
L 147.986563 163.392496 
L 148.523246 143.028942 
L 149.059928 133.247583 
L 149.596611 150.499975 
L 150.133293 160.765701 
L 150.669976 160.965893 
L 151.206659 148.146999 
L 151.743341 138.805844 
L 152.280024 136.03073 
L 152.816707 155.420686 
L 153.353389 152.540975 
L 153.890072 143.525065 
L 154.426754 131.618725 
L 154.963437 159.427143 
L 155.50012 159.631684 
L 156.036802 141.958105 
L 156.573485 145.277843 
L 157.110167 157.304733 
L 157.64685 154.629963 
L 158.183533 143.402558 
L 158.720215 129.544735 
L 159.256898 135.65012 
L 159.793581 138.855849 
L 160.330263 150.293549 
L 160.866946 134.146188 
L 161.403628 150.847424 
L 161.940311 145.742618 
L 162.476994 143.394952 
L 163.013676 138.451551 
L 163.550359 144.062539 
L 164.087041 144.389562 
L 164.623724 142.142485 
L 165.160407 155.21819 
L 165.697089 157.966993 
L 166.233772 143.152254 
L 166.770455 133.558422 
L 167.307137 146.262681 
L 167.84382 144.123025 
L 168.380502 156.521286 
L 168.917185 151.93697 
L 169.453868 142.681208 
L 169.99055 147.714869 
L 170.527233 147.994393 
L 171.063915 132.061619 
L 171.600598 148.542633 
L 172.137281 160.195776 
L 172.673963 146.819472 
L 173.210646 129.187559 
L 174.284011 163.068615 
L 174.820694 139.185985 
L 175.357376 154.689901 
L 175.894059 139.85935 
L 176.430742 157.241479 
L 176.967424 151.087758 
L 177.504107 140.839135 
L 178.040789 139.077437 
L 178.577472 151.792479 
L 179.114155 149.974242 
L 179.650837 156.311026 
L 180.18752 154.487623 
L 180.724203 134.697741 
L 181.260885 141.00876 
L 181.797568 153.128458 
L 182.33425 137.716271 
L 182.870933 149.676934 
L 183.407616 155.685257 
L 183.944298 148.242883 
L 184.480981 152.278337 
L 185.017663 143.096906 
L 185.554346 160.169197 
L 186.091029 147.365474 
L 186.627711 151.290587 
L 187.164394 146.040306 
L 188.237759 142.961426 
L 188.774442 137.891395 
L 189.311124 147.057266 
L 189.847807 136.762675 
L 190.38449 151.037375 
L 190.921172 146.059629 
L 191.457855 146.311384 
L 191.994537 134.616298 
L 192.53122 145.113056 
L 193.067903 160.505344 
L 193.604585 147.291918 
L 194.141268 144.214677 
L 194.677951 149.412427 
L 195.214633 152.903069 
L 195.751316 149.853698 
L 196.287998 142.013814 
L 196.824681 150.285612 
L 197.898046 147.552896 
L 198.434729 132.114605 
L 198.971411 149.566834 
L 199.508094 145.145693 
L 200.044777 157.667295 
L 200.581459 159.349059 
L 201.118142 150.41223 
L 201.654825 149.114644 
L 202.191507 158.2883 
L 202.72819 155.47337 
L 203.264872 151.223526 
L 203.801555 132.398305 
L 204.338238 145.802923 
L 204.87492 150.366957 
L 205.411603 139.094563 
L 205.948285 145.068912 
L 206.484968 156.626788 
L 207.021651 149.7549 
L 207.558333 154.14816 
L 208.095016 147.383242 
L 208.631699 136.571297 
L 209.168381 151.924122 
L 209.705064 141.223897 
L 210.241746 156.35072 
L 210.778429 149.790519 
L 211.315112 144.649685 
L 211.851794 130.291867 
L 212.388477 149.061387 
L 212.925159 153.190178 
L 213.461842 150.762053 
L 213.998525 147.072196 
L 214.535207 158.846393 
L 215.07189 148.76982 
L 215.608573 165.462663 
L 216.145255 149.166899 
L 216.681938 154.374656 
L 217.21862 150.801846 
L 217.755303 137.373395 
L 218.291986 165.928217 
L 218.828668 155.017306 
L 219.365351 152.744625 
L 219.902033 148.084996 
L 220.438716 153.083749 
L 220.975399 153.251164 
L 221.512081 151.045345 
L 222.048764 152.402688 
L 222.585447 152.572405 
L 223.122129 149.247394 
L 223.658812 144.805437 
L 224.195494 147.320167 
L 224.732177 160.099477 
L 225.805542 145.648403 
L 226.342225 143.607062 
L 226.878907 153.878073 
L 227.41559 158.476985 
L 227.952273 151.982172 
L 228.488955 156.539477 
L 229.025638 146.858152 
L 229.562321 151.393537 
L 230.099003 139.69642 
L 231.172368 151.895801 
L 231.709051 145.698527 
L 232.245734 154.331852 
L 232.782416 154.481384 
L 233.319099 134.826441 
L 233.855781 145.449595 
L 234.392464 149.770418 
L 234.929147 157.117438 
L 235.465829 149.097108 
L 236.002512 143.193606 
L 236.539195 152.471806 
L 237.075877 151.626327 
L 237.61256 149.794375 
L 238.149242 148.973944 
L 238.685925 149.148873 
L 239.222608 156.183246 
L 239.75929 147.544267 
L 240.295973 159.358945 
L 240.832656 153.690194 
L 241.369338 155.754699 
L 241.906021 142.537448 
L 242.442703 154.12682 
L 242.979386 155.213428 
L 243.516069 155.350334 
L 244.052751 156.419619 
L 244.589434 151.907543 
L 245.126116 152.06091 
L 245.662799 158.642901 
L 246.199482 150.536984 
L 246.736164 153.422812 
L 247.272847 155.374911 
L 247.80953 148.31393 
L 248.346212 152.062196 
L 248.882895 141.533601 
L 249.419577 147.049438 
L 249.95626 156.030582 
L 250.492943 157.910709 
L 251.029625 152.799954 
L 251.566308 159.012794 
L 252.10299 152.224406 
L 252.639673 141.215667 
L 253.176356 154.223288 
L 253.713038 150.961407 
L 254.249721 151.958112 
L 254.786404 154.626341 
L 255.323086 151.413061 
L 255.859769 143.239545 
L 256.396451 145.084628 
L 256.933134 155.149481 
L 257.469817 155.277758 
L 258.006499 146.434127 
L 258.543182 152.285778 
L 258.543182 152.285778 
" clip-path="url(#p7bb7d8869f)" style="fill: none; stroke: #000000; stroke-opacity: 0.5; stroke-width: 0.5; stroke-linecap: square"/>
   </g>
   <g id="line2d_15">
    <path d="M 44.406818 180.687273 
L 92.708254 180.687273 
L 93.244936 85.939822 
L 93.781619 41.622389 
L 94.318301 89.949853 
L 94.854984 91.860018 
L 95.391667 180.687273 
L 95.928349 180.687273 
L 96.465032 97.242095 
L 97.001715 180.687273 
L 98.07508 102.149569 
L 98.611762 142.188383 
L 99.148445 105.184531 
L 99.685128 143.661823 
L 100.22181 108.046907 
L 100.758493 109.417523 
L 101.295175 145.718478 
L 101.831858 43.402259 
L 102.368541 180.687273 
L 103.441906 115.721121 
L 104.515271 180.687273 
L 105.588636 120.181131 
L 106.125319 180.687273 
L 106.662002 122.240653 
L 107.198684 180.687273 
L 107.735367 124.196785 
L 108.272049 180.687273 
L 108.808732 180.687273 
L 109.882097 127.825867 
L 110.41878 180.687273 
L 110.955463 155.098888 
L 111.492145 155.505047 
L 112.028828 131.115875 
L 112.56551 180.687273 
L 113.102193 156.667138 
L 113.638876 180.687273 
L 114.175558 134.108266 
L 114.712241 157.750659 
L 115.248923 67.728458 
L 115.785606 158.432725 
L 116.322289 158.762361 
L 116.858971 180.687273 
L 117.395654 138.113057 
L 117.932337 159.708636 
L 118.469019 118.657063 
L 119.005702 180.687273 
L 119.542384 140.502695 
L 120.079067 141.068666 
L 120.61575 161.154996 
L 121.152432 103.643227 
L 121.689115 161.691959 
L 122.76248 125.246686 
L 123.299163 125.99581 
L 123.835845 162.701488 
L 124.909211 163.176323 
L 125.445893 128.845747 
L 125.982576 146.577984 
L 126.519258 130.187824 
L 127.055941 164.071329 
L 127.592624 131.478415 
L 128.129306 115.91133 
L 128.665989 164.698246 
L 129.202671 180.687273 
L 129.739354 133.915671 
L 130.276037 134.496666 
L 130.812719 119.8601 
L 131.349402 165.667082 
L 131.886085 151.013252 
L 132.422767 166.03008 
L 132.95945 151.726006 
L 133.496132 166.380079 
L 134.032815 138.276797 
L 134.569498 68.930768 
L 135.10618 166.882083 
L 135.642863 112.468547 
L 136.179545 167.202173 
L 136.716228 167.35806 
L 137.252911 180.687273 
L 137.789593 128.585685 
L 138.326276 129.177719 
L 138.862959 180.687273 
L 139.399641 155.509601 
L 139.936324 143.342614 
L 140.473006 143.757627 
L 141.009689 119.817955 
L 141.546372 144.567093 
L 142.083054 144.961748 
L 142.619737 157.12917 
L 143.156419 122.42866 
L 143.693102 123.055113 
L 144.229785 146.477814 
L 144.766467 124.277982 
L 145.30315 158.362338 
L 145.839833 147.552409 
L 146.376515 158.82868 
L 147.986563 159.501168 
L 148.523246 170.202851 
L 149.059928 118.422669 
L 149.596611 119.054868 
L 150.669976 180.687273 
L 151.206659 140.825435 
L 151.743341 151.088376 
L 152.280024 102.538306 
L 152.816707 180.687273 
L 153.353389 171.109712 
L 153.890072 152.234954 
L 154.426754 124.335108 
L 154.963437 162.084657 
L 155.50012 171.475451 
L 156.036802 162.439874 
L 156.573485 144.540144 
L 157.110167 162.785013 
L 157.64685 162.953824 
L 158.183533 136.770174 
L 158.720215 137.180591 
L 159.256898 103.103728 
L 159.793581 137.984357 
L 160.330263 129.915935 
L 160.866946 147.150308 
L 161.403628 130.841157 
L 161.940311 164.222963 
L 162.476994 131.741092 
L 163.013676 172.603091 
L 163.550359 108.582324 
L 164.087041 164.807023 
L 164.623724 133.469903 
L 165.160407 172.887365 
L 165.697089 165.224859 
L 166.233772 134.70687 
L 166.770455 127.512281 
L 167.307137 158.096131 
L 167.84382 143.361264 
L 168.380502 158.484769 
L 168.917185 151.338 
L 169.453868 137.039677 
L 169.99055 151.836416 
L 170.527233 152.080999 
L 171.600598 138.497428 
L 172.137281 166.74167 
L 172.673963 139.199213 
L 173.210646 153.258074 
L 173.747329 139.883527 
L 174.284011 160.453341 
L 174.820694 113.793737 
L 175.357376 140.878791 
L 175.894059 128.040737 
L 176.430742 167.632227 
L 177.504107 154.995708 
L 178.040789 155.201245 
L 178.577472 161.725062 
L 179.114155 143.063809 
L 179.650837 137.140118 
L 180.18752 162.171172 
L 180.724203 137.822022 
L 181.797568 162.601798 
L 182.33425 126.851437 
L 182.870933 151.009406 
L 183.407616 163.017577 
L 183.944298 145.618698 
L 184.480981 169.086956 
L 185.017663 128.883041 
L 185.554346 152.125174 
L 186.091029 141.001934 
L 186.627711 152.553721 
L 187.164394 141.595459 
L 187.701077 136.344151 
L 188.237759 153.178837 
L 188.774442 142.460741 
L 189.311124 175.266646 
L 189.847807 137.641157 
L 190.38449 153.980559 
L 190.921172 127.663688 
L 191.457855 143.840614 
L 191.994537 149.333413 
L 192.53122 128.808198 
L 193.067903 149.783691 
L 193.604585 139.777961 
L 194.141268 140.07006 
L 194.677951 165.564236 
L 195.214633 145.650571 
L 195.751316 155.837842 
L 196.287998 151.077902 
L 196.824681 161.086201 
L 197.361364 156.357257 
L 197.898046 156.526785 
L 198.434729 142.299194 
L 198.971411 156.860683 
L 199.508094 133.362879 
L 200.044777 161.887623 
L 200.581459 171.351803 
L 201.118142 152.872075 
L 201.654825 166.874246 
L 202.191507 162.394777 
L 202.72819 167.06064 
L 203.264872 149.105816 
L 203.801555 126.910917 
L 204.338238 145.07616 
L 204.87492 140.891851 
L 205.411603 127.979261 
L 205.948285 154.507773 
L 206.484968 150.346289 
L 207.021651 137.627998 
L 207.558333 155.021152 
L 208.095016 155.188869 
L 209.705064 130.677639 
L 210.241746 159.984299 
L 210.778429 151.889479 
L 212.388477 152.438105 
L 212.925159 136.577346 
L 213.461842 144.825795 
L 213.998525 137.13312 
L 214.535207 161.014417 
L 215.07189 165.047718 
L 215.608573 165.145482 
L 216.145255 142.074809 
L 216.681938 153.826473 
L 217.21862 146.365722 
L 217.755303 146.577589 
L 218.291986 161.854099 
L 218.828668 165.713124 
L 219.365351 158.363525 
L 219.902033 154.801666 
L 220.438716 158.634455 
L 220.975399 166.074561 
L 221.512081 144.375903 
L 222.048764 159.031884 
L 222.585447 151.986675 
L 223.122129 152.158491 
L 223.658812 138.149932 
L 224.732177 159.670563 
L 225.26886 156.312818 
L 225.805542 142.610755 
L 226.342225 156.59918 
L 226.878907 146.47761 
L 227.41559 163.682518 
L 227.952273 140.113711 
L 228.488955 167.241339 
L 229.025638 157.293343 
L 229.562321 144.137908 
L 230.099003 137.741257 
L 231.172368 151.295975 
L 231.709051 141.722524 
L 232.245734 148.401876 
L 232.782416 151.795276 
L 233.319099 145.575071 
L 233.855781 148.947446 
L 234.392464 155.438505 
L 234.929147 164.995396 
L 235.465829 143.23764 
L 236.002512 143.446936 
L 236.539195 155.998736 
L 237.075877 153.066843 
L 237.61256 162.375754 
L 238.149242 159.441818 
L 238.685925 141.449062 
L 239.222608 141.664601 
L 239.75929 159.790117 
L 240.295973 159.904271 
L 240.832656 139.347991 
L 241.369338 154.256344 
L 241.906021 128.112039 
L 242.442703 160.351925 
L 242.979386 154.68272 
L 243.516069 143.327013 
L 244.052751 152.102773 
L 244.589434 146.569363 
L 245.126116 163.719226 
L 245.662799 163.809549 
L 246.199482 152.706885 
L 246.736164 155.638046 
L 247.272847 144.696253 
L 247.80953 139.377532 
L 248.346212 150.552668 
L 248.882895 145.259867 
L 249.419577 134.601222 
L 249.95626 153.719013 
L 250.492943 156.541923 
L 251.029625 151.32933 
L 251.566308 162.101403 
L 252.10299 143.707105 
L 252.639673 146.525022 
L 253.176356 162.386573 
L 254.249721 152.222163 
L 254.786404 157.516159 
L 255.323086 149.949347 
L 255.859769 152.653484 
L 256.396451 137.58116 
L 256.933134 155.458403 
L 257.469817 165.625986 
L 258.006499 148.218142 
L 258.543182 148.380569 
L 258.543182 148.380569 
" clip-path="url(#p7bb7d8869f)" style="fill: none; stroke: #0000ff; stroke-opacity: 0.5; stroke-linecap: square"/>
   </g>
   <g id="line2d_16">
    <path d="M 44.406818 180.687273 
L 101.831858 180.687273 
L 102.368541 120.791136 
L 102.905223 121.880143 
L 103.441906 180.687273 
L 105.051954 180.687273 
L 105.588636 126.904042 
L 106.662002 128.734731 
L 107.198684 180.687273 
L 107.735367 130.473513 
L 108.272049 131.31042 
L 108.808732 83.565913 
L 109.345415 180.687273 
L 109.882097 133.699364 
L 112.028828 136.623815 
L 112.56551 93.937462 
L 113.102193 137.984813 
L 114.175558 139.283719 
L 114.712241 99.134879 
L 115.248923 140.524145 
L 115.785606 22.432727 
L 116.322289 102.732042 
L 116.858971 142.282865 
L 117.395654 142.843531 
L 117.932337 180.687273 
L 118.469019 143.928636 
L 119.005702 180.687273 
L 120.079067 39.821146 
L 120.61575 76.515154 
L 121.152432 146.445479 
L 121.689115 180.687273 
L 122.225797 180.687273 
L 123.299163 115.867768 
L 123.835845 180.687273 
L 124.372528 54.493565 
L 124.909211 180.687273 
L 125.445893 180.687273 
L 125.982576 89.729185 
L 126.519258 180.687273 
L 127.055941 151.147821 
L 127.592624 151.526471 
L 128.129306 123.108662 
L 128.665989 123.837404 
L 129.202671 180.687273 
L 129.739354 180.687273 
L 130.276037 125.942857 
L 130.812719 153.652977 
L 131.349402 153.984716 
L 132.422767 102.515596 
L 132.95945 154.943927 
L 133.496132 180.687273 
L 134.569498 131.017722 
L 135.10618 156.144715 
L 135.642863 156.43173 
L 136.179545 108.766754 
L 136.716228 180.687273 
L 137.252911 157.263202 
L 137.789593 111.218503 
L 138.326276 134.901009 
L 138.862959 112.7838 
L 139.399641 68.78652 
L 139.936324 158.557109 
L 141.009689 115.760013 
L 141.546372 137.878175 
L 142.083054 117.175242 
L 142.619737 117.865671 
L 143.156419 159.973104 
L 143.693102 119.212981 
L 144.229785 119.870469 
L 144.766467 180.687273 
L 145.30315 121.154123 
L 145.839833 161.0518 
L 146.376515 161.257415 
L 146.913198 103.77729 
L 147.44988 161.65902 
L 147.986563 143.02309 
L 148.523246 162.048303 
L 149.596611 162.42582 
L 150.133293 180.687273 
L 150.669976 144.896617 
L 151.206659 127.538162 
L 151.743341 128.06702 
L 152.280024 145.954403 
L 152.816707 146.296638 
L 153.353389 112.580183 
L 154.963437 164.151615 
L 156.573485 116.425715 
L 157.110167 132.947924 
L 157.64685 180.687273 
L 158.720215 118.811115 
L 159.256898 150.036989 
L 159.793581 150.320759 
L 160.330263 165.643915 
L 160.866946 135.971329 
L 161.403628 165.918055 
L 161.940311 151.417391 
L 163.550359 152.20137 
L 164.087041 138.339948 
L 164.623724 166.696943 
L 165.160407 139.087774 
L 167.307137 140.52525 
L 167.84382 154.144338 
L 168.380502 154.373198 
L 168.917185 141.554916 
L 169.453868 154.822036 
L 171.063915 117.654013 
L 171.600598 155.685887 
L 172.137281 168.291183 
L 172.673963 168.394515 
L 173.210646 131.924257 
L 173.747329 156.507277 
L 174.284011 144.715847 
L 174.820694 145.010726 
L 175.357376 180.687273 
L 175.894059 145.589585 
L 176.430742 180.687273 
L 176.967424 100.11082 
L 177.504107 135.013384 
L 178.040789 124.051662 
L 178.577472 124.50295 
L 179.114155 158.391889 
L 179.650837 169.627679 
L 180.18752 136.797263 
L 180.724203 169.800861 
L 181.260885 169.8859 
L 181.797568 137.818005 
L 182.33425 159.418798 
L 183.407616 138.803552 
L 183.944298 159.905899 
L 184.480981 139.44171 
L 185.017663 160.221405 
L 186.627711 160.681194 
L 187.164394 150.903039 
L 187.701077 151.125198 
L 188.237759 92.660293 
L 188.774442 132.145649 
L 189.847807 132.858259 
L 190.921172 171.260859 
L 191.457855 161.971512 
L 191.994537 97.076992 
L 192.53122 134.572544 
L 193.067903 162.374041 
L 193.604585 144.323442 
L 194.141268 135.557039 
L 194.677951 135.87828 
L 195.214633 162.890854 
L 195.751316 171.851921 
L 196.287998 119.275253 
L 196.824681 171.975686 
L 197.361364 154.735263 
L 197.898046 129.144909 
L 198.434729 129.503173 
L 198.971411 146.800572 
L 199.508094 130.207927 
L 200.044777 122.199482 
L 200.581459 164.090885 
L 201.118142 147.721116 
L 201.654825 115.203303 
L 202.191507 172.557275 
L 202.72819 132.23703 
L 203.264872 148.604525 
L 203.801555 124.919207 
L 204.338238 117.378637 
L 204.87492 164.965627 
L 205.411603 157.261494 
L 205.948285 134.145946 
L 206.484968 157.570336 
L 207.021651 157.722331 
L 207.558333 165.477722 
L 208.095016 142.911865 
L 208.631699 128.146373 
L 209.705064 158.460773 
L 210.241746 143.88199 
L 210.778429 122.177478 
L 211.315112 137.086245 
L 211.851794 137.364906 
L 212.388477 159.1641 
L 212.925159 159.300644 
L 213.461842 166.519778 
L 213.998525 145.492002 
L 214.535207 152.708105 
L 215.07189 138.981801 
L 215.608573 173.779811 
L 216.145255 160.093962 
L 216.681938 153.400113 
L 217.755303 126.78556 
L 218.291986 153.90232 
L 218.828668 147.411388 
L 219.365351 147.615057 
L 219.902033 134.668422 
L 220.438716 148.016437 
L 220.975399 128.730973 
L 221.512081 148.410504 
L 222.048764 110.106749 
L 222.585447 142.419816 
L 223.122129 161.668088 
L 223.658812 130.272651 
L 224.195494 143.101338 
L 224.732177 162.005757 
L 225.26886 162.116261 
L 225.805542 149.918373 
L 226.342225 150.09922 
L 226.878907 156.360406 
L 227.41559 150.456603 
L 227.952273 150.632786 
L 228.488955 138.855483 
L 229.025638 115.332808 
L 229.562321 145.245469 
L 230.099003 145.449525 
L 230.635686 151.491333 
L 232.245734 151.989145 
L 232.782416 157.859031 
L 233.319099 152.313779 
L 233.855781 158.116733 
L 234.392464 158.243928 
L 234.929147 152.790607 
L 235.465829 152.946805 
L 236.002512 114.482244 
L 236.539195 153.255567 
L 237.075877 147.951955 
L 237.61256 148.133467 
L 238.149242 121.334894 
L 238.685925 159.223639 
L 239.222608 170.014407 
L 239.75929 143.536778 
L 240.295973 159.574383 
L 241.369338 149.361734 
L 241.906021 159.916813 
L 242.442703 139.371014 
L 242.979386 165.27717 
L 243.516069 160.250892 
L 244.052751 160.36052 
L 244.589434 180.687273 
L 245.126116 150.52186 
L 245.662799 150.682434 
L 246.199482 160.790112 
L 246.736164 155.9473 
L 247.272847 156.078033 
L 247.80953 136.623556 
L 248.346212 141.725362 
L 248.882895 117.705234 
L 249.95626 161.509848 
L 250.492943 147.301116 
L 251.029625 137.984817 
L 251.566308 147.645731 
L 252.10299 166.599591 
L 252.639673 124.626155 
L 253.176356 162.096086 
L 253.713038 134.447035 
L 254.249721 148.484325 
L 254.786404 157.802225 
L 255.323086 144.257142 
L 255.859769 126.318719 
L 256.396451 149.132476 
L 256.933134 131.350824 
L 257.469817 140.523845 
L 258.006499 158.486159 
L 258.543182 140.925182 
L 258.543182 140.925182 
" clip-path="url(#p7bb7d8869f)" style="fill: none; stroke: #ff0000; stroke-opacity: 0.5; stroke-linecap: square"/>
   </g>
   <g id="patch_3">
    <path d="M 33.7 188.6 
L 33.7 14.52 
" style="fill: none; stroke: #000000; stroke-width: 0.8; stroke-linejoin: miter; stroke-linecap: square"/>
   </g>
   <g id="patch_4">
    <path d="M 269.25 188.6 
L 269.25 14.52 
" style="fill: none; stroke: #000000; stroke-width: 0.8; stroke-linejoin: miter; stroke-linecap: square"/>
   </g>
   <g id="patch_5">
    <path d="M 33.7 188.6 
L 269.25 188.6 
" style="fill: none; stroke: #000000; stroke-width: 0.8; stroke-linejoin: miter; stroke-linecap: square"/>
   </g>
   <g id="patch_6">
    <path d="M 33.7 14.52 
L 269.25 14.52 
" style="fill: none; stroke: #000000; stroke-width: 0.8; stroke-linejoin: miter; stroke-linecap: square"/>
   </g>
   <g id="legend_1">
    <g id="patch_7">
     <path d="M 213.917188 66.554375 
L 262.25 66.554375 
Q 264.25 66.554375 264.25 64.554375 
L 264.25 21.52 
Q 264.25 19.52 262.25 19.52 
L 213.917188 19.52 
Q 211.917188 19.52 211.917188 21.52 
L 211.917188 64.554375 
Q 211.917188 66.554375 213.917188 66.554375 
z
" style="fill: #ffffff; opacity: 0.8; stroke: #cccccc; stroke-linejoin: miter"/>
    </g>
    <g id="line2d_17">
     <path d="M 215.917188 27.618438 
L 225.917188 27.618438 
L 235.917188 27.618438 
" style="fill: none; stroke: #000000; stroke-opacity: 0.5; stroke-width: 0.5; stroke-linecap: square"/>
    </g>
    <g id="text_16">
     <!-- all -->
     <g transform="translate(243.917188 31.118438) scale(0.1 -0.1)">
      <defs>
       <path id="DejaVuSans-61" d="M 2194 1759 
Q 1497 1759 1228 1600 
Q 959 1441 959 1056 
Q 959 750 1161 570 
Q 1363 391 1709 391 
Q 2188 391 2477 730 
Q 2766 1069 2766 1631 
L 2766 1759 
L 2194 1759 
z
M 3341 1997 
L 3341 0 
L 2766 0 
L 2766 531 
Q 2569 213 2275 61 
Q 1981 -91 1556 -91 
Q 1019 -91 701 211 
Q 384 513 384 1019 
Q 384 1609 779 1909 
Q 1175 2209 1959 2209 
L 2766 2209 
L 2766 2266 
Q 2766 2663 2505 2880 
Q 2244 3097 1772 3097 
Q 1472 3097 1187 3025 
Q 903 2953 641 2809 
L 641 3341 
Q 956 3463 1253 3523 
Q 1550 3584 1831 3584 
Q 2591 3584 2966 3190 
Q 3341 2797 3341 1997 
z
" transform="scale(0.015625)"/>
       <path id="DejaVuSans-6c" d="M 603 4863 
L 1178 4863 
L 1178 0 
L 603 0 
L 603 4863 
z
" transform="scale(0.015625)"/>
      </defs>
      <use xlink:href="#DejaVuSans-61"/>
      <use xlink:href="#DejaVuSans-6c" transform="translate(61.279297 0)"/>
      <use xlink:href="#DejaVuSans-6c" transform="translate(89.0625 0)"/>
     </g>
    </g>
    <g id="line2d_18">
     <path d="M 215.917188 42.296563 
L 225.917188 42.296563 
L 235.917188 42.296563 
" style="fill: none; stroke: #0000ff; stroke-opacity: 0.5; stroke-linecap: square"/>
    </g>
    <g id="text_17">
     <!-- 1-1 -->
     <g transform="translate(243.917188 45.796563) scale(0.1 -0.1)">
      <defs>
       <path id="DejaVuSans-2d" d="M 313 2009 
L 1997 2009 
L 1997 1497 
L 313 1497 
L 313 2009 
z
" transform="scale(0.015625)"/>
      </defs>
      <use xlink:href="#DejaVuSans-31"/>
      <use xlink:href="#DejaVuSans-2d" transform="translate(63.623047 0)"/>
      <use xlink:href="#DejaVuSans-31" transform="translate(99.707031 0)"/>
     </g>
    </g>
    <g id="line2d_19">
     <path d="M 215.917188 56.974688 
L 225.917188 56.974688 
L 235.917188 56.974688 
" style="fill: none; stroke: #ff0000; stroke-opacity: 0.5; stroke-linecap: square"/>
    </g>
    <g id="text_18">
     <!-- 2-2 -->
     <g transform="translate(243.917188 60.474688) scale(0.1 -0.1)">
      <use xlink:href="#DejaVuSans-32"/>
      <use xlink:href="#DejaVuSans-2d" transform="translate(63.623047 0)"/>
      <use xlink:href="#DejaVuSans-32" transform="translate(99.707031 0)"/>
     </g>
    </g>
   </g>
  </g>
 </g>
 <defs>
  <clipPath id="p7bb7d8869f">
   <rect x="33.7" y="14.52" width="235.55" height="174.08"/>
  </clipPath>
 </defs>
</svg>
