<?xml version="1.0" encoding="utf-8" standalone="no"?>
<!DOCTYPE svg PUBLIC "-//W3C//DTD SVG 1.1//EN"
  "http://www.w3.org/Graphics/SVG/1.1/DTD/svg11.dtd">
<svg xmlns:xlink="http://www.w3.org/1999/xlink" width="288pt" height="216pt" viewBox="0 0 288 216" xmlns="http://www.w3.org/2000/svg" version="1.1">
 <metadata>
  <rdf:RDF xmlns:dc="http://purl.org/dc/elements/1.1/" xmlns:cc="http://creativecommons.org/ns#" xmlns:rdf="http://www.w3.org/1999/02/22-rdf-syntax-ns#">
   <cc:Work>
    <dc:type rdf:resource="http://purl.org/dc/dcmitype/StillImage"/>
    <dc:date>2025-09-17T23:14:15.605491</dc:date>
    <dc:format>image/svg+xml</dc:format>
    <dc:creator>
     <cc:Agent>
      <dc:title>Matplotlib v3.10.0, https://matplotlib.org/</dc:title>
     </cc:Agent>
    </dc:creator>
   </cc:Work>
  </rdf:RDF>
 </metadata>
 <defs>
  <style type="text/css">*{stroke-linejoin: round; stroke-linecap: butt}</style>
 </defs>
 <g id="figure_1">
  <g id="patch_1">
   <path d="M 0 216 
L 288 216 
L 288 0 
L 0 0 
z
" style="fill: #ffffff"/>
  </g>
  <g id="axes_1">
   <g id="patch_2">
    <path d="M 33.7 188.6 
L 269.25 188.6 
L 269.25 14.52 
L 33.7 14.52 
z
" style="fill: #ffffff"/>
   </g>
   <g id="matplotlib.axis_1">
    <g id="xtick_1">
     <g id="line2d_1">
      <defs>
       <path id="mb1248ba27c" d="M 0 0 
L 0 3.5 
" style="stroke: #000000; stroke-width: 0.8"/>
      </defs>
      <g>
       <use xlink:href="#mb1248ba27c" x="44.138477" y="188.6" style="stroke: #000000; stroke-width: 0.8"/>
      </g>
     </g>
     <g id="text_1">
      <!-- 0 -->
      <g transform="translate(40.957227 203.198437) scale(0.1 -0.1)">
       <defs>
        <path id="DejaVuSans-30" d="M 2034 4250 
Q 1547 4250 1301 3770 
Q 1056 3291 1056 2328 
Q 1056 1369 1301 889 
Q 1547 409 2034 409 
Q 2525 409 2770 889 
Q 3016 1369 3016 2328 
Q 3016 3291 2770 3770 
Q 2525 4250 2034 4250 
z
M 2034 4750 
Q 2819 4750 3233 4129 
Q 3647 3509 3647 2328 
Q 3647 1150 3233 529 
Q 2819 -91 2034 -91 
Q 1250 -91 836 529 
Q 422 1150 422 2328 
Q 422 3509 836 4129 
Q 1250 4750 2034 4750 
z
" transform="scale(0.015625)"/>
       </defs>
       <use xlink:href="#DejaVuSans-30"/>
      </g>
     </g>
    </g>
    <g id="xtick_2">
     <g id="line2d_2">
      <g>
       <use xlink:href="#mb1248ba27c" x="87.073086" y="188.6" style="stroke: #000000; stroke-width: 0.8"/>
      </g>
     </g>
     <g id="text_2">
      <!-- 200 -->
      <g transform="translate(77.529336 203.198437) scale(0.1 -0.1)">
       <defs>
        <path id="DejaVuSans-32" d="M 1228 531 
L 3431 531 
L 3431 0 
L 469 0 
L 469 531 
Q 828 903 1448 1529 
Q 2069 2156 2228 2338 
Q 2531 2678 2651 2914 
Q 2772 3150 2772 3378 
Q 2772 3750 2511 3984 
Q 2250 4219 1831 4219 
Q 1534 4219 1204 4116 
Q 875 4013 500 3803 
L 500 4441 
Q 881 4594 1212 4672 
Q 1544 4750 1819 4750 
Q 2544 4750 2975 4387 
Q 3406 4025 3406 3419 
Q 3406 3131 3298 2873 
Q 3191 2616 2906 2266 
Q 2828 2175 2409 1742 
Q 1991 1309 1228 531 
z
" transform="scale(0.015625)"/>
       </defs>
       <use xlink:href="#DejaVuSans-32"/>
       <use xlink:href="#DejaVuSans-30" transform="translate(63.623047 0)"/>
       <use xlink:href="#DejaVuSans-30" transform="translate(127.246094 0)"/>
      </g>
     </g>
    </g>
    <g id="xtick_3">
     <g id="line2d_3">
      <g>
       <use xlink:href="#mb1248ba27c" x="130.007695" y="188.6" style="stroke: #000000; stroke-width: 0.8"/>
      </g>
     </g>
     <g id="text_3">
      <!-- 400 -->
      <g transform="translate(120.463945 203.198437) scale(0.1 -0.1)">
       <defs>
        <path id="DejaVuSans-34" d="M 2419 4116 
L 825 1625 
L 2419 1625 
L 2419 4116 
z
M 2253 4666 
L 3047 4666 
L 3047 1625 
L 3713 1625 
L 3713 1100 
L 3047 1100 
L 3047 0 
L 2419 0 
L 2419 1100 
L 313 1100 
L 313 1709 
L 2253 4666 
z
" transform="scale(0.015625)"/>
       </defs>
       <use xlink:href="#DejaVuSans-34"/>
       <use xlink:href="#DejaVuSans-30" transform="translate(63.623047 0)"/>
       <use xlink:href="#DejaVuSans-30" transform="translate(127.246094 0)"/>
      </g>
     </g>
    </g>
    <g id="xtick_4">
     <g id="line2d_4">
      <g>
       <use xlink:href="#mb1248ba27c" x="172.942305" y="188.6" style="stroke: #000000; stroke-width: 0.8"/>
      </g>
     </g>
     <g id="text_4">
      <!-- 600 -->
      <g transform="translate(163.398555 203.198437) scale(0.1 -0.1)">
       <defs>
        <path id="DejaVuSans-36" d="M 2113 2584 
Q 1688 2584 1439 2293 
Q 1191 2003 1191 1497 
Q 1191 994 1439 701 
Q 1688 409 2113 409 
Q 2538 409 2786 701 
Q 3034 994 3034 1497 
Q 3034 2003 2786 2293 
Q 2538 2584 2113 2584 
z
M 3366 4563 
L 3366 3988 
Q 3128 4100 2886 4159 
Q 2644 4219 2406 4219 
Q 1781 4219 1451 3797 
Q 1122 3375 1075 2522 
Q 1259 2794 1537 2939 
Q 1816 3084 2150 3084 
Q 2853 3084 3261 2657 
Q 3669 2231 3669 1497 
Q 3669 778 3244 343 
Q 2819 -91 2113 -91 
Q 1303 -91 875 529 
Q 447 1150 447 2328 
Q 447 3434 972 4092 
Q 1497 4750 2381 4750 
Q 2619 4750 2861 4703 
Q 3103 4656 3366 4563 
z
" transform="scale(0.015625)"/>
       </defs>
       <use xlink:href="#DejaVuSans-36"/>
       <use xlink:href="#DejaVuSans-30" transform="translate(63.623047 0)"/>
       <use xlink:href="#DejaVuSans-30" transform="translate(127.246094 0)"/>
      </g>
     </g>
    </g>
    <g id="xtick_5">
     <g id="line2d_5">
      <g>
       <use xlink:href="#mb1248ba27c" x="215.876914" y="188.6" style="stroke: #000000; stroke-width: 0.8"/>
      </g>
     </g>
     <g id="text_5">
      <!-- 800 -->
      <g transform="translate(206.333164 203.198437) scale(0.1 -0.1)">
       <defs>
        <path id="DejaVuSans-38" d="M 2034 2216 
Q 1584 2216 1326 1975 
Q 1069 1734 1069 1313 
Q 1069 891 1326 650 
Q 1584 409 2034 409 
Q 2484 409 2743 651 
Q 3003 894 3003 1313 
Q 3003 1734 2745 1975 
Q 2488 2216 2034 2216 
z
M 1403 2484 
Q 997 2584 770 2862 
Q 544 3141 544 3541 
Q 544 4100 942 4425 
Q 1341 4750 2034 4750 
Q 2731 4750 3128 4425 
Q 3525 4100 3525 3541 
Q 3525 3141 3298 2862 
Q 3072 2584 2669 2484 
Q 3125 2378 3379 2068 
Q 3634 1759 3634 1313 
Q 3634 634 3220 271 
Q 2806 -91 2034 -91 
Q 1263 -91 848 271 
Q 434 634 434 1313 
Q 434 1759 690 2068 
Q 947 2378 1403 2484 
z
M 1172 3481 
Q 1172 3119 1398 2916 
Q 1625 2713 2034 2713 
Q 2441 2713 2670 2916 
Q 2900 3119 2900 3481 
Q 2900 3844 2670 4047 
Q 2441 4250 2034 4250 
Q 1625 4250 1398 4047 
Q 1172 3844 1172 3481 
z
" transform="scale(0.015625)"/>
       </defs>
       <use xlink:href="#DejaVuSans-38"/>
       <use xlink:href="#DejaVuSans-30" transform="translate(63.623047 0)"/>
       <use xlink:href="#DejaVuSans-30" transform="translate(127.246094 0)"/>
      </g>
     </g>
    </g>
    <g id="xtick_6">
     <g id="line2d_6">
      <g>
       <use xlink:href="#mb1248ba27c" x="258.811523" y="188.6" style="stroke: #000000; stroke-width: 0.8"/>
      </g>
     </g>
     <g id="text_6">
      <!-- 1000 -->
      <g transform="translate(246.086523 203.198437) scale(0.1 -0.1)">
       <defs>
        <path id="DejaVuSans-31" d="M 794 531 
L 1825 531 
L 1825 4091 
L 703 3866 
L 703 4441 
L 1819 4666 
L 2450 4666 
L 2450 531 
L 3481 531 
L 3481 0 
L 794 0 
L 794 531 
z
" transform="scale(0.015625)"/>
       </defs>
       <use xlink:href="#DejaVuSans-31"/>
       <use xlink:href="#DejaVuSans-30" transform="translate(63.623047 0)"/>
       <use xlink:href="#DejaVuSans-30" transform="translate(127.246094 0)"/>
       <use xlink:href="#DejaVuSans-30" transform="translate(190.869141 0)"/>
      </g>
     </g>
    </g>
    <g id="text_7">
     <!-- q (nm) -->
     <g transform="translate(134.771094 216.876563) scale(0.1 -0.1)">
      <defs>
       <path id="DejaVuSans-71" d="M 947 1747 
Q 947 1113 1208 752 
Q 1469 391 1925 391 
Q 2381 391 2643 752 
Q 2906 1113 2906 1747 
Q 2906 2381 2643 2742 
Q 2381 3103 1925 3103 
Q 1469 3103 1208 2742 
Q 947 2381 947 1747 
z
M 2906 525 
Q 2725 213 2448 61 
Q 2172 -91 1784 -91 
Q 1150 -91 751 415 
Q 353 922 353 1747 
Q 353 2572 751 3078 
Q 1150 3584 1784 3584 
Q 2172 3584 2448 3432 
Q 2725 3281 2906 2969 
L 2906 3500 
L 3481 3500 
L 3481 -1331 
L 2906 -1331 
L 2906 525 
z
" transform="scale(0.015625)"/>
       <path id="DejaVuSans-20" transform="scale(0.015625)"/>
       <path id="DejaVuSans-28" d="M 1984 4856 
Q 1566 4138 1362 3434 
Q 1159 2731 1159 2009 
Q 1159 1288 1364 580 
Q 1569 -128 1984 -844 
L 1484 -844 
Q 1016 -109 783 600 
Q 550 1309 550 2009 
Q 550 2706 781 3412 
Q 1013 4119 1484 4856 
L 1984 4856 
z
" transform="scale(0.015625)"/>
       <path id="DejaVuSans-6e" d="M 3513 2113 
L 3513 0 
L 2938 0 
L 2938 2094 
Q 2938 2591 2744 2837 
Q 2550 3084 2163 3084 
Q 1697 3084 1428 2787 
Q 1159 2491 1159 1978 
L 1159 0 
L 581 0 
L 581 3500 
L 1159 3500 
L 1159 2956 
Q 1366 3272 1645 3428 
Q 1925 3584 2291 3584 
Q 2894 3584 3203 3211 
Q 3513 2838 3513 2113 
z
" transform="scale(0.015625)"/>
       <path id="DejaVuSans-6d" d="M 3328 2828 
Q 3544 3216 3844 3400 
Q 4144 3584 4550 3584 
Q 5097 3584 5394 3201 
Q 5691 2819 5691 2113 
L 5691 0 
L 5113 0 
L 5113 2094 
Q 5113 2597 4934 2840 
Q 4756 3084 4391 3084 
Q 3944 3084 3684 2787 
Q 3425 2491 3425 1978 
L 3425 0 
L 2847 0 
L 2847 2094 
Q 2847 2600 2669 2842 
Q 2491 3084 2119 3084 
Q 1678 3084 1418 2786 
Q 1159 2488 1159 1978 
L 1159 0 
L 581 0 
L 581 3500 
L 1159 3500 
L 1159 2956 
Q 1356 3278 1631 3431 
Q 1906 3584 2284 3584 
Q 2666 3584 2933 3390 
Q 3200 3197 3328 2828 
z
" transform="scale(0.015625)"/>
       <path id="DejaVuSans-29" d="M 513 4856 
L 1013 4856 
Q 1481 4119 1714 3412 
Q 1947 2706 1947 2009 
Q 1947 1309 1714 600 
Q 1481 -109 1013 -844 
L 513 -844 
Q 928 -128 1133 580 
Q 1338 1288 1338 2009 
Q 1338 2731 1133 3434 
Q 928 4138 513 4856 
z
" transform="scale(0.015625)"/>
      </defs>
      <use xlink:href="#DejaVuSans-71"/>
      <use xlink:href="#DejaVuSans-20" transform="translate(63.476562 0)"/>
      <use xlink:href="#DejaVuSans-28" transform="translate(95.263672 0)"/>
      <use xlink:href="#DejaVuSans-6e" transform="translate(134.277344 0)"/>
      <use xlink:href="#DejaVuSans-6d" transform="translate(197.65625 0)"/>
      <use xlink:href="#DejaVuSans-29" transform="translate(295.068359 0)"/>
     </g>
    </g>
   </g>
   <g id="matplotlib.axis_2">
    <g id="ytick_1">
     <g id="line2d_7">
      <defs>
       <path id="mc0ee4cf8a5" d="M 0 0 
L -3.5 0 
" style="stroke: #000000; stroke-width: 0.8"/>
      </defs>
      <g>
       <use xlink:href="#mc0ee4cf8a5" x="33.7" y="180.687273" style="stroke: #000000; stroke-width: 0.8"/>
      </g>
     </g>
     <g id="text_8">
      <!-- 0 -->
      <g transform="translate(20.3375 184.486491) scale(0.1 -0.1)">
       <use xlink:href="#DejaVuSans-30"/>
      </g>
     </g>
    </g>
    <g id="ytick_2">
     <g id="line2d_8">
      <g>
       <use xlink:href="#mc0ee4cf8a5" x="33.7" y="145.504854" style="stroke: #000000; stroke-width: 0.8"/>
      </g>
     </g>
     <g id="text_9">
      <!-- 20000 -->
      <g transform="translate(-5.1125 149.304073) scale(0.1 -0.1)">
       <use xlink:href="#DejaVuSans-32"/>
       <use xlink:href="#DejaVuSans-30" transform="translate(63.623047 0)"/>
       <use xlink:href="#DejaVuSans-30" transform="translate(127.246094 0)"/>
       <use xlink:href="#DejaVuSans-30" transform="translate(190.869141 0)"/>
       <use xlink:href="#DejaVuSans-30" transform="translate(254.492188 0)"/>
      </g>
     </g>
    </g>
    <g id="ytick_3">
     <g id="line2d_9">
      <g>
       <use xlink:href="#mc0ee4cf8a5" x="33.7" y="110.322436" style="stroke: #000000; stroke-width: 0.8"/>
      </g>
     </g>
     <g id="text_10">
      <!-- 40000 -->
      <g transform="translate(-5.1125 114.121654) scale(0.1 -0.1)">
       <use xlink:href="#DejaVuSans-34"/>
       <use xlink:href="#DejaVuSans-30" transform="translate(63.623047 0)"/>
       <use xlink:href="#DejaVuSans-30" transform="translate(127.246094 0)"/>
       <use xlink:href="#DejaVuSans-30" transform="translate(190.869141 0)"/>
       <use xlink:href="#DejaVuSans-30" transform="translate(254.492188 0)"/>
      </g>
     </g>
    </g>
    <g id="ytick_4">
     <g id="line2d_10">
      <g>
       <use xlink:href="#mc0ee4cf8a5" x="33.7" y="75.140017" style="stroke: #000000; stroke-width: 0.8"/>
      </g>
     </g>
     <g id="text_11">
      <!-- 60000 -->
      <g transform="translate(-5.1125 78.939236) scale(0.1 -0.1)">
       <use xlink:href="#DejaVuSans-36"/>
       <use xlink:href="#DejaVuSans-30" transform="translate(63.623047 0)"/>
       <use xlink:href="#DejaVuSans-30" transform="translate(127.246094 0)"/>
       <use xlink:href="#DejaVuSans-30" transform="translate(190.869141 0)"/>
       <use xlink:href="#DejaVuSans-30" transform="translate(254.492188 0)"/>
      </g>
     </g>
    </g>
    <g id="ytick_5">
     <g id="line2d_11">
      <g>
       <use xlink:href="#mc0ee4cf8a5" x="33.7" y="39.957598" style="stroke: #000000; stroke-width: 0.8"/>
      </g>
     </g>
     <g id="text_12">
      <!-- 80000 -->
      <g transform="translate(-5.1125 43.756817) scale(0.1 -0.1)">
       <use xlink:href="#DejaVuSans-38"/>
       <use xlink:href="#DejaVuSans-30" transform="translate(63.623047 0)"/>
       <use xlink:href="#DejaVuSans-30" transform="translate(127.246094 0)"/>
       <use xlink:href="#DejaVuSans-30" transform="translate(190.869141 0)"/>
       <use xlink:href="#DejaVuSans-30" transform="translate(254.492188 0)"/>
      </g>
     </g>
    </g>
    <g id="text_13">
     <!-- rdf -->
     <g transform="translate(-11.192187 108.462344) rotate(-90) scale(0.1 -0.1)">
      <defs>
       <path id="DejaVuSans-72" d="M 2631 2963 
Q 2534 3019 2420 3045 
Q 2306 3072 2169 3072 
Q 1681 3072 1420 2755 
Q 1159 2438 1159 1844 
L 1159 0 
L 581 0 
L 581 3500 
L 1159 3500 
L 1159 2956 
Q 1341 3275 1631 3429 
Q 1922 3584 2338 3584 
Q 2397 3584 2469 3576 
Q 2541 3569 2628 3553 
L 2631 2963 
z
" transform="scale(0.015625)"/>
       <path id="DejaVuSans-64" d="M 2906 2969 
L 2906 4863 
L 3481 4863 
L 3481 0 
L 2906 0 
L 2906 525 
Q 2725 213 2448 61 
Q 2172 -91 1784 -91 
Q 1150 -91 751 415 
Q 353 922 353 1747 
Q 353 2572 751 3078 
Q 1150 3584 1784 3584 
Q 2172 3584 2448 3432 
Q 2725 3281 2906 2969 
z
M 947 1747 
Q 947 1113 1208 752 
Q 1469 391 1925 391 
Q 2381 391 2643 752 
Q 2906 1113 2906 1747 
Q 2906 2381 2643 2742 
Q 2381 3103 1925 3103 
Q 1469 3103 1208 2742 
Q 947 2381 947 1747 
z
" transform="scale(0.015625)"/>
       <path id="DejaVuSans-66" d="M 2375 4863 
L 2375 4384 
L 1825 4384 
Q 1516 4384 1395 4259 
Q 1275 4134 1275 3809 
L 1275 3500 
L 2222 3500 
L 2222 3053 
L 1275 3053 
L 1275 0 
L 697 0 
L 697 3053 
L 147 3053 
L 147 3500 
L 697 3500 
L 697 3744 
Q 697 4328 969 4595 
Q 1241 4863 1831 4863 
L 2375 4863 
z
" transform="scale(0.015625)"/>
      </defs>
      <use xlink:href="#DejaVuSans-72"/>
      <use xlink:href="#DejaVuSans-64" transform="translate(39.363281 0)"/>
      <use xlink:href="#DejaVuSans-66" transform="translate(102.839844 0)"/>
     </g>
    </g>
   </g>
   <g id="line2d_12">
    <path d="M 44.406818 180.687273 
L 91.634888 180.687273 
L 92.171571 180.475926 
L 92.708254 180.687273 
L 93.781619 180.588343 
L 94.318301 180.590448 
L 94.854984 180.402912 
L 95.391667 156.648925 
L 95.928349 22.432727 
L 96.465032 165.549841 
L 97.001715 177.982683 
L 97.538397 179.148272 
L 98.07508 177.586414 
L 98.611762 176.743413 
L 99.148445 174.483506 
L 99.685128 174.207702 
L 100.22181 174.486154 
L 100.758493 175.819983 
L 101.295175 177.851338 
L 101.831858 178.929323 
L 102.368541 179.105383 
L 102.905223 180.051902 
L 103.441906 180.548623 
L 103.978589 180.414925 
L 104.515271 180.152218 
L 105.051954 180.490147 
L 105.588636 180.364445 
L 106.125319 179.989294 
L 106.662002 179.938857 
L 107.735367 178.577453 
L 108.272049 177.545651 
L 108.808732 176.898027 
L 109.345415 177.18951 
L 109.882097 178.318137 
L 110.955463 180.086559 
L 111.492145 179.558659 
L 112.028828 178.677177 
L 113.638876 171.753237 
L 114.175558 172.635208 
L 114.712241 172.806166 
L 115.248923 174.660398 
L 115.785606 175.605274 
L 116.322289 176.288842 
L 116.858971 174.463274 
L 117.395654 173.145789 
L 117.932337 172.538716 
L 119.005702 175.424064 
L 119.542384 178.157314 
L 120.079067 179.545801 
L 121.152432 180.48174 
L 122.225797 180.407384 
L 122.76248 180.529512 
L 123.835845 180.456963 
L 124.372528 180.460033 
L 125.982576 179.740931 
L 127.055941 177.389354 
L 127.592624 175.92633 
L 128.129306 176.228909 
L 128.665989 174.545036 
L 129.202671 175.262492 
L 129.739354 174.864484 
L 130.276037 175.889748 
L 131.349402 178.571586 
L 131.886085 179.673995 
L 132.422767 180.280618 
L 132.95945 180.470942 
L 133.496132 180.381931 
L 134.569498 179.941932 
L 135.10618 180.274793 
L 135.642863 179.72637 
L 136.179545 178.010761 
L 136.716228 175.339236 
L 137.252911 173.769727 
L 137.789593 174.015607 
L 138.326276 174.421211 
L 138.862959 173.894214 
L 139.399641 170.639051 
L 139.936324 169.024447 
L 140.473006 172.832075 
L 141.009689 175.179243 
L 141.546372 178.503137 
L 142.083054 178.781151 
L 142.619737 179.329784 
L 143.156419 178.026511 
L 143.693102 178.005923 
L 144.229785 176.331051 
L 144.766467 176.305155 
L 145.30315 176.994744 
L 145.839833 174.039976 
L 146.376515 165.432633 
L 146.913198 168.176716 
L 147.44988 175.82171 
L 147.986563 176.753562 
L 148.523246 174.869592 
L 149.059928 173.48938 
L 149.596611 173.606309 
L 150.669976 177.572243 
L 151.206659 178.539191 
L 151.743341 179.023809 
L 152.280024 178.810949 
L 153.353389 177.171544 
L 153.890072 177.408257 
L 154.426754 178.462353 
L 155.50012 179.42905 
L 156.036802 179.090597 
L 156.573485 179.221524 
L 157.110167 177.955492 
L 157.64685 177.867712 
L 158.183533 177.894202 
L 158.720215 178.403131 
L 159.256898 179.473037 
L 159.793581 179.939958 
L 160.866946 180.544125 
L 161.403628 180.439051 
L 161.940311 180.546721 
L 163.013676 180.083413 
L 163.550359 179.661371 
L 164.087041 178.721572 
L 164.623724 177.227482 
L 165.697089 175.077332 
L 166.233772 175.20831 
L 166.770455 176.326196 
L 167.307137 176.781965 
L 167.84382 177.43712 
L 168.917185 178.072188 
L 169.99055 177.085249 
L 170.527233 176.093179 
L 171.600598 174.774585 
L 172.137281 174.481792 
L 172.673963 173.648089 
L 173.210646 173.413804 
L 174.284011 175.116672 
L 174.820694 177.446549 
L 175.357376 178.011075 
L 175.894059 178.15923 
L 176.430742 177.315985 
L 176.967424 177.536627 
L 177.504107 177.370025 
L 178.040789 177.872492 
L 178.577472 177.813984 
L 179.114155 177.408543 
L 180.18752 177.657653 
L 181.260885 179.35169 
L 181.797568 179.992513 
L 182.33425 180.342586 
L 183.407616 180.360449 
L 183.944298 180.225742 
L 184.480981 180.216886 
L 185.554346 178.882952 
L 186.091029 177.178444 
L 186.627711 176.62842 
L 187.164394 176.992553 
L 188.237759 178.879064 
L 188.774442 178.286417 
L 189.847807 174.600993 
L 190.38449 173.904623 
L 190.921172 175.25549 
L 191.994537 176.750444 
L 192.53122 176.867449 
L 193.067903 177.169728 
L 193.604585 177.107643 
L 194.141268 178.260103 
L 194.677951 178.869094 
L 195.214633 178.95677 
L 196.287998 176.537673 
L 196.824681 177.361604 
L 197.361364 177.862567 
L 197.898046 177.541933 
L 198.434729 176.437296 
L 198.971411 176.517545 
L 199.508094 176.88971 
L 200.044777 177.50761 
L 200.581459 178.665026 
L 201.118142 179.430761 
L 201.654825 179.675141 
L 202.191507 179.545365 
L 202.72819 178.932674 
L 203.801555 178.057157 
L 204.338238 178.378752 
L 204.87492 178.214843 
L 205.411603 178.48437 
L 205.948285 178.033358 
L 206.484968 177.921383 
L 207.558333 176.898582 
L 208.631699 176.704584 
L 209.168381 176.891579 
L 209.705064 176.818317 
L 210.241746 176.595837 
L 210.778429 176.622145 
L 212.388477 177.870918 
L 213.461842 176.928553 
L 213.998525 176.783263 
L 215.07189 177.616524 
L 216.681938 178.910169 
L 217.21862 179.018834 
L 217.755303 178.972514 
L 218.291986 178.701715 
L 218.828668 178.05876 
L 219.902033 177.427837 
L 220.438716 178.028112 
L 221.512081 177.928445 
L 222.048764 178.191576 
L 222.585447 178.926267 
L 223.122129 178.822648 
L 223.658812 178.569013 
L 225.26886 176.481117 
L 225.805542 177.111731 
L 226.342225 178.484054 
L 226.878907 179.475311 
L 227.41559 180.03403 
L 228.488955 179.833564 
L 229.562321 179.41795 
L 230.099003 179.538063 
L 230.635686 179.299328 
L 231.172368 178.819418 
L 231.709051 178.816218 
L 232.245734 178.944027 
L 232.782416 178.789489 
L 233.319099 179.270302 
L 234.392464 178.949464 
L 235.465829 179.401821 
L 236.002512 179.859379 
L 236.539195 179.857407 
L 237.075877 179.645874 
L 237.61256 178.843992 
L 238.149242 177.688241 
L 239.75929 175.577571 
L 240.295973 175.301337 
L 240.832656 175.475656 
L 241.369338 175.986565 
L 241.906021 176.660351 
L 242.442703 178.01511 
L 242.979386 178.491998 
L 243.516069 178.227795 
L 244.052751 178.3996 
L 244.589434 177.896072 
L 245.662799 177.463466 
L 246.736164 178.934983 
L 247.272847 179.221946 
L 248.346212 179.044373 
L 248.882895 178.535335 
L 249.419577 178.558151 
L 249.95626 178.137575 
L 251.029625 178.010184 
L 252.10299 178.550728 
L 252.639673 178.533666 
L 254.249721 176.705399 
L 254.786404 176.813577 
L 255.323086 176.669247 
L 255.859769 177.113833 
L 256.396451 177.321286 
L 256.933134 177.763594 
L 257.469817 177.874711 
L 258.543182 177.812652 
L 258.543182 177.812652 
" clip-path="url(#p119864268d)" style="fill: none; stroke: #000000; stroke-opacity: 0.5; stroke-width: 0.5; stroke-linecap: square"/>
   </g>
   <g id="line2d_13">
    <path d="M 44.406818 180.687273 
L 91.634888 180.687273 
L 92.171571 180.040023 
L 92.708254 180.687273 
L 93.244936 180.377641 
L 94.318301 180.390745 
L 94.854984 179.816418 
L 95.928349 180.408896 
L 96.465032 179.323791 
L 97.001715 175.610713 
L 97.538397 176.759614 
L 98.07508 171.190892 
L 98.611762 168.609201 
L 99.148445 161.688234 
L 99.685128 160.843585 
L 100.22181 161.696344 
L 100.758493 165.781195 
L 101.295175 172.00222 
L 101.831858 175.303551 
L 102.368541 175.842736 
L 102.905223 178.74145 
L 103.441906 180.262658 
L 103.978589 179.853209 
L 104.515271 179.048668 
L 105.051954 180.083576 
L 105.588636 179.698611 
L 106.125319 178.549713 
L 106.662002 178.39525 
L 107.735367 174.410558 
L 108.272049 171.247588 
L 108.808732 169.43977 
L 109.345415 170.326582 
L 109.882097 173.777291 
L 110.41878 176.268226 
L 110.955463 179.683808 
L 111.492145 180.028914 
L 112.028828 179.715285 
L 112.56551 180.208873 
L 113.102193 180.373284 
L 113.638876 180.223536 
L 114.175558 179.621741 
L 114.712241 178.738412 
L 115.248923 177.438787 
L 115.785606 175.160004 
L 116.322289 171.229476 
L 116.858971 163.885357 
L 117.395654 158.565396 
L 117.932337 156.417891 
L 119.005702 165.501172 
L 119.542384 173.070594 
L 120.079067 177.450462 
L 120.61575 179.538316 
L 121.152432 180.309606 
L 121.689115 180.314816 
L 122.76248 180.566487 
L 123.299163 180.329813 
L 124.372528 180.687273 
L 124.909211 180.458372 
L 125.445893 180.574328 
L 125.982576 180.464336 
L 127.055941 180.687273 
L 127.592624 180.365646 
L 128.129306 180.687273 
L 129.739354 180.483475 
L 130.276037 180.687273 
L 132.422767 180.591474 
L 132.95945 180.403339 
L 133.496132 180.593762 
L 134.032815 179.948093 
L 134.569498 179.77423 
L 135.10618 179.875203 
L 135.642863 178.457905 
L 136.179545 173.019282 
L 136.716228 165.354337 
L 137.252911 160.191227 
L 137.789593 162.46876 
L 138.326276 167.13657 
L 138.862959 169.45325 
L 139.399641 161.104656 
L 139.936324 157.9876 
L 140.473006 167.733748 
L 141.546372 179.192103 
L 142.619737 180.456311 
L 143.156419 179.925723 
L 144.229785 180.463682 
L 144.766467 180.392322 
L 145.30315 180.176572 
L 145.839833 179.748813 
L 146.376515 170.686618 
L 146.913198 164.994256 
L 147.44988 176.21004 
L 147.986563 180.133388 
L 148.523246 180.618747 
L 149.059928 180.55162 
L 149.596611 180.687273 
L 150.133293 180.554354 
L 151.206659 180.622139 
L 151.743341 180.558302 
L 153.353389 180.687273 
L 153.890072 180.687273 
L 154.426754 180.564501 
L 154.963437 180.62648 
L 155.50012 180.566857 
L 156.036802 180.627641 
L 156.573485 180.510081 
L 157.110167 180.687273 
L 157.64685 180.687273 
L 158.183533 180.572457 
L 158.720215 180.630401 
L 159.256898 180.574588 
L 159.793581 180.687273 
L 161.403628 180.524377 
L 161.940311 180.633468 
L 163.013676 180.52876 
L 163.550359 180.634909 
L 164.087041 180.479688 
L 164.623724 180.584403 
L 165.160407 180.126496 
L 165.697089 179.424005 
L 166.233772 178.383246 
L 167.307137 174.731879 
L 167.84382 173.222078 
L 168.380502 173.334816 
L 168.917185 174.836606 
L 169.453868 175.029257 
L 169.99055 174.84168 
L 173.210646 164.507645 
L 174.284011 169.975202 
L 174.820694 175.353283 
L 175.894059 179.052823 
L 176.430742 178.639424 
L 176.967424 178.528976 
L 177.504107 177.49682 
L 178.040789 176.980975 
L 178.577472 177.836747 
L 179.114155 178.064288 
L 179.650837 178.979543 
L 180.724203 180.327061 
L 181.797568 180.332656 
L 182.33425 180.452694 
L 182.870933 180.260533 
L 183.407616 180.302312 
L 183.944298 180.114257 
L 184.480981 179.777445 
L 185.017663 178.467631 
L 185.554346 177.700389 
L 186.091029 175.833141 
L 186.627711 175.134119 
L 187.164394 176.343742 
L 187.701077 176.774648 
L 188.237759 178.925296 
L 188.774442 179.081117 
L 189.311124 179.80155 
L 189.847807 180.194916 
L 190.38449 180.338166 
L 190.921172 179.890187 
L 191.457855 179.62075 
L 192.53122 176.821777 
L 193.604585 175.540191 
L 194.141268 176.804749 
L 195.214633 178.69172 
L 195.751316 178.316022 
L 196.287998 177.526362 
L 196.824681 177.068124 
L 197.361364 174.867157 
L 197.898046 174.655053 
L 198.434729 173.850186 
L 198.971411 175.049876 
L 199.508094 175.862045 
L 200.044777 176.939634 
L 200.581459 178.338154 
L 201.118142 179.051086 
L 201.654825 178.851556 
L 202.191507 178.146651 
L 202.72819 176.204441 
L 203.801555 174.917157 
L 205.411603 177.931301 
L 206.484968 176.9761 
L 207.021651 177.253791 
L 207.558333 176.968764 
L 208.095016 178.354088 
L 208.631699 179.003978 
L 209.168381 178.932659 
L 210.241746 177.926879 
L 210.778429 176.788415 
L 212.388477 179.711345 
L 213.461842 180.348712 
L 214.535207 180.50726 
L 216.145255 180.434904 
L 216.681938 180.561872 
L 217.755303 180.266166 
L 218.291986 179.825625 
L 218.828668 179.194753 
L 219.365351 178.30413 
L 219.902033 176.57845 
L 220.438716 176.819625 
L 220.975399 176.007389 
L 221.512081 176.391618 
L 222.048764 176.960096 
L 222.585447 178.576937 
L 223.122129 179.032418 
L 223.658812 179.181323 
L 225.26886 176.249351 
L 225.805542 176.139814 
L 226.878907 178.965612 
L 227.41559 180.042649 
L 228.488955 180.203923 
L 229.025638 180.184882 
L 230.099003 179.262218 
L 231.172368 176.290322 
L 231.709051 175.848518 
L 232.245734 176.298151 
L 232.782416 177.498036 
L 233.319099 179.247736 
L 233.855781 179.691514 
L 234.392464 180.315968 
L 236.002512 180.180188 
L 236.539195 179.577903 
L 237.075877 179.243069 
L 237.61256 177.595461 
L 238.149242 176.382642 
L 238.685925 176.307748 
L 239.222608 177.057717 
L 239.75929 176.823937 
L 240.295973 175.758349 
L 241.369338 174.199513 
L 241.906021 175.380119 
L 242.442703 177.554379 
L 242.979386 178.062269 
L 243.516069 177.663142 
L 244.589434 177.3238 
L 245.662799 177.120524 
L 246.199482 178.474447 
L 246.736164 179.304746 
L 247.272847 179.782522 
L 247.80953 180.093277 
L 248.346212 179.971062 
L 248.882895 179.387022 
L 249.95626 177.32065 
L 250.492943 176.969909 
L 251.566308 178.014797 
L 252.10299 179.254336 
L 252.639673 179.656738 
L 253.176356 179.781637 
L 253.713038 179.208266 
L 254.249721 178.454717 
L 254.786404 178.196843 
L 255.323086 177.020824 
L 255.859769 177.272584 
L 256.396451 176.958374 
L 256.933134 177.290448 
L 257.469817 176.979378 
L 258.543182 175.018581 
L 258.543182 175.018581 
" clip-path="url(#p119864268d)" style="fill: none; stroke: #0000ff; stroke-opacity: 0.5; stroke-linecap: square"/>
   </g>
   <g id="line2d_14">
    <path d="M 44.406818 180.687273 
L 107.198684 180.687273 
L 107.735367 180.359079 
L 108.272049 180.364548 
L 108.808732 180.052493 
L 110.41878 180.082959 
L 110.955463 179.200658 
L 111.492145 175.713011 
L 112.028828 171.471395 
L 113.638876 132.870827 
L 114.175558 139.013141 
L 114.712241 141.243669 
L 115.248923 153.649374 
L 116.322289 173.554121 
L 116.858971 176.671129 
L 117.395654 178.955861 
L 117.932337 179.712232 
L 118.469019 179.726263 
L 119.005702 179.029531 
L 119.542384 180.453811 
L 120.079067 180.226926 
L 120.61575 179.325547 
L 121.152432 180.239668 
L 122.225797 179.816507 
L 122.76248 180.257813 
L 123.299163 180.263616 
L 124.372528 179.862478 
L 124.909211 178.856064 
L 125.445893 178.679373 
L 125.982576 176.525795 
L 127.592624 160.674975 
L 128.129306 167.139377 
L 128.665989 168.425548 
L 129.202671 174.450085 
L 129.739354 178.694585 
L 130.276037 179.97166 
L 130.812719 180.687273 
L 131.349402 180.512746 
L 131.886085 180.514875 
L 132.422767 180.687273 
L 132.95945 180.687273 
L 133.496132 180.521031 
L 134.032815 180.687273 
L 134.569498 180.524954 
L 135.10618 180.526864 
L 135.642863 180.687273 
L 136.179545 180.687273 
L 136.716228 180.532395 
L 138.326276 180.537645 
L 138.862959 180.687273 
L 141.009689 180.687273 
L 141.546372 180.547374 
L 142.083054 180.687273 
L 142.619737 180.687273 
L 143.156419 180.4165 
L 143.693102 180.28548 
L 144.229785 180.554774 
L 144.766467 180.162917 
L 145.30315 178.741747 
L 145.839833 160.92348 
L 146.376515 126.461511 
L 147.44988 175.712571 
L 147.986563 179.456418 
L 148.523246 180.56545 
L 149.059928 180.687273 
L 152.816707 180.687273 
L 153.353389 180.575987 
L 154.426754 180.687273 
L 156.036802 180.687273 
L 156.573485 180.477268 
L 158.183533 180.687273 
L 163.013676 180.593339 
L 164.087041 180.318233 
L 164.623724 180.595833 
L 165.160407 180.415381 
L 165.697089 180.687273 
L 166.233772 180.420139 
L 166.770455 180.422474 
L 167.307137 180.162279 
L 167.84382 180.080082 
L 168.380502 179.053394 
L 168.917185 177.703327 
L 169.453868 174.263232 
L 170.527233 169.635333 
L 171.063915 169.646163 
L 171.600598 168.349999 
L 172.137281 169.749555 
L 172.673963 168.073147 
L 173.210646 170.090091 
L 173.747329 169.782579 
L 174.284011 170.734403 
L 174.820694 174.78005 
L 175.894059 179.081498 
L 176.430742 179.246194 
L 176.967424 178.580701 
L 177.504107 177.254271 
L 178.040789 177.57787 
L 178.577472 174.444576 
L 179.114155 175.514166 
L 179.650837 177.579024 
L 180.724203 178.908449 
L 181.260885 179.628316 
L 181.797568 180.126891 
L 182.870933 180.4114 
L 183.407616 180.345086 
L 183.944298 180.076056 
L 184.480981 180.282905 
L 185.017663 180.085336 
L 186.091029 180.226151 
L 186.627711 180.164238 
L 187.701077 180.365246 
L 188.237759 179.856227 
L 188.774442 178.847134 
L 189.311124 176.719236 
L 189.847807 173.059646 
L 190.38449 168.460771 
L 191.457855 161.849202 
L 191.994537 165.203901 
L 193.067903 170.39357 
L 193.604585 171.239817 
L 194.141268 174.905889 
L 194.677951 177.172845 
L 195.214633 177.837522 
L 195.751316 179.359084 
L 196.287998 179.76982 
L 196.824681 180.516457 
L 197.898046 180.57498 
L 198.434729 180.464249 
L 198.971411 180.631902 
L 199.508094 180.302354 
L 200.044777 180.578052 
L 205.411603 180.5852 
L 206.484968 180.385091 
L 207.021651 179.786688 
L 207.558333 177.854124 
L 208.095016 177.329462 
L 208.631699 174.309765 
L 209.705064 175.505936 
L 210.241746 176.261021 
L 210.778429 178.822992 
L 211.315112 179.642369 
L 211.851794 180.215352 
L 212.388477 180.359033 
L 213.461842 179.344603 
L 215.07189 174.962997 
L 215.608573 176.082302 
L 216.145255 176.380179 
L 216.681938 178.012064 
L 217.21862 179.180704 
L 218.291986 180.337143 
L 218.828668 180.556779 
L 219.902033 180.429464 
L 220.438716 180.559152 
L 220.975399 180.559929 
L 221.512081 180.434122 
L 222.048764 180.435649 
L 222.585447 180.228731 
L 223.122129 179.485626 
L 223.658812 178.092405 
L 225.26886 169.277642 
L 225.805542 171.637605 
L 226.342225 175.369355 
L 226.878907 178.103539 
L 227.41559 179.778378 
L 228.488955 180.374804 
L 229.025638 180.570776 
L 229.562321 180.41702 
L 230.099003 180.610502 
L 231.172368 180.459599 
L 231.709051 180.649544 
L 232.782416 180.57537 
L 233.319099 180.501825 
L 234.392464 180.540584 
L 234.929147 180.432009 
L 235.465829 180.505963 
L 236.002512 180.362739 
L 236.539195 180.400405 
L 237.075877 180.152382 
L 237.61256 179.76527 
L 238.149242 178.324465 
L 238.685925 176.513792 
L 239.75929 168.026284 
L 240.295973 168.681915 
L 240.832656 171.903917 
L 241.369338 176.114704 
L 242.442703 179.40458 
L 242.979386 179.579358 
L 243.516069 179.284777 
L 244.052751 178.760883 
L 244.589434 176.128312 
L 245.126116 174.148153 
L 245.662799 174.803976 
L 246.736164 178.811564 
L 247.272847 179.690036 
L 248.346212 180.305294 
L 249.95626 180.467923 
L 250.492943 180.313198 
L 251.566308 179.021314 
L 252.10299 177.433911 
L 252.639673 175.282692 
L 253.176356 172.606797 
L 253.713038 171.409012 
L 254.249721 169.020856 
L 254.786404 170.964877 
L 255.323086 172.175011 
L 256.933134 178.517995 
L 257.469817 179.403911 
L 258.006499 179.845663 
L 258.543182 180.456266 
L 258.543182 180.456266 
" clip-path="url(#p119864268d)" style="fill: none; stroke: #ff0000; stroke-opacity: 0.5; stroke-linecap: square"/>
   </g>
   <g id="patch_3">
    <path d="M 33.7 188.6 
L 33.7 14.52 
" style="fill: none; stroke: #000000; stroke-width: 0.8; stroke-linejoin: miter; stroke-linecap: square"/>
   </g>
   <g id="patch_4">
    <path d="M 269.25 188.6 
L 269.25 14.52 
" style="fill: none; stroke: #000000; stroke-width: 0.8; stroke-linejoin: miter; stroke-linecap: square"/>
   </g>
   <g id="patch_5">
    <path d="M 33.7 188.6 
L 269.25 188.6 
" style="fill: none; stroke: #000000; stroke-width: 0.8; stroke-linejoin: miter; stroke-linecap: square"/>
   </g>
   <g id="patch_6">
    <path d="M 33.7 14.52 
L 269.25 14.52 
" style="fill: none; stroke: #000000; stroke-width: 0.8; stroke-linejoin: miter; stroke-linecap: square"/>
   </g>
   <g id="legend_1">
    <g id="patch_7">
     <path d="M 213.917188 66.554375 
L 262.25 66.554375 
Q 264.25 66.554375 264.25 64.554375 
L 264.25 21.52 
Q 264.25 19.52 262.25 19.52 
L 213.917188 19.52 
Q 211.917188 19.52 211.917188 21.52 
L 211.917188 64.554375 
Q 211.917188 66.554375 213.917188 66.554375 
z
" style="fill: #ffffff; opacity: 0.8; stroke: #cccccc; stroke-linejoin: miter"/>
    </g>
    <g id="line2d_15">
     <path d="M 215.917188 27.618438 
L 225.917188 27.618438 
L 235.917188 27.618438 
" style="fill: none; stroke: #000000; stroke-opacity: 0.5; stroke-width: 0.5; stroke-linecap: square"/>
    </g>
    <g id="text_14">
     <!-- all -->
     <g transform="translate(243.917188 31.118438) scale(0.1 -0.1)">
      <defs>
       <path id="DejaVuSans-61" d="M 2194 1759 
Q 1497 1759 1228 1600 
Q 959 1441 959 1056 
Q 959 750 1161 570 
Q 1363 391 1709 391 
Q 2188 391 2477 730 
Q 2766 1069 2766 1631 
L 2766 1759 
L 2194 1759 
z
M 3341 1997 
L 3341 0 
L 2766 0 
L 2766 531 
Q 2569 213 2275 61 
Q 1981 -91 1556 -91 
Q 1019 -91 701 211 
Q 384 513 384 1019 
Q 384 1609 779 1909 
Q 1175 2209 1959 2209 
L 2766 2209 
L 2766 2266 
Q 2766 2663 2505 2880 
Q 2244 3097 1772 3097 
Q 1472 3097 1187 3025 
Q 903 2953 641 2809 
L 641 3341 
Q 956 3463 1253 3523 
Q 1550 3584 1831 3584 
Q 2591 3584 2966 3190 
Q 3341 2797 3341 1997 
z
" transform="scale(0.015625)"/>
       <path id="DejaVuSans-6c" d="M 603 4863 
L 1178 4863 
L 1178 0 
L 603 0 
L 603 4863 
z
" transform="scale(0.015625)"/>
      </defs>
      <use xlink:href="#DejaVuSans-61"/>
      <use xlink:href="#DejaVuSans-6c" transform="translate(61.279297 0)"/>
      <use xlink:href="#DejaVuSans-6c" transform="translate(89.0625 0)"/>
     </g>
    </g>
    <g id="line2d_16">
     <path d="M 215.917188 42.296563 
L 225.917188 42.296563 
L 235.917188 42.296563 
" style="fill: none; stroke: #0000ff; stroke-opacity: 0.5; stroke-linecap: square"/>
    </g>
    <g id="text_15">
     <!-- 1-1 -->
     <g transform="translate(243.917188 45.796563) scale(0.1 -0.1)">
      <defs>
       <path id="DejaVuSans-2d" d="M 313 2009 
L 1997 2009 
L 1997 1497 
L 313 1497 
L 313 2009 
z
" transform="scale(0.015625)"/>
      </defs>
      <use xlink:href="#DejaVuSans-31"/>
      <use xlink:href="#DejaVuSans-2d" transform="translate(63.623047 0)"/>
      <use xlink:href="#DejaVuSans-31" transform="translate(99.707031 0)"/>
     </g>
    </g>
    <g id="line2d_17">
     <path d="M 215.917188 56.974688 
L 225.917188 56.974688 
L 235.917188 56.974688 
" style="fill: none; stroke: #ff0000; stroke-opacity: 0.5; stroke-linecap: square"/>
    </g>
    <g id="text_16">
     <!-- 2-2 -->
     <g transform="translate(243.917188 60.474688) scale(0.1 -0.1)">
      <use xlink:href="#DejaVuSans-32"/>
      <use xlink:href="#DejaVuSans-2d" transform="translate(63.623047 0)"/>
      <use xlink:href="#DejaVuSans-32" transform="translate(99.707031 0)"/>
     </g>
    </g>
   </g>
  </g>
 </g>
 <defs>
  <clipPath id="p119864268d">
   <rect x="33.7" y="14.52" width="235.55" height="174.08"/>
  </clipPath>
 </defs>
</svg>
