<?xml version="1.0" encoding="utf-8" standalone="no"?>
<!DOCTYPE svg PUBLIC "-//W3C//DTD SVG 1.1//EN"
  "http://www.w3.org/Graphics/SVG/1.1/DTD/svg11.dtd">
<svg xmlns:xlink="http://www.w3.org/1999/xlink" width="288pt" height="216pt" viewBox="0 0 288 216" xmlns="http://www.w3.org/2000/svg" version="1.1">
 <metadata>
  <rdf:RDF xmlns:dc="http://purl.org/dc/elements/1.1/" xmlns:cc="http://creativecommons.org/ns#" xmlns:rdf="http://www.w3.org/1999/02/22-rdf-syntax-ns#">
   <cc:Work>
    <dc:type rdf:resource="http://purl.org/dc/dcmitype/StillImage"/>
    <dc:date>2025-09-18T00:19:46.754404</dc:date>
    <dc:format>image/svg+xml</dc:format>
    <dc:creator>
     <cc:Agent>
      <dc:title>Matplotlib v3.10.0, https://matplotlib.org/</dc:title>
     </cc:Agent>
    </dc:creator>
   </cc:Work>
  </rdf:RDF>
 </metadata>
 <defs>
  <style type="text/css">*{stroke-linejoin: round; stroke-linecap: butt}</style>
 </defs>
 <g id="figure_1">
  <g id="patch_1">
   <path d="M 0 216 
L 288 216 
L 288 0 
L 0 0 
z
" style="fill: #ffffff"/>
  </g>
  <g id="axes_1">
   <g id="patch_2">
    <path d="M 33.7 188.6 
L 269.25 188.6 
L 269.25 14.52 
L 33.7 14.52 
z
" style="fill: #ffffff"/>
   </g>
   <g id="matplotlib.axis_1">
    <g id="xtick_1">
     <g id="line2d_1">
      <defs>
       <path id="m3ea66ce0c4" d="M 0 0 
L 0 3.5 
" style="stroke: #000000; stroke-width: 0.8"/>
      </defs>
      <g>
       <use xlink:href="#m3ea66ce0c4" x="44.138477" y="188.6" style="stroke: #000000; stroke-width: 0.8"/>
      </g>
     </g>
     <g id="text_1">
      <!-- 0 -->
      <g transform="translate(40.957227 203.198437) scale(0.1 -0.1)">
       <defs>
        <path id="DejaVuSans-30" d="M 2034 4250 
Q 1547 4250 1301 3770 
Q 1056 3291 1056 2328 
Q 1056 1369 1301 889 
Q 1547 409 2034 409 
Q 2525 409 2770 889 
Q 3016 1369 3016 2328 
Q 3016 3291 2770 3770 
Q 2525 4250 2034 4250 
z
M 2034 4750 
Q 2819 4750 3233 4129 
Q 3647 3509 3647 2328 
Q 3647 1150 3233 529 
Q 2819 -91 2034 -91 
Q 1250 -91 836 529 
Q 422 1150 422 2328 
Q 422 3509 836 4129 
Q 1250 4750 2034 4750 
z
" transform="scale(0.015625)"/>
       </defs>
       <use xlink:href="#DejaVuSans-30"/>
      </g>
     </g>
    </g>
    <g id="xtick_2">
     <g id="line2d_2">
      <g>
       <use xlink:href="#m3ea66ce0c4" x="87.073086" y="188.6" style="stroke: #000000; stroke-width: 0.8"/>
      </g>
     </g>
     <g id="text_2">
      <!-- 200 -->
      <g transform="translate(77.529336 203.198437) scale(0.1 -0.1)">
       <defs>
        <path id="DejaVuSans-32" d="M 1228 531 
L 3431 531 
L 3431 0 
L 469 0 
L 469 531 
Q 828 903 1448 1529 
Q 2069 2156 2228 2338 
Q 2531 2678 2651 2914 
Q 2772 3150 2772 3378 
Q 2772 3750 2511 3984 
Q 2250 4219 1831 4219 
Q 1534 4219 1204 4116 
Q 875 4013 500 3803 
L 500 4441 
Q 881 4594 1212 4672 
Q 1544 4750 1819 4750 
Q 2544 4750 2975 4387 
Q 3406 4025 3406 3419 
Q 3406 3131 3298 2873 
Q 3191 2616 2906 2266 
Q 2828 2175 2409 1742 
Q 1991 1309 1228 531 
z
" transform="scale(0.015625)"/>
       </defs>
       <use xlink:href="#DejaVuSans-32"/>
       <use xlink:href="#DejaVuSans-30" transform="translate(63.623047 0)"/>
       <use xlink:href="#DejaVuSans-30" transform="translate(127.246094 0)"/>
      </g>
     </g>
    </g>
    <g id="xtick_3">
     <g id="line2d_3">
      <g>
       <use xlink:href="#m3ea66ce0c4" x="130.007695" y="188.6" style="stroke: #000000; stroke-width: 0.8"/>
      </g>
     </g>
     <g id="text_3">
      <!-- 400 -->
      <g transform="translate(120.463945 203.198437) scale(0.1 -0.1)">
       <defs>
        <path id="DejaVuSans-34" d="M 2419 4116 
L 825 1625 
L 2419 1625 
L 2419 4116 
z
M 2253 4666 
L 3047 4666 
L 3047 1625 
L 3713 1625 
L 3713 1100 
L 3047 1100 
L 3047 0 
L 2419 0 
L 2419 1100 
L 313 1100 
L 313 1709 
L 2253 4666 
z
" transform="scale(0.015625)"/>
       </defs>
       <use xlink:href="#DejaVuSans-34"/>
       <use xlink:href="#DejaVuSans-30" transform="translate(63.623047 0)"/>
       <use xlink:href="#DejaVuSans-30" transform="translate(127.246094 0)"/>
      </g>
     </g>
    </g>
    <g id="xtick_4">
     <g id="line2d_4">
      <g>
       <use xlink:href="#m3ea66ce0c4" x="172.942305" y="188.6" style="stroke: #000000; stroke-width: 0.8"/>
      </g>
     </g>
     <g id="text_4">
      <!-- 600 -->
      <g transform="translate(163.398555 203.198437) scale(0.1 -0.1)">
       <defs>
        <path id="DejaVuSans-36" d="M 2113 2584 
Q 1688 2584 1439 2293 
Q 1191 2003 1191 1497 
Q 1191 994 1439 701 
Q 1688 409 2113 409 
Q 2538 409 2786 701 
Q 3034 994 3034 1497 
Q 3034 2003 2786 2293 
Q 2538 2584 2113 2584 
z
M 3366 4563 
L 3366 3988 
Q 3128 4100 2886 4159 
Q 2644 4219 2406 4219 
Q 1781 4219 1451 3797 
Q 1122 3375 1075 2522 
Q 1259 2794 1537 2939 
Q 1816 3084 2150 3084 
Q 2853 3084 3261 2657 
Q 3669 2231 3669 1497 
Q 3669 778 3244 343 
Q 2819 -91 2113 -91 
Q 1303 -91 875 529 
Q 447 1150 447 2328 
Q 447 3434 972 4092 
Q 1497 4750 2381 4750 
Q 2619 4750 2861 4703 
Q 3103 4656 3366 4563 
z
" transform="scale(0.015625)"/>
       </defs>
       <use xlink:href="#DejaVuSans-36"/>
       <use xlink:href="#DejaVuSans-30" transform="translate(63.623047 0)"/>
       <use xlink:href="#DejaVuSans-30" transform="translate(127.246094 0)"/>
      </g>
     </g>
    </g>
    <g id="xtick_5">
     <g id="line2d_5">
      <g>
       <use xlink:href="#m3ea66ce0c4" x="215.876914" y="188.6" style="stroke: #000000; stroke-width: 0.8"/>
      </g>
     </g>
     <g id="text_5">
      <!-- 800 -->
      <g transform="translate(206.333164 203.198437) scale(0.1 -0.1)">
       <defs>
        <path id="DejaVuSans-38" d="M 2034 2216 
Q 1584 2216 1326 1975 
Q 1069 1734 1069 1313 
Q 1069 891 1326 650 
Q 1584 409 2034 409 
Q 2484 409 2743 651 
Q 3003 894 3003 1313 
Q 3003 1734 2745 1975 
Q 2488 2216 2034 2216 
z
M 1403 2484 
Q 997 2584 770 2862 
Q 544 3141 544 3541 
Q 544 4100 942 4425 
Q 1341 4750 2034 4750 
Q 2731 4750 3128 4425 
Q 3525 4100 3525 3541 
Q 3525 3141 3298 2862 
Q 3072 2584 2669 2484 
Q 3125 2378 3379 2068 
Q 3634 1759 3634 1313 
Q 3634 634 3220 271 
Q 2806 -91 2034 -91 
Q 1263 -91 848 271 
Q 434 634 434 1313 
Q 434 1759 690 2068 
Q 947 2378 1403 2484 
z
M 1172 3481 
Q 1172 3119 1398 2916 
Q 1625 2713 2034 2713 
Q 2441 2713 2670 2916 
Q 2900 3119 2900 3481 
Q 2900 3844 2670 4047 
Q 2441 4250 2034 4250 
Q 1625 4250 1398 4047 
Q 1172 3844 1172 3481 
z
" transform="scale(0.015625)"/>
       </defs>
       <use xlink:href="#DejaVuSans-38"/>
       <use xlink:href="#DejaVuSans-30" transform="translate(63.623047 0)"/>
       <use xlink:href="#DejaVuSans-30" transform="translate(127.246094 0)"/>
      </g>
     </g>
    </g>
    <g id="xtick_6">
     <g id="line2d_6">
      <g>
       <use xlink:href="#m3ea66ce0c4" x="258.811523" y="188.6" style="stroke: #000000; stroke-width: 0.8"/>
      </g>
     </g>
     <g id="text_6">
      <!-- 1000 -->
      <g transform="translate(246.086523 203.198437) scale(0.1 -0.1)">
       <defs>
        <path id="DejaVuSans-31" d="M 794 531 
L 1825 531 
L 1825 4091 
L 703 3866 
L 703 4441 
L 1819 4666 
L 2450 4666 
L 2450 531 
L 3481 531 
L 3481 0 
L 794 0 
L 794 531 
z
" transform="scale(0.015625)"/>
       </defs>
       <use xlink:href="#DejaVuSans-31"/>
       <use xlink:href="#DejaVuSans-30" transform="translate(63.623047 0)"/>
       <use xlink:href="#DejaVuSans-30" transform="translate(127.246094 0)"/>
       <use xlink:href="#DejaVuSans-30" transform="translate(190.869141 0)"/>
      </g>
     </g>
    </g>
    <g id="text_7">
     <!-- q (nm) -->
     <g transform="translate(134.771094 216.876563) scale(0.1 -0.1)">
      <defs>
       <path id="DejaVuSans-71" d="M 947 1747 
Q 947 1113 1208 752 
Q 1469 391 1925 391 
Q 2381 391 2643 752 
Q 2906 1113 2906 1747 
Q 2906 2381 2643 2742 
Q 2381 3103 1925 3103 
Q 1469 3103 1208 2742 
Q 947 2381 947 1747 
z
M 2906 525 
Q 2725 213 2448 61 
Q 2172 -91 1784 -91 
Q 1150 -91 751 415 
Q 353 922 353 1747 
Q 353 2572 751 3078 
Q 1150 3584 1784 3584 
Q 2172 3584 2448 3432 
Q 2725 3281 2906 2969 
L 2906 3500 
L 3481 3500 
L 3481 -1331 
L 2906 -1331 
L 2906 525 
z
" transform="scale(0.015625)"/>
       <path id="DejaVuSans-20" transform="scale(0.015625)"/>
       <path id="DejaVuSans-28" d="M 1984 4856 
Q 1566 4138 1362 3434 
Q 1159 2731 1159 2009 
Q 1159 1288 1364 580 
Q 1569 -128 1984 -844 
L 1484 -844 
Q 1016 -109 783 600 
Q 550 1309 550 2009 
Q 550 2706 781 3412 
Q 1013 4119 1484 4856 
L 1984 4856 
z
" transform="scale(0.015625)"/>
       <path id="DejaVuSans-6e" d="M 3513 2113 
L 3513 0 
L 2938 0 
L 2938 2094 
Q 2938 2591 2744 2837 
Q 2550 3084 2163 3084 
Q 1697 3084 1428 2787 
Q 1159 2491 1159 1978 
L 1159 0 
L 581 0 
L 581 3500 
L 1159 3500 
L 1159 2956 
Q 1366 3272 1645 3428 
Q 1925 3584 2291 3584 
Q 2894 3584 3203 3211 
Q 3513 2838 3513 2113 
z
" transform="scale(0.015625)"/>
       <path id="DejaVuSans-6d" d="M 3328 2828 
Q 3544 3216 3844 3400 
Q 4144 3584 4550 3584 
Q 5097 3584 5394 3201 
Q 5691 2819 5691 2113 
L 5691 0 
L 5113 0 
L 5113 2094 
Q 5113 2597 4934 2840 
Q 4756 3084 4391 3084 
Q 3944 3084 3684 2787 
Q 3425 2491 3425 1978 
L 3425 0 
L 2847 0 
L 2847 2094 
Q 2847 2600 2669 2842 
Q 2491 3084 2119 3084 
Q 1678 3084 1418 2786 
Q 1159 2488 1159 1978 
L 1159 0 
L 581 0 
L 581 3500 
L 1159 3500 
L 1159 2956 
Q 1356 3278 1631 3431 
Q 1906 3584 2284 3584 
Q 2666 3584 2933 3390 
Q 3200 3197 3328 2828 
z
" transform="scale(0.015625)"/>
       <path id="DejaVuSans-29" d="M 513 4856 
L 1013 4856 
Q 1481 4119 1714 3412 
Q 1947 2706 1947 2009 
Q 1947 1309 1714 600 
Q 1481 -109 1013 -844 
L 513 -844 
Q 928 -128 1133 580 
Q 1338 1288 1338 2009 
Q 1338 2731 1133 3434 
Q 928 4138 513 4856 
z
" transform="scale(0.015625)"/>
      </defs>
      <use xlink:href="#DejaVuSans-71"/>
      <use xlink:href="#DejaVuSans-20" transform="translate(63.476562 0)"/>
      <use xlink:href="#DejaVuSans-28" transform="translate(95.263672 0)"/>
      <use xlink:href="#DejaVuSans-6e" transform="translate(134.277344 0)"/>
      <use xlink:href="#DejaVuSans-6d" transform="translate(197.65625 0)"/>
      <use xlink:href="#DejaVuSans-29" transform="translate(295.068359 0)"/>
     </g>
    </g>
   </g>
   <g id="matplotlib.axis_2">
    <g id="ytick_1">
     <g id="line2d_7">
      <defs>
       <path id="m55d3029e38" d="M 0 0 
L -3.5 0 
" style="stroke: #000000; stroke-width: 0.8"/>
      </defs>
      <g>
       <use xlink:href="#m55d3029e38" x="33.7" y="180.687273" style="stroke: #000000; stroke-width: 0.8"/>
      </g>
     </g>
     <g id="text_8">
      <!-- 0 -->
      <g transform="translate(20.3375 184.486491) scale(0.1 -0.1)">
       <use xlink:href="#DejaVuSans-30"/>
      </g>
     </g>
    </g>
    <g id="ytick_2">
     <g id="line2d_8">
      <g>
       <use xlink:href="#m55d3029e38" x="33.7" y="139.384112" style="stroke: #000000; stroke-width: 0.8"/>
      </g>
     </g>
     <g id="text_9">
      <!-- 20000 -->
      <g transform="translate(-5.1125 143.183331) scale(0.1 -0.1)">
       <use xlink:href="#DejaVuSans-32"/>
       <use xlink:href="#DejaVuSans-30" transform="translate(63.623047 0)"/>
       <use xlink:href="#DejaVuSans-30" transform="translate(127.246094 0)"/>
       <use xlink:href="#DejaVuSans-30" transform="translate(190.869141 0)"/>
       <use xlink:href="#DejaVuSans-30" transform="translate(254.492188 0)"/>
      </g>
     </g>
    </g>
    <g id="ytick_3">
     <g id="line2d_9">
      <g>
       <use xlink:href="#m55d3029e38" x="33.7" y="98.080951" style="stroke: #000000; stroke-width: 0.8"/>
      </g>
     </g>
     <g id="text_10">
      <!-- 40000 -->
      <g transform="translate(-5.1125 101.88017) scale(0.1 -0.1)">
       <use xlink:href="#DejaVuSans-34"/>
       <use xlink:href="#DejaVuSans-30" transform="translate(63.623047 0)"/>
       <use xlink:href="#DejaVuSans-30" transform="translate(127.246094 0)"/>
       <use xlink:href="#DejaVuSans-30" transform="translate(190.869141 0)"/>
       <use xlink:href="#DejaVuSans-30" transform="translate(254.492188 0)"/>
      </g>
     </g>
    </g>
    <g id="ytick_4">
     <g id="line2d_10">
      <g>
       <use xlink:href="#m55d3029e38" x="33.7" y="56.77779" style="stroke: #000000; stroke-width: 0.8"/>
      </g>
     </g>
     <g id="text_11">
      <!-- 60000 -->
      <g transform="translate(-5.1125 60.577009) scale(0.1 -0.1)">
       <use xlink:href="#DejaVuSans-36"/>
       <use xlink:href="#DejaVuSans-30" transform="translate(63.623047 0)"/>
       <use xlink:href="#DejaVuSans-30" transform="translate(127.246094 0)"/>
       <use xlink:href="#DejaVuSans-30" transform="translate(190.869141 0)"/>
       <use xlink:href="#DejaVuSans-30" transform="translate(254.492188 0)"/>
      </g>
     </g>
    </g>
    <g id="ytick_5">
     <g id="line2d_11">
      <g>
       <use xlink:href="#m55d3029e38" x="33.7" y="15.474629" style="stroke: #000000; stroke-width: 0.8"/>
      </g>
     </g>
     <g id="text_12">
      <!-- 80000 -->
      <g transform="translate(-5.1125 19.273848) scale(0.1 -0.1)">
       <use xlink:href="#DejaVuSans-38"/>
       <use xlink:href="#DejaVuSans-30" transform="translate(63.623047 0)"/>
       <use xlink:href="#DejaVuSans-30" transform="translate(127.246094 0)"/>
       <use xlink:href="#DejaVuSans-30" transform="translate(190.869141 0)"/>
       <use xlink:href="#DejaVuSans-30" transform="translate(254.492188 0)"/>
      </g>
     </g>
    </g>
    <g id="text_13">
     <!-- rdf -->
     <g transform="translate(-11.192187 108.462344) rotate(-90) scale(0.1 -0.1)">
      <defs>
       <path id="DejaVuSans-72" d="M 2631 2963 
Q 2534 3019 2420 3045 
Q 2306 3072 2169 3072 
Q 1681 3072 1420 2755 
Q 1159 2438 1159 1844 
L 1159 0 
L 581 0 
L 581 3500 
L 1159 3500 
L 1159 2956 
Q 1341 3275 1631 3429 
Q 1922 3584 2338 3584 
Q 2397 3584 2469 3576 
Q 2541 3569 2628 3553 
L 2631 2963 
z
" transform="scale(0.015625)"/>
       <path id="DejaVuSans-64" d="M 2906 2969 
L 2906 4863 
L 3481 4863 
L 3481 0 
L 2906 0 
L 2906 525 
Q 2725 213 2448 61 
Q 2172 -91 1784 -91 
Q 1150 -91 751 415 
Q 353 922 353 1747 
Q 353 2572 751 3078 
Q 1150 3584 1784 3584 
Q 2172 3584 2448 3432 
Q 2725 3281 2906 2969 
z
M 947 1747 
Q 947 1113 1208 752 
Q 1469 391 1925 391 
Q 2381 391 2643 752 
Q 2906 1113 2906 1747 
Q 2906 2381 2643 2742 
Q 2381 3103 1925 3103 
Q 1469 3103 1208 2742 
Q 947 2381 947 1747 
z
" transform="scale(0.015625)"/>
       <path id="DejaVuSans-66" d="M 2375 4863 
L 2375 4384 
L 1825 4384 
Q 1516 4384 1395 4259 
Q 1275 4134 1275 3809 
L 1275 3500 
L 2222 3500 
L 2222 3053 
L 1275 3053 
L 1275 0 
L 697 0 
L 697 3053 
L 147 3053 
L 147 3500 
L 697 3500 
L 697 3744 
Q 697 4328 969 4595 
Q 1241 4863 1831 4863 
L 2375 4863 
z
" transform="scale(0.015625)"/>
      </defs>
      <use xlink:href="#DejaVuSans-72"/>
      <use xlink:href="#DejaVuSans-64" transform="translate(39.363281 0)"/>
      <use xlink:href="#DejaVuSans-66" transform="translate(102.839844 0)"/>
     </g>
    </g>
   </g>
   <g id="line2d_12">
    <path d="M 44.406818 180.687273 
L 92.171571 180.687273 
L 92.708254 180.565942 
L 93.244936 180.093805 
L 93.781619 180.687273 
L 94.854984 180.687273 
L 95.928349 22.432727 
L 96.465032 179.850994 
L 97.001715 180.482427 
L 97.538397 180.486524 
L 98.07508 179.408241 
L 99.685128 166.586803 
L 100.22181 170.040365 
L 100.758493 176.937421 
L 101.295175 178.058872 
L 101.831858 179.655381 
L 102.905223 180.604394 
L 103.441906 180.524502 
L 103.978589 180.607341 
L 104.515271 180.373203 
L 105.051954 180.610133 
L 106.125319 180.612781 
L 106.662002 180.174745 
L 107.198684 179.463658 
L 108.272049 174.841864 
L 108.808732 174.733171 
L 109.345415 176.513682 
L 109.882097 179.561509 
L 110.41878 180.426659 
L 111.492145 180.624179 
L 112.028828 180.066274 
L 112.56551 177.630799 
L 113.638876 164.036347 
L 114.175558 163.765422 
L 114.712241 173.044155 
L 115.248923 177.687312 
L 115.785606 179.293319 
L 116.322289 177.775863 
L 116.858971 172.568609 
L 117.395654 165.753679 
L 117.932337 164.656047 
L 118.469019 174.367064 
L 119.005702 178.69574 
L 119.542384 179.881822 
L 120.079067 180.389483 
L 120.61575 180.295772 
L 121.152432 180.590757 
L 121.689115 180.496904 
L 122.225797 180.640333 
L 123.835845 180.461958 
L 124.372528 180.598349 
L 124.909211 180.467907 
L 125.982576 179.960864 
L 126.519258 178.831573 
L 127.055941 174.900593 
L 127.592624 173.53637 
L 128.129306 176.224178 
L 128.665989 175.719824 
L 129.202671 170.916905 
L 129.739354 169.671887 
L 130.276037 174.785079 
L 130.812719 178.820363 
L 131.349402 180.273313 
L 131.886085 180.129667 
L 132.422767 180.503657 
L 133.496132 180.61558 
L 134.032815 180.439337 
L 135.10618 180.51433 
L 135.642863 180.24288 
L 136.179545 177.916776 
L 137.252911 167.020219 
L 137.789593 175.889962 
L 138.326276 177.848046 
L 138.862959 172.39342 
L 139.399641 160.753373 
L 139.936324 162.878544 
L 140.473006 173.840333 
L 141.009689 178.186168 
L 141.546372 179.752126 
L 142.083054 180.448581 
L 142.619737 180.244591 
L 143.156419 179.373585 
L 143.693102 175.460145 
L 144.229785 173.001866 
L 144.766467 173.422812 
L 145.30315 176.268447 
L 145.839833 169.479777 
L 146.376515 158.726067 
L 146.913198 174.400571 
L 147.44988 179.078249 
L 147.986563 175.538397 
L 149.059928 165.711057 
L 150.133293 178.139632 
L 150.669976 180.157645 
L 151.206659 180.337718 
L 151.743341 180.267037 
L 152.280024 178.729272 
L 153.353389 173.680349 
L 154.426754 179.016539 
L 154.963437 180.151277 
L 155.50012 180.294913 
L 156.036802 179.93292 
L 156.573485 178.513697 
L 157.110167 175.596387 
L 157.64685 175.022363 
L 158.183533 177.606347 
L 158.720215 179.553623 
L 159.256898 180.233711 
L 159.793581 180.494689 
L 160.330263 180.581268 
L 161.403628 180.54157 
L 162.476994 180.585078 
L 163.550359 180.205521 
L 164.087041 179.235028 
L 164.623724 175.580578 
L 165.160407 170.798792 
L 165.697089 170.827777 
L 166.233772 176.17517 
L 166.770455 178.232062 
L 167.307137 176.555364 
L 167.84382 175.955197 
L 168.917185 179.17983 
L 169.453868 178.773511 
L 170.527233 172.265786 
L 171.063915 173.385072 
L 171.600598 174.838235 
L 172.137281 174.555246 
L 172.673963 170.24058 
L 173.210646 167.148822 
L 174.284011 177.848321 
L 174.820694 179.530833 
L 175.357376 179.324172 
L 176.430742 175.175796 
L 176.967424 177.361625 
L 177.504107 177.677998 
L 178.040789 176.967746 
L 178.577472 176.585637 
L 179.114155 176.963823 
L 179.650837 175.995706 
L 180.18752 177.146049 
L 180.724203 179.321788 
L 181.260885 180.367596 
L 182.870933 180.538559 
L 183.407616 180.480675 
L 183.944298 180.540834 
L 184.480981 180.411162 
L 185.017663 179.8364 
L 185.554346 178.096745 
L 186.091029 173.982814 
L 186.627711 173.314246 
L 187.164394 177.231268 
L 187.701077 179.50683 
L 188.237759 179.887782 
L 188.774442 178.580211 
L 189.311124 173.271921 
L 189.847807 170.657143 
L 190.38449 172.738017 
L 190.921172 173.340716 
L 191.457855 176.519762 
L 191.994537 178.055639 
L 192.53122 176.696838 
L 193.067903 174.957596 
L 193.604585 175.600851 
L 194.141268 178.473877 
L 194.677951 179.803165 
L 195.214633 179.383061 
L 195.751316 175.009201 
L 196.287998 176.916179 
L 196.824681 178.170388 
L 197.898046 176.353079 
L 198.434729 174.002744 
L 198.971411 173.093832 
L 200.044777 179.227111 
L 200.581459 180.207783 
L 201.118142 180.478202 
L 201.654825 180.248903 
L 202.191507 179.472742 
L 202.72819 177.716992 
L 203.264872 176.697038 
L 203.801555 177.397489 
L 204.338238 177.910217 
L 204.87492 177.829025 
L 205.411603 178.574337 
L 205.948285 178.774172 
L 206.484968 176.897208 
L 207.021651 175.97275 
L 207.558333 174.814014 
L 208.095016 175.08664 
L 209.168381 177.303207 
L 209.705064 176.312292 
L 210.241746 174.027071 
L 210.778429 175.069718 
L 211.315112 178.126932 
L 211.851794 179.089655 
L 212.388477 177.704506 
L 212.925159 174.347662 
L 213.461842 174.61741 
L 213.998525 176.619934 
L 214.535207 177.532726 
L 215.608573 177.640255 
L 216.145255 178.404151 
L 216.681938 179.504733 
L 217.21862 179.789137 
L 217.755303 178.921081 
L 218.291986 177.044514 
L 218.828668 176.541609 
L 219.365351 177.154264 
L 219.902033 177.444489 
L 220.438716 177.869384 
L 220.975399 176.513534 
L 221.512081 177.057285 
L 222.048764 178.878707 
L 222.585447 179.680553 
L 223.122129 179.096886 
L 223.658812 178.218259 
L 224.732177 173.429412 
L 225.26886 174.86822 
L 225.805542 178.579807 
L 226.342225 180.109617 
L 226.878907 180.352998 
L 227.41559 180.354954 
L 229.025638 178.820035 
L 230.099003 179.818195 
L 230.635686 178.810985 
L 231.172368 177.291693 
L 231.709051 178.075801 
L 232.245734 179.570988 
L 232.782416 179.617537 
L 233.319099 178.351999 
L 233.855781 177.554056 
L 234.392464 178.228037 
L 234.929147 179.751562 
L 235.465829 180.288499 
L 236.002512 180.43846 
L 236.539195 180.115101 
L 237.075877 179.387809 
L 238.149242 176.117105 
L 238.685925 175.779323 
L 239.222608 173.294339 
L 239.75929 173.177748 
L 240.295973 174.297387 
L 240.832656 173.792175 
L 241.369338 175.48517 
L 241.906021 178.660159 
L 242.442703 179.282518 
L 242.979386 179.000516 
L 243.516069 177.907921 
L 244.052751 176.447507 
L 244.589434 175.537014 
L 245.126116 176.237582 
L 245.662799 178.058451 
L 246.199482 179.151993 
L 246.736164 179.843497 
L 247.272847 179.26529 
L 247.80953 178.037662 
L 248.346212 178.429094 
L 248.882895 179.103206 
L 249.419577 177.963602 
L 249.95626 176.106147 
L 250.492943 176.19044 
L 251.029625 178.748082 
L 251.566308 179.576332 
L 252.10299 178.78789 
L 253.176356 176.03658 
L 253.713038 176.308005 
L 254.249721 175.545854 
L 254.786404 174.223862 
L 255.323086 175.739186 
L 255.859769 177.960766 
L 256.396451 178.158775 
L 256.933134 177.324488 
L 257.469817 177.404272 
L 258.006499 177.101592 
L 258.543182 176.621416 
L 258.543182 176.621416 
" clip-path="url(#p7218c7ef56)" style="fill: none; stroke: #000000; stroke-opacity: 0.5; stroke-width: 0.5; stroke-linecap: square"/>
   </g>
   <g id="line2d_13">
    <path d="M 44.406818 180.687273 
L 92.171571 180.687273 
L 92.708254 180.315696 
L 93.244936 178.869777 
L 93.781619 180.687273 
L 96.465032 180.687273 
L 97.538397 180.072478 
L 98.07508 176.770239 
L 99.685128 137.50458 
L 100.22181 148.081113 
L 100.758493 169.203349 
L 101.295175 172.637794 
L 101.831858 177.527105 
L 102.905223 180.433457 
L 103.441906 180.188787 
L 103.978589 180.442481 
L 104.515271 179.725435 
L 105.051954 180.451032 
L 106.125319 180.459142 
L 106.662002 179.117658 
L 107.198684 176.939952 
L 108.272049 162.785706 
L 108.808732 162.452835 
L 109.345415 167.90565 
L 109.882097 177.239621 
L 110.41878 179.889144 
L 110.955463 180.490933 
L 111.492145 180.687273 
L 112.028828 180.497092 
L 112.56551 180.687273 
L 113.102193 180.502966 
L 113.638876 180.687273 
L 114.175558 179.436369 
L 114.712241 180.335287 
L 115.785606 178.63816 
L 116.322289 172.780459 
L 116.858971 156.984155 
L 117.395654 135.279812 
L 117.932337 131.913576 
L 118.469019 161.490284 
L 119.005702 175.682908 
L 119.542384 178.683084 
L 120.079067 180.079285 
L 120.61575 179.488302 
L 121.152432 180.391693 
L 121.689115 180.39577 
L 122.225797 180.543518 
L 122.76248 180.545474 
L 123.299163 180.687273 
L 123.835845 180.549268 
L 124.372528 180.687273 
L 124.909211 180.418549 
L 125.445893 180.289492 
L 125.982576 180.687273 
L 126.519258 180.428951 
L 127.055941 180.687273 
L 127.592624 180.687273 
L 128.129306 180.563016 
L 128.665989 180.687273 
L 129.202671 180.444991 
L 129.739354 180.687273 
L 131.886085 180.687273 
L 132.422767 180.574808 
L 133.496132 180.687273 
L 134.032815 180.253385 
L 135.10618 180.581345 
L 135.642863 179.849764 
L 136.179545 172.823453 
L 137.252911 139.236316 
L 137.789593 166.395281 
L 138.326276 175.252815 
L 138.862959 165.642701 
L 139.399641 140.79384 
L 139.936324 153.751955 
L 140.473006 174.264411 
L 141.009689 179.37953 
L 141.546372 180.410122 
L 142.083054 180.595899 
L 143.156419 180.508465 
L 143.693102 179.802848 
L 144.229785 180.074797 
L 144.766467 180.687273 
L 145.30315 180.430324 
L 145.839833 178.229579 
L 146.376515 158.296492 
L 147.44988 180.194509 
L 147.986563 180.687273 
L 148.523246 180.687273 
L 149.059928 180.52802 
L 149.596611 180.687273 
L 154.426754 180.687273 
L 154.963437 180.401797 
L 155.50012 180.61659 
L 164.087041 180.626348 
L 164.623724 180.506123 
L 165.160407 180.507726 
L 165.697089 180.272021 
L 166.233772 179.27604 
L 166.770455 175.67455 
L 167.307137 169.246697 
L 167.84382 166.538972 
L 168.917185 176.971518 
L 169.453868 177.952187 
L 169.99055 174.433488 
L 170.527233 168.175988 
L 171.063915 167.683003 
L 171.600598 168.493702 
L 172.137281 166.295133 
L 172.673963 157.024125 
L 173.210646 152.905956 
L 174.284011 175.822611 
L 174.820694 179.301431 
L 175.357376 180.076371 
L 175.894059 180.081337 
L 176.430742 179.585386 
L 176.967424 178.103812 
L 177.504107 174.970455 
L 178.040789 174.038418 
L 178.577472 176.176858 
L 179.114155 179.580646 
L 179.650837 180.257667 
L 180.18752 180.49784 
L 182.870933 180.550642 
L 183.407616 180.37092 
L 183.944298 180.463038 
L 184.480981 180.37574 
L 185.017663 178.567303 
L 185.554346 175.909645 
L 186.091029 169.94256 
L 186.627711 171.275383 
L 187.164394 176.273695 
L 187.701077 178.900985 
L 188.237759 180.09627 
L 188.774442 180.477764 
L 189.311124 180.31294 
L 189.847807 180.480839 
L 190.38449 180.523336 
L 190.921172 180.321107 
L 191.457855 179.960266 
L 191.994537 178.321584 
L 192.53122 174.039526 
L 193.067903 171.083772 
L 193.604585 172.094327 
L 194.141268 177.259054 
L 194.677951 179.372162 
L 195.214633 180.149599 
L 195.751316 179.543253 
L 196.824681 174.257705 
L 197.361364 171.353051 
L 197.898046 172.048394 
L 198.434729 171.629795 
L 198.971411 172.277476 
L 199.508094 176.801883 
L 200.044777 179.641461 
L 200.581459 180.472379 
L 201.118142 180.402704 
L 201.654825 179.733385 
L 202.191507 177.459027 
L 202.72819 172.043869 
L 203.264872 168.847973 
L 204.338238 177.852362 
L 204.87492 179.805149 
L 205.411603 178.968449 
L 205.948285 176.703241 
L 206.484968 173.170942 
L 207.021651 174.839295 
L 207.558333 178.291213 
L 208.095016 179.872066 
L 208.631699 180.006962 
L 209.168381 179.142373 
L 210.241746 173.697691 
L 210.778429 175.573493 
L 211.315112 178.49178 
L 211.851794 180.157489 
L 212.388477 180.563412 
L 217.755303 180.570951 
L 218.291986 180.340456 
L 218.828668 179.279787 
L 219.365351 176.005337 
L 219.902033 173.536934 
L 220.438716 174.736669 
L 220.975399 173.483339 
L 221.512081 175.421402 
L 222.048764 178.444085 
L 222.585447 179.861448 
L 223.122129 180.276832 
L 223.658812 179.925697 
L 224.195494 177.307617 
L 224.732177 172.382309 
L 225.26886 172.137538 
L 225.805542 177.606297 
L 226.342225 180.106384 
L 226.878907 180.109792 
L 227.41559 180.348031 
L 227.952273 180.427838 
L 228.488955 180.326175 
L 229.025638 180.353912 
L 229.562321 180.20287 
L 230.099003 178.912906 
L 230.635686 175.621603 
L 231.172368 170.538885 
L 231.709051 172.988618 
L 232.245734 177.714558 
L 232.782416 179.997575 
L 233.319099 180.393364 
L 233.855781 180.443733 
L 234.392464 180.299805 
L 234.929147 180.518707 
L 236.002512 180.353903 
L 236.539195 179.503302 
L 237.075877 177.272815 
L 237.61256 173.732302 
L 238.149242 175.098132 
L 238.685925 178.162873 
L 239.222608 177.117249 
L 240.832656 170.310408 
L 241.369338 172.91309 
L 241.906021 178.221988 
L 242.442703 179.728782 
L 242.979386 179.623096 
L 243.516069 177.600104 
L 244.052751 173.449411 
L 244.589434 173.117263 
L 245.126116 175.739825 
L 245.662799 179.068486 
L 246.199482 180.107599 
L 246.736164 180.473714 
L 247.80953 180.497091 
L 248.346212 180.203806 
L 248.882895 179.369919 
L 249.419577 176.839069 
L 249.95626 173.237875 
L 250.492943 174.223495 
L 251.029625 178.004586 
L 251.566308 179.913106 
L 252.639673 180.525964 
L 253.176356 180.165707 
L 253.713038 179.270283 
L 254.786404 174.049698 
L 255.323086 174.633727 
L 255.859769 177.773597 
L 256.396451 179.033505 
L 256.933134 178.035208 
L 257.469817 174.697133 
L 258.006499 172.120828 
L 258.543182 171.420014 
L 258.543182 171.420014 
" clip-path="url(#p7218c7ef56)" style="fill: none; stroke: #0000ff; stroke-opacity: 0.5; stroke-linecap: square"/>
   </g>
   <g id="line2d_14">
    <path d="M 44.406818 180.687273 
L 110.41878 180.687273 
L 110.955463 180.338224 
L 111.492145 180.343764 
L 112.028828 177.644378 
L 112.56551 164.046469 
L 113.638876 90.032239 
L 114.175558 90.781037 
L 114.712241 139.700496 
L 115.248923 166.511356 
L 115.785606 176.740835 
L 116.322289 178.892819 
L 116.858971 178.624531 
L 117.395654 180.106522 
L 117.932337 180.114938 
L 118.469019 180.405223 
L 119.005702 178.741131 
L 119.542384 179.865042 
L 120.079067 180.146839 
L 120.61575 180.687273 
L 121.152432 180.687273 
L 121.689115 180.169046 
L 122.225797 180.687273 
L 122.76248 180.1831 
L 123.299163 179.941232 
L 123.835845 179.951246 
L 124.372528 180.20313 
L 124.909211 180.209542 
L 125.445893 179.272942 
L 125.982576 177.895583 
L 126.519258 171.272878 
L 127.055941 150.088641 
L 127.592624 143.320835 
L 128.665989 177.633805 
L 129.202671 179.395105 
L 129.739354 179.411259 
L 130.276037 180.477245 
L 130.812719 180.272404 
L 131.349402 180.687273 
L 131.886085 180.484882 
L 132.422767 180.687273 
L 142.619737 180.687273 
L 143.156419 180.528333 
L 143.693102 180.058349 
L 144.229785 180.376174 
L 144.766467 180.379483 
L 145.30315 178.860079 
L 145.839833 132.927044 
L 146.376515 105.100923 
L 146.913198 173.015569 
L 147.44988 179.957253 
L 147.986563 180.542774 
L 148.523246 180.687273 
L 159.793581 180.687273 
L 160.330263 180.571845 
L 160.866946 180.687273 
L 161.940311 180.462685 
L 162.476994 180.687273 
L 163.013676 180.466722 
L 163.550359 180.4687 
L 164.087041 180.687273 
L 164.623724 180.579925 
L 165.160407 180.687273 
L 165.697089 180.476351 
L 167.307137 180.584552 
L 167.84382 180.279944 
L 168.380502 180.485365 
L 168.917185 179.185958 
L 169.453868 175.229506 
L 169.99055 161.895173 
L 170.527233 157.274346 
L 171.600598 170.615888 
L 172.137281 173.078047 
L 172.673963 166.067293 
L 173.210646 156.554009 
L 174.284011 174.89108 
L 174.820694 178.406052 
L 175.357376 180.234753 
L 176.430742 180.331107 
L 176.967424 179.362421 
L 177.504107 177.007483 
L 178.040789 174.081875 
L 178.577472 169.047494 
L 179.650837 178.396043 
L 180.18752 179.256007 
L 180.724203 180.353147 
L 181.260885 180.521515 
L 182.33425 180.442483 
L 182.870933 180.28244 
L 183.944298 180.448089 
L 184.480981 179.816959 
L 185.017663 180.216168 
L 186.091029 180.455268 
L 186.627711 180.226752 
L 187.164394 180.38256 
L 188.237759 180.236985 
L 188.774442 179.86786 
L 189.311124 178.32112 
L 189.847807 170.705077 
L 190.38449 155.258871 
L 190.921172 144.956763 
L 191.457855 160.007976 
L 191.994537 171.064134 
L 192.53122 171.062858 
L 193.067903 166.705771 
L 193.604585 168.619656 
L 194.141268 175.215974 
L 194.677951 179.380757 
L 195.214633 180.141064 
L 195.751316 180.28051 
L 196.287998 180.283374 
L 196.824681 180.620429 
L 197.361364 180.554519 
L 198.434729 180.687273 
L 198.971411 180.622269 
L 200.044777 180.687273 
L 201.118142 180.560798 
L 201.654825 180.687273 
L 203.801555 180.687273 
L 204.338238 180.565831 
L 204.87492 180.626957 
L 205.411603 180.507526 
L 205.948285 180.687273 
L 206.484968 180.450771 
L 207.021651 179.864958 
L 207.558333 177.769697 
L 208.095016 173.093174 
L 208.631699 167.210648 
L 209.168381 171.646749 
L 209.705064 177.219541 
L 210.241746 179.670606 
L 210.778429 180.575036 
L 211.315112 180.296963 
L 211.851794 180.631871 
L 212.925159 180.304373 
L 213.461842 179.871968 
L 213.998525 176.744489 
L 214.535207 171.402171 
L 215.07189 169.647048 
L 215.608573 174.592155 
L 216.145255 178.369753 
L 216.681938 180.21618 
L 217.21862 180.375155 
L 217.755303 180.687273 
L 219.365351 180.63652 
L 221.512081 180.588209 
L 223.122129 180.103535 
L 223.658812 178.414635 
L 224.732177 159.998031 
L 225.26886 165.487746 
L 225.805542 175.776599 
L 226.342225 179.185177 
L 226.878907 180.080627 
L 227.952273 180.548908 
L 230.099003 180.687273 
L 230.635686 180.55286 
L 231.709051 180.64298 
L 232.782416 180.687273 
L 233.319099 180.600189 
L 233.855781 180.643977 
L 234.392464 180.472013 
L 236.002512 180.517942 
L 236.539195 180.434692 
L 237.075877 180.477957 
L 237.61256 180.229332 
L 238.149242 178.617221 
L 238.685925 174.840754 
L 239.222608 159.149411 
L 239.75929 156.416779 
L 240.295973 168.982814 
L 240.832656 177.626073 
L 241.369338 179.805948 
L 241.906021 180.249 
L 242.442703 180.053233 
L 242.979386 180.293133 
L 243.516069 179.707219 
L 244.052751 175.930268 
L 244.589434 169.750391 
L 245.126116 170.310171 
L 245.662799 176.312951 
L 246.199482 179.69491 
L 246.736164 180.459477 
L 247.80953 180.649706 
L 248.882895 180.501403 
L 249.419577 180.465394 
L 249.95626 180.613698 
L 251.029625 180.468835 
L 251.566308 179.636942 
L 252.10299 177.084108 
L 253.176356 160.537911 
L 254.249721 169.215072 
L 254.786404 169.905605 
L 255.323086 172.511056 
L 255.859769 176.585096 
L 256.396451 179.372906 
L 256.933134 180.136641 
L 257.469817 180.516065 
L 258.006499 180.312504 
L 258.543182 180.483876 
L 258.543182 180.483876 
" clip-path="url(#p7218c7ef56)" style="fill: none; stroke: #ff0000; stroke-opacity: 0.5; stroke-linecap: square"/>
   </g>
   <g id="patch_3">
    <path d="M 33.7 188.6 
L 33.7 14.52 
" style="fill: none; stroke: #000000; stroke-width: 0.8; stroke-linejoin: miter; stroke-linecap: square"/>
   </g>
   <g id="patch_4">
    <path d="M 269.25 188.6 
L 269.25 14.52 
" style="fill: none; stroke: #000000; stroke-width: 0.8; stroke-linejoin: miter; stroke-linecap: square"/>
   </g>
   <g id="patch_5">
    <path d="M 33.7 188.6 
L 269.25 188.6 
" style="fill: none; stroke: #000000; stroke-width: 0.8; stroke-linejoin: miter; stroke-linecap: square"/>
   </g>
   <g id="patch_6">
    <path d="M 33.7 14.52 
L 269.25 14.52 
" style="fill: none; stroke: #000000; stroke-width: 0.8; stroke-linejoin: miter; stroke-linecap: square"/>
   </g>
   <g id="legend_1">
    <g id="patch_7">
     <path d="M 213.917188 66.554375 
L 262.25 66.554375 
Q 264.25 66.554375 264.25 64.554375 
L 264.25 21.52 
Q 264.25 19.52 262.25 19.52 
L 213.917188 19.52 
Q 211.917188 19.52 211.917188 21.52 
L 211.917188 64.554375 
Q 211.917188 66.554375 213.917188 66.554375 
z
" style="fill: #ffffff; opacity: 0.8; stroke: #cccccc; stroke-linejoin: miter"/>
    </g>
    <g id="line2d_15">
     <path d="M 215.917188 27.618438 
L 225.917188 27.618438 
L 235.917188 27.618438 
" style="fill: none; stroke: #000000; stroke-opacity: 0.5; stroke-width: 0.5; stroke-linecap: square"/>
    </g>
    <g id="text_14">
     <!-- all -->
     <g transform="translate(243.917188 31.118438) scale(0.1 -0.1)">
      <defs>
       <path id="DejaVuSans-61" d="M 2194 1759 
Q 1497 1759 1228 1600 
Q 959 1441 959 1056 
Q 959 750 1161 570 
Q 1363 391 1709 391 
Q 2188 391 2477 730 
Q 2766 1069 2766 1631 
L 2766 1759 
L 2194 1759 
z
M 3341 1997 
L 3341 0 
L 2766 0 
L 2766 531 
Q 2569 213 2275 61 
Q 1981 -91 1556 -91 
Q 1019 -91 701 211 
Q 384 513 384 1019 
Q 384 1609 779 1909 
Q 1175 2209 1959 2209 
L 2766 2209 
L 2766 2266 
Q 2766 2663 2505 2880 
Q 2244 3097 1772 3097 
Q 1472 3097 1187 3025 
Q 903 2953 641 2809 
L 641 3341 
Q 956 3463 1253 3523 
Q 1550 3584 1831 3584 
Q 2591 3584 2966 3190 
Q 3341 2797 3341 1997 
z
" transform="scale(0.015625)"/>
       <path id="DejaVuSans-6c" d="M 603 4863 
L 1178 4863 
L 1178 0 
L 603 0 
L 603 4863 
z
" transform="scale(0.015625)"/>
      </defs>
      <use xlink:href="#DejaVuSans-61"/>
      <use xlink:href="#DejaVuSans-6c" transform="translate(61.279297 0)"/>
      <use xlink:href="#DejaVuSans-6c" transform="translate(89.0625 0)"/>
     </g>
    </g>
    <g id="line2d_16">
     <path d="M 215.917188 42.296563 
L 225.917188 42.296563 
L 235.917188 42.296563 
" style="fill: none; stroke: #0000ff; stroke-opacity: 0.5; stroke-linecap: square"/>
    </g>
    <g id="text_15">
     <!-- 1-1 -->
     <g transform="translate(243.917188 45.796563) scale(0.1 -0.1)">
      <defs>
       <path id="DejaVuSans-2d" d="M 313 2009 
L 1997 2009 
L 1997 1497 
L 313 1497 
L 313 2009 
z
" transform="scale(0.015625)"/>
      </defs>
      <use xlink:href="#DejaVuSans-31"/>
      <use xlink:href="#DejaVuSans-2d" transform="translate(63.623047 0)"/>
      <use xlink:href="#DejaVuSans-31" transform="translate(99.707031 0)"/>
     </g>
    </g>
    <g id="line2d_17">
     <path d="M 215.917188 56.974688 
L 225.917188 56.974688 
L 235.917188 56.974688 
" style="fill: none; stroke: #ff0000; stroke-opacity: 0.5; stroke-linecap: square"/>
    </g>
    <g id="text_16">
     <!-- 2-2 -->
     <g transform="translate(243.917188 60.474688) scale(0.1 -0.1)">
      <use xlink:href="#DejaVuSans-32"/>
      <use xlink:href="#DejaVuSans-2d" transform="translate(63.623047 0)"/>
      <use xlink:href="#DejaVuSans-32" transform="translate(99.707031 0)"/>
     </g>
    </g>
   </g>
  </g>
 </g>
 <defs>
  <clipPath id="p7218c7ef56">
   <rect x="33.7" y="14.52" width="235.55" height="174.08"/>
  </clipPath>
 </defs>
</svg>
