<?xml version="1.0" encoding="utf-8" standalone="no"?>
<!DOCTYPE svg PUBLIC "-//W3C//DTD SVG 1.1//EN"
  "http://www.w3.org/Graphics/SVG/1.1/DTD/svg11.dtd">
<svg xmlns:xlink="http://www.w3.org/1999/xlink" width="288pt" height="216pt" viewBox="0 0 288 216" xmlns="http://www.w3.org/2000/svg" version="1.1">
 <metadata>
  <rdf:RDF xmlns:dc="http://purl.org/dc/elements/1.1/" xmlns:cc="http://creativecommons.org/ns#" xmlns:rdf="http://www.w3.org/1999/02/22-rdf-syntax-ns#">
   <cc:Work>
    <dc:type rdf:resource="http://purl.org/dc/dcmitype/StillImage"/>
    <dc:date>2025-09-18T00:06:31.194784</dc:date>
    <dc:format>image/svg+xml</dc:format>
    <dc:creator>
     <cc:Agent>
      <dc:title>Matplotlib v3.10.0, https://matplotlib.org/</dc:title>
     </cc:Agent>
    </dc:creator>
   </cc:Work>
  </rdf:RDF>
 </metadata>
 <defs>
  <style type="text/css">*{stroke-linejoin: round; stroke-linecap: butt}</style>
 </defs>
 <g id="figure_1">
  <g id="patch_1">
   <path d="M 0 216 
L 288 216 
L 288 0 
L 0 0 
z
" style="fill: #ffffff"/>
  </g>
  <g id="axes_1">
   <g id="patch_2">
    <path d="M 33.7 188.6 
L 269.25 188.6 
L 269.25 14.52 
L 33.7 14.52 
z
" style="fill: #ffffff"/>
   </g>
   <g id="matplotlib.axis_1">
    <g id="xtick_1">
     <g id="line2d_1">
      <defs>
       <path id="ma9cc8aaca7" d="M 0 0 
L 0 3.5 
" style="stroke: #000000; stroke-width: 0.8"/>
      </defs>
      <g>
       <use xlink:href="#ma9cc8aaca7" x="44.138477" y="188.6" style="stroke: #000000; stroke-width: 0.8"/>
      </g>
     </g>
     <g id="text_1">
      <!-- 0 -->
      <g transform="translate(40.957227 203.198437) scale(0.1 -0.1)">
       <defs>
        <path id="DejaVuSans-30" d="M 2034 4250 
Q 1547 4250 1301 3770 
Q 1056 3291 1056 2328 
Q 1056 1369 1301 889 
Q 1547 409 2034 409 
Q 2525 409 2770 889 
Q 3016 1369 3016 2328 
Q 3016 3291 2770 3770 
Q 2525 4250 2034 4250 
z
M 2034 4750 
Q 2819 4750 3233 4129 
Q 3647 3509 3647 2328 
Q 3647 1150 3233 529 
Q 2819 -91 2034 -91 
Q 1250 -91 836 529 
Q 422 1150 422 2328 
Q 422 3509 836 4129 
Q 1250 4750 2034 4750 
z
" transform="scale(0.015625)"/>
       </defs>
       <use xlink:href="#DejaVuSans-30"/>
      </g>
     </g>
    </g>
    <g id="xtick_2">
     <g id="line2d_2">
      <g>
       <use xlink:href="#ma9cc8aaca7" x="87.073086" y="188.6" style="stroke: #000000; stroke-width: 0.8"/>
      </g>
     </g>
     <g id="text_2">
      <!-- 200 -->
      <g transform="translate(77.529336 203.198437) scale(0.1 -0.1)">
       <defs>
        <path id="DejaVuSans-32" d="M 1228 531 
L 3431 531 
L 3431 0 
L 469 0 
L 469 531 
Q 828 903 1448 1529 
Q 2069 2156 2228 2338 
Q 2531 2678 2651 2914 
Q 2772 3150 2772 3378 
Q 2772 3750 2511 3984 
Q 2250 4219 1831 4219 
Q 1534 4219 1204 4116 
Q 875 4013 500 3803 
L 500 4441 
Q 881 4594 1212 4672 
Q 1544 4750 1819 4750 
Q 2544 4750 2975 4387 
Q 3406 4025 3406 3419 
Q 3406 3131 3298 2873 
Q 3191 2616 2906 2266 
Q 2828 2175 2409 1742 
Q 1991 1309 1228 531 
z
" transform="scale(0.015625)"/>
       </defs>
       <use xlink:href="#DejaVuSans-32"/>
       <use xlink:href="#DejaVuSans-30" transform="translate(63.623047 0)"/>
       <use xlink:href="#DejaVuSans-30" transform="translate(127.246094 0)"/>
      </g>
     </g>
    </g>
    <g id="xtick_3">
     <g id="line2d_3">
      <g>
       <use xlink:href="#ma9cc8aaca7" x="130.007695" y="188.6" style="stroke: #000000; stroke-width: 0.8"/>
      </g>
     </g>
     <g id="text_3">
      <!-- 400 -->
      <g transform="translate(120.463945 203.198437) scale(0.1 -0.1)">
       <defs>
        <path id="DejaVuSans-34" d="M 2419 4116 
L 825 1625 
L 2419 1625 
L 2419 4116 
z
M 2253 4666 
L 3047 4666 
L 3047 1625 
L 3713 1625 
L 3713 1100 
L 3047 1100 
L 3047 0 
L 2419 0 
L 2419 1100 
L 313 1100 
L 313 1709 
L 2253 4666 
z
" transform="scale(0.015625)"/>
       </defs>
       <use xlink:href="#DejaVuSans-34"/>
       <use xlink:href="#DejaVuSans-30" transform="translate(63.623047 0)"/>
       <use xlink:href="#DejaVuSans-30" transform="translate(127.246094 0)"/>
      </g>
     </g>
    </g>
    <g id="xtick_4">
     <g id="line2d_4">
      <g>
       <use xlink:href="#ma9cc8aaca7" x="172.942305" y="188.6" style="stroke: #000000; stroke-width: 0.8"/>
      </g>
     </g>
     <g id="text_4">
      <!-- 600 -->
      <g transform="translate(163.398555 203.198437) scale(0.1 -0.1)">
       <defs>
        <path id="DejaVuSans-36" d="M 2113 2584 
Q 1688 2584 1439 2293 
Q 1191 2003 1191 1497 
Q 1191 994 1439 701 
Q 1688 409 2113 409 
Q 2538 409 2786 701 
Q 3034 994 3034 1497 
Q 3034 2003 2786 2293 
Q 2538 2584 2113 2584 
z
M 3366 4563 
L 3366 3988 
Q 3128 4100 2886 4159 
Q 2644 4219 2406 4219 
Q 1781 4219 1451 3797 
Q 1122 3375 1075 2522 
Q 1259 2794 1537 2939 
Q 1816 3084 2150 3084 
Q 2853 3084 3261 2657 
Q 3669 2231 3669 1497 
Q 3669 778 3244 343 
Q 2819 -91 2113 -91 
Q 1303 -91 875 529 
Q 447 1150 447 2328 
Q 447 3434 972 4092 
Q 1497 4750 2381 4750 
Q 2619 4750 2861 4703 
Q 3103 4656 3366 4563 
z
" transform="scale(0.015625)"/>
       </defs>
       <use xlink:href="#DejaVuSans-36"/>
       <use xlink:href="#DejaVuSans-30" transform="translate(63.623047 0)"/>
       <use xlink:href="#DejaVuSans-30" transform="translate(127.246094 0)"/>
      </g>
     </g>
    </g>
    <g id="xtick_5">
     <g id="line2d_5">
      <g>
       <use xlink:href="#ma9cc8aaca7" x="215.876914" y="188.6" style="stroke: #000000; stroke-width: 0.8"/>
      </g>
     </g>
     <g id="text_5">
      <!-- 800 -->
      <g transform="translate(206.333164 203.198437) scale(0.1 -0.1)">
       <defs>
        <path id="DejaVuSans-38" d="M 2034 2216 
Q 1584 2216 1326 1975 
Q 1069 1734 1069 1313 
Q 1069 891 1326 650 
Q 1584 409 2034 409 
Q 2484 409 2743 651 
Q 3003 894 3003 1313 
Q 3003 1734 2745 1975 
Q 2488 2216 2034 2216 
z
M 1403 2484 
Q 997 2584 770 2862 
Q 544 3141 544 3541 
Q 544 4100 942 4425 
Q 1341 4750 2034 4750 
Q 2731 4750 3128 4425 
Q 3525 4100 3525 3541 
Q 3525 3141 3298 2862 
Q 3072 2584 2669 2484 
Q 3125 2378 3379 2068 
Q 3634 1759 3634 1313 
Q 3634 634 3220 271 
Q 2806 -91 2034 -91 
Q 1263 -91 848 271 
Q 434 634 434 1313 
Q 434 1759 690 2068 
Q 947 2378 1403 2484 
z
M 1172 3481 
Q 1172 3119 1398 2916 
Q 1625 2713 2034 2713 
Q 2441 2713 2670 2916 
Q 2900 3119 2900 3481 
Q 2900 3844 2670 4047 
Q 2441 4250 2034 4250 
Q 1625 4250 1398 4047 
Q 1172 3844 1172 3481 
z
" transform="scale(0.015625)"/>
       </defs>
       <use xlink:href="#DejaVuSans-38"/>
       <use xlink:href="#DejaVuSans-30" transform="translate(63.623047 0)"/>
       <use xlink:href="#DejaVuSans-30" transform="translate(127.246094 0)"/>
      </g>
     </g>
    </g>
    <g id="xtick_6">
     <g id="line2d_6">
      <g>
       <use xlink:href="#ma9cc8aaca7" x="258.811523" y="188.6" style="stroke: #000000; stroke-width: 0.8"/>
      </g>
     </g>
     <g id="text_6">
      <!-- 1000 -->
      <g transform="translate(246.086523 203.198437) scale(0.1 -0.1)">
       <defs>
        <path id="DejaVuSans-31" d="M 794 531 
L 1825 531 
L 1825 4091 
L 703 3866 
L 703 4441 
L 1819 4666 
L 2450 4666 
L 2450 531 
L 3481 531 
L 3481 0 
L 794 0 
L 794 531 
z
" transform="scale(0.015625)"/>
       </defs>
       <use xlink:href="#DejaVuSans-31"/>
       <use xlink:href="#DejaVuSans-30" transform="translate(63.623047 0)"/>
       <use xlink:href="#DejaVuSans-30" transform="translate(127.246094 0)"/>
       <use xlink:href="#DejaVuSans-30" transform="translate(190.869141 0)"/>
      </g>
     </g>
    </g>
    <g id="text_7">
     <!-- q (nm) -->
     <g transform="translate(134.771094 216.876563) scale(0.1 -0.1)">
      <defs>
       <path id="DejaVuSans-71" d="M 947 1747 
Q 947 1113 1208 752 
Q 1469 391 1925 391 
Q 2381 391 2643 752 
Q 2906 1113 2906 1747 
Q 2906 2381 2643 2742 
Q 2381 3103 1925 3103 
Q 1469 3103 1208 2742 
Q 947 2381 947 1747 
z
M 2906 525 
Q 2725 213 2448 61 
Q 2172 -91 1784 -91 
Q 1150 -91 751 415 
Q 353 922 353 1747 
Q 353 2572 751 3078 
Q 1150 3584 1784 3584 
Q 2172 3584 2448 3432 
Q 2725 3281 2906 2969 
L 2906 3500 
L 3481 3500 
L 3481 -1331 
L 2906 -1331 
L 2906 525 
z
" transform="scale(0.015625)"/>
       <path id="DejaVuSans-20" transform="scale(0.015625)"/>
       <path id="DejaVuSans-28" d="M 1984 4856 
Q 1566 4138 1362 3434 
Q 1159 2731 1159 2009 
Q 1159 1288 1364 580 
Q 1569 -128 1984 -844 
L 1484 -844 
Q 1016 -109 783 600 
Q 550 1309 550 2009 
Q 550 2706 781 3412 
Q 1013 4119 1484 4856 
L 1984 4856 
z
" transform="scale(0.015625)"/>
       <path id="DejaVuSans-6e" d="M 3513 2113 
L 3513 0 
L 2938 0 
L 2938 2094 
Q 2938 2591 2744 2837 
Q 2550 3084 2163 3084 
Q 1697 3084 1428 2787 
Q 1159 2491 1159 1978 
L 1159 0 
L 581 0 
L 581 3500 
L 1159 3500 
L 1159 2956 
Q 1366 3272 1645 3428 
Q 1925 3584 2291 3584 
Q 2894 3584 3203 3211 
Q 3513 2838 3513 2113 
z
" transform="scale(0.015625)"/>
       <path id="DejaVuSans-6d" d="M 3328 2828 
Q 3544 3216 3844 3400 
Q 4144 3584 4550 3584 
Q 5097 3584 5394 3201 
Q 5691 2819 5691 2113 
L 5691 0 
L 5113 0 
L 5113 2094 
Q 5113 2597 4934 2840 
Q 4756 3084 4391 3084 
Q 3944 3084 3684 2787 
Q 3425 2491 3425 1978 
L 3425 0 
L 2847 0 
L 2847 2094 
Q 2847 2600 2669 2842 
Q 2491 3084 2119 3084 
Q 1678 3084 1418 2786 
Q 1159 2488 1159 1978 
L 1159 0 
L 581 0 
L 581 3500 
L 1159 3500 
L 1159 2956 
Q 1356 3278 1631 3431 
Q 1906 3584 2284 3584 
Q 2666 3584 2933 3390 
Q 3200 3197 3328 2828 
z
" transform="scale(0.015625)"/>
       <path id="DejaVuSans-29" d="M 513 4856 
L 1013 4856 
Q 1481 4119 1714 3412 
Q 1947 2706 1947 2009 
Q 1947 1309 1714 600 
Q 1481 -109 1013 -844 
L 513 -844 
Q 928 -128 1133 580 
Q 1338 1288 1338 2009 
Q 1338 2731 1133 3434 
Q 928 4138 513 4856 
z
" transform="scale(0.015625)"/>
      </defs>
      <use xlink:href="#DejaVuSans-71"/>
      <use xlink:href="#DejaVuSans-20" transform="translate(63.476562 0)"/>
      <use xlink:href="#DejaVuSans-28" transform="translate(95.263672 0)"/>
      <use xlink:href="#DejaVuSans-6e" transform="translate(134.277344 0)"/>
      <use xlink:href="#DejaVuSans-6d" transform="translate(197.65625 0)"/>
      <use xlink:href="#DejaVuSans-29" transform="translate(295.068359 0)"/>
     </g>
    </g>
   </g>
   <g id="matplotlib.axis_2">
    <g id="ytick_1">
     <g id="line2d_7">
      <defs>
       <path id="md334d754b6" d="M 0 0 
L -3.5 0 
" style="stroke: #000000; stroke-width: 0.8"/>
      </defs>
      <g>
       <use xlink:href="#md334d754b6" x="33.7" y="180.687273" style="stroke: #000000; stroke-width: 0.8"/>
      </g>
     </g>
     <g id="text_8">
      <!-- 0 -->
      <g transform="translate(20.3375 184.486491) scale(0.1 -0.1)">
       <use xlink:href="#DejaVuSans-30"/>
      </g>
     </g>
    </g>
    <g id="ytick_2">
     <g id="line2d_8">
      <g>
       <use xlink:href="#md334d754b6" x="33.7" y="143.943069" style="stroke: #000000; stroke-width: 0.8"/>
      </g>
     </g>
     <g id="text_9">
      <!-- 20000 -->
      <g transform="translate(-5.1125 147.742287) scale(0.1 -0.1)">
       <use xlink:href="#DejaVuSans-32"/>
       <use xlink:href="#DejaVuSans-30" transform="translate(63.623047 0)"/>
       <use xlink:href="#DejaVuSans-30" transform="translate(127.246094 0)"/>
       <use xlink:href="#DejaVuSans-30" transform="translate(190.869141 0)"/>
       <use xlink:href="#DejaVuSans-30" transform="translate(254.492188 0)"/>
      </g>
     </g>
    </g>
    <g id="ytick_3">
     <g id="line2d_9">
      <g>
       <use xlink:href="#md334d754b6" x="33.7" y="107.198865" style="stroke: #000000; stroke-width: 0.8"/>
      </g>
     </g>
     <g id="text_10">
      <!-- 40000 -->
      <g transform="translate(-5.1125 110.998083) scale(0.1 -0.1)">
       <use xlink:href="#DejaVuSans-34"/>
       <use xlink:href="#DejaVuSans-30" transform="translate(63.623047 0)"/>
       <use xlink:href="#DejaVuSans-30" transform="translate(127.246094 0)"/>
       <use xlink:href="#DejaVuSans-30" transform="translate(190.869141 0)"/>
       <use xlink:href="#DejaVuSans-30" transform="translate(254.492188 0)"/>
      </g>
     </g>
    </g>
    <g id="ytick_4">
     <g id="line2d_10">
      <g>
       <use xlink:href="#md334d754b6" x="33.7" y="70.454661" style="stroke: #000000; stroke-width: 0.8"/>
      </g>
     </g>
     <g id="text_11">
      <!-- 60000 -->
      <g transform="translate(-5.1125 74.253879) scale(0.1 -0.1)">
       <use xlink:href="#DejaVuSans-36"/>
       <use xlink:href="#DejaVuSans-30" transform="translate(63.623047 0)"/>
       <use xlink:href="#DejaVuSans-30" transform="translate(127.246094 0)"/>
       <use xlink:href="#DejaVuSans-30" transform="translate(190.869141 0)"/>
       <use xlink:href="#DejaVuSans-30" transform="translate(254.492188 0)"/>
      </g>
     </g>
    </g>
    <g id="ytick_5">
     <g id="line2d_11">
      <g>
       <use xlink:href="#md334d754b6" x="33.7" y="33.710456" style="stroke: #000000; stroke-width: 0.8"/>
      </g>
     </g>
     <g id="text_12">
      <!-- 80000 -->
      <g transform="translate(-5.1125 37.509675) scale(0.1 -0.1)">
       <use xlink:href="#DejaVuSans-38"/>
       <use xlink:href="#DejaVuSans-30" transform="translate(63.623047 0)"/>
       <use xlink:href="#DejaVuSans-30" transform="translate(127.246094 0)"/>
       <use xlink:href="#DejaVuSans-30" transform="translate(190.869141 0)"/>
       <use xlink:href="#DejaVuSans-30" transform="translate(254.492188 0)"/>
      </g>
     </g>
    </g>
    <g id="text_13">
     <!-- rdf -->
     <g transform="translate(-11.192187 108.462344) rotate(-90) scale(0.1 -0.1)">
      <defs>
       <path id="DejaVuSans-72" d="M 2631 2963 
Q 2534 3019 2420 3045 
Q 2306 3072 2169 3072 
Q 1681 3072 1420 2755 
Q 1159 2438 1159 1844 
L 1159 0 
L 581 0 
L 581 3500 
L 1159 3500 
L 1159 2956 
Q 1341 3275 1631 3429 
Q 1922 3584 2338 3584 
Q 2397 3584 2469 3576 
Q 2541 3569 2628 3553 
L 2631 2963 
z
" transform="scale(0.015625)"/>
       <path id="DejaVuSans-64" d="M 2906 2969 
L 2906 4863 
L 3481 4863 
L 3481 0 
L 2906 0 
L 2906 525 
Q 2725 213 2448 61 
Q 2172 -91 1784 -91 
Q 1150 -91 751 415 
Q 353 922 353 1747 
Q 353 2572 751 3078 
Q 1150 3584 1784 3584 
Q 2172 3584 2448 3432 
Q 2725 3281 2906 2969 
z
M 947 1747 
Q 947 1113 1208 752 
Q 1469 391 1925 391 
Q 2381 391 2643 752 
Q 2906 1113 2906 1747 
Q 2906 2381 2643 2742 
Q 2381 3103 1925 3103 
Q 1469 3103 1208 2742 
Q 947 2381 947 1747 
z
" transform="scale(0.015625)"/>
       <path id="DejaVuSans-66" d="M 2375 4863 
L 2375 4384 
L 1825 4384 
Q 1516 4384 1395 4259 
Q 1275 4134 1275 3809 
L 1275 3500 
L 2222 3500 
L 2222 3053 
L 1275 3053 
L 1275 0 
L 697 0 
L 697 3053 
L 147 3053 
L 147 3500 
L 697 3500 
L 697 3744 
Q 697 4328 969 4595 
Q 1241 4863 1831 4863 
L 2375 4863 
z
" transform="scale(0.015625)"/>
      </defs>
      <use xlink:href="#DejaVuSans-72"/>
      <use xlink:href="#DejaVuSans-64" transform="translate(39.363281 0)"/>
      <use xlink:href="#DejaVuSans-66" transform="translate(102.839844 0)"/>
     </g>
    </g>
   </g>
   <g id="line2d_12">
    <path d="M 44.406818 180.687273 
L 94.854984 180.687273 
L 95.391667 137.552451 
L 95.928349 22.432727 
L 96.465032 174.084524 
L 97.001715 178.682683 
L 97.538397 177.740522 
L 98.07508 177.536291 
L 98.611762 175.71023 
L 99.148445 176.059302 
L 99.685128 175.075444 
L 100.22181 175.425204 
L 100.758493 176.239338 
L 101.831858 178.621788 
L 102.905223 179.212661 
L 103.441906 179.96325 
L 104.515271 179.779213 
L 105.051954 180.412771 
L 105.588636 180.080387 
L 106.125319 179.95831 
L 106.662002 179.319406 
L 107.198684 179.214522 
L 107.735367 178.23197 
L 108.272049 176.663305 
L 108.808732 177.764845 
L 109.345415 177.333669 
L 109.882097 178.095144 
L 110.41878 179.296188 
L 110.955463 178.634029 
L 111.492145 178.217585 
L 112.028828 176.709602 
L 112.56551 176.064791 
L 113.102193 174.690899 
L 113.638876 172.77996 
L 114.175558 173.47171 
L 114.712241 173.069803 
L 115.248923 174.644635 
L 115.785606 175.330075 
L 116.322289 175.067343 
L 116.858971 174.475886 
L 117.395654 173.665067 
L 117.932337 173.860345 
L 119.005702 176.916707 
L 119.542384 177.149323 
L 120.079067 179.09775 
L 120.61575 179.773018 
L 121.152432 179.95744 
L 121.689115 179.925169 
L 122.225797 180.311441 
L 123.835845 180.486828 
L 124.372528 180.093956 
L 125.445893 179.801383 
L 127.055941 177.020741 
L 127.592624 175.714987 
L 128.129306 175.742236 
L 128.665989 175.092057 
L 129.202671 175.19763 
L 129.739354 175.057755 
L 130.276037 176.809288 
L 130.812719 177.874006 
L 131.349402 178.008964 
L 131.886085 179.33138 
L 132.422767 180.262566 
L 132.95945 180.106301 
L 134.032815 180.277644 
L 135.10618 179.825693 
L 135.642863 178.801799 
L 136.716228 174.923572 
L 137.252911 173.844438 
L 137.789593 173.835576 
L 138.326276 173.683811 
L 139.399641 171.399561 
L 139.936324 171.114859 
L 140.473006 172.757752 
L 141.009689 175.748774 
L 141.546372 178.003635 
L 142.083054 177.767526 
L 143.156419 177.596748 
L 143.693102 177.193224 
L 144.229785 177.510178 
L 145.30315 176.283462 
L 145.839833 171.652335 
L 146.376515 163.829762 
L 147.44988 176.321433 
L 147.986563 175.233108 
L 149.059928 174.534558 
L 149.596611 175.123629 
L 150.133293 176.26772 
L 151.743341 178.532133 
L 152.280024 177.987358 
L 152.816707 177.60434 
L 153.353389 177.783992 
L 153.890072 178.235108 
L 154.426754 178.321718 
L 154.963437 178.883597 
L 155.50012 178.510834 
L 156.036802 178.714678 
L 156.573485 178.370908 
L 157.110167 178.572426 
L 157.64685 177.959944 
L 160.330263 180.140306 
L 160.866946 180.126638 
L 161.403628 180.298412 
L 163.013676 179.660188 
L 163.550359 178.937249 
L 164.087041 177.71402 
L 164.623724 176.880951 
L 165.160407 176.340923 
L 165.697089 175.569289 
L 166.233772 176.212016 
L 166.770455 176.301921 
L 168.380502 177.305614 
L 168.917185 177.432763 
L 169.453868 177.37951 
L 169.99055 176.314441 
L 172.137281 173.957655 
L 172.673963 174.306586 
L 173.210646 174.145551 
L 173.747329 174.775625 
L 174.284011 176.16225 
L 174.820694 176.765928 
L 175.357376 177.611297 
L 175.894059 177.709641 
L 176.430742 177.209978 
L 176.967424 177.555519 
L 177.504107 177.566356 
L 178.040789 177.3783 
L 178.577472 177.489197 
L 179.114155 177.388786 
L 179.650837 177.636712 
L 180.18752 178.348584 
L 180.724203 178.653564 
L 181.797568 179.948235 
L 182.33425 180.047294 
L 182.870933 180.277145 
L 183.407616 180.240916 
L 183.944298 179.801401 
L 184.480981 179.575455 
L 186.091029 177.464962 
L 186.627711 176.949904 
L 187.701077 177.734505 
L 188.237759 177.928134 
L 188.774442 177.072188 
L 189.847807 174.138924 
L 190.38449 174.234522 
L 190.921172 175.309832 
L 192.53122 177.160421 
L 193.067903 177.633516 
L 193.604585 177.894771 
L 194.141268 178.480539 
L 194.677951 178.597371 
L 195.214633 178.221729 
L 195.751316 176.344894 
L 196.287998 176.507462 
L 196.824681 177.268586 
L 197.898046 177.488471 
L 198.434729 176.783411 
L 199.508094 177.2169 
L 200.044777 177.659782 
L 200.581459 178.731316 
L 201.654825 179.342856 
L 202.72819 178.713046 
L 203.264872 178.555381 
L 203.801555 178.150164 
L 204.87492 178.016388 
L 205.411603 177.985184 
L 205.948285 177.507083 
L 207.021651 177.424095 
L 207.558333 176.902022 
L 208.095016 176.661532 
L 209.705064 176.637281 
L 210.241746 176.45113 
L 210.778429 176.936855 
L 211.315112 176.942676 
L 211.851794 177.419244 
L 213.461842 177.010378 
L 213.998525 177.183608 
L 214.535207 177.205639 
L 215.07189 177.959527 
L 215.608573 178.167106 
L 216.145255 178.509848 
L 216.681938 178.480611 
L 217.21862 178.73227 
L 218.828668 177.883669 
L 219.365351 177.967173 
L 219.902033 177.604602 
L 220.438716 177.623337 
L 222.048764 178.59565 
L 223.122129 178.231168 
L 223.658812 178.206346 
L 224.195494 177.058717 
L 224.732177 177.056813 
L 225.26886 177.171423 
L 226.878907 179.436761 
L 227.41559 179.754876 
L 227.952273 179.843209 
L 229.562321 179.324573 
L 230.099003 179.214605 
L 231.172368 178.67827 
L 232.245734 178.85225 
L 232.782416 178.769642 
L 235.465829 179.567352 
L 236.002512 179.615114 
L 236.539195 179.36658 
L 238.685925 176.455604 
L 239.75929 175.557021 
L 240.295973 175.412986 
L 240.832656 175.75767 
L 241.369338 176.471754 
L 241.906021 177.510225 
L 242.442703 177.592159 
L 242.979386 178.362346 
L 243.516069 178.125022 
L 244.052751 178.036826 
L 244.589434 177.639087 
L 245.126116 177.478835 
L 246.199482 178.566824 
L 246.736164 178.714514 
L 247.272847 179.058165 
L 247.80953 178.91327 
L 248.882895 178.409437 
L 249.419577 178.342788 
L 249.95626 177.994336 
L 250.492943 178.229578 
L 251.029625 178.034116 
L 251.566308 178.000469 
L 252.10299 178.202718 
L 252.639673 177.735188 
L 253.176356 177.552204 
L 254.249721 176.903551 
L 254.786404 176.853944 
L 255.323086 176.97618 
L 255.859769 177.449405 
L 256.396451 177.567491 
L 256.933134 177.453863 
L 257.469817 177.833784 
L 258.006499 177.786857 
L 258.543182 177.856758 
L 258.543182 177.856758 
" clip-path="url(#p55f715bb3b)" style="fill: none; stroke: #000000; stroke-opacity: 0.5; stroke-width: 0.5; stroke-linecap: square"/>
   </g>
   <g id="line2d_13">
    <path d="M 44.406818 180.687273 
L 92.171571 180.687273 
L 92.708254 180.35671 
L 93.244936 180.687273 
L 93.781619 180.37085 
L 94.318301 180.377582 
L 94.854984 180.687273 
L 95.391667 179.499853 
L 96.465032 177.839256 
L 97.538397 171.662849 
L 98.07508 171.03739 
L 98.611762 165.445077 
L 99.148445 166.514111 
L 99.685128 163.501043 
L 100.22181 164.572183 
L 100.758493 167.065471 
L 101.831858 174.361723 
L 102.368541 175.397701 
L 102.905223 176.171273 
L 103.441906 178.691684 
L 103.978589 178.291779 
L 104.515271 178.762011 
L 105.051954 179.846612 
L 105.588636 179.654723 
L 106.125319 178.657774 
L 106.662002 176.69766 
L 107.198684 176.373074 
L 108.272049 169.880595 
L 108.808732 172.483165 
L 109.345415 171.884062 
L 109.882097 173.831386 
L 110.41878 177.314617 
L 110.955463 176.84457 
L 111.492145 178.968314 
L 112.028828 179.16457 
L 112.56551 180.354182 
L 113.638876 179.072863 
L 114.175558 179.892393 
L 114.712241 177.712497 
L 115.248923 176.060878 
L 115.785606 173.243619 
L 116.858971 164.319185 
L 117.395654 160.489533 
L 117.932337 160.782216 
L 119.005702 169.279039 
L 119.542384 171.086663 
L 120.079067 176.089797 
L 120.61575 178.420682 
L 122.225797 180.559386 
L 122.76248 180.182684 
L 123.299163 180.313944 
L 123.835845 180.687273 
L 124.909211 180.089617 
L 125.445893 180.333398 
L 125.982576 180.221607 
L 126.519258 180.457464 
L 127.055941 180.006742 
L 127.592624 180.127433 
L 128.129306 180.576731 
L 129.202671 180.579503 
L 129.739354 180.261584 
L 130.276037 180.582172 
L 130.812719 180.375864 
L 131.886085 180.383437 
L 132.422767 180.587222 
L 132.95945 180.193043 
L 134.569498 179.829057 
L 135.10618 178.33139 
L 135.642863 175.751209 
L 136.716228 164.946648 
L 137.252911 162.429311 
L 138.326276 166.622941 
L 139.399641 162.039943 
L 139.936324 163.012986 
L 141.546372 178.057308 
L 142.083054 179.467946 
L 142.619737 179.96363 
L 143.693102 179.743109 
L 144.229785 180.064562 
L 144.766467 179.763142 
L 145.30315 180.153902 
L 145.839833 178.500854 
L 146.376515 167.1093 
L 146.913198 167.398371 
L 147.44988 178.568469 
L 147.986563 180.542655 
L 148.523246 180.47257 
L 149.059928 180.616436 
L 150.133293 180.548453 
L 150.669976 180.275 
L 151.206659 180.551223 
L 151.743341 180.619925 
L 152.280024 180.487229 
L 152.816707 180.621248 
L 153.353389 180.491141 
L 154.963437 180.623781 
L 156.036802 180.500435 
L 156.573485 180.317158 
L 157.110167 180.626172 
L 157.64685 180.505698 
L 158.183533 180.56736 
L 158.720215 180.509085 
L 159.256898 180.569586 
L 159.793581 180.395779 
L 161.940311 180.350113 
L 162.476994 180.297477 
L 163.013676 180.411356 
L 163.550359 180.14039 
L 164.087041 180.199473 
L 164.623724 179.935217 
L 165.160407 179.515931 
L 165.697089 178.206903 
L 166.233772 178.176346 
L 167.307137 174.467513 
L 167.84382 173.706019 
L 168.380502 174.069325 
L 168.917185 174.176208 
L 169.453868 174.62912 
L 170.527233 171.900182 
L 171.063915 170.1349 
L 172.137281 167.360141 
L 173.210646 167.674517 
L 173.747329 168.98903 
L 175.357376 177.064128 
L 175.894059 178.216608 
L 176.430742 178.459403 
L 176.967424 177.505006 
L 177.504107 177.267506 
L 178.040789 177.903758 
L 178.577472 178.184813 
L 179.114155 178.67551 
L 179.650837 178.776339 
L 180.18752 179.46548 
L 180.724203 179.893068 
L 181.797568 180.111159 
L 182.870933 180.039006 
L 183.407616 180.043994 
L 185.554346 176.865917 
L 186.091029 176.701242 
L 186.627711 176.155085 
L 187.164394 177.142062 
L 187.701077 177.357687 
L 188.237759 178.095981 
L 188.774442 179.121649 
L 189.847807 179.952682 
L 190.38449 179.848683 
L 191.994537 177.26289 
L 192.53122 177.358444 
L 193.604585 176.323988 
L 194.141268 177.290883 
L 194.677951 177.41829 
L 195.214633 177.988144 
L 195.751316 177.226939 
L 196.287998 176.948129 
L 197.361364 174.675227 
L 197.898046 175.508741 
L 198.434729 174.431066 
L 198.971411 175.677893 
L 200.044777 176.9016 
L 200.581459 178.106424 
L 201.118142 178.440492 
L 202.191507 177.128591 
L 202.72819 175.912427 
L 203.264872 176.006161 
L 203.801555 175.82344 
L 204.338238 176.129443 
L 204.87492 176.884219 
L 205.411603 177.419189 
L 205.948285 176.755799 
L 207.021651 177.983153 
L 207.558333 177.82569 
L 208.095016 177.844389 
L 209.168381 178.539809 
L 209.705064 178.098552 
L 210.241746 177.493438 
L 210.778429 177.71055 
L 211.315112 178.092362 
L 211.851794 178.885217 
L 212.388477 179.475192 
L 212.925159 180.276685 
L 214.535207 180.311265 
L 215.608573 180.475094 
L 216.681938 180.268178 
L 218.291986 179.144592 
L 218.828668 178.208566 
L 219.365351 177.893572 
L 220.438716 175.995621 
L 221.512081 176.845376 
L 222.048764 178.198946 
L 222.585447 178.311833 
L 223.122129 178.593821 
L 223.658812 178.170791 
L 224.195494 177.127439 
L 224.732177 176.789896 
L 225.26886 176.670337 
L 225.805542 177.61557 
L 226.342225 178.103416 
L 226.878907 179.099351 
L 227.41559 179.805097 
L 227.952273 180.179516 
L 229.025638 179.501013 
L 229.562321 179.031574 
L 230.635686 177.189666 
L 231.172368 176.228888 
L 232.245734 177.02892 
L 232.782416 178.189165 
L 233.319099 178.922366 
L 233.855781 179.993965 
L 234.392464 179.997872 
L 234.929147 180.13028 
L 235.465829 179.92037 
L 236.539195 179.128408 
L 237.075877 177.880133 
L 237.61256 177.166556 
L 238.149242 176.212272 
L 238.685925 176.442989 
L 239.222608 176.937577 
L 239.75929 175.857699 
L 240.832656 174.922632 
L 241.369338 175.435057 
L 241.906021 176.460432 
L 242.442703 176.760913 
L 242.979386 177.511832 
L 243.516069 177.470046 
L 244.052751 177.097064 
L 245.662799 178.075876 
L 246.199482 178.72001 
L 247.272847 179.553376 
L 247.80953 179.446545 
L 248.346212 178.948163 
L 248.882895 178.659619 
L 249.419577 178.189082 
L 249.95626 177.392107 
L 250.492943 178.013557 
L 251.566308 178.095528 
L 252.10299 179.02845 
L 252.639673 178.875533 
L 253.176356 179.241746 
L 253.713038 178.680989 
L 254.249721 177.843353 
L 254.786404 177.576638 
L 255.323086 177.64489 
L 255.859769 177.138398 
L 256.396451 177.139015 
L 257.469817 175.958034 
L 258.543182 175.479416 
L 258.543182 175.479416 
" clip-path="url(#p55f715bb3b)" style="fill: none; stroke: #0000ff; stroke-opacity: 0.5; stroke-linecap: square"/>
   </g>
   <g id="line2d_14">
    <path d="M 44.406818 180.687273 
L 102.905223 180.687273 
L 103.441906 180.293082 
L 103.978589 180.687273 
L 104.515271 179.166078 
L 105.051954 180.687273 
L 105.588636 179.218758 
L 106.125319 180.326473 
L 107.198684 180.338651 
L 107.735367 180.687273 
L 108.272049 177.99087 
L 108.808732 179.361357 
L 109.345415 178.731004 
L 109.882097 178.762814 
L 110.41878 179.109422 
L 110.955463 176.339972 
L 111.492145 170.297124 
L 112.028828 162.038872 
L 113.102193 149.789294 
L 113.638876 140.506416 
L 114.712241 145.059554 
L 115.248923 156.287327 
L 116.322289 172.705343 
L 116.858971 176.230696 
L 117.395654 178.362353 
L 117.932337 178.905206 
L 118.469019 178.930851 
L 119.005702 180.43994 
L 119.542384 178.980498 
L 120.079067 180.446882 
L 120.61575 179.976186 
L 121.152432 179.986061 
L 121.689115 179.073682 
L 122.225797 179.095789 
L 122.76248 180.238749 
L 123.299163 179.581115 
L 123.835845 179.814225 
L 124.372528 178.533752 
L 125.445893 177.33202 
L 126.519258 169.452176 
L 127.055941 168.185676 
L 127.592624 163.96674 
L 128.665989 169.627514 
L 129.202671 174.74798 
L 129.739354 177.849347 
L 130.276037 179.753048 
L 130.812719 179.764582 
L 131.349402 180.140451 
L 131.886085 180.687273 
L 132.422767 180.687273 
L 132.95945 180.33582 
L 133.496132 180.34003 
L 134.032815 180.687273 
L 134.569498 180.348224 
L 135.10618 180.687273 
L 135.642863 180.521702 
L 136.179545 180.687273 
L 136.716228 180.687273 
L 137.252911 180.527378 
L 137.789593 180.529206 
L 138.326276 180.687273 
L 139.399641 180.687273 
L 140.473006 180.388506 
L 141.009689 180.53954 
L 141.546372 180.541164 
L 142.083054 180.687273 
L 142.619737 180.258447 
L 143.156419 180.545876 
L 143.693102 179.987892 
L 144.229785 180.133752 
L 144.766467 179.455099 
L 145.30315 173.372469 
L 146.376515 126.972223 
L 146.913198 159.293783 
L 147.44988 178.609059 
L 147.986563 180.173075 
L 148.523246 180.687273 
L 153.353389 180.687273 
L 153.890072 180.457089 
L 154.426754 180.687273 
L 155.50012 180.463697 
L 156.036802 180.687273 
L 157.110167 180.470024 
L 157.64685 180.579673 
L 158.183533 180.474095 
L 159.256898 180.687273 
L 159.793581 180.479988 
L 164.087041 180.494562 
L 164.623724 180.305276 
L 165.160407 180.687273 
L 166.233772 180.222286 
L 166.770455 179.949796 
L 167.307137 179.499293 
L 167.84382 178.603655 
L 168.380502 176.915212 
L 168.917185 176.146223 
L 169.453868 174.419458 
L 169.99055 170.796598 
L 170.527233 169.752227 
L 171.063915 170.016576 
L 171.600598 168.143656 
L 172.137281 168.248619 
L 172.673963 169.778799 
L 173.210646 169.12038 
L 173.747329 171.031581 
L 174.284011 173.975742 
L 174.820694 175.167238 
L 175.894059 178.531056 
L 176.430742 178.548518 
L 177.504107 177.257763 
L 178.040789 174.888286 
L 178.577472 176.545272 
L 179.114155 176.121571 
L 180.18752 178.290499 
L 180.724203 178.903797 
L 181.260885 179.949963 
L 181.797568 179.882543 
L 182.33425 180.324322 
L 183.407616 180.25842 
L 183.944298 179.907069 
L 184.480981 180.405727 
L 185.017663 180.338019 
L 185.554346 179.924735 
L 186.091029 180.136882 
L 186.627711 179.867894 
L 187.164394 179.941804 
L 187.701077 179.341986 
L 188.774442 177.108704 
L 189.311124 174.438109 
L 190.38449 165.908648 
L 190.921172 164.922638 
L 191.457855 164.653986 
L 191.994537 167.687303 
L 192.53122 168.725527 
L 193.604585 174.543769 
L 194.141268 175.142147 
L 195.214633 178.439897 
L 195.751316 178.335151 
L 196.287998 179.908752 
L 196.824681 180.092613 
L 197.361364 180.096771 
L 198.434729 180.512579 
L 199.508094 180.400126 
L 200.044777 180.687273 
L 201.118142 180.349728 
L 201.654825 180.631398 
L 202.72819 180.52191 
L 203.264872 180.577773 
L 203.801555 180.41536 
L 204.338238 180.579235 
L 204.87492 180.526297 
L 205.411603 180.260856 
L 205.948285 179.787137 
L 206.484968 179.582686 
L 207.021651 178.231358 
L 207.558333 177.832179 
L 208.095016 176.200545 
L 208.631699 175.358783 
L 209.168381 175.444279 
L 209.705064 176.236823 
L 210.241746 177.672444 
L 210.778429 178.340842 
L 211.315112 179.844004 
L 211.851794 179.947968 
L 212.388477 179.511922 
L 212.925159 179.227404 
L 214.535207 176.390043 
L 215.07189 175.895078 
L 215.608573 177.150957 
L 216.145255 177.219841 
L 217.21862 179.252659 
L 217.755303 179.859414 
L 218.291986 180.001637 
L 218.828668 180.460129 
L 219.365351 180.461519 
L 219.902033 180.328269 
L 220.438716 180.464259 
L 221.512081 180.334755 
L 222.048764 179.98649 
L 222.585447 179.381189 
L 223.122129 178.047468 
L 223.658812 176.213528 
L 224.195494 172.69101 
L 224.732177 172.270852 
L 225.26886 171.560035 
L 225.805542 174.260326 
L 226.342225 176.13551 
L 226.878907 178.570045 
L 227.41559 179.572945 
L 227.952273 180.276964 
L 228.488955 180.442518 
L 230.099003 180.366558 
L 230.635686 180.44812 
L 231.172368 180.409862 
L 232.245734 180.569735 
L 232.782416 180.375618 
L 233.319099 180.416121 
L 233.855781 180.225068 
L 234.392464 180.457473 
L 235.465829 180.497914 
L 236.002512 180.348332 
L 236.539195 179.638667 
L 237.075877 179.272065 
L 237.61256 178.279945 
L 238.149242 176.230688 
L 239.222608 170.706299 
L 239.75929 170.362447 
L 240.295973 171.211497 
L 240.832656 173.735663 
L 241.369338 176.802683 
L 241.906021 178.773232 
L 242.442703 178.431048 
L 242.979386 178.96916 
L 244.052751 177.669416 
L 244.589434 175.063374 
L 245.126116 174.612883 
L 246.736164 179.23493 
L 247.272847 179.94814 
L 248.346212 180.188603 
L 248.882895 180.224282 
L 249.419577 179.766129 
L 249.95626 179.869106 
L 250.492943 179.612903 
L 251.029625 178.517289 
L 251.566308 176.75636 
L 252.10299 175.398272 
L 252.639673 172.90616 
L 253.713038 171.218088 
L 254.249721 171.454838 
L 255.323086 173.693289 
L 255.859769 176.141003 
L 256.396451 177.794818 
L 256.933134 178.268619 
L 257.469817 179.712486 
L 258.543182 180.265065 
L 258.543182 180.265065 
" clip-path="url(#p55f715bb3b)" style="fill: none; stroke: #ff0000; stroke-opacity: 0.5; stroke-linecap: square"/>
   </g>
   <g id="patch_3">
    <path d="M 33.7 188.6 
L 33.7 14.52 
" style="fill: none; stroke: #000000; stroke-width: 0.8; stroke-linejoin: miter; stroke-linecap: square"/>
   </g>
   <g id="patch_4">
    <path d="M 269.25 188.6 
L 269.25 14.52 
" style="fill: none; stroke: #000000; stroke-width: 0.8; stroke-linejoin: miter; stroke-linecap: square"/>
   </g>
   <g id="patch_5">
    <path d="M 33.7 188.6 
L 269.25 188.6 
" style="fill: none; stroke: #000000; stroke-width: 0.8; stroke-linejoin: miter; stroke-linecap: square"/>
   </g>
   <g id="patch_6">
    <path d="M 33.7 14.52 
L 269.25 14.52 
" style="fill: none; stroke: #000000; stroke-width: 0.8; stroke-linejoin: miter; stroke-linecap: square"/>
   </g>
   <g id="legend_1">
    <g id="patch_7">
     <path d="M 213.917188 66.554375 
L 262.25 66.554375 
Q 264.25 66.554375 264.25 64.554375 
L 264.25 21.52 
Q 264.25 19.52 262.25 19.52 
L 213.917188 19.52 
Q 211.917188 19.52 211.917188 21.52 
L 211.917188 64.554375 
Q 211.917188 66.554375 213.917188 66.554375 
z
" style="fill: #ffffff; opacity: 0.8; stroke: #cccccc; stroke-linejoin: miter"/>
    </g>
    <g id="line2d_15">
     <path d="M 215.917188 27.618438 
L 225.917188 27.618438 
L 235.917188 27.618438 
" style="fill: none; stroke: #000000; stroke-opacity: 0.5; stroke-width: 0.5; stroke-linecap: square"/>
    </g>
    <g id="text_14">
     <!-- all -->
     <g transform="translate(243.917188 31.118438) scale(0.1 -0.1)">
      <defs>
       <path id="DejaVuSans-61" d="M 2194 1759 
Q 1497 1759 1228 1600 
Q 959 1441 959 1056 
Q 959 750 1161 570 
Q 1363 391 1709 391 
Q 2188 391 2477 730 
Q 2766 1069 2766 1631 
L 2766 1759 
L 2194 1759 
z
M 3341 1997 
L 3341 0 
L 2766 0 
L 2766 531 
Q 2569 213 2275 61 
Q 1981 -91 1556 -91 
Q 1019 -91 701 211 
Q 384 513 384 1019 
Q 384 1609 779 1909 
Q 1175 2209 1959 2209 
L 2766 2209 
L 2766 2266 
Q 2766 2663 2505 2880 
Q 2244 3097 1772 3097 
Q 1472 3097 1187 3025 
Q 903 2953 641 2809 
L 641 3341 
Q 956 3463 1253 3523 
Q 1550 3584 1831 3584 
Q 2591 3584 2966 3190 
Q 3341 2797 3341 1997 
z
" transform="scale(0.015625)"/>
       <path id="DejaVuSans-6c" d="M 603 4863 
L 1178 4863 
L 1178 0 
L 603 0 
L 603 4863 
z
" transform="scale(0.015625)"/>
      </defs>
      <use xlink:href="#DejaVuSans-61"/>
      <use xlink:href="#DejaVuSans-6c" transform="translate(61.279297 0)"/>
      <use xlink:href="#DejaVuSans-6c" transform="translate(89.0625 0)"/>
     </g>
    </g>
    <g id="line2d_16">
     <path d="M 215.917188 42.296563 
L 225.917188 42.296563 
L 235.917188 42.296563 
" style="fill: none; stroke: #0000ff; stroke-opacity: 0.5; stroke-linecap: square"/>
    </g>
    <g id="text_15">
     <!-- 1-1 -->
     <g transform="translate(243.917188 45.796563) scale(0.1 -0.1)">
      <defs>
       <path id="DejaVuSans-2d" d="M 313 2009 
L 1997 2009 
L 1997 1497 
L 313 1497 
L 313 2009 
z
" transform="scale(0.015625)"/>
      </defs>
      <use xlink:href="#DejaVuSans-31"/>
      <use xlink:href="#DejaVuSans-2d" transform="translate(63.623047 0)"/>
      <use xlink:href="#DejaVuSans-31" transform="translate(99.707031 0)"/>
     </g>
    </g>
    <g id="line2d_17">
     <path d="M 215.917188 56.974688 
L 225.917188 56.974688 
L 235.917188 56.974688 
" style="fill: none; stroke: #ff0000; stroke-opacity: 0.5; stroke-linecap: square"/>
    </g>
    <g id="text_16">
     <!-- 2-2 -->
     <g transform="translate(243.917188 60.474688) scale(0.1 -0.1)">
      <use xlink:href="#DejaVuSans-32"/>
      <use xlink:href="#DejaVuSans-2d" transform="translate(63.623047 0)"/>
      <use xlink:href="#DejaVuSans-32" transform="translate(99.707031 0)"/>
     </g>
    </g>
   </g>
  </g>
 </g>
 <defs>
  <clipPath id="p55f715bb3b">
   <rect x="33.7" y="14.52" width="235.55" height="174.08"/>
  </clipPath>
 </defs>
</svg>
