<?xml version="1.0" encoding="utf-8" standalone="no"?>
<!DOCTYPE svg PUBLIC "-//W3C//DTD SVG 1.1//EN"
  "http://www.w3.org/Graphics/SVG/1.1/DTD/svg11.dtd">
<svg xmlns:xlink="http://www.w3.org/1999/xlink" width="288pt" height="216pt" viewBox="0 0 288 216" xmlns="http://www.w3.org/2000/svg" version="1.1">
 <metadata>
  <rdf:RDF xmlns:dc="http://purl.org/dc/elements/1.1/" xmlns:cc="http://creativecommons.org/ns#" xmlns:rdf="http://www.w3.org/1999/02/22-rdf-syntax-ns#">
   <cc:Work>
    <dc:type rdf:resource="http://purl.org/dc/dcmitype/StillImage"/>
    <dc:date>2025-09-18T00:22:49.685362</dc:date>
    <dc:format>image/svg+xml</dc:format>
    <dc:creator>
     <cc:Agent>
      <dc:title>Matplotlib v3.10.0, https://matplotlib.org/</dc:title>
     </cc:Agent>
    </dc:creator>
   </cc:Work>
  </rdf:RDF>
 </metadata>
 <defs>
  <style type="text/css">*{stroke-linejoin: round; stroke-linecap: butt}</style>
 </defs>
 <g id="figure_1">
  <g id="patch_1">
   <path d="M 0 216 
L 288 216 
L 288 0 
L 0 0 
z
" style="fill: #ffffff"/>
  </g>
  <g id="axes_1">
   <g id="patch_2">
    <path d="M 33.7 188.6 
L 269.25 188.6 
L 269.25 14.52 
L 33.7 14.52 
z
" style="fill: #ffffff"/>
   </g>
   <g id="matplotlib.axis_1">
    <g id="xtick_1">
     <g id="line2d_1">
      <defs>
       <path id="mcb9fd0d661" d="M 0 0 
L 0 3.5 
" style="stroke: #000000; stroke-width: 0.8"/>
      </defs>
      <g>
       <use xlink:href="#mcb9fd0d661" x="44.138477" y="188.6" style="stroke: #000000; stroke-width: 0.8"/>
      </g>
     </g>
     <g id="text_1">
      <!-- 0 -->
      <g transform="translate(40.957227 203.198437) scale(0.1 -0.1)">
       <defs>
        <path id="DejaVuSans-30" d="M 2034 4250 
Q 1547 4250 1301 3770 
Q 1056 3291 1056 2328 
Q 1056 1369 1301 889 
Q 1547 409 2034 409 
Q 2525 409 2770 889 
Q 3016 1369 3016 2328 
Q 3016 3291 2770 3770 
Q 2525 4250 2034 4250 
z
M 2034 4750 
Q 2819 4750 3233 4129 
Q 3647 3509 3647 2328 
Q 3647 1150 3233 529 
Q 2819 -91 2034 -91 
Q 1250 -91 836 529 
Q 422 1150 422 2328 
Q 422 3509 836 4129 
Q 1250 4750 2034 4750 
z
" transform="scale(0.015625)"/>
       </defs>
       <use xlink:href="#DejaVuSans-30"/>
      </g>
     </g>
    </g>
    <g id="xtick_2">
     <g id="line2d_2">
      <g>
       <use xlink:href="#mcb9fd0d661" x="87.073086" y="188.6" style="stroke: #000000; stroke-width: 0.8"/>
      </g>
     </g>
     <g id="text_2">
      <!-- 200 -->
      <g transform="translate(77.529336 203.198437) scale(0.1 -0.1)">
       <defs>
        <path id="DejaVuSans-32" d="M 1228 531 
L 3431 531 
L 3431 0 
L 469 0 
L 469 531 
Q 828 903 1448 1529 
Q 2069 2156 2228 2338 
Q 2531 2678 2651 2914 
Q 2772 3150 2772 3378 
Q 2772 3750 2511 3984 
Q 2250 4219 1831 4219 
Q 1534 4219 1204 4116 
Q 875 4013 500 3803 
L 500 4441 
Q 881 4594 1212 4672 
Q 1544 4750 1819 4750 
Q 2544 4750 2975 4387 
Q 3406 4025 3406 3419 
Q 3406 3131 3298 2873 
Q 3191 2616 2906 2266 
Q 2828 2175 2409 1742 
Q 1991 1309 1228 531 
z
" transform="scale(0.015625)"/>
       </defs>
       <use xlink:href="#DejaVuSans-32"/>
       <use xlink:href="#DejaVuSans-30" transform="translate(63.623047 0)"/>
       <use xlink:href="#DejaVuSans-30" transform="translate(127.246094 0)"/>
      </g>
     </g>
    </g>
    <g id="xtick_3">
     <g id="line2d_3">
      <g>
       <use xlink:href="#mcb9fd0d661" x="130.007695" y="188.6" style="stroke: #000000; stroke-width: 0.8"/>
      </g>
     </g>
     <g id="text_3">
      <!-- 400 -->
      <g transform="translate(120.463945 203.198437) scale(0.1 -0.1)">
       <defs>
        <path id="DejaVuSans-34" d="M 2419 4116 
L 825 1625 
L 2419 1625 
L 2419 4116 
z
M 2253 4666 
L 3047 4666 
L 3047 1625 
L 3713 1625 
L 3713 1100 
L 3047 1100 
L 3047 0 
L 2419 0 
L 2419 1100 
L 313 1100 
L 313 1709 
L 2253 4666 
z
" transform="scale(0.015625)"/>
       </defs>
       <use xlink:href="#DejaVuSans-34"/>
       <use xlink:href="#DejaVuSans-30" transform="translate(63.623047 0)"/>
       <use xlink:href="#DejaVuSans-30" transform="translate(127.246094 0)"/>
      </g>
     </g>
    </g>
    <g id="xtick_4">
     <g id="line2d_4">
      <g>
       <use xlink:href="#mcb9fd0d661" x="172.942305" y="188.6" style="stroke: #000000; stroke-width: 0.8"/>
      </g>
     </g>
     <g id="text_4">
      <!-- 600 -->
      <g transform="translate(163.398555 203.198437) scale(0.1 -0.1)">
       <defs>
        <path id="DejaVuSans-36" d="M 2113 2584 
Q 1688 2584 1439 2293 
Q 1191 2003 1191 1497 
Q 1191 994 1439 701 
Q 1688 409 2113 409 
Q 2538 409 2786 701 
Q 3034 994 3034 1497 
Q 3034 2003 2786 2293 
Q 2538 2584 2113 2584 
z
M 3366 4563 
L 3366 3988 
Q 3128 4100 2886 4159 
Q 2644 4219 2406 4219 
Q 1781 4219 1451 3797 
Q 1122 3375 1075 2522 
Q 1259 2794 1537 2939 
Q 1816 3084 2150 3084 
Q 2853 3084 3261 2657 
Q 3669 2231 3669 1497 
Q 3669 778 3244 343 
Q 2819 -91 2113 -91 
Q 1303 -91 875 529 
Q 447 1150 447 2328 
Q 447 3434 972 4092 
Q 1497 4750 2381 4750 
Q 2619 4750 2861 4703 
Q 3103 4656 3366 4563 
z
" transform="scale(0.015625)"/>
       </defs>
       <use xlink:href="#DejaVuSans-36"/>
       <use xlink:href="#DejaVuSans-30" transform="translate(63.623047 0)"/>
       <use xlink:href="#DejaVuSans-30" transform="translate(127.246094 0)"/>
      </g>
     </g>
    </g>
    <g id="xtick_5">
     <g id="line2d_5">
      <g>
       <use xlink:href="#mcb9fd0d661" x="215.876914" y="188.6" style="stroke: #000000; stroke-width: 0.8"/>
      </g>
     </g>
     <g id="text_5">
      <!-- 800 -->
      <g transform="translate(206.333164 203.198437) scale(0.1 -0.1)">
       <defs>
        <path id="DejaVuSans-38" d="M 2034 2216 
Q 1584 2216 1326 1975 
Q 1069 1734 1069 1313 
Q 1069 891 1326 650 
Q 1584 409 2034 409 
Q 2484 409 2743 651 
Q 3003 894 3003 1313 
Q 3003 1734 2745 1975 
Q 2488 2216 2034 2216 
z
M 1403 2484 
Q 997 2584 770 2862 
Q 544 3141 544 3541 
Q 544 4100 942 4425 
Q 1341 4750 2034 4750 
Q 2731 4750 3128 4425 
Q 3525 4100 3525 3541 
Q 3525 3141 3298 2862 
Q 3072 2584 2669 2484 
Q 3125 2378 3379 2068 
Q 3634 1759 3634 1313 
Q 3634 634 3220 271 
Q 2806 -91 2034 -91 
Q 1263 -91 848 271 
Q 434 634 434 1313 
Q 434 1759 690 2068 
Q 947 2378 1403 2484 
z
M 1172 3481 
Q 1172 3119 1398 2916 
Q 1625 2713 2034 2713 
Q 2441 2713 2670 2916 
Q 2900 3119 2900 3481 
Q 2900 3844 2670 4047 
Q 2441 4250 2034 4250 
Q 1625 4250 1398 4047 
Q 1172 3844 1172 3481 
z
" transform="scale(0.015625)"/>
       </defs>
       <use xlink:href="#DejaVuSans-38"/>
       <use xlink:href="#DejaVuSans-30" transform="translate(63.623047 0)"/>
       <use xlink:href="#DejaVuSans-30" transform="translate(127.246094 0)"/>
      </g>
     </g>
    </g>
    <g id="xtick_6">
     <g id="line2d_6">
      <g>
       <use xlink:href="#mcb9fd0d661" x="258.811523" y="188.6" style="stroke: #000000; stroke-width: 0.8"/>
      </g>
     </g>
     <g id="text_6">
      <!-- 1000 -->
      <g transform="translate(246.086523 203.198437) scale(0.1 -0.1)">
       <defs>
        <path id="DejaVuSans-31" d="M 794 531 
L 1825 531 
L 1825 4091 
L 703 3866 
L 703 4441 
L 1819 4666 
L 2450 4666 
L 2450 531 
L 3481 531 
L 3481 0 
L 794 0 
L 794 531 
z
" transform="scale(0.015625)"/>
       </defs>
       <use xlink:href="#DejaVuSans-31"/>
       <use xlink:href="#DejaVuSans-30" transform="translate(63.623047 0)"/>
       <use xlink:href="#DejaVuSans-30" transform="translate(127.246094 0)"/>
       <use xlink:href="#DejaVuSans-30" transform="translate(190.869141 0)"/>
      </g>
     </g>
    </g>
    <g id="text_7">
     <!-- q (nm) -->
     <g transform="translate(134.771094 216.876563) scale(0.1 -0.1)">
      <defs>
       <path id="DejaVuSans-71" d="M 947 1747 
Q 947 1113 1208 752 
Q 1469 391 1925 391 
Q 2381 391 2643 752 
Q 2906 1113 2906 1747 
Q 2906 2381 2643 2742 
Q 2381 3103 1925 3103 
Q 1469 3103 1208 2742 
Q 947 2381 947 1747 
z
M 2906 525 
Q 2725 213 2448 61 
Q 2172 -91 1784 -91 
Q 1150 -91 751 415 
Q 353 922 353 1747 
Q 353 2572 751 3078 
Q 1150 3584 1784 3584 
Q 2172 3584 2448 3432 
Q 2725 3281 2906 2969 
L 2906 3500 
L 3481 3500 
L 3481 -1331 
L 2906 -1331 
L 2906 525 
z
" transform="scale(0.015625)"/>
       <path id="DejaVuSans-20" transform="scale(0.015625)"/>
       <path id="DejaVuSans-28" d="M 1984 4856 
Q 1566 4138 1362 3434 
Q 1159 2731 1159 2009 
Q 1159 1288 1364 580 
Q 1569 -128 1984 -844 
L 1484 -844 
Q 1016 -109 783 600 
Q 550 1309 550 2009 
Q 550 2706 781 3412 
Q 1013 4119 1484 4856 
L 1984 4856 
z
" transform="scale(0.015625)"/>
       <path id="DejaVuSans-6e" d="M 3513 2113 
L 3513 0 
L 2938 0 
L 2938 2094 
Q 2938 2591 2744 2837 
Q 2550 3084 2163 3084 
Q 1697 3084 1428 2787 
Q 1159 2491 1159 1978 
L 1159 0 
L 581 0 
L 581 3500 
L 1159 3500 
L 1159 2956 
Q 1366 3272 1645 3428 
Q 1925 3584 2291 3584 
Q 2894 3584 3203 3211 
Q 3513 2838 3513 2113 
z
" transform="scale(0.015625)"/>
       <path id="DejaVuSans-6d" d="M 3328 2828 
Q 3544 3216 3844 3400 
Q 4144 3584 4550 3584 
Q 5097 3584 5394 3201 
Q 5691 2819 5691 2113 
L 5691 0 
L 5113 0 
L 5113 2094 
Q 5113 2597 4934 2840 
Q 4756 3084 4391 3084 
Q 3944 3084 3684 2787 
Q 3425 2491 3425 1978 
L 3425 0 
L 2847 0 
L 2847 2094 
Q 2847 2600 2669 2842 
Q 2491 3084 2119 3084 
Q 1678 3084 1418 2786 
Q 1159 2488 1159 1978 
L 1159 0 
L 581 0 
L 581 3500 
L 1159 3500 
L 1159 2956 
Q 1356 3278 1631 3431 
Q 1906 3584 2284 3584 
Q 2666 3584 2933 3390 
Q 3200 3197 3328 2828 
z
" transform="scale(0.015625)"/>
       <path id="DejaVuSans-29" d="M 513 4856 
L 1013 4856 
Q 1481 4119 1714 3412 
Q 1947 2706 1947 2009 
Q 1947 1309 1714 600 
Q 1481 -109 1013 -844 
L 513 -844 
Q 928 -128 1133 580 
Q 1338 1288 1338 2009 
Q 1338 2731 1133 3434 
Q 928 4138 513 4856 
z
" transform="scale(0.015625)"/>
      </defs>
      <use xlink:href="#DejaVuSans-71"/>
      <use xlink:href="#DejaVuSans-20" transform="translate(63.476562 0)"/>
      <use xlink:href="#DejaVuSans-28" transform="translate(95.263672 0)"/>
      <use xlink:href="#DejaVuSans-6e" transform="translate(134.277344 0)"/>
      <use xlink:href="#DejaVuSans-6d" transform="translate(197.65625 0)"/>
      <use xlink:href="#DejaVuSans-29" transform="translate(295.068359 0)"/>
     </g>
    </g>
   </g>
   <g id="matplotlib.axis_2">
    <g id="ytick_1">
     <g id="line2d_7">
      <defs>
       <path id="mb99ee89634" d="M 0 0 
L -3.5 0 
" style="stroke: #000000; stroke-width: 0.8"/>
      </defs>
      <g>
       <use xlink:href="#mb99ee89634" x="33.7" y="180.687273" style="stroke: #000000; stroke-width: 0.8"/>
      </g>
     </g>
     <g id="text_8">
      <!-- 0 -->
      <g transform="translate(20.3375 184.486491) scale(0.1 -0.1)">
       <use xlink:href="#DejaVuSans-30"/>
      </g>
     </g>
    </g>
    <g id="ytick_2">
     <g id="line2d_8">
      <g>
       <use xlink:href="#mb99ee89634" x="33.7" y="140.256523" style="stroke: #000000; stroke-width: 0.8"/>
      </g>
     </g>
     <g id="text_9">
      <!-- 20000 -->
      <g transform="translate(-5.1125 144.055742) scale(0.1 -0.1)">
       <use xlink:href="#DejaVuSans-32"/>
       <use xlink:href="#DejaVuSans-30" transform="translate(63.623047 0)"/>
       <use xlink:href="#DejaVuSans-30" transform="translate(127.246094 0)"/>
       <use xlink:href="#DejaVuSans-30" transform="translate(190.869141 0)"/>
       <use xlink:href="#DejaVuSans-30" transform="translate(254.492188 0)"/>
      </g>
     </g>
    </g>
    <g id="ytick_3">
     <g id="line2d_9">
      <g>
       <use xlink:href="#mb99ee89634" x="33.7" y="99.825774" style="stroke: #000000; stroke-width: 0.8"/>
      </g>
     </g>
     <g id="text_10">
      <!-- 40000 -->
      <g transform="translate(-5.1125 103.624992) scale(0.1 -0.1)">
       <use xlink:href="#DejaVuSans-34"/>
       <use xlink:href="#DejaVuSans-30" transform="translate(63.623047 0)"/>
       <use xlink:href="#DejaVuSans-30" transform="translate(127.246094 0)"/>
       <use xlink:href="#DejaVuSans-30" transform="translate(190.869141 0)"/>
       <use xlink:href="#DejaVuSans-30" transform="translate(254.492188 0)"/>
      </g>
     </g>
    </g>
    <g id="ytick_4">
     <g id="line2d_10">
      <g>
       <use xlink:href="#mb99ee89634" x="33.7" y="59.395024" style="stroke: #000000; stroke-width: 0.8"/>
      </g>
     </g>
     <g id="text_11">
      <!-- 60000 -->
      <g transform="translate(-5.1125 63.194243) scale(0.1 -0.1)">
       <use xlink:href="#DejaVuSans-36"/>
       <use xlink:href="#DejaVuSans-30" transform="translate(63.623047 0)"/>
       <use xlink:href="#DejaVuSans-30" transform="translate(127.246094 0)"/>
       <use xlink:href="#DejaVuSans-30" transform="translate(190.869141 0)"/>
       <use xlink:href="#DejaVuSans-30" transform="translate(254.492188 0)"/>
      </g>
     </g>
    </g>
    <g id="ytick_5">
     <g id="line2d_11">
      <g>
       <use xlink:href="#mb99ee89634" x="33.7" y="18.964274" style="stroke: #000000; stroke-width: 0.8"/>
      </g>
     </g>
     <g id="text_12">
      <!-- 80000 -->
      <g transform="translate(-5.1125 22.763493) scale(0.1 -0.1)">
       <use xlink:href="#DejaVuSans-38"/>
       <use xlink:href="#DejaVuSans-30" transform="translate(63.623047 0)"/>
       <use xlink:href="#DejaVuSans-30" transform="translate(127.246094 0)"/>
       <use xlink:href="#DejaVuSans-30" transform="translate(190.869141 0)"/>
       <use xlink:href="#DejaVuSans-30" transform="translate(254.492188 0)"/>
      </g>
     </g>
    </g>
    <g id="text_13">
     <!-- rdf -->
     <g transform="translate(-11.192187 108.462344) rotate(-90) scale(0.1 -0.1)">
      <defs>
       <path id="DejaVuSans-72" d="M 2631 2963 
Q 2534 3019 2420 3045 
Q 2306 3072 2169 3072 
Q 1681 3072 1420 2755 
Q 1159 2438 1159 1844 
L 1159 0 
L 581 0 
L 581 3500 
L 1159 3500 
L 1159 2956 
Q 1341 3275 1631 3429 
Q 1922 3584 2338 3584 
Q 2397 3584 2469 3576 
Q 2541 3569 2628 3553 
L 2631 2963 
z
" transform="scale(0.015625)"/>
       <path id="DejaVuSans-64" d="M 2906 2969 
L 2906 4863 
L 3481 4863 
L 3481 0 
L 2906 0 
L 2906 525 
Q 2725 213 2448 61 
Q 2172 -91 1784 -91 
Q 1150 -91 751 415 
Q 353 922 353 1747 
Q 353 2572 751 3078 
Q 1150 3584 1784 3584 
Q 2172 3584 2448 3432 
Q 2725 3281 2906 2969 
z
M 947 1747 
Q 947 1113 1208 752 
Q 1469 391 1925 391 
Q 2381 391 2643 752 
Q 2906 1113 2906 1747 
Q 2906 2381 2643 2742 
Q 2381 3103 1925 3103 
Q 1469 3103 1208 2742 
Q 947 2381 947 1747 
z
" transform="scale(0.015625)"/>
       <path id="DejaVuSans-66" d="M 2375 4863 
L 2375 4384 
L 1825 4384 
Q 1516 4384 1395 4259 
Q 1275 4134 1275 3809 
L 1275 3500 
L 2222 3500 
L 2222 3053 
L 1275 3053 
L 1275 0 
L 697 0 
L 697 3053 
L 147 3053 
L 147 3500 
L 697 3500 
L 697 3744 
Q 697 4328 969 4595 
Q 1241 4863 1831 4863 
L 2375 4863 
z
" transform="scale(0.015625)"/>
      </defs>
      <use xlink:href="#DejaVuSans-72"/>
      <use xlink:href="#DejaVuSans-64" transform="translate(39.363281 0)"/>
      <use xlink:href="#DejaVuSans-66" transform="translate(102.839844 0)"/>
     </g>
    </g>
   </g>
   <g id="line2d_12">
    <path d="M 44.406818 180.687273 
L 91.634888 180.687273 
L 92.708254 180.330968 
L 93.244936 180.571086 
L 93.781619 180.687273 
L 94.318301 180.576004 
L 94.854984 180.687273 
L 95.391667 110.613369 
L 95.928349 22.432727 
L 96.465032 179.152371 
L 97.001715 180.587013 
L 97.538397 180.294255 
L 98.07508 180.205728 
L 98.611762 176.53277 
L 99.148445 169.854572 
L 99.685128 166.339794 
L 100.22181 170.176173 
L 100.758493 175.967869 
L 101.295175 178.886255 
L 101.831858 180.013876 
L 103.978589 180.687273 
L 104.515271 180.533555 
L 105.588636 180.464681 
L 106.662002 180.328914 
L 107.198684 179.771331 
L 107.735367 177.77781 
L 108.272049 174.556621 
L 108.808732 174.389988 
L 109.882097 179.131529 
L 110.41878 180.687273 
L 110.955463 180.499002 
L 111.492145 180.563751 
L 112.028828 180.079391 
L 112.56551 178.353579 
L 113.102193 173.146713 
L 113.638876 163.401976 
L 114.175558 162.923356 
L 114.712241 172.643062 
L 115.248923 178.249344 
L 115.785606 179.322762 
L 116.322289 178.15999 
L 116.858971 173.693754 
L 117.395654 163.876384 
L 117.932337 166.383843 
L 118.469019 174.196296 
L 119.005702 178.687819 
L 119.542384 180.046667 
L 120.079067 180.055689 
L 120.61575 180.495657 
L 121.152432 180.687273 
L 121.689115 180.547512 
L 122.225797 180.595375 
L 122.76248 180.415331 
L 124.909211 180.515487 
L 125.445893 180.348222 
L 125.982576 180.059862 
L 126.519258 179.159759 
L 127.055941 175.104323 
L 127.592624 173.365579 
L 128.129306 176.119865 
L 128.665989 176.138459 
L 129.202671 170.774791 
L 129.739354 168.833931 
L 130.276037 175.740501 
L 130.812719 179.083569 
L 131.349402 180.171544 
L 132.95945 180.580729 
L 135.10618 180.314835 
L 135.642863 180.453039 
L 136.179545 179.000555 
L 136.716228 171.53391 
L 137.252911 167.599731 
L 137.789593 175.767672 
L 138.326276 178.602831 
L 138.862959 172.849635 
L 139.399641 160.958295 
L 139.936324 162.705164 
L 140.473006 173.562286 
L 141.009689 178.328568 
L 141.546372 180.067167 
L 142.083054 180.278386 
L 142.619737 180.311719 
L 143.156419 179.715674 
L 143.693102 176.701321 
L 144.229785 172.492995 
L 144.766467 172.856851 
L 145.30315 176.14277 
L 145.839833 170.502064 
L 146.376515 158.385794 
L 146.913198 174.639461 
L 147.44988 179.29599 
L 147.986563 176.608412 
L 148.523246 170.273271 
L 149.059928 165.721973 
L 150.133293 177.719616 
L 150.669976 180.094768 
L 151.206659 180.467306 
L 151.743341 180.251716 
L 152.280024 179.321664 
L 153.353389 173.241114 
L 154.426754 179.213069 
L 154.963437 180.322282 
L 156.036802 180.21737 
L 156.573485 178.71475 
L 157.110167 175.769777 
L 157.64685 175.098526 
L 158.183533 176.982085 
L 158.720215 179.833654 
L 159.256898 180.327859 
L 159.793581 180.603488 
L 162.476994 180.507208 
L 163.013676 180.588138 
L 163.550359 180.333591 
L 164.087041 179.518859 
L 164.623724 175.862147 
L 165.160407 170.778101 
L 165.697089 170.694729 
L 166.233772 176.345655 
L 166.770455 178.414336 
L 167.307137 176.531827 
L 167.84382 175.542502 
L 168.380502 177.910181 
L 168.917185 179.103699 
L 169.453868 179.152919 
L 170.527233 171.970097 
L 171.063915 173.417568 
L 171.600598 175.755071 
L 172.137281 175.31751 
L 172.673963 169.460679 
L 173.210646 167.317058 
L 174.284011 177.891745 
L 174.820694 179.686508 
L 175.357376 179.645861 
L 176.430742 175.13212 
L 176.967424 177.59067 
L 177.504107 177.473769 
L 178.040789 176.905672 
L 178.577472 176.842793 
L 179.114155 177.442322 
L 179.650837 175.621823 
L 180.18752 176.812142 
L 180.724203 179.681036 
L 181.260885 180.359448 
L 181.797568 180.509851 
L 183.944298 180.500923 
L 184.480981 180.473895 
L 185.017663 180.23553 
L 185.554346 178.123442 
L 186.091029 173.985384 
L 186.627711 173.207783 
L 187.164394 177.057731 
L 187.701077 179.749271 
L 188.237759 180.08008 
L 188.774442 178.946154 
L 189.311124 173.787496 
L 189.847807 170.486299 
L 190.38449 173.089321 
L 190.921172 173.040741 
L 191.994537 178.700768 
L 192.53122 177.302793 
L 193.067903 174.889137 
L 193.604585 175.281876 
L 194.141268 178.470821 
L 194.677951 179.871292 
L 195.214633 179.386057 
L 195.751316 175.531368 
L 196.287998 176.959523 
L 196.824681 178.067314 
L 197.361364 177.154772 
L 197.898046 176.776454 
L 198.434729 174.449919 
L 198.971411 172.938668 
L 200.044777 179.223372 
L 200.581459 180.21791 
L 201.118142 180.493988 
L 201.654825 180.371086 
L 202.191507 179.711496 
L 202.72819 177.824291 
L 203.264872 176.64854 
L 203.801555 177.412022 
L 204.338238 177.936123 
L 204.87492 177.846019 
L 205.411603 178.802098 
L 205.948285 178.654065 
L 207.558333 174.875122 
L 208.095016 175.330009 
L 209.168381 177.282098 
L 209.705064 176.690888 
L 210.241746 174.116974 
L 210.778429 174.704066 
L 211.315112 177.950436 
L 211.851794 179.302698 
L 212.388477 178.341564 
L 212.925159 174.589749 
L 213.461842 174.364493 
L 213.998525 176.608737 
L 214.535207 177.763402 
L 215.608573 177.571204 
L 216.145255 178.253507 
L 216.681938 179.633233 
L 217.21862 179.985811 
L 217.755303 179.385961 
L 218.291986 176.696515 
L 218.828668 176.647537 
L 219.365351 177.082888 
L 219.902033 177.857621 
L 220.438716 177.622418 
L 220.975399 176.485217 
L 221.512081 177.107242 
L 222.048764 178.899204 
L 222.585447 179.912986 
L 223.122129 179.357875 
L 223.658812 178.218247 
L 224.195494 176.098365 
L 224.732177 173.445262 
L 225.26886 174.384795 
L 225.805542 178.726196 
L 226.342225 180.239973 
L 226.878907 180.46913 
L 227.41559 180.428702 
L 227.952273 179.982419 
L 228.488955 179.178582 
L 229.025638 178.843082 
L 229.562321 179.448622 
L 230.099003 179.82845 
L 230.635686 178.971449 
L 231.172368 177.41147 
L 231.709051 177.88409 
L 232.245734 179.515385 
L 232.782416 179.844837 
L 233.319099 178.690982 
L 233.855781 177.199881 
L 234.392464 178.295462 
L 234.929147 179.786721 
L 235.465829 180.243345 
L 236.002512 180.47416 
L 236.539195 180.263423 
L 237.075877 179.505577 
L 237.61256 177.738187 
L 238.685925 175.438833 
L 239.222608 173.428408 
L 239.75929 173.307079 
L 240.295973 174.745466 
L 240.832656 173.879879 
L 241.369338 175.047654 
L 241.906021 178.552542 
L 242.442703 179.782425 
L 242.979386 179.121181 
L 243.516069 178.149883 
L 244.589434 175.401743 
L 245.126116 176.054135 
L 245.662799 177.948404 
L 246.199482 179.198146 
L 246.736164 179.874972 
L 247.272847 179.288535 
L 247.80953 178.30301 
L 248.346212 178.194602 
L 248.882895 179.270338 
L 249.419577 178.446651 
L 249.95626 176.077242 
L 250.492943 176.245945 
L 251.029625 178.396304 
L 251.566308 179.638868 
L 252.10299 179.190793 
L 253.176356 175.903983 
L 253.713038 176.477054 
L 254.249721 176.028899 
L 254.786404 174.025728 
L 255.323086 175.359971 
L 255.859769 178.118362 
L 256.396451 178.554217 
L 256.933134 177.327455 
L 257.469817 177.116543 
L 258.006499 177.281464 
L 258.543182 176.908428 
L 258.543182 176.908428 
" clip-path="url(#p827a4a8e02)" style="fill: none; stroke: #000000; stroke-opacity: 0.5; stroke-width: 0.5; stroke-linecap: square"/>
   </g>
   <g id="line2d_13">
    <path d="M 44.406818 180.687273 
L 91.634888 180.687273 
L 92.171571 180.315371 
L 92.708254 179.596089 
L 93.244936 180.331452 
L 93.781619 180.687273 
L 94.318301 180.346511 
L 94.854984 180.687273 
L 96.465032 180.687273 
L 97.001715 180.380228 
L 97.538397 179.483655 
L 98.07508 179.212543 
L 98.611762 167.964108 
L 99.148445 147.512125 
L 99.685128 136.748117 
L 100.22181 148.497027 
L 100.758493 166.234098 
L 101.295175 175.171654 
L 101.831858 178.624994 
L 102.368541 179.16894 
L 102.905223 179.941909 
L 103.441906 179.955337 
L 103.978589 180.687273 
L 104.515271 180.216512 
L 105.051954 180.22477 
L 106.662002 179.5898 
L 107.198684 177.882202 
L 107.735367 171.777043 
L 108.272049 161.912151 
L 108.808732 161.401837 
L 109.882097 175.922807 
L 110.41878 180.687273 
L 110.955463 180.49508 
L 111.492145 180.687273 
L 112.028828 180.501109 
L 113.102193 180.506859 
L 113.638876 180.154358 
L 114.175558 180.337421 
L 114.712241 179.825895 
L 115.248923 179.499475 
L 115.785606 178.681442 
L 116.322289 173.935528 
L 116.858971 159.91864 
L 117.395654 130.163239 
L 117.932337 136.883011 
L 118.469019 161.42986 
L 119.005702 175.176278 
L 119.542384 179.027241 
L 120.079067 179.050621 
L 120.61575 180.247155 
L 121.152432 180.687273 
L 121.689115 180.259255 
L 122.225797 180.405837 
L 122.76248 180.132058 
L 123.835845 180.687273 
L 124.372528 180.553984 
L 124.909211 180.555749 
L 125.445893 180.687273 
L 125.982576 180.687273 
L 126.519258 180.56084 
L 127.055941 180.687273 
L 128.665989 180.687273 
L 129.202671 180.568691 
L 129.739354 180.687273 
L 130.276037 180.571628 
L 130.812719 180.687273 
L 133.496132 180.687273 
L 134.569498 180.267575 
L 135.10618 180.376203 
L 135.642863 180.174886 
L 136.179545 175.72427 
L 136.716228 153.155671 
L 137.252911 140.804601 
L 137.789593 166.012327 
L 138.326276 175.270881 
L 138.862959 166.247359 
L 139.399641 143.054785 
L 139.936324 153.011917 
L 140.473006 174.400075 
L 141.009689 179.590027 
L 141.546372 180.235112 
L 142.619737 180.687273 
L 144.229785 179.830789 
L 144.766467 180.433061 
L 145.30315 180.26807 
L 145.839833 178.530365 
L 146.376515 158.851523 
L 147.44988 180.204917 
L 147.986563 180.687273 
L 153.890072 180.616038 
L 154.426754 180.546187 
L 154.963437 180.617411 
L 155.50012 180.479704 
L 156.036802 180.687273 
L 164.087041 180.627635 
L 164.623724 180.391734 
L 165.160407 180.570103 
L 165.697089 180.338861 
L 166.233772 179.305849 
L 166.770455 176.921556 
L 167.307137 168.526822 
L 167.84382 165.492119 
L 168.380502 172.7383 
L 168.917185 176.664231 
L 169.453868 178.610988 
L 169.99055 174.29471 
L 170.527233 168.708828 
L 171.063915 167.744633 
L 171.600598 170.388498 
L 172.137281 167.908433 
L 172.673963 154.875222 
L 173.210646 153.75028 
L 174.284011 175.520094 
L 174.820694 179.129729 
L 175.357376 180.188941 
L 175.894059 179.69871 
L 176.430742 179.8538 
L 176.967424 178.839236 
L 177.504107 174.464061 
L 178.040789 174.226712 
L 178.577472 176.272128 
L 179.114155 179.745314 
L 180.18752 180.409126 
L 180.724203 180.411308 
L 181.260885 180.550368 
L 182.33425 180.507558 
L 182.870933 180.553528 
L 184.480981 180.338756 
L 185.017663 179.563211 
L 186.091029 170.55275 
L 186.627711 171.431921 
L 187.701077 179.355039 
L 188.237759 180.150076 
L 188.774442 180.564222 
L 189.311124 180.361561 
L 189.847807 180.323541 
L 190.38449 180.406443 
L 190.921172 180.169539 
L 191.457855 180.09423 
L 191.994537 178.960295 
L 192.53122 175.309957 
L 193.067903 170.745016 
L 193.604585 172.006969 
L 194.141268 176.683184 
L 194.677951 179.551391 
L 195.214633 179.935391 
L 195.751316 179.716731 
L 196.287998 178.055608 
L 196.824681 173.767816 
L 197.361364 171.038534 
L 197.898046 172.230866 
L 198.434729 172.253604 
L 198.971411 172.455109 
L 200.044777 179.875355 
L 200.581459 180.301623 
L 201.118142 180.373895 
L 201.654825 180.133946 
L 202.191507 178.008093 
L 202.72819 172.192321 
L 203.264872 168.962497 
L 203.801555 172.541735 
L 204.338238 177.912241 
L 204.87492 179.989837 
L 205.411603 179.466622 
L 206.484968 173.362259 
L 207.021651 174.477693 
L 207.558333 178.566729 
L 208.095016 179.793527 
L 208.631699 180.211601 
L 209.168381 179.553072 
L 209.705064 176.805873 
L 210.241746 173.40993 
L 210.778429 175.31071 
L 211.315112 178.783768 
L 211.851794 180.107669 
L 212.388477 180.475095 
L 212.925159 180.596916 
L 213.998525 180.568315 
L 214.535207 180.628168 
L 215.07189 180.511071 
L 217.21862 180.687273 
L 218.291986 180.404363 
L 218.828668 179.393868 
L 219.365351 176.048338 
L 219.902033 174.187915 
L 220.438716 174.227415 
L 220.975399 173.909889 
L 221.512081 175.259896 
L 222.048764 178.437249 
L 222.585447 179.959729 
L 223.122129 180.312286 
L 223.658812 180.074907 
L 224.195494 177.643664 
L 224.732177 172.978675 
L 225.26886 171.716595 
L 225.805542 177.567377 
L 226.342225 180.015268 
L 226.878907 180.301853 
L 227.41559 180.355196 
L 227.952273 180.280945 
L 228.488955 180.460042 
L 229.562321 180.263014 
L 230.099003 179.322575 
L 230.635686 175.802611 
L 231.172368 170.949468 
L 231.709051 172.395187 
L 232.245734 177.72885 
L 232.782416 179.963919 
L 233.319099 180.447522 
L 234.392464 180.426515 
L 234.929147 180.498696 
L 235.465829 180.382551 
L 236.002512 180.500799 
L 236.539195 179.760102 
L 237.075877 177.598493 
L 237.61256 173.741669 
L 238.149242 175.170595 
L 238.685925 177.853467 
L 239.222608 177.350477 
L 240.295973 173.149878 
L 240.832656 170.241271 
L 241.369338 172.768486 
L 241.906021 178.252122 
L 242.442703 179.967224 
L 242.979386 179.580467 
L 243.516069 178.312875 
L 244.052751 174.010213 
L 244.589434 172.294838 
L 245.662799 178.891399 
L 246.199482 180.266955 
L 247.80953 180.501108 
L 248.346212 180.193442 
L 248.882895 179.541026 
L 249.419577 177.307224 
L 249.95626 173.435734 
L 250.492943 174.380174 
L 251.029625 177.560101 
L 251.566308 179.989286 
L 252.10299 180.429357 
L 252.639673 180.45042 
L 253.713038 179.71047 
L 254.249721 177.499713 
L 254.786404 173.706462 
L 255.323086 174.203654 
L 255.859769 177.701148 
L 256.396451 179.468384 
L 256.933134 178.394413 
L 257.469817 174.408868 
L 258.006499 172.189213 
L 258.543182 171.821081 
L 258.543182 171.821081 
" clip-path="url(#p827a4a8e02)" style="fill: none; stroke: #0000ff; stroke-opacity: 0.5; stroke-linecap: square"/>
   </g>
   <g id="line2d_14">
    <path d="M 44.406818 180.687273 
L 110.41878 180.687273 
L 110.955463 180.003921 
L 111.492145 180.014767 
L 112.028828 177.708651 
L 112.56551 168.307394 
L 113.102193 139.953853 
L 113.638876 87.525839 
L 114.175558 84.594578 
L 114.712241 138.422349 
L 115.248923 169.525748 
L 115.785606 176.824192 
L 116.322289 178.930722 
L 116.858971 179.53346 
L 117.395654 178.98182 
L 117.932337 180.687273 
L 118.469019 179.582905 
L 119.005702 179.598681 
L 119.542384 180.150697 
L 120.079067 180.158254 
L 121.152432 180.687273 
L 122.225797 180.687273 
L 122.76248 180.193749 
L 123.299163 180.200417 
L 123.835845 179.726632 
L 124.372528 180.213356 
L 124.909211 180.219633 
L 125.445893 179.302816 
L 125.982576 177.95455 
L 126.519258 173.045115 
L 127.055941 150.956821 
L 127.592624 142.576916 
L 128.665989 177.057807 
L 129.202671 179.844023 
L 129.739354 180.270919 
L 130.812719 180.687273 
L 143.156419 180.687273 
L 143.693102 180.225543 
L 144.229785 180.078218 
L 144.766467 180.23534 
L 145.30315 179.643923 
L 146.376515 102.173442 
L 146.913198 173.033195 
L 147.44988 179.686832 
L 147.986563 180.687273 
L 160.330263 180.687273 
L 160.866946 180.463367 
L 161.403628 180.687273 
L 162.476994 180.578345 
L 163.013676 180.687273 
L 163.550359 180.473317 
L 164.087041 180.687273 
L 164.623724 180.582192 
L 165.160407 180.687273 
L 166.233772 180.38029 
L 167.307137 180.687273 
L 167.84382 180.089186 
L 168.917185 179.413616 
L 169.453868 176.219011 
L 170.527233 154.71309 
L 171.063915 164.495659 
L 171.600598 172.143105 
L 172.137281 174.542258 
L 173.210646 156.148117 
L 174.284011 175.283688 
L 174.820694 179.079486 
L 175.357376 180.332903 
L 175.894059 180.072167 
L 176.430742 180.425791 
L 176.967424 179.909152 
L 177.504107 178.028606 
L 178.040789 172.349694 
L 178.577472 170.306146 
L 179.114155 172.984145 
L 179.650837 178.195234 
L 180.724203 180.687273 
L 181.260885 180.200502 
L 182.33425 180.447653 
L 183.407616 180.687273 
L 183.944298 180.21901 
L 185.554346 180.305889 
L 186.627711 180.537008 
L 187.701077 180.317208 
L 188.237759 180.319959 
L 188.774442 180.103924 
L 189.311124 178.51586 
L 189.847807 172.712126 
L 190.921172 143.587433 
L 191.457855 156.719585 
L 191.994537 173.360702 
L 192.53122 172.305241 
L 193.067903 167.00109 
L 193.604585 166.757819 
L 194.141268 176.280657 
L 194.677951 178.869862 
L 195.214633 180.152601 
L 195.751316 180.289102 
L 196.287998 180.555484 
L 196.824681 180.687273 
L 197.361364 180.622298 
L 198.434729 180.687273 
L 198.971411 180.623642 
L 199.508094 180.687273 
L 200.581459 180.562618 
L 201.118142 180.687273 
L 204.338238 180.687273 
L 204.87492 180.569188 
L 205.411603 180.628623 
L 205.948285 180.454227 
L 206.484968 180.455766 
L 207.021651 180.112312 
L 207.558333 178.859464 
L 208.095016 174.048019 
L 208.631699 166.818793 
L 209.168381 170.157406 
L 209.705064 177.571024 
L 210.241746 179.857946 
L 210.778429 180.412608 
L 211.315112 180.578111 
L 212.388477 180.525613 
L 212.925159 180.366005 
L 213.461842 179.9956 
L 213.998525 177.144989 
L 214.535207 172.123667 
L 215.07189 169.566993 
L 215.608573 173.579504 
L 216.145255 178.573379 
L 216.681938 180.22613 
L 217.21862 180.636352 
L 218.828668 180.687273 
L 220.438716 180.638195 
L 221.512081 180.638787 
L 222.048764 180.253533 
L 222.585447 180.495656 
L 223.122129 180.115865 
L 223.658812 178.32064 
L 224.195494 171.088879 
L 224.732177 159.452822 
L 225.26886 163.763002 
L 225.805542 176.34253 
L 226.342225 179.584497 
L 226.878907 180.321837 
L 227.952273 180.596978 
L 229.025638 180.687273 
L 230.635686 180.643415 
L 231.172368 180.556454 
L 231.709051 180.687273 
L 233.319099 180.64465 
L 234.392464 180.518702 
L 236.002512 180.48008 
L 236.539195 180.646065 
L 237.075877 180.523357 
L 237.61256 180.279757 
L 238.149242 179.349896 
L 238.685925 174.803032 
L 239.222608 160.405969 
L 239.75929 155.574111 
L 240.295973 168.754305 
L 240.832656 177.848445 
L 241.369338 179.942206 
L 241.906021 180.258257 
L 242.979386 180.378621 
L 243.516069 179.881417 
L 244.052751 177.213962 
L 244.589434 169.829546 
L 245.126116 169.018887 
L 245.662799 176.442907 
L 246.199482 179.67851 
L 246.736164 180.38996 
L 247.272847 180.613337 
L 247.80953 180.687273 
L 248.346212 180.577533 
L 248.882895 180.687273 
L 249.95626 180.543232 
L 250.492943 180.54398 
L 251.566308 179.659127 
L 252.10299 178.147791 
L 252.639673 170.68682 
L 253.176356 160.544596 
L 253.713038 163.842853 
L 254.249721 169.76837 
L 254.786404 169.548918 
L 255.323086 171.999695 
L 255.859769 176.841893 
L 256.396451 179.434526 
L 256.933134 180.181959 
L 257.469817 180.452644 
L 258.543182 180.554539 
L 258.543182 180.554539 
" clip-path="url(#p827a4a8e02)" style="fill: none; stroke: #ff0000; stroke-opacity: 0.5; stroke-linecap: square"/>
   </g>
   <g id="patch_3">
    <path d="M 33.7 188.6 
L 33.7 14.52 
" style="fill: none; stroke: #000000; stroke-width: 0.8; stroke-linejoin: miter; stroke-linecap: square"/>
   </g>
   <g id="patch_4">
    <path d="M 269.25 188.6 
L 269.25 14.52 
" style="fill: none; stroke: #000000; stroke-width: 0.8; stroke-linejoin: miter; stroke-linecap: square"/>
   </g>
   <g id="patch_5">
    <path d="M 33.7 188.6 
L 269.25 188.6 
" style="fill: none; stroke: #000000; stroke-width: 0.8; stroke-linejoin: miter; stroke-linecap: square"/>
   </g>
   <g id="patch_6">
    <path d="M 33.7 14.52 
L 269.25 14.52 
" style="fill: none; stroke: #000000; stroke-width: 0.8; stroke-linejoin: miter; stroke-linecap: square"/>
   </g>
   <g id="legend_1">
    <g id="patch_7">
     <path d="M 213.917188 66.554375 
L 262.25 66.554375 
Q 264.25 66.554375 264.25 64.554375 
L 264.25 21.52 
Q 264.25 19.52 262.25 19.52 
L 213.917188 19.52 
Q 211.917188 19.52 211.917188 21.52 
L 211.917188 64.554375 
Q 211.917188 66.554375 213.917188 66.554375 
z
" style="fill: #ffffff; opacity: 0.8; stroke: #cccccc; stroke-linejoin: miter"/>
    </g>
    <g id="line2d_15">
     <path d="M 215.917188 27.618438 
L 225.917188 27.618438 
L 235.917188 27.618438 
" style="fill: none; stroke: #000000; stroke-opacity: 0.5; stroke-width: 0.5; stroke-linecap: square"/>
    </g>
    <g id="text_14">
     <!-- all -->
     <g transform="translate(243.917188 31.118438) scale(0.1 -0.1)">
      <defs>
       <path id="DejaVuSans-61" d="M 2194 1759 
Q 1497 1759 1228 1600 
Q 959 1441 959 1056 
Q 959 750 1161 570 
Q 1363 391 1709 391 
Q 2188 391 2477 730 
Q 2766 1069 2766 1631 
L 2766 1759 
L 2194 1759 
z
M 3341 1997 
L 3341 0 
L 2766 0 
L 2766 531 
Q 2569 213 2275 61 
Q 1981 -91 1556 -91 
Q 1019 -91 701 211 
Q 384 513 384 1019 
Q 384 1609 779 1909 
Q 1175 2209 1959 2209 
L 2766 2209 
L 2766 2266 
Q 2766 2663 2505 2880 
Q 2244 3097 1772 3097 
Q 1472 3097 1187 3025 
Q 903 2953 641 2809 
L 641 3341 
Q 956 3463 1253 3523 
Q 1550 3584 1831 3584 
Q 2591 3584 2966 3190 
Q 3341 2797 3341 1997 
z
" transform="scale(0.015625)"/>
       <path id="DejaVuSans-6c" d="M 603 4863 
L 1178 4863 
L 1178 0 
L 603 0 
L 603 4863 
z
" transform="scale(0.015625)"/>
      </defs>
      <use xlink:href="#DejaVuSans-61"/>
      <use xlink:href="#DejaVuSans-6c" transform="translate(61.279297 0)"/>
      <use xlink:href="#DejaVuSans-6c" transform="translate(89.0625 0)"/>
     </g>
    </g>
    <g id="line2d_16">
     <path d="M 215.917188 42.296563 
L 225.917188 42.296563 
L 235.917188 42.296563 
" style="fill: none; stroke: #0000ff; stroke-opacity: 0.5; stroke-linecap: square"/>
    </g>
    <g id="text_15">
     <!-- 1-1 -->
     <g transform="translate(243.917188 45.796563) scale(0.1 -0.1)">
      <defs>
       <path id="DejaVuSans-2d" d="M 313 2009 
L 1997 2009 
L 1997 1497 
L 313 1497 
L 313 2009 
z
" transform="scale(0.015625)"/>
      </defs>
      <use xlink:href="#DejaVuSans-31"/>
      <use xlink:href="#DejaVuSans-2d" transform="translate(63.623047 0)"/>
      <use xlink:href="#DejaVuSans-31" transform="translate(99.707031 0)"/>
     </g>
    </g>
    <g id="line2d_17">
     <path d="M 215.917188 56.974688 
L 225.917188 56.974688 
L 235.917188 56.974688 
" style="fill: none; stroke: #ff0000; stroke-opacity: 0.5; stroke-linecap: square"/>
    </g>
    <g id="text_16">
     <!-- 2-2 -->
     <g transform="translate(243.917188 60.474688) scale(0.1 -0.1)">
      <use xlink:href="#DejaVuSans-32"/>
      <use xlink:href="#DejaVuSans-2d" transform="translate(63.623047 0)"/>
      <use xlink:href="#DejaVuSans-32" transform="translate(99.707031 0)"/>
     </g>
    </g>
   </g>
  </g>
 </g>
 <defs>
  <clipPath id="p827a4a8e02">
   <rect x="33.7" y="14.52" width="235.55" height="174.08"/>
  </clipPath>
 </defs>
</svg>
