<?xml version="1.0" encoding="utf-8" standalone="no"?>
<!DOCTYPE svg PUBLIC "-//W3C//DTD SVG 1.1//EN"
  "http://www.w3.org/Graphics/SVG/1.1/DTD/svg11.dtd">
<svg xmlns:xlink="http://www.w3.org/1999/xlink" width="288pt" height="216pt" viewBox="0 0 288 216" xmlns="http://www.w3.org/2000/svg" version="1.1">
 <metadata>
  <rdf:RDF xmlns:dc="http://purl.org/dc/elements/1.1/" xmlns:cc="http://creativecommons.org/ns#" xmlns:rdf="http://www.w3.org/1999/02/22-rdf-syntax-ns#">
   <cc:Work>
    <dc:type rdf:resource="http://purl.org/dc/dcmitype/StillImage"/>
    <dc:date>2025-09-17T22:33:02.546765</dc:date>
    <dc:format>image/svg+xml</dc:format>
    <dc:creator>
     <cc:Agent>
      <dc:title>Matplotlib v3.10.0, https://matplotlib.org/</dc:title>
     </cc:Agent>
    </dc:creator>
   </cc:Work>
  </rdf:RDF>
 </metadata>
 <defs>
  <style type="text/css">*{stroke-linejoin: round; stroke-linecap: butt}</style>
 </defs>
 <g id="figure_1">
  <g id="patch_1">
   <path d="M 0 216 
L 288 216 
L 288 0 
L 0 0 
z
" style="fill: #ffffff"/>
  </g>
  <g id="axes_1">
   <g id="patch_2">
    <path d="M 33.7 188.6 
L 269.25 188.6 
L 269.25 14.52 
L 33.7 14.52 
z
" style="fill: #ffffff"/>
   </g>
   <g id="matplotlib.axis_1">
    <g id="xtick_1">
     <g id="line2d_1">
      <defs>
       <path id="m2669d8d351" d="M 0 0 
L 0 3.5 
" style="stroke: #000000; stroke-width: 0.8"/>
      </defs>
      <g>
       <use xlink:href="#m2669d8d351" x="44.138477" y="188.6" style="stroke: #000000; stroke-width: 0.8"/>
      </g>
     </g>
     <g id="text_1">
      <!-- 0 -->
      <g transform="translate(40.957227 203.198437) scale(0.1 -0.1)">
       <defs>
        <path id="DejaVuSans-30" d="M 2034 4250 
Q 1547 4250 1301 3770 
Q 1056 3291 1056 2328 
Q 1056 1369 1301 889 
Q 1547 409 2034 409 
Q 2525 409 2770 889 
Q 3016 1369 3016 2328 
Q 3016 3291 2770 3770 
Q 2525 4250 2034 4250 
z
M 2034 4750 
Q 2819 4750 3233 4129 
Q 3647 3509 3647 2328 
Q 3647 1150 3233 529 
Q 2819 -91 2034 -91 
Q 1250 -91 836 529 
Q 422 1150 422 2328 
Q 422 3509 836 4129 
Q 1250 4750 2034 4750 
z
" transform="scale(0.015625)"/>
       </defs>
       <use xlink:href="#DejaVuSans-30"/>
      </g>
     </g>
    </g>
    <g id="xtick_2">
     <g id="line2d_2">
      <g>
       <use xlink:href="#m2669d8d351" x="87.073086" y="188.6" style="stroke: #000000; stroke-width: 0.8"/>
      </g>
     </g>
     <g id="text_2">
      <!-- 200 -->
      <g transform="translate(77.529336 203.198437) scale(0.1 -0.1)">
       <defs>
        <path id="DejaVuSans-32" d="M 1228 531 
L 3431 531 
L 3431 0 
L 469 0 
L 469 531 
Q 828 903 1448 1529 
Q 2069 2156 2228 2338 
Q 2531 2678 2651 2914 
Q 2772 3150 2772 3378 
Q 2772 3750 2511 3984 
Q 2250 4219 1831 4219 
Q 1534 4219 1204 4116 
Q 875 4013 500 3803 
L 500 4441 
Q 881 4594 1212 4672 
Q 1544 4750 1819 4750 
Q 2544 4750 2975 4387 
Q 3406 4025 3406 3419 
Q 3406 3131 3298 2873 
Q 3191 2616 2906 2266 
Q 2828 2175 2409 1742 
Q 1991 1309 1228 531 
z
" transform="scale(0.015625)"/>
       </defs>
       <use xlink:href="#DejaVuSans-32"/>
       <use xlink:href="#DejaVuSans-30" transform="translate(63.623047 0)"/>
       <use xlink:href="#DejaVuSans-30" transform="translate(127.246094 0)"/>
      </g>
     </g>
    </g>
    <g id="xtick_3">
     <g id="line2d_3">
      <g>
       <use xlink:href="#m2669d8d351" x="130.007695" y="188.6" style="stroke: #000000; stroke-width: 0.8"/>
      </g>
     </g>
     <g id="text_3">
      <!-- 400 -->
      <g transform="translate(120.463945 203.198437) scale(0.1 -0.1)">
       <defs>
        <path id="DejaVuSans-34" d="M 2419 4116 
L 825 1625 
L 2419 1625 
L 2419 4116 
z
M 2253 4666 
L 3047 4666 
L 3047 1625 
L 3713 1625 
L 3713 1100 
L 3047 1100 
L 3047 0 
L 2419 0 
L 2419 1100 
L 313 1100 
L 313 1709 
L 2253 4666 
z
" transform="scale(0.015625)"/>
       </defs>
       <use xlink:href="#DejaVuSans-34"/>
       <use xlink:href="#DejaVuSans-30" transform="translate(63.623047 0)"/>
       <use xlink:href="#DejaVuSans-30" transform="translate(127.246094 0)"/>
      </g>
     </g>
    </g>
    <g id="xtick_4">
     <g id="line2d_4">
      <g>
       <use xlink:href="#m2669d8d351" x="172.942305" y="188.6" style="stroke: #000000; stroke-width: 0.8"/>
      </g>
     </g>
     <g id="text_4">
      <!-- 600 -->
      <g transform="translate(163.398555 203.198437) scale(0.1 -0.1)">
       <defs>
        <path id="DejaVuSans-36" d="M 2113 2584 
Q 1688 2584 1439 2293 
Q 1191 2003 1191 1497 
Q 1191 994 1439 701 
Q 1688 409 2113 409 
Q 2538 409 2786 701 
Q 3034 994 3034 1497 
Q 3034 2003 2786 2293 
Q 2538 2584 2113 2584 
z
M 3366 4563 
L 3366 3988 
Q 3128 4100 2886 4159 
Q 2644 4219 2406 4219 
Q 1781 4219 1451 3797 
Q 1122 3375 1075 2522 
Q 1259 2794 1537 2939 
Q 1816 3084 2150 3084 
Q 2853 3084 3261 2657 
Q 3669 2231 3669 1497 
Q 3669 778 3244 343 
Q 2819 -91 2113 -91 
Q 1303 -91 875 529 
Q 447 1150 447 2328 
Q 447 3434 972 4092 
Q 1497 4750 2381 4750 
Q 2619 4750 2861 4703 
Q 3103 4656 3366 4563 
z
" transform="scale(0.015625)"/>
       </defs>
       <use xlink:href="#DejaVuSans-36"/>
       <use xlink:href="#DejaVuSans-30" transform="translate(63.623047 0)"/>
       <use xlink:href="#DejaVuSans-30" transform="translate(127.246094 0)"/>
      </g>
     </g>
    </g>
    <g id="xtick_5">
     <g id="line2d_5">
      <g>
       <use xlink:href="#m2669d8d351" x="215.876914" y="188.6" style="stroke: #000000; stroke-width: 0.8"/>
      </g>
     </g>
     <g id="text_5">
      <!-- 800 -->
      <g transform="translate(206.333164 203.198437) scale(0.1 -0.1)">
       <defs>
        <path id="DejaVuSans-38" d="M 2034 2216 
Q 1584 2216 1326 1975 
Q 1069 1734 1069 1313 
Q 1069 891 1326 650 
Q 1584 409 2034 409 
Q 2484 409 2743 651 
Q 3003 894 3003 1313 
Q 3003 1734 2745 1975 
Q 2488 2216 2034 2216 
z
M 1403 2484 
Q 997 2584 770 2862 
Q 544 3141 544 3541 
Q 544 4100 942 4425 
Q 1341 4750 2034 4750 
Q 2731 4750 3128 4425 
Q 3525 4100 3525 3541 
Q 3525 3141 3298 2862 
Q 3072 2584 2669 2484 
Q 3125 2378 3379 2068 
Q 3634 1759 3634 1313 
Q 3634 634 3220 271 
Q 2806 -91 2034 -91 
Q 1263 -91 848 271 
Q 434 634 434 1313 
Q 434 1759 690 2068 
Q 947 2378 1403 2484 
z
M 1172 3481 
Q 1172 3119 1398 2916 
Q 1625 2713 2034 2713 
Q 2441 2713 2670 2916 
Q 2900 3119 2900 3481 
Q 2900 3844 2670 4047 
Q 2441 4250 2034 4250 
Q 1625 4250 1398 4047 
Q 1172 3844 1172 3481 
z
" transform="scale(0.015625)"/>
       </defs>
       <use xlink:href="#DejaVuSans-38"/>
       <use xlink:href="#DejaVuSans-30" transform="translate(63.623047 0)"/>
       <use xlink:href="#DejaVuSans-30" transform="translate(127.246094 0)"/>
      </g>
     </g>
    </g>
    <g id="xtick_6">
     <g id="line2d_6">
      <g>
       <use xlink:href="#m2669d8d351" x="258.811523" y="188.6" style="stroke: #000000; stroke-width: 0.8"/>
      </g>
     </g>
     <g id="text_6">
      <!-- 1000 -->
      <g transform="translate(246.086523 203.198437) scale(0.1 -0.1)">
       <defs>
        <path id="DejaVuSans-31" d="M 794 531 
L 1825 531 
L 1825 4091 
L 703 3866 
L 703 4441 
L 1819 4666 
L 2450 4666 
L 2450 531 
L 3481 531 
L 3481 0 
L 794 0 
L 794 531 
z
" transform="scale(0.015625)"/>
       </defs>
       <use xlink:href="#DejaVuSans-31"/>
       <use xlink:href="#DejaVuSans-30" transform="translate(63.623047 0)"/>
       <use xlink:href="#DejaVuSans-30" transform="translate(127.246094 0)"/>
       <use xlink:href="#DejaVuSans-30" transform="translate(190.869141 0)"/>
      </g>
     </g>
    </g>
    <g id="text_7">
     <!-- q (nm) -->
     <g transform="translate(134.771094 216.876563) scale(0.1 -0.1)">
      <defs>
       <path id="DejaVuSans-71" d="M 947 1747 
Q 947 1113 1208 752 
Q 1469 391 1925 391 
Q 2381 391 2643 752 
Q 2906 1113 2906 1747 
Q 2906 2381 2643 2742 
Q 2381 3103 1925 3103 
Q 1469 3103 1208 2742 
Q 947 2381 947 1747 
z
M 2906 525 
Q 2725 213 2448 61 
Q 2172 -91 1784 -91 
Q 1150 -91 751 415 
Q 353 922 353 1747 
Q 353 2572 751 3078 
Q 1150 3584 1784 3584 
Q 2172 3584 2448 3432 
Q 2725 3281 2906 2969 
L 2906 3500 
L 3481 3500 
L 3481 -1331 
L 2906 -1331 
L 2906 525 
z
" transform="scale(0.015625)"/>
       <path id="DejaVuSans-20" transform="scale(0.015625)"/>
       <path id="DejaVuSans-28" d="M 1984 4856 
Q 1566 4138 1362 3434 
Q 1159 2731 1159 2009 
Q 1159 1288 1364 580 
Q 1569 -128 1984 -844 
L 1484 -844 
Q 1016 -109 783 600 
Q 550 1309 550 2009 
Q 550 2706 781 3412 
Q 1013 4119 1484 4856 
L 1984 4856 
z
" transform="scale(0.015625)"/>
       <path id="DejaVuSans-6e" d="M 3513 2113 
L 3513 0 
L 2938 0 
L 2938 2094 
Q 2938 2591 2744 2837 
Q 2550 3084 2163 3084 
Q 1697 3084 1428 2787 
Q 1159 2491 1159 1978 
L 1159 0 
L 581 0 
L 581 3500 
L 1159 3500 
L 1159 2956 
Q 1366 3272 1645 3428 
Q 1925 3584 2291 3584 
Q 2894 3584 3203 3211 
Q 3513 2838 3513 2113 
z
" transform="scale(0.015625)"/>
       <path id="DejaVuSans-6d" d="M 3328 2828 
Q 3544 3216 3844 3400 
Q 4144 3584 4550 3584 
Q 5097 3584 5394 3201 
Q 5691 2819 5691 2113 
L 5691 0 
L 5113 0 
L 5113 2094 
Q 5113 2597 4934 2840 
Q 4756 3084 4391 3084 
Q 3944 3084 3684 2787 
Q 3425 2491 3425 1978 
L 3425 0 
L 2847 0 
L 2847 2094 
Q 2847 2600 2669 2842 
Q 2491 3084 2119 3084 
Q 1678 3084 1418 2786 
Q 1159 2488 1159 1978 
L 1159 0 
L 581 0 
L 581 3500 
L 1159 3500 
L 1159 2956 
Q 1356 3278 1631 3431 
Q 1906 3584 2284 3584 
Q 2666 3584 2933 3390 
Q 3200 3197 3328 2828 
z
" transform="scale(0.015625)"/>
       <path id="DejaVuSans-29" d="M 513 4856 
L 1013 4856 
Q 1481 4119 1714 3412 
Q 1947 2706 1947 2009 
Q 1947 1309 1714 600 
Q 1481 -109 1013 -844 
L 513 -844 
Q 928 -128 1133 580 
Q 1338 1288 1338 2009 
Q 1338 2731 1133 3434 
Q 928 4138 513 4856 
z
" transform="scale(0.015625)"/>
      </defs>
      <use xlink:href="#DejaVuSans-71"/>
      <use xlink:href="#DejaVuSans-20" transform="translate(63.476562 0)"/>
      <use xlink:href="#DejaVuSans-28" transform="translate(95.263672 0)"/>
      <use xlink:href="#DejaVuSans-6e" transform="translate(134.277344 0)"/>
      <use xlink:href="#DejaVuSans-6d" transform="translate(197.65625 0)"/>
      <use xlink:href="#DejaVuSans-29" transform="translate(295.068359 0)"/>
     </g>
    </g>
   </g>
   <g id="matplotlib.axis_2">
    <g id="ytick_1">
     <g id="line2d_7">
      <defs>
       <path id="mb2af28dbb7" d="M 0 0 
L -3.5 0 
" style="stroke: #000000; stroke-width: 0.8"/>
      </defs>
      <g>
       <use xlink:href="#mb2af28dbb7" x="33.7" y="180.687273" style="stroke: #000000; stroke-width: 0.8"/>
      </g>
     </g>
     <g id="text_8">
      <!-- 0 -->
      <g transform="translate(20.3375 184.486491) scale(0.1 -0.1)">
       <use xlink:href="#DejaVuSans-30"/>
      </g>
     </g>
    </g>
    <g id="ytick_2">
     <g id="line2d_8">
      <g>
       <use xlink:href="#mb2af28dbb7" x="33.7" y="149.435951" style="stroke: #000000; stroke-width: 0.8"/>
      </g>
     </g>
     <g id="text_9">
      <!-- 5000 -->
      <g transform="translate(1.25 153.23517) scale(0.1 -0.1)">
       <defs>
        <path id="DejaVuSans-35" d="M 691 4666 
L 3169 4666 
L 3169 4134 
L 1269 4134 
L 1269 2991 
Q 1406 3038 1543 3061 
Q 1681 3084 1819 3084 
Q 2600 3084 3056 2656 
Q 3513 2228 3513 1497 
Q 3513 744 3044 326 
Q 2575 -91 1722 -91 
Q 1428 -91 1123 -41 
Q 819 9 494 109 
L 494 744 
Q 775 591 1075 516 
Q 1375 441 1709 441 
Q 2250 441 2565 725 
Q 2881 1009 2881 1497 
Q 2881 1984 2565 2268 
Q 2250 2553 1709 2553 
Q 1456 2553 1204 2497 
Q 953 2441 691 2322 
L 691 4666 
z
" transform="scale(0.015625)"/>
       </defs>
       <use xlink:href="#DejaVuSans-35"/>
       <use xlink:href="#DejaVuSans-30" transform="translate(63.623047 0)"/>
       <use xlink:href="#DejaVuSans-30" transform="translate(127.246094 0)"/>
       <use xlink:href="#DejaVuSans-30" transform="translate(190.869141 0)"/>
      </g>
     </g>
    </g>
    <g id="ytick_3">
     <g id="line2d_9">
      <g>
       <use xlink:href="#mb2af28dbb7" x="33.7" y="118.184629" style="stroke: #000000; stroke-width: 0.8"/>
      </g>
     </g>
     <g id="text_10">
      <!-- 10000 -->
      <g transform="translate(-5.1125 121.983848) scale(0.1 -0.1)">
       <use xlink:href="#DejaVuSans-31"/>
       <use xlink:href="#DejaVuSans-30" transform="translate(63.623047 0)"/>
       <use xlink:href="#DejaVuSans-30" transform="translate(127.246094 0)"/>
       <use xlink:href="#DejaVuSans-30" transform="translate(190.869141 0)"/>
       <use xlink:href="#DejaVuSans-30" transform="translate(254.492188 0)"/>
      </g>
     </g>
    </g>
    <g id="ytick_4">
     <g id="line2d_10">
      <g>
       <use xlink:href="#mb2af28dbb7" x="33.7" y="86.933307" style="stroke: #000000; stroke-width: 0.8"/>
      </g>
     </g>
     <g id="text_11">
      <!-- 15000 -->
      <g transform="translate(-5.1125 90.732526) scale(0.1 -0.1)">
       <use xlink:href="#DejaVuSans-31"/>
       <use xlink:href="#DejaVuSans-35" transform="translate(63.623047 0)"/>
       <use xlink:href="#DejaVuSans-30" transform="translate(127.246094 0)"/>
       <use xlink:href="#DejaVuSans-30" transform="translate(190.869141 0)"/>
       <use xlink:href="#DejaVuSans-30" transform="translate(254.492188 0)"/>
      </g>
     </g>
    </g>
    <g id="ytick_5">
     <g id="line2d_11">
      <g>
       <use xlink:href="#mb2af28dbb7" x="33.7" y="55.681985" style="stroke: #000000; stroke-width: 0.8"/>
      </g>
     </g>
     <g id="text_12">
      <!-- 20000 -->
      <g transform="translate(-5.1125 59.481204) scale(0.1 -0.1)">
       <use xlink:href="#DejaVuSans-32"/>
       <use xlink:href="#DejaVuSans-30" transform="translate(63.623047 0)"/>
       <use xlink:href="#DejaVuSans-30" transform="translate(127.246094 0)"/>
       <use xlink:href="#DejaVuSans-30" transform="translate(190.869141 0)"/>
       <use xlink:href="#DejaVuSans-30" transform="translate(254.492188 0)"/>
      </g>
     </g>
    </g>
    <g id="ytick_6">
     <g id="line2d_12">
      <g>
       <use xlink:href="#mb2af28dbb7" x="33.7" y="24.430663" style="stroke: #000000; stroke-width: 0.8"/>
      </g>
     </g>
     <g id="text_13">
      <!-- 25000 -->
      <g transform="translate(-5.1125 28.229882) scale(0.1 -0.1)">
       <use xlink:href="#DejaVuSans-32"/>
       <use xlink:href="#DejaVuSans-35" transform="translate(63.623047 0)"/>
       <use xlink:href="#DejaVuSans-30" transform="translate(127.246094 0)"/>
       <use xlink:href="#DejaVuSans-30" transform="translate(190.869141 0)"/>
       <use xlink:href="#DejaVuSans-30" transform="translate(254.492188 0)"/>
      </g>
     </g>
    </g>
    <g id="text_14">
     <!-- rdf -->
     <g transform="translate(-11.192187 108.462344) rotate(-90) scale(0.1 -0.1)">
      <defs>
       <path id="DejaVuSans-72" d="M 2631 2963 
Q 2534 3019 2420 3045 
Q 2306 3072 2169 3072 
Q 1681 3072 1420 2755 
Q 1159 2438 1159 1844 
L 1159 0 
L 581 0 
L 581 3500 
L 1159 3500 
L 1159 2956 
Q 1341 3275 1631 3429 
Q 1922 3584 2338 3584 
Q 2397 3584 2469 3576 
Q 2541 3569 2628 3553 
L 2631 2963 
z
" transform="scale(0.015625)"/>
       <path id="DejaVuSans-64" d="M 2906 2969 
L 2906 4863 
L 3481 4863 
L 3481 0 
L 2906 0 
L 2906 525 
Q 2725 213 2448 61 
Q 2172 -91 1784 -91 
Q 1150 -91 751 415 
Q 353 922 353 1747 
Q 353 2572 751 3078 
Q 1150 3584 1784 3584 
Q 2172 3584 2448 3432 
Q 2725 3281 2906 2969 
z
M 947 1747 
Q 947 1113 1208 752 
Q 1469 391 1925 391 
Q 2381 391 2643 752 
Q 2906 1113 2906 1747 
Q 2906 2381 2643 2742 
Q 2381 3103 1925 3103 
Q 1469 3103 1208 2742 
Q 947 2381 947 1747 
z
" transform="scale(0.015625)"/>
       <path id="DejaVuSans-66" d="M 2375 4863 
L 2375 4384 
L 1825 4384 
Q 1516 4384 1395 4259 
Q 1275 4134 1275 3809 
L 1275 3500 
L 2222 3500 
L 2222 3053 
L 1275 3053 
L 1275 0 
L 697 0 
L 697 3053 
L 147 3053 
L 147 3500 
L 697 3500 
L 697 3744 
Q 697 4328 969 4595 
Q 1241 4863 1831 4863 
L 2375 4863 
z
" transform="scale(0.015625)"/>
      </defs>
      <use xlink:href="#DejaVuSans-72"/>
      <use xlink:href="#DejaVuSans-64" transform="translate(39.363281 0)"/>
      <use xlink:href="#DejaVuSans-66" transform="translate(102.839844 0)"/>
     </g>
    </g>
   </g>
   <g id="line2d_13">
    <path d="M 44.406818 180.687273 
L 94.854984 180.687273 
L 95.391667 176.070531 
L 95.928349 22.432727 
L 97.001715 135.119293 
L 97.538397 154.561607 
L 98.07508 166.692018 
L 98.611762 172.805087 
L 99.148445 173.244396 
L 99.685128 175.914355 
L 100.22181 177.38233 
L 100.758493 173.661675 
L 101.295175 174.05816 
L 101.831858 177.564222 
L 102.905223 173.413072 
L 103.441906 173.544122 
L 103.978589 173.187857 
L 104.515271 173.082947 
L 105.051954 173.683281 
L 105.588636 174.493319 
L 106.125319 174.600097 
L 106.662002 172.488179 
L 107.198684 174.369866 
L 107.735367 170.620786 
L 108.272049 174.579559 
L 108.808732 173.02348 
L 109.345415 172.537918 
L 109.882097 175.075483 
L 110.41878 171.813786 
L 110.955463 173.896087 
L 111.492145 170.757663 
L 112.028828 172.981437 
L 112.56551 174.026903 
L 113.102193 169.576609 
L 113.638876 172.975654 
L 114.175558 173.976408 
L 114.712241 175.469498 
L 115.248923 174.348772 
L 115.785606 174.105876 
L 116.322289 173.538343 
L 116.858971 174.134903 
L 117.395654 174.069144 
L 117.932337 170.506237 
L 118.469019 173.161381 
L 119.005702 175.123486 
L 119.542384 172.61232 
L 120.079067 174.528591 
L 121.152432 173.530621 
L 121.689115 174.925698 
L 122.225797 175.43083 
L 122.76248 173.960876 
L 123.299163 175.019442 
L 123.835845 175.504673 
L 124.372528 174.900939 
L 124.909211 176.039847 
L 125.445893 174.528572 
L 125.982576 174.867716 
L 126.519258 174.305078 
L 127.055941 176.277382 
L 127.592624 172.975602 
L 128.129306 174.67021 
L 128.665989 174.625122 
L 129.202671 175.659122 
L 130.276037 172.864838 
L 130.812719 175.498259 
L 131.349402 175.448036 
L 131.886085 175.061903 
L 132.422767 173.574065 
L 132.95945 175.416631 
L 133.496132 172.333553 
L 134.032815 174.255394 
L 134.569498 175.60265 
L 135.10618 173.882863 
L 135.642863 174.065897 
L 136.179545 175.676728 
L 136.716228 175.633576 
L 137.252911 174.4927 
L 137.789593 173.872133 
L 138.326276 173.656631 
L 138.862959 174.894596 
L 139.399641 173.241412 
L 139.936324 173.890943 
L 140.473006 172.472959 
L 141.009689 173.394542 
L 141.546372 172.013921 
L 142.083054 171.837785 
L 142.619737 172.469902 
L 143.156419 171.233425 
L 143.693102 171.859504 
L 144.229785 169.792199 
L 144.766467 170.849128 
L 145.30315 170.614666 
L 145.839833 170.218189 
L 146.376515 170.244942 
L 146.913198 167.401249 
L 147.44988 170.298454 
L 147.986563 170.807182 
L 148.523246 170.590492 
L 149.059928 171.795197 
L 149.596611 172.58651 
L 150.133293 173.902022 
L 150.669976 173.359565 
L 151.206659 173.50841 
L 151.743341 173.130953 
L 152.280024 173.946505 
L 152.816707 172.692724 
L 153.353389 175.022477 
L 154.426754 173.63662 
L 154.963437 174.057378 
L 155.50012 173.562346 
L 156.036802 173.492137 
L 156.573485 173.56068 
L 157.110167 173.76398 
L 157.64685 174.972264 
L 158.183533 174.026903 
L 158.720215 176.464472 
L 159.256898 175.457873 
L 159.793581 173.045322 
L 160.330263 174.142385 
L 160.866946 173.884558 
L 161.403628 174.009669 
L 161.940311 175.443697 
L 162.476994 174.315805 
L 163.013676 175.047539 
L 163.550359 175.46264 
L 164.087041 175.148037 
L 164.623724 174.123131 
L 165.160407 175.719022 
L 165.697089 175.059284 
L 166.233772 173.830209 
L 167.307137 174.291844 
L 168.380502 174.738584 
L 168.917185 174.12198 
L 169.453868 175.115862 
L 169.99055 175.327338 
L 170.527233 174.776252 
L 171.063915 175.578923 
L 171.600598 174.448815 
L 172.137281 174.712513 
L 172.673963 174.028253 
L 173.210646 173.875516 
L 173.747329 175.582003 
L 174.284011 174.908013 
L 174.820694 174.498869 
L 175.894059 175.297899 
L 176.430742 174.104108 
L 176.967424 174.304479 
L 177.504107 173.966111 
L 178.040789 172.81202 
L 178.577472 173.449926 
L 179.114155 174.791185 
L 179.650837 174.271701 
L 180.18752 175.071051 
L 180.724203 174.418597 
L 181.260885 174.743996 
L 181.797568 174.104546 
L 182.33425 174.33701 
L 182.870933 174.386041 
L 183.407616 174.702504 
L 184.480981 174.485817 
L 185.017663 174.620297 
L 185.554346 174.53631 
L 186.091029 174.195793 
L 186.627711 174.287265 
L 187.164394 174.038796 
L 187.701077 174.550729 
L 188.237759 175.222125 
L 188.774442 174.103138 
L 189.311124 174.562775 
L 189.847807 173.995787 
L 190.38449 174.368835 
L 190.921172 173.530392 
L 191.457855 174.500467 
L 191.994537 174.426448 
L 192.53122 173.88157 
L 193.067903 173.852401 
L 193.604585 174.832044 
L 194.141268 174.604355 
L 194.677951 174.571203 
L 195.214633 175.411638 
L 195.751316 173.338484 
L 196.287998 175.036737 
L 196.824681 174.37038 
L 197.361364 174.414551 
L 197.898046 174.78803 
L 198.434729 173.628278 
L 198.971411 175.303176 
L 199.508094 175.376209 
L 200.044777 174.307907 
L 200.581459 174.493162 
L 201.118142 175.554897 
L 201.654825 175.135912 
L 202.191507 175.104196 
L 202.72819 175.279709 
L 203.264872 174.83715 
L 203.801555 175.080295 
L 205.411603 175.224993 
L 205.948285 174.599441 
L 206.484968 174.541055 
L 207.021651 175.952824 
L 207.558333 175.724377 
L 208.631699 175.084605 
L 209.168381 174.898328 
L 209.705064 174.872604 
L 210.241746 174.564727 
L 210.778429 176.818995 
L 211.315112 174.488114 
L 211.851794 175.451664 
L 212.388477 175.423819 
L 212.925159 175.244359 
L 213.461842 175.188171 
L 213.998525 174.952649 
L 214.535207 174.869367 
L 215.07189 174.905864 
L 215.608573 175.11878 
L 216.145255 175.592656 
L 216.681938 174.373116 
L 217.21862 176.118325 
L 217.755303 175.025713 
L 218.291986 175.28906 
L 218.828668 174.470557 
L 219.365351 175.129295 
L 219.902033 175.331423 
L 220.438716 175.921387 
L 221.512081 174.712284 
L 222.048764 175.295697 
L 222.585447 175.409661 
L 223.122129 175.711669 
L 223.658812 175.230702 
L 224.732177 175.375027 
L 225.26886 174.693539 
L 225.805542 175.700118 
L 226.342225 175.129271 
L 226.878907 176.017927 
L 227.952273 175.098028 
L 228.488955 175.436383 
L 229.025638 176.049698 
L 229.562321 175.34584 
L 230.099003 175.17619 
L 230.635686 175.706007 
L 231.172368 175.536477 
L 232.245734 176.084721 
L 232.782416 175.867407 
L 233.319099 176.233604 
L 233.855781 175.560798 
L 234.392464 176.307657 
L 234.929147 175.356532 
L 235.465829 175.859673 
L 236.002512 175.627797 
L 236.539195 175.585788 
L 237.075877 175.800278 
L 237.61256 175.133104 
L 239.222608 175.406514 
L 239.75929 175.390154 
L 240.295973 175.869362 
L 240.832656 176.052377 
L 241.369338 176.055279 
L 241.906021 175.615277 
L 242.442703 175.885022 
L 242.979386 175.078323 
L 243.516069 175.413558 
L 244.052751 175.983731 
L 244.589434 176.095129 
L 245.126116 175.390489 
L 245.662799 175.759969 
L 246.736164 175.938635 
L 247.272847 175.669818 
L 247.80953 175.967682 
L 248.346212 175.47315 
L 248.882895 176.512988 
L 249.419577 175.26028 
L 249.95626 176.35193 
L 250.492943 176.171016 
L 251.029625 175.830152 
L 251.566308 175.935764 
L 252.639673 175.705569 
L 253.176356 176.226738 
L 254.249721 175.742397 
L 254.786404 175.259972 
L 255.323086 175.909086 
L 255.859769 175.546771 
L 256.396451 176.534115 
L 256.933134 175.751533 
L 257.469817 176.023777 
L 258.006499 175.573684 
L 258.543182 176.390733 
L 258.543182 176.390733 
" clip-path="url(#p5014dcccfd)" style="fill: none; stroke: #000000; stroke-opacity: 0.5; stroke-width: 0.5; stroke-linecap: square"/>
   </g>
   <g id="line2d_14">
    <path d="M 44.406818 180.687273 
L 97.538397 180.687273 
L 98.07508 179.775348 
L 98.611762 180.687273 
L 100.22181 180.687273 
L 100.758493 177.377135 
L 101.831858 180.687273 
L 102.368541 177.557648 
L 102.905223 176.078188 
L 103.441906 173.898198 
L 103.978589 174.019445 
L 104.515271 174.86521 
L 105.051954 171.392391 
L 105.588636 170.148947 
L 106.125319 171.021063 
L 106.662002 169.150372 
L 107.198684 170.013031 
L 107.735367 163.633144 
L 108.272049 174.237315 
L 108.808732 168.63492 
L 109.345415 169.456441 
L 109.882097 173.935586 
L 110.41878 169.21336 
L 110.955463 168.802695 
L 111.492145 167.236946 
L 112.028828 167.448738 
L 112.56551 169.355392 
L 113.102193 162.837352 
L 113.638876 168.05501 
L 114.175558 172.033787 
L 114.712241 172.697555 
L 115.248923 168.095925 
L 116.322289 172.540817 
L 116.858971 169.148958 
L 117.395654 171.789116 
L 117.932337 168.50781 
L 118.469019 169.16325 
L 119.005702 170.747799 
L 119.542384 171.355368 
L 120.61575 171.615467 
L 121.152432 169.505003 
L 121.689115 173.188223 
L 122.225797 174.161114 
L 122.76248 173.391584 
L 123.299163 176.877038 
L 123.835845 174.839799 
L 124.372528 174.505651 
L 124.909211 174.587525 
L 125.445893 173.062604 
L 126.519258 173.259992 
L 127.055941 175.285157 
L 127.592624 172.687969 
L 128.129306 172.41381 
L 129.202671 175.921004 
L 129.739354 173.084165 
L 130.276037 172.4635 
L 130.812719 174.330729 
L 131.349402 173.362307 
L 131.886085 176.897179 
L 132.422767 172.518198 
L 132.95945 175.643103 
L 133.496132 173.045517 
L 134.032815 176.091159 
L 134.569498 177.118767 
L 135.10618 175.557794 
L 135.642863 175.300938 
L 136.179545 175.676727 
L 136.716228 177.282344 
L 137.252911 173.95567 
L 137.789593 176.754986 
L 138.326276 177.397762 
L 138.862959 173.591243 
L 139.399641 174.548017 
L 139.936324 174.038432 
L 140.473006 173.826453 
L 141.009689 175.598515 
L 141.546372 173.976836 
L 142.619737 174.122308 
L 143.156419 172.569774 
L 143.693102 173.727756 
L 144.229785 171.418892 
L 144.766467 173.089444 
L 145.30315 170.836855 
L 145.839833 171.710032 
L 146.376515 171.804038 
L 146.913198 169.133761 
L 147.44988 171.490529 
L 147.986563 170.109349 
L 149.596611 176.870567 
L 150.133293 178.089794 
L 150.669976 178.115896 
L 151.206659 176.058794 
L 151.743341 177.250456 
L 152.280024 177.738187 
L 152.816707 178.441098 
L 153.353389 178.463114 
L 153.890072 177.383588 
L 154.426754 178.288092 
L 154.963437 177.663265 
L 156.036802 177.721008 
L 156.573485 177.119694 
L 157.110167 176.94564 
L 157.64685 178.834097 
L 158.183533 178.239587 
L 158.720215 178.464529 
L 159.256898 179.085769 
L 159.793581 176.522247 
L 160.330263 177.739666 
L 160.866946 175.430268 
L 161.403628 175.092416 
L 161.940311 177.437348 
L 162.476994 176.330085 
L 163.013676 177.683501 
L 163.550359 175.477828 
L 164.087041 176.999465 
L 164.623724 174.839219 
L 165.160407 177.06459 
L 165.697089 175.30111 
L 166.233772 177.127991 
L 167.307137 174.916397 
L 167.84382 176.873322 
L 168.380502 175.531274 
L 168.917185 174.553175 
L 169.453868 176.801765 
L 169.99055 176.834819 
L 170.527233 174.708464 
L 171.063915 177.064377 
L 171.600598 176.441655 
L 172.137281 175.343695 
L 173.210646 173.999011 
L 173.747329 176.58114 
L 174.284011 176.61494 
L 174.820694 175.094882 
L 175.357376 175.602762 
L 175.894059 177.477975 
L 176.430742 173.411142 
L 176.967424 173.620169 
L 177.504107 175.019335 
L 178.040789 172.253384 
L 178.577472 173.201291 
L 179.114155 175.590603 
L 179.650837 174.619603 
L 180.18752 175.95736 
L 180.724203 174.145793 
L 181.260885 175.043463 
L 181.797568 174.667391 
L 182.33425 174.436232 
L 182.870933 175.587213 
L 183.407616 175.352901 
L 183.944298 174.986588 
L 184.480981 173.683145 
L 185.017663 175.206807 
L 185.554346 174.054411 
L 186.091029 174.499408 
L 186.627711 174.415264 
L 187.164394 174.72164 
L 187.701077 175.66718 
L 188.237759 174.937916 
L 188.774442 174.72687 
L 189.311124 174.896744 
L 189.847807 174.189595 
L 190.38449 173.120841 
L 190.921172 174.161141 
L 191.457855 175.797699 
L 191.994537 174.862327 
L 192.53122 173.338193 
L 193.067903 175.06559 
L 193.604585 174.512139 
L 194.141268 174.202516 
L 194.677951 174.834002 
L 195.214633 176.270352 
L 195.751316 173.647038 
L 196.287998 175.644824 
L 196.824681 174.76983 
L 197.361364 175.715218 
L 197.898046 175.862076 
L 198.434729 173.44407 
L 198.971411 176.703402 
L 199.508094 175.961592 
L 200.044777 175.448351 
L 200.581459 173.641471 
L 201.118142 176.273341 
L 201.654825 176.517205 
L 202.191507 175.164881 
L 202.72819 175.624139 
L 203.264872 176.496395 
L 203.801555 175.379758 
L 204.338238 175.622004 
L 204.87492 176.579925 
L 205.411603 176.403213 
L 205.948285 174.91169 
L 206.484968 175.553783 
L 207.021651 177.787423 
L 207.558333 176.614373 
L 208.095016 176.246229 
L 209.168381 176.011586 
L 209.705064 177.396771 
L 210.241746 175.783348 
L 210.778429 177.439011 
L 211.315112 176.985212 
L 211.851794 177.197508 
L 212.388477 177.969479 
L 212.925159 176.310516 
L 213.461842 176.800888 
L 213.998525 176.273713 
L 215.608573 176.897604 
L 216.145255 176.203864 
L 216.681938 176.320829 
L 217.21862 177.056332 
L 217.755303 176.638682 
L 218.291986 177.363373 
L 218.828668 174.86265 
L 219.365351 177.317572 
L 219.902033 176.736982 
L 220.438716 176.590282 
L 221.512081 175.543482 
L 222.048764 176.245038 
L 222.585447 177.188134 
L 223.122129 176.629384 
L 223.658812 176.489005 
L 224.195494 177.250452 
L 224.732177 177.108146 
L 225.26886 175.997241 
L 225.805542 176.185709 
L 226.342225 176.132254 
L 226.878907 176.79453 
L 227.41559 176.738327 
L 227.952273 175.426524 
L 229.025638 177.039617 
L 229.562321 176.211933 
L 230.099003 175.700682 
L 230.635686 176.797215 
L 231.709051 176.766201 
L 232.245734 177.613294 
L 232.782416 177.257986 
L 233.319099 177.129178 
L 233.855781 175.822536 
L 234.392464 176.509586 
L 234.929147 176.241517 
L 235.465829 177.136088 
L 236.002512 176.507322 
L 236.539195 176.817281 
L 237.075877 176.624957 
L 237.61256 176.860103 
L 238.149242 175.824008 
L 239.222608 176.435066 
L 239.75929 175.765083 
L 240.295973 176.82619 
L 240.832656 176.367247 
L 241.369338 176.799905 
L 241.906021 176.346175 
L 242.442703 176.437115 
L 242.979386 175.118034 
L 243.516069 175.681874 
L 244.052751 176.438912 
L 244.589434 176.857791 
L 245.126116 175.499051 
L 245.662799 175.265371 
L 246.199482 176.593675 
L 246.736164 177.003121 
L 247.272847 176.958296 
L 247.80953 176.65813 
L 248.346212 175.979501 
L 248.882895 177.016692 
L 249.419577 175.713814 
L 249.95626 177.368025 
L 250.492943 176.326134 
L 251.029625 177.030518 
L 251.566308 176.37115 
L 252.10299 176.20937 
L 252.639673 175.805203 
L 253.176356 177.408779 
L 253.713038 176.94233 
L 254.249721 175.819659 
L 254.786404 175.665067 
L 255.323086 175.928509 
L 255.859769 175.360766 
L 256.396451 177.154204 
L 256.933134 175.824469 
L 257.469817 175.907188 
L 258.006499 176.511175 
L 258.543182 176.7052 
L 258.543182 176.7052 
" clip-path="url(#p5014dcccfd)" style="fill: none; stroke: #0000ff; stroke-opacity: 0.5; stroke-linecap: square"/>
   </g>
   <g id="line2d_15">
    <path d="M 44.406818 180.687273 
L 99.148445 180.687273 
L 99.685128 176.101528 
L 100.22181 174.689413 
L 100.758493 163.033207 
L 101.295175 172.025233 
L 101.831858 173.602573 
L 102.368541 169.55972 
L 102.905223 158.8368 
L 103.978589 162.24785 
L 104.515271 161.2804 
L 105.051954 164.163042 
L 105.588636 169.446394 
L 106.125319 167.185266 
L 106.662002 162.590175 
L 107.198684 166.454954 
L 107.735367 157.365391 
L 108.272049 161.19407 
L 108.808732 166.027104 
L 109.345415 162.939789 
L 109.882097 167.593096 
L 110.41878 160.289207 
L 110.955463 166.953986 
L 111.492145 158.854861 
L 112.028828 168.408055 
L 112.56551 168.599936 
L 113.102193 154.904056 
L 113.638876 166.041173 
L 114.175558 163.380304 
L 115.248923 176.023811 
L 115.785606 167.824485 
L 116.322289 162.58404 
L 116.858971 168.201369 
L 117.395654 170.141311 
L 117.932337 160.767085 
L 118.469019 168.736436 
L 119.005702 173.955778 
L 119.542384 165.756227 
L 120.079067 169.2378 
L 120.61575 169.397917 
L 121.152432 171.940254 
L 122.225797 167.538273 
L 123.299163 166.387136 
L 124.372528 171.162998 
L 124.909211 175.626742 
L 125.445893 171.412823 
L 125.982576 170.82995 
L 126.519258 169.56807 
L 127.055941 175.199409 
L 127.592624 167.143479 
L 128.129306 169.321709 
L 128.665989 168.805457 
L 129.202671 172.213907 
L 129.739354 170.388885 
L 130.276037 169.881157 
L 130.812719 171.270173 
L 131.349402 175.72645 
L 131.886085 169.661547 
L 132.422767 169.190057 
L 132.95945 171.719861 
L 133.496132 167.692598 
L 134.569498 172.613079 
L 135.10618 169.288432 
L 135.642863 173.364674 
L 136.179545 173.449819 
L 136.716228 172.432901 
L 137.252911 173.615691 
L 137.789593 173.158793 
L 138.326276 170.054511 
L 138.862959 174.379692 
L 139.399641 170.812491 
L 139.936324 169.894953 
L 140.473006 171.031305 
L 141.009689 169.63022 
L 141.546372 166.272263 
L 142.083054 171.837785 
L 142.619737 168.043638 
L 143.156419 166.737203 
L 143.693102 170.694122 
L 144.229785 165.622478 
L 144.766467 167.180024 
L 145.30315 168.244641 
L 145.839833 165.639709 
L 146.376515 165.346071 
L 146.913198 161.487237 
L 147.986563 169.75402 
L 148.523246 171.164675 
L 149.059928 169.548134 
L 149.596611 173.47794 
L 150.133293 174.390354 
L 150.669976 172.375752 
L 151.206659 175.33881 
L 151.743341 175.39203 
L 152.280024 174.637866 
L 152.816707 176.694073 
L 153.353389 177.524025 
L 153.890072 175.597152 
L 154.426754 176.034318 
L 154.963437 176.847263 
L 155.50012 176.503901 
L 156.036802 175.790583 
L 156.573485 174.34491 
L 157.110167 177.361377 
L 157.64685 174.464264 
L 158.720215 177.813422 
L 159.256898 177.484266 
L 159.793581 172.577594 
L 160.866946 176.879731 
L 161.403628 175.199598 
L 161.940311 174.909629 
L 162.476994 175.298674 
L 163.013676 174.67973 
L 163.550359 176.387414 
L 164.087041 174.786782 
L 164.623724 171.590301 
L 165.160407 175.212997 
L 165.697089 173.026954 
L 166.233772 169.930334 
L 166.770455 173.474113 
L 167.307137 172.604162 
L 167.84382 173.290521 
L 168.380502 174.882001 
L 168.917185 173.72015 
L 169.453868 171.677401 
L 169.99055 174.136241 
L 170.527233 173.896528 
L 171.063915 172.490014 
L 171.600598 172.268613 
L 172.137281 173.778406 
L 172.673963 171.552239 
L 173.210646 171.34494 
L 173.747329 173.949005 
L 174.284011 171.219971 
L 174.820694 171.297581 
L 175.357376 173.017709 
L 175.894059 171.449931 
L 176.430742 172.063712 
L 176.967424 171.865925 
L 177.504107 170.876108 
L 178.040789 169.376328 
L 178.577472 169.727405 
L 179.114155 170.332137 
L 179.650837 171.184469 
L 180.18752 172.278541 
L 180.724203 172.091706 
L 181.260885 172.660522 
L 181.797568 172.225217 
L 182.33425 172.04386 
L 182.870933 171.130406 
L 183.407616 172.176595 
L 183.944298 171.759218 
L 184.480981 173.264096 
L 185.017663 172.845307 
L 185.554346 170.546365 
L 186.091029 169.218514 
L 186.627711 169.30474 
L 187.164394 171.695596 
L 187.701077 171.762665 
L 188.237759 174.100356 
L 188.774442 170.091002 
L 189.847807 172.690131 
L 190.38449 172.087177 
L 190.921172 172.587756 
L 191.457855 172.212014 
L 191.994537 173.783634 
L 192.53122 171.477499 
L 193.067903 170.905812 
L 193.604585 173.298224 
L 194.141268 172.931767 
L 194.677951 172.986971 
L 195.214633 173.454888 
L 195.751316 172.274899 
L 196.287998 172.537862 
L 196.824681 173.201962 
L 197.361364 172.048956 
L 197.898046 171.909655 
L 198.434729 171.574458 
L 198.971411 173.014634 
L 199.508094 172.676818 
L 200.044777 172.731875 
L 200.581459 171.05199 
L 201.118142 173.223064 
L 201.654825 171.563024 
L 202.191507 174.079284 
L 202.72819 175.061569 
L 203.264872 171.00169 
L 203.801555 171.251693 
L 204.338238 176.276699 
L 204.87492 172.655128 
L 205.411603 174.521854 
L 205.948285 174.202408 
L 206.484968 174.066303 
L 207.021651 174.82091 
L 207.558333 173.976371 
L 208.631699 174.760896 
L 209.168381 175.665239 
L 209.705064 173.461072 
L 210.241746 174.362387 
L 210.778429 176.44118 
L 211.315112 173.262057 
L 211.851794 174.483248 
L 212.388477 173.689736 
L 213.461842 176.410194 
L 213.998525 174.639063 
L 214.535207 174.027345 
L 215.07189 174.553379 
L 215.608573 173.950084 
L 216.145255 175.74556 
L 216.681938 175.301003 
L 217.21862 175.491781 
L 217.755303 173.802713 
L 218.291986 172.91207 
L 218.828668 174.814353 
L 219.365351 174.54309 
L 219.902033 175.191217 
L 220.438716 176.893764 
L 220.975399 175.408571 
L 221.512081 174.690869 
L 222.048764 175.323066 
L 222.585447 174.614695 
L 223.122129 175.681623 
L 223.658812 173.955411 
L 224.195494 176.177583 
L 224.732177 174.902827 
L 225.26886 173.068219 
L 225.805542 174.685188 
L 226.342225 173.441864 
L 226.878907 174.896708 
L 227.41559 174.930588 
L 227.952273 173.428662 
L 228.488955 175.13617 
L 229.025638 175.996198 
L 229.562321 174.651566 
L 230.099003 174.413545 
L 230.635686 173.09361 
L 231.709051 175.459178 
L 232.245734 174.555977 
L 232.782416 173.265437 
L 233.319099 174.493553 
L 233.855781 174.397513 
L 234.392464 174.693555 
L 234.929147 174.468075 
L 235.465829 175.275944 
L 236.002512 174.024976 
L 236.539195 173.552475 
L 237.075877 174.605679 
L 237.61256 173.001434 
L 238.149242 172.542675 
L 238.685925 173.459873 
L 239.222608 172.012464 
L 239.75929 175.017896 
L 240.295973 174.681144 
L 240.832656 175.201527 
L 241.369338 174.988832 
L 241.906021 173.934456 
L 242.442703 173.970976 
L 242.979386 173.887882 
L 243.516069 174.04307 
L 244.052751 175.022792 
L 244.589434 173.996684 
L 245.126116 173.915586 
L 245.662799 173.719369 
L 246.199482 172.947704 
L 246.736164 174.712197 
L 247.272847 173.486491 
L 247.80953 174.092839 
L 248.346212 173.901296 
L 248.882895 175.399387 
L 249.419577 173.412453 
L 249.95626 174.452377 
L 250.492943 173.709451 
L 251.029625 173.855822 
L 251.566308 174.987252 
L 252.10299 173.926119 
L 252.639673 175.045771 
L 253.713038 175.532944 
L 254.249721 174.06358 
L 254.786404 174.097289 
L 255.323086 174.448005 
L 255.859769 173.743087 
L 256.396451 174.61563 
L 257.469817 174.365645 
L 258.006499 173.469327 
L 258.543182 175.762584 
L 258.543182 175.762584 
" clip-path="url(#p5014dcccfd)" style="fill: none; stroke: #ff0000; stroke-opacity: 0.5; stroke-linecap: square"/>
   </g>
   <g id="patch_3">
    <path d="M 33.7 188.6 
L 33.7 14.52 
" style="fill: none; stroke: #000000; stroke-width: 0.8; stroke-linejoin: miter; stroke-linecap: square"/>
   </g>
   <g id="patch_4">
    <path d="M 269.25 188.6 
L 269.25 14.52 
" style="fill: none; stroke: #000000; stroke-width: 0.8; stroke-linejoin: miter; stroke-linecap: square"/>
   </g>
   <g id="patch_5">
    <path d="M 33.7 188.6 
L 269.25 188.6 
" style="fill: none; stroke: #000000; stroke-width: 0.8; stroke-linejoin: miter; stroke-linecap: square"/>
   </g>
   <g id="patch_6">
    <path d="M 33.7 14.52 
L 269.25 14.52 
" style="fill: none; stroke: #000000; stroke-width: 0.8; stroke-linejoin: miter; stroke-linecap: square"/>
   </g>
   <g id="legend_1">
    <g id="patch_7">
     <path d="M 213.917188 66.554375 
L 262.25 66.554375 
Q 264.25 66.554375 264.25 64.554375 
L 264.25 21.52 
Q 264.25 19.52 262.25 19.52 
L 213.917188 19.52 
Q 211.917188 19.52 211.917188 21.52 
L 211.917188 64.554375 
Q 211.917188 66.554375 213.917188 66.554375 
z
" style="fill: #ffffff; opacity: 0.8; stroke: #cccccc; stroke-linejoin: miter"/>
    </g>
    <g id="line2d_16">
     <path d="M 215.917188 27.618438 
L 225.917188 27.618438 
L 235.917188 27.618438 
" style="fill: none; stroke: #000000; stroke-opacity: 0.5; stroke-width: 0.5; stroke-linecap: square"/>
    </g>
    <g id="text_15">
     <!-- all -->
     <g transform="translate(243.917188 31.118438) scale(0.1 -0.1)">
      <defs>
       <path id="DejaVuSans-61" d="M 2194 1759 
Q 1497 1759 1228 1600 
Q 959 1441 959 1056 
Q 959 750 1161 570 
Q 1363 391 1709 391 
Q 2188 391 2477 730 
Q 2766 1069 2766 1631 
L 2766 1759 
L 2194 1759 
z
M 3341 1997 
L 3341 0 
L 2766 0 
L 2766 531 
Q 2569 213 2275 61 
Q 1981 -91 1556 -91 
Q 1019 -91 701 211 
Q 384 513 384 1019 
Q 384 1609 779 1909 
Q 1175 2209 1959 2209 
L 2766 2209 
L 2766 2266 
Q 2766 2663 2505 2880 
Q 2244 3097 1772 3097 
Q 1472 3097 1187 3025 
Q 903 2953 641 2809 
L 641 3341 
Q 956 3463 1253 3523 
Q 1550 3584 1831 3584 
Q 2591 3584 2966 3190 
Q 3341 2797 3341 1997 
z
" transform="scale(0.015625)"/>
       <path id="DejaVuSans-6c" d="M 603 4863 
L 1178 4863 
L 1178 0 
L 603 0 
L 603 4863 
z
" transform="scale(0.015625)"/>
      </defs>
      <use xlink:href="#DejaVuSans-61"/>
      <use xlink:href="#DejaVuSans-6c" transform="translate(61.279297 0)"/>
      <use xlink:href="#DejaVuSans-6c" transform="translate(89.0625 0)"/>
     </g>
    </g>
    <g id="line2d_17">
     <path d="M 215.917188 42.296563 
L 225.917188 42.296563 
L 235.917188 42.296563 
" style="fill: none; stroke: #0000ff; stroke-opacity: 0.5; stroke-linecap: square"/>
    </g>
    <g id="text_16">
     <!-- 1-1 -->
     <g transform="translate(243.917188 45.796563) scale(0.1 -0.1)">
      <defs>
       <path id="DejaVuSans-2d" d="M 313 2009 
L 1997 2009 
L 1997 1497 
L 313 1497 
L 313 2009 
z
" transform="scale(0.015625)"/>
      </defs>
      <use xlink:href="#DejaVuSans-31"/>
      <use xlink:href="#DejaVuSans-2d" transform="translate(63.623047 0)"/>
      <use xlink:href="#DejaVuSans-31" transform="translate(99.707031 0)"/>
     </g>
    </g>
    <g id="line2d_18">
     <path d="M 215.917188 56.974688 
L 225.917188 56.974688 
L 235.917188 56.974688 
" style="fill: none; stroke: #ff0000; stroke-opacity: 0.5; stroke-linecap: square"/>
    </g>
    <g id="text_17">
     <!-- 2-2 -->
     <g transform="translate(243.917188 60.474688) scale(0.1 -0.1)">
      <use xlink:href="#DejaVuSans-32"/>
      <use xlink:href="#DejaVuSans-2d" transform="translate(63.623047 0)"/>
      <use xlink:href="#DejaVuSans-32" transform="translate(99.707031 0)"/>
     </g>
    </g>
   </g>
  </g>
 </g>
 <defs>
  <clipPath id="p5014dcccfd">
   <rect x="33.7" y="14.52" width="235.55" height="174.08"/>
  </clipPath>
 </defs>
</svg>
