<?xml version="1.0" encoding="utf-8" standalone="no"?>
<!DOCTYPE svg PUBLIC "-//W3C//DTD SVG 1.1//EN"
  "http://www.w3.org/Graphics/SVG/1.1/DTD/svg11.dtd">
<svg xmlns:xlink="http://www.w3.org/1999/xlink" width="288pt" height="216pt" viewBox="0 0 288 216" xmlns="http://www.w3.org/2000/svg" version="1.1">
 <metadata>
  <rdf:RDF xmlns:dc="http://purl.org/dc/elements/1.1/" xmlns:cc="http://creativecommons.org/ns#" xmlns:rdf="http://www.w3.org/1999/02/22-rdf-syntax-ns#">
   <cc:Work>
    <dc:type rdf:resource="http://purl.org/dc/dcmitype/StillImage"/>
    <dc:date>2025-09-18T00:09:45.496660</dc:date>
    <dc:format>image/svg+xml</dc:format>
    <dc:creator>
     <cc:Agent>
      <dc:title>Matplotlib v3.10.0, https://matplotlib.org/</dc:title>
     </cc:Agent>
    </dc:creator>
   </cc:Work>
  </rdf:RDF>
 </metadata>
 <defs>
  <style type="text/css">*{stroke-linejoin: round; stroke-linecap: butt}</style>
 </defs>
 <g id="figure_1">
  <g id="patch_1">
   <path d="M 0 216 
L 288 216 
L 288 0 
L 0 0 
z
" style="fill: #ffffff"/>
  </g>
  <g id="axes_1">
   <g id="patch_2">
    <path d="M 33.7 188.6 
L 269.25 188.6 
L 269.25 14.52 
L 33.7 14.52 
z
" style="fill: #ffffff"/>
   </g>
   <g id="matplotlib.axis_1">
    <g id="xtick_1">
     <g id="line2d_1">
      <defs>
       <path id="ma62ae8b474" d="M 0 0 
L 0 3.5 
" style="stroke: #000000; stroke-width: 0.8"/>
      </defs>
      <g>
       <use xlink:href="#ma62ae8b474" x="44.138477" y="188.6" style="stroke: #000000; stroke-width: 0.8"/>
      </g>
     </g>
     <g id="text_1">
      <!-- 0 -->
      <g transform="translate(40.957227 203.198437) scale(0.1 -0.1)">
       <defs>
        <path id="DejaVuSans-30" d="M 2034 4250 
Q 1547 4250 1301 3770 
Q 1056 3291 1056 2328 
Q 1056 1369 1301 889 
Q 1547 409 2034 409 
Q 2525 409 2770 889 
Q 3016 1369 3016 2328 
Q 3016 3291 2770 3770 
Q 2525 4250 2034 4250 
z
M 2034 4750 
Q 2819 4750 3233 4129 
Q 3647 3509 3647 2328 
Q 3647 1150 3233 529 
Q 2819 -91 2034 -91 
Q 1250 -91 836 529 
Q 422 1150 422 2328 
Q 422 3509 836 4129 
Q 1250 4750 2034 4750 
z
" transform="scale(0.015625)"/>
       </defs>
       <use xlink:href="#DejaVuSans-30"/>
      </g>
     </g>
    </g>
    <g id="xtick_2">
     <g id="line2d_2">
      <g>
       <use xlink:href="#ma62ae8b474" x="87.073086" y="188.6" style="stroke: #000000; stroke-width: 0.8"/>
      </g>
     </g>
     <g id="text_2">
      <!-- 200 -->
      <g transform="translate(77.529336 203.198437) scale(0.1 -0.1)">
       <defs>
        <path id="DejaVuSans-32" d="M 1228 531 
L 3431 531 
L 3431 0 
L 469 0 
L 469 531 
Q 828 903 1448 1529 
Q 2069 2156 2228 2338 
Q 2531 2678 2651 2914 
Q 2772 3150 2772 3378 
Q 2772 3750 2511 3984 
Q 2250 4219 1831 4219 
Q 1534 4219 1204 4116 
Q 875 4013 500 3803 
L 500 4441 
Q 881 4594 1212 4672 
Q 1544 4750 1819 4750 
Q 2544 4750 2975 4387 
Q 3406 4025 3406 3419 
Q 3406 3131 3298 2873 
Q 3191 2616 2906 2266 
Q 2828 2175 2409 1742 
Q 1991 1309 1228 531 
z
" transform="scale(0.015625)"/>
       </defs>
       <use xlink:href="#DejaVuSans-32"/>
       <use xlink:href="#DejaVuSans-30" transform="translate(63.623047 0)"/>
       <use xlink:href="#DejaVuSans-30" transform="translate(127.246094 0)"/>
      </g>
     </g>
    </g>
    <g id="xtick_3">
     <g id="line2d_3">
      <g>
       <use xlink:href="#ma62ae8b474" x="130.007695" y="188.6" style="stroke: #000000; stroke-width: 0.8"/>
      </g>
     </g>
     <g id="text_3">
      <!-- 400 -->
      <g transform="translate(120.463945 203.198437) scale(0.1 -0.1)">
       <defs>
        <path id="DejaVuSans-34" d="M 2419 4116 
L 825 1625 
L 2419 1625 
L 2419 4116 
z
M 2253 4666 
L 3047 4666 
L 3047 1625 
L 3713 1625 
L 3713 1100 
L 3047 1100 
L 3047 0 
L 2419 0 
L 2419 1100 
L 313 1100 
L 313 1709 
L 2253 4666 
z
" transform="scale(0.015625)"/>
       </defs>
       <use xlink:href="#DejaVuSans-34"/>
       <use xlink:href="#DejaVuSans-30" transform="translate(63.623047 0)"/>
       <use xlink:href="#DejaVuSans-30" transform="translate(127.246094 0)"/>
      </g>
     </g>
    </g>
    <g id="xtick_4">
     <g id="line2d_4">
      <g>
       <use xlink:href="#ma62ae8b474" x="172.942305" y="188.6" style="stroke: #000000; stroke-width: 0.8"/>
      </g>
     </g>
     <g id="text_4">
      <!-- 600 -->
      <g transform="translate(163.398555 203.198437) scale(0.1 -0.1)">
       <defs>
        <path id="DejaVuSans-36" d="M 2113 2584 
Q 1688 2584 1439 2293 
Q 1191 2003 1191 1497 
Q 1191 994 1439 701 
Q 1688 409 2113 409 
Q 2538 409 2786 701 
Q 3034 994 3034 1497 
Q 3034 2003 2786 2293 
Q 2538 2584 2113 2584 
z
M 3366 4563 
L 3366 3988 
Q 3128 4100 2886 4159 
Q 2644 4219 2406 4219 
Q 1781 4219 1451 3797 
Q 1122 3375 1075 2522 
Q 1259 2794 1537 2939 
Q 1816 3084 2150 3084 
Q 2853 3084 3261 2657 
Q 3669 2231 3669 1497 
Q 3669 778 3244 343 
Q 2819 -91 2113 -91 
Q 1303 -91 875 529 
Q 447 1150 447 2328 
Q 447 3434 972 4092 
Q 1497 4750 2381 4750 
Q 2619 4750 2861 4703 
Q 3103 4656 3366 4563 
z
" transform="scale(0.015625)"/>
       </defs>
       <use xlink:href="#DejaVuSans-36"/>
       <use xlink:href="#DejaVuSans-30" transform="translate(63.623047 0)"/>
       <use xlink:href="#DejaVuSans-30" transform="translate(127.246094 0)"/>
      </g>
     </g>
    </g>
    <g id="xtick_5">
     <g id="line2d_5">
      <g>
       <use xlink:href="#ma62ae8b474" x="215.876914" y="188.6" style="stroke: #000000; stroke-width: 0.8"/>
      </g>
     </g>
     <g id="text_5">
      <!-- 800 -->
      <g transform="translate(206.333164 203.198437) scale(0.1 -0.1)">
       <defs>
        <path id="DejaVuSans-38" d="M 2034 2216 
Q 1584 2216 1326 1975 
Q 1069 1734 1069 1313 
Q 1069 891 1326 650 
Q 1584 409 2034 409 
Q 2484 409 2743 651 
Q 3003 894 3003 1313 
Q 3003 1734 2745 1975 
Q 2488 2216 2034 2216 
z
M 1403 2484 
Q 997 2584 770 2862 
Q 544 3141 544 3541 
Q 544 4100 942 4425 
Q 1341 4750 2034 4750 
Q 2731 4750 3128 4425 
Q 3525 4100 3525 3541 
Q 3525 3141 3298 2862 
Q 3072 2584 2669 2484 
Q 3125 2378 3379 2068 
Q 3634 1759 3634 1313 
Q 3634 634 3220 271 
Q 2806 -91 2034 -91 
Q 1263 -91 848 271 
Q 434 634 434 1313 
Q 434 1759 690 2068 
Q 947 2378 1403 2484 
z
M 1172 3481 
Q 1172 3119 1398 2916 
Q 1625 2713 2034 2713 
Q 2441 2713 2670 2916 
Q 2900 3119 2900 3481 
Q 2900 3844 2670 4047 
Q 2441 4250 2034 4250 
Q 1625 4250 1398 4047 
Q 1172 3844 1172 3481 
z
" transform="scale(0.015625)"/>
       </defs>
       <use xlink:href="#DejaVuSans-38"/>
       <use xlink:href="#DejaVuSans-30" transform="translate(63.623047 0)"/>
       <use xlink:href="#DejaVuSans-30" transform="translate(127.246094 0)"/>
      </g>
     </g>
    </g>
    <g id="xtick_6">
     <g id="line2d_6">
      <g>
       <use xlink:href="#ma62ae8b474" x="258.811523" y="188.6" style="stroke: #000000; stroke-width: 0.8"/>
      </g>
     </g>
     <g id="text_6">
      <!-- 1000 -->
      <g transform="translate(246.086523 203.198437) scale(0.1 -0.1)">
       <defs>
        <path id="DejaVuSans-31" d="M 794 531 
L 1825 531 
L 1825 4091 
L 703 3866 
L 703 4441 
L 1819 4666 
L 2450 4666 
L 2450 531 
L 3481 531 
L 3481 0 
L 794 0 
L 794 531 
z
" transform="scale(0.015625)"/>
       </defs>
       <use xlink:href="#DejaVuSans-31"/>
       <use xlink:href="#DejaVuSans-30" transform="translate(63.623047 0)"/>
       <use xlink:href="#DejaVuSans-30" transform="translate(127.246094 0)"/>
       <use xlink:href="#DejaVuSans-30" transform="translate(190.869141 0)"/>
      </g>
     </g>
    </g>
    <g id="text_7">
     <!-- q (nm) -->
     <g transform="translate(134.771094 216.876563) scale(0.1 -0.1)">
      <defs>
       <path id="DejaVuSans-71" d="M 947 1747 
Q 947 1113 1208 752 
Q 1469 391 1925 391 
Q 2381 391 2643 752 
Q 2906 1113 2906 1747 
Q 2906 2381 2643 2742 
Q 2381 3103 1925 3103 
Q 1469 3103 1208 2742 
Q 947 2381 947 1747 
z
M 2906 525 
Q 2725 213 2448 61 
Q 2172 -91 1784 -91 
Q 1150 -91 751 415 
Q 353 922 353 1747 
Q 353 2572 751 3078 
Q 1150 3584 1784 3584 
Q 2172 3584 2448 3432 
Q 2725 3281 2906 2969 
L 2906 3500 
L 3481 3500 
L 3481 -1331 
L 2906 -1331 
L 2906 525 
z
" transform="scale(0.015625)"/>
       <path id="DejaVuSans-20" transform="scale(0.015625)"/>
       <path id="DejaVuSans-28" d="M 1984 4856 
Q 1566 4138 1362 3434 
Q 1159 2731 1159 2009 
Q 1159 1288 1364 580 
Q 1569 -128 1984 -844 
L 1484 -844 
Q 1016 -109 783 600 
Q 550 1309 550 2009 
Q 550 2706 781 3412 
Q 1013 4119 1484 4856 
L 1984 4856 
z
" transform="scale(0.015625)"/>
       <path id="DejaVuSans-6e" d="M 3513 2113 
L 3513 0 
L 2938 0 
L 2938 2094 
Q 2938 2591 2744 2837 
Q 2550 3084 2163 3084 
Q 1697 3084 1428 2787 
Q 1159 2491 1159 1978 
L 1159 0 
L 581 0 
L 581 3500 
L 1159 3500 
L 1159 2956 
Q 1366 3272 1645 3428 
Q 1925 3584 2291 3584 
Q 2894 3584 3203 3211 
Q 3513 2838 3513 2113 
z
" transform="scale(0.015625)"/>
       <path id="DejaVuSans-6d" d="M 3328 2828 
Q 3544 3216 3844 3400 
Q 4144 3584 4550 3584 
Q 5097 3584 5394 3201 
Q 5691 2819 5691 2113 
L 5691 0 
L 5113 0 
L 5113 2094 
Q 5113 2597 4934 2840 
Q 4756 3084 4391 3084 
Q 3944 3084 3684 2787 
Q 3425 2491 3425 1978 
L 3425 0 
L 2847 0 
L 2847 2094 
Q 2847 2600 2669 2842 
Q 2491 3084 2119 3084 
Q 1678 3084 1418 2786 
Q 1159 2488 1159 1978 
L 1159 0 
L 581 0 
L 581 3500 
L 1159 3500 
L 1159 2956 
Q 1356 3278 1631 3431 
Q 1906 3584 2284 3584 
Q 2666 3584 2933 3390 
Q 3200 3197 3328 2828 
z
" transform="scale(0.015625)"/>
       <path id="DejaVuSans-29" d="M 513 4856 
L 1013 4856 
Q 1481 4119 1714 3412 
Q 1947 2706 1947 2009 
Q 1947 1309 1714 600 
Q 1481 -109 1013 -844 
L 513 -844 
Q 928 -128 1133 580 
Q 1338 1288 1338 2009 
Q 1338 2731 1133 3434 
Q 928 4138 513 4856 
z
" transform="scale(0.015625)"/>
      </defs>
      <use xlink:href="#DejaVuSans-71"/>
      <use xlink:href="#DejaVuSans-20" transform="translate(63.476562 0)"/>
      <use xlink:href="#DejaVuSans-28" transform="translate(95.263672 0)"/>
      <use xlink:href="#DejaVuSans-6e" transform="translate(134.277344 0)"/>
      <use xlink:href="#DejaVuSans-6d" transform="translate(197.65625 0)"/>
      <use xlink:href="#DejaVuSans-29" transform="translate(295.068359 0)"/>
     </g>
    </g>
   </g>
   <g id="matplotlib.axis_2">
    <g id="ytick_1">
     <g id="line2d_7">
      <defs>
       <path id="m27c3442de9" d="M 0 0 
L -3.5 0 
" style="stroke: #000000; stroke-width: 0.8"/>
      </defs>
      <g>
       <use xlink:href="#m27c3442de9" x="33.7" y="180.687273" style="stroke: #000000; stroke-width: 0.8"/>
      </g>
     </g>
     <g id="text_8">
      <!-- 0 -->
      <g transform="translate(20.3375 184.486491) scale(0.1 -0.1)">
       <use xlink:href="#DejaVuSans-30"/>
      </g>
     </g>
    </g>
    <g id="ytick_2">
     <g id="line2d_8">
      <g>
       <use xlink:href="#m27c3442de9" x="33.7" y="139.188229" style="stroke: #000000; stroke-width: 0.8"/>
      </g>
     </g>
     <g id="text_9">
      <!-- 20000 -->
      <g transform="translate(-5.1125 142.987448) scale(0.1 -0.1)">
       <use xlink:href="#DejaVuSans-32"/>
       <use xlink:href="#DejaVuSans-30" transform="translate(63.623047 0)"/>
       <use xlink:href="#DejaVuSans-30" transform="translate(127.246094 0)"/>
       <use xlink:href="#DejaVuSans-30" transform="translate(190.869141 0)"/>
       <use xlink:href="#DejaVuSans-30" transform="translate(254.492188 0)"/>
      </g>
     </g>
    </g>
    <g id="ytick_3">
     <g id="line2d_9">
      <g>
       <use xlink:href="#m27c3442de9" x="33.7" y="97.689185" style="stroke: #000000; stroke-width: 0.8"/>
      </g>
     </g>
     <g id="text_10">
      <!-- 40000 -->
      <g transform="translate(-5.1125 101.488404) scale(0.1 -0.1)">
       <use xlink:href="#DejaVuSans-34"/>
       <use xlink:href="#DejaVuSans-30" transform="translate(63.623047 0)"/>
       <use xlink:href="#DejaVuSans-30" transform="translate(127.246094 0)"/>
       <use xlink:href="#DejaVuSans-30" transform="translate(190.869141 0)"/>
       <use xlink:href="#DejaVuSans-30" transform="translate(254.492188 0)"/>
      </g>
     </g>
    </g>
    <g id="ytick_4">
     <g id="line2d_10">
      <g>
       <use xlink:href="#m27c3442de9" x="33.7" y="56.190141" style="stroke: #000000; stroke-width: 0.8"/>
      </g>
     </g>
     <g id="text_11">
      <!-- 60000 -->
      <g transform="translate(-5.1125 59.98936) scale(0.1 -0.1)">
       <use xlink:href="#DejaVuSans-36"/>
       <use xlink:href="#DejaVuSans-30" transform="translate(63.623047 0)"/>
       <use xlink:href="#DejaVuSans-30" transform="translate(127.246094 0)"/>
       <use xlink:href="#DejaVuSans-30" transform="translate(190.869141 0)"/>
       <use xlink:href="#DejaVuSans-30" transform="translate(254.492188 0)"/>
      </g>
     </g>
    </g>
    <g id="ytick_5">
     <g id="line2d_11">
      <g>
       <use xlink:href="#m27c3442de9" x="33.7" y="14.691097" style="stroke: #000000; stroke-width: 0.8"/>
      </g>
     </g>
     <g id="text_12">
      <!-- 80000 -->
      <g transform="translate(-5.1125 18.490316) scale(0.1 -0.1)">
       <use xlink:href="#DejaVuSans-38"/>
       <use xlink:href="#DejaVuSans-30" transform="translate(63.623047 0)"/>
       <use xlink:href="#DejaVuSans-30" transform="translate(127.246094 0)"/>
       <use xlink:href="#DejaVuSans-30" transform="translate(190.869141 0)"/>
       <use xlink:href="#DejaVuSans-30" transform="translate(254.492188 0)"/>
      </g>
     </g>
    </g>
    <g id="text_13">
     <!-- rdf -->
     <g transform="translate(-11.192187 108.462344) rotate(-90) scale(0.1 -0.1)">
      <defs>
       <path id="DejaVuSans-72" d="M 2631 2963 
Q 2534 3019 2420 3045 
Q 2306 3072 2169 3072 
Q 1681 3072 1420 2755 
Q 1159 2438 1159 1844 
L 1159 0 
L 581 0 
L 581 3500 
L 1159 3500 
L 1159 2956 
Q 1341 3275 1631 3429 
Q 1922 3584 2338 3584 
Q 2397 3584 2469 3576 
Q 2541 3569 2628 3553 
L 2631 2963 
z
" transform="scale(0.015625)"/>
       <path id="DejaVuSans-64" d="M 2906 2969 
L 2906 4863 
L 3481 4863 
L 3481 0 
L 2906 0 
L 2906 525 
Q 2725 213 2448 61 
Q 2172 -91 1784 -91 
Q 1150 -91 751 415 
Q 353 922 353 1747 
Q 353 2572 751 3078 
Q 1150 3584 1784 3584 
Q 2172 3584 2448 3432 
Q 2725 3281 2906 2969 
z
M 947 1747 
Q 947 1113 1208 752 
Q 1469 391 1925 391 
Q 2381 391 2643 752 
Q 2906 1113 2906 1747 
Q 2906 2381 2643 2742 
Q 2381 3103 1925 3103 
Q 1469 3103 1208 2742 
Q 947 2381 947 1747 
z
" transform="scale(0.015625)"/>
       <path id="DejaVuSans-66" d="M 2375 4863 
L 2375 4384 
L 1825 4384 
Q 1516 4384 1395 4259 
Q 1275 4134 1275 3809 
L 1275 3500 
L 2222 3500 
L 2222 3053 
L 1275 3053 
L 1275 0 
L 697 0 
L 697 3053 
L 147 3053 
L 147 3500 
L 697 3500 
L 697 3744 
Q 697 4328 969 4595 
Q 1241 4863 1831 4863 
L 2375 4863 
z
" transform="scale(0.015625)"/>
      </defs>
      <use xlink:href="#DejaVuSans-72"/>
      <use xlink:href="#DejaVuSans-64" transform="translate(39.363281 0)"/>
      <use xlink:href="#DejaVuSans-66" transform="translate(102.839844 0)"/>
     </g>
    </g>
   </g>
   <g id="line2d_12">
    <path d="M 44.406818 180.687273 
L 92.708254 180.687273 
L 93.244936 180.44876 
L 93.781619 180.570581 
L 94.318301 180.458854 
L 94.854984 180.575468 
L 95.928349 22.432727 
L 96.465032 178.27157 
L 97.001715 180.275638 
L 97.538397 178.569409 
L 98.07508 176.140006 
L 98.611762 175.744589 
L 99.148445 172.704451 
L 99.685128 171.739478 
L 100.22181 172.641363 
L 101.295175 177.78232 
L 101.831858 178.7865 
L 102.368541 179.499881 
L 102.905223 180.437458 
L 103.441906 180.033101 
L 105.051954 180.532261 
L 106.125319 180.013669 
L 106.662002 180.172315 
L 107.735367 177.487624 
L 108.272049 175.65316 
L 108.808732 175.667609 
L 109.345415 177.373147 
L 109.882097 178.09239 
L 110.41878 179.639875 
L 110.955463 180.043122 
L 111.492145 179.229243 
L 112.028828 178.877835 
L 112.56551 175.650882 
L 113.638876 167.589135 
L 114.175558 167.671871 
L 114.712241 173.585303 
L 115.248923 175.511968 
L 115.785606 176.765691 
L 116.322289 175.995886 
L 117.395654 169.487547 
L 117.932337 169.913896 
L 119.005702 176.63401 
L 119.542384 179.22047 
L 120.079067 179.739799 
L 120.61575 180.441424 
L 121.152432 180.153918 
L 121.689115 180.352547 
L 122.76248 180.454667 
L 123.299163 180.366024 
L 123.835845 180.506166 
L 124.909211 180.334623 
L 125.982576 179.613958 
L 127.055941 175.458744 
L 127.592624 174.328297 
L 128.129306 174.653903 
L 128.665989 174.166764 
L 129.202671 173.135962 
L 129.739354 173.544336 
L 130.276037 175.881109 
L 130.812719 176.897464 
L 131.349402 179.174827 
L 131.886085 180.127022 
L 132.422767 180.539683 
L 132.95945 180.505008 
L 133.496132 180.255077 
L 134.032815 180.366986 
L 134.569498 180.194944 
L 135.10618 180.304995 
L 135.642863 179.176042 
L 136.179545 176.511819 
L 136.716228 173.238205 
L 137.252911 170.869317 
L 137.789593 174.030995 
L 138.326276 174.981889 
L 138.862959 171.20026 
L 139.399641 165.285657 
L 139.936324 166.241108 
L 140.473006 172.723269 
L 141.009689 176.48878 
L 141.546372 178.868726 
L 142.083054 179.308288 
L 142.619737 179.323278 
L 143.156419 177.842116 
L 143.693102 175.580436 
L 144.229785 174.917411 
L 144.766467 175.802398 
L 145.30315 175.404493 
L 146.376515 160.685382 
L 146.913198 171.920382 
L 147.44988 177.696462 
L 147.986563 175.300646 
L 148.523246 170.710714 
L 149.059928 170.499037 
L 149.596611 173.059034 
L 150.133293 176.335744 
L 150.669976 178.229293 
L 151.206659 179.558376 
L 151.743341 179.246728 
L 152.280024 177.736343 
L 152.816707 176.937561 
L 153.353389 175.865249 
L 153.890072 176.676296 
L 154.963437 179.563367 
L 155.50012 179.666938 
L 156.036802 179.332185 
L 157.110167 176.946767 
L 157.64685 176.557945 
L 158.720215 178.913021 
L 159.793581 180.300279 
L 160.330263 180.452955 
L 160.866946 180.307363 
L 161.403628 180.478139 
L 161.940311 180.48004 
L 163.013676 180.219205 
L 163.550359 179.699031 
L 164.087041 177.888937 
L 165.160407 172.970665 
L 165.697089 173.427875 
L 166.233772 174.764783 
L 166.770455 176.824446 
L 167.307137 176.668465 
L 167.84382 176.797213 
L 168.380502 177.501453 
L 168.917185 177.750442 
L 169.453868 177.262789 
L 169.99055 175.548853 
L 170.527233 174.278193 
L 171.063915 174.296553 
L 171.600598 173.217394 
L 172.137281 173.086817 
L 172.673963 170.991743 
L 173.210646 172.004359 
L 173.747329 173.377211 
L 174.284011 176.136992 
L 174.820694 177.908759 
L 175.357376 177.981547 
L 175.894059 177.721914 
L 176.430742 176.086287 
L 176.967424 177.019861 
L 177.504107 176.903798 
L 178.040789 177.09446 
L 178.577472 177.139 
L 179.114155 176.946164 
L 179.650837 176.552896 
L 180.18752 177.20694 
L 180.724203 178.976175 
L 181.260885 180.044888 
L 182.33425 180.4614 
L 183.407616 180.375906 
L 183.944298 180.260586 
L 184.480981 179.840412 
L 185.017663 179.194807 
L 186.091029 175.478093 
L 186.627711 175.191476 
L 187.164394 177.158644 
L 187.701077 178.398912 
L 188.237759 178.96991 
L 188.774442 177.113025 
L 189.847807 171.503564 
L 190.921172 174.240229 
L 191.457855 176.115721 
L 191.994537 176.885536 
L 192.53122 176.259999 
L 193.067903 176.499294 
L 193.604585 176.992749 
L 194.141268 177.798769 
L 194.677951 179.126401 
L 195.214633 178.242878 
L 195.751316 176.158303 
L 196.287998 176.215035 
L 196.824681 177.405973 
L 197.361364 177.281924 
L 197.898046 176.356852 
L 198.434729 174.973645 
L 198.971411 174.905203 
L 200.581459 179.371234 
L 201.118142 179.893705 
L 201.654825 179.713649 
L 202.72819 178.114542 
L 203.801555 177.348043 
L 204.87492 177.993566 
L 205.411603 178.000406 
L 205.948285 177.732618 
L 206.484968 177.206572 
L 207.021651 176.134663 
L 207.558333 175.75532 
L 208.095016 175.915926 
L 208.631699 175.734455 
L 209.168381 176.452968 
L 209.705064 175.72503 
L 210.241746 175.41306 
L 211.315112 177.126956 
L 211.851794 177.364418 
L 212.925159 176.265848 
L 213.461842 176.073163 
L 213.998525 176.182014 
L 214.535207 176.953197 
L 215.608573 178.114857 
L 216.145255 178.383603 
L 216.681938 178.861582 
L 217.21862 179.141681 
L 218.828668 176.983715 
L 219.365351 177.23117 
L 219.902033 177.33602 
L 220.438716 177.069561 
L 220.975399 177.128287 
L 221.512081 177.734775 
L 222.048764 178.552129 
L 222.585447 178.980376 
L 223.122129 178.514807 
L 223.658812 177.626524 
L 224.732177 175.132089 
L 225.26886 175.427917 
L 225.805542 178.134121 
L 226.342225 179.569796 
L 226.878907 180.015553 
L 227.41559 180.010922 
L 229.025638 179.206589 
L 230.099003 179.248573 
L 230.635686 178.802086 
L 231.172368 178.064798 
L 231.709051 178.202375 
L 232.245734 178.826103 
L 232.782416 179.159913 
L 233.319099 178.622164 
L 233.855781 178.282271 
L 235.465829 179.878087 
L 236.002512 180.05448 
L 236.539195 179.801638 
L 237.61256 177.560388 
L 238.149242 176.202396 
L 239.222608 174.249174 
L 239.75929 174.051458 
L 240.295973 174.057811 
L 240.832656 174.331835 
L 241.906021 177.709386 
L 242.442703 178.646934 
L 242.979386 178.570646 
L 243.516069 177.778987 
L 244.052751 176.77999 
L 244.589434 176.536073 
L 245.126116 176.551076 
L 245.662799 177.925604 
L 246.199482 178.827748 
L 246.736164 179.138854 
L 247.272847 178.972801 
L 247.80953 178.468792 
L 248.346212 178.673548 
L 249.419577 177.705006 
L 249.95626 176.98734 
L 250.492943 177.303718 
L 251.566308 178.615267 
L 252.10299 178.399864 
L 252.639673 177.095182 
L 253.176356 176.804284 
L 253.713038 176.274141 
L 254.249721 175.573584 
L 254.786404 175.521835 
L 255.323086 176.102611 
L 255.859769 177.29345 
L 256.396451 177.336124 
L 256.933134 177.575282 
L 257.469817 177.230725 
L 258.006499 177.040575 
L 258.543182 177.309056 
L 258.543182 177.309056 
" clip-path="url(#p184a8c0db6)" style="fill: none; stroke: #000000; stroke-opacity: 0.5; stroke-width: 0.5; stroke-linecap: square"/>
   </g>
   <g id="line2d_13">
    <path d="M 44.406818 180.687273 
L 92.708254 180.687273 
L 93.244936 179.956827 
L 93.781619 180.329904 
L 94.318301 179.987742 
L 95.391667 180.687273 
L 95.928349 179.702202 
L 96.465032 179.722304 
L 97.001715 179.426641 
L 97.538397 174.201315 
L 98.07508 166.761265 
L 98.611762 165.550302 
L 99.148445 156.239876 
L 99.685128 153.284648 
L 100.22181 156.046674 
L 101.295175 171.790854 
L 101.831858 174.866155 
L 102.368541 177.050887 
L 102.905223 179.922215 
L 103.441906 178.683873 
L 103.978589 179.211557 
L 104.515271 179.962473 
L 105.051954 180.21255 
L 105.588636 179.287875 
L 106.125319 178.853574 
L 106.662002 179.110214 
L 107.198684 175.593324 
L 107.735367 171.106103 
L 108.272049 165.484425 
L 108.808732 165.525135 
L 109.345415 170.744893 
L 109.882097 173.147973 
L 110.41878 178.081053 
L 110.955463 179.503646 
L 111.492145 179.910713 
L 112.028828 180.49619 
L 112.56551 179.746788 
L 113.102193 180.502092 
L 113.638876 179.775612 
L 114.175558 179.789532 
L 114.712241 179.272653 
L 115.248923 177.552232 
L 115.785606 175.368627 
L 116.322289 168.348234 
L 117.395654 147.208663 
L 117.932337 148.502464 
L 119.005702 169.059795 
L 119.542384 176.195187 
L 120.079067 177.938352 
L 120.61575 180.235526 
L 121.152432 179.499346 
L 121.689115 180.247945 
L 122.225797 180.3984 
L 123.299163 180.406181 
L 123.835845 180.271294 
L 124.372528 180.687273 
L 124.909211 180.552274 
L 125.445893 180.55405 
L 125.982576 180.424311 
L 126.519258 180.557499 
L 127.055941 180.431075 
L 127.592624 180.687273 
L 128.129306 180.687273 
L 128.665989 180.440741 
L 129.202671 180.687273 
L 129.739354 180.446885 
L 130.276037 180.687273 
L 130.812719 180.570037 
L 131.349402 180.687273 
L 131.886085 180.344119 
L 132.422767 180.687273 
L 134.032815 180.251327 
L 135.10618 179.835835 
L 135.642863 176.795425 
L 136.179545 168.627678 
L 136.716228 158.388302 
L 137.252911 152.041891 
L 137.789593 163.314958 
L 138.326276 170.163918 
L 138.862959 162.62669 
L 139.399641 150.989246 
L 139.936324 154.487927 
L 140.473006 171.197092 
L 141.009689 177.590118 
L 141.546372 179.480591 
L 142.083054 179.769198 
L 142.619737 180.414844 
L 143.156419 179.878823 
L 143.693102 180.242963 
L 144.229785 180.071892 
L 144.766467 180.339367 
L 145.30315 180.084881 
L 145.839833 178.899123 
L 146.376515 159.706953 
L 146.913198 167.012827 
L 147.44988 180.027139 
L 147.986563 180.605607 
L 153.890072 180.614156 
L 154.426754 180.470052 
L 155.50012 180.687273 
L 156.036802 180.546596 
L 156.573485 180.687273 
L 157.110167 180.549257 
L 157.64685 180.550558 
L 158.183533 180.687273 
L 159.256898 180.620815 
L 163.013676 180.624949 
L 165.160407 180.025814 
L 165.697089 179.137595 
L 166.770455 175.357958 
L 167.307137 171.572682 
L 167.84382 170.040111 
L 168.380502 172.071818 
L 168.917185 175.087207 
L 169.453868 174.966828 
L 170.527233 170.487428 
L 171.063915 169.425412 
L 171.600598 165.833806 
L 172.137281 164.721707 
L 172.673963 159.523992 
L 173.747329 166.479086 
L 174.820694 176.045892 
L 175.357376 179.357375 
L 176.430742 179.026604 
L 176.967424 177.492549 
L 177.504107 175.091893 
L 178.040789 175.873464 
L 178.577472 177.08132 
L 179.114155 178.705235 
L 179.650837 179.728066 
L 180.18752 180.306611 
L 182.870933 180.275435 
L 183.944298 180.011379 
L 184.480981 179.03279 
L 185.017663 177.75849 
L 185.554346 175.094279 
L 186.091029 173.825248 
L 186.627711 173.399675 
L 187.164394 176.252763 
L 187.701077 177.482346 
L 188.237759 179.117929 
L 188.774442 180.013664 
L 190.38449 180.234309 
L 190.921172 179.583567 
L 191.457855 179.266945 
L 192.53122 175.047886 
L 193.067903 173.936911 
L 193.604585 174.458394 
L 194.141268 175.990257 
L 194.677951 178.627524 
L 195.751316 178.809846 
L 196.287998 176.806674 
L 196.824681 173.660541 
L 197.361364 172.921883 
L 197.898046 172.938738 
L 198.434729 172.585667 
L 198.971411 173.266249 
L 200.044777 178.440796 
L 200.581459 179.319826 
L 201.118142 179.436382 
L 201.654825 178.379986 
L 202.72819 173.96387 
L 203.264872 172.583064 
L 203.801555 174.192132 
L 204.338238 176.363263 
L 204.87492 177.414752 
L 205.411603 177.978292 
L 205.948285 176.549794 
L 206.484968 175.474404 
L 207.021651 176.43817 
L 207.558333 177.983044 
L 208.095016 178.950839 
L 208.631699 178.929606 
L 209.168381 178.617637 
L 209.705064 176.639058 
L 210.241746 175.547911 
L 210.778429 176.532445 
L 211.315112 178.0717 
L 211.851794 179.246943 
L 212.388477 180.03392 
L 212.925159 180.439956 
L 214.535207 180.596273 
L 215.608573 180.447637 
L 217.21862 180.510874 
L 217.755303 180.278216 
L 218.291986 179.351502 
L 219.365351 176.614175 
L 219.902033 175.042505 
L 220.438716 174.311748 
L 220.975399 174.97002 
L 221.512081 175.9843 
L 222.048764 178.099547 
L 222.585447 179.249054 
L 223.122129 179.367634 
L 223.658812 178.99293 
L 224.732177 174.935342 
L 225.26886 174.137183 
L 226.342225 179.042459 
L 227.41559 180.189106 
L 228.488955 180.298547 
L 229.562321 179.380867 
L 230.099003 178.140442 
L 231.172368 173.814065 
L 231.709051 174.178719 
L 232.782416 179.20234 
L 233.319099 179.850582 
L 233.855781 180.222352 
L 234.392464 180.34663 
L 235.465829 180.374499 
L 236.539195 179.212186 
L 237.61256 175.252196 
L 238.149242 175.118423 
L 238.685925 176.522038 
L 239.222608 176.521777 
L 240.295973 173.980734 
L 240.832656 171.581528 
L 241.369338 173.985616 
L 241.906021 176.994325 
L 242.442703 178.805993 
L 242.979386 178.5711 
L 244.052751 175.045818 
L 244.589434 175.382863 
L 245.126116 176.414033 
L 246.199482 179.587142 
L 247.272847 180.132334 
L 247.80953 179.944168 
L 248.346212 179.610154 
L 249.95626 175.510336 
L 250.492943 176.261131 
L 251.029625 177.436321 
L 251.566308 179.172536 
L 252.10299 179.709804 
L 253.176356 179.639195 
L 253.713038 178.682047 
L 254.249721 176.797042 
L 254.786404 176.042753 
L 255.323086 175.631892 
L 255.859769 177.327532 
L 256.396451 177.168567 
L 256.933134 176.524985 
L 257.469817 175.075121 
L 258.006499 173.235512 
L 258.543182 173.598491 
L 258.543182 173.598491 
" clip-path="url(#p184a8c0db6)" style="fill: none; stroke: #0000ff; stroke-opacity: 0.5; stroke-linecap: square"/>
   </g>
   <g id="line2d_14">
    <path d="M 44.406818 180.687273 
L 105.588636 180.687273 
L 106.125319 180.279784 
L 106.662002 180.687273 
L 107.198684 179.899802 
L 107.735367 180.300155 
L 109.345415 180.319036 
L 109.882097 179.962776 
L 110.41878 179.974461 
L 110.955463 179.284456 
L 111.492145 174.129661 
L 112.028828 171.175594 
L 112.56551 154.938897 
L 113.102193 129.659671 
L 113.638876 111.320065 
L 114.175558 111.421616 
L 114.712241 144.535871 
L 115.248923 158.084018 
L 115.785606 168.79181 
L 116.322289 177.081344 
L 116.858971 178.022598 
L 117.395654 179.22851 
L 117.932337 179.249649 
L 118.469019 179.837112 
L 119.005702 179.569918 
L 119.542384 180.687273 
L 120.079067 180.415774 
L 120.61575 180.419571 
L 121.689115 179.906246 
L 122.76248 179.927426 
L 123.299163 179.437974 
L 123.835845 180.440767 
L 124.372528 179.714395 
L 124.909211 179.247285 
L 125.445893 177.371517 
L 125.982576 176.012391 
L 126.519258 166.84477 
L 127.055941 155.18135 
L 127.592624 153.260174 
L 128.129306 162.043619 
L 128.665989 174.113097 
L 129.202671 177.225151 
L 129.739354 179.19153 
L 130.276037 180.476249 
L 130.812719 180.687273 
L 132.422767 180.687273 
L 132.95945 180.488807 
L 133.496132 180.687273 
L 134.032815 180.493519 
L 134.569498 180.687273 
L 138.862959 180.687273 
L 139.399641 180.514735 
L 139.936324 180.687273 
L 140.473006 180.687273 
L 141.009689 180.520423 
L 141.546372 180.687273 
L 142.619737 180.687273 
L 143.156419 180.527579 
L 143.693102 179.89739 
L 144.229785 180.374699 
L 144.766467 180.223399 
L 145.30315 175.944636 
L 145.839833 131.035385 
L 146.376515 116.276481 
L 146.913198 167.346352 
L 147.44988 179.220309 
L 147.986563 180.687273 
L 150.669976 180.687273 
L 151.206659 180.55069 
L 151.743341 180.687273 
L 153.890072 180.687273 
L 154.426754 180.558549 
L 154.963437 180.687273 
L 156.573485 180.687273 
L 157.110167 180.564592 
L 157.64685 180.687273 
L 158.720215 180.687273 
L 159.256898 180.569125 
L 159.793581 180.570219 
L 160.330263 180.687273 
L 160.866946 180.572362 
L 161.940311 180.574446 
L 162.476994 180.687273 
L 163.550359 180.577468 
L 164.623724 180.363702 
L 165.160407 180.58037 
L 165.697089 180.581312 
L 166.233772 180.267147 
L 166.770455 180.374932 
L 167.84382 179.868752 
L 168.380502 179.267213 
L 168.917185 175.055782 
L 169.453868 172.611352 
L 169.99055 166.847634 
L 170.527233 164.12248 
L 171.063915 166.108815 
L 171.600598 166.905956 
L 172.137281 168.072506 
L 172.673963 166.187497 
L 173.210646 164.804079 
L 173.747329 167.172313 
L 174.284011 173.56944 
L 174.820694 176.928328 
L 175.357376 178.59581 
L 175.894059 179.604944 
L 176.430742 179.166391 
L 176.967424 178.379973 
L 177.504107 176.373824 
L 178.040789 173.788573 
L 178.577472 173.237138 
L 179.114155 174.929158 
L 180.18752 178.910853 
L 181.260885 180.270912 
L 182.33425 180.195371 
L 182.870933 180.605922 
L 183.407616 180.202925 
L 183.944298 180.046425 
L 184.480981 180.051316 
L 185.017663 180.687273 
L 185.554346 180.295812 
L 186.091029 180.298765 
L 186.627711 180.45592 
L 187.701077 180.079524 
L 188.237759 179.631618 
L 188.774442 177.468922 
L 189.311124 174.818131 
L 189.847807 168.224099 
L 190.38449 158.652178 
L 190.921172 153.871308 
L 191.994537 167.222606 
L 192.53122 167.533149 
L 193.067903 170.380838 
L 193.604585 172.066717 
L 194.141268 174.146245 
L 194.677951 177.509129 
L 195.214633 179.864075 
L 195.751316 179.86989 
L 196.287998 180.349094 
L 196.824681 180.552951 
L 201.118142 180.623735 
L 202.191507 180.687273 
L 203.264872 180.687273 
L 203.801555 180.564433 
L 204.87492 180.62667 
L 205.411603 180.205676 
L 205.948285 180.268666 
L 206.484968 179.974402 
L 207.021651 178.975829 
L 208.631699 171.37092 
L 209.168381 172.351242 
L 209.705064 176.460566 
L 210.241746 178.587548 
L 210.778429 179.785122 
L 211.315112 180.463181 
L 211.851794 180.130624 
L 212.388477 180.18948 
L 212.925159 179.917842 
L 213.461842 178.666649 
L 214.535207 173.029831 
L 215.07189 172.541994 
L 216.145255 177.617873 
L 216.681938 179.214699 
L 217.21862 180.321408 
L 217.755303 180.479498 
L 218.291986 180.377529 
L 218.828668 180.687273 
L 219.365351 180.432306 
L 219.902033 180.63659 
L 221.512081 180.338904 
L 222.048764 180.489406 
L 223.122129 179.172132 
L 223.658812 175.148775 
L 224.732177 165.228772 
L 225.26886 166.322413 
L 225.805542 175.136564 
L 226.342225 178.281954 
L 226.878907 179.796431 
L 227.41559 180.454212 
L 227.952273 180.36289 
L 228.488955 180.641202 
L 229.025638 180.641469 
L 229.562321 180.505116 
L 231.709051 180.64277 
L 234.929147 180.472206 
L 236.002512 180.517139 
L 237.075877 180.014287 
L 237.61256 179.181451 
L 238.149242 176.569132 
L 239.222608 164.230995 
L 239.75929 163.420961 
L 240.295973 168.60177 
L 240.832656 175.749936 
L 241.369338 178.433262 
L 241.906021 179.646442 
L 242.442703 179.890964 
L 242.979386 179.459645 
L 243.516069 178.245213 
L 244.589434 172.309325 
L 245.126116 172.082655 
L 245.662799 176.446419 
L 246.199482 178.501391 
L 246.736164 179.886205 
L 247.272847 180.345772 
L 247.80953 180.536293 
L 249.419577 180.315722 
L 249.95626 180.16981 
L 250.492943 180.246037 
L 251.029625 179.40701 
L 251.566308 177.739677 
L 252.10299 174.786261 
L 252.639673 168.765822 
L 253.176356 167.178714 
L 253.713038 166.427894 
L 254.249721 168.735067 
L 254.786404 170.348477 
L 255.859769 176.216351 
L 256.396451 177.733298 
L 256.933134 179.995719 
L 257.469817 179.827173 
L 258.006499 180.413421 
L 258.543182 180.619152 
L 258.543182 180.619152 
" clip-path="url(#p184a8c0db6)" style="fill: none; stroke: #ff0000; stroke-opacity: 0.5; stroke-linecap: square"/>
   </g>
   <g id="patch_3">
    <path d="M 33.7 188.6 
L 33.7 14.52 
" style="fill: none; stroke: #000000; stroke-width: 0.8; stroke-linejoin: miter; stroke-linecap: square"/>
   </g>
   <g id="patch_4">
    <path d="M 269.25 188.6 
L 269.25 14.52 
" style="fill: none; stroke: #000000; stroke-width: 0.8; stroke-linejoin: miter; stroke-linecap: square"/>
   </g>
   <g id="patch_5">
    <path d="M 33.7 188.6 
L 269.25 188.6 
" style="fill: none; stroke: #000000; stroke-width: 0.8; stroke-linejoin: miter; stroke-linecap: square"/>
   </g>
   <g id="patch_6">
    <path d="M 33.7 14.52 
L 269.25 14.52 
" style="fill: none; stroke: #000000; stroke-width: 0.8; stroke-linejoin: miter; stroke-linecap: square"/>
   </g>
   <g id="legend_1">
    <g id="patch_7">
     <path d="M 213.917188 66.554375 
L 262.25 66.554375 
Q 264.25 66.554375 264.25 64.554375 
L 264.25 21.52 
Q 264.25 19.52 262.25 19.52 
L 213.917188 19.52 
Q 211.917188 19.52 211.917188 21.52 
L 211.917188 64.554375 
Q 211.917188 66.554375 213.917188 66.554375 
z
" style="fill: #ffffff; opacity: 0.8; stroke: #cccccc; stroke-linejoin: miter"/>
    </g>
    <g id="line2d_15">
     <path d="M 215.917188 27.618438 
L 225.917188 27.618438 
L 235.917188 27.618438 
" style="fill: none; stroke: #000000; stroke-opacity: 0.5; stroke-width: 0.5; stroke-linecap: square"/>
    </g>
    <g id="text_14">
     <!-- all -->
     <g transform="translate(243.917188 31.118438) scale(0.1 -0.1)">
      <defs>
       <path id="DejaVuSans-61" d="M 2194 1759 
Q 1497 1759 1228 1600 
Q 959 1441 959 1056 
Q 959 750 1161 570 
Q 1363 391 1709 391 
Q 2188 391 2477 730 
Q 2766 1069 2766 1631 
L 2766 1759 
L 2194 1759 
z
M 3341 1997 
L 3341 0 
L 2766 0 
L 2766 531 
Q 2569 213 2275 61 
Q 1981 -91 1556 -91 
Q 1019 -91 701 211 
Q 384 513 384 1019 
Q 384 1609 779 1909 
Q 1175 2209 1959 2209 
L 2766 2209 
L 2766 2266 
Q 2766 2663 2505 2880 
Q 2244 3097 1772 3097 
Q 1472 3097 1187 3025 
Q 903 2953 641 2809 
L 641 3341 
Q 956 3463 1253 3523 
Q 1550 3584 1831 3584 
Q 2591 3584 2966 3190 
Q 3341 2797 3341 1997 
z
" transform="scale(0.015625)"/>
       <path id="DejaVuSans-6c" d="M 603 4863 
L 1178 4863 
L 1178 0 
L 603 0 
L 603 4863 
z
" transform="scale(0.015625)"/>
      </defs>
      <use xlink:href="#DejaVuSans-61"/>
      <use xlink:href="#DejaVuSans-6c" transform="translate(61.279297 0)"/>
      <use xlink:href="#DejaVuSans-6c" transform="translate(89.0625 0)"/>
     </g>
    </g>
    <g id="line2d_16">
     <path d="M 215.917188 42.296563 
L 225.917188 42.296563 
L 235.917188 42.296563 
" style="fill: none; stroke: #0000ff; stroke-opacity: 0.5; stroke-linecap: square"/>
    </g>
    <g id="text_15">
     <!-- 1-1 -->
     <g transform="translate(243.917188 45.796563) scale(0.1 -0.1)">
      <defs>
       <path id="DejaVuSans-2d" d="M 313 2009 
L 1997 2009 
L 1997 1497 
L 313 1497 
L 313 2009 
z
" transform="scale(0.015625)"/>
      </defs>
      <use xlink:href="#DejaVuSans-31"/>
      <use xlink:href="#DejaVuSans-2d" transform="translate(63.623047 0)"/>
      <use xlink:href="#DejaVuSans-31" transform="translate(99.707031 0)"/>
     </g>
    </g>
    <g id="line2d_17">
     <path d="M 215.917188 56.974688 
L 225.917188 56.974688 
L 235.917188 56.974688 
" style="fill: none; stroke: #ff0000; stroke-opacity: 0.5; stroke-linecap: square"/>
    </g>
    <g id="text_16">
     <!-- 2-2 -->
     <g transform="translate(243.917188 60.474688) scale(0.1 -0.1)">
      <use xlink:href="#DejaVuSans-32"/>
      <use xlink:href="#DejaVuSans-2d" transform="translate(63.623047 0)"/>
      <use xlink:href="#DejaVuSans-32" transform="translate(99.707031 0)"/>
     </g>
    </g>
   </g>
  </g>
 </g>
 <defs>
  <clipPath id="p184a8c0db6">
   <rect x="33.7" y="14.52" width="235.55" height="174.08"/>
  </clipPath>
 </defs>
</svg>
