<?xml version="1.0" encoding="utf-8" standalone="no"?>
<!DOCTYPE svg PUBLIC "-//W3C//DTD SVG 1.1//EN"
  "http://www.w3.org/Graphics/SVG/1.1/DTD/svg11.dtd">
<svg xmlns:xlink="http://www.w3.org/1999/xlink" width="288pt" height="216pt" viewBox="0 0 288 216" xmlns="http://www.w3.org/2000/svg" version="1.1">
 <metadata>
  <rdf:RDF xmlns:dc="http://purl.org/dc/elements/1.1/" xmlns:cc="http://creativecommons.org/ns#" xmlns:rdf="http://www.w3.org/1999/02/22-rdf-syntax-ns#">
   <cc:Work>
    <dc:type rdf:resource="http://purl.org/dc/dcmitype/StillImage"/>
    <dc:date>2025-09-17T22:55:49.760310</dc:date>
    <dc:format>image/svg+xml</dc:format>
    <dc:creator>
     <cc:Agent>
      <dc:title>Matplotlib v3.10.0, https://matplotlib.org/</dc:title>
     </cc:Agent>
    </dc:creator>
   </cc:Work>
  </rdf:RDF>
 </metadata>
 <defs>
  <style type="text/css">*{stroke-linejoin: round; stroke-linecap: butt}</style>
 </defs>
 <g id="figure_1">
  <g id="patch_1">
   <path d="M 0 216 
L 288 216 
L 288 0 
L 0 0 
z
" style="fill: #ffffff"/>
  </g>
  <g id="axes_1">
   <g id="patch_2">
    <path d="M 33.7 188.6 
L 269.25 188.6 
L 269.25 14.52 
L 33.7 14.52 
z
" style="fill: #ffffff"/>
   </g>
   <g id="matplotlib.axis_1">
    <g id="xtick_1">
     <g id="line2d_1">
      <defs>
       <path id="mc1d187a7fa" d="M 0 0 
L 0 3.5 
" style="stroke: #000000; stroke-width: 0.8"/>
      </defs>
      <g>
       <use xlink:href="#mc1d187a7fa" x="44.138477" y="188.6" style="stroke: #000000; stroke-width: 0.8"/>
      </g>
     </g>
     <g id="text_1">
      <!-- 0 -->
      <g transform="translate(40.957227 203.198437) scale(0.1 -0.1)">
       <defs>
        <path id="DejaVuSans-30" d="M 2034 4250 
Q 1547 4250 1301 3770 
Q 1056 3291 1056 2328 
Q 1056 1369 1301 889 
Q 1547 409 2034 409 
Q 2525 409 2770 889 
Q 3016 1369 3016 2328 
Q 3016 3291 2770 3770 
Q 2525 4250 2034 4250 
z
M 2034 4750 
Q 2819 4750 3233 4129 
Q 3647 3509 3647 2328 
Q 3647 1150 3233 529 
Q 2819 -91 2034 -91 
Q 1250 -91 836 529 
Q 422 1150 422 2328 
Q 422 3509 836 4129 
Q 1250 4750 2034 4750 
z
" transform="scale(0.015625)"/>
       </defs>
       <use xlink:href="#DejaVuSans-30"/>
      </g>
     </g>
    </g>
    <g id="xtick_2">
     <g id="line2d_2">
      <g>
       <use xlink:href="#mc1d187a7fa" x="87.073086" y="188.6" style="stroke: #000000; stroke-width: 0.8"/>
      </g>
     </g>
     <g id="text_2">
      <!-- 200 -->
      <g transform="translate(77.529336 203.198437) scale(0.1 -0.1)">
       <defs>
        <path id="DejaVuSans-32" d="M 1228 531 
L 3431 531 
L 3431 0 
L 469 0 
L 469 531 
Q 828 903 1448 1529 
Q 2069 2156 2228 2338 
Q 2531 2678 2651 2914 
Q 2772 3150 2772 3378 
Q 2772 3750 2511 3984 
Q 2250 4219 1831 4219 
Q 1534 4219 1204 4116 
Q 875 4013 500 3803 
L 500 4441 
Q 881 4594 1212 4672 
Q 1544 4750 1819 4750 
Q 2544 4750 2975 4387 
Q 3406 4025 3406 3419 
Q 3406 3131 3298 2873 
Q 3191 2616 2906 2266 
Q 2828 2175 2409 1742 
Q 1991 1309 1228 531 
z
" transform="scale(0.015625)"/>
       </defs>
       <use xlink:href="#DejaVuSans-32"/>
       <use xlink:href="#DejaVuSans-30" transform="translate(63.623047 0)"/>
       <use xlink:href="#DejaVuSans-30" transform="translate(127.246094 0)"/>
      </g>
     </g>
    </g>
    <g id="xtick_3">
     <g id="line2d_3">
      <g>
       <use xlink:href="#mc1d187a7fa" x="130.007695" y="188.6" style="stroke: #000000; stroke-width: 0.8"/>
      </g>
     </g>
     <g id="text_3">
      <!-- 400 -->
      <g transform="translate(120.463945 203.198437) scale(0.1 -0.1)">
       <defs>
        <path id="DejaVuSans-34" d="M 2419 4116 
L 825 1625 
L 2419 1625 
L 2419 4116 
z
M 2253 4666 
L 3047 4666 
L 3047 1625 
L 3713 1625 
L 3713 1100 
L 3047 1100 
L 3047 0 
L 2419 0 
L 2419 1100 
L 313 1100 
L 313 1709 
L 2253 4666 
z
" transform="scale(0.015625)"/>
       </defs>
       <use xlink:href="#DejaVuSans-34"/>
       <use xlink:href="#DejaVuSans-30" transform="translate(63.623047 0)"/>
       <use xlink:href="#DejaVuSans-30" transform="translate(127.246094 0)"/>
      </g>
     </g>
    </g>
    <g id="xtick_4">
     <g id="line2d_4">
      <g>
       <use xlink:href="#mc1d187a7fa" x="172.942305" y="188.6" style="stroke: #000000; stroke-width: 0.8"/>
      </g>
     </g>
     <g id="text_4">
      <!-- 600 -->
      <g transform="translate(163.398555 203.198437) scale(0.1 -0.1)">
       <defs>
        <path id="DejaVuSans-36" d="M 2113 2584 
Q 1688 2584 1439 2293 
Q 1191 2003 1191 1497 
Q 1191 994 1439 701 
Q 1688 409 2113 409 
Q 2538 409 2786 701 
Q 3034 994 3034 1497 
Q 3034 2003 2786 2293 
Q 2538 2584 2113 2584 
z
M 3366 4563 
L 3366 3988 
Q 3128 4100 2886 4159 
Q 2644 4219 2406 4219 
Q 1781 4219 1451 3797 
Q 1122 3375 1075 2522 
Q 1259 2794 1537 2939 
Q 1816 3084 2150 3084 
Q 2853 3084 3261 2657 
Q 3669 2231 3669 1497 
Q 3669 778 3244 343 
Q 2819 -91 2113 -91 
Q 1303 -91 875 529 
Q 447 1150 447 2328 
Q 447 3434 972 4092 
Q 1497 4750 2381 4750 
Q 2619 4750 2861 4703 
Q 3103 4656 3366 4563 
z
" transform="scale(0.015625)"/>
       </defs>
       <use xlink:href="#DejaVuSans-36"/>
       <use xlink:href="#DejaVuSans-30" transform="translate(63.623047 0)"/>
       <use xlink:href="#DejaVuSans-30" transform="translate(127.246094 0)"/>
      </g>
     </g>
    </g>
    <g id="xtick_5">
     <g id="line2d_5">
      <g>
       <use xlink:href="#mc1d187a7fa" x="215.876914" y="188.6" style="stroke: #000000; stroke-width: 0.8"/>
      </g>
     </g>
     <g id="text_5">
      <!-- 800 -->
      <g transform="translate(206.333164 203.198437) scale(0.1 -0.1)">
       <defs>
        <path id="DejaVuSans-38" d="M 2034 2216 
Q 1584 2216 1326 1975 
Q 1069 1734 1069 1313 
Q 1069 891 1326 650 
Q 1584 409 2034 409 
Q 2484 409 2743 651 
Q 3003 894 3003 1313 
Q 3003 1734 2745 1975 
Q 2488 2216 2034 2216 
z
M 1403 2484 
Q 997 2584 770 2862 
Q 544 3141 544 3541 
Q 544 4100 942 4425 
Q 1341 4750 2034 4750 
Q 2731 4750 3128 4425 
Q 3525 4100 3525 3541 
Q 3525 3141 3298 2862 
Q 3072 2584 2669 2484 
Q 3125 2378 3379 2068 
Q 3634 1759 3634 1313 
Q 3634 634 3220 271 
Q 2806 -91 2034 -91 
Q 1263 -91 848 271 
Q 434 634 434 1313 
Q 434 1759 690 2068 
Q 947 2378 1403 2484 
z
M 1172 3481 
Q 1172 3119 1398 2916 
Q 1625 2713 2034 2713 
Q 2441 2713 2670 2916 
Q 2900 3119 2900 3481 
Q 2900 3844 2670 4047 
Q 2441 4250 2034 4250 
Q 1625 4250 1398 4047 
Q 1172 3844 1172 3481 
z
" transform="scale(0.015625)"/>
       </defs>
       <use xlink:href="#DejaVuSans-38"/>
       <use xlink:href="#DejaVuSans-30" transform="translate(63.623047 0)"/>
       <use xlink:href="#DejaVuSans-30" transform="translate(127.246094 0)"/>
      </g>
     </g>
    </g>
    <g id="xtick_6">
     <g id="line2d_6">
      <g>
       <use xlink:href="#mc1d187a7fa" x="258.811523" y="188.6" style="stroke: #000000; stroke-width: 0.8"/>
      </g>
     </g>
     <g id="text_6">
      <!-- 1000 -->
      <g transform="translate(246.086523 203.198437) scale(0.1 -0.1)">
       <defs>
        <path id="DejaVuSans-31" d="M 794 531 
L 1825 531 
L 1825 4091 
L 703 3866 
L 703 4441 
L 1819 4666 
L 2450 4666 
L 2450 531 
L 3481 531 
L 3481 0 
L 794 0 
L 794 531 
z
" transform="scale(0.015625)"/>
       </defs>
       <use xlink:href="#DejaVuSans-31"/>
       <use xlink:href="#DejaVuSans-30" transform="translate(63.623047 0)"/>
       <use xlink:href="#DejaVuSans-30" transform="translate(127.246094 0)"/>
       <use xlink:href="#DejaVuSans-30" transform="translate(190.869141 0)"/>
      </g>
     </g>
    </g>
    <g id="text_7">
     <!-- q (nm) -->
     <g transform="translate(134.771094 216.876563) scale(0.1 -0.1)">
      <defs>
       <path id="DejaVuSans-71" d="M 947 1747 
Q 947 1113 1208 752 
Q 1469 391 1925 391 
Q 2381 391 2643 752 
Q 2906 1113 2906 1747 
Q 2906 2381 2643 2742 
Q 2381 3103 1925 3103 
Q 1469 3103 1208 2742 
Q 947 2381 947 1747 
z
M 2906 525 
Q 2725 213 2448 61 
Q 2172 -91 1784 -91 
Q 1150 -91 751 415 
Q 353 922 353 1747 
Q 353 2572 751 3078 
Q 1150 3584 1784 3584 
Q 2172 3584 2448 3432 
Q 2725 3281 2906 2969 
L 2906 3500 
L 3481 3500 
L 3481 -1331 
L 2906 -1331 
L 2906 525 
z
" transform="scale(0.015625)"/>
       <path id="DejaVuSans-20" transform="scale(0.015625)"/>
       <path id="DejaVuSans-28" d="M 1984 4856 
Q 1566 4138 1362 3434 
Q 1159 2731 1159 2009 
Q 1159 1288 1364 580 
Q 1569 -128 1984 -844 
L 1484 -844 
Q 1016 -109 783 600 
Q 550 1309 550 2009 
Q 550 2706 781 3412 
Q 1013 4119 1484 4856 
L 1984 4856 
z
" transform="scale(0.015625)"/>
       <path id="DejaVuSans-6e" d="M 3513 2113 
L 3513 0 
L 2938 0 
L 2938 2094 
Q 2938 2591 2744 2837 
Q 2550 3084 2163 3084 
Q 1697 3084 1428 2787 
Q 1159 2491 1159 1978 
L 1159 0 
L 581 0 
L 581 3500 
L 1159 3500 
L 1159 2956 
Q 1366 3272 1645 3428 
Q 1925 3584 2291 3584 
Q 2894 3584 3203 3211 
Q 3513 2838 3513 2113 
z
" transform="scale(0.015625)"/>
       <path id="DejaVuSans-6d" d="M 3328 2828 
Q 3544 3216 3844 3400 
Q 4144 3584 4550 3584 
Q 5097 3584 5394 3201 
Q 5691 2819 5691 2113 
L 5691 0 
L 5113 0 
L 5113 2094 
Q 5113 2597 4934 2840 
Q 4756 3084 4391 3084 
Q 3944 3084 3684 2787 
Q 3425 2491 3425 1978 
L 3425 0 
L 2847 0 
L 2847 2094 
Q 2847 2600 2669 2842 
Q 2491 3084 2119 3084 
Q 1678 3084 1418 2786 
Q 1159 2488 1159 1978 
L 1159 0 
L 581 0 
L 581 3500 
L 1159 3500 
L 1159 2956 
Q 1356 3278 1631 3431 
Q 1906 3584 2284 3584 
Q 2666 3584 2933 3390 
Q 3200 3197 3328 2828 
z
" transform="scale(0.015625)"/>
       <path id="DejaVuSans-29" d="M 513 4856 
L 1013 4856 
Q 1481 4119 1714 3412 
Q 1947 2706 1947 2009 
Q 1947 1309 1714 600 
Q 1481 -109 1013 -844 
L 513 -844 
Q 928 -128 1133 580 
Q 1338 1288 1338 2009 
Q 1338 2731 1133 3434 
Q 928 4138 513 4856 
z
" transform="scale(0.015625)"/>
      </defs>
      <use xlink:href="#DejaVuSans-71"/>
      <use xlink:href="#DejaVuSans-20" transform="translate(63.476562 0)"/>
      <use xlink:href="#DejaVuSans-28" transform="translate(95.263672 0)"/>
      <use xlink:href="#DejaVuSans-6e" transform="translate(134.277344 0)"/>
      <use xlink:href="#DejaVuSans-6d" transform="translate(197.65625 0)"/>
      <use xlink:href="#DejaVuSans-29" transform="translate(295.068359 0)"/>
     </g>
    </g>
   </g>
   <g id="matplotlib.axis_2">
    <g id="ytick_1">
     <g id="line2d_7">
      <defs>
       <path id="mf29d803e81" d="M 0 0 
L -3.5 0 
" style="stroke: #000000; stroke-width: 0.8"/>
      </defs>
      <g>
       <use xlink:href="#mf29d803e81" x="33.7" y="180.687273" style="stroke: #000000; stroke-width: 0.8"/>
      </g>
     </g>
     <g id="text_8">
      <!-- 0 -->
      <g transform="translate(20.3375 184.486491) scale(0.1 -0.1)">
       <use xlink:href="#DejaVuSans-30"/>
      </g>
     </g>
    </g>
    <g id="ytick_2">
     <g id="line2d_8">
      <g>
       <use xlink:href="#mf29d803e81" x="33.7" y="152.538105" style="stroke: #000000; stroke-width: 0.8"/>
      </g>
     </g>
     <g id="text_9">
      <!-- 10000 -->
      <g transform="translate(-5.1125 156.337323) scale(0.1 -0.1)">
       <use xlink:href="#DejaVuSans-31"/>
       <use xlink:href="#DejaVuSans-30" transform="translate(63.623047 0)"/>
       <use xlink:href="#DejaVuSans-30" transform="translate(127.246094 0)"/>
       <use xlink:href="#DejaVuSans-30" transform="translate(190.869141 0)"/>
       <use xlink:href="#DejaVuSans-30" transform="translate(254.492188 0)"/>
      </g>
     </g>
    </g>
    <g id="ytick_3">
     <g id="line2d_9">
      <g>
       <use xlink:href="#mf29d803e81" x="33.7" y="124.388937" style="stroke: #000000; stroke-width: 0.8"/>
      </g>
     </g>
     <g id="text_10">
      <!-- 20000 -->
      <g transform="translate(-5.1125 128.188156) scale(0.1 -0.1)">
       <use xlink:href="#DejaVuSans-32"/>
       <use xlink:href="#DejaVuSans-30" transform="translate(63.623047 0)"/>
       <use xlink:href="#DejaVuSans-30" transform="translate(127.246094 0)"/>
       <use xlink:href="#DejaVuSans-30" transform="translate(190.869141 0)"/>
       <use xlink:href="#DejaVuSans-30" transform="translate(254.492188 0)"/>
      </g>
     </g>
    </g>
    <g id="ytick_4">
     <g id="line2d_10">
      <g>
       <use xlink:href="#mf29d803e81" x="33.7" y="96.239769" style="stroke: #000000; stroke-width: 0.8"/>
      </g>
     </g>
     <g id="text_11">
      <!-- 30000 -->
      <g transform="translate(-5.1125 100.038988) scale(0.1 -0.1)">
       <defs>
        <path id="DejaVuSans-33" d="M 2597 2516 
Q 3050 2419 3304 2112 
Q 3559 1806 3559 1356 
Q 3559 666 3084 287 
Q 2609 -91 1734 -91 
Q 1441 -91 1130 -33 
Q 819 25 488 141 
L 488 750 
Q 750 597 1062 519 
Q 1375 441 1716 441 
Q 2309 441 2620 675 
Q 2931 909 2931 1356 
Q 2931 1769 2642 2001 
Q 2353 2234 1838 2234 
L 1294 2234 
L 1294 2753 
L 1863 2753 
Q 2328 2753 2575 2939 
Q 2822 3125 2822 3475 
Q 2822 3834 2567 4026 
Q 2313 4219 1838 4219 
Q 1578 4219 1281 4162 
Q 984 4106 628 3988 
L 628 4550 
Q 988 4650 1302 4700 
Q 1616 4750 1894 4750 
Q 2613 4750 3031 4423 
Q 3450 4097 3450 3541 
Q 3450 3153 3228 2886 
Q 3006 2619 2597 2516 
z
" transform="scale(0.015625)"/>
       </defs>
       <use xlink:href="#DejaVuSans-33"/>
       <use xlink:href="#DejaVuSans-30" transform="translate(63.623047 0)"/>
       <use xlink:href="#DejaVuSans-30" transform="translate(127.246094 0)"/>
       <use xlink:href="#DejaVuSans-30" transform="translate(190.869141 0)"/>
       <use xlink:href="#DejaVuSans-30" transform="translate(254.492188 0)"/>
      </g>
     </g>
    </g>
    <g id="ytick_5">
     <g id="line2d_11">
      <g>
       <use xlink:href="#mf29d803e81" x="33.7" y="68.090601" style="stroke: #000000; stroke-width: 0.8"/>
      </g>
     </g>
     <g id="text_12">
      <!-- 40000 -->
      <g transform="translate(-5.1125 71.88982) scale(0.1 -0.1)">
       <use xlink:href="#DejaVuSans-34"/>
       <use xlink:href="#DejaVuSans-30" transform="translate(63.623047 0)"/>
       <use xlink:href="#DejaVuSans-30" transform="translate(127.246094 0)"/>
       <use xlink:href="#DejaVuSans-30" transform="translate(190.869141 0)"/>
       <use xlink:href="#DejaVuSans-30" transform="translate(254.492188 0)"/>
      </g>
     </g>
    </g>
    <g id="ytick_6">
     <g id="line2d_12">
      <g>
       <use xlink:href="#mf29d803e81" x="33.7" y="39.941433" style="stroke: #000000; stroke-width: 0.8"/>
      </g>
     </g>
     <g id="text_13">
      <!-- 50000 -->
      <g transform="translate(-5.1125 43.740652) scale(0.1 -0.1)">
       <defs>
        <path id="DejaVuSans-35" d="M 691 4666 
L 3169 4666 
L 3169 4134 
L 1269 4134 
L 1269 2991 
Q 1406 3038 1543 3061 
Q 1681 3084 1819 3084 
Q 2600 3084 3056 2656 
Q 3513 2228 3513 1497 
Q 3513 744 3044 326 
Q 2575 -91 1722 -91 
Q 1428 -91 1123 -41 
Q 819 9 494 109 
L 494 744 
Q 775 591 1075 516 
Q 1375 441 1709 441 
Q 2250 441 2565 725 
Q 2881 1009 2881 1497 
Q 2881 1984 2565 2268 
Q 2250 2553 1709 2553 
Q 1456 2553 1204 2497 
Q 953 2441 691 2322 
L 691 4666 
z
" transform="scale(0.015625)"/>
       </defs>
       <use xlink:href="#DejaVuSans-35"/>
       <use xlink:href="#DejaVuSans-30" transform="translate(63.623047 0)"/>
       <use xlink:href="#DejaVuSans-30" transform="translate(127.246094 0)"/>
       <use xlink:href="#DejaVuSans-30" transform="translate(190.869141 0)"/>
       <use xlink:href="#DejaVuSans-30" transform="translate(254.492188 0)"/>
      </g>
     </g>
    </g>
    <g id="text_14">
     <!-- rdf -->
     <g transform="translate(-11.192187 108.462344) rotate(-90) scale(0.1 -0.1)">
      <defs>
       <path id="DejaVuSans-72" d="M 2631 2963 
Q 2534 3019 2420 3045 
Q 2306 3072 2169 3072 
Q 1681 3072 1420 2755 
Q 1159 2438 1159 1844 
L 1159 0 
L 581 0 
L 581 3500 
L 1159 3500 
L 1159 2956 
Q 1341 3275 1631 3429 
Q 1922 3584 2338 3584 
Q 2397 3584 2469 3576 
Q 2541 3569 2628 3553 
L 2631 2963 
z
" transform="scale(0.015625)"/>
       <path id="DejaVuSans-64" d="M 2906 2969 
L 2906 4863 
L 3481 4863 
L 3481 0 
L 2906 0 
L 2906 525 
Q 2725 213 2448 61 
Q 2172 -91 1784 -91 
Q 1150 -91 751 415 
Q 353 922 353 1747 
Q 353 2572 751 3078 
Q 1150 3584 1784 3584 
Q 2172 3584 2448 3432 
Q 2725 3281 2906 2969 
z
M 947 1747 
Q 947 1113 1208 752 
Q 1469 391 1925 391 
Q 2381 391 2643 752 
Q 2906 1113 2906 1747 
Q 2906 2381 2643 2742 
Q 2381 3103 1925 3103 
Q 1469 3103 1208 2742 
Q 947 2381 947 1747 
z
" transform="scale(0.015625)"/>
       <path id="DejaVuSans-66" d="M 2375 4863 
L 2375 4384 
L 1825 4384 
Q 1516 4384 1395 4259 
Q 1275 4134 1275 3809 
L 1275 3500 
L 2222 3500 
L 2222 3053 
L 1275 3053 
L 1275 0 
L 697 0 
L 697 3053 
L 147 3053 
L 147 3500 
L 697 3500 
L 697 3744 
Q 697 4328 969 4595 
Q 1241 4863 1831 4863 
L 2375 4863 
z
" transform="scale(0.015625)"/>
      </defs>
      <use xlink:href="#DejaVuSans-72"/>
      <use xlink:href="#DejaVuSans-64" transform="translate(39.363281 0)"/>
      <use xlink:href="#DejaVuSans-66" transform="translate(102.839844 0)"/>
     </g>
    </g>
   </g>
   <g id="line2d_13">
    <path d="M 44.406818 180.687273 
L 91.634888 180.687273 
L 92.171571 180.349079 
L 93.244936 180.363702 
L 93.781619 180.528966 
L 94.318301 179.602706 
L 94.854984 180.080567 
L 95.391667 175.340678 
L 95.928349 22.432727 
L 96.465032 97.332781 
L 97.001715 145.366505 
L 97.538397 162.901224 
L 98.07508 171.299812 
L 98.611762 169.906151 
L 99.148445 173.596438 
L 99.685128 173.479897 
L 100.758493 175.210942 
L 101.295175 175.432726 
L 101.831858 174.240717 
L 102.368541 176.890303 
L 102.905223 177.863079 
L 103.441906 178.246756 
L 103.978589 178.94405 
L 104.515271 179.831087 
L 105.051954 179.951253 
L 105.588636 178.827568 
L 106.125319 179.671915 
L 106.662002 179.789071 
L 107.198684 178.234552 
L 107.735367 177.986393 
L 108.272049 177.177737 
L 109.345415 176.466536 
L 109.882097 176.715693 
L 110.955463 178.240448 
L 111.492145 177.59129 
L 112.028828 177.47075 
L 112.56551 174.188107 
L 113.102193 174.042772 
L 114.175558 171.30206 
L 114.712241 169.251013 
L 115.248923 171.969 
L 115.785606 169.059084 
L 116.858971 172.71964 
L 117.395654 172.254381 
L 117.932337 172.376581 
L 118.469019 170.448406 
L 119.005702 170.803484 
L 119.542384 173.208026 
L 120.079067 174.531076 
L 120.61575 177.752277 
L 121.152432 178.385041 
L 121.689115 178.611411 
L 122.225797 179.535598 
L 122.76248 179.866823 
L 123.299163 179.815651 
L 123.835845 180.073042 
L 124.372528 179.657003 
L 124.909211 179.850053 
L 125.445893 179.565998 
L 125.982576 179.464167 
L 126.519258 178.215345 
L 127.055941 177.793282 
L 127.592624 176.149853 
L 128.129306 174.935669 
L 128.665989 173.261138 
L 129.202671 174.055474 
L 129.739354 173.765677 
L 130.276037 173.062932 
L 130.812719 174.351504 
L 131.349402 174.993498 
L 131.886085 176.735036 
L 132.422767 177.683937 
L 132.95945 177.81902 
L 133.496132 178.78172 
L 134.032815 179.238918 
L 134.569498 178.826688 
L 135.10618 179.320041 
L 135.642863 178.870084 
L 136.716228 176.635954 
L 137.789593 172.680355 
L 138.862959 171.034586 
L 139.399641 170.025261 
L 139.936324 168.486397 
L 140.473006 168.411789 
L 141.546372 171.600225 
L 142.083054 172.350209 
L 142.619737 174.814204 
L 143.156419 174.957274 
L 143.693102 176.160438 
L 144.229785 176.325683 
L 144.766467 175.331806 
L 145.30315 175.655326 
L 145.839833 174.274959 
L 146.376515 170.23641 
L 146.913198 164.804891 
L 147.44988 166.541251 
L 147.986563 169.038534 
L 148.523246 170.805031 
L 149.059928 171.118514 
L 149.596611 170.724549 
L 150.669976 172.436866 
L 151.206659 174.527314 
L 151.743341 174.925551 
L 152.280024 176.083497 
L 152.816707 176.690403 
L 153.890072 176.509084 
L 154.426754 176.517574 
L 154.963437 176.240203 
L 155.50012 176.534661 
L 156.036802 177.851873 
L 156.573485 177.817162 
L 157.110167 177.599814 
L 157.64685 176.932473 
L 158.183533 177.207719 
L 158.720215 177.00251 
L 159.256898 177.39006 
L 159.793581 178.383092 
L 160.330263 178.057546 
L 160.866946 179.198361 
L 161.403628 179.126841 
L 161.940311 179.675185 
L 163.013676 179.859027 
L 163.550359 179.565491 
L 165.160407 177.623975 
L 165.697089 175.776361 
L 166.233772 174.327675 
L 166.770455 173.215842 
L 168.380502 175.101608 
L 168.917185 175.324949 
L 169.453868 175.942184 
L 169.99055 175.366749 
L 170.527233 175.167622 
L 171.063915 173.712714 
L 171.600598 173.939431 
L 173.210646 171.764908 
L 173.747329 171.722527 
L 174.284011 171.819356 
L 174.820694 171.412313 
L 175.357376 172.484988 
L 176.430742 175.381761 
L 176.967424 175.579324 
L 177.504107 175.247458 
L 178.040789 175.921996 
L 179.114155 175.976066 
L 179.650837 175.18473 
L 180.18752 175.839324 
L 180.724203 176.170139 
L 181.797568 177.413808 
L 182.33425 178.072459 
L 182.870933 178.437247 
L 183.944298 179.389848 
L 184.480981 179.637446 
L 185.017663 179.488175 
L 185.554346 178.990041 
L 187.164394 177.006432 
L 187.701077 176.333497 
L 188.237759 176.159186 
L 188.774442 176.285975 
L 189.311124 175.818639 
L 189.847807 175.615557 
L 190.38449 174.047493 
L 190.921172 173.281093 
L 191.457855 172.903505 
L 191.994537 173.54886 
L 192.53122 173.547258 
L 193.067903 173.704145 
L 194.141268 175.364225 
L 194.677951 175.488191 
L 195.214633 176.123349 
L 196.287998 176.878472 
L 196.824681 175.683554 
L 197.361364 175.818249 
L 197.898046 175.654151 
L 198.434729 176.000495 
L 198.971411 175.202942 
L 199.508094 175.402398 
L 200.044777 175.214013 
L 201.118142 175.921873 
L 201.654825 176.882008 
L 203.264872 177.929306 
L 204.338238 177.890126 
L 204.87492 177.229249 
L 205.411603 177.552229 
L 205.948285 176.872647 
L 206.484968 176.883044 
L 207.021651 176.569839 
L 207.558333 176.436148 
L 208.631699 175.66959 
L 210.241746 174.719984 
L 210.778429 175.067445 
L 211.851794 174.417903 
L 212.388477 175.022906 
L 212.925159 174.83973 
L 213.461842 175.162511 
L 213.998525 175.197368 
L 214.535207 175.594686 
L 215.07189 175.573222 
L 216.681938 176.100673 
L 217.21862 176.545813 
L 217.755303 177.153817 
L 219.365351 177.078695 
L 219.902033 177.328011 
L 220.438716 177.097386 
L 220.975399 176.59517 
L 221.512081 176.669462 
L 222.048764 176.225318 
L 222.585447 176.533884 
L 223.122129 176.643998 
L 223.658812 177.370303 
L 224.195494 177.305808 
L 224.732177 176.644009 
L 225.26886 176.881974 
L 225.805542 176.029668 
L 226.342225 176.397847 
L 226.878907 176.025796 
L 227.952273 177.188575 
L 228.488955 178.127286 
L 229.025638 178.016586 
L 229.562321 178.792289 
L 230.099003 178.904736 
L 231.172368 178.523658 
L 231.709051 178.358582 
L 232.245734 178.371866 
L 232.782416 178.056107 
L 233.319099 177.88571 
L 233.855781 178.150846 
L 234.392464 177.734006 
L 234.929147 178.307915 
L 235.465829 177.937556 
L 236.002512 178.366256 
L 237.075877 178.674981 
L 237.61256 178.717406 
L 238.149242 178.272225 
L 238.685925 177.986618 
L 239.222608 177.519646 
L 239.75929 176.486896 
L 240.295973 175.972453 
L 241.369338 173.626626 
L 241.906021 173.854434 
L 242.442703 173.831862 
L 243.516069 174.700424 
L 244.052751 175.903962 
L 244.589434 176.143162 
L 245.126116 176.119088 
L 245.662799 176.373961 
L 247.272847 176.621706 
L 247.80953 177.132148 
L 248.346212 177.178898 
L 248.882895 177.560206 
L 249.419577 177.770967 
L 249.95626 177.37171 
L 250.492943 177.837874 
L 251.029625 177.223747 
L 251.566308 177.014942 
L 252.639673 177.178286 
L 253.176356 176.785581 
L 253.713038 177.098666 
L 254.249721 176.551393 
L 254.786404 176.2735 
L 255.323086 175.65733 
L 255.859769 175.587056 
L 256.933134 175.095566 
L 257.469817 175.912333 
L 258.006499 175.637743 
L 258.543182 175.518726 
L 258.543182 175.518726 
" clip-path="url(#pb8cddec587)" style="fill: none; stroke: #000000; stroke-opacity: 0.5; stroke-width: 0.5; stroke-linecap: square"/>
   </g>
   <g id="line2d_14">
    <path d="M 44.406818 180.687273 
L 91.634888 180.687273 
L 92.171571 179.651554 
L 93.244936 179.696337 
L 93.781619 180.20246 
L 94.318301 177.365786 
L 94.854984 178.829236 
L 96.465032 174.578171 
L 97.001715 172.563844 
L 97.538397 173.9833 
L 98.07508 172.883945 
L 98.611762 160.957489 
L 99.148445 164.499218 
L 99.685128 161.325354 
L 100.22181 163.593475 
L 100.758493 165.034094 
L 101.295175 164.96095 
L 101.831858 162.739475 
L 102.368541 169.41142 
L 102.905223 172.384142 
L 103.441906 173.21319 
L 104.515271 178.392963 
L 105.051954 178.433211 
L 105.588636 174.991928 
L 106.125319 177.577738 
L 106.662002 177.93653 
L 107.198684 174.07719 
L 108.808732 168.974243 
L 109.345415 168.042266 
L 109.882097 168.80074 
L 110.41878 171.712178 
L 110.955463 175.334843 
L 111.492145 175.156428 
L 112.028828 176.798877 
L 112.56551 176.604463 
L 113.102193 178.426296 
L 113.638876 178.708434 
L 114.175558 178.738648 
L 114.712241 176.129413 
L 115.248923 176.197941 
L 115.785606 173.239151 
L 116.322289 168.992653 
L 116.858971 167.357163 
L 117.395654 162.653785 
L 117.932337 161.379242 
L 118.469019 153.223276 
L 119.005702 153.18928 
L 120.079067 163.905716 
L 120.61575 172.311695 
L 121.152432 174.845359 
L 121.689115 175.919278 
L 122.225797 178.531881 
L 123.299163 178.971267 
L 123.835845 179.746732 
L 124.372528 179.573672 
L 124.909211 179.222137 
L 125.445893 180.325809 
L 125.982576 180.687273 
L 126.519258 180.335167 
L 127.055941 180.513491 
L 127.592624 180.172612 
L 128.129306 180.0098 
L 128.665989 180.687273 
L 129.202671 180.357031 
L 130.276037 180.36521 
L 130.812719 180.210143 
L 131.349402 180.215997 
L 131.886085 180.376921 
L 132.422767 179.767501 
L 132.95945 179.930029 
L 133.496132 179.34056 
L 134.032815 179.800155 
L 135.642863 176.54909 
L 136.179545 172.789217 
L 136.716228 170.789422 
L 137.252911 163.599531 
L 137.789593 160.525406 
L 138.326276 160.215785 
L 138.862959 158.715995 
L 139.399641 158.567894 
L 139.936324 154.909199 
L 140.473006 155.839397 
L 141.546372 167.591231 
L 142.083054 169.602536 
L 143.156419 176.422104 
L 143.693102 178.035138 
L 144.229785 178.779077 
L 144.766467 179.271349 
L 145.30315 179.286333 
L 145.839833 178.145922 
L 146.376515 176.000714 
L 146.913198 170.280617 
L 147.44988 167.925695 
L 148.523246 176.081825 
L 149.059928 177.865374 
L 149.596611 177.679161 
L 150.133293 179.836494 
L 150.669976 180.16088 
L 151.206659 180.061918 
L 152.280024 180.380771 
L 152.816707 179.877989 
L 153.353389 180.587104 
L 154.426754 180.294359 
L 154.963437 180.589993 
L 155.50012 180.590929 
L 156.036802 180.305584 
L 156.573485 180.498247 
L 157.110167 180.312804 
L 158.183533 180.227957 
L 158.720215 180.505263 
L 159.256898 180.32664 
L 159.793581 180.597949 
L 160.330263 180.421771 
L 160.866946 180.511896 
L 161.403628 180.252834 
L 161.940311 180.601175 
L 162.476994 180.260678 
L 163.550359 180.184523 
L 164.087041 180.189012 
L 164.623724 179.699607 
L 165.697089 179.393538 
L 166.233772 178.122496 
L 166.770455 176.15869 
L 167.307137 176.670612 
L 167.84382 175.300004 
L 168.380502 173.256569 
L 168.917185 172.322736 
L 169.453868 172.394236 
L 169.99055 170.95607 
L 170.527233 170.664587 
L 171.063915 168.079183 
L 171.600598 168.111611 
L 172.137281 168.654401 
L 172.673963 165.934281 
L 173.210646 161.538434 
L 173.747329 162.692459 
L 174.284011 163.545991 
L 174.820694 163.336697 
L 175.357376 167.08666 
L 175.894059 167.885479 
L 176.430742 172.768016 
L 176.967424 174.321683 
L 177.504107 174.372809 
L 178.040789 175.422892 
L 178.577472 176.720868 
L 179.114155 175.178373 
L 179.650837 175.807484 
L 180.18752 177.330595 
L 180.724203 177.549067 
L 181.797568 179.237117 
L 182.33425 179.248359 
L 182.870933 179.507783 
L 183.407616 179.64006 
L 183.944298 179.342442 
L 184.480981 179.292043 
L 185.017663 178.821054 
L 186.091029 177.485401 
L 186.627711 175.802879 
L 187.164394 175.956295 
L 187.701077 174.25244 
L 188.237759 174.875678 
L 188.774442 176.289471 
L 189.311124 176.151852 
L 189.847807 177.141895 
L 190.38449 177.838232 
L 190.921172 178.136305 
L 191.457855 178.650325 
L 191.994537 178.774401 
L 193.067903 177.293551 
L 193.604585 176.355205 
L 194.677951 175.09869 
L 195.214633 174.928951 
L 196.287998 177.074389 
L 196.824681 175.767227 
L 197.361364 175.190926 
L 197.898046 175.380836 
L 198.434729 173.259713 
L 198.971411 172.015275 
L 199.508094 173.114507 
L 200.044777 171.937681 
L 200.581459 173.364502 
L 201.118142 174.238744 
L 201.654825 175.775414 
L 202.191507 176.000034 
L 202.72819 176.364257 
L 203.264872 175.638382 
L 204.338238 174.960912 
L 204.87492 173.611725 
L 205.411603 174.853129 
L 205.948285 174.389787 
L 206.484968 175.247372 
L 207.021651 175.148037 
L 207.558333 174.871193 
L 208.095016 174.998092 
L 209.168381 176.037013 
L 209.705064 176.982433 
L 210.241746 176.270135 
L 210.778429 177.374208 
L 211.315112 176.454925 
L 211.851794 176.821797 
L 212.388477 176.677597 
L 214.535207 178.9178 
L 215.07189 179.910317 
L 216.681938 179.884618 
L 217.21862 180.128892 
L 217.755303 179.735957 
L 218.291986 179.741814 
L 219.365351 178.780539 
L 220.438716 177.765783 
L 220.975399 176.331615 
L 221.512081 176.205987 
L 222.048764 174.874096 
L 222.585447 175.809491 
L 223.122129 175.577615 
L 223.658812 176.831597 
L 224.195494 176.707131 
L 224.732177 175.924774 
L 225.26886 176.207871 
L 225.805542 176.342932 
L 226.342225 175.684656 
L 226.878907 175.821345 
L 227.41559 176.276648 
L 227.952273 177.327859 
L 228.488955 177.76926 
L 229.025638 177.716276 
L 230.099003 179.132489 
L 230.635686 178.48874 
L 231.172368 178.023183 
L 231.709051 176.951664 
L 232.245734 176.837908 
L 232.782416 175.617482 
L 233.319099 175.546077 
L 233.855781 176.239041 
L 234.392464 176.165083 
L 234.929147 177.733171 
L 235.465829 177.749712 
L 236.002512 178.512644 
L 236.539195 179.073459 
L 237.075877 178.857737 
L 237.61256 179.091316 
L 238.149242 177.957387 
L 238.685925 177.498928 
L 239.222608 176.009513 
L 239.75929 175.317009 
L 240.295973 175.656863 
L 240.832656 174.418118 
L 241.369338 174.452165 
L 241.906021 173.264042 
L 242.442703 174.12453 
L 242.979386 173.404413 
L 243.516069 173.533724 
L 244.052751 174.977196 
L 244.589434 175.126684 
L 245.126116 174.712656 
L 245.662799 175.597636 
L 246.199482 175.624623 
L 246.736164 176.175351 
L 247.272847 176.257104 
L 247.80953 177.288507 
L 248.346212 177.506931 
L 248.882895 178.321614 
L 249.419577 178.248917 
L 249.95626 177.923152 
L 250.492943 177.937511 
L 251.029625 177.840117 
L 251.566308 176.799589 
L 252.639673 176.921954 
L 253.176356 176.941268 
L 253.713038 177.504494 
L 254.249721 177.304224 
L 254.786404 177.752267 
L 255.323086 177.365323 
L 255.859769 177.248869 
L 256.396451 176.258489 
L 256.933134 176.33356 
L 257.469817 176.197907 
L 258.006499 175.593495 
L 258.543182 174.813248 
L 258.543182 174.813248 
" clip-path="url(#pb8cddec587)" style="fill: none; stroke: #0000ff; stroke-opacity: 0.5; stroke-linecap: square"/>
   </g>
   <g id="line2d_15">
    <path d="M 44.406818 180.687273 
L 108.272049 180.687273 
L 108.808732 180.179391 
L 109.882097 180.19584 
L 110.41878 178.753246 
L 110.955463 177.832645 
L 112.028828 170.087794 
L 112.56551 153.014898 
L 113.102193 148.977782 
L 114.175558 133.054224 
L 114.712241 126.526047 
L 115.248923 141.622212 
L 115.785606 131.446917 
L 116.322289 148.482486 
L 116.858971 161.407569 
L 117.395654 166.834391 
L 117.932337 169.76556 
L 118.469019 173.767211 
L 119.542384 179.56653 
L 120.079067 177.372398 
L 120.61575 179.597767 
L 121.152432 179.254773 
L 121.689115 178.568164 
L 122.225797 178.945542 
L 122.76248 180.000059 
L 123.299163 179.331416 
L 123.835845 179.68403 
L 124.372528 178.047626 
L 124.909211 179.38493 
L 125.445893 176.18906 
L 125.982576 175.61365 
L 126.519258 170.984797 
L 127.055941 168.94738 
L 127.592624 165.133072 
L 128.129306 163.825733 
L 128.665989 160.471682 
L 129.202671 163.367914 
L 129.739354 170.541515 
L 130.276037 171.240101 
L 130.812719 174.466909 
L 131.349402 176.777433 
L 132.422767 180.142223 
L 132.95945 179.341062 
L 133.496132 180.155238 
L 134.569498 179.648314 
L 135.10618 180.687273 
L 137.252911 180.687273 
L 138.326276 180.208408 
L 138.862959 180.687273 
L 139.936324 180.687273 
L 140.473006 180.458392 
L 141.009689 180.687273 
L 142.083054 180.687273 
L 142.619737 180.03024 
L 143.156419 180.253986 
L 143.693102 180.687273 
L 144.766467 179.848207 
L 145.30315 179.0269 
L 145.839833 171.445998 
L 146.913198 135.440952 
L 147.44988 147.850466 
L 147.986563 157.249113 
L 148.523246 164.312351 
L 149.059928 173.741062 
L 150.133293 177.851344 
L 151.206659 179.760821 
L 151.743341 180.320379 
L 152.816707 180.687273 
L 153.353389 180.153039 
L 153.890072 180.687273 
L 155.50012 180.687273 
L 156.036802 180.517633 
L 156.573485 180.687273 
L 157.110167 180.354411 
L 157.64685 180.522411 
L 158.183533 180.360648 
L 159.256898 180.687273 
L 159.793581 180.528475 
L 160.330263 180.529939 
L 160.866946 180.687273 
L 161.940311 180.687273 
L 162.476994 180.535595 
L 163.013676 180.536961 
L 163.550359 180.389347 
L 164.623724 180.394631 
L 165.160407 180.542247 
L 166.233772 180.544785 
L 166.770455 179.981061 
L 167.307137 179.987201 
L 167.84382 179.576854 
L 168.380502 179.861639 
L 169.453868 176.49426 
L 169.99055 174.250096 
L 170.527233 172.709016 
L 171.063915 167.370495 
L 171.600598 168.789833 
L 172.137281 163.44421 
L 172.673963 164.873612 
L 173.210646 167.80982 
L 173.747329 165.134445 
L 174.284011 165.638686 
L 174.820694 164.518281 
L 175.357376 165.637162 
L 175.894059 171.020925 
L 176.430742 173.526566 
L 177.504107 174.954995 
L 178.040789 176.540926 
L 179.114155 175.207521 
L 179.650837 173.747129 
L 180.18752 174.949363 
L 180.724203 174.425094 
L 181.260885 176.281505 
L 181.797568 176.876237 
L 182.33425 177.795543 
L 183.407616 178.825562 
L 183.944298 179.057175 
L 184.480981 180.255897 
L 185.017663 179.93811 
L 185.554346 179.943785 
L 186.091029 179.422336 
L 186.627711 180.05956 
L 187.701077 179.86279 
L 188.237759 179.562036 
L 188.774442 178.961152 
L 189.311124 178.066808 
L 189.847807 176.485343 
L 190.921172 169.941169 
L 191.457855 164.147015 
L 191.994537 163.392486 
L 192.53122 160.527114 
L 193.067903 161.342466 
L 193.604585 161.861498 
L 194.141268 164.733541 
L 194.677951 165.596931 
L 196.287998 174.356124 
L 197.361364 177.339704 
L 198.434729 179.527414 
L 198.971411 179.978451 
L 199.508094 179.983341 
L 200.581459 180.340119 
L 201.118142 180.170098 
L 202.191507 180.602243 
L 202.72819 180.349455 
L 203.264872 180.267843 
L 203.801555 180.60395 
L 205.411603 180.442269 
L 205.948285 180.443892 
L 206.484968 179.478406 
L 207.558333 179.732839 
L 208.095016 179.581043 
L 208.631699 177.547216 
L 209.705064 174.875761 
L 210.241746 174.759263 
L 210.778429 174.108951 
L 211.315112 175.063144 
L 211.851794 175.476669 
L 212.388477 176.48532 
L 213.461842 178.020146 
L 213.998525 178.846788 
L 214.535207 177.907326 
L 215.07189 177.633975 
L 215.608573 175.124551 
L 216.145255 175.948925 
L 216.681938 174.551421 
L 217.21862 175.085739 
L 217.755303 176.529673 
L 218.828668 177.485463 
L 219.365351 178.47356 
L 219.902033 179.037109 
L 220.438716 179.798866 
L 220.975399 180.075952 
L 221.512081 180.147155 
L 222.585447 179.953521 
L 223.658812 179.56682 
L 224.195494 178.525221 
L 224.732177 175.932915 
L 225.26886 175.702067 
L 225.805542 172.256036 
L 226.342225 172.945414 
L 226.878907 170.828203 
L 227.41559 171.202061 
L 227.952273 171.76027 
L 228.488955 175.124691 
L 229.025638 175.591918 
L 229.562321 177.968986 
L 230.099003 178.967413 
L 230.635686 179.588006 
L 231.172368 179.715753 
L 231.709051 180.143912 
L 232.245734 180.267069 
L 232.782416 180.269453 
L 233.319099 180.449873 
L 233.855781 180.510229 
L 234.392464 180.100452 
L 234.929147 180.62892 
L 235.465829 180.223066 
L 236.002512 180.456466 
L 236.539195 180.056092 
L 237.075877 180.344904 
L 237.61256 180.063076 
L 238.685925 178.666936 
L 239.222608 178.454785 
L 240.295973 173.897256 
L 241.369338 167.691493 
L 241.906021 169.336892 
L 242.442703 169.614334 
L 243.516069 173.366742 
L 244.052751 176.22285 
L 244.589434 176.193868 
L 245.126116 175.534249 
L 245.662799 175.823189 
L 246.199482 175.068611 
L 246.736164 174.684316 
L 247.272847 173.99537 
L 247.80953 176.334805 
L 248.346212 176.102996 
L 248.882895 177.343049 
L 250.492943 179.490098 
L 251.029625 179.198564 
L 251.566308 179.502455 
L 252.10299 178.870092 
L 252.639673 178.635128 
L 253.176356 176.944307 
L 253.713038 175.80278 
L 254.249721 173.662561 
L 254.786404 170.491047 
L 255.323086 168.399632 
L 255.859769 168.935693 
L 256.396451 168.429298 
L 256.933134 169.147737 
L 257.469817 171.539353 
L 258.006499 172.699766 
L 258.543182 174.587991 
L 258.543182 174.587991 
" clip-path="url(#pb8cddec587)" style="fill: none; stroke: #ff0000; stroke-opacity: 0.5; stroke-linecap: square"/>
   </g>
   <g id="patch_3">
    <path d="M 33.7 188.6 
L 33.7 14.52 
" style="fill: none; stroke: #000000; stroke-width: 0.8; stroke-linejoin: miter; stroke-linecap: square"/>
   </g>
   <g id="patch_4">
    <path d="M 269.25 188.6 
L 269.25 14.52 
" style="fill: none; stroke: #000000; stroke-width: 0.8; stroke-linejoin: miter; stroke-linecap: square"/>
   </g>
   <g id="patch_5">
    <path d="M 33.7 188.6 
L 269.25 188.6 
" style="fill: none; stroke: #000000; stroke-width: 0.8; stroke-linejoin: miter; stroke-linecap: square"/>
   </g>
   <g id="patch_6">
    <path d="M 33.7 14.52 
L 269.25 14.52 
" style="fill: none; stroke: #000000; stroke-width: 0.8; stroke-linejoin: miter; stroke-linecap: square"/>
   </g>
   <g id="legend_1">
    <g id="patch_7">
     <path d="M 213.917188 66.554375 
L 262.25 66.554375 
Q 264.25 66.554375 264.25 64.554375 
L 264.25 21.52 
Q 264.25 19.52 262.25 19.52 
L 213.917188 19.52 
Q 211.917188 19.52 211.917188 21.52 
L 211.917188 64.554375 
Q 211.917188 66.554375 213.917188 66.554375 
z
" style="fill: #ffffff; opacity: 0.8; stroke: #cccccc; stroke-linejoin: miter"/>
    </g>
    <g id="line2d_16">
     <path d="M 215.917188 27.618438 
L 225.917188 27.618438 
L 235.917188 27.618438 
" style="fill: none; stroke: #000000; stroke-opacity: 0.5; stroke-width: 0.5; stroke-linecap: square"/>
    </g>
    <g id="text_15">
     <!-- all -->
     <g transform="translate(243.917188 31.118438) scale(0.1 -0.1)">
      <defs>
       <path id="DejaVuSans-61" d="M 2194 1759 
Q 1497 1759 1228 1600 
Q 959 1441 959 1056 
Q 959 750 1161 570 
Q 1363 391 1709 391 
Q 2188 391 2477 730 
Q 2766 1069 2766 1631 
L 2766 1759 
L 2194 1759 
z
M 3341 1997 
L 3341 0 
L 2766 0 
L 2766 531 
Q 2569 213 2275 61 
Q 1981 -91 1556 -91 
Q 1019 -91 701 211 
Q 384 513 384 1019 
Q 384 1609 779 1909 
Q 1175 2209 1959 2209 
L 2766 2209 
L 2766 2266 
Q 2766 2663 2505 2880 
Q 2244 3097 1772 3097 
Q 1472 3097 1187 3025 
Q 903 2953 641 2809 
L 641 3341 
Q 956 3463 1253 3523 
Q 1550 3584 1831 3584 
Q 2591 3584 2966 3190 
Q 3341 2797 3341 1997 
z
" transform="scale(0.015625)"/>
       <path id="DejaVuSans-6c" d="M 603 4863 
L 1178 4863 
L 1178 0 
L 603 0 
L 603 4863 
z
" transform="scale(0.015625)"/>
      </defs>
      <use xlink:href="#DejaVuSans-61"/>
      <use xlink:href="#DejaVuSans-6c" transform="translate(61.279297 0)"/>
      <use xlink:href="#DejaVuSans-6c" transform="translate(89.0625 0)"/>
     </g>
    </g>
    <g id="line2d_17">
     <path d="M 215.917188 42.296563 
L 225.917188 42.296563 
L 235.917188 42.296563 
" style="fill: none; stroke: #0000ff; stroke-opacity: 0.5; stroke-linecap: square"/>
    </g>
    <g id="text_16">
     <!-- 1-1 -->
     <g transform="translate(243.917188 45.796563) scale(0.1 -0.1)">
      <defs>
       <path id="DejaVuSans-2d" d="M 313 2009 
L 1997 2009 
L 1997 1497 
L 313 1497 
L 313 2009 
z
" transform="scale(0.015625)"/>
      </defs>
      <use xlink:href="#DejaVuSans-31"/>
      <use xlink:href="#DejaVuSans-2d" transform="translate(63.623047 0)"/>
      <use xlink:href="#DejaVuSans-31" transform="translate(99.707031 0)"/>
     </g>
    </g>
    <g id="line2d_18">
     <path d="M 215.917188 56.974688 
L 225.917188 56.974688 
L 235.917188 56.974688 
" style="fill: none; stroke: #ff0000; stroke-opacity: 0.5; stroke-linecap: square"/>
    </g>
    <g id="text_17">
     <!-- 2-2 -->
     <g transform="translate(243.917188 60.474688) scale(0.1 -0.1)">
      <use xlink:href="#DejaVuSans-32"/>
      <use xlink:href="#DejaVuSans-2d" transform="translate(63.623047 0)"/>
      <use xlink:href="#DejaVuSans-32" transform="translate(99.707031 0)"/>
     </g>
    </g>
   </g>
  </g>
 </g>
 <defs>
  <clipPath id="pb8cddec587">
   <rect x="33.7" y="14.52" width="235.55" height="174.08"/>
  </clipPath>
 </defs>
</svg>
