<?xml version="1.0" encoding="utf-8" standalone="no"?>
<!DOCTYPE svg PUBLIC "-//W3C//DTD SVG 1.1//EN"
  "http://www.w3.org/Graphics/SVG/1.1/DTD/svg11.dtd">
<svg xmlns:xlink="http://www.w3.org/1999/xlink" width="288pt" height="216pt" viewBox="0 0 288 216" xmlns="http://www.w3.org/2000/svg" version="1.1">
 <metadata>
  <rdf:RDF xmlns:dc="http://purl.org/dc/elements/1.1/" xmlns:cc="http://creativecommons.org/ns#" xmlns:rdf="http://www.w3.org/1999/02/22-rdf-syntax-ns#">
   <cc:Work>
    <dc:type rdf:resource="http://purl.org/dc/dcmitype/StillImage"/>
    <dc:date>2025-09-17T23:07:08.967064</dc:date>
    <dc:format>image/svg+xml</dc:format>
    <dc:creator>
     <cc:Agent>
      <dc:title>Matplotlib v3.10.0, https://matplotlib.org/</dc:title>
     </cc:Agent>
    </dc:creator>
   </cc:Work>
  </rdf:RDF>
 </metadata>
 <defs>
  <style type="text/css">*{stroke-linejoin: round; stroke-linecap: butt}</style>
 </defs>
 <g id="figure_1">
  <g id="patch_1">
   <path d="M 0 216 
L 288 216 
L 288 0 
L 0 0 
z
" style="fill: #ffffff"/>
  </g>
  <g id="axes_1">
   <g id="patch_2">
    <path d="M 33.7 188.6 
L 269.25 188.6 
L 269.25 14.52 
L 33.7 14.52 
z
" style="fill: #ffffff"/>
   </g>
   <g id="matplotlib.axis_1">
    <g id="xtick_1">
     <g id="line2d_1">
      <defs>
       <path id="m740b4c40ac" d="M 0 0 
L 0 3.5 
" style="stroke: #000000; stroke-width: 0.8"/>
      </defs>
      <g>
       <use xlink:href="#m740b4c40ac" x="44.138477" y="188.6" style="stroke: #000000; stroke-width: 0.8"/>
      </g>
     </g>
     <g id="text_1">
      <!-- 0 -->
      <g transform="translate(40.957227 203.198437) scale(0.1 -0.1)">
       <defs>
        <path id="DejaVuSans-30" d="M 2034 4250 
Q 1547 4250 1301 3770 
Q 1056 3291 1056 2328 
Q 1056 1369 1301 889 
Q 1547 409 2034 409 
Q 2525 409 2770 889 
Q 3016 1369 3016 2328 
Q 3016 3291 2770 3770 
Q 2525 4250 2034 4250 
z
M 2034 4750 
Q 2819 4750 3233 4129 
Q 3647 3509 3647 2328 
Q 3647 1150 3233 529 
Q 2819 -91 2034 -91 
Q 1250 -91 836 529 
Q 422 1150 422 2328 
Q 422 3509 836 4129 
Q 1250 4750 2034 4750 
z
" transform="scale(0.015625)"/>
       </defs>
       <use xlink:href="#DejaVuSans-30"/>
      </g>
     </g>
    </g>
    <g id="xtick_2">
     <g id="line2d_2">
      <g>
       <use xlink:href="#m740b4c40ac" x="87.073086" y="188.6" style="stroke: #000000; stroke-width: 0.8"/>
      </g>
     </g>
     <g id="text_2">
      <!-- 200 -->
      <g transform="translate(77.529336 203.198437) scale(0.1 -0.1)">
       <defs>
        <path id="DejaVuSans-32" d="M 1228 531 
L 3431 531 
L 3431 0 
L 469 0 
L 469 531 
Q 828 903 1448 1529 
Q 2069 2156 2228 2338 
Q 2531 2678 2651 2914 
Q 2772 3150 2772 3378 
Q 2772 3750 2511 3984 
Q 2250 4219 1831 4219 
Q 1534 4219 1204 4116 
Q 875 4013 500 3803 
L 500 4441 
Q 881 4594 1212 4672 
Q 1544 4750 1819 4750 
Q 2544 4750 2975 4387 
Q 3406 4025 3406 3419 
Q 3406 3131 3298 2873 
Q 3191 2616 2906 2266 
Q 2828 2175 2409 1742 
Q 1991 1309 1228 531 
z
" transform="scale(0.015625)"/>
       </defs>
       <use xlink:href="#DejaVuSans-32"/>
       <use xlink:href="#DejaVuSans-30" transform="translate(63.623047 0)"/>
       <use xlink:href="#DejaVuSans-30" transform="translate(127.246094 0)"/>
      </g>
     </g>
    </g>
    <g id="xtick_3">
     <g id="line2d_3">
      <g>
       <use xlink:href="#m740b4c40ac" x="130.007695" y="188.6" style="stroke: #000000; stroke-width: 0.8"/>
      </g>
     </g>
     <g id="text_3">
      <!-- 400 -->
      <g transform="translate(120.463945 203.198437) scale(0.1 -0.1)">
       <defs>
        <path id="DejaVuSans-34" d="M 2419 4116 
L 825 1625 
L 2419 1625 
L 2419 4116 
z
M 2253 4666 
L 3047 4666 
L 3047 1625 
L 3713 1625 
L 3713 1100 
L 3047 1100 
L 3047 0 
L 2419 0 
L 2419 1100 
L 313 1100 
L 313 1709 
L 2253 4666 
z
" transform="scale(0.015625)"/>
       </defs>
       <use xlink:href="#DejaVuSans-34"/>
       <use xlink:href="#DejaVuSans-30" transform="translate(63.623047 0)"/>
       <use xlink:href="#DejaVuSans-30" transform="translate(127.246094 0)"/>
      </g>
     </g>
    </g>
    <g id="xtick_4">
     <g id="line2d_4">
      <g>
       <use xlink:href="#m740b4c40ac" x="172.942305" y="188.6" style="stroke: #000000; stroke-width: 0.8"/>
      </g>
     </g>
     <g id="text_4">
      <!-- 600 -->
      <g transform="translate(163.398555 203.198437) scale(0.1 -0.1)">
       <defs>
        <path id="DejaVuSans-36" d="M 2113 2584 
Q 1688 2584 1439 2293 
Q 1191 2003 1191 1497 
Q 1191 994 1439 701 
Q 1688 409 2113 409 
Q 2538 409 2786 701 
Q 3034 994 3034 1497 
Q 3034 2003 2786 2293 
Q 2538 2584 2113 2584 
z
M 3366 4563 
L 3366 3988 
Q 3128 4100 2886 4159 
Q 2644 4219 2406 4219 
Q 1781 4219 1451 3797 
Q 1122 3375 1075 2522 
Q 1259 2794 1537 2939 
Q 1816 3084 2150 3084 
Q 2853 3084 3261 2657 
Q 3669 2231 3669 1497 
Q 3669 778 3244 343 
Q 2819 -91 2113 -91 
Q 1303 -91 875 529 
Q 447 1150 447 2328 
Q 447 3434 972 4092 
Q 1497 4750 2381 4750 
Q 2619 4750 2861 4703 
Q 3103 4656 3366 4563 
z
" transform="scale(0.015625)"/>
       </defs>
       <use xlink:href="#DejaVuSans-36"/>
       <use xlink:href="#DejaVuSans-30" transform="translate(63.623047 0)"/>
       <use xlink:href="#DejaVuSans-30" transform="translate(127.246094 0)"/>
      </g>
     </g>
    </g>
    <g id="xtick_5">
     <g id="line2d_5">
      <g>
       <use xlink:href="#m740b4c40ac" x="215.876914" y="188.6" style="stroke: #000000; stroke-width: 0.8"/>
      </g>
     </g>
     <g id="text_5">
      <!-- 800 -->
      <g transform="translate(206.333164 203.198437) scale(0.1 -0.1)">
       <defs>
        <path id="DejaVuSans-38" d="M 2034 2216 
Q 1584 2216 1326 1975 
Q 1069 1734 1069 1313 
Q 1069 891 1326 650 
Q 1584 409 2034 409 
Q 2484 409 2743 651 
Q 3003 894 3003 1313 
Q 3003 1734 2745 1975 
Q 2488 2216 2034 2216 
z
M 1403 2484 
Q 997 2584 770 2862 
Q 544 3141 544 3541 
Q 544 4100 942 4425 
Q 1341 4750 2034 4750 
Q 2731 4750 3128 4425 
Q 3525 4100 3525 3541 
Q 3525 3141 3298 2862 
Q 3072 2584 2669 2484 
Q 3125 2378 3379 2068 
Q 3634 1759 3634 1313 
Q 3634 634 3220 271 
Q 2806 -91 2034 -91 
Q 1263 -91 848 271 
Q 434 634 434 1313 
Q 434 1759 690 2068 
Q 947 2378 1403 2484 
z
M 1172 3481 
Q 1172 3119 1398 2916 
Q 1625 2713 2034 2713 
Q 2441 2713 2670 2916 
Q 2900 3119 2900 3481 
Q 2900 3844 2670 4047 
Q 2441 4250 2034 4250 
Q 1625 4250 1398 4047 
Q 1172 3844 1172 3481 
z
" transform="scale(0.015625)"/>
       </defs>
       <use xlink:href="#DejaVuSans-38"/>
       <use xlink:href="#DejaVuSans-30" transform="translate(63.623047 0)"/>
       <use xlink:href="#DejaVuSans-30" transform="translate(127.246094 0)"/>
      </g>
     </g>
    </g>
    <g id="xtick_6">
     <g id="line2d_6">
      <g>
       <use xlink:href="#m740b4c40ac" x="258.811523" y="188.6" style="stroke: #000000; stroke-width: 0.8"/>
      </g>
     </g>
     <g id="text_6">
      <!-- 1000 -->
      <g transform="translate(246.086523 203.198437) scale(0.1 -0.1)">
       <defs>
        <path id="DejaVuSans-31" d="M 794 531 
L 1825 531 
L 1825 4091 
L 703 3866 
L 703 4441 
L 1819 4666 
L 2450 4666 
L 2450 531 
L 3481 531 
L 3481 0 
L 794 0 
L 794 531 
z
" transform="scale(0.015625)"/>
       </defs>
       <use xlink:href="#DejaVuSans-31"/>
       <use xlink:href="#DejaVuSans-30" transform="translate(63.623047 0)"/>
       <use xlink:href="#DejaVuSans-30" transform="translate(127.246094 0)"/>
       <use xlink:href="#DejaVuSans-30" transform="translate(190.869141 0)"/>
      </g>
     </g>
    </g>
    <g id="text_7">
     <!-- q (nm) -->
     <g transform="translate(134.771094 216.876563) scale(0.1 -0.1)">
      <defs>
       <path id="DejaVuSans-71" d="M 947 1747 
Q 947 1113 1208 752 
Q 1469 391 1925 391 
Q 2381 391 2643 752 
Q 2906 1113 2906 1747 
Q 2906 2381 2643 2742 
Q 2381 3103 1925 3103 
Q 1469 3103 1208 2742 
Q 947 2381 947 1747 
z
M 2906 525 
Q 2725 213 2448 61 
Q 2172 -91 1784 -91 
Q 1150 -91 751 415 
Q 353 922 353 1747 
Q 353 2572 751 3078 
Q 1150 3584 1784 3584 
Q 2172 3584 2448 3432 
Q 2725 3281 2906 2969 
L 2906 3500 
L 3481 3500 
L 3481 -1331 
L 2906 -1331 
L 2906 525 
z
" transform="scale(0.015625)"/>
       <path id="DejaVuSans-20" transform="scale(0.015625)"/>
       <path id="DejaVuSans-28" d="M 1984 4856 
Q 1566 4138 1362 3434 
Q 1159 2731 1159 2009 
Q 1159 1288 1364 580 
Q 1569 -128 1984 -844 
L 1484 -844 
Q 1016 -109 783 600 
Q 550 1309 550 2009 
Q 550 2706 781 3412 
Q 1013 4119 1484 4856 
L 1984 4856 
z
" transform="scale(0.015625)"/>
       <path id="DejaVuSans-6e" d="M 3513 2113 
L 3513 0 
L 2938 0 
L 2938 2094 
Q 2938 2591 2744 2837 
Q 2550 3084 2163 3084 
Q 1697 3084 1428 2787 
Q 1159 2491 1159 1978 
L 1159 0 
L 581 0 
L 581 3500 
L 1159 3500 
L 1159 2956 
Q 1366 3272 1645 3428 
Q 1925 3584 2291 3584 
Q 2894 3584 3203 3211 
Q 3513 2838 3513 2113 
z
" transform="scale(0.015625)"/>
       <path id="DejaVuSans-6d" d="M 3328 2828 
Q 3544 3216 3844 3400 
Q 4144 3584 4550 3584 
Q 5097 3584 5394 3201 
Q 5691 2819 5691 2113 
L 5691 0 
L 5113 0 
L 5113 2094 
Q 5113 2597 4934 2840 
Q 4756 3084 4391 3084 
Q 3944 3084 3684 2787 
Q 3425 2491 3425 1978 
L 3425 0 
L 2847 0 
L 2847 2094 
Q 2847 2600 2669 2842 
Q 2491 3084 2119 3084 
Q 1678 3084 1418 2786 
Q 1159 2488 1159 1978 
L 1159 0 
L 581 0 
L 581 3500 
L 1159 3500 
L 1159 2956 
Q 1356 3278 1631 3431 
Q 1906 3584 2284 3584 
Q 2666 3584 2933 3390 
Q 3200 3197 3328 2828 
z
" transform="scale(0.015625)"/>
       <path id="DejaVuSans-29" d="M 513 4856 
L 1013 4856 
Q 1481 4119 1714 3412 
Q 1947 2706 1947 2009 
Q 1947 1309 1714 600 
Q 1481 -109 1013 -844 
L 513 -844 
Q 928 -128 1133 580 
Q 1338 1288 1338 2009 
Q 1338 2731 1133 3434 
Q 928 4138 513 4856 
z
" transform="scale(0.015625)"/>
      </defs>
      <use xlink:href="#DejaVuSans-71"/>
      <use xlink:href="#DejaVuSans-20" transform="translate(63.476562 0)"/>
      <use xlink:href="#DejaVuSans-28" transform="translate(95.263672 0)"/>
      <use xlink:href="#DejaVuSans-6e" transform="translate(134.277344 0)"/>
      <use xlink:href="#DejaVuSans-6d" transform="translate(197.65625 0)"/>
      <use xlink:href="#DejaVuSans-29" transform="translate(295.068359 0)"/>
     </g>
    </g>
   </g>
   <g id="matplotlib.axis_2">
    <g id="ytick_1">
     <g id="line2d_7">
      <defs>
       <path id="m9d6ff8adbf" d="M 0 0 
L -3.5 0 
" style="stroke: #000000; stroke-width: 0.8"/>
      </defs>
      <g>
       <use xlink:href="#m9d6ff8adbf" x="33.7" y="180.687273" style="stroke: #000000; stroke-width: 0.8"/>
      </g>
     </g>
     <g id="text_8">
      <!-- 0 -->
      <g transform="translate(20.3375 184.486491) scale(0.1 -0.1)">
       <use xlink:href="#DejaVuSans-30"/>
      </g>
     </g>
    </g>
    <g id="ytick_2">
     <g id="line2d_8">
      <g>
       <use xlink:href="#m9d6ff8adbf" x="33.7" y="142.163634" style="stroke: #000000; stroke-width: 0.8"/>
      </g>
     </g>
     <g id="text_9">
      <!-- 2000 -->
      <g transform="translate(1.25 145.962852) scale(0.1 -0.1)">
       <use xlink:href="#DejaVuSans-32"/>
       <use xlink:href="#DejaVuSans-30" transform="translate(63.623047 0)"/>
       <use xlink:href="#DejaVuSans-30" transform="translate(127.246094 0)"/>
       <use xlink:href="#DejaVuSans-30" transform="translate(190.869141 0)"/>
      </g>
     </g>
    </g>
    <g id="ytick_3">
     <g id="line2d_9">
      <g>
       <use xlink:href="#m9d6ff8adbf" x="33.7" y="103.639994" style="stroke: #000000; stroke-width: 0.8"/>
      </g>
     </g>
     <g id="text_10">
      <!-- 4000 -->
      <g transform="translate(1.25 107.439213) scale(0.1 -0.1)">
       <use xlink:href="#DejaVuSans-34"/>
       <use xlink:href="#DejaVuSans-30" transform="translate(63.623047 0)"/>
       <use xlink:href="#DejaVuSans-30" transform="translate(127.246094 0)"/>
       <use xlink:href="#DejaVuSans-30" transform="translate(190.869141 0)"/>
      </g>
     </g>
    </g>
    <g id="ytick_4">
     <g id="line2d_10">
      <g>
       <use xlink:href="#m9d6ff8adbf" x="33.7" y="65.116355" style="stroke: #000000; stroke-width: 0.8"/>
      </g>
     </g>
     <g id="text_11">
      <!-- 6000 -->
      <g transform="translate(1.25 68.915574) scale(0.1 -0.1)">
       <use xlink:href="#DejaVuSans-36"/>
       <use xlink:href="#DejaVuSans-30" transform="translate(63.623047 0)"/>
       <use xlink:href="#DejaVuSans-30" transform="translate(127.246094 0)"/>
       <use xlink:href="#DejaVuSans-30" transform="translate(190.869141 0)"/>
      </g>
     </g>
    </g>
    <g id="ytick_5">
     <g id="line2d_11">
      <g>
       <use xlink:href="#m9d6ff8adbf" x="33.7" y="26.592716" style="stroke: #000000; stroke-width: 0.8"/>
      </g>
     </g>
     <g id="text_12">
      <!-- 8000 -->
      <g transform="translate(1.25 30.391935) scale(0.1 -0.1)">
       <use xlink:href="#DejaVuSans-38"/>
       <use xlink:href="#DejaVuSans-30" transform="translate(63.623047 0)"/>
       <use xlink:href="#DejaVuSans-30" transform="translate(127.246094 0)"/>
       <use xlink:href="#DejaVuSans-30" transform="translate(190.869141 0)"/>
      </g>
     </g>
    </g>
    <g id="text_13">
     <!-- rdf -->
     <g transform="translate(-4.829688 108.462344) rotate(-90) scale(0.1 -0.1)">
      <defs>
       <path id="DejaVuSans-72" d="M 2631 2963 
Q 2534 3019 2420 3045 
Q 2306 3072 2169 3072 
Q 1681 3072 1420 2755 
Q 1159 2438 1159 1844 
L 1159 0 
L 581 0 
L 581 3500 
L 1159 3500 
L 1159 2956 
Q 1341 3275 1631 3429 
Q 1922 3584 2338 3584 
Q 2397 3584 2469 3576 
Q 2541 3569 2628 3553 
L 2631 2963 
z
" transform="scale(0.015625)"/>
       <path id="DejaVuSans-64" d="M 2906 2969 
L 2906 4863 
L 3481 4863 
L 3481 0 
L 2906 0 
L 2906 525 
Q 2725 213 2448 61 
Q 2172 -91 1784 -91 
Q 1150 -91 751 415 
Q 353 922 353 1747 
Q 353 2572 751 3078 
Q 1150 3584 1784 3584 
Q 2172 3584 2448 3432 
Q 2725 3281 2906 2969 
z
M 947 1747 
Q 947 1113 1208 752 
Q 1469 391 1925 391 
Q 2381 391 2643 752 
Q 2906 1113 2906 1747 
Q 2906 2381 2643 2742 
Q 2381 3103 1925 3103 
Q 1469 3103 1208 2742 
Q 947 2381 947 1747 
z
" transform="scale(0.015625)"/>
       <path id="DejaVuSans-66" d="M 2375 4863 
L 2375 4384 
L 1825 4384 
Q 1516 4384 1395 4259 
Q 1275 4134 1275 3809 
L 1275 3500 
L 2222 3500 
L 2222 3053 
L 1275 3053 
L 1275 0 
L 697 0 
L 697 3053 
L 147 3053 
L 147 3500 
L 697 3500 
L 697 3744 
Q 697 4328 969 4595 
Q 1241 4863 1831 4863 
L 2375 4863 
z
" transform="scale(0.015625)"/>
      </defs>
      <use xlink:href="#DejaVuSans-72"/>
      <use xlink:href="#DejaVuSans-64" transform="translate(39.363281 0)"/>
      <use xlink:href="#DejaVuSans-66" transform="translate(102.839844 0)"/>
     </g>
    </g>
   </g>
   <g id="line2d_12">
    <path d="M 44.406818 180.687273 
L 92.708254 180.687273 
L 93.244936 179.580213 
L 93.781619 180.687273 
L 94.854984 180.687273 
L 95.391667 173.573426 
L 95.928349 22.432727 
L 96.465032 130.962241 
L 97.001715 158.715293 
L 97.538397 175.070083 
L 98.07508 177.934292 
L 98.611762 179.787606 
L 99.148445 175.394081 
L 99.685128 178.091568 
L 100.22181 177.292258 
L 100.758493 179.021795 
L 101.295175 179.052926 
L 101.831858 177.479107 
L 102.368541 176.750639 
L 103.441906 178.410016 
L 103.978589 174.723039 
L 104.515271 177.025599 
L 105.051954 178.52881 
L 105.588636 177.859379 
L 106.125319 176.518557 
L 106.662002 177.272726 
L 107.198684 175.987922 
L 107.735367 178.707113 
L 108.272049 178.091064 
L 108.808732 176.219007 
L 109.345415 176.292259 
L 109.882097 178.834323 
L 110.41878 178.864208 
L 110.955463 176.501511 
L 111.492145 176.56795 
L 112.028828 177.791231 
L 112.56551 176.696171 
L 113.102193 178.442 
L 113.638876 177.923858 
L 114.175558 175.789075 
L 114.712241 176.935289 
L 115.248923 180.159334 
L 115.785606 178.086979 
L 116.322289 177.613139 
L 116.858971 178.163168 
L 117.395654 175.712763 
L 117.932337 175.294606 
L 118.469019 178.754523 
L 119.005702 177.829563 
L 119.542384 178.809154 
L 120.079067 176.521023 
L 120.61575 177.492172 
L 121.152432 177.086442 
L 122.225797 177.184765 
L 122.76248 178.527986 
L 123.299163 178.557163 
L 123.835845 179.426362 
L 124.372528 178.613773 
L 124.909211 177.004407 
L 125.445893 176.245229 
L 125.982576 177.100376 
L 126.519258 178.327065 
L 127.055941 177.969227 
L 127.592624 178.387384 
L 128.129306 177.65982 
L 128.665989 178.071779 
L 129.202671 178.842563 
L 130.276037 177.449036 
L 130.812719 178.199737 
L 131.349402 176.826255 
L 131.886085 177.913505 
L 132.422767 177.262085 
L 132.95945 177.303344 
L 133.496132 178.012554 
L 134.032815 175.731895 
L 134.569498 177.749224 
L 135.10618 177.138577 
L 135.642863 175.585898 
L 136.179545 177.220858 
L 136.716228 176.637958 
L 137.252911 177.60821 
L 137.789593 176.730255 
L 138.326276 177.377074 
L 138.862959 177.116944 
L 139.399641 177.157063 
L 139.936324 176.323801 
L 140.473006 176.947623 
L 141.009689 178.695866 
L 141.546372 178.436393 
L 142.083054 176.512986 
L 142.619737 178.209928 
L 143.693102 175.838844 
L 144.229785 176.956605 
L 144.766467 178.578138 
L 145.30315 175.731089 
L 145.839833 178.364322 
L 146.376515 176.856229 
L 146.913198 178.159844 
L 147.44988 177.685787 
L 147.986563 179.449546 
L 148.523246 177.012171 
L 149.059928 177.534686 
L 150.133293 178.073458 
L 150.669976 176.21787 
L 151.206659 178.824238 
L 151.743341 178.612214 
L 153.353389 176.658609 
L 153.890072 177.806073 
L 154.426754 177.395087 
L 154.963437 178.296323 
L 155.50012 177.242987 
L 156.036802 178.12877 
L 156.573485 176.463724 
L 157.110167 179.013866 
L 157.64685 176.543205 
L 158.183533 177.608423 
L 158.720215 177.02718 
L 159.256898 175.651099 
L 159.793581 178.691454 
L 160.330263 177.1279 
L 160.866946 177.944275 
L 161.403628 176.998624 
L 161.940311 178.763529 
L 162.476994 178.018392 
L 163.013676 177.66461 
L 163.550359 177.504504 
L 164.087041 177.532923 
L 164.623724 177.193153 
L 165.160407 177.7709 
L 165.697089 178.519258 
L 166.233772 177.105606 
L 166.770455 176.781871 
L 167.307137 177.695701 
L 167.84382 177.023787 
L 168.380502 177.920113 
L 168.917185 176.915082 
L 169.453868 177.627317 
L 169.99055 179.17031 
L 170.527233 178.013313 
L 171.063915 177.207305 
L 172.137281 178.568988 
L 172.673963 176.647606 
L 173.210646 178.123339 
L 173.747329 177.03208 
L 174.284011 178.795914 
L 174.820694 177.873492 
L 175.357376 177.276281 
L 175.894059 177.304007 
L 176.430742 178.399182 
L 176.967424 179.022868 
L 177.504107 178.285764 
L 178.040789 177.858296 
L 178.577472 178.619373 
L 179.650837 178.361242 
L 180.18752 177.946863 
L 180.724203 177.825264 
L 181.260885 178.131586 
L 181.797568 175.756553 
L 182.33425 178.171131 
L 182.870933 177.77444 
L 183.407616 177.521576 
L 183.944298 176.862915 
L 184.480981 177.840893 
L 186.091029 178.302548 
L 186.627711 178.583455 
L 187.164394 177.946704 
L 187.701077 179.132914 
L 188.774442 177.241677 
L 189.311124 177.900473 
L 189.847807 178.172449 
L 190.38449 178.190873 
L 190.921172 177.713458 
L 191.457855 177.489062 
L 191.994537 177.023786 
L 192.53122 177.898882 
L 193.067903 177.317123 
L 193.604585 178.655783 
L 194.141268 177.602472 
L 194.677951 178.095636 
L 195.214633 177.646162 
L 195.751316 177.783785 
L 196.287998 176.76633 
L 196.824681 178.39702 
L 197.361364 177.503339 
L 197.898046 177.525524 
L 198.434729 177.99604 
L 198.971411 178.014656 
L 199.508094 177.14837 
L 200.044777 177.172693 
L 200.581459 177.63307 
L 201.118142 177.328921 
L 201.654825 177.674549 
L 202.191507 176.946902 
L 202.72819 178.139785 
L 203.264872 177.629778 
L 204.338238 178.710837 
L 204.87492 178.620683 
L 205.411603 177.607985 
L 205.948285 177.934264 
L 206.484968 177.040844 
L 207.021651 177.266067 
L 208.095016 178.204509 
L 208.631699 178.319353 
L 209.168381 177.452521 
L 209.705064 178.447346 
L 210.241746 177.590949 
L 210.778429 178.187686 
L 211.315112 177.726102 
L 211.851794 177.745027 
L 212.388477 177.952386 
L 212.925159 177.876028 
L 213.461842 178.266285 
L 213.998525 178.281559 
L 214.535207 178.480578 
L 215.07189 178.037577 
L 216.145255 177.890077 
L 216.681938 178.355813 
L 217.21862 177.746429 
L 217.755303 178.473114 
L 218.291986 177.43049 
L 218.828668 178.06283 
L 219.365351 177.991947 
L 219.902033 178.094794 
L 220.438716 178.625894 
L 220.975399 177.613959 
L 221.512081 178.311339 
L 222.048764 177.313558 
L 222.585447 178.256006 
L 223.122129 178.603901 
L 223.658812 177.456642 
L 224.195494 178.134618 
L 224.732177 177.658624 
L 225.26886 178.002024 
L 225.805542 177.856101 
L 226.342225 178.194402 
L 226.878907 178.049142 
L 227.41559 178.223528 
L 227.952273 177.0527 
L 228.488955 177.07382 
L 229.025638 178.344339 
L 229.562321 177.736713 
L 230.099003 178.757291 
L 230.635686 177.463548 
L 231.172368 178.016248 
L 231.709051 178.183251 
L 232.245734 178.046641 
L 232.782416 178.21166 
L 233.319099 177.628953 
L 233.855781 178.091263 
L 234.392464 178.03214 
L 234.929147 178.707104 
L 235.465829 177.40547 
L 236.002512 178.149025 
L 236.539195 176.937177 
L 237.61256 178.11978 
L 238.149242 178.063034 
L 238.685925 177.724838 
L 239.222608 179.073899 
L 239.75929 178.385106 
L 240.295973 178.467064 
L 241.369338 177.393112 
L 241.906021 178.639586 
L 242.442703 177.768128 
L 242.979386 178.053944 
L 243.516069 178.068096 
L 244.052751 178.616531 
L 244.589434 177.830319 
L 245.126116 177.647283 
L 245.662799 178.189345 
L 246.199482 178.529522 
L 246.736164 177.82548 
L 247.80953 178.241712 
L 248.346212 177.358303 
L 248.882895 177.503078 
L 249.419577 177.963175 
L 250.492943 178.054133 
L 251.029625 177.568839 
L 251.566308 178.143359 
L 252.639673 178.292296 
L 253.176356 177.143782 
L 253.713038 178.499114 
L 254.249721 177.845092 
L 254.786404 178.220541 
L 255.323086 178.771796 
L 255.859769 177.947714 
L 256.396451 178.080061 
L 256.933134 178.505884 
L 257.469817 178.34086 
L 258.543182 177.493194 
L 258.543182 177.493194 
" clip-path="url(#p3e1a572282)" style="fill: none; stroke: #000000; stroke-opacity: 0.5; stroke-width: 0.5; stroke-linecap: square"/>
   </g>
   <g id="line2d_13">
    <path d="M 44.406818 180.687273 
L 92.708254 180.687273 
L 93.244936 177.296901 
L 93.781619 180.687273 
L 94.854984 180.687273 
L 95.928349 174.590989 
L 96.465032 177.701333 
L 97.001715 171.910421 
L 98.07508 177.876938 
L 98.611762 177.932042 
L 99.685128 172.737927 
L 100.22181 178.087964 
L 101.295175 178.184678 
L 101.831858 170.862265 
L 102.368541 175.864896 
L 102.905223 178.319923 
L 103.441906 176.037873 
L 104.515271 176.201722 
L 105.051954 180.687273 
L 105.588636 178.522166 
L 106.662002 178.595863 
L 107.198684 170.407442 
L 107.735367 178.665859 
L 108.272049 174.724105 
L 108.808732 176.77754 
L 109.345415 172.995998 
L 109.882097 175.012614 
L 110.41878 180.687273 
L 110.955463 178.856002 
L 112.028828 178.913447 
L 112.56551 171.956737 
L 113.102193 178.968236 
L 113.638876 177.302089 
L 114.175558 174.02028 
L 114.712241 179.04578 
L 115.248923 180.687273 
L 116.322289 177.549094 
L 117.395654 177.640385 
L 117.932337 173.180434 
L 118.469019 177.72775 
L 119.542384 177.811403 
L 120.079067 173.59886 
L 120.61575 177.891559 
L 121.152432 173.795057 
L 121.689115 176.608988 
L 122.225797 172.642449 
L 122.76248 179.36471 
L 123.299163 179.382581 
L 123.835845 178.112913 
L 124.372528 178.147235 
L 125.982576 174.584566 
L 126.519258 178.277893 
L 127.055941 178.308983 
L 127.592624 179.513371 
L 128.129306 178.369379 
L 129.202671 178.427503 
L 130.276037 176.279673 
L 130.812719 177.422382 
L 131.349402 175.31256 
L 131.886085 180.687273 
L 132.422767 177.540381 
L 132.95945 177.578288 
L 133.496132 179.663357 
L 134.032815 177.652103 
L 134.569498 176.688262 
L 135.642863 178.734403 
L 136.179545 174.896784 
L 136.716228 175.917647 
L 137.252911 178.801346 
L 137.789593 175.09418 
L 138.326276 176.079324 
L 138.862959 176.131384 
L 140.473006 173.639471 
L 141.009689 178.07355 
L 142.083054 176.426021 
L 142.619737 179.844287 
L 143.156419 179.019527 
L 143.693102 174.912929 
L 144.229785 174.974687 
L 144.766467 176.650257 
L 146.376515 176.776415 
L 146.913198 179.913248 
L 147.44988 178.389259 
L 147.986563 178.41295 
L 148.523246 179.186606 
L 149.059928 176.973889 
L 149.596611 178.481865 
L 150.133293 177.776433 
L 150.669976 175.644493 
L 151.206659 179.97408 
L 151.743341 178.568983 
L 152.280024 178.589955 
L 153.353389 175.889245 
L 153.890072 180.008528 
L 154.426754 177.998654 
L 154.963437 178.690286 
L 155.50012 178.050241 
L 156.036802 178.075468 
L 156.573485 175.513426 
L 157.110167 178.124868 
L 157.64685 173.707108 
L 158.183533 177.54428 
L 158.720215 178.8191 
L 159.256898 175.13489 
L 159.793581 180.076053 
L 160.330263 177.053746 
L 160.866946 177.687119 
L 161.403628 179.498169 
L 162.476994 178.352002 
L 163.013676 176.637377 
L 163.550359 177.82044 
L 164.087041 176.709544 
L 164.623724 177.308091 
L 165.160407 176.779788 
L 165.697089 176.814205 
L 166.233772 176.299731 
L 166.770455 178.512674 
L 167.307137 176.914812 
L 167.84382 177.481723 
L 168.380502 177.509362 
L 168.917185 176.486423 
L 169.453868 179.12542 
L 169.99055 179.138706 
L 170.527233 180.17546 
L 171.063915 175.612318 
L 171.600598 179.177583 
L 172.137281 178.192178 
L 172.673963 174.748962 
L 173.210646 178.233508 
L 173.747329 177.767091 
L 174.284011 179.239201 
L 174.820694 175.899936 
L 176.430742 178.818665 
L 176.967424 180.223887 
L 177.504107 179.767945 
L 178.040789 177.039381 
L 178.577472 178.877861 
L 179.114155 177.54593 
L 179.650837 178.461189 
L 180.18752 178.037008 
L 180.724203 177.181311 
L 181.260885 178.947986 
L 181.797568 177.667207 
L 182.33425 178.546805 
L 182.870933 177.713755 
L 183.407616 177.736637 
L 183.944298 178.595827 
L 184.480981 176.536302 
L 185.017663 177.803702 
L 185.554346 179.460819 
L 186.091029 176.224194 
L 186.627711 179.881905 
L 187.164394 178.289275 
L 187.701077 179.893902 
L 188.237759 178.324854 
L 188.774442 177.169894 
L 189.311124 177.195855 
L 189.847807 178.76186 
L 190.38449 178.011444 
L 191.994537 178.069406 
L 192.53122 178.830871 
L 193.067903 175.158119 
L 193.604585 177.393569 
L 194.141268 176.690379 
L 194.677951 177.801132 
L 195.214633 177.821611 
L 195.751316 178.197531 
L 196.287998 177.861887 
L 196.824681 178.933797 
L 197.361364 178.249573 
L 197.898046 177.22911 
L 198.434729 176.909734 
L 198.971411 176.935864 
L 199.508094 179.332536 
L 200.044777 177.32371 
L 200.581459 176.010525 
L 201.118142 178.696636 
L 201.654825 177.06259 
L 202.191507 176.759883 
L 202.72819 178.411782 
L 203.264872 177.781334 
L 203.801555 178.121549 
L 204.338238 179.094421 
L 204.87492 178.472147 
L 205.411603 176.915145 
L 205.948285 176.62786 
L 206.484968 178.515875 
L 207.021651 176.681191 
L 207.558333 177.932021 
L 208.095016 178.862441 
L 208.631699 178.270021 
L 209.168381 177.084936 
L 209.705064 178.599514 
L 210.778429 178.626315 
L 211.315112 177.469387 
L 211.851794 178.071284 
L 212.388477 178.376765 
L 212.925159 177.53048 
L 213.461842 178.691121 
L 213.998525 178.703716 
L 214.535207 178.434605 
L 215.07189 178.448736 
L 215.608573 178.184661 
L 216.145255 178.752921 
L 216.681938 179.588796 
L 217.21862 178.230999 
L 217.755303 178.788631 
L 218.291986 177.722059 
L 219.365351 178.823368 
L 219.902033 176.717539 
L 220.438716 178.582949 
L 220.975399 178.857157 
L 221.512081 179.387934 
L 222.048764 176.812771 
L 222.585447 177.863021 
L 223.122129 179.66642 
L 223.658812 176.881962 
L 224.195494 177.156787 
L 224.732177 176.425678 
L 225.26886 178.44448 
L 226.342225 179.455915 
L 226.878907 178.483834 
L 227.41559 178.253331 
L 227.952273 177.541589 
L 228.488955 176.59759 
L 229.025638 179.4914 
L 229.562321 178.071563 
L 230.099003 178.086622 
L 230.635686 178.806766 
L 231.172368 177.648982 
L 231.709051 178.363464 
L 232.245734 178.607775 
L 232.782416 177.700596 
L 233.319099 177.717532 
L 233.855781 178.642915 
L 234.929147 178.216645 
L 235.465829 177.783788 
L 236.002512 178.466306 
L 236.539195 178.036964 
L 237.075877 177.832043 
L 237.61256 178.284705 
L 238.149242 177.429138 
L 238.685925 178.743175 
L 240.295973 178.774944 
L 240.832656 179.208019 
L 241.369338 177.324483 
L 241.906021 178.596925 
L 242.442703 178.816134 
L 242.979386 178.619434 
L 243.516069 178.01353 
L 244.052751 178.64158 
L 244.589434 178.449048 
L 245.126116 178.056194 
L 245.662799 178.0702 
L 246.199482 177.883831 
L 246.736164 178.297025 
L 247.272847 178.111521 
L 247.80953 177.730879 
L 248.346212 177.550359 
L 248.882895 177.956825 
L 249.419577 177.777081 
L 249.95626 177.213229 
L 250.492943 177.423276 
L 251.029625 178.204219 
L 251.566308 178.407057 
L 252.10299 176.906499 
L 252.639673 178.806601 
L 253.176356 176.196814 
L 253.713038 179.198109 
L 254.786404 176.817963 
L 255.323086 178.30415 
L 256.396451 177.602319 
L 256.933134 178.881731 
L 257.469817 177.273975 
L 258.006499 178.006078 
L 258.543182 177.841639 
L 258.543182 177.841639 
" clip-path="url(#p3e1a572282)" style="fill: none; stroke: #0000ff; stroke-opacity: 0.5; stroke-linecap: square"/>
   </g>
   <g id="line2d_14">
    <path d="M 44.406818 180.687273 
L 102.368541 180.687273 
L 102.905223 176.478652 
L 103.441906 180.687273 
L 103.978589 168.510297 
L 104.515271 176.700117 
L 105.051954 180.687273 
L 106.125319 173.121826 
L 106.662002 180.687273 
L 107.198684 173.377172 
L 107.735367 180.687273 
L 108.272049 177.153544 
L 108.808732 180.687273 
L 109.345415 177.268929 
L 109.882097 180.687273 
L 110.41878 170.761701 
L 110.955463 170.920495 
L 111.492145 167.871603 
L 112.028828 180.687273 
L 112.56551 177.583082 
L 114.712241 177.769063 
L 115.248923 180.687273 
L 115.785606 175.024411 
L 116.322289 175.10829 
L 116.858971 180.687273 
L 117.395654 172.56224 
L 118.469019 178.056586 
L 119.542384 178.130944 
L 120.079067 175.646625 
L 120.61575 178.202194 
L 121.152432 178.236707 
L 121.689115 175.853751 
L 122.225797 180.687273 
L 122.76248 173.633605 
L 123.299163 173.728915 
L 123.835845 180.687273 
L 124.372528 176.171652 
L 124.909211 178.459366 
L 125.445893 171.892923 
L 125.982576 178.517422 
L 126.519258 178.545603 
L 127.055941 176.459202 
L 127.592624 176.5134 
L 128.129306 178.626923 
L 128.665989 172.55018 
L 129.202671 180.687273 
L 129.739354 180.687273 
L 130.276037 174.810473 
L 131.349402 178.776264 
L 131.886085 175.024165 
L 132.422767 175.092799 
L 132.95945 178.844912 
L 133.496132 169.765506 
L 134.032815 177.090035 
L 134.569498 180.687273 
L 135.10618 173.661573 
L 135.642863 173.743735 
L 136.179545 180.687273 
L 136.716228 175.599673 
L 137.252911 179.010894 
L 137.789593 174.058423 
L 138.326276 175.772129 
L 138.862959 175.827659 
L 139.399641 177.483934 
L 139.936324 175.935938 
L 140.473006 179.121095 
L 141.009689 179.1384 
L 141.546372 177.623575 
L 142.083054 174.626827 
L 142.619737 177.689991 
L 143.156419 171.792629 
L 143.693102 171.888273 
L 144.229785 177.785642 
L 144.766467 176.381124 
L 145.30315 173.586307 
L 145.839833 179.282031 
L 146.376515 175.125165 
L 147.44988 175.240131 
L 147.986563 179.339526 
L 148.523246 179.353347 
L 149.059928 178.046645 
L 150.133293 180.687273 
L 150.669976 178.125861 
L 151.206659 179.419374 
L 151.743341 178.176708 
L 152.280024 178.201563 
L 152.816707 176.995447 
L 153.353389 180.687273 
L 153.890072 179.480616 
L 154.426754 177.102449 
L 155.50012 174.827204 
L 156.036802 178.365669 
L 156.573485 174.938554 
L 157.110167 180.687273 
L 157.64685 176.174843 
L 158.183533 177.334747 
L 158.720215 174.044883 
L 159.256898 177.396972 
L 159.793581 178.514048 
L 160.866946 178.55383 
L 161.403628 176.459348 
L 161.940311 178.59253 
L 162.476994 178.611476 
L 163.013676 180.687273 
L 164.087041 176.646406 
L 164.623724 177.683556 
L 165.160407 176.717765 
L 165.697089 179.703636 
L 166.233772 176.787236 
L 166.770455 174.888343 
L 167.307137 176.854932 
L 167.84382 179.73748 
L 168.380502 177.862464 
L 168.917185 177.886707 
L 169.453868 178.836188 
L 169.99055 178.851935 
L 170.527233 176.137827 
L 171.063915 176.176203 
L 171.600598 179.792642 
L 172.137281 179.800128 
L 172.673963 176.288525 
L 173.210646 178.069924 
L 173.747329 178.956795 
L 174.284011 178.112924 
L 174.820694 179.836191 
L 175.894059 173.151816 
L 176.430742 176.534811 
L 176.967424 178.215883 
L 178.040789 178.255345 
L 178.577472 179.88309 
L 179.114155 177.496067 
L 180.18752 179.116746 
L 180.724203 178.349966 
L 181.260885 178.368224 
L 181.797568 174.551266 
L 182.33425 179.165162 
L 182.870933 178.421736 
L 183.407616 178.439169 
L 183.944298 177.712772 
L 184.480981 179.211372 
L 185.017663 177.757932 
L 185.554346 177.780124 
L 186.091029 179.244662 
L 187.164394 177.845201 
L 187.701077 179.276836 
L 188.774442 176.518528 
L 189.311124 177.238959 
L 189.847807 177.264318 
L 190.38449 176.609821 
L 190.921172 177.314195 
L 191.457855 177.338719 
L 191.994537 176.033288 
L 193.067903 177.410738 
L 193.604585 180.687273 
L 194.141268 180.04131 
L 194.677951 177.48045 
L 195.214633 178.776832 
L 195.751316 176.893381 
L 196.287998 176.292229 
L 196.824681 177.569984 
L 197.361364 177.591781 
L 197.898046 179.457704 
L 198.971411 178.26212 
L 199.508094 176.472538 
L 200.044777 177.099473 
L 200.581459 177.124037 
L 201.118142 178.328 
L 201.654825 178.929851 
L 202.191507 178.941766 
L 202.72819 177.797761 
L 203.264872 178.391223 
L 203.801555 177.836469 
L 204.338238 178.988231 
L 204.87492 177.874415 
L 205.411603 177.893104 
L 205.948285 179.021873 
L 206.484968 176.275544 
L 207.021651 176.852392 
L 207.558333 176.877543 
L 208.631699 178.001438 
L 209.168381 177.485196 
L 209.705064 177.505927 
L 210.241746 176.472832 
L 210.778429 175.976513 
L 211.851794 178.103581 
L 212.388477 177.606596 
L 212.925159 178.136329 
L 213.461842 178.152477 
L 213.998525 177.16095 
L 214.535207 179.185494 
L 215.07189 178.20001 
L 215.608573 178.215558 
L 216.145255 178.722218 
L 216.681938 177.758003 
L 217.21862 175.835375 
L 217.755303 178.758494 
L 218.291986 179.72882 
L 218.828668 176.400683 
L 219.365351 178.793782 
L 219.902033 178.805325 
L 220.438716 179.28439 
L 220.975399 177.433733 
L 221.512081 176.991376 
L 222.048764 177.013672 
L 223.122129 178.872424 
L 223.658812 177.530274 
L 224.195494 178.89401 
L 225.26886 176.257065 
L 225.805542 177.604441 
L 226.342225 177.184745 
L 226.878907 174.593812 
L 227.41559 177.658368 
L 227.952273 177.245842 
L 228.488955 177.693518 
L 229.025638 177.28568 
L 229.562321 177.728086 
L 230.099003 179.846659 
L 230.635686 178.597821 
L 231.172368 176.947838 
L 231.709051 178.208544 
L 232.245734 178.633448 
L 232.782416 177.419798 
L 233.319099 179.468918 
L 233.855781 178.264331 
L 234.392464 179.884177 
L 234.929147 178.690806 
L 235.465829 175.128466 
L 236.002512 178.71308 
L 236.539195 175.975614 
L 237.075877 176.001768 
L 237.61256 178.357511 
L 238.149242 178.756526 
L 238.685925 177.615118 
L 239.222608 179.923453 
L 239.75929 178.408361 
L 240.295973 177.665321 
L 240.832656 175.803387 
L 241.369338 176.203554 
L 241.906021 179.944038 
L 242.442703 176.991197 
L 242.979386 178.849194 
L 243.516069 178.127792 
L 244.052751 178.141522 
L 244.589434 175.261274 
L 245.126116 177.449023 
L 245.662799 178.539931 
L 246.199482 178.551318 
L 246.736164 176.792055 
L 247.272847 178.926076 
L 247.80953 179.285723 
L 248.346212 176.853267 
L 249.419577 179.99745 
L 249.95626 176.913004 
L 250.492943 179.321941 
L 251.029625 177.631207 
L 251.566308 177.309176 
L 252.10299 178.334792 
L 252.639673 177.343857 
L 253.176356 178.358887 
L 253.713038 177.047096 
L 254.249721 177.724148 
L 254.786404 179.04947 
L 255.323086 179.057787 
L 255.859769 176.796306 
L 256.396451 178.106397 
L 256.933134 178.761362 
L 257.469817 179.729154 
L 258.543182 176.260731 
L 258.543182 176.260731 
" clip-path="url(#p3e1a572282)" style="fill: none; stroke: #ff0000; stroke-opacity: 0.5; stroke-linecap: square"/>
   </g>
   <g id="patch_3">
    <path d="M 33.7 188.6 
L 33.7 14.52 
" style="fill: none; stroke: #000000; stroke-width: 0.8; stroke-linejoin: miter; stroke-linecap: square"/>
   </g>
   <g id="patch_4">
    <path d="M 269.25 188.6 
L 269.25 14.52 
" style="fill: none; stroke: #000000; stroke-width: 0.8; stroke-linejoin: miter; stroke-linecap: square"/>
   </g>
   <g id="patch_5">
    <path d="M 33.7 188.6 
L 269.25 188.6 
" style="fill: none; stroke: #000000; stroke-width: 0.8; stroke-linejoin: miter; stroke-linecap: square"/>
   </g>
   <g id="patch_6">
    <path d="M 33.7 14.52 
L 269.25 14.52 
" style="fill: none; stroke: #000000; stroke-width: 0.8; stroke-linejoin: miter; stroke-linecap: square"/>
   </g>
   <g id="legend_1">
    <g id="patch_7">
     <path d="M 213.917188 66.554375 
L 262.25 66.554375 
Q 264.25 66.554375 264.25 64.554375 
L 264.25 21.52 
Q 264.25 19.52 262.25 19.52 
L 213.917188 19.52 
Q 211.917188 19.52 211.917188 21.52 
L 211.917188 64.554375 
Q 211.917188 66.554375 213.917188 66.554375 
z
" style="fill: #ffffff; opacity: 0.8; stroke: #cccccc; stroke-linejoin: miter"/>
    </g>
    <g id="line2d_15">
     <path d="M 215.917188 27.618438 
L 225.917188 27.618438 
L 235.917188 27.618438 
" style="fill: none; stroke: #000000; stroke-opacity: 0.5; stroke-width: 0.5; stroke-linecap: square"/>
    </g>
    <g id="text_14">
     <!-- all -->
     <g transform="translate(243.917188 31.118438) scale(0.1 -0.1)">
      <defs>
       <path id="DejaVuSans-61" d="M 2194 1759 
Q 1497 1759 1228 1600 
Q 959 1441 959 1056 
Q 959 750 1161 570 
Q 1363 391 1709 391 
Q 2188 391 2477 730 
Q 2766 1069 2766 1631 
L 2766 1759 
L 2194 1759 
z
M 3341 1997 
L 3341 0 
L 2766 0 
L 2766 531 
Q 2569 213 2275 61 
Q 1981 -91 1556 -91 
Q 1019 -91 701 211 
Q 384 513 384 1019 
Q 384 1609 779 1909 
Q 1175 2209 1959 2209 
L 2766 2209 
L 2766 2266 
Q 2766 2663 2505 2880 
Q 2244 3097 1772 3097 
Q 1472 3097 1187 3025 
Q 903 2953 641 2809 
L 641 3341 
Q 956 3463 1253 3523 
Q 1550 3584 1831 3584 
Q 2591 3584 2966 3190 
Q 3341 2797 3341 1997 
z
" transform="scale(0.015625)"/>
       <path id="DejaVuSans-6c" d="M 603 4863 
L 1178 4863 
L 1178 0 
L 603 0 
L 603 4863 
z
" transform="scale(0.015625)"/>
      </defs>
      <use xlink:href="#DejaVuSans-61"/>
      <use xlink:href="#DejaVuSans-6c" transform="translate(61.279297 0)"/>
      <use xlink:href="#DejaVuSans-6c" transform="translate(89.0625 0)"/>
     </g>
    </g>
    <g id="line2d_16">
     <path d="M 215.917188 42.296563 
L 225.917188 42.296563 
L 235.917188 42.296563 
" style="fill: none; stroke: #0000ff; stroke-opacity: 0.5; stroke-linecap: square"/>
    </g>
    <g id="text_15">
     <!-- 1-1 -->
     <g transform="translate(243.917188 45.796563) scale(0.1 -0.1)">
      <defs>
       <path id="DejaVuSans-2d" d="M 313 2009 
L 1997 2009 
L 1997 1497 
L 313 1497 
L 313 2009 
z
" transform="scale(0.015625)"/>
      </defs>
      <use xlink:href="#DejaVuSans-31"/>
      <use xlink:href="#DejaVuSans-2d" transform="translate(63.623047 0)"/>
      <use xlink:href="#DejaVuSans-31" transform="translate(99.707031 0)"/>
     </g>
    </g>
    <g id="line2d_17">
     <path d="M 215.917188 56.974688 
L 225.917188 56.974688 
L 235.917188 56.974688 
" style="fill: none; stroke: #ff0000; stroke-opacity: 0.5; stroke-linecap: square"/>
    </g>
    <g id="text_16">
     <!-- 2-2 -->
     <g transform="translate(243.917188 60.474688) scale(0.1 -0.1)">
      <use xlink:href="#DejaVuSans-32"/>
      <use xlink:href="#DejaVuSans-2d" transform="translate(63.623047 0)"/>
      <use xlink:href="#DejaVuSans-32" transform="translate(99.707031 0)"/>
     </g>
    </g>
   </g>
  </g>
 </g>
 <defs>
  <clipPath id="p3e1a572282">
   <rect x="33.7" y="14.52" width="235.55" height="174.08"/>
  </clipPath>
 </defs>
</svg>
