<?xml version="1.0" encoding="utf-8" standalone="no"?>
<!DOCTYPE svg PUBLIC "-//W3C//DTD SVG 1.1//EN"
  "http://www.w3.org/Graphics/SVG/1.1/DTD/svg11.dtd">
<svg xmlns:xlink="http://www.w3.org/1999/xlink" width="288pt" height="216pt" viewBox="0 0 288 216" xmlns="http://www.w3.org/2000/svg" version="1.1">
 <metadata>
  <rdf:RDF xmlns:dc="http://purl.org/dc/elements/1.1/" xmlns:cc="http://creativecommons.org/ns#" xmlns:rdf="http://www.w3.org/1999/02/22-rdf-syntax-ns#">
   <cc:Work>
    <dc:type rdf:resource="http://purl.org/dc/dcmitype/StillImage"/>
    <dc:date>2025-09-17T22:58:51.754788</dc:date>
    <dc:format>image/svg+xml</dc:format>
    <dc:creator>
     <cc:Agent>
      <dc:title>Matplotlib v3.10.0, https://matplotlib.org/</dc:title>
     </cc:Agent>
    </dc:creator>
   </cc:Work>
  </rdf:RDF>
 </metadata>
 <defs>
  <style type="text/css">*{stroke-linejoin: round; stroke-linecap: butt}</style>
 </defs>
 <g id="figure_1">
  <g id="patch_1">
   <path d="M 0 216 
L 288 216 
L 288 0 
L 0 0 
z
" style="fill: #ffffff"/>
  </g>
  <g id="axes_1">
   <g id="patch_2">
    <path d="M 33.7 188.6 
L 269.25 188.6 
L 269.25 14.52 
L 33.7 14.52 
z
" style="fill: #ffffff"/>
   </g>
   <g id="matplotlib.axis_1">
    <g id="xtick_1">
     <g id="line2d_1">
      <defs>
       <path id="mf12101616a" d="M 0 0 
L 0 3.5 
" style="stroke: #000000; stroke-width: 0.8"/>
      </defs>
      <g>
       <use xlink:href="#mf12101616a" x="44.138477" y="188.6" style="stroke: #000000; stroke-width: 0.8"/>
      </g>
     </g>
     <g id="text_1">
      <!-- 0 -->
      <g transform="translate(40.957227 203.198437) scale(0.1 -0.1)">
       <defs>
        <path id="DejaVuSans-30" d="M 2034 4250 
Q 1547 4250 1301 3770 
Q 1056 3291 1056 2328 
Q 1056 1369 1301 889 
Q 1547 409 2034 409 
Q 2525 409 2770 889 
Q 3016 1369 3016 2328 
Q 3016 3291 2770 3770 
Q 2525 4250 2034 4250 
z
M 2034 4750 
Q 2819 4750 3233 4129 
Q 3647 3509 3647 2328 
Q 3647 1150 3233 529 
Q 2819 -91 2034 -91 
Q 1250 -91 836 529 
Q 422 1150 422 2328 
Q 422 3509 836 4129 
Q 1250 4750 2034 4750 
z
" transform="scale(0.015625)"/>
       </defs>
       <use xlink:href="#DejaVuSans-30"/>
      </g>
     </g>
    </g>
    <g id="xtick_2">
     <g id="line2d_2">
      <g>
       <use xlink:href="#mf12101616a" x="87.073086" y="188.6" style="stroke: #000000; stroke-width: 0.8"/>
      </g>
     </g>
     <g id="text_2">
      <!-- 200 -->
      <g transform="translate(77.529336 203.198437) scale(0.1 -0.1)">
       <defs>
        <path id="DejaVuSans-32" d="M 1228 531 
L 3431 531 
L 3431 0 
L 469 0 
L 469 531 
Q 828 903 1448 1529 
Q 2069 2156 2228 2338 
Q 2531 2678 2651 2914 
Q 2772 3150 2772 3378 
Q 2772 3750 2511 3984 
Q 2250 4219 1831 4219 
Q 1534 4219 1204 4116 
Q 875 4013 500 3803 
L 500 4441 
Q 881 4594 1212 4672 
Q 1544 4750 1819 4750 
Q 2544 4750 2975 4387 
Q 3406 4025 3406 3419 
Q 3406 3131 3298 2873 
Q 3191 2616 2906 2266 
Q 2828 2175 2409 1742 
Q 1991 1309 1228 531 
z
" transform="scale(0.015625)"/>
       </defs>
       <use xlink:href="#DejaVuSans-32"/>
       <use xlink:href="#DejaVuSans-30" transform="translate(63.623047 0)"/>
       <use xlink:href="#DejaVuSans-30" transform="translate(127.246094 0)"/>
      </g>
     </g>
    </g>
    <g id="xtick_3">
     <g id="line2d_3">
      <g>
       <use xlink:href="#mf12101616a" x="130.007695" y="188.6" style="stroke: #000000; stroke-width: 0.8"/>
      </g>
     </g>
     <g id="text_3">
      <!-- 400 -->
      <g transform="translate(120.463945 203.198437) scale(0.1 -0.1)">
       <defs>
        <path id="DejaVuSans-34" d="M 2419 4116 
L 825 1625 
L 2419 1625 
L 2419 4116 
z
M 2253 4666 
L 3047 4666 
L 3047 1625 
L 3713 1625 
L 3713 1100 
L 3047 1100 
L 3047 0 
L 2419 0 
L 2419 1100 
L 313 1100 
L 313 1709 
L 2253 4666 
z
" transform="scale(0.015625)"/>
       </defs>
       <use xlink:href="#DejaVuSans-34"/>
       <use xlink:href="#DejaVuSans-30" transform="translate(63.623047 0)"/>
       <use xlink:href="#DejaVuSans-30" transform="translate(127.246094 0)"/>
      </g>
     </g>
    </g>
    <g id="xtick_4">
     <g id="line2d_4">
      <g>
       <use xlink:href="#mf12101616a" x="172.942305" y="188.6" style="stroke: #000000; stroke-width: 0.8"/>
      </g>
     </g>
     <g id="text_4">
      <!-- 600 -->
      <g transform="translate(163.398555 203.198437) scale(0.1 -0.1)">
       <defs>
        <path id="DejaVuSans-36" d="M 2113 2584 
Q 1688 2584 1439 2293 
Q 1191 2003 1191 1497 
Q 1191 994 1439 701 
Q 1688 409 2113 409 
Q 2538 409 2786 701 
Q 3034 994 3034 1497 
Q 3034 2003 2786 2293 
Q 2538 2584 2113 2584 
z
M 3366 4563 
L 3366 3988 
Q 3128 4100 2886 4159 
Q 2644 4219 2406 4219 
Q 1781 4219 1451 3797 
Q 1122 3375 1075 2522 
Q 1259 2794 1537 2939 
Q 1816 3084 2150 3084 
Q 2853 3084 3261 2657 
Q 3669 2231 3669 1497 
Q 3669 778 3244 343 
Q 2819 -91 2113 -91 
Q 1303 -91 875 529 
Q 447 1150 447 2328 
Q 447 3434 972 4092 
Q 1497 4750 2381 4750 
Q 2619 4750 2861 4703 
Q 3103 4656 3366 4563 
z
" transform="scale(0.015625)"/>
       </defs>
       <use xlink:href="#DejaVuSans-36"/>
       <use xlink:href="#DejaVuSans-30" transform="translate(63.623047 0)"/>
       <use xlink:href="#DejaVuSans-30" transform="translate(127.246094 0)"/>
      </g>
     </g>
    </g>
    <g id="xtick_5">
     <g id="line2d_5">
      <g>
       <use xlink:href="#mf12101616a" x="215.876914" y="188.6" style="stroke: #000000; stroke-width: 0.8"/>
      </g>
     </g>
     <g id="text_5">
      <!-- 800 -->
      <g transform="translate(206.333164 203.198437) scale(0.1 -0.1)">
       <defs>
        <path id="DejaVuSans-38" d="M 2034 2216 
Q 1584 2216 1326 1975 
Q 1069 1734 1069 1313 
Q 1069 891 1326 650 
Q 1584 409 2034 409 
Q 2484 409 2743 651 
Q 3003 894 3003 1313 
Q 3003 1734 2745 1975 
Q 2488 2216 2034 2216 
z
M 1403 2484 
Q 997 2584 770 2862 
Q 544 3141 544 3541 
Q 544 4100 942 4425 
Q 1341 4750 2034 4750 
Q 2731 4750 3128 4425 
Q 3525 4100 3525 3541 
Q 3525 3141 3298 2862 
Q 3072 2584 2669 2484 
Q 3125 2378 3379 2068 
Q 3634 1759 3634 1313 
Q 3634 634 3220 271 
Q 2806 -91 2034 -91 
Q 1263 -91 848 271 
Q 434 634 434 1313 
Q 434 1759 690 2068 
Q 947 2378 1403 2484 
z
M 1172 3481 
Q 1172 3119 1398 2916 
Q 1625 2713 2034 2713 
Q 2441 2713 2670 2916 
Q 2900 3119 2900 3481 
Q 2900 3844 2670 4047 
Q 2441 4250 2034 4250 
Q 1625 4250 1398 4047 
Q 1172 3844 1172 3481 
z
" transform="scale(0.015625)"/>
       </defs>
       <use xlink:href="#DejaVuSans-38"/>
       <use xlink:href="#DejaVuSans-30" transform="translate(63.623047 0)"/>
       <use xlink:href="#DejaVuSans-30" transform="translate(127.246094 0)"/>
      </g>
     </g>
    </g>
    <g id="xtick_6">
     <g id="line2d_6">
      <g>
       <use xlink:href="#mf12101616a" x="258.811523" y="188.6" style="stroke: #000000; stroke-width: 0.8"/>
      </g>
     </g>
     <g id="text_6">
      <!-- 1000 -->
      <g transform="translate(246.086523 203.198437) scale(0.1 -0.1)">
       <defs>
        <path id="DejaVuSans-31" d="M 794 531 
L 1825 531 
L 1825 4091 
L 703 3866 
L 703 4441 
L 1819 4666 
L 2450 4666 
L 2450 531 
L 3481 531 
L 3481 0 
L 794 0 
L 794 531 
z
" transform="scale(0.015625)"/>
       </defs>
       <use xlink:href="#DejaVuSans-31"/>
       <use xlink:href="#DejaVuSans-30" transform="translate(63.623047 0)"/>
       <use xlink:href="#DejaVuSans-30" transform="translate(127.246094 0)"/>
       <use xlink:href="#DejaVuSans-30" transform="translate(190.869141 0)"/>
      </g>
     </g>
    </g>
    <g id="text_7">
     <!-- q (nm) -->
     <g transform="translate(134.771094 216.876563) scale(0.1 -0.1)">
      <defs>
       <path id="DejaVuSans-71" d="M 947 1747 
Q 947 1113 1208 752 
Q 1469 391 1925 391 
Q 2381 391 2643 752 
Q 2906 1113 2906 1747 
Q 2906 2381 2643 2742 
Q 2381 3103 1925 3103 
Q 1469 3103 1208 2742 
Q 947 2381 947 1747 
z
M 2906 525 
Q 2725 213 2448 61 
Q 2172 -91 1784 -91 
Q 1150 -91 751 415 
Q 353 922 353 1747 
Q 353 2572 751 3078 
Q 1150 3584 1784 3584 
Q 2172 3584 2448 3432 
Q 2725 3281 2906 2969 
L 2906 3500 
L 3481 3500 
L 3481 -1331 
L 2906 -1331 
L 2906 525 
z
" transform="scale(0.015625)"/>
       <path id="DejaVuSans-20" transform="scale(0.015625)"/>
       <path id="DejaVuSans-28" d="M 1984 4856 
Q 1566 4138 1362 3434 
Q 1159 2731 1159 2009 
Q 1159 1288 1364 580 
Q 1569 -128 1984 -844 
L 1484 -844 
Q 1016 -109 783 600 
Q 550 1309 550 2009 
Q 550 2706 781 3412 
Q 1013 4119 1484 4856 
L 1984 4856 
z
" transform="scale(0.015625)"/>
       <path id="DejaVuSans-6e" d="M 3513 2113 
L 3513 0 
L 2938 0 
L 2938 2094 
Q 2938 2591 2744 2837 
Q 2550 3084 2163 3084 
Q 1697 3084 1428 2787 
Q 1159 2491 1159 1978 
L 1159 0 
L 581 0 
L 581 3500 
L 1159 3500 
L 1159 2956 
Q 1366 3272 1645 3428 
Q 1925 3584 2291 3584 
Q 2894 3584 3203 3211 
Q 3513 2838 3513 2113 
z
" transform="scale(0.015625)"/>
       <path id="DejaVuSans-6d" d="M 3328 2828 
Q 3544 3216 3844 3400 
Q 4144 3584 4550 3584 
Q 5097 3584 5394 3201 
Q 5691 2819 5691 2113 
L 5691 0 
L 5113 0 
L 5113 2094 
Q 5113 2597 4934 2840 
Q 4756 3084 4391 3084 
Q 3944 3084 3684 2787 
Q 3425 2491 3425 1978 
L 3425 0 
L 2847 0 
L 2847 2094 
Q 2847 2600 2669 2842 
Q 2491 3084 2119 3084 
Q 1678 3084 1418 2786 
Q 1159 2488 1159 1978 
L 1159 0 
L 581 0 
L 581 3500 
L 1159 3500 
L 1159 2956 
Q 1356 3278 1631 3431 
Q 1906 3584 2284 3584 
Q 2666 3584 2933 3390 
Q 3200 3197 3328 2828 
z
" transform="scale(0.015625)"/>
       <path id="DejaVuSans-29" d="M 513 4856 
L 1013 4856 
Q 1481 4119 1714 3412 
Q 1947 2706 1947 2009 
Q 1947 1309 1714 600 
Q 1481 -109 1013 -844 
L 513 -844 
Q 928 -128 1133 580 
Q 1338 1288 1338 2009 
Q 1338 2731 1133 3434 
Q 928 4138 513 4856 
z
" transform="scale(0.015625)"/>
      </defs>
      <use xlink:href="#DejaVuSans-71"/>
      <use xlink:href="#DejaVuSans-20" transform="translate(63.476562 0)"/>
      <use xlink:href="#DejaVuSans-28" transform="translate(95.263672 0)"/>
      <use xlink:href="#DejaVuSans-6e" transform="translate(134.277344 0)"/>
      <use xlink:href="#DejaVuSans-6d" transform="translate(197.65625 0)"/>
      <use xlink:href="#DejaVuSans-29" transform="translate(295.068359 0)"/>
     </g>
    </g>
   </g>
   <g id="matplotlib.axis_2">
    <g id="ytick_1">
     <g id="line2d_7">
      <defs>
       <path id="m05fa9483c0" d="M 0 0 
L -3.5 0 
" style="stroke: #000000; stroke-width: 0.8"/>
      </defs>
      <g>
       <use xlink:href="#m05fa9483c0" x="33.7" y="180.687273" style="stroke: #000000; stroke-width: 0.8"/>
      </g>
     </g>
     <g id="text_8">
      <!-- 0 -->
      <g transform="translate(20.3375 184.486491) scale(0.1 -0.1)">
       <use xlink:href="#DejaVuSans-30"/>
      </g>
     </g>
    </g>
    <g id="ytick_2">
     <g id="line2d_8">
      <g>
       <use xlink:href="#m05fa9483c0" x="33.7" y="153.463901" style="stroke: #000000; stroke-width: 0.8"/>
      </g>
     </g>
     <g id="text_9">
      <!-- 10000 -->
      <g transform="translate(-5.1125 157.263119) scale(0.1 -0.1)">
       <use xlink:href="#DejaVuSans-31"/>
       <use xlink:href="#DejaVuSans-30" transform="translate(63.623047 0)"/>
       <use xlink:href="#DejaVuSans-30" transform="translate(127.246094 0)"/>
       <use xlink:href="#DejaVuSans-30" transform="translate(190.869141 0)"/>
       <use xlink:href="#DejaVuSans-30" transform="translate(254.492188 0)"/>
      </g>
     </g>
    </g>
    <g id="ytick_3">
     <g id="line2d_9">
      <g>
       <use xlink:href="#m05fa9483c0" x="33.7" y="126.240528" style="stroke: #000000; stroke-width: 0.8"/>
      </g>
     </g>
     <g id="text_10">
      <!-- 20000 -->
      <g transform="translate(-5.1125 130.039747) scale(0.1 -0.1)">
       <use xlink:href="#DejaVuSans-32"/>
       <use xlink:href="#DejaVuSans-30" transform="translate(63.623047 0)"/>
       <use xlink:href="#DejaVuSans-30" transform="translate(127.246094 0)"/>
       <use xlink:href="#DejaVuSans-30" transform="translate(190.869141 0)"/>
       <use xlink:href="#DejaVuSans-30" transform="translate(254.492188 0)"/>
      </g>
     </g>
    </g>
    <g id="ytick_4">
     <g id="line2d_10">
      <g>
       <use xlink:href="#m05fa9483c0" x="33.7" y="99.017156" style="stroke: #000000; stroke-width: 0.8"/>
      </g>
     </g>
     <g id="text_11">
      <!-- 30000 -->
      <g transform="translate(-5.1125 102.816375) scale(0.1 -0.1)">
       <defs>
        <path id="DejaVuSans-33" d="M 2597 2516 
Q 3050 2419 3304 2112 
Q 3559 1806 3559 1356 
Q 3559 666 3084 287 
Q 2609 -91 1734 -91 
Q 1441 -91 1130 -33 
Q 819 25 488 141 
L 488 750 
Q 750 597 1062 519 
Q 1375 441 1716 441 
Q 2309 441 2620 675 
Q 2931 909 2931 1356 
Q 2931 1769 2642 2001 
Q 2353 2234 1838 2234 
L 1294 2234 
L 1294 2753 
L 1863 2753 
Q 2328 2753 2575 2939 
Q 2822 3125 2822 3475 
Q 2822 3834 2567 4026 
Q 2313 4219 1838 4219 
Q 1578 4219 1281 4162 
Q 984 4106 628 3988 
L 628 4550 
Q 988 4650 1302 4700 
Q 1616 4750 1894 4750 
Q 2613 4750 3031 4423 
Q 3450 4097 3450 3541 
Q 3450 3153 3228 2886 
Q 3006 2619 2597 2516 
z
" transform="scale(0.015625)"/>
       </defs>
       <use xlink:href="#DejaVuSans-33"/>
       <use xlink:href="#DejaVuSans-30" transform="translate(63.623047 0)"/>
       <use xlink:href="#DejaVuSans-30" transform="translate(127.246094 0)"/>
       <use xlink:href="#DejaVuSans-30" transform="translate(190.869141 0)"/>
       <use xlink:href="#DejaVuSans-30" transform="translate(254.492188 0)"/>
      </g>
     </g>
    </g>
    <g id="ytick_5">
     <g id="line2d_11">
      <g>
       <use xlink:href="#m05fa9483c0" x="33.7" y="71.793784" style="stroke: #000000; stroke-width: 0.8"/>
      </g>
     </g>
     <g id="text_12">
      <!-- 40000 -->
      <g transform="translate(-5.1125 75.593003) scale(0.1 -0.1)">
       <use xlink:href="#DejaVuSans-34"/>
       <use xlink:href="#DejaVuSans-30" transform="translate(63.623047 0)"/>
       <use xlink:href="#DejaVuSans-30" transform="translate(127.246094 0)"/>
       <use xlink:href="#DejaVuSans-30" transform="translate(190.869141 0)"/>
       <use xlink:href="#DejaVuSans-30" transform="translate(254.492188 0)"/>
      </g>
     </g>
    </g>
    <g id="ytick_6">
     <g id="line2d_12">
      <g>
       <use xlink:href="#m05fa9483c0" x="33.7" y="44.570412" style="stroke: #000000; stroke-width: 0.8"/>
      </g>
     </g>
     <g id="text_13">
      <!-- 50000 -->
      <g transform="translate(-5.1125 48.369631) scale(0.1 -0.1)">
       <defs>
        <path id="DejaVuSans-35" d="M 691 4666 
L 3169 4666 
L 3169 4134 
L 1269 4134 
L 1269 2991 
Q 1406 3038 1543 3061 
Q 1681 3084 1819 3084 
Q 2600 3084 3056 2656 
Q 3513 2228 3513 1497 
Q 3513 744 3044 326 
Q 2575 -91 1722 -91 
Q 1428 -91 1123 -41 
Q 819 9 494 109 
L 494 744 
Q 775 591 1075 516 
Q 1375 441 1709 441 
Q 2250 441 2565 725 
Q 2881 1009 2881 1497 
Q 2881 1984 2565 2268 
Q 2250 2553 1709 2553 
Q 1456 2553 1204 2497 
Q 953 2441 691 2322 
L 691 4666 
z
" transform="scale(0.015625)"/>
       </defs>
       <use xlink:href="#DejaVuSans-35"/>
       <use xlink:href="#DejaVuSans-30" transform="translate(63.623047 0)"/>
       <use xlink:href="#DejaVuSans-30" transform="translate(127.246094 0)"/>
       <use xlink:href="#DejaVuSans-30" transform="translate(190.869141 0)"/>
       <use xlink:href="#DejaVuSans-30" transform="translate(254.492188 0)"/>
      </g>
     </g>
    </g>
    <g id="ytick_7">
     <g id="line2d_13">
      <g>
       <use xlink:href="#m05fa9483c0" x="33.7" y="17.34704" style="stroke: #000000; stroke-width: 0.8"/>
      </g>
     </g>
     <g id="text_14">
      <!-- 60000 -->
      <g transform="translate(-5.1125 21.146259) scale(0.1 -0.1)">
       <use xlink:href="#DejaVuSans-36"/>
       <use xlink:href="#DejaVuSans-30" transform="translate(63.623047 0)"/>
       <use xlink:href="#DejaVuSans-30" transform="translate(127.246094 0)"/>
       <use xlink:href="#DejaVuSans-30" transform="translate(190.869141 0)"/>
       <use xlink:href="#DejaVuSans-30" transform="translate(254.492188 0)"/>
      </g>
     </g>
    </g>
    <g id="text_15">
     <!-- rdf -->
     <g transform="translate(-11.192187 108.462344) rotate(-90) scale(0.1 -0.1)">
      <defs>
       <path id="DejaVuSans-72" d="M 2631 2963 
Q 2534 3019 2420 3045 
Q 2306 3072 2169 3072 
Q 1681 3072 1420 2755 
Q 1159 2438 1159 1844 
L 1159 0 
L 581 0 
L 581 3500 
L 1159 3500 
L 1159 2956 
Q 1341 3275 1631 3429 
Q 1922 3584 2338 3584 
Q 2397 3584 2469 3576 
Q 2541 3569 2628 3553 
L 2631 2963 
z
" transform="scale(0.015625)"/>
       <path id="DejaVuSans-64" d="M 2906 2969 
L 2906 4863 
L 3481 4863 
L 3481 0 
L 2906 0 
L 2906 525 
Q 2725 213 2448 61 
Q 2172 -91 1784 -91 
Q 1150 -91 751 415 
Q 353 922 353 1747 
Q 353 2572 751 3078 
Q 1150 3584 1784 3584 
Q 2172 3584 2448 3432 
Q 2725 3281 2906 2969 
z
M 947 1747 
Q 947 1113 1208 752 
Q 1469 391 1925 391 
Q 2381 391 2643 752 
Q 2906 1113 2906 1747 
Q 2906 2381 2643 2742 
Q 2381 3103 1925 3103 
Q 1469 3103 1208 2742 
Q 947 2381 947 1747 
z
" transform="scale(0.015625)"/>
       <path id="DejaVuSans-66" d="M 2375 4863 
L 2375 4384 
L 1825 4384 
Q 1516 4384 1395 4259 
Q 1275 4134 1275 3809 
L 1275 3500 
L 2222 3500 
L 2222 3053 
L 1275 3053 
L 1275 0 
L 697 0 
L 697 3053 
L 147 3053 
L 147 3500 
L 697 3500 
L 697 3744 
Q 697 4328 969 4595 
Q 1241 4863 1831 4863 
L 2375 4863 
z
" transform="scale(0.015625)"/>
      </defs>
      <use xlink:href="#DejaVuSans-72"/>
      <use xlink:href="#DejaVuSans-64" transform="translate(39.363281 0)"/>
      <use xlink:href="#DejaVuSans-66" transform="translate(102.839844 0)"/>
     </g>
    </g>
   </g>
   <g id="line2d_14">
    <path d="M 44.406818 180.687273 
L 92.171571 180.687273 
L 92.708254 180.36739 
L 93.244936 180.374344 
L 94.318301 179.788218 
L 94.854984 179.660457 
L 95.391667 173.649307 
L 95.928349 22.432727 
L 96.465032 104.621624 
L 97.001715 147.338264 
L 97.538397 164.280084 
L 98.07508 171.738251 
L 98.611762 170.769342 
L 99.148445 174.079017 
L 100.22181 173.12997 
L 100.758493 174.214115 
L 101.295175 172.718196 
L 101.831858 175.359579 
L 102.368541 175.902425 
L 102.905223 177.628207 
L 104.515271 179.96275 
L 105.588636 179.98784 
L 106.662002 179.239505 
L 107.198684 179.264041 
L 107.735367 177.795359 
L 108.272049 176.926232 
L 108.808732 177.349265 
L 109.345415 176.782826 
L 109.882097 177.020903 
L 110.41878 178.110675 
L 110.955463 177.475796 
L 112.028828 178.640737 
L 112.56551 176.819325 
L 113.102193 174.102636 
L 113.638876 172.719795 
L 114.175558 170.533852 
L 114.712241 169.702893 
L 115.248923 169.27112 
L 115.785606 170.985057 
L 116.322289 171.346005 
L 116.858971 172.910338 
L 117.932337 170.36342 
L 118.469019 171.331476 
L 119.005702 171.869016 
L 119.542384 173.852172 
L 121.152432 178.397144 
L 121.689115 178.365999 
L 122.76248 179.893807 
L 123.299163 180.145373 
L 123.835845 179.736826 
L 124.372528 180.042553 
L 124.909211 179.993257 
L 125.445893 179.602876 
L 125.982576 179.053774 
L 126.519258 179.18618 
L 127.592624 176.56996 
L 128.129306 175.927108 
L 128.665989 173.610991 
L 129.202671 173.960724 
L 129.739354 173.632878 
L 130.276037 173.974768 
L 130.812719 173.957186 
L 131.349402 175.428801 
L 131.886085 175.639941 
L 132.422767 178.02476 
L 132.95945 178.58292 
L 133.496132 178.844392 
L 134.032815 179.239862 
L 134.569498 179.256987 
L 135.10618 179.775366 
L 135.642863 178.479228 
L 136.716228 176.505058 
L 137.789593 173.675032 
L 138.326276 172.733968 
L 139.399641 169.253317 
L 139.936324 169.545488 
L 140.473006 168.205665 
L 141.009689 169.388975 
L 141.546372 171.740026 
L 142.083054 172.545744 
L 142.619737 173.956969 
L 143.156419 175.95387 
L 143.693102 176.728082 
L 144.229785 176.958736 
L 144.766467 176.104124 
L 145.30315 174.899145 
L 145.839833 174.522332 
L 146.376515 170.652322 
L 146.913198 165.720175 
L 147.44988 166.087376 
L 148.523246 171.199303 
L 149.059928 172.907013 
L 149.596611 171.459327 
L 150.133293 171.485377 
L 150.669976 173.107166 
L 151.206659 174.071636 
L 151.743341 174.561084 
L 152.280024 176.23491 
L 152.816707 176.885746 
L 153.353389 176.448521 
L 153.890072 176.834443 
L 154.426754 176.313495 
L 154.963437 176.632223 
L 155.50012 176.762509 
L 156.036802 177.493124 
L 156.573485 177.822017 
L 157.110167 177.908302 
L 158.183533 177.293149 
L 158.720215 177.238652 
L 159.256898 177.47003 
L 159.793581 177.556232 
L 160.330263 178.535302 
L 160.866946 179.24733 
L 161.940311 179.844417 
L 163.013676 179.966368 
L 163.550359 179.840531 
L 164.087041 178.799116 
L 164.623724 178.659948 
L 165.160407 177.389827 
L 165.697089 175.350584 
L 166.770455 174.214247 
L 167.84382 174.202787 
L 168.380502 175.407531 
L 168.917185 175.646711 
L 169.453868 175.161218 
L 169.99055 176.351681 
L 171.063915 174.668143 
L 171.600598 174.99742 
L 172.137281 172.719047 
L 172.673963 172.602769 
L 173.210646 171.673336 
L 173.747329 171.83768 
L 174.284011 171.509559 
L 174.820694 171.606889 
L 175.357376 173.214926 
L 176.967424 175.490698 
L 178.040789 176.120808 
L 179.114155 175.84107 
L 179.650837 175.961554 
L 180.18752 176.589927 
L 180.724203 176.379377 
L 181.260885 176.693964 
L 182.33425 177.901624 
L 183.407616 179.422829 
L 183.944298 179.374607 
L 185.017663 179.660688 
L 185.554346 179.083594 
L 186.091029 178.702475 
L 187.164394 176.924602 
L 187.701077 176.568223 
L 188.237759 176.489818 
L 188.774442 175.889643 
L 189.311124 176.390533 
L 189.847807 175.871217 
L 190.38449 174.424639 
L 190.921172 174.225173 
L 191.457855 173.559363 
L 191.994537 173.472971 
L 192.53122 173.645009 
L 193.067903 174.223004 
L 193.604585 174.201799 
L 194.141268 174.399025 
L 194.677951 175.875625 
L 195.214633 175.612205 
L 195.751316 177.125351 
L 196.287998 176.563671 
L 196.824681 175.653907 
L 197.361364 175.978386 
L 197.898046 176.059075 
L 198.434729 175.996155 
L 198.971411 176.422072 
L 199.508094 175.951336 
L 200.044777 174.835205 
L 200.581459 175.769425 
L 201.118142 176.292959 
L 201.654825 176.216391 
L 202.72819 177.956932 
L 203.264872 178.139219 
L 204.338238 177.849804 
L 204.87492 177.182337 
L 205.411603 177.336187 
L 205.948285 177.041338 
L 206.484968 176.965214 
L 207.021651 177.331002 
L 207.558333 176.67486 
L 208.095016 175.802783 
L 208.631699 176.043783 
L 209.705064 175.043955 
L 210.241746 175.107698 
L 210.778429 174.831062 
L 211.851794 175.066762 
L 212.388477 175.915619 
L 212.925159 175.376396 
L 213.461842 175.410016 
L 213.998525 175.652547 
L 214.535207 175.229381 
L 215.07189 175.728504 
L 215.608573 175.387352 
L 217.755303 177.144854 
L 218.291986 177.154221 
L 218.828668 177.732267 
L 219.365351 177.566028 
L 219.902033 177.14537 
L 220.438716 177.009087 
L 220.975399 176.24713 
L 221.512081 176.525769 
L 222.048764 176.348226 
L 222.585447 176.551995 
L 223.122129 177.000759 
L 223.658812 177.21012 
L 224.195494 177.1959 
L 224.732177 177.031503 
L 225.26886 177.35214 
L 225.805542 176.651586 
L 226.342225 176.232057 
L 226.878907 176.642352 
L 227.41559 176.486297 
L 228.488955 177.845108 
L 229.025638 178.601124 
L 229.562321 178.865587 
L 230.099003 178.690591 
L 232.245734 178.746585 
L 232.782416 178.163849 
L 233.855781 178.24475 
L 234.392464 177.966646 
L 234.929147 178.323978 
L 235.465829 178.151679 
L 236.002512 178.657835 
L 236.539195 178.342982 
L 237.075877 178.578987 
L 238.149242 178.762642 
L 238.685925 178.344598 
L 240.832656 175.040612 
L 241.369338 174.596003 
L 241.906021 173.731871 
L 242.442703 174.01895 
L 242.979386 174.083514 
L 243.516069 174.735966 
L 244.052751 175.627003 
L 244.589434 176.039075 
L 245.126116 176.278671 
L 245.662799 176.878152 
L 246.199482 176.380838 
L 246.736164 176.743723 
L 247.272847 176.819425 
L 248.346212 177.122373 
L 248.882895 177.618049 
L 249.419577 177.857928 
L 249.95626 177.926105 
L 250.492943 177.59488 
L 251.029625 177.699064 
L 251.566308 177.135721 
L 252.10299 177.110404 
L 252.639673 177.258976 
L 253.176356 177.034789 
L 253.713038 176.950384 
L 254.249721 176.730151 
L 254.786404 176.962869 
L 255.323086 176.2796 
L 255.859769 175.8053 
L 256.396451 175.494971 
L 257.469817 175.182275 
L 258.543182 175.992403 
L 258.543182 175.992403 
" clip-path="url(#p983204fabc)" style="fill: none; stroke: #000000; stroke-opacity: 0.5; stroke-width: 0.5; stroke-linecap: square"/>
   </g>
   <g id="line2d_15">
    <path d="M 44.406818 180.687273 
L 92.171571 180.687273 
L 92.708254 179.707632 
L 93.244936 179.728928 
L 94.318301 177.933919 
L 94.854984 177.542649 
L 95.391667 175.848671 
L 95.928349 177.24084 
L 96.465032 176.889157 
L 97.001715 174.898451 
L 97.538397 174.203786 
L 98.07508 173.934976 
L 98.611762 163.55341 
L 99.148445 166.940851 
L 100.22181 159.379874 
L 100.758493 162.665412 
L 101.295175 157.696771 
L 101.831858 165.06551 
L 102.368541 166.715239 
L 102.905223 171.318882 
L 103.441906 174.773235 
L 104.515271 178.46842 
L 105.051954 178.507345 
L 105.588636 178.851262 
L 106.125319 177.379281 
L 106.662002 176.54907 
L 107.198684 176.619201 
L 107.735367 172.402174 
L 108.272049 169.169083 
L 108.808732 170.464623 
L 109.345415 168.729905 
L 109.882097 169.726354 
L 110.41878 173.848552 
L 110.955463 171.110945 
L 111.492145 175.338332 
L 112.028828 177.929565 
L 112.56551 178.466224 
L 113.102193 177.771786 
L 113.638876 178.055857 
L 114.175558 179.038303 
L 114.712241 176.743312 
L 115.248923 176.574099 
L 115.785606 175.284902 
L 116.322289 168.933748 
L 116.858971 166.921562 
L 117.395654 159.371246 
L 117.932337 155.011884 
L 118.469019 156.636213 
L 119.005702 155.742877 
L 119.542384 162.396741 
L 120.61575 169.821267 
L 121.152432 174.647853 
L 121.689115 176.460357 
L 122.225797 177.655268 
L 122.76248 179.565739 
L 123.299163 179.949687 
L 123.835845 179.595744 
L 124.372528 180.507777 
L 124.909211 179.978798 
L 125.445893 179.988122 
L 126.519258 180.346747 
L 127.055941 180.351141 
L 127.592624 180.189538 
L 128.665989 180.525548 
L 129.202671 180.048511 
L 129.739354 180.21419 
L 130.276037 180.220067 
L 130.812719 179.918209 
L 131.349402 180.535348 
L 131.886085 180.687273 
L 132.422767 180.687273 
L 132.95945 180.394337 
L 133.496132 179.674279 
L 134.032815 179.400361 
L 134.569498 178.991692 
L 135.10618 179.151279 
L 135.642863 176.271182 
L 136.179545 172.366984 
L 136.716228 169.901559 
L 137.252911 165.627523 
L 137.789593 162.374245 
L 138.326276 160.628568 
L 138.862959 157.249348 
L 139.399641 157.512718 
L 140.473006 156.656617 
L 141.009689 160.985613 
L 141.546372 167.900164 
L 142.619737 172.228193 
L 143.156419 176.208819 
L 143.693102 177.88919 
L 144.229785 178.841835 
L 144.766467 179.203804 
L 145.30315 179.332408 
L 145.839833 179.346672 
L 146.376515 177.702506 
L 146.913198 170.841673 
L 147.44988 169.536291 
L 147.986563 170.722705 
L 148.523246 175.384917 
L 149.059928 178.063149 
L 149.596611 178.505389 
L 150.669976 179.97456 
L 152.280024 180.489659 
L 154.426754 180.497277 
L 154.963437 180.687273 
L 156.573485 180.687273 
L 157.110167 180.32512 
L 157.64685 180.507904 
L 158.183533 180.331905 
L 158.720215 180.599261 
L 159.256898 180.425694 
L 159.793581 180.600887 
L 160.866946 180.687273 
L 161.403628 180.183093 
L 161.940311 180.437475 
L 163.550359 180.282094 
L 164.087041 179.964463 
L 164.623724 180.448477 
L 166.770455 178.074855 
L 167.307137 177.031219 
L 167.84382 174.118032 
L 168.380502 173.051811 
L 168.917185 172.820482 
L 169.453868 170.680309 
L 169.99055 172.808168 
L 170.527233 171.21123 
L 171.063915 168.780753 
L 171.600598 170.445537 
L 172.137281 165.45322 
L 172.673963 165.090629 
L 173.210646 163.416695 
L 173.747329 163.284289 
L 174.284011 164.177968 
L 174.820694 163.366051 
L 175.894059 168.972149 
L 176.430742 171.840037 
L 177.504107 174.97028 
L 178.040789 176.820507 
L 178.577472 176.403791 
L 179.114155 176.247508 
L 179.650837 176.21967 
L 180.18752 177.503421 
L 180.724203 177.528401 
L 181.260885 178.474899 
L 182.33425 179.477195 
L 182.870933 179.546575 
L 183.407616 179.972376 
L 183.944298 179.623145 
L 184.480981 179.513932 
L 185.017663 179.289977 
L 185.554346 178.607207 
L 186.091029 177.303988 
L 186.627711 176.475735 
L 187.164394 175.885948 
L 187.701077 174.688334 
L 188.237759 175.790241 
L 188.774442 174.666562 
L 189.311124 176.629987 
L 189.847807 177.693898 
L 190.38449 178.202065 
L 190.921172 179.024683 
L 191.457855 178.610834 
L 191.994537 178.625889 
L 192.53122 178.325929 
L 193.604585 176.549405 
L 194.141268 175.089683 
L 194.677951 175.945343 
L 195.214633 173.953922 
L 195.751316 175.96198 
L 196.287998 176.144995 
L 196.824681 175.383828 
L 197.361364 175.716223 
L 197.898046 174.919979 
L 198.434729 173.795211 
L 198.971411 174.180284 
L 199.508094 173.698638 
L 200.044777 171.845138 
L 201.118142 175.388641 
L 202.191507 175.136561 
L 202.72819 177.195586 
L 203.264872 175.667533 
L 203.801555 175.111955 
L 204.338238 174.383827 
L 204.87492 173.933881 
L 205.411603 174.423025 
L 205.948285 174.596905 
L 206.484968 174.944028 
L 207.021651 175.852856 
L 207.558333 175.75476 
L 208.095016 175.357142 
L 208.631699 175.776223 
L 209.168381 176.571803 
L 209.705064 176.387683 
L 210.778429 177.108665 
L 211.315112 176.387398 
L 211.851794 177.154332 
L 212.388477 177.544212 
L 212.925159 176.671832 
L 213.998525 178.564678 
L 214.535207 178.737213 
L 215.07189 179.619491 
L 215.608573 179.783367 
L 216.145255 180.179552 
L 216.681938 180.10508 
L 217.755303 180.265593 
L 218.291986 180.077697 
L 219.902033 178.817087 
L 220.438716 177.638809 
L 222.048764 175.393843 
L 222.585447 175.534468 
L 223.122129 175.529245 
L 223.658812 176.456443 
L 224.195494 176.089571 
L 224.732177 176.683713 
L 225.805542 177.046008 
L 226.342225 176.058025 
L 226.878907 176.777229 
L 227.41559 176.180911 
L 227.952273 176.583365 
L 228.488955 177.253222 
L 229.562321 179.040485 
L 230.099003 178.749236 
L 230.635686 178.926492 
L 231.172368 178.044738 
L 231.709051 177.567172 
L 232.245734 177.454347 
L 232.782416 175.784222 
L 233.319099 175.263155 
L 233.855781 176.128507 
L 234.392464 175.994582 
L 234.929147 177.639865 
L 235.465829 177.846325 
L 236.002512 179.243348 
L 236.539195 179.22018 
L 237.075877 178.762701 
L 237.61256 178.742504 
L 238.149242 178.59975 
L 238.685925 177.817496 
L 239.222608 176.618787 
L 239.75929 176.127738 
L 240.295973 175.311787 
L 240.832656 175.012573 
L 241.369338 175.162209 
L 241.906021 173.921794 
L 242.442703 173.458858 
L 242.979386 172.7964 
L 243.516069 173.449244 
L 244.052751 174.673482 
L 244.589434 175.079503 
L 245.126116 175.195201 
L 245.662799 176.504788 
L 246.199482 175.81943 
L 246.736164 176.408199 
L 247.272847 176.682838 
L 247.80953 176.731749 
L 248.882895 178.151337 
L 249.95626 178.750558 
L 250.492943 178.082219 
L 251.029625 178.014743 
L 252.10299 176.385761 
L 252.639673 176.381287 
L 253.176356 176.50915 
L 253.713038 177.346086 
L 254.249721 177.310792 
L 254.786404 178.031084 
L 255.323086 178.09639 
L 256.933134 176.655377 
L 257.469817 175.761584 
L 258.006499 176.165229 
L 258.543182 174.85562 
L 258.543182 174.85562 
" clip-path="url(#p983204fabc)" style="fill: none; stroke: #0000ff; stroke-opacity: 0.5; stroke-linecap: square"/>
   </g>
   <g id="line2d_16">
    <path d="M 44.406818 180.687273 
L 109.882097 180.687273 
L 110.41878 179.284459 
L 110.955463 180.227149 
L 111.492145 176.61189 
L 112.028828 174.447611 
L 112.56551 163.576977 
L 113.102193 150.452599 
L 113.638876 142.412137 
L 114.175558 128.339036 
L 114.712241 127.894912 
L 115.248923 125.844965 
L 116.322289 150.724411 
L 116.858971 163.207009 
L 117.395654 169.969452 
L 117.932337 170.124763 
L 118.469019 172.507589 
L 119.005702 177.388841 
L 119.542384 176.35174 
L 120.079067 177.837626 
L 120.61575 178.228702 
L 121.152432 179.301886 
L 121.689115 176.246877 
L 122.225797 177.992158 
L 122.76248 178.36113 
L 123.299163 179.376009 
L 123.835845 178.423362 
L 124.372528 178.453546 
L 124.909211 178.798008 
L 125.982576 175.167172 
L 126.519258 174.936174 
L 127.055941 170.827412 
L 127.592624 162.990051 
L 128.129306 163.797898 
L 128.665989 160.274021 
L 129.739354 168.912783 
L 130.276037 173.211984 
L 130.812719 176.312158 
L 131.886085 179.353296 
L 132.422767 180.160149 
L 132.95945 179.645725 
L 133.496132 179.6582 
L 134.032815 179.416249 
L 134.569498 180.184879 
L 135.10618 180.439031 
L 135.642863 180.196596 
L 136.179545 180.202301 
L 137.252911 180.687273 
L 137.789593 180.453053 
L 138.326276 180.687273 
L 138.862959 180.687273 
L 139.399641 180.234534 
L 139.936324 180.687273 
L 141.009689 180.249458 
L 142.083054 180.687273 
L 142.619737 180.475465 
L 143.156419 180.687273 
L 143.693102 180.065477 
L 144.229785 180.482224 
L 144.766467 180.281538 
L 145.30315 179.282228 
L 145.839833 173.140186 
L 146.913198 138.679384 
L 147.44988 142.579066 
L 147.986563 159.35334 
L 148.523246 165.039433 
L 149.059928 173.782912 
L 150.133293 177.578927 
L 150.669976 179.963247 
L 151.206659 179.432898 
L 151.743341 179.97762 
L 152.280024 180.160302 
L 152.816707 180.513347 
L 153.353389 180.34283 
L 153.890072 180.687273 
L 154.426754 180.518388 
L 154.963437 180.185511 
L 155.50012 180.687273 
L 156.036802 180.523213 
L 156.573485 180.524776 
L 157.110167 180.365359 
L 157.64685 180.687273 
L 158.183533 180.687273 
L 158.720215 180.374342 
L 159.256898 180.532263 
L 160.330263 180.535113 
L 160.866946 180.687273 
L 161.403628 180.388499 
L 162.476994 180.687273 
L 164.087041 180.258941 
L 164.623724 180.545764 
L 165.160407 180.266505 
L 165.697089 180.409232 
L 166.233772 180.273869 
L 167.84382 180.284561 
L 168.380502 179.223394 
L 168.917185 179.499833 
L 169.453868 177.678643 
L 169.99055 177.315146 
L 170.527233 172.071229 
L 171.063915 171.506343 
L 171.600598 169.307568 
L 172.137281 165.892063 
L 172.673963 165.642381 
L 173.210646 164.410853 
L 173.747329 164.423089 
L 174.284011 162.737766 
L 174.820694 164.208059 
L 175.357376 169.353361 
L 175.894059 170.27383 
L 176.430742 171.884054 
L 176.967424 175.680787 
L 177.504107 176.413966 
L 178.040789 176.906436 
L 179.114155 173.809161 
L 179.650837 174.870301 
L 180.18752 173.584301 
L 182.870933 178.659365 
L 183.407616 179.204524 
L 183.944298 179.531183 
L 185.554346 179.865519 
L 186.627711 179.574314 
L 187.164394 179.984334 
L 187.701077 179.790235 
L 188.237759 179.401184 
L 188.774442 179.607105 
L 189.311124 178.835298 
L 189.847807 177.784607 
L 190.38449 172.523307 
L 190.921172 172.296855 
L 191.994537 163.961293 
L 192.53122 161.749884 
L 193.067903 160.496827 
L 193.604585 161.009416 
L 194.141268 162.154175 
L 194.677951 166.909051 
L 195.214633 168.806876 
L 195.751316 172.554856 
L 196.287998 173.499494 
L 196.824681 175.664696 
L 198.434729 179.479275 
L 198.971411 180.087452 
L 200.044777 179.926659 
L 200.581459 180.015801 
L 201.118142 180.270468 
L 202.72819 180.605596 
L 203.264872 179.957129 
L 204.338238 180.447142 
L 204.87492 180.210212 
L 205.411603 180.1344 
L 205.948285 179.902684 
L 206.484968 180.375511 
L 207.021651 180.145276 
L 207.558333 180.148831 
L 208.095016 178.547579 
L 208.631699 178.181926 
L 209.168381 176.840511 
L 209.705064 174.767142 
L 210.241746 173.986313 
L 210.778429 173.659517 
L 211.851794 176.086234 
L 212.388477 177.639457 
L 212.925159 178.740393 
L 213.461842 178.967668 
L 213.998525 178.408932 
L 214.535207 178.847761 
L 215.07189 177.453168 
L 215.608573 177.822721 
L 216.145255 174.646694 
L 216.681938 175.236227 
L 217.21862 174.652806 
L 217.755303 175.371559 
L 218.291986 176.28478 
L 218.828668 178.331236 
L 219.365351 177.877333 
L 219.902033 179.157877 
L 220.975399 179.701915 
L 221.512081 180.230214 
L 222.048764 180.297871 
L 222.585447 180.106675 
L 223.122129 180.174275 
L 223.658812 179.412447 
L 224.195494 179.546758 
L 224.732177 177.474977 
L 225.26886 176.617389 
L 225.805542 172.657818 
L 226.342225 171.405574 
L 226.878907 170.537308 
L 227.41559 171.024779 
L 227.952273 172.783453 
L 229.025638 177.382058 
L 229.562321 177.99864 
L 230.099003 178.37054 
L 230.635686 178.915418 
L 231.172368 179.806428 
L 231.709051 180.103394 
L 232.245734 180.222835 
L 232.782416 180.167744 
L 233.319099 180.285486 
L 233.855781 180.230683 
L 234.929147 180.517972 
L 235.465829 180.575038 
L 236.002512 180.408253 
L 237.61256 180.303121 
L 238.149242 180.032364 
L 238.685925 179.330405 
L 239.222608 178.150373 
L 239.75929 176.553832 
L 240.295973 174.227348 
L 240.832656 171.076788 
L 241.369338 169.597542 
L 241.906021 168.607234 
L 243.516069 172.935704 
L 244.052751 175.598681 
L 244.589434 176.341651 
L 245.662799 176.236072 
L 246.199482 175.253403 
L 247.272847 174.315026 
L 248.346212 176.35229 
L 248.882895 176.81599 
L 249.419577 178.249897 
L 250.492943 179.384746 
L 251.029625 179.151543 
L 251.566308 179.445935 
L 252.10299 179.404834 
L 252.639673 178.844382 
L 253.176356 178.101656 
L 254.249721 174.079724 
L 254.786404 173.280036 
L 255.323086 169.540721 
L 255.859769 168.634785 
L 256.396451 168.194112 
L 256.933134 169.708723 
L 257.469817 170.079835 
L 258.006499 172.24388 
L 258.543182 175.190773 
L 258.543182 175.190773 
" clip-path="url(#p983204fabc)" style="fill: none; stroke: #ff0000; stroke-opacity: 0.5; stroke-linecap: square"/>
   </g>
   <g id="patch_3">
    <path d="M 33.7 188.6 
L 33.7 14.52 
" style="fill: none; stroke: #000000; stroke-width: 0.8; stroke-linejoin: miter; stroke-linecap: square"/>
   </g>
   <g id="patch_4">
    <path d="M 269.25 188.6 
L 269.25 14.52 
" style="fill: none; stroke: #000000; stroke-width: 0.8; stroke-linejoin: miter; stroke-linecap: square"/>
   </g>
   <g id="patch_5">
    <path d="M 33.7 188.6 
L 269.25 188.6 
" style="fill: none; stroke: #000000; stroke-width: 0.8; stroke-linejoin: miter; stroke-linecap: square"/>
   </g>
   <g id="patch_6">
    <path d="M 33.7 14.52 
L 269.25 14.52 
" style="fill: none; stroke: #000000; stroke-width: 0.8; stroke-linejoin: miter; stroke-linecap: square"/>
   </g>
   <g id="legend_1">
    <g id="patch_7">
     <path d="M 213.917188 66.554375 
L 262.25 66.554375 
Q 264.25 66.554375 264.25 64.554375 
L 264.25 21.52 
Q 264.25 19.52 262.25 19.52 
L 213.917188 19.52 
Q 211.917188 19.52 211.917188 21.52 
L 211.917188 64.554375 
Q 211.917188 66.554375 213.917188 66.554375 
z
" style="fill: #ffffff; opacity: 0.8; stroke: #cccccc; stroke-linejoin: miter"/>
    </g>
    <g id="line2d_17">
     <path d="M 215.917188 27.618438 
L 225.917188 27.618438 
L 235.917188 27.618438 
" style="fill: none; stroke: #000000; stroke-opacity: 0.5; stroke-width: 0.5; stroke-linecap: square"/>
    </g>
    <g id="text_16">
     <!-- all -->
     <g transform="translate(243.917188 31.118438) scale(0.1 -0.1)">
      <defs>
       <path id="DejaVuSans-61" d="M 2194 1759 
Q 1497 1759 1228 1600 
Q 959 1441 959 1056 
Q 959 750 1161 570 
Q 1363 391 1709 391 
Q 2188 391 2477 730 
Q 2766 1069 2766 1631 
L 2766 1759 
L 2194 1759 
z
M 3341 1997 
L 3341 0 
L 2766 0 
L 2766 531 
Q 2569 213 2275 61 
Q 1981 -91 1556 -91 
Q 1019 -91 701 211 
Q 384 513 384 1019 
Q 384 1609 779 1909 
Q 1175 2209 1959 2209 
L 2766 2209 
L 2766 2266 
Q 2766 2663 2505 2880 
Q 2244 3097 1772 3097 
Q 1472 3097 1187 3025 
Q 903 2953 641 2809 
L 641 3341 
Q 956 3463 1253 3523 
Q 1550 3584 1831 3584 
Q 2591 3584 2966 3190 
Q 3341 2797 3341 1997 
z
" transform="scale(0.015625)"/>
       <path id="DejaVuSans-6c" d="M 603 4863 
L 1178 4863 
L 1178 0 
L 603 0 
L 603 4863 
z
" transform="scale(0.015625)"/>
      </defs>
      <use xlink:href="#DejaVuSans-61"/>
      <use xlink:href="#DejaVuSans-6c" transform="translate(61.279297 0)"/>
      <use xlink:href="#DejaVuSans-6c" transform="translate(89.0625 0)"/>
     </g>
    </g>
    <g id="line2d_18">
     <path d="M 215.917188 42.296563 
L 225.917188 42.296563 
L 235.917188 42.296563 
" style="fill: none; stroke: #0000ff; stroke-opacity: 0.5; stroke-linecap: square"/>
    </g>
    <g id="text_17">
     <!-- 1-1 -->
     <g transform="translate(243.917188 45.796563) scale(0.1 -0.1)">
      <defs>
       <path id="DejaVuSans-2d" d="M 313 2009 
L 1997 2009 
L 1997 1497 
L 313 1497 
L 313 2009 
z
" transform="scale(0.015625)"/>
      </defs>
      <use xlink:href="#DejaVuSans-31"/>
      <use xlink:href="#DejaVuSans-2d" transform="translate(63.623047 0)"/>
      <use xlink:href="#DejaVuSans-31" transform="translate(99.707031 0)"/>
     </g>
    </g>
    <g id="line2d_19">
     <path d="M 215.917188 56.974688 
L 225.917188 56.974688 
L 235.917188 56.974688 
" style="fill: none; stroke: #ff0000; stroke-opacity: 0.5; stroke-linecap: square"/>
    </g>
    <g id="text_18">
     <!-- 2-2 -->
     <g transform="translate(243.917188 60.474688) scale(0.1 -0.1)">
      <use xlink:href="#DejaVuSans-32"/>
      <use xlink:href="#DejaVuSans-2d" transform="translate(63.623047 0)"/>
      <use xlink:href="#DejaVuSans-32" transform="translate(99.707031 0)"/>
     </g>
    </g>
   </g>
  </g>
 </g>
 <defs>
  <clipPath id="p983204fabc">
   <rect x="33.7" y="14.52" width="235.55" height="174.08"/>
  </clipPath>
 </defs>
</svg>
