<?xml version="1.0" encoding="utf-8" standalone="no"?>
<!DOCTYPE svg PUBLIC "-//W3C//DTD SVG 1.1//EN"
  "http://www.w3.org/Graphics/SVG/1.1/DTD/svg11.dtd">
<svg xmlns:xlink="http://www.w3.org/1999/xlink" width="288pt" height="216pt" viewBox="0 0 288 216" xmlns="http://www.w3.org/2000/svg" version="1.1">
 <metadata>
  <rdf:RDF xmlns:dc="http://purl.org/dc/elements/1.1/" xmlns:cc="http://creativecommons.org/ns#" xmlns:rdf="http://www.w3.org/1999/02/22-rdf-syntax-ns#">
   <cc:Work>
    <dc:type rdf:resource="http://purl.org/dc/dcmitype/StillImage"/>
    <dc:date>2025-09-17T23:17:41.367504</dc:date>
    <dc:format>image/svg+xml</dc:format>
    <dc:creator>
     <cc:Agent>
      <dc:title>Matplotlib v3.10.0, https://matplotlib.org/</dc:title>
     </cc:Agent>
    </dc:creator>
   </cc:Work>
  </rdf:RDF>
 </metadata>
 <defs>
  <style type="text/css">*{stroke-linejoin: round; stroke-linecap: butt}</style>
 </defs>
 <g id="figure_1">
  <g id="patch_1">
   <path d="M 0 216 
L 288 216 
L 288 0 
L 0 0 
z
" style="fill: #ffffff"/>
  </g>
  <g id="axes_1">
   <g id="patch_2">
    <path d="M 33.7 188.6 
L 269.25 188.6 
L 269.25 14.52 
L 33.7 14.52 
z
" style="fill: #ffffff"/>
   </g>
   <g id="matplotlib.axis_1">
    <g id="xtick_1">
     <g id="line2d_1">
      <defs>
       <path id="mba885acd84" d="M 0 0 
L 0 3.5 
" style="stroke: #000000; stroke-width: 0.8"/>
      </defs>
      <g>
       <use xlink:href="#mba885acd84" x="44.138477" y="188.6" style="stroke: #000000; stroke-width: 0.8"/>
      </g>
     </g>
     <g id="text_1">
      <!-- 0 -->
      <g transform="translate(40.957227 203.198437) scale(0.1 -0.1)">
       <defs>
        <path id="DejaVuSans-30" d="M 2034 4250 
Q 1547 4250 1301 3770 
Q 1056 3291 1056 2328 
Q 1056 1369 1301 889 
Q 1547 409 2034 409 
Q 2525 409 2770 889 
Q 3016 1369 3016 2328 
Q 3016 3291 2770 3770 
Q 2525 4250 2034 4250 
z
M 2034 4750 
Q 2819 4750 3233 4129 
Q 3647 3509 3647 2328 
Q 3647 1150 3233 529 
Q 2819 -91 2034 -91 
Q 1250 -91 836 529 
Q 422 1150 422 2328 
Q 422 3509 836 4129 
Q 1250 4750 2034 4750 
z
" transform="scale(0.015625)"/>
       </defs>
       <use xlink:href="#DejaVuSans-30"/>
      </g>
     </g>
    </g>
    <g id="xtick_2">
     <g id="line2d_2">
      <g>
       <use xlink:href="#mba885acd84" x="87.073086" y="188.6" style="stroke: #000000; stroke-width: 0.8"/>
      </g>
     </g>
     <g id="text_2">
      <!-- 200 -->
      <g transform="translate(77.529336 203.198437) scale(0.1 -0.1)">
       <defs>
        <path id="DejaVuSans-32" d="M 1228 531 
L 3431 531 
L 3431 0 
L 469 0 
L 469 531 
Q 828 903 1448 1529 
Q 2069 2156 2228 2338 
Q 2531 2678 2651 2914 
Q 2772 3150 2772 3378 
Q 2772 3750 2511 3984 
Q 2250 4219 1831 4219 
Q 1534 4219 1204 4116 
Q 875 4013 500 3803 
L 500 4441 
Q 881 4594 1212 4672 
Q 1544 4750 1819 4750 
Q 2544 4750 2975 4387 
Q 3406 4025 3406 3419 
Q 3406 3131 3298 2873 
Q 3191 2616 2906 2266 
Q 2828 2175 2409 1742 
Q 1991 1309 1228 531 
z
" transform="scale(0.015625)"/>
       </defs>
       <use xlink:href="#DejaVuSans-32"/>
       <use xlink:href="#DejaVuSans-30" transform="translate(63.623047 0)"/>
       <use xlink:href="#DejaVuSans-30" transform="translate(127.246094 0)"/>
      </g>
     </g>
    </g>
    <g id="xtick_3">
     <g id="line2d_3">
      <g>
       <use xlink:href="#mba885acd84" x="130.007695" y="188.6" style="stroke: #000000; stroke-width: 0.8"/>
      </g>
     </g>
     <g id="text_3">
      <!-- 400 -->
      <g transform="translate(120.463945 203.198437) scale(0.1 -0.1)">
       <defs>
        <path id="DejaVuSans-34" d="M 2419 4116 
L 825 1625 
L 2419 1625 
L 2419 4116 
z
M 2253 4666 
L 3047 4666 
L 3047 1625 
L 3713 1625 
L 3713 1100 
L 3047 1100 
L 3047 0 
L 2419 0 
L 2419 1100 
L 313 1100 
L 313 1709 
L 2253 4666 
z
" transform="scale(0.015625)"/>
       </defs>
       <use xlink:href="#DejaVuSans-34"/>
       <use xlink:href="#DejaVuSans-30" transform="translate(63.623047 0)"/>
       <use xlink:href="#DejaVuSans-30" transform="translate(127.246094 0)"/>
      </g>
     </g>
    </g>
    <g id="xtick_4">
     <g id="line2d_4">
      <g>
       <use xlink:href="#mba885acd84" x="172.942305" y="188.6" style="stroke: #000000; stroke-width: 0.8"/>
      </g>
     </g>
     <g id="text_4">
      <!-- 600 -->
      <g transform="translate(163.398555 203.198437) scale(0.1 -0.1)">
       <defs>
        <path id="DejaVuSans-36" d="M 2113 2584 
Q 1688 2584 1439 2293 
Q 1191 2003 1191 1497 
Q 1191 994 1439 701 
Q 1688 409 2113 409 
Q 2538 409 2786 701 
Q 3034 994 3034 1497 
Q 3034 2003 2786 2293 
Q 2538 2584 2113 2584 
z
M 3366 4563 
L 3366 3988 
Q 3128 4100 2886 4159 
Q 2644 4219 2406 4219 
Q 1781 4219 1451 3797 
Q 1122 3375 1075 2522 
Q 1259 2794 1537 2939 
Q 1816 3084 2150 3084 
Q 2853 3084 3261 2657 
Q 3669 2231 3669 1497 
Q 3669 778 3244 343 
Q 2819 -91 2113 -91 
Q 1303 -91 875 529 
Q 447 1150 447 2328 
Q 447 3434 972 4092 
Q 1497 4750 2381 4750 
Q 2619 4750 2861 4703 
Q 3103 4656 3366 4563 
z
" transform="scale(0.015625)"/>
       </defs>
       <use xlink:href="#DejaVuSans-36"/>
       <use xlink:href="#DejaVuSans-30" transform="translate(63.623047 0)"/>
       <use xlink:href="#DejaVuSans-30" transform="translate(127.246094 0)"/>
      </g>
     </g>
    </g>
    <g id="xtick_5">
     <g id="line2d_5">
      <g>
       <use xlink:href="#mba885acd84" x="215.876914" y="188.6" style="stroke: #000000; stroke-width: 0.8"/>
      </g>
     </g>
     <g id="text_5">
      <!-- 800 -->
      <g transform="translate(206.333164 203.198437) scale(0.1 -0.1)">
       <defs>
        <path id="DejaVuSans-38" d="M 2034 2216 
Q 1584 2216 1326 1975 
Q 1069 1734 1069 1313 
Q 1069 891 1326 650 
Q 1584 409 2034 409 
Q 2484 409 2743 651 
Q 3003 894 3003 1313 
Q 3003 1734 2745 1975 
Q 2488 2216 2034 2216 
z
M 1403 2484 
Q 997 2584 770 2862 
Q 544 3141 544 3541 
Q 544 4100 942 4425 
Q 1341 4750 2034 4750 
Q 2731 4750 3128 4425 
Q 3525 4100 3525 3541 
Q 3525 3141 3298 2862 
Q 3072 2584 2669 2484 
Q 3125 2378 3379 2068 
Q 3634 1759 3634 1313 
Q 3634 634 3220 271 
Q 2806 -91 2034 -91 
Q 1263 -91 848 271 
Q 434 634 434 1313 
Q 434 1759 690 2068 
Q 947 2378 1403 2484 
z
M 1172 3481 
Q 1172 3119 1398 2916 
Q 1625 2713 2034 2713 
Q 2441 2713 2670 2916 
Q 2900 3119 2900 3481 
Q 2900 3844 2670 4047 
Q 2441 4250 2034 4250 
Q 1625 4250 1398 4047 
Q 1172 3844 1172 3481 
z
" transform="scale(0.015625)"/>
       </defs>
       <use xlink:href="#DejaVuSans-38"/>
       <use xlink:href="#DejaVuSans-30" transform="translate(63.623047 0)"/>
       <use xlink:href="#DejaVuSans-30" transform="translate(127.246094 0)"/>
      </g>
     </g>
    </g>
    <g id="xtick_6">
     <g id="line2d_6">
      <g>
       <use xlink:href="#mba885acd84" x="258.811523" y="188.6" style="stroke: #000000; stroke-width: 0.8"/>
      </g>
     </g>
     <g id="text_6">
      <!-- 1000 -->
      <g transform="translate(246.086523 203.198437) scale(0.1 -0.1)">
       <defs>
        <path id="DejaVuSans-31" d="M 794 531 
L 1825 531 
L 1825 4091 
L 703 3866 
L 703 4441 
L 1819 4666 
L 2450 4666 
L 2450 531 
L 3481 531 
L 3481 0 
L 794 0 
L 794 531 
z
" transform="scale(0.015625)"/>
       </defs>
       <use xlink:href="#DejaVuSans-31"/>
       <use xlink:href="#DejaVuSans-30" transform="translate(63.623047 0)"/>
       <use xlink:href="#DejaVuSans-30" transform="translate(127.246094 0)"/>
       <use xlink:href="#DejaVuSans-30" transform="translate(190.869141 0)"/>
      </g>
     </g>
    </g>
    <g id="text_7">
     <!-- q (nm) -->
     <g transform="translate(134.771094 216.876563) scale(0.1 -0.1)">
      <defs>
       <path id="DejaVuSans-71" d="M 947 1747 
Q 947 1113 1208 752 
Q 1469 391 1925 391 
Q 2381 391 2643 752 
Q 2906 1113 2906 1747 
Q 2906 2381 2643 2742 
Q 2381 3103 1925 3103 
Q 1469 3103 1208 2742 
Q 947 2381 947 1747 
z
M 2906 525 
Q 2725 213 2448 61 
Q 2172 -91 1784 -91 
Q 1150 -91 751 415 
Q 353 922 353 1747 
Q 353 2572 751 3078 
Q 1150 3584 1784 3584 
Q 2172 3584 2448 3432 
Q 2725 3281 2906 2969 
L 2906 3500 
L 3481 3500 
L 3481 -1331 
L 2906 -1331 
L 2906 525 
z
" transform="scale(0.015625)"/>
       <path id="DejaVuSans-20" transform="scale(0.015625)"/>
       <path id="DejaVuSans-28" d="M 1984 4856 
Q 1566 4138 1362 3434 
Q 1159 2731 1159 2009 
Q 1159 1288 1364 580 
Q 1569 -128 1984 -844 
L 1484 -844 
Q 1016 -109 783 600 
Q 550 1309 550 2009 
Q 550 2706 781 3412 
Q 1013 4119 1484 4856 
L 1984 4856 
z
" transform="scale(0.015625)"/>
       <path id="DejaVuSans-6e" d="M 3513 2113 
L 3513 0 
L 2938 0 
L 2938 2094 
Q 2938 2591 2744 2837 
Q 2550 3084 2163 3084 
Q 1697 3084 1428 2787 
Q 1159 2491 1159 1978 
L 1159 0 
L 581 0 
L 581 3500 
L 1159 3500 
L 1159 2956 
Q 1366 3272 1645 3428 
Q 1925 3584 2291 3584 
Q 2894 3584 3203 3211 
Q 3513 2838 3513 2113 
z
" transform="scale(0.015625)"/>
       <path id="DejaVuSans-6d" d="M 3328 2828 
Q 3544 3216 3844 3400 
Q 4144 3584 4550 3584 
Q 5097 3584 5394 3201 
Q 5691 2819 5691 2113 
L 5691 0 
L 5113 0 
L 5113 2094 
Q 5113 2597 4934 2840 
Q 4756 3084 4391 3084 
Q 3944 3084 3684 2787 
Q 3425 2491 3425 1978 
L 3425 0 
L 2847 0 
L 2847 2094 
Q 2847 2600 2669 2842 
Q 2491 3084 2119 3084 
Q 1678 3084 1418 2786 
Q 1159 2488 1159 1978 
L 1159 0 
L 581 0 
L 581 3500 
L 1159 3500 
L 1159 2956 
Q 1356 3278 1631 3431 
Q 1906 3584 2284 3584 
Q 2666 3584 2933 3390 
Q 3200 3197 3328 2828 
z
" transform="scale(0.015625)"/>
       <path id="DejaVuSans-29" d="M 513 4856 
L 1013 4856 
Q 1481 4119 1714 3412 
Q 1947 2706 1947 2009 
Q 1947 1309 1714 600 
Q 1481 -109 1013 -844 
L 513 -844 
Q 928 -128 1133 580 
Q 1338 1288 1338 2009 
Q 1338 2731 1133 3434 
Q 928 4138 513 4856 
z
" transform="scale(0.015625)"/>
      </defs>
      <use xlink:href="#DejaVuSans-71"/>
      <use xlink:href="#DejaVuSans-20" transform="translate(63.476562 0)"/>
      <use xlink:href="#DejaVuSans-28" transform="translate(95.263672 0)"/>
      <use xlink:href="#DejaVuSans-6e" transform="translate(134.277344 0)"/>
      <use xlink:href="#DejaVuSans-6d" transform="translate(197.65625 0)"/>
      <use xlink:href="#DejaVuSans-29" transform="translate(295.068359 0)"/>
     </g>
    </g>
   </g>
   <g id="matplotlib.axis_2">
    <g id="ytick_1">
     <g id="line2d_7">
      <defs>
       <path id="ma8e459a2ab" d="M 0 0 
L -3.5 0 
" style="stroke: #000000; stroke-width: 0.8"/>
      </defs>
      <g>
       <use xlink:href="#ma8e459a2ab" x="33.7" y="180.687273" style="stroke: #000000; stroke-width: 0.8"/>
      </g>
     </g>
     <g id="text_8">
      <!-- 0 -->
      <g transform="translate(20.3375 184.486491) scale(0.1 -0.1)">
       <use xlink:href="#DejaVuSans-30"/>
      </g>
     </g>
    </g>
    <g id="ytick_2">
     <g id="line2d_8">
      <g>
       <use xlink:href="#ma8e459a2ab" x="33.7" y="144.698678" style="stroke: #000000; stroke-width: 0.8"/>
      </g>
     </g>
     <g id="text_9">
      <!-- 20000 -->
      <g transform="translate(-5.1125 148.497897) scale(0.1 -0.1)">
       <use xlink:href="#DejaVuSans-32"/>
       <use xlink:href="#DejaVuSans-30" transform="translate(63.623047 0)"/>
       <use xlink:href="#DejaVuSans-30" transform="translate(127.246094 0)"/>
       <use xlink:href="#DejaVuSans-30" transform="translate(190.869141 0)"/>
       <use xlink:href="#DejaVuSans-30" transform="translate(254.492188 0)"/>
      </g>
     </g>
    </g>
    <g id="ytick_3">
     <g id="line2d_9">
      <g>
       <use xlink:href="#ma8e459a2ab" x="33.7" y="108.710083" style="stroke: #000000; stroke-width: 0.8"/>
      </g>
     </g>
     <g id="text_10">
      <!-- 40000 -->
      <g transform="translate(-5.1125 112.509302) scale(0.1 -0.1)">
       <use xlink:href="#DejaVuSans-34"/>
       <use xlink:href="#DejaVuSans-30" transform="translate(63.623047 0)"/>
       <use xlink:href="#DejaVuSans-30" transform="translate(127.246094 0)"/>
       <use xlink:href="#DejaVuSans-30" transform="translate(190.869141 0)"/>
       <use xlink:href="#DejaVuSans-30" transform="translate(254.492188 0)"/>
      </g>
     </g>
    </g>
    <g id="ytick_4">
     <g id="line2d_10">
      <g>
       <use xlink:href="#ma8e459a2ab" x="33.7" y="72.721489" style="stroke: #000000; stroke-width: 0.8"/>
      </g>
     </g>
     <g id="text_11">
      <!-- 60000 -->
      <g transform="translate(-5.1125 76.520707) scale(0.1 -0.1)">
       <use xlink:href="#DejaVuSans-36"/>
       <use xlink:href="#DejaVuSans-30" transform="translate(63.623047 0)"/>
       <use xlink:href="#DejaVuSans-30" transform="translate(127.246094 0)"/>
       <use xlink:href="#DejaVuSans-30" transform="translate(190.869141 0)"/>
       <use xlink:href="#DejaVuSans-30" transform="translate(254.492188 0)"/>
      </g>
     </g>
    </g>
    <g id="ytick_5">
     <g id="line2d_11">
      <g>
       <use xlink:href="#ma8e459a2ab" x="33.7" y="36.732894" style="stroke: #000000; stroke-width: 0.8"/>
      </g>
     </g>
     <g id="text_12">
      <!-- 80000 -->
      <g transform="translate(-5.1125 40.532113) scale(0.1 -0.1)">
       <use xlink:href="#DejaVuSans-38"/>
       <use xlink:href="#DejaVuSans-30" transform="translate(63.623047 0)"/>
       <use xlink:href="#DejaVuSans-30" transform="translate(127.246094 0)"/>
       <use xlink:href="#DejaVuSans-30" transform="translate(190.869141 0)"/>
       <use xlink:href="#DejaVuSans-30" transform="translate(254.492188 0)"/>
      </g>
     </g>
    </g>
    <g id="text_13">
     <!-- rdf -->
     <g transform="translate(-11.192187 108.462344) rotate(-90) scale(0.1 -0.1)">
      <defs>
       <path id="DejaVuSans-72" d="M 2631 2963 
Q 2534 3019 2420 3045 
Q 2306 3072 2169 3072 
Q 1681 3072 1420 2755 
Q 1159 2438 1159 1844 
L 1159 0 
L 581 0 
L 581 3500 
L 1159 3500 
L 1159 2956 
Q 1341 3275 1631 3429 
Q 1922 3584 2338 3584 
Q 2397 3584 2469 3576 
Q 2541 3569 2628 3553 
L 2631 2963 
z
" transform="scale(0.015625)"/>
       <path id="DejaVuSans-64" d="M 2906 2969 
L 2906 4863 
L 3481 4863 
L 3481 0 
L 2906 0 
L 2906 525 
Q 2725 213 2448 61 
Q 2172 -91 1784 -91 
Q 1150 -91 751 415 
Q 353 922 353 1747 
Q 353 2572 751 3078 
Q 1150 3584 1784 3584 
Q 2172 3584 2448 3432 
Q 2725 3281 2906 2969 
z
M 947 1747 
Q 947 1113 1208 752 
Q 1469 391 1925 391 
Q 2381 391 2643 752 
Q 2906 1113 2906 1747 
Q 2906 2381 2643 2742 
Q 2381 3103 1925 3103 
Q 1469 3103 1208 2742 
Q 947 2381 947 1747 
z
" transform="scale(0.015625)"/>
       <path id="DejaVuSans-66" d="M 2375 4863 
L 2375 4384 
L 1825 4384 
Q 1516 4384 1395 4259 
Q 1275 4134 1275 3809 
L 1275 3500 
L 2222 3500 
L 2222 3053 
L 1275 3053 
L 1275 0 
L 697 0 
L 697 3053 
L 147 3053 
L 147 3500 
L 697 3500 
L 697 3744 
Q 697 4328 969 4595 
Q 1241 4863 1831 4863 
L 2375 4863 
z
" transform="scale(0.015625)"/>
      </defs>
      <use xlink:href="#DejaVuSans-72"/>
      <use xlink:href="#DejaVuSans-64" transform="translate(39.363281 0)"/>
      <use xlink:href="#DejaVuSans-66" transform="translate(102.839844 0)"/>
     </g>
    </g>
   </g>
   <g id="line2d_12">
    <path d="M 44.406818 180.687273 
L 94.854984 180.687273 
L 95.391667 138.439478 
L 95.928349 22.432727 
L 96.465032 177.681498 
L 97.001715 180.419541 
L 97.538397 180.512354 
L 98.07508 179.658544 
L 98.611762 177.997786 
L 99.685128 168.320311 
L 100.22181 170.617424 
L 100.758493 175.47507 
L 101.295175 178.397074 
L 101.831858 180.387567 
L 102.368541 180.025308 
L 102.905223 180.542844 
L 103.441906 180.332706 
L 103.978589 180.339038 
L 104.515271 180.550444 
L 105.051954 180.620059 
L 106.125319 180.36274 
L 106.662002 180.432085 
L 107.198684 179.809251 
L 107.735367 177.604181 
L 108.272049 176.806688 
L 108.808732 175.081875 
L 109.345415 176.81609 
L 109.882097 179.129358 
L 110.41878 179.949264 
L 110.955463 180.407964 
L 111.492145 180.412398 
L 112.028828 180.146179 
L 112.56551 178.237137 
L 113.638876 166.695171 
L 114.175558 166.807125 
L 115.248923 178.171963 
L 115.785606 180.104269 
L 116.322289 178.533392 
L 116.858971 174.273497 
L 117.395654 168.651121 
L 117.932337 167.772179 
L 119.005702 177.706154 
L 119.542384 180.029324 
L 121.152432 180.603176 
L 121.689115 180.479931 
L 123.299163 180.567876 
L 123.835845 180.333892 
L 124.372528 180.454826 
L 124.909211 180.419677 
L 125.982576 180.054332 
L 126.519258 179.548077 
L 127.055941 175.826548 
L 127.592624 174.707155 
L 128.129306 176.727748 
L 128.665989 177.266539 
L 129.202671 172.105147 
L 129.739354 170.748905 
L 130.812719 179.226571 
L 131.349402 180.359369 
L 131.886085 180.52532 
L 132.422767 180.207304 
L 132.95945 180.52921 
L 134.032815 180.656411 
L 134.569498 180.626279 
L 135.10618 180.446169 
L 135.642863 180.478774 
L 136.179545 179.362511 
L 137.252911 169.526664 
L 137.789593 174.573622 
L 138.326276 178.100925 
L 138.862959 175.906556 
L 139.399641 164.637472 
L 139.936324 163.539496 
L 140.473006 172.571459 
L 141.009689 178.454837 
L 141.546372 179.925022 
L 142.619737 180.250123 
L 143.156419 179.924171 
L 143.693102 177.868993 
L 144.229785 174.264599 
L 144.766467 173.397004 
L 145.30315 176.05723 
L 145.839833 174.466349 
L 146.376515 160.50204 
L 146.913198 173.084493 
L 147.44988 179.308652 
L 147.986563 177.010308 
L 149.059928 168.20445 
L 149.596611 172.03129 
L 150.133293 177.113346 
L 150.669976 179.610486 
L 151.206659 180.295674 
L 151.743341 180.471883 
L 152.280024 179.19447 
L 152.816707 176.88646 
L 153.353389 175.334657 
L 153.890072 175.98732 
L 154.426754 178.595903 
L 154.963437 180.139022 
L 155.50012 180.365509 
L 156.036802 180.209245 
L 156.573485 179.030113 
L 157.110167 176.642265 
L 157.64685 176.157772 
L 158.183533 177.139902 
L 158.720215 179.433551 
L 159.256898 180.197977 
L 159.793581 180.519469 
L 163.550359 180.477391 
L 164.087041 179.716569 
L 164.623724 176.924865 
L 165.160407 173.177977 
L 165.697089 172.180809 
L 166.233772 175.751959 
L 166.770455 178.398726 
L 167.307137 177.761045 
L 167.84382 176.221842 
L 168.380502 177.100492 
L 168.917185 179.18158 
L 169.453868 179.257975 
L 169.99055 177.144425 
L 170.527233 173.895834 
L 171.063915 173.008793 
L 171.600598 176.005313 
L 172.137281 176.364157 
L 173.210646 169.070485 
L 173.747329 171.541914 
L 174.284011 177.227097 
L 174.820694 179.738049 
L 175.357376 179.89064 
L 176.430742 176.084472 
L 176.967424 177.012104 
L 177.504107 178.261513 
L 178.577472 177.347982 
L 179.114155 177.429238 
L 179.650837 176.911744 
L 180.18752 177.264853 
L 181.260885 180.169979 
L 181.797568 180.516183 
L 183.944298 180.572436 
L 184.480981 180.585975 
L 185.017663 180.209768 
L 185.554346 179.290553 
L 186.627711 173.341678 
L 187.164394 176.907891 
L 187.701077 179.440909 
L 188.237759 179.810494 
L 188.774442 179.626242 
L 189.311124 175.965624 
L 189.847807 171.407394 
L 190.921172 174.841638 
L 191.457855 175.814938 
L 191.994537 178.66805 
L 192.53122 178.150325 
L 193.067903 176.05466 
L 193.604585 175.663662 
L 194.141268 177.982809 
L 194.677951 179.61979 
L 195.214633 179.977025 
L 195.751316 176.911578 
L 196.287998 176.614962 
L 196.824681 178.633311 
L 197.898046 177.290529 
L 198.971411 173.779609 
L 199.508094 175.45962 
L 200.044777 178.440262 
L 200.581459 180.086058 
L 201.118142 180.454501 
L 201.654825 180.395774 
L 202.191507 180.098244 
L 202.72819 178.565239 
L 203.264872 177.63399 
L 203.801555 177.360982 
L 204.338238 177.976014 
L 205.411603 178.529781 
L 205.948285 178.982234 
L 207.558333 175.803203 
L 208.095016 175.361963 
L 208.631699 176.880619 
L 209.168381 177.582969 
L 209.705064 177.439304 
L 210.241746 175.326978 
L 210.778429 174.966274 
L 211.315112 177.448012 
L 211.851794 179.366157 
L 212.388477 178.77549 
L 212.925159 176.196385 
L 213.461842 174.980892 
L 213.998525 176.32212 
L 214.535207 178.050292 
L 215.07189 178.126584 
L 215.608573 177.87964 
L 216.145255 178.327029 
L 216.681938 179.346942 
L 217.21862 180.021255 
L 217.755303 179.793699 
L 218.291986 178.072392 
L 218.828668 177.083213 
L 219.365351 177.056537 
L 219.902033 178.281538 
L 220.438716 178.304182 
L 220.975399 177.218057 
L 221.512081 177.040811 
L 222.585447 179.794426 
L 223.122129 179.675209 
L 223.658812 179.015743 
L 224.195494 177.133334 
L 224.732177 174.783876 
L 225.26886 174.689568 
L 225.805542 178.042406 
L 226.342225 179.958575 
L 226.878907 180.545376 
L 227.41559 180.55363 
L 227.952273 180.27392 
L 228.488955 179.557157 
L 229.025638 179.184326 
L 230.099003 179.742512 
L 230.635686 179.618876 
L 231.172368 178.313213 
L 231.709051 177.710052 
L 232.245734 179.157816 
L 232.782416 179.797232 
L 233.319099 179.328424 
L 233.855781 178.026505 
L 234.392464 178.06217 
L 234.929147 179.529395 
L 235.465829 180.319371 
L 236.539195 180.336941 
L 237.075877 179.963699 
L 237.61256 178.401998 
L 238.149242 177.235224 
L 238.685925 176.503089 
L 239.75929 173.733431 
L 240.295973 174.892732 
L 240.832656 175.091941 
L 241.369338 175.827563 
L 242.442703 179.444245 
L 242.979386 179.362634 
L 244.052751 177.679474 
L 244.589434 176.547293 
L 245.126116 175.995193 
L 245.662799 178.114225 
L 246.199482 179.154073 
L 246.736164 179.733329 
L 247.272847 179.744414 
L 247.80953 178.661166 
L 248.346212 178.450532 
L 248.882895 179.199943 
L 249.419577 178.905886 
L 249.95626 177.307901 
L 250.492943 176.528927 
L 251.566308 179.371497 
L 252.10299 179.505141 
L 253.176356 177.154371 
L 253.713038 176.604618 
L 254.249721 176.738441 
L 254.786404 175.57261 
L 255.323086 175.928509 
L 256.396451 178.594833 
L 256.933134 178.137215 
L 258.006499 177.639305 
L 258.543182 177.144578 
L 258.543182 177.144578 
" clip-path="url(#p5035a0708c)" style="fill: none; stroke: #000000; stroke-opacity: 0.5; stroke-width: 0.5; stroke-linecap: square"/>
   </g>
   <g id="line2d_13">
    <path d="M 44.406818 180.687273 
L 94.854984 180.687273 
L 95.391667 180.396522 
L 95.928349 180.687273 
L 96.465032 180.687273 
L 97.538397 180.151585 
L 98.07508 177.536792 
L 98.611762 172.450719 
L 99.685128 142.813448 
L 100.22181 149.848358 
L 100.758493 164.724902 
L 101.295175 173.673538 
L 101.831858 179.769425 
L 102.368541 178.660004 
L 102.905223 180.244959 
L 103.441906 179.601411 
L 103.978589 179.620803 
L 104.515271 180.268235 
L 105.051954 180.481429 
L 105.588636 180.282746 
L 106.125319 179.693391 
L 106.662002 180.296516 
L 107.198684 177.99833 
L 107.735367 171.434141 
L 108.272049 169.174364 
L 108.808732 163.520741 
L 109.345415 169.011403 
L 109.882097 176.092866 
L 110.41878 178.600978 
L 110.955463 179.83189 
L 111.492145 180.18219 
L 112.028828 180.355853 
L 112.56551 180.197911 
L 113.102193 179.884315 
L 113.638876 180.371031 
L 114.175558 180.375859 
L 114.712241 179.920535 
L 115.248923 180.385189 
L 115.785606 179.794548 
L 116.322289 175.263681 
L 116.858971 161.911649 
L 117.395654 144.680469 
L 117.932337 141.415302 
L 119.005702 172.511442 
L 119.542384 179.075299 
L 120.61575 180.295511 
L 121.152432 180.558499 
L 121.689115 180.433279 
L 122.225797 180.687273 
L 122.76248 180.440166 
L 123.299163 180.443505 
L 123.835845 180.086034 
L 124.372528 180.449984 
L 124.909211 180.453127 
L 125.445893 180.57174 
L 125.982576 180.345206 
L 127.055941 180.687273 
L 131.349402 180.687273 
L 131.886085 180.290489 
L 132.422767 180.197304 
L 132.95945 180.687273 
L 133.496132 180.591619 
L 134.569498 180.687273 
L 135.10618 180.502678 
L 135.642863 180.504837 
L 136.179545 176.900661 
L 137.252911 146.860271 
L 137.789593 162.399633 
L 138.326276 174.316284 
L 138.862959 172.43046 
L 139.399641 150.05111 
L 139.936324 152.806847 
L 140.473006 171.387342 
L 141.009689 179.5478 
L 141.546372 180.52628 
L 142.083054 180.368806 
L 143.693102 180.533148 
L 144.229785 180.153606 
L 144.766467 180.460991 
L 145.30315 180.388757 
L 145.839833 179.284249 
L 146.376515 164.538786 
L 146.913198 165.430064 
L 147.44988 180.257914 
L 147.986563 180.616451 
L 152.280024 180.687273 
L 152.816707 180.493273 
L 153.890072 180.687273 
L 154.426754 180.62448 
L 155.50012 180.687273 
L 158.720215 180.687273 
L 159.256898 180.572006 
L 159.793581 180.687273 
L 160.330263 180.687273 
L 160.866946 180.575164 
L 161.403628 180.63173 
L 161.940311 180.522159 
L 162.476994 180.632733 
L 164.087041 180.421846 
L 165.160407 180.635125 
L 165.697089 180.583896 
L 166.233772 180.17492 
L 166.770455 178.046323 
L 167.84382 167.461083 
L 168.380502 170.148073 
L 168.917185 176.615694 
L 169.453868 179.08229 
L 169.99055 177.118837 
L 170.527233 171.36368 
L 171.063915 166.985791 
L 171.600598 171.378998 
L 172.137281 169.871871 
L 172.673963 161.964322 
L 173.210646 157.535091 
L 173.747329 162.818747 
L 174.284011 173.562624 
L 174.820694 179.256135 
L 175.357376 179.755755 
L 175.894059 180.071309 
L 176.430742 179.814451 
L 176.967424 178.782546 
L 177.504107 176.77959 
L 178.040789 175.873695 
L 178.577472 176.588188 
L 179.114155 178.088031 
L 179.650837 180.146578 
L 180.18752 180.398422 
L 180.724203 180.482569 
L 181.797568 180.485749 
L 182.870933 180.568222 
L 183.407616 180.451004 
L 184.480981 180.53216 
L 185.017663 179.648229 
L 185.554346 177.517373 
L 186.091029 173.144474 
L 186.627711 171.056927 
L 187.701077 179.242005 
L 188.237759 179.914837 
L 188.774442 180.395191 
L 190.38449 180.615851 
L 190.921172 180.510023 
L 191.457855 180.159388 
L 191.994537 179.569285 
L 192.53122 176.871941 
L 193.067903 173.008182 
L 193.604585 172.07178 
L 194.141268 176.206618 
L 194.677951 178.766217 
L 195.214633 180.185319 
L 195.751316 179.856593 
L 196.287998 178.74067 
L 197.361364 173.009562 
L 197.898046 172.578469 
L 198.434729 173.308542 
L 198.971411 173.009128 
L 200.044777 178.707672 
L 200.581459 179.719852 
L 201.118142 180.315344 
L 201.654825 180.133174 
L 202.191507 179.158544 
L 202.72819 174.552958 
L 203.264872 171.849372 
L 203.801555 171.728909 
L 204.338238 176.66958 
L 204.87492 179.35697 
L 205.411603 179.894394 
L 205.948285 178.003503 
L 206.484968 174.427872 
L 207.021651 175.649343 
L 207.558333 177.312548 
L 208.095016 179.834898 
L 208.631699 180.207409 
L 209.168381 180.04226 
L 210.241746 175.593637 
L 210.778429 175.46136 
L 211.851794 179.628274 
L 212.388477 180.471426 
L 217.21862 180.687273 
L 218.291986 180.536177 
L 218.828668 180.186709 
L 219.365351 177.677397 
L 219.902033 175.767322 
L 220.975399 174.410285 
L 221.512081 175.370671 
L 222.048764 177.839901 
L 222.585447 179.607926 
L 223.122129 180.043542 
L 223.658812 180.189586 
L 224.195494 178.967516 
L 224.732177 175.019973 
L 225.26886 172.492689 
L 226.342225 179.467925 
L 226.878907 180.412814 
L 227.41559 180.528108 
L 229.562321 180.398486 
L 230.099003 179.715467 
L 230.635686 178.074093 
L 231.172368 173.635048 
L 231.709051 171.830038 
L 232.245734 176.564524 
L 232.782416 179.356591 
L 233.319099 180.3885 
L 233.855781 180.559951 
L 234.929147 180.456468 
L 235.465829 180.49949 
L 236.539195 180.109562 
L 237.075877 179.107386 
L 237.61256 175.280149 
L 238.149242 175.107095 
L 238.685925 177.55943 
L 239.222608 178.379363 
L 240.295973 174.613213 
L 240.832656 171.685104 
L 241.369338 173.383282 
L 242.442703 179.424822 
L 242.979386 179.953202 
L 243.516069 178.861959 
L 244.589434 173.844202 
L 245.126116 175.506691 
L 246.199482 180.051239 
L 247.272847 180.520686 
L 247.80953 180.392676 
L 248.346212 180.412539 
L 248.882895 180.158899 
L 249.419577 178.784192 
L 249.95626 175.512609 
L 250.492943 174.014884 
L 251.566308 179.196156 
L 252.10299 180.316415 
L 252.639673 180.511581 
L 253.176356 180.512483 
L 253.713038 179.852571 
L 254.249721 178.438162 
L 254.786404 175.884899 
L 255.323086 175.464026 
L 255.859769 176.461675 
L 256.396451 178.839435 
L 256.933134 179.068013 
L 257.469817 176.92798 
L 258.006499 174.074709 
L 258.543182 172.263539 
L 258.543182 172.263539 
" clip-path="url(#p5035a0708c)" style="fill: none; stroke: #0000ff; stroke-opacity: 0.5; stroke-linecap: square"/>
   </g>
   <g id="line2d_14">
    <path d="M 44.406818 180.687273 
L 105.051954 180.687273 
L 105.588636 180.327694 
L 106.125319 180.687273 
L 106.662002 179.992594 
L 107.198684 180.687273 
L 108.272049 180.027034 
L 108.808732 180.687273 
L 109.345415 180.367933 
L 110.41878 180.378192 
L 110.955463 180.687273 
L 111.492145 180.088656 
L 112.028828 178.33051 
L 112.56551 168.21762 
L 113.638876 105.070259 
L 114.175558 105.671205 
L 114.712241 140.339851 
L 115.248923 167.529845 
L 115.785606 179.100207 
L 116.322289 178.602529 
L 116.858971 179.146709 
L 117.395654 179.1692 
L 117.932337 180.188581 
L 118.469019 180.687273 
L 119.005702 178.991545 
L 119.542384 179.97084 
L 120.079067 179.98093 
L 120.61575 179.526499 
L 121.152432 180.687273 
L 121.689115 180.235727 
L 122.76248 180.247973 
L 123.299163 180.470591 
L 123.835845 180.259725 
L 124.372528 180.265426 
L 124.909211 180.062883 
L 125.445893 179.454927 
L 125.982576 178.05209 
L 126.519258 175.085207 
L 127.055941 155.013296 
L 127.592624 148.908697 
L 128.665989 175.366131 
L 129.202671 180.124322 
L 129.739354 180.501968 
L 130.276037 180.687273 
L 131.886085 180.687273 
L 132.422767 180.513062 
L 132.95945 180.687273 
L 134.569498 180.687273 
L 135.10618 180.523188 
L 136.179545 180.526993 
L 136.716228 180.370419 
L 137.252911 180.687273 
L 139.936324 180.687273 
L 140.473006 180.248338 
L 141.009689 180.687273 
L 142.083054 180.687273 
L 142.619737 180.54727 
L 143.156419 180.548784 
L 143.693102 180.276274 
L 144.229785 180.551738 
L 144.766467 180.55318 
L 145.30315 180.156578 
L 145.839833 156.926132 
L 146.376515 103.135576 
L 146.913198 168.860727 
L 147.44988 179.160665 
L 147.986563 180.435461 
L 148.523246 180.687273 
L 161.940311 180.687273 
L 162.476994 180.493353 
L 163.013676 180.4951 
L 163.550359 180.687273 
L 164.087041 180.687273 
L 164.623724 180.500202 
L 166.770455 180.596984 
L 167.307137 180.15025 
L 168.380502 180.247452 
L 168.917185 179.989599 
L 169.453868 176.018233 
L 170.527233 160.711944 
L 171.063915 163.661828 
L 171.600598 171.995372 
L 172.137281 176.709194 
L 172.673963 170.742794 
L 173.210646 158.762747 
L 173.747329 163.066292 
L 174.284011 175.1559 
L 174.820694 178.779089 
L 175.357376 180.371838 
L 175.894059 180.45262 
L 176.430742 179.911431 
L 176.967424 180.148562 
L 177.504107 178.626078 
L 178.040789 173.795859 
L 178.577472 170.920842 
L 179.650837 177.581742 
L 180.18752 179.660248 
L 180.724203 180.323356 
L 181.797568 180.400661 
L 182.33425 180.331786 
L 184.480981 180.687273 
L 186.091029 180.282969 
L 187.164394 180.355392 
L 187.701077 180.55551 
L 188.237759 179.771793 
L 188.774442 179.908389 
L 189.311124 179.463142 
L 189.847807 174.163949 
L 190.38449 160.054454 
L 190.921172 153.272597 
L 191.457855 155.911907 
L 191.994537 172.178144 
L 192.53122 173.904462 
L 193.067903 169.545514 
L 193.604585 169.017613 
L 194.677951 178.94971 
L 195.214633 180.211346 
L 195.751316 180.45099 
L 196.287998 180.452654 
L 196.824681 180.62903 
L 197.361364 180.571601 
L 197.898046 180.62984 
L 198.971411 180.517355 
L 200.044777 180.631411 
L 200.581459 180.354397 
L 201.118142 180.632172 
L 202.72819 180.579298 
L 205.948285 180.687273 
L 206.484968 180.429684 
L 207.021651 180.482557 
L 207.558333 179.314504 
L 208.095016 174.423901 
L 208.631699 171.554172 
L 209.168381 170.516633 
L 209.705064 176.27881 
L 210.241746 179.260071 
L 210.778429 180.442786 
L 211.315112 180.638689 
L 212.388477 180.543375 
L 212.925159 180.544288 
L 213.461842 180.213674 
L 213.998525 178.193037 
L 214.535207 174.046624 
L 215.07189 171.253504 
L 215.608573 173.621539 
L 216.145255 177.887762 
L 216.681938 180.094362 
L 217.21862 180.415316 
L 218.291986 180.597735 
L 218.828668 180.598284 
L 219.365351 180.421939 
L 219.902033 180.64332 
L 220.438716 180.643587 
L 220.975399 180.426749 
L 222.048764 180.51568 
L 223.122129 180.560116 
L 223.658812 179.254779 
L 224.195494 173.399904 
L 224.732177 164.034051 
L 225.26886 164.629202 
L 225.805542 174.927341 
L 226.342225 178.969449 
L 226.878907 180.48397 
L 227.41559 180.525582 
L 227.952273 180.44615 
L 228.488955 180.607366 
L 229.025638 180.568107 
L 229.562321 180.64778 
L 231.709051 180.571492 
L 233.319099 180.649333 
L 234.392464 180.574735 
L 234.929147 180.687273 
L 237.61256 180.397079 
L 238.149242 179.785426 
L 238.685925 177.099784 
L 239.75929 157.623662 
L 240.832656 176.721406 
L 241.369338 179.849539 
L 241.906021 180.374826 
L 242.442703 180.238402 
L 242.979386 180.275163 
L 243.516069 180.140746 
L 244.052751 178.444944 
L 245.126116 169.158065 
L 245.662799 175.672183 
L 246.199482 179.22398 
L 246.736164 180.455707 
L 247.80953 180.392676 
L 248.346212 180.557029 
L 249.419577 180.558387 
L 251.029625 180.401777 
L 251.566308 180.024554 
L 252.10299 178.991922 
L 252.639673 173.971958 
L 253.176356 165.896141 
L 253.713038 163.498605 
L 254.249721 170.137598 
L 255.323086 172.497528 
L 255.859769 175.416635 
L 256.396451 179.270786 
L 256.933134 180.237479 
L 257.469817 180.538094 
L 258.543182 180.510048 
L 258.543182 180.510048 
" clip-path="url(#p5035a0708c)" style="fill: none; stroke: #ff0000; stroke-opacity: 0.5; stroke-linecap: square"/>
   </g>
   <g id="patch_3">
    <path d="M 33.7 188.6 
L 33.7 14.52 
" style="fill: none; stroke: #000000; stroke-width: 0.8; stroke-linejoin: miter; stroke-linecap: square"/>
   </g>
   <g id="patch_4">
    <path d="M 269.25 188.6 
L 269.25 14.52 
" style="fill: none; stroke: #000000; stroke-width: 0.8; stroke-linejoin: miter; stroke-linecap: square"/>
   </g>
   <g id="patch_5">
    <path d="M 33.7 188.6 
L 269.25 188.6 
" style="fill: none; stroke: #000000; stroke-width: 0.8; stroke-linejoin: miter; stroke-linecap: square"/>
   </g>
   <g id="patch_6">
    <path d="M 33.7 14.52 
L 269.25 14.52 
" style="fill: none; stroke: #000000; stroke-width: 0.8; stroke-linejoin: miter; stroke-linecap: square"/>
   </g>
   <g id="legend_1">
    <g id="patch_7">
     <path d="M 213.917188 66.554375 
L 262.25 66.554375 
Q 264.25 66.554375 264.25 64.554375 
L 264.25 21.52 
Q 264.25 19.52 262.25 19.52 
L 213.917188 19.52 
Q 211.917188 19.52 211.917188 21.52 
L 211.917188 64.554375 
Q 211.917188 66.554375 213.917188 66.554375 
z
" style="fill: #ffffff; opacity: 0.8; stroke: #cccccc; stroke-linejoin: miter"/>
    </g>
    <g id="line2d_15">
     <path d="M 215.917188 27.618438 
L 225.917188 27.618438 
L 235.917188 27.618438 
" style="fill: none; stroke: #000000; stroke-opacity: 0.5; stroke-width: 0.5; stroke-linecap: square"/>
    </g>
    <g id="text_14">
     <!-- all -->
     <g transform="translate(243.917188 31.118438) scale(0.1 -0.1)">
      <defs>
       <path id="DejaVuSans-61" d="M 2194 1759 
Q 1497 1759 1228 1600 
Q 959 1441 959 1056 
Q 959 750 1161 570 
Q 1363 391 1709 391 
Q 2188 391 2477 730 
Q 2766 1069 2766 1631 
L 2766 1759 
L 2194 1759 
z
M 3341 1997 
L 3341 0 
L 2766 0 
L 2766 531 
Q 2569 213 2275 61 
Q 1981 -91 1556 -91 
Q 1019 -91 701 211 
Q 384 513 384 1019 
Q 384 1609 779 1909 
Q 1175 2209 1959 2209 
L 2766 2209 
L 2766 2266 
Q 2766 2663 2505 2880 
Q 2244 3097 1772 3097 
Q 1472 3097 1187 3025 
Q 903 2953 641 2809 
L 641 3341 
Q 956 3463 1253 3523 
Q 1550 3584 1831 3584 
Q 2591 3584 2966 3190 
Q 3341 2797 3341 1997 
z
" transform="scale(0.015625)"/>
       <path id="DejaVuSans-6c" d="M 603 4863 
L 1178 4863 
L 1178 0 
L 603 0 
L 603 4863 
z
" transform="scale(0.015625)"/>
      </defs>
      <use xlink:href="#DejaVuSans-61"/>
      <use xlink:href="#DejaVuSans-6c" transform="translate(61.279297 0)"/>
      <use xlink:href="#DejaVuSans-6c" transform="translate(89.0625 0)"/>
     </g>
    </g>
    <g id="line2d_16">
     <path d="M 215.917188 42.296563 
L 225.917188 42.296563 
L 235.917188 42.296563 
" style="fill: none; stroke: #0000ff; stroke-opacity: 0.5; stroke-linecap: square"/>
    </g>
    <g id="text_15">
     <!-- 1-1 -->
     <g transform="translate(243.917188 45.796563) scale(0.1 -0.1)">
      <defs>
       <path id="DejaVuSans-2d" d="M 313 2009 
L 1997 2009 
L 1997 1497 
L 313 1497 
L 313 2009 
z
" transform="scale(0.015625)"/>
      </defs>
      <use xlink:href="#DejaVuSans-31"/>
      <use xlink:href="#DejaVuSans-2d" transform="translate(63.623047 0)"/>
      <use xlink:href="#DejaVuSans-31" transform="translate(99.707031 0)"/>
     </g>
    </g>
    <g id="line2d_17">
     <path d="M 215.917188 56.974688 
L 225.917188 56.974688 
L 235.917188 56.974688 
" style="fill: none; stroke: #ff0000; stroke-opacity: 0.5; stroke-linecap: square"/>
    </g>
    <g id="text_16">
     <!-- 2-2 -->
     <g transform="translate(243.917188 60.474688) scale(0.1 -0.1)">
      <use xlink:href="#DejaVuSans-32"/>
      <use xlink:href="#DejaVuSans-2d" transform="translate(63.623047 0)"/>
      <use xlink:href="#DejaVuSans-32" transform="translate(99.707031 0)"/>
     </g>
    </g>
   </g>
  </g>
 </g>
 <defs>
  <clipPath id="p5035a0708c">
   <rect x="33.7" y="14.52" width="235.55" height="174.08"/>
  </clipPath>
 </defs>
</svg>
