<?xml version="1.0" encoding="utf-8" standalone="no"?>
<!DOCTYPE svg PUBLIC "-//W3C//DTD SVG 1.1//EN"
  "http://www.w3.org/Graphics/SVG/1.1/DTD/svg11.dtd">
<svg xmlns:xlink="http://www.w3.org/1999/xlink" width="288pt" height="216pt" viewBox="0 0 288 216" xmlns="http://www.w3.org/2000/svg" version="1.1">
 <metadata>
  <rdf:RDF xmlns:dc="http://purl.org/dc/elements/1.1/" xmlns:cc="http://creativecommons.org/ns#" xmlns:rdf="http://www.w3.org/1999/02/22-rdf-syntax-ns#">
   <cc:Work>
    <dc:type rdf:resource="http://purl.org/dc/dcmitype/StillImage"/>
    <dc:date>2025-09-17T23:36:10.267258</dc:date>
    <dc:format>image/svg+xml</dc:format>
    <dc:creator>
     <cc:Agent>
      <dc:title>Matplotlib v3.10.0, https://matplotlib.org/</dc:title>
     </cc:Agent>
    </dc:creator>
   </cc:Work>
  </rdf:RDF>
 </metadata>
 <defs>
  <style type="text/css">*{stroke-linejoin: round; stroke-linecap: butt}</style>
 </defs>
 <g id="figure_1">
  <g id="patch_1">
   <path d="M 0 216 
L 288 216 
L 288 0 
L 0 0 
z
" style="fill: #ffffff"/>
  </g>
  <g id="axes_1">
   <g id="patch_2">
    <path d="M 33.7 188.6 
L 269.25 188.6 
L 269.25 14.52 
L 33.7 14.52 
z
" style="fill: #ffffff"/>
   </g>
   <g id="matplotlib.axis_1">
    <g id="xtick_1">
     <g id="line2d_1">
      <defs>
       <path id="mad87a28593" d="M 0 0 
L 0 3.5 
" style="stroke: #000000; stroke-width: 0.8"/>
      </defs>
      <g>
       <use xlink:href="#mad87a28593" x="44.138477" y="188.6" style="stroke: #000000; stroke-width: 0.8"/>
      </g>
     </g>
     <g id="text_1">
      <!-- 0 -->
      <g transform="translate(40.957227 203.198437) scale(0.1 -0.1)">
       <defs>
        <path id="DejaVuSans-30" d="M 2034 4250 
Q 1547 4250 1301 3770 
Q 1056 3291 1056 2328 
Q 1056 1369 1301 889 
Q 1547 409 2034 409 
Q 2525 409 2770 889 
Q 3016 1369 3016 2328 
Q 3016 3291 2770 3770 
Q 2525 4250 2034 4250 
z
M 2034 4750 
Q 2819 4750 3233 4129 
Q 3647 3509 3647 2328 
Q 3647 1150 3233 529 
Q 2819 -91 2034 -91 
Q 1250 -91 836 529 
Q 422 1150 422 2328 
Q 422 3509 836 4129 
Q 1250 4750 2034 4750 
z
" transform="scale(0.015625)"/>
       </defs>
       <use xlink:href="#DejaVuSans-30"/>
      </g>
     </g>
    </g>
    <g id="xtick_2">
     <g id="line2d_2">
      <g>
       <use xlink:href="#mad87a28593" x="87.073086" y="188.6" style="stroke: #000000; stroke-width: 0.8"/>
      </g>
     </g>
     <g id="text_2">
      <!-- 200 -->
      <g transform="translate(77.529336 203.198437) scale(0.1 -0.1)">
       <defs>
        <path id="DejaVuSans-32" d="M 1228 531 
L 3431 531 
L 3431 0 
L 469 0 
L 469 531 
Q 828 903 1448 1529 
Q 2069 2156 2228 2338 
Q 2531 2678 2651 2914 
Q 2772 3150 2772 3378 
Q 2772 3750 2511 3984 
Q 2250 4219 1831 4219 
Q 1534 4219 1204 4116 
Q 875 4013 500 3803 
L 500 4441 
Q 881 4594 1212 4672 
Q 1544 4750 1819 4750 
Q 2544 4750 2975 4387 
Q 3406 4025 3406 3419 
Q 3406 3131 3298 2873 
Q 3191 2616 2906 2266 
Q 2828 2175 2409 1742 
Q 1991 1309 1228 531 
z
" transform="scale(0.015625)"/>
       </defs>
       <use xlink:href="#DejaVuSans-32"/>
       <use xlink:href="#DejaVuSans-30" transform="translate(63.623047 0)"/>
       <use xlink:href="#DejaVuSans-30" transform="translate(127.246094 0)"/>
      </g>
     </g>
    </g>
    <g id="xtick_3">
     <g id="line2d_3">
      <g>
       <use xlink:href="#mad87a28593" x="130.007695" y="188.6" style="stroke: #000000; stroke-width: 0.8"/>
      </g>
     </g>
     <g id="text_3">
      <!-- 400 -->
      <g transform="translate(120.463945 203.198437) scale(0.1 -0.1)">
       <defs>
        <path id="DejaVuSans-34" d="M 2419 4116 
L 825 1625 
L 2419 1625 
L 2419 4116 
z
M 2253 4666 
L 3047 4666 
L 3047 1625 
L 3713 1625 
L 3713 1100 
L 3047 1100 
L 3047 0 
L 2419 0 
L 2419 1100 
L 313 1100 
L 313 1709 
L 2253 4666 
z
" transform="scale(0.015625)"/>
       </defs>
       <use xlink:href="#DejaVuSans-34"/>
       <use xlink:href="#DejaVuSans-30" transform="translate(63.623047 0)"/>
       <use xlink:href="#DejaVuSans-30" transform="translate(127.246094 0)"/>
      </g>
     </g>
    </g>
    <g id="xtick_4">
     <g id="line2d_4">
      <g>
       <use xlink:href="#mad87a28593" x="172.942305" y="188.6" style="stroke: #000000; stroke-width: 0.8"/>
      </g>
     </g>
     <g id="text_4">
      <!-- 600 -->
      <g transform="translate(163.398555 203.198437) scale(0.1 -0.1)">
       <defs>
        <path id="DejaVuSans-36" d="M 2113 2584 
Q 1688 2584 1439 2293 
Q 1191 2003 1191 1497 
Q 1191 994 1439 701 
Q 1688 409 2113 409 
Q 2538 409 2786 701 
Q 3034 994 3034 1497 
Q 3034 2003 2786 2293 
Q 2538 2584 2113 2584 
z
M 3366 4563 
L 3366 3988 
Q 3128 4100 2886 4159 
Q 2644 4219 2406 4219 
Q 1781 4219 1451 3797 
Q 1122 3375 1075 2522 
Q 1259 2794 1537 2939 
Q 1816 3084 2150 3084 
Q 2853 3084 3261 2657 
Q 3669 2231 3669 1497 
Q 3669 778 3244 343 
Q 2819 -91 2113 -91 
Q 1303 -91 875 529 
Q 447 1150 447 2328 
Q 447 3434 972 4092 
Q 1497 4750 2381 4750 
Q 2619 4750 2861 4703 
Q 3103 4656 3366 4563 
z
" transform="scale(0.015625)"/>
       </defs>
       <use xlink:href="#DejaVuSans-36"/>
       <use xlink:href="#DejaVuSans-30" transform="translate(63.623047 0)"/>
       <use xlink:href="#DejaVuSans-30" transform="translate(127.246094 0)"/>
      </g>
     </g>
    </g>
    <g id="xtick_5">
     <g id="line2d_5">
      <g>
       <use xlink:href="#mad87a28593" x="215.876914" y="188.6" style="stroke: #000000; stroke-width: 0.8"/>
      </g>
     </g>
     <g id="text_5">
      <!-- 800 -->
      <g transform="translate(206.333164 203.198437) scale(0.1 -0.1)">
       <defs>
        <path id="DejaVuSans-38" d="M 2034 2216 
Q 1584 2216 1326 1975 
Q 1069 1734 1069 1313 
Q 1069 891 1326 650 
Q 1584 409 2034 409 
Q 2484 409 2743 651 
Q 3003 894 3003 1313 
Q 3003 1734 2745 1975 
Q 2488 2216 2034 2216 
z
M 1403 2484 
Q 997 2584 770 2862 
Q 544 3141 544 3541 
Q 544 4100 942 4425 
Q 1341 4750 2034 4750 
Q 2731 4750 3128 4425 
Q 3525 4100 3525 3541 
Q 3525 3141 3298 2862 
Q 3072 2584 2669 2484 
Q 3125 2378 3379 2068 
Q 3634 1759 3634 1313 
Q 3634 634 3220 271 
Q 2806 -91 2034 -91 
Q 1263 -91 848 271 
Q 434 634 434 1313 
Q 434 1759 690 2068 
Q 947 2378 1403 2484 
z
M 1172 3481 
Q 1172 3119 1398 2916 
Q 1625 2713 2034 2713 
Q 2441 2713 2670 2916 
Q 2900 3119 2900 3481 
Q 2900 3844 2670 4047 
Q 2441 4250 2034 4250 
Q 1625 4250 1398 4047 
Q 1172 3844 1172 3481 
z
" transform="scale(0.015625)"/>
       </defs>
       <use xlink:href="#DejaVuSans-38"/>
       <use xlink:href="#DejaVuSans-30" transform="translate(63.623047 0)"/>
       <use xlink:href="#DejaVuSans-30" transform="translate(127.246094 0)"/>
      </g>
     </g>
    </g>
    <g id="xtick_6">
     <g id="line2d_6">
      <g>
       <use xlink:href="#mad87a28593" x="258.811523" y="188.6" style="stroke: #000000; stroke-width: 0.8"/>
      </g>
     </g>
     <g id="text_6">
      <!-- 1000 -->
      <g transform="translate(246.086523 203.198437) scale(0.1 -0.1)">
       <defs>
        <path id="DejaVuSans-31" d="M 794 531 
L 1825 531 
L 1825 4091 
L 703 3866 
L 703 4441 
L 1819 4666 
L 2450 4666 
L 2450 531 
L 3481 531 
L 3481 0 
L 794 0 
L 794 531 
z
" transform="scale(0.015625)"/>
       </defs>
       <use xlink:href="#DejaVuSans-31"/>
       <use xlink:href="#DejaVuSans-30" transform="translate(63.623047 0)"/>
       <use xlink:href="#DejaVuSans-30" transform="translate(127.246094 0)"/>
       <use xlink:href="#DejaVuSans-30" transform="translate(190.869141 0)"/>
      </g>
     </g>
    </g>
    <g id="text_7">
     <!-- q (nm) -->
     <g transform="translate(134.771094 216.876563) scale(0.1 -0.1)">
      <defs>
       <path id="DejaVuSans-71" d="M 947 1747 
Q 947 1113 1208 752 
Q 1469 391 1925 391 
Q 2381 391 2643 752 
Q 2906 1113 2906 1747 
Q 2906 2381 2643 2742 
Q 2381 3103 1925 3103 
Q 1469 3103 1208 2742 
Q 947 2381 947 1747 
z
M 2906 525 
Q 2725 213 2448 61 
Q 2172 -91 1784 -91 
Q 1150 -91 751 415 
Q 353 922 353 1747 
Q 353 2572 751 3078 
Q 1150 3584 1784 3584 
Q 2172 3584 2448 3432 
Q 2725 3281 2906 2969 
L 2906 3500 
L 3481 3500 
L 3481 -1331 
L 2906 -1331 
L 2906 525 
z
" transform="scale(0.015625)"/>
       <path id="DejaVuSans-20" transform="scale(0.015625)"/>
       <path id="DejaVuSans-28" d="M 1984 4856 
Q 1566 4138 1362 3434 
Q 1159 2731 1159 2009 
Q 1159 1288 1364 580 
Q 1569 -128 1984 -844 
L 1484 -844 
Q 1016 -109 783 600 
Q 550 1309 550 2009 
Q 550 2706 781 3412 
Q 1013 4119 1484 4856 
L 1984 4856 
z
" transform="scale(0.015625)"/>
       <path id="DejaVuSans-6e" d="M 3513 2113 
L 3513 0 
L 2938 0 
L 2938 2094 
Q 2938 2591 2744 2837 
Q 2550 3084 2163 3084 
Q 1697 3084 1428 2787 
Q 1159 2491 1159 1978 
L 1159 0 
L 581 0 
L 581 3500 
L 1159 3500 
L 1159 2956 
Q 1366 3272 1645 3428 
Q 1925 3584 2291 3584 
Q 2894 3584 3203 3211 
Q 3513 2838 3513 2113 
z
" transform="scale(0.015625)"/>
       <path id="DejaVuSans-6d" d="M 3328 2828 
Q 3544 3216 3844 3400 
Q 4144 3584 4550 3584 
Q 5097 3584 5394 3201 
Q 5691 2819 5691 2113 
L 5691 0 
L 5113 0 
L 5113 2094 
Q 5113 2597 4934 2840 
Q 4756 3084 4391 3084 
Q 3944 3084 3684 2787 
Q 3425 2491 3425 1978 
L 3425 0 
L 2847 0 
L 2847 2094 
Q 2847 2600 2669 2842 
Q 2491 3084 2119 3084 
Q 1678 3084 1418 2786 
Q 1159 2488 1159 1978 
L 1159 0 
L 581 0 
L 581 3500 
L 1159 3500 
L 1159 2956 
Q 1356 3278 1631 3431 
Q 1906 3584 2284 3584 
Q 2666 3584 2933 3390 
Q 3200 3197 3328 2828 
z
" transform="scale(0.015625)"/>
       <path id="DejaVuSans-29" d="M 513 4856 
L 1013 4856 
Q 1481 4119 1714 3412 
Q 1947 2706 1947 2009 
Q 1947 1309 1714 600 
Q 1481 -109 1013 -844 
L 513 -844 
Q 928 -128 1133 580 
Q 1338 1288 1338 2009 
Q 1338 2731 1133 3434 
Q 928 4138 513 4856 
z
" transform="scale(0.015625)"/>
      </defs>
      <use xlink:href="#DejaVuSans-71"/>
      <use xlink:href="#DejaVuSans-20" transform="translate(63.476562 0)"/>
      <use xlink:href="#DejaVuSans-28" transform="translate(95.263672 0)"/>
      <use xlink:href="#DejaVuSans-6e" transform="translate(134.277344 0)"/>
      <use xlink:href="#DejaVuSans-6d" transform="translate(197.65625 0)"/>
      <use xlink:href="#DejaVuSans-29" transform="translate(295.068359 0)"/>
     </g>
    </g>
   </g>
   <g id="matplotlib.axis_2">
    <g id="ytick_1">
     <g id="line2d_7">
      <defs>
       <path id="m057942ced2" d="M 0 0 
L -3.5 0 
" style="stroke: #000000; stroke-width: 0.8"/>
      </defs>
      <g>
       <use xlink:href="#m057942ced2" x="33.7" y="180.687273" style="stroke: #000000; stroke-width: 0.8"/>
      </g>
     </g>
     <g id="text_8">
      <!-- 0 -->
      <g transform="translate(20.3375 184.486491) scale(0.1 -0.1)">
       <use xlink:href="#DejaVuSans-30"/>
      </g>
     </g>
    </g>
    <g id="ytick_2">
     <g id="line2d_8">
      <g>
       <use xlink:href="#m057942ced2" x="33.7" y="146.178774" style="stroke: #000000; stroke-width: 0.8"/>
      </g>
     </g>
     <g id="text_9">
      <!-- 20000 -->
      <g transform="translate(-5.1125 149.977993) scale(0.1 -0.1)">
       <use xlink:href="#DejaVuSans-32"/>
       <use xlink:href="#DejaVuSans-30" transform="translate(63.623047 0)"/>
       <use xlink:href="#DejaVuSans-30" transform="translate(127.246094 0)"/>
       <use xlink:href="#DejaVuSans-30" transform="translate(190.869141 0)"/>
       <use xlink:href="#DejaVuSans-30" transform="translate(254.492188 0)"/>
      </g>
     </g>
    </g>
    <g id="ytick_3">
     <g id="line2d_9">
      <g>
       <use xlink:href="#m057942ced2" x="33.7" y="111.670276" style="stroke: #000000; stroke-width: 0.8"/>
      </g>
     </g>
     <g id="text_10">
      <!-- 40000 -->
      <g transform="translate(-5.1125 115.469494) scale(0.1 -0.1)">
       <use xlink:href="#DejaVuSans-34"/>
       <use xlink:href="#DejaVuSans-30" transform="translate(63.623047 0)"/>
       <use xlink:href="#DejaVuSans-30" transform="translate(127.246094 0)"/>
       <use xlink:href="#DejaVuSans-30" transform="translate(190.869141 0)"/>
       <use xlink:href="#DejaVuSans-30" transform="translate(254.492188 0)"/>
      </g>
     </g>
    </g>
    <g id="ytick_4">
     <g id="line2d_10">
      <g>
       <use xlink:href="#m057942ced2" x="33.7" y="77.161777" style="stroke: #000000; stroke-width: 0.8"/>
      </g>
     </g>
     <g id="text_11">
      <!-- 60000 -->
      <g transform="translate(-5.1125 80.960996) scale(0.1 -0.1)">
       <use xlink:href="#DejaVuSans-36"/>
       <use xlink:href="#DejaVuSans-30" transform="translate(63.623047 0)"/>
       <use xlink:href="#DejaVuSans-30" transform="translate(127.246094 0)"/>
       <use xlink:href="#DejaVuSans-30" transform="translate(190.869141 0)"/>
       <use xlink:href="#DejaVuSans-30" transform="translate(254.492188 0)"/>
      </g>
     </g>
    </g>
    <g id="ytick_5">
     <g id="line2d_11">
      <g>
       <use xlink:href="#m057942ced2" x="33.7" y="42.653279" style="stroke: #000000; stroke-width: 0.8"/>
      </g>
     </g>
     <g id="text_12">
      <!-- 80000 -->
      <g transform="translate(-5.1125 46.452497) scale(0.1 -0.1)">
       <use xlink:href="#DejaVuSans-38"/>
       <use xlink:href="#DejaVuSans-30" transform="translate(63.623047 0)"/>
       <use xlink:href="#DejaVuSans-30" transform="translate(127.246094 0)"/>
       <use xlink:href="#DejaVuSans-30" transform="translate(190.869141 0)"/>
       <use xlink:href="#DejaVuSans-30" transform="translate(254.492188 0)"/>
      </g>
     </g>
    </g>
    <g id="text_13">
     <!-- rdf -->
     <g transform="translate(-11.192187 108.462344) rotate(-90) scale(0.1 -0.1)">
      <defs>
       <path id="DejaVuSans-72" d="M 2631 2963 
Q 2534 3019 2420 3045 
Q 2306 3072 2169 3072 
Q 1681 3072 1420 2755 
Q 1159 2438 1159 1844 
L 1159 0 
L 581 0 
L 581 3500 
L 1159 3500 
L 1159 2956 
Q 1341 3275 1631 3429 
Q 1922 3584 2338 3584 
Q 2397 3584 2469 3576 
Q 2541 3569 2628 3553 
L 2631 2963 
z
" transform="scale(0.015625)"/>
       <path id="DejaVuSans-64" d="M 2906 2969 
L 2906 4863 
L 3481 4863 
L 3481 0 
L 2906 0 
L 2906 525 
Q 2725 213 2448 61 
Q 2172 -91 1784 -91 
Q 1150 -91 751 415 
Q 353 922 353 1747 
Q 353 2572 751 3078 
Q 1150 3584 1784 3584 
Q 2172 3584 2448 3432 
Q 2725 3281 2906 2969 
z
M 947 1747 
Q 947 1113 1208 752 
Q 1469 391 1925 391 
Q 2381 391 2643 752 
Q 2906 1113 2906 1747 
Q 2906 2381 2643 2742 
Q 2381 3103 1925 3103 
Q 1469 3103 1208 2742 
Q 947 2381 947 1747 
z
" transform="scale(0.015625)"/>
       <path id="DejaVuSans-66" d="M 2375 4863 
L 2375 4384 
L 1825 4384 
Q 1516 4384 1395 4259 
Q 1275 4134 1275 3809 
L 1275 3500 
L 2222 3500 
L 2222 3053 
L 1275 3053 
L 1275 0 
L 697 0 
L 697 3053 
L 147 3053 
L 147 3500 
L 697 3500 
L 697 3744 
Q 697 4328 969 4595 
Q 1241 4863 1831 4863 
L 2375 4863 
z
" transform="scale(0.015625)"/>
      </defs>
      <use xlink:href="#DejaVuSans-72"/>
      <use xlink:href="#DejaVuSans-64" transform="translate(39.363281 0)"/>
      <use xlink:href="#DejaVuSans-66" transform="translate(102.839844 0)"/>
     </g>
    </g>
   </g>
   <g id="line2d_12">
    <path d="M 44.406818 180.687273 
L 91.634888 180.687273 
L 92.171571 180.479974 
L 93.781619 180.590238 
L 94.318301 180.687273 
L 94.854984 180.594301 
L 95.391667 153.741109 
L 95.928349 22.432727 
L 96.465032 170.468717 
L 97.001715 180.430552 
L 97.538397 179.429339 
L 98.07508 179.125441 
L 98.611762 177.141317 
L 99.148445 174.681364 
L 99.685128 170.534047 
L 100.22181 172.172002 
L 100.758493 175.764027 
L 101.295175 177.539658 
L 101.831858 179.89698 
L 102.368541 180.264112 
L 102.905223 180.133317 
L 103.441906 180.619276 
L 103.978589 180.35336 
L 105.051954 180.558373 
L 106.125319 180.376087 
L 106.662002 180.320233 
L 107.735367 178.795244 
L 108.272049 176.733722 
L 108.808732 175.827022 
L 109.345415 177.087783 
L 110.41878 180.088486 
L 110.955463 180.312323 
L 111.492145 180.26556 
L 112.028828 179.960897 
L 112.56551 179.206149 
L 113.102193 173.446743 
L 113.638876 168.953891 
L 114.175558 168.401764 
L 115.248923 176.289169 
L 115.785606 178.544338 
L 116.322289 178.025333 
L 116.858971 174.94426 
L 117.932337 167.908102 
L 119.005702 177.743429 
L 119.542384 179.804028 
L 121.152432 180.525996 
L 121.689115 180.488458 
L 122.225797 180.608836 
L 122.76248 180.493849 
L 123.299163 180.572787 
L 123.835845 180.423725 
L 124.372528 180.538682 
L 125.445893 180.397886 
L 125.982576 180.116064 
L 126.519258 179.101612 
L 127.592624 175.468144 
L 128.129306 175.670229 
L 128.665989 176.235776 
L 129.739354 172.658882 
L 130.276037 174.982504 
L 130.812719 177.981515 
L 131.349402 179.429599 
L 131.886085 180.190339 
L 132.422767 180.411135 
L 132.95945 180.505398 
L 135.10618 180.427187 
L 135.642863 180.144623 
L 136.179545 179.021796 
L 137.252911 171.116505 
L 138.326276 176.77861 
L 138.862959 175.783351 
L 139.399641 169.540264 
L 139.936324 164.635599 
L 140.473006 172.827932 
L 141.546372 179.578318 
L 142.083054 179.690147 
L 142.619737 180.02153 
L 143.156419 179.418961 
L 143.693102 178.081413 
L 144.229785 175.937089 
L 144.766467 174.358087 
L 145.30315 176.247649 
L 145.839833 175.323328 
L 146.376515 163.642907 
L 146.913198 170.046442 
L 147.44988 177.864185 
L 147.986563 177.959811 
L 148.523246 173.532523 
L 149.059928 171.08565 
L 149.596611 171.871221 
L 150.669976 179.170128 
L 151.206659 180.103172 
L 151.743341 180.067678 
L 152.280024 179.583043 
L 152.816707 177.629944 
L 153.353389 176.23645 
L 153.890072 176.001936 
L 154.426754 178.249386 
L 154.963437 179.713749 
L 155.50012 180.263043 
L 156.036802 180.133411 
L 156.573485 179.287434 
L 157.110167 177.389483 
L 157.64685 176.641028 
L 158.183533 177.616749 
L 159.256898 179.821108 
L 159.793581 180.365468 
L 161.940311 180.549413 
L 163.550359 180.318314 
L 164.087041 179.906081 
L 164.623724 177.623222 
L 165.160407 174.254206 
L 165.697089 173.016166 
L 166.233772 175.31326 
L 166.770455 176.918585 
L 167.307137 177.818338 
L 167.84382 177.421242 
L 168.380502 177.387434 
L 168.917185 178.905601 
L 169.453868 178.707639 
L 169.99055 177.561902 
L 170.527233 175.357807 
L 171.063915 174.155856 
L 171.600598 175.241108 
L 172.137281 175.636989 
L 173.210646 171.199004 
L 173.747329 172.729473 
L 174.820694 178.754879 
L 175.357376 179.201198 
L 175.894059 178.386739 
L 176.430742 177.257586 
L 176.967424 177.054821 
L 177.504107 177.823474 
L 178.040789 177.859722 
L 178.577472 177.644091 
L 179.114155 177.641988 
L 180.18752 177.030928 
L 180.724203 178.726031 
L 181.260885 179.924166 
L 181.797568 180.321308 
L 182.870933 180.575448 
L 184.480981 180.468726 
L 185.017663 180.000473 
L 185.554346 179.037092 
L 186.627711 174.97474 
L 187.164394 176.443747 
L 187.701077 178.563932 
L 188.237759 179.581669 
L 188.774442 179.406956 
L 189.311124 177.351248 
L 189.847807 173.298365 
L 190.38449 173.687932 
L 190.921172 174.238492 
L 191.994537 177.405614 
L 192.53122 177.820267 
L 193.067903 177.172417 
L 193.604585 176.202106 
L 194.677951 179.220493 
L 195.214633 179.723343 
L 195.751316 177.867928 
L 196.287998 176.741122 
L 196.824681 178.020257 
L 197.361364 178.038906 
L 197.898046 177.733678 
L 198.434729 176.147049 
L 198.971411 175.061226 
L 199.508094 175.674616 
L 200.044777 177.991566 
L 200.581459 179.504983 
L 201.118142 180.211763 
L 201.654825 180.330656 
L 202.191507 179.864 
L 203.264872 177.995667 
L 203.801555 177.854254 
L 204.338238 178.031611 
L 204.87492 178.419555 
L 205.411603 178.517372 
L 205.948285 178.878818 
L 206.484968 178.391735 
L 207.021651 177.244071 
L 207.558333 176.872656 
L 208.095016 175.865648 
L 208.631699 176.48038 
L 209.168381 177.359414 
L 209.705064 177.468197 
L 210.241746 176.336175 
L 210.778429 175.82161 
L 211.315112 176.862479 
L 211.851794 178.468277 
L 212.388477 178.659817 
L 213.461842 175.949586 
L 213.998525 176.493356 
L 214.535207 177.516315 
L 215.07189 177.953621 
L 216.145255 178.432182 
L 217.21862 179.649505 
L 217.755303 179.528974 
L 218.828668 177.662436 
L 219.365351 177.455087 
L 219.902033 177.80765 
L 220.438716 177.948253 
L 221.512081 177.608837 
L 222.585447 179.327983 
L 223.122129 179.619788 
L 223.658812 179.039966 
L 224.195494 177.92122 
L 224.732177 175.972542 
L 225.26886 175.410021 
L 226.342225 179.124138 
L 226.878907 180.114383 
L 227.41559 180.338431 
L 227.952273 180.255531 
L 228.488955 179.835843 
L 229.025638 179.267125 
L 230.099003 179.760621 
L 230.635686 179.545932 
L 231.172368 178.540736 
L 231.709051 178.471421 
L 232.782416 179.403758 
L 233.319099 179.384309 
L 233.855781 178.594378 
L 234.392464 178.480645 
L 235.465829 179.811879 
L 236.002512 180.258518 
L 236.539195 180.396569 
L 237.075877 179.980609 
L 237.61256 179.141232 
L 238.149242 177.701215 
L 238.685925 177.047949 
L 239.75929 174.731825 
L 240.295973 175.099968 
L 240.832656 175.266429 
L 241.369338 175.302016 
L 242.442703 178.905495 
L 242.979386 179.398967 
L 244.052751 178.120306 
L 245.126116 176.661754 
L 245.662799 177.466335 
L 246.199482 178.730986 
L 247.272847 179.713646 
L 247.80953 179.073094 
L 248.346212 178.903803 
L 248.882895 179.038631 
L 249.419577 178.848627 
L 249.95626 177.960604 
L 250.492943 177.401941 
L 251.029625 177.720667 
L 251.566308 178.853138 
L 252.10299 179.19988 
L 252.639673 179.014992 
L 253.176356 177.879775 
L 253.713038 177.04476 
L 254.249721 176.537911 
L 254.786404 176.187161 
L 255.323086 176.30653 
L 255.859769 176.90487 
L 256.396451 178.219102 
L 256.933134 178.263215 
L 257.469817 177.928585 
L 258.543182 177.696045 
L 258.543182 177.696045 
" clip-path="url(#pd9882e95a5)" style="fill: none; stroke: #000000; stroke-opacity: 0.5; stroke-width: 0.5; stroke-linecap: square"/>
   </g>
   <g id="line2d_13">
    <path d="M 44.406818 180.687273 
L 91.634888 180.687273 
L 92.171571 180.052421 
L 92.708254 180.066374 
L 93.244936 180.383572 
L 93.781619 180.390103 
L 94.318301 180.687273 
L 94.854984 180.402548 
L 95.391667 180.40848 
L 95.928349 180.687273 
L 96.465032 179.884854 
L 97.001715 180.425203 
L 97.538397 177.091678 
L 98.07508 175.904163 
L 98.611762 169.827783 
L 99.148445 162.294176 
L 99.685128 149.593013 
L 100.22181 154.609254 
L 100.758493 165.609829 
L 101.295175 171.047702 
L 101.831858 178.267 
L 102.368541 179.391344 
L 102.905223 178.990784 
L 103.441906 180.479032 
L 103.978589 179.664664 
L 104.515271 179.883664 
L 105.051954 180.292517 
L 105.588636 179.911494 
L 106.662002 179.563213 
L 107.735367 174.892934 
L 108.272049 168.579523 
L 108.808732 165.802753 
L 109.345415 169.663835 
L 110.41878 179.020196 
L 110.955463 179.86707 
L 111.492145 180.364399 
L 112.028828 180.369483 
L 112.56551 180.530861 
L 113.102193 180.379299 
L 113.638876 180.384037 
L 114.175558 180.687273 
L 114.712241 180.540232 
L 115.248923 178.659652 
L 115.785606 178.547249 
L 116.322289 174.221741 
L 117.932337 141.820037 
L 119.005702 172.32505 
L 119.542384 178.239948 
L 120.61575 180.186407 
L 121.152432 180.31684 
L 121.689115 180.565499 
L 122.76248 180.331857 
L 123.299163 180.570402 
L 123.835845 180.57197 
L 124.372528 180.345978 
L 124.909211 180.687273 
L 125.445893 180.576492 
L 126.519258 180.687273 
L 131.349402 180.687273 
L 131.886085 180.49704 
L 132.422767 180.593309 
L 134.032815 180.41539 
L 134.569498 180.508162 
L 135.10618 180.244765 
L 135.642863 179.462741 
L 136.179545 176.105447 
L 137.252911 152.137007 
L 138.326276 171.688924 
L 138.862959 172.361931 
L 139.399641 159.139351 
L 139.936324 152.91605 
L 140.473006 170.112592 
L 141.009689 176.238791 
L 141.546372 179.915415 
L 142.619737 180.460735 
L 143.156419 180.313792 
L 143.693102 180.317808 
L 144.229785 180.029348 
L 144.766467 180.470297 
L 145.30315 180.544153 
L 145.839833 179.837596 
L 146.376515 169.617013 
L 146.913198 164.53217 
L 147.44988 177.530903 
L 147.986563 180.551454 
L 148.523246 180.687273 
L 151.743341 180.687273 
L 152.280024 180.562024 
L 152.816707 180.687273 
L 153.353389 180.625873 
L 153.890072 180.687273 
L 154.426754 180.506643 
L 156.036802 180.687273 
L 156.573485 180.571408 
L 157.110167 180.687273 
L 164.087041 180.585468 
L 164.623724 180.485474 
L 165.160407 180.63727 
L 165.697089 179.943831 
L 166.233772 179.802967 
L 167.84382 171.450773 
L 168.380502 171.055965 
L 168.917185 175.842392 
L 169.453868 177.282874 
L 169.99055 176.479535 
L 170.527233 173.07669 
L 171.063915 170.549659 
L 171.600598 169.733305 
L 172.137281 169.467357 
L 172.673963 164.064185 
L 173.210646 161.432616 
L 173.747329 164.992327 
L 174.820694 176.999271 
L 175.357376 179.028459 
L 175.894059 179.970078 
L 176.430742 179.808501 
L 178.040789 176.153355 
L 178.577472 176.67573 
L 179.650837 180.009289 
L 181.260885 180.531472 
L 182.870933 180.382861 
L 183.407616 180.536238 
L 184.480981 180.315439 
L 185.017663 179.358858 
L 185.554346 177.391395 
L 186.091029 174.799438 
L 186.627711 173.400849 
L 187.164394 175.138103 
L 187.701077 177.702412 
L 188.237759 179.241206 
L 188.774442 180.372195 
L 189.311124 180.27027 
L 190.38449 180.276369 
L 190.921172 180.245376 
L 191.457855 179.944884 
L 191.994537 179.213261 
L 192.53122 177.627504 
L 193.067903 174.644765 
L 193.604585 173.573492 
L 195.214633 179.788827 
L 195.751316 179.699592 
L 196.287998 179.010546 
L 196.824681 176.697648 
L 197.361364 173.886827 
L 197.898046 173.934211 
L 198.434729 172.996767 
L 198.971411 173.96644 
L 199.508094 175.438718 
L 200.044777 178.186488 
L 200.581459 179.580097 
L 201.118142 180.092885 
L 201.654825 180.244514 
L 202.191507 178.547122 
L 203.264872 173.080536 
L 203.801555 173.189036 
L 204.87492 178.703019 
L 205.411603 179.335682 
L 205.948285 178.253736 
L 206.484968 176.185794 
L 207.021651 175.580495 
L 207.558333 177.725571 
L 208.631699 179.821148 
L 209.168381 179.584755 
L 209.705064 178.763678 
L 210.241746 176.174742 
L 210.778429 176.203757 
L 211.315112 177.3855 
L 211.851794 179.072974 
L 212.388477 180.376819 
L 212.925159 180.53303 
L 213.461842 180.43183 
L 213.998525 180.611123 
L 214.535207 180.662049 
L 215.07189 180.511816 
L 216.145255 180.588259 
L 218.291986 180.397509 
L 218.828668 179.727318 
L 219.365351 178.397483 
L 219.902033 176.20673 
L 220.438716 175.079398 
L 220.975399 175.347605 
L 221.512081 176.054892 
L 223.122129 180.092878 
L 223.658812 179.960083 
L 224.195494 179.106013 
L 224.732177 176.19618 
L 225.26886 174.704807 
L 225.805542 175.561197 
L 226.342225 178.260631 
L 226.878907 179.985483 
L 227.41559 180.273023 
L 229.025638 180.430177 
L 229.562321 180.410362 
L 230.099003 179.6919 
L 230.635686 178.413185 
L 231.172368 174.74157 
L 231.709051 174.130204 
L 233.319099 179.807354 
L 233.855781 180.483797 
L 234.392464 180.363546 
L 236.002512 180.408745 
L 236.539195 180.232241 
L 237.075877 179.054316 
L 238.149242 175.453331 
L 238.685925 176.952779 
L 239.75929 177.433804 
L 240.295973 175.567259 
L 241.369338 172.516405 
L 242.442703 178.824919 
L 242.979386 179.520313 
L 243.516069 178.937028 
L 244.589434 175.638457 
L 245.126116 175.592844 
L 245.662799 177.170812 
L 246.199482 179.234334 
L 247.272847 180.350053 
L 247.80953 180.422446 
L 248.346212 180.371151 
L 248.882895 180.040865 
L 249.419577 178.758184 
L 249.95626 176.71088 
L 250.492943 175.991985 
L 251.029625 176.409857 
L 251.566308 178.525564 
L 252.10299 179.738991 
L 252.639673 180.299801 
L 253.176356 180.285029 
L 253.713038 180.053644 
L 255.323086 176.023684 
L 255.859769 176.341377 
L 256.396451 178.362746 
L 256.933134 178.633227 
L 257.469817 177.404434 
L 258.006499 175.323373 
L 258.543182 173.932299 
L 258.543182 173.932299 
" clip-path="url(#pd9882e95a5)" style="fill: none; stroke: #0000ff; stroke-opacity: 0.5; stroke-linecap: square"/>
   </g>
   <g id="line2d_14">
    <path d="M 44.406818 180.687273 
L 109.882097 180.687273 
L 110.955463 180.104017 
L 111.492145 178.96528 
L 112.028828 177.297517 
L 112.56551 172.901439 
L 113.102193 141.81412 
L 113.638876 117.344619 
L 114.175558 113.799497 
L 115.248923 160.3467 
L 115.785606 172.824668 
L 116.322289 177.688766 
L 116.858971 179.94867 
L 117.395654 179.959453 
L 117.932337 180.209091 
L 118.469019 179.273371 
L 119.005702 179.525853 
L 119.542384 180.229294 
L 120.079067 180.00998 
L 120.61575 180.019452 
L 121.152432 180.467757 
L 121.689115 179.821323 
L 122.225797 180.687273 
L 122.76248 180.26604 
L 123.299163 180.479502 
L 123.835845 179.867345 
L 124.372528 180.485024 
L 124.909211 179.489852 
L 125.445893 179.702553 
L 125.982576 178.743575 
L 126.519258 172.437922 
L 127.592624 154.328382 
L 128.129306 160.385573 
L 128.665989 172.669371 
L 129.202671 178.52808 
L 129.739354 180.154222 
L 130.812719 180.513963 
L 131.886085 180.518177 
L 132.422767 180.35318 
L 132.95945 180.687273 
L 138.326276 180.687273 
L 138.862959 180.542169 
L 139.399641 180.687273 
L 143.156419 180.687273 
L 143.693102 180.424542 
L 144.229785 179.907511 
L 144.766467 180.558695 
L 145.30315 179.669534 
L 145.839833 166.966569 
L 146.376515 113.424938 
L 146.913198 156.15802 
L 147.44988 176.661758 
L 147.986563 180.204362 
L 148.523246 180.687273 
L 159.793581 180.687273 
L 160.330263 180.494394 
L 160.866946 180.687273 
L 161.403628 180.592591 
L 161.940311 180.687273 
L 163.013676 180.410869 
L 163.550359 180.687273 
L 164.087041 180.59678 
L 164.623724 180.687273 
L 165.697089 180.599161 
L 166.233772 180.687273 
L 166.770455 180.34097 
L 168.380502 180.349887 
L 168.917185 179.683802 
L 169.453868 176.127347 
L 170.527233 165.690248 
L 171.063915 163.634667 
L 171.600598 170.669927 
L 172.137281 173.296732 
L 172.673963 171.703418 
L 173.210646 163.41572 
L 173.747329 165.341104 
L 174.284011 172.231804 
L 174.820694 177.256574 
L 175.357376 179.477426 
L 175.894059 179.937265 
L 176.430742 180.166519 
L 176.967424 179.580369 
L 177.504107 178.784049 
L 178.040789 176.40297 
L 178.577472 172.907312 
L 179.114155 174.041026 
L 179.650837 177.07136 
L 180.18752 178.295647 
L 180.724203 180.059163 
L 181.260885 180.133314 
L 181.797568 180.412449 
L 182.33425 180.414579 
L 182.870933 180.687273 
L 183.407616 180.485893 
L 184.480981 180.488962 
L 185.017663 179.965665 
L 185.554346 180.29665 
L 186.091029 180.105758 
L 187.164394 180.432687 
L 187.701077 180.434586 
L 188.237759 180.31106 
L 189.311124 179.204595 
L 189.847807 176.27195 
L 190.921172 157.17987 
L 191.457855 158.250641 
L 191.994537 166.274714 
L 192.53122 171.404498 
L 193.067903 172.586571 
L 193.604585 169.20615 
L 194.677951 177.584875 
L 195.214633 179.204125 
L 195.751316 180.234143 
L 200.044777 180.687273 
L 200.581459 180.52768 
L 203.264872 180.687273 
L 206.484968 180.588475 
L 207.021651 180.392828 
L 207.558333 179.56597 
L 208.095016 176.47354 
L 208.631699 172.266614 
L 209.168381 172.608117 
L 209.705064 174.845247 
L 210.778429 180.030863 
L 211.315112 180.174828 
L 211.851794 180.594696 
L 212.925159 180.367363 
L 213.461842 180.051503 
L 213.998525 179.153003 
L 215.07189 172.88918 
L 215.608573 173.735002 
L 216.145255 176.242651 
L 216.681938 179.419023 
L 217.21862 180.078804 
L 218.291986 180.601417 
L 219.365351 180.602466 
L 222.048764 180.605005 
L 222.585447 180.401063 
L 223.658812 179.717687 
L 224.195494 175.747718 
L 224.732177 169.309839 
L 225.26886 165.80552 
L 226.342225 177.196831 
L 226.878907 179.400658 
L 227.41559 180.18339 
L 227.952273 180.456067 
L 229.025638 180.611096 
L 230.099003 180.687273 
L 230.635686 180.462671 
L 231.172368 180.650054 
L 232.782416 180.650686 
L 234.392464 180.651303 
L 234.929147 180.436899 
L 236.539195 180.546587 
L 237.075877 180.652296 
L 237.61256 180.409014 
L 238.149242 179.787926 
L 238.685925 177.59132 
L 239.222608 171.24517 
L 239.75929 163.19935 
L 240.295973 166.069542 
L 240.832656 172.576954 
L 241.369338 177.507621 
L 241.906021 179.855059 
L 242.979386 180.357972 
L 243.516069 180.032211 
L 244.052751 178.83036 
L 244.589434 175.729592 
L 245.126116 171.759435 
L 246.736164 179.703942 
L 247.272847 180.466404 
L 247.80953 180.561725 
L 248.346212 180.437498 
L 248.882895 180.594097 
L 249.95626 180.472125 
L 250.492943 180.56497 
L 251.566308 179.96103 
L 252.10299 178.700397 
L 252.639673 176.644095 
L 253.176356 170.4673 
L 253.713038 166.636283 
L 254.249721 167.474798 
L 255.323086 173.389013 
L 255.859769 174.645861 
L 256.396451 177.335042 
L 256.933134 179.33588 
L 257.469817 180.086492 
L 258.543182 180.573982 
L 258.543182 180.573982 
" clip-path="url(#pd9882e95a5)" style="fill: none; stroke: #ff0000; stroke-opacity: 0.5; stroke-linecap: square"/>
   </g>
   <g id="patch_3">
    <path d="M 33.7 188.6 
L 33.7 14.52 
" style="fill: none; stroke: #000000; stroke-width: 0.8; stroke-linejoin: miter; stroke-linecap: square"/>
   </g>
   <g id="patch_4">
    <path d="M 269.25 188.6 
L 269.25 14.52 
" style="fill: none; stroke: #000000; stroke-width: 0.8; stroke-linejoin: miter; stroke-linecap: square"/>
   </g>
   <g id="patch_5">
    <path d="M 33.7 188.6 
L 269.25 188.6 
" style="fill: none; stroke: #000000; stroke-width: 0.8; stroke-linejoin: miter; stroke-linecap: square"/>
   </g>
   <g id="patch_6">
    <path d="M 33.7 14.52 
L 269.25 14.52 
" style="fill: none; stroke: #000000; stroke-width: 0.8; stroke-linejoin: miter; stroke-linecap: square"/>
   </g>
   <g id="legend_1">
    <g id="patch_7">
     <path d="M 213.917188 66.554375 
L 262.25 66.554375 
Q 264.25 66.554375 264.25 64.554375 
L 264.25 21.52 
Q 264.25 19.52 262.25 19.52 
L 213.917188 19.52 
Q 211.917188 19.52 211.917188 21.52 
L 211.917188 64.554375 
Q 211.917188 66.554375 213.917188 66.554375 
z
" style="fill: #ffffff; opacity: 0.8; stroke: #cccccc; stroke-linejoin: miter"/>
    </g>
    <g id="line2d_15">
     <path d="M 215.917188 27.618438 
L 225.917188 27.618438 
L 235.917188 27.618438 
" style="fill: none; stroke: #000000; stroke-opacity: 0.5; stroke-width: 0.5; stroke-linecap: square"/>
    </g>
    <g id="text_14">
     <!-- all -->
     <g transform="translate(243.917188 31.118438) scale(0.1 -0.1)">
      <defs>
       <path id="DejaVuSans-61" d="M 2194 1759 
Q 1497 1759 1228 1600 
Q 959 1441 959 1056 
Q 959 750 1161 570 
Q 1363 391 1709 391 
Q 2188 391 2477 730 
Q 2766 1069 2766 1631 
L 2766 1759 
L 2194 1759 
z
M 3341 1997 
L 3341 0 
L 2766 0 
L 2766 531 
Q 2569 213 2275 61 
Q 1981 -91 1556 -91 
Q 1019 -91 701 211 
Q 384 513 384 1019 
Q 384 1609 779 1909 
Q 1175 2209 1959 2209 
L 2766 2209 
L 2766 2266 
Q 2766 2663 2505 2880 
Q 2244 3097 1772 3097 
Q 1472 3097 1187 3025 
Q 903 2953 641 2809 
L 641 3341 
Q 956 3463 1253 3523 
Q 1550 3584 1831 3584 
Q 2591 3584 2966 3190 
Q 3341 2797 3341 1997 
z
" transform="scale(0.015625)"/>
       <path id="DejaVuSans-6c" d="M 603 4863 
L 1178 4863 
L 1178 0 
L 603 0 
L 603 4863 
z
" transform="scale(0.015625)"/>
      </defs>
      <use xlink:href="#DejaVuSans-61"/>
      <use xlink:href="#DejaVuSans-6c" transform="translate(61.279297 0)"/>
      <use xlink:href="#DejaVuSans-6c" transform="translate(89.0625 0)"/>
     </g>
    </g>
    <g id="line2d_16">
     <path d="M 215.917188 42.296563 
L 225.917188 42.296563 
L 235.917188 42.296563 
" style="fill: none; stroke: #0000ff; stroke-opacity: 0.5; stroke-linecap: square"/>
    </g>
    <g id="text_15">
     <!-- 1-1 -->
     <g transform="translate(243.917188 45.796563) scale(0.1 -0.1)">
      <defs>
       <path id="DejaVuSans-2d" d="M 313 2009 
L 1997 2009 
L 1997 1497 
L 313 1497 
L 313 2009 
z
" transform="scale(0.015625)"/>
      </defs>
      <use xlink:href="#DejaVuSans-31"/>
      <use xlink:href="#DejaVuSans-2d" transform="translate(63.623047 0)"/>
      <use xlink:href="#DejaVuSans-31" transform="translate(99.707031 0)"/>
     </g>
    </g>
    <g id="line2d_17">
     <path d="M 215.917188 56.974688 
L 225.917188 56.974688 
L 235.917188 56.974688 
" style="fill: none; stroke: #ff0000; stroke-opacity: 0.5; stroke-linecap: square"/>
    </g>
    <g id="text_16">
     <!-- 2-2 -->
     <g transform="translate(243.917188 60.474688) scale(0.1 -0.1)">
      <use xlink:href="#DejaVuSans-32"/>
      <use xlink:href="#DejaVuSans-2d" transform="translate(63.623047 0)"/>
      <use xlink:href="#DejaVuSans-32" transform="translate(99.707031 0)"/>
     </g>
    </g>
   </g>
  </g>
 </g>
 <defs>
  <clipPath id="pd9882e95a5">
   <rect x="33.7" y="14.52" width="235.55" height="174.08"/>
  </clipPath>
 </defs>
</svg>
