<?xml version="1.0" encoding="utf-8" standalone="no"?>
<!DOCTYPE svg PUBLIC "-//W3C//DTD SVG 1.1//EN"
  "http://www.w3.org/Graphics/SVG/1.1/DTD/svg11.dtd">
<svg xmlns:xlink="http://www.w3.org/1999/xlink" width="288pt" height="216pt" viewBox="0 0 288 216" xmlns="http://www.w3.org/2000/svg" version="1.1">
 <metadata>
  <rdf:RDF xmlns:dc="http://purl.org/dc/elements/1.1/" xmlns:cc="http://creativecommons.org/ns#" xmlns:rdf="http://www.w3.org/1999/02/22-rdf-syntax-ns#">
   <cc:Work>
    <dc:type rdf:resource="http://purl.org/dc/dcmitype/StillImage"/>
    <dc:date>2025-09-17T22:38:23.950766</dc:date>
    <dc:format>image/svg+xml</dc:format>
    <dc:creator>
     <cc:Agent>
      <dc:title>Matplotlib v3.10.0, https://matplotlib.org/</dc:title>
     </cc:Agent>
    </dc:creator>
   </cc:Work>
  </rdf:RDF>
 </metadata>
 <defs>
  <style type="text/css">*{stroke-linejoin: round; stroke-linecap: butt}</style>
 </defs>
 <g id="figure_1">
  <g id="patch_1">
   <path d="M 0 216 
L 288 216 
L 288 0 
L 0 0 
z
" style="fill: #ffffff"/>
  </g>
  <g id="axes_1">
   <g id="patch_2">
    <path d="M 33.7 188.6 
L 269.25 188.6 
L 269.25 14.52 
L 33.7 14.52 
z
" style="fill: #ffffff"/>
   </g>
   <g id="matplotlib.axis_1">
    <g id="xtick_1">
     <g id="line2d_1">
      <defs>
       <path id="m17f979d2dc" d="M 0 0 
L 0 3.5 
" style="stroke: #000000; stroke-width: 0.8"/>
      </defs>
      <g>
       <use xlink:href="#m17f979d2dc" x="44.138477" y="188.6" style="stroke: #000000; stroke-width: 0.8"/>
      </g>
     </g>
     <g id="text_1">
      <!-- 0 -->
      <g transform="translate(40.957227 203.198437) scale(0.1 -0.1)">
       <defs>
        <path id="DejaVuSans-30" d="M 2034 4250 
Q 1547 4250 1301 3770 
Q 1056 3291 1056 2328 
Q 1056 1369 1301 889 
Q 1547 409 2034 409 
Q 2525 409 2770 889 
Q 3016 1369 3016 2328 
Q 3016 3291 2770 3770 
Q 2525 4250 2034 4250 
z
M 2034 4750 
Q 2819 4750 3233 4129 
Q 3647 3509 3647 2328 
Q 3647 1150 3233 529 
Q 2819 -91 2034 -91 
Q 1250 -91 836 529 
Q 422 1150 422 2328 
Q 422 3509 836 4129 
Q 1250 4750 2034 4750 
z
" transform="scale(0.015625)"/>
       </defs>
       <use xlink:href="#DejaVuSans-30"/>
      </g>
     </g>
    </g>
    <g id="xtick_2">
     <g id="line2d_2">
      <g>
       <use xlink:href="#m17f979d2dc" x="87.073086" y="188.6" style="stroke: #000000; stroke-width: 0.8"/>
      </g>
     </g>
     <g id="text_2">
      <!-- 200 -->
      <g transform="translate(77.529336 203.198437) scale(0.1 -0.1)">
       <defs>
        <path id="DejaVuSans-32" d="M 1228 531 
L 3431 531 
L 3431 0 
L 469 0 
L 469 531 
Q 828 903 1448 1529 
Q 2069 2156 2228 2338 
Q 2531 2678 2651 2914 
Q 2772 3150 2772 3378 
Q 2772 3750 2511 3984 
Q 2250 4219 1831 4219 
Q 1534 4219 1204 4116 
Q 875 4013 500 3803 
L 500 4441 
Q 881 4594 1212 4672 
Q 1544 4750 1819 4750 
Q 2544 4750 2975 4387 
Q 3406 4025 3406 3419 
Q 3406 3131 3298 2873 
Q 3191 2616 2906 2266 
Q 2828 2175 2409 1742 
Q 1991 1309 1228 531 
z
" transform="scale(0.015625)"/>
       </defs>
       <use xlink:href="#DejaVuSans-32"/>
       <use xlink:href="#DejaVuSans-30" transform="translate(63.623047 0)"/>
       <use xlink:href="#DejaVuSans-30" transform="translate(127.246094 0)"/>
      </g>
     </g>
    </g>
    <g id="xtick_3">
     <g id="line2d_3">
      <g>
       <use xlink:href="#m17f979d2dc" x="130.007695" y="188.6" style="stroke: #000000; stroke-width: 0.8"/>
      </g>
     </g>
     <g id="text_3">
      <!-- 400 -->
      <g transform="translate(120.463945 203.198437) scale(0.1 -0.1)">
       <defs>
        <path id="DejaVuSans-34" d="M 2419 4116 
L 825 1625 
L 2419 1625 
L 2419 4116 
z
M 2253 4666 
L 3047 4666 
L 3047 1625 
L 3713 1625 
L 3713 1100 
L 3047 1100 
L 3047 0 
L 2419 0 
L 2419 1100 
L 313 1100 
L 313 1709 
L 2253 4666 
z
" transform="scale(0.015625)"/>
       </defs>
       <use xlink:href="#DejaVuSans-34"/>
       <use xlink:href="#DejaVuSans-30" transform="translate(63.623047 0)"/>
       <use xlink:href="#DejaVuSans-30" transform="translate(127.246094 0)"/>
      </g>
     </g>
    </g>
    <g id="xtick_4">
     <g id="line2d_4">
      <g>
       <use xlink:href="#m17f979d2dc" x="172.942305" y="188.6" style="stroke: #000000; stroke-width: 0.8"/>
      </g>
     </g>
     <g id="text_4">
      <!-- 600 -->
      <g transform="translate(163.398555 203.198437) scale(0.1 -0.1)">
       <defs>
        <path id="DejaVuSans-36" d="M 2113 2584 
Q 1688 2584 1439 2293 
Q 1191 2003 1191 1497 
Q 1191 994 1439 701 
Q 1688 409 2113 409 
Q 2538 409 2786 701 
Q 3034 994 3034 1497 
Q 3034 2003 2786 2293 
Q 2538 2584 2113 2584 
z
M 3366 4563 
L 3366 3988 
Q 3128 4100 2886 4159 
Q 2644 4219 2406 4219 
Q 1781 4219 1451 3797 
Q 1122 3375 1075 2522 
Q 1259 2794 1537 2939 
Q 1816 3084 2150 3084 
Q 2853 3084 3261 2657 
Q 3669 2231 3669 1497 
Q 3669 778 3244 343 
Q 2819 -91 2113 -91 
Q 1303 -91 875 529 
Q 447 1150 447 2328 
Q 447 3434 972 4092 
Q 1497 4750 2381 4750 
Q 2619 4750 2861 4703 
Q 3103 4656 3366 4563 
z
" transform="scale(0.015625)"/>
       </defs>
       <use xlink:href="#DejaVuSans-36"/>
       <use xlink:href="#DejaVuSans-30" transform="translate(63.623047 0)"/>
       <use xlink:href="#DejaVuSans-30" transform="translate(127.246094 0)"/>
      </g>
     </g>
    </g>
    <g id="xtick_5">
     <g id="line2d_5">
      <g>
       <use xlink:href="#m17f979d2dc" x="215.876914" y="188.6" style="stroke: #000000; stroke-width: 0.8"/>
      </g>
     </g>
     <g id="text_5">
      <!-- 800 -->
      <g transform="translate(206.333164 203.198437) scale(0.1 -0.1)">
       <defs>
        <path id="DejaVuSans-38" d="M 2034 2216 
Q 1584 2216 1326 1975 
Q 1069 1734 1069 1313 
Q 1069 891 1326 650 
Q 1584 409 2034 409 
Q 2484 409 2743 651 
Q 3003 894 3003 1313 
Q 3003 1734 2745 1975 
Q 2488 2216 2034 2216 
z
M 1403 2484 
Q 997 2584 770 2862 
Q 544 3141 544 3541 
Q 544 4100 942 4425 
Q 1341 4750 2034 4750 
Q 2731 4750 3128 4425 
Q 3525 4100 3525 3541 
Q 3525 3141 3298 2862 
Q 3072 2584 2669 2484 
Q 3125 2378 3379 2068 
Q 3634 1759 3634 1313 
Q 3634 634 3220 271 
Q 2806 -91 2034 -91 
Q 1263 -91 848 271 
Q 434 634 434 1313 
Q 434 1759 690 2068 
Q 947 2378 1403 2484 
z
M 1172 3481 
Q 1172 3119 1398 2916 
Q 1625 2713 2034 2713 
Q 2441 2713 2670 2916 
Q 2900 3119 2900 3481 
Q 2900 3844 2670 4047 
Q 2441 4250 2034 4250 
Q 1625 4250 1398 4047 
Q 1172 3844 1172 3481 
z
" transform="scale(0.015625)"/>
       </defs>
       <use xlink:href="#DejaVuSans-38"/>
       <use xlink:href="#DejaVuSans-30" transform="translate(63.623047 0)"/>
       <use xlink:href="#DejaVuSans-30" transform="translate(127.246094 0)"/>
      </g>
     </g>
    </g>
    <g id="xtick_6">
     <g id="line2d_6">
      <g>
       <use xlink:href="#m17f979d2dc" x="258.811523" y="188.6" style="stroke: #000000; stroke-width: 0.8"/>
      </g>
     </g>
     <g id="text_6">
      <!-- 1000 -->
      <g transform="translate(246.086523 203.198437) scale(0.1 -0.1)">
       <defs>
        <path id="DejaVuSans-31" d="M 794 531 
L 1825 531 
L 1825 4091 
L 703 3866 
L 703 4441 
L 1819 4666 
L 2450 4666 
L 2450 531 
L 3481 531 
L 3481 0 
L 794 0 
L 794 531 
z
" transform="scale(0.015625)"/>
       </defs>
       <use xlink:href="#DejaVuSans-31"/>
       <use xlink:href="#DejaVuSans-30" transform="translate(63.623047 0)"/>
       <use xlink:href="#DejaVuSans-30" transform="translate(127.246094 0)"/>
       <use xlink:href="#DejaVuSans-30" transform="translate(190.869141 0)"/>
      </g>
     </g>
    </g>
    <g id="text_7">
     <!-- q (nm) -->
     <g transform="translate(134.771094 216.876563) scale(0.1 -0.1)">
      <defs>
       <path id="DejaVuSans-71" d="M 947 1747 
Q 947 1113 1208 752 
Q 1469 391 1925 391 
Q 2381 391 2643 752 
Q 2906 1113 2906 1747 
Q 2906 2381 2643 2742 
Q 2381 3103 1925 3103 
Q 1469 3103 1208 2742 
Q 947 2381 947 1747 
z
M 2906 525 
Q 2725 213 2448 61 
Q 2172 -91 1784 -91 
Q 1150 -91 751 415 
Q 353 922 353 1747 
Q 353 2572 751 3078 
Q 1150 3584 1784 3584 
Q 2172 3584 2448 3432 
Q 2725 3281 2906 2969 
L 2906 3500 
L 3481 3500 
L 3481 -1331 
L 2906 -1331 
L 2906 525 
z
" transform="scale(0.015625)"/>
       <path id="DejaVuSans-20" transform="scale(0.015625)"/>
       <path id="DejaVuSans-28" d="M 1984 4856 
Q 1566 4138 1362 3434 
Q 1159 2731 1159 2009 
Q 1159 1288 1364 580 
Q 1569 -128 1984 -844 
L 1484 -844 
Q 1016 -109 783 600 
Q 550 1309 550 2009 
Q 550 2706 781 3412 
Q 1013 4119 1484 4856 
L 1984 4856 
z
" transform="scale(0.015625)"/>
       <path id="DejaVuSans-6e" d="M 3513 2113 
L 3513 0 
L 2938 0 
L 2938 2094 
Q 2938 2591 2744 2837 
Q 2550 3084 2163 3084 
Q 1697 3084 1428 2787 
Q 1159 2491 1159 1978 
L 1159 0 
L 581 0 
L 581 3500 
L 1159 3500 
L 1159 2956 
Q 1366 3272 1645 3428 
Q 1925 3584 2291 3584 
Q 2894 3584 3203 3211 
Q 3513 2838 3513 2113 
z
" transform="scale(0.015625)"/>
       <path id="DejaVuSans-6d" d="M 3328 2828 
Q 3544 3216 3844 3400 
Q 4144 3584 4550 3584 
Q 5097 3584 5394 3201 
Q 5691 2819 5691 2113 
L 5691 0 
L 5113 0 
L 5113 2094 
Q 5113 2597 4934 2840 
Q 4756 3084 4391 3084 
Q 3944 3084 3684 2787 
Q 3425 2491 3425 1978 
L 3425 0 
L 2847 0 
L 2847 2094 
Q 2847 2600 2669 2842 
Q 2491 3084 2119 3084 
Q 1678 3084 1418 2786 
Q 1159 2488 1159 1978 
L 1159 0 
L 581 0 
L 581 3500 
L 1159 3500 
L 1159 2956 
Q 1356 3278 1631 3431 
Q 1906 3584 2284 3584 
Q 2666 3584 2933 3390 
Q 3200 3197 3328 2828 
z
" transform="scale(0.015625)"/>
       <path id="DejaVuSans-29" d="M 513 4856 
L 1013 4856 
Q 1481 4119 1714 3412 
Q 1947 2706 1947 2009 
Q 1947 1309 1714 600 
Q 1481 -109 1013 -844 
L 513 -844 
Q 928 -128 1133 580 
Q 1338 1288 1338 2009 
Q 1338 2731 1133 3434 
Q 928 4138 513 4856 
z
" transform="scale(0.015625)"/>
      </defs>
      <use xlink:href="#DejaVuSans-71"/>
      <use xlink:href="#DejaVuSans-20" transform="translate(63.476562 0)"/>
      <use xlink:href="#DejaVuSans-28" transform="translate(95.263672 0)"/>
      <use xlink:href="#DejaVuSans-6e" transform="translate(134.277344 0)"/>
      <use xlink:href="#DejaVuSans-6d" transform="translate(197.65625 0)"/>
      <use xlink:href="#DejaVuSans-29" transform="translate(295.068359 0)"/>
     </g>
    </g>
   </g>
   <g id="matplotlib.axis_2">
    <g id="ytick_1">
     <g id="line2d_7">
      <defs>
       <path id="m697b9c7358" d="M 0 0 
L -3.5 0 
" style="stroke: #000000; stroke-width: 0.8"/>
      </defs>
      <g>
       <use xlink:href="#m697b9c7358" x="33.7" y="180.687273" style="stroke: #000000; stroke-width: 0.8"/>
      </g>
     </g>
     <g id="text_8">
      <!-- 0 -->
      <g transform="translate(20.3375 184.486491) scale(0.1 -0.1)">
       <use xlink:href="#DejaVuSans-30"/>
      </g>
     </g>
    </g>
    <g id="ytick_2">
     <g id="line2d_8">
      <g>
       <use xlink:href="#m697b9c7358" x="33.7" y="138.327255" style="stroke: #000000; stroke-width: 0.8"/>
      </g>
     </g>
     <g id="text_9">
      <!-- 10000 -->
      <g transform="translate(-5.1125 142.126473) scale(0.1 -0.1)">
       <use xlink:href="#DejaVuSans-31"/>
       <use xlink:href="#DejaVuSans-30" transform="translate(63.623047 0)"/>
       <use xlink:href="#DejaVuSans-30" transform="translate(127.246094 0)"/>
       <use xlink:href="#DejaVuSans-30" transform="translate(190.869141 0)"/>
       <use xlink:href="#DejaVuSans-30" transform="translate(254.492188 0)"/>
      </g>
     </g>
    </g>
    <g id="ytick_3">
     <g id="line2d_9">
      <g>
       <use xlink:href="#m697b9c7358" x="33.7" y="95.967237" style="stroke: #000000; stroke-width: 0.8"/>
      </g>
     </g>
     <g id="text_10">
      <!-- 20000 -->
      <g transform="translate(-5.1125 99.766455) scale(0.1 -0.1)">
       <use xlink:href="#DejaVuSans-32"/>
       <use xlink:href="#DejaVuSans-30" transform="translate(63.623047 0)"/>
       <use xlink:href="#DejaVuSans-30" transform="translate(127.246094 0)"/>
       <use xlink:href="#DejaVuSans-30" transform="translate(190.869141 0)"/>
       <use xlink:href="#DejaVuSans-30" transform="translate(254.492188 0)"/>
      </g>
     </g>
    </g>
    <g id="ytick_4">
     <g id="line2d_10">
      <g>
       <use xlink:href="#m697b9c7358" x="33.7" y="53.607219" style="stroke: #000000; stroke-width: 0.8"/>
      </g>
     </g>
     <g id="text_11">
      <!-- 30000 -->
      <g transform="translate(-5.1125 57.406437) scale(0.1 -0.1)">
       <defs>
        <path id="DejaVuSans-33" d="M 2597 2516 
Q 3050 2419 3304 2112 
Q 3559 1806 3559 1356 
Q 3559 666 3084 287 
Q 2609 -91 1734 -91 
Q 1441 -91 1130 -33 
Q 819 25 488 141 
L 488 750 
Q 750 597 1062 519 
Q 1375 441 1716 441 
Q 2309 441 2620 675 
Q 2931 909 2931 1356 
Q 2931 1769 2642 2001 
Q 2353 2234 1838 2234 
L 1294 2234 
L 1294 2753 
L 1863 2753 
Q 2328 2753 2575 2939 
Q 2822 3125 2822 3475 
Q 2822 3834 2567 4026 
Q 2313 4219 1838 4219 
Q 1578 4219 1281 4162 
Q 984 4106 628 3988 
L 628 4550 
Q 988 4650 1302 4700 
Q 1616 4750 1894 4750 
Q 2613 4750 3031 4423 
Q 3450 4097 3450 3541 
Q 3450 3153 3228 2886 
Q 3006 2619 2597 2516 
z
" transform="scale(0.015625)"/>
       </defs>
       <use xlink:href="#DejaVuSans-33"/>
       <use xlink:href="#DejaVuSans-30" transform="translate(63.623047 0)"/>
       <use xlink:href="#DejaVuSans-30" transform="translate(127.246094 0)"/>
       <use xlink:href="#DejaVuSans-30" transform="translate(190.869141 0)"/>
       <use xlink:href="#DejaVuSans-30" transform="translate(254.492188 0)"/>
      </g>
     </g>
    </g>
    <g id="text_12">
     <!-- rdf -->
     <g transform="translate(-11.192187 108.462344) rotate(-90) scale(0.1 -0.1)">
      <defs>
       <path id="DejaVuSans-72" d="M 2631 2963 
Q 2534 3019 2420 3045 
Q 2306 3072 2169 3072 
Q 1681 3072 1420 2755 
Q 1159 2438 1159 1844 
L 1159 0 
L 581 0 
L 581 3500 
L 1159 3500 
L 1159 2956 
Q 1341 3275 1631 3429 
Q 1922 3584 2338 3584 
Q 2397 3584 2469 3576 
Q 2541 3569 2628 3553 
L 2631 2963 
z
" transform="scale(0.015625)"/>
       <path id="DejaVuSans-64" d="M 2906 2969 
L 2906 4863 
L 3481 4863 
L 3481 0 
L 2906 0 
L 2906 525 
Q 2725 213 2448 61 
Q 2172 -91 1784 -91 
Q 1150 -91 751 415 
Q 353 922 353 1747 
Q 353 2572 751 3078 
Q 1150 3584 1784 3584 
Q 2172 3584 2448 3432 
Q 2725 3281 2906 2969 
z
M 947 1747 
Q 947 1113 1208 752 
Q 1469 391 1925 391 
Q 2381 391 2643 752 
Q 2906 1113 2906 1747 
Q 2906 2381 2643 2742 
Q 2381 3103 1925 3103 
Q 1469 3103 1208 2742 
Q 947 2381 947 1747 
z
" transform="scale(0.015625)"/>
       <path id="DejaVuSans-66" d="M 2375 4863 
L 2375 4384 
L 1825 4384 
Q 1516 4384 1395 4259 
Q 1275 4134 1275 3809 
L 1275 3500 
L 2222 3500 
L 2222 3053 
L 1275 3053 
L 1275 0 
L 697 0 
L 697 3053 
L 147 3053 
L 147 3500 
L 697 3500 
L 697 3744 
Q 697 4328 969 4595 
Q 1241 4863 1831 4863 
L 2375 4863 
z
" transform="scale(0.015625)"/>
      </defs>
      <use xlink:href="#DejaVuSans-72"/>
      <use xlink:href="#DejaVuSans-64" transform="translate(39.363281 0)"/>
      <use xlink:href="#DejaVuSans-66" transform="translate(102.839844 0)"/>
     </g>
    </g>
   </g>
   <g id="line2d_11">
    <path d="M 44.406818 180.687273 
L 94.854984 180.687273 
L 95.391667 173.982462 
L 95.928349 22.432727 
L 96.465032 86.771646 
L 97.001715 133.837763 
L 97.538397 156.392731 
L 98.07508 167.166066 
L 98.611762 175.543118 
L 99.148445 175.060969 
L 99.685128 176.120556 
L 100.22181 176.020889 
L 100.758493 178.306538 
L 101.295175 179.069879 
L 101.831858 177.68877 
L 102.368541 177.397488 
L 102.905223 176.947306 
L 103.441906 177.515492 
L 103.978589 177.080273 
L 104.515271 174.728316 
L 105.051954 176.573356 
L 105.588636 174.312778 
L 106.125319 176.561802 
L 106.662002 175.430855 
L 107.198684 175.815213 
L 107.735367 173.574583 
L 108.272049 175.976931 
L 108.808732 173.387604 
L 109.345415 172.81689 
L 109.882097 173.488192 
L 110.41878 173.069739 
L 110.955463 172.139584 
L 111.492145 172.016429 
L 112.028828 171.261318 
L 112.56551 174.041745 
L 113.102193 172.663451 
L 113.638876 172.908432 
L 114.712241 172.082397 
L 115.248923 172.211771 
L 115.785606 173.939456 
L 116.322289 172.461946 
L 117.395654 174.670386 
L 117.932337 173.248199 
L 118.469019 174.099082 
L 119.005702 173.355251 
L 119.542384 173.355985 
L 120.079067 175.189897 
L 120.61575 174.26298 
L 121.152432 172.768433 
L 121.689115 174.927691 
L 122.225797 174.043771 
L 122.76248 173.659289 
L 123.299163 174.878526 
L 123.835845 174.21704 
L 124.372528 175.0329 
L 124.909211 174.567841 
L 125.445893 175.003601 
L 125.982576 174.990243 
L 126.519258 175.842807 
L 127.055941 174.453653 
L 127.592624 177.062482 
L 128.129306 176.026754 
L 128.665989 175.674889 
L 129.202671 175.169984 
L 129.739354 175.799812 
L 130.276037 175.860524 
L 130.812719 175.68566 
L 131.349402 176.287373 
L 131.886085 176.264783 
L 132.422767 177.297615 
L 132.95945 175.329151 
L 133.496132 177.231503 
L 134.032815 176.037579 
L 134.569498 176.37976 
L 135.10618 176.28855 
L 135.642863 175.5687 
L 136.179545 175.697519 
L 136.716228 174.522182 
L 137.252911 175.202452 
L 137.789593 173.792489 
L 138.326276 173.870835 
L 138.862959 175.060178 
L 139.399641 174.347056 
L 139.936324 174.929664 
L 140.473006 174.04471 
L 141.009689 171.928385 
L 141.546372 173.447799 
L 142.083054 173.220901 
L 142.619737 171.909773 
L 143.156419 173.022619 
L 144.229785 171.369448 
L 144.766467 172.164314 
L 145.30315 169.156758 
L 145.839833 169.278145 
L 146.913198 167.903307 
L 147.44988 169.190916 
L 147.986563 167.676248 
L 148.523246 169.533872 
L 149.059928 172.474247 
L 149.596611 172.979956 
L 150.133293 173.841661 
L 150.669976 173.910453 
L 151.743341 174.349207 
L 152.280024 175.215196 
L 152.816707 174.772035 
L 153.353389 175.026897 
L 153.890072 175.423312 
L 154.426754 174.026403 
L 154.963437 176.337386 
L 156.036802 174.966914 
L 156.573485 174.603436 
L 157.110167 175.351119 
L 157.64685 175.355869 
L 158.183533 175.135123 
L 158.720215 175.991926 
L 159.256898 175.282476 
L 159.793581 174.761926 
L 160.330263 174.990471 
L 160.866946 175.516714 
L 161.403628 175.820093 
L 161.940311 174.299007 
L 162.476994 175.94989 
L 164.087041 175.300933 
L 164.623724 175.348801 
L 165.160407 175.195627 
L 165.697089 174.727481 
L 166.233772 175.803723 
L 166.770455 175.260812 
L 167.307137 174.998394 
L 167.84382 175.891661 
L 168.380502 174.868055 
L 168.917185 175.295075 
L 169.453868 174.780386 
L 169.99055 174.867704 
L 170.527233 174.255484 
L 171.063915 174.965713 
L 171.600598 175.302897 
L 172.673963 174.57514 
L 173.210646 174.943025 
L 173.747329 175.584642 
L 174.284011 174.552129 
L 174.820694 174.671178 
L 175.357376 175.640909 
L 176.430742 174.716083 
L 176.967424 174.830777 
L 177.504107 175.868063 
L 178.040789 174.334895 
L 178.577472 175.132628 
L 179.114155 174.37107 
L 180.18752 174.977836 
L 180.724203 175.305865 
L 181.260885 174.91076 
L 181.797568 174.305103 
L 182.870933 175.654132 
L 183.407616 174.815057 
L 183.944298 175.37069 
L 184.480981 174.397793 
L 185.017663 175.540151 
L 185.554346 175.579144 
L 186.091029 174.277432 
L 186.627711 173.862959 
L 187.164394 174.746395 
L 187.701077 173.907647 
L 188.237759 174.5518 
L 188.774442 174.400795 
L 189.311124 174.61434 
L 190.38449 174.154164 
L 190.921172 175.155586 
L 191.457855 174.62772 
L 191.994537 174.483667 
L 193.067903 174.784516 
L 193.604585 174.196123 
L 194.141268 174.555579 
L 194.677951 175.065543 
L 195.214633 174.79676 
L 195.751316 174.072139 
L 196.287998 175.08244 
L 196.824681 174.215169 
L 197.361364 175.73585 
L 197.898046 175.149527 
L 198.434729 175.631906 
L 198.971411 175.250548 
L 200.581459 176.297423 
L 201.118142 175.684133 
L 202.191507 176.057372 
L 202.72819 175.761865 
L 203.264872 175.284925 
L 203.801555 175.52845 
L 204.338238 176.11199 
L 204.87492 176.006147 
L 205.411603 175.179479 
L 205.948285 175.328066 
L 206.484968 175.987179 
L 207.021651 176.416402 
L 207.558333 176.158624 
L 208.095016 175.576694 
L 209.168381 175.793862 
L 209.705064 175.354363 
L 210.241746 176.090967 
L 211.315112 174.931401 
L 211.851794 175.823964 
L 212.388477 175.606074 
L 212.925159 175.864998 
L 213.461842 175.17881 
L 213.998525 175.64088 
L 214.535207 175.854596 
L 215.07189 175.241918 
L 215.608573 176.03474 
L 216.145255 175.686691 
L 216.681938 176.013563 
L 217.21862 175.39575 
L 217.755303 175.486847 
L 218.291986 176.196367 
L 218.828668 175.685223 
L 219.365351 175.448146 
L 219.902033 175.803157 
L 220.438716 175.379509 
L 220.975399 175.730863 
L 222.048764 176.013068 
L 222.585447 175.690809 
L 223.122129 175.757374 
L 223.658812 175.677543 
L 225.26886 176.141967 
L 225.805542 176.026496 
L 226.342225 175.470296 
L 226.878907 175.39542 
L 227.41559 176.282806 
L 227.952273 175.821942 
L 228.488955 176.00569 
L 229.562321 175.735307 
L 230.099003 176.120344 
L 231.172368 176.457965 
L 231.709051 175.831302 
L 232.782416 175.655427 
L 233.319099 176.14328 
L 233.855781 175.875346 
L 234.392464 176.226857 
L 234.929147 175.816428 
L 235.465829 175.972008 
L 236.002512 175.950514 
L 236.539195 175.627995 
L 237.075877 175.876884 
L 237.61256 175.793766 
L 238.149242 175.945573 
L 238.685925 175.692518 
L 239.222608 175.704528 
L 239.75929 176.100018 
L 240.295973 176.277659 
L 240.832656 175.649188 
L 241.369338 175.902937 
L 241.906021 175.793782 
L 242.442703 176.223344 
L 242.979386 176.113758 
L 243.516069 175.857722 
L 244.052751 176.33902 
L 244.589434 176.347669 
L 245.126116 176.487064 
L 245.662799 176.437141 
L 246.199482 175.755077 
L 246.736164 176.453418 
L 247.272847 175.949355 
L 247.80953 176.809305 
L 248.346212 175.984958 
L 249.419577 176.591269 
L 249.95626 176.030504 
L 251.029625 176.462765 
L 251.566308 176.375415 
L 252.10299 177.062802 
L 252.639673 176.487208 
L 253.176356 176.347524 
L 253.713038 176.423189 
L 254.249721 176.205575 
L 254.786404 176.373925 
L 255.323086 176.869731 
L 255.859769 176.417555 
L 256.396451 176.790962 
L 256.933134 176.46051 
L 258.006499 177.144618 
L 258.543182 176.230021 
L 258.543182 176.230021 
" clip-path="url(#pbb53ba188b)" style="fill: none; stroke: #000000; stroke-opacity: 0.5; stroke-width: 0.5; stroke-linecap: square"/>
   </g>
   <g id="line2d_12">
    <path d="M 44.406818 180.687273 
L 99.148445 180.687273 
L 99.685128 180.104541 
L 100.22181 180.687273 
L 101.295175 180.687273 
L 101.831858 180.147101 
L 102.368541 180.687273 
L 102.905223 180.166652 
L 103.441906 180.687273 
L 103.978589 179.683051 
L 104.515271 177.234701 
L 105.051954 179.718129 
L 105.588636 175.449692 
L 106.125319 175.072047 
L 107.198684 173.453002 
L 107.735367 171.351866 
L 108.272049 173.255995 
L 109.345415 167.155736 
L 109.882097 170.703641 
L 110.955463 162.564528 
L 111.492145 164.041191 
L 112.028828 161.962738 
L 112.56551 170.703307 
L 113.102193 165.565452 
L 113.638876 163.192476 
L 114.175558 164.559237 
L 114.712241 162.998652 
L 115.785606 167.027232 
L 116.322289 164.46901 
L 116.858971 167.76747 
L 117.395654 166.950992 
L 117.932337 165.168986 
L 118.469019 166.694008 
L 119.005702 166.57313 
L 119.542384 166.773314 
L 120.079067 169.775235 
L 120.61575 168.390774 
L 121.152432 168.258405 
L 121.689115 170.821547 
L 122.225797 168.008052 
L 122.76248 169.053108 
L 123.299163 172.079552 
L 123.835845 169.364364 
L 124.372528 170.353221 
L 124.909211 170.765692 
L 125.445893 173.344013 
L 125.982576 173.439993 
L 126.519258 172.474389 
L 127.055941 171.272797 
L 127.592624 176.040375 
L 128.129306 175.080086 
L 128.665989 173.137881 
L 129.202671 174.475252 
L 129.739354 174.062159 
L 130.276037 174.871435 
L 130.812719 175.900572 
L 131.349402 177.377699 
L 131.886085 176.250485 
L 132.422767 178.149738 
L 132.95945 177.040773 
L 133.496132 177.985155 
L 134.032815 176.23737 
L 134.569498 179.148234 
L 135.10618 176.993587 
L 135.642863 176.822048 
L 136.179545 177.503705 
L 136.716228 177.750292 
L 137.252911 178.198789 
L 137.789593 177.817235 
L 138.326276 177.647174 
L 139.399641 178.111559 
L 139.936324 177.552574 
L 140.473006 178.556117 
L 141.009689 178.579665 
L 141.546372 178.792325 
L 142.083054 178.625605 
L 142.619737 176.794149 
L 143.156419 178.853444 
L 143.693102 176.696232 
L 144.229785 176.559446 
L 144.766467 175.360422 
L 145.30315 171.727459 
L 145.839833 170.257285 
L 146.376515 166.410208 
L 146.913198 164.175807 
L 147.986563 163.515032 
L 148.523246 169.136496 
L 149.059928 173.337548 
L 149.596611 175.352199 
L 150.133293 178.286736 
L 150.669976 176.092872 
L 151.206659 177.864093 
L 151.743341 179.134446 
L 152.280024 178.688584 
L 152.816707 179.012738 
L 153.353389 177.973984 
L 153.890072 179.045331 
L 154.426754 178.469999 
L 154.963437 179.076978 
L 155.50012 177.932615 
L 156.036802 178.964132 
L 156.573485 177.700503 
L 157.110167 177.306175 
L 157.64685 178.733564 
L 158.183533 178.198961 
L 158.720215 178.496111 
L 159.256898 178.38082 
L 159.793581 177.730086 
L 160.330263 176.558721 
L 160.866946 178.575961 
L 161.403628 178.856743 
L 161.940311 177.059499 
L 162.476994 177.991052 
L 163.013676 178.015349 
L 163.550359 178.543691 
L 164.087041 176.563356 
L 164.623724 176.104579 
L 165.697089 176.793542 
L 166.233772 175.621574 
L 167.307137 176.420613 
L 168.380502 174.746821 
L 168.917185 175.721642 
L 169.453868 174.275684 
L 169.99055 175.124857 
L 170.527233 174.721787 
L 172.137281 174.761163 
L 172.673963 174.592907 
L 173.210646 174.103852 
L 173.747329 174.800462 
L 174.284011 173.999705 
L 175.357376 174.735205 
L 176.430742 173.290376 
L 176.967424 173.248108 
L 177.504107 174.520911 
L 178.040789 173.266614 
L 178.577472 173.524704 
L 179.114155 173.285472 
L 179.650837 173.246056 
L 180.724203 173.940843 
L 181.260885 173.611044 
L 181.797568 173.001947 
L 182.870933 173.867747 
L 183.407616 174.661818 
L 184.480981 172.836599 
L 185.017663 174.436404 
L 185.554346 175.203006 
L 186.091029 172.924445 
L 186.627711 173.86838 
L 187.164394 173.743692 
L 187.701077 173.184819 
L 188.237759 173.240588 
L 188.774442 172.951958 
L 189.847807 175.182671 
L 190.38449 173.793882 
L 190.921172 174.84562 
L 191.457855 174.970937 
L 191.994537 176.081565 
L 192.53122 175.216665 
L 193.067903 175.661326 
L 193.604585 175.455918 
L 194.141268 175.812902 
L 195.214633 175.330507 
L 195.751316 173.647518 
L 196.287998 176.104814 
L 196.824681 174.748739 
L 197.361364 176.245371 
L 197.898046 176.580525 
L 198.434729 176.004892 
L 199.508094 176.218329 
L 200.044777 177.06272 
L 200.581459 176.059038 
L 201.118142 176.966187 
L 201.654825 176.846558 
L 202.191507 177.088523 
L 202.72819 176.755408 
L 203.264872 176.071801 
L 203.801555 176.102771 
L 204.338238 176.974144 
L 204.87492 176.163794 
L 205.411603 176.193849 
L 205.948285 176.566962 
L 206.484968 176.525963 
L 207.021651 177.637638 
L 207.558333 176.849737 
L 208.095016 177.276125 
L 208.631699 175.90292 
L 209.168381 176.528143 
L 209.705064 176.423889 
L 210.241746 177.168226 
L 210.778429 176.349122 
L 211.315112 176.634267 
L 211.851794 175.829181 
L 212.388477 176.876373 
L 213.461842 176.861809 
L 213.998525 177.259846 
L 214.535207 176.785998 
L 215.07189 176.625862 
L 215.608573 176.834705 
L 216.681938 176.822095 
L 217.21862 177.506234 
L 217.755303 176.094293 
L 218.291986 177.011795 
L 218.828668 176.739742 
L 219.365351 176.705345 
L 220.975399 176.950017 
L 221.512081 176.401072 
L 222.048764 177.278998 
L 222.585447 176.396029 
L 223.122129 177.263604 
L 223.658812 176.67038 
L 224.195494 176.527912 
L 224.732177 176.717967 
L 225.26886 177.234675 
L 226.342225 176.029573 
L 226.878907 176.649158 
L 227.41559 176.88689 
L 227.952273 177.281541 
L 228.488955 177.142614 
L 229.025638 176.216396 
L 229.562321 176.189948 
L 230.099003 176.683782 
L 230.635686 176.758497 
L 231.172368 177.089424 
L 231.709051 176.343389 
L 232.245734 176.368169 
L 232.782416 175.735853 
L 233.319099 176.366788 
L 233.855781 176.640972 
L 234.392464 175.620645 
L 234.929147 176.340608 
L 235.465829 176.168476 
L 236.539195 175.29593 
L 237.075877 175.615663 
L 237.61256 175.019352 
L 238.149242 175.814941 
L 239.222608 175.01805 
L 239.75929 175.61291 
L 240.295973 176.481737 
L 240.832656 175.993469 
L 241.369338 175.972739 
L 242.442703 175.520722 
L 242.979386 175.821416 
L 243.516069 174.807256 
L 244.052751 175.873529 
L 244.589434 175.228065 
L 245.126116 176.770468 
L 245.662799 176.481412 
L 246.199482 174.786252 
L 246.736164 176.963876 
L 247.272847 175.850648 
L 247.80953 177.089714 
L 248.346212 176.246294 
L 248.882895 176.355298 
L 249.419577 175.6526 
L 249.95626 176.188155 
L 250.492943 176.127078 
L 251.029625 176.864813 
L 251.566308 175.505538 
L 252.10299 176.904146 
L 252.639673 176.840871 
L 253.176356 176.490278 
L 253.713038 175.938633 
L 254.249721 176.899606 
L 254.786404 176.918882 
L 255.323086 177.058962 
L 255.859769 176.475673 
L 256.396451 177.295104 
L 256.933134 176.915114 
L 257.469817 177.368644 
L 258.543182 176.619551 
L 258.543182 176.619551 
" clip-path="url(#pbb53ba188b)" style="fill: none; stroke: #0000ff; stroke-opacity: 0.5; stroke-linecap: square"/>
   </g>
   <g id="line2d_13">
    <path d="M 44.406818 180.687273 
L 99.148445 180.687273 
L 99.685128 172.399527 
L 100.22181 170.524924 
L 100.758493 173.707853 
L 101.295175 175.795157 
L 102.368541 165.604284 
L 102.905223 164.952969 
L 103.441906 167.054179 
L 103.978589 166.405009 
L 104.515271 157.889345 
L 105.051954 165.180972 
L 105.588636 157.832376 
L 106.125319 169.040881 
L 106.662002 166.786967 
L 107.198684 167.826348 
L 107.735367 158.558906 
L 108.272049 169.807494 
L 108.808732 160.051671 
L 109.345415 164.148729 
L 109.882097 162.938597 
L 110.41878 166.135258 
L 110.955463 167.084028 
L 111.492145 165.186162 
L 112.028828 166.123748 
L 112.56551 163.620668 
L 113.102193 164.557334 
L 113.638876 172.746373 
L 114.175558 167.002879 
L 114.712241 167.210229 
L 115.248923 166.148626 
L 115.785606 170.724395 
L 116.322289 167.191225 
L 116.858971 168.59857 
L 117.395654 174.135552 
L 117.932337 170.708612 
L 118.469019 171.430747 
L 119.005702 170.422442 
L 119.542384 170.005851 
L 120.079067 171.819079 
L 120.61575 170.303564 
L 121.152432 166.675326 
L 121.689115 172.71497 
L 122.225797 172.299986 
L 122.76248 172.414091 
L 123.835845 171.628947 
L 124.372528 172.742778 
L 124.909211 171.378136 
L 125.445893 169.566617 
L 126.519258 175.506386 
L 127.055941 173.248676 
L 127.592624 175.179838 
L 128.129306 173.437577 
L 128.665989 173.081961 
L 129.202671 174.061117 
L 129.739354 175.888837 
L 130.276037 175.51764 
L 130.812719 172.603069 
L 131.349402 175.22385 
L 131.886085 174.875342 
L 132.422767 176.176099 
L 132.95945 170.558109 
L 133.496132 178.28539 
L 134.032815 175.940711 
L 134.569498 172.479068 
L 135.10618 176.438327 
L 135.642863 171.907011 
L 136.179545 173.895663 
L 136.716228 170.244675 
L 137.252911 170.364675 
L 137.789593 169.753797 
L 138.326276 164.473416 
L 138.862959 173.20629 
L 139.399641 169.063542 
L 139.936324 170.238278 
L 140.473006 168.287822 
L 141.009689 163.656105 
L 141.546372 169.907126 
L 142.083054 168.692117 
L 142.619737 166.185902 
L 143.156419 164.386577 
L 143.693102 167.78694 
L 144.229785 167.924913 
L 144.766467 166.166674 
L 145.30315 162.88477 
L 145.839833 163.999294 
L 146.913198 170.700957 
L 147.44988 168.408602 
L 147.986563 172.388284 
L 148.523246 173.940153 
L 149.059928 176.041521 
L 149.596611 176.376103 
L 150.133293 176.135144 
L 150.669976 179.279028 
L 151.206659 178.17778 
L 151.743341 178.478809 
L 152.280024 177.680698 
L 152.816707 179.063482 
L 153.353389 177.739503 
L 153.890072 179.095087 
L 154.426754 178.059393 
L 154.963437 179.386025 
L 155.50012 179.398544 
L 156.036802 179.666152 
L 156.573485 177.653094 
L 157.110167 178.68366 
L 157.64685 178.206373 
L 158.183533 179.458477 
L 158.720215 180.200348 
L 159.793581 176.624875 
L 160.330263 178.793171 
L 160.866946 177.403011 
L 161.403628 177.897895 
L 161.940311 176.771581 
L 162.476994 177.948255 
L 163.013676 176.615771 
L 163.550359 176.652295 
L 164.087041 177.132651 
L 164.623724 177.384431 
L 165.160407 174.358296 
L 165.697089 174.197723 
L 166.233772 175.755587 
L 166.770455 175.798686 
L 167.307137 174.366296 
L 167.84382 177.971891 
L 168.380502 173.439664 
L 168.917185 173.707162 
L 169.453868 174.377455 
L 169.99055 173.8257 
L 170.527233 172.283068 
L 171.063915 175.330144 
L 171.600598 173.014236 
L 172.673963 171.013678 
L 173.210646 176.274343 
L 173.747329 173.456605 
L 174.820694 171.141736 
L 175.357376 174.561169 
L 176.430742 170.824746 
L 176.967424 173.621765 
L 177.504107 175.655342 
L 178.040789 168.921184 
L 178.577472 172.728864 
L 179.114155 170.862068 
L 179.650837 173.550668 
L 180.18752 171.879938 
L 180.724203 173.148406 
L 181.260885 172.1873 
L 181.797568 170.566681 
L 182.33425 173.155668 
L 182.870933 174.044205 
L 183.407616 171.293745 
L 183.944298 174.636448 
L 184.480981 170.950005 
L 185.017663 174.245153 
L 185.554346 174.613623 
L 186.091029 170.059239 
L 186.627711 169.98171 
L 187.164394 172.71827 
L 187.701077 171.071727 
L 188.237759 172.374696 
L 188.774442 172.589067 
L 189.311124 172.952176 
L 189.847807 172.256293 
L 190.38449 170.52466 
L 190.921172 174.307818 
L 191.457855 172.73411 
L 191.994537 171.768283 
L 192.53122 171.542376 
L 193.067903 173.625728 
L 193.604585 172.388646 
L 194.141268 175.147005 
L 194.677951 173.775971 
L 195.214633 173.825011 
L 195.751316 173.734429 
L 196.287998 174.473771 
L 196.824681 172.323625 
L 197.361364 174.968963 
L 197.898046 172.304776 
L 198.434729 175.048277 
L 199.508094 173.40455 
L 200.044777 174.243624 
L 200.581459 175.985575 
L 201.118142 173.812588 
L 201.654825 173.988165 
L 202.191507 173.777675 
L 202.72819 174.841106 
L 203.264872 174.880457 
L 203.801555 174.041706 
L 204.338238 175.082551 
L 204.87492 174.748758 
L 205.411603 173.559245 
L 206.484968 176.200032 
L 207.021651 176.590974 
L 207.558333 176.378461 
L 208.095016 173.790662 
L 208.631699 175.60759 
L 209.705064 176.25627 
L 210.241746 175.589723 
L 210.778429 176.198043 
L 211.315112 175.426228 
L 211.851794 176.368969 
L 212.388477 175.831905 
L 212.925159 176.648102 
L 213.461842 175.001338 
L 213.998525 176.145067 
L 214.535207 176.724073 
L 215.07189 176.201944 
L 215.608573 176.773554 
L 216.681938 177.466292 
L 217.21862 175.458901 
L 217.755303 176.869732 
L 218.291986 177.525572 
L 218.828668 175.659572 
L 220.438716 175.853829 
L 220.975399 174.860988 
L 221.512081 175.81053 
L 222.048764 175.839949 
L 222.585447 176.370935 
L 223.122129 176.696112 
L 223.658812 176.124877 
L 224.195494 177.137952 
L 224.732177 176.276933 
L 225.26886 177.374727 
L 226.342225 175.487981 
L 226.878907 175.32705 
L 227.41559 176.405152 
L 227.952273 174.821846 
L 228.488955 177.019169 
L 229.025638 176.385881 
L 229.562321 175.574036 
L 230.099003 175.973206 
L 230.635686 175.448906 
L 231.172368 175.935829 
L 231.709051 175.326978 
L 232.245734 172.828198 
L 232.782416 175.387795 
L 233.319099 175.864407 
L 233.855781 174.737158 
L 234.392464 176.890062 
L 234.929147 174.101418 
L 235.465829 176.059327 
L 236.002512 174.609053 
L 236.539195 174.383881 
L 237.075877 174.762345 
L 237.61256 174.965983 
L 238.149242 175.422184 
L 238.685925 174.522249 
L 239.222608 175.228022 
L 240.295973 175.453717 
L 240.832656 175.151787 
L 241.369338 173.374098 
L 241.906021 174.312726 
L 242.442703 176.216709 
L 242.979386 175.91742 
L 243.516069 175.460593 
L 244.052751 175.168713 
L 244.589434 176.152849 
L 245.126116 174.515339 
L 245.662799 175.256548 
L 246.199482 173.797856 
L 246.736164 175.859025 
L 247.272847 175.264832 
L 247.80953 175.678624 
L 248.346212 174.478527 
L 248.882895 174.815993 
L 249.419577 176.060305 
L 249.95626 174.952548 
L 250.492943 176.333507 
L 251.029625 175.385302 
L 251.566308 175.784127 
L 252.10299 176.326746 
L 252.639673 175.172719 
L 253.176356 174.835254 
L 253.713038 175.447395 
L 254.249721 174.750095 
L 254.786404 175.860852 
L 255.323086 176.315383 
L 255.859769 175.553134 
L 256.396451 175.579066 
L 256.933134 175.463605 
L 257.469817 175.630314 
L 258.006499 176.634042 
L 258.543182 175.958982 
L 258.543182 175.958982 
" clip-path="url(#pbb53ba188b)" style="fill: none; stroke: #ff0000; stroke-opacity: 0.5; stroke-linecap: square"/>
   </g>
   <g id="patch_3">
    <path d="M 33.7 188.6 
L 33.7 14.52 
" style="fill: none; stroke: #000000; stroke-width: 0.8; stroke-linejoin: miter; stroke-linecap: square"/>
   </g>
   <g id="patch_4">
    <path d="M 269.25 188.6 
L 269.25 14.52 
" style="fill: none; stroke: #000000; stroke-width: 0.8; stroke-linejoin: miter; stroke-linecap: square"/>
   </g>
   <g id="patch_5">
    <path d="M 33.7 188.6 
L 269.25 188.6 
" style="fill: none; stroke: #000000; stroke-width: 0.8; stroke-linejoin: miter; stroke-linecap: square"/>
   </g>
   <g id="patch_6">
    <path d="M 33.7 14.52 
L 269.25 14.52 
" style="fill: none; stroke: #000000; stroke-width: 0.8; stroke-linejoin: miter; stroke-linecap: square"/>
   </g>
   <g id="legend_1">
    <g id="patch_7">
     <path d="M 213.917188 66.554375 
L 262.25 66.554375 
Q 264.25 66.554375 264.25 64.554375 
L 264.25 21.52 
Q 264.25 19.52 262.25 19.52 
L 213.917188 19.52 
Q 211.917188 19.52 211.917188 21.52 
L 211.917188 64.554375 
Q 211.917188 66.554375 213.917188 66.554375 
z
" style="fill: #ffffff; opacity: 0.8; stroke: #cccccc; stroke-linejoin: miter"/>
    </g>
    <g id="line2d_14">
     <path d="M 215.917188 27.618438 
L 225.917188 27.618438 
L 235.917188 27.618438 
" style="fill: none; stroke: #000000; stroke-opacity: 0.5; stroke-width: 0.5; stroke-linecap: square"/>
    </g>
    <g id="text_13">
     <!-- all -->
     <g transform="translate(243.917188 31.118438) scale(0.1 -0.1)">
      <defs>
       <path id="DejaVuSans-61" d="M 2194 1759 
Q 1497 1759 1228 1600 
Q 959 1441 959 1056 
Q 959 750 1161 570 
Q 1363 391 1709 391 
Q 2188 391 2477 730 
Q 2766 1069 2766 1631 
L 2766 1759 
L 2194 1759 
z
M 3341 1997 
L 3341 0 
L 2766 0 
L 2766 531 
Q 2569 213 2275 61 
Q 1981 -91 1556 -91 
Q 1019 -91 701 211 
Q 384 513 384 1019 
Q 384 1609 779 1909 
Q 1175 2209 1959 2209 
L 2766 2209 
L 2766 2266 
Q 2766 2663 2505 2880 
Q 2244 3097 1772 3097 
Q 1472 3097 1187 3025 
Q 903 2953 641 2809 
L 641 3341 
Q 956 3463 1253 3523 
Q 1550 3584 1831 3584 
Q 2591 3584 2966 3190 
Q 3341 2797 3341 1997 
z
" transform="scale(0.015625)"/>
       <path id="DejaVuSans-6c" d="M 603 4863 
L 1178 4863 
L 1178 0 
L 603 0 
L 603 4863 
z
" transform="scale(0.015625)"/>
      </defs>
      <use xlink:href="#DejaVuSans-61"/>
      <use xlink:href="#DejaVuSans-6c" transform="translate(61.279297 0)"/>
      <use xlink:href="#DejaVuSans-6c" transform="translate(89.0625 0)"/>
     </g>
    </g>
    <g id="line2d_15">
     <path d="M 215.917188 42.296563 
L 225.917188 42.296563 
L 235.917188 42.296563 
" style="fill: none; stroke: #0000ff; stroke-opacity: 0.5; stroke-linecap: square"/>
    </g>
    <g id="text_14">
     <!-- 1-1 -->
     <g transform="translate(243.917188 45.796563) scale(0.1 -0.1)">
      <defs>
       <path id="DejaVuSans-2d" d="M 313 2009 
L 1997 2009 
L 1997 1497 
L 313 1497 
L 313 2009 
z
" transform="scale(0.015625)"/>
      </defs>
      <use xlink:href="#DejaVuSans-31"/>
      <use xlink:href="#DejaVuSans-2d" transform="translate(63.623047 0)"/>
      <use xlink:href="#DejaVuSans-31" transform="translate(99.707031 0)"/>
     </g>
    </g>
    <g id="line2d_16">
     <path d="M 215.917188 56.974688 
L 225.917188 56.974688 
L 235.917188 56.974688 
" style="fill: none; stroke: #ff0000; stroke-opacity: 0.5; stroke-linecap: square"/>
    </g>
    <g id="text_15">
     <!-- 2-2 -->
     <g transform="translate(243.917188 60.474688) scale(0.1 -0.1)">
      <use xlink:href="#DejaVuSans-32"/>
      <use xlink:href="#DejaVuSans-2d" transform="translate(63.623047 0)"/>
      <use xlink:href="#DejaVuSans-32" transform="translate(99.707031 0)"/>
     </g>
    </g>
   </g>
  </g>
 </g>
 <defs>
  <clipPath id="pbb53ba188b">
   <rect x="33.7" y="14.52" width="235.55" height="174.08"/>
  </clipPath>
 </defs>
</svg>
