<?xml version="1.0" encoding="utf-8" standalone="no"?>
<!DOCTYPE svg PUBLIC "-//W3C//DTD SVG 1.1//EN"
  "http://www.w3.org/Graphics/SVG/1.1/DTD/svg11.dtd">
<svg xmlns:xlink="http://www.w3.org/1999/xlink" width="288pt" height="216pt" viewBox="0 0 288 216" xmlns="http://www.w3.org/2000/svg" version="1.1">
 <metadata>
  <rdf:RDF xmlns:dc="http://purl.org/dc/elements/1.1/" xmlns:cc="http://creativecommons.org/ns#" xmlns:rdf="http://www.w3.org/1999/02/22-rdf-syntax-ns#">
   <cc:Work>
    <dc:type rdf:resource="http://purl.org/dc/dcmitype/StillImage"/>
    <dc:date>2025-09-17T22:25:42.595793</dc:date>
    <dc:format>image/svg+xml</dc:format>
    <dc:creator>
     <cc:Agent>
      <dc:title>Matplotlib v3.10.0, https://matplotlib.org/</dc:title>
     </cc:Agent>
    </dc:creator>
   </cc:Work>
  </rdf:RDF>
 </metadata>
 <defs>
  <style type="text/css">*{stroke-linejoin: round; stroke-linecap: butt}</style>
 </defs>
 <g id="figure_1">
  <g id="patch_1">
   <path d="M 0 216 
L 288 216 
L 288 0 
L 0 0 
z
" style="fill: #ffffff"/>
  </g>
  <g id="axes_1">
   <g id="patch_2">
    <path d="M 33.7 188.6 
L 269.25 188.6 
L 269.25 14.52 
L 33.7 14.52 
z
" style="fill: #ffffff"/>
   </g>
   <g id="matplotlib.axis_1">
    <g id="xtick_1">
     <g id="line2d_1">
      <defs>
       <path id="m5dfbd4c1ae" d="M 0 0 
L 0 3.5 
" style="stroke: #000000; stroke-width: 0.8"/>
      </defs>
      <g>
       <use xlink:href="#m5dfbd4c1ae" x="44.138477" y="188.6" style="stroke: #000000; stroke-width: 0.8"/>
      </g>
     </g>
     <g id="text_1">
      <!-- 0 -->
      <g transform="translate(40.957227 203.198437) scale(0.1 -0.1)">
       <defs>
        <path id="DejaVuSans-30" d="M 2034 4250 
Q 1547 4250 1301 3770 
Q 1056 3291 1056 2328 
Q 1056 1369 1301 889 
Q 1547 409 2034 409 
Q 2525 409 2770 889 
Q 3016 1369 3016 2328 
Q 3016 3291 2770 3770 
Q 2525 4250 2034 4250 
z
M 2034 4750 
Q 2819 4750 3233 4129 
Q 3647 3509 3647 2328 
Q 3647 1150 3233 529 
Q 2819 -91 2034 -91 
Q 1250 -91 836 529 
Q 422 1150 422 2328 
Q 422 3509 836 4129 
Q 1250 4750 2034 4750 
z
" transform="scale(0.015625)"/>
       </defs>
       <use xlink:href="#DejaVuSans-30"/>
      </g>
     </g>
    </g>
    <g id="xtick_2">
     <g id="line2d_2">
      <g>
       <use xlink:href="#m5dfbd4c1ae" x="87.073086" y="188.6" style="stroke: #000000; stroke-width: 0.8"/>
      </g>
     </g>
     <g id="text_2">
      <!-- 200 -->
      <g transform="translate(77.529336 203.198437) scale(0.1 -0.1)">
       <defs>
        <path id="DejaVuSans-32" d="M 1228 531 
L 3431 531 
L 3431 0 
L 469 0 
L 469 531 
Q 828 903 1448 1529 
Q 2069 2156 2228 2338 
Q 2531 2678 2651 2914 
Q 2772 3150 2772 3378 
Q 2772 3750 2511 3984 
Q 2250 4219 1831 4219 
Q 1534 4219 1204 4116 
Q 875 4013 500 3803 
L 500 4441 
Q 881 4594 1212 4672 
Q 1544 4750 1819 4750 
Q 2544 4750 2975 4387 
Q 3406 4025 3406 3419 
Q 3406 3131 3298 2873 
Q 3191 2616 2906 2266 
Q 2828 2175 2409 1742 
Q 1991 1309 1228 531 
z
" transform="scale(0.015625)"/>
       </defs>
       <use xlink:href="#DejaVuSans-32"/>
       <use xlink:href="#DejaVuSans-30" transform="translate(63.623047 0)"/>
       <use xlink:href="#DejaVuSans-30" transform="translate(127.246094 0)"/>
      </g>
     </g>
    </g>
    <g id="xtick_3">
     <g id="line2d_3">
      <g>
       <use xlink:href="#m5dfbd4c1ae" x="130.007695" y="188.6" style="stroke: #000000; stroke-width: 0.8"/>
      </g>
     </g>
     <g id="text_3">
      <!-- 400 -->
      <g transform="translate(120.463945 203.198437) scale(0.1 -0.1)">
       <defs>
        <path id="DejaVuSans-34" d="M 2419 4116 
L 825 1625 
L 2419 1625 
L 2419 4116 
z
M 2253 4666 
L 3047 4666 
L 3047 1625 
L 3713 1625 
L 3713 1100 
L 3047 1100 
L 3047 0 
L 2419 0 
L 2419 1100 
L 313 1100 
L 313 1709 
L 2253 4666 
z
" transform="scale(0.015625)"/>
       </defs>
       <use xlink:href="#DejaVuSans-34"/>
       <use xlink:href="#DejaVuSans-30" transform="translate(63.623047 0)"/>
       <use xlink:href="#DejaVuSans-30" transform="translate(127.246094 0)"/>
      </g>
     </g>
    </g>
    <g id="xtick_4">
     <g id="line2d_4">
      <g>
       <use xlink:href="#m5dfbd4c1ae" x="172.942305" y="188.6" style="stroke: #000000; stroke-width: 0.8"/>
      </g>
     </g>
     <g id="text_4">
      <!-- 600 -->
      <g transform="translate(163.398555 203.198437) scale(0.1 -0.1)">
       <defs>
        <path id="DejaVuSans-36" d="M 2113 2584 
Q 1688 2584 1439 2293 
Q 1191 2003 1191 1497 
Q 1191 994 1439 701 
Q 1688 409 2113 409 
Q 2538 409 2786 701 
Q 3034 994 3034 1497 
Q 3034 2003 2786 2293 
Q 2538 2584 2113 2584 
z
M 3366 4563 
L 3366 3988 
Q 3128 4100 2886 4159 
Q 2644 4219 2406 4219 
Q 1781 4219 1451 3797 
Q 1122 3375 1075 2522 
Q 1259 2794 1537 2939 
Q 1816 3084 2150 3084 
Q 2853 3084 3261 2657 
Q 3669 2231 3669 1497 
Q 3669 778 3244 343 
Q 2819 -91 2113 -91 
Q 1303 -91 875 529 
Q 447 1150 447 2328 
Q 447 3434 972 4092 
Q 1497 4750 2381 4750 
Q 2619 4750 2861 4703 
Q 3103 4656 3366 4563 
z
" transform="scale(0.015625)"/>
       </defs>
       <use xlink:href="#DejaVuSans-36"/>
       <use xlink:href="#DejaVuSans-30" transform="translate(63.623047 0)"/>
       <use xlink:href="#DejaVuSans-30" transform="translate(127.246094 0)"/>
      </g>
     </g>
    </g>
    <g id="xtick_5">
     <g id="line2d_5">
      <g>
       <use xlink:href="#m5dfbd4c1ae" x="215.876914" y="188.6" style="stroke: #000000; stroke-width: 0.8"/>
      </g>
     </g>
     <g id="text_5">
      <!-- 800 -->
      <g transform="translate(206.333164 203.198437) scale(0.1 -0.1)">
       <defs>
        <path id="DejaVuSans-38" d="M 2034 2216 
Q 1584 2216 1326 1975 
Q 1069 1734 1069 1313 
Q 1069 891 1326 650 
Q 1584 409 2034 409 
Q 2484 409 2743 651 
Q 3003 894 3003 1313 
Q 3003 1734 2745 1975 
Q 2488 2216 2034 2216 
z
M 1403 2484 
Q 997 2584 770 2862 
Q 544 3141 544 3541 
Q 544 4100 942 4425 
Q 1341 4750 2034 4750 
Q 2731 4750 3128 4425 
Q 3525 4100 3525 3541 
Q 3525 3141 3298 2862 
Q 3072 2584 2669 2484 
Q 3125 2378 3379 2068 
Q 3634 1759 3634 1313 
Q 3634 634 3220 271 
Q 2806 -91 2034 -91 
Q 1263 -91 848 271 
Q 434 634 434 1313 
Q 434 1759 690 2068 
Q 947 2378 1403 2484 
z
M 1172 3481 
Q 1172 3119 1398 2916 
Q 1625 2713 2034 2713 
Q 2441 2713 2670 2916 
Q 2900 3119 2900 3481 
Q 2900 3844 2670 4047 
Q 2441 4250 2034 4250 
Q 1625 4250 1398 4047 
Q 1172 3844 1172 3481 
z
" transform="scale(0.015625)"/>
       </defs>
       <use xlink:href="#DejaVuSans-38"/>
       <use xlink:href="#DejaVuSans-30" transform="translate(63.623047 0)"/>
       <use xlink:href="#DejaVuSans-30" transform="translate(127.246094 0)"/>
      </g>
     </g>
    </g>
    <g id="xtick_6">
     <g id="line2d_6">
      <g>
       <use xlink:href="#m5dfbd4c1ae" x="258.811523" y="188.6" style="stroke: #000000; stroke-width: 0.8"/>
      </g>
     </g>
     <g id="text_6">
      <!-- 1000 -->
      <g transform="translate(246.086523 203.198437) scale(0.1 -0.1)">
       <defs>
        <path id="DejaVuSans-31" d="M 794 531 
L 1825 531 
L 1825 4091 
L 703 3866 
L 703 4441 
L 1819 4666 
L 2450 4666 
L 2450 531 
L 3481 531 
L 3481 0 
L 794 0 
L 794 531 
z
" transform="scale(0.015625)"/>
       </defs>
       <use xlink:href="#DejaVuSans-31"/>
       <use xlink:href="#DejaVuSans-30" transform="translate(63.623047 0)"/>
       <use xlink:href="#DejaVuSans-30" transform="translate(127.246094 0)"/>
       <use xlink:href="#DejaVuSans-30" transform="translate(190.869141 0)"/>
      </g>
     </g>
    </g>
    <g id="text_7">
     <!-- q (nm) -->
     <g transform="translate(134.771094 216.876563) scale(0.1 -0.1)">
      <defs>
       <path id="DejaVuSans-71" d="M 947 1747 
Q 947 1113 1208 752 
Q 1469 391 1925 391 
Q 2381 391 2643 752 
Q 2906 1113 2906 1747 
Q 2906 2381 2643 2742 
Q 2381 3103 1925 3103 
Q 1469 3103 1208 2742 
Q 947 2381 947 1747 
z
M 2906 525 
Q 2725 213 2448 61 
Q 2172 -91 1784 -91 
Q 1150 -91 751 415 
Q 353 922 353 1747 
Q 353 2572 751 3078 
Q 1150 3584 1784 3584 
Q 2172 3584 2448 3432 
Q 2725 3281 2906 2969 
L 2906 3500 
L 3481 3500 
L 3481 -1331 
L 2906 -1331 
L 2906 525 
z
" transform="scale(0.015625)"/>
       <path id="DejaVuSans-20" transform="scale(0.015625)"/>
       <path id="DejaVuSans-28" d="M 1984 4856 
Q 1566 4138 1362 3434 
Q 1159 2731 1159 2009 
Q 1159 1288 1364 580 
Q 1569 -128 1984 -844 
L 1484 -844 
Q 1016 -109 783 600 
Q 550 1309 550 2009 
Q 550 2706 781 3412 
Q 1013 4119 1484 4856 
L 1984 4856 
z
" transform="scale(0.015625)"/>
       <path id="DejaVuSans-6e" d="M 3513 2113 
L 3513 0 
L 2938 0 
L 2938 2094 
Q 2938 2591 2744 2837 
Q 2550 3084 2163 3084 
Q 1697 3084 1428 2787 
Q 1159 2491 1159 1978 
L 1159 0 
L 581 0 
L 581 3500 
L 1159 3500 
L 1159 2956 
Q 1366 3272 1645 3428 
Q 1925 3584 2291 3584 
Q 2894 3584 3203 3211 
Q 3513 2838 3513 2113 
z
" transform="scale(0.015625)"/>
       <path id="DejaVuSans-6d" d="M 3328 2828 
Q 3544 3216 3844 3400 
Q 4144 3584 4550 3584 
Q 5097 3584 5394 3201 
Q 5691 2819 5691 2113 
L 5691 0 
L 5113 0 
L 5113 2094 
Q 5113 2597 4934 2840 
Q 4756 3084 4391 3084 
Q 3944 3084 3684 2787 
Q 3425 2491 3425 1978 
L 3425 0 
L 2847 0 
L 2847 2094 
Q 2847 2600 2669 2842 
Q 2491 3084 2119 3084 
Q 1678 3084 1418 2786 
Q 1159 2488 1159 1978 
L 1159 0 
L 581 0 
L 581 3500 
L 1159 3500 
L 1159 2956 
Q 1356 3278 1631 3431 
Q 1906 3584 2284 3584 
Q 2666 3584 2933 3390 
Q 3200 3197 3328 2828 
z
" transform="scale(0.015625)"/>
       <path id="DejaVuSans-29" d="M 513 4856 
L 1013 4856 
Q 1481 4119 1714 3412 
Q 1947 2706 1947 2009 
Q 1947 1309 1714 600 
Q 1481 -109 1013 -844 
L 513 -844 
Q 928 -128 1133 580 
Q 1338 1288 1338 2009 
Q 1338 2731 1133 3434 
Q 928 4138 513 4856 
z
" transform="scale(0.015625)"/>
      </defs>
      <use xlink:href="#DejaVuSans-71"/>
      <use xlink:href="#DejaVuSans-20" transform="translate(63.476562 0)"/>
      <use xlink:href="#DejaVuSans-28" transform="translate(95.263672 0)"/>
      <use xlink:href="#DejaVuSans-6e" transform="translate(134.277344 0)"/>
      <use xlink:href="#DejaVuSans-6d" transform="translate(197.65625 0)"/>
      <use xlink:href="#DejaVuSans-29" transform="translate(295.068359 0)"/>
     </g>
    </g>
   </g>
   <g id="matplotlib.axis_2">
    <g id="ytick_1">
     <g id="line2d_7">
      <defs>
       <path id="m9523e41d4b" d="M 0 0 
L -3.5 0 
" style="stroke: #000000; stroke-width: 0.8"/>
      </defs>
      <g>
       <use xlink:href="#m9523e41d4b" x="33.7" y="180.687273" style="stroke: #000000; stroke-width: 0.8"/>
      </g>
     </g>
     <g id="text_8">
      <!-- 0 -->
      <g transform="translate(20.3375 184.486491) scale(0.1 -0.1)">
       <use xlink:href="#DejaVuSans-30"/>
      </g>
     </g>
    </g>
    <g id="ytick_2">
     <g id="line2d_8">
      <g>
       <use xlink:href="#m9523e41d4b" x="33.7" y="156.521252" style="stroke: #000000; stroke-width: 0.8"/>
      </g>
     </g>
     <g id="text_9">
      <!-- 100 -->
      <g transform="translate(7.6125 160.32047) scale(0.1 -0.1)">
       <use xlink:href="#DejaVuSans-31"/>
       <use xlink:href="#DejaVuSans-30" transform="translate(63.623047 0)"/>
       <use xlink:href="#DejaVuSans-30" transform="translate(127.246094 0)"/>
      </g>
     </g>
    </g>
    <g id="ytick_3">
     <g id="line2d_9">
      <g>
       <use xlink:href="#m9523e41d4b" x="33.7" y="132.355231" style="stroke: #000000; stroke-width: 0.8"/>
      </g>
     </g>
     <g id="text_10">
      <!-- 200 -->
      <g transform="translate(7.6125 136.15445) scale(0.1 -0.1)">
       <use xlink:href="#DejaVuSans-32"/>
       <use xlink:href="#DejaVuSans-30" transform="translate(63.623047 0)"/>
       <use xlink:href="#DejaVuSans-30" transform="translate(127.246094 0)"/>
      </g>
     </g>
    </g>
    <g id="ytick_4">
     <g id="line2d_10">
      <g>
       <use xlink:href="#m9523e41d4b" x="33.7" y="108.18921" style="stroke: #000000; stroke-width: 0.8"/>
      </g>
     </g>
     <g id="text_11">
      <!-- 300 -->
      <g transform="translate(7.6125 111.988429) scale(0.1 -0.1)">
       <defs>
        <path id="DejaVuSans-33" d="M 2597 2516 
Q 3050 2419 3304 2112 
Q 3559 1806 3559 1356 
Q 3559 666 3084 287 
Q 2609 -91 1734 -91 
Q 1441 -91 1130 -33 
Q 819 25 488 141 
L 488 750 
Q 750 597 1062 519 
Q 1375 441 1716 441 
Q 2309 441 2620 675 
Q 2931 909 2931 1356 
Q 2931 1769 2642 2001 
Q 2353 2234 1838 2234 
L 1294 2234 
L 1294 2753 
L 1863 2753 
Q 2328 2753 2575 2939 
Q 2822 3125 2822 3475 
Q 2822 3834 2567 4026 
Q 2313 4219 1838 4219 
Q 1578 4219 1281 4162 
Q 984 4106 628 3988 
L 628 4550 
Q 988 4650 1302 4700 
Q 1616 4750 1894 4750 
Q 2613 4750 3031 4423 
Q 3450 4097 3450 3541 
Q 3450 3153 3228 2886 
Q 3006 2619 2597 2516 
z
" transform="scale(0.015625)"/>
       </defs>
       <use xlink:href="#DejaVuSans-33"/>
       <use xlink:href="#DejaVuSans-30" transform="translate(63.623047 0)"/>
       <use xlink:href="#DejaVuSans-30" transform="translate(127.246094 0)"/>
      </g>
     </g>
    </g>
    <g id="ytick_5">
     <g id="line2d_11">
      <g>
       <use xlink:href="#m9523e41d4b" x="33.7" y="84.023189" style="stroke: #000000; stroke-width: 0.8"/>
      </g>
     </g>
     <g id="text_12">
      <!-- 400 -->
      <g transform="translate(7.6125 87.822408) scale(0.1 -0.1)">
       <use xlink:href="#DejaVuSans-34"/>
       <use xlink:href="#DejaVuSans-30" transform="translate(63.623047 0)"/>
       <use xlink:href="#DejaVuSans-30" transform="translate(127.246094 0)"/>
      </g>
     </g>
    </g>
    <g id="ytick_6">
     <g id="line2d_12">
      <g>
       <use xlink:href="#m9523e41d4b" x="33.7" y="59.857168" style="stroke: #000000; stroke-width: 0.8"/>
      </g>
     </g>
     <g id="text_13">
      <!-- 500 -->
      <g transform="translate(7.6125 63.656387) scale(0.1 -0.1)">
       <defs>
        <path id="DejaVuSans-35" d="M 691 4666 
L 3169 4666 
L 3169 4134 
L 1269 4134 
L 1269 2991 
Q 1406 3038 1543 3061 
Q 1681 3084 1819 3084 
Q 2600 3084 3056 2656 
Q 3513 2228 3513 1497 
Q 3513 744 3044 326 
Q 2575 -91 1722 -91 
Q 1428 -91 1123 -41 
Q 819 9 494 109 
L 494 744 
Q 775 591 1075 516 
Q 1375 441 1709 441 
Q 2250 441 2565 725 
Q 2881 1009 2881 1497 
Q 2881 1984 2565 2268 
Q 2250 2553 1709 2553 
Q 1456 2553 1204 2497 
Q 953 2441 691 2322 
L 691 4666 
z
" transform="scale(0.015625)"/>
       </defs>
       <use xlink:href="#DejaVuSans-35"/>
       <use xlink:href="#DejaVuSans-30" transform="translate(63.623047 0)"/>
       <use xlink:href="#DejaVuSans-30" transform="translate(127.246094 0)"/>
      </g>
     </g>
    </g>
    <g id="ytick_7">
     <g id="line2d_13">
      <g>
       <use xlink:href="#m9523e41d4b" x="33.7" y="35.691147" style="stroke: #000000; stroke-width: 0.8"/>
      </g>
     </g>
     <g id="text_14">
      <!-- 600 -->
      <g transform="translate(7.6125 39.490366) scale(0.1 -0.1)">
       <use xlink:href="#DejaVuSans-36"/>
       <use xlink:href="#DejaVuSans-30" transform="translate(63.623047 0)"/>
       <use xlink:href="#DejaVuSans-30" transform="translate(127.246094 0)"/>
      </g>
     </g>
    </g>
    <g id="text_15">
     <!-- rdf -->
     <g transform="translate(1.532813 108.462344) rotate(-90) scale(0.1 -0.1)">
      <defs>
       <path id="DejaVuSans-72" d="M 2631 2963 
Q 2534 3019 2420 3045 
Q 2306 3072 2169 3072 
Q 1681 3072 1420 2755 
Q 1159 2438 1159 1844 
L 1159 0 
L 581 0 
L 581 3500 
L 1159 3500 
L 1159 2956 
Q 1341 3275 1631 3429 
Q 1922 3584 2338 3584 
Q 2397 3584 2469 3576 
Q 2541 3569 2628 3553 
L 2631 2963 
z
" transform="scale(0.015625)"/>
       <path id="DejaVuSans-64" d="M 2906 2969 
L 2906 4863 
L 3481 4863 
L 3481 0 
L 2906 0 
L 2906 525 
Q 2725 213 2448 61 
Q 2172 -91 1784 -91 
Q 1150 -91 751 415 
Q 353 922 353 1747 
Q 353 2572 751 3078 
Q 1150 3584 1784 3584 
Q 2172 3584 2448 3432 
Q 2725 3281 2906 2969 
z
M 947 1747 
Q 947 1113 1208 752 
Q 1469 391 1925 391 
Q 2381 391 2643 752 
Q 2906 1113 2906 1747 
Q 2906 2381 2643 2742 
Q 2381 3103 1925 3103 
Q 1469 3103 1208 2742 
Q 947 2381 947 1747 
z
" transform="scale(0.015625)"/>
       <path id="DejaVuSans-66" d="M 2375 4863 
L 2375 4384 
L 1825 4384 
Q 1516 4384 1395 4259 
Q 1275 4134 1275 3809 
L 1275 3500 
L 2222 3500 
L 2222 3053 
L 1275 3053 
L 1275 0 
L 697 0 
L 697 3053 
L 147 3053 
L 147 3500 
L 697 3500 
L 697 3744 
Q 697 4328 969 4595 
Q 1241 4863 1831 4863 
L 2375 4863 
z
" transform="scale(0.015625)"/>
      </defs>
      <use xlink:href="#DejaVuSans-72"/>
      <use xlink:href="#DejaVuSans-64" transform="translate(39.363281 0)"/>
      <use xlink:href="#DejaVuSans-66" transform="translate(102.839844 0)"/>
     </g>
    </g>
   </g>
   <g id="line2d_14">
    <path d="M 44.406818 180.687273 
L 94.854984 180.687273 
L 95.391667 167.937152 
L 95.928349 168.20002 
L 96.465032 143.989985 
L 97.001715 168.701965 
L 97.538397 145.450433 
L 98.07508 146.148178 
L 98.611762 124.250823 
L 99.148445 136.414754 
L 99.685128 158.976672 
L 100.22181 170.038746 
L 100.758493 128.449252 
L 101.295175 160.182633 
L 101.831858 170.624802 
L 102.368541 151.053695 
L 102.905223 151.592478 
L 103.441906 142.593093 
L 103.978589 161.980344 
L 104.515271 143.935569 
L 105.051954 162.633785 
L 105.588636 118.599088 
L 106.125319 171.970438 
L 106.662002 137.848118 
L 107.198684 138.574131 
L 108.272049 156.258103 
L 108.808732 156.661904 
L 109.882097 141.941869 
L 110.41878 165.439073 
L 110.955463 143.176642 
L 111.492145 180.687273 
L 112.028828 137.086529 
L 112.56551 152.074327 
L 113.102193 138.433238 
L 113.638876 146.017267 
L 114.175558 139.718503 
L 114.712241 167.237939 
L 115.248923 154.193027 
L 115.785606 154.58849 
L 116.322289 135.690913 
L 116.858971 142.686153 
L 117.395654 168.205159 
L 117.932337 143.783565 
L 118.469019 162.500957 
L 119.005702 156.785249 
L 120.079067 157.456125 
L 120.61575 134.874738 
L 121.152432 152.452091 
L 121.689115 152.841583 
L 122.225797 164.208752 
L 122.76248 164.432935 
L 123.299163 127.238252 
L 123.835845 143.775162 
L 124.372528 139.064429 
L 124.909211 149.883605 
L 125.445893 135.089827 
L 125.982576 150.686297 
L 126.519258 160.946378 
L 127.055941 136.84339 
L 127.592624 137.4054 
L 128.129306 156.948119 
L 128.665989 143.185352 
L 129.202671 152.914642 
L 129.739354 148.69092 
L 130.276037 171.659016 
L 130.812719 158.395269 
L 131.349402 158.668813 
L 131.886085 167.637315 
L 132.422767 137.714611 
L 132.95945 150.96876 
L 133.496132 147.130056 
L 134.032815 130.950846 
L 134.569498 143.826299 
L 135.10618 164.497385 
L 136.179545 149.05826 
L 136.716228 145.515966 
L 137.252911 149.783152 
L 137.789593 165.411879 
L 138.326276 154.259091 
L 138.862959 162.023269 
L 139.399641 147.469573 
L 139.936324 158.789501 
L 140.473006 148.205638 
L 141.546372 163.037458 
L 142.083054 138.790547 
L 142.619737 146.15288 
L 143.156419 160.190625 
L 143.693102 163.790399 
L 144.229785 123.852343 
L 144.766467 140.99524 
L 145.30315 141.415284 
L 145.839833 151.543356 
L 146.376515 151.84854 
L 146.913198 161.661688 
L 147.44988 139.892329 
L 147.986563 152.735773 
L 148.523246 146.874663 
L 149.059928 135.049682 
L 149.596611 147.559514 
L 150.133293 156.837734 
L 150.669976 162.979868 
L 151.206659 131.018009 
L 151.743341 151.760782 
L 152.280024 154.911173 
L 152.816707 149.49357 
L 153.353389 161.031305 
L 153.890072 136.197737 
L 154.426754 155.904874 
L 154.963437 147.963244 
L 155.50012 156.380377 
L 156.036802 135.213463 
L 156.573485 167.440035 
L 157.110167 172.814268 
L 157.64685 144.293026 
L 158.183533 157.510786 
L 158.720215 157.727377 
L 159.256898 135.194639 
L 159.793581 148.135673 
L 160.330263 150.916502 
L 160.866946 143.815288 
L 161.403628 158.766087 
L 161.940311 142.070586 
L 162.476994 151.986721 
L 163.013676 149.8752 
L 164.087041 136.456717 
L 164.623724 159.922148 
L 165.160407 160.105943 
L 165.697089 155.753875 
L 166.233772 153.725763 
L 166.770455 149.507069 
L 167.307137 154.193755 
L 167.84382 141.290965 
L 168.380502 145.970278 
L 168.917185 133.361084 
L 169.453868 146.56244 
L 169.99055 153.196713 
L 170.527233 157.623229 
L 171.063915 155.738738 
L 171.600598 168.317851 
L 172.137281 150.022478 
L 173.210646 146.509518 
L 173.747329 160.748875 
L 174.284011 156.958147 
L 174.820694 141.462936 
L 175.357376 147.618752 
L 175.894059 145.95815 
L 176.430742 150.066943 
L 176.967424 152.212158 
L 177.504107 146.791578 
L 178.040789 145.19472 
L 178.577472 160.302687 
L 179.114155 154.94914 
L 179.650837 147.856906 
L 180.18752 139.067703 
L 180.724203 151.961694 
L 181.797568 159.477727 
L 182.33425 149.119574 
L 182.870933 158.064413 
L 183.407616 149.604351 
L 183.944298 154.983339 
L 184.480981 156.880016 
L 185.017663 143.560527 
L 185.554346 143.84179 
L 186.091029 140.795369 
L 186.627711 141.095291 
L 187.164394 152.85311 
L 187.701077 157.935996 
L 188.237759 146.814042 
L 188.774442 161.474521 
L 189.311124 152.080854 
L 189.847807 147.558547 
L 190.38449 155.631264 
L 190.921172 148.041282 
L 191.994537 148.51361 
L 192.53122 156.351023 
L 193.067903 147.46558 
L 194.141268 159.84766 
L 194.677951 140.78267 
L 195.214633 146.935661 
L 195.751316 157.373751 
L 196.287998 144.516367 
L 196.824681 154.826957 
L 197.361364 150.727873 
L 198.434729 145.516018 
L 198.971411 148.553541 
L 199.508094 158.487602 
L 200.044777 144.860756 
L 200.581459 153.317093 
L 201.118142 154.863127 
L 201.654825 159.088501 
L 202.191507 152.531091 
L 202.72819 158.048249 
L 203.264872 144.973201 
L 203.801555 159.665392 
L 204.338238 148.060283 
L 204.87492 132.721243 
L 205.948285 152.544021 
L 206.484968 138.751269 
L 207.021651 141.551866 
L 207.558333 156.858371 
L 208.095016 144.55451 
L 208.631699 153.454852 
L 209.168381 156.091255 
L 209.705064 137.922914 
L 210.241746 144.268486 
L 210.778429 152.945738 
L 211.315112 156.718843 
L 211.851794 149.727457 
L 212.388477 153.474239 
L 212.925159 151.295545 
L 213.461842 157.322738 
L 213.998525 152.82673 
L 214.535207 157.616144 
L 215.07189 144.005033 
L 215.608573 146.512641 
L 216.145255 151.253742 
L 216.681938 146.936505 
L 217.21862 147.145414 
L 217.755303 152.908272 
L 218.828668 155.443661 
L 219.902033 144.909301 
L 220.438716 162.368211 
L 220.975399 153.910867 
L 221.512081 147.684853 
L 222.048764 158.465664 
L 222.585447 152.288066 
L 223.122129 161.867811 
L 223.658812 154.705393 
L 224.195494 162.091651 
L 224.732177 150.905336 
L 225.26886 162.311277 
L 225.805542 148.211763 
L 226.342225 163.536063 
L 226.878907 151.600991 
L 227.41559 155.759596 
L 227.952273 154.913577 
L 228.488955 158.019948 
L 229.025638 150.312829 
L 229.562321 146.591803 
L 230.099003 159.379224 
L 230.635686 153.723883 
L 231.172368 144.304037 
L 231.709051 153.079583 
L 232.245734 153.237068 
L 232.782416 150.569246 
L 233.319099 144.18907 
L 234.392464 157.554291 
L 234.929147 148.482934 
L 235.465829 155.983027 
L 236.002512 151.571805 
L 236.539195 154.448421 
L 237.075877 149.195477 
L 237.61256 160.107413 
L 238.149242 156.661729 
L 238.685925 150.599765 
L 239.222608 154.285299 
L 239.75929 163.182332 
L 240.295973 153.702831 
L 240.832656 152.9843 
L 241.369338 153.995767 
L 241.906021 153.284146 
L 242.442703 151.728914 
L 243.516069 153.724908 
L 244.052751 156.383705 
L 244.589434 151.512284 
L 245.126116 153.326019 
L 245.662799 145.224511 
L 246.199482 159.358368 
L 246.736164 152.127067 
L 247.272847 157.148152 
L 247.80953 151.61994 
L 248.346212 152.57588 
L 248.882895 156.717787 
L 249.419577 153.663812 
L 249.95626 152.22321 
L 250.492943 142.145777 
L 251.029625 158.777775 
L 251.566308 150.32803 
L 252.10299 147.386768 
L 252.639673 155.262416 
L 253.176356 155.392832 
L 253.713038 158.572521 
L 254.249721 151.857233 
L 254.786404 160.307018 
L 255.323086 146.892673 
L 255.859769 158.271596 
L 256.396451 155.411158 
L 256.933134 158.497109 
L 257.469817 143.889436 
L 258.006499 158.719295 
L 258.543182 139.885526 
L 258.543182 139.885526 
" clip-path="url(#p49fce286cd)" style="fill: none; stroke: #000000; stroke-opacity: 0.5; stroke-width: 0.5; stroke-linecap: square"/>
   </g>
   <g id="line2d_15">
    <path d="M 44.406818 180.687273 
L 94.854984 180.687273 
L 95.391667 141.640022 
L 95.928349 180.687273 
L 96.465032 143.225453 
L 97.001715 143.982263 
L 97.538397 108.745379 
L 98.07508 180.687273 
L 98.611762 146.119944 
L 100.758493 148.691481 
L 101.295175 149.28954 
L 101.831858 180.687273 
L 102.368541 180.687273 
L 102.905223 150.986333 
L 103.441906 180.687273 
L 103.978589 152.042285 
L 104.515271 180.687273 
L 105.051954 180.687273 
L 105.588636 126.360102 
L 106.125319 153.991963 
L 106.662002 128.209303 
L 107.198684 154.892969 
L 107.735367 104.604876 
L 108.272049 155.749159 
L 110.41878 157.338465 
L 110.955463 134.736747 
L 111.492145 180.687273 
L 112.028828 180.687273 
L 112.56551 158.780483 
L 113.638876 159.451892 
L 114.175558 97.042684 
L 114.712241 180.687273 
L 115.785606 140.723508 
L 116.322289 101.943634 
L 116.858971 161.290866 
L 117.395654 161.574034 
L 117.932337 124.178464 
L 118.469019 124.991674 
L 119.005702 144.087293 
L 120.079067 145.114573 
L 120.61575 128.074435 
L 121.152432 163.393222 
L 121.689115 129.520812 
L 122.225797 147.043622 
L 122.76248 180.687273 
L 123.299163 98.843447 
L 123.835845 148.38917 
L 124.372528 148.819778 
L 124.909211 180.687273 
L 125.445893 149.655673 
L 126.519258 150.459023 
L 127.055941 106.091763 
L 127.592624 136.503692 
L 128.129306 151.606806 
L 128.665989 123.262452 
L 129.202671 123.984807 
L 129.739354 166.688866 
L 130.276037 180.687273 
L 130.812719 153.379564 
L 131.349402 140.228348 
L 131.886085 180.687273 
L 132.422767 114.885369 
L 132.95945 141.68172 
L 134.032815 142.607813 
L 134.569498 130.515385 
L 135.10618 180.687273 
L 136.179545 156.471307 
L 136.716228 156.751243 
L 137.252911 145.195819 
L 137.789593 145.601596 
L 138.326276 169.124941 
L 139.936324 135.979315 
L 140.473006 147.528934 
L 141.009689 147.895318 
L 141.546372 159.066247 
L 142.619737 117.230324 
L 143.156419 170.225441 
L 143.693102 170.337936 
L 144.229785 119.25539 
L 144.766467 130.038577 
L 145.30315 160.642191 
L 145.839833 141.01916 
L 146.376515 180.687273 
L 146.913198 141.843366 
L 147.44988 151.856228 
L 147.986563 133.130895 
L 148.523246 152.446058 
L 149.059928 143.416569 
L 149.596611 162.241133 
L 150.133293 144.16766 
L 150.669976 180.687273 
L 151.206659 135.948403 
L 151.743341 136.393577 
L 152.280024 145.60313 
L 152.816707 145.948828 
L 153.353389 163.488299 
L 153.890072 129.593816 
L 154.426754 155.388571 
L 154.963437 155.632936 
L 155.50012 147.602882 
L 156.036802 131.535428 
L 156.573485 164.459406 
L 157.110167 172.650245 
L 157.64685 140.881058 
L 158.183533 172.800829 
L 158.720215 157.249042 
L 159.256898 157.467071 
L 159.793581 142.345238 
L 160.330263 165.491773 
L 160.866946 150.57515 
L 161.403628 143.390805 
L 161.940311 121.555465 
L 162.476994 129.414927 
L 163.013676 151.652818 
L 163.550359 166.300275 
L 164.087041 145.040928 
L 165.160407 159.677162 
L 165.697089 139.03716 
L 166.233772 166.925667 
L 166.770455 146.58392 
L 167.307137 160.40317 
L 167.84382 160.578738 
L 168.380502 134.171919 
L 168.917185 121.395083 
L 169.453868 154.560445 
L 170.527233 155.002311 
L 171.063915 136.117749 
L 171.600598 180.687273 
L 172.137281 149.383625 
L 172.673963 137.227492 
L 173.210646 162.216204 
L 173.747329 168.475003 
L 174.284011 168.57553 
L 174.820694 144.649908 
L 175.357376 133.029693 
L 175.894059 145.234622 
L 176.430742 116.217118 
L 176.967424 151.618925 
L 177.504107 140.318439 
L 178.040789 146.362234 
L 178.577472 163.66151 
L 179.114155 158.166402 
L 179.650837 141.587214 
L 180.18752 158.520325 
L 180.724203 142.199481 
L 181.260885 164.321353 
L 181.797568 153.623003 
L 182.33425 153.832802 
L 182.870933 164.698999 
L 183.407616 133.091543 
L 183.944298 164.943611 
L 184.480981 149.440245 
L 185.017663 144.509785 
L 185.554346 114.009498 
L 186.091029 145.054656 
L 186.627711 130.166243 
L 187.164394 130.544837 
L 187.701077 165.756746 
L 188.237759 151.04819 
L 188.774442 151.26774 
L 189.311124 166.086078 
L 189.847807 142.037086 
L 190.38449 166.299641 
L 191.457855 138.150924 
L 191.994537 152.535313 
L 192.53122 148.080498 
L 193.067903 148.314997 
L 193.604585 157.730023 
L 194.141268 162.452609 
L 194.677951 153.529971 
L 195.751316 162.837855 
L 196.287998 145.239781 
L 196.824681 171.887581 
L 197.361364 150.103714 
L 197.898046 150.316815 
L 198.434729 141.910957 
L 198.971411 150.736534 
L 199.508094 167.939805 
L 200.044777 142.707714 
L 200.581459 155.540918 
L 201.118142 147.387712 
L 201.654825 164.150712 
L 202.191507 164.262832 
L 202.72819 152.138795 
L 203.264872 156.381859 
L 203.801555 164.592393 
L 204.338238 148.712816 
L 204.87492 140.985652 
L 205.411603 145.193227 
L 205.948285 165.016597 
L 206.484968 149.552963 
L 207.021651 149.757673 
L 207.558333 153.80137 
L 208.095016 127.266845 
L 208.631699 161.732887 
L 209.168381 165.62221 
L 209.705064 135.784692 
L 210.241746 136.074256 
L 210.778429 162.21804 
L 211.315112 166.006609 
L 211.851794 140.57347 
L 212.388477 166.193373 
L 213.461842 152.065715 
L 213.998525 155.801419 
L 214.535207 163.023437 
L 215.07189 142.070616 
L 215.608573 138.823347 
L 216.145255 149.484897 
L 216.681938 139.34258 
L 217.21862 136.174425 
L 217.755303 170.478488 
L 218.291986 153.631429 
L 218.828668 153.797336 
L 219.365351 143.939909 
L 219.902033 137.52331 
L 220.438716 160.88652 
L 220.975399 161.00661 
L 221.512081 148.084071 
L 222.048764 158.002711 
L 223.122129 158.273814 
L 223.658812 161.590589 
L 224.195494 158.540403 
L 224.732177 146.09144 
L 225.26886 171.307858 
L 225.805542 140.283165 
L 226.342225 165.238569 
L 226.878907 143.827925 
L 227.41559 168.472709 
L 227.952273 165.50805 
L 228.488955 150.50523 
L 229.025638 141.678154 
L 229.562321 129.97026 
L 230.099003 171.78874 
L 230.635686 157.094302 
L 231.172368 160.16186 
L 231.709051 145.701658 
L 232.245734 154.597742 
L 232.782416 154.745767 
L 233.319099 146.294732 
L 234.392464 152.349363 
L 234.929147 149.690593 
L 235.465829 155.468352 
L 236.002512 152.822854 
L 236.539195 155.749048 
L 237.075877 161.398545 
L 237.61256 158.765245 
L 238.149242 158.886313 
L 238.685925 150.876301 
L 239.222608 156.430458 
L 239.75929 167.285051 
L 240.295973 154.029251 
L 240.832656 156.825919 
L 241.369338 156.955507 
L 241.906021 159.70675 
L 242.442703 157.211834 
L 242.979386 152.149691 
L 243.516069 149.722678 
L 244.052751 144.755701 
L 244.589434 144.947908 
L 245.126116 147.677571 
L 245.662799 142.801902 
L 246.199482 163.101181 
L 246.736164 150.699053 
L 247.272847 160.80077 
L 248.346212 146.250815 
L 248.882895 161.112191 
L 249.419577 151.478086 
L 249.95626 144.365938 
L 250.492943 142.145773 
L 251.029625 147.138349 
L 251.566308 156.84748 
L 252.10299 149.855262 
L 252.639673 154.732728 
L 253.176356 152.51846 
L 253.713038 152.662539 
L 254.249721 148.158638 
L 254.786404 159.882425 
L 255.323086 136.988974 
L 255.859769 162.381134 
L 256.396451 157.920179 
L 256.933134 155.769565 
L 257.469817 146.879254 
L 258.006499 162.746757 
L 258.543182 140.523044 
L 258.543182 140.523044 
" clip-path="url(#p49fce286cd)" style="fill: none; stroke: #0000ff; stroke-opacity: 0.5; stroke-linecap: square"/>
   </g>
   <g id="line2d_16">
    <path d="M 44.406818 180.687273 
L 100.22181 180.687273 
L 100.758493 123.805874 
L 101.295175 180.687273 
L 101.831858 180.687273 
L 102.368541 126.907813 
L 102.905223 180.687273 
L 103.441906 128.836862 
L 103.978589 129.762856 
L 104.515271 80.640964 
L 105.588636 180.687273 
L 106.125319 180.687273 
L 106.662002 134.040196 
L 107.198684 134.83074 
L 107.735367 180.687273 
L 108.808732 180.687273 
L 109.882097 96.308396 
L 110.41878 180.687273 
L 110.955463 139.842365 
L 111.492145 180.687273 
L 112.028828 22.432727 
L 112.56551 141.741873 
L 113.102193 180.687273 
L 114.175558 106.336543 
L 115.248923 180.687273 
L 115.785606 109.640587 
L 116.322289 110.692939 
L 117.395654 180.687273 
L 117.932337 147.200574 
L 118.469019 180.687273 
L 119.542384 180.687273 
L 120.079067 117.446932 
L 120.61575 180.687273 
L 121.689115 180.687273 
L 122.225797 150.781809 
L 122.76248 180.687273 
L 123.299163 93.387205 
L 123.835845 151.977853 
L 124.372528 180.687273 
L 124.909211 96.832847 
L 125.445893 125.519993 
L 125.982576 99.017951 
L 126.519258 153.817721 
L 127.055941 101.118746 
L 127.592624 128.321553 
L 128.129306 180.687273 
L 128.665989 129.642992 
L 129.202671 180.687273 
L 129.739354 106.029114 
L 130.276037 156.110353 
L 132.422767 157.291046 
L 132.95945 180.687273 
L 133.496132 135.012173 
L 134.569498 136.090045 
L 135.10618 158.651035 
L 135.642863 158.90874 
L 136.179545 116.111377 
L 137.789593 180.687273 
L 138.326276 180.687273 
L 138.862959 160.364247 
L 139.399641 160.592614 
L 139.936324 180.687273 
L 140.473006 121.739122 
L 141.009689 141.822742 
L 142.619737 143.083158 
L 143.156419 162.088463 
L 143.693102 162.288456 
L 144.229785 126.081166 
L 144.766467 162.678851 
L 145.30315 127.233731 
L 145.839833 145.42673 
L 146.376515 145.795965 
L 146.913198 180.687273 
L 147.44988 163.602212 
L 147.986563 163.778341 
L 149.059928 130.993009 
L 149.596611 164.290705 
L 150.133293 148.225399 
L 150.669976 148.551609 
L 151.206659 117.058673 
L 151.743341 180.687273 
L 152.280024 165.094322 
L 152.816707 180.687273 
L 153.890072 89.854473 
L 154.426754 150.70363 
L 154.963437 165.84026 
L 156.036802 136.996751 
L 156.573485 137.412967 
L 157.110167 180.687273 
L 157.64685 180.687273 
L 158.183533 152.646585 
L 158.720215 166.797953 
L 159.256898 125.646804 
L 159.793581 139.78911 
L 160.330263 126.658837 
L 160.866946 127.154617 
L 161.403628 140.904381 
L 161.940311 141.266075 
L 162.476994 167.665725 
L 163.013676 167.783072 
L 163.550359 129.533508 
L 164.087041 117.316005 
L 164.623724 155.564038 
L 165.160407 168.236838 
L 165.697089 156.005727 
L 166.233772 168.454736 
L 167.307137 144.626651 
L 167.84382 121.106438 
L 168.380502 168.87385 
L 168.917185 145.551167 
L 169.453868 145.851509 
L 169.99055 134.634715 
L 171.063915 158.048788 
L 171.600598 158.239063 
L 172.137281 136.166538 
L 172.673963 147.575063 
L 173.210646 180.687273 
L 173.747329 148.121225 
L 174.284011 159.155288 
L 175.357376 138.324986 
L 175.894059 138.669323 
L 176.430742 159.848438 
L 176.967424 149.681039 
L 177.504107 129.425263 
L 178.040789 140.005751 
L 178.577472 130.240571 
L 179.650837 150.896756 
L 180.18752 141.279372 
L 180.724203 151.363247 
L 181.260885 151.59231 
L 181.797568 180.687273 
L 182.33425 152.04251 
L 182.870933 142.789151 
L 183.407616 180.687273 
L 184.480981 162.170518 
L 185.017663 125.559684 
L 185.554346 162.45062 
L 186.091029 126.38996 
L 186.627711 153.742729 
L 187.164394 162.858853 
L 187.701077 136.448679 
L 188.774442 171.970375 
L 189.311124 120.119361 
L 189.847807 146.331555 
L 190.921172 146.832173 
L 191.457855 163.882791 
L 191.994537 172.345952 
L 192.53122 172.406187 
L 193.067903 139.579623 
L 193.604585 139.87439 
L 194.141268 164.478686 
L 194.677951 124.361026 
L 195.214633 132.750204 
L 195.751316 148.954978 
L 196.287998 133.423955 
L 197.361364 149.618264 
L 197.898046 149.834748 
L 198.971411 135.048059 
L 199.508094 142.917002 
L 200.044777 158.180872 
L 200.581459 150.884189 
L 201.118142 158.487569 
L 201.654825 173.337691 
L 202.191507 144.188517 
L 202.72819 144.43524 
L 203.264872 123.074448 
L 203.801555 159.227436 
L 204.338238 159.370972 
L 204.87492 124.222754 
L 205.411603 138.620261 
L 205.948285 166.757785 
L 206.484968 139.174867 
L 207.021651 139.447812 
L 207.558333 160.202779 
L 208.631699 160.469265 
L 209.168381 140.513778 
L 209.705064 140.773875 
L 210.241746 114.593921 
L 210.778429 134.719416 
L 211.315112 148.063576 
L 211.851794 128.822967 
L 212.388477 142.036879 
L 212.925159 148.682944 
L 213.461842 161.606238 
L 214.535207 149.284901 
L 215.07189 155.72297 
L 215.608573 155.879023 
L 216.145255 149.870115 
L 216.681938 156.186716 
L 217.21862 150.251142 
L 217.755303 150.439024 
L 218.291986 156.637637 
L 218.828668 150.809568 
L 219.902033 151.173456 
L 220.438716 163.086606 
L 220.975399 163.193354 
L 221.512081 169.095025 
L 222.048764 151.881482 
L 222.585447 140.601152 
L 223.122129 169.302659 
L 223.658812 146.737616 
L 224.732177 158.322293 
L 225.26886 169.57093 
L 225.805542 136.484495 
L 226.342225 153.222914 
L 226.878907 164.305344 
L 227.41559 137.257718 
L 227.952273 148.304937 
L 228.488955 169.955882 
L 229.562321 148.864835 
L 230.099003 164.867663 
L 230.635686 170.201509 
L 231.172368 144.197654 
L 232.245734 154.919838 
L 232.782416 149.941789 
L 233.319099 134.830555 
L 233.855781 155.355266 
L 234.392464 150.460174 
L 234.929147 160.649019 
L 235.465829 150.798188 
L 236.002512 175.733599 
L 236.539195 151.130864 
L 237.075877 156.193652 
L 237.61256 156.329466 
L 238.149242 161.308645 
L 238.685925 156.5976 
L 239.222608 142.355522 
L 239.75929 166.391573 
L 240.295973 156.991257 
L 240.832656 138.267097 
L 241.369338 138.497473 
L 241.906021 143.38857 
L 242.442703 157.501656 
L 242.979386 148.402334 
L 244.052751 166.999057 
L 244.589434 157.995615 
L 245.126116 158.116541 
L 245.662799 153.74657 
L 246.736164 154.031083 
L 247.272847 140.914274 
L 247.80953 149.915376 
L 248.346212 167.568624 
L 248.882895 150.23715 
L 249.419577 159.050841 
L 249.95626 159.163522 
L 250.492943 133.580999 
L 251.029625 159.38637 
L 251.566308 142.543608 
L 252.10299 142.740185 
L 252.639673 159.713906 
L 253.176356 151.475175 
L 253.713038 151.62459 
L 254.249721 155.903554 
L 255.859769 156.279092 
L 256.396451 152.354896 
L 256.933134 156.52465 
L 257.469817 148.632268 
L 258.006499 144.806244 
L 258.543182 125.151558 
L 258.543182 125.151558 
" clip-path="url(#p49fce286cd)" style="fill: none; stroke: #ff0000; stroke-opacity: 0.5; stroke-linecap: square"/>
   </g>
   <g id="patch_3">
    <path d="M 33.7 188.6 
L 33.7 14.52 
" style="fill: none; stroke: #000000; stroke-width: 0.8; stroke-linejoin: miter; stroke-linecap: square"/>
   </g>
   <g id="patch_4">
    <path d="M 269.25 188.6 
L 269.25 14.52 
" style="fill: none; stroke: #000000; stroke-width: 0.8; stroke-linejoin: miter; stroke-linecap: square"/>
   </g>
   <g id="patch_5">
    <path d="M 33.7 188.6 
L 269.25 188.6 
" style="fill: none; stroke: #000000; stroke-width: 0.8; stroke-linejoin: miter; stroke-linecap: square"/>
   </g>
   <g id="patch_6">
    <path d="M 33.7 14.52 
L 269.25 14.52 
" style="fill: none; stroke: #000000; stroke-width: 0.8; stroke-linejoin: miter; stroke-linecap: square"/>
   </g>
   <g id="legend_1">
    <g id="patch_7">
     <path d="M 213.917188 66.554375 
L 262.25 66.554375 
Q 264.25 66.554375 264.25 64.554375 
L 264.25 21.52 
Q 264.25 19.52 262.25 19.52 
L 213.917188 19.52 
Q 211.917188 19.52 211.917188 21.52 
L 211.917188 64.554375 
Q 211.917188 66.554375 213.917188 66.554375 
z
" style="fill: #ffffff; opacity: 0.8; stroke: #cccccc; stroke-linejoin: miter"/>
    </g>
    <g id="line2d_17">
     <path d="M 215.917188 27.618438 
L 225.917188 27.618438 
L 235.917188 27.618438 
" style="fill: none; stroke: #000000; stroke-opacity: 0.5; stroke-width: 0.5; stroke-linecap: square"/>
    </g>
    <g id="text_16">
     <!-- all -->
     <g transform="translate(243.917188 31.118438) scale(0.1 -0.1)">
      <defs>
       <path id="DejaVuSans-61" d="M 2194 1759 
Q 1497 1759 1228 1600 
Q 959 1441 959 1056 
Q 959 750 1161 570 
Q 1363 391 1709 391 
Q 2188 391 2477 730 
Q 2766 1069 2766 1631 
L 2766 1759 
L 2194 1759 
z
M 3341 1997 
L 3341 0 
L 2766 0 
L 2766 531 
Q 2569 213 2275 61 
Q 1981 -91 1556 -91 
Q 1019 -91 701 211 
Q 384 513 384 1019 
Q 384 1609 779 1909 
Q 1175 2209 1959 2209 
L 2766 2209 
L 2766 2266 
Q 2766 2663 2505 2880 
Q 2244 3097 1772 3097 
Q 1472 3097 1187 3025 
Q 903 2953 641 2809 
L 641 3341 
Q 956 3463 1253 3523 
Q 1550 3584 1831 3584 
Q 2591 3584 2966 3190 
Q 3341 2797 3341 1997 
z
" transform="scale(0.015625)"/>
       <path id="DejaVuSans-6c" d="M 603 4863 
L 1178 4863 
L 1178 0 
L 603 0 
L 603 4863 
z
" transform="scale(0.015625)"/>
      </defs>
      <use xlink:href="#DejaVuSans-61"/>
      <use xlink:href="#DejaVuSans-6c" transform="translate(61.279297 0)"/>
      <use xlink:href="#DejaVuSans-6c" transform="translate(89.0625 0)"/>
     </g>
    </g>
    <g id="line2d_18">
     <path d="M 215.917188 42.296563 
L 225.917188 42.296563 
L 235.917188 42.296563 
" style="fill: none; stroke: #0000ff; stroke-opacity: 0.5; stroke-linecap: square"/>
    </g>
    <g id="text_17">
     <!-- 1-1 -->
     <g transform="translate(243.917188 45.796563) scale(0.1 -0.1)">
      <defs>
       <path id="DejaVuSans-2d" d="M 313 2009 
L 1997 2009 
L 1997 1497 
L 313 1497 
L 313 2009 
z
" transform="scale(0.015625)"/>
      </defs>
      <use xlink:href="#DejaVuSans-31"/>
      <use xlink:href="#DejaVuSans-2d" transform="translate(63.623047 0)"/>
      <use xlink:href="#DejaVuSans-31" transform="translate(99.707031 0)"/>
     </g>
    </g>
    <g id="line2d_19">
     <path d="M 215.917188 56.974688 
L 225.917188 56.974688 
L 235.917188 56.974688 
" style="fill: none; stroke: #ff0000; stroke-opacity: 0.5; stroke-linecap: square"/>
    </g>
    <g id="text_18">
     <!-- 2-2 -->
     <g transform="translate(243.917188 60.474688) scale(0.1 -0.1)">
      <use xlink:href="#DejaVuSans-32"/>
      <use xlink:href="#DejaVuSans-2d" transform="translate(63.623047 0)"/>
      <use xlink:href="#DejaVuSans-32" transform="translate(99.707031 0)"/>
     </g>
    </g>
   </g>
  </g>
 </g>
 <defs>
  <clipPath id="p49fce286cd">
   <rect x="33.7" y="14.52" width="235.55" height="174.08"/>
  </clipPath>
 </defs>
</svg>
