<?xml version="1.0" encoding="utf-8" standalone="no"?>
<!DOCTYPE svg PUBLIC "-//W3C//DTD SVG 1.1//EN"
  "http://www.w3.org/Graphics/SVG/1.1/DTD/svg11.dtd">
<svg xmlns:xlink="http://www.w3.org/1999/xlink" width="288pt" height="216pt" viewBox="0 0 288 216" xmlns="http://www.w3.org/2000/svg" version="1.1">
 <metadata>
  <rdf:RDF xmlns:dc="http://purl.org/dc/elements/1.1/" xmlns:cc="http://creativecommons.org/ns#" xmlns:rdf="http://www.w3.org/1999/02/22-rdf-syntax-ns#">
   <cc:Work>
    <dc:type rdf:resource="http://purl.org/dc/dcmitype/StillImage"/>
    <dc:date>2025-09-17T23:04:48.021369</dc:date>
    <dc:format>image/svg+xml</dc:format>
    <dc:creator>
     <cc:Agent>
      <dc:title>Matplotlib v3.10.0, https://matplotlib.org/</dc:title>
     </cc:Agent>
    </dc:creator>
   </cc:Work>
  </rdf:RDF>
 </metadata>
 <defs>
  <style type="text/css">*{stroke-linejoin: round; stroke-linecap: butt}</style>
 </defs>
 <g id="figure_1">
  <g id="patch_1">
   <path d="M 0 216 
L 288 216 
L 288 0 
L 0 0 
z
" style="fill: #ffffff"/>
  </g>
  <g id="axes_1">
   <g id="patch_2">
    <path d="M 33.7 188.6 
L 269.25 188.6 
L 269.25 14.52 
L 33.7 14.52 
z
" style="fill: #ffffff"/>
   </g>
   <g id="matplotlib.axis_1">
    <g id="xtick_1">
     <g id="line2d_1">
      <defs>
       <path id="mfc68d936fb" d="M 0 0 
L 0 3.5 
" style="stroke: #000000; stroke-width: 0.8"/>
      </defs>
      <g>
       <use xlink:href="#mfc68d936fb" x="44.138477" y="188.6" style="stroke: #000000; stroke-width: 0.8"/>
      </g>
     </g>
     <g id="text_1">
      <!-- 0 -->
      <g transform="translate(40.957227 203.198437) scale(0.1 -0.1)">
       <defs>
        <path id="DejaVuSans-30" d="M 2034 4250 
Q 1547 4250 1301 3770 
Q 1056 3291 1056 2328 
Q 1056 1369 1301 889 
Q 1547 409 2034 409 
Q 2525 409 2770 889 
Q 3016 1369 3016 2328 
Q 3016 3291 2770 3770 
Q 2525 4250 2034 4250 
z
M 2034 4750 
Q 2819 4750 3233 4129 
Q 3647 3509 3647 2328 
Q 3647 1150 3233 529 
Q 2819 -91 2034 -91 
Q 1250 -91 836 529 
Q 422 1150 422 2328 
Q 422 3509 836 4129 
Q 1250 4750 2034 4750 
z
" transform="scale(0.015625)"/>
       </defs>
       <use xlink:href="#DejaVuSans-30"/>
      </g>
     </g>
    </g>
    <g id="xtick_2">
     <g id="line2d_2">
      <g>
       <use xlink:href="#mfc68d936fb" x="87.073086" y="188.6" style="stroke: #000000; stroke-width: 0.8"/>
      </g>
     </g>
     <g id="text_2">
      <!-- 200 -->
      <g transform="translate(77.529336 203.198437) scale(0.1 -0.1)">
       <defs>
        <path id="DejaVuSans-32" d="M 1228 531 
L 3431 531 
L 3431 0 
L 469 0 
L 469 531 
Q 828 903 1448 1529 
Q 2069 2156 2228 2338 
Q 2531 2678 2651 2914 
Q 2772 3150 2772 3378 
Q 2772 3750 2511 3984 
Q 2250 4219 1831 4219 
Q 1534 4219 1204 4116 
Q 875 4013 500 3803 
L 500 4441 
Q 881 4594 1212 4672 
Q 1544 4750 1819 4750 
Q 2544 4750 2975 4387 
Q 3406 4025 3406 3419 
Q 3406 3131 3298 2873 
Q 3191 2616 2906 2266 
Q 2828 2175 2409 1742 
Q 1991 1309 1228 531 
z
" transform="scale(0.015625)"/>
       </defs>
       <use xlink:href="#DejaVuSans-32"/>
       <use xlink:href="#DejaVuSans-30" transform="translate(63.623047 0)"/>
       <use xlink:href="#DejaVuSans-30" transform="translate(127.246094 0)"/>
      </g>
     </g>
    </g>
    <g id="xtick_3">
     <g id="line2d_3">
      <g>
       <use xlink:href="#mfc68d936fb" x="130.007695" y="188.6" style="stroke: #000000; stroke-width: 0.8"/>
      </g>
     </g>
     <g id="text_3">
      <!-- 400 -->
      <g transform="translate(120.463945 203.198437) scale(0.1 -0.1)">
       <defs>
        <path id="DejaVuSans-34" d="M 2419 4116 
L 825 1625 
L 2419 1625 
L 2419 4116 
z
M 2253 4666 
L 3047 4666 
L 3047 1625 
L 3713 1625 
L 3713 1100 
L 3047 1100 
L 3047 0 
L 2419 0 
L 2419 1100 
L 313 1100 
L 313 1709 
L 2253 4666 
z
" transform="scale(0.015625)"/>
       </defs>
       <use xlink:href="#DejaVuSans-34"/>
       <use xlink:href="#DejaVuSans-30" transform="translate(63.623047 0)"/>
       <use xlink:href="#DejaVuSans-30" transform="translate(127.246094 0)"/>
      </g>
     </g>
    </g>
    <g id="xtick_4">
     <g id="line2d_4">
      <g>
       <use xlink:href="#mfc68d936fb" x="172.942305" y="188.6" style="stroke: #000000; stroke-width: 0.8"/>
      </g>
     </g>
     <g id="text_4">
      <!-- 600 -->
      <g transform="translate(163.398555 203.198437) scale(0.1 -0.1)">
       <defs>
        <path id="DejaVuSans-36" d="M 2113 2584 
Q 1688 2584 1439 2293 
Q 1191 2003 1191 1497 
Q 1191 994 1439 701 
Q 1688 409 2113 409 
Q 2538 409 2786 701 
Q 3034 994 3034 1497 
Q 3034 2003 2786 2293 
Q 2538 2584 2113 2584 
z
M 3366 4563 
L 3366 3988 
Q 3128 4100 2886 4159 
Q 2644 4219 2406 4219 
Q 1781 4219 1451 3797 
Q 1122 3375 1075 2522 
Q 1259 2794 1537 2939 
Q 1816 3084 2150 3084 
Q 2853 3084 3261 2657 
Q 3669 2231 3669 1497 
Q 3669 778 3244 343 
Q 2819 -91 2113 -91 
Q 1303 -91 875 529 
Q 447 1150 447 2328 
Q 447 3434 972 4092 
Q 1497 4750 2381 4750 
Q 2619 4750 2861 4703 
Q 3103 4656 3366 4563 
z
" transform="scale(0.015625)"/>
       </defs>
       <use xlink:href="#DejaVuSans-36"/>
       <use xlink:href="#DejaVuSans-30" transform="translate(63.623047 0)"/>
       <use xlink:href="#DejaVuSans-30" transform="translate(127.246094 0)"/>
      </g>
     </g>
    </g>
    <g id="xtick_5">
     <g id="line2d_5">
      <g>
       <use xlink:href="#mfc68d936fb" x="215.876914" y="188.6" style="stroke: #000000; stroke-width: 0.8"/>
      </g>
     </g>
     <g id="text_5">
      <!-- 800 -->
      <g transform="translate(206.333164 203.198437) scale(0.1 -0.1)">
       <defs>
        <path id="DejaVuSans-38" d="M 2034 2216 
Q 1584 2216 1326 1975 
Q 1069 1734 1069 1313 
Q 1069 891 1326 650 
Q 1584 409 2034 409 
Q 2484 409 2743 651 
Q 3003 894 3003 1313 
Q 3003 1734 2745 1975 
Q 2488 2216 2034 2216 
z
M 1403 2484 
Q 997 2584 770 2862 
Q 544 3141 544 3541 
Q 544 4100 942 4425 
Q 1341 4750 2034 4750 
Q 2731 4750 3128 4425 
Q 3525 4100 3525 3541 
Q 3525 3141 3298 2862 
Q 3072 2584 2669 2484 
Q 3125 2378 3379 2068 
Q 3634 1759 3634 1313 
Q 3634 634 3220 271 
Q 2806 -91 2034 -91 
Q 1263 -91 848 271 
Q 434 634 434 1313 
Q 434 1759 690 2068 
Q 947 2378 1403 2484 
z
M 1172 3481 
Q 1172 3119 1398 2916 
Q 1625 2713 2034 2713 
Q 2441 2713 2670 2916 
Q 2900 3119 2900 3481 
Q 2900 3844 2670 4047 
Q 2441 4250 2034 4250 
Q 1625 4250 1398 4047 
Q 1172 3844 1172 3481 
z
" transform="scale(0.015625)"/>
       </defs>
       <use xlink:href="#DejaVuSans-38"/>
       <use xlink:href="#DejaVuSans-30" transform="translate(63.623047 0)"/>
       <use xlink:href="#DejaVuSans-30" transform="translate(127.246094 0)"/>
      </g>
     </g>
    </g>
    <g id="xtick_6">
     <g id="line2d_6">
      <g>
       <use xlink:href="#mfc68d936fb" x="258.811523" y="188.6" style="stroke: #000000; stroke-width: 0.8"/>
      </g>
     </g>
     <g id="text_6">
      <!-- 1000 -->
      <g transform="translate(246.086523 203.198437) scale(0.1 -0.1)">
       <defs>
        <path id="DejaVuSans-31" d="M 794 531 
L 1825 531 
L 1825 4091 
L 703 3866 
L 703 4441 
L 1819 4666 
L 2450 4666 
L 2450 531 
L 3481 531 
L 3481 0 
L 794 0 
L 794 531 
z
" transform="scale(0.015625)"/>
       </defs>
       <use xlink:href="#DejaVuSans-31"/>
       <use xlink:href="#DejaVuSans-30" transform="translate(63.623047 0)"/>
       <use xlink:href="#DejaVuSans-30" transform="translate(127.246094 0)"/>
       <use xlink:href="#DejaVuSans-30" transform="translate(190.869141 0)"/>
      </g>
     </g>
    </g>
    <g id="text_7">
     <!-- q (nm) -->
     <g transform="translate(134.771094 216.876563) scale(0.1 -0.1)">
      <defs>
       <path id="DejaVuSans-71" d="M 947 1747 
Q 947 1113 1208 752 
Q 1469 391 1925 391 
Q 2381 391 2643 752 
Q 2906 1113 2906 1747 
Q 2906 2381 2643 2742 
Q 2381 3103 1925 3103 
Q 1469 3103 1208 2742 
Q 947 2381 947 1747 
z
M 2906 525 
Q 2725 213 2448 61 
Q 2172 -91 1784 -91 
Q 1150 -91 751 415 
Q 353 922 353 1747 
Q 353 2572 751 3078 
Q 1150 3584 1784 3584 
Q 2172 3584 2448 3432 
Q 2725 3281 2906 2969 
L 2906 3500 
L 3481 3500 
L 3481 -1331 
L 2906 -1331 
L 2906 525 
z
" transform="scale(0.015625)"/>
       <path id="DejaVuSans-20" transform="scale(0.015625)"/>
       <path id="DejaVuSans-28" d="M 1984 4856 
Q 1566 4138 1362 3434 
Q 1159 2731 1159 2009 
Q 1159 1288 1364 580 
Q 1569 -128 1984 -844 
L 1484 -844 
Q 1016 -109 783 600 
Q 550 1309 550 2009 
Q 550 2706 781 3412 
Q 1013 4119 1484 4856 
L 1984 4856 
z
" transform="scale(0.015625)"/>
       <path id="DejaVuSans-6e" d="M 3513 2113 
L 3513 0 
L 2938 0 
L 2938 2094 
Q 2938 2591 2744 2837 
Q 2550 3084 2163 3084 
Q 1697 3084 1428 2787 
Q 1159 2491 1159 1978 
L 1159 0 
L 581 0 
L 581 3500 
L 1159 3500 
L 1159 2956 
Q 1366 3272 1645 3428 
Q 1925 3584 2291 3584 
Q 2894 3584 3203 3211 
Q 3513 2838 3513 2113 
z
" transform="scale(0.015625)"/>
       <path id="DejaVuSans-6d" d="M 3328 2828 
Q 3544 3216 3844 3400 
Q 4144 3584 4550 3584 
Q 5097 3584 5394 3201 
Q 5691 2819 5691 2113 
L 5691 0 
L 5113 0 
L 5113 2094 
Q 5113 2597 4934 2840 
Q 4756 3084 4391 3084 
Q 3944 3084 3684 2787 
Q 3425 2491 3425 1978 
L 3425 0 
L 2847 0 
L 2847 2094 
Q 2847 2600 2669 2842 
Q 2491 3084 2119 3084 
Q 1678 3084 1418 2786 
Q 1159 2488 1159 1978 
L 1159 0 
L 581 0 
L 581 3500 
L 1159 3500 
L 1159 2956 
Q 1356 3278 1631 3431 
Q 1906 3584 2284 3584 
Q 2666 3584 2933 3390 
Q 3200 3197 3328 2828 
z
" transform="scale(0.015625)"/>
       <path id="DejaVuSans-29" d="M 513 4856 
L 1013 4856 
Q 1481 4119 1714 3412 
Q 1947 2706 1947 2009 
Q 1947 1309 1714 600 
Q 1481 -109 1013 -844 
L 513 -844 
Q 928 -128 1133 580 
Q 1338 1288 1338 2009 
Q 1338 2731 1133 3434 
Q 928 4138 513 4856 
z
" transform="scale(0.015625)"/>
      </defs>
      <use xlink:href="#DejaVuSans-71"/>
      <use xlink:href="#DejaVuSans-20" transform="translate(63.476562 0)"/>
      <use xlink:href="#DejaVuSans-28" transform="translate(95.263672 0)"/>
      <use xlink:href="#DejaVuSans-6e" transform="translate(134.277344 0)"/>
      <use xlink:href="#DejaVuSans-6d" transform="translate(197.65625 0)"/>
      <use xlink:href="#DejaVuSans-29" transform="translate(295.068359 0)"/>
     </g>
    </g>
   </g>
   <g id="matplotlib.axis_2">
    <g id="ytick_1">
     <g id="line2d_7">
      <defs>
       <path id="m3e2018ffa2" d="M 0 0 
L -3.5 0 
" style="stroke: #000000; stroke-width: 0.8"/>
      </defs>
      <g>
       <use xlink:href="#m3e2018ffa2" x="33.7" y="180.687273" style="stroke: #000000; stroke-width: 0.8"/>
      </g>
     </g>
     <g id="text_8">
      <!-- 0 -->
      <g transform="translate(20.3375 184.486491) scale(0.1 -0.1)">
       <use xlink:href="#DejaVuSans-30"/>
      </g>
     </g>
    </g>
    <g id="ytick_2">
     <g id="line2d_8">
      <g>
       <use xlink:href="#m3e2018ffa2" x="33.7" y="146.429673" style="stroke: #000000; stroke-width: 0.8"/>
      </g>
     </g>
     <g id="text_9">
      <!-- 10000 -->
      <g transform="translate(-5.1125 150.228892) scale(0.1 -0.1)">
       <use xlink:href="#DejaVuSans-31"/>
       <use xlink:href="#DejaVuSans-30" transform="translate(63.623047 0)"/>
       <use xlink:href="#DejaVuSans-30" transform="translate(127.246094 0)"/>
       <use xlink:href="#DejaVuSans-30" transform="translate(190.869141 0)"/>
       <use xlink:href="#DejaVuSans-30" transform="translate(254.492188 0)"/>
      </g>
     </g>
    </g>
    <g id="ytick_3">
     <g id="line2d_9">
      <g>
       <use xlink:href="#m3e2018ffa2" x="33.7" y="112.172074" style="stroke: #000000; stroke-width: 0.8"/>
      </g>
     </g>
     <g id="text_10">
      <!-- 20000 -->
      <g transform="translate(-5.1125 115.971293) scale(0.1 -0.1)">
       <use xlink:href="#DejaVuSans-32"/>
       <use xlink:href="#DejaVuSans-30" transform="translate(63.623047 0)"/>
       <use xlink:href="#DejaVuSans-30" transform="translate(127.246094 0)"/>
       <use xlink:href="#DejaVuSans-30" transform="translate(190.869141 0)"/>
       <use xlink:href="#DejaVuSans-30" transform="translate(254.492188 0)"/>
      </g>
     </g>
    </g>
    <g id="ytick_4">
     <g id="line2d_10">
      <g>
       <use xlink:href="#m3e2018ffa2" x="33.7" y="77.914475" style="stroke: #000000; stroke-width: 0.8"/>
      </g>
     </g>
     <g id="text_11">
      <!-- 30000 -->
      <g transform="translate(-5.1125 81.713694) scale(0.1 -0.1)">
       <defs>
        <path id="DejaVuSans-33" d="M 2597 2516 
Q 3050 2419 3304 2112 
Q 3559 1806 3559 1356 
Q 3559 666 3084 287 
Q 2609 -91 1734 -91 
Q 1441 -91 1130 -33 
Q 819 25 488 141 
L 488 750 
Q 750 597 1062 519 
Q 1375 441 1716 441 
Q 2309 441 2620 675 
Q 2931 909 2931 1356 
Q 2931 1769 2642 2001 
Q 2353 2234 1838 2234 
L 1294 2234 
L 1294 2753 
L 1863 2753 
Q 2328 2753 2575 2939 
Q 2822 3125 2822 3475 
Q 2822 3834 2567 4026 
Q 2313 4219 1838 4219 
Q 1578 4219 1281 4162 
Q 984 4106 628 3988 
L 628 4550 
Q 988 4650 1302 4700 
Q 1616 4750 1894 4750 
Q 2613 4750 3031 4423 
Q 3450 4097 3450 3541 
Q 3450 3153 3228 2886 
Q 3006 2619 2597 2516 
z
" transform="scale(0.015625)"/>
       </defs>
       <use xlink:href="#DejaVuSans-33"/>
       <use xlink:href="#DejaVuSans-30" transform="translate(63.623047 0)"/>
       <use xlink:href="#DejaVuSans-30" transform="translate(127.246094 0)"/>
       <use xlink:href="#DejaVuSans-30" transform="translate(190.869141 0)"/>
       <use xlink:href="#DejaVuSans-30" transform="translate(254.492188 0)"/>
      </g>
     </g>
    </g>
    <g id="ytick_5">
     <g id="line2d_11">
      <g>
       <use xlink:href="#m3e2018ffa2" x="33.7" y="43.656876" style="stroke: #000000; stroke-width: 0.8"/>
      </g>
     </g>
     <g id="text_12">
      <!-- 40000 -->
      <g transform="translate(-5.1125 47.456094) scale(0.1 -0.1)">
       <use xlink:href="#DejaVuSans-34"/>
       <use xlink:href="#DejaVuSans-30" transform="translate(63.623047 0)"/>
       <use xlink:href="#DejaVuSans-30" transform="translate(127.246094 0)"/>
       <use xlink:href="#DejaVuSans-30" transform="translate(190.869141 0)"/>
       <use xlink:href="#DejaVuSans-30" transform="translate(254.492188 0)"/>
      </g>
     </g>
    </g>
    <g id="text_13">
     <!-- rdf -->
     <g transform="translate(-11.192187 108.462344) rotate(-90) scale(0.1 -0.1)">
      <defs>
       <path id="DejaVuSans-72" d="M 2631 2963 
Q 2534 3019 2420 3045 
Q 2306 3072 2169 3072 
Q 1681 3072 1420 2755 
Q 1159 2438 1159 1844 
L 1159 0 
L 581 0 
L 581 3500 
L 1159 3500 
L 1159 2956 
Q 1341 3275 1631 3429 
Q 1922 3584 2338 3584 
Q 2397 3584 2469 3576 
Q 2541 3569 2628 3553 
L 2631 2963 
z
" transform="scale(0.015625)"/>
       <path id="DejaVuSans-64" d="M 2906 2969 
L 2906 4863 
L 3481 4863 
L 3481 0 
L 2906 0 
L 2906 525 
Q 2725 213 2448 61 
Q 2172 -91 1784 -91 
Q 1150 -91 751 415 
Q 353 922 353 1747 
Q 353 2572 751 3078 
Q 1150 3584 1784 3584 
Q 2172 3584 2448 3432 
Q 2725 3281 2906 2969 
z
M 947 1747 
Q 947 1113 1208 752 
Q 1469 391 1925 391 
Q 2381 391 2643 752 
Q 2906 1113 2906 1747 
Q 2906 2381 2643 2742 
Q 2381 3103 1925 3103 
Q 1469 3103 1208 2742 
Q 947 2381 947 1747 
z
" transform="scale(0.015625)"/>
       <path id="DejaVuSans-66" d="M 2375 4863 
L 2375 4384 
L 1825 4384 
Q 1516 4384 1395 4259 
Q 1275 4134 1275 3809 
L 1275 3500 
L 2222 3500 
L 2222 3053 
L 1275 3053 
L 1275 0 
L 697 0 
L 697 3053 
L 147 3053 
L 147 3500 
L 697 3500 
L 697 3744 
Q 697 4328 969 4595 
Q 1241 4863 1831 4863 
L 2375 4863 
z
" transform="scale(0.015625)"/>
      </defs>
      <use xlink:href="#DejaVuSans-72"/>
      <use xlink:href="#DejaVuSans-64" transform="translate(39.363281 0)"/>
      <use xlink:href="#DejaVuSans-66" transform="translate(102.839844 0)"/>
     </g>
    </g>
   </g>
   <g id="line2d_12">
    <path d="M 44.406818 180.687273 
L 91.098206 180.687273 
L 91.634888 180.266337 
L 92.171571 178.217777 
L 93.244936 175.764942 
L 93.781619 177.797386 
L 94.318301 177.293192 
L 94.854984 178.472186 
L 95.391667 169.842578 
L 95.928349 22.432727 
L 96.465032 100.573635 
L 97.001715 142.119298 
L 97.538397 158.375593 
L 98.07508 168.283464 
L 98.611762 170.766782 
L 99.148445 173.940525 
L 99.685128 173.608606 
L 100.22181 175.102018 
L 100.758493 174.318776 
L 101.295175 175.164496 
L 102.368541 177.606659 
L 102.905223 174.913029 
L 103.441906 176.907128 
L 103.978589 176.974638 
L 104.515271 176.258859 
L 105.588636 177.543851 
L 106.125319 177.59804 
L 106.662002 177.043562 
L 107.198684 176.985914 
L 107.735367 178.22204 
L 108.272049 175.608112 
L 108.808732 176.03265 
L 109.345415 177.113954 
L 109.882097 176.403104 
L 110.41878 177.336831 
L 110.955463 176.114237 
L 111.492145 176.814794 
L 112.028828 177.081798 
L 112.56551 178.050773 
L 113.102193 175.895348 
L 113.638876 175.969067 
L 114.175558 174.58918 
L 114.712241 173.823624 
L 115.248923 174.020714 
L 115.785606 172.362843 
L 116.322289 172.850639 
L 116.858971 171.888482 
L 117.395654 174.140283 
L 117.932337 174.322347 
L 118.469019 173.210839 
L 119.005702 174.164726 
L 119.542384 174.090223 
L 120.079067 173.853815 
L 120.61575 175.897685 
L 121.152432 175.083631 
L 121.689115 175.713565 
L 122.225797 175.703839 
L 122.76248 175.541216 
L 123.299163 175.534981 
L 123.835845 176.276907 
L 124.909211 176.538899 
L 125.445893 175.659822 
L 125.982576 176.150825 
L 126.519258 176.279703 
L 127.055941 176.060341 
L 127.592624 175.574264 
L 128.665989 175.171665 
L 129.202671 175.831601 
L 129.739354 174.142786 
L 130.276037 175.951865 
L 130.812719 175.757516 
L 131.349402 174.3822 
L 131.886085 175.445737 
L 132.422767 174.412742 
L 132.95945 175.932739 
L 133.496132 174.859887 
L 134.569498 175.578004 
L 135.10618 174.490588 
L 135.642863 175.186818 
L 136.179545 174.41008 
L 136.716228 174.593441 
L 137.252911 173.622993 
L 138.862959 173.808199 
L 139.399641 172.472823 
L 140.473006 171.938578 
L 141.009689 171.276298 
L 141.546372 171.679977 
L 142.083054 170.788518 
L 142.619737 170.945081 
L 143.156419 172.454763 
L 143.693102 172.207946 
L 144.229785 172.91475 
L 144.766467 172.012749 
L 145.30315 172.382907 
L 145.839833 172.516236 
L 146.376515 172.510951 
L 146.913198 173.13552 
L 147.44988 171.389883 
L 147.986563 171.837943 
L 148.523246 171.100764 
L 149.059928 172.837544 
L 149.596611 173.899173 
L 150.133293 174.559399 
L 150.669976 173.156701 
L 151.206659 174.018952 
L 151.743341 173.880275 
L 152.280024 174.719067 
L 152.816707 174.898473 
L 153.353389 175.870751 
L 153.890072 174.538134 
L 154.426754 175.339497 
L 154.963437 175.275179 
L 155.50012 175.059247 
L 156.036802 176.061077 
L 157.110167 176.4834 
L 158.183533 176.452649 
L 158.720215 176.275237 
L 159.256898 176.316279 
L 159.793581 175.433849 
L 160.866946 176.122404 
L 161.403628 176.612951 
L 161.940311 176.855279 
L 164.087041 176.59521 
L 164.623724 176.729698 
L 165.697089 176.220896 
L 166.233772 175.017904 
L 166.770455 175.320026 
L 167.307137 175.930047 
L 167.84382 174.606051 
L 168.917185 175.350623 
L 169.453868 174.972958 
L 169.99055 174.422025 
L 170.527233 175.218217 
L 171.063915 175.028571 
L 171.600598 175.046907 
L 172.673963 174.307311 
L 173.210646 174.474251 
L 173.747329 173.988575 
L 174.284011 173.819461 
L 174.820694 174.014772 
L 175.357376 173.821064 
L 175.894059 174.232438 
L 176.430742 173.877771 
L 176.967424 174.659263 
L 178.040789 174.623109 
L 178.577472 174.77651 
L 179.114155 175.084033 
L 179.650837 174.79219 
L 180.18752 174.838612 
L 181.260885 175.485373 
L 181.797568 174.72408 
L 182.33425 174.795167 
L 182.870933 175.506731 
L 183.407616 175.252842 
L 183.944298 175.877492 
L 185.017663 175.926592 
L 185.554346 175.32163 
L 186.091029 175.385662 
L 186.627711 176.454486 
L 187.164394 175.905948 
L 188.237759 175.336642 
L 188.774442 174.967739 
L 189.311124 175.415476 
L 189.847807 175.677878 
L 190.38449 174.959795 
L 191.457855 175.042934 
L 191.994537 174.73636 
L 192.53122 175.275255 
L 193.067903 175.078703 
L 193.604585 175.012654 
L 194.677951 175.763717 
L 195.751316 174.924335 
L 196.287998 175.662259 
L 196.824681 175.840083 
L 197.361364 175.307707 
L 197.898046 175.224693 
L 198.434729 175.980625 
L 198.971411 175.735905 
L 199.508094 175.809405 
L 200.044777 175.764797 
L 200.581459 175.914898 
L 201.118142 175.407993 
L 201.654825 176.15194 
L 202.191507 175.726529 
L 202.72819 176.307531 
L 203.264872 176.543274 
L 203.801555 176.459328 
L 204.338238 175.821582 
L 204.87492 176.386963 
L 205.411603 175.721835 
L 205.948285 175.645908 
L 206.484968 176.561927 
L 207.021651 176.03427 
L 207.558333 176.473699 
L 208.095016 176.130318 
L 208.631699 175.493212 
L 209.168381 175.282863 
L 209.705064 175.698908 
L 210.241746 175.318061 
L 211.315112 175.624626 
L 211.851794 174.964896 
L 212.388477 175.907076 
L 212.925159 175.15409 
L 213.461842 175.934349 
L 213.998525 175.635213 
L 215.07189 175.535972 
L 215.608573 175.277498 
L 216.145255 175.503771 
L 216.681938 175.344595 
L 217.21862 175.995798 
L 217.755303 175.599462 
L 218.291986 175.849948 
L 218.828668 175.739582 
L 219.365351 175.305958 
L 219.902033 175.461717 
L 220.438716 175.860096 
L 221.512081 175.646672 
L 222.048764 176.037093 
L 222.585447 175.856248 
L 223.122129 175.959276 
L 223.658812 176.355859 
L 224.195494 176.161962 
L 224.732177 175.752054 
L 225.26886 176.57721 
L 225.805542 176.155498 
L 227.41559 176.616414 
L 227.952273 176.120194 
L 228.488955 176.370266 
L 229.025638 176.49253 
L 229.562321 176.323446 
L 230.099003 176.664362 
L 230.635686 176.482728 
L 231.172368 176.778306 
L 231.709051 177.232465 
L 232.782416 176.991476 
L 233.319099 176.680769 
L 234.392464 176.843913 
L 234.929147 176.500271 
L 235.465829 176.601538 
L 236.002512 176.908131 
L 236.539195 176.877886 
L 237.075877 176.554646 
L 237.61256 176.970774 
L 238.149242 177.029142 
L 238.685925 176.898784 
L 239.222608 177.0194 
L 239.75929 176.592816 
L 240.295973 177.244505 
L 240.832656 176.612848 
L 241.369338 176.293216 
L 241.906021 176.219925 
L 242.442703 176.425193 
L 242.979386 176.304056 
L 243.516069 176.339557 
L 244.052751 175.82827 
L 244.589434 176.149679 
L 245.126116 176.115091 
L 245.662799 176.326487 
L 246.199482 175.861187 
L 247.272847 176.211236 
L 247.80953 176.120311 
L 248.346212 176.520046 
L 248.882895 176.439899 
L 249.419577 176.67617 
L 249.95626 176.76431 
L 251.566308 176.626339 
L 252.639673 177.061217 
L 253.176356 176.471331 
L 253.713038 176.74153 
L 254.249721 176.761671 
L 255.859769 176.238588 
L 256.933134 176.78665 
L 257.469817 176.461958 
L 258.006499 176.566192 
L 258.543182 176.214978 
L 258.543182 176.214978 
" clip-path="url(#p2f7bac0678)" style="fill: none; stroke: #000000; stroke-opacity: 0.5; stroke-width: 0.5; stroke-linecap: square"/>
   </g>
   <g id="line2d_13">
    <path d="M 44.406818 180.687273 
L 91.098206 180.687273 
L 91.634888 179.398156 
L 92.171571 173.124442 
L 93.244936 165.612633 
L 93.781619 171.836995 
L 94.318301 170.292899 
L 94.854984 173.903568 
L 95.391667 169.063114 
L 95.928349 173.097604 
L 96.465032 172.721427 
L 97.001715 168.199403 
L 97.538397 167.939226 
L 98.07508 169.691132 
L 98.611762 166.476568 
L 99.148445 169.15504 
L 99.685128 169.848063 
L 100.22181 169.592238 
L 100.758493 167.533733 
L 101.295175 165.999227 
L 101.831858 170.202867 
L 102.368541 171.681726 
L 102.905223 167.214036 
L 103.441906 172.004752 
L 103.978589 171.753743 
L 104.515271 169.518552 
L 105.051954 171.282024 
L 105.588636 172.600817 
L 106.125319 173.118652 
L 106.662002 171.016255 
L 107.198684 170.083178 
L 107.735367 174.216037 
L 108.272049 167.25347 
L 108.808732 168.170877 
L 109.345415 170.769916 
L 109.882097 168.576255 
L 110.41878 172.0815 
L 110.955463 168.636525 
L 111.492145 169.789383 
L 112.028828 171.538379 
L 112.56551 174.165738 
L 113.102193 170.90376 
L 113.638876 171.65633 
L 114.175558 174.165701 
L 114.712241 170.469252 
L 115.248923 172.923313 
L 116.322289 170.082757 
L 116.858971 168.863896 
L 117.395654 172.55883 
L 117.932337 170.807467 
L 118.469019 169.633751 
L 119.005702 171.34817 
L 119.542384 169.178968 
L 120.079067 169.088917 
L 120.61575 174.223358 
L 121.152432 172.351854 
L 121.689115 175.12639 
L 122.225797 174.725644 
L 122.76248 173.395424 
L 123.299163 175.814378 
L 123.835845 176.795498 
L 124.372528 173.685123 
L 124.909211 176.675358 
L 125.445893 175.188498 
L 125.982576 176.779902 
L 126.519258 177.259163 
L 127.055941 177.091905 
L 127.592624 176.094086 
L 128.129306 175.740358 
L 128.665989 175.599456 
L 129.202671 177.672983 
L 129.739354 176.321581 
L 130.276037 176.571787 
L 130.812719 178.171042 
L 131.349402 176.098927 
L 131.886085 176.721434 
L 132.422767 176.023255 
L 132.95945 175.526497 
L 133.496132 174.131463 
L 134.032815 174.209528 
L 134.569498 173.041513 
L 135.10618 172.604328 
L 135.642863 174.782789 
L 136.179545 169.873826 
L 136.716228 170.677461 
L 137.252911 168.947697 
L 137.789593 168.418755 
L 138.326276 168.885977 
L 138.862959 168.533139 
L 139.399641 167.227607 
L 139.936324 166.902619 
L 140.473006 165.645656 
L 141.009689 165.037098 
L 141.546372 165.515607 
L 142.083054 168.864446 
L 142.619737 166.144358 
L 143.156419 170.602447 
L 143.693102 171.151023 
L 144.229785 172.994725 
L 144.766467 170.922572 
L 145.30315 172.730854 
L 145.839833 171.549367 
L 146.376515 173.175276 
L 146.913198 173.666501 
L 147.44988 172.785603 
L 147.986563 173.136724 
L 149.059928 176.592582 
L 149.596611 176.895649 
L 150.133293 178.357624 
L 150.669976 176.715418 
L 151.206659 178.277254 
L 151.743341 177.798911 
L 152.280024 178.324857 
L 152.816707 178.59436 
L 153.353389 178.614874 
L 153.890072 177.910798 
L 154.426754 177.81821 
L 155.50012 177.052505 
L 156.036802 178.480823 
L 156.573485 177.006549 
L 157.110167 179.092219 
L 157.64685 178.317253 
L 158.183533 178.674914 
L 158.720215 178.250708 
L 159.256898 177.505314 
L 160.330263 178.102347 
L 160.866946 178.339501 
L 161.940311 176.705591 
L 162.476994 177.364605 
L 163.013676 178.320627 
L 163.550359 177.220137 
L 164.087041 177.15003 
L 165.160407 176.318982 
L 165.697089 176.652672 
L 166.233772 175.420014 
L 166.770455 174.885909 
L 167.307137 176.278231 
L 167.84382 175.271184 
L 168.380502 174.752684 
L 168.917185 174.897007 
L 169.453868 174.483538 
L 169.99055 172.700205 
L 170.527233 174.042295 
L 171.063915 173.195755 
L 171.600598 173.437722 
L 172.137281 172.610867 
L 172.673963 172.150121 
L 173.210646 170.038921 
L 173.747329 169.953809 
L 174.284011 170.55725 
L 174.820694 169.959141 
L 175.357376 170.300063 
L 175.894059 171.975981 
L 176.430742 171.797276 
L 176.967424 172.363437 
L 177.504107 172.512043 
L 178.040789 171.92866 
L 179.114155 173.264607 
L 179.650837 172.84817 
L 180.724203 174.373895 
L 181.260885 174.423212 
L 181.797568 173.014046 
L 182.33425 173.682627 
L 182.870933 174.114459 
L 183.407616 173.64026 
L 183.944298 175.256532 
L 184.480981 174.781194 
L 185.017663 175.11919 
L 185.554346 174.943244 
L 186.627711 175.530756 
L 187.164394 175.285071 
L 187.701077 176.313085 
L 188.237759 175.085116 
L 188.774442 174.431532 
L 189.311124 174.201723 
L 189.847807 175.345222 
L 190.38449 175.588319 
L 190.921172 174.680676 
L 191.457855 174.657347 
L 191.994537 175.831794 
L 192.53122 175.998923 
L 193.067903 175.377059 
L 193.604585 175.545313 
L 194.141268 175.905144 
L 194.677951 175.554203 
L 195.214633 175.463209 
L 195.751316 174.867531 
L 196.824681 175.572773 
L 197.361364 174.6795 
L 197.898046 173.122251 
L 198.434729 175.007137 
L 198.971411 174.197268 
L 199.508094 175.145582 
L 200.581459 174.627229 
L 201.118142 173.724498 
L 201.654825 175.236979 
L 202.191507 174.284397 
L 202.72819 175.079267 
L 203.264872 175.576418 
L 203.801555 175.268472 
L 204.338238 174.568156 
L 204.87492 175.959688 
L 205.411603 174.425709 
L 205.948285 173.467511 
L 206.484968 175.666825 
L 207.021651 175.97387 
L 207.558333 175.351412 
L 208.095016 175.224005 
L 208.631699 174.561 
L 209.168381 174.760945 
L 209.705064 175.594983 
L 210.241746 175.258904 
L 210.778429 175.346172 
L 211.315112 175.69258 
L 211.851794 175.724502 
L 212.388477 176.475248 
L 212.925159 176.144688 
L 213.461842 176.883484 
L 213.998525 177.15947 
L 214.535207 176.580689 
L 215.608573 176.879235 
L 216.145255 176.706367 
L 216.681938 177.121832 
L 217.21862 177.338059 
L 217.755303 176.828097 
L 218.291986 177.570995 
L 219.365351 176.661917 
L 219.902033 176.639388 
L 220.438716 176.383295 
L 220.975399 176.68839 
L 221.512081 175.973027 
L 222.585447 176.851528 
L 223.122129 175.739735 
L 223.658812 176.626572 
L 224.195494 176.874991 
L 224.732177 176.09508 
L 225.26886 176.964337 
L 225.805542 176.149203 
L 226.342225 176.394876 
L 227.41559 176.271874 
L 227.952273 175.264744 
L 228.488955 175.595754 
L 229.025638 175.412591 
L 230.099003 176.44039 
L 230.635686 176.213971 
L 231.172368 176.655302 
L 231.709051 176.678313 
L 232.245734 176.495712 
L 232.782416 176.478633 
L 233.319099 176.949416 
L 234.392464 175.625646 
L 234.929147 176.133419 
L 235.465829 176.158916 
L 236.002512 175.986722 
L 236.539195 176.32716 
L 237.075877 175.726367 
L 237.61256 176.258867 
L 238.685925 176.499706 
L 239.222608 176.178846 
L 239.75929 175.595566 
L 240.295973 176.681507 
L 240.832656 175.27516 
L 241.369338 175.229793 
L 241.906021 175.333738 
L 242.442703 176.213145 
L 242.979386 176.090148 
L 243.516069 175.310109 
L 244.052751 174.902356 
L 244.589434 175.512317 
L 245.662799 176.032748 
L 246.199482 175.238301 
L 246.736164 175.302532 
L 247.272847 175.648135 
L 247.80953 175.218937 
L 248.346212 175.979928 
L 248.882895 175.5883 
L 249.419577 176.201541 
L 249.95626 176.190576 
L 250.492943 176.896887 
L 252.10299 176.316546 
L 252.639673 177.175214 
L 253.176356 175.995271 
L 253.713038 175.886844 
L 254.249721 176.438345 
L 255.323086 176.090195 
L 255.859769 176.66492 
L 256.396451 176.330217 
L 256.933134 176.576938 
L 257.469817 175.798817 
L 258.006499 176.427352 
L 258.543182 175.151774 
L 258.543182 175.151774 
" clip-path="url(#p2f7bac0678)" style="fill: none; stroke: #0000ff; stroke-opacity: 0.5; stroke-linecap: square"/>
   </g>
   <g id="line2d_14">
    <path d="M 44.406818 180.687273 
L 111.492145 180.687273 
L 112.028828 179.004718 
L 112.56551 179.03101 
L 113.102193 174.164932 
L 113.638876 173.194936 
L 114.175558 163.296416 
L 114.712241 165.116958 
L 115.248923 160.750195 
L 115.785606 155.004862 
L 116.322289 160.842566 
L 116.858971 159.179116 
L 117.932337 166.446113 
L 118.469019 163.375939 
L 119.005702 165.006807 
L 119.542384 168.41175 
L 120.079067 167.239905 
L 120.61575 168.311917 
L 121.152432 168.047947 
L 121.689115 166.932821 
L 122.225797 166.69732 
L 122.76248 168.9785 
L 123.299163 169.549231 
L 123.835845 168.070802 
L 124.372528 173.860805 
L 124.909211 168.800121 
L 125.445893 167.001435 
L 125.982576 170.26762 
L 126.519258 171.164746 
L 127.592624 168.438776 
L 128.129306 167.861941 
L 128.665989 168.024265 
L 129.202671 169.255302 
L 129.739354 165.870381 
L 130.276037 174.067656 
L 130.812719 171.052478 
L 131.349402 170.490952 
L 131.886085 174.979822 
L 132.422767 169.410716 
L 132.95945 176.099917 
L 133.496132 176.478605 
L 134.032815 174.289501 
L 134.569498 175.945717 
L 135.10618 172.877665 
L 135.642863 176.056306 
L 136.179545 177.63586 
L 136.716228 177.067906 
L 137.252911 176.215054 
L 137.789593 177.445142 
L 138.326276 176.316423 
L 138.862959 177.806293 
L 139.399641 175.559782 
L 139.936324 177.588807 
L 140.473006 176.787595 
L 141.009689 177.381626 
L 141.546372 177.690401 
L 142.083054 175.567416 
L 142.619737 177.755368 
L 143.693102 175.210043 
L 144.229785 176.816809 
L 145.30315 172.099394 
L 145.839833 174.938983 
L 146.376515 172.526093 
L 146.913198 172.121627 
L 147.44988 168.093042 
L 147.986563 169.421375 
L 148.523246 169.299664 
L 149.059928 173.642645 
L 149.596611 175.806102 
L 150.133293 176.085498 
L 150.669976 177.042848 
L 151.206659 176.628295 
L 151.743341 177.784958 
L 152.280024 178.476826 
L 152.816707 178.717473 
L 153.353389 179.603666 
L 153.890072 178.970419 
L 154.426754 178.987088 
L 154.963437 178.58257 
L 156.036802 179.448565 
L 156.573485 179.051396 
L 157.110167 179.877087 
L 157.64685 179.68409 
L 158.183533 179.693515 
L 158.720215 179.505908 
L 159.256898 179.126772 
L 159.793581 179.72099 
L 160.330263 178.963989 
L 160.866946 178.410646 
L 161.403628 179.371367 
L 161.940311 179.755885 
L 162.476994 178.656754 
L 163.013676 178.309194 
L 163.550359 178.874391 
L 164.087041 179.070248 
L 164.623724 179.974982 
L 165.160407 178.922307 
L 165.697089 178.238085 
L 166.233772 178.259565 
L 166.770455 178.108889 
L 167.307137 179.494489 
L 167.84382 178.15343 
L 168.380502 178.342744 
L 168.917185 177.864778 
L 169.453868 178.218125 
L 169.99055 177.91271 
L 170.527233 177.774406 
L 171.063915 176.354829 
L 171.600598 177.345916 
L 172.137281 175.164945 
L 172.673963 174.272186 
L 173.210646 175.721922 
L 173.747329 174.839652 
L 174.284011 172.751135 
L 174.820694 174.481229 
L 175.357376 172.580183 
L 175.894059 173.092814 
L 176.430742 171.824972 
L 176.967424 174.094136 
L 177.504107 173.711078 
L 178.040789 174.776111 
L 178.577472 173.822032 
L 179.114155 175.295421 
L 179.650837 174.211875 
L 180.18752 174.542189 
L 180.724203 174.313274 
L 181.797568 172.911737 
L 182.33425 172.972011 
L 183.407616 174.556538 
L 183.944298 175.397053 
L 184.480981 174.387457 
L 185.017663 174.695885 
L 185.554346 174.482754 
L 186.091029 173.503263 
L 186.627711 175.84906 
L 187.164394 174.621644 
L 187.701077 173.036366 
L 188.237759 174.71164 
L 188.774442 174.014483 
L 189.311124 175.412973 
L 189.847807 175.086491 
L 190.38449 174.402341 
L 190.921172 173.488356 
L 191.457855 174.850901 
L 191.994537 170.872852 
L 193.067903 173.11166 
L 193.604585 171.314588 
L 194.141268 171.611282 
L 194.677951 173.957249 
L 195.751316 171.578114 
L 196.287998 173.652253 
L 196.824681 172.814549 
L 197.361364 174.080788 
L 197.898046 174.01748 
L 198.434729 174.606745 
L 198.971411 176.158422 
L 200.044777 175.476134 
L 200.581459 176.462406 
L 201.118142 176.071649 
L 201.654825 177.665844 
L 202.191507 175.927155 
L 202.72819 176.987145 
L 203.264872 176.807873 
L 203.801555 177.64514 
L 204.338238 176.960404 
L 204.87492 177.885742 
L 205.411603 177.208627 
L 205.948285 177.429124 
L 206.484968 178.039125 
L 207.021651 177.08219 
L 207.558333 178.364178 
L 208.095016 178.475521 
L 208.631699 176.865817 
L 209.168381 176.510962 
L 209.705064 176.820906 
L 210.241746 177.595387 
L 210.778429 176.870539 
L 211.315112 178.097433 
L 211.851794 176.275922 
L 212.388477 176.395346 
L 212.925159 175.696668 
L 213.461842 176.539735 
L 213.998525 176.924283 
L 214.535207 177.74923 
L 215.07189 176.971403 
L 215.608573 176.994631 
L 216.145255 177.367121 
L 217.21862 177.149295 
L 217.755303 176.313541 
L 218.291986 177.19278 
L 218.828668 176.451828 
L 219.365351 176.22518 
L 219.902033 177.005476 
L 220.438716 177.526864 
L 220.975399 177.215375 
L 221.512081 176.086005 
L 222.048764 177.42048 
L 222.585447 177.764801 
L 223.122129 177.943684 
L 223.658812 177.639241 
L 224.195494 177.737115 
L 224.732177 177.04126 
L 225.26886 176.905243 
L 226.342225 177.494742 
L 226.878907 177.281244 
L 227.41559 177.83987 
L 227.952273 176.555823 
L 228.488955 176.275575 
L 229.025638 177.435498 
L 229.562321 176.552071 
L 230.099003 176.800138 
L 230.635686 176.079261 
L 231.172368 177.361936 
L 231.709051 177.674813 
L 232.245734 178.349497 
L 233.319099 177.364734 
L 233.855781 176.593477 
L 234.392464 178.687618 
L 234.929147 177.775647 
L 235.465829 177.509479 
L 236.002512 177.948577 
L 236.539195 178.592324 
L 237.075877 178.048401 
L 237.61256 178.27021 
L 238.149242 177.871493 
L 238.685925 177.750427 
L 239.222608 177.426942 
L 239.75929 177.242139 
L 240.295973 177.865602 
L 240.832656 178.014625 
L 241.369338 176.766526 
L 241.906021 176.523413 
L 242.442703 176.020047 
L 242.979386 176.437487 
L 243.516069 176.525356 
L 244.052751 175.383423 
L 244.589434 175.540464 
L 245.126116 175.375915 
L 245.662799 175.84975 
L 246.199482 175.178945 
L 246.736164 175.837857 
L 247.272847 175.237017 
L 247.80953 175.82653 
L 248.882895 175.692361 
L 249.419577 176.331896 
L 249.95626 176.476626 
L 250.492943 175.223655 
L 251.029625 176.097477 
L 251.566308 175.400211 
L 252.10299 176.50333 
L 252.639673 176.584296 
L 253.713038 176.155374 
L 254.249721 177.173948 
L 254.786404 176.259709 
L 255.323086 174.717231 
L 255.859769 174.862791 
L 256.396451 175.465978 
L 256.933134 175.720619 
L 257.469817 175.234356 
L 258.006499 175.374735 
L 258.543182 175.120144 
L 258.543182 175.120144 
" clip-path="url(#p2f7bac0678)" style="fill: none; stroke: #ff0000; stroke-opacity: 0.5; stroke-linecap: square"/>
   </g>
   <g id="patch_3">
    <path d="M 33.7 188.6 
L 33.7 14.52 
" style="fill: none; stroke: #000000; stroke-width: 0.8; stroke-linejoin: miter; stroke-linecap: square"/>
   </g>
   <g id="patch_4">
    <path d="M 269.25 188.6 
L 269.25 14.52 
" style="fill: none; stroke: #000000; stroke-width: 0.8; stroke-linejoin: miter; stroke-linecap: square"/>
   </g>
   <g id="patch_5">
    <path d="M 33.7 188.6 
L 269.25 188.6 
" style="fill: none; stroke: #000000; stroke-width: 0.8; stroke-linejoin: miter; stroke-linecap: square"/>
   </g>
   <g id="patch_6">
    <path d="M 33.7 14.52 
L 269.25 14.52 
" style="fill: none; stroke: #000000; stroke-width: 0.8; stroke-linejoin: miter; stroke-linecap: square"/>
   </g>
   <g id="legend_1">
    <g id="patch_7">
     <path d="M 213.917188 66.554375 
L 262.25 66.554375 
Q 264.25 66.554375 264.25 64.554375 
L 264.25 21.52 
Q 264.25 19.52 262.25 19.52 
L 213.917188 19.52 
Q 211.917188 19.52 211.917188 21.52 
L 211.917188 64.554375 
Q 211.917188 66.554375 213.917188 66.554375 
z
" style="fill: #ffffff; opacity: 0.8; stroke: #cccccc; stroke-linejoin: miter"/>
    </g>
    <g id="line2d_15">
     <path d="M 215.917188 27.618438 
L 225.917188 27.618438 
L 235.917188 27.618438 
" style="fill: none; stroke: #000000; stroke-opacity: 0.5; stroke-width: 0.5; stroke-linecap: square"/>
    </g>
    <g id="text_14">
     <!-- all -->
     <g transform="translate(243.917188 31.118438) scale(0.1 -0.1)">
      <defs>
       <path id="DejaVuSans-61" d="M 2194 1759 
Q 1497 1759 1228 1600 
Q 959 1441 959 1056 
Q 959 750 1161 570 
Q 1363 391 1709 391 
Q 2188 391 2477 730 
Q 2766 1069 2766 1631 
L 2766 1759 
L 2194 1759 
z
M 3341 1997 
L 3341 0 
L 2766 0 
L 2766 531 
Q 2569 213 2275 61 
Q 1981 -91 1556 -91 
Q 1019 -91 701 211 
Q 384 513 384 1019 
Q 384 1609 779 1909 
Q 1175 2209 1959 2209 
L 2766 2209 
L 2766 2266 
Q 2766 2663 2505 2880 
Q 2244 3097 1772 3097 
Q 1472 3097 1187 3025 
Q 903 2953 641 2809 
L 641 3341 
Q 956 3463 1253 3523 
Q 1550 3584 1831 3584 
Q 2591 3584 2966 3190 
Q 3341 2797 3341 1997 
z
" transform="scale(0.015625)"/>
       <path id="DejaVuSans-6c" d="M 603 4863 
L 1178 4863 
L 1178 0 
L 603 0 
L 603 4863 
z
" transform="scale(0.015625)"/>
      </defs>
      <use xlink:href="#DejaVuSans-61"/>
      <use xlink:href="#DejaVuSans-6c" transform="translate(61.279297 0)"/>
      <use xlink:href="#DejaVuSans-6c" transform="translate(89.0625 0)"/>
     </g>
    </g>
    <g id="line2d_16">
     <path d="M 215.917188 42.296563 
L 225.917188 42.296563 
L 235.917188 42.296563 
" style="fill: none; stroke: #0000ff; stroke-opacity: 0.5; stroke-linecap: square"/>
    </g>
    <g id="text_15">
     <!-- 1-1 -->
     <g transform="translate(243.917188 45.796563) scale(0.1 -0.1)">
      <defs>
       <path id="DejaVuSans-2d" d="M 313 2009 
L 1997 2009 
L 1997 1497 
L 313 1497 
L 313 2009 
z
" transform="scale(0.015625)"/>
      </defs>
      <use xlink:href="#DejaVuSans-31"/>
      <use xlink:href="#DejaVuSans-2d" transform="translate(63.623047 0)"/>
      <use xlink:href="#DejaVuSans-31" transform="translate(99.707031 0)"/>
     </g>
    </g>
    <g id="line2d_17">
     <path d="M 215.917188 56.974688 
L 225.917188 56.974688 
L 235.917188 56.974688 
" style="fill: none; stroke: #ff0000; stroke-opacity: 0.5; stroke-linecap: square"/>
    </g>
    <g id="text_16">
     <!-- 2-2 -->
     <g transform="translate(243.917188 60.474688) scale(0.1 -0.1)">
      <use xlink:href="#DejaVuSans-32"/>
      <use xlink:href="#DejaVuSans-2d" transform="translate(63.623047 0)"/>
      <use xlink:href="#DejaVuSans-32" transform="translate(99.707031 0)"/>
     </g>
    </g>
   </g>
  </g>
 </g>
 <defs>
  <clipPath id="p2f7bac0678">
   <rect x="33.7" y="14.52" width="235.55" height="174.08"/>
  </clipPath>
 </defs>
</svg>
