<?xml version="1.0" encoding="utf-8" standalone="no"?>
<!DOCTYPE svg PUBLIC "-//W3C//DTD SVG 1.1//EN"
  "http://www.w3.org/Graphics/SVG/1.1/DTD/svg11.dtd">
<svg xmlns:xlink="http://www.w3.org/1999/xlink" width="288pt" height="216pt" viewBox="0 0 288 216" xmlns="http://www.w3.org/2000/svg" version="1.1">
 <metadata>
  <rdf:RDF xmlns:dc="http://purl.org/dc/elements/1.1/" xmlns:cc="http://creativecommons.org/ns#" xmlns:rdf="http://www.w3.org/1999/02/22-rdf-syntax-ns#">
   <cc:Work>
    <dc:type rdf:resource="http://purl.org/dc/dcmitype/StillImage"/>
    <dc:date>2025-09-17T22:30:25.488152</dc:date>
    <dc:format>image/svg+xml</dc:format>
    <dc:creator>
     <cc:Agent>
      <dc:title>Matplotlib v3.10.0, https://matplotlib.org/</dc:title>
     </cc:Agent>
    </dc:creator>
   </cc:Work>
  </rdf:RDF>
 </metadata>
 <defs>
  <style type="text/css">*{stroke-linejoin: round; stroke-linecap: butt}</style>
 </defs>
 <g id="figure_1">
  <g id="patch_1">
   <path d="M 0 216 
L 288 216 
L 288 0 
L 0 0 
z
" style="fill: #ffffff"/>
  </g>
  <g id="axes_1">
   <g id="patch_2">
    <path d="M 33.7 188.6 
L 269.25 188.6 
L 269.25 14.52 
L 33.7 14.52 
z
" style="fill: #ffffff"/>
   </g>
   <g id="matplotlib.axis_1">
    <g id="xtick_1">
     <g id="line2d_1">
      <defs>
       <path id="m89355a941f" d="M 0 0 
L 0 3.5 
" style="stroke: #000000; stroke-width: 0.8"/>
      </defs>
      <g>
       <use xlink:href="#m89355a941f" x="44.138477" y="188.6" style="stroke: #000000; stroke-width: 0.8"/>
      </g>
     </g>
     <g id="text_1">
      <!-- 0 -->
      <g transform="translate(40.957227 203.198437) scale(0.1 -0.1)">
       <defs>
        <path id="DejaVuSans-30" d="M 2034 4250 
Q 1547 4250 1301 3770 
Q 1056 3291 1056 2328 
Q 1056 1369 1301 889 
Q 1547 409 2034 409 
Q 2525 409 2770 889 
Q 3016 1369 3016 2328 
Q 3016 3291 2770 3770 
Q 2525 4250 2034 4250 
z
M 2034 4750 
Q 2819 4750 3233 4129 
Q 3647 3509 3647 2328 
Q 3647 1150 3233 529 
Q 2819 -91 2034 -91 
Q 1250 -91 836 529 
Q 422 1150 422 2328 
Q 422 3509 836 4129 
Q 1250 4750 2034 4750 
z
" transform="scale(0.015625)"/>
       </defs>
       <use xlink:href="#DejaVuSans-30"/>
      </g>
     </g>
    </g>
    <g id="xtick_2">
     <g id="line2d_2">
      <g>
       <use xlink:href="#m89355a941f" x="87.073086" y="188.6" style="stroke: #000000; stroke-width: 0.8"/>
      </g>
     </g>
     <g id="text_2">
      <!-- 200 -->
      <g transform="translate(77.529336 203.198437) scale(0.1 -0.1)">
       <defs>
        <path id="DejaVuSans-32" d="M 1228 531 
L 3431 531 
L 3431 0 
L 469 0 
L 469 531 
Q 828 903 1448 1529 
Q 2069 2156 2228 2338 
Q 2531 2678 2651 2914 
Q 2772 3150 2772 3378 
Q 2772 3750 2511 3984 
Q 2250 4219 1831 4219 
Q 1534 4219 1204 4116 
Q 875 4013 500 3803 
L 500 4441 
Q 881 4594 1212 4672 
Q 1544 4750 1819 4750 
Q 2544 4750 2975 4387 
Q 3406 4025 3406 3419 
Q 3406 3131 3298 2873 
Q 3191 2616 2906 2266 
Q 2828 2175 2409 1742 
Q 1991 1309 1228 531 
z
" transform="scale(0.015625)"/>
       </defs>
       <use xlink:href="#DejaVuSans-32"/>
       <use xlink:href="#DejaVuSans-30" transform="translate(63.623047 0)"/>
       <use xlink:href="#DejaVuSans-30" transform="translate(127.246094 0)"/>
      </g>
     </g>
    </g>
    <g id="xtick_3">
     <g id="line2d_3">
      <g>
       <use xlink:href="#m89355a941f" x="130.007695" y="188.6" style="stroke: #000000; stroke-width: 0.8"/>
      </g>
     </g>
     <g id="text_3">
      <!-- 400 -->
      <g transform="translate(120.463945 203.198437) scale(0.1 -0.1)">
       <defs>
        <path id="DejaVuSans-34" d="M 2419 4116 
L 825 1625 
L 2419 1625 
L 2419 4116 
z
M 2253 4666 
L 3047 4666 
L 3047 1625 
L 3713 1625 
L 3713 1100 
L 3047 1100 
L 3047 0 
L 2419 0 
L 2419 1100 
L 313 1100 
L 313 1709 
L 2253 4666 
z
" transform="scale(0.015625)"/>
       </defs>
       <use xlink:href="#DejaVuSans-34"/>
       <use xlink:href="#DejaVuSans-30" transform="translate(63.623047 0)"/>
       <use xlink:href="#DejaVuSans-30" transform="translate(127.246094 0)"/>
      </g>
     </g>
    </g>
    <g id="xtick_4">
     <g id="line2d_4">
      <g>
       <use xlink:href="#m89355a941f" x="172.942305" y="188.6" style="stroke: #000000; stroke-width: 0.8"/>
      </g>
     </g>
     <g id="text_4">
      <!-- 600 -->
      <g transform="translate(163.398555 203.198437) scale(0.1 -0.1)">
       <defs>
        <path id="DejaVuSans-36" d="M 2113 2584 
Q 1688 2584 1439 2293 
Q 1191 2003 1191 1497 
Q 1191 994 1439 701 
Q 1688 409 2113 409 
Q 2538 409 2786 701 
Q 3034 994 3034 1497 
Q 3034 2003 2786 2293 
Q 2538 2584 2113 2584 
z
M 3366 4563 
L 3366 3988 
Q 3128 4100 2886 4159 
Q 2644 4219 2406 4219 
Q 1781 4219 1451 3797 
Q 1122 3375 1075 2522 
Q 1259 2794 1537 2939 
Q 1816 3084 2150 3084 
Q 2853 3084 3261 2657 
Q 3669 2231 3669 1497 
Q 3669 778 3244 343 
Q 2819 -91 2113 -91 
Q 1303 -91 875 529 
Q 447 1150 447 2328 
Q 447 3434 972 4092 
Q 1497 4750 2381 4750 
Q 2619 4750 2861 4703 
Q 3103 4656 3366 4563 
z
" transform="scale(0.015625)"/>
       </defs>
       <use xlink:href="#DejaVuSans-36"/>
       <use xlink:href="#DejaVuSans-30" transform="translate(63.623047 0)"/>
       <use xlink:href="#DejaVuSans-30" transform="translate(127.246094 0)"/>
      </g>
     </g>
    </g>
    <g id="xtick_5">
     <g id="line2d_5">
      <g>
       <use xlink:href="#m89355a941f" x="215.876914" y="188.6" style="stroke: #000000; stroke-width: 0.8"/>
      </g>
     </g>
     <g id="text_5">
      <!-- 800 -->
      <g transform="translate(206.333164 203.198437) scale(0.1 -0.1)">
       <defs>
        <path id="DejaVuSans-38" d="M 2034 2216 
Q 1584 2216 1326 1975 
Q 1069 1734 1069 1313 
Q 1069 891 1326 650 
Q 1584 409 2034 409 
Q 2484 409 2743 651 
Q 3003 894 3003 1313 
Q 3003 1734 2745 1975 
Q 2488 2216 2034 2216 
z
M 1403 2484 
Q 997 2584 770 2862 
Q 544 3141 544 3541 
Q 544 4100 942 4425 
Q 1341 4750 2034 4750 
Q 2731 4750 3128 4425 
Q 3525 4100 3525 3541 
Q 3525 3141 3298 2862 
Q 3072 2584 2669 2484 
Q 3125 2378 3379 2068 
Q 3634 1759 3634 1313 
Q 3634 634 3220 271 
Q 2806 -91 2034 -91 
Q 1263 -91 848 271 
Q 434 634 434 1313 
Q 434 1759 690 2068 
Q 947 2378 1403 2484 
z
M 1172 3481 
Q 1172 3119 1398 2916 
Q 1625 2713 2034 2713 
Q 2441 2713 2670 2916 
Q 2900 3119 2900 3481 
Q 2900 3844 2670 4047 
Q 2441 4250 2034 4250 
Q 1625 4250 1398 4047 
Q 1172 3844 1172 3481 
z
" transform="scale(0.015625)"/>
       </defs>
       <use xlink:href="#DejaVuSans-38"/>
       <use xlink:href="#DejaVuSans-30" transform="translate(63.623047 0)"/>
       <use xlink:href="#DejaVuSans-30" transform="translate(127.246094 0)"/>
      </g>
     </g>
    </g>
    <g id="xtick_6">
     <g id="line2d_6">
      <g>
       <use xlink:href="#m89355a941f" x="258.811523" y="188.6" style="stroke: #000000; stroke-width: 0.8"/>
      </g>
     </g>
     <g id="text_6">
      <!-- 1000 -->
      <g transform="translate(246.086523 203.198437) scale(0.1 -0.1)">
       <defs>
        <path id="DejaVuSans-31" d="M 794 531 
L 1825 531 
L 1825 4091 
L 703 3866 
L 703 4441 
L 1819 4666 
L 2450 4666 
L 2450 531 
L 3481 531 
L 3481 0 
L 794 0 
L 794 531 
z
" transform="scale(0.015625)"/>
       </defs>
       <use xlink:href="#DejaVuSans-31"/>
       <use xlink:href="#DejaVuSans-30" transform="translate(63.623047 0)"/>
       <use xlink:href="#DejaVuSans-30" transform="translate(127.246094 0)"/>
       <use xlink:href="#DejaVuSans-30" transform="translate(190.869141 0)"/>
      </g>
     </g>
    </g>
    <g id="text_7">
     <!-- q (nm) -->
     <g transform="translate(134.771094 216.876563) scale(0.1 -0.1)">
      <defs>
       <path id="DejaVuSans-71" d="M 947 1747 
Q 947 1113 1208 752 
Q 1469 391 1925 391 
Q 2381 391 2643 752 
Q 2906 1113 2906 1747 
Q 2906 2381 2643 2742 
Q 2381 3103 1925 3103 
Q 1469 3103 1208 2742 
Q 947 2381 947 1747 
z
M 2906 525 
Q 2725 213 2448 61 
Q 2172 -91 1784 -91 
Q 1150 -91 751 415 
Q 353 922 353 1747 
Q 353 2572 751 3078 
Q 1150 3584 1784 3584 
Q 2172 3584 2448 3432 
Q 2725 3281 2906 2969 
L 2906 3500 
L 3481 3500 
L 3481 -1331 
L 2906 -1331 
L 2906 525 
z
" transform="scale(0.015625)"/>
       <path id="DejaVuSans-20" transform="scale(0.015625)"/>
       <path id="DejaVuSans-28" d="M 1984 4856 
Q 1566 4138 1362 3434 
Q 1159 2731 1159 2009 
Q 1159 1288 1364 580 
Q 1569 -128 1984 -844 
L 1484 -844 
Q 1016 -109 783 600 
Q 550 1309 550 2009 
Q 550 2706 781 3412 
Q 1013 4119 1484 4856 
L 1984 4856 
z
" transform="scale(0.015625)"/>
       <path id="DejaVuSans-6e" d="M 3513 2113 
L 3513 0 
L 2938 0 
L 2938 2094 
Q 2938 2591 2744 2837 
Q 2550 3084 2163 3084 
Q 1697 3084 1428 2787 
Q 1159 2491 1159 1978 
L 1159 0 
L 581 0 
L 581 3500 
L 1159 3500 
L 1159 2956 
Q 1366 3272 1645 3428 
Q 1925 3584 2291 3584 
Q 2894 3584 3203 3211 
Q 3513 2838 3513 2113 
z
" transform="scale(0.015625)"/>
       <path id="DejaVuSans-6d" d="M 3328 2828 
Q 3544 3216 3844 3400 
Q 4144 3584 4550 3584 
Q 5097 3584 5394 3201 
Q 5691 2819 5691 2113 
L 5691 0 
L 5113 0 
L 5113 2094 
Q 5113 2597 4934 2840 
Q 4756 3084 4391 3084 
Q 3944 3084 3684 2787 
Q 3425 2491 3425 1978 
L 3425 0 
L 2847 0 
L 2847 2094 
Q 2847 2600 2669 2842 
Q 2491 3084 2119 3084 
Q 1678 3084 1418 2786 
Q 1159 2488 1159 1978 
L 1159 0 
L 581 0 
L 581 3500 
L 1159 3500 
L 1159 2956 
Q 1356 3278 1631 3431 
Q 1906 3584 2284 3584 
Q 2666 3584 2933 3390 
Q 3200 3197 3328 2828 
z
" transform="scale(0.015625)"/>
       <path id="DejaVuSans-29" d="M 513 4856 
L 1013 4856 
Q 1481 4119 1714 3412 
Q 1947 2706 1947 2009 
Q 1947 1309 1714 600 
Q 1481 -109 1013 -844 
L 513 -844 
Q 928 -128 1133 580 
Q 1338 1288 1338 2009 
Q 1338 2731 1133 3434 
Q 928 4138 513 4856 
z
" transform="scale(0.015625)"/>
      </defs>
      <use xlink:href="#DejaVuSans-71"/>
      <use xlink:href="#DejaVuSans-20" transform="translate(63.476562 0)"/>
      <use xlink:href="#DejaVuSans-28" transform="translate(95.263672 0)"/>
      <use xlink:href="#DejaVuSans-6e" transform="translate(134.277344 0)"/>
      <use xlink:href="#DejaVuSans-6d" transform="translate(197.65625 0)"/>
      <use xlink:href="#DejaVuSans-29" transform="translate(295.068359 0)"/>
     </g>
    </g>
   </g>
   <g id="matplotlib.axis_2">
    <g id="ytick_1">
     <g id="line2d_7">
      <defs>
       <path id="md91014fffe" d="M 0 0 
L -3.5 0 
" style="stroke: #000000; stroke-width: 0.8"/>
      </defs>
      <g>
       <use xlink:href="#md91014fffe" x="33.7" y="180.687273" style="stroke: #000000; stroke-width: 0.8"/>
      </g>
     </g>
     <g id="text_8">
      <!-- 0 -->
      <g transform="translate(20.3375 184.486491) scale(0.1 -0.1)">
       <use xlink:href="#DejaVuSans-30"/>
      </g>
     </g>
    </g>
    <g id="ytick_2">
     <g id="line2d_8">
      <g>
       <use xlink:href="#md91014fffe" x="33.7" y="143.788123" style="stroke: #000000; stroke-width: 0.8"/>
      </g>
     </g>
     <g id="text_9">
      <!-- 1000 -->
      <g transform="translate(1.25 147.587341) scale(0.1 -0.1)">
       <use xlink:href="#DejaVuSans-31"/>
       <use xlink:href="#DejaVuSans-30" transform="translate(63.623047 0)"/>
       <use xlink:href="#DejaVuSans-30" transform="translate(127.246094 0)"/>
       <use xlink:href="#DejaVuSans-30" transform="translate(190.869141 0)"/>
      </g>
     </g>
    </g>
    <g id="ytick_3">
     <g id="line2d_9">
      <g>
       <use xlink:href="#md91014fffe" x="33.7" y="106.888972" style="stroke: #000000; stroke-width: 0.8"/>
      </g>
     </g>
     <g id="text_10">
      <!-- 2000 -->
      <g transform="translate(1.25 110.688191) scale(0.1 -0.1)">
       <use xlink:href="#DejaVuSans-32"/>
       <use xlink:href="#DejaVuSans-30" transform="translate(63.623047 0)"/>
       <use xlink:href="#DejaVuSans-30" transform="translate(127.246094 0)"/>
       <use xlink:href="#DejaVuSans-30" transform="translate(190.869141 0)"/>
      </g>
     </g>
    </g>
    <g id="ytick_4">
     <g id="line2d_10">
      <g>
       <use xlink:href="#md91014fffe" x="33.7" y="69.989822" style="stroke: #000000; stroke-width: 0.8"/>
      </g>
     </g>
     <g id="text_11">
      <!-- 3000 -->
      <g transform="translate(1.25 73.789041) scale(0.1 -0.1)">
       <defs>
        <path id="DejaVuSans-33" d="M 2597 2516 
Q 3050 2419 3304 2112 
Q 3559 1806 3559 1356 
Q 3559 666 3084 287 
Q 2609 -91 1734 -91 
Q 1441 -91 1130 -33 
Q 819 25 488 141 
L 488 750 
Q 750 597 1062 519 
Q 1375 441 1716 441 
Q 2309 441 2620 675 
Q 2931 909 2931 1356 
Q 2931 1769 2642 2001 
Q 2353 2234 1838 2234 
L 1294 2234 
L 1294 2753 
L 1863 2753 
Q 2328 2753 2575 2939 
Q 2822 3125 2822 3475 
Q 2822 3834 2567 4026 
Q 2313 4219 1838 4219 
Q 1578 4219 1281 4162 
Q 984 4106 628 3988 
L 628 4550 
Q 988 4650 1302 4700 
Q 1616 4750 1894 4750 
Q 2613 4750 3031 4423 
Q 3450 4097 3450 3541 
Q 3450 3153 3228 2886 
Q 3006 2619 2597 2516 
z
" transform="scale(0.015625)"/>
       </defs>
       <use xlink:href="#DejaVuSans-33"/>
       <use xlink:href="#DejaVuSans-30" transform="translate(63.623047 0)"/>
       <use xlink:href="#DejaVuSans-30" transform="translate(127.246094 0)"/>
       <use xlink:href="#DejaVuSans-30" transform="translate(190.869141 0)"/>
      </g>
     </g>
    </g>
    <g id="ytick_5">
     <g id="line2d_11">
      <g>
       <use xlink:href="#md91014fffe" x="33.7" y="33.090672" style="stroke: #000000; stroke-width: 0.8"/>
      </g>
     </g>
     <g id="text_12">
      <!-- 4000 -->
      <g transform="translate(1.25 36.889891) scale(0.1 -0.1)">
       <use xlink:href="#DejaVuSans-34"/>
       <use xlink:href="#DejaVuSans-30" transform="translate(63.623047 0)"/>
       <use xlink:href="#DejaVuSans-30" transform="translate(127.246094 0)"/>
       <use xlink:href="#DejaVuSans-30" transform="translate(190.869141 0)"/>
      </g>
     </g>
    </g>
    <g id="text_13">
     <!-- rdf -->
     <g transform="translate(-4.829688 108.462344) rotate(-90) scale(0.1 -0.1)">
      <defs>
       <path id="DejaVuSans-72" d="M 2631 2963 
Q 2534 3019 2420 3045 
Q 2306 3072 2169 3072 
Q 1681 3072 1420 2755 
Q 1159 2438 1159 1844 
L 1159 0 
L 581 0 
L 581 3500 
L 1159 3500 
L 1159 2956 
Q 1341 3275 1631 3429 
Q 1922 3584 2338 3584 
Q 2397 3584 2469 3576 
Q 2541 3569 2628 3553 
L 2631 2963 
z
" transform="scale(0.015625)"/>
       <path id="DejaVuSans-64" d="M 2906 2969 
L 2906 4863 
L 3481 4863 
L 3481 0 
L 2906 0 
L 2906 525 
Q 2725 213 2448 61 
Q 2172 -91 1784 -91 
Q 1150 -91 751 415 
Q 353 922 353 1747 
Q 353 2572 751 3078 
Q 1150 3584 1784 3584 
Q 2172 3584 2448 3432 
Q 2725 3281 2906 2969 
z
M 947 1747 
Q 947 1113 1208 752 
Q 1469 391 1925 391 
Q 2381 391 2643 752 
Q 2906 1113 2906 1747 
Q 2906 2381 2643 2742 
Q 2381 3103 1925 3103 
Q 1469 3103 1208 2742 
Q 947 2381 947 1747 
z
" transform="scale(0.015625)"/>
       <path id="DejaVuSans-66" d="M 2375 4863 
L 2375 4384 
L 1825 4384 
Q 1516 4384 1395 4259 
Q 1275 4134 1275 3809 
L 1275 3500 
L 2222 3500 
L 2222 3053 
L 1275 3053 
L 1275 0 
L 697 0 
L 697 3053 
L 147 3053 
L 147 3500 
L 697 3500 
L 697 3744 
Q 697 4328 969 4595 
Q 1241 4863 1831 4863 
L 2375 4863 
z
" transform="scale(0.015625)"/>
      </defs>
      <use xlink:href="#DejaVuSans-72"/>
      <use xlink:href="#DejaVuSans-64" transform="translate(39.363281 0)"/>
      <use xlink:href="#DejaVuSans-66" transform="translate(102.839844 0)"/>
     </g>
    </g>
   </g>
   <g id="line2d_12">
    <path d="M 44.406818 180.687273 
L 94.854984 180.687273 
L 95.391667 176.793635 
L 95.928349 22.432727 
L 96.465032 77.959786 
L 97.001715 112.975819 
L 97.538397 168.13319 
L 98.07508 159.592145 
L 98.611762 170.34652 
L 99.685128 174.05728 
L 100.22181 172.557644 
L 100.758493 174.306285 
L 101.295175 171.294699 
L 101.831858 176.07795 
L 102.368541 177.670768 
L 102.905223 177.725612 
L 103.441906 173.416512 
L 103.978589 177.830908 
L 104.515271 173.67274 
L 105.051954 171.039205 
L 105.588636 176.624305 
L 106.662002 176.762601 
L 107.198684 171.684902 
L 107.735367 178.158394 
L 108.272049 174.470447 
L 108.808732 175.796021 
L 109.345415 178.28174 
L 109.882097 174.771229 
L 110.41878 173.70252 
L 111.492145 176.177997 
L 112.028828 174.029866 
L 112.56551 175.226126 
L 113.102193 174.235495 
L 113.638876 177.51101 
L 114.175558 174.431742 
L 114.712241 172.472946 
L 115.248923 178.664567 
L 115.785606 177.698501 
L 116.322289 174.798269 
L 116.858971 172.950741 
L 117.395654 179.734324 
L 117.932337 175.991577 
L 118.469019 175.133528 
L 119.005702 176.125266 
L 119.542384 175.29051 
L 120.079067 173.592935 
L 120.61575 173.692147 
L 121.152432 172.064801 
L 121.689115 178.136214 
L 122.225797 175.655055 
L 122.76248 176.550809 
L 123.299163 173.342244 
L 123.835845 172.635675 
L 124.372528 175.920722 
L 124.909211 170.496531 
L 125.445893 177.592924 
L 125.982576 178.396845 
L 126.519258 176.16591 
L 127.055941 175.480414 
L 127.592624 173.344252 
L 128.129306 174.162747 
L 128.665989 177.108412 
L 129.202671 174.326359 
L 129.739354 175.801743 
L 130.276037 176.551694 
L 130.812719 174.560485 
L 131.349402 177.99767 
L 131.886085 176.702071 
L 132.422767 177.40652 
L 132.95945 174.204807 
L 133.496132 178.125343 
L 134.032815 173.725862 
L 134.569498 175.68433 
L 135.10618 175.743198 
L 135.642863 174.579452 
L 136.179545 174.046792 
L 136.716228 170.543346 
L 137.252911 177.148205 
L 137.789593 174.273164 
L 138.326276 173.769573 
L 138.862959 176.127575 
L 139.399641 176.178812 
L 139.936324 175.671909 
L 140.473006 174.625505 
L 141.009689 174.147505 
L 141.546372 173.141402 
L 142.083054 178.021764 
L 142.619737 174.886903 
L 143.156419 175.992816 
L 143.693102 175.527298 
L 144.229785 176.092964 
L 144.766467 173.111541 
L 145.30315 177.189344 
L 146.376515 174.326817 
L 146.913198 174.393061 
L 147.44988 173.979132 
L 147.986563 175.945139 
L 148.523246 175.055068 
L 149.596611 176.088832 
L 150.133293 173.859289 
L 150.669976 177.082276 
L 151.206659 173.103262 
L 151.743341 174.062084 
L 152.280024 173.690369 
L 152.816707 173.759312 
L 153.353389 175.113478 
L 153.890072 177.715284 
L 154.426754 176.482795 
L 154.963437 176.10702 
L 155.50012 174.501564 
L 156.036802 175.377609 
L 156.573485 175.832736 
L 157.110167 175.878749 
L 157.64685 173.145569 
L 158.183533 176.362045 
L 158.720215 176.402465 
L 159.256898 173.740993 
L 159.793581 175.716962 
L 160.330263 175.383949 
L 160.866946 177.309278 
L 161.403628 176.224405 
L 161.940311 178.476127 
L 162.476994 173.018259 
L 163.013676 175.620671 
L 163.550359 176.742082 
L 164.087041 175.000053 
L 164.623724 175.75518 
L 165.160407 175.798834 
L 165.697089 176.534088 
L 166.233772 175.198261 
L 166.770455 175.926361 
L 167.307137 175.967755 
L 167.84382 173.66927 
L 168.380502 172.404545 
L 168.917185 175.431821 
L 169.453868 173.848455 
L 169.99055 173.906632 
L 170.527233 172.043213 
L 171.063915 176.242976 
L 171.600598 176.595112 
L 172.137281 176.317206 
L 172.673963 175.115453 
L 173.210646 176.082618 
L 173.747329 175.511796 
L 174.284011 175.554399 
L 174.820694 176.79431 
L 175.357376 175.341019 
L 175.894059 176.562875 
L 176.430742 174.550778 
L 176.967424 177.208976 
L 177.504107 175.511732 
L 178.040789 175.838367 
L 178.577472 173.896306 
L 179.114155 173.950197 
L 179.650837 175.11741 
L 180.18752 177.095372 
L 180.724203 177.671819 
L 181.260885 174.975466 
L 181.797568 177.448783 
L 182.33425 175.063848 
L 182.870933 176.43584 
L 183.407616 174.622866 
L 183.944298 178.332429 
L 184.480981 175.494222 
L 185.017663 176.306766 
L 185.554346 175.828502 
L 186.091029 176.118945 
L 186.627711 175.649516 
L 187.164394 175.437267 
L 187.701077 173.739478 
L 188.237759 175.26887 
L 188.774442 177.753673 
L 189.311124 175.834028 
L 189.847807 175.62884 
L 190.38449 174.948562 
L 190.921172 173.803607 
L 191.457855 176.210074 
L 191.994537 175.072869 
L 192.53122 177.435854 
L 193.067903 175.614645 
L 193.604585 175.65102 
L 194.141268 175.459693 
L 194.677951 172.563216 
L 195.214633 176.878134 
L 195.751316 177.35001 
L 196.287998 173.396987 
L 196.824681 174.764347 
L 197.361364 175.023597 
L 197.898046 177.009903 
L 198.434729 175.961402 
L 198.971411 175.56744 
L 199.508094 176.450182 
L 200.044777 176.058508 
L 200.581459 175.254367 
L 201.118142 174.876396 
L 201.654825 176.977111 
L 202.191507 176.592822 
L 202.72819 175.807144 
L 203.264872 175.436053 
L 203.801555 175.270675 
L 204.87492 175.342773 
L 205.411603 175.968171 
L 205.948285 177.171383 
L 206.484968 177.388646 
L 207.021651 175.675484 
L 207.558333 176.091348 
L 208.095016 175.740889 
L 208.631699 175.962132 
L 209.168381 175.053916 
L 209.705064 174.717262 
L 210.241746 176.794718 
L 210.778429 176.451412 
L 211.315112 176.295579 
L 211.851794 174.50547 
L 212.388477 177.074087 
L 212.925159 177.097009 
L 213.461842 175.335969 
L 213.998525 176.43324 
L 214.535207 175.050895 
L 215.07189 175.086254 
L 215.608573 174.773391 
L 216.145255 174.983081 
L 216.681938 176.049202 
L 217.21862 176.419345 
L 217.755303 176.276027 
L 218.291986 175.628706 
L 218.828668 178.005915 
L 219.365351 175.523938 
L 219.902033 176.879764 
L 220.438716 176.902905 
L 220.975399 177.089397 
L 221.512081 176.298339 
L 222.048764 176.809533 
L 222.585447 177.154007 
L 223.122129 177.973367 
L 223.658812 175.291909 
L 224.195494 175.639505 
L 224.732177 175.355826 
L 225.26886 175.699122 
L 225.805542 177.123212 
L 226.342225 177.452257 
L 226.878907 177.318093 
L 227.41559 176.272066 
L 227.952273 176.449159 
L 228.488955 176.172822 
L 229.025638 176.797438 
L 229.562321 175.629972 
L 230.099003 175.363314 
L 230.635686 176.423189 
L 231.172368 176.155265 
L 231.709051 176.471849 
L 232.245734 174.472471 
L 232.782416 176.950806 
L 233.319099 175.400145 
L 233.855781 175.714194 
L 234.392464 177.155093 
L 234.929147 176.472455 
L 235.465829 174.959274 
L 236.002512 174.713435 
L 236.539195 176.404552 
L 237.075877 175.191856 
L 237.61256 176.861811 
L 238.149242 176.067724 
L 238.685925 175.958085 
L 239.222608 175.043421 
L 239.75929 176.811665 
L 240.295973 175.636631 
L 240.832656 176.06074 
L 241.369338 176.874679 
L 242.442703 175.485321 
L 242.979386 175.901398 
L 243.516069 175.927119 
L 244.052751 176.20858 
L 244.589434 175.341591 
L 245.126116 175.876477 
L 245.662799 176.783567 
L 246.199482 176.428492 
L 246.736164 175.080448 
L 247.272847 175.97764 
L 247.80953 176.372261 
L 248.346212 174.187452 
L 248.882895 175.441408 
L 249.419577 176.196976 
L 249.95626 176.461816 
L 250.492943 177.564668 
L 251.029625 175.908178 
L 251.566308 176.170574 
L 252.10299 176.075603 
L 252.639673 176.452225 
L 253.176356 177.644316 
L 253.713038 176.146185 
L 254.249721 175.590145 
L 254.786404 177.460153 
L 255.323086 175.641837 
L 255.859769 175.781468 
L 256.396451 176.146784 
L 256.933134 175.492001 
L 258.006499 176.773928 
L 258.543182 176.904756 
L 258.543182 176.904756 
" clip-path="url(#p9018157552)" style="fill: none; stroke: #000000; stroke-opacity: 0.5; stroke-width: 0.5; stroke-linecap: square"/>
   </g>
   <g id="line2d_13">
    <path d="M 44.406818 180.687273 
L 98.611762 180.687273 
L 99.148445 175.511662 
L 99.685128 180.687273 
L 100.22181 175.707874 
L 100.758493 180.687273 
L 101.295175 175.893146 
L 101.831858 175.981922 
L 102.368541 180.687273 
L 102.905223 176.15223 
L 103.441906 180.687273 
L 104.515271 172.09447 
L 105.051954 180.687273 
L 105.588636 172.392045 
L 106.662002 172.6744 
L 107.735367 180.687273 
L 108.272049 180.687273 
L 108.808732 165.707812 
L 109.345415 177.003801 
L 110.41878 177.122138 
L 110.955463 173.671077 
L 111.492145 177.234858 
L 112.028828 167.095065 
L 112.56551 173.997368 
L 113.102193 170.807987 
L 113.638876 177.444838 
L 114.175558 171.108491 
L 114.712241 168.109083 
L 115.248923 177.590004 
L 116.322289 171.669735 
L 116.858971 165.879063 
L 117.395654 180.687273 
L 117.932337 177.811159 
L 118.469019 177.852549 
L 119.005702 172.304584 
L 120.079067 177.971471 
L 120.61575 178.009451 
L 121.152432 167.484111 
L 121.689115 180.687273 
L 122.225797 180.687273 
L 123.299163 170.689872 
L 123.835845 173.289866 
L 124.372528 178.254345 
L 124.909211 166.283051 
L 125.445893 178.318162 
L 125.982576 180.687273 
L 126.519258 173.763936 
L 127.055941 173.85327 
L 127.592624 164.945672 
L 128.129306 176.24697 
L 128.665989 178.495221 
L 129.202671 167.700405 
L 129.739354 176.412433 
L 130.812719 172.348033 
L 131.886085 180.687273 
L 132.422767 176.66835 
L 133.496132 180.687273 
L 134.032815 174.872912 
L 134.569498 174.941705 
L 135.10618 176.901965 
L 135.642863 167.593632 
L 136.179545 173.292191 
L 136.716228 171.550278 
L 137.252911 175.268075 
L 137.789593 173.544287 
L 138.326276 168.329089 
L 138.862959 178.941763 
L 139.399641 173.783692 
L 139.936324 178.980656 
L 140.473006 170.561365 
L 141.009689 174.011259 
L 141.546372 169.132657 
L 142.083054 174.156776 
L 142.619737 172.612892 
L 143.156419 177.492434 
L 143.693102 171.205818 
L 144.229785 177.56059 
L 144.766467 168.313576 
L 145.30315 174.565897 
L 145.839833 179.17304 
L 146.376515 170.198635 
L 146.913198 168.825104 
L 147.44988 173.350242 
L 147.986563 173.425879 
L 148.523246 176.375116 
L 149.059928 174.996401 
L 149.596611 176.462455 
L 150.133293 173.717038 
L 150.669976 176.547159 
L 151.206659 180.687273 
L 151.743341 177.981987 
L 152.816707 175.383052 
L 153.353389 178.061158 
L 153.890072 178.086782 
L 154.426754 174.249165 
L 154.963437 178.136905 
L 155.50012 176.898526 
L 156.036802 176.93477 
L 156.573485 170.775927 
L 157.110167 175.77857 
L 157.64685 172.178046 
L 158.720215 177.108484 
L 159.256898 173.596278 
L 159.793581 178.345491 
L 160.866946 178.388359 
L 161.403628 173.853506 
L 161.940311 178.430061 
L 162.476994 171.740089 
L 163.013676 174.037357 
L 163.550359 177.392142 
L 164.087041 176.332995 
L 164.623724 173.135004 
L 165.160407 174.271196 
L 165.697089 178.567418 
L 166.233772 175.434116 
L 166.770455 175.480024 
L 167.307137 173.46051 
L 167.84382 173.523061 
L 168.380502 169.526296 
L 168.917185 173.645788 
L 169.453868 174.703306 
L 169.99055 172.776525 
L 171.063915 172.909752 
L 171.600598 177.795216 
L 172.137281 173.995608 
L 172.673963 175.947356 
L 173.210646 176.926804 
L 174.284011 176.988583 
L 174.820694 179.770181 
L 175.357376 176.139244 
L 175.894059 177.078424 
L 176.430742 177.10765 
L 176.967424 178.911892 
L 178.040789 175.446175 
L 178.577472 176.354493 
L 179.114155 176.388877 
L 179.650837 174.717076 
L 180.18752 175.610259 
L 180.724203 177.329153 
L 181.260885 173.190525 
L 181.797568 177.381314 
L 182.33425 174.946692 
L 182.870933 174.991016 
L 183.407616 173.41987 
L 183.944298 176.680767 
L 184.480981 176.711343 
L 185.017663 178.319866 
L 185.554346 175.205172 
L 186.091029 173.69202 
L 186.627711 175.287426 
L 187.164394 175.327891 
L 187.701077 174.607951 
L 188.237759 176.915941 
L 188.774442 178.441235 
L 189.311124 176.228354 
L 190.38449 176.293572 
L 190.921172 174.144822 
L 191.457855 174.914042 
L 191.994537 177.105165 
L 192.53122 176.419785 
L 193.067903 174.332077 
L 193.604585 175.078717 
L 194.141268 173.726636 
L 194.677951 173.776182 
L 195.214633 176.570041 
L 195.751316 177.961841 
L 196.287998 173.245105 
L 196.824681 176.656392 
L 197.361364 172.681883 
L 197.898046 178.699871 
L 198.434729 176.082234 
L 198.971411 171.540903 
L 199.508094 176.794445 
L 200.044777 174.888166 
L 200.581459 178.127538 
L 201.118142 172.424932 
L 201.654825 176.268573 
L 202.191507 178.806384 
L 202.72819 175.705474 
L 203.264872 173.883409 
L 203.801555 175.157828 
L 204.338238 174.584539 
L 204.87492 176.443839 
L 205.411603 177.07421 
L 205.948285 176.499945 
L 206.484968 177.121844 
L 207.021651 175.374295 
L 207.558333 177.754977 
L 208.631699 176.635464 
L 209.168381 174.936553 
L 209.705064 174.973785 
L 210.241746 177.848951 
L 210.778429 175.611145 
L 211.315112 177.324882 
L 211.851794 172.33502 
L 212.388477 176.814389 
L 212.925159 177.938477 
L 213.461842 176.317041 
L 213.998525 176.344614 
L 214.535207 176.91134 
L 215.07189 173.182781 
L 215.608573 174.827745 
L 216.145255 175.922975 
L 216.681938 175.426497 
L 217.21862 173.367775 
L 217.755303 174.97174 
L 218.291986 174.490528 
L 218.828668 177.094671 
L 219.365351 173.546047 
L 219.902033 177.138426 
L 220.438716 177.159995 
L 220.975399 178.183069 
L 221.512081 176.704721 
L 222.048764 177.223562 
L 222.585447 178.719886 
L 223.122129 178.242761 
L 223.658812 175.827477 
L 224.195494 177.788749 
L 224.732177 174.444383 
L 225.26886 177.345601 
L 225.805542 177.839898 
L 226.342225 178.80018 
L 227.41559 176.957184 
L 227.952273 176.515379 
L 228.488955 175.15707 
L 229.025638 177.021851 
L 229.562321 175.220925 
L 230.099003 174.799491 
L 230.635686 176.634555 
L 231.172368 175.762369 
L 231.709051 175.790475 
L 232.245734 173.162665 
L 232.782416 178.046596 
L 233.319099 175.873485 
L 233.855781 175.900685 
L 234.392464 176.793043 
L 234.929147 178.535959 
L 235.465829 175.55303 
L 236.539195 177.302541 
L 237.075877 176.059101 
L 237.61256 175.666354 
L 238.149242 177.358479 
L 239.222608 174.92584 
L 239.75929 178.640885 
L 240.295973 176.616854 
L 241.369338 176.661041 
L 241.906021 173.879792 
L 242.442703 177.899352 
L 243.516069 174.777284 
L 244.052751 176.768416 
L 244.589434 175.230221 
L 245.126116 175.259302 
L 245.662799 174.902547 
L 246.199482 176.467635 
L 247.272847 176.512121 
L 247.80953 176.15651 
L 248.346212 176.180321 
L 248.882895 176.951118 
L 249.419577 176.227316 
L 249.95626 175.880816 
L 250.492943 176.641397 
L 251.029625 174.466982 
L 251.566308 176.683159 
L 252.10299 173.80672 
L 252.639673 176.363994 
L 253.176356 178.178297 
L 253.713038 176.051578 
L 254.249721 175.010925 
L 254.786404 177.863542 
L 255.323086 175.770839 
L 255.859769 175.446332 
L 256.396451 176.515698 
L 256.933134 175.499058 
L 257.469817 175.180975 
L 258.006499 178.290349 
L 258.543182 176.598816 
L 258.543182 176.598816 
" clip-path="url(#p9018157552)" style="fill: none; stroke: #0000ff; stroke-opacity: 0.5; stroke-linecap: square"/>
   </g>
   <g id="line2d_14">
    <path d="M 44.406818 180.687273 
L 99.148445 180.687273 
L 99.685128 171.663116 
L 100.22181 171.83501 
L 100.758493 180.687273 
L 101.295175 180.687273 
L 101.831858 172.322206 
L 102.368541 172.475675 
L 102.905223 180.687273 
L 103.441906 156.936123 
L 103.978589 172.911612 
L 104.515271 180.687273 
L 105.051954 165.679166 
L 105.588636 180.687273 
L 107.735367 180.687273 
L 108.272049 173.917841 
L 108.808732 180.687273 
L 109.345415 180.687273 
L 109.882097 161.36153 
L 110.41878 155.335208 
L 110.955463 174.450655 
L 111.492145 180.687273 
L 112.56551 180.687273 
L 113.102193 174.832882 
L 113.638876 180.687273 
L 114.712241 169.506661 
L 115.248923 180.687273 
L 115.785606 180.687273 
L 116.322289 169.999823 
L 116.858971 175.422133 
L 117.395654 175.498999 
L 117.932337 165.347999 
L 118.469019 170.608254 
L 119.005702 180.687273 
L 119.542384 170.893146 
L 120.079067 166.203 
L 120.61575 166.405558 
L 121.152432 175.992816 
L 121.689115 176.057574 
L 122.225797 162.422186 
L 122.76248 176.183123 
L 123.299163 167.357406 
L 123.835845 167.53633 
L 124.372528 176.362069 
L 124.909211 163.615604 
L 125.982576 180.687273 
L 126.519258 176.584555 
L 127.055941 176.637494 
L 127.592624 180.687273 
L 128.129306 176.740337 
L 128.665989 168.99633 
L 129.202671 176.839313 
L 129.739354 180.687273 
L 130.276037 180.687273 
L 131.349402 173.365577 
L 131.886085 173.454869 
L 132.422767 177.114898 
L 132.95945 163.040559 
L 133.496132 177.200202 
L 134.032815 177.241726 
L 134.569498 180.687273 
L 135.10618 177.322555 
L 135.642863 180.687273 
L 136.179545 164.253759 
L 136.716228 170.941147 
L 137.252911 180.687273 
L 137.789593 177.512613 
L 138.326276 171.271515 
L 138.862959 171.377891 
L 139.399641 174.550757 
L 139.936324 171.585317 
L 140.473006 171.686467 
L 141.009689 168.818805 
L 141.546372 177.752767 
L 143.156419 177.847416 
L 143.693102 175.068634 
L 144.229785 169.570181 
L 144.766467 177.937563 
L 145.30315 175.246051 
L 145.839833 177.995303 
L 146.376515 175.359711 
L 148.523246 175.576569 
L 149.596611 170.672891 
L 150.133293 170.774052 
L 150.669976 178.233872 
L 151.206659 163.685209 
L 151.743341 171.068481 
L 152.280024 171.163709 
L 152.816707 166.542686 
L 153.353389 171.349976 
L 153.890072 178.375726 
L 154.426754 180.687273 
L 154.963437 176.153285 
L 155.50012 176.196906 
L 156.036802 174.016157 
L 156.573485 176.28223 
L 157.110167 176.323983 
L 157.64685 169.881906 
L 158.183533 176.405734 
L 158.720215 174.324983 
L 159.793581 174.442523 
L 160.330263 178.624869 
L 160.866946 178.643795 
L 161.403628 176.637634 
L 161.940311 178.680862 
L 162.476994 174.722484 
L 163.013676 178.716927 
L 163.550359 180.687273 
L 164.087041 174.88157 
L 164.623724 174.933165 
L 165.160407 171.181975 
L 165.697089 175.034327 
L 166.233772 173.216118 
L 166.770455 175.132876 
L 167.307137 175.181169 
L 167.84382 171.589862 
L 168.917185 178.898959 
L 169.453868 173.595166 
L 169.99055 173.655498 
L 170.527233 166.742947 
L 171.063915 173.773922 
L 171.600598 175.54584 
L 172.137281 180.687273 
L 172.673963 168.890148 
L 173.210646 179.015954 
L 173.747329 177.372261 
L 174.284011 170.824103 
L 174.820694 175.796115 
L 175.357376 174.218966 
L 175.894059 177.479408 
L 176.430742 172.732557 
L 176.967424 179.109157 
L 177.504107 171.294624 
L 178.040789 174.475602 
L 178.577472 171.444012 
L 179.114155 171.517364 
L 180.18752 177.678672 
L 180.724203 173.224786 
L 181.260885 167.359724 
L 181.797568 177.748643 
L 182.33425 179.229348 
L 183.407616 176.380665 
L 183.944298 180.687273 
L 184.480981 173.618954 
L 185.017663 175.075643 
L 185.554346 173.725876 
L 186.091029 175.16016 
L 186.627711 179.315883 
L 187.701077 171.230552 
L 188.237759 171.300849 
L 188.774442 176.694318 
L 189.311124 175.402628 
L 189.847807 176.752937 
L 190.38449 174.178087 
L 190.921172 176.810266 
L 191.457855 175.555513 
L 191.994537 176.866359 
L 192.53122 179.422832 
L 193.067903 175.665884 
L 194.141268 175.737487 
L 194.677951 169.629529 
L 195.214633 178.247432 
L 195.751316 178.264667 
L 196.287998 174.6734 
L 196.824681 173.521264 
L 197.361364 174.757355 
L 197.898046 178.331833 
L 198.434729 173.670072 
L 198.971411 178.364385 
L 200.044777 176.105263 
L 200.581459 177.274293 
L 201.118142 179.55738 
L 201.654825 179.565063 
L 202.191507 173.999669 
L 202.72819 174.044876 
L 203.264872 171.890358 
L 203.801555 175.226094 
L 204.338238 176.347552 
L 204.87492 173.143391 
L 205.948285 175.370031 
L 206.484968 177.518004 
L 207.021651 177.538842 
L 207.558333 174.431709 
L 208.095016 173.436805 
L 208.631699 177.600181 
L 209.168381 177.620223 
L 209.705064 176.624349 
L 210.241746 174.632188 
L 210.778429 175.673814 
L 211.315112 175.705953 
L 211.851794 177.717583 
L 212.388477 176.752915 
L 212.925159 176.777875 
L 213.461842 175.83146 
L 213.998525 175.862097 
L 214.535207 176.851405 
L 215.07189 176.875468 
L 215.608573 177.84629 
L 216.145255 175.040699 
L 216.681938 175.07578 
L 217.21862 180.687273 
L 217.755303 177.916106 
L 218.291986 177.933165 
L 218.828668 176.125239 
L 219.902033 177.98339 
L 220.438716 177.104006 
L 221.512081 177.147227 
L 222.048764 175.409238 
L 223.122129 180.687273 
L 223.658812 174.639529 
L 224.732177 173.003717 
L 225.26886 173.897845 
L 225.805542 177.312607 
L 226.342225 176.493734 
L 226.878907 178.185913 
L 227.41559 172.398187 
L 227.952273 175.742807 
L 228.488955 177.410116 
L 229.025638 175.800044 
L 229.562321 175.828298 
L 230.099003 173.440773 
L 230.635686 175.083516 
L 231.172368 177.503497 
L 231.709051 175.938864 
L 232.245734 176.752837 
L 232.782416 175.992738 
L 233.319099 176.797344 
L 233.855781 175.272143 
L 234.392464 176.841121 
L 234.929147 176.097805 
L 235.465829 176.88413 
L 236.002512 176.905385 
L 236.539195 173.165648 
L 237.075877 173.955388 
L 237.61256 176.224234 
L 238.149242 174.769419 
L 238.685925 176.273364 
L 239.222608 177.029221 
L 239.75929 176.321646 
L 240.295973 176.345493 
L 240.832656 175.649493 
L 241.369338 179.971498 
L 241.906021 180.687273 
L 242.442703 176.439013 
L 242.979386 175.053451 
L 243.516069 174.383285 
L 244.052751 175.113788 
L 244.589434 173.064725 
L 245.126116 175.173145 
L 245.662799 177.944885 
L 246.199482 176.595503 
L 246.736164 173.903707 
L 247.272847 173.939553 
L 248.346212 176.681094 
L 248.882895 172.052606 
L 249.419577 176.062133 
L 249.95626 174.771633 
L 250.492943 179.379515 
L 251.029625 176.133858 
L 251.566308 177.451626 
L 252.10299 176.824507 
L 252.639673 175.563388 
L 253.176356 178.138472 
L 253.713038 177.517567 
L 254.249721 175.010925 
L 254.786404 176.294804 
L 255.323086 175.692801 
L 255.859769 176.960382 
L 256.396451 176.361196 
L 256.933134 176.997877 
L 257.469817 177.016409 
L 258.006499 176.426076 
L 258.543182 176.447393 
L 258.543182 176.447393 
" clip-path="url(#p9018157552)" style="fill: none; stroke: #ff0000; stroke-opacity: 0.5; stroke-linecap: square"/>
   </g>
   <g id="patch_3">
    <path d="M 33.7 188.6 
L 33.7 14.52 
" style="fill: none; stroke: #000000; stroke-width: 0.8; stroke-linejoin: miter; stroke-linecap: square"/>
   </g>
   <g id="patch_4">
    <path d="M 269.25 188.6 
L 269.25 14.52 
" style="fill: none; stroke: #000000; stroke-width: 0.8; stroke-linejoin: miter; stroke-linecap: square"/>
   </g>
   <g id="patch_5">
    <path d="M 33.7 188.6 
L 269.25 188.6 
" style="fill: none; stroke: #000000; stroke-width: 0.8; stroke-linejoin: miter; stroke-linecap: square"/>
   </g>
   <g id="patch_6">
    <path d="M 33.7 14.52 
L 269.25 14.52 
" style="fill: none; stroke: #000000; stroke-width: 0.8; stroke-linejoin: miter; stroke-linecap: square"/>
   </g>
   <g id="legend_1">
    <g id="patch_7">
     <path d="M 213.917188 66.554375 
L 262.25 66.554375 
Q 264.25 66.554375 264.25 64.554375 
L 264.25 21.52 
Q 264.25 19.52 262.25 19.52 
L 213.917188 19.52 
Q 211.917188 19.52 211.917188 21.52 
L 211.917188 64.554375 
Q 211.917188 66.554375 213.917188 66.554375 
z
" style="fill: #ffffff; opacity: 0.8; stroke: #cccccc; stroke-linejoin: miter"/>
    </g>
    <g id="line2d_15">
     <path d="M 215.917188 27.618438 
L 225.917188 27.618438 
L 235.917188 27.618438 
" style="fill: none; stroke: #000000; stroke-opacity: 0.5; stroke-width: 0.5; stroke-linecap: square"/>
    </g>
    <g id="text_14">
     <!-- all -->
     <g transform="translate(243.917188 31.118438) scale(0.1 -0.1)">
      <defs>
       <path id="DejaVuSans-61" d="M 2194 1759 
Q 1497 1759 1228 1600 
Q 959 1441 959 1056 
Q 959 750 1161 570 
Q 1363 391 1709 391 
Q 2188 391 2477 730 
Q 2766 1069 2766 1631 
L 2766 1759 
L 2194 1759 
z
M 3341 1997 
L 3341 0 
L 2766 0 
L 2766 531 
Q 2569 213 2275 61 
Q 1981 -91 1556 -91 
Q 1019 -91 701 211 
Q 384 513 384 1019 
Q 384 1609 779 1909 
Q 1175 2209 1959 2209 
L 2766 2209 
L 2766 2266 
Q 2766 2663 2505 2880 
Q 2244 3097 1772 3097 
Q 1472 3097 1187 3025 
Q 903 2953 641 2809 
L 641 3341 
Q 956 3463 1253 3523 
Q 1550 3584 1831 3584 
Q 2591 3584 2966 3190 
Q 3341 2797 3341 1997 
z
" transform="scale(0.015625)"/>
       <path id="DejaVuSans-6c" d="M 603 4863 
L 1178 4863 
L 1178 0 
L 603 0 
L 603 4863 
z
" transform="scale(0.015625)"/>
      </defs>
      <use xlink:href="#DejaVuSans-61"/>
      <use xlink:href="#DejaVuSans-6c" transform="translate(61.279297 0)"/>
      <use xlink:href="#DejaVuSans-6c" transform="translate(89.0625 0)"/>
     </g>
    </g>
    <g id="line2d_16">
     <path d="M 215.917188 42.296563 
L 225.917188 42.296563 
L 235.917188 42.296563 
" style="fill: none; stroke: #0000ff; stroke-opacity: 0.5; stroke-linecap: square"/>
    </g>
    <g id="text_15">
     <!-- 1-1 -->
     <g transform="translate(243.917188 45.796563) scale(0.1 -0.1)">
      <defs>
       <path id="DejaVuSans-2d" d="M 313 2009 
L 1997 2009 
L 1997 1497 
L 313 1497 
L 313 2009 
z
" transform="scale(0.015625)"/>
      </defs>
      <use xlink:href="#DejaVuSans-31"/>
      <use xlink:href="#DejaVuSans-2d" transform="translate(63.623047 0)"/>
      <use xlink:href="#DejaVuSans-31" transform="translate(99.707031 0)"/>
     </g>
    </g>
    <g id="line2d_17">
     <path d="M 215.917188 56.974688 
L 225.917188 56.974688 
L 235.917188 56.974688 
" style="fill: none; stroke: #ff0000; stroke-opacity: 0.5; stroke-linecap: square"/>
    </g>
    <g id="text_16">
     <!-- 2-2 -->
     <g transform="translate(243.917188 60.474688) scale(0.1 -0.1)">
      <use xlink:href="#DejaVuSans-32"/>
      <use xlink:href="#DejaVuSans-2d" transform="translate(63.623047 0)"/>
      <use xlink:href="#DejaVuSans-32" transform="translate(99.707031 0)"/>
     </g>
    </g>
   </g>
  </g>
 </g>
 <defs>
  <clipPath id="p9018157552">
   <rect x="33.7" y="14.52" width="235.55" height="174.08"/>
  </clipPath>
 </defs>
</svg>
